<?xml version="1.0" encoding="UTF-8" standalone="no"?>
<!DOCTYPE svg PUBLIC "-//W3C//DTD SVG 1.1//EN"
 "http://www.w3.org/Graphics/SVG/1.1/DTD/svg11.dtd">
<!-- Generated by graphviz version 2.43.0 (0)
 -->
<!-- Title: src/tls/ca.h Pages: 1 -->
<svg width="1094pt" height="1068pt"
 viewBox="0.00 0.00 1094.33 1068.00" xmlns="http://www.w3.org/2000/svg" xmlns:xlink="http://www.w3.org/1999/xlink">
<g id="graph0" class="graph" transform="scale(1 1) rotate(0) translate(4 1064)">
<title>src/tls/ca.h</title>
<polygon fill="white" stroke="transparent" points="-4,4 -4,-1064 1090.33,-1064 1090.33,4 -4,4"/>
<!-- Node1 -->
<g id="node1" class="node">
<title>Node1</title>
<g id="a_node1"><a xlink:title=" ">
<polygon fill="#bfbfbf" stroke="black" points="195,-1040.5 195,-1059.5 264,-1059.5 264,-1040.5 195,-1040.5"/>
<text text-anchor="middle" x="229.5" y="-1047.5" font-family="Helvetica,sans-Serif" font-size="10.00">src/tls/ca.h</text>
</a>
</g>
</g>
<!-- Node2 -->
<g id="node2" class="node">
<title>Node2</title>
<g id="a_node2"><a xlink:href="ccf__global_8cpp.html" target="_top" xlink:title=" ">
<polygon fill="white" stroke="black" points="0,-973.5 0,-1003.5 111,-1003.5 111,-973.5 0,-973.5"/>
<text text-anchor="start" x="8" y="-991.5" font-family="Helvetica,sans-Serif" font-size="10.00">src/apps/js_v8/tmpl</text>
<text text-anchor="middle" x="55.5" y="-980.5" font-family="Helvetica,sans-Serif" font-size="10.00">/ccf_global.cpp</text>
</a>
</g>
</g>
<!-- Node1&#45;&gt;Node2 -->
<g id="edge1" class="edge">
<title>Node1&#45;&gt;Node2</title>
<path fill="none" stroke="midnightblue" d="M195.08,-1037.23C166.75,-1027.54 126.51,-1013.78 96.51,-1003.52"/>
<polygon fill="midnightblue" stroke="midnightblue" points="193.98,-1040.55 204.57,-1040.48 196.24,-1033.93 193.98,-1040.55"/>
</g>
<!-- Node3 -->
<g id="node3" class="node">
<title>Node3</title>
<g id="a_node3"><a xlink:href="tls__client_8h.html" target="_top" xlink:title=" ">
<polygon fill="white" stroke="black" points="348.5,-917.5 348.5,-936.5 470.5,-936.5 470.5,-917.5 348.5,-917.5"/>
<text text-anchor="middle" x="409.5" y="-924.5" font-family="Helvetica,sans-Serif" font-size="10.00">src/clients/tls_client.h</text>
</a>
</g>
</g>
<!-- Node1&#45;&gt;Node3 -->
<g id="edge2" class="edge">
<title>Node1&#45;&gt;Node3</title>
<path fill="none" stroke="midnightblue" d="M264.69,-1036.8C284.85,-1028.98 310.11,-1017.73 330.5,-1004 360.49,-983.8 389.48,-951.72 402.44,-936.52"/>
<polygon fill="midnightblue" stroke="midnightblue" points="263.37,-1033.56 255.25,-1040.36 265.84,-1040.11 263.37,-1033.56"/>
</g>
<!-- Node9 -->
<g id="node9" class="node">
<title>Node9</title>
<g id="a_node9"><a xlink:href="js_2crypto_8cpp.html" target="_top" xlink:title=" ">
<polygon fill="white" stroke="black" points="129.5,-979 129.5,-998 225.5,-998 225.5,-979 129.5,-979"/>
<text text-anchor="middle" x="177.5" y="-986" font-family="Helvetica,sans-Serif" font-size="10.00">src/js/crypto.cpp</text>
</a>
</g>
</g>
<!-- Node1&#45;&gt;Node9 -->
<g id="edge9" class="edge">
<title>Node1&#45;&gt;Node9</title>
<path fill="none" stroke="midnightblue" d="M215.23,-1032.67C205.42,-1021.45 192.81,-1007.02 184.94,-998.01"/>
<polygon fill="midnightblue" stroke="midnightblue" points="212.83,-1035.25 222.05,-1040.48 218.1,-1030.64 212.83,-1035.25"/>
</g>
<!-- Node11 -->
<g id="node11" class="node">
<title>Node11</title>
<g id="a_node11"><a xlink:href="cert_8h.html" target="_top" xlink:title=" ">
<polygon fill="white" stroke="black" points="244,-979 244,-998 321,-998 321,-979 244,-979"/>
<text text-anchor="middle" x="282.5" y="-986" font-family="Helvetica,sans-Serif" font-size="10.00">src/tls/cert.h</text>
</a>
</g>
</g>
<!-- Node1&#45;&gt;Node11 -->
<g id="edge11" class="edge">
<title>Node1&#45;&gt;Node11</title>
<path fill="none" stroke="midnightblue" d="M243.75,-1033C253.79,-1021.74 266.82,-1007.1 274.92,-998.01"/>
<polygon fill="midnightblue" stroke="midnightblue" points="241.13,-1030.68 237.09,-1040.48 246.36,-1035.34 241.13,-1030.68"/>
</g>
<!-- Node4 -->
<g id="node4" class="node">
<title>Node4</title>
<g id="a_node4"><a xlink:href="rpc__tls__client_8h.html" target="_top" xlink:title=" ">
<polygon fill="white" stroke="black" points="782,-615.5 782,-645.5 883,-645.5 883,-615.5 782,-615.5"/>
<text text-anchor="start" x="790" y="-633.5" font-family="Helvetica,sans-Serif" font-size="10.00">src/clients/rpc_tls</text>
<text text-anchor="middle" x="832.5" y="-622.5" font-family="Helvetica,sans-Serif" font-size="10.00">_client.h</text>
</a>
</g>
</g>
<!-- Node3&#45;&gt;Node4 -->
<g id="edge3" class="edge">
<title>Node3&#45;&gt;Node4</title>
<path fill="none" stroke="midnightblue" d="M480.88,-922.7C604.77,-915.02 846.5,-890.48 846.5,-816 846.5,-816 846.5,-816 846.5,-758 846.5,-717.12 839.19,-669.26 835.13,-645.86"/>
<polygon fill="midnightblue" stroke="midnightblue" points="480.5,-919.22 470.72,-923.31 480.91,-926.21 480.5,-919.22"/>
</g>
<!-- Node5 -->
<g id="node5" class="node">
<title>Node5</title>
<g id="a_node5"><a xlink:href="perf__client_8h.html" target="_top" xlink:title=" ">
<polygon fill="white" stroke="black" points="811,-492.5 811,-522.5 922,-522.5 922,-492.5 811,-492.5"/>
<text text-anchor="start" x="819" y="-510.5" font-family="Helvetica,sans-Serif" font-size="10.00">src/clients/perf/perf</text>
<text text-anchor="middle" x="866.5" y="-499.5" font-family="Helvetica,sans-Serif" font-size="10.00">_client.h</text>
</a>
</g>
</g>
<!-- Node4&#45;&gt;Node5 -->
<g id="edge4" class="edge">
<title>Node4&#45;&gt;Node5</title>
<path fill="none" stroke="midnightblue" d="M817.52,-606.38C810.41,-592.37 804.78,-574.29 811.5,-559 818.12,-543.93 831.71,-531.38 843.72,-522.56"/>
<polygon fill="midnightblue" stroke="midnightblue" points="814.61,-608.34 822.55,-615.36 820.72,-604.92 814.61,-608.34"/>
</g>
<!-- Node8 -->
<g id="node8" class="node">
<title>Node8</title>
<g id="a_node8"><a xlink:href="timing_8h.html" target="_top" xlink:title=" ">
<polygon fill="white" stroke="black" points="820.5,-559.5 820.5,-578.5 952.5,-578.5 952.5,-559.5 820.5,-559.5"/>
<text text-anchor="middle" x="886.5" y="-566.5" font-family="Helvetica,sans-Serif" font-size="10.00">src/clients/perf/timing.h</text>
</a>
</g>
</g>
<!-- Node4&#45;&gt;Node8 -->
<g id="edge7" class="edge">
<title>Node4&#45;&gt;Node8</title>
<path fill="none" stroke="midnightblue" d="M852.28,-607.7C861.42,-597.64 871.75,-586.26 878.64,-578.66"/>
<polygon fill="midnightblue" stroke="midnightblue" points="849.43,-605.64 845.3,-615.4 854.61,-610.35 849.43,-605.64"/>
</g>
<!-- Node6 -->
<g id="node6" class="node">
<title>Node6</title>
<g id="a_node6"><a xlink:href="tpcc__client_8cpp.html" target="_top" xlink:title=" ">
<polygon fill="white" stroke="black" points="788.5,-425.5 788.5,-455.5 904.5,-455.5 904.5,-425.5 788.5,-425.5"/>
<text text-anchor="start" x="796.5" y="-443.5" font-family="Helvetica,sans-Serif" font-size="10.00">src/apps/tpcc/clients</text>
<text text-anchor="middle" x="846.5" y="-432.5" font-family="Helvetica,sans-Serif" font-size="10.00">/tpcc_client.cpp</text>
</a>
</g>
</g>
<!-- Node5&#45;&gt;Node6 -->
<g id="edge5" class="edge">
<title>Node5&#45;&gt;Node6</title>
<path fill="none" stroke="midnightblue" d="M859.18,-482.7C856.37,-473.59 853.27,-463.49 850.83,-455.58"/>
<polygon fill="midnightblue" stroke="midnightblue" points="855.87,-483.87 862.16,-492.4 862.56,-481.81 855.87,-483.87"/>
</g>
<!-- Node7 -->
<g id="node7" class="node">
<title>Node7</title>
<g id="a_node7"><a xlink:href="scenario__perf__client_8cpp.html" target="_top" xlink:title=" ">
<polygon fill="white" stroke="black" points="923,-425.5 923,-455.5 1056,-455.5 1056,-425.5 923,-425.5"/>
<text text-anchor="start" x="931" y="-443.5" font-family="Helvetica,sans-Serif" font-size="10.00">src/clients/perf/scenario</text>
<text text-anchor="middle" x="989.5" y="-432.5" font-family="Helvetica,sans-Serif" font-size="10.00">_perf_client.cpp</text>
</a>
</g>
</g>
<!-- Node5&#45;&gt;Node7 -->
<g id="edge6" class="edge">
<title>Node5&#45;&gt;Node7</title>
<path fill="none" stroke="midnightblue" d="M902.05,-487.71C921.45,-477.46 945.06,-464.98 962.86,-455.58"/>
<polygon fill="midnightblue" stroke="midnightblue" points="900.4,-484.63 893.19,-492.4 903.67,-490.82 900.4,-484.63"/>
</g>
<!-- Node8&#45;&gt;Node5 -->
<g id="edge8" class="edge">
<title>Node8&#45;&gt;Node5</title>
<path fill="none" stroke="midnightblue" d="M880.39,-549.82C877.44,-541.04 873.95,-530.68 871.21,-522.52"/>
<polygon fill="midnightblue" stroke="midnightblue" points="877.13,-551.11 883.63,-559.48 883.77,-548.88 877.13,-551.11"/>
</g>
<!-- Node10 -->
<g id="node10" class="node">
<title>Node10</title>
<g id="a_node10"><a xlink:href="wrap_8cpp.html" target="_top" xlink:title=" ">
<polygon fill="white" stroke="black" points="55,-917.5 55,-936.5 144,-936.5 144,-917.5 55,-917.5"/>
<text text-anchor="middle" x="99.5" y="-924.5" font-family="Helvetica,sans-Serif" font-size="10.00">src/js/wrap.cpp</text>
</a>
</g>
</g>
<!-- Node9&#45;&gt;Node10 -->
<g id="edge10" class="edge">
<title>Node9&#45;&gt;Node10</title>
<path fill="none" stroke="midnightblue" d="M158.22,-972.79C143.26,-961.38 123.04,-945.96 110.65,-936.51"/>
<polygon fill="midnightblue" stroke="midnightblue" points="156.25,-975.69 166.32,-978.98 160.5,-970.13 156.25,-975.69"/>
</g>
<!-- Node11&#45;&gt;Node3 -->
<g id="edge12" class="edge">
<title>Node11&#45;&gt;Node3</title>
<path fill="none" stroke="midnightblue" d="M309.88,-974.67C334.52,-963.13 370.04,-946.49 391.34,-936.51"/>
<polygon fill="midnightblue" stroke="midnightblue" points="308.27,-971.56 300.7,-978.98 311.24,-977.9 308.27,-971.56"/>
</g>
<!-- Node12 -->
<g id="node12" class="node">
<title>Node12</title>
<g id="a_node12"><a xlink:href="rpc__sessions_8h.html" target="_top" xlink:title=" ">
<polygon fill="white" stroke="black" points="209.5,-498 209.5,-517 355.5,-517 355.5,-498 209.5,-498"/>
<text text-anchor="middle" x="282.5" y="-505" font-family="Helvetica,sans-Serif" font-size="10.00">src/enclave/rpc_sessions.h</text>
</a>
</g>
</g>
<!-- Node11&#45;&gt;Node12 -->
<g id="edge13" class="edge">
<title>Node11&#45;&gt;Node12</title>
<path fill="none" stroke="midnightblue" d="M255.27,-974.03C222.69,-955.78 172.5,-919.89 172.5,-872 172.5,-872 172.5,-872 172.5,-629.5 172.5,-574.99 234.38,-534.18 265.31,-517.19"/>
<polygon fill="midnightblue" stroke="midnightblue" points="253.87,-977.26 264.34,-978.92 257.19,-971.09 253.87,-977.26"/>
</g>
<!-- Node25 -->
<g id="node25" class="node">
<title>Node25</title>
<g id="a_node25"><a xlink:href="context_8h.html" target="_top" xlink:title=" ">
<polygon fill="white" stroke="black" points="235,-917.5 235,-936.5 330,-936.5 330,-917.5 235,-917.5"/>
<text text-anchor="middle" x="282.5" y="-924.5" font-family="Helvetica,sans-Serif" font-size="10.00">src/tls/context.h</text>
</a>
</g>
</g>
<!-- Node11&#45;&gt;Node25 -->
<g id="edge35" class="edge">
<title>Node11&#45;&gt;Node25</title>
<path fill="none" stroke="midnightblue" d="M282.5,-968.82C282.5,-958 282.5,-944.9 282.5,-936.51"/>
<polygon fill="midnightblue" stroke="midnightblue" points="279,-968.98 282.5,-978.98 286,-968.98 279,-968.98"/>
</g>
<!-- Node13 -->
<g id="node13" class="node">
<title>Node13</title>
<g id="a_node13"><a xlink:href="enclave_2enclave_8h.html" target="_top" xlink:title=" ">
<polygon fill="white" stroke="black" points="619.5,-56.5 619.5,-75.5 741.5,-75.5 741.5,-56.5 619.5,-56.5"/>
<text text-anchor="middle" x="680.5" y="-63.5" font-family="Helvetica,sans-Serif" font-size="10.00">src/enclave/enclave.h</text>
</a>
</g>
</g>
<!-- Node12&#45;&gt;Node13 -->
<g id="edge14" class="edge">
<title>Node12&#45;&gt;Node13</title>
<path fill="none" stroke="midnightblue" d="M216.63,-495.84C151.5,-481.09 61.5,-447.51 61.5,-374.5 61.5,-374.5 61.5,-374.5 61.5,-182.5 61.5,-126.13 463.29,-85.62 619.45,-72"/>
<polygon fill="midnightblue" stroke="midnightblue" points="215.93,-499.27 226.45,-497.96 217.41,-492.42 215.93,-499.27"/>
</g>
<!-- Node15 -->
<g id="node15" class="node">
<title>Node15</title>
<g id="a_node15"><a xlink:href="node__client_8h.html" target="_top" xlink:title=" ">
<polygon fill="white" stroke="black" points="219.5,-431 219.5,-450 345.5,-450 345.5,-431 219.5,-431"/>
<text text-anchor="middle" x="282.5" y="-438" font-family="Helvetica,sans-Serif" font-size="10.00">src/node/node_client.h</text>
</a>
</g>
</g>
<!-- Node12&#45;&gt;Node15 -->
<g id="edge16" class="edge">
<title>Node12&#45;&gt;Node15</title>
<path fill="none" stroke="midnightblue" d="M282.5,-487.54C282.5,-475.17 282.5,-459.62 282.5,-450.13"/>
<polygon fill="midnightblue" stroke="midnightblue" points="279,-487.73 282.5,-497.73 286,-487.73 279,-487.73"/>
</g>
<!-- Node18 -->
<g id="node18" class="node">
<title>Node18</title>
<g id="a_node18"><a xlink:href="node__state_8h.html" target="_top" xlink:title=" ">
<polygon fill="white" stroke="black" points="388.5,-174 388.5,-193 512.5,-193 512.5,-174 388.5,-174"/>
<text text-anchor="middle" x="450.5" y="-181" font-family="Helvetica,sans-Serif" font-size="10.00">src/node/node_state.h</text>
</a>
</g>
</g>
<!-- Node12&#45;&gt;Node18 -->
<g id="edge32" class="edge">
<title>Node12&#45;&gt;Node18</title>
<path fill="none" stroke="midnightblue" d="M314.57,-493.67C352.82,-476.39 414.81,-441.58 440.5,-389 472.54,-323.43 350.94,-300.32 383.5,-235 393.31,-215.32 414.86,-201.28 430.88,-193.08"/>
<polygon fill="midnightblue" stroke="midnightblue" points="312.69,-490.68 304.92,-497.89 315.49,-497.09 312.69,-490.68"/>
</g>
<!-- Node24 -->
<g id="node24" class="node">
<title>Node24</title>
<g id="a_node24"><a xlink:href="resharing_8h.html" target="_top" xlink:title=" ">
<polygon fill="white" stroke="black" points="392.5,-241 392.5,-260 508.5,-260 508.5,-241 392.5,-241"/>
<text text-anchor="middle" x="450.5" y="-248" font-family="Helvetica,sans-Serif" font-size="10.00">src/node/resharing.h</text>
</a>
</g>
</g>
<!-- Node12&#45;&gt;Node24 -->
<g id="edge33" class="edge">
<title>Node12&#45;&gt;Node24</title>
<path fill="none" stroke="midnightblue" d="M356.98,-496.27C404.18,-488.08 458.99,-474.84 473.5,-456 520.8,-394.57 471.39,-290.35 455.23,-260.02"/>
<polygon fill="midnightblue" stroke="midnightblue" points="356.32,-492.83 347.03,-497.94 357.48,-499.73 356.32,-492.83"/>
</g>
<!-- Node14 -->
<g id="node14" class="node">
<title>Node14</title>
<g id="a_node14"><a xlink:href="enclave_2main_8cpp.html" target="_top" xlink:title=" ">
<polygon fill="white" stroke="black" points="620.5,-0.5 620.5,-19.5 740.5,-19.5 740.5,-0.5 620.5,-0.5"/>
<text text-anchor="middle" x="680.5" y="-7.5" font-family="Helvetica,sans-Serif" font-size="10.00">src/enclave/main.cpp</text>
</a>
</g>
</g>
<!-- Node13&#45;&gt;Node14 -->
<g id="edge15" class="edge">
<title>Node13&#45;&gt;Node14</title>
<path fill="none" stroke="midnightblue" d="M680.5,-45.8C680.5,-36.91 680.5,-26.78 680.5,-19.75"/>
<polygon fill="midnightblue" stroke="midnightblue" points="677,-46.08 680.5,-56.08 684,-46.08 677,-46.08"/>
</g>
<!-- Node16 -->
<g id="node16" class="node">
<title>Node16</title>
<g id="a_node16"><a xlink:href="orc__requests_8h.html" target="_top" xlink:title=" ">
<polygon fill="white" stroke="black" points="312,-358.5 312,-388.5 431,-388.5 431,-358.5 312,-358.5"/>
<text text-anchor="start" x="320" y="-376.5" font-family="Helvetica,sans-Serif" font-size="10.00">src/consensus/aft/orc</text>
<text text-anchor="middle" x="371.5" y="-365.5" font-family="Helvetica,sans-Serif" font-size="10.00">_requests.h</text>
</a>
</g>
</g>
<!-- Node15&#45;&gt;Node16 -->
<g id="edge17" class="edge">
<title>Node15&#45;&gt;Node16</title>
<path fill="none" stroke="midnightblue" d="M302.98,-424.54C317.79,-413.73 337.68,-399.2 352.21,-388.59"/>
<polygon fill="midnightblue" stroke="midnightblue" points="300.51,-422.01 294.5,-430.73 304.64,-427.66 300.51,-422.01"/>
</g>
<!-- Node17 -->
<g id="node17" class="node">
<title>Node17</title>
<g id="a_node17"><a xlink:href="raft_8h.html" target="_top" xlink:title=" ">
<polygon fill="white" stroke="black" points="233,-302.5 233,-321.5 362,-321.5 362,-302.5 233,-302.5"/>
<text text-anchor="middle" x="297.5" y="-309.5" font-family="Helvetica,sans-Serif" font-size="10.00">src/consensus/aft/raft.h</text>
</a>
</g>
</g>
<!-- Node15&#45;&gt;Node17 -->
<g id="edge27" class="edge">
<title>Node15&#45;&gt;Node17</title>
<path fill="none" stroke="midnightblue" d="M284.72,-420.81C288,-393.08 294.05,-342.13 296.46,-321.76"/>
<polygon fill="midnightblue" stroke="midnightblue" points="281.23,-420.46 283.53,-430.81 288.18,-421.29 281.23,-420.46"/>
</g>
<!-- Node22 -->
<g id="node22" class="node">
<title>Node22</title>
<g id="a_node22"><a xlink:href="http__node__client_8h.html" target="_top" xlink:title=" ">
<polygon fill="white" stroke="black" points="143.5,-235.5 143.5,-265.5 253.5,-265.5 253.5,-235.5 143.5,-235.5"/>
<text text-anchor="start" x="151.5" y="-253.5" font-family="Helvetica,sans-Serif" font-size="10.00">src/node/http_node</text>
<text text-anchor="middle" x="198.5" y="-242.5" font-family="Helvetica,sans-Serif" font-size="10.00">_client.h</text>
</a>
</g>
</g>
<!-- Node15&#45;&gt;Node22 -->
<g id="edge28" class="edge">
<title>Node15&#45;&gt;Node22</title>
<path fill="none" stroke="midnightblue" d="M208.96,-435.92C175.74,-430.18 139.35,-417.23 118.5,-389 87.25,-346.68 146.81,-291.2 179.33,-265.59"/>
<polygon fill="midnightblue" stroke="midnightblue" points="208.73,-439.43 219.14,-437.48 209.79,-432.51 208.73,-439.43"/>
</g>
<!-- Node23 -->
<g id="node23" class="node">
<title>Node23</title>
<g id="a_node23"><a xlink:href="retired__nodes__cleanup_8h.html" target="_top" xlink:title=" ">
<polygon fill="white" stroke="black" points="127.5,-358.5 127.5,-388.5 255.5,-388.5 255.5,-358.5 127.5,-358.5"/>
<text text-anchor="start" x="135.5" y="-376.5" font-family="Helvetica,sans-Serif" font-size="10.00">src/node/retired_nodes</text>
<text text-anchor="middle" x="191.5" y="-365.5" font-family="Helvetica,sans-Serif" font-size="10.00">_cleanup.h</text>
</a>
</g>
</g>
<!-- Node15&#45;&gt;Node23 -->
<g id="edge30" class="edge">
<title>Node15&#45;&gt;Node23</title>
<path fill="none" stroke="midnightblue" d="M261.99,-424.85C246.8,-414 226.22,-399.3 211.22,-388.59"/>
<polygon fill="midnightblue" stroke="midnightblue" points="260.06,-427.77 270.23,-430.73 264.12,-422.07 260.06,-427.77"/>
</g>
<!-- Node16&#45;&gt;Node17 -->
<g id="edge18" class="edge">
<title>Node16&#45;&gt;Node17</title>
<path fill="none" stroke="midnightblue" d="M345.87,-351.89C333,-341.54 318.09,-329.56 308.27,-321.66"/>
<polygon fill="midnightblue" stroke="midnightblue" points="343.98,-354.86 353.96,-358.4 348.36,-349.41 343.98,-354.86"/>
</g>
<!-- Node20 -->
<g id="node20" class="node">
<title>Node20</title>
<g id="a_node20"><a xlink:href="node__frontend_8h.html" target="_top" xlink:title=" ">
<polygon fill="white" stroke="black" points="568.5,-302.5 568.5,-321.5 726.5,-321.5 726.5,-302.5 568.5,-302.5"/>
<text text-anchor="middle" x="647.5" y="-309.5" font-family="Helvetica,sans-Serif" font-size="10.00">src/node/rpc/node_frontend.h</text>
</a>
</g>
</g>
<!-- Node16&#45;&gt;Node20 -->
<g id="edge23" class="edge">
<title>Node16&#45;&gt;Node20</title>
<path fill="none" stroke="midnightblue" d="M441.02,-357.51C493.84,-346.13 564.59,-330.87 608.05,-321.5"/>
<polygon fill="midnightblue" stroke="midnightblue" points="440.09,-354.13 431.05,-359.66 441.56,-360.98 440.09,-354.13"/>
</g>
<!-- Node17&#45;&gt;Node18 -->
<g id="edge19" class="edge">
<title>Node17&#45;&gt;Node18</title>
<path fill="none" stroke="midnightblue" d="M306.53,-293.23C315.74,-276.5 331.38,-251.59 350.5,-235 372.83,-215.62 403.9,-201.45 425.45,-193.14"/>
<polygon fill="midnightblue" stroke="midnightblue" points="303.24,-291.97 301.65,-302.44 309.42,-295.25 303.24,-291.97"/>
</g>
<!-- Node18&#45;&gt;Node13 -->
<g id="edge20" class="edge">
<title>Node18&#45;&gt;Node13</title>
<path fill="none" stroke="midnightblue" d="M454.71,-163.66C459.31,-147.54 468.28,-124.95 484.5,-112 522.57,-81.62 577.35,-70.99 619.32,-67.6"/>
<polygon fill="midnightblue" stroke="midnightblue" points="451.26,-163.04 452.2,-173.59 458.05,-164.76 451.26,-163.04"/>
</g>
<!-- Node19 -->
<g id="node19" class="node">
<title>Node19</title>
<g id="a_node19"><a xlink:href="gov__effects_8h.html" target="_top" xlink:title=" ">
<polygon fill="white" stroke="black" points="493.5,-112.5 493.5,-131.5 637.5,-131.5 637.5,-112.5 493.5,-112.5"/>
<text text-anchor="middle" x="565.5" y="-119.5" font-family="Helvetica,sans-Serif" font-size="10.00">src/node/rpc/gov_effects.h</text>
</a>
</g>
</g>
<!-- Node18&#45;&gt;Node19 -->
<g id="edge21" class="edge">
<title>Node18&#45;&gt;Node19</title>
<path fill="none" stroke="midnightblue" d="M475.88,-169.37C498.17,-157.83 529.94,-141.4 549.05,-131.51"/>
<polygon fill="midnightblue" stroke="midnightblue" points="474.25,-166.27 466.98,-173.98 477.47,-172.49 474.25,-166.27"/>
</g>
<!-- Node19&#45;&gt;Node13 -->
<g id="edge22" class="edge">
<title>Node19&#45;&gt;Node13</title>
<path fill="none" stroke="midnightblue" d="M592.98,-108.1C614.47,-98.01 643.72,-84.27 662.36,-75.52"/>
<polygon fill="midnightblue" stroke="midnightblue" points="591.29,-105.02 583.72,-112.44 594.26,-111.36 591.29,-105.02"/>
</g>
<!-- Node20&#45;&gt;Node13 -->
<g id="edge24" class="edge">
<title>Node20&#45;&gt;Node13</title>
<path fill="none" stroke="midnightblue" d="M654.15,-292.67C656.83,-284.59 659.71,-274.92 661.5,-266 676.07,-193.53 679.55,-103.89 680.31,-75.82"/>
<polygon fill="midnightblue" stroke="midnightblue" points="650.82,-291.58 650.84,-302.18 657.43,-293.88 650.82,-291.58"/>
</g>
<!-- Node21 -->
<g id="node21" class="node">
<title>Node21</title>
<g id="a_node21"><a xlink:href="jwt__key__auto__refresh_8h.html" target="_top" xlink:title=" ">
<polygon fill="white" stroke="black" points="527,-235.5 527,-265.5 652,-265.5 652,-235.5 527,-235.5"/>
<text text-anchor="start" x="535" y="-253.5" font-family="Helvetica,sans-Serif" font-size="10.00">src/node/jwt_key_auto</text>
<text text-anchor="middle" x="589.5" y="-242.5" font-family="Helvetica,sans-Serif" font-size="10.00">_refresh.h</text>
</a>
</g>
</g>
<!-- Node20&#45;&gt;Node21 -->
<g id="edge25" class="edge">
<title>Node20&#45;&gt;Node21</title>
<path fill="none" stroke="midnightblue" d="M631.99,-295.09C623.01,-285.88 611.82,-274.39 603.17,-265.52"/>
<polygon fill="midnightblue" stroke="midnightblue" points="629.7,-297.76 639.19,-302.48 634.72,-292.87 629.7,-297.76"/>
</g>
<!-- Node21&#45;&gt;Node18 -->
<g id="edge26" class="edge">
<title>Node21&#45;&gt;Node18</title>
<path fill="none" stroke="midnightblue" d="M550.22,-231.13C523.47,-218.62 489.29,-202.64 468.69,-193.01"/>
<polygon fill="midnightblue" stroke="midnightblue" points="548.8,-234.33 559.34,-235.4 551.76,-227.99 548.8,-234.33"/>
</g>
<!-- Node22&#45;&gt;Node18 -->
<g id="edge29" class="edge">
<title>Node22&#45;&gt;Node18</title>
<path fill="none" stroke="midnightblue" d="M262.82,-232.91C312.17,-220.18 378.28,-203.13 417.44,-193.03"/>
<polygon fill="midnightblue" stroke="midnightblue" points="261.68,-229.59 252.87,-235.48 263.43,-236.37 261.68,-229.59"/>
</g>
<!-- Node23&#45;&gt;Node17 -->
<g id="edge31" class="edge">
<title>Node23&#45;&gt;Node17</title>
<path fill="none" stroke="midnightblue" d="M225.6,-353.36C244.6,-342.69 267.33,-329.93 282.08,-321.66"/>
<polygon fill="midnightblue" stroke="midnightblue" points="223.63,-350.45 216.62,-358.4 227.05,-356.56 223.63,-350.45"/>
</g>
<!-- Node24&#45;&gt;Node18 -->
<g id="edge34" class="edge">
<title>Node24&#45;&gt;Node18</title>
<path fill="none" stroke="midnightblue" d="M450.5,-230.54C450.5,-218.17 450.5,-202.62 450.5,-193.13"/>
<polygon fill="midnightblue" stroke="midnightblue" points="447,-230.73 450.5,-240.73 454,-230.73 447,-230.73"/>
</g>
<!-- Node25&#45;&gt;Node12 -->
<g id="edge36" class="edge">
<title>Node25&#45;&gt;Node12</title>
<path fill="none" stroke="midnightblue" d="M294.66,-909.11C307.72,-889.85 327.64,-856.89 335.5,-825 365.16,-704.64 303.23,-554.41 286.51,-517.16"/>
<polygon fill="midnightblue" stroke="midnightblue" points="291.73,-907.2 288.89,-917.4 297.48,-911.2 291.73,-907.2"/>
</g>
<!-- Node26 -->
<g id="node26" class="node">
<title>Node26</title>
<g id="a_node26"><a xlink:href="tls__endpoint_8h.html" target="_top" xlink:title=" ">
<polygon fill="white" stroke="black" points="426.5,-861.5 426.5,-880.5 570.5,-880.5 570.5,-861.5 426.5,-861.5"/>
<text text-anchor="middle" x="498.5" y="-868.5" font-family="Helvetica,sans-Serif" font-size="10.00">src/enclave/tls_endpoint.h</text>
</a>
</g>
</g>
<!-- Node25&#45;&gt;Node26 -->
<g id="edge37" class="edge">
<title>Node25&#45;&gt;Node26</title>
<path fill="none" stroke="midnightblue" d="M326.66,-914.96C367.46,-904.76 427.21,-889.82 464.43,-880.52"/>
<polygon fill="midnightblue" stroke="midnightblue" points="325.58,-911.62 316.73,-917.44 327.28,-918.41 325.58,-911.62"/>
</g>
<!-- Node40 -->
<g id="node40" class="node">
<title>Node40</title>
<g id="a_node40"><a xlink:href="client_8h.html" target="_top" xlink:title=" ">
<polygon fill="white" stroke="black" points="59,-559.5 59,-578.5 144,-578.5 144,-559.5 59,-559.5"/>
<text text-anchor="middle" x="101.5" y="-566.5" font-family="Helvetica,sans-Serif" font-size="10.00">src/tls/client.h</text>
</a>
</g>
</g>
<!-- Node25&#45;&gt;Node40 -->
<g id="edge64" class="edge">
<title>Node25&#45;&gt;Node40</title>
<path fill="none" stroke="midnightblue" d="M264.01,-910.63C242.68,-891.06 210.5,-855.06 210.5,-816 210.5,-816 210.5,-816 210.5,-696.5 210.5,-640.26 147.9,-596.61 117.58,-578.77"/>
<polygon fill="midnightblue" stroke="midnightblue" points="261.75,-913.3 271.56,-917.3 266.38,-908.06 261.75,-913.3"/>
</g>
<!-- Node41 -->
<g id="node41" class="node">
<title>Node41</title>
<g id="a_node41"><a xlink:href="server_8h.html" target="_top" xlink:title=" ">
<polygon fill="white" stroke="black" points="238.5,-805.5 238.5,-824.5 326.5,-824.5 326.5,-805.5 238.5,-805.5"/>
<text text-anchor="middle" x="282.5" y="-812.5" font-family="Helvetica,sans-Serif" font-size="10.00">src/tls/server.h</text>
</a>
</g>
</g>
<!-- Node25&#45;&gt;Node41 -->
<g id="edge67" class="edge">
<title>Node25&#45;&gt;Node41</title>
<path fill="none" stroke="midnightblue" d="M282.5,-907.35C282.5,-883.25 282.5,-842.31 282.5,-824.59"/>
<polygon fill="midnightblue" stroke="midnightblue" points="279,-907.37 282.5,-917.37 286,-907.37 279,-907.37"/>
</g>
<!-- Node27 -->
<g id="node27" class="node">
<title>Node27</title>
<g id="a_node27"><a xlink:href="http__parser_8h.html" target="_top" xlink:title=" ">
<polygon fill="white" stroke="black" points="522.5,-749.5 522.5,-768.5 642.5,-768.5 642.5,-749.5 522.5,-749.5"/>
<text text-anchor="middle" x="582.5" y="-756.5" font-family="Helvetica,sans-Serif" font-size="10.00">src/http/http_parser.h</text>
</a>
</g>
</g>
<!-- Node26&#45;&gt;Node27 -->
<g id="edge38" class="edge">
<title>Node26&#45;&gt;Node27</title>
<path fill="none" stroke="midnightblue" d="M526.45,-856.38C539.4,-848.77 554,-838.17 563.5,-825 576.02,-807.65 580.34,-782.11 581.79,-768.8"/>
<polygon fill="midnightblue" stroke="midnightblue" points="524.46,-853.47 517.4,-861.37 527.84,-859.6 524.46,-853.47"/>
</g>
<!-- Node39 -->
<g id="node39" class="node">
<title>Node39</title>
<g id="a_node39"><a xlink:href="http__proc_8h.html" target="_top" xlink:title=" ">
<polygon fill="white" stroke="black" points="443,-805.5 443,-824.5 554,-824.5 554,-805.5 443,-805.5"/>
<text text-anchor="middle" x="498.5" y="-812.5" font-family="Helvetica,sans-Serif" font-size="10.00">src/http/http_proc.h</text>
</a>
</g>
</g>
<!-- Node26&#45;&gt;Node39 -->
<g id="edge62" class="edge">
<title>Node26&#45;&gt;Node39</title>
<path fill="none" stroke="midnightblue" d="M498.5,-850.8C498.5,-841.91 498.5,-831.78 498.5,-824.75"/>
<polygon fill="midnightblue" stroke="midnightblue" points="495,-851.08 498.5,-861.08 502,-851.08 495,-851.08"/>
</g>
<!-- Node27&#45;&gt;Node4 -->
<g id="edge39" class="edge">
<title>Node27&#45;&gt;Node4</title>
<path fill="none" stroke="midnightblue" d="M652.7,-749.18C703.99,-741.56 768.15,-729.22 789.5,-713 811.79,-696.06 823.7,-664.2 829,-645.73"/>
<polygon fill="midnightblue" stroke="midnightblue" points="652.03,-745.74 642.63,-750.64 653.03,-752.67 652.03,-745.74"/>
</g>
<!-- Node28 -->
<g id="node28" class="node">
<title>Node28</title>
<g id="a_node28"><a xlink:href="endpoint__registry_8cpp.html" target="_top" xlink:title=" ">
<polygon fill="white" stroke="black" points="652.5,-682.5 652.5,-712.5 780.5,-712.5 780.5,-682.5 652.5,-682.5"/>
<text text-anchor="start" x="660.5" y="-700.5" font-family="Helvetica,sans-Serif" font-size="10.00">src/endpoints/endpoint</text>
<text text-anchor="middle" x="716.5" y="-689.5" font-family="Helvetica,sans-Serif" font-size="10.00">_registry.cpp</text>
</a>
</g>
</g>
<!-- Node27&#45;&gt;Node28 -->
<g id="edge40" class="edge">
<title>Node27&#45;&gt;Node28</title>
<path fill="none" stroke="midnightblue" d="M611.03,-745.33C632.71,-735.7 662.52,-722.47 684.92,-712.52"/>
<polygon fill="midnightblue" stroke="midnightblue" points="609.42,-742.22 601.7,-749.48 612.26,-748.62 609.42,-742.22"/>
</g>
<!-- Node29 -->
<g id="node29" class="node">
<title>Node29</title>
<g id="a_node29"><a xlink:href="http__endpoint_8h.html" target="_top" xlink:title=" ">
<polygon fill="white" stroke="black" points="379,-559.5 379,-578.5 512,-578.5 512,-559.5 379,-559.5"/>
<text text-anchor="middle" x="445.5" y="-566.5" font-family="Helvetica,sans-Serif" font-size="10.00">src/http/http_endpoint.h</text>
</a>
</g>
</g>
<!-- Node27&#45;&gt;Node29 -->
<g id="edge41" class="edge">
<title>Node27&#45;&gt;Node29</title>
<path fill="none" stroke="midnightblue" d="M551.2,-745.43C514.95,-728.87 457.42,-695.88 435.5,-646 425.54,-623.34 435.33,-593.49 441.43,-578.86"/>
<polygon fill="midnightblue" stroke="midnightblue" points="549.8,-748.64 560.36,-749.47 552.63,-742.23 549.8,-748.64"/>
</g>
<!-- Node30 -->
<g id="node30" class="node">
<title>Node30</title>
<g id="a_node30"><a xlink:href="http__jwt_8h.html" target="_top" xlink:title=" ">
<polygon fill="white" stroke="black" points="926,-688 926,-707 1031,-707 1031,-688 926,-688"/>
<text text-anchor="middle" x="978.5" y="-695" font-family="Helvetica,sans-Serif" font-size="10.00">src/http/http_jwt.h</text>
</a>
</g>
</g>
<!-- Node27&#45;&gt;Node30 -->
<g id="edge43" class="edge">
<title>Node27&#45;&gt;Node30</title>
<path fill="none" stroke="midnightblue" d="M649.44,-747.94C727.45,-736.22 854.74,-717.1 925.98,-706.39"/>
<polygon fill="midnightblue" stroke="midnightblue" points="648.61,-744.53 639.24,-749.48 649.65,-751.45 648.61,-744.53"/>
</g>
<!-- Node35 -->
<g id="node35" class="node">
<title>Node35</title>
<g id="a_node35"><a xlink:href="http__rpc__context_8h.html" target="_top" xlink:title=" ">
<polygon fill="white" stroke="black" points="444,-621 444,-640 591,-640 591,-621 444,-621"/>
<text text-anchor="middle" x="517.5" y="-628" font-family="Helvetica,sans-Serif" font-size="10.00">src/http/http_rpc_context.h</text>
</a>
</g>
</g>
<!-- Node27&#45;&gt;Node35 -->
<g id="edge52" class="edge">
<title>Node27&#45;&gt;Node35</title>
<path fill="none" stroke="midnightblue" d="M554.05,-744.33C541.81,-736.87 528.68,-726.4 521.5,-713 508.78,-689.28 512.74,-655.87 515.62,-640.23"/>
<polygon fill="midnightblue" stroke="midnightblue" points="552.7,-747.58 563.13,-749.44 556.13,-741.48 552.7,-747.58"/>
</g>
<!-- Node37 -->
<g id="node37" class="node">
<title>Node37</title>
<g id="a_node37"><a xlink:href="http__sig_8h.html" target="_top" xlink:title=" ">
<polygon fill="white" stroke="black" points="530.5,-688 530.5,-707 634.5,-707 634.5,-688 530.5,-688"/>
<text text-anchor="middle" x="582.5" y="-695" font-family="Helvetica,sans-Serif" font-size="10.00">src/http/http_sig.h</text>
</a>
</g>
</g>
<!-- Node27&#45;&gt;Node37 -->
<g id="edge58" class="edge">
<title>Node27&#45;&gt;Node37</title>
<path fill="none" stroke="midnightblue" d="M582.5,-739.32C582.5,-728.5 582.5,-715.4 582.5,-707.01"/>
<polygon fill="midnightblue" stroke="midnightblue" points="579,-739.48 582.5,-749.48 586,-739.48 579,-739.48"/>
</g>
<!-- Node29&#45;&gt;Node12 -->
<g id="edge42" class="edge">
<title>Node29&#45;&gt;Node12</title>
<path fill="none" stroke="midnightblue" d="M412.44,-555.93C380.76,-544.37 333.75,-527.21 305.81,-517.01"/>
<polygon fill="midnightblue" stroke="midnightblue" points="411.55,-559.33 422.15,-559.48 413.95,-552.76 411.55,-559.33"/>
</g>
<!-- Node31 -->
<g id="node31" class="node">
<title>Node31</title>
<g id="a_node31"><a xlink:href="jwt__auth_8cpp.html" target="_top" xlink:title=" ">
<polygon fill="white" stroke="black" points="901,-615.5 901,-645.5 1056,-645.5 1056,-615.5 901,-615.5"/>
<text text-anchor="start" x="909" y="-633.5" font-family="Helvetica,sans-Serif" font-size="10.00">src/endpoints/authentication</text>
<text text-anchor="middle" x="978.5" y="-622.5" font-family="Helvetica,sans-Serif" font-size="10.00">/jwt_auth.cpp</text>
</a>
</g>
</g>
<!-- Node30&#45;&gt;Node31 -->
<g id="edge44" class="edge">
<title>Node30&#45;&gt;Node31</title>
<path fill="none" stroke="midnightblue" d="M978.5,-677.41C978.5,-667.22 978.5,-654.9 978.5,-645.59"/>
<polygon fill="midnightblue" stroke="midnightblue" points="975,-677.73 978.5,-687.73 982,-677.73 975,-677.73"/>
</g>
<!-- Node32 -->
<g id="node32" class="node">
<title>Node32</title>
<g id="a_node32"><a xlink:href="frontend_8h.html" target="_top" xlink:title=" ">
<polygon fill="white" stroke="black" points="783,-364 783,-383 912,-383 912,-364 783,-364"/>
<text text-anchor="middle" x="847.5" y="-371" font-family="Helvetica,sans-Serif" font-size="10.00">src/node/rpc/frontend.h</text>
</a>
</g>
</g>
<!-- Node30&#45;&gt;Node32 -->
<g id="edge45" class="edge">
<title>Node30&#45;&gt;Node32</title>
<path fill="none" stroke="midnightblue" d="M1013.64,-683.88C1031.65,-675.7 1052.48,-663.31 1065.5,-646 1086.43,-618.18 1084.5,-604.82 1084.5,-570 1084.5,-570 1084.5,-570 1084.5,-506.5 1084.5,-469.31 1091.82,-451.28 1065.5,-425 1044.13,-403.66 968.28,-389.61 912.03,-381.87"/>
<polygon fill="midnightblue" stroke="midnightblue" points="1011.82,-680.85 1003.99,-687.99 1014.56,-687.29 1011.82,-680.85"/>
</g>
<!-- Node32&#45;&gt;Node18 -->
<g id="edge46" class="edge">
<title>Node32&#45;&gt;Node18</title>
<path fill="none" stroke="midnightblue" d="M831.08,-356.69C800.38,-328.01 731.05,-267.38 661.5,-235 614.04,-212.9 555.91,-199.91 512.69,-192.66"/>
<polygon fill="midnightblue" stroke="midnightblue" points="829.02,-359.55 838.69,-363.88 833.83,-354.47 829.02,-359.55"/>
</g>
<!-- Node32&#45;&gt;Node20 -->
<g id="edge49" class="edge">
<title>Node32&#45;&gt;Node20</title>
<path fill="none" stroke="midnightblue" d="M808.94,-361.03C770.07,-349.46 710.98,-331.88 676.1,-321.51"/>
<polygon fill="midnightblue" stroke="midnightblue" points="808.26,-364.48 818.84,-363.98 810.26,-357.77 808.26,-364.48"/>
</g>
<!-- Node33 -->
<g id="node33" class="node">
<title>Node33</title>
<g id="a_node33"><a xlink:href="member__frontend_8h.html" target="_top" xlink:title=" ">
<polygon fill="white" stroke="black" points="784.5,-168.5 784.5,-198.5 904.5,-198.5 904.5,-168.5 784.5,-168.5"/>
<text text-anchor="start" x="792.5" y="-186.5" font-family="Helvetica,sans-Serif" font-size="10.00">src/node/rpc/member</text>
<text text-anchor="middle" x="844.5" y="-175.5" font-family="Helvetica,sans-Serif" font-size="10.00">_frontend.h</text>
</a>
</g>
</g>
<!-- Node32&#45;&gt;Node33 -->
<g id="edge47" class="edge">
<title>Node32&#45;&gt;Node33</title>
<path fill="none" stroke="midnightblue" d="M847.2,-353.88C846.6,-316.33 845.26,-232.24 844.73,-198.7"/>
<polygon fill="midnightblue" stroke="midnightblue" points="843.7,-353.99 847.36,-363.93 850.7,-353.88 843.7,-353.99"/>
</g>
<!-- Node34 -->
<g id="node34" class="node">
<title>Node34</title>
<g id="a_node34"><a xlink:href="user__frontend_8h.html" target="_top" xlink:title=" ">
<polygon fill="white" stroke="black" points="847,-112.5 847,-131.5 1002,-131.5 1002,-112.5 847,-112.5"/>
<text text-anchor="middle" x="924.5" y="-119.5" font-family="Helvetica,sans-Serif" font-size="10.00">src/node/rpc/user_frontend.h</text>
</a>
</g>
</g>
<!-- Node32&#45;&gt;Node34 -->
<g id="edge50" class="edge">
<title>Node32&#45;&gt;Node34</title>
<path fill="none" stroke="midnightblue" d="M855.83,-354.58C869.9,-323.57 898.32,-257.58 913.5,-199 919.72,-175 922.71,-145.75 923.88,-131.56"/>
<polygon fill="midnightblue" stroke="midnightblue" points="852.64,-353.15 851.65,-363.7 859,-356.07 852.64,-353.15"/>
</g>
<!-- Node33&#45;&gt;Node13 -->
<g id="edge48" class="edge">
<title>Node33&#45;&gt;Node13</title>
<path fill="none" stroke="midnightblue" d="M825.36,-161.15C811.2,-146.17 790.9,-126.33 770.5,-112 748.63,-96.64 720.75,-83.56 701.86,-75.53"/>
<polygon fill="midnightblue" stroke="midnightblue" points="822.81,-163.54 832.18,-168.49 827.94,-158.78 822.81,-163.54"/>
</g>
<!-- Node34&#45;&gt;Node13 -->
<g id="edge51" class="edge">
<title>Node34&#45;&gt;Node13</title>
<path fill="none" stroke="midnightblue" d="M876.07,-110.28C829.96,-100.08 761.47,-84.92 718.98,-75.52"/>
<polygon fill="midnightblue" stroke="midnightblue" points="875.32,-113.7 885.84,-112.44 876.83,-106.87 875.32,-113.7"/>
</g>
<!-- Node35&#45;&gt;Node21 -->
<g id="edge54" class="edge">
<title>Node35&#45;&gt;Node21</title>
<path fill="none" stroke="midnightblue" d="M523.23,-611.12C530.04,-587.58 540.5,-545.42 540.5,-508.5 540.5,-508.5 540.5,-508.5 540.5,-372.5 540.5,-331.25 565.27,-287.5 579.58,-265.65"/>
<polygon fill="midnightblue" stroke="midnightblue" points="519.84,-610.22 520.32,-620.8 526.55,-612.23 519.84,-610.22"/>
</g>
<!-- Node35&#45;&gt;Node29 -->
<g id="edge53" class="edge">
<title>Node35&#45;&gt;Node29</title>
<path fill="none" stroke="midnightblue" d="M499.32,-614.47C485.54,-603.09 467.12,-587.87 455.8,-578.51"/>
<polygon fill="midnightblue" stroke="midnightblue" points="497.25,-617.3 507.18,-620.98 501.71,-611.91 497.25,-617.3"/>
</g>
<!-- Node36 -->
<g id="node36" class="node">
<title>Node36</title>
<g id="a_node36"><a xlink:href="forwarder_8h.html" target="_top" xlink:title=" ">
<polygon fill="white" stroke="black" points="636.5,-431 636.5,-450 770.5,-450 770.5,-431 636.5,-431"/>
<text text-anchor="middle" x="703.5" y="-438" font-family="Helvetica,sans-Serif" font-size="10.00">src/node/rpc/forwarder.h</text>
</a>
</g>
</g>
<!-- Node35&#45;&gt;Node36 -->
<g id="edge55" class="edge">
<title>Node35&#45;&gt;Node36</title>
<path fill="none" stroke="midnightblue" d="M533.11,-613.72C570.83,-575.6 665.97,-479.43 694.97,-450.12"/>
<polygon fill="midnightblue" stroke="midnightblue" points="530.52,-611.36 525.98,-620.93 535.5,-616.29 530.52,-611.36"/>
</g>
<!-- Node36&#45;&gt;Node13 -->
<g id="edge56" class="edge">
<title>Node36&#45;&gt;Node13</title>
<path fill="none" stroke="midnightblue" d="M710.15,-421.1C718.04,-398.23 730.71,-357.84 735.5,-322 748.59,-224.14 699.5,-108.03 684.64,-75.72"/>
<polygon fill="midnightblue" stroke="midnightblue" points="706.75,-420.23 706.72,-430.82 713.35,-422.56 706.75,-420.23"/>
</g>
<!-- Node36&#45;&gt;Node32 -->
<g id="edge57" class="edge">
<title>Node36&#45;&gt;Node32</title>
<path fill="none" stroke="midnightblue" d="M732.05,-426.61C760.57,-413.74 803.62,-394.31 828.3,-383.17"/>
<polygon fill="midnightblue" stroke="midnightblue" points="730.3,-423.56 722.62,-430.87 733.18,-429.94 730.3,-423.56"/>
</g>
<!-- Node37&#45;&gt;Node4 -->
<g id="edge59" class="edge">
<title>Node37&#45;&gt;Node4</title>
<path fill="none" stroke="midnightblue" d="M625.39,-685.35C668.75,-674.08 735.74,-656.66 781.72,-644.7"/>
<polygon fill="midnightblue" stroke="midnightblue" points="624.24,-682.03 615.44,-687.94 626,-688.81 624.24,-682.03"/>
</g>
<!-- Node37&#45;&gt;Node35 -->
<g id="edge61" class="edge">
<title>Node37&#45;&gt;Node35</title>
<path fill="none" stroke="midnightblue" d="M566.5,-680.5C553.75,-667.75 536.39,-650.39 526.13,-640.13"/>
<polygon fill="midnightblue" stroke="midnightblue" points="564.19,-683.14 573.73,-687.73 569.14,-678.19 564.19,-683.14"/>
</g>
<!-- Node38 -->
<g id="node38" class="node">
<title>Node38</title>
<g id="a_node38"><a xlink:href="sig__auth_8cpp.html" target="_top" xlink:title=" ">
<polygon fill="white" stroke="black" points="609,-615.5 609,-645.5 764,-645.5 764,-615.5 609,-615.5"/>
<text text-anchor="start" x="617" y="-633.5" font-family="Helvetica,sans-Serif" font-size="10.00">src/endpoints/authentication</text>
<text text-anchor="middle" x="686.5" y="-622.5" font-family="Helvetica,sans-Serif" font-size="10.00">/sig_auth.cpp</text>
</a>
</g>
</g>
<!-- Node37&#45;&gt;Node38 -->
<g id="edge60" class="edge">
<title>Node37&#45;&gt;Node38</title>
<path fill="none" stroke="midnightblue" d="M605.46,-682.15C622.86,-671.27 646.66,-656.4 663.96,-645.59"/>
<polygon fill="midnightblue" stroke="midnightblue" points="603.15,-679.47 596.53,-687.73 606.86,-685.4 603.15,-679.47"/>
</g>
<!-- Node39&#45;&gt;Node27 -->
<g id="edge63" class="edge">
<title>Node39&#45;&gt;Node27</title>
<path fill="none" stroke="midnightblue" d="M520.43,-799.9C535.84,-790 555.95,-777.07 569.04,-768.65"/>
<polygon fill="midnightblue" stroke="midnightblue" points="518.52,-796.97 512,-805.32 522.3,-802.86 518.52,-796.97"/>
</g>
<!-- Node40&#45;&gt;Node12 -->
<g id="edge65" class="edge">
<title>Node40&#45;&gt;Node12</title>
<path fill="none" stroke="midnightblue" d="M137.3,-556.23C172.48,-544.67 225.32,-527.3 256.62,-517.01"/>
<polygon fill="midnightblue" stroke="midnightblue" points="135.84,-553.03 127.43,-559.48 138.03,-559.68 135.84,-553.03"/>
</g>
<!-- Node40&#45;&gt;Node18 -->
<g id="edge66" class="edge">
<title>Node40&#45;&gt;Node18</title>
<path fill="none" stroke="midnightblue" d="M83.85,-552.39C60.84,-530.22 23.5,-487.2 23.5,-441.5 23.5,-441.5 23.5,-441.5 23.5,-372.5 23.5,-214.96 269.98,-188.28 388.41,-184.56"/>
<polygon fill="midnightblue" stroke="midnightblue" points="81.6,-555.08 91.3,-559.33 86.37,-549.95 81.6,-555.08"/>
</g>
<!-- Node41&#45;&gt;Node12 -->
<g id="edge68" class="edge">
<title>Node41&#45;&gt;Node12</title>
<path fill="none" stroke="midnightblue" d="M282.5,-795.29C282.5,-772.45 282.5,-732.64 282.5,-698.5 282.5,-698.5 282.5,-698.5 282.5,-629.5 282.5,-587.28 282.5,-536.76 282.5,-517.01"/>
<polygon fill="midnightblue" stroke="midnightblue" points="279,-795.31 282.5,-805.31 286,-795.31 279,-795.31"/>
</g>
</g>
</svg>
