<?xml version="1.0" encoding="UTF-8" standalone="no"?>
<!DOCTYPE svg PUBLIC "-//W3C//DTD SVG 1.1//EN"
 "http://www.w3.org/Graphics/SVG/1.1/DTD/svg11.dtd">
<!-- Generated by graphviz version 2.43.0 (0)
 -->
<!-- Title: include/ccf/endpoints/authentication/cert_auth.h Pages: 1 -->
<!--zoomable 475 -->
<svg id="main" version="1.1" xmlns="http://www.w3.org/2000/svg" xmlns:xlink="http://www.w3.org/1999/xlink" xml:space="preserve" onload="init(evt)">
<style type="text/css"><![CDATA[
.edge:hover path { stroke: red; }
.edge:hover polygon { stroke: red; fill: red; }
]]></style>
<script type="text/javascript"><![CDATA[
var edges = document.getElementsByTagName('g');
if (edges && edges.length) {
  for (var i=0;i<edges.length;i++) {
    if (edges[i].id.substr(0,4)=='edge') {
      edges[i].setAttribute('class','edge');
    }
  }
}
]]></script>
        <defs>
                <circle id="rim" cx="0" cy="0" r="7"/>
                <circle id="rim2" cx="0" cy="0" r="3.5"/>
                <g id="zoomPlus">
                        <use xlink:href="#rim" fill="#404040">
                                <set attributeName="fill" to="#808080" begin="zoomplus.mouseover" end="zoomplus.mouseout"/>
                        </use>
                        <path d="M-4,0h8M0,-4v8" fill="none" stroke="white" stroke-width="1.5" pointer-events="none"/>
                </g>
                <g id="zoomMin">
                        <use xlink:href="#rim" fill="#404040">
                                <set attributeName="fill" to="#808080" begin="zoomminus.mouseover" end="zoomminus.mouseout"/>
                        </use>
                        <path d="M-4,0h8" fill="none" stroke="white" stroke-width="1.5" pointer-events="none"/>
                </g>
                <g id="dirArrow">
                        <path fill="none" stroke="white" stroke-width="1.5" d="M0,-3.0v7 M-2.5,-0.5L0,-3.0L2.5,-0.5"/>
                </g>
               <g id="resetDef">
                       <use xlink:href="#rim2" fill="#404040">
                               <set attributeName="fill" to="#808080" begin="reset.mouseover" end="reset.mouseout"/>
                       </use>
               </g>
        </defs>

<script type="text/javascript">
var viewWidth = 1667;
var viewHeight = 475;
var sectionId = 'dynsection-0';
</script>
<script xlink:href="svgpan.js"/>
<svg id="graph" class="graph">
<g id="viewport">
<title>include/ccf/endpoints/authentication/cert_auth.h</title>
<polygon fill="white" stroke="transparent" points="-4,4 -4,-471 1662.87,-471 1662.87,4 -4,4"/>
<!-- Node1 -->
<g id="node1" class="node">
<title>Node1</title>
<g id="a_node1"><a xlink:title=" ">
<polygon fill="#bfbfbf" stroke="black" points="607.64,-425.5 607.64,-466.5 727.64,-466.5 727.64,-425.5 607.64,-425.5"/>
<text text-anchor="start" x="615.64" y="-454.5" font-family="Helvetica,sans-Serif" font-size="10.00">include/ccf/endpoints</text>
<text text-anchor="start" x="615.64" y="-443.5" font-family="Helvetica,sans-Serif" font-size="10.00">/authentication/cert</text>
<text text-anchor="middle" x="667.64" y="-432.5" font-family="Helvetica,sans-Serif" font-size="10.00">_auth.h</text>
</a>
</g>
</g>
<!-- Node2 -->
<g id="node2" class="node">
<title>Node2</title>
<g id="a_node2"><a xlink:href="authentication__types_8h.html" target="_top" xlink:title=" ">
<polygon fill="white" stroke="black" points="537.14,-358.5 537.14,-388.5 692.14,-388.5 692.14,-358.5 537.14,-358.5"/>
<text text-anchor="start" x="545.14" y="-376.5" font-family="Helvetica,sans-Serif" font-size="10.00">ccf/endpoints/authentication</text>
<text text-anchor="middle" x="614.64" y="-365.5" font-family="Helvetica,sans-Serif" font-size="10.00">/authentication_types.h</text>
</a>
</g>
</g>
<!-- Node1&#45;&gt;Node2 -->
<g id="edge1" class="edge">
<title>Node1&#45;&gt;Node2</title>
<path fill="none" stroke="midnightblue" d="M652.88,-425.36C646.29,-416.59 638.48,-406.21 631.65,-397.12"/>
<polygon fill="midnightblue" stroke="midnightblue" points="634.27,-394.78 625.46,-388.89 628.67,-398.99 634.27,-394.78"/>
</g>
<!-- Node37 -->
<g id="node37" class="node">
<title>Node37</title>
<g id="a_node37"><a xlink:href="entity__id_8h.html" target="_top" xlink:title=" ">
<polygon fill="white" stroke="black" points="1370.64,-302.5 1370.64,-321.5 1456.64,-321.5 1456.64,-302.5 1370.64,-302.5"/>
<text text-anchor="middle" x="1413.64" y="-309.5" font-family="Helvetica,sans-Serif" font-size="10.00">ccf/entity_id.h</text>
</a>
</g>
</g>
<!-- Node1&#45;&gt;Node37 -->
<g id="edge59" class="edge">
<title>Node1&#45;&gt;Node37</title>
<path fill="none" stroke="midnightblue" d="M727.74,-434.37C870.01,-409.19 1225.53,-346.29 1360.52,-322.4"/>
<polygon fill="midnightblue" stroke="midnightblue" points="1361.37,-325.8 1370.61,-320.61 1360.15,-318.91 1361.37,-325.8"/>
</g>
<!-- Node3 -->
<g id="node3" class="node">
<title>Node3</title>
<g id="a_node3"><a xlink:href="tx_8h.html" target="_top" xlink:title=" ">
<polygon fill="white" stroke="black" points="588.14,-302.5 588.14,-321.5 641.14,-321.5 641.14,-302.5 588.14,-302.5"/>
<text text-anchor="middle" x="614.64" y="-309.5" font-family="Helvetica,sans-Serif" font-size="10.00">ccf/tx.h</text>
</a>
</g>
</g>
<!-- Node2&#45;&gt;Node3 -->
<g id="edge2" class="edge">
<title>Node2&#45;&gt;Node3</title>
<path fill="none" stroke="midnightblue" d="M614.64,-358.4C614.64,-350.47 614.64,-340.46 614.64,-331.86"/>
<polygon fill="midnightblue" stroke="midnightblue" points="618.14,-331.66 614.64,-321.66 611.14,-331.66 618.14,-331.66"/>
</g>
<!-- Node16 -->
<g id="node16" class="node">
<title>Node16</title>
<g id="a_node16"><a xlink:title=" ">
<polygon fill="white" stroke="#bfbfbf" points="512.64,-56.5 512.64,-75.5 622.64,-75.5 622.64,-56.5 512.64,-56.5"/>
<text text-anchor="middle" x="567.64" y="-63.5" font-family="Helvetica,sans-Serif" font-size="10.00">nlohmann/json.hpp</text>
</a>
</g>
</g>
<!-- Node2&#45;&gt;Node16 -->
<g id="edge57" class="edge">
<title>Node2&#45;&gt;Node16</title>
<path fill="none" stroke="midnightblue" d="M536.87,-366.28C414.47,-354.31 190.64,-322.69 190.64,-251.5 190.64,-251.5 190.64,-251.5 190.64,-182.5 190.64,-145.56 203.62,-132.04 234.64,-112 277.62,-84.23 418.08,-73.39 502.23,-69.31"/>
<polygon fill="midnightblue" stroke="midnightblue" points="502.62,-72.8 512.45,-68.84 502.3,-65.81 502.62,-72.8"/>
</g>
<!-- Node23 -->
<g id="node23" class="node">
<title>Node23</title>
<g id="a_node23"><a xlink:title=" ">
<polygon fill="white" stroke="#bfbfbf" points="1195.64,-0.5 1195.64,-19.5 1239.64,-19.5 1239.64,-0.5 1195.64,-0.5"/>
<text text-anchor="middle" x="1217.64" y="-7.5" font-family="Helvetica,sans-Serif" font-size="10.00">string</text>
</a>
</g>
</g>
<!-- Node2&#45;&gt;Node23 -->
<g id="edge58" class="edge">
<title>Node2&#45;&gt;Node23</title>
<path fill="none" stroke="midnightblue" d="M692.23,-367.61C879.26,-354.78 1339.64,-316.58 1339.64,-251.5 1339.64,-251.5 1339.64,-251.5 1339.64,-121 1339.64,-72.18 1285.08,-39.46 1248.93,-23.14"/>
<polygon fill="midnightblue" stroke="midnightblue" points="1250.3,-19.92 1239.74,-19.16 1247.52,-26.34 1250.3,-19.92"/>
</g>
<!-- Node36 -->
<g id="node36" class="node">
<title>Node36</title>
<g id="a_node36"><a xlink:title=" ">
<polygon fill="white" stroke="#bfbfbf" points="218.64,-241 218.64,-260 276.64,-260 276.64,-241 218.64,-241"/>
<text text-anchor="middle" x="247.64" y="-248" font-family="Helvetica,sans-Serif" font-size="10.00">memory</text>
</a>
</g>
</g>
<!-- Node2&#45;&gt;Node36 -->
<g id="edge56" class="edge">
<title>Node2&#45;&gt;Node36</title>
<path fill="none" stroke="midnightblue" d="M571.63,-358.48C509.54,-338.21 391.2,-299.48 290.64,-266 288.07,-265.14 285.41,-264.25 282.73,-263.36"/>
<polygon fill="midnightblue" stroke="midnightblue" points="283.69,-259.99 273.1,-260.12 281.46,-266.62 283.69,-259.99"/>
</g>
<!-- Node4 -->
<g id="node4" class="node">
<title>Node4</title>
<g id="a_node4"><a xlink:href="ccf__assert_8h.html" target="_top" xlink:title=" ">
<polygon fill="white" stroke="black" points="531.64,-241 531.64,-260 623.64,-260 623.64,-241 531.64,-241"/>
<text text-anchor="middle" x="577.64" y="-248" font-family="Helvetica,sans-Serif" font-size="10.00">ccf/ccf_assert.h</text>
</a>
</g>
</g>
<!-- Node3&#45;&gt;Node4 -->
<g id="edge3" class="edge">
<title>Node3&#45;&gt;Node4</title>
<path fill="none" stroke="midnightblue" d="M609.34,-302.48C603.9,-293.73 595.28,-279.87 588.41,-268.81"/>
<polygon fill="midnightblue" stroke="midnightblue" points="591.19,-266.65 582.93,-260.01 585.24,-270.35 591.19,-266.65"/>
</g>
<!-- Node12 -->
<g id="node12" class="node">
<title>Node12</title>
<g id="a_node12"><a xlink:title=" ">
<polygon fill="white" stroke="#bfbfbf" points="12.64,-56.5 12.64,-75.5 50.64,-75.5 50.64,-56.5 12.64,-56.5"/>
<text text-anchor="middle" x="31.64" y="-63.5" font-family="Helvetica,sans-Serif" font-size="10.00">map</text>
</a>
</g>
</g>
<!-- Node3&#45;&gt;Node12 -->
<g id="edge52" class="edge">
<title>Node3&#45;&gt;Node12</title>
<path fill="none" stroke="midnightblue" d="M587.8,-304.25C480.23,-276.96 84.18,-174.29 45.64,-132 34.35,-119.61 31.37,-100.37 30.89,-86.03"/>
<polygon fill="midnightblue" stroke="midnightblue" points="34.4,-85.82 30.95,-75.81 27.4,-85.79 34.4,-85.82"/>
</g>
<!-- Node17 -->
<g id="node17" class="node">
<title>Node17</title>
<g id="a_node17"><a xlink:title=" ">
<polygon fill="white" stroke="#bfbfbf" points="623.64,-112.5 623.64,-131.5 679.64,-131.5 679.64,-112.5 623.64,-112.5"/>
<text text-anchor="middle" x="651.64" y="-119.5" font-family="Helvetica,sans-Serif" font-size="10.00">optional</text>
</a>
</g>
</g>
<!-- Node3&#45;&gt;Node17 -->
<g id="edge54" class="edge">
<title>Node3&#45;&gt;Node17</title>
<path fill="none" stroke="midnightblue" d="M618.9,-302.26C623.05,-293.35 629.23,-279.02 632.64,-266 644.09,-222.33 648.83,-169.26 650.64,-141.68"/>
<polygon fill="midnightblue" stroke="midnightblue" points="654.15,-141.71 651.25,-131.52 647.16,-141.3 654.15,-141.71"/>
</g>
<!-- Node20 -->
<g id="node20" class="node">
<title>Node20</title>
<g id="a_node20"><a xlink:href="sha256__hash_8h.html" target="_top" xlink:title=" ">
<polygon fill="white" stroke="black" points="703.64,-241 703.64,-260 843.64,-260 843.64,-241 703.64,-241"/>
<text text-anchor="middle" x="773.64" y="-248" font-family="Helvetica,sans-Serif" font-size="10.00">ccf/crypto/sha256_hash.h</text>
</a>
</g>
</g>
<!-- Node3&#45;&gt;Node20 -->
<g id="edge21" class="edge">
<title>Node3&#45;&gt;Node20</title>
<path fill="none" stroke="midnightblue" d="M637.42,-302.48C664.7,-292.27 710.55,-275.11 741.44,-263.55"/>
<polygon fill="midnightblue" stroke="midnightblue" points="742.76,-266.79 750.9,-260.01 740.31,-260.24 742.76,-266.79"/>
</g>
<!-- Node3&#45;&gt;Node23 -->
<g id="edge55" class="edge">
<title>Node3&#45;&gt;Node23</title>
<path fill="none" stroke="midnightblue" d="M641.29,-311.22C730.33,-311.53 1016.31,-309.07 1095.64,-266 1182.59,-218.79 1186.59,-171.72 1211.64,-76 1215.64,-60.74 1217.06,-42.85 1217.53,-29.71"/>
<polygon fill="midnightblue" stroke="midnightblue" points="1221.03,-29.64 1217.73,-19.57 1214.03,-29.49 1221.03,-29.64"/>
</g>
<!-- Node32 -->
<g id="node32" class="node">
<title>Node32</title>
<g id="a_node32"><a xlink:href="tx__id_8h.html" target="_top" xlink:title=" ">
<polygon fill="white" stroke="black" points="1019.14,-241 1019.14,-260 1086.14,-260 1086.14,-241 1019.14,-241"/>
<text text-anchor="middle" x="1052.64" y="-248" font-family="Helvetica,sans-Serif" font-size="10.00">ccf/tx_id.h</text>
</a>
</g>
</g>
<!-- Node3&#45;&gt;Node32 -->
<g id="edge42" class="edge">
<title>Node3&#45;&gt;Node32</title>
<path fill="none" stroke="midnightblue" d="M641.38,-307.37C714.54,-297.43 918.55,-269.72 1008.77,-257.46"/>
<polygon fill="midnightblue" stroke="midnightblue" points="1009.5,-260.89 1018.94,-256.08 1008.56,-253.96 1009.5,-260.89"/>
</g>
<!-- Node35 -->
<g id="node35" class="node">
<title>Node35</title>
<g id="a_node35"><a xlink:title=" ">
<polygon fill="white" stroke="#bfbfbf" points="481.64,-241 481.64,-260 513.64,-260 513.64,-241 481.64,-241"/>
<text text-anchor="middle" x="497.64" y="-248" font-family="Helvetica,sans-Serif" font-size="10.00">list</text>
</a>
</g>
</g>
<!-- Node3&#45;&gt;Node35 -->
<g id="edge51" class="edge">
<title>Node3&#45;&gt;Node35</title>
<path fill="none" stroke="midnightblue" d="M596.12,-302.41C577.4,-293.62 547.74,-279.4 522.64,-266 522.1,-265.71 521.56,-265.42 521.01,-265.12"/>
<polygon fill="midnightblue" stroke="midnightblue" points="522.52,-261.95 512.09,-260.11 519.09,-268.06 522.52,-261.95"/>
</g>
<!-- Node3&#45;&gt;Node36 -->
<g id="edge53" class="edge">
<title>Node3&#45;&gt;Node36</title>
<path fill="none" stroke="midnightblue" d="M587.87,-308.99C532.02,-304.42 399.25,-291.62 290.64,-266 287.24,-265.2 283.73,-264.24 280.25,-263.2"/>
<polygon fill="midnightblue" stroke="midnightblue" points="281.21,-259.84 270.62,-260.13 279.08,-266.5 281.21,-259.84"/>
</g>
<!-- Node5 -->
<g id="node5" class="node">
<title>Node5</title>
<g id="a_node5"><a xlink:href="logger_8h.html" target="_top" xlink:title=" ">
<polygon fill="white" stroke="black" points="398.14,-174 398.14,-193 485.14,-193 485.14,-174 398.14,-174"/>
<text text-anchor="middle" x="441.64" y="-181" font-family="Helvetica,sans-Serif" font-size="10.00">ccf/ds/logger.h</text>
</a>
</g>
</g>
<!-- Node4&#45;&gt;Node5 -->
<g id="edge4" class="edge">
<title>Node4&#45;&gt;Node5</title>
<path fill="none" stroke="midnightblue" d="M559.58,-240.87C536.42,-229.8 496.01,-210.49 469.05,-197.6"/>
<polygon fill="midnightblue" stroke="midnightblue" points="470.31,-194.32 459.78,-193.17 467.29,-200.64 470.31,-194.32"/>
</g>
<!-- Node6 -->
<g id="node6" class="node">
<title>Node6</title>
<g id="a_node6"><a xlink:href="enum__formatter_8h.html" target="_top" xlink:title=" ">
<polygon fill="white" stroke="black" points="431.64,-112.5 431.64,-131.5 567.64,-131.5 567.64,-112.5 431.64,-112.5"/>
<text text-anchor="middle" x="499.64" y="-119.5" font-family="Helvetica,sans-Serif" font-size="10.00">ccf/ds/enum_formatter.h</text>
</a>
</g>
</g>
<!-- Node5&#45;&gt;Node6 -->
<g id="edge5" class="edge">
<title>Node5&#45;&gt;Node6</title>
<path fill="none" stroke="midnightblue" d="M449.95,-173.98C458.82,-164.87 473.09,-150.24 484.06,-138.98"/>
<polygon fill="midnightblue" stroke="midnightblue" points="486.87,-141.11 491.35,-131.51 481.86,-136.23 486.87,-141.11"/>
</g>
<!-- Node7 -->
<g id="node7" class="node">
<title>Node7</title>
<g id="a_node7"><a xlink:title=" ">
<polygon fill="white" stroke="#bfbfbf" points="815.14,-56.5 815.14,-75.5 894.14,-75.5 894.14,-56.5 815.14,-56.5"/>
<text text-anchor="middle" x="854.64" y="-63.5" font-family="Helvetica,sans-Serif" font-size="10.00">fmt/format.h</text>
</a>
</g>
</g>
<!-- Node5&#45;&gt;Node7 -->
<g id="edge15" class="edge">
<title>Node5&#45;&gt;Node7</title>
<path fill="none" stroke="midnightblue" d="M467.41,-173.95C494.87,-164.59 539.42,-148.68 576.64,-132 594.06,-124.2 596.62,-118.27 614.64,-112 678.37,-89.82 755.64,-77.82 804.97,-71.92"/>
<polygon fill="midnightblue" stroke="midnightblue" points="805.52,-75.38 815.05,-70.76 804.72,-68.43 805.52,-75.38"/>
</g>
<!-- Node8 -->
<g id="node8" class="node">
<title>Node8</title>
<g id="a_node8"><a xlink:href="thread__ids_8h.html" target="_top" xlink:title=" ">
<polygon fill="white" stroke="black" points="54.64,-112.5 54.64,-131.5 162.64,-131.5 162.64,-112.5 54.64,-112.5"/>
<text text-anchor="middle" x="108.64" y="-119.5" font-family="Helvetica,sans-Serif" font-size="10.00">ccf/ds/thread_ids.h</text>
</a>
</g>
</g>
<!-- Node5&#45;&gt;Node8 -->
<g id="edge7" class="edge">
<title>Node5&#45;&gt;Node8</title>
<path fill="none" stroke="midnightblue" d="M398.11,-174.72C338.78,-164.12 232.41,-145.11 166.45,-133.33"/>
<polygon fill="midnightblue" stroke="midnightblue" points="166.68,-129.82 156.22,-131.5 165.45,-136.71 166.68,-129.82"/>
</g>
<!-- Node14 -->
<g id="node14" class="node">
<title>Node14</title>
<g id="a_node14"><a xlink:title=" ">
<polygon fill="white" stroke="#bfbfbf" points="257.14,-112.5 257.14,-131.5 336.14,-131.5 336.14,-112.5 257.14,-112.5"/>
<text text-anchor="middle" x="296.64" y="-119.5" font-family="Helvetica,sans-Serif" font-size="10.00">fmt/chrono.h</text>
</a>
</g>
</g>
<!-- Node5&#45;&gt;Node14 -->
<g id="edge14" class="edge">
<title>Node5&#45;&gt;Node14</title>
<path fill="none" stroke="midnightblue" d="M420.87,-173.98C396.21,-163.86 354.9,-146.9 326.74,-135.35"/>
<polygon fill="midnightblue" stroke="midnightblue" points="327.96,-132.07 317.38,-131.51 325.3,-138.54 327.96,-132.07"/>
</g>
<!-- Node15 -->
<g id="node15" class="node">
<title>Node15</title>
<g id="a_node15"><a xlink:title=" ">
<polygon fill="white" stroke="#bfbfbf" points="353.64,-112.5 353.64,-131.5 413.64,-131.5 413.64,-112.5 353.64,-112.5"/>
<text text-anchor="middle" x="383.64" y="-119.5" font-family="Helvetica,sans-Serif" font-size="10.00">iostream</text>
</a>
</g>
</g>
<!-- Node5&#45;&gt;Node15 -->
<g id="edge16" class="edge">
<title>Node5&#45;&gt;Node15</title>
<path fill="none" stroke="midnightblue" d="M433.33,-173.98C424.46,-164.87 410.2,-150.24 399.22,-138.98"/>
<polygon fill="midnightblue" stroke="midnightblue" points="401.42,-136.23 391.94,-131.51 396.41,-141.11 401.42,-136.23"/>
</g>
<!-- Node5&#45;&gt;Node16 -->
<g id="edge17" class="edge">
<title>Node5&#45;&gt;Node16</title>
<path fill="none" stroke="midnightblue" d="M397.94,-180.95C328.12,-176.96 203.56,-162.71 247.64,-112 264.1,-93.07 413.76,-78.62 502.46,-71.64"/>
<polygon fill="midnightblue" stroke="midnightblue" points="502.74,-75.13 512.44,-70.86 502.2,-68.15 502.74,-75.13"/>
</g>
<!-- Node5&#45;&gt;Node17 -->
<g id="edge18" class="edge">
<title>Node5&#45;&gt;Node17</title>
<path fill="none" stroke="midnightblue" d="M471.73,-173.98C509.16,-163.37 573.09,-145.26 613.8,-133.72"/>
<polygon fill="midnightblue" stroke="midnightblue" points="614.96,-137.03 623.62,-130.94 613.05,-130.3 614.96,-137.03"/>
</g>
<!-- Node18 -->
<g id="node18" class="node">
<title>Node18</title>
<g id="a_node18"><a xlink:title=" ">
<polygon fill="white" stroke="#bfbfbf" points="697.64,-112.5 697.64,-131.5 753.64,-131.5 753.64,-112.5 697.64,-112.5"/>
<text text-anchor="middle" x="725.64" y="-119.5" font-family="Helvetica,sans-Serif" font-size="10.00">sstream</text>
</a>
</g>
</g>
<!-- Node5&#45;&gt;Node18 -->
<g id="edge19" class="edge">
<title>Node5&#45;&gt;Node18</title>
<path fill="none" stroke="midnightblue" d="M485.47,-174.05C532.9,-164.79 611,-149.21 687.57,-132.18"/>
<polygon fill="midnightblue" stroke="midnightblue" points="688.39,-135.58 697.39,-129.99 686.86,-128.75 688.39,-135.58"/>
</g>
<!-- Node19 -->
<g id="node19" class="node">
<title>Node19</title>
<g id="a_node19"><a xlink:title=" ">
<polygon fill="white" stroke="#bfbfbf" points="325.14,-0.5 325.14,-19.5 394.14,-19.5 394.14,-0.5 325.14,-0.5"/>
<text text-anchor="middle" x="359.64" y="-7.5" font-family="Helvetica,sans-Serif" font-size="10.00">type_traits</text>
</a>
</g>
</g>
<!-- Node5&#45;&gt;Node19 -->
<g id="edge20" class="edge">
<title>Node5&#45;&gt;Node19</title>
<path fill="none" stroke="midnightblue" d="M397.98,-181.17C307.86,-177.76 104.72,-166.38 45.64,-132 18.75,-116.35 13.48,-105.51 3.64,-76 0.83,-67.57 -2.24,-62.67 3.64,-56 23.95,-32.97 224.12,-18.72 315.07,-13.39"/>
<polygon fill="midnightblue" stroke="midnightblue" points="315.3,-16.88 325.09,-12.81 314.9,-9.89 315.3,-16.88"/>
</g>
<!-- Node6&#45;&gt;Node7 -->
<g id="edge6" class="edge">
<title>Node6&#45;&gt;Node7</title>
<path fill="none" stroke="midnightblue" d="M555.89,-112.44C624.46,-102.01 739.28,-84.55 804.81,-74.58"/>
<polygon fill="midnightblue" stroke="midnightblue" points="805.53,-78.01 814.89,-73.05 804.47,-71.09 805.53,-78.01"/>
</g>
<!-- Node8&#45;&gt;Node7 -->
<g id="edge8" class="edge">
<title>Node8&#45;&gt;Node7</title>
<path fill="none" stroke="midnightblue" d="M162.89,-117.07C302.1,-107 670.41,-80.34 804.72,-70.61"/>
<polygon fill="midnightblue" stroke="midnightblue" points="805.02,-74.1 814.74,-69.89 804.51,-67.12 805.02,-74.1"/>
</g>
<!-- Node9 -->
<g id="node9" class="node">
<title>Node9</title>
<g id="a_node9"><a xlink:title=" ">
<polygon fill="white" stroke="#bfbfbf" points="134.64,-56.5 134.64,-75.5 220.64,-75.5 220.64,-56.5 134.64,-56.5"/>
<text text-anchor="middle" x="177.64" y="-63.5" font-family="Helvetica,sans-Serif" font-size="10.00">fmt/ostream.h</text>
</a>
</g>
</g>
<!-- Node8&#45;&gt;Node9 -->
<g id="edge9" class="edge">
<title>Node8&#45;&gt;Node9</title>
<path fill="none" stroke="midnightblue" d="M119.73,-112.32C130.13,-104.18 145.9,-91.84 158.36,-82.09"/>
<polygon fill="midnightblue" stroke="midnightblue" points="160.64,-84.75 166.35,-75.83 156.32,-79.24 160.64,-84.75"/>
</g>
<!-- Node10 -->
<g id="node10" class="node">
<title>Node10</title>
<g id="a_node10"><a xlink:title=" ">
<polygon fill="white" stroke="#bfbfbf" points="239.14,-56.5 239.14,-75.5 300.14,-75.5 300.14,-56.5 239.14,-56.5"/>
<text text-anchor="middle" x="269.64" y="-63.5" font-family="Helvetica,sans-Serif" font-size="10.00">fmt/std.h</text>
</a>
</g>
</g>
<!-- Node8&#45;&gt;Node10 -->
<g id="edge10" class="edge">
<title>Node8&#45;&gt;Node10</title>
<path fill="none" stroke="midnightblue" d="M134.15,-112.44C161.24,-103.36 204.23,-88.94 234.51,-78.78"/>
<polygon fill="midnightblue" stroke="midnightblue" points="235.88,-82.01 244.25,-75.52 233.66,-75.38 235.88,-82.01"/>
</g>
<!-- Node11 -->
<g id="node11" class="node">
<title>Node11</title>
<g id="a_node11"><a xlink:title=" ">
<polygon fill="white" stroke="#bfbfbf" points="318.64,-56.5 318.64,-75.5 362.64,-75.5 362.64,-56.5 318.64,-56.5"/>
<text text-anchor="middle" x="340.64" y="-63.5" font-family="Helvetica,sans-Serif" font-size="10.00">limits</text>
</a>
</g>
</g>
<!-- Node8&#45;&gt;Node11 -->
<g id="edge11" class="edge">
<title>Node8&#45;&gt;Node11</title>
<path fill="none" stroke="midnightblue" d="M149.39,-112.49C187.86,-104.31 247.35,-91.28 308.48,-75.93"/>
<polygon fill="midnightblue" stroke="midnightblue" points="309.47,-79.29 318.3,-73.45 307.75,-72.5 309.47,-79.29"/>
</g>
<!-- Node8&#45;&gt;Node12 -->
<g id="edge12" class="edge">
<title>Node8&#45;&gt;Node12</title>
<path fill="none" stroke="midnightblue" d="M96.27,-112.32C84.48,-104.06 66.51,-91.45 52.51,-81.63"/>
<polygon fill="midnightblue" stroke="midnightblue" points="54.18,-78.53 43.98,-75.65 50.16,-84.26 54.18,-78.53"/>
</g>
<!-- Node13 -->
<g id="node13" class="node">
<title>Node13</title>
<g id="a_node13"><a xlink:title=" ">
<polygon fill="white" stroke="#bfbfbf" points="68.64,-56.5 68.64,-75.5 116.64,-75.5 116.64,-56.5 68.64,-56.5"/>
<text text-anchor="middle" x="92.64" y="-63.5" font-family="Helvetica,sans-Serif" font-size="10.00">thread</text>
</a>
</g>
</g>
<!-- Node8&#45;&gt;Node13 -->
<g id="edge13" class="edge">
<title>Node8&#45;&gt;Node13</title>
<path fill="none" stroke="midnightblue" d="M106,-112.08C103.86,-104.85 100.76,-94.41 98.09,-85.4"/>
<polygon fill="midnightblue" stroke="midnightblue" points="101.43,-84.34 95.23,-75.75 94.72,-86.33 101.43,-84.34"/>
</g>
<!-- Node20&#45;&gt;Node7 -->
<g id="edge41" class="edge">
<title>Node20&#45;&gt;Node7</title>
<path fill="none" stroke="midnightblue" d="M779.18,-240.77C785.33,-230.87 795.37,-214.12 802.64,-199 821.7,-159.38 839.46,-110.83 848.47,-85.07"/>
<polygon fill="midnightblue" stroke="midnightblue" points="851.81,-86.12 851.77,-75.52 845.2,-83.83 851.81,-86.12"/>
</g>
<!-- Node21 -->
<g id="node21" class="node">
<title>Node21</title>
<g id="a_node21"><a xlink:href="json_8h.html" target="_top" xlink:title=" ">
<polygon fill="white" stroke="black" points="888.14,-174 888.14,-193 965.14,-193 965.14,-174 888.14,-174"/>
<text text-anchor="middle" x="926.64" y="-181" font-family="Helvetica,sans-Serif" font-size="10.00">ccf/ds/json.h</text>
</a>
</g>
</g>
<!-- Node20&#45;&gt;Node21 -->
<g id="edge22" class="edge">
<title>Node20&#45;&gt;Node21</title>
<path fill="none" stroke="midnightblue" d="M793.96,-240.87C820.36,-229.65 866.67,-209.98 897,-197.09"/>
<polygon fill="midnightblue" stroke="midnightblue" points="898.41,-200.3 906.24,-193.17 895.67,-193.86 898.41,-200.3"/>
</g>
<!-- Node28 -->
<g id="node28" class="node">
<title>Node28</title>
<g id="a_node28"><a xlink:title=" ">
<polygon fill="white" stroke="#bfbfbf" points="773.64,-0.5 773.64,-19.5 815.64,-19.5 815.64,-0.5 773.64,-0.5"/>
<text text-anchor="middle" x="794.64" y="-7.5" font-family="Helvetica,sans-Serif" font-size="10.00">array</text>
</a>
</g>
</g>
<!-- Node20&#45;&gt;Node28 -->
<g id="edge39" class="edge">
<title>Node20&#45;&gt;Node28</title>
<path fill="none" stroke="midnightblue" d="M766.75,-240.83C759.61,-231.24 748.91,-215.02 744.64,-199 741.09,-185.69 741.48,-181.41 744.64,-168 748.75,-150.59 756.32,-148.73 762.64,-132 775.96,-96.73 785.93,-53.68 790.97,-29.6"/>
<polygon fill="midnightblue" stroke="midnightblue" points="794.42,-30.19 792.98,-19.7 787.56,-28.8 794.42,-30.19"/>
</g>
<!-- Node31 -->
<g id="node31" class="node">
<title>Node31</title>
<g id="a_node31"><a xlink:title=" ">
<polygon fill="white" stroke="#bfbfbf" points="753.64,-174 753.64,-193 793.64,-193 793.64,-174 753.64,-174"/>
<text text-anchor="middle" x="773.64" y="-181" font-family="Helvetica,sans-Serif" font-size="10.00">span</text>
</a>
</g>
</g>
<!-- Node20&#45;&gt;Node31 -->
<g id="edge40" class="edge">
<title>Node20&#45;&gt;Node31</title>
<path fill="none" stroke="midnightblue" d="M773.64,-240.73C773.64,-231.18 773.64,-215.62 773.64,-203.28"/>
<polygon fill="midnightblue" stroke="midnightblue" points="777.14,-203.13 773.64,-193.13 770.14,-203.13 777.14,-203.13"/>
</g>
<!-- Node21&#45;&gt;Node7 -->
<g id="edge37" class="edge">
<title>Node21&#45;&gt;Node7</title>
<path fill="none" stroke="midnightblue" d="M921.23,-173.82C909.4,-154.84 881.04,-109.35 865.42,-84.29"/>
<polygon fill="midnightblue" stroke="midnightblue" points="868.38,-82.42 860.12,-75.78 862.44,-86.12 868.38,-82.42"/>
</g>
<!-- Node21&#45;&gt;Node18 -->
<g id="edge38" class="edge">
<title>Node21&#45;&gt;Node18</title>
<path fill="none" stroke="midnightblue" d="M897.84,-173.98C862.57,-163.53 802.7,-145.81 763.67,-134.26"/>
<polygon fill="midnightblue" stroke="midnightblue" points="764.32,-130.8 753.74,-131.32 762.33,-137.51 764.32,-130.8"/>
</g>
<!-- Node22 -->
<g id="node22" class="node">
<title>Node22</title>
<g id="a_node22"><a xlink:href="include_2ccf_2crypto_2base64_8h.html" target="_top" xlink:title=" ">
<polygon fill="white" stroke="black" points="1058.64,-56.5 1058.64,-75.5 1170.64,-75.5 1170.64,-56.5 1058.64,-56.5"/>
<text text-anchor="middle" x="1114.64" y="-63.5" font-family="Helvetica,sans-Serif" font-size="10.00">ccf/crypto/base64.h</text>
</a>
</g>
</g>
<!-- Node21&#45;&gt;Node22 -->
<g id="edge23" class="edge">
<title>Node21&#45;&gt;Node22</title>
<path fill="none" stroke="midnightblue" d="M959.64,-173.95C986.73,-165.92 1025.28,-152.12 1054.64,-132 1073.95,-118.78 1091.53,-98.27 1102.6,-83.83"/>
<polygon fill="midnightblue" stroke="midnightblue" points="1105.45,-85.86 1108.61,-75.74 1099.83,-81.68 1105.45,-85.86"/>
</g>
<!-- Node25 -->
<g id="node25" class="node">
<title>Node25</title>
<g id="a_node25"><a xlink:href="include_2ccf_2ds_2json__schema_8h.html" target="_top" xlink:title=" ">
<polygon fill="white" stroke="black" points="924.14,-112.5 924.14,-131.5 1045.14,-131.5 1045.14,-112.5 924.14,-112.5"/>
<text text-anchor="middle" x="984.64" y="-119.5" font-family="Helvetica,sans-Serif" font-size="10.00">ccf/ds/json_schema.h</text>
</a>
</g>
</g>
<!-- Node21&#45;&gt;Node25 -->
<g id="edge26" class="edge">
<title>Node21&#45;&gt;Node25</title>
<path fill="none" stroke="midnightblue" d="M934.95,-173.98C943.82,-164.87 958.09,-150.24 969.06,-138.98"/>
<polygon fill="midnightblue" stroke="midnightblue" points="971.87,-141.11 976.35,-131.51 966.86,-136.23 971.87,-141.11"/>
</g>
<!-- Node22&#45;&gt;Node23 -->
<g id="edge24" class="edge">
<title>Node22&#45;&gt;Node23</title>
<path fill="none" stroke="midnightblue" d="M1131.19,-56.32C1147.63,-47.7 1173.08,-34.36 1192.11,-24.39"/>
<polygon fill="midnightblue" stroke="midnightblue" points="1193.9,-27.4 1201.13,-19.65 1190.65,-21.2 1193.9,-27.4"/>
</g>
<!-- Node24 -->
<g id="node24" class="node">
<title>Node24</title>
<g id="a_node24"><a xlink:title=" ">
<polygon fill="white" stroke="#bfbfbf" points="1091.14,-0.5 1091.14,-19.5 1138.14,-19.5 1138.14,-0.5 1091.14,-0.5"/>
<text text-anchor="middle" x="1114.64" y="-7.5" font-family="Helvetica,sans-Serif" font-size="10.00">vector</text>
</a>
</g>
</g>
<!-- Node22&#45;&gt;Node24 -->
<g id="edge25" class="edge">
<title>Node22&#45;&gt;Node24</title>
<path fill="none" stroke="midnightblue" d="M1114.64,-56.08C1114.64,-49.01 1114.64,-38.86 1114.64,-29.99"/>
<polygon fill="midnightblue" stroke="midnightblue" points="1118.14,-29.75 1114.64,-19.75 1111.14,-29.75 1118.14,-29.75"/>
</g>
<!-- Node25&#45;&gt;Node7 -->
<g id="edge35" class="edge">
<title>Node25&#45;&gt;Node7</title>
<path fill="none" stroke="midnightblue" d="M964.04,-112.44C942.65,-103.56 908.96,-89.56 884.62,-79.45"/>
<polygon fill="midnightblue" stroke="midnightblue" points="885.72,-76.12 875.14,-75.52 883.04,-82.58 885.72,-76.12"/>
</g>
<!-- Node25&#45;&gt;Node16 -->
<g id="edge36" class="edge">
<title>Node25&#45;&gt;Node16</title>
<path fill="none" stroke="midnightblue" d="M924.01,-113.15C846.35,-103.09 712.3,-85.73 632.61,-75.41"/>
<polygon fill="midnightblue" stroke="midnightblue" points="633.06,-71.94 622.69,-74.13 632.16,-78.88 633.06,-71.94"/>
</g>
<!-- Node26 -->
<g id="node26" class="node">
<title>Node26</title>
<g id="a_node26"><a xlink:href="nonstd_8h.html" target="_top" xlink:title=" ">
<polygon fill="white" stroke="black" points="912.64,-56.5 912.64,-75.5 1002.64,-75.5 1002.64,-56.5 912.64,-56.5"/>
<text text-anchor="middle" x="957.64" y="-63.5" font-family="Helvetica,sans-Serif" font-size="10.00">ccf/ds/nonstd.h</text>
</a>
</g>
</g>
<!-- Node25&#45;&gt;Node26 -->
<g id="edge27" class="edge">
<title>Node25&#45;&gt;Node26</title>
<path fill="none" stroke="midnightblue" d="M980.18,-112.08C976.49,-104.69 971.12,-93.95 966.55,-84.81"/>
<polygon fill="midnightblue" stroke="midnightblue" points="969.62,-83.13 962.02,-75.75 963.36,-86.26 969.62,-83.13"/>
</g>
<!-- Node26&#45;&gt;Node19 -->
<g id="edge33" class="edge">
<title>Node26&#45;&gt;Node19</title>
<path fill="none" stroke="midnightblue" d="M912.6,-57.21C909.57,-56.77 906.57,-56.36 903.64,-56 719.14,-33.03 497.93,-18.84 404.64,-13.46"/>
<polygon fill="midnightblue" stroke="midnightblue" points="404.61,-9.95 394.43,-12.88 404.21,-16.94 404.61,-9.95"/>
</g>
<!-- Node26&#45;&gt;Node23 -->
<g id="edge31" class="edge">
<title>Node26&#45;&gt;Node23</title>
<path fill="none" stroke="midnightblue" d="M998.84,-56.44C1050.62,-45.69 1138.42,-27.45 1185.52,-17.67"/>
<polygon fill="midnightblue" stroke="midnightblue" points="1186.39,-21.07 1195.47,-15.6 1184.97,-14.21 1186.39,-21.07"/>
</g>
<!-- Node26&#45;&gt;Node24 -->
<g id="edge34" class="edge">
<title>Node26&#45;&gt;Node24</title>
<path fill="none" stroke="midnightblue" d="M982.52,-56.44C1009.24,-47.25 1051.85,-32.6 1081.42,-22.43"/>
<polygon fill="midnightblue" stroke="midnightblue" points="1082.59,-25.73 1090.91,-19.16 1080.31,-19.11 1082.59,-25.73"/>
</g>
<!-- Node27 -->
<g id="node27" class="node">
<title>Node27</title>
<g id="a_node27"><a xlink:title=" ">
<polygon fill="white" stroke="#bfbfbf" points="847.64,-0.5 847.64,-19.5 911.64,-19.5 911.64,-0.5 847.64,-0.5"/>
<text text-anchor="middle" x="879.64" y="-7.5" font-family="Helvetica,sans-Serif" font-size="10.00">algorithm</text>
</a>
</g>
</g>
<!-- Node26&#45;&gt;Node27 -->
<g id="edge28" class="edge">
<title>Node26&#45;&gt;Node27</title>
<path fill="none" stroke="midnightblue" d="M945.11,-56.32C933.06,-47.98 914.61,-35.21 900.37,-25.35"/>
<polygon fill="midnightblue" stroke="midnightblue" points="902.36,-22.47 892.14,-19.65 898.37,-28.22 902.36,-22.47"/>
</g>
<!-- Node26&#45;&gt;Node28 -->
<g id="edge29" class="edge">
<title>Node26&#45;&gt;Node28</title>
<path fill="none" stroke="midnightblue" d="M931.81,-56.44C902.94,-46.88 856.21,-31.4 825.45,-21.21"/>
<polygon fill="midnightblue" stroke="midnightblue" points="826.28,-17.79 815.68,-17.97 824.08,-24.44 826.28,-17.79"/>
</g>
<!-- Node29 -->
<g id="node29" class="node">
<title>Node29</title>
<g id="a_node29"><a xlink:title=" ">
<polygon fill="white" stroke="#bfbfbf" points="930.14,-0.5 930.14,-19.5 979.14,-19.5 979.14,-0.5 930.14,-0.5"/>
<text text-anchor="middle" x="954.64" y="-7.5" font-family="Helvetica,sans-Serif" font-size="10.00">cctype</text>
</a>
</g>
</g>
<!-- Node26&#45;&gt;Node29 -->
<g id="edge30" class="edge">
<title>Node26&#45;&gt;Node29</title>
<path fill="none" stroke="midnightblue" d="M957.15,-56.08C956.75,-49.01 956.19,-38.86 955.7,-29.99"/>
<polygon fill="midnightblue" stroke="midnightblue" points="959.18,-29.54 955.13,-19.75 952.19,-29.93 959.18,-29.54"/>
</g>
<!-- Node30 -->
<g id="node30" class="node">
<title>Node30</title>
<g id="a_node30"><a xlink:title=" ">
<polygon fill="white" stroke="#bfbfbf" points="997.14,-0.5 997.14,-19.5 1070.14,-19.5 1070.14,-0.5 997.14,-0.5"/>
<text text-anchor="middle" x="1033.64" y="-7.5" font-family="Helvetica,sans-Serif" font-size="10.00">string_view</text>
</a>
</g>
</g>
<!-- Node26&#45;&gt;Node30 -->
<g id="edge32" class="edge">
<title>Node26&#45;&gt;Node30</title>
<path fill="none" stroke="midnightblue" d="M969.85,-56.32C981.42,-48.11 999.02,-35.6 1012.8,-25.81"/>
<polygon fill="midnightblue" stroke="midnightblue" points="1015.08,-28.48 1021.21,-19.83 1011.03,-22.77 1015.08,-28.48"/>
</g>
<!-- Node32&#45;&gt;Node7 -->
<g id="edge46" class="edge">
<title>Node32&#45;&gt;Node7</title>
<path fill="none" stroke="midnightblue" d="M1062.45,-241C1072.25,-231.79 1086.69,-216.11 1092.64,-199 1106.51,-159.15 1089.51,-135.75 1054.64,-112 1042.25,-103.56 959.51,-86.73 904.41,-76.22"/>
<polygon fill="midnightblue" stroke="midnightblue" points="904.94,-72.76 894.47,-74.33 903.64,-79.63 904.94,-72.76"/>
</g>
<!-- Node32&#45;&gt;Node16 -->
<g id="edge47" class="edge">
<title>Node32&#45;&gt;Node16</title>
<path fill="none" stroke="midnightblue" d="M1046.89,-240.87C1035.29,-224.15 1007.37,-187.3 974.64,-168 865.68,-103.75 717.14,-80.19 632.94,-71.68"/>
<polygon fill="midnightblue" stroke="midnightblue" points="633.04,-68.17 622.74,-70.69 632.36,-75.14 633.04,-68.17"/>
</g>
<!-- Node32&#45;&gt;Node17 -->
<g id="edge48" class="edge">
<title>Node32&#45;&gt;Node17</title>
<path fill="none" stroke="midnightblue" d="M1019.82,-240.96C984.79,-231.6 927.83,-215.69 879.64,-199 844.78,-186.93 837.47,-180.17 802.64,-168 764.59,-154.7 720.32,-141.81 689.59,-133.25"/>
<polygon fill="midnightblue" stroke="midnightblue" points="690.29,-129.81 679.72,-130.52 688.43,-136.56 690.29,-129.81"/>
</g>
<!-- Node32&#45;&gt;Node21 -->
<g id="edge43" class="edge">
<title>Node32&#45;&gt;Node21</title>
<path fill="none" stroke="midnightblue" d="M1035.91,-240.87C1014.54,-229.84 977.34,-210.66 952.36,-197.77"/>
<polygon fill="midnightblue" stroke="midnightblue" points="953.93,-194.64 943.44,-193.17 950.73,-200.86 953.93,-194.64"/>
</g>
<!-- Node32&#45;&gt;Node23 -->
<g id="edge49" class="edge">
<title>Node32&#45;&gt;Node23</title>
<path fill="none" stroke="midnightblue" d="M1069.06,-240.95C1084.7,-232.14 1108.1,-217.15 1123.64,-199 1169.67,-145.24 1199.91,-65.04 1211.86,-29.31"/>
<polygon fill="midnightblue" stroke="midnightblue" points="1215.21,-30.32 1214.98,-19.73 1208.56,-28.16 1215.21,-30.32"/>
</g>
<!-- Node32&#45;&gt;Node30 -->
<g id="edge50" class="edge">
<title>Node32&#45;&gt;Node30</title>
<path fill="none" stroke="midnightblue" d="M1067.8,-240.95C1081.36,-232.33 1100.34,-217.66 1108.64,-199 1114.24,-186.41 1111.81,-181.41 1108.64,-168 1102.25,-140.92 1096.06,-135.16 1080.64,-112 1068.94,-94.42 1059.32,-94.77 1049.64,-76 1042.15,-61.47 1038.06,-43.29 1035.9,-29.86"/>
<polygon fill="midnightblue" stroke="midnightblue" points="1039.35,-29.29 1034.5,-19.87 1032.42,-30.26 1039.35,-29.29"/>
</g>
<!-- Node33 -->
<g id="node33" class="node">
<title>Node33</title>
<g id="a_node33"><a xlink:title=" ">
<polygon fill="white" stroke="#bfbfbf" points="1022.14,-174 1022.14,-193 1083.14,-193 1083.14,-174 1022.14,-174"/>
<text text-anchor="middle" x="1052.64" y="-181" font-family="Helvetica,sans-Serif" font-size="10.00">charconv</text>
</a>
</g>
</g>
<!-- Node32&#45;&gt;Node33 -->
<g id="edge44" class="edge">
<title>Node32&#45;&gt;Node33</title>
<path fill="none" stroke="midnightblue" d="M1052.64,-240.73C1052.64,-231.18 1052.64,-215.62 1052.64,-203.28"/>
<polygon fill="midnightblue" stroke="midnightblue" points="1056.14,-203.13 1052.64,-193.13 1049.14,-203.13 1056.14,-203.13"/>
</g>
<!-- Node34 -->
<g id="node34" class="node">
<title>Node34</title>
<g id="a_node34"><a xlink:title=" ">
<polygon fill="white" stroke="#bfbfbf" points="1298.64,-0.5 1298.64,-19.5 1348.64,-19.5 1348.64,-0.5 1298.64,-0.5"/>
<text text-anchor="middle" x="1323.64" y="-7.5" font-family="Helvetica,sans-Serif" font-size="10.00">cstdint</text>
</a>
</g>
</g>
<!-- Node32&#45;&gt;Node34 -->
<g id="edge45" class="edge">
<title>Node32&#45;&gt;Node34</title>
<path fill="none" stroke="midnightblue" d="M1073.68,-240.91C1093.98,-232.07 1125,-217.07 1148.64,-199 1218.23,-145.8 1284.07,-63.54 1310.93,-28.15"/>
<polygon fill="midnightblue" stroke="midnightblue" points="1313.97,-29.94 1317.18,-19.84 1308.37,-25.73 1313.97,-29.94"/>
</g>
<!-- Node37&#45;&gt;Node21 -->
<g id="edge60" class="edge">
<title>Node37&#45;&gt;Node21</title>
<path fill="none" stroke="midnightblue" d="M1370.32,-309.68C1279.76,-306.37 1073.6,-295.7 1010.64,-266 979.55,-251.33 952.86,-220.45 938.34,-201.2"/>
<polygon fill="midnightblue" stroke="midnightblue" points="941.11,-199.05 932.39,-193.03 935.45,-203.17 941.11,-199.05"/>
</g>
<!-- Node37&#45;&gt;Node23 -->
<g id="edge71" class="edge">
<title>Node37&#45;&gt;Node23</title>
<path fill="none" stroke="midnightblue" d="M1456.7,-307.89C1526.75,-300.24 1657.64,-273.97 1657.64,-184.5 1657.64,-184.5 1657.64,-184.5 1657.64,-121 1657.64,-91.02 1662.54,-75.35 1639.64,-56 1579.92,-5.54 1367.33,-28.85 1289.64,-20 1276.54,-18.51 1262.11,-16.73 1249.64,-15.15"/>
<polygon fill="midnightblue" stroke="midnightblue" points="1250.05,-11.68 1239.69,-13.88 1249.16,-18.62 1250.05,-11.68"/>
</g>
<!-- Node38 -->
<g id="node38" class="node">
<title>Node38</title>
<g id="a_node38"><a xlink:href="blit__serialiser_8h.html" target="_top" xlink:title=" ">
<polygon fill="white" stroke="black" points="1368.14,-235.5 1368.14,-265.5 1467.14,-265.5 1467.14,-235.5 1368.14,-235.5"/>
<text text-anchor="start" x="1376.14" y="-253.5" font-family="Helvetica,sans-Serif" font-size="10.00">ccf/kv/serialisers</text>
<text text-anchor="middle" x="1417.64" y="-242.5" font-family="Helvetica,sans-Serif" font-size="10.00">/blit_serialiser.h</text>
</a>
</g>
</g>
<!-- Node37&#45;&gt;Node38 -->
<g id="edge61" class="edge">
<title>Node37&#45;&gt;Node38</title>
<path fill="none" stroke="midnightblue" d="M1414.21,-302.48C1414.69,-295.47 1415.38,-285.19 1416.02,-275.7"/>
<polygon fill="midnightblue" stroke="midnightblue" points="1419.52,-275.74 1416.7,-265.52 1412.54,-275.27 1419.52,-275.74"/>
</g>
<!-- Node38&#45;&gt;Node26 -->
<g id="edge62" class="edge">
<title>Node38&#45;&gt;Node26</title>
<path fill="none" stroke="midnightblue" d="M1384.32,-235.43C1324.01,-210.07 1192.62,-155.31 1080.64,-112 1050.63,-100.39 1016.22,-87.87 991.44,-78.99"/>
<polygon fill="midnightblue" stroke="midnightblue" points="992.37,-75.61 981.78,-75.54 990.02,-82.2 992.37,-75.61"/>
</g>
<!-- Node39 -->
<g id="node39" class="node">
<title>Node39</title>
<g id="a_node39"><a xlink:href="serialised__entry_8h.html" target="_top" xlink:title=" ">
<polygon fill="white" stroke="black" points="1368.14,-168.5 1368.14,-198.5 1473.14,-198.5 1473.14,-168.5 1368.14,-168.5"/>
<text text-anchor="start" x="1376.14" y="-186.5" font-family="Helvetica,sans-Serif" font-size="10.00">ccf/kv/serialisers</text>
<text text-anchor="middle" x="1420.64" y="-175.5" font-family="Helvetica,sans-Serif" font-size="10.00">/serialised_entry.h</text>
</a>
</g>
</g>
<!-- Node38&#45;&gt;Node39 -->
<g id="edge63" class="edge">
<title>Node38&#45;&gt;Node39</title>
<path fill="none" stroke="midnightblue" d="M1418.29,-235.4C1418.65,-227.64 1419.1,-217.81 1419.52,-208.86"/>
<polygon fill="midnightblue" stroke="midnightblue" points="1423.03,-208.73 1419.99,-198.58 1416.03,-208.4 1423.03,-208.73"/>
</g>
<!-- Node40 -->
<g id="node40" class="node">
<title>Node40</title>
<g id="a_node40"><a xlink:href="byte__vector_8h.html" target="_top" xlink:title=" ">
<polygon fill="white" stroke="black" points="1369.64,-112.5 1369.64,-131.5 1469.64,-131.5 1469.64,-112.5 1369.64,-112.5"/>
<text text-anchor="middle" x="1419.64" y="-119.5" font-family="Helvetica,sans-Serif" font-size="10.00">ccf/byte_vector.h</text>
</a>
</g>
</g>
<!-- Node39&#45;&gt;Node40 -->
<g id="edge64" class="edge">
<title>Node39&#45;&gt;Node40</title>
<path fill="none" stroke="midnightblue" d="M1420.4,-168.4C1420.27,-160.47 1420.1,-150.46 1419.96,-141.86"/>
<polygon fill="midnightblue" stroke="midnightblue" points="1423.45,-141.6 1419.79,-131.66 1416.46,-141.72 1423.45,-141.6"/>
</g>
<!-- Node40&#45;&gt;Node7 -->
<g id="edge69" class="edge">
<title>Node40&#45;&gt;Node7</title>
<path fill="none" stroke="midnightblue" d="M1369.29,-118.2C1278.49,-112.8 1081.13,-99.48 904.18,-75.94"/>
<polygon fill="midnightblue" stroke="midnightblue" points="904.55,-72.46 894.17,-74.59 903.62,-79.39 904.55,-72.46"/>
</g>
<!-- Node41 -->
<g id="node41" class="node">
<title>Node41</title>
<g id="a_node41"><a xlink:href="siphash_8h.html" target="_top" xlink:title=" ">
<polygon fill="white" stroke="black" points="1368.14,-56.5 1368.14,-75.5 1463.14,-75.5 1463.14,-56.5 1368.14,-56.5"/>
<text text-anchor="middle" x="1415.64" y="-63.5" font-family="Helvetica,sans-Serif" font-size="10.00">ccf/ds/siphash.h</text>
</a>
</g>
</g>
<!-- Node40&#45;&gt;Node41 -->
<g id="edge65" class="edge">
<title>Node40&#45;&gt;Node41</title>
<path fill="none" stroke="midnightblue" d="M1418.98,-112.08C1418.46,-105.01 1417.71,-94.86 1417.05,-85.99"/>
<polygon fill="midnightblue" stroke="midnightblue" points="1420.52,-85.47 1416.29,-75.75 1413.54,-85.98 1420.52,-85.47"/>
</g>
<!-- Node43 -->
<g id="node43" class="node">
<title>Node43</title>
<g id="a_node43"><a xlink:title=" ">
<polygon fill="white" stroke="#bfbfbf" points="1481.14,-56.5 1481.14,-75.5 1630.14,-75.5 1630.14,-56.5 1481.14,-56.5"/>
<text text-anchor="middle" x="1555.64" y="-63.5" font-family="Helvetica,sans-Serif" font-size="10.00">small_vector/SmallVector.h</text>
</a>
</g>
</g>
<!-- Node40&#45;&gt;Node43 -->
<g id="edge70" class="edge">
<title>Node40&#45;&gt;Node43</title>
<path fill="none" stroke="midnightblue" d="M1441.19,-112.44C1463.67,-103.52 1499.13,-89.44 1524.62,-79.32"/>
<polygon fill="midnightblue" stroke="midnightblue" points="1526.19,-82.46 1534.19,-75.52 1523.61,-75.95 1526.19,-82.46"/>
</g>
<!-- Node41&#45;&gt;Node24 -->
<g id="edge68" class="edge">
<title>Node41&#45;&gt;Node24</title>
<path fill="none" stroke="midnightblue" d="M1367.95,-56.44C1306.72,-45.46 1202,-26.67 1148.4,-17.06"/>
<polygon fill="midnightblue" stroke="midnightblue" points="1148.86,-13.58 1138.4,-15.26 1147.62,-20.47 1148.86,-13.58"/>
</g>
<!-- Node41&#45;&gt;Node34 -->
<g id="edge67" class="edge">
<title>Node41&#45;&gt;Node34</title>
<path fill="none" stroke="midnightblue" d="M1400.86,-56.32C1386.37,-47.82 1364.07,-34.73 1347.15,-24.8"/>
<polygon fill="midnightblue" stroke="midnightblue" points="1348.78,-21.7 1338.39,-19.65 1345.24,-27.74 1348.78,-21.7"/>
</g>
<!-- Node42 -->
<g id="node42" class="node">
<title>Node42</title>
<g id="a_node42"><a xlink:title=" ">
<polygon fill="white" stroke="#bfbfbf" points="1389.14,-0.5 1389.14,-19.5 1442.14,-19.5 1442.14,-0.5 1389.14,-0.5"/>
<text text-anchor="middle" x="1415.64" y="-7.5" font-family="Helvetica,sans-Serif" font-size="10.00">cstddef</text>
</a>
</g>
</g>
<!-- Node41&#45;&gt;Node42 -->
<g id="edge66" class="edge">
<title>Node41&#45;&gt;Node42</title>
<path fill="none" stroke="midnightblue" d="M1415.64,-56.08C1415.64,-49.01 1415.64,-38.86 1415.64,-29.99"/>
<polygon fill="midnightblue" stroke="midnightblue" points="1419.14,-29.75 1415.64,-19.75 1412.14,-29.75 1419.14,-29.75"/>
</g>
</g>
</svg>
        <g id="navigator" transform="translate(0 0)" fill="#404254">
                <rect fill="#f2f5e9" fill-opacity="0.5" stroke="#606060" stroke-width=".5" x="0" y="0" width="60" height="60"/>
                <use id="zoomplus" xlink:href="#zoomPlus" x="17" y="9" onmousedown="handleZoom(evt,'in')"/>
                <use id="zoomminus" xlink:href="#zoomMin" x="42" y="9" onmousedown="handleZoom(evt,'out')"/>
                <use id="reset" xlink:href="#resetDef" x="30" y="36" onmousedown="handleReset()"/>
                <g id="arrowUp" xlink:href="#dirArrow" transform="translate(30 24)" onmousedown="handlePan(0,-1)">
                  <use xlink:href="#rim" fill="#404040">
                        <set attributeName="fill" to="#808080" begin="arrowUp.mouseover" end="arrowUp.mouseout"/>
                  </use>
                  <path fill="none" stroke="white" stroke-width="1.5" d="M0,-3.0v7 M-2.5,-0.5L0,-3.0L2.5,-0.5"/>
                </g>
                <g id="arrowRight" xlink:href="#dirArrow" transform="rotate(90) translate(36 -43)" onmousedown="handlePan(1,0)">
                  <use xlink:href="#rim" fill="#404040">
                        <set attributeName="fill" to="#808080" begin="arrowRight.mouseover" end="arrowRight.mouseout"/>
                  </use>
                  <path fill="none" stroke="white" stroke-width="1.5" d="M0,-3.0v7 M-2.5,-0.5L0,-3.0L2.5,-0.5"/>
                </g>
                <g id="arrowDown" xlink:href="#dirArrow" transform="rotate(180) translate(-30 -48)" onmousedown="handlePan(0,1)">
                  <use xlink:href="#rim" fill="#404040">
                        <set attributeName="fill" to="#808080" begin="arrowDown.mouseover" end="arrowDown.mouseout"/>
                  </use>
                  <path fill="none" stroke="white" stroke-width="1.5" d="M0,-3.0v7 M-2.5,-0.5L0,-3.0L2.5,-0.5"/>
                </g>
                <g id="arrowLeft" xlink:href="#dirArrow" transform="rotate(270) translate(-36 17)" onmousedown="handlePan(-1,0)">
                  <use xlink:href="#rim" fill="#404040">
                        <set attributeName="fill" to="#808080" begin="arrowLeft.mouseover" end="arrowLeft.mouseout"/>
                  </use>
                  <path fill="none" stroke="white" stroke-width="1.5" d="M0,-3.0v7 M-2.5,-0.5L0,-3.0L2.5,-0.5"/>
                </g>
        </g>
        <svg viewBox="0 0 15 15" width="100%" height="30px" preserveAspectRatio="xMaxYMin meet">
         <g id="arrow_out" transform="scale(0.3 0.3)">
          <a xlink:href="cert__auth_8h__incl_org.svg" target="_base">
           <rect id="button" ry="5" rx="5" y="6" x="6" height="38" width="38"
                fill="#f2f5e9" fill-opacity="0.5" stroke="#606060" stroke-width="1.0"/>
           <path id="arrow"
             d="M 11.500037,31.436501 C 11.940474,20.09759 22.043105,11.32322 32.158766,21.979434 L 37.068811,17.246167 C 37.068811,17.246167 37.088388,32 37.088388,32 L 22.160133,31.978069 C 22.160133,31.978069 26.997745,27.140456 26.997745,27.140456 C 18.528582,18.264221 13.291696,25.230495 11.500037,31.436501 z"
             style="fill:#404040;"/>
          </a>
         </g>
        </svg>
</svg>
