<?xml version="1.0" encoding="UTF-8" standalone="no"?>
<!DOCTYPE svg PUBLIC "-//W3C//DTD SVG 1.1//EN"
 "http://www.w3.org/Graphics/SVG/1.1/DTD/svg11.dtd">
<!-- Generated by graphviz version 2.43.0 (0)
 -->
<!-- Title: http::HttpRpcContext Pages: 1 -->
<!--zoomable 166 -->
<svg id="main" version="1.1" xmlns="http://www.w3.org/2000/svg" xmlns:xlink="http://www.w3.org/1999/xlink" xml:space="preserve" onload="init(evt)">
<style type="text/css"><![CDATA[
.edge:hover path { stroke: red; }
.edge:hover polygon { stroke: red; fill: red; }
]]></style>
<script type="text/javascript"><![CDATA[
var edges = document.getElementsByTagName('g');
if (edges && edges.length) {
  for (var i=0;i<edges.length;i++) {
    if (edges[i].id.substr(0,4)=='edge') {
      edges[i].setAttribute('class','edge');
    }
  }
}
]]></script>
        <defs>
                <circle id="rim" cx="0" cy="0" r="7"/>
                <circle id="rim2" cx="0" cy="0" r="3.5"/>
                <g id="zoomPlus">
                        <use xlink:href="#rim" fill="#404040">
                                <set attributeName="fill" to="#808080" begin="zoomplus.mouseover" end="zoomplus.mouseout"/>
                        </use>
                        <path d="M-4,0h8M0,-4v8" fill="none" stroke="white" stroke-width="1.5" pointer-events="none"/>
                </g>
                <g id="zoomMin">
                        <use xlink:href="#rim" fill="#404040">
                                <set attributeName="fill" to="#808080" begin="zoomminus.mouseover" end="zoomminus.mouseout"/>
                        </use>
                        <path d="M-4,0h8" fill="none" stroke="white" stroke-width="1.5" pointer-events="none"/>
                </g>
                <g id="dirArrow">
                        <path fill="none" stroke="white" stroke-width="1.5" d="M0,-3.0v7 M-2.5,-0.5L0,-3.0L2.5,-0.5"/>
                </g>
               <g id="resetDef">
                       <use xlink:href="#rim2" fill="#404040">
                               <set attributeName="fill" to="#808080" begin="reset.mouseover" end="reset.mouseout"/>
                       </use>
               </g>
        </defs>

<script type="text/javascript">
var viewWidth = 984;
var viewHeight = 166;
var sectionId = 'dynsection-0';
</script>
<script xlink:href="svgpan.js"/>
<svg id="graph" class="graph">
<g id="viewport">
<title>http::HttpRpcContext</title>
<polygon fill="white" stroke="transparent" points="-4,4 -4,-161.5 980,-161.5 980,4 -4,4"/>
<!-- Node1 -->
<g id="node1" class="node">
<title>Node1</title>
<g id="a_node1"><a xlink:title=" ">
<polygon fill="#bfbfbf" stroke="black" points="857,-72 857,-91 976,-91 976,-72 857,-72"/>
<text text-anchor="middle" x="916.5" y="-79" font-family="Helvetica,sans-Serif" font-size="10.00">http::HttpRpcContext</text>
</a>
</g>
</g>
<!-- Node2 -->
<g id="node2" class="node">
<title>Node2</title>
<g id="a_node2"><a xlink:href="classccf_1_1RpcContextImpl.html" target="_top" xlink:title=" ">
<polygon fill="white" stroke="black" points="706,-72 706,-91 820,-91 820,-72 706,-72"/>
<text text-anchor="middle" x="763" y="-79" font-family="Helvetica,sans-Serif" font-size="10.00">ccf::RpcContextImpl</text>
</a>
</g>
</g>
<!-- Node2&#45;&gt;Node1 -->
<g id="edge1" class="edge">
<title>Node2&#45;&gt;Node1</title>
<path fill="none" stroke="midnightblue" d="M830.55,-81.5C839.28,-81.5 848.17,-81.5 856.76,-81.5"/>
<polygon fill="midnightblue" stroke="midnightblue" points="830.41,-78 820.41,-81.5 830.41,-85 830.41,-78"/>
</g>
<!-- Node3 -->
<g id="node3" class="node">
<title>Node3</title>
<g id="a_node3"><a xlink:href="classccf_1_1RpcContext.html" target="_top" xlink:title="Describes the currently executing RPC.">
<polygon fill="white" stroke="black" points="438.5,-138 438.5,-157 530.5,-157 530.5,-138 438.5,-138"/>
<text text-anchor="middle" x="484.5" y="-145" font-family="Helvetica,sans-Serif" font-size="10.00">ccf::RpcContext</text>
</a>
</g>
</g>
<!-- Node3&#45;&gt;Node2 -->
<g id="edge2" class="edge">
<title>Node3&#45;&gt;Node2</title>
<path fill="none" stroke="midnightblue" d="M540.79,-140.34C581.88,-134.31 639.04,-124.43 688,-110.5 706.18,-105.33 726.1,-97.39 740.68,-91.12"/>
<polygon fill="midnightblue" stroke="midnightblue" points="540.11,-136.9 530.71,-141.79 541.11,-143.83 540.11,-136.9"/>
</g>
<!-- Node4 -->
<g id="node4" class="node">
<title>Node4</title>
<g id="a_node4"><a xlink:title=" ">
<polygon fill="white" stroke="black" points="427,-88.5 427,-118.5 542,-118.5 542,-88.5 427,-88.5"/>
<text text-anchor="start" x="435" y="-106.5" font-family="Helvetica,sans-Serif" font-size="10.00">std::shared_ptr&lt; ccf</text>
<text text-anchor="middle" x="484.5" y="-95.5" font-family="Helvetica,sans-Serif" font-size="10.00">::SessionContext &gt;</text>
</a>
</g>
</g>
<!-- Node4&#45;&gt;Node2 -->
<g id="edge3" class="edge">
<title>Node4&#45;&gt;Node2</title>
<path fill="none" stroke="#9a32cd" stroke-dasharray="5,2" d="M552.21,-98.19C599.22,-94.45 661.47,-89.5 705.93,-85.96"/>
<polygon fill="#9a32cd" stroke="#9a32cd" points="551.81,-94.71 542.12,-98.99 552.37,-101.69 551.81,-94.71"/>
<text text-anchor="middle" x="631" y="-98.5" font-family="Helvetica,sans-Serif" font-size="10.00"> session</text>
</g>
<!-- Node5 -->
<g id="node5" class="node">
<title>Node5</title>
<g id="a_node5"><a xlink:href="structccf_1_1SessionContext.html" target="_top" xlink:title=" ">
<polygon fill="white" stroke="black" points="216,-94 216,-113 328,-113 328,-94 216,-94"/>
<text text-anchor="middle" x="272" y="-101" font-family="Helvetica,sans-Serif" font-size="10.00">ccf::SessionContext</text>
</a>
</g>
</g>
<!-- Node5&#45;&gt;Node4 -->
<g id="edge4" class="edge">
<title>Node5&#45;&gt;Node4</title>
<path fill="none" stroke="#9a32cd" stroke-dasharray="5,2" d="M338.27,-103.5C366.66,-103.5 399.62,-103.5 426.96,-103.5"/>
<polygon fill="#9a32cd" stroke="#9a32cd" points="338.03,-100 328.03,-103.5 338.03,-107 338.03,-100"/>
<text text-anchor="middle" x="370.5" y="-106.5" font-family="Helvetica,sans-Serif" font-size="10.00"> ptr</text>
</g>
<!-- Node6 -->
<g id="node6" class="node">
<title>Node6</title>
<g id="a_node6"><a xlink:title=" ">
<polygon fill="white" stroke="black" points="0,-94 0,-113 125,-113 125,-94 0,-94"/>
<text text-anchor="middle" x="62.5" y="-101" font-family="Helvetica,sans-Serif" font-size="10.00">std::vector&lt; uint8_t &gt;</text>
</a>
</g>
</g>
<!-- Node6&#45;&gt;Node5 -->
<g id="edge5" class="edge">
<title>Node6&#45;&gt;Node5</title>
<path fill="none" stroke="#9a32cd" stroke-dasharray="5,2" d="M135.51,-103.5C161.87,-103.5 191.25,-103.5 215.9,-103.5"/>
<polygon fill="#9a32cd" stroke="#9a32cd" points="135.2,-100 125.2,-103.5 135.2,-107 135.2,-100"/>
<text text-anchor="middle" x="170.5" y="-106.5" font-family="Helvetica,sans-Serif" font-size="10.00"> caller_cert</text>
</g>
<!-- Node7 -->
<g id="node7" class="node">
<title>Node7</title>
<g id="a_node7"><a xlink:href="classccf_1_1ClaimsDigest.html" target="_top" xlink:title=" ">
<polygon fill="white" stroke="black" points="434,-50 434,-69 535,-69 535,-50 434,-50"/>
<text text-anchor="middle" x="484.5" y="-57" font-family="Helvetica,sans-Serif" font-size="10.00">ccf::ClaimsDigest</text>
</a>
</g>
</g>
<!-- Node7&#45;&gt;Node2 -->
<g id="edge6" class="edge">
<title>Node7&#45;&gt;Node2</title>
<path fill="none" stroke="#9a32cd" stroke-dasharray="5,2" d="M545.31,-61.86C585.67,-63.75 640.11,-66.85 688,-71.5 693.81,-72.06 699.86,-72.74 705.89,-73.47"/>
<polygon fill="#9a32cd" stroke="#9a32cd" points="545.25,-58.36 535.1,-61.4 544.93,-65.35 545.25,-58.36"/>
<text text-anchor="middle" x="631" y="-74.5" font-family="Helvetica,sans-Serif" font-size="10.00"> claims</text>
</g>
<!-- Node8 -->
<g id="node8" class="node">
<title>Node8</title>
<g id="a_node8"><a xlink:title=" ">
<polygon fill="white" stroke="black" points="413,-0.5 413,-30.5 556,-30.5 556,-0.5 413,-0.5"/>
<text text-anchor="start" x="421" y="-18.5" font-family="Helvetica,sans-Serif" font-size="10.00">std::map&lt; std::string,</text>
<text text-anchor="middle" x="484.5" y="-7.5" font-family="Helvetica,sans-Serif" font-size="10.00"> std::string, std::less&lt;&gt; &gt;</text>
</a>
</g>
</g>
<!-- Node8&#45;&gt;Node2 -->
<g id="edge7" class="edge">
<title>Node8&#45;&gt;Node2</title>
<path fill="none" stroke="#9a32cd" stroke-dasharray="5,2" d="M566.85,-16.44C604.51,-18.85 649.37,-24.6 688,-37.5 711.53,-45.36 735.66,-61.53 749.72,-71.92"/>
<polygon fill="#9a32cd" stroke="#9a32cd" points="566.61,-12.92 556.43,-15.84 566.21,-19.9 566.61,-12.92"/>
<text text-anchor="middle" x="631" y="-51.5" font-family="Helvetica,sans-Serif" font-size="10.00"> decoded_path_params</text>
<text text-anchor="middle" x="631" y="-40.5" font-family="Helvetica,sans-Serif" font-size="10.00">path_params</text>
</g>
<!-- Node9 -->
<g id="node9" class="node">
<title>Node9</title>
<g id="a_node9"><a xlink:title=" ">
<polygon fill="white" stroke="black" points="239.5,-6 239.5,-25 304.5,-25 304.5,-6 239.5,-6"/>
<text text-anchor="middle" x="272" y="-13" font-family="Helvetica,sans-Serif" font-size="10.00">std::string</text>
</a>
</g>
</g>
<!-- Node9&#45;&gt;Node8 -->
<g id="edge8" class="edge">
<title>Node9&#45;&gt;Node8</title>
<path fill="none" stroke="#9a32cd" stroke-dasharray="5,2" d="M314.75,-15.5C342.76,-15.5 380.35,-15.5 412.94,-15.5"/>
<polygon fill="#9a32cd" stroke="#9a32cd" points="314.51,-12 304.51,-15.5 314.51,-19 314.51,-12"/>
<text text-anchor="middle" x="370.5" y="-29.5" font-family="Helvetica,sans-Serif" font-size="10.00"> elements</text>
<text text-anchor="middle" x="370.5" y="-18.5" font-family="Helvetica,sans-Serif" font-size="10.00">keys</text>
</g>
<!-- Node10 -->
<g id="node10" class="node">
<title>Node10</title>
<g id="a_node10"><a xlink:title=" ">
<polygon fill="white" stroke="black" points="10.5,-0.5 10.5,-30.5 114.5,-30.5 114.5,-0.5 10.5,-0.5"/>
<text text-anchor="start" x="18.5" y="-18.5" font-family="Helvetica,sans-Serif" font-size="10.00">std::basic_string&lt;</text>
<text text-anchor="middle" x="62.5" y="-7.5" font-family="Helvetica,sans-Serif" font-size="10.00"> Char &gt;</text>
</a>
</g>
</g>
<!-- Node10&#45;&gt;Node9 -->
<g id="edge9" class="edge">
<title>Node10&#45;&gt;Node9</title>
<path fill="none" stroke="midnightblue" d="M124.86,-15.5C162.41,-15.5 208.91,-15.5 239.24,-15.5"/>
<polygon fill="midnightblue" stroke="midnightblue" points="124.53,-12 114.53,-15.5 124.53,-19 124.53,-12"/>
</g>
</g>
</svg>
        <g id="navigator" transform="translate(0 0)" fill="#404254">
                <rect fill="#f2f5e9" fill-opacity="0.5" stroke="#606060" stroke-width=".5" x="0" y="0" width="60" height="60"/>
                <use id="zoomplus" xlink:href="#zoomPlus" x="17" y="9" onmousedown="handleZoom(evt,'in')"/>
                <use id="zoomminus" xlink:href="#zoomMin" x="42" y="9" onmousedown="handleZoom(evt,'out')"/>
                <use id="reset" xlink:href="#resetDef" x="30" y="36" onmousedown="handleReset()"/>
                <g id="arrowUp" xlink:href="#dirArrow" transform="translate(30 24)" onmousedown="handlePan(0,-1)">
                  <use xlink:href="#rim" fill="#404040">
                        <set attributeName="fill" to="#808080" begin="arrowUp.mouseover" end="arrowUp.mouseout"/>
                  </use>
                  <path fill="none" stroke="white" stroke-width="1.5" d="M0,-3.0v7 M-2.5,-0.5L0,-3.0L2.5,-0.5"/>
                </g>
                <g id="arrowRight" xlink:href="#dirArrow" transform="rotate(90) translate(36 -43)" onmousedown="handlePan(1,0)">
                  <use xlink:href="#rim" fill="#404040">
                        <set attributeName="fill" to="#808080" begin="arrowRight.mouseover" end="arrowRight.mouseout"/>
                  </use>
                  <path fill="none" stroke="white" stroke-width="1.5" d="M0,-3.0v7 M-2.5,-0.5L0,-3.0L2.5,-0.5"/>
                </g>
                <g id="arrowDown" xlink:href="#dirArrow" transform="rotate(180) translate(-30 -48)" onmousedown="handlePan(0,1)">
                  <use xlink:href="#rim" fill="#404040">
                        <set attributeName="fill" to="#808080" begin="arrowDown.mouseover" end="arrowDown.mouseout"/>
                  </use>
                  <path fill="none" stroke="white" stroke-width="1.5" d="M0,-3.0v7 M-2.5,-0.5L0,-3.0L2.5,-0.5"/>
                </g>
                <g id="arrowLeft" xlink:href="#dirArrow" transform="rotate(270) translate(-36 17)" onmousedown="handlePan(-1,0)">
                  <use xlink:href="#rim" fill="#404040">
                        <set attributeName="fill" to="#808080" begin="arrowLeft.mouseover" end="arrowLeft.mouseout"/>
                  </use>
                  <path fill="none" stroke="white" stroke-width="1.5" d="M0,-3.0v7 M-2.5,-0.5L0,-3.0L2.5,-0.5"/>
                </g>
        </g>
        <svg viewBox="0 0 15 15" width="100%" height="30px" preserveAspectRatio="xMaxYMin meet">
         <g id="arrow_out" transform="scale(0.3 0.3)">
          <a xlink:href="classhttp_1_1HttpRpcContext__coll__graph_org.svg" target="_base">
           <rect id="button" ry="5" rx="5" y="6" x="6" height="38" width="38"
                fill="#f2f5e9" fill-opacity="0.5" stroke="#606060" stroke-width="1.0"/>
           <path id="arrow"
             d="M 11.500037,31.436501 C 11.940474,20.09759 22.043105,11.32322 32.158766,21.979434 L 37.068811,17.246167 C 37.068811,17.246167 37.088388,32 37.088388,32 L 22.160133,31.978069 C 22.160133,31.978069 26.997745,27.140456 26.997745,27.140456 C 18.528582,18.264221 13.291696,25.230495 11.500037,31.436501 z"
             style="fill:#404040;"/>
          </a>
         </g>
        </svg>
</svg>
