<?xml version="1.0" encoding="UTF-8" standalone="no"?>
<!DOCTYPE svg PUBLIC "-//W3C//DTD SVG 1.1//EN"
 "http://www.w3.org/Graphics/SVG/1.1/DTD/svg11.dtd">
<!-- Generated by graphviz version 2.43.0 (0)
 -->
<!-- Title: ccf::indexing::strategies::SeqnosByKey_Bucketed_Untyped Pages: 1 -->
<!--zoomable 328 -->
<svg id="main" version="1.1" xmlns="http://www.w3.org/2000/svg" xmlns:xlink="http://www.w3.org/1999/xlink" xml:space="preserve" onload="init(evt)">
<style type="text/css"><![CDATA[
.edge:hover path { stroke: red; }
.edge:hover polygon { stroke: red; fill: red; }
]]></style>
<script type="text/javascript"><![CDATA[
var edges = document.getElementsByTagName('g');
if (edges && edges.length) {
  for (var i=0;i<edges.length;i++) {
    if (edges[i].id.substr(0,4)=='edge') {
      edges[i].setAttribute('class','edge');
    }
  }
}
]]></script>
        <defs>
                <circle id="rim" cx="0" cy="0" r="7"/>
                <circle id="rim2" cx="0" cy="0" r="3.5"/>
                <g id="zoomPlus">
                        <use xlink:href="#rim" fill="#404040">
                                <set attributeName="fill" to="#808080" begin="zoomplus.mouseover" end="zoomplus.mouseout"/>
                        </use>
                        <path d="M-4,0h8M0,-4v8" fill="none" stroke="white" stroke-width="1.5" pointer-events="none"/>
                </g>
                <g id="zoomMin">
                        <use xlink:href="#rim" fill="#404040">
                                <set attributeName="fill" to="#808080" begin="zoomminus.mouseover" end="zoomminus.mouseout"/>
                        </use>
                        <path d="M-4,0h8" fill="none" stroke="white" stroke-width="1.5" pointer-events="none"/>
                </g>
                <g id="dirArrow">
                        <path fill="none" stroke="white" stroke-width="1.5" d="M0,-3.0v7 M-2.5,-0.5L0,-3.0L2.5,-0.5"/>
                </g>
               <g id="resetDef">
                       <use xlink:href="#rim2" fill="#404040">
                               <set attributeName="fill" to="#808080" begin="reset.mouseover" end="reset.mouseout"/>
                       </use>
               </g>
        </defs>

<script type="text/javascript">
var viewWidth = 1250;
var viewHeight = 328;
var sectionId = 'dynsection-0';
</script>
<script xlink:href="svgpan.js"/>
<svg id="graph" class="graph">
<g id="viewport">
<title>ccf::indexing::strategies::SeqnosByKey_Bucketed_Untyped</title>
<polygon fill="white" stroke="transparent" points="-4,4 -4,-324 1246,-324 1246,4 -4,4"/>
<!-- Node1 -->
<g id="node1" class="node">
<title>Node1</title>
<g id="a_node1"><a xlink:title=" ">
<polygon fill="#bfbfbf" stroke="black" points="1103,-166.5 1103,-207.5 1242,-207.5 1242,-166.5 1103,-166.5"/>
<text text-anchor="start" x="1111" y="-195.5" font-family="Helvetica,sans-Serif" font-size="10.00">ccf::indexing::strategies</text>
<text text-anchor="start" x="1111" y="-184.5" font-family="Helvetica,sans-Serif" font-size="10.00">::SeqnosByKey_Bucketed</text>
<text text-anchor="middle" x="1172.5" y="-173.5" font-family="Helvetica,sans-Serif" font-size="10.00">_Untyped</text>
</a>
</g>
</g>
<!-- Node2 -->
<g id="node2" class="node">
<title>Node2</title>
<g id="a_node2"><a xlink:href="classccf_1_1indexing_1_1strategies_1_1VisitEachEntryInMap.html" target="_top" xlink:title=" ">
<polygon fill="white" stroke="black" points="714,-235 714,-265 847,-265 847,-235 714,-235"/>
<text text-anchor="start" x="722" y="-253" font-family="Helvetica,sans-Serif" font-size="10.00">ccf::indexing::strategies</text>
<text text-anchor="middle" x="780.5" y="-242" font-family="Helvetica,sans-Serif" font-size="10.00">::VisitEachEntryInMap</text>
</a>
</g>
</g>
<!-- Node2&#45;&gt;Node1 -->
<g id="edge1" class="edge">
<title>Node2&#45;&gt;Node1</title>
<path fill="none" stroke="midnightblue" d="M857.47,-237.73C928.67,-226.23 1034.17,-209.18 1102.89,-198.08"/>
<polygon fill="midnightblue" stroke="midnightblue" points="856.53,-234.33 847.22,-239.38 857.65,-241.24 856.53,-234.33"/>
</g>
<!-- Node3 -->
<g id="node3" class="node">
<title>Node3</title>
<g id="a_node3"><a xlink:href="classccf_1_1indexing_1_1Strategy.html" target="_top" xlink:title=" ">
<polygon fill="white" stroke="black" points="448.5,-300.5 448.5,-319.5 573.5,-319.5 573.5,-300.5 448.5,-300.5"/>
<text text-anchor="middle" x="511" y="-307.5" font-family="Helvetica,sans-Serif" font-size="10.00">ccf::indexing::Strategy</text>
</a>
</g>
</g>
<!-- Node3&#45;&gt;Node2 -->
<g id="edge2" class="edge">
<title>Node3&#45;&gt;Node2</title>
<path fill="none" stroke="midnightblue" d="M583.8,-300.3C617.24,-295.12 657.42,-287.96 693,-279 708.21,-275.17 724.59,-269.97 738.96,-265.03"/>
<polygon fill="midnightblue" stroke="midnightblue" points="583.01,-296.88 573.65,-301.85 584.06,-303.8 583.01,-296.88"/>
</g>
<!-- Node4 -->
<g id="node4" class="node">
<title>Node4</title>
<g id="a_node4"><a xlink:title=" ">
<polygon fill="white" stroke="black" points="478.5,-196.5 478.5,-215.5 543.5,-215.5 543.5,-196.5 478.5,-196.5"/>
<text text-anchor="middle" x="511" y="-203.5" font-family="Helvetica,sans-Serif" font-size="10.00">std::string</text>
</a>
</g>
</g>
<!-- Node4&#45;&gt;Node2 -->
<g id="edge3" class="edge">
<title>Node4&#45;&gt;Node2</title>
<path fill="none" stroke="#9a32cd" stroke-dasharray="5,2" d="M554.19,-204.97C591.19,-204.92 646.23,-206.9 693,-217 711.38,-220.97 731.03,-228.2 746.95,-234.89"/>
<polygon fill="#9a32cd" stroke="#9a32cd" points="553.76,-201.48 543.78,-205.04 553.81,-208.48 553.76,-201.48"/>
<text text-anchor="middle" x="655" y="-220" font-family="Helvetica,sans-Serif" font-size="10.00"> map_name</text>
</g>
<!-- Node8 -->
<g id="node8" class="node">
<title>Node8</title>
<g id="a_node8"><a xlink:href="structccf_1_1indexing_1_1strategies_1_1SeqnosByKey__Bucketed__Untyped_1_1Impl.html" target="_top" xlink:title=" ">
<polygon fill="white" stroke="black" points="711,-127.5 711,-168.5 850,-168.5 850,-127.5 711,-127.5"/>
<text text-anchor="start" x="719" y="-156.5" font-family="Helvetica,sans-Serif" font-size="10.00">ccf::indexing::strategies</text>
<text text-anchor="start" x="719" y="-145.5" font-family="Helvetica,sans-Serif" font-size="10.00">::SeqnosByKey_Bucketed</text>
<text text-anchor="middle" x="780.5" y="-134.5" font-family="Helvetica,sans-Serif" font-size="10.00">_Untyped::Impl</text>
</a>
</g>
</g>
<!-- Node4&#45;&gt;Node8 -->
<g id="edge11" class="edge">
<title>Node4&#45;&gt;Node8</title>
<path fill="none" stroke="#9a32cd" stroke-dasharray="5,2" d="M553.62,-196.98C595.62,-187.87 661.2,-173.65 710.89,-162.88"/>
<polygon fill="#9a32cd" stroke="#9a32cd" points="552.77,-193.58 543.74,-199.12 554.25,-200.42 552.77,-193.58"/>
<text text-anchor="middle" x="655" y="-186" font-family="Helvetica,sans-Serif" font-size="10.00"> name</text>
</g>
<!-- Node5 -->
<g id="node5" class="node">
<title>Node5</title>
<g id="a_node5"><a xlink:title=" ">
<polygon fill="white" stroke="black" points="230,-191 230,-221 334,-221 334,-191 230,-191"/>
<text text-anchor="start" x="238" y="-209" font-family="Helvetica,sans-Serif" font-size="10.00">std::basic_string&lt;</text>
<text text-anchor="middle" x="282" y="-198" font-family="Helvetica,sans-Serif" font-size="10.00"> Char &gt;</text>
</a>
</g>
</g>
<!-- Node5&#45;&gt;Node4 -->
<g id="edge4" class="edge">
<title>Node5&#45;&gt;Node4</title>
<path fill="none" stroke="midnightblue" d="M344.35,-206C387.56,-206 443.64,-206 478.21,-206"/>
<polygon fill="midnightblue" stroke="midnightblue" points="344.23,-202.5 334.23,-206 344.23,-209.5 344.23,-202.5"/>
</g>
<!-- Node6 -->
<g id="node6" class="node">
<title>Node6</title>
<g id="a_node6"><a xlink:href="structccf_1_1TxID.html" target="_top" xlink:title=" ">
<polygon fill="white" stroke="black" points="481.5,-253.5 481.5,-272.5 540.5,-272.5 540.5,-253.5 481.5,-253.5"/>
<text text-anchor="middle" x="511" y="-260.5" font-family="Helvetica,sans-Serif" font-size="10.00">ccf::TxID</text>
</a>
</g>
</g>
<!-- Node6&#45;&gt;Node2 -->
<g id="edge5" class="edge">
<title>Node6&#45;&gt;Node2</title>
<path fill="none" stroke="#9a32cd" stroke-dasharray="5,2" d="M550.83,-264.27C587.52,-265.11 644.08,-265.51 693,-262 699.81,-261.51 706.89,-260.82 713.95,-260.02"/>
<polygon fill="#9a32cd" stroke="#9a32cd" points="550.66,-260.76 540.57,-264.01 550.48,-267.76 550.66,-260.76"/>
<text text-anchor="middle" x="655" y="-267" font-family="Helvetica,sans-Serif" font-size="10.00"> current_txid</text>
</g>
<!-- Node6&#45;&gt;Node8 -->
<g id="edge15" class="edge">
<title>Node6&#45;&gt;Node8</title>
<path fill="none" stroke="#9a32cd" stroke-dasharray="5,2" d="M550.77,-258.04C596.28,-251.79 668.63,-240.34 693,-228 721.29,-213.68 747.03,-187.37 762.94,-168.84"/>
<polygon fill="#9a32cd" stroke="#9a32cd" points="550.11,-254.6 540.66,-259.41 551.04,-261.54 550.11,-254.6"/>
<text text-anchor="middle" x="655" y="-250" font-family="Helvetica,sans-Serif" font-size="10.00"> current_txid</text>
</g>
<!-- Node7 -->
<g id="node7" class="node">
<title>Node7</title>
<g id="a_node7"><a xlink:title=" ">
<polygon fill="white" stroke="black" points="903,-131 903,-183 1042,-183 1042,-131 903,-131"/>
<text text-anchor="start" x="911" y="-171" font-family="Helvetica,sans-Serif" font-size="10.00">std::shared_ptr&lt; ccf</text>
<text text-anchor="start" x="911" y="-160" font-family="Helvetica,sans-Serif" font-size="10.00">::indexing::strategies</text>
<text text-anchor="start" x="911" y="-149" font-family="Helvetica,sans-Serif" font-size="10.00">::SeqnosByKey_Bucketed</text>
<text text-anchor="middle" x="972.5" y="-138" font-family="Helvetica,sans-Serif" font-size="10.00">_Untyped::Impl &gt;</text>
</a>
</g>
</g>
<!-- Node7&#45;&gt;Node1 -->
<g id="edge6" class="edge">
<title>Node7&#45;&gt;Node1</title>
<path fill="none" stroke="#9a32cd" stroke-dasharray="5,2" d="M1052.47,-168.97C1069.16,-171.49 1086.65,-174.14 1102.93,-176.61"/>
<polygon fill="#9a32cd" stroke="#9a32cd" points="1052.61,-165.45 1042.2,-167.41 1051.56,-172.37 1052.61,-165.45"/>
<text text-anchor="middle" x="1072.5" y="-177" font-family="Helvetica,sans-Serif" font-size="10.00"> impl</text>
</g>
<!-- Node8&#45;&gt;Node7 -->
<g id="edge7" class="edge">
<title>Node8&#45;&gt;Node7</title>
<path fill="none" stroke="#9a32cd" stroke-dasharray="5,2" d="M860.25,-151.73C874.33,-152.4 888.91,-153.09 902.69,-153.74"/>
<polygon fill="#9a32cd" stroke="#9a32cd" points="860.25,-148.23 850.09,-151.25 859.92,-155.22 860.25,-148.23"/>
<text text-anchor="middle" x="876.5" y="-156" font-family="Helvetica,sans-Serif" font-size="10.00"> ptr</text>
</g>
<!-- Node9 -->
<g id="node9" class="node">
<title>Node9</title>
<g id="a_node9"><a xlink:title=" ">
<polygon fill="white" stroke="black" points="439.5,-0.5 439.5,-41.5 582.5,-41.5 582.5,-0.5 439.5,-0.5"/>
<text text-anchor="start" x="447.5" y="-29.5" font-family="Helvetica,sans-Serif" font-size="10.00">std::unordered_map</text>
<text text-anchor="start" x="447.5" y="-18.5" font-family="Helvetica,sans-Serif" font-size="10.00">&lt; ccf::ByteVector, Current</text>
<text text-anchor="middle" x="511" y="-7.5" font-family="Helvetica,sans-Serif" font-size="10.00">Result &gt;</text>
</a>
</g>
</g>
<!-- Node9&#45;&gt;Node8 -->
<g id="edge8" class="edge">
<title>Node9&#45;&gt;Node8</title>
<path fill="none" stroke="#9a32cd" stroke-dasharray="5,2" d="M592.44,-37.43C624.87,-45.96 661.89,-58.19 693,-75 718.59,-88.83 743.5,-111.06 759.97,-127.37"/>
<polygon fill="#9a32cd" stroke="#9a32cd" points="593.09,-33.98 582.53,-34.9 591.36,-40.77 593.09,-33.98"/>
<text text-anchor="middle" x="655" y="-78" font-family="Helvetica,sans-Serif" font-size="10.00"> current_results</text>
</g>
<!-- Node10 -->
<g id="node10" class="node">
<title>Node10</title>
<g id="a_node10"><a xlink:href="classLRU.html" target="_top" xlink:title=" ">
<polygon fill="white" stroke="black" points="423,-148.5 423,-167.5 599,-167.5 599,-148.5 423,-148.5"/>
<text text-anchor="middle" x="511" y="-155.5" font-family="Helvetica,sans-Serif" font-size="10.00">LRU&lt; BucketKey, BucketValue &gt;</text>
</a>
</g>
</g>
<!-- Node10&#45;&gt;Node8 -->
<g id="edge9" class="edge">
<title>Node10&#45;&gt;Node8</title>
<path fill="none" stroke="#9a32cd" stroke-dasharray="5,2" d="M609.23,-149.39C611.85,-149.25 614.44,-149.12 617,-149 647.72,-147.59 681.74,-147.2 710.68,-147.22"/>
<polygon fill="#9a32cd" stroke="#9a32cd" points="608.83,-145.91 599.05,-150 609.25,-152.9 608.83,-145.91"/>
<text text-anchor="middle" x="655" y="-152" font-family="Helvetica,sans-Serif" font-size="10.00"> old_results</text>
</g>
<!-- Node11 -->
<g id="node11" class="node">
<title>Node11</title>
<g id="a_node11"><a xlink:title=" ">
<polygon fill="white" stroke="black" points="476.5,-60.5 476.5,-79.5 545.5,-79.5 545.5,-60.5 476.5,-60.5"/>
<text text-anchor="middle" x="511" y="-67.5" font-family="Helvetica,sans-Serif" font-size="10.00">std::mutex</text>
</a>
</g>
</g>
<!-- Node11&#45;&gt;Node8 -->
<g id="edge10" class="edge">
<title>Node11&#45;&gt;Node8</title>
<path fill="none" stroke="#9a32cd" stroke-dasharray="5,2" d="M555.57,-76.72C592.67,-83.08 647.09,-93.89 693,-109 708.18,-113.99 724.27,-120.8 738.41,-127.33"/>
<polygon fill="#9a32cd" stroke="#9a32cd" points="556.03,-73.25 545.59,-75.05 554.87,-80.16 556.03,-73.25"/>
<text text-anchor="middle" x="655" y="-112" font-family="Helvetica,sans-Serif" font-size="10.00"> results_access</text>
</g>
<!-- Node12 -->
<g id="node12" class="node">
<title>Node12</title>
<g id="a_node12"><a xlink:title=" ">
<polygon fill="white" stroke="black" points="424.5,-99 424.5,-129 597.5,-129 597.5,-99 424.5,-99"/>
<text text-anchor="start" x="432.5" y="-117" font-family="Helvetica,sans-Serif" font-size="10.00">std::shared_ptr&lt; ccf</text>
<text text-anchor="middle" x="511" y="-106" font-family="Helvetica,sans-Serif" font-size="10.00">::indexing::AbstractLFSAccess &gt;</text>
</a>
</g>
</g>
<!-- Node12&#45;&gt;Node8 -->
<g id="edge12" class="edge">
<title>Node12&#45;&gt;Node8</title>
<path fill="none" stroke="#9a32cd" stroke-dasharray="5,2" d="M607.8,-122.84C635.35,-125.72 665.41,-129.16 693,-133 698.74,-133.8 704.68,-134.69 710.63,-135.63"/>
<polygon fill="#9a32cd" stroke="#9a32cd" points="608.08,-119.35 597.77,-121.81 607.36,-126.32 608.08,-119.35"/>
<text text-anchor="middle" x="655" y="-136" font-family="Helvetica,sans-Serif" font-size="10.00"> lfs_access</text>
</g>
<!-- Node13 -->
<g id="node13" class="node">
<title>Node13</title>
<g id="a_node13"><a xlink:href="classccf_1_1indexing_1_1AbstractLFSAccess.html" target="_top" xlink:title=" ">
<polygon fill="white" stroke="black" points="194,-104.5 194,-123.5 370,-123.5 370,-104.5 194,-104.5"/>
<text text-anchor="middle" x="282" y="-111.5" font-family="Helvetica,sans-Serif" font-size="10.00">ccf::indexing::AbstractLFSAccess</text>
</a>
</g>
</g>
<!-- Node13&#45;&gt;Node12 -->
<g id="edge13" class="edge">
<title>Node13&#45;&gt;Node12</title>
<path fill="none" stroke="#9a32cd" stroke-dasharray="5,2" d="M380.19,-114C394.84,-114 409.86,-114 424.24,-114"/>
<polygon fill="#9a32cd" stroke="#9a32cd" points="380.11,-110.5 370.11,-114 380.11,-117.5 380.11,-110.5"/>
<text text-anchor="middle" x="396.5" y="-117" font-family="Helvetica,sans-Serif" font-size="10.00"> ptr</text>
</g>
<!-- Node14 -->
<g id="node14" class="node">
<title>Node14</title>
<g id="a_node14"><a xlink:href="classccf_1_1AbstractNodeSubSystem.html" target="_top" xlink:title=" ">
<polygon fill="white" stroke="black" points="0,-104.5 0,-123.5 157,-123.5 157,-104.5 0,-104.5"/>
<text text-anchor="middle" x="78.5" y="-111.5" font-family="Helvetica,sans-Serif" font-size="10.00">ccf::AbstractNodeSubSystem</text>
</a>
</g>
</g>
<!-- Node14&#45;&gt;Node13 -->
<g id="edge14" class="edge">
<title>Node14&#45;&gt;Node13</title>
<path fill="none" stroke="midnightblue" d="M167.31,-114C176.06,-114 184.95,-114 193.69,-114"/>
<polygon fill="midnightblue" stroke="midnightblue" points="167.12,-110.5 157.12,-114 167.12,-117.5 167.12,-110.5"/>
</g>
</g>
</svg>
        <g id="navigator" transform="translate(0 0)" fill="#404254">
                <rect fill="#f2f5e9" fill-opacity="0.5" stroke="#606060" stroke-width=".5" x="0" y="0" width="60" height="60"/>
                <use id="zoomplus" xlink:href="#zoomPlus" x="17" y="9" onmousedown="handleZoom(evt,'in')"/>
                <use id="zoomminus" xlink:href="#zoomMin" x="42" y="9" onmousedown="handleZoom(evt,'out')"/>
                <use id="reset" xlink:href="#resetDef" x="30" y="36" onmousedown="handleReset()"/>
                <g id="arrowUp" xlink:href="#dirArrow" transform="translate(30 24)" onmousedown="handlePan(0,-1)">
                  <use xlink:href="#rim" fill="#404040">
                        <set attributeName="fill" to="#808080" begin="arrowUp.mouseover" end="arrowUp.mouseout"/>
                  </use>
                  <path fill="none" stroke="white" stroke-width="1.5" d="M0,-3.0v7 M-2.5,-0.5L0,-3.0L2.5,-0.5"/>
                </g>
                <g id="arrowRight" xlink:href="#dirArrow" transform="rotate(90) translate(36 -43)" onmousedown="handlePan(1,0)">
                  <use xlink:href="#rim" fill="#404040">
                        <set attributeName="fill" to="#808080" begin="arrowRight.mouseover" end="arrowRight.mouseout"/>
                  </use>
                  <path fill="none" stroke="white" stroke-width="1.5" d="M0,-3.0v7 M-2.5,-0.5L0,-3.0L2.5,-0.5"/>
                </g>
                <g id="arrowDown" xlink:href="#dirArrow" transform="rotate(180) translate(-30 -48)" onmousedown="handlePan(0,1)">
                  <use xlink:href="#rim" fill="#404040">
                        <set attributeName="fill" to="#808080" begin="arrowDown.mouseover" end="arrowDown.mouseout"/>
                  </use>
                  <path fill="none" stroke="white" stroke-width="1.5" d="M0,-3.0v7 M-2.5,-0.5L0,-3.0L2.5,-0.5"/>
                </g>
                <g id="arrowLeft" xlink:href="#dirArrow" transform="rotate(270) translate(-36 17)" onmousedown="handlePan(-1,0)">
                  <use xlink:href="#rim" fill="#404040">
                        <set attributeName="fill" to="#808080" begin="arrowLeft.mouseover" end="arrowLeft.mouseout"/>
                  </use>
                  <path fill="none" stroke="white" stroke-width="1.5" d="M0,-3.0v7 M-2.5,-0.5L0,-3.0L2.5,-0.5"/>
                </g>
        </g>
        <svg viewBox="0 0 15 15" width="100%" height="30px" preserveAspectRatio="xMaxYMin meet">
         <g id="arrow_out" transform="scale(0.3 0.3)">
          <a xlink:href="classccf_1_1indexing_1_1strategies_1_1SeqnosByKey__Bucketed__Untyped__coll__graph_org.svg" target="_base">
           <rect id="button" ry="5" rx="5" y="6" x="6" height="38" width="38"
                fill="#f2f5e9" fill-opacity="0.5" stroke="#606060" stroke-width="1.0"/>
           <path id="arrow"
             d="M 11.500037,31.436501 C 11.940474,20.09759 22.043105,11.32322 32.158766,21.979434 L 37.068811,17.246167 C 37.068811,17.246167 37.088388,32 37.088388,32 L 22.160133,31.978069 C 22.160133,31.978069 26.997745,27.140456 26.997745,27.140456 C 18.528582,18.264221 13.291696,25.230495 11.500037,31.436501 z"
             style="fill:#404040;"/>
          </a>
         </g>
        </svg>
</svg>
