<?xml version="1.0" encoding="UTF-8" standalone="no"?>
<!DOCTYPE svg PUBLIC "-//W3C//DTD SVG 1.1//EN"
 "http://www.w3.org/Graphics/SVG/1.1/DTD/svg11.dtd">
<!-- Generated by graphviz version 2.43.0 (0)
 -->
<!-- Title: src/service/tables/config.h Pages: 1 -->
<!--zoomable 654 -->
<svg id="main" version="1.1" xmlns="http://www.w3.org/2000/svg" xmlns:xlink="http://www.w3.org/1999/xlink" xml:space="preserve" onload="init(evt)">
<style type="text/css"><![CDATA[
.edge:hover path { stroke: red; }
.edge:hover polygon { stroke: red; fill: red; }
]]></style>
<script type="text/javascript"><![CDATA[
var edges = document.getElementsByTagName('g');
if (edges && edges.length) {
  for (var i=0;i<edges.length;i++) {
    if (edges[i].id.substr(0,4)=='edge') {
      edges[i].setAttribute('class','edge');
    }
  }
}
]]></script>
        <defs>
                <circle id="rim" cx="0" cy="0" r="7"/>
                <circle id="rim2" cx="0" cy="0" r="3.5"/>
                <g id="zoomPlus">
                        <use xlink:href="#rim" fill="#404040">
                                <set attributeName="fill" to="#808080" begin="zoomplus.mouseover" end="zoomplus.mouseout"/>
                        </use>
                        <path d="M-4,0h8M0,-4v8" fill="none" stroke="white" stroke-width="1.5" pointer-events="none"/>
                </g>
                <g id="zoomMin">
                        <use xlink:href="#rim" fill="#404040">
                                <set attributeName="fill" to="#808080" begin="zoomminus.mouseover" end="zoomminus.mouseout"/>
                        </use>
                        <path d="M-4,0h8" fill="none" stroke="white" stroke-width="1.5" pointer-events="none"/>
                </g>
                <g id="dirArrow">
                        <path fill="none" stroke="white" stroke-width="1.5" d="M0,-3.0v7 M-2.5,-0.5L0,-3.0L2.5,-0.5"/>
                </g>
               <g id="resetDef">
                       <use xlink:href="#rim2" fill="#404040">
                               <set attributeName="fill" to="#808080" begin="reset.mouseover" end="reset.mouseout"/>
                       </use>
               </g>
        </defs>

<script type="text/javascript">
var viewWidth = 2082;
var viewHeight = 654;
var sectionId = 'dynsection-1';
</script>
<script xlink:href="svgpan.js"/>
<svg id="graph" class="graph">
<g id="viewport">
<title>src/service/tables/config.h</title>
<polygon fill="white" stroke="transparent" points="-4,4 -4,-650 2078.14,-650 2078.14,4 -4,4"/>
<!-- Node1 -->
<g id="node1" class="node">
<title>Node1</title>
<g id="a_node1"><a xlink:title=" ">
<polygon fill="#bfbfbf" stroke="black" points="651.35,-615.5 651.35,-645.5 753.35,-645.5 753.35,-615.5 651.35,-615.5"/>
<text text-anchor="start" x="659.35" y="-633.5" font-family="Helvetica,sans-Serif" font-size="10.00">src/service/tables</text>
<text text-anchor="middle" x="702.35" y="-622.5" font-family="Helvetica,sans-Serif" font-size="10.00">/config.h</text>
</a>
</g>
</g>
<!-- Node2 -->
<g id="node2" class="node">
<title>Node2</title>
<g id="a_node2"><a xlink:href="common_2configuration_8h.html" target="_top" xlink:title=" ">
<polygon fill="white" stroke="black" points="441.35,-559.5 441.35,-578.5 593.35,-578.5 593.35,-559.5 441.35,-559.5"/>
<text text-anchor="middle" x="517.35" y="-566.5" font-family="Helvetica,sans-Serif" font-size="10.00">src/common/configuration.h</text>
</a>
</g>
</g>
<!-- Node1&#45;&gt;Node2 -->
<g id="edge1" class="edge">
<title>Node1&#45;&gt;Node2</title>
<path fill="none" stroke="midnightblue" d="M648.61,-612.22C614.27,-601.17 571.23,-587.33 543.99,-578.57"/>
<polygon fill="midnightblue" stroke="midnightblue" points="647.91,-615.67 658.5,-615.4 650.06,-609.01 647.91,-615.67"/>
</g>
<!-- Node5 -->
<g id="node5" class="node">
<title>Node5</title>
<g id="a_node5"><a xlink:href="node__call__types_8h.html" target="_top" xlink:title=" ">
<polygon fill="white" stroke="black" points="454.85,-492.5 454.85,-522.5 579.85,-522.5 579.85,-492.5 454.85,-492.5"/>
<text text-anchor="start" x="462.85" y="-510.5" font-family="Helvetica,sans-Serif" font-size="10.00">src/node/rpc/node_call</text>
<text text-anchor="middle" x="517.35" y="-499.5" font-family="Helvetica,sans-Serif" font-size="10.00">_types.h</text>
</a>
</g>
</g>
<!-- Node1&#45;&gt;Node5 -->
<g id="edge27" class="edge">
<title>Node1&#45;&gt;Node5</title>
<path fill="none" stroke="midnightblue" d="M674.83,-609.23C654.97,-594.81 627.34,-575.2 602.35,-559 582.47,-546.12 559.32,-532.45 542.21,-522.59"/>
<polygon fill="midnightblue" stroke="midnightblue" points="672.97,-612.2 683.11,-615.26 677.09,-606.55 672.97,-612.2"/>
</g>
<!-- Node18 -->
<g id="node18" class="node">
<title>Node18</title>
<g id="a_node18"><a xlink:href="src_2node_2hooks_8h.html" target="_top" xlink:title=" ">
<polygon fill="white" stroke="black" points="896.85,-559.5 896.85,-578.5 995.85,-578.5 995.85,-559.5 896.85,-559.5"/>
<text text-anchor="middle" x="946.35" y="-566.5" font-family="Helvetica,sans-Serif" font-size="10.00">src/node/hooks.h</text>
</a>
</g>
</g>
<!-- Node1&#45;&gt;Node18 -->
<g id="edge25" class="edge">
<title>Node1&#45;&gt;Node18</title>
<path fill="none" stroke="midnightblue" d="M763.5,-614.59C810.2,-603.2 872.88,-587.91 911.4,-578.52"/>
<polygon fill="midnightblue" stroke="midnightblue" points="762.38,-611.26 753.5,-617.03 764.04,-618.06 762.38,-611.26"/>
</g>
<!-- Node19 -->
<g id="node19" class="node">
<title>Node19</title>
<g id="a_node19"><a xlink:href="network__tables_8h.html" target="_top" xlink:title=" ">
<polygon fill="white" stroke="black" points="704.35,-425.5 704.35,-455.5 816.35,-455.5 816.35,-425.5 704.35,-425.5"/>
<text text-anchor="start" x="712.35" y="-443.5" font-family="Helvetica,sans-Serif" font-size="10.00">src/service/network</text>
<text text-anchor="middle" x="760.35" y="-432.5" font-family="Helvetica,sans-Serif" font-size="10.00">_tables.h</text>
</a>
</g>
</g>
<!-- Node1&#45;&gt;Node19 -->
<g id="edge28" class="edge">
<title>Node1&#45;&gt;Node19</title>
<path fill="none" stroke="midnightblue" d="M709.68,-605.72C721.92,-566.04 746.15,-487.51 756.01,-455.54"/>
<polygon fill="midnightblue" stroke="midnightblue" points="706.31,-604.78 706.71,-615.37 713,-606.85 706.31,-604.78"/>
</g>
<!-- Node3 -->
<g id="node3" class="node">
<title>Node3</title>
<g id="a_node3"><a xlink:href="host_2configuration_8h.html" target="_top" xlink:title=" ">
<polygon fill="white" stroke="black" points="290.85,-498 290.85,-517 421.85,-517 421.85,-498 290.85,-498"/>
<text text-anchor="middle" x="356.35" y="-505" font-family="Helvetica,sans-Serif" font-size="10.00">src/host/configuration.h</text>
</a>
</g>
</g>
<!-- Node2&#45;&gt;Node3 -->
<g id="edge2" class="edge">
<title>Node2&#45;&gt;Node3</title>
<path fill="none" stroke="midnightblue" d="M484.69,-555.93C453.4,-544.37 406.97,-527.21 379.37,-517.01"/>
<polygon fill="midnightblue" stroke="midnightblue" points="483.69,-559.29 494.28,-559.48 486.11,-552.73 483.69,-559.29"/>
</g>
<!-- Node2&#45;&gt;Node5 -->
<g id="edge4" class="edge">
<title>Node2&#45;&gt;Node5</title>
<path fill="none" stroke="midnightblue" d="M517.35,-549.23C517.35,-540.59 517.35,-530.5 517.35,-522.52"/>
<polygon fill="midnightblue" stroke="midnightblue" points="513.85,-549.48 517.35,-559.48 520.85,-549.48 513.85,-549.48"/>
</g>
<!-- Node4 -->
<g id="node4" class="node">
<title>Node4</title>
<g id="a_node4"><a xlink:href="host_2main_8cpp.html" target="_top" xlink:title=" ">
<polygon fill="white" stroke="black" points="131.85,-431 131.85,-450 234.85,-450 234.85,-431 131.85,-431"/>
<text text-anchor="middle" x="183.35" y="-438" font-family="Helvetica,sans-Serif" font-size="10.00">src/host/main.cpp</text>
</a>
</g>
</g>
<!-- Node3&#45;&gt;Node4 -->
<g id="edge3" class="edge">
<title>Node3&#45;&gt;Node4</title>
<path fill="none" stroke="midnightblue" d="M323.8,-494.27C289.46,-481.37 236.25,-461.38 206.14,-450.06"/>
<polygon fill="midnightblue" stroke="midnightblue" points="322.78,-497.63 333.37,-497.87 325.24,-491.07 322.78,-497.63"/>
</g>
<!-- Node6 -->
<g id="node6" class="node">
<title>Node6</title>
<g id="a_node6"><a xlink:href="call__types_8h.html" target="_top" xlink:title=" ">
<polygon fill="white" stroke="black" points="252.85,-431 252.85,-450 389.85,-450 389.85,-431 252.85,-431"/>
<text text-anchor="middle" x="321.35" y="-438" font-family="Helvetica,sans-Serif" font-size="10.00">src/node/rpc/call_types.h</text>
</a>
</g>
</g>
<!-- Node5&#45;&gt;Node6 -->
<g id="edge5" class="edge">
<title>Node5&#45;&gt;Node6</title>
<path fill="none" stroke="midnightblue" d="M464.9,-489.11C426.77,-476.46 376.81,-459.89 347,-450.01"/>
<polygon fill="midnightblue" stroke="midnightblue" points="464.22,-492.57 474.82,-492.4 466.43,-485.93 464.22,-492.57"/>
</g>
<!-- Node7 -->
<g id="node7" class="node">
<title>Node7</title>
<g id="a_node7"><a xlink:href="common__endpoint__registry_8cpp.html" target="_top" xlink:title=" ">
<polygon fill="white" stroke="black" points="15.35,-291.5 15.35,-321.5 143.35,-321.5 143.35,-291.5 15.35,-291.5"/>
<text text-anchor="start" x="23.35" y="-309.5" font-family="Helvetica,sans-Serif" font-size="10.00">src/endpoints/common</text>
<text text-anchor="middle" x="79.35" y="-298.5" font-family="Helvetica,sans-Serif" font-size="10.00">_endpoint_registry.cpp</text>
</a>
</g>
</g>
<!-- Node6&#45;&gt;Node7 -->
<g id="edge6" class="edge">
<title>Node6&#45;&gt;Node7</title>
<path fill="none" stroke="midnightblue" d="M294.26,-426.31C274.03,-416.34 245.77,-402.16 221.35,-389 179.31,-366.34 131.29,-338.32 103.25,-321.74"/>
<polygon fill="midnightblue" stroke="midnightblue" points="292.98,-429.58 303.5,-430.84 296.06,-423.29 292.98,-429.58"/>
</g>
<!-- Node8 -->
<g id="node8" class="node">
<title>Node8</title>
<g id="a_node8"><a xlink:href="wrap_8cpp.html" target="_top" xlink:title=" ">
<polygon fill="white" stroke="black" points="1667.85,-168.5 1667.85,-187.5 1756.85,-187.5 1756.85,-168.5 1667.85,-168.5"/>
<text text-anchor="middle" x="1712.35" y="-175.5" font-family="Helvetica,sans-Serif" font-size="10.00">src/js/wrap.cpp</text>
</a>
</g>
</g>
<!-- Node6&#45;&gt;Node8 -->
<g id="edge7" class="edge">
<title>Node6&#45;&gt;Node8</title>
<path fill="none" stroke="midnightblue" d="M399.96,-436.33C568.31,-429.17 952.91,-410.66 1008.35,-389 1028.97,-380.94 1027.47,-367.76 1047.35,-358 1107.33,-328.53 1137.79,-359.15 1193.35,-322 1238.27,-291.95 1218.41,-250.8 1265.35,-224 1333.17,-185.28 1568.39,-179.6 1667.63,-178.96"/>
<polygon fill="midnightblue" stroke="midnightblue" points="399.77,-432.84 389.92,-436.76 400.06,-439.83 399.77,-432.84"/>
</g>
<!-- Node9 -->
<g id="node9" class="node">
<title>Node9</title>
<g id="a_node9"><a xlink:href="resharing_8h.html" target="_top" xlink:title=" ">
<polygon fill="white" stroke="black" points="161.35,-297 161.35,-316 277.35,-316 277.35,-297 161.35,-297"/>
<text text-anchor="middle" x="219.35" y="-304" font-family="Helvetica,sans-Serif" font-size="10.00">src/node/resharing.h</text>
</a>
</g>
</g>
<!-- Node6&#45;&gt;Node9 -->
<g id="edge8" class="edge">
<title>Node6&#45;&gt;Node9</title>
<path fill="none" stroke="midnightblue" d="M288.05,-426.75C270.75,-418.49 250.7,-406.06 238.35,-389 222.07,-366.52 219.51,-332.22 219.25,-316.25"/>
<polygon fill="midnightblue" stroke="midnightblue" points="286.75,-430.01 297.31,-430.92 289.62,-423.62 286.75,-430.01"/>
</g>
<!-- Node14 -->
<g id="node14" class="node">
<title>Node14</title>
<g id="a_node14"><a xlink:href="member__frontend_8h.html" target="_top" xlink:title=" ">
<polygon fill="white" stroke="black" points="333.35,-224.5 333.35,-254.5 453.35,-254.5 453.35,-224.5 333.35,-224.5"/>
<text text-anchor="start" x="341.35" y="-242.5" font-family="Helvetica,sans-Serif" font-size="10.00">src/node/rpc/member</text>
<text text-anchor="middle" x="393.35" y="-231.5" font-family="Helvetica,sans-Serif" font-size="10.00">_frontend.h</text>
</a>
</g>
</g>
<!-- Node6&#45;&gt;Node14 -->
<g id="edge14" class="edge">
<title>Node6&#45;&gt;Node14</title>
<path fill="none" stroke="midnightblue" d="M272.51,-428.65C191.8,-409.58 36.49,-367.75 6.35,-322 -1.23,-310.49 -2.74,-301.35 6.35,-291 27.55,-266.85 229.94,-250.75 333.27,-244.04"/>
<polygon fill="midnightblue" stroke="midnightblue" points="271.9,-432.1 282.44,-430.97 273.5,-425.28 271.9,-432.1"/>
</g>
<!-- Node15 -->
<g id="node15" class="node">
<title>Node15</title>
<g id="a_node15"><a xlink:href="serialization_8h.html" target="_top" xlink:title=" ">
<polygon fill="white" stroke="black" points="247.35,-364 247.35,-383 395.35,-383 395.35,-364 247.35,-364"/>
<text text-anchor="middle" x="321.35" y="-371" font-family="Helvetica,sans-Serif" font-size="10.00">src/node/rpc/serialization.h</text>
</a>
</g>
</g>
<!-- Node6&#45;&gt;Node15 -->
<g id="edge16" class="edge">
<title>Node6&#45;&gt;Node15</title>
<path fill="none" stroke="midnightblue" d="M321.35,-420.54C321.35,-408.17 321.35,-392.62 321.35,-383.13"/>
<polygon fill="midnightblue" stroke="midnightblue" points="317.85,-420.73 321.35,-430.73 324.85,-420.73 317.85,-420.73"/>
</g>
<!-- Node10 -->
<g id="node10" class="node">
<title>Node10</title>
<g id="a_node10"><a xlink:href="node__state_8h.html" target="_top" xlink:title=" ">
<polygon fill="white" stroke="black" points="801.35,-168.5 801.35,-187.5 925.35,-187.5 925.35,-168.5 801.35,-168.5"/>
<text text-anchor="middle" x="863.35" y="-175.5" font-family="Helvetica,sans-Serif" font-size="10.00">src/node/node_state.h</text>
</a>
</g>
</g>
<!-- Node9&#45;&gt;Node10 -->
<g id="edge9" class="edge">
<title>Node9&#45;&gt;Node10</title>
<path fill="none" stroke="midnightblue" d="M229.03,-288.14C240.91,-268.72 263.02,-238.13 291.35,-224 336.08,-201.68 662.4,-186.69 801.17,-181.26"/>
<polygon fill="midnightblue" stroke="midnightblue" points="225.94,-286.49 223.9,-296.89 231.98,-290.03 225.94,-286.49"/>
</g>
<!-- Node11 -->
<g id="node11" class="node">
<title>Node11</title>
<g id="a_node11"><a xlink:href="enclave_2enclave_8h.html" target="_top" xlink:title=" ">
<polygon fill="white" stroke="black" points="902.35,-56.5 902.35,-75.5 1024.35,-75.5 1024.35,-56.5 902.35,-56.5"/>
<text text-anchor="middle" x="963.35" y="-63.5" font-family="Helvetica,sans-Serif" font-size="10.00">src/enclave/enclave.h</text>
</a>
</g>
</g>
<!-- Node10&#45;&gt;Node11 -->
<g id="edge10" class="edge">
<title>Node10&#45;&gt;Node11</title>
<path fill="none" stroke="midnightblue" d="M899.1,-164.41C914.99,-157.17 932.7,-146.57 944.35,-132 957.85,-115.1 961.76,-88.91 962.89,-75.52"/>
<polygon fill="midnightblue" stroke="midnightblue" points="897.34,-161.36 889.51,-168.49 900.08,-167.8 897.34,-161.36"/>
</g>
<!-- Node13 -->
<g id="node13" class="node">
<title>Node13</title>
<g id="a_node13"><a xlink:href="gov__effects_8h.html" target="_top" xlink:title=" ">
<polygon fill="white" stroke="black" points="791.35,-112.5 791.35,-131.5 935.35,-131.5 935.35,-112.5 791.35,-112.5"/>
<text text-anchor="middle" x="863.35" y="-119.5" font-family="Helvetica,sans-Serif" font-size="10.00">src/node/rpc/gov_effects.h</text>
</a>
</g>
</g>
<!-- Node10&#45;&gt;Node13 -->
<g id="edge12" class="edge">
<title>Node10&#45;&gt;Node13</title>
<path fill="none" stroke="midnightblue" d="M863.35,-157.8C863.35,-148.91 863.35,-138.78 863.35,-131.75"/>
<polygon fill="midnightblue" stroke="midnightblue" points="859.85,-158.08 863.35,-168.08 866.85,-158.08 859.85,-158.08"/>
</g>
<!-- Node12 -->
<g id="node12" class="node">
<title>Node12</title>
<g id="a_node12"><a xlink:href="enclave_2main_8cpp.html" target="_top" xlink:title=" ">
<polygon fill="white" stroke="black" points="903.35,-0.5 903.35,-19.5 1023.35,-19.5 1023.35,-0.5 903.35,-0.5"/>
<text text-anchor="middle" x="963.35" y="-7.5" font-family="Helvetica,sans-Serif" font-size="10.00">src/enclave/main.cpp</text>
</a>
</g>
</g>
<!-- Node11&#45;&gt;Node12 -->
<g id="edge11" class="edge">
<title>Node11&#45;&gt;Node12</title>
<path fill="none" stroke="midnightblue" d="M963.35,-45.8C963.35,-36.91 963.35,-26.78 963.35,-19.75"/>
<polygon fill="midnightblue" stroke="midnightblue" points="959.85,-46.08 963.35,-56.08 966.85,-46.08 959.85,-46.08"/>
</g>
<!-- Node13&#45;&gt;Node11 -->
<g id="edge13" class="edge">
<title>Node13&#45;&gt;Node11</title>
<path fill="none" stroke="midnightblue" d="M888.43,-107.45C906.89,-97.48 931.44,-84.23 947.32,-75.65"/>
<polygon fill="midnightblue" stroke="midnightblue" points="886.55,-104.49 879.41,-112.32 889.87,-110.65 886.55,-104.49"/>
</g>
<!-- Node14&#45;&gt;Node11 -->
<g id="edge15" class="edge">
<title>Node14&#45;&gt;Node11</title>
<path fill="none" stroke="midnightblue" d="M399.96,-214.56C409.51,-184.95 430.24,-135.57 467.35,-112 503.29,-89.16 777.63,-74.83 902.18,-69.43"/>
<polygon fill="midnightblue" stroke="midnightblue" points="396.5,-213.91 396.93,-224.49 403.2,-215.95 396.5,-213.91"/>
</g>
<!-- Node15&#45;&gt;Node7 -->
<g id="edge17" class="edge">
<title>Node15&#45;&gt;Node7</title>
<path fill="none" stroke="midnightblue" d="M279.79,-361.34C238.81,-350.33 176.05,-333.47 131.69,-321.56"/>
<polygon fill="midnightblue" stroke="midnightblue" points="278.89,-364.72 289.46,-363.94 280.71,-357.96 278.89,-364.72"/>
</g>
<!-- Node15&#45;&gt;Node9 -->
<g id="edge19" class="edge">
<title>Node15&#45;&gt;Node9</title>
<path fill="none" stroke="midnightblue" d="M299.01,-358.27C278.82,-345.4 249.76,-326.88 232.88,-316.13"/>
<polygon fill="midnightblue" stroke="midnightblue" points="297.28,-361.31 307.59,-363.73 301.04,-355.41 297.28,-361.31"/>
</g>
<!-- Node15&#45;&gt;Node10 -->
<g id="edge18" class="edge">
<title>Node15&#45;&gt;Node10</title>
<path fill="none" stroke="midnightblue" d="M314.82,-354.04C305.08,-322.76 291.19,-259.32 324.35,-224 356.42,-189.83 666.22,-181.59 801.11,-179.62"/>
<polygon fill="midnightblue" stroke="midnightblue" points="311.54,-355.27 318.01,-363.66 318.19,-353.07 311.54,-355.27"/>
</g>
<!-- Node15&#45;&gt;Node14 -->
<g id="edge20" class="edge">
<title>Node15&#45;&gt;Node14</title>
<path fill="none" stroke="midnightblue" d="M330.92,-354.95C345.32,-328.55 372.28,-279.12 385.55,-254.78"/>
<polygon fill="midnightblue" stroke="midnightblue" points="327.79,-353.38 326.07,-363.84 333.93,-356.74 327.79,-353.38"/>
</g>
<!-- Node16 -->
<g id="node16" class="node">
<title>Node16</title>
<g id="a_node16"><a xlink:href="node__frontend_8h.html" target="_top" xlink:title=" ">
<polygon fill="white" stroke="black" points="409.35,-297 409.35,-316 567.35,-316 567.35,-297 409.35,-297"/>
<text text-anchor="middle" x="488.35" y="-304" font-family="Helvetica,sans-Serif" font-size="10.00">src/node/rpc/node_frontend.h</text>
</a>
</g>
</g>
<!-- Node15&#45;&gt;Node16 -->
<g id="edge21" class="edge">
<title>Node15&#45;&gt;Node16</title>
<path fill="none" stroke="midnightblue" d="M353.19,-360.1C386.35,-347.2 437.41,-327.33 466.34,-316.06"/>
<polygon fill="midnightblue" stroke="midnightblue" points="351.57,-356.98 343.52,-363.87 354.11,-363.5 351.57,-356.98"/>
</g>
<!-- Node16&#45;&gt;Node11 -->
<g id="edge22" class="edge">
<title>Node16&#45;&gt;Node11</title>
<path fill="none" stroke="midnightblue" d="M486.12,-286.69C485.03,-268.7 486.3,-241.75 500.35,-224 598.84,-99.54 800.49,-73.13 902.04,-67.94"/>
<polygon fill="midnightblue" stroke="midnightblue" points="482.64,-287.16 487.03,-296.8 489.61,-286.53 482.64,-287.16"/>
</g>
<!-- Node17 -->
<g id="node17" class="node">
<title>Node17</title>
<g id="a_node17"><a xlink:href="jwt__key__auto__refresh_8h.html" target="_top" xlink:title=" ">
<polygon fill="white" stroke="black" points="509.85,-224.5 509.85,-254.5 634.85,-254.5 634.85,-224.5 509.85,-224.5"/>
<text text-anchor="start" x="517.85" y="-242.5" font-family="Helvetica,sans-Serif" font-size="10.00">src/node/jwt_key_auto</text>
<text text-anchor="middle" x="572.35" y="-231.5" font-family="Helvetica,sans-Serif" font-size="10.00">_refresh.h</text>
</a>
</g>
</g>
<!-- Node16&#45;&gt;Node17 -->
<g id="edge23" class="edge">
<title>Node16&#45;&gt;Node17</title>
<path fill="none" stroke="midnightblue" d="M507.67,-290.54C521.65,-279.73 540.42,-265.2 554.14,-254.59"/>
<polygon fill="midnightblue" stroke="midnightblue" points="505.44,-287.85 499.67,-296.73 509.73,-293.38 505.44,-287.85"/>
</g>
<!-- Node17&#45;&gt;Node10 -->
<g id="edge24" class="edge">
<title>Node17&#45;&gt;Node10</title>
<path fill="none" stroke="midnightblue" d="M644.96,-223.65C700.72,-212.25 775.74,-196.91 821.76,-187.5"/>
<polygon fill="midnightblue" stroke="midnightblue" points="644.23,-220.23 635.13,-225.66 645.63,-227.09 644.23,-220.23"/>
</g>
<!-- Node18&#45;&gt;Node10 -->
<g id="edge26" class="edge">
<title>Node18&#45;&gt;Node10</title>
<path fill="none" stroke="midnightblue" d="M1005.95,-566.63C1088.43,-561.22 1227.35,-537.8 1227.35,-441.5 1227.35,-441.5 1227.35,-441.5 1227.35,-372.5 1227.35,-361.69 1392.41,-400.8 1030.35,-224 993.52,-206.02 948.48,-194.42 914.46,-187.51"/>
<polygon fill="midnightblue" stroke="midnightblue" points="1005.71,-563.14 995.94,-567.22 1006.12,-570.13 1005.71,-563.14"/>
</g>
<!-- Node20 -->
<g id="node20" class="node">
<title>Node20</title>
<g id="a_node20"><a xlink:href="kv__module__loader_8cpp.html" target="_top" xlink:title=" ">
<polygon fill="white" stroke="black" points="1055.85,-358.5 1055.85,-388.5 1198.85,-388.5 1198.85,-358.5 1055.85,-358.5"/>
<text text-anchor="start" x="1063.85" y="-376.5" font-family="Helvetica,sans-Serif" font-size="10.00">src/apps/js_v8/kv_module</text>
<text text-anchor="middle" x="1127.35" y="-365.5" font-family="Helvetica,sans-Serif" font-size="10.00">_loader.cpp</text>
</a>
</g>
</g>
<!-- Node19&#45;&gt;Node20 -->
<g id="edge29" class="edge">
<title>Node19&#45;&gt;Node20</title>
<path fill="none" stroke="midnightblue" d="M826.57,-427.77C891.23,-416.32 989.33,-398.94 1055.77,-387.18"/>
<polygon fill="midnightblue" stroke="midnightblue" points="825.72,-424.37 816.48,-429.56 826.94,-431.26 825.72,-424.37"/>
</g>
<!-- Node21 -->
<g id="node21" class="node">
<title>Node21</title>
<g id="a_node21"><a xlink:href="network__state_8h.html" target="_top" xlink:title=" ">
<polygon fill="white" stroke="black" points="859.35,-364 859.35,-383 999.35,-383 999.35,-364 859.35,-364"/>
<text text-anchor="middle" x="929.35" y="-371" font-family="Helvetica,sans-Serif" font-size="10.00">src/node/network_state.h</text>
</a>
</g>
</g>
<!-- Node19&#45;&gt;Node21 -->
<g id="edge30" class="edge">
<title>Node19&#45;&gt;Node21</title>
<path fill="none" stroke="midnightblue" d="M806.41,-421.78C839.18,-409.18 881.74,-392.81 907.23,-383.01"/>
<polygon fill="midnightblue" stroke="midnightblue" points="805.09,-418.54 797.02,-425.4 807.61,-425.07 805.09,-418.54"/>
</g>
<!-- Node33 -->
<g id="node33" class="node">
<title>Node33</title>
<g id="a_node33"><a xlink:href="genesis__gen_8h.html" target="_top" xlink:title=" ">
<polygon fill="white" stroke="black" points="590.35,-358.5 590.35,-388.5 700.35,-388.5 700.35,-358.5 590.35,-358.5"/>
<text text-anchor="start" x="598.35" y="-376.5" font-family="Helvetica,sans-Serif" font-size="10.00">src/service/genesis</text>
<text text-anchor="middle" x="645.35" y="-365.5" font-family="Helvetica,sans-Serif" font-size="10.00">_gen.h</text>
</a>
</g>
</g>
<!-- Node19&#45;&gt;Node33 -->
<g id="edge58" class="edge">
<title>Node19&#45;&gt;Node33</title>
<path fill="none" stroke="midnightblue" d="M726.37,-420.3C708.37,-410.12 686.67,-397.85 670.25,-388.58"/>
<polygon fill="midnightblue" stroke="midnightblue" points="724.96,-423.52 735.39,-425.4 728.41,-417.43 724.96,-423.52"/>
</g>
<!-- Node21&#45;&gt;Node10 -->
<g id="edge47" class="edge">
<title>Node21&#45;&gt;Node10</title>
<path fill="none" stroke="midnightblue" d="M989.13,-361.91C1030.94,-353.14 1081.52,-339.34 1094.35,-322 1102.54,-310.92 1101.66,-302.68 1094.35,-291 1070.8,-253.42 944.28,-206.59 889.1,-187.6"/>
<polygon fill="midnightblue" stroke="midnightblue" points="988.36,-358.49 979.26,-363.92 989.76,-365.35 988.36,-358.49"/>
</g>
<!-- Node21&#45;&gt;Node11 -->
<g id="edge31" class="edge">
<title>Node21&#45;&gt;Node11</title>
<path fill="none" stroke="midnightblue" d="M985.76,-361.95C1031.46,-352.48 1091.27,-337.69 1110.35,-322 1141.66,-296.24 1151.35,-281.05 1151.35,-240.5 1151.35,-240.5 1151.35,-240.5 1151.35,-177 1151.35,-115.27 1074.89,-87.54 1019.5,-75.54"/>
<polygon fill="midnightblue" stroke="midnightblue" points="985.05,-358.53 975.95,-363.95 986.45,-365.39 985.05,-358.53"/>
</g>
<!-- Node21&#45;&gt;Node16 -->
<g id="edge48" class="edge">
<title>Node21&#45;&gt;Node16</title>
<path fill="none" stroke="midnightblue" d="M861.28,-362.47C774.91,-349.74 627.44,-328 546.23,-316.03"/>
<polygon fill="midnightblue" stroke="midnightblue" points="860.84,-365.94 871.24,-363.94 861.86,-359.01 860.84,-365.94"/>
</g>
<!-- Node22 -->
<g id="node22" class="node">
<title>Node22</title>
<g id="a_node22"><a xlink:href="wrap_8h.html" target="_top" xlink:title=" ">
<polygon fill="white" stroke="black" points="1527.35,-297 1527.35,-316 1605.35,-316 1605.35,-297 1527.35,-297"/>
<text text-anchor="middle" x="1566.35" y="-304" font-family="Helvetica,sans-Serif" font-size="10.00">src/js/wrap.h</text>
</a>
</g>
</g>
<!-- Node21&#45;&gt;Node22 -->
<g id="edge32" class="edge">
<title>Node21&#45;&gt;Node22</title>
<path fill="none" stroke="midnightblue" d="M1006.66,-362.72C1020.21,-361.08 1034.18,-359.45 1047.35,-358 1226.42,-338.29 1440.7,-318.71 1527.25,-310.96"/>
<polygon fill="midnightblue" stroke="midnightblue" points="1005.9,-359.28 996.39,-363.96 1006.74,-366.23 1005.9,-359.28"/>
</g>
<!-- Node29 -->
<g id="node29" class="node">
<title>Node29</title>
<g id="a_node29"><a xlink:href="user__frontend_8h.html" target="_top" xlink:title=" ">
<polygon fill="white" stroke="black" points="1179.85,-112.5 1179.85,-131.5 1334.85,-131.5 1334.85,-112.5 1179.85,-112.5"/>
<text text-anchor="middle" x="1257.35" y="-119.5" font-family="Helvetica,sans-Serif" font-size="10.00">src/node/rpc/user_frontend.h</text>
</a>
</g>
</g>
<!-- Node21&#45;&gt;Node29 -->
<g id="edge49" class="edge">
<title>Node21&#45;&gt;Node29</title>
<path fill="none" stroke="midnightblue" d="M984.21,-362.04C1051.68,-348.99 1158.22,-327.69 1165.35,-322 1229.87,-270.43 1251.11,-163.3 1256.08,-131.86"/>
<polygon fill="midnightblue" stroke="midnightblue" points="983.3,-358.65 974.15,-363.98 984.63,-365.52 983.3,-358.65"/>
</g>
<!-- Node30 -->
<g id="node30" class="node">
<title>Node30</title>
<g id="a_node30"><a xlink:href="secret__broadcast_8h.html" target="_top" xlink:title=" ">
<polygon fill="white" stroke="black" points="786.85,-297 786.85,-316 939.85,-316 939.85,-297 786.85,-297"/>
<text text-anchor="middle" x="863.35" y="-304" font-family="Helvetica,sans-Serif" font-size="10.00">src/node/secret_broadcast.h</text>
</a>
</g>
</g>
<!-- Node21&#45;&gt;Node30 -->
<g id="edge51" class="edge">
<title>Node21&#45;&gt;Node30</title>
<path fill="none" stroke="midnightblue" d="M913.1,-356.5C900.15,-343.75 882.53,-326.39 872.11,-316.13"/>
<polygon fill="midnightblue" stroke="midnightblue" points="910.86,-359.21 920.44,-363.73 915.78,-354.22 910.86,-359.21"/>
</g>
<!-- Node31 -->
<g id="node31" class="node">
<title>Node31</title>
<g id="a_node31"><a xlink:href="share__manager_8h.html" target="_top" xlink:title=" ">
<polygon fill="white" stroke="black" points="623.85,-297 623.85,-316 768.85,-316 768.85,-297 623.85,-297"/>
<text text-anchor="middle" x="696.35" y="-304" font-family="Helvetica,sans-Serif" font-size="10.00">src/node/share_manager.h</text>
</a>
</g>
</g>
<!-- Node21&#45;&gt;Node31 -->
<g id="edge53" class="edge">
<title>Node21&#45;&gt;Node31</title>
<path fill="none" stroke="midnightblue" d="M888.74,-361.17C842.66,-348.32 768.55,-327.64 727.04,-316.06"/>
<polygon fill="midnightblue" stroke="midnightblue" points="887.83,-364.55 898.41,-363.87 889.71,-357.81 887.83,-364.55"/>
</g>
<!-- Node32 -->
<g id="node32" class="node">
<title>Node32</title>
<g id="a_node32"><a xlink:href="snapshotter_8h.html" target="_top" xlink:title=" ">
<polygon fill="white" stroke="black" points="957.85,-297 957.85,-316 1084.85,-316 1084.85,-297 957.85,-297"/>
<text text-anchor="middle" x="1021.35" y="-304" font-family="Helvetica,sans-Serif" font-size="10.00">src/node/snapshotter.h</text>
</a>
</g>
</g>
<!-- Node21&#45;&gt;Node32 -->
<g id="edge56" class="edge">
<title>Node21&#45;&gt;Node32</title>
<path fill="none" stroke="midnightblue" d="M949.98,-357.92C968.17,-345.07 994.05,-326.78 1009.13,-316.13"/>
<polygon fill="midnightblue" stroke="midnightblue" points="947.9,-355.1 941.75,-363.73 951.94,-360.82 947.9,-355.1"/>
</g>
<!-- Node22&#45;&gt;Node8 -->
<g id="edge44" class="edge">
<title>Node22&#45;&gt;Node8</title>
<path fill="none" stroke="midnightblue" d="M1565.84,-286.42C1566.38,-268.23 1570.02,-241.14 1585.35,-224 1606.24,-200.64 1640.06,-189.4 1667.54,-184"/>
<polygon fill="midnightblue" stroke="midnightblue" points="1562.34,-286.66 1565.83,-296.66 1569.34,-286.67 1562.34,-286.66"/>
</g>
<!-- Node22&#45;&gt;Node10 -->
<g id="edge45" class="edge">
<title>Node22&#45;&gt;Node10</title>
<path fill="none" stroke="midnightblue" d="M1517.45,-297.61C1457.85,-287.93 1354.11,-270.83 1265.35,-255 1134.59,-231.67 980.36,-201.87 906.72,-187.5"/>
<polygon fill="midnightblue" stroke="midnightblue" points="1516.91,-301.07 1527.34,-299.22 1518.03,-294.16 1516.91,-301.07"/>
</g>
<!-- Node22&#45;&gt;Node11 -->
<g id="edge34" class="edge">
<title>Node22&#45;&gt;Node11</title>
<path fill="none" stroke="midnightblue" d="M1615.74,-304.2C1736.19,-300.54 2037.4,-288.12 2067.35,-255 2076.59,-244.78 2076.15,-234.6 2067.35,-224 1999.91,-142.86 1246.75,-86.06 1024.64,-70.99"/>
<polygon fill="midnightblue" stroke="midnightblue" points="1615.57,-300.71 1605.68,-304.5 1615.78,-307.71 1615.57,-300.71"/>
</g>
<!-- Node22&#45;&gt;Node14 -->
<g id="edge46" class="edge">
<title>Node22&#45;&gt;Node14</title>
<path fill="none" stroke="midnightblue" d="M1517.12,-303.74C1335.31,-297.15 701.82,-273.39 500.35,-255 485.13,-253.61 468.76,-251.64 453.51,-249.59"/>
<polygon fill="midnightblue" stroke="midnightblue" points="1517.07,-307.24 1527.19,-304.1 1517.32,-300.25 1517.07,-307.24"/>
</g>
<!-- Node23 -->
<g id="node23" class="node">
<title>Node23</title>
<g id="a_node23"><a xlink:href="js__generic__base_8cpp.html" target="_top" xlink:title=" ">
<polygon fill="white" stroke="black" points="1274.35,-224.5 1274.35,-254.5 1392.35,-254.5 1392.35,-224.5 1274.35,-224.5"/>
<text text-anchor="start" x="1282.35" y="-242.5" font-family="Helvetica,sans-Serif" font-size="10.00">src/apps/js_generic</text>
<text text-anchor="middle" x="1333.35" y="-231.5" font-family="Helvetica,sans-Serif" font-size="10.00">/js_generic_base.cpp</text>
</a>
</g>
</g>
<!-- Node22&#45;&gt;Node23 -->
<g id="edge33" class="edge">
<title>Node22&#45;&gt;Node23</title>
<path fill="none" stroke="midnightblue" d="M1525.58,-294.13C1486.08,-283.11 1426.08,-266.37 1383.63,-254.53"/>
<polygon fill="midnightblue" stroke="midnightblue" points="1524.83,-297.55 1535.41,-296.87 1526.71,-290.81 1524.83,-297.55"/>
</g>
<!-- Node24 -->
<g id="node24" class="node">
<title>Node24</title>
<g id="a_node24"><a xlink:href="js_2consensus_8cpp.html" target="_top" xlink:title=" ">
<polygon fill="white" stroke="black" points="1594.35,-230 1594.35,-249 1710.35,-249 1710.35,-230 1594.35,-230"/>
<text text-anchor="middle" x="1652.35" y="-237" font-family="Helvetica,sans-Serif" font-size="10.00">src/js/consensus.cpp</text>
</a>
</g>
</g>
<!-- Node22&#45;&gt;Node24 -->
<g id="edge35" class="edge">
<title>Node22&#45;&gt;Node24</title>
<path fill="none" stroke="midnightblue" d="M1586.1,-290.57C1603.08,-277.74 1626.96,-259.69 1640.93,-249.13"/>
<polygon fill="midnightblue" stroke="midnightblue" points="1583.81,-287.91 1577.94,-296.73 1588.03,-293.5 1583.81,-287.91"/>
</g>
<!-- Node25 -->
<g id="node25" class="node">
<title>Node25</title>
<g id="a_node25"><a xlink:href="conv_8cpp.html" target="_top" xlink:title=" ">
<polygon fill="white" stroke="black" points="1728.35,-230 1728.35,-249 1816.35,-249 1816.35,-230 1728.35,-230"/>
<text text-anchor="middle" x="1772.35" y="-237" font-family="Helvetica,sans-Serif" font-size="10.00">src/js/conv.cpp</text>
</a>
</g>
</g>
<!-- Node22&#45;&gt;Node25 -->
<g id="edge37" class="edge">
<title>Node22&#45;&gt;Node25</title>
<path fill="none" stroke="midnightblue" d="M1603.28,-293.85C1644.08,-280.97 1708.82,-260.55 1745.21,-249.06"/>
<polygon fill="midnightblue" stroke="midnightblue" points="1602.18,-290.52 1593.7,-296.87 1604.29,-297.2 1602.18,-290.52"/>
</g>
<!-- Node26 -->
<g id="node26" class="node">
<title>Node26</title>
<g id="a_node26"><a xlink:href="js_2crypto_8cpp.html" target="_top" xlink:title=" ">
<polygon fill="white" stroke="black" points="1834.35,-230 1834.35,-249 1930.35,-249 1930.35,-230 1834.35,-230"/>
<text text-anchor="middle" x="1882.35" y="-237" font-family="Helvetica,sans-Serif" font-size="10.00">src/js/crypto.cpp</text>
</a>
</g>
</g>
<!-- Node22&#45;&gt;Node26 -->
<g id="edge39" class="edge">
<title>Node22&#45;&gt;Node26</title>
<path fill="none" stroke="midnightblue" d="M1615.54,-296.76C1667.77,-287.29 1752.64,-271.32 1825.35,-255 1833.42,-253.19 1842.09,-251.07 1850.17,-249.02"/>
<polygon fill="midnightblue" stroke="midnightblue" points="1614.76,-293.35 1605.54,-298.57 1616,-300.24 1614.76,-293.35"/>
</g>
<!-- Node27 -->
<g id="node27" class="node">
<title>Node27</title>
<g id="a_node27"><a xlink:href="js_2historical_8cpp.html" target="_top" xlink:title=" ">
<polygon fill="white" stroke="black" points="1948.35,-230 1948.35,-249 2058.35,-249 2058.35,-230 1948.35,-230"/>
<text text-anchor="middle" x="2003.35" y="-237" font-family="Helvetica,sans-Serif" font-size="10.00">src/js/historical.cpp</text>
</a>
</g>
</g>
<!-- Node22&#45;&gt;Node27 -->
<g id="edge41" class="edge">
<title>Node22&#45;&gt;Node27</title>
<path fill="none" stroke="midnightblue" d="M1615.53,-300.24C1687.09,-292.27 1823.96,-275.84 1939.35,-255 1948.76,-253.3 1958.89,-251.15 1968.25,-249.04"/>
<polygon fill="midnightblue" stroke="midnightblue" points="1615.01,-296.78 1605.46,-301.36 1615.78,-303.74 1615.01,-296.78"/>
</g>
<!-- Node28 -->
<g id="node28" class="node">
<title>Node28</title>
<g id="a_node28"><a xlink:href="openenclave_8cpp.html" target="_top" xlink:title=" ">
<polygon fill="white" stroke="black" points="1410.35,-230 1410.35,-249 1538.35,-249 1538.35,-230 1410.35,-230"/>
<text text-anchor="middle" x="1474.35" y="-237" font-family="Helvetica,sans-Serif" font-size="10.00">src/js/openenclave.cpp</text>
</a>
</g>
</g>
<!-- Node22&#45;&gt;Node28 -->
<g id="edge43" class="edge">
<title>Node22&#45;&gt;Node28</title>
<path fill="none" stroke="midnightblue" d="M1545.71,-290.92C1527.52,-278.07 1501.64,-259.78 1486.56,-249.13"/>
<polygon fill="midnightblue" stroke="midnightblue" points="1543.75,-293.82 1553.94,-296.73 1547.79,-288.1 1543.75,-293.82"/>
</g>
<!-- Node24&#45;&gt;Node8 -->
<g id="edge36" class="edge">
<title>Node24&#45;&gt;Node8</title>
<path fill="none" stroke="midnightblue" d="M1668.15,-222.82C1679.55,-211.52 1694.5,-196.69 1703.77,-187.51"/>
<polygon fill="midnightblue" stroke="midnightblue" points="1665.58,-220.45 1660.94,-229.98 1670.51,-225.42 1665.58,-220.45"/>
</g>
<!-- Node25&#45;&gt;Node8 -->
<g id="edge38" class="edge">
<title>Node25&#45;&gt;Node8</title>
<path fill="none" stroke="midnightblue" d="M1756.54,-222.82C1745.14,-211.52 1730.19,-196.69 1720.93,-187.51"/>
<polygon fill="midnightblue" stroke="midnightblue" points="1754.18,-225.42 1763.75,-229.98 1759.11,-220.45 1754.18,-225.42"/>
</g>
<!-- Node26&#45;&gt;Node8 -->
<g id="edge40" class="edge">
<title>Node26&#45;&gt;Node8</title>
<path fill="none" stroke="midnightblue" d="M1848.3,-226.58C1815.25,-215.02 1765.92,-197.75 1736.66,-187.51"/>
<polygon fill="midnightblue" stroke="midnightblue" points="1847.39,-229.98 1857.99,-229.98 1849.71,-223.37 1847.39,-229.98"/>
</g>
<!-- Node27&#45;&gt;Node8 -->
<g id="edge42" class="edge">
<title>Node27&#45;&gt;Node8</title>
<path fill="none" stroke="midnightblue" d="M1956.32,-227.69C1950.61,-226.43 1944.85,-225.17 1939.35,-224 1876.27,-210.61 1803.06,-196.32 1757.21,-187.52"/>
<polygon fill="midnightblue" stroke="midnightblue" points="1955.97,-231.2 1966.49,-229.97 1957.5,-224.37 1955.97,-231.2"/>
</g>
<!-- Node29&#45;&gt;Node11 -->
<g id="edge50" class="edge">
<title>Node29&#45;&gt;Node11</title>
<path fill="none" stroke="midnightblue" d="M1200.73,-110.6C1145.16,-100.4 1061.45,-85.02 1009.71,-75.52"/>
<polygon fill="midnightblue" stroke="midnightblue" points="1200.29,-114.08 1210.76,-112.44 1201.56,-107.19 1200.29,-114.08"/>
</g>
<!-- Node30&#45;&gt;Node10 -->
<g id="edge52" class="edge">
<title>Node30&#45;&gt;Node10</title>
<path fill="none" stroke="midnightblue" d="M863.35,-286.44C863.35,-258.62 863.35,-208.04 863.35,-187.76"/>
<polygon fill="midnightblue" stroke="midnightblue" points="859.85,-286.81 863.35,-296.81 866.85,-286.81 859.85,-286.81"/>
</g>
<!-- Node31&#45;&gt;Node10 -->
<g id="edge54" class="edge">
<title>Node31&#45;&gt;Node10</title>
<path fill="none" stroke="midnightblue" d="M715.88,-290.7C750.96,-264.13 823.58,-209.12 851.79,-187.76"/>
<polygon fill="midnightblue" stroke="midnightblue" points="713.68,-287.98 707.82,-296.81 717.91,-293.56 713.68,-287.98"/>
</g>
<!-- Node31&#45;&gt;Node14 -->
<g id="edge55" class="edge">
<title>Node31&#45;&gt;Node14</title>
<path fill="none" stroke="midnightblue" d="M646.59,-294.83C593.7,-283.48 510.04,-265.53 453.49,-253.4"/>
<polygon fill="midnightblue" stroke="midnightblue" points="645.91,-298.26 656.42,-296.94 647.38,-291.42 645.91,-298.26"/>
</g>
<!-- Node32&#45;&gt;Node10 -->
<g id="edge57" class="edge">
<title>Node32&#45;&gt;Node10</title>
<path fill="none" stroke="midnightblue" d="M1002.44,-290.36C969.09,-263.67 900.86,-209.03 874.28,-187.76"/>
<polygon fill="midnightblue" stroke="midnightblue" points="1000.49,-293.29 1010.49,-296.81 1004.87,-287.82 1000.49,-293.29"/>
</g>
<!-- Node33&#45;&gt;Node10 -->
<g id="edge59" class="edge">
<title>Node33&#45;&gt;Node10</title>
<path fill="none" stroke="midnightblue" d="M626.17,-350.16C613.98,-333.09 602.51,-309.45 614.35,-291 655.29,-227.16 742.32,-199.37 801.83,-187.51"/>
<polygon fill="midnightblue" stroke="midnightblue" points="623.64,-352.61 632.5,-358.42 629.2,-348.35 623.64,-352.61"/>
</g>
<!-- Node33&#45;&gt;Node14 -->
<g id="edge60" class="edge">
<title>Node33&#45;&gt;Node14</title>
<path fill="none" stroke="midnightblue" d="M580.05,-367.72C515.71,-361.54 423.73,-348.31 400.35,-322 383.93,-303.53 386.6,-272.52 389.99,-254.54"/>
<polygon fill="midnightblue" stroke="midnightblue" points="579.85,-371.21 590.13,-368.65 580.49,-364.24 579.85,-371.21"/>
</g>
<!-- Node33&#45;&gt;Node16 -->
<g id="edge61" class="edge">
<title>Node33&#45;&gt;Node16</title>
<path fill="none" stroke="midnightblue" d="M601.77,-354.46C571.44,-341.9 532.36,-325.72 508.89,-316.01"/>
<polygon fill="midnightblue" stroke="midnightblue" points="600.7,-357.8 611.28,-358.4 603.38,-351.34 600.7,-357.8"/>
</g>
<!-- Node33&#45;&gt;Node30 -->
<g id="edge62" class="edge">
<title>Node33&#45;&gt;Node30</title>
<path fill="none" stroke="midnightblue" d="M702.06,-355.59C744.63,-342.9 801.16,-326.04 834.74,-316.03"/>
<polygon fill="midnightblue" stroke="midnightblue" points="700.96,-352.26 692.38,-358.48 702.96,-358.97 700.96,-352.26"/>
</g>
<!-- Node33&#45;&gt;Node31 -->
<g id="edge63" class="edge">
<title>Node33&#45;&gt;Node31</title>
<path fill="none" stroke="midnightblue" d="M662.75,-350.32C671.95,-338.6 682.71,-324.88 689.52,-316.19"/>
<polygon fill="midnightblue" stroke="midnightblue" points="659.83,-348.37 656.41,-358.4 665.34,-352.69 659.83,-348.37"/>
</g>
</g>
</svg>
        <g id="navigator" transform="translate(0 0)" fill="#404254">
                <rect fill="#f2f5e9" fill-opacity="0.5" stroke="#606060" stroke-width=".5" x="0" y="0" width="60" height="60"/>
                <use id="zoomplus" xlink:href="#zoomPlus" x="17" y="9" onmousedown="handleZoom(evt,'in')"/>
                <use id="zoomminus" xlink:href="#zoomMin" x="42" y="9" onmousedown="handleZoom(evt,'out')"/>
                <use id="reset" xlink:href="#resetDef" x="30" y="36" onmousedown="handleReset()"/>
                <g id="arrowUp" xlink:href="#dirArrow" transform="translate(30 24)" onmousedown="handlePan(0,-1)">
                  <use xlink:href="#rim" fill="#404040">
                        <set attributeName="fill" to="#808080" begin="arrowUp.mouseover" end="arrowUp.mouseout"/>
                  </use>
                  <path fill="none" stroke="white" stroke-width="1.5" d="M0,-3.0v7 M-2.5,-0.5L0,-3.0L2.5,-0.5"/>
                </g>
                <g id="arrowRight" xlink:href="#dirArrow" transform="rotate(90) translate(36 -43)" onmousedown="handlePan(1,0)">
                  <use xlink:href="#rim" fill="#404040">
                        <set attributeName="fill" to="#808080" begin="arrowRight.mouseover" end="arrowRight.mouseout"/>
                  </use>
                  <path fill="none" stroke="white" stroke-width="1.5" d="M0,-3.0v7 M-2.5,-0.5L0,-3.0L2.5,-0.5"/>
                </g>
                <g id="arrowDown" xlink:href="#dirArrow" transform="rotate(180) translate(-30 -48)" onmousedown="handlePan(0,1)">
                  <use xlink:href="#rim" fill="#404040">
                        <set attributeName="fill" to="#808080" begin="arrowDown.mouseover" end="arrowDown.mouseout"/>
                  </use>
                  <path fill="none" stroke="white" stroke-width="1.5" d="M0,-3.0v7 M-2.5,-0.5L0,-3.0L2.5,-0.5"/>
                </g>
                <g id="arrowLeft" xlink:href="#dirArrow" transform="rotate(270) translate(-36 17)" onmousedown="handlePan(-1,0)">
                  <use xlink:href="#rim" fill="#404040">
                        <set attributeName="fill" to="#808080" begin="arrowLeft.mouseover" end="arrowLeft.mouseout"/>
                  </use>
                  <path fill="none" stroke="white" stroke-width="1.5" d="M0,-3.0v7 M-2.5,-0.5L0,-3.0L2.5,-0.5"/>
                </g>
        </g>
        <svg viewBox="0 0 15 15" width="100%" height="30px" preserveAspectRatio="xMaxYMin meet">
         <g id="arrow_out" transform="scale(0.3 0.3)">
          <a xlink:href="config_8h__dep__incl_org.svg" target="_base">
           <rect id="button" ry="5" rx="5" y="6" x="6" height="38" width="38"
                fill="#f2f5e9" fill-opacity="0.5" stroke="#606060" stroke-width="1.0"/>
           <path id="arrow"
             d="M 11.500037,31.436501 C 11.940474,20.09759 22.043105,11.32322 32.158766,21.979434 L 37.068811,17.246167 C 37.068811,17.246167 37.088388,32 37.088388,32 L 22.160133,31.978069 C 22.160133,31.978069 26.997745,27.140456 26.997745,27.140456 C 18.528582,18.264221 13.291696,25.230495 11.500037,31.436501 z"
             style="fill:#404040;"/>
          </a>
         </g>
        </svg>
</svg>
