<?xml version="1.0" encoding="UTF-8" standalone="no"?>
<!DOCTYPE svg PUBLIC "-//W3C//DTD SVG 1.1//EN"
 "http://www.w3.org/Graphics/SVG/1.1/DTD/svg11.dtd">
<!-- Generated by graphviz version 2.43.0 (0)
 -->
<!-- Title: src/consensus/consensus_types.h Pages: 1 -->
<svg width="1192pt" height="654pt"
 viewBox="0.00 0.00 1192.31 654.00" xmlns="http://www.w3.org/2000/svg" xmlns:xlink="http://www.w3.org/1999/xlink">
<g id="graph0" class="graph" transform="scale(1 1) rotate(0) translate(4 650)">
<title>src/consensus/consensus_types.h</title>
<polygon fill="white" stroke="transparent" points="-4,4 -4,-650 1188.31,-650 1188.31,4 -4,4"/>
<!-- Node1 -->
<g id="node1" class="node">
<title>Node1</title>
<g id="a_node1"><a xlink:title=" ">
<polygon fill="#bfbfbf" stroke="black" points="472.5,-615.5 472.5,-645.5 611.5,-645.5 611.5,-615.5 472.5,-615.5"/>
<text text-anchor="start" x="480.5" y="-633.5" font-family="Helvetica,sans-Serif" font-size="10.00">src/consensus/consensus</text>
<text text-anchor="middle" x="542" y="-622.5" font-family="Helvetica,sans-Serif" font-size="10.00">_types.h</text>
</a>
</g>
</g>
<!-- Node2 -->
<g id="node2" class="node">
<title>Node2</title>
<g id="a_node2"><a xlink:href="common_2configuration_8h.html" target="_top" xlink:title=" ">
<polygon fill="white" stroke="black" points="414,-559.5 414,-578.5 566,-578.5 566,-559.5 414,-559.5"/>
<text text-anchor="middle" x="490" y="-566.5" font-family="Helvetica,sans-Serif" font-size="10.00">src/common/configuration.h</text>
</a>
</g>
</g>
<!-- Node1&#45;&gt;Node2 -->
<g id="edge1" class="edge">
<title>Node1&#45;&gt;Node2</title>
<path fill="none" stroke="midnightblue" d="M522.95,-607.7C514.15,-597.64 504.21,-586.26 497.57,-578.66"/>
<polygon fill="midnightblue" stroke="midnightblue" points="520.46,-610.17 529.68,-615.4 525.73,-605.57 520.46,-610.17"/>
</g>
<!-- Node18 -->
<g id="node18" class="node">
<title>Node18</title>
<g id="a_node18"><a xlink:href="raft__types_8h.html" target="_top" xlink:title=" ">
<polygon fill="white" stroke="black" points="696,-492.5 696,-522.5 816,-522.5 816,-492.5 696,-492.5"/>
<text text-anchor="start" x="704" y="-510.5" font-family="Helvetica,sans-Serif" font-size="10.00">src/consensus/aft/raft</text>
<text text-anchor="middle" x="756" y="-499.5" font-family="Helvetica,sans-Serif" font-size="10.00">_types.h</text>
</a>
</g>
</g>
<!-- Node1&#45;&gt;Node18 -->
<g id="edge25" class="edge">
<title>Node1&#45;&gt;Node18</title>
<path fill="none" stroke="midnightblue" d="M575.7,-610.45C618.9,-586.02 692.79,-544.24 731.19,-522.53"/>
<polygon fill="midnightblue" stroke="midnightblue" points="573.95,-607.41 566.97,-615.38 577.39,-613.51 573.95,-607.41"/>
</g>
<!-- Node3 -->
<g id="node3" class="node">
<title>Node3</title>
<g id="a_node3"><a xlink:href="host_2configuration_8h.html" target="_top" xlink:title=" ">
<polygon fill="white" stroke="black" points="424.5,-498 424.5,-517 555.5,-517 555.5,-498 424.5,-498"/>
<text text-anchor="middle" x="490" y="-505" font-family="Helvetica,sans-Serif" font-size="10.00">src/host/configuration.h</text>
</a>
</g>
</g>
<!-- Node2&#45;&gt;Node3 -->
<g id="edge2" class="edge">
<title>Node2&#45;&gt;Node3</title>
<path fill="none" stroke="midnightblue" d="M490,-549.32C490,-538.5 490,-525.4 490,-517.01"/>
<polygon fill="midnightblue" stroke="midnightblue" points="486.5,-549.48 490,-559.48 493.5,-549.48 486.5,-549.48"/>
</g>
<!-- Node5 -->
<g id="node5" class="node">
<title>Node5</title>
<g id="a_node5"><a xlink:href="node__call__types_8h.html" target="_top" xlink:title=" ">
<polygon fill="white" stroke="black" points="278.5,-492.5 278.5,-522.5 403.5,-522.5 403.5,-492.5 278.5,-492.5"/>
<text text-anchor="start" x="286.5" y="-510.5" font-family="Helvetica,sans-Serif" font-size="10.00">src/node/rpc/node_call</text>
<text text-anchor="middle" x="341" y="-499.5" font-family="Helvetica,sans-Serif" font-size="10.00">_types.h</text>
</a>
</g>
</g>
<!-- Node2&#45;&gt;Node5 -->
<g id="edge4" class="edge">
<title>Node2&#45;&gt;Node5</title>
<path fill="none" stroke="midnightblue" d="M459.25,-555.72C435.06,-546.06 401.36,-532.6 376.12,-522.52"/>
<polygon fill="midnightblue" stroke="midnightblue" points="458.07,-559.02 468.65,-559.48 460.66,-552.52 458.07,-559.02"/>
</g>
<!-- Node4 -->
<g id="node4" class="node">
<title>Node4</title>
<g id="a_node4"><a xlink:href="host_2main_8cpp.html" target="_top" xlink:title=" ">
<polygon fill="white" stroke="black" points="438.5,-364 438.5,-383 541.5,-383 541.5,-364 438.5,-364"/>
<text text-anchor="middle" x="490" y="-371" font-family="Helvetica,sans-Serif" font-size="10.00">src/host/main.cpp</text>
</a>
</g>
</g>
<!-- Node3&#45;&gt;Node4 -->
<g id="edge3" class="edge">
<title>Node3&#45;&gt;Node4</title>
<path fill="none" stroke="midnightblue" d="M490,-487.78C490,-458.75 490,-404.04 490,-383.02"/>
<polygon fill="midnightblue" stroke="midnightblue" points="486.5,-487.84 490,-497.84 493.5,-487.84 486.5,-487.84"/>
</g>
<!-- Node6 -->
<g id="node6" class="node">
<title>Node6</title>
<g id="a_node6"><a xlink:href="call__types_8h.html" target="_top" xlink:title=" ">
<polygon fill="white" stroke="black" points="200.5,-431 200.5,-450 337.5,-450 337.5,-431 200.5,-431"/>
<text text-anchor="middle" x="269" y="-438" font-family="Helvetica,sans-Serif" font-size="10.00">src/node/rpc/call_types.h</text>
</a>
</g>
</g>
<!-- Node5&#45;&gt;Node6 -->
<g id="edge5" class="edge">
<title>Node5&#45;&gt;Node6</title>
<path fill="none" stroke="midnightblue" d="M317.93,-485.67C304.64,-473.67 288.63,-459.22 278.63,-450.19"/>
<polygon fill="midnightblue" stroke="midnightblue" points="315.61,-488.29 325.38,-492.4 320.3,-483.1 315.61,-488.29"/>
</g>
<!-- Node7 -->
<g id="node7" class="node">
<title>Node7</title>
<g id="a_node7"><a xlink:href="common__endpoint__registry_8cpp.html" target="_top" xlink:title=" ">
<polygon fill="white" stroke="black" points="138,-291.5 138,-321.5 266,-321.5 266,-291.5 138,-291.5"/>
<text text-anchor="start" x="146" y="-309.5" font-family="Helvetica,sans-Serif" font-size="10.00">src/endpoints/common</text>
<text text-anchor="middle" x="202" y="-298.5" font-family="Helvetica,sans-Serif" font-size="10.00">_endpoint_registry.cpp</text>
</a>
</g>
</g>
<!-- Node6&#45;&gt;Node7 -->
<g id="edge6" class="edge">
<title>Node6&#45;&gt;Node7</title>
<path fill="none" stroke="midnightblue" d="M190.65,-432.25C162.78,-425.45 134.1,-412.7 117,-389 108.94,-377.83 110.19,-369.97 117,-358 126.51,-341.29 143.97,-329.54 160.6,-321.6"/>
<polygon fill="midnightblue" stroke="midnightblue" points="189.94,-435.68 200.46,-434.42 191.45,-428.84 189.94,-435.68"/>
</g>
<!-- Node8 -->
<g id="node8" class="node">
<title>Node8</title>
<g id="a_node8"><a xlink:href="wrap_8cpp.html" target="_top" xlink:title=" ">
<polygon fill="white" stroke="black" points="292.5,-364 292.5,-383 381.5,-383 381.5,-364 292.5,-364"/>
<text text-anchor="middle" x="337" y="-371" font-family="Helvetica,sans-Serif" font-size="10.00">src/js/wrap.cpp</text>
</a>
</g>
</g>
<!-- Node6&#45;&gt;Node8 -->
<g id="edge7" class="edge">
<title>Node6&#45;&gt;Node8</title>
<path fill="none" stroke="midnightblue" d="M285.74,-423.5C299.08,-410.75 317.23,-393.39 327.97,-383.13"/>
<polygon fill="midnightblue" stroke="midnightblue" points="282.98,-421.29 278.17,-430.73 287.82,-426.35 282.98,-421.29"/>
</g>
<!-- Node9 -->
<g id="node9" class="node">
<title>Node9</title>
<g id="a_node9"><a xlink:href="resharing_8h.html" target="_top" xlink:title=" ">
<polygon fill="white" stroke="black" points="551,-297 551,-316 667,-316 667,-297 551,-297"/>
<text text-anchor="middle" x="609" y="-304" font-family="Helvetica,sans-Serif" font-size="10.00">src/node/resharing.h</text>
</a>
</g>
</g>
<!-- Node6&#45;&gt;Node9 -->
<g id="edge8" class="edge">
<title>Node6&#45;&gt;Node9</title>
<path fill="none" stroke="midnightblue" d="M305.19,-427.38C329.91,-418.4 362.95,-404.97 390,-389 409.07,-377.74 409.28,-368.08 429,-358 470.18,-336.95 521.29,-323.69 558.51,-316.06"/>
<polygon fill="midnightblue" stroke="midnightblue" points="303.73,-424.19 295.49,-430.84 306.08,-430.78 303.73,-424.19"/>
</g>
<!-- Node14 -->
<g id="node14" class="node">
<title>Node14</title>
<g id="a_node14"><a xlink:href="member__frontend_8h.html" target="_top" xlink:title=" ">
<polygon fill="white" stroke="black" points="0,-291.5 0,-321.5 120,-321.5 120,-291.5 0,-291.5"/>
<text text-anchor="start" x="8" y="-309.5" font-family="Helvetica,sans-Serif" font-size="10.00">src/node/rpc/member</text>
<text text-anchor="middle" x="60" y="-298.5" font-family="Helvetica,sans-Serif" font-size="10.00">_frontend.h</text>
</a>
</g>
</g>
<!-- Node6&#45;&gt;Node14 -->
<g id="edge14" class="edge">
<title>Node6&#45;&gt;Node14</title>
<path fill="none" stroke="midnightblue" d="M196.66,-428.62C166.81,-421.3 133.35,-409.13 108,-389 85.63,-371.23 71.49,-339.96 64.73,-321.76"/>
<polygon fill="midnightblue" stroke="midnightblue" points="196.1,-432.08 206.63,-430.92 197.68,-425.26 196.1,-432.08"/>
</g>
<!-- Node15 -->
<g id="node15" class="node">
<title>Node15</title>
<g id="a_node15"><a xlink:href="serialization_8h.html" target="_top" xlink:title=" ">
<polygon fill="white" stroke="black" points="126,-364 126,-383 274,-383 274,-364 126,-364"/>
<text text-anchor="middle" x="200" y="-371" font-family="Helvetica,sans-Serif" font-size="10.00">src/node/rpc/serialization.h</text>
</a>
</g>
</g>
<!-- Node6&#45;&gt;Node15 -->
<g id="edge16" class="edge">
<title>Node6&#45;&gt;Node15</title>
<path fill="none" stroke="midnightblue" d="M252.39,-423.86C238.83,-411.08 220.16,-393.49 209.16,-383.13"/>
<polygon fill="midnightblue" stroke="midnightblue" points="250.02,-426.42 259.69,-430.73 254.82,-421.33 250.02,-426.42"/>
</g>
<!-- Node10 -->
<g id="node10" class="node">
<title>Node10</title>
<g id="a_node10"><a xlink:href="node__state_8h.html" target="_top" xlink:title=" ">
<polygon fill="white" stroke="black" points="503,-168.5 503,-187.5 627,-187.5 627,-168.5 503,-168.5"/>
<text text-anchor="middle" x="565" y="-175.5" font-family="Helvetica,sans-Serif" font-size="10.00">src/node/node_state.h</text>
</a>
</g>
</g>
<!-- Node9&#45;&gt;Node10 -->
<g id="edge9" class="edge">
<title>Node9&#45;&gt;Node10</title>
<path fill="none" stroke="midnightblue" d="M605.74,-286.57C602.53,-269.78 596.95,-244.79 589,-224 583.94,-210.77 575.83,-196.5 570.46,-187.66"/>
<polygon fill="midnightblue" stroke="midnightblue" points="602.36,-287.51 607.59,-296.72 609.24,-286.25 602.36,-287.51"/>
</g>
<!-- Node11 -->
<g id="node11" class="node">
<title>Node11</title>
<g id="a_node11"><a xlink:href="enclave_2enclave_8h.html" target="_top" xlink:title=" ">
<polygon fill="white" stroke="black" points="385,-56.5 385,-75.5 507,-75.5 507,-56.5 385,-56.5"/>
<text text-anchor="middle" x="446" y="-63.5" font-family="Helvetica,sans-Serif" font-size="10.00">src/enclave/enclave.h</text>
</a>
</g>
</g>
<!-- Node10&#45;&gt;Node11 -->
<g id="edge10" class="edge">
<title>Node10&#45;&gt;Node11</title>
<path fill="none" stroke="midnightblue" d="M533.08,-164.15C517,-156.54 498,-145.69 484,-132 466.81,-115.18 454.7,-88.96 449.25,-75.54"/>
<polygon fill="midnightblue" stroke="midnightblue" points="532.09,-167.54 542.64,-168.47 534.97,-161.16 532.09,-167.54"/>
</g>
<!-- Node13 -->
<g id="node13" class="node">
<title>Node13</title>
<g id="a_node13"><a xlink:href="gov__effects_8h.html" target="_top" xlink:title=" ">
<polygon fill="white" stroke="black" points="493,-112.5 493,-131.5 637,-131.5 637,-112.5 493,-112.5"/>
<text text-anchor="middle" x="565" y="-119.5" font-family="Helvetica,sans-Serif" font-size="10.00">src/node/rpc/gov_effects.h</text>
</a>
</g>
</g>
<!-- Node10&#45;&gt;Node13 -->
<g id="edge12" class="edge">
<title>Node10&#45;&gt;Node13</title>
<path fill="none" stroke="midnightblue" d="M565,-157.8C565,-148.91 565,-138.78 565,-131.75"/>
<polygon fill="midnightblue" stroke="midnightblue" points="561.5,-158.08 565,-168.08 568.5,-158.08 561.5,-158.08"/>
</g>
<!-- Node12 -->
<g id="node12" class="node">
<title>Node12</title>
<g id="a_node12"><a xlink:href="enclave_2main_8cpp.html" target="_top" xlink:title=" ">
<polygon fill="white" stroke="black" points="386,-0.5 386,-19.5 506,-19.5 506,-0.5 386,-0.5"/>
<text text-anchor="middle" x="446" y="-7.5" font-family="Helvetica,sans-Serif" font-size="10.00">src/enclave/main.cpp</text>
</a>
</g>
</g>
<!-- Node11&#45;&gt;Node12 -->
<g id="edge11" class="edge">
<title>Node11&#45;&gt;Node12</title>
<path fill="none" stroke="midnightblue" d="M446,-45.8C446,-36.91 446,-26.78 446,-19.75"/>
<polygon fill="midnightblue" stroke="midnightblue" points="442.5,-46.08 446,-56.08 449.5,-46.08 442.5,-46.08"/>
</g>
<!-- Node13&#45;&gt;Node11 -->
<g id="edge13" class="edge">
<title>Node13&#45;&gt;Node11</title>
<path fill="none" stroke="midnightblue" d="M536.86,-108.23C514.6,-98.13 484.14,-84.31 464.77,-75.52"/>
<polygon fill="midnightblue" stroke="midnightblue" points="535.59,-111.5 546.14,-112.44 538.48,-105.12 535.59,-111.5"/>
</g>
<!-- Node14&#45;&gt;Node11 -->
<g id="edge15" class="edge">
<title>Node14&#45;&gt;Node11</title>
<path fill="none" stroke="midnightblue" d="M91.27,-286.18C170.38,-237.3 376.12,-110.17 431.88,-75.72"/>
<polygon fill="midnightblue" stroke="midnightblue" points="89.37,-283.24 82.7,-291.47 93.05,-289.19 89.37,-283.24"/>
</g>
<!-- Node15&#45;&gt;Node7 -->
<g id="edge17" class="edge">
<title>Node15&#45;&gt;Node7</title>
<path fill="none" stroke="midnightblue" d="M200.59,-353.41C200.9,-343.22 201.28,-330.9 201.57,-321.59"/>
<polygon fill="midnightblue" stroke="midnightblue" points="197.08,-353.63 200.27,-363.73 204.08,-353.85 197.08,-353.63"/>
</g>
<!-- Node15&#45;&gt;Node9 -->
<g id="edge19" class="edge">
<title>Node15&#45;&gt;Node9</title>
<path fill="none" stroke="midnightblue" d="M257.34,-362.27C265.93,-360.8 274.7,-359.33 283,-358 392.1,-340.49 419.95,-339.86 529,-322 540.14,-320.18 552.14,-318.07 563.36,-316.05"/>
<polygon fill="midnightblue" stroke="midnightblue" points="256.62,-358.84 247.37,-363.99 257.82,-365.74 256.62,-358.84"/>
</g>
<!-- Node15&#45;&gt;Node10 -->
<g id="edge18" class="edge">
<title>Node15&#45;&gt;Node10</title>
<path fill="none" stroke="midnightblue" d="M220.79,-358.16C262.26,-329.97 358.82,-266.36 446,-224 476.59,-209.13 513.44,-195.87 537.95,-187.66"/>
<polygon fill="midnightblue" stroke="midnightblue" points="218.63,-355.4 212.35,-363.93 222.58,-361.18 218.63,-355.4"/>
</g>
<!-- Node15&#45;&gt;Node14 -->
<g id="edge20" class="edge">
<title>Node15&#45;&gt;Node14</title>
<path fill="none" stroke="midnightblue" d="M172.26,-359.62C148.58,-348.63 114.58,-332.84 90.21,-321.53"/>
<polygon fill="midnightblue" stroke="midnightblue" points="170.87,-362.83 181.41,-363.87 173.81,-356.48 170.87,-362.83"/>
</g>
<!-- Node16 -->
<g id="node16" class="node">
<title>Node16</title>
<g id="a_node16"><a xlink:href="node__frontend_8h.html" target="_top" xlink:title=" ">
<polygon fill="white" stroke="black" points="362,-297 362,-316 520,-316 520,-297 362,-297"/>
<text text-anchor="middle" x="441" y="-304" font-family="Helvetica,sans-Serif" font-size="10.00">src/node/rpc/node_frontend.h</text>
</a>
</g>
</g>
<!-- Node15&#45;&gt;Node16 -->
<g id="edge21" class="edge">
<title>Node15&#45;&gt;Node16</title>
<path fill="none" stroke="midnightblue" d="M241.7,-361.25C289.34,-348.41 366.23,-327.67 409.25,-316.06"/>
<polygon fill="midnightblue" stroke="midnightblue" points="240.75,-357.89 232,-363.87 242.57,-364.64 240.75,-357.89"/>
</g>
<!-- Node16&#45;&gt;Node11 -->
<g id="edge22" class="edge">
<title>Node16&#45;&gt;Node11</title>
<path fill="none" stroke="midnightblue" d="M441.39,-286.67C442.41,-238.1 445.1,-109.99 445.82,-75.6"/>
<polygon fill="midnightblue" stroke="midnightblue" points="437.89,-286.66 441.18,-296.73 444.89,-286.8 437.89,-286.66"/>
</g>
<!-- Node17 -->
<g id="node17" class="node">
<title>Node17</title>
<g id="a_node17"><a xlink:href="jwt__key__auto__refresh_8h.html" target="_top" xlink:title=" ">
<polygon fill="white" stroke="black" points="455.5,-224.5 455.5,-254.5 580.5,-254.5 580.5,-224.5 455.5,-224.5"/>
<text text-anchor="start" x="463.5" y="-242.5" font-family="Helvetica,sans-Serif" font-size="10.00">src/node/jwt_key_auto</text>
<text text-anchor="middle" x="518" y="-231.5" font-family="Helvetica,sans-Serif" font-size="10.00">_refresh.h</text>
</a>
</g>
</g>
<!-- Node16&#45;&gt;Node17 -->
<g id="edge23" class="edge">
<title>Node16&#45;&gt;Node17</title>
<path fill="none" stroke="midnightblue" d="M459.08,-290.24C471.86,-279.45 488.86,-265.1 501.31,-254.59"/>
<polygon fill="midnightblue" stroke="midnightblue" points="456.77,-287.61 451.38,-296.73 461.28,-292.96 456.77,-287.61"/>
</g>
<!-- Node17&#45;&gt;Node10 -->
<g id="edge24" class="edge">
<title>Node17&#45;&gt;Node10</title>
<path fill="none" stroke="midnightblue" d="M535.45,-216.4C543.35,-206.41 552.22,-195.18 558.16,-187.66"/>
<polygon fill="midnightblue" stroke="midnightblue" points="532.59,-214.38 529.14,-224.4 538.08,-218.72 532.59,-214.38"/>
</g>
<!-- Node19 -->
<g id="node19" class="node">
<title>Node19</title>
<g id="a_node19"><a xlink:href="request__message_8h.html" target="_top" xlink:title=" ">
<polygon fill="white" stroke="black" points="866.5,-425.5 866.5,-455.5 991.5,-455.5 991.5,-425.5 866.5,-425.5"/>
<text text-anchor="start" x="874.5" y="-443.5" font-family="Helvetica,sans-Serif" font-size="10.00">src/consensus/aft/impl</text>
<text text-anchor="middle" x="929" y="-432.5" font-family="Helvetica,sans-Serif" font-size="10.00">/request_message.h</text>
</a>
</g>
</g>
<!-- Node18&#45;&gt;Node19 -->
<g id="edge26" class="edge">
<title>Node18&#45;&gt;Node19</title>
<path fill="none" stroke="midnightblue" d="M803.06,-488.82C830.87,-478.37 865.59,-465.32 891.53,-455.58"/>
<polygon fill="midnightblue" stroke="midnightblue" points="801.67,-485.6 793.54,-492.4 804.13,-492.16 801.67,-485.6"/>
</g>
<!-- Node20 -->
<g id="node20" class="node">
<title>Node20</title>
<g id="a_node20"><a xlink:href="state_8h.html" target="_top" xlink:title=" ">
<polygon fill="white" stroke="black" points="559.5,-358.5 559.5,-388.5 684.5,-388.5 684.5,-358.5 559.5,-358.5"/>
<text text-anchor="start" x="567.5" y="-376.5" font-family="Helvetica,sans-Serif" font-size="10.00">src/consensus/aft/impl</text>
<text text-anchor="middle" x="622" y="-365.5" font-family="Helvetica,sans-Serif" font-size="10.00">/state.h</text>
</a>
</g>
</g>
<!-- Node18&#45;&gt;Node20 -->
<g id="edge27" class="edge">
<title>Node18&#45;&gt;Node20</title>
<path fill="none" stroke="midnightblue" d="M739.21,-484.23C725.9,-467.2 706.37,-443.57 687,-425 672.97,-411.55 655.5,-398.14 642.21,-388.52"/>
<polygon fill="midnightblue" stroke="midnightblue" points="736.69,-486.69 745.57,-492.47 742.23,-482.42 736.69,-486.69"/>
</g>
<!-- Node21 -->
<g id="node21" class="node">
<title>Node21</title>
<g id="a_node21"><a xlink:href="raft_8h.html" target="_top" xlink:title=" ">
<polygon fill="white" stroke="black" points="773.5,-297 773.5,-316 902.5,-316 902.5,-297 773.5,-297"/>
<text text-anchor="middle" x="838" y="-304" font-family="Helvetica,sans-Serif" font-size="10.00">src/consensus/aft/raft.h</text>
</a>
</g>
</g>
<!-- Node18&#45;&gt;Node21 -->
<g id="edge31" class="edge">
<title>Node18&#45;&gt;Node21</title>
<path fill="none" stroke="midnightblue" d="M770.67,-483.54C784.83,-460.46 806.01,-423.45 819,-389 828.64,-363.44 834.37,-331.47 836.73,-316.29"/>
<polygon fill="midnightblue" stroke="midnightblue" points="767.56,-481.91 765.25,-492.25 773.5,-485.61 767.56,-481.91"/>
</g>
<!-- Node22 -->
<g id="node22" class="node">
<title>Node22</title>
<g id="a_node22"><a xlink:href="node__connections_8h.html" target="_top" xlink:title=" ">
<polygon fill="white" stroke="black" points="522.5,-431 522.5,-450 677.5,-450 677.5,-431 522.5,-431"/>
<text text-anchor="middle" x="600" y="-438" font-family="Helvetica,sans-Serif" font-size="10.00">src/host/node_connections.h</text>
</a>
</g>
</g>
<!-- Node18&#45;&gt;Node22 -->
<g id="edge32" class="edge">
<title>Node18&#45;&gt;Node22</title>
<path fill="none" stroke="midnightblue" d="M712.7,-488.46C682.56,-475.9 643.74,-459.72 620.42,-450.01"/>
<polygon fill="midnightblue" stroke="midnightblue" points="711.57,-491.78 722.15,-492.4 714.27,-485.32 711.57,-491.78"/>
</g>
<!-- Node23 -->
<g id="node23" class="node">
<title>Node23</title>
<g id="a_node23"><a xlink:href="node__client_8h.html" target="_top" xlink:title=" ">
<polygon fill="white" stroke="black" points="1010,-431 1010,-450 1136,-450 1136,-431 1010,-431"/>
<text text-anchor="middle" x="1073" y="-438" font-family="Helvetica,sans-Serif" font-size="10.00">src/node/node_client.h</text>
</a>
</g>
</g>
<!-- Node18&#45;&gt;Node23 -->
<g id="edge34" class="edge">
<title>Node18&#45;&gt;Node23</title>
<path fill="none" stroke="midnightblue" d="M826.23,-492.1C889.19,-479.19 979.42,-460.69 1031.54,-450"/>
<polygon fill="midnightblue" stroke="midnightblue" points="825.46,-488.68 816.37,-494.12 826.87,-495.54 825.46,-488.68"/>
</g>
<!-- Node27 -->
<g id="node27" class="node">
<title>Node27</title>
<g id="a_node27"><a xlink:href="resharing__tracker_8h.html" target="_top" xlink:title=" ">
<polygon fill="white" stroke="black" points="702.5,-358.5 702.5,-388.5 809.5,-388.5 809.5,-358.5 702.5,-358.5"/>
<text text-anchor="start" x="710.5" y="-376.5" font-family="Helvetica,sans-Serif" font-size="10.00">src/node/resharing</text>
<text text-anchor="middle" x="756" y="-365.5" font-family="Helvetica,sans-Serif" font-size="10.00">_tracker.h</text>
</a>
</g>
</g>
<!-- Node18&#45;&gt;Node27 -->
<g id="edge43" class="edge">
<title>Node18&#45;&gt;Node27</title>
<path fill="none" stroke="midnightblue" d="M756,-482.02C756,-454.51 756,-410.79 756,-388.52"/>
<polygon fill="midnightblue" stroke="midnightblue" points="752.5,-482.37 756,-492.37 759.5,-482.37 752.5,-482.37"/>
</g>
<!-- Node20&#45;&gt;Node9 -->
<g id="edge30" class="edge">
<title>Node20&#45;&gt;Node9</title>
<path fill="none" stroke="midnightblue" d="M617.15,-348.25C614.9,-337.02 612.38,-324.38 610.74,-316.19"/>
<polygon fill="midnightblue" stroke="midnightblue" points="613.79,-349.28 619.18,-358.4 620.65,-347.9 613.79,-349.28"/>
</g>
<!-- Node20&#45;&gt;Node21 -->
<g id="edge28" class="edge">
<title>Node20&#45;&gt;Node21</title>
<path fill="none" stroke="midnightblue" d="M678.19,-355.59C720.38,-342.9 776.38,-326.04 809.66,-316.03"/>
<polygon fill="midnightblue" stroke="midnightblue" points="677.17,-352.24 668.6,-358.48 679.19,-358.95 677.17,-352.24"/>
</g>
<!-- Node21&#45;&gt;Node10 -->
<g id="edge29" class="edge">
<title>Node21&#45;&gt;Node10</title>
<path fill="none" stroke="midnightblue" d="M809.94,-292.5C754.12,-266.63 630.45,-209.33 583.53,-187.59"/>
<polygon fill="midnightblue" stroke="midnightblue" points="808.69,-295.78 819.24,-296.81 811.63,-289.43 808.69,-295.78"/>
</g>
<!-- Node22&#45;&gt;Node4 -->
<g id="edge33" class="edge">
<title>Node22&#45;&gt;Node4</title>
<path fill="none" stroke="midnightblue" d="M576.5,-425.62C554.71,-412.74 522.96,-393.98 504.6,-383.13"/>
<polygon fill="midnightblue" stroke="midnightblue" points="574.78,-428.66 585.16,-430.73 578.34,-422.63 574.78,-428.66"/>
</g>
<!-- Node23&#45;&gt;Node21 -->
<g id="edge38" class="edge">
<title>Node23&#45;&gt;Node21</title>
<path fill="none" stroke="midnightblue" d="M1061.04,-422.71C1047.13,-404.35 1022.53,-375.23 995,-358 960.9,-336.66 916.94,-323.53 884.21,-316.03"/>
<polygon fill="midnightblue" stroke="midnightblue" points="1058.22,-424.79 1066.97,-430.77 1063.86,-420.64 1058.22,-424.79"/>
</g>
<!-- Node24 -->
<g id="node24" class="node">
<title>Node24</title>
<g id="a_node24"><a xlink:href="orc__requests_8h.html" target="_top" xlink:title=" ">
<polygon fill="white" stroke="black" points="866.5,-358.5 866.5,-388.5 985.5,-388.5 985.5,-358.5 866.5,-358.5"/>
<text text-anchor="start" x="874.5" y="-376.5" font-family="Helvetica,sans-Serif" font-size="10.00">src/consensus/aft/orc</text>
<text text-anchor="middle" x="926" y="-365.5" font-family="Helvetica,sans-Serif" font-size="10.00">_requests.h</text>
</a>
</g>
</g>
<!-- Node23&#45;&gt;Node24 -->
<g id="edge35" class="edge">
<title>Node23&#45;&gt;Node24</title>
<path fill="none" stroke="midnightblue" d="M1044.2,-426.77C1019.32,-415.77 983.42,-399.89 957.73,-388.53"/>
<polygon fill="midnightblue" stroke="midnightblue" points="1042.92,-430.03 1053.48,-430.87 1045.75,-423.62 1042.92,-430.03"/>
</g>
<!-- Node25 -->
<g id="node25" class="node">
<title>Node25</title>
<g id="a_node25"><a xlink:href="http__node__client_8h.html" target="_top" xlink:title=" ">
<polygon fill="white" stroke="black" points="947,-224.5 947,-254.5 1057,-254.5 1057,-224.5 947,-224.5"/>
<text text-anchor="start" x="955" y="-242.5" font-family="Helvetica,sans-Serif" font-size="10.00">src/node/http_node</text>
<text text-anchor="middle" x="1002" y="-231.5" font-family="Helvetica,sans-Serif" font-size="10.00">_client.h</text>
</a>
</g>
</g>
<!-- Node23&#45;&gt;Node25 -->
<g id="edge39" class="edge">
<title>Node23&#45;&gt;Node25</title>
<path fill="none" stroke="midnightblue" d="M1124.67,-427.74C1145.25,-420.25 1166.88,-408.2 1179,-389 1186.35,-377.35 1185.51,-370.14 1179,-358 1150.49,-304.86 1086.2,-271.67 1043.46,-254.62"/>
<polygon fill="midnightblue" stroke="midnightblue" points="1123.39,-424.47 1115.02,-430.96 1125.61,-431.11 1123.39,-424.47"/>
</g>
<!-- Node26 -->
<g id="node26" class="node">
<title>Node26</title>
<g id="a_node26"><a xlink:href="retired__nodes__cleanup_8h.html" target="_top" xlink:title=" ">
<polygon fill="white" stroke="black" points="1042,-358.5 1042,-388.5 1170,-388.5 1170,-358.5 1042,-358.5"/>
<text text-anchor="start" x="1050" y="-376.5" font-family="Helvetica,sans-Serif" font-size="10.00">src/node/retired_nodes</text>
<text text-anchor="middle" x="1106" y="-365.5" font-family="Helvetica,sans-Serif" font-size="10.00">_cleanup.h</text>
</a>
</g>
</g>
<!-- Node23&#45;&gt;Node26 -->
<g id="edge41" class="edge">
<title>Node23&#45;&gt;Node26</title>
<path fill="none" stroke="midnightblue" d="M1082.03,-421.71C1087.32,-411.29 1093.92,-398.3 1098.85,-388.59"/>
<polygon fill="midnightblue" stroke="midnightblue" points="1078.86,-420.23 1077.45,-430.73 1085.1,-423.4 1078.86,-420.23"/>
</g>
<!-- Node24&#45;&gt;Node16 -->
<g id="edge37" class="edge">
<title>Node24&#45;&gt;Node16</title>
<path fill="none" stroke="midnightblue" d="M856.05,-362.96C843.71,-361.3 830.98,-359.59 819,-358 695.93,-341.66 665,-338.82 542,-322 528.22,-320.12 513.4,-318.02 499.46,-316.03"/>
<polygon fill="midnightblue" stroke="midnightblue" points="855.92,-366.48 866.3,-364.35 856.86,-359.54 855.92,-366.48"/>
</g>
<!-- Node24&#45;&gt;Node21 -->
<g id="edge36" class="edge">
<title>Node24&#45;&gt;Node21</title>
<path fill="none" stroke="midnightblue" d="M898.66,-352.31C882.14,-340.1 861.93,-325.18 849.52,-316.01"/>
<polygon fill="midnightblue" stroke="midnightblue" points="896.78,-355.27 906.91,-358.4 900.94,-349.64 896.78,-355.27"/>
</g>
<!-- Node25&#45;&gt;Node10 -->
<g id="edge40" class="edge">
<title>Node25&#45;&gt;Node10</title>
<path fill="none" stroke="midnightblue" d="M936.52,-229.58C852.92,-218.2 709.32,-198.65 627.29,-187.48"/>
<polygon fill="midnightblue" stroke="midnightblue" points="936.27,-233.08 946.65,-230.96 937.22,-226.15 936.27,-233.08"/>
</g>
<!-- Node26&#45;&gt;Node21 -->
<g id="edge42" class="edge">
<title>Node26&#45;&gt;Node21</title>
<path fill="none" stroke="midnightblue" d="M1038.26,-356.07C985.7,-343.32 914.98,-326.17 873.16,-316.03"/>
<polygon fill="midnightblue" stroke="midnightblue" points="1037.63,-359.52 1048.18,-358.48 1039.28,-352.72 1037.63,-359.52"/>
</g>
<!-- Node27&#45;&gt;Node9 -->
<g id="edge45" class="edge">
<title>Node27&#45;&gt;Node9</title>
<path fill="none" stroke="midnightblue" d="M714.83,-354.3C686.48,-341.76 650.12,-325.68 628.24,-316.01"/>
<polygon fill="midnightblue" stroke="midnightblue" points="713.54,-357.55 724.1,-358.4 716.37,-351.15 713.54,-357.55"/>
</g>
<!-- Node27&#45;&gt;Node21 -->
<g id="edge44" class="edge">
<title>Node27&#45;&gt;Node21</title>
<path fill="none" stroke="midnightblue" d="M781.85,-352.01C797.07,-339.94 815.54,-325.3 827.03,-316.19"/>
<polygon fill="midnightblue" stroke="midnightblue" points="779.46,-349.44 773.79,-358.4 783.8,-354.93 779.46,-349.44"/>
</g>
</g>
</svg>
