<?xml version="1.0" encoding="UTF-8" standalone="no"?>
<!DOCTYPE svg PUBLIC "-//W3C//DTD SVG 1.1//EN"
 "http://www.w3.org/Graphics/SVG/1.1/DTD/svg11.dtd">
<!-- Generated by graphviz version 2.43.0 (0)
 -->
<!-- Title: src/tls/context.h Pages: 1 -->
<!--zoomable 945 -->
<svg id="main" version="1.1" xmlns="http://www.w3.org/2000/svg" xmlns:xlink="http://www.w3.org/1999/xlink" xml:space="preserve" onload="init(evt)">
<style type="text/css"><![CDATA[
.edge:hover path { stroke: red; }
.edge:hover polygon { stroke: red; fill: red; }
]]></style>
<script type="text/javascript"><![CDATA[
var edges = document.getElementsByTagName('g');
if (edges && edges.length) {
  for (var i=0;i<edges.length;i++) {
    if (edges[i].id.substr(0,4)=='edge') {
      edges[i].setAttribute('class','edge');
    }
  }
}
]]></script>
        <defs>
                <circle id="rim" cx="0" cy="0" r="7"/>
                <circle id="rim2" cx="0" cy="0" r="3.5"/>
                <g id="zoomPlus">
                        <use xlink:href="#rim" fill="#404040">
                                <set attributeName="fill" to="#808080" begin="zoomplus.mouseover" end="zoomplus.mouseout"/>
                        </use>
                        <path d="M-4,0h8M0,-4v8" fill="none" stroke="white" stroke-width="1.5" pointer-events="none"/>
                </g>
                <g id="zoomMin">
                        <use xlink:href="#rim" fill="#404040">
                                <set attributeName="fill" to="#808080" begin="zoomminus.mouseover" end="zoomminus.mouseout"/>
                        </use>
                        <path d="M-4,0h8" fill="none" stroke="white" stroke-width="1.5" pointer-events="none"/>
                </g>
                <g id="dirArrow">
                        <path fill="none" stroke="white" stroke-width="1.5" d="M0,-3.0v7 M-2.5,-0.5L0,-3.0L2.5,-0.5"/>
                </g>
               <g id="resetDef">
                       <use xlink:href="#rim2" fill="#404040">
                               <set attributeName="fill" to="#808080" begin="reset.mouseover" end="reset.mouseout"/>
                       </use>
               </g>
        </defs>

<script type="text/javascript">
var viewWidth = 1109;
var viewHeight = 945;
var sectionId = 'dynsection-1';
</script>
<script xlink:href="svgpan.js"/>
<svg id="graph" class="graph">
<g id="viewport">
<title>src/tls/context.h</title>
<polygon fill="white" stroke="transparent" points="-4,4 -4,-941 1104.5,-941 1104.5,4 -4,4"/>
<!-- Node1 -->
<g id="node1" class="node">
<title>Node1</title>
<g id="a_node1"><a xlink:title=" ">
<polygon fill="#bfbfbf" stroke="black" points="900,-917.5 900,-936.5 995,-936.5 995,-917.5 900,-917.5"/>
<text text-anchor="middle" x="947.5" y="-924.5" font-family="Helvetica,sans-Serif" font-size="10.00">src/tls/context.h</text>
</a>
</g>
</g>
<!-- Node2 -->
<g id="node2" class="node">
<title>Node2</title>
<g id="a_node2"><a xlink:href="rpc__sessions_8h.html" target="_top" xlink:title=" ">
<polygon fill="white" stroke="black" points="881.5,-498 881.5,-517 1027.5,-517 1027.5,-498 881.5,-498"/>
<text text-anchor="middle" x="954.5" y="-505" font-family="Helvetica,sans-Serif" font-size="10.00">src/enclave/rpc_sessions.h</text>
</a>
</g>
</g>
<!-- Node1&#45;&gt;Node2 -->
<g id="edge1" class="edge">
<title>Node1&#45;&gt;Node2</title>
<path fill="none" stroke="midnightblue" d="M952.72,-907.39C958.34,-885.65 966.5,-848.51 966.5,-816 966.5,-816 966.5,-816 966.5,-629.5 966.5,-587.28 959.18,-537.18 955.97,-517.28"/>
<polygon fill="midnightblue" stroke="midnightblue" points="949.28,-906.68 950.06,-917.25 956.04,-908.5 949.28,-906.68"/>
</g>
<!-- Node15 -->
<g id="node15" class="node">
<title>Node15</title>
<g id="a_node15"><a xlink:href="tls__endpoint_8h.html" target="_top" xlink:title=" ">
<polygon fill="white" stroke="black" points="613.5,-861.5 613.5,-880.5 757.5,-880.5 757.5,-861.5 613.5,-861.5"/>
<text text-anchor="middle" x="685.5" y="-868.5" font-family="Helvetica,sans-Serif" font-size="10.00">src/enclave/tls_endpoint.h</text>
</a>
</g>
</g>
<!-- Node1&#45;&gt;Node15 -->
<g id="edge23" class="edge">
<title>Node1&#45;&gt;Node15</title>
<path fill="none" stroke="midnightblue" d="M896.12,-915.41C846.6,-905.2 772.64,-889.96 726.82,-880.52"/>
<polygon fill="midnightblue" stroke="midnightblue" points="895.48,-918.85 905.99,-917.44 896.9,-912 895.48,-918.85"/>
</g>
<!-- Node34 -->
<g id="node34" class="node">
<title>Node34</title>
<g id="a_node34"><a xlink:href="client_8h.html" target="_top" xlink:title=" ">
<polygon fill="white" stroke="black" points="995,-559.5 995,-578.5 1080,-578.5 1080,-559.5 995,-559.5"/>
<text text-anchor="middle" x="1037.5" y="-566.5" font-family="Helvetica,sans-Serif" font-size="10.00">src/tls/client.h</text>
</a>
</g>
</g>
<!-- Node1&#45;&gt;Node34 -->
<g id="edge55" class="edge">
<title>Node1&#45;&gt;Node34</title>
<path fill="none" stroke="midnightblue" d="M966.25,-910.68C987.88,-891.16 1020.5,-855.22 1020.5,-816 1020.5,-816 1020.5,-816 1020.5,-696.5 1020.5,-651.74 1031.08,-598.85 1035.55,-578.54"/>
<polygon fill="midnightblue" stroke="midnightblue" points="963.85,-908.13 958.59,-917.33 968.43,-913.42 963.85,-908.13"/>
</g>
<!-- Node35 -->
<g id="node35" class="node">
<title>Node35</title>
<g id="a_node35"><a xlink:href="server_8h.html" target="_top" xlink:title=" ">
<polygon fill="white" stroke="black" points="850.5,-805.5 850.5,-824.5 938.5,-824.5 938.5,-805.5 850.5,-805.5"/>
<text text-anchor="middle" x="894.5" y="-812.5" font-family="Helvetica,sans-Serif" font-size="10.00">src/tls/server.h</text>
</a>
</g>
</g>
<!-- Node1&#45;&gt;Node35 -->
<g id="edge58" class="edge">
<title>Node1&#45;&gt;Node35</title>
<path fill="none" stroke="midnightblue" d="M938.98,-908.32C927.44,-884.37 907.29,-842.55 898.64,-824.59"/>
<polygon fill="midnightblue" stroke="midnightblue" points="935.85,-909.88 943.34,-917.37 942.15,-906.84 935.85,-909.88"/>
</g>
<!-- Node3 -->
<g id="node3" class="node">
<title>Node3</title>
<g id="a_node3"><a xlink:href="enclave_2enclave_8h.html" target="_top" xlink:title=" ">
<polygon fill="white" stroke="black" points="464.5,-56.5 464.5,-75.5 586.5,-75.5 586.5,-56.5 464.5,-56.5"/>
<text text-anchor="middle" x="525.5" y="-63.5" font-family="Helvetica,sans-Serif" font-size="10.00">src/enclave/enclave.h</text>
</a>
</g>
</g>
<!-- Node2&#45;&gt;Node3 -->
<g id="edge2" class="edge">
<title>Node2&#45;&gt;Node3</title>
<path fill="none" stroke="midnightblue" d="M977.77,-492.35C1009.52,-471.07 1062.5,-427.59 1062.5,-374.5 1062.5,-374.5 1062.5,-374.5 1062.5,-182.5 1062.5,-86.07 727.33,-69.91 586.58,-67.38"/>
<polygon fill="midnightblue" stroke="midnightblue" points="975.55,-489.62 969.07,-497.99 979.36,-495.49 975.55,-489.62"/>
</g>
<!-- Node5 -->
<g id="node5" class="node">
<title>Node5</title>
<g id="a_node5"><a xlink:href="node__client_8h.html" target="_top" xlink:title=" ">
<polygon fill="white" stroke="black" points="749.5,-431 749.5,-450 875.5,-450 875.5,-431 749.5,-431"/>
<text text-anchor="middle" x="812.5" y="-438" font-family="Helvetica,sans-Serif" font-size="10.00">src/node/node_client.h</text>
</a>
</g>
</g>
<!-- Node2&#45;&gt;Node5 -->
<g id="edge4" class="edge">
<title>Node2&#45;&gt;Node5</title>
<path fill="none" stroke="midnightblue" d="M926.35,-493.61C898.22,-480.74 855.77,-461.31 831.43,-450.17"/>
<polygon fill="midnightblue" stroke="midnightblue" points="925.09,-496.89 935.64,-497.87 928.01,-490.52 925.09,-496.89"/>
</g>
<!-- Node8 -->
<g id="node8" class="node">
<title>Node8</title>
<g id="a_node8"><a xlink:href="node__state_8h.html" target="_top" xlink:title=" ">
<polygon fill="white" stroke="black" points="662.5,-174 662.5,-193 786.5,-193 786.5,-174 662.5,-174"/>
<text text-anchor="middle" x="724.5" y="-181" font-family="Helvetica,sans-Serif" font-size="10.00">src/node/node_state.h</text>
</a>
</g>
</g>
<!-- Node2&#45;&gt;Node8 -->
<g id="edge20" class="edge">
<title>Node2&#45;&gt;Node8</title>
<path fill="none" stroke="midnightblue" d="M954.31,-487.82C952.8,-439.31 942.05,-308.01 871.5,-235 849.19,-211.91 815.85,-199.37 786.57,-192.57"/>
<polygon fill="midnightblue" stroke="midnightblue" points="950.81,-487.9 954.52,-497.82 957.81,-487.75 950.81,-487.9"/>
</g>
<!-- Node14 -->
<g id="node14" class="node">
<title>Node14</title>
<g id="a_node14"><a xlink:href="resharing_8h.html" target="_top" xlink:title=" ">
<polygon fill="white" stroke="black" points="918.5,-241 918.5,-260 1034.5,-260 1034.5,-241 918.5,-241"/>
<text text-anchor="middle" x="976.5" y="-248" font-family="Helvetica,sans-Serif" font-size="10.00">src/node/resharing.h</text>
</a>
</g>
</g>
<!-- Node2&#45;&gt;Node14 -->
<g id="edge21" class="edge">
<title>Node2&#45;&gt;Node14</title>
<path fill="none" stroke="midnightblue" d="M956.12,-487.75C960.52,-436.71 972.61,-296.65 975.75,-260.24"/>
<polygon fill="midnightblue" stroke="midnightblue" points="952.63,-487.46 955.26,-497.72 959.6,-488.06 952.63,-487.46"/>
</g>
<!-- Node4 -->
<g id="node4" class="node">
<title>Node4</title>
<g id="a_node4"><a xlink:href="enclave_2main_8cpp.html" target="_top" xlink:title=" ">
<polygon fill="white" stroke="black" points="465.5,-0.5 465.5,-19.5 585.5,-19.5 585.5,-0.5 465.5,-0.5"/>
<text text-anchor="middle" x="525.5" y="-7.5" font-family="Helvetica,sans-Serif" font-size="10.00">src/enclave/main.cpp</text>
</a>
</g>
</g>
<!-- Node3&#45;&gt;Node4 -->
<g id="edge3" class="edge">
<title>Node3&#45;&gt;Node4</title>
<path fill="none" stroke="midnightblue" d="M525.5,-45.8C525.5,-36.91 525.5,-26.78 525.5,-19.75"/>
<polygon fill="midnightblue" stroke="midnightblue" points="522,-46.08 525.5,-56.08 529,-46.08 522,-46.08"/>
</g>
<!-- Node6 -->
<g id="node6" class="node">
<title>Node6</title>
<g id="a_node6"><a xlink:href="orc__requests_8h.html" target="_top" xlink:title=" ">
<polygon fill="white" stroke="black" points="573,-358.5 573,-388.5 692,-388.5 692,-358.5 573,-358.5"/>
<text text-anchor="start" x="581" y="-376.5" font-family="Helvetica,sans-Serif" font-size="10.00">src/consensus/aft/orc</text>
<text text-anchor="middle" x="632.5" y="-365.5" font-family="Helvetica,sans-Serif" font-size="10.00">_requests.h</text>
</a>
</g>
</g>
<!-- Node5&#45;&gt;Node6 -->
<g id="edge5" class="edge">
<title>Node5&#45;&gt;Node6</title>
<path fill="none" stroke="midnightblue" d="M778.84,-427.35C748.33,-416.33 703.37,-400.09 671.35,-388.53"/>
<polygon fill="midnightblue" stroke="midnightblue" points="778,-430.76 788.6,-430.87 780.38,-424.18 778,-430.76"/>
</g>
<!-- Node7 -->
<g id="node7" class="node">
<title>Node7</title>
<g id="a_node7"><a xlink:href="raft_8h.html" target="_top" xlink:title=" ">
<polygon fill="white" stroke="black" points="661,-302.5 661,-321.5 790,-321.5 790,-302.5 661,-302.5"/>
<text text-anchor="middle" x="725.5" y="-309.5" font-family="Helvetica,sans-Serif" font-size="10.00">src/consensus/aft/raft.h</text>
</a>
</g>
</g>
<!-- Node5&#45;&gt;Node7 -->
<g id="edge15" class="edge">
<title>Node5&#45;&gt;Node7</title>
<path fill="none" stroke="midnightblue" d="M782.95,-426.08C767.62,-417.61 749.96,-405.18 739.5,-389 725.81,-367.82 724.68,-336.76 725.04,-321.75"/>
<polygon fill="midnightblue" stroke="midnightblue" points="781.62,-429.33 792.11,-430.85 784.85,-423.12 781.62,-429.33"/>
</g>
<!-- Node12 -->
<g id="node12" class="node">
<title>Node12</title>
<g id="a_node12"><a xlink:href="http__node__client_8h.html" target="_top" xlink:title=" ">
<polygon fill="white" stroke="black" points="752.5,-235.5 752.5,-265.5 862.5,-265.5 862.5,-235.5 752.5,-235.5"/>
<text text-anchor="start" x="760.5" y="-253.5" font-family="Helvetica,sans-Serif" font-size="10.00">src/node/http_node</text>
<text text-anchor="middle" x="807.5" y="-242.5" font-family="Helvetica,sans-Serif" font-size="10.00">_client.h</text>
</a>
</g>
</g>
<!-- Node5&#45;&gt;Node12 -->
<g id="edge16" class="edge">
<title>Node5&#45;&gt;Node12</title>
<path fill="none" stroke="midnightblue" d="M844.18,-426.28C859.63,-418.01 876.73,-405.73 885.5,-389 891.9,-376.8 889.78,-371.1 885.5,-358 873.1,-320.1 841.53,-284.52 822.57,-265.61"/>
<polygon fill="midnightblue" stroke="midnightblue" points="842.26,-423.32 834.86,-430.91 845.37,-429.59 842.26,-423.32"/>
</g>
<!-- Node13 -->
<g id="node13" class="node">
<title>Node13</title>
<g id="a_node13"><a xlink:href="retired__nodes__cleanup_8h.html" target="_top" xlink:title=" ">
<polygon fill="white" stroke="black" points="748.5,-358.5 748.5,-388.5 876.5,-388.5 876.5,-358.5 748.5,-358.5"/>
<text text-anchor="start" x="756.5" y="-376.5" font-family="Helvetica,sans-Serif" font-size="10.00">src/node/retired_nodes</text>
<text text-anchor="middle" x="812.5" y="-365.5" font-family="Helvetica,sans-Serif" font-size="10.00">_cleanup.h</text>
</a>
</g>
</g>
<!-- Node5&#45;&gt;Node13 -->
<g id="edge18" class="edge">
<title>Node5&#45;&gt;Node13</title>
<path fill="none" stroke="midnightblue" d="M812.5,-420.41C812.5,-410.22 812.5,-397.9 812.5,-388.59"/>
<polygon fill="midnightblue" stroke="midnightblue" points="809,-420.73 812.5,-430.73 816,-420.73 809,-420.73"/>
</g>
<!-- Node6&#45;&gt;Node7 -->
<g id="edge6" class="edge">
<title>Node6&#45;&gt;Node7</title>
<path fill="none" stroke="midnightblue" d="M663.33,-352.78C679.81,-342.23 699.27,-329.78 711.97,-321.66"/>
<polygon fill="midnightblue" stroke="midnightblue" points="661.08,-350.06 654.54,-358.4 664.85,-355.96 661.08,-350.06"/>
</g>
<!-- Node10 -->
<g id="node10" class="node">
<title>Node10</title>
<g id="a_node10"><a xlink:href="node__frontend_8h.html" target="_top" xlink:title=" ">
<polygon fill="white" stroke="black" points="446.5,-302.5 446.5,-321.5 604.5,-321.5 604.5,-302.5 446.5,-302.5"/>
<text text-anchor="middle" x="525.5" y="-309.5" font-family="Helvetica,sans-Serif" font-size="10.00">src/node/rpc/node_frontend.h</text>
</a>
</g>
</g>
<!-- Node6&#45;&gt;Node10 -->
<g id="edge11" class="edge">
<title>Node6&#45;&gt;Node10</title>
<path fill="none" stroke="midnightblue" d="M598.34,-353.51C579.11,-342.81 556.02,-329.97 541.07,-321.66"/>
<polygon fill="midnightblue" stroke="midnightblue" points="596.7,-356.6 607.14,-358.4 600.1,-350.48 596.7,-356.6"/>
</g>
<!-- Node7&#45;&gt;Node8 -->
<g id="edge7" class="edge">
<title>Node7&#45;&gt;Node8</title>
<path fill="none" stroke="midnightblue" d="M725.35,-291.94C725.13,-264.12 724.73,-213.54 724.57,-193.26"/>
<polygon fill="midnightblue" stroke="midnightblue" points="721.85,-292.33 725.43,-302.31 728.85,-292.28 721.85,-292.33"/>
</g>
<!-- Node8&#45;&gt;Node3 -->
<g id="edge8" class="edge">
<title>Node8&#45;&gt;Node3</title>
<path fill="none" stroke="midnightblue" d="M692.64,-170.09C669.96,-160.77 639.09,-147.05 613.5,-132 583.54,-114.38 551.44,-88.74 535.58,-75.54"/>
<polygon fill="midnightblue" stroke="midnightblue" points="691.54,-173.43 702.13,-173.94 694.17,-166.94 691.54,-173.43"/>
</g>
<!-- Node9 -->
<g id="node9" class="node">
<title>Node9</title>
<g id="a_node9"><a xlink:href="gov__effects_8h.html" target="_top" xlink:title=" ">
<polygon fill="white" stroke="black" points="622.5,-112.5 622.5,-131.5 766.5,-131.5 766.5,-112.5 622.5,-112.5"/>
<text text-anchor="middle" x="694.5" y="-119.5" font-family="Helvetica,sans-Serif" font-size="10.00">src/node/rpc/gov_effects.h</text>
</a>
</g>
</g>
<!-- Node8&#45;&gt;Node9 -->
<g id="edge9" class="edge">
<title>Node8&#45;&gt;Node9</title>
<path fill="none" stroke="midnightblue" d="M715.59,-164.83C710.04,-153.83 703.15,-140.16 698.79,-131.51"/>
<polygon fill="midnightblue" stroke="midnightblue" points="712.57,-166.62 720.2,-173.98 718.82,-163.47 712.57,-166.62"/>
</g>
<!-- Node9&#45;&gt;Node3 -->
<g id="edge10" class="edge">
<title>Node9&#45;&gt;Node3</title>
<path fill="none" stroke="midnightblue" d="M657.9,-109.3C626.05,-99.13 580.66,-84.62 552.15,-75.52"/>
<polygon fill="midnightblue" stroke="midnightblue" points="657.13,-112.73 667.72,-112.44 659.26,-106.07 657.13,-112.73"/>
</g>
<!-- Node10&#45;&gt;Node3 -->
<g id="edge12" class="edge">
<title>Node10&#45;&gt;Node3</title>
<path fill="none" stroke="midnightblue" d="M525.5,-292.09C525.5,-242.57 525.5,-110.52 525.5,-75.58"/>
<polygon fill="midnightblue" stroke="midnightblue" points="522,-292.32 525.5,-302.32 529,-292.32 522,-292.32"/>
</g>
<!-- Node11 -->
<g id="node11" class="node">
<title>Node11</title>
<g id="a_node11"><a xlink:href="jwt__key__auto__refresh_8h.html" target="_top" xlink:title=" ">
<polygon fill="white" stroke="black" points="570,-235.5 570,-265.5 695,-265.5 695,-235.5 570,-235.5"/>
<text text-anchor="start" x="578" y="-253.5" font-family="Helvetica,sans-Serif" font-size="10.00">src/node/jwt_key_auto</text>
<text text-anchor="middle" x="632.5" y="-242.5" font-family="Helvetica,sans-Serif" font-size="10.00">_refresh.h</text>
</a>
</g>
</g>
<!-- Node10&#45;&gt;Node11 -->
<g id="edge13" class="edge">
<title>Node10&#45;&gt;Node11</title>
<path fill="none" stroke="midnightblue" d="M549.7,-297.54C566.88,-287.99 589.88,-275.2 607.28,-265.52"/>
<polygon fill="midnightblue" stroke="midnightblue" points="547.87,-294.56 540.83,-302.48 551.27,-300.67 547.87,-294.56"/>
</g>
<!-- Node11&#45;&gt;Node8 -->
<g id="edge14" class="edge">
<title>Node11&#45;&gt;Node8</title>
<path fill="none" stroke="midnightblue" d="M661.08,-229.31C678.36,-217.1 699.48,-202.18 712.46,-193.01"/>
<polygon fill="midnightblue" stroke="midnightblue" points="658.61,-226.77 652.46,-235.4 662.65,-232.48 658.61,-226.77"/>
</g>
<!-- Node12&#45;&gt;Node8 -->
<g id="edge17" class="edge">
<title>Node12&#45;&gt;Node8</title>
<path fill="none" stroke="midnightblue" d="M781.33,-229.01C765.92,-216.94 747.24,-202.3 735.6,-193.19"/>
<polygon fill="midnightblue" stroke="midnightblue" points="779.46,-231.99 789.49,-235.4 783.78,-226.47 779.46,-231.99"/>
</g>
<!-- Node13&#45;&gt;Node7 -->
<g id="edge19" class="edge">
<title>Node13&#45;&gt;Node7</title>
<path fill="none" stroke="midnightblue" d="M783.23,-352.48C767.91,-342 749.93,-329.71 738.16,-321.66"/>
<polygon fill="midnightblue" stroke="midnightblue" points="781.65,-355.64 791.88,-358.4 785.6,-349.87 781.65,-355.64"/>
</g>
<!-- Node14&#45;&gt;Node8 -->
<g id="edge22" class="edge">
<title>Node14&#45;&gt;Node8</title>
<path fill="none" stroke="midnightblue" d="M933.48,-238.4C883.75,-225.58 802.95,-204.74 757.78,-193.08"/>
<polygon fill="midnightblue" stroke="midnightblue" points="932.74,-241.83 943.3,-240.94 934.49,-235.05 932.74,-241.83"/>
</g>
<!-- Node16 -->
<g id="node16" class="node">
<title>Node16</title>
<g id="a_node16"><a xlink:href="http__parser_8h.html" target="_top" xlink:title=" ">
<polygon fill="white" stroke="black" points="541.5,-749.5 541.5,-768.5 661.5,-768.5 661.5,-749.5 541.5,-749.5"/>
<text text-anchor="middle" x="601.5" y="-756.5" font-family="Helvetica,sans-Serif" font-size="10.00">src/http/http_parser.h</text>
</a>
</g>
</g>
<!-- Node15&#45;&gt;Node16 -->
<g id="edge24" class="edge">
<title>Node15&#45;&gt;Node16</title>
<path fill="none" stroke="midnightblue" d="M683.01,-850.94C680.44,-837.13 675.37,-818.58 665.5,-805 653.69,-788.74 634.14,-776.24 619.75,-768.59"/>
<polygon fill="midnightblue" stroke="midnightblue" points="679.61,-851.87 684.62,-861.2 686.53,-850.78 679.61,-851.87"/>
</g>
<!-- Node33 -->
<g id="node33" class="node">
<title>Node33</title>
<g id="a_node33"><a xlink:href="http__proc_8h.html" target="_top" xlink:title=" ">
<polygon fill="white" stroke="black" points="546,-805.5 546,-824.5 657,-824.5 657,-805.5 546,-805.5"/>
<text text-anchor="middle" x="601.5" y="-812.5" font-family="Helvetica,sans-Serif" font-size="10.00">src/http/http_proc.h</text>
</a>
</g>
</g>
<!-- Node15&#45;&gt;Node33 -->
<g id="edge53" class="edge">
<title>Node15&#45;&gt;Node33</title>
<path fill="none" stroke="midnightblue" d="M663.57,-855.9C648.16,-846 628.05,-833.07 614.96,-824.65"/>
<polygon fill="midnightblue" stroke="midnightblue" points="661.7,-858.86 672,-861.32 665.48,-852.97 661.7,-858.86"/>
</g>
<!-- Node17 -->
<g id="node17" class="node">
<title>Node17</title>
<g id="a_node17"><a xlink:href="rpc__tls__client_8h.html" target="_top" xlink:title=" ">
<polygon fill="white" stroke="black" points="186,-615.5 186,-645.5 287,-645.5 287,-615.5 186,-615.5"/>
<text text-anchor="start" x="194" y="-633.5" font-family="Helvetica,sans-Serif" font-size="10.00">src/clients/rpc_tls</text>
<text text-anchor="middle" x="236.5" y="-622.5" font-family="Helvetica,sans-Serif" font-size="10.00">_client.h</text>
</a>
</g>
</g>
<!-- Node16&#45;&gt;Node17 -->
<g id="edge25" class="edge">
<title>Node16&#45;&gt;Node17</title>
<path fill="none" stroke="midnightblue" d="M531.23,-756.99C444.93,-754.36 305.1,-745.09 265.5,-713 244.96,-696.36 238.96,-664.08 237.21,-645.53"/>
<polygon fill="midnightblue" stroke="midnightblue" points="531.38,-760.5 541.48,-757.28 531.58,-753.5 531.38,-760.5"/>
</g>
<!-- Node22 -->
<g id="node22" class="node">
<title>Node22</title>
<g id="a_node22"><a xlink:href="endpoint__registry_8cpp.html" target="_top" xlink:title=" ">
<polygon fill="white" stroke="black" points="274.5,-682.5 274.5,-712.5 402.5,-712.5 402.5,-682.5 274.5,-682.5"/>
<text text-anchor="start" x="282.5" y="-700.5" font-family="Helvetica,sans-Serif" font-size="10.00">src/endpoints/endpoint</text>
<text text-anchor="middle" x="338.5" y="-689.5" font-family="Helvetica,sans-Serif" font-size="10.00">_registry.cpp</text>
</a>
</g>
</g>
<!-- Node16&#45;&gt;Node22 -->
<g id="edge31" class="edge">
<title>Node16&#45;&gt;Node22</title>
<path fill="none" stroke="midnightblue" d="M553.9,-747.23C510.92,-737.51 447.41,-723.14 400.48,-712.52"/>
<polygon fill="midnightblue" stroke="midnightblue" points="553.29,-750.68 563.82,-749.48 554.84,-743.85 553.29,-750.68"/>
</g>
<!-- Node23 -->
<g id="node23" class="node">
<title>Node23</title>
<g id="a_node23"><a xlink:href="http__endpoint_8h.html" target="_top" xlink:title=" ">
<polygon fill="white" stroke="black" points="767,-559.5 767,-578.5 900,-578.5 900,-559.5 767,-559.5"/>
<text text-anchor="middle" x="833.5" y="-566.5" font-family="Helvetica,sans-Serif" font-size="10.00">src/http/http_endpoint.h</text>
</a>
</g>
</g>
<!-- Node16&#45;&gt;Node23 -->
<g id="edge32" class="edge">
<title>Node16&#45;&gt;Node23</title>
<path fill="none" stroke="midnightblue" d="M671.79,-747.86C731.22,-735.17 812.85,-707.11 852.5,-646 866.42,-624.55 849.65,-593.62 839.76,-578.7"/>
<polygon fill="midnightblue" stroke="midnightblue" points="670.81,-744.49 661.71,-749.91 672.21,-751.35 670.81,-744.49"/>
</g>
<!-- Node24 -->
<g id="node24" class="node">
<title>Node24</title>
<g id="a_node24"><a xlink:href="http__jwt_8h.html" target="_top" xlink:title=" ">
<polygon fill="white" stroke="black" points="421,-688 421,-707 526,-707 526,-688 421,-688"/>
<text text-anchor="middle" x="473.5" y="-695" font-family="Helvetica,sans-Serif" font-size="10.00">src/http/http_jwt.h</text>
</a>
</g>
</g>
<!-- Node16&#45;&gt;Node24 -->
<g id="edge34" class="edge">
<title>Node16&#45;&gt;Node24</title>
<path fill="none" stroke="midnightblue" d="M573.91,-745.17C549.07,-733.63 513.27,-716.99 491.81,-707.01"/>
<polygon fill="midnightblue" stroke="midnightblue" points="572.62,-748.43 583.16,-749.48 575.57,-742.09 572.62,-748.43"/>
</g>
<!-- Node29 -->
<g id="node29" class="node">
<title>Node29</title>
<g id="a_node29"><a xlink:href="http__rpc__context_8h.html" target="_top" xlink:title=" ">
<polygon fill="white" stroke="black" points="697,-621 697,-640 844,-640 844,-621 697,-621"/>
<text text-anchor="middle" x="770.5" y="-628" font-family="Helvetica,sans-Serif" font-size="10.00">src/http/http_rpc_context.h</text>
</a>
</g>
</g>
<!-- Node16&#45;&gt;Node29 -->
<g id="edge43" class="edge">
<title>Node16&#45;&gt;Node29</title>
<path fill="none" stroke="midnightblue" d="M621.57,-743.28C633.49,-734.52 648.88,-723.16 662.5,-713 697.89,-686.59 739.55,-655.02 759.18,-640.11"/>
<polygon fill="midnightblue" stroke="midnightblue" points="619.21,-740.67 613.22,-749.41 623.35,-746.31 619.21,-740.67"/>
</g>
<!-- Node31 -->
<g id="node31" class="node">
<title>Node31</title>
<g id="a_node31"><a xlink:href="http__sig_8h.html" target="_top" xlink:title=" ">
<polygon fill="white" stroke="black" points="549.5,-688 549.5,-707 653.5,-707 653.5,-688 549.5,-688"/>
<text text-anchor="middle" x="601.5" y="-695" font-family="Helvetica,sans-Serif" font-size="10.00">src/http/http_sig.h</text>
</a>
</g>
</g>
<!-- Node16&#45;&gt;Node31 -->
<g id="edge49" class="edge">
<title>Node16&#45;&gt;Node31</title>
<path fill="none" stroke="midnightblue" d="M601.5,-739.32C601.5,-728.5 601.5,-715.4 601.5,-707.01"/>
<polygon fill="midnightblue" stroke="midnightblue" points="598,-739.48 601.5,-749.48 605,-739.48 598,-739.48"/>
</g>
<!-- Node18 -->
<g id="node18" class="node">
<title>Node18</title>
<g id="a_node18"><a xlink:href="perf__client_8h.html" target="_top" xlink:title=" ">
<polygon fill="white" stroke="black" points="126,-492.5 126,-522.5 237,-522.5 237,-492.5 126,-492.5"/>
<text text-anchor="start" x="134" y="-510.5" font-family="Helvetica,sans-Serif" font-size="10.00">src/clients/perf/perf</text>
<text text-anchor="middle" x="181.5" y="-499.5" font-family="Helvetica,sans-Serif" font-size="10.00">_client.h</text>
</a>
</g>
</g>
<!-- Node17&#45;&gt;Node18 -->
<g id="edge26" class="edge">
<title>Node17&#45;&gt;Node18</title>
<path fill="none" stroke="midnightblue" d="M187.62,-610.71C174.16,-603.01 161.16,-592.63 153.5,-579 143.05,-560.4 157.04,-537.11 168.72,-522.51"/>
<polygon fill="midnightblue" stroke="midnightblue" points="186,-613.81 196.48,-615.38 189.27,-607.62 186,-613.81"/>
</g>
<!-- Node21 -->
<g id="node21" class="node">
<title>Node21</title>
<g id="a_node21"><a xlink:href="timing_8h.html" target="_top" xlink:title=" ">
<polygon fill="white" stroke="black" points="162.5,-559.5 162.5,-578.5 294.5,-578.5 294.5,-559.5 162.5,-559.5"/>
<text text-anchor="middle" x="228.5" y="-566.5" font-family="Helvetica,sans-Serif" font-size="10.00">src/clients/perf/timing.h</text>
</a>
</g>
</g>
<!-- Node17&#45;&gt;Node21 -->
<g id="edge29" class="edge">
<title>Node17&#45;&gt;Node21</title>
<path fill="none" stroke="midnightblue" d="M233.24,-605.29C231.98,-595.86 230.6,-585.65 229.66,-578.66"/>
<polygon fill="midnightblue" stroke="midnightblue" points="229.8,-605.95 234.6,-615.4 236.74,-605.02 229.8,-605.95"/>
</g>
<!-- Node19 -->
<g id="node19" class="node">
<title>Node19</title>
<g id="a_node19"><a xlink:href="tpcc__client_8cpp.html" target="_top" xlink:title=" ">
<polygon fill="white" stroke="black" points="151.5,-425.5 151.5,-455.5 267.5,-455.5 267.5,-425.5 151.5,-425.5"/>
<text text-anchor="start" x="159.5" y="-443.5" font-family="Helvetica,sans-Serif" font-size="10.00">src/apps/tpcc/clients</text>
<text text-anchor="middle" x="209.5" y="-432.5" font-family="Helvetica,sans-Serif" font-size="10.00">/tpcc_client.cpp</text>
</a>
</g>
</g>
<!-- Node18&#45;&gt;Node19 -->
<g id="edge27" class="edge">
<title>Node18&#45;&gt;Node19</title>
<path fill="none" stroke="midnightblue" d="M191.63,-482.99C195.58,-473.8 199.99,-463.58 203.44,-455.58"/>
<polygon fill="midnightblue" stroke="midnightblue" points="188.32,-481.83 187.58,-492.4 194.75,-484.6 188.32,-481.83"/>
</g>
<!-- Node20 -->
<g id="node20" class="node">
<title>Node20</title>
<g id="a_node20"><a xlink:href="scenario__perf__client_8cpp.html" target="_top" xlink:title=" ">
<polygon fill="white" stroke="black" points="0,-425.5 0,-455.5 133,-455.5 133,-425.5 0,-425.5"/>
<text text-anchor="start" x="8" y="-443.5" font-family="Helvetica,sans-Serif" font-size="10.00">src/clients/perf/scenario</text>
<text text-anchor="middle" x="66.5" y="-432.5" font-family="Helvetica,sans-Serif" font-size="10.00">_perf_client.cpp</text>
</a>
</g>
</g>
<!-- Node18&#45;&gt;Node20 -->
<g id="edge28" class="edge">
<title>Node18&#45;&gt;Node20</title>
<path fill="none" stroke="midnightblue" d="M147.52,-487.3C129.53,-477.12 107.82,-464.85 91.4,-455.58"/>
<polygon fill="midnightblue" stroke="midnightblue" points="146.12,-490.52 156.55,-492.4 149.56,-484.43 146.12,-490.52"/>
</g>
<!-- Node21&#45;&gt;Node18 -->
<g id="edge30" class="edge">
<title>Node21&#45;&gt;Node18</title>
<path fill="none" stroke="midnightblue" d="M215.49,-551.53C208.29,-542.42 199.44,-531.21 192.58,-522.52"/>
<polygon fill="midnightblue" stroke="midnightblue" points="212.82,-553.8 221.77,-559.48 218.31,-549.46 212.82,-553.8"/>
</g>
<!-- Node23&#45;&gt;Node2 -->
<g id="edge33" class="edge">
<title>Node23&#45;&gt;Node2</title>
<path fill="none" stroke="midnightblue" d="M859.89,-555.02C883.36,-543.48 916.99,-526.94 937.2,-517.01"/>
<polygon fill="midnightblue" stroke="midnightblue" points="858.27,-551.92 850.84,-559.48 861.35,-558.2 858.27,-551.92"/>
</g>
<!-- Node25 -->
<g id="node25" class="node">
<title>Node25</title>
<g id="a_node25"><a xlink:href="jwt__auth_8cpp.html" target="_top" xlink:title=" ">
<polygon fill="white" stroke="black" points="351,-615.5 351,-645.5 506,-645.5 506,-615.5 351,-615.5"/>
<text text-anchor="start" x="359" y="-633.5" font-family="Helvetica,sans-Serif" font-size="10.00">src/endpoints/authentication</text>
<text text-anchor="middle" x="428.5" y="-622.5" font-family="Helvetica,sans-Serif" font-size="10.00">/jwt_auth.cpp</text>
</a>
</g>
</g>
<!-- Node24&#45;&gt;Node25 -->
<g id="edge35" class="edge">
<title>Node24&#45;&gt;Node25</title>
<path fill="none" stroke="midnightblue" d="M461.63,-679.35C454.34,-668.82 445.12,-655.5 438.25,-645.59"/>
<polygon fill="midnightblue" stroke="midnightblue" points="458.86,-681.5 467.43,-687.73 464.62,-677.52 458.86,-681.5"/>
</g>
<!-- Node26 -->
<g id="node26" class="node">
<title>Node26</title>
<g id="a_node26"><a xlink:href="frontend_8h.html" target="_top" xlink:title=" ">
<polygon fill="white" stroke="black" points="261,-364 261,-383 390,-383 390,-364 261,-364"/>
<text text-anchor="middle" x="325.5" y="-371" font-family="Helvetica,sans-Serif" font-size="10.00">src/node/rpc/frontend.h</text>
</a>
</g>
</g>
<!-- Node24&#45;&gt;Node26 -->
<g id="edge36" class="edge">
<title>Node24&#45;&gt;Node26</title>
<path fill="none" stroke="midnightblue" d="M431.97,-685.18C398.08,-675.14 353.87,-659.96 341.5,-646 318.41,-619.94 322.5,-604.82 322.5,-570 322.5,-570 322.5,-570 322.5,-506.5 322.5,-459.97 324.39,-404.23 325.17,-383.15"/>
<polygon fill="midnightblue" stroke="midnightblue" points="431.08,-688.56 441.66,-687.99 433.03,-681.84 431.08,-688.56"/>
</g>
<!-- Node26&#45;&gt;Node8 -->
<g id="edge37" class="edge">
<title>Node26&#45;&gt;Node8</title>
<path fill="none" stroke="midnightblue" d="M346.84,-358.5C369.2,-343.98 405.45,-320.79 437.5,-302 491.2,-270.51 503.13,-259.17 560.5,-235 603.88,-216.72 656.18,-201.77 689.87,-193"/>
<polygon fill="midnightblue" stroke="midnightblue" points="344.91,-355.59 338.44,-363.98 348.73,-361.45 344.91,-355.59"/>
</g>
<!-- Node26&#45;&gt;Node10 -->
<g id="edge40" class="edge">
<title>Node26&#45;&gt;Node10</title>
<path fill="none" stroke="midnightblue" d="M364.06,-361.03C402.93,-349.46 462.02,-331.88 496.9,-321.51"/>
<polygon fill="midnightblue" stroke="midnightblue" points="362.74,-357.77 354.16,-363.98 364.74,-364.48 362.74,-357.77"/>
</g>
<!-- Node27 -->
<g id="node27" class="node">
<title>Node27</title>
<g id="a_node27"><a xlink:href="member__frontend_8h.html" target="_top" xlink:title=" ">
<polygon fill="white" stroke="black" points="270.5,-168.5 270.5,-198.5 390.5,-198.5 390.5,-168.5 270.5,-168.5"/>
<text text-anchor="start" x="278.5" y="-186.5" font-family="Helvetica,sans-Serif" font-size="10.00">src/node/rpc/member</text>
<text text-anchor="middle" x="330.5" y="-175.5" font-family="Helvetica,sans-Serif" font-size="10.00">_frontend.h</text>
</a>
</g>
</g>
<!-- Node26&#45;&gt;Node27 -->
<g id="edge38" class="edge">
<title>Node26&#45;&gt;Node27</title>
<path fill="none" stroke="midnightblue" d="M326,-353.88C326.99,-316.33 329.23,-232.24 330.12,-198.7"/>
<polygon fill="midnightblue" stroke="midnightblue" points="322.5,-353.84 325.73,-363.93 329.49,-354.03 322.5,-353.84"/>
</g>
<!-- Node28 -->
<g id="node28" class="node">
<title>Node28</title>
<g id="a_node28"><a xlink:href="user__frontend_8h.html" target="_top" xlink:title=" ">
<polygon fill="white" stroke="black" points="173,-112.5 173,-131.5 328,-131.5 328,-112.5 173,-112.5"/>
<text text-anchor="middle" x="250.5" y="-119.5" font-family="Helvetica,sans-Serif" font-size="10.00">src/node/rpc/user_frontend.h</text>
</a>
</g>
</g>
<!-- Node26&#45;&gt;Node28 -->
<g id="edge41" class="edge">
<title>Node26&#45;&gt;Node28</title>
<path fill="none" stroke="midnightblue" d="M317.27,-354.14C303.6,-322.92 276.27,-257.18 261.5,-199 255.4,-174.96 252.36,-145.74 251.15,-131.55"/>
<polygon fill="midnightblue" stroke="midnightblue" points="314.24,-355.95 321.49,-363.68 320.64,-353.12 314.24,-355.95"/>
</g>
<!-- Node27&#45;&gt;Node3 -->
<g id="edge39" class="edge">
<title>Node27&#45;&gt;Node3</title>
<path fill="none" stroke="midnightblue" d="M348.93,-160.75C362.89,-145.4 383.23,-125.29 404.5,-112 431.77,-94.95 466.49,-82.88 491.74,-75.56"/>
<polygon fill="midnightblue" stroke="midnightblue" points="346.27,-158.47 342.25,-168.27 351.5,-163.12 346.27,-158.47"/>
</g>
<!-- Node28&#45;&gt;Node3 -->
<g id="edge42" class="edge">
<title>Node28&#45;&gt;Node3</title>
<path fill="none" stroke="midnightblue" d="M304.11,-110.47C356.08,-100.27 433.94,-84.98 482.13,-75.52"/>
<polygon fill="midnightblue" stroke="midnightblue" points="303.21,-107.08 294.07,-112.44 304.56,-113.95 303.21,-107.08"/>
</g>
<!-- Node29&#45;&gt;Node11 -->
<g id="edge45" class="edge">
<title>Node29&#45;&gt;Node11</title>
<path fill="none" stroke="midnightblue" d="M732.54,-617.74C668.17,-596.65 544.5,-550.64 544.5,-508.5 544.5,-508.5 544.5,-508.5 544.5,-439.5 544.5,-402.31 542.87,-388.95 563.5,-358 578.69,-335.21 597.93,-344.52 613.5,-322 625.32,-304.9 629.8,-280.78 631.48,-265.65"/>
<polygon fill="midnightblue" stroke="midnightblue" points="731.74,-621.16 742.33,-620.91 733.9,-614.5 731.74,-621.16"/>
</g>
<!-- Node29&#45;&gt;Node23 -->
<g id="edge44" class="edge">
<title>Node29&#45;&gt;Node23</title>
<path fill="none" stroke="midnightblue" d="M787.1,-613.82C799.07,-602.52 814.77,-587.69 824.49,-578.51"/>
<polygon fill="midnightblue" stroke="midnightblue" points="784.39,-611.56 779.53,-620.98 789.2,-616.65 784.39,-611.56"/>
</g>
<!-- Node30 -->
<g id="node30" class="node">
<title>Node30</title>
<g id="a_node30"><a xlink:href="forwarder_8h.html" target="_top" xlink:title=" ">
<polygon fill="white" stroke="black" points="351.5,-431 351.5,-450 485.5,-450 485.5,-431 351.5,-431"/>
<text text-anchor="middle" x="418.5" y="-438" font-family="Helvetica,sans-Serif" font-size="10.00">src/node/rpc/forwarder.h</text>
</a>
</g>
</g>
<!-- Node29&#45;&gt;Node30 -->
<g id="edge46" class="edge">
<title>Node29&#45;&gt;Node30</title>
<path fill="none" stroke="midnightblue" d="M711.59,-619.23C645.62,-607.39 545.87,-588.37 530.5,-579 475.55,-545.51 435.67,-475.06 422.88,-450.32"/>
<polygon fill="midnightblue" stroke="midnightblue" points="711.01,-622.68 721.47,-620.99 712.24,-615.79 711.01,-622.68"/>
</g>
<!-- Node30&#45;&gt;Node3 -->
<g id="edge47" class="edge">
<title>Node30&#45;&gt;Node3</title>
<path fill="none" stroke="midnightblue" d="M418.5,-420.8C418.5,-396.12 418.5,-351.3 418.5,-313 418.5,-313 418.5,-313 418.5,-182.5 418.5,-130.56 477.44,-92.1 507.83,-75.72"/>
<polygon fill="midnightblue" stroke="midnightblue" points="415,-420.91 418.5,-430.91 422,-420.91 415,-420.91"/>
</g>
<!-- Node30&#45;&gt;Node26 -->
<g id="edge48" class="edge">
<title>Node30&#45;&gt;Node26</title>
<path fill="none" stroke="midnightblue" d="M397.64,-424.92C379.25,-412.07 353.09,-393.78 337.84,-383.13"/>
<polygon fill="midnightblue" stroke="midnightblue" points="395.76,-427.87 405.96,-430.73 399.77,-422.14 395.76,-427.87"/>
</g>
<!-- Node31&#45;&gt;Node17 -->
<g id="edge50" class="edge">
<title>Node31&#45;&gt;Node17</title>
<path fill="none" stroke="midnightblue" d="M553.67,-685.87C547.23,-684.52 540.71,-683.2 534.5,-682 447.94,-665.31 346.65,-648.78 287.24,-639.38"/>
<polygon fill="midnightblue" stroke="midnightblue" points="553.14,-689.34 563.65,-688 554.59,-682.49 553.14,-689.34"/>
</g>
<!-- Node31&#45;&gt;Node29 -->
<g id="edge52" class="edge">
<title>Node31&#45;&gt;Node29</title>
<path fill="none" stroke="midnightblue" d="M633.3,-684.27C666.84,-671.37 718.82,-651.38 748.23,-640.06"/>
<polygon fill="midnightblue" stroke="midnightblue" points="632.02,-681.01 623.94,-687.87 634.53,-687.55 632.02,-681.01"/>
</g>
<!-- Node32 -->
<g id="node32" class="node">
<title>Node32</title>
<g id="a_node32"><a xlink:href="sig__auth_8cpp.html" target="_top" xlink:title=" ">
<polygon fill="white" stroke="black" points="524,-615.5 524,-645.5 679,-645.5 679,-615.5 524,-615.5"/>
<text text-anchor="start" x="532" y="-633.5" font-family="Helvetica,sans-Serif" font-size="10.00">src/endpoints/authentication</text>
<text text-anchor="middle" x="601.5" y="-622.5" font-family="Helvetica,sans-Serif" font-size="10.00">/sig_auth.cpp</text>
</a>
</g>
</g>
<!-- Node31&#45;&gt;Node32 -->
<g id="edge51" class="edge">
<title>Node31&#45;&gt;Node32</title>
<path fill="none" stroke="midnightblue" d="M601.5,-677.41C601.5,-667.22 601.5,-654.9 601.5,-645.59"/>
<polygon fill="midnightblue" stroke="midnightblue" points="598,-677.73 601.5,-687.73 605,-677.73 598,-677.73"/>
</g>
<!-- Node33&#45;&gt;Node16 -->
<g id="edge54" class="edge">
<title>Node33&#45;&gt;Node16</title>
<path fill="none" stroke="midnightblue" d="M601.5,-794.8C601.5,-785.91 601.5,-775.78 601.5,-768.75"/>
<polygon fill="midnightblue" stroke="midnightblue" points="598,-795.08 601.5,-805.08 605,-795.08 598,-795.08"/>
</g>
<!-- Node34&#45;&gt;Node2 -->
<g id="edge56" class="edge">
<title>Node34&#45;&gt;Node2</title>
<path fill="none" stroke="midnightblue" d="M1017.43,-553.61C1001.47,-542.17 979.67,-526.55 966.37,-517.01"/>
<polygon fill="midnightblue" stroke="midnightblue" points="1015.44,-556.49 1025.61,-559.48 1019.52,-550.8 1015.44,-556.49"/>
</g>
<!-- Node34&#45;&gt;Node8 -->
<g id="edge57" class="edge">
<title>Node34&#45;&gt;Node8</title>
<path fill="none" stroke="midnightblue" d="M1051.97,-551.49C1070.57,-528.51 1100.5,-484.79 1100.5,-441.5 1100.5,-441.5 1100.5,-441.5 1100.5,-311 1100.5,-268.78 1079.67,-256.79 1043.5,-235 1001.35,-209.61 867.07,-195.3 786.79,-188.81"/>
<polygon fill="midnightblue" stroke="midnightblue" points="1049.21,-549.33 1045.48,-559.24 1054.58,-553.82 1049.21,-549.33"/>
</g>
<!-- Node35&#45;&gt;Node2 -->
<g id="edge59" class="edge">
<title>Node35&#45;&gt;Node2</title>
<path fill="none" stroke="midnightblue" d="M903.27,-796.05C913.34,-773.74 928.5,-734.23 928.5,-698.5 928.5,-698.5 928.5,-698.5 928.5,-629.5 928.5,-586.53 944.37,-536.85 951.31,-517.17"/>
<polygon fill="midnightblue" stroke="midnightblue" points="900.02,-794.73 898.94,-805.27 906.36,-797.7 900.02,-794.73"/>
</g>
</g>
</svg>
        <g id="navigator" transform="translate(0 0)" fill="#404254">
                <rect fill="#f2f5e9" fill-opacity="0.5" stroke="#606060" stroke-width=".5" x="0" y="0" width="60" height="60"/>
                <use id="zoomplus" xlink:href="#zoomPlus" x="17" y="9" onmousedown="handleZoom(evt,'in')"/>
                <use id="zoomminus" xlink:href="#zoomMin" x="42" y="9" onmousedown="handleZoom(evt,'out')"/>
                <use id="reset" xlink:href="#resetDef" x="30" y="36" onmousedown="handleReset()"/>
                <g id="arrowUp" xlink:href="#dirArrow" transform="translate(30 24)" onmousedown="handlePan(0,-1)">
                  <use xlink:href="#rim" fill="#404040">
                        <set attributeName="fill" to="#808080" begin="arrowUp.mouseover" end="arrowUp.mouseout"/>
                  </use>
                  <path fill="none" stroke="white" stroke-width="1.5" d="M0,-3.0v7 M-2.5,-0.5L0,-3.0L2.5,-0.5"/>
                </g>
                <g id="arrowRight" xlink:href="#dirArrow" transform="rotate(90) translate(36 -43)" onmousedown="handlePan(1,0)">
                  <use xlink:href="#rim" fill="#404040">
                        <set attributeName="fill" to="#808080" begin="arrowRight.mouseover" end="arrowRight.mouseout"/>
                  </use>
                  <path fill="none" stroke="white" stroke-width="1.5" d="M0,-3.0v7 M-2.5,-0.5L0,-3.0L2.5,-0.5"/>
                </g>
                <g id="arrowDown" xlink:href="#dirArrow" transform="rotate(180) translate(-30 -48)" onmousedown="handlePan(0,1)">
                  <use xlink:href="#rim" fill="#404040">
                        <set attributeName="fill" to="#808080" begin="arrowDown.mouseover" end="arrowDown.mouseout"/>
                  </use>
                  <path fill="none" stroke="white" stroke-width="1.5" d="M0,-3.0v7 M-2.5,-0.5L0,-3.0L2.5,-0.5"/>
                </g>
                <g id="arrowLeft" xlink:href="#dirArrow" transform="rotate(270) translate(-36 17)" onmousedown="handlePan(-1,0)">
                  <use xlink:href="#rim" fill="#404040">
                        <set attributeName="fill" to="#808080" begin="arrowLeft.mouseover" end="arrowLeft.mouseout"/>
                  </use>
                  <path fill="none" stroke="white" stroke-width="1.5" d="M0,-3.0v7 M-2.5,-0.5L0,-3.0L2.5,-0.5"/>
                </g>
        </g>
        <svg viewBox="0 0 15 15" width="100%" height="30px" preserveAspectRatio="xMaxYMin meet">
         <g id="arrow_out" transform="scale(0.3 0.3)">
          <a xlink:href="context_8h__dep__incl_org.svg" target="_base">
           <rect id="button" ry="5" rx="5" y="6" x="6" height="38" width="38"
                fill="#f2f5e9" fill-opacity="0.5" stroke="#606060" stroke-width="1.0"/>
           <path id="arrow"
             d="M 11.500037,31.436501 C 11.940474,20.09759 22.043105,11.32322 32.158766,21.979434 L 37.068811,17.246167 C 37.068811,17.246167 37.088388,32 37.088388,32 L 22.160133,31.978069 C 22.160133,31.978069 26.997745,27.140456 26.997745,27.140456 C 18.528582,18.264221 13.291696,25.230495 11.500037,31.436501 z"
             style="fill:#404040;"/>
          </a>
         </g>
        </svg>
</svg>
