<?xml version="1.0" encoding="UTF-8" standalone="no"?>
<!DOCTYPE svg PUBLIC "-//W3C//DTD SVG 1.1//EN"
 "http://www.w3.org/Graphics/SVG/1.1/DTD/svg11.dtd">
<!-- Generated by graphviz version 2.43.0 (0)
 -->
<!-- Title: include/ccf/indexing Pages: 1 -->
<svg width="199pt" height="175pt"
 viewBox="0.00 0.00 199.00 175.00" xmlns="http://www.w3.org/2000/svg" xmlns:xlink="http://www.w3.org/1999/xlink">
<g id="graph0" class="graph" transform="scale(1 1) rotate(0) translate(4 171)">
<title>include/ccf/indexing</title>
<polygon fill="white" stroke="transparent" points="-4,4 -4,-171 195,-171 195,4 -4,4"/>
<g id="clust1" class="cluster">
<title>clusterdir_c3d33925c9fc81f340cd5350e8f8562d</title>
<g id="a_clust1"><a xlink:href="dir_c3d33925c9fc81f340cd5350e8f8562d.html" target="_top" xlink:title="ccf">
<polygon fill="#edf0f7" stroke="#7f7f7f" stroke-dasharray="5,2" points="8,-8 8,-159 183,-159 183,-8 8,-8"/>
<text text-anchor="middle" x="95.5" y="-147" font-family="Helvetica,sans-Serif" font-size="10.00">ccf</text>
</a>
</g>
</g>
<g id="clust2" class="cluster">
<title>clusterdir_819655030cf20c915c390b67ba1c0d03</title>
<g id="a_clust2"><a xlink:href="dir_819655030cf20c915c390b67ba1c0d03.html" target="_top">
<polygon fill="#edf0f7" stroke="#404040" stroke-width="2" points="16,-80 16,-132 175,-132 175,-80 16,-80"/>
</a>
</g>
</g>
<!-- dir_9101985d24c2f692df501a09f2c284d0 -->
<g id="node1" class="node">
<title>dir_9101985d24c2f692df501a09f2c284d0</title>
<g id="a_node1"><a xlink:href="dir_9101985d24c2f692df501a09f2c284d0.html" target="_top" xlink:title="kv">
<polygon fill="#a2b4d6" stroke="red" points="81,-52 27,-52 27,-16 81,-16 81,-52"/>
<text text-anchor="middle" x="54" y="-31.5" font-family="Helvetica,sans-Serif" font-size="10.00">kv</text>
</a>
</g>
</g>
<!-- dir_cabae42bbc2bbaf21b45af6b92ef62e9 -->
<g id="node2" class="node">
<title>dir_cabae42bbc2bbaf21b45af6b92ef62e9</title>
<g id="a_node2"><a xlink:href="dir_cabae42bbc2bbaf21b45af6b92ef62e9.html" target="_top" xlink:title="ds">
<polygon fill="#a2b4d6" stroke="#404040" points="161,-52 107,-52 107,-16 161,-16 161,-52"/>
<text text-anchor="middle" x="134" y="-31.5" font-family="Helvetica,sans-Serif" font-size="10.00">ds</text>
</a>
</g>
</g>
<!-- dir_819655030cf20c915c390b67ba1c0d03 -->
<g id="node3" class="node">
<title>dir_819655030cf20c915c390b67ba1c0d03</title>
<text text-anchor="middle" x="54" y="-103.5" font-family="Helvetica,sans-Serif" font-size="10.00">indexing</text>
</g>
<!-- dir_819655030cf20c915c390b67ba1c0d03&#45;&gt;dir_9101985d24c2f692df501a09f2c284d0 -->
<g id="edge1" class="edge">
<title>dir_819655030cf20c915c390b67ba1c0d03&#45;&gt;dir_9101985d24c2f692df501a09f2c284d0</title>
<path fill="none" stroke="black" d="M54,-87.7C54,-79.98 54,-70.71 54,-62.11"/>
<polygon fill="black" stroke="black" points="57.5,-62.1 54,-52.1 50.5,-62.1 57.5,-62.1"/>
<g id="a_edge1&#45;headlabel"><a xlink:href="dir_000022_000027.html" target="_top" xlink:title="1">
<text text-anchor="middle" x="60.34" y="-63.2" font-family="Helvetica,sans-Serif" font-size="10.00">1</text>
</a>
</g>
</g>
<!-- dir_0b736a9f1a1be87ec6de74360d3f0927 -->
<g id="node4" class="node">
<title>dir_0b736a9f1a1be87ec6de74360d3f0927</title>
<g id="a_node4"><a xlink:href="dir_0b736a9f1a1be87ec6de74360d3f0927.html" target="_top" xlink:title="strategies">
<polygon fill="#a2b4d6" stroke="#404040" points="166.5,-124 101.5,-124 101.5,-88 166.5,-88 166.5,-124"/>
<text text-anchor="middle" x="134" y="-103.5" font-family="Helvetica,sans-Serif" font-size="10.00">strategies</text>
</a>
</g>
</g>
<!-- dir_0b736a9f1a1be87ec6de74360d3f0927&#45;&gt;dir_cabae42bbc2bbaf21b45af6b92ef62e9 -->
<g id="edge2" class="edge">
<title>dir_0b736a9f1a1be87ec6de74360d3f0927&#45;&gt;dir_cabae42bbc2bbaf21b45af6b92ef62e9</title>
<path fill="none" stroke="black" d="M134,-87.7C134,-79.98 134,-70.71 134,-62.11"/>
<polygon fill="black" stroke="black" points="137.5,-62.1 134,-52.1 130.5,-62.1 137.5,-62.1"/>
<g id="a_edge2&#45;headlabel"><a xlink:href="dir_000041_000013.html" target="_top" xlink:title="1">
<text text-anchor="middle" x="140.34" y="-63.2" font-family="Helvetica,sans-Serif" font-size="10.00">1</text>
</a>
</g>
</g>
</g>
</svg>
