<?xml version="1.0" encoding="UTF-8" standalone="no"?>
<!DOCTYPE svg PUBLIC "-//W3C//DTD SVG 1.1//EN"
 "http://www.w3.org/Graphics/SVG/1.1/DTD/svg11.dtd">
<!-- Generated by graphviz version 2.43.0 (0)
 -->
<!-- Title: include/ccf Pages: 1 -->
<svg width="294pt" height="399pt"
 viewBox="0.00 0.00 294.00 399.00" xmlns="http://www.w3.org/2000/svg" xmlns:xlink="http://www.w3.org/1999/xlink">
<g id="graph0" class="graph" transform="scale(1 1) rotate(0) translate(4 395)">
<title>include/ccf</title>
<polygon fill="white" stroke="transparent" points="-4,4 -4,-395 290,-395 290,4 -4,4"/>
<g id="clust1" class="cluster">
<title>clusterdir_d44c64559bbebec7f509842c48db8b23</title>
<g id="a_clust1"><a xlink:href="dir_d44c64559bbebec7f509842c48db8b23.html" target="_top" xlink:title="include">
<polygon fill="#edf0f7" stroke="#404040" stroke-dasharray="5,2" points="8,-8 8,-383 278,-383 278,-8 8,-8"/>
<text text-anchor="middle" x="143" y="-371" font-family="Helvetica,sans-Serif" font-size="10.00">include</text>
</a>
</g>
</g>
<g id="clust2" class="cluster">
<title>clusterdir_c3d33925c9fc81f340cd5350e8f8562d</title>
<g id="a_clust2"><a xlink:href="dir_c3d33925c9fc81f340cd5350e8f8562d.html" target="_top">
<polygon fill="#edf0f7" stroke="#404040" stroke-width="2" points="16,-16 16,-356 270,-356 270,-16 16,-16"/>
</a>
</g>
</g>
<!-- dir_c3d33925c9fc81f340cd5350e8f8562d -->
<g id="node1" class="node">
<title>dir_c3d33925c9fc81f340cd5350e8f8562d</title>
<text text-anchor="middle" x="211" y="-327.5" font-family="Helvetica,sans-Serif" font-size="10.00">ccf</text>
</g>
<!-- dir_718cb05e94fb01aeb88649f9185845a8 -->
<g id="node2" class="node">
<title>dir_718cb05e94fb01aeb88649f9185845a8</title>
<g id="a_node2"><a xlink:href="dir_718cb05e94fb01aeb88649f9185845a8.html" target="_top" xlink:title="crypto">
<polygon fill="#a2b4d6" stroke="#404040" points="150,-132 96,-132 96,-96 150,-96 150,-132"/>
<text text-anchor="middle" x="123" y="-111.5" font-family="Helvetica,sans-Serif" font-size="10.00">crypto</text>
</a>
</g>
</g>
<!-- dir_c3d33925c9fc81f340cd5350e8f8562d&#45;&gt;dir_718cb05e94fb01aeb88649f9185845a8 -->
<g id="edge2" class="edge">
<title>dir_c3d33925c9fc81f340cd5350e8f8562d&#45;&gt;dir_718cb05e94fb01aeb88649f9185845a8</title>
<path fill="none" stroke="black" d="M209.16,-311.99C206.72,-293.62 201.45,-263.78 191,-240 183.16,-222.17 175.82,-220.82 166,-204 154.1,-183.62 142.57,-159.45 134.46,-141.45"/>
<polygon fill="black" stroke="black" points="137.58,-139.85 130.32,-132.14 131.18,-142.7 137.58,-139.85"/>
<g id="a_edge2&#45;headlabel"><a xlink:href="dir_000006_000011.html" target="_top" xlink:title="18">
<text text-anchor="middle" x="141.63" y="-139.48" font-family="Helvetica,sans-Serif" font-size="10.00">18</text>
</a>
</g>
</g>
<!-- dir_cabae42bbc2bbaf21b45af6b92ef62e9 -->
<g id="node3" class="node">
<title>dir_cabae42bbc2bbaf21b45af6b92ef62e9</title>
<g id="a_node3"><a xlink:href="dir_cabae42bbc2bbaf21b45af6b92ef62e9.html" target="_top" xlink:title="ds">
<polygon fill="#a2b4d6" stroke="#404040" points="186,-60 132,-60 132,-24 186,-24 186,-60"/>
<text text-anchor="middle" x="159" y="-39.5" font-family="Helvetica,sans-Serif" font-size="10.00">ds</text>
</a>
</g>
</g>
<!-- dir_c3d33925c9fc81f340cd5350e8f8562d&#45;&gt;dir_cabae42bbc2bbaf21b45af6b92ef62e9 -->
<g id="edge6" class="edge">
<title>dir_c3d33925c9fc81f340cd5350e8f8562d&#45;&gt;dir_cabae42bbc2bbaf21b45af6b92ef62e9</title>
<path fill="none" stroke="black" d="M219.96,-311.77C239.97,-270.63 283.14,-165.01 238,-96 227.65,-80.17 210.75,-67.9 195.23,-59.17"/>
<polygon fill="black" stroke="black" points="196.79,-56.03 186.31,-54.43 193.5,-62.21 196.79,-56.03"/>
<g id="a_edge6&#45;headlabel"><a xlink:href="dir_000006_000013.html" target="_top" xlink:title="39">
<text text-anchor="middle" x="201.29" y="-52.71" font-family="Helvetica,sans-Serif" font-size="10.00">39</text>
</a>
</g>
</g>
<!-- dir_4a0fc6681dca2b862f3992ee55641a58 -->
<g id="node4" class="node">
<title>dir_4a0fc6681dca2b862f3992ee55641a58</title>
<g id="a_node4"><a xlink:href="dir_4a0fc6681dca2b862f3992ee55641a58.html" target="_top" xlink:title="endpoints">
<polygon fill="#a2b4d6" stroke="#404040" points="181.5,-276 116.5,-276 116.5,-240 181.5,-240 181.5,-276"/>
<text text-anchor="middle" x="149" y="-255.5" font-family="Helvetica,sans-Serif" font-size="10.00">endpoints</text>
</a>
</g>
</g>
<!-- dir_c3d33925c9fc81f340cd5350e8f8562d&#45;&gt;dir_4a0fc6681dca2b862f3992ee55641a58 -->
<g id="edge1" class="edge">
<title>dir_c3d33925c9fc81f340cd5350e8f8562d&#45;&gt;dir_4a0fc6681dca2b862f3992ee55641a58</title>
<path fill="none" stroke="black" d="M195.67,-311.7C188.24,-303.3 179.18,-293.07 171.02,-283.86"/>
<polygon fill="black" stroke="black" points="173.4,-281.27 164.15,-276.1 168.16,-285.91 173.4,-281.27"/>
<g id="a_edge1&#45;headlabel"><a xlink:href="dir_000006_000016.html" target="_top" xlink:title="5">
<text text-anchor="middle" x="177.91" y="-279.58" font-family="Helvetica,sans-Serif" font-size="10.00">5</text>
</a>
</g>
</g>
<!-- dir_819655030cf20c915c390b67ba1c0d03 -->
<g id="node5" class="node">
<title>dir_819655030cf20c915c390b67ba1c0d03</title>
<g id="a_node5"><a xlink:href="dir_819655030cf20c915c390b67ba1c0d03.html" target="_top" xlink:title="indexing">
<polygon fill="#a2b4d6" stroke="#404040" points="241.5,-204 182.5,-204 182.5,-168 241.5,-168 241.5,-204"/>
<text text-anchor="middle" x="212" y="-183.5" font-family="Helvetica,sans-Serif" font-size="10.00">indexing</text>
</a>
</g>
</g>
<!-- dir_c3d33925c9fc81f340cd5350e8f8562d&#45;&gt;dir_819655030cf20c915c390b67ba1c0d03 -->
<g id="edge3" class="edge">
<title>dir_c3d33925c9fc81f340cd5350e8f8562d&#45;&gt;dir_819655030cf20c915c390b67ba1c0d03</title>
<path fill="none" stroke="black" d="M217.24,-311.59C220.57,-301.37 224.32,-288.12 226,-276 228.2,-260.15 228.06,-255.87 226,-240 224.9,-231.51 222.84,-222.43 220.63,-214.24"/>
<polygon fill="black" stroke="black" points="223.95,-213.09 217.82,-204.44 217.22,-215.02 223.95,-213.09"/>
<g id="a_edge3&#45;headlabel"><a xlink:href="dir_000006_000022.html" target="_top" xlink:title="1">
<text text-anchor="middle" x="227.67" y="-213.26" font-family="Helvetica,sans-Serif" font-size="10.00">1</text>
</a>
</g>
</g>
<!-- dir_9101985d24c2f692df501a09f2c284d0 -->
<g id="node6" class="node">
<title>dir_9101985d24c2f692df501a09f2c284d0</title>
<g id="a_node6"><a xlink:href="dir_9101985d24c2f692df501a09f2c284d0.html" target="_top" xlink:title="kv">
<polygon fill="#a2b4d6" stroke="#404040" points="222,-132 168,-132 168,-96 222,-96 222,-132"/>
<text text-anchor="middle" x="195" y="-111.5" font-family="Helvetica,sans-Serif" font-size="10.00">kv</text>
</a>
</g>
</g>
<!-- dir_c3d33925c9fc81f340cd5350e8f8562d&#45;&gt;dir_9101985d24c2f692df501a09f2c284d0 -->
<g id="edge4" class="edge">
<title>dir_c3d33925c9fc81f340cd5350e8f8562d&#45;&gt;dir_9101985d24c2f692df501a09f2c284d0</title>
<path fill="none" stroke="black" d="M213.28,-311.87C215.01,-293.39 215.68,-263.46 206,-240 197.83,-220.21 181.61,-224.01 174,-204 168.31,-189.04 171,-183.72 174,-168 175.71,-159.06 178.9,-149.7 182.29,-141.37"/>
<polygon fill="black" stroke="black" points="185.51,-142.73 186.28,-132.17 179.09,-139.95 185.51,-142.73"/>
<g id="a_edge4&#45;headlabel"><a xlink:href="dir_000006_000027.html" target="_top" xlink:title="19">
<text text-anchor="middle" x="186.69" y="-144.66" font-family="Helvetica,sans-Serif" font-size="10.00">19</text>
</a>
</g>
</g>
<!-- dir_a0bd5b61e2f393f7cb26e530f5604320 -->
<g id="node8" class="node">
<title>dir_a0bd5b61e2f393f7cb26e530f5604320</title>
<g id="a_node8"><a xlink:href="dir_a0bd5b61e2f393f7cb26e530f5604320.html" target="_top" xlink:title="service">
<polygon fill="#a2b4d6" stroke="#404040" points="104,-204 50,-204 50,-168 104,-168 104,-204"/>
<text text-anchor="middle" x="77" y="-183.5" font-family="Helvetica,sans-Serif" font-size="10.00">service</text>
</a>
</g>
</g>
<!-- dir_c3d33925c9fc81f340cd5350e8f8562d&#45;&gt;dir_a0bd5b61e2f393f7cb26e530f5604320 -->
<g id="edge5" class="edge">
<title>dir_c3d33925c9fc81f340cd5350e8f8562d&#45;&gt;dir_a0bd5b61e2f393f7cb26e530f5604320</title>
<path fill="none" stroke="black" d="M183.74,-329.96C143.58,-329.7 69.55,-322.49 35,-276 20.29,-256.2 35.53,-230.43 51.62,-211.71"/>
<polygon fill="black" stroke="black" points="54.34,-213.92 58.48,-204.17 49.16,-209.21 54.34,-213.92"/>
<g id="a_edge5&#45;headlabel"><a xlink:href="dir_000006_000038.html" target="_top" xlink:title="4">
<text text-anchor="middle" x="54.02" y="-215.99" font-family="Helvetica,sans-Serif" font-size="10.00">4</text>
</a>
</g>
</g>
<!-- dir_718cb05e94fb01aeb88649f9185845a8&#45;&gt;dir_cabae42bbc2bbaf21b45af6b92ef62e9 -->
<g id="edge7" class="edge">
<title>dir_718cb05e94fb01aeb88649f9185845a8&#45;&gt;dir_cabae42bbc2bbaf21b45af6b92ef62e9</title>
<path fill="none" stroke="black" d="M125.98,-95.7C129.29,-87.64 134.1,-77.89 139.09,-68.98"/>
<polygon fill="black" stroke="black" points="142.26,-70.5 144.31,-60.1 136.22,-66.95 142.26,-70.5"/>
<g id="a_edge7&#45;headlabel"><a xlink:href="dir_000011_000013.html" target="_top" xlink:title="7">
<text text-anchor="middle" x="142.89" y="-72.54" font-family="Helvetica,sans-Serif" font-size="10.00">7</text>
</a>
</g>
</g>
<!-- dir_cabae42bbc2bbaf21b45af6b92ef62e9&#45;&gt;dir_718cb05e94fb01aeb88649f9185845a8 -->
<g id="edge8" class="edge">
<title>dir_cabae42bbc2bbaf21b45af6b92ef62e9&#45;&gt;dir_718cb05e94fb01aeb88649f9185845a8</title>
<path fill="none" stroke="black" d="M156.1,-60.1C152.81,-68.13 148.02,-77.87 143.03,-86.8"/>
<polygon fill="black" stroke="black" points="139.85,-85.3 137.81,-95.7 145.89,-88.84 139.85,-85.3"/>
<g id="a_edge8&#45;headlabel"><a xlink:href="dir_000013_000011.html" target="_top" xlink:title="1">
<text text-anchor="middle" x="139.22" y="-78.26" font-family="Helvetica,sans-Serif" font-size="10.00">1</text>
</a>
</g>
</g>
<!-- dir_4a0fc6681dca2b862f3992ee55641a58&#45;&gt;dir_718cb05e94fb01aeb88649f9185845a8 -->
<g id="edge9" class="edge">
<title>dir_4a0fc6681dca2b862f3992ee55641a58&#45;&gt;dir_718cb05e94fb01aeb88649f9185845a8</title>
<path fill="none" stroke="black" d="M145.27,-239.85C143.06,-229.49 140.26,-216.01 138,-204 134.12,-183.34 130.18,-159.89 127.32,-142.25"/>
<polygon fill="black" stroke="black" points="130.73,-141.41 125.69,-132.1 123.82,-142.53 130.73,-141.41"/>
<g id="a_edge9&#45;headlabel"><a xlink:href="dir_000016_000011.html" target="_top" xlink:title="1">
<text text-anchor="middle" x="134.1" y="-142.01" font-family="Helvetica,sans-Serif" font-size="10.00">1</text>
</a>
</g>
</g>
<!-- dir_4a0fc6681dca2b862f3992ee55641a58&#45;&gt;dir_a0bd5b61e2f393f7cb26e530f5604320 -->
<g id="edge10" class="edge">
<title>dir_4a0fc6681dca2b862f3992ee55641a58&#45;&gt;dir_a0bd5b61e2f393f7cb26e530f5604320</title>
<path fill="none" stroke="black" d="M131.2,-239.7C122.4,-231.14 111.62,-220.66 102,-211.3"/>
<polygon fill="black" stroke="black" points="104.2,-208.57 94.59,-204.1 99.32,-213.58 104.2,-208.57"/>
<g id="a_edge10&#45;headlabel"><a xlink:href="dir_000016_000038.html" target="_top" xlink:title="1">
<text text-anchor="middle" x="108.76" y="-206.54" font-family="Helvetica,sans-Serif" font-size="10.00">1</text>
</a>
</g>
</g>
<!-- dir_819655030cf20c915c390b67ba1c0d03&#45;&gt;dir_cabae42bbc2bbaf21b45af6b92ef62e9 -->
<g id="edge12" class="edge">
<title>dir_819655030cf20c915c390b67ba1c0d03&#45;&gt;dir_cabae42bbc2bbaf21b45af6b92ef62e9</title>
<path fill="none" stroke="black" d="M222.13,-167.74C231.61,-149.15 242.69,-119.12 231,-96 223.3,-80.77 208.94,-68.85 195.06,-60.2"/>
<polygon fill="black" stroke="black" points="196.48,-56.98 186.08,-54.99 192.97,-63.04 196.48,-56.98"/>
<g id="a_edge12&#45;headlabel"><a xlink:href="dir_000022_000013.html" target="_top" xlink:title="1">
<text text-anchor="middle" x="201.02" y="-53.83" font-family="Helvetica,sans-Serif" font-size="10.00">1</text>
</a>
</g>
</g>
<!-- dir_819655030cf20c915c390b67ba1c0d03&#45;&gt;dir_9101985d24c2f692df501a09f2c284d0 -->
<g id="edge11" class="edge">
<title>dir_819655030cf20c915c390b67ba1c0d03&#45;&gt;dir_9101985d24c2f692df501a09f2c284d0</title>
<path fill="none" stroke="black" d="M207.8,-167.7C205.9,-159.9 203.62,-150.51 201.52,-141.83"/>
<polygon fill="black" stroke="black" points="204.92,-141 199.15,-132.1 198.11,-142.65 204.92,-141"/>
<g id="a_edge11&#45;headlabel"><a xlink:href="dir_000022_000027.html" target="_top" xlink:title="1">
<text text-anchor="middle" x="208.52" y="-141.32" font-family="Helvetica,sans-Serif" font-size="10.00">1</text>
</a>
</g>
</g>
<!-- dir_9101985d24c2f692df501a09f2c284d0&#45;&gt;dir_cabae42bbc2bbaf21b45af6b92ef62e9 -->
<g id="edge13" class="edge">
<title>dir_9101985d24c2f692df501a09f2c284d0&#45;&gt;dir_cabae42bbc2bbaf21b45af6b92ef62e9</title>
<path fill="none" stroke="black" d="M186.1,-95.7C182,-87.73 177.05,-78.1 172.51,-69.26"/>
<polygon fill="black" stroke="black" points="175.48,-67.4 167.8,-60.1 169.26,-70.6 175.48,-67.4"/>
<g id="a_edge13&#45;headlabel"><a xlink:href="dir_000027_000013.html" target="_top" xlink:title="1">
<text text-anchor="middle" x="179.65" y="-66.79" font-family="Helvetica,sans-Serif" font-size="10.00">1</text>
</a>
</g>
</g>
<!-- dir_e4d7f7a88037af12eae8bd997a8823fc -->
<g id="node7" class="node">
<title>dir_e4d7f7a88037af12eae8bd997a8823fc</title>
<g id="a_node7"><a xlink:href="dir_e4d7f7a88037af12eae8bd997a8823fc.html" target="_top" xlink:title="node">
<polygon fill="#a2b4d6" stroke="#404040" points="98,-276 44,-276 44,-240 98,-240 98,-276"/>
<text text-anchor="middle" x="71" y="-255.5" font-family="Helvetica,sans-Serif" font-size="10.00">node</text>
</a>
</g>
</g>
<!-- dir_e4d7f7a88037af12eae8bd997a8823fc&#45;&gt;dir_a0bd5b61e2f393f7cb26e530f5604320 -->
<g id="edge14" class="edge">
<title>dir_e4d7f7a88037af12eae8bd997a8823fc&#45;&gt;dir_a0bd5b61e2f393f7cb26e530f5604320</title>
<path fill="none" stroke="black" d="M72.48,-239.7C73.14,-231.98 73.94,-222.71 74.68,-214.11"/>
<polygon fill="black" stroke="black" points="78.17,-214.37 75.53,-204.1 71.19,-213.77 78.17,-214.37"/>
<g id="a_edge14&#45;headlabel"><a xlink:href="dir_000031_000038.html" target="_top" xlink:title="1">
<text text-anchor="middle" x="80.69" y="-215.69" font-family="Helvetica,sans-Serif" font-size="10.00">1</text>
</a>
</g>
</g>
<!-- dir_a0bd5b61e2f393f7cb26e530f5604320&#45;&gt;dir_718cb05e94fb01aeb88649f9185845a8 -->
<g id="edge15" class="edge">
<title>dir_a0bd5b61e2f393f7cb26e530f5604320&#45;&gt;dir_718cb05e94fb01aeb88649f9185845a8</title>
<path fill="none" stroke="black" d="M88.37,-167.7C93.72,-159.56 100.2,-149.69 106.11,-140.7"/>
<polygon fill="black" stroke="black" points="109.19,-142.38 111.76,-132.1 103.34,-138.54 109.19,-142.38"/>
<g id="a_edge15&#45;headlabel"><a xlink:href="dir_000038_000011.html" target="_top" xlink:title="11">
<text text-anchor="middle" x="109.59" y="-144.45" font-family="Helvetica,sans-Serif" font-size="10.00">11</text>
</a>
</g>
</g>
<!-- dir_a0bd5b61e2f393f7cb26e530f5604320&#45;&gt;dir_cabae42bbc2bbaf21b45af6b92ef62e9 -->
<g id="edge17" class="edge">
<title>dir_a0bd5b61e2f393f7cb26e530f5604320&#45;&gt;dir_cabae42bbc2bbaf21b45af6b92ef62e9</title>
<path fill="none" stroke="black" d="M75.03,-167.68C73.72,-148.76 74.16,-118.21 87,-96 95.41,-81.45 109.59,-69.73 123.15,-61.04"/>
<polygon fill="black" stroke="black" points="125.14,-63.93 131.9,-55.77 121.53,-57.93 125.14,-63.93"/>
<g id="a_edge17&#45;headlabel"><a xlink:href="dir_000038_000013.html" target="_top" xlink:title="10">
<text text-anchor="middle" x="123.52" y="-65.71" font-family="Helvetica,sans-Serif" font-size="10.00">10</text>
</a>
</g>
</g>
<!-- dir_a0bd5b61e2f393f7cb26e530f5604320&#45;&gt;dir_9101985d24c2f692df501a09f2c284d0 -->
<g id="edge16" class="edge">
<title>dir_a0bd5b61e2f393f7cb26e530f5604320&#45;&gt;dir_9101985d24c2f692df501a09f2c284d0</title>
<path fill="none" stroke="black" d="M104.07,-168.94C120.3,-159.32 141.13,-146.96 158.76,-136.5"/>
<polygon fill="black" stroke="black" points="160.83,-139.34 167.65,-131.23 157.26,-133.32 160.83,-139.34"/>
<g id="a_edge16&#45;headlabel"><a xlink:href="dir_000038_000027.html" target="_top" xlink:title="7">
<text text-anchor="middle" x="159.19" y="-141.12" font-family="Helvetica,sans-Serif" font-size="10.00">7</text>
</a>
</g>
</g>
</g>
</svg>
