<?xml version="1.0" encoding="UTF-8" standalone="no"?>
<!DOCTYPE svg PUBLIC "-//W3C//DTD SVG 1.1//EN"
 "http://www.w3.org/Graphics/SVG/1.1/DTD/svg11.dtd">
<!-- Generated by graphviz version 2.43.0 (0)
 -->
<!-- Title: src/node/rpc/gov_effects_interface.h Pages: 1 -->
<svg width="1464pt" height="386pt"
 viewBox="0.00 0.00 1463.74 386.00" xmlns="http://www.w3.org/2000/svg" xmlns:xlink="http://www.w3.org/1999/xlink">
<g id="graph0" class="graph" transform="scale(1 1) rotate(0) translate(4 382)">
<title>src/node/rpc/gov_effects_interface.h</title>
<polygon fill="white" stroke="transparent" points="-4,4 -4,-382 1459.74,-382 1459.74,4 -4,4"/>
<!-- Node1 -->
<g id="node1" class="node">
<title>Node1</title>
<g id="a_node1"><a xlink:title=" ">
<polygon fill="#bfbfbf" stroke="black" points="830.24,-347.5 830.24,-377.5 965.24,-377.5 965.24,-347.5 830.24,-347.5"/>
<text text-anchor="start" x="838.24" y="-365.5" font-family="Helvetica,sans-Serif" font-size="10.00">src/node/rpc/gov_effects</text>
<text text-anchor="middle" x="897.74" y="-354.5" font-family="Helvetica,sans-Serif" font-size="10.00">_interface.h</text>
</a>
</g>
</g>
<!-- Node2 -->
<g id="node2" class="node">
<title>Node2</title>
<g id="a_node2"><a xlink:href="node__subsystem__interface_8h.html" target="_top" xlink:title=" ">
<polygon fill="white" stroke="black" points="788.74,-280.5 788.74,-310.5 904.74,-310.5 904.74,-280.5 788.74,-280.5"/>
<text text-anchor="start" x="796.74" y="-298.5" font-family="Helvetica,sans-Serif" font-size="10.00">ccf/node_subsystem</text>
<text text-anchor="middle" x="846.74" y="-287.5" font-family="Helvetica,sans-Serif" font-size="10.00">_interface.h</text>
</a>
</g>
</g>
<!-- Node1&#45;&gt;Node2 -->
<g id="edge1" class="edge">
<title>Node1&#45;&gt;Node2</title>
<path fill="none" stroke="midnightblue" d="M886.67,-347.4C880.06,-338.96 871.51,-328.07 864.02,-318.52"/>
<polygon fill="midnightblue" stroke="midnightblue" points="866.71,-316.28 857.78,-310.58 861.2,-320.6 866.71,-316.28"/>
</g>
<!-- Node3 -->
<g id="node3" class="node">
<title>Node3</title>
<g id="a_node3"><a xlink:href="tx_8h.html" target="_top" xlink:title=" ">
<polygon fill="white" stroke="black" points="923.24,-286 923.24,-305 976.24,-305 976.24,-286 923.24,-286"/>
<text text-anchor="middle" x="949.74" y="-293" font-family="Helvetica,sans-Serif" font-size="10.00">ccf/tx.h</text>
</a>
</g>
</g>
<!-- Node1&#45;&gt;Node3 -->
<g id="edge2" class="edge">
<title>Node1&#45;&gt;Node3</title>
<path fill="none" stroke="midnightblue" d="M909.02,-347.4C917.05,-337.36 927.87,-323.84 936.34,-313.25"/>
<polygon fill="midnightblue" stroke="midnightblue" points="939.27,-315.19 942.78,-305.19 933.8,-310.82 939.27,-315.19"/>
</g>
<!-- Node4 -->
<g id="node4" class="node">
<title>Node4</title>
<g id="a_node4"><a xlink:href="ccf__assert_8h.html" target="_top" xlink:title=" ">
<polygon fill="white" stroke="black" points="453.74,-224.5 453.74,-243.5 545.74,-243.5 545.74,-224.5 453.74,-224.5"/>
<text text-anchor="middle" x="499.74" y="-231.5" font-family="Helvetica,sans-Serif" font-size="10.00">ccf/ccf_assert.h</text>
</a>
</g>
</g>
<!-- Node3&#45;&gt;Node4 -->
<g id="edge3" class="edge">
<title>Node3&#45;&gt;Node4</title>
<path fill="none" stroke="midnightblue" d="M931.38,-285.98C925.82,-283.7 919.62,-281.47 913.74,-280 847.43,-263.38 653.17,-246.76 556.18,-239.21"/>
<polygon fill="midnightblue" stroke="midnightblue" points="556.22,-235.7 545.98,-238.42 555.68,-242.68 556.22,-235.7"/>
</g>
<!-- Node12 -->
<g id="node12" class="node">
<title>Node12</title>
<g id="a_node12"><a xlink:title=" ">
<polygon fill="white" stroke="#bfbfbf" points="27.74,-56.5 27.74,-75.5 65.74,-75.5 65.74,-56.5 27.74,-56.5"/>
<text text-anchor="middle" x="46.74" y="-63.5" font-family="Helvetica,sans-Serif" font-size="10.00">map</text>
</a>
</g>
</g>
<!-- Node3&#45;&gt;Node12 -->
<g id="edge52" class="edge">
<title>Node3&#45;&gt;Node12</title>
<path fill="none" stroke="midnightblue" d="M931.41,-285.86C925.85,-283.58 919.64,-281.38 913.74,-280 710.17,-232.39 650.66,-280.09 444.74,-244 261.21,-211.83 153.53,-280.31 40.74,-132 30.68,-118.77 34.11,-99.38 38.88,-85.21"/>
<polygon fill="midnightblue" stroke="midnightblue" points="42.26,-86.18 42.59,-75.59 35.73,-83.67 42.26,-86.18"/>
</g>
<!-- Node17 -->
<g id="node17" class="node">
<title>Node17</title>
<g id="a_node17"><a xlink:title=" ">
<polygon fill="white" stroke="#bfbfbf" points="580.74,-112.5 580.74,-131.5 636.74,-131.5 636.74,-112.5 580.74,-112.5"/>
<text text-anchor="middle" x="608.74" y="-119.5" font-family="Helvetica,sans-Serif" font-size="10.00">optional</text>
</a>
</g>
</g>
<!-- Node3&#45;&gt;Node17 -->
<g id="edge54" class="edge">
<title>Node3&#45;&gt;Node17</title>
<path fill="none" stroke="midnightblue" d="M930.14,-285.95C924.87,-283.83 919.14,-281.69 913.74,-280 845.01,-258.48 820.39,-275.74 755.74,-244 700.58,-216.92 648.02,-165.37 623.37,-139.17"/>
<polygon fill="midnightblue" stroke="midnightblue" points="625.74,-136.57 616.38,-131.61 620.6,-141.33 625.74,-136.57"/>
</g>
<!-- Node20 -->
<g id="node20" class="node">
<title>Node20</title>
<g id="a_node20"><a xlink:href="sha256__hash_8h.html" target="_top" xlink:title=" ">
<polygon fill="white" stroke="black" points="764.74,-224.5 764.74,-243.5 904.74,-243.5 904.74,-224.5 764.74,-224.5"/>
<text text-anchor="middle" x="834.74" y="-231.5" font-family="Helvetica,sans-Serif" font-size="10.00">ccf/crypto/sha256_hash.h</text>
</a>
</g>
</g>
<!-- Node3&#45;&gt;Node20 -->
<g id="edge21" class="edge">
<title>Node3&#45;&gt;Node20</title>
<path fill="none" stroke="midnightblue" d="M933.26,-285.98C914.13,-276.08 882.37,-259.64 860.09,-248.12"/>
<polygon fill="midnightblue" stroke="midnightblue" points="861.67,-245 851.18,-243.51 858.46,-251.21 861.67,-245"/>
</g>
<!-- Node23 -->
<g id="node23" class="node">
<title>Node23</title>
<g id="a_node23"><a xlink:title=" ">
<polygon fill="white" stroke="#bfbfbf" points="1257.74,-0.5 1257.74,-19.5 1301.74,-19.5 1301.74,-0.5 1257.74,-0.5"/>
<text text-anchor="middle" x="1279.74" y="-7.5" font-family="Helvetica,sans-Serif" font-size="10.00">string</text>
</a>
</g>
</g>
<!-- Node3&#45;&gt;Node23 -->
<g id="edge55" class="edge">
<title>Node3&#45;&gt;Node23</title>
<path fill="none" stroke="midnightblue" d="M976.35,-292.01C1061.19,-283.34 1319.74,-251 1319.74,-179 1319.74,-179 1319.74,-179 1319.74,-121 1319.74,-86.62 1302.26,-49.63 1290.42,-28.5"/>
<polygon fill="midnightblue" stroke="midnightblue" points="1293.36,-26.61 1285.3,-19.73 1287.31,-30.13 1293.36,-26.61"/>
</g>
<!-- Node32 -->
<g id="node32" class="node">
<title>Node32</title>
<g id="a_node32"><a xlink:href="tx__id_8h.html" target="_top" xlink:title=" ">
<polygon fill="white" stroke="black" points="1032.24,-224.5 1032.24,-243.5 1099.24,-243.5 1099.24,-224.5 1032.24,-224.5"/>
<text text-anchor="middle" x="1065.74" y="-231.5" font-family="Helvetica,sans-Serif" font-size="10.00">ccf/tx_id.h</text>
</a>
</g>
</g>
<!-- Node3&#45;&gt;Node32 -->
<g id="edge42" class="edge">
<title>Node3&#45;&gt;Node32</title>
<path fill="none" stroke="midnightblue" d="M966.36,-285.98C985.65,-276.08 1017.7,-259.64 1040.17,-248.12"/>
<polygon fill="midnightblue" stroke="midnightblue" points="1041.85,-251.19 1049.15,-243.51 1038.65,-244.96 1041.85,-251.19"/>
</g>
<!-- Node35 -->
<g id="node35" class="node">
<title>Node35</title>
<g id="a_node35"><a xlink:title=" ">
<polygon fill="white" stroke="#bfbfbf" points="1347.74,-224.5 1347.74,-243.5 1379.74,-243.5 1379.74,-224.5 1347.74,-224.5"/>
<text text-anchor="middle" x="1363.74" y="-231.5" font-family="Helvetica,sans-Serif" font-size="10.00">list</text>
</a>
</g>
</g>
<!-- Node3&#45;&gt;Node35 -->
<g id="edge51" class="edge">
<title>Node3&#45;&gt;Node35</title>
<path fill="none" stroke="midnightblue" d="M976.53,-292.47C1039.43,-287.38 1201.26,-272.39 1333.74,-244 1335.02,-243.72 1336.34,-243.42 1337.66,-243.1"/>
<polygon fill="midnightblue" stroke="midnightblue" points="1338.96,-246.37 1347.67,-240.34 1337.1,-239.62 1338.96,-246.37"/>
</g>
<!-- Node36 -->
<g id="node36" class="node">
<title>Node36</title>
<g id="a_node36"><a xlink:title=" ">
<polygon fill="white" stroke="#bfbfbf" points="1397.74,-224.5 1397.74,-243.5 1455.74,-243.5 1455.74,-224.5 1397.74,-224.5"/>
<text text-anchor="middle" x="1426.74" y="-231.5" font-family="Helvetica,sans-Serif" font-size="10.00">memory</text>
</a>
</g>
</g>
<!-- Node3&#45;&gt;Node36 -->
<g id="edge53" class="edge">
<title>Node3&#45;&gt;Node36</title>
<path fill="none" stroke="midnightblue" d="M976.37,-292.54C1043.64,-287.35 1225.96,-271.84 1387.25,-244.08"/>
<polygon fill="midnightblue" stroke="midnightblue" points="1388.1,-247.49 1397.35,-242.32 1386.9,-240.59 1388.1,-247.49"/>
</g>
<!-- Node5 -->
<g id="node5" class="node">
<title>Node5</title>
<g id="a_node5"><a xlink:href="logger_8h.html" target="_top" xlink:title=" ">
<polygon fill="white" stroke="black" points="365.24,-168.5 365.24,-187.5 452.24,-187.5 452.24,-168.5 365.24,-168.5"/>
<text text-anchor="middle" x="408.74" y="-175.5" font-family="Helvetica,sans-Serif" font-size="10.00">ccf/ds/logger.h</text>
</a>
</g>
</g>
<!-- Node4&#45;&gt;Node5 -->
<g id="edge4" class="edge">
<title>Node4&#45;&gt;Node5</title>
<path fill="none" stroke="midnightblue" d="M485.12,-224.32C470.79,-215.82 448.73,-202.73 431.99,-192.8"/>
<polygon fill="midnightblue" stroke="midnightblue" points="433.71,-189.75 423.32,-187.65 430.14,-195.77 433.71,-189.75"/>
</g>
<!-- Node6 -->
<g id="node6" class="node">
<title>Node6</title>
<g id="a_node6"><a xlink:href="enum__formatter_8h.html" target="_top" xlink:title=" ">
<polygon fill="white" stroke="black" points="388.74,-112.5 388.74,-131.5 524.74,-131.5 524.74,-112.5 388.74,-112.5"/>
<text text-anchor="middle" x="456.74" y="-119.5" font-family="Helvetica,sans-Serif" font-size="10.00">ccf/ds/enum_formatter.h</text>
</a>
</g>
</g>
<!-- Node5&#45;&gt;Node6 -->
<g id="edge5" class="edge">
<title>Node5&#45;&gt;Node6</title>
<path fill="none" stroke="midnightblue" d="M416.66,-168.08C423.58,-160.3 433.8,-148.8 442.19,-139.37"/>
<polygon fill="midnightblue" stroke="midnightblue" points="444.93,-141.55 448.96,-131.75 439.7,-136.9 444.93,-141.55"/>
</g>
<!-- Node7 -->
<g id="node7" class="node">
<title>Node7</title>
<g id="a_node7"><a xlink:title=" ">
<polygon fill="white" stroke="#bfbfbf" points="699.24,-56.5 699.24,-75.5 778.24,-75.5 778.24,-56.5 699.24,-56.5"/>
<text text-anchor="middle" x="738.74" y="-63.5" font-family="Helvetica,sans-Serif" font-size="10.00">fmt/format.h</text>
</a>
</g>
</g>
<!-- Node5&#45;&gt;Node7 -->
<g id="edge15" class="edge">
<title>Node5&#45;&gt;Node7</title>
<path fill="none" stroke="midnightblue" d="M399.14,-168.07C385.79,-154.6 364.86,-128.86 379.74,-112 399.87,-89.19 595.14,-75.13 688.93,-69.64"/>
<polygon fill="midnightblue" stroke="midnightblue" points="689.26,-73.13 699.04,-69.06 688.85,-66.14 689.26,-73.13"/>
</g>
<!-- Node8 -->
<g id="node8" class="node">
<title>Node8</title>
<g id="a_node8"><a xlink:href="thread__ids_8h.html" target="_top" xlink:title=" ">
<polygon fill="white" stroke="black" points="49.74,-112.5 49.74,-131.5 157.74,-131.5 157.74,-112.5 49.74,-112.5"/>
<text text-anchor="middle" x="103.74" y="-119.5" font-family="Helvetica,sans-Serif" font-size="10.00">ccf/ds/thread_ids.h</text>
</a>
</g>
</g>
<!-- Node5&#45;&gt;Node8 -->
<g id="edge7" class="edge">
<title>Node5&#45;&gt;Node8</title>
<path fill="none" stroke="midnightblue" d="M365.04,-169.26C311.63,-159.81 221.07,-143.77 161.84,-133.29"/>
<polygon fill="midnightblue" stroke="midnightblue" points="162.34,-129.82 151.89,-131.52 161.12,-136.71 162.34,-129.82"/>
</g>
<!-- Node14 -->
<g id="node14" class="node">
<title>Node14</title>
<g id="a_node14"><a xlink:title=" ">
<polygon fill="white" stroke="#bfbfbf" points="176.24,-112.5 176.24,-131.5 255.24,-131.5 255.24,-112.5 176.24,-112.5"/>
<text text-anchor="middle" x="215.74" y="-119.5" font-family="Helvetica,sans-Serif" font-size="10.00">fmt/chrono.h</text>
</a>
</g>
</g>
<!-- Node5&#45;&gt;Node14 -->
<g id="edge14" class="edge">
<title>Node5&#45;&gt;Node14</title>
<path fill="none" stroke="midnightblue" d="M378.16,-168.44C345.12,-159.2 292.35,-144.44 255.97,-134.26"/>
<polygon fill="midnightblue" stroke="midnightblue" points="256.75,-130.84 246.18,-131.52 254.86,-137.58 256.75,-130.84"/>
</g>
<!-- Node15 -->
<g id="node15" class="node">
<title>Node15</title>
<g id="a_node15"><a xlink:title=" ">
<polygon fill="white" stroke="#bfbfbf" points="272.74,-112.5 272.74,-131.5 332.74,-131.5 332.74,-112.5 272.74,-112.5"/>
<text text-anchor="middle" x="302.74" y="-119.5" font-family="Helvetica,sans-Serif" font-size="10.00">iostream</text>
</a>
</g>
</g>
<!-- Node5&#45;&gt;Node15 -->
<g id="edge16" class="edge">
<title>Node5&#45;&gt;Node15</title>
<path fill="none" stroke="midnightblue" d="M391.71,-168.32C374.71,-159.66 348.36,-146.24 328.75,-136.25"/>
<polygon fill="midnightblue" stroke="midnightblue" points="330.23,-133.08 319.73,-131.65 327.05,-139.31 330.23,-133.08"/>
</g>
<!-- Node16 -->
<g id="node16" class="node">
<title>Node16</title>
<g id="a_node16"><a xlink:title=" ">
<polygon fill="white" stroke="#bfbfbf" points="867.74,-56.5 867.74,-75.5 977.74,-75.5 977.74,-56.5 867.74,-56.5"/>
<text text-anchor="middle" x="922.74" y="-63.5" font-family="Helvetica,sans-Serif" font-size="10.00">nlohmann/json.hpp</text>
</a>
</g>
</g>
<!-- Node5&#45;&gt;Node16 -->
<g id="edge17" class="edge">
<title>Node5&#45;&gt;Node16</title>
<path fill="none" stroke="midnightblue" d="M435.99,-168.41C461.6,-160.04 500.81,-146.51 533.74,-132 551.2,-124.3 553.54,-117.75 571.74,-112 623.51,-95.64 771.12,-80.42 857.54,-72.57"/>
<polygon fill="midnightblue" stroke="midnightblue" points="857.86,-76.05 867.51,-71.67 857.23,-69.08 857.86,-76.05"/>
</g>
<!-- Node5&#45;&gt;Node17 -->
<g id="edge18" class="edge">
<title>Node5&#45;&gt;Node17</title>
<path fill="none" stroke="midnightblue" d="M440.43,-168.44C475.67,-158.93 532.58,-143.56 570.33,-133.37"/>
<polygon fill="midnightblue" stroke="midnightblue" points="571.69,-136.63 580.43,-130.64 569.86,-129.87 571.69,-136.63"/>
</g>
<!-- Node18 -->
<g id="node18" class="node">
<title>Node18</title>
<g id="a_node18"><a xlink:title=" ">
<polygon fill="white" stroke="#bfbfbf" points="654.74,-112.5 654.74,-131.5 710.74,-131.5 710.74,-112.5 654.74,-112.5"/>
<text text-anchor="middle" x="682.74" y="-119.5" font-family="Helvetica,sans-Serif" font-size="10.00">sstream</text>
</a>
</g>
</g>
<!-- Node5&#45;&gt;Node18 -->
<g id="edge19" class="edge">
<title>Node5&#45;&gt;Node18</title>
<path fill="none" stroke="midnightblue" d="M452.55,-169.37C498.18,-161.27 571.93,-147.75 644.7,-132.14"/>
<polygon fill="midnightblue" stroke="midnightblue" points="645.46,-135.56 654.49,-130.03 643.98,-128.72 645.46,-135.56"/>
</g>
<!-- Node19 -->
<g id="node19" class="node">
<title>Node19</title>
<g id="a_node19"><a xlink:title=" ">
<polygon fill="white" stroke="#bfbfbf" points="394.24,-0.5 394.24,-19.5 463.24,-19.5 463.24,-0.5 394.24,-0.5"/>
<text text-anchor="middle" x="428.74" y="-7.5" font-family="Helvetica,sans-Serif" font-size="10.00">type_traits</text>
</a>
</g>
</g>
<!-- Node5&#45;&gt;Node19 -->
<g id="edge20" class="edge">
<title>Node5&#45;&gt;Node19</title>
<path fill="none" stroke="midnightblue" d="M365,-177.42C243.92,-177.21 -80.39,-166.6 18.74,-56 42.8,-29.15 282.7,-16.7 383.99,-12.61"/>
<polygon fill="midnightblue" stroke="midnightblue" points="384.35,-16.09 394.2,-12.2 384.07,-9.1 384.35,-16.09"/>
</g>
<!-- Node6&#45;&gt;Node7 -->
<g id="edge6" class="edge">
<title>Node6&#45;&gt;Node7</title>
<path fill="none" stroke="midnightblue" d="M501.42,-112.44C552.49,-102.66 635.84,-86.7 688.95,-76.53"/>
<polygon fill="midnightblue" stroke="midnightblue" points="689.66,-79.96 698.82,-74.64 688.34,-73.09 689.66,-79.96"/>
</g>
<!-- Node8&#45;&gt;Node7 -->
<g id="edge8" class="edge">
<title>Node8&#45;&gt;Node7</title>
<path fill="none" stroke="midnightblue" d="M158.01,-113.02C160.96,-112.66 163.88,-112.32 166.74,-112 359.42,-90.68 589.71,-75.77 689.08,-69.84"/>
<polygon fill="midnightblue" stroke="midnightblue" points="689.35,-73.33 699.13,-69.25 688.94,-66.35 689.35,-73.33"/>
</g>
<!-- Node9 -->
<g id="node9" class="node">
<title>Node9</title>
<g id="a_node9"><a xlink:title=" ">
<polygon fill="white" stroke="#bfbfbf" points="83.74,-56.5 83.74,-75.5 169.74,-75.5 169.74,-56.5 83.74,-56.5"/>
<text text-anchor="middle" x="126.74" y="-63.5" font-family="Helvetica,sans-Serif" font-size="10.00">fmt/ostream.h</text>
</a>
</g>
</g>
<!-- Node8&#45;&gt;Node9 -->
<g id="edge9" class="edge">
<title>Node8&#45;&gt;Node9</title>
<path fill="none" stroke="midnightblue" d="M107.54,-112.08C110.65,-104.77 115.16,-94.18 119.03,-85.1"/>
<polygon fill="midnightblue" stroke="midnightblue" points="122.31,-86.32 123.01,-75.75 115.87,-83.58 122.31,-86.32"/>
</g>
<!-- Node10 -->
<g id="node10" class="node">
<title>Node10</title>
<g id="a_node10"><a xlink:title=" ">
<polygon fill="white" stroke="#bfbfbf" points="188.24,-56.5 188.24,-75.5 249.24,-75.5 249.24,-56.5 188.24,-56.5"/>
<text text-anchor="middle" x="218.74" y="-63.5" font-family="Helvetica,sans-Serif" font-size="10.00">fmt/std.h</text>
</a>
</g>
</g>
<!-- Node8&#45;&gt;Node10 -->
<g id="edge10" class="edge">
<title>Node8&#45;&gt;Node10</title>
<path fill="none" stroke="midnightblue" d="M121.96,-112.44C140.63,-103.68 169.89,-89.94 191.36,-79.86"/>
<polygon fill="midnightblue" stroke="midnightblue" points="193.04,-82.93 200.6,-75.52 190.06,-76.6 193.04,-82.93"/>
</g>
<!-- Node11 -->
<g id="node11" class="node">
<title>Node11</title>
<g id="a_node11"><a xlink:title=" ">
<polygon fill="white" stroke="#bfbfbf" points="267.74,-56.5 267.74,-75.5 311.74,-75.5 311.74,-56.5 267.74,-56.5"/>
<text text-anchor="middle" x="289.74" y="-63.5" font-family="Helvetica,sans-Serif" font-size="10.00">limits</text>
</a>
</g>
</g>
<!-- Node8&#45;&gt;Node11 -->
<g id="edge11" class="edge">
<title>Node8&#45;&gt;Node11</title>
<path fill="none" stroke="midnightblue" d="M133.21,-112.44C167.24,-102.56 223.01,-86.37 257.98,-76.22"/>
<polygon fill="midnightblue" stroke="midnightblue" points="259.06,-79.55 267.69,-73.4 257.11,-72.83 259.06,-79.55"/>
</g>
<!-- Node8&#45;&gt;Node12 -->
<g id="edge12" class="edge">
<title>Node8&#45;&gt;Node12</title>
<path fill="none" stroke="midnightblue" d="M94.58,-112.32C86.24,-104.42 73.71,-92.55 63.56,-82.94"/>
<polygon fill="midnightblue" stroke="midnightblue" points="65.73,-80.17 56.06,-75.83 60.92,-85.25 65.73,-80.17"/>
</g>
<!-- Node13 -->
<g id="node13" class="node">
<title>Node13</title>
<g id="a_node13"><a xlink:title=" ">
<polygon fill="white" stroke="#bfbfbf" points="329.74,-56.5 329.74,-75.5 377.74,-75.5 377.74,-56.5 329.74,-56.5"/>
<text text-anchor="middle" x="353.74" y="-63.5" font-family="Helvetica,sans-Serif" font-size="10.00">thread</text>
</a>
</g>
</g>
<!-- Node8&#45;&gt;Node13 -->
<g id="edge13" class="edge">
<title>Node8&#45;&gt;Node13</title>
<path fill="none" stroke="midnightblue" d="M148.8,-112.5C190.67,-104.41 254.96,-91.51 319.67,-76.15"/>
<polygon fill="midnightblue" stroke="midnightblue" points="320.72,-79.49 329.63,-73.76 319.09,-72.68 320.72,-79.49"/>
</g>
<!-- Node20&#45;&gt;Node7 -->
<g id="edge41" class="edge">
<title>Node20&#45;&gt;Node7</title>
<path fill="none" stroke="midnightblue" d="M808.42,-224.38C791.22,-217.35 769.78,-205.65 757.74,-188 736.53,-156.93 735.56,-111.02 736.99,-85.62"/>
<polygon fill="midnightblue" stroke="midnightblue" points="740.49,-85.75 737.75,-75.51 733.51,-85.22 740.49,-85.75"/>
</g>
<!-- Node21 -->
<g id="node21" class="node">
<title>Node21</title>
<g id="a_node21"><a xlink:href="json_8h.html" target="_top" xlink:title=" ">
<polygon fill="white" stroke="black" points="901.24,-168.5 901.24,-187.5 978.24,-187.5 978.24,-168.5 901.24,-168.5"/>
<text text-anchor="middle" x="939.74" y="-175.5" font-family="Helvetica,sans-Serif" font-size="10.00">ccf/ds/json.h</text>
</a>
</g>
</g>
<!-- Node20&#45;&gt;Node21 -->
<g id="edge22" class="edge">
<title>Node20&#45;&gt;Node21</title>
<path fill="none" stroke="midnightblue" d="M851.61,-224.32C868.45,-215.66 894.55,-202.24 913.98,-192.25"/>
<polygon fill="midnightblue" stroke="midnightblue" points="915.62,-195.34 922.91,-187.65 912.42,-189.12 915.62,-195.34"/>
</g>
<!-- Node28 -->
<g id="node28" class="node">
<title>Node28</title>
<g id="a_node28"><a xlink:title=" ">
<polygon fill="white" stroke="#bfbfbf" points="846.74,-0.5 846.74,-19.5 888.74,-19.5 888.74,-0.5 846.74,-0.5"/>
<text text-anchor="middle" x="867.74" y="-7.5" font-family="Helvetica,sans-Serif" font-size="10.00">array</text>
</a>
</g>
</g>
<!-- Node20&#45;&gt;Node28 -->
<g id="edge39" class="edge">
<title>Node20&#45;&gt;Node28</title>
<path fill="none" stroke="midnightblue" d="M835.7,-224.5C838.63,-198.93 847.92,-120.53 858.74,-56 860.21,-47.25 862.1,-37.59 863.77,-29.48"/>
<polygon fill="midnightblue" stroke="midnightblue" points="867.22,-30.1 865.85,-19.6 860.37,-28.66 867.22,-30.1"/>
</g>
<!-- Node31 -->
<g id="node31" class="node">
<title>Node31</title>
<g id="a_node31"><a xlink:title=" ">
<polygon fill="white" stroke="#bfbfbf" points="766.74,-168.5 766.74,-187.5 806.74,-187.5 806.74,-168.5 766.74,-168.5"/>
<text text-anchor="middle" x="786.74" y="-175.5" font-family="Helvetica,sans-Serif" font-size="10.00">span</text>
</a>
</g>
</g>
<!-- Node20&#45;&gt;Node31 -->
<g id="edge40" class="edge">
<title>Node20&#45;&gt;Node31</title>
<path fill="none" stroke="midnightblue" d="M826.81,-224.08C819.89,-216.3 809.67,-204.8 801.29,-195.37"/>
<polygon fill="midnightblue" stroke="midnightblue" points="803.78,-192.9 794.52,-187.75 798.55,-197.55 803.78,-192.9"/>
</g>
<!-- Node21&#45;&gt;Node7 -->
<g id="edge37" class="edge">
<title>Node21&#45;&gt;Node7</title>
<path fill="none" stroke="midnightblue" d="M900.96,-169.86C871.78,-163.24 831.66,-151.43 800.74,-132 780.62,-119.36 762.48,-98.74 751.1,-84.11"/>
<polygon fill="midnightblue" stroke="midnightblue" points="753.74,-81.8 744.93,-75.91 748.14,-86 753.74,-81.8"/>
</g>
<!-- Node21&#45;&gt;Node18 -->
<g id="edge38" class="edge">
<title>Node21&#45;&gt;Node18</title>
<path fill="none" stroke="midnightblue" d="M900.98,-168.86C852.39,-158.65 769.58,-141.25 721.15,-131.07"/>
<polygon fill="midnightblue" stroke="midnightblue" points="721.57,-127.58 711.07,-128.95 720.13,-134.43 721.57,-127.58"/>
</g>
<!-- Node22 -->
<g id="node22" class="node">
<title>Node22</title>
<g id="a_node22"><a xlink:href="include_2ccf_2crypto_2base64_8h.html" target="_top" xlink:title=" ">
<polygon fill="white" stroke="black" points="1103.74,-56.5 1103.74,-75.5 1215.74,-75.5 1215.74,-56.5 1103.74,-56.5"/>
<text text-anchor="middle" x="1159.74" y="-63.5" font-family="Helvetica,sans-Serif" font-size="10.00">ccf/crypto/base64.h</text>
</a>
</g>
</g>
<!-- Node21&#45;&gt;Node22 -->
<g id="edge23" class="edge">
<title>Node21&#45;&gt;Node22</title>
<path fill="none" stroke="midnightblue" d="M957,-168.37C995.4,-149.17 1088.06,-102.84 1133.59,-80.07"/>
<polygon fill="midnightblue" stroke="midnightblue" points="1135.18,-83.19 1142.56,-75.59 1132.05,-76.93 1135.18,-83.19"/>
</g>
<!-- Node25 -->
<g id="node25" class="node">
<title>Node25</title>
<g id="a_node25"><a xlink:href="include_2ccf_2ds_2json__schema_8h.html" target="_top" xlink:title=" ">
<polygon fill="white" stroke="black" points="881.24,-112.5 881.24,-131.5 1002.24,-131.5 1002.24,-112.5 881.24,-112.5"/>
<text text-anchor="middle" x="941.74" y="-119.5" font-family="Helvetica,sans-Serif" font-size="10.00">ccf/ds/json_schema.h</text>
</a>
</g>
</g>
<!-- Node21&#45;&gt;Node25 -->
<g id="edge26" class="edge">
<title>Node21&#45;&gt;Node25</title>
<path fill="none" stroke="midnightblue" d="M940.07,-168.08C940.33,-161.01 940.71,-150.86 941.04,-141.99"/>
<polygon fill="midnightblue" stroke="midnightblue" points="944.54,-141.87 941.41,-131.75 937.55,-141.61 944.54,-141.87"/>
</g>
<!-- Node22&#45;&gt;Node23 -->
<g id="edge24" class="edge">
<title>Node22&#45;&gt;Node23</title>
<path fill="none" stroke="midnightblue" d="M1178.75,-56.44C1198.33,-47.64 1229.05,-33.81 1251.47,-23.72"/>
<polygon fill="midnightblue" stroke="midnightblue" points="1253.13,-26.81 1260.81,-19.52 1250.26,-20.43 1253.13,-26.81"/>
</g>
<!-- Node24 -->
<g id="node24" class="node">
<title>Node24</title>
<g id="a_node24"><a xlink:title=" ">
<polygon fill="white" stroke="#bfbfbf" points="1094.24,-0.5 1094.24,-19.5 1141.24,-19.5 1141.24,-0.5 1094.24,-0.5"/>
<text text-anchor="middle" x="1117.74" y="-7.5" font-family="Helvetica,sans-Serif" font-size="10.00">vector</text>
</a>
</g>
</g>
<!-- Node22&#45;&gt;Node24 -->
<g id="edge25" class="edge">
<title>Node22&#45;&gt;Node24</title>
<path fill="none" stroke="midnightblue" d="M1152.8,-56.08C1146.81,-48.38 1137.99,-37.03 1130.69,-27.65"/>
<polygon fill="midnightblue" stroke="midnightblue" points="1133.45,-25.5 1124.55,-19.75 1127.92,-29.79 1133.45,-25.5"/>
</g>
<!-- Node25&#45;&gt;Node7 -->
<g id="edge35" class="edge">
<title>Node25&#45;&gt;Node7</title>
<path fill="none" stroke="midnightblue" d="M909.57,-112.44C874.68,-103.16 818.85,-88.31 780.57,-78.13"/>
<polygon fill="midnightblue" stroke="midnightblue" points="781.32,-74.7 770.75,-75.52 779.52,-81.47 781.32,-74.7"/>
</g>
<!-- Node25&#45;&gt;Node16 -->
<g id="edge36" class="edge">
<title>Node25&#45;&gt;Node16</title>
<path fill="none" stroke="midnightblue" d="M938.6,-112.08C936.06,-104.85 932.38,-94.41 929.21,-85.4"/>
<polygon fill="midnightblue" stroke="midnightblue" points="932.44,-84.02 925.82,-75.75 925.84,-86.35 932.44,-84.02"/>
</g>
<!-- Node26 -->
<g id="node26" class="node">
<title>Node26</title>
<g id="a_node26"><a xlink:href="nonstd_8h.html" target="_top" xlink:title=" ">
<polygon fill="white" stroke="black" points="995.74,-56.5 995.74,-75.5 1085.74,-75.5 1085.74,-56.5 995.74,-56.5"/>
<text text-anchor="middle" x="1040.74" y="-63.5" font-family="Helvetica,sans-Serif" font-size="10.00">ccf/ds/nonstd.h</text>
</a>
</g>
</g>
<!-- Node25&#45;&gt;Node26 -->
<g id="edge27" class="edge">
<title>Node25&#45;&gt;Node26</title>
<path fill="none" stroke="midnightblue" d="M957.64,-112.32C973.38,-103.74 997.68,-90.49 1015.95,-80.52"/>
<polygon fill="midnightblue" stroke="midnightblue" points="1017.77,-83.52 1024.87,-75.65 1014.42,-77.37 1017.77,-83.52"/>
</g>
<!-- Node26&#45;&gt;Node19 -->
<g id="edge33" class="edge">
<title>Node26&#45;&gt;Node19</title>
<path fill="none" stroke="midnightblue" d="M995.7,-57.2C992.67,-56.77 989.66,-56.36 986.74,-56 796.61,-32.53 568.46,-18.53 473.55,-13.32"/>
<polygon fill="midnightblue" stroke="midnightblue" points="473.63,-9.82 463.45,-12.77 473.25,-16.81 473.63,-9.82"/>
</g>
<!-- Node26&#45;&gt;Node23 -->
<g id="edge31" class="edge">
<title>Node26&#45;&gt;Node23</title>
<path fill="none" stroke="midnightblue" d="M1082.09,-56.47C1123.57,-47.77 1189.25,-33.67 1245.74,-20 1246.33,-19.86 1246.93,-19.71 1247.53,-19.56"/>
<polygon fill="midnightblue" stroke="midnightblue" points="1248.63,-22.9 1257.46,-17.04 1246.91,-16.11 1248.63,-22.9"/>
</g>
<!-- Node26&#45;&gt;Node24 -->
<g id="edge34" class="edge">
<title>Node26&#45;&gt;Node24</title>
<path fill="none" stroke="midnightblue" d="M1053.11,-56.32C1064.9,-48.06 1082.87,-35.45 1096.87,-25.63"/>
<polygon fill="midnightblue" stroke="midnightblue" points="1099.22,-28.26 1105.4,-19.65 1095.2,-22.53 1099.22,-28.26"/>
</g>
<!-- Node27 -->
<g id="node27" class="node">
<title>Node27</title>
<g id="a_node27"><a xlink:title=" ">
<polygon fill="white" stroke="#bfbfbf" points="934.74,-0.5 934.74,-19.5 998.74,-19.5 998.74,-0.5 934.74,-0.5"/>
<text text-anchor="middle" x="966.74" y="-7.5" font-family="Helvetica,sans-Serif" font-size="10.00">algorithm</text>
</a>
</g>
</g>
<!-- Node26&#45;&gt;Node27 -->
<g id="edge28" class="edge">
<title>Node26&#45;&gt;Node27</title>
<path fill="none" stroke="midnightblue" d="M1028.85,-56.32C1017.59,-48.11 1000.45,-35.6 987.03,-25.81"/>
<polygon fill="midnightblue" stroke="midnightblue" points="988.99,-22.9 978.84,-19.83 984.86,-28.56 988.99,-22.9"/>
</g>
<!-- Node26&#45;&gt;Node28 -->
<g id="edge29" class="edge">
<title>Node26&#45;&gt;Node28</title>
<path fill="none" stroke="midnightblue" d="M1013.33,-56.44C982.12,-46.7 931.26,-30.83 898.66,-20.65"/>
<polygon fill="midnightblue" stroke="midnightblue" points="899.35,-17.2 888.76,-17.56 897.27,-23.88 899.35,-17.2"/>
</g>
<!-- Node29 -->
<g id="node29" class="node">
<title>Node29</title>
<g id="a_node29"><a xlink:title=" ">
<polygon fill="white" stroke="#bfbfbf" points="1017.24,-0.5 1017.24,-19.5 1066.24,-19.5 1066.24,-0.5 1017.24,-0.5"/>
<text text-anchor="middle" x="1041.74" y="-7.5" font-family="Helvetica,sans-Serif" font-size="10.00">cctype</text>
</a>
</g>
</g>
<!-- Node26&#45;&gt;Node29 -->
<g id="edge30" class="edge">
<title>Node26&#45;&gt;Node29</title>
<path fill="none" stroke="midnightblue" d="M1040.9,-56.08C1041.03,-49.01 1041.22,-38.86 1041.39,-29.99"/>
<polygon fill="midnightblue" stroke="midnightblue" points="1044.89,-29.81 1041.58,-19.75 1037.89,-29.68 1044.89,-29.81"/>
</g>
<!-- Node30 -->
<g id="node30" class="node">
<title>Node30</title>
<g id="a_node30"><a xlink:title=" ">
<polygon fill="white" stroke="#bfbfbf" points="1164.24,-0.5 1164.24,-19.5 1237.24,-19.5 1237.24,-0.5 1164.24,-0.5"/>
<text text-anchor="middle" x="1200.74" y="-7.5" font-family="Helvetica,sans-Serif" font-size="10.00">string_view</text>
</a>
</g>
</g>
<!-- Node26&#45;&gt;Node30 -->
<g id="edge32" class="edge">
<title>Node26&#45;&gt;Node30</title>
<path fill="none" stroke="midnightblue" d="M1066.09,-56.44C1093.01,-47.36 1135.74,-32.94 1165.83,-22.78"/>
<polygon fill="midnightblue" stroke="midnightblue" points="1167.15,-26.03 1175.5,-19.52 1164.91,-19.4 1167.15,-26.03"/>
</g>
<!-- Node32&#45;&gt;Node7 -->
<g id="edge46" class="edge">
<title>Node32&#45;&gt;Node7</title>
<path fill="none" stroke="midnightblue" d="M1057.33,-224.16C1043.72,-210.33 1015.48,-183.55 986.74,-168 939.63,-142.51 921.5,-151.81 871.74,-132 832.82,-116.5 789.55,-94.39 763.24,-80.37"/>
<polygon fill="midnightblue" stroke="midnightblue" points="764.82,-77.25 754.36,-75.6 761.51,-83.41 764.82,-77.25"/>
</g>
<!-- Node32&#45;&gt;Node16 -->
<g id="edge47" class="edge">
<title>Node32&#45;&gt;Node16</title>
<path fill="none" stroke="midnightblue" d="M1099.46,-226.75C1138.49,-217.92 1194.87,-199.28 1173.74,-168 1149.65,-132.35 1031.5,-96 966.25,-78.21"/>
<polygon fill="midnightblue" stroke="midnightblue" points="966.82,-74.74 956.25,-75.52 965,-81.5 966.82,-74.74"/>
</g>
<!-- Node32&#45;&gt;Node17 -->
<g id="edge48" class="edge">
<title>Node32&#45;&gt;Node17</title>
<path fill="none" stroke="midnightblue" d="M1032.69,-224.5C997.69,-215.48 940.8,-200.8 891.74,-188 857.94,-179.18 849.72,-176.06 815.74,-168 743.68,-150.9 722.74,-149.24 647.02,-132.24"/>
<polygon fill="midnightblue" stroke="midnightblue" points="647.53,-128.76 637,-129.97 645.98,-135.59 647.53,-128.76"/>
</g>
<!-- Node32&#45;&gt;Node21 -->
<g id="edge43" class="edge">
<title>Node32&#45;&gt;Node21</title>
<path fill="none" stroke="midnightblue" d="M1045.77,-224.44C1025.13,-215.6 992.68,-201.69 969.11,-191.59"/>
<polygon fill="midnightblue" stroke="midnightblue" points="970.18,-188.24 959.61,-187.52 967.42,-194.67 970.18,-188.24"/>
</g>
<!-- Node32&#45;&gt;Node23 -->
<g id="edge49" class="edge">
<title>Node32&#45;&gt;Node23</title>
<path fill="none" stroke="midnightblue" d="M1099.47,-230.14C1131.94,-225.82 1180.83,-215 1213.74,-188 1262.93,-147.64 1275.47,-66.8 1278.66,-30.01"/>
<polygon fill="midnightblue" stroke="midnightblue" points="1282.17,-29.95 1279.4,-19.72 1275.19,-29.45 1282.17,-29.95"/>
</g>
<!-- Node32&#45;&gt;Node30 -->
<g id="edge50" class="edge">
<title>Node32&#45;&gt;Node30</title>
<path fill="none" stroke="midnightblue" d="M1099.47,-229.24C1127.57,-224.36 1166.75,-213.24 1190.74,-188 1232.47,-144.09 1239.43,-114.77 1224.74,-56 1222.3,-46.25 1217.3,-36.29 1212.5,-28.23"/>
<polygon fill="midnightblue" stroke="midnightblue" points="1215.43,-26.32 1207.11,-19.77 1209.53,-30.08 1215.43,-26.32"/>
</g>
<!-- Node33 -->
<g id="node33" class="node">
<title>Node33</title>
<g id="a_node33"><a xlink:title=" ">
<polygon fill="white" stroke="#bfbfbf" points="1035.24,-168.5 1035.24,-187.5 1096.24,-187.5 1096.24,-168.5 1035.24,-168.5"/>
<text text-anchor="middle" x="1065.74" y="-175.5" font-family="Helvetica,sans-Serif" font-size="10.00">charconv</text>
</a>
</g>
</g>
<!-- Node32&#45;&gt;Node33 -->
<g id="edge44" class="edge">
<title>Node32&#45;&gt;Node33</title>
<path fill="none" stroke="midnightblue" d="M1065.74,-224.08C1065.74,-217.01 1065.74,-206.86 1065.74,-197.99"/>
<polygon fill="midnightblue" stroke="midnightblue" points="1069.24,-197.75 1065.74,-187.75 1062.24,-197.75 1069.24,-197.75"/>
</g>
<!-- Node34 -->
<g id="node34" class="node">
<title>Node34</title>
<g id="a_node34"><a xlink:title=" ">
<polygon fill="white" stroke="#bfbfbf" points="1114.74,-168.5 1114.74,-187.5 1164.74,-187.5 1164.74,-168.5 1114.74,-168.5"/>
<text text-anchor="middle" x="1139.74" y="-175.5" font-family="Helvetica,sans-Serif" font-size="10.00">cstdint</text>
</a>
</g>
</g>
<!-- Node32&#45;&gt;Node34 -->
<g id="edge45" class="edge">
<title>Node32&#45;&gt;Node34</title>
<path fill="none" stroke="midnightblue" d="M1077.63,-224.32C1088.89,-216.11 1106.03,-203.6 1119.45,-193.81"/>
<polygon fill="midnightblue" stroke="midnightblue" points="1121.62,-196.56 1127.63,-187.83 1117.49,-190.9 1121.62,-196.56"/>
</g>
</g>
</svg>
