<?xml version="1.0" encoding="UTF-8" standalone="no"?>
<!DOCTYPE svg PUBLIC "-//W3C//DTD SVG 1.1//EN"
 "http://www.w3.org/Graphics/SVG/1.1/DTD/svg11.dtd">
<!-- Generated by graphviz version 2.43.0 (0)
 -->
<!-- Title: src/crypto/hmac.h Pages: 1 -->
<svg width="2446pt" height="699pt"
 viewBox="0.00 0.00 2445.50 699.00" xmlns="http://www.w3.org/2000/svg" xmlns:xlink="http://www.w3.org/1999/xlink">
<g id="graph0" class="graph" transform="scale(1 1) rotate(0) translate(4 695)">
<title>src/crypto/hmac.h</title>
<polygon fill="white" stroke="transparent" points="-4,4 -4,-695 2441.5,-695 2441.5,4 -4,4"/>
<!-- Node1 -->
<g id="node1" class="node">
<title>Node1</title>
<g id="a_node1"><a xlink:title=" ">
<polygon fill="#bfbfbf" stroke="black" points="1522.5,-671.5 1522.5,-690.5 1626.5,-690.5 1626.5,-671.5 1522.5,-671.5"/>
<text text-anchor="middle" x="1574.5" y="-678.5" font-family="Helvetica,sans-Serif" font-size="10.00">src/crypto/hmac.h</text>
</a>
</g>
</g>
<!-- Node2 -->
<g id="node2" class="node">
<title>Node2</title>
<g id="a_node2"><a xlink:href="hmac_8cpp.html" target="_top" xlink:title=" ">
<polygon fill="white" stroke="black" points="1431,-615.5 1431,-634.5 1546,-634.5 1546,-615.5 1431,-615.5"/>
<text text-anchor="middle" x="1488.5" y="-622.5" font-family="Helvetica,sans-Serif" font-size="10.00">src/crypto/hmac.cpp</text>
</a>
</g>
</g>
<!-- Node1&#45;&gt;Node2 -->
<g id="edge1" class="edge">
<title>Node1&#45;&gt;Node2</title>
<path fill="none" stroke="midnightblue" d="M1552.05,-665.9C1536.28,-656 1515.69,-643.07 1502.28,-634.65"/>
<polygon fill="midnightblue" stroke="midnightblue" points="1550.35,-668.97 1560.68,-671.32 1554.07,-663.04 1550.35,-668.97"/>
</g>
<!-- Node3 -->
<g id="node3" class="node">
<title>Node3</title>
<g id="a_node3"><a xlink:href="kv_2encryptor_8h.html" target="_top" xlink:title=" ">
<polygon fill="white" stroke="black" points="1799.5,-375 1799.5,-394 1903.5,-394 1903.5,-375 1799.5,-375"/>
<text text-anchor="middle" x="1851.5" y="-382" font-family="Helvetica,sans-Serif" font-size="10.00">src/kv/encryptor.h</text>
</a>
</g>
</g>
<!-- Node1&#45;&gt;Node3 -->
<g id="edge2" class="edge">
<title>Node1&#45;&gt;Node3</title>
<path fill="none" stroke="midnightblue" d="M1589.72,-663.82C1640.72,-609.6 1804.52,-435.44 1843.24,-394.28"/>
<polygon fill="midnightblue" stroke="midnightblue" points="1587.09,-661.5 1582.79,-671.19 1592.19,-666.3 1587.09,-661.5"/>
</g>
<!-- Node13 -->
<g id="node13" class="node">
<title>Node13</title>
<g id="a_node13"><a xlink:href="ledger__secret_8h.html" target="_top" xlink:title=" ">
<polygon fill="white" stroke="black" points="1652.5,-615.5 1652.5,-634.5 1788.5,-634.5 1788.5,-615.5 1652.5,-615.5"/>
<text text-anchor="middle" x="1720.5" y="-622.5" font-family="Helvetica,sans-Serif" font-size="10.00">src/node/ledger_secret.h</text>
</a>
</g>
</g>
<!-- Node1&#45;&gt;Node13 -->
<g id="edge17" class="edge">
<title>Node1&#45;&gt;Node13</title>
<path fill="none" stroke="midnightblue" d="M1607.2,-667.91C1634.65,-657.75 1673.17,-643.51 1697.47,-634.52"/>
<polygon fill="midnightblue" stroke="midnightblue" points="1605.8,-664.69 1597.63,-671.44 1608.23,-671.26 1605.8,-664.69"/>
</g>
<!-- Node4 -->
<g id="node4" class="node">
<title>Node4</title>
<g id="a_node4"><a xlink:href="node_2encryptor_8h.html" target="_top" xlink:title=" ">
<polygon fill="white" stroke="black" points="1899.5,-308 1899.5,-327 2015.5,-327 2015.5,-308 1899.5,-308"/>
<text text-anchor="middle" x="1957.5" y="-315" font-family="Helvetica,sans-Serif" font-size="10.00">src/node/encryptor.h</text>
</a>
</g>
</g>
<!-- Node3&#45;&gt;Node4 -->
<g id="edge3" class="edge">
<title>Node3&#45;&gt;Node4</title>
<path fill="none" stroke="midnightblue" d="M1874.42,-369.44C1895.42,-356.57 1925.82,-337.93 1943.43,-327.13"/>
<polygon fill="midnightblue" stroke="midnightblue" points="1872.49,-366.52 1865.8,-374.73 1876.15,-372.49 1872.49,-366.52"/>
</g>
<!-- Node11 -->
<g id="node11" class="node">
<title>Node11</title>
<g id="a_node11"><a xlink:href="share__manager_8h.html" target="_top" xlink:title=" ">
<polygon fill="white" stroke="black" points="1698,-308 1698,-327 1843,-327 1843,-308 1698,-308"/>
<text text-anchor="middle" x="1770.5" y="-315" font-family="Helvetica,sans-Serif" font-size="10.00">src/node/share_manager.h</text>
</a>
</g>
</g>
<!-- Node3&#45;&gt;Node11 -->
<g id="edge13" class="edge">
<title>Node3&#45;&gt;Node11</title>
<path fill="none" stroke="midnightblue" d="M1832.45,-368.21C1816.49,-355.41 1794.29,-337.59 1781.25,-327.13"/>
<polygon fill="midnightblue" stroke="midnightblue" points="1830.59,-371.2 1840.58,-374.73 1834.97,-365.75 1830.59,-371.2"/>
</g>
<!-- Node5 -->
<g id="node5" class="node">
<title>Node5</title>
<g id="a_node5"><a xlink:href="historical__queries_8h.html" target="_top" xlink:title=" ">
<polygon fill="white" stroke="black" points="2147.5,-235.5 2147.5,-265.5 2253.5,-265.5 2253.5,-235.5 2147.5,-235.5"/>
<text text-anchor="start" x="2155.5" y="-253.5" font-family="Helvetica,sans-Serif" font-size="10.00">src/node/historical</text>
<text text-anchor="middle" x="2200.5" y="-242.5" font-family="Helvetica,sans-Serif" font-size="10.00">_queries.h</text>
</a>
</g>
</g>
<!-- Node4&#45;&gt;Node5 -->
<g id="edge4" class="edge">
<title>Node4&#45;&gt;Node5</title>
<path fill="none" stroke="midnightblue" d="M1999.23,-305.34C2040.37,-294.33 2103.4,-277.47 2147.94,-265.56"/>
<polygon fill="midnightblue" stroke="midnightblue" points="1998.27,-301.97 1989.52,-307.94 2000.08,-308.73 1998.27,-301.97"/>
</g>
<!-- Node9 -->
<g id="node9" class="node">
<title>Node9</title>
<g id="a_node9"><a xlink:href="node__state_8h.html" target="_top" xlink:title=" ">
<polygon fill="white" stroke="black" points="1517.5,-179.5 1517.5,-198.5 1641.5,-198.5 1641.5,-179.5 1517.5,-179.5"/>
<text text-anchor="middle" x="1579.5" y="-186.5" font-family="Helvetica,sans-Serif" font-size="10.00">src/node/node_state.h</text>
</a>
</g>
</g>
<!-- Node4&#45;&gt;Node9 -->
<g id="edge9" class="edge">
<title>Node4&#45;&gt;Node9</title>
<path fill="none" stroke="midnightblue" d="M1919.09,-305.07C1885.97,-295.1 1836.93,-280.07 1794.5,-266 1724.23,-242.7 1641.9,-212.89 1602.62,-198.51"/>
<polygon fill="midnightblue" stroke="midnightblue" points="1918.25,-308.47 1928.83,-307.99 1920.26,-301.76 1918.25,-308.47"/>
</g>
<!-- Node6 -->
<g id="node6" class="node">
<title>Node6</title>
<g id="a_node6"><a xlink:href="enclave_2enclave_8h.html" target="_top" xlink:title=" ">
<polygon fill="white" stroke="black" points="1614.5,-56.5 1614.5,-75.5 1736.5,-75.5 1736.5,-56.5 1614.5,-56.5"/>
<text text-anchor="middle" x="1675.5" y="-63.5" font-family="Helvetica,sans-Serif" font-size="10.00">src/enclave/enclave.h</text>
</a>
</g>
</g>
<!-- Node5&#45;&gt;Node6 -->
<g id="edge5" class="edge">
<title>Node5&#45;&gt;Node6</title>
<path fill="none" stroke="midnightblue" d="M2187.44,-226.47C2168.02,-194.65 2128.28,-138.19 2077.5,-112 2019.53,-82.1 1834.04,-71.9 1736.61,-68.55"/>
<polygon fill="midnightblue" stroke="midnightblue" points="2184.47,-228.32 2192.59,-235.12 2190.48,-224.74 2184.47,-228.32"/>
</g>
<!-- Node8 -->
<g id="node8" class="node">
<title>Node8</title>
<g id="a_node8"><a xlink:href="historical__transaction__fetcher_8h.html" target="_top" xlink:title=" ">
<polygon fill="white" stroke="black" points="1943,-112.5 1943,-142.5 2068,-142.5 2068,-112.5 1943,-112.5"/>
<text text-anchor="start" x="1951" y="-130.5" font-family="Helvetica,sans-Serif" font-size="10.00">src/indexing/historical</text>
<text text-anchor="middle" x="2005.5" y="-119.5" font-family="Helvetica,sans-Serif" font-size="10.00">_transaction_fetcher.h</text>
</a>
</g>
</g>
<!-- Node5&#45;&gt;Node8 -->
<g id="edge7" class="edge">
<title>Node5&#45;&gt;Node8</title>
<path fill="none" stroke="midnightblue" d="M2168.8,-229.83C2129.31,-205.32 2062.8,-164.06 2028.11,-142.53"/>
<polygon fill="midnightblue" stroke="midnightblue" points="2167.41,-233.08 2177.75,-235.38 2171.1,-227.14 2167.41,-233.08"/>
</g>
<!-- Node7 -->
<g id="node7" class="node">
<title>Node7</title>
<g id="a_node7"><a xlink:href="enclave_2main_8cpp.html" target="_top" xlink:title=" ">
<polygon fill="white" stroke="black" points="1615.5,-0.5 1615.5,-19.5 1735.5,-19.5 1735.5,-0.5 1615.5,-0.5"/>
<text text-anchor="middle" x="1675.5" y="-7.5" font-family="Helvetica,sans-Serif" font-size="10.00">src/enclave/main.cpp</text>
</a>
</g>
</g>
<!-- Node6&#45;&gt;Node7 -->
<g id="edge6" class="edge">
<title>Node6&#45;&gt;Node7</title>
<path fill="none" stroke="midnightblue" d="M1675.5,-45.8C1675.5,-36.91 1675.5,-26.78 1675.5,-19.75"/>
<polygon fill="midnightblue" stroke="midnightblue" points="1672,-46.08 1675.5,-56.08 1679,-46.08 1672,-46.08"/>
</g>
<!-- Node8&#45;&gt;Node6 -->
<g id="edge8" class="edge">
<title>Node8&#45;&gt;Node6</title>
<path fill="none" stroke="midnightblue" d="M1932.64,-113.36C1868.76,-101.85 1777.76,-85.44 1722.89,-75.55"/>
<polygon fill="midnightblue" stroke="midnightblue" points="1932.19,-116.84 1942.65,-115.17 1933.43,-109.95 1932.19,-116.84"/>
</g>
<!-- Node9&#45;&gt;Node6 -->
<g id="edge10" class="edge">
<title>Node9&#45;&gt;Node6</title>
<path fill="none" stroke="midnightblue" d="M1613.43,-175.38C1628.68,-168.1 1645.65,-157.46 1656.5,-143 1671.84,-122.54 1674.9,-91.15 1675.44,-75.91"/>
<polygon fill="midnightblue" stroke="midnightblue" points="1611.93,-172.22 1604.23,-179.49 1614.78,-178.61 1611.93,-172.22"/>
</g>
<!-- Node10 -->
<g id="node10" class="node">
<title>Node10</title>
<g id="a_node10"><a xlink:href="gov__effects_8h.html" target="_top" xlink:title=" ">
<polygon fill="white" stroke="black" points="1503.5,-118 1503.5,-137 1647.5,-137 1647.5,-118 1503.5,-118"/>
<text text-anchor="middle" x="1575.5" y="-125" font-family="Helvetica,sans-Serif" font-size="10.00">src/node/rpc/gov_effects.h</text>
</a>
</g>
</g>
<!-- Node9&#45;&gt;Node10 -->
<g id="edge11" class="edge">
<title>Node9&#45;&gt;Node10</title>
<path fill="none" stroke="midnightblue" d="M1578.24,-169.32C1577.52,-158.5 1576.64,-145.4 1576.07,-137.01"/>
<polygon fill="midnightblue" stroke="midnightblue" points="1574.76,-169.73 1578.93,-179.48 1581.75,-169.26 1574.76,-169.73"/>
</g>
<!-- Node10&#45;&gt;Node6 -->
<g id="edge12" class="edge">
<title>Node10&#45;&gt;Node6</title>
<path fill="none" stroke="midnightblue" d="M1598.62,-112.74C1617.94,-101.25 1644.87,-85.22 1661.2,-75.51"/>
<polygon fill="midnightblue" stroke="midnightblue" points="1596.63,-109.85 1589.83,-117.98 1600.21,-115.87 1596.63,-109.85"/>
</g>
<!-- Node11&#45;&gt;Node9 -->
<g id="edge14" class="edge">
<title>Node11&#45;&gt;Node9</title>
<path fill="none" stroke="midnightblue" d="M1750.84,-301.82C1728.21,-285.1 1689.75,-257.22 1655.5,-235 1634.92,-221.65 1610.38,-207.41 1594.86,-198.6"/>
<polygon fill="midnightblue" stroke="midnightblue" points="1748.85,-304.7 1758.96,-307.85 1753.02,-299.08 1748.85,-304.7"/>
</g>
<!-- Node12 -->
<g id="node12" class="node">
<title>Node12</title>
<g id="a_node12"><a xlink:href="member__frontend_8h.html" target="_top" xlink:title=" ">
<polygon fill="white" stroke="black" points="1803.5,-235.5 1803.5,-265.5 1923.5,-265.5 1923.5,-235.5 1803.5,-235.5"/>
<text text-anchor="start" x="1811.5" y="-253.5" font-family="Helvetica,sans-Serif" font-size="10.00">src/node/rpc/member</text>
<text text-anchor="middle" x="1863.5" y="-242.5" font-family="Helvetica,sans-Serif" font-size="10.00">_frontend.h</text>
</a>
</g>
</g>
<!-- Node11&#45;&gt;Node12 -->
<g id="edge15" class="edge">
<title>Node11&#45;&gt;Node12</title>
<path fill="none" stroke="midnightblue" d="M1791.46,-301.85C1806.98,-291 1828.01,-276.3 1843.34,-265.59"/>
<polygon fill="midnightblue" stroke="midnightblue" points="1789.23,-299.14 1783.04,-307.73 1793.24,-304.87 1789.23,-299.14"/>
</g>
<!-- Node12&#45;&gt;Node6 -->
<g id="edge16" class="edge">
<title>Node12&#45;&gt;Node6</title>
<path fill="none" stroke="midnightblue" d="M1843.23,-227.99C1817.07,-200.49 1769.9,-151.67 1727.5,-112 1713.55,-98.95 1696.73,-84.63 1686.07,-75.73"/>
<polygon fill="midnightblue" stroke="midnightblue" points="1840.91,-230.64 1850.33,-235.49 1845.99,-225.82 1840.91,-230.64"/>
</g>
<!-- Node14 -->
<g id="node14" class="node">
<title>Node14</title>
<g id="a_node14"><a xlink:href="ledger__secrets_8h.html" target="_top" xlink:title=" ">
<polygon fill="white" stroke="black" points="1701,-559.5 1701,-578.5 1842,-578.5 1842,-559.5 1701,-559.5"/>
<text text-anchor="middle" x="1771.5" y="-566.5" font-family="Helvetica,sans-Serif" font-size="10.00">src/node/ledger_secrets.h</text>
</a>
</g>
</g>
<!-- Node13&#45;&gt;Node14 -->
<g id="edge18" class="edge">
<title>Node13&#45;&gt;Node14</title>
<path fill="none" stroke="midnightblue" d="M1735.88,-607.72C1744.87,-598.2 1755.86,-586.56 1763.24,-578.75"/>
<polygon fill="midnightblue" stroke="midnightblue" points="1733.24,-605.41 1728.92,-615.08 1738.33,-610.22 1733.24,-605.41"/>
</g>
<!-- Node14&#45;&gt;Node4 -->
<g id="edge19" class="edge">
<title>Node14&#45;&gt;Node4</title>
<path fill="none" stroke="midnightblue" d="M1786.92,-551.84C1814.14,-522.84 1871.72,-459.44 1912.5,-400 1929.69,-374.94 1945.9,-342.74 1953.3,-327.39"/>
<polygon fill="midnightblue" stroke="midnightblue" points="1784.11,-549.71 1779.79,-559.38 1789.2,-554.52 1784.11,-549.71"/>
</g>
<!-- Node14&#45;&gt;Node5 -->
<g id="edge20" class="edge">
<title>Node14&#45;&gt;Node5</title>
<path fill="none" stroke="midnightblue" d="M1852.21,-561.68C2029.54,-546.71 2437.5,-505.86 2437.5,-447 2437.5,-447 2437.5,-447 2437.5,-383.5 2437.5,-343.9 2431.77,-327.53 2401.5,-302 2360.1,-267.09 2297.91,-255.78 2253.68,-252.38"/>
<polygon fill="midnightblue" stroke="midnightblue" points="1851.82,-558.2 1842.14,-562.52 1852.4,-565.18 1851.82,-558.2"/>
</g>
<!-- Node14&#45;&gt;Node11 -->
<g id="edge65" class="edge">
<title>Node14&#45;&gt;Node11</title>
<path fill="none" stroke="midnightblue" d="M1771.43,-549.34C1771.22,-499.14 1770.68,-362.6 1770.53,-327.05"/>
<polygon fill="midnightblue" stroke="midnightblue" points="1767.93,-549.43 1771.47,-559.41 1774.93,-549.4 1767.93,-549.43"/>
</g>
<!-- Node15 -->
<g id="node15" class="node">
<title>Node15</title>
<g id="a_node15"><a xlink:href="network__state_8h.html" target="_top" xlink:title=" ">
<polygon fill="white" stroke="black" points="1213.5,-375 1213.5,-394 1353.5,-394 1353.5,-375 1213.5,-375"/>
<text text-anchor="middle" x="1283.5" y="-382" font-family="Helvetica,sans-Serif" font-size="10.00">src/node/network_state.h</text>
</a>
</g>
</g>
<!-- Node14&#45;&gt;Node15 -->
<g id="edge21" class="edge">
<title>Node14&#45;&gt;Node15</title>
<path fill="none" stroke="midnightblue" d="M1734.95,-556.36C1707.69,-547.55 1669.61,-534.96 1636.5,-523 1509.38,-477.09 1358.88,-416.28 1304.45,-394.08"/>
<polygon fill="midnightblue" stroke="midnightblue" points="1733.88,-559.69 1744.47,-559.43 1736.02,-553.03 1733.88,-559.69"/>
</g>
<!-- Node27 -->
<g id="node27" class="node">
<title>Node27</title>
<g id="a_node27"><a xlink:href="secret__broadcast_8h.html" target="_top" xlink:title=" ">
<polygon fill="white" stroke="black" points="1312,-308 1312,-327 1465,-327 1465,-308 1312,-308"/>
<text text-anchor="middle" x="1388.5" y="-315" font-family="Helvetica,sans-Serif" font-size="10.00">src/node/secret_broadcast.h</text>
</a>
</g>
</g>
<!-- Node14&#45;&gt;Node27 -->
<g id="edge64" class="edge">
<title>Node14&#45;&gt;Node27</title>
<path fill="none" stroke="midnightblue" d="M1749.75,-553.83C1679.19,-507.86 1457.92,-363.72 1401.63,-327.05"/>
<polygon fill="midnightblue" stroke="midnightblue" points="1748.03,-556.89 1758.32,-559.41 1751.85,-551.02 1748.03,-556.89"/>
</g>
<!-- Node29 -->
<g id="node29" class="node">
<title>Node29</title>
<g id="a_node29"><a xlink:href="call__types_8h.html" target="_top" xlink:title=" ">
<polygon fill="white" stroke="black" points="1997,-436.5 1997,-455.5 2134,-455.5 2134,-436.5 1997,-436.5"/>
<text text-anchor="middle" x="2065.5" y="-443.5" font-family="Helvetica,sans-Serif" font-size="10.00">src/node/rpc/call_types.h</text>
</a>
</g>
</g>
<!-- Node14&#45;&gt;Node29 -->
<g id="edge50" class="edge">
<title>Node14&#45;&gt;Node29</title>
<path fill="none" stroke="midnightblue" d="M1835.4,-557.45C1869.89,-550.36 1912.63,-539.28 1948.5,-523 1970.61,-512.96 1973.2,-505.33 1993.5,-492 2013.34,-478.98 2036.7,-464.54 2051.31,-455.61"/>
<polygon fill="midnightblue" stroke="midnightblue" points="1834.56,-554.05 1825.44,-559.43 1835.93,-560.91 1834.56,-554.05"/>
</g>
<!-- Node33 -->
<g id="node33" class="node">
<title>Node33</title>
<g id="a_node33"><a xlink:href="node__call__types_8h.html" target="_top" xlink:title=" ">
<polygon fill="white" stroke="black" points="2002,-492.5 2002,-522.5 2127,-522.5 2127,-492.5 2002,-492.5"/>
<text text-anchor="start" x="2010" y="-510.5" font-family="Helvetica,sans-Serif" font-size="10.00">src/node/rpc/node_call</text>
<text text-anchor="middle" x="2064.5" y="-499.5" font-family="Helvetica,sans-Serif" font-size="10.00">_types.h</text>
</a>
</g>
</g>
<!-- Node14&#45;&gt;Node33 -->
<g id="edge62" class="edge">
<title>Node14&#45;&gt;Node33</title>
<path fill="none" stroke="midnightblue" d="M1823.41,-557.46C1873.26,-547.33 1948.66,-532.02 2001.84,-521.22"/>
<polygon fill="midnightblue" stroke="midnightblue" points="1822.58,-554.05 1813.48,-559.48 1823.98,-560.91 1822.58,-554.05"/>
</g>
<!-- Node34 -->
<g id="node34" class="node">
<title>Node34</title>
<g id="a_node34"><a xlink:href="genesis__gen_8h.html" target="_top" xlink:title=" ">
<polygon fill="white" stroke="black" points="1633.5,-369.5 1633.5,-399.5 1743.5,-399.5 1743.5,-369.5 1633.5,-369.5"/>
<text text-anchor="start" x="1641.5" y="-387.5" font-family="Helvetica,sans-Serif" font-size="10.00">src/service/genesis</text>
<text text-anchor="middle" x="1688.5" y="-376.5" font-family="Helvetica,sans-Serif" font-size="10.00">_gen.h</text>
</a>
</g>
</g>
<!-- Node14&#45;&gt;Node34 -->
<g id="edge66" class="edge">
<title>Node14&#45;&gt;Node34</title>
<path fill="none" stroke="midnightblue" d="M1763.23,-549.83C1746.7,-513.48 1709.87,-432.49 1694.96,-399.69"/>
<polygon fill="midnightblue" stroke="midnightblue" points="1760.17,-551.54 1767.5,-559.2 1766.54,-548.65 1760.17,-551.54"/>
</g>
<!-- Node15&#45;&gt;Node6 -->
<g id="edge22" class="edge">
<title>Node15&#45;&gt;Node6</title>
<path fill="none" stroke="midnightblue" d="M1228.76,-372.88C1186.84,-363.66 1133.69,-349.26 1118.5,-333 1093.11,-305.82 1099.5,-288.69 1099.5,-251.5 1099.5,-251.5 1099.5,-251.5 1099.5,-188 1099.5,-83.65 1466.16,-68.79 1614.4,-67.04"/>
<polygon fill="midnightblue" stroke="midnightblue" points="1228.09,-376.31 1238.6,-374.99 1229.56,-369.47 1228.09,-376.31"/>
</g>
<!-- Node15&#45;&gt;Node9 -->
<g id="edge38" class="edge">
<title>Node15&#45;&gt;Node9</title>
<path fill="none" stroke="midnightblue" d="M1283.47,-364.82C1284.36,-346.93 1288.26,-320.05 1302.5,-302 1354.96,-235.52 1453.16,-208.29 1517.42,-197.27"/>
<polygon fill="midnightblue" stroke="midnightblue" points="1279.96,-364.79 1283.23,-374.87 1286.96,-364.96 1279.96,-364.79"/>
</g>
<!-- Node15&#45;&gt;Node11 -->
<g id="edge47" class="edge">
<title>Node15&#45;&gt;Node11</title>
<path fill="none" stroke="midnightblue" d="M1363.5,-374.74C1445.32,-365.5 1576.01,-349.95 1688.5,-333 1700.22,-331.23 1712.85,-329.11 1724.6,-327.04"/>
<polygon fill="midnightblue" stroke="midnightblue" points="1363.07,-371.27 1353.52,-375.87 1363.85,-378.23 1363.07,-371.27"/>
</g>
<!-- Node16 -->
<g id="node16" class="node">
<title>Node16</title>
<g id="a_node16"><a xlink:href="wrap_8h.html" target="_top" xlink:title=" ">
<polygon fill="white" stroke="black" points="726.5,-308 726.5,-327 804.5,-327 804.5,-308 726.5,-308"/>
<text text-anchor="middle" x="765.5" y="-315" font-family="Helvetica,sans-Serif" font-size="10.00">src/js/wrap.h</text>
</a>
</g>
</g>
<!-- Node15&#45;&gt;Node16 -->
<g id="edge23" class="edge">
<title>Node15&#45;&gt;Node16</title>
<path fill="none" stroke="midnightblue" d="M1205.59,-373.72C1093.19,-359.62 889.71,-334.09 804.59,-323.41"/>
<polygon fill="midnightblue" stroke="midnightblue" points="1205.16,-377.2 1215.51,-374.97 1206.03,-370.25 1205.16,-377.2"/>
</g>
<!-- Node24 -->
<g id="node24" class="node">
<title>Node24</title>
<g id="a_node24"><a xlink:href="node__frontend_8h.html" target="_top" xlink:title=" ">
<polygon fill="white" stroke="black" points="1521.5,-308 1521.5,-327 1679.5,-327 1679.5,-308 1521.5,-308"/>
<text text-anchor="middle" x="1600.5" y="-315" font-family="Helvetica,sans-Serif" font-size="10.00">src/node/rpc/node_frontend.h</text>
</a>
</g>
</g>
<!-- Node15&#45;&gt;Node24 -->
<g id="edge39" class="edge">
<title>Node15&#45;&gt;Node24</title>
<path fill="none" stroke="midnightblue" d="M1335.3,-372.88C1397.73,-360.08 1501.41,-338.82 1558.89,-327.03"/>
<polygon fill="midnightblue" stroke="midnightblue" points="1334.36,-369.5 1325.27,-374.94 1335.77,-376.36 1334.36,-369.5"/>
</g>
<!-- Node26 -->
<g id="node26" class="node">
<title>Node26</title>
<g id="a_node26"><a xlink:href="user__frontend_8h.html" target="_top" xlink:title=" ">
<polygon fill="white" stroke="black" points="0,-118 0,-137 155,-137 155,-118 0,-118"/>
<text text-anchor="middle" x="77.5" y="-125" font-family="Helvetica,sans-Serif" font-size="10.00">src/node/rpc/user_frontend.h</text>
</a>
</g>
</g>
<!-- Node15&#45;&gt;Node26 -->
<g id="edge43" class="edge">
<title>Node15&#45;&gt;Node26</title>
<path fill="none" stroke="midnightblue" d="M1202.96,-382.71C981.23,-379.33 366.79,-361.35 192.5,-266 135.17,-234.63 94.51,-162.2 81.75,-137.18"/>
<polygon fill="midnightblue" stroke="midnightblue" points="1203.17,-386.22 1213.22,-382.86 1203.27,-379.22 1203.17,-386.22"/>
</g>
<!-- Node15&#45;&gt;Node27 -->
<g id="edge45" class="edge">
<title>Node15&#45;&gt;Node27</title>
<path fill="none" stroke="midnightblue" d="M1306.21,-369.44C1327,-356.57 1357.12,-337.93 1374.56,-327.13"/>
<polygon fill="midnightblue" stroke="midnightblue" points="1304.32,-366.49 1297.66,-374.73 1308.01,-372.45 1304.32,-366.49"/>
</g>
<!-- Node28 -->
<g id="node28" class="node">
<title>Node28</title>
<g id="a_node28"><a xlink:href="snapshotter_8h.html" target="_top" xlink:title=" ">
<polygon fill="white" stroke="black" points="1128,-308 1128,-327 1255,-327 1255,-308 1128,-308"/>
<text text-anchor="middle" x="1191.5" y="-315" font-family="Helvetica,sans-Serif" font-size="10.00">src/node/snapshotter.h</text>
</a>
</g>
</g>
<!-- Node15&#45;&gt;Node28 -->
<g id="edge48" class="edge">
<title>Node15&#45;&gt;Node28</title>
<path fill="none" stroke="midnightblue" d="M1262.86,-368.92C1244.68,-356.07 1218.79,-337.78 1203.71,-327.13"/>
<polygon fill="midnightblue" stroke="midnightblue" points="1260.91,-371.82 1271.09,-374.73 1264.94,-366.1 1260.91,-371.82"/>
</g>
<!-- Node16&#45;&gt;Node6 -->
<g id="edge25" class="edge">
<title>Node16&#45;&gt;Node6</title>
<path fill="none" stroke="midnightblue" d="M716.01,-315.79C585.01,-313.4 236.83,-303.55 202.5,-266 193.2,-255.83 193.45,-245.39 202.5,-235 296.86,-126.58 1348.03,-79.46 1614.43,-69.21"/>
<polygon fill="midnightblue" stroke="midnightblue" points="716.11,-319.29 726.17,-315.97 716.23,-312.29 716.11,-319.29"/>
</g>
<!-- Node16&#45;&gt;Node9 -->
<g id="edge36" class="edge">
<title>Node16&#45;&gt;Node9</title>
<path fill="none" stroke="midnightblue" d="M814.69,-307.03C899,-290.98 1076.58,-257.95 1227.5,-235 1328.76,-219.6 1446.95,-205.23 1517.38,-197.04"/>
<polygon fill="midnightblue" stroke="midnightblue" points="813.81,-303.64 804.64,-308.95 815.12,-310.51 813.81,-303.64"/>
</g>
<!-- Node16&#45;&gt;Node12 -->
<g id="edge37" class="edge">
<title>Node16&#45;&gt;Node12</title>
<path fill="none" stroke="midnightblue" d="M814.54,-313.94C949,-306.87 1334.87,-286.27 1655.5,-266 1705.35,-262.85 1761.9,-258.88 1803.44,-255.89"/>
<polygon fill="midnightblue" stroke="midnightblue" points="814.35,-310.45 804.55,-314.46 814.72,-317.44 814.35,-310.45"/>
</g>
<!-- Node17 -->
<g id="node17" class="node">
<title>Node17</title>
<g id="a_node17"><a xlink:href="js__generic__base_8cpp.html" target="_top" xlink:title=" ">
<polygon fill="white" stroke="black" points="211.5,-235.5 211.5,-265.5 329.5,-265.5 329.5,-235.5 211.5,-235.5"/>
<text text-anchor="start" x="219.5" y="-253.5" font-family="Helvetica,sans-Serif" font-size="10.00">src/apps/js_generic</text>
<text text-anchor="middle" x="270.5" y="-242.5" font-family="Helvetica,sans-Serif" font-size="10.00">/js_generic_base.cpp</text>
</a>
</g>
</g>
<!-- Node16&#45;&gt;Node17 -->
<g id="edge24" class="edge">
<title>Node16&#45;&gt;Node17</title>
<path fill="none" stroke="midnightblue" d="M716.25,-312.17C636.55,-304.82 474.53,-288.5 338.5,-266 335.64,-265.53 332.72,-265.02 329.78,-264.48"/>
<polygon fill="midnightblue" stroke="midnightblue" points="716.2,-315.68 726.47,-313.1 716.83,-308.71 716.2,-315.68"/>
</g>
<!-- Node18 -->
<g id="node18" class="node">
<title>Node18</title>
<g id="a_node18"><a xlink:href="js_2consensus_8cpp.html" target="_top" xlink:title=" ">
<polygon fill="white" stroke="black" points="567.5,-241 567.5,-260 683.5,-260 683.5,-241 567.5,-241"/>
<text text-anchor="middle" x="625.5" y="-248" font-family="Helvetica,sans-Serif" font-size="10.00">src/js/consensus.cpp</text>
</a>
</g>
</g>
<!-- Node16&#45;&gt;Node18 -->
<g id="edge26" class="edge">
<title>Node16&#45;&gt;Node18</title>
<path fill="none" stroke="midnightblue" d="M737.74,-303.61C710.01,-290.74 668.16,-271.31 644.17,-260.17"/>
<polygon fill="midnightblue" stroke="midnightblue" points="736.37,-306.83 746.91,-307.87 739.31,-300.48 736.37,-306.83"/>
</g>
<!-- Node19 -->
<g id="node19" class="node">
<title>Node19</title>
<g id="a_node19"><a xlink:href="wrap_8cpp.html" target="_top" xlink:title=" ">
<polygon fill="white" stroke="black" points="719,-179.5 719,-198.5 808,-198.5 808,-179.5 719,-179.5"/>
<text text-anchor="middle" x="763.5" y="-186.5" font-family="Helvetica,sans-Serif" font-size="10.00">src/js/wrap.cpp</text>
</a>
</g>
</g>
<!-- Node16&#45;&gt;Node19 -->
<g id="edge35" class="edge">
<title>Node16&#45;&gt;Node19</title>
<path fill="none" stroke="midnightblue" d="M814.88,-313.58C887.44,-307.44 1009.8,-288.95 966.5,-235 947.07,-210.79 862.11,-198.8 808.45,-193.54"/>
<polygon fill="midnightblue" stroke="midnightblue" points="814.26,-310.12 804.57,-314.4 814.81,-317.1 814.26,-310.12"/>
</g>
<!-- Node20 -->
<g id="node20" class="node">
<title>Node20</title>
<g id="a_node20"><a xlink:href="conv_8cpp.html" target="_top" xlink:title=" ">
<polygon fill="white" stroke="black" points="461.5,-241 461.5,-260 549.5,-260 549.5,-241 461.5,-241"/>
<text text-anchor="middle" x="505.5" y="-248" font-family="Helvetica,sans-Serif" font-size="10.00">src/js/conv.cpp</text>
</a>
</g>
</g>
<!-- Node16&#45;&gt;Node20 -->
<g id="edge28" class="edge">
<title>Node16&#45;&gt;Node20</title>
<path fill="none" stroke="midnightblue" d="M719.22,-305.6C677.21,-295.61 613.59,-280.25 558.5,-266 551.2,-264.11 543.36,-262.01 536.01,-260"/>
<polygon fill="midnightblue" stroke="midnightblue" points="718.61,-309.05 729.15,-307.96 720.23,-302.24 718.61,-309.05"/>
</g>
<!-- Node21 -->
<g id="node21" class="node">
<title>Node21</title>
<g id="a_node21"><a xlink:href="js_2crypto_8cpp.html" target="_top" xlink:title=" ">
<polygon fill="white" stroke="black" points="347.5,-241 347.5,-260 443.5,-260 443.5,-241 347.5,-241"/>
<text text-anchor="middle" x="395.5" y="-248" font-family="Helvetica,sans-Serif" font-size="10.00">src/js/crypto.cpp</text>
</a>
</g>
</g>
<!-- Node16&#45;&gt;Node21 -->
<g id="edge30" class="edge">
<title>Node16&#45;&gt;Node21</title>
<path fill="none" stroke="midnightblue" d="M716,-309.9C654.09,-301.34 544.97,-285.18 452.5,-266 444.2,-264.28 435.29,-262.15 427.04,-260.06"/>
<polygon fill="midnightblue" stroke="midnightblue" points="715.87,-313.42 726.26,-311.31 716.83,-306.48 715.87,-313.42"/>
</g>
<!-- Node22 -->
<g id="node22" class="node">
<title>Node22</title>
<g id="a_node22"><a xlink:href="js_2historical_8cpp.html" target="_top" xlink:title=" ">
<polygon fill="white" stroke="black" points="847.5,-241 847.5,-260 957.5,-260 957.5,-241 847.5,-241"/>
<text text-anchor="middle" x="902.5" y="-248" font-family="Helvetica,sans-Serif" font-size="10.00">src/js/historical.cpp</text>
</a>
</g>
</g>
<!-- Node16&#45;&gt;Node22 -->
<g id="edge32" class="edge">
<title>Node16&#45;&gt;Node22</title>
<path fill="none" stroke="midnightblue" d="M793.02,-303.44C820.15,-290.57 860.86,-271.26 884.23,-260.17"/>
<polygon fill="midnightblue" stroke="midnightblue" points="791.23,-300.42 783.69,-307.87 794.23,-306.74 791.23,-300.42"/>
</g>
<!-- Node23 -->
<g id="node23" class="node">
<title>Node23</title>
<g id="a_node23"><a xlink:href="openenclave_8cpp.html" target="_top" xlink:title=" ">
<polygon fill="white" stroke="black" points="701.5,-241 701.5,-260 829.5,-260 829.5,-241 701.5,-241"/>
<text text-anchor="middle" x="765.5" y="-248" font-family="Helvetica,sans-Serif" font-size="10.00">src/js/openenclave.cpp</text>
</a>
</g>
</g>
<!-- Node16&#45;&gt;Node23 -->
<g id="edge34" class="edge">
<title>Node16&#45;&gt;Node23</title>
<path fill="none" stroke="midnightblue" d="M765.5,-297.54C765.5,-285.17 765.5,-269.62 765.5,-260.13"/>
<polygon fill="midnightblue" stroke="midnightblue" points="762,-297.73 765.5,-307.73 769,-297.73 762,-297.73"/>
</g>
<!-- Node18&#45;&gt;Node19 -->
<g id="edge27" class="edge">
<title>Node18&#45;&gt;Node19</title>
<path fill="none" stroke="midnightblue" d="M654.54,-236.98C681.34,-225.42 720.42,-208.58 743.76,-198.51"/>
<polygon fill="midnightblue" stroke="midnightblue" points="653.07,-233.8 645.27,-240.98 655.84,-240.23 653.07,-233.8"/>
</g>
<!-- Node20&#45;&gt;Node19 -->
<g id="edge29" class="edge">
<title>Node20&#45;&gt;Node19</title>
<path fill="none" stroke="midnightblue" d="M545.67,-238.28C549.99,-237.14 554.33,-236.03 558.5,-235 614.75,-221.14 680.21,-207.14 721.74,-198.52"/>
<polygon fill="midnightblue" stroke="midnightblue" points="544.45,-234.98 535.7,-240.95 546.27,-241.74 544.45,-234.98"/>
</g>
<!-- Node21&#45;&gt;Node19 -->
<g id="edge31" class="edge">
<title>Node21&#45;&gt;Node19</title>
<path fill="none" stroke="midnightblue" d="M436.73,-238.47C442.02,-237.21 447.37,-236.02 452.5,-235 546.67,-216.26 658.35,-202.02 718.96,-194.95"/>
<polygon fill="midnightblue" stroke="midnightblue" points="435.6,-235.14 426.72,-240.93 437.27,-241.94 435.6,-235.14"/>
</g>
<!-- Node22&#45;&gt;Node19 -->
<g id="edge33" class="edge">
<title>Node22&#45;&gt;Node19</title>
<path fill="none" stroke="midnightblue" d="M873.25,-236.98C846.25,-225.42 806.9,-208.58 783.38,-198.51"/>
<polygon fill="midnightblue" stroke="midnightblue" points="872.01,-240.26 882.58,-240.98 874.77,-233.82 872.01,-240.26"/>
</g>
<!-- Node24&#45;&gt;Node6 -->
<g id="edge40" class="edge">
<title>Node24&#45;&gt;Node6</title>
<path fill="none" stroke="midnightblue" d="M1622.58,-301.71C1634.21,-292.75 1647.64,-280.3 1655.5,-266 1691.46,-200.58 1681.12,-104.68 1676.89,-75.64"/>
<polygon fill="midnightblue" stroke="midnightblue" points="1620.18,-299.13 1614.17,-307.86 1624.31,-304.78 1620.18,-299.13"/>
</g>
<!-- Node25 -->
<g id="node25" class="node">
<title>Node25</title>
<g id="a_node25"><a xlink:href="jwt__key__auto__refresh_8h.html" target="_top" xlink:title=" ">
<polygon fill="white" stroke="black" points="1522,-235.5 1522,-265.5 1647,-265.5 1647,-235.5 1522,-235.5"/>
<text text-anchor="start" x="1530" y="-253.5" font-family="Helvetica,sans-Serif" font-size="10.00">src/node/jwt_key_auto</text>
<text text-anchor="middle" x="1584.5" y="-242.5" font-family="Helvetica,sans-Serif" font-size="10.00">_refresh.h</text>
</a>
</g>
</g>
<!-- Node24&#45;&gt;Node25 -->
<g id="edge41" class="edge">
<title>Node24&#45;&gt;Node25</title>
<path fill="none" stroke="midnightblue" d="M1595.88,-297.74C1593.36,-287.49 1590.28,-275 1587.97,-265.59"/>
<polygon fill="midnightblue" stroke="midnightblue" points="1592.55,-298.86 1598.34,-307.73 1599.35,-297.19 1592.55,-298.86"/>
</g>
<!-- Node25&#45;&gt;Node9 -->
<g id="edge42" class="edge">
<title>Node25&#45;&gt;Node9</title>
<path fill="none" stroke="midnightblue" d="M1582.47,-225.29C1581.67,-215.86 1580.82,-205.65 1580.23,-198.66"/>
<polygon fill="midnightblue" stroke="midnightblue" points="1578.99,-225.73 1583.32,-235.4 1585.97,-225.14 1578.99,-225.73"/>
</g>
<!-- Node26&#45;&gt;Node6 -->
<g id="edge44" class="edge">
<title>Node26&#45;&gt;Node6</title>
<path fill="none" stroke="midnightblue" d="M134.21,-116.41C145.85,-114.66 158.04,-113.07 169.5,-112 457.13,-85.15 1369.51,-71.13 1614.47,-67.79"/>
<polygon fill="midnightblue" stroke="midnightblue" points="133.5,-112.98 124.16,-117.97 134.58,-119.9 133.5,-112.98"/>
</g>
<!-- Node27&#45;&gt;Node9 -->
<g id="edge46" class="edge">
<title>Node27&#45;&gt;Node9</title>
<path fill="none" stroke="midnightblue" d="M1403.24,-300.64C1420.31,-282.94 1449.9,-254.25 1479.5,-235 1503.6,-219.33 1534.06,-206.49 1554.99,-198.59"/>
<polygon fill="midnightblue" stroke="midnightblue" points="1400.66,-298.27 1396.32,-307.93 1405.74,-303.08 1400.66,-298.27"/>
</g>
<!-- Node28&#45;&gt;Node9 -->
<g id="edge49" class="edge">
<title>Node28&#45;&gt;Node9</title>
<path fill="none" stroke="midnightblue" d="M1202.55,-299.43C1215.92,-280.31 1240.32,-250.03 1269.5,-235 1311.56,-213.33 1439.66,-200.33 1517.4,-194.22"/>
<polygon fill="midnightblue" stroke="midnightblue" points="1199.59,-297.56 1196.89,-307.8 1205.39,-301.47 1199.59,-297.56"/>
</g>
<!-- Node29&#45;&gt;Node12 -->
<g id="edge55" class="edge">
<title>Node29&#45;&gt;Node12</title>
<path fill="none" stroke="midnightblue" d="M2144.41,-436.78C2260.16,-421.79 2454.63,-383.72 2380.5,-302 2365.31,-285.26 2056.78,-263.76 1923.72,-255.23"/>
<polygon fill="midnightblue" stroke="midnightblue" points="2143.64,-433.35 2134.15,-438.07 2144.51,-440.29 2143.64,-433.35"/>
</g>
<!-- Node29&#45;&gt;Node19 -->
<g id="edge52" class="edge">
<title>Node29&#45;&gt;Node19</title>
<path fill="none" stroke="midnightblue" d="M1986.6,-445.46C1802.62,-445.8 1349.82,-442.18 1204.5,-400 1146.21,-383.08 1134.04,-369.44 1085.5,-333 1035.74,-295.64 1040.48,-264.16 985.5,-235 929.04,-205.06 854.81,-195 808.12,-191.64"/>
<polygon fill="midnightblue" stroke="midnightblue" points="1986.75,-448.96 1996.74,-445.44 1986.73,-441.96 1986.75,-448.96"/>
</g>
<!-- Node30 -->
<g id="node30" class="node">
<title>Node30</title>
<g id="a_node30"><a xlink:href="common__endpoint__registry_8cpp.html" target="_top" xlink:title=" ">
<polygon fill="white" stroke="black" points="2243.5,-302.5 2243.5,-332.5 2371.5,-332.5 2371.5,-302.5 2243.5,-302.5"/>
<text text-anchor="start" x="2251.5" y="-320.5" font-family="Helvetica,sans-Serif" font-size="10.00">src/endpoints/common</text>
<text text-anchor="middle" x="2307.5" y="-309.5" font-family="Helvetica,sans-Serif" font-size="10.00">_endpoint_registry.cpp</text>
</a>
</g>
</g>
<!-- Node29&#45;&gt;Node30 -->
<g id="edge51" class="edge">
<title>Node29&#45;&gt;Node30</title>
<path fill="none" stroke="midnightblue" d="M2096.73,-432.68C2117.63,-424.15 2145.59,-412.17 2169.5,-400 2211.65,-378.54 2258.68,-349.64 2285.51,-332.65"/>
<polygon fill="midnightblue" stroke="midnightblue" points="2095.33,-429.47 2087.38,-436.47 2097.96,-435.96 2095.33,-429.47"/>
</g>
<!-- Node31 -->
<g id="node31" class="node">
<title>Node31</title>
<g id="a_node31"><a xlink:href="resharing_8h.html" target="_top" xlink:title=" ">
<polygon fill="white" stroke="black" points="2109.5,-308 2109.5,-327 2225.5,-327 2225.5,-308 2109.5,-308"/>
<text text-anchor="middle" x="2167.5" y="-315" font-family="Helvetica,sans-Serif" font-size="10.00">src/node/resharing.h</text>
</a>
</g>
</g>
<!-- Node29&#45;&gt;Node31 -->
<g id="edge53" class="edge">
<title>Node29&#45;&gt;Node31</title>
<path fill="none" stroke="midnightblue" d="M2103.1,-432.64C2119.31,-425.5 2137.12,-414.93 2148.5,-400 2165.42,-377.82 2167.65,-343.07 2167.7,-327.08"/>
<polygon fill="midnightblue" stroke="midnightblue" points="2101.73,-429.42 2093.8,-436.44 2104.38,-435.89 2101.73,-429.42"/>
</g>
<!-- Node32 -->
<g id="node32" class="node">
<title>Node32</title>
<g id="a_node32"><a xlink:href="serialization_8h.html" target="_top" xlink:title=" ">
<polygon fill="white" stroke="black" points="1991.5,-375 1991.5,-394 2139.5,-394 2139.5,-375 1991.5,-375"/>
<text text-anchor="middle" x="2065.5" y="-382" font-family="Helvetica,sans-Serif" font-size="10.00">src/node/rpc/serialization.h</text>
</a>
</g>
</g>
<!-- Node29&#45;&gt;Node32 -->
<g id="edge56" class="edge">
<title>Node29&#45;&gt;Node32</title>
<path fill="none" stroke="midnightblue" d="M2065.5,-426.32C2065.5,-415.5 2065.5,-402.4 2065.5,-394.01"/>
<polygon fill="midnightblue" stroke="midnightblue" points="2062,-426.48 2065.5,-436.48 2069,-426.48 2062,-426.48"/>
</g>
<!-- Node31&#45;&gt;Node9 -->
<g id="edge54" class="edge">
<title>Node31&#45;&gt;Node9</title>
<path fill="none" stroke="midnightblue" d="M2157.8,-299.18C2145.89,-279.8 2123.77,-249.25 2095.5,-235 2017.62,-195.72 1761.45,-190.13 1641.93,-189.73"/>
<polygon fill="midnightblue" stroke="midnightblue" points="2154.85,-301.07 2162.93,-307.91 2160.88,-297.52 2154.85,-301.07"/>
</g>
<!-- Node32&#45;&gt;Node9 -->
<g id="edge58" class="edge">
<title>Node32&#45;&gt;Node9</title>
<path fill="none" stroke="midnightblue" d="M2066.1,-364.78C2065.74,-347.05 2062.74,-320.45 2049.5,-302 2014.57,-253.31 1989.32,-254.04 1932.5,-235 1834.38,-202.11 1713.54,-193 1641.72,-190.62"/>
<polygon fill="midnightblue" stroke="midnightblue" points="2062.59,-364.96 2066.03,-374.98 2069.59,-365.01 2062.59,-364.96"/>
</g>
<!-- Node32&#45;&gt;Node12 -->
<g id="edge60" class="edge">
<title>Node32&#45;&gt;Node12</title>
<path fill="none" stroke="midnightblue" d="M2060.82,-365.12C2055.2,-346.63 2043.98,-318.55 2024.5,-302 1996.26,-278 1956.62,-265.39 1923.74,-258.77"/>
<polygon fill="midnightblue" stroke="midnightblue" points="2057.51,-366.28 2063.57,-374.98 2064.26,-364.4 2057.51,-366.28"/>
</g>
<!-- Node32&#45;&gt;Node24 -->
<g id="edge61" class="edge">
<title>Node32&#45;&gt;Node24</title>
<path fill="none" stroke="midnightblue" d="M1987.29,-373.72C1910.98,-364.02 1791.63,-348.4 1688.5,-333 1676.25,-331.17 1663.06,-329.07 1650.72,-327.04"/>
<polygon fill="midnightblue" stroke="midnightblue" points="1986.95,-377.21 1997.31,-374.99 1987.83,-370.26 1986.95,-377.21"/>
</g>
<!-- Node32&#45;&gt;Node30 -->
<g id="edge57" class="edge">
<title>Node32&#45;&gt;Node30</title>
<path fill="none" stroke="midnightblue" d="M2107.06,-372.34C2148.03,-361.33 2210.8,-344.47 2255.16,-332.56"/>
<polygon fill="midnightblue" stroke="midnightblue" points="2106.14,-368.96 2097.39,-374.94 2107.95,-375.72 2106.14,-368.96"/>
</g>
<!-- Node32&#45;&gt;Node31 -->
<g id="edge59" class="edge">
<title>Node32&#45;&gt;Node31</title>
<path fill="none" stroke="midnightblue" d="M2087.83,-369.27C2108.02,-356.4 2137.09,-337.88 2153.96,-327.13"/>
<polygon fill="midnightblue" stroke="midnightblue" points="2085.81,-366.41 2079.26,-374.73 2089.57,-372.31 2085.81,-366.41"/>
</g>
<!-- Node33&#45;&gt;Node29 -->
<g id="edge63" class="edge">
<title>Node33&#45;&gt;Node29</title>
<path fill="none" stroke="midnightblue" d="M2064.91,-482.29C2065.07,-472.86 2065.24,-462.65 2065.35,-455.66"/>
<polygon fill="midnightblue" stroke="midnightblue" points="2061.41,-482.34 2064.74,-492.4 2068.4,-482.46 2061.41,-482.34"/>
</g>
<!-- Node34&#45;&gt;Node9 -->
<g id="edge67" class="edge">
<title>Node34&#45;&gt;Node9</title>
<path fill="none" stroke="midnightblue" d="M1623.36,-368.81C1576.19,-357.51 1519.51,-342.3 1512.5,-333 1486.29,-298.21 1492.01,-273.44 1512.5,-235 1521.79,-217.56 1541.17,-205.68 1556.71,-198.53"/>
<polygon fill="midnightblue" stroke="midnightblue" points="1622.73,-372.25 1633.26,-371.16 1624.34,-365.44 1622.73,-372.25"/>
</g>
<!-- Node34&#45;&gt;Node11 -->
<g id="edge71" class="edge">
<title>Node34&#45;&gt;Node11</title>
<path fill="none" stroke="midnightblue" d="M1714.35,-363.01C1729.57,-350.94 1748.04,-336.3 1759.53,-327.19"/>
<polygon fill="midnightblue" stroke="midnightblue" points="1711.96,-360.44 1706.29,-369.4 1716.3,-365.93 1711.96,-360.44"/>
</g>
<!-- Node34&#45;&gt;Node12 -->
<g id="edge68" class="edge">
<title>Node34&#45;&gt;Node12</title>
<path fill="none" stroke="midnightblue" d="M1753.8,-370.89C1793.64,-361.83 1839.36,-348.5 1852.5,-333 1868.47,-314.16 1867.88,-283.56 1865.82,-265.7"/>
<polygon fill="midnightblue" stroke="midnightblue" points="1752.83,-367.52 1743.83,-373.1 1754.35,-374.35 1752.83,-367.52"/>
</g>
<!-- Node34&#45;&gt;Node24 -->
<g id="edge69" class="edge">
<title>Node34&#45;&gt;Node24</title>
<path fill="none" stroke="midnightblue" d="M1661.16,-363.31C1644.64,-351.1 1624.43,-336.18 1612.02,-327.01"/>
<polygon fill="midnightblue" stroke="midnightblue" points="1659.28,-366.27 1669.41,-369.4 1663.44,-360.64 1659.28,-366.27"/>
</g>
<!-- Node34&#45;&gt;Node27 -->
<g id="edge70" class="edge">
<title>Node34&#45;&gt;Node27</title>
<path fill="none" stroke="midnightblue" d="M1623.41,-369.4C1563.83,-356.49 1477.6,-337.8 1427.87,-327.03"/>
<polygon fill="midnightblue" stroke="midnightblue" points="1622.96,-372.88 1633.48,-371.58 1624.44,-366.04 1622.96,-372.88"/>
</g>
</g>
</svg>
