<?xml version="1.0" encoding="UTF-8" standalone="no"?>
<!DOCTYPE svg PUBLIC "-//W3C//DTD SVG 1.1//EN"
 "http://www.w3.org/Graphics/SVG/1.1/DTD/svg11.dtd">
<!-- Generated by graphviz version 2.43.0 (0)
 -->
<!-- Title: src/host/enclave.h Pages: 1 -->
<svg width="1649pt" height="476pt"
 viewBox="0.00 0.00 1648.75 476.00" xmlns="http://www.w3.org/2000/svg" xmlns:xlink="http://www.w3.org/1999/xlink">
<g id="graph0" class="graph" transform="scale(1 1) rotate(0) translate(4 472)">
<title>src/host/enclave.h</title>
<polygon fill="white" stroke="transparent" points="-4,4 -4,-472 1644.75,-472 1644.75,4 -4,4"/>
<!-- Node1 -->
<g id="node1" class="node">
<title>Node1</title>
<g id="a_node1"><a xlink:title=" ">
<polygon fill="#bfbfbf" stroke="black" points="936.25,-448.5 936.25,-467.5 1041.25,-467.5 1041.25,-448.5 936.25,-448.5"/>
<text text-anchor="middle" x="988.75" y="-455.5" font-family="Helvetica,sans-Serif" font-size="10.00">src/host/enclave.h</text>
</a>
</g>
</g>
<!-- Node2 -->
<g id="node2" class="node">
<title>Node2</title>
<g id="a_node2"><a xlink:href="logger_8h.html" target="_top" xlink:title=" ">
<polygon fill="white" stroke="black" points="418.25,-224.5 418.25,-243.5 505.25,-243.5 505.25,-224.5 418.25,-224.5"/>
<text text-anchor="middle" x="461.75" y="-231.5" font-family="Helvetica,sans-Serif" font-size="10.00">ccf/ds/logger.h</text>
</a>
</g>
</g>
<!-- Node1&#45;&gt;Node2 -->
<g id="edge1" class="edge">
<title>Node1&#45;&gt;Node2</title>
<path fill="none" stroke="midnightblue" d="M943.91,-448.45C907.63,-440.85 855.54,-428.41 811.75,-412 683.03,-363.76 539.67,-281.53 484.8,-248.92"/>
<polygon fill="midnightblue" stroke="midnightblue" points="486.28,-245.72 475.9,-243.6 482.69,-251.73 486.28,-245.72"/>
</g>
<!-- Node17 -->
<g id="node17" class="node">
<title>Node17</title>
<g id="a_node17"><a xlink:title=" ">
<polygon fill="white" stroke="#bfbfbf" points="949.25,-392.5 949.25,-411.5 1028.25,-411.5 1028.25,-392.5 949.25,-392.5"/>
<text text-anchor="middle" x="988.75" y="-399.5" font-family="Helvetica,sans-Serif" font-size="10.00">ccf/version.h</text>
</a>
</g>
</g>
<!-- Node1&#45;&gt;Node17 -->
<g id="edge18" class="edge">
<title>Node1&#45;&gt;Node17</title>
<path fill="none" stroke="midnightblue" d="M988.75,-448.08C988.75,-441.01 988.75,-430.86 988.75,-421.99"/>
<polygon fill="midnightblue" stroke="midnightblue" points="992.25,-421.75 988.75,-411.75 985.25,-421.75 992.25,-421.75"/>
</g>
<!-- Node18 -->
<g id="node18" class="node">
<title>Node18</title>
<g id="a_node18"><a xlink:href="interface_8h.html" target="_top" xlink:title=" ">
<polygon fill="white" stroke="black" points="820.75,-392.5 820.75,-411.5 930.75,-411.5 930.75,-392.5 820.75,-392.5"/>
<text text-anchor="middle" x="875.75" y="-399.5" font-family="Helvetica,sans-Serif" font-size="10.00">enclave/interface.h</text>
</a>
</g>
</g>
<!-- Node1&#45;&gt;Node18 -->
<g id="edge19" class="edge">
<title>Node1&#45;&gt;Node18</title>
<path fill="none" stroke="midnightblue" d="M970.84,-448.44C952.49,-439.68 923.74,-425.94 902.65,-415.86"/>
<polygon fill="midnightblue" stroke="midnightblue" points="904.1,-412.67 893.57,-411.52 901.08,-418.99 904.1,-412.67"/>
</g>
<!-- Node48 -->
<g id="node48" class="node">
<title>Node48</title>
<g id="a_node48"><a xlink:title=" ">
<polygon fill="white" stroke="#bfbfbf" points="1046.75,-392.5 1046.75,-411.5 1096.75,-411.5 1096.75,-392.5 1046.75,-392.5"/>
<text text-anchor="middle" x="1071.75" y="-399.5" font-family="Helvetica,sans-Serif" font-size="10.00">dlfcn.h</text>
</a>
</g>
</g>
<!-- Node1&#45;&gt;Node48 -->
<g id="edge75" class="edge">
<title>Node1&#45;&gt;Node48</title>
<path fill="none" stroke="midnightblue" d="M1002.08,-448.32C1014.91,-439.98 1034.53,-427.21 1049.69,-417.35"/>
<polygon fill="midnightblue" stroke="midnightblue" points="1051.97,-420.04 1058.44,-411.65 1048.15,-414.17 1051.97,-420.04"/>
</g>
<!-- Node49 -->
<g id="node49" class="node">
<title>Node49</title>
<g id="a_node49"><a xlink:title=" ">
<polygon fill="white" stroke="#bfbfbf" points="1114.75,-392.5 1114.75,-411.5 1182.75,-411.5 1182.75,-392.5 1114.75,-392.5"/>
<text text-anchor="middle" x="1148.75" y="-399.5" font-family="Helvetica,sans-Serif" font-size="10.00">filesystem</text>
</a>
</g>
</g>
<!-- Node1&#45;&gt;Node49 -->
<g id="edge76" class="edge">
<title>Node1&#45;&gt;Node49</title>
<path fill="none" stroke="midnightblue" d="M1014.1,-448.44C1041.02,-439.36 1083.74,-424.94 1113.83,-414.78"/>
<polygon fill="midnightblue" stroke="midnightblue" points="1115.16,-418.03 1123.51,-411.52 1112.92,-411.4 1115.16,-418.03"/>
</g>
<!-- Node3 -->
<g id="node3" class="node">
<title>Node3</title>
<g id="a_node3"><a xlink:href="enum__formatter_8h.html" target="_top" xlink:title=" ">
<polygon fill="white" stroke="black" points="533.75,-168.5 533.75,-187.5 669.75,-187.5 669.75,-168.5 533.75,-168.5"/>
<text text-anchor="middle" x="601.75" y="-175.5" font-family="Helvetica,sans-Serif" font-size="10.00">ccf/ds/enum_formatter.h</text>
</a>
</g>
</g>
<!-- Node2&#45;&gt;Node3 -->
<g id="edge2" class="edge">
<title>Node2&#45;&gt;Node3</title>
<path fill="none" stroke="midnightblue" d="M483.93,-224.44C507.17,-215.48 543.9,-201.31 570.16,-191.18"/>
<polygon fill="midnightblue" stroke="midnightblue" points="571.6,-194.38 579.67,-187.52 569.08,-187.85 571.6,-194.38"/>
</g>
<!-- Node4 -->
<g id="node4" class="node">
<title>Node4</title>
<g id="a_node4"><a xlink:title=" ">
<polygon fill="white" stroke="#bfbfbf" points="595.25,-112.5 595.25,-131.5 674.25,-131.5 674.25,-112.5 595.25,-112.5"/>
<text text-anchor="middle" x="634.75" y="-119.5" font-family="Helvetica,sans-Serif" font-size="10.00">fmt/format.h</text>
</a>
</g>
</g>
<!-- Node2&#45;&gt;Node4 -->
<g id="edge12" class="edge">
<title>Node2&#45;&gt;Node4</title>
<path fill="none" stroke="midnightblue" d="M505.33,-230.3C562.28,-225.75 657.31,-214.33 678.75,-188 692.13,-171.56 673,-151.1 655.93,-137.58"/>
<polygon fill="midnightblue" stroke="midnightblue" points="657.98,-134.73 647.87,-131.54 653.78,-140.34 657.98,-134.73"/>
</g>
<!-- Node5 -->
<g id="node5" class="node">
<title>Node5</title>
<g id="a_node5"><a xlink:href="thread__ids_8h.html" target="_top" xlink:title=" ">
<polygon fill="white" stroke="black" points="407.75,-168.5 407.75,-187.5 515.75,-187.5 515.75,-168.5 407.75,-168.5"/>
<text text-anchor="middle" x="461.75" y="-175.5" font-family="Helvetica,sans-Serif" font-size="10.00">ccf/ds/thread_ids.h</text>
</a>
</g>
</g>
<!-- Node2&#45;&gt;Node5 -->
<g id="edge4" class="edge">
<title>Node2&#45;&gt;Node5</title>
<path fill="none" stroke="midnightblue" d="M461.75,-224.08C461.75,-217.01 461.75,-206.86 461.75,-197.99"/>
<polygon fill="midnightblue" stroke="midnightblue" points="465.25,-197.75 461.75,-187.75 458.25,-197.75 465.25,-197.75"/>
</g>
<!-- Node11 -->
<g id="node11" class="node">
<title>Node11</title>
<g id="a_node11"><a xlink:title=" ">
<polygon fill="white" stroke="#bfbfbf" points="31.25,-168.5 31.25,-187.5 110.25,-187.5 110.25,-168.5 31.25,-168.5"/>
<text text-anchor="middle" x="70.75" y="-175.5" font-family="Helvetica,sans-Serif" font-size="10.00">fmt/chrono.h</text>
</a>
</g>
</g>
<!-- Node2&#45;&gt;Node11 -->
<g id="edge11" class="edge">
<title>Node2&#45;&gt;Node11</title>
<path fill="none" stroke="midnightblue" d="M418.05,-228.05C354.67,-220.69 233.33,-205.97 120.46,-188.2"/>
<polygon fill="midnightblue" stroke="midnightblue" points="120.69,-184.7 110.27,-186.59 119.6,-191.61 120.69,-184.7"/>
</g>
<!-- Node12 -->
<g id="node12" class="node">
<title>Node12</title>
<g id="a_node12"><a xlink:title=" ">
<polygon fill="white" stroke="#bfbfbf" points="127.75,-168.5 127.75,-187.5 187.75,-187.5 187.75,-168.5 127.75,-168.5"/>
<text text-anchor="middle" x="157.75" y="-175.5" font-family="Helvetica,sans-Serif" font-size="10.00">iostream</text>
</a>
</g>
</g>
<!-- Node2&#45;&gt;Node12 -->
<g id="edge13" class="edge">
<title>Node2&#45;&gt;Node12</title>
<path fill="none" stroke="midnightblue" d="M417.99,-226.37C367.34,-218.53 281.18,-204.63 197.83,-188.12"/>
<polygon fill="midnightblue" stroke="midnightblue" points="198.43,-184.68 187.94,-186.15 197.06,-191.54 198.43,-184.68"/>
</g>
<!-- Node13 -->
<g id="node13" class="node">
<title>Node13</title>
<g id="a_node13"><a xlink:title=" ">
<polygon fill="white" stroke="#bfbfbf" points="205.75,-168.5 205.75,-187.5 315.75,-187.5 315.75,-168.5 205.75,-168.5"/>
<text text-anchor="middle" x="260.75" y="-175.5" font-family="Helvetica,sans-Serif" font-size="10.00">nlohmann/json.hpp</text>
</a>
</g>
</g>
<!-- Node2&#45;&gt;Node13 -->
<g id="edge14" class="edge">
<title>Node2&#45;&gt;Node13</title>
<path fill="none" stroke="midnightblue" d="M429.9,-224.44C395.35,-215.16 340.06,-200.31 302.16,-190.13"/>
<polygon fill="midnightblue" stroke="midnightblue" points="303.01,-186.73 292.45,-187.52 301.2,-193.49 303.01,-186.73"/>
</g>
<!-- Node14 -->
<g id="node14" class="node">
<title>Node14</title>
<g id="a_node14"><a xlink:title=" ">
<polygon fill="white" stroke="#bfbfbf" points="691.75,-112.5 691.75,-131.5 747.75,-131.5 747.75,-112.5 691.75,-112.5"/>
<text text-anchor="middle" x="719.75" y="-119.5" font-family="Helvetica,sans-Serif" font-size="10.00">optional</text>
</a>
</g>
</g>
<!-- Node2&#45;&gt;Node14 -->
<g id="edge15" class="edge">
<title>Node2&#45;&gt;Node14</title>
<path fill="none" stroke="midnightblue" d="M505.36,-229.69C564.93,-224.34 667.59,-211.89 695.75,-188 709.34,-176.47 715.24,-156.5 717.8,-141.73"/>
<polygon fill="midnightblue" stroke="midnightblue" points="721.28,-142.06 719.17,-131.68 714.35,-141.11 721.28,-142.06"/>
</g>
<!-- Node15 -->
<g id="node15" class="node">
<title>Node15</title>
<g id="a_node15"><a xlink:title=" ">
<polygon fill="white" stroke="#bfbfbf" points="333.75,-168.5 333.75,-187.5 389.75,-187.5 389.75,-168.5 333.75,-168.5"/>
<text text-anchor="middle" x="361.75" y="-175.5" font-family="Helvetica,sans-Serif" font-size="10.00">sstream</text>
</a>
</g>
</g>
<!-- Node2&#45;&gt;Node15 -->
<g id="edge16" class="edge">
<title>Node2&#45;&gt;Node15</title>
<path fill="none" stroke="midnightblue" d="M445.68,-224.32C429.79,-215.74 405.24,-202.49 386.79,-192.52"/>
<polygon fill="midnightblue" stroke="midnightblue" points="388.24,-189.33 377.77,-187.65 384.91,-195.49 388.24,-189.33"/>
</g>
<!-- Node16 -->
<g id="node16" class="node">
<title>Node16</title>
<g id="a_node16"><a xlink:title=" ">
<polygon fill="white" stroke="#bfbfbf" points="410.25,-0.5 410.25,-19.5 479.25,-19.5 479.25,-0.5 410.25,-0.5"/>
<text text-anchor="middle" x="444.75" y="-7.5" font-family="Helvetica,sans-Serif" font-size="10.00">type_traits</text>
</a>
</g>
</g>
<!-- Node2&#45;&gt;Node16 -->
<g id="edge17" class="edge">
<title>Node2&#45;&gt;Node16</title>
<path fill="none" stroke="midnightblue" d="M417.91,-231.78C311.81,-228.38 47.99,-217.07 21.75,-188 -90.97,-63.17 270.48,-23.82 400.21,-13.89"/>
<polygon fill="midnightblue" stroke="midnightblue" points="400.51,-17.38 410.23,-13.15 399.99,-10.4 400.51,-17.38"/>
</g>
<!-- Node3&#45;&gt;Node4 -->
<g id="edge3" class="edge">
<title>Node3&#45;&gt;Node4</title>
<path fill="none" stroke="midnightblue" d="M607.2,-168.08C611.76,-160.61 618.41,-149.72 624.04,-140.52"/>
<polygon fill="midnightblue" stroke="midnightblue" points="627.17,-142.11 629.4,-131.75 621.2,-138.46 627.17,-142.11"/>
</g>
<!-- Node5&#45;&gt;Node4 -->
<g id="edge5" class="edge">
<title>Node5&#45;&gt;Node4</title>
<path fill="none" stroke="midnightblue" d="M489.16,-168.44C518.52,-159.28 565.27,-144.69 597.84,-134.52"/>
<polygon fill="midnightblue" stroke="midnightblue" points="598.96,-137.84 607.46,-131.52 596.87,-131.16 598.96,-137.84"/>
</g>
<!-- Node6 -->
<g id="node6" class="node">
<title>Node6</title>
<g id="a_node6"><a xlink:title=" ">
<polygon fill="white" stroke="#bfbfbf" points="354.75,-112.5 354.75,-131.5 440.75,-131.5 440.75,-112.5 354.75,-112.5"/>
<text text-anchor="middle" x="397.75" y="-119.5" font-family="Helvetica,sans-Serif" font-size="10.00">fmt/ostream.h</text>
</a>
</g>
</g>
<!-- Node5&#45;&gt;Node6 -->
<g id="edge6" class="edge">
<title>Node5&#45;&gt;Node6</title>
<path fill="none" stroke="midnightblue" d="M451.46,-168.32C441.91,-160.26 427.47,-148.08 415.96,-138.37"/>
<polygon fill="midnightblue" stroke="midnightblue" points="418.12,-135.61 408.22,-131.83 413.6,-140.96 418.12,-135.61"/>
</g>
<!-- Node7 -->
<g id="node7" class="node">
<title>Node7</title>
<g id="a_node7"><a xlink:title=" ">
<polygon fill="white" stroke="#bfbfbf" points="459.25,-112.5 459.25,-131.5 520.25,-131.5 520.25,-112.5 459.25,-112.5"/>
<text text-anchor="middle" x="489.75" y="-119.5" font-family="Helvetica,sans-Serif" font-size="10.00">fmt/std.h</text>
</a>
</g>
</g>
<!-- Node5&#45;&gt;Node7 -->
<g id="edge7" class="edge">
<title>Node5&#45;&gt;Node7</title>
<path fill="none" stroke="midnightblue" d="M466.37,-168.08C470.2,-160.69 475.77,-149.95 480.51,-140.81"/>
<polygon fill="midnightblue" stroke="midnightblue" points="483.71,-142.24 485.21,-131.75 477.5,-139.02 483.71,-142.24"/>
</g>
<!-- Node8 -->
<g id="node8" class="node">
<title>Node8</title>
<g id="a_node8"><a xlink:title=" ">
<polygon fill="white" stroke="#bfbfbf" points="226.75,-112.5 226.75,-131.5 270.75,-131.5 270.75,-112.5 226.75,-112.5"/>
<text text-anchor="middle" x="248.75" y="-119.5" font-family="Helvetica,sans-Serif" font-size="10.00">limits</text>
</a>
</g>
</g>
<!-- Node5&#45;&gt;Node8 -->
<g id="edge8" class="edge">
<title>Node5&#45;&gt;Node8</title>
<path fill="none" stroke="midnightblue" d="M425.38,-168.46C390.57,-160.19 336.38,-147.05 280.74,-132.19"/>
<polygon fill="midnightblue" stroke="midnightblue" points="281.63,-128.81 271.07,-129.6 279.82,-135.57 281.63,-128.81"/>
</g>
<!-- Node9 -->
<g id="node9" class="node">
<title>Node9</title>
<g id="a_node9"><a xlink:title=" ">
<polygon fill="white" stroke="#bfbfbf" points="538.75,-112.5 538.75,-131.5 576.75,-131.5 576.75,-112.5 538.75,-112.5"/>
<text text-anchor="middle" x="557.75" y="-119.5" font-family="Helvetica,sans-Serif" font-size="10.00">map</text>
</a>
</g>
</g>
<!-- Node5&#45;&gt;Node9 -->
<g id="edge9" class="edge">
<title>Node5&#45;&gt;Node9</title>
<path fill="none" stroke="midnightblue" d="M477.17,-168.32C492.29,-159.82 515.56,-146.73 533.22,-136.8"/>
<polygon fill="midnightblue" stroke="midnightblue" points="535.36,-139.61 542.36,-131.65 531.93,-133.51 535.36,-139.61"/>
</g>
<!-- Node10 -->
<g id="node10" class="node">
<title>Node10</title>
<g id="a_node10"><a xlink:title=" ">
<polygon fill="white" stroke="#bfbfbf" points="288.75,-112.5 288.75,-131.5 336.75,-131.5 336.75,-112.5 288.75,-112.5"/>
<text text-anchor="middle" x="312.75" y="-119.5" font-family="Helvetica,sans-Serif" font-size="10.00">thread</text>
</a>
</g>
</g>
<!-- Node5&#45;&gt;Node10 -->
<g id="edge10" class="edge">
<title>Node5&#45;&gt;Node10</title>
<path fill="none" stroke="midnightblue" d="M438.14,-168.44C413.29,-159.44 373.97,-145.19 345.99,-135.05"/>
<polygon fill="midnightblue" stroke="midnightblue" points="346.84,-131.63 336.25,-131.52 344.45,-138.21 346.84,-131.63"/>
</g>
<!-- Node19 -->
<g id="node19" class="node">
<title>Node19</title>
<g id="a_node19"><a xlink:href="oversized_8h.html" target="_top" xlink:title=" ">
<polygon fill="white" stroke="black" points="1115.25,-336.5 1115.25,-355.5 1202.25,-355.5 1202.25,-336.5 1115.25,-336.5"/>
<text text-anchor="middle" x="1158.75" y="-343.5" font-family="Helvetica,sans-Serif" font-size="10.00">ds/oversized.h</text>
</a>
</g>
</g>
<!-- Node18&#45;&gt;Node19 -->
<g id="edge20" class="edge">
<title>Node18&#45;&gt;Node19</title>
<path fill="none" stroke="midnightblue" d="M920.59,-392.44C970.66,-382.89 1051.68,-367.43 1105.08,-357.24"/>
<polygon fill="midnightblue" stroke="midnightblue" points="1105.88,-360.65 1115.04,-355.34 1104.57,-353.78 1105.88,-360.65"/>
</g>
<!-- Node24 -->
<g id="node24" class="node">
<title>Node24</title>
<g id="a_node24"><a xlink:href="ring__buffer__types_8h.html" target="_top" xlink:title=" ">
<polygon fill="white" stroke="black" points="839.75,-168.5 839.75,-187.5 949.75,-187.5 949.75,-168.5 839.75,-168.5"/>
<text text-anchor="middle" x="894.75" y="-175.5" font-family="Helvetica,sans-Serif" font-size="10.00">ring_buffer_types.h</text>
</a>
</g>
</g>
<!-- Node18&#45;&gt;Node24 -->
<g id="edge72" class="edge">
<title>Node18&#45;&gt;Node24</title>
<path fill="none" stroke="midnightblue" d="M866.46,-392.39C858.17,-384.02 846.6,-370.48 841.75,-356 838.92,-347.57 840.31,-344.77 841.75,-336 850.3,-283.89 873.84,-225.8 886.47,-197.09"/>
<polygon fill="midnightblue" stroke="midnightblue" points="889.83,-198.15 890.73,-187.6 883.44,-195.29 889.83,-198.15"/>
</g>
<!-- Node29 -->
<g id="node29" class="node">
<title>Node29</title>
<g id="a_node29"><a xlink:title=" ">
<polygon fill="white" stroke="#bfbfbf" points="954.25,-0.5 954.25,-19.5 1001.25,-19.5 1001.25,-0.5 954.25,-0.5"/>
<text text-anchor="middle" x="977.75" y="-7.5" font-family="Helvetica,sans-Serif" font-size="10.00">vector</text>
</a>
</g>
</g>
<!-- Node18&#45;&gt;Node29 -->
<g id="edge74" class="edge">
<title>Node18&#45;&gt;Node29</title>
<path fill="none" stroke="midnightblue" d="M893.05,-392.45C922.15,-376.72 977.75,-340.22 977.75,-291 977.75,-291 977.75,-291 977.75,-121 977.75,-88.95 977.75,-51.64 977.75,-29.75"/>
<polygon fill="midnightblue" stroke="midnightblue" points="981.25,-29.56 977.75,-19.56 974.25,-29.56 981.25,-29.56"/>
</g>
<!-- Node47 -->
<g id="node47" class="node">
<title>Node47</title>
<g id="a_node47"><a xlink:title=" ">
<polygon fill="white" stroke="#bfbfbf" points="850.75,-336.5 850.75,-355.5 900.75,-355.5 900.75,-336.5 850.75,-336.5"/>
<text text-anchor="middle" x="875.75" y="-343.5" font-family="Helvetica,sans-Serif" font-size="10.00">chrono</text>
</a>
</g>
</g>
<!-- Node18&#45;&gt;Node47 -->
<g id="edge73" class="edge">
<title>Node18&#45;&gt;Node47</title>
<path fill="none" stroke="midnightblue" d="M875.75,-392.08C875.75,-385.01 875.75,-374.86 875.75,-365.99"/>
<polygon fill="midnightblue" stroke="midnightblue" points="879.25,-365.75 875.75,-355.75 872.25,-365.75 879.25,-365.75"/>
</g>
<!-- Node19&#45;&gt;Node4 -->
<g id="edge70" class="edge">
<title>Node19&#45;&gt;Node4</title>
<path fill="none" stroke="midnightblue" d="M1138.53,-336.43C1057.96,-302.3 759.6,-175.9 664.25,-135.5"/>
<polygon fill="midnightblue" stroke="midnightblue" points="665.48,-132.22 654.91,-131.54 662.75,-138.66 665.48,-132.22"/>
</g>
<!-- Node20 -->
<g id="node20" class="node">
<title>Node20</title>
<g id="a_node20"><a xlink:href="messaging_8h.html" target="_top" xlink:title=" ">
<polygon fill="white" stroke="black" points="1085.25,-280.5 1085.25,-299.5 1164.25,-299.5 1164.25,-280.5 1085.25,-280.5"/>
<text text-anchor="middle" x="1124.75" y="-287.5" font-family="Helvetica,sans-Serif" font-size="10.00">messaging.h</text>
</a>
</g>
</g>
<!-- Node19&#45;&gt;Node20 -->
<g id="edge21" class="edge">
<title>Node19&#45;&gt;Node20</title>
<path fill="none" stroke="midnightblue" d="M1153.13,-336.08C1148.38,-328.53 1141.43,-317.49 1135.59,-308.23"/>
<polygon fill="midnightblue" stroke="midnightblue" points="1138.55,-306.35 1130.26,-299.75 1132.62,-310.08 1138.55,-306.35"/>
</g>
<!-- Node21 -->
<g id="node21" class="node">
<title>Node21</title>
<g id="a_node21"><a xlink:href="ring__buffer_8h.html" target="_top" xlink:title=" ">
<polygon fill="white" stroke="black" points="1441.25,-224.5 1441.25,-243.5 1518.25,-243.5 1518.25,-224.5 1441.25,-224.5"/>
<text text-anchor="middle" x="1479.75" y="-231.5" font-family="Helvetica,sans-Serif" font-size="10.00">ring_buffer.h</text>
</a>
</g>
</g>
<!-- Node19&#45;&gt;Node21 -->
<g id="edge68" class="edge">
<title>Node19&#45;&gt;Node21</title>
<path fill="none" stroke="midnightblue" d="M1168,-336.28C1183.57,-322.13 1216.58,-294.29 1249.75,-280 1266.16,-272.93 1368.41,-254.36 1430.92,-243.41"/>
<polygon fill="midnightblue" stroke="midnightblue" points="1431.72,-246.83 1440.97,-241.66 1430.51,-239.93 1431.72,-246.83"/>
</g>
<!-- Node38 -->
<g id="node38" class="node">
<title>Node38</title>
<g id="a_node38"><a xlink:href="serialized_8h.html" target="_top" xlink:title=" ">
<polygon fill="white" stroke="black" points="1157.25,-56.5 1157.25,-75.5 1230.25,-75.5 1230.25,-56.5 1157.25,-56.5"/>
<text text-anchor="middle" x="1193.75" y="-63.5" font-family="Helvetica,sans-Serif" font-size="10.00">serialized.h</text>
</a>
</g>
</g>
<!-- Node19&#45;&gt;Node38 -->
<g id="edge69" class="edge">
<title>Node19&#45;&gt;Node38</title>
<path fill="none" stroke="midnightblue" d="M1163.33,-336.44C1172.61,-318.29 1192.75,-274.38 1192.75,-235 1192.75,-235 1192.75,-235 1192.75,-177 1192.75,-144.95 1193.18,-107.64 1193.47,-85.75"/>
<polygon fill="midnightblue" stroke="midnightblue" points="1196.97,-85.61 1193.62,-75.56 1189.98,-85.51 1196.97,-85.61"/>
</g>
<!-- Node46 -->
<g id="node46" class="node">
<title>Node46</title>
<g id="a_node46"><a xlink:title=" ">
<polygon fill="white" stroke="#bfbfbf" points="1259.25,-280.5 1259.25,-299.5 1352.25,-299.5 1352.25,-280.5 1259.25,-280.5"/>
<text text-anchor="middle" x="1305.75" y="-287.5" font-family="Helvetica,sans-Serif" font-size="10.00">unordered_map</text>
</a>
</g>
</g>
<!-- Node19&#45;&gt;Node46 -->
<g id="edge71" class="edge">
<title>Node19&#45;&gt;Node46</title>
<path fill="none" stroke="midnightblue" d="M1182.04,-336.44C1206.55,-327.44 1245.34,-313.19 1272.95,-303.05"/>
<polygon fill="midnightblue" stroke="midnightblue" points="1274.38,-306.25 1282.56,-299.52 1271.97,-299.68 1274.38,-306.25"/>
</g>
<!-- Node20&#45;&gt;Node2 -->
<g id="edge22" class="edge">
<title>Node20&#45;&gt;Node2</title>
<path fill="none" stroke="midnightblue" d="M1084.77,-285.74C970.96,-276.47 645.16,-249.94 515.71,-239.4"/>
<polygon fill="midnightblue" stroke="midnightblue" points="515.89,-235.9 505.64,-238.57 515.32,-242.88 515.89,-235.9"/>
</g>
<!-- Node20&#45;&gt;Node9 -->
<g id="edge66" class="edge">
<title>Node20&#45;&gt;Node9</title>
<path fill="none" stroke="midnightblue" d="M1094.27,-280.44C1013.33,-257.64 786.13,-193.21 586.78,-132.26"/>
<polygon fill="midnightblue" stroke="midnightblue" points="587.59,-128.85 577,-129.27 585.54,-135.54 587.59,-128.85"/>
</g>
<!-- Node20&#45;&gt;Node21 -->
<g id="edge23" class="edge">
<title>Node20&#45;&gt;Node21</title>
<path fill="none" stroke="midnightblue" d="M1164.36,-283.36C1222.11,-275.08 1332.78,-258.98 1426.75,-244 1428.04,-243.79 1429.36,-243.58 1430.68,-243.37"/>
<polygon fill="midnightblue" stroke="midnightblue" points="1431.67,-246.75 1440.97,-241.68 1430.54,-239.84 1431.67,-246.75"/>
</g>
<!-- Node39 -->
<g id="node39" class="node">
<title>Node39</title>
<g id="a_node39"><a xlink:title=" ">
<polygon fill="white" stroke="#bfbfbf" points="1315.25,-0.5 1315.25,-19.5 1380.25,-19.5 1380.25,-0.5 1315.25,-0.5"/>
<text text-anchor="middle" x="1347.75" y="-7.5" font-family="Helvetica,sans-Serif" font-size="10.00">stdexcept</text>
</a>
</g>
</g>
<!-- Node20&#45;&gt;Node39 -->
<g id="edge67" class="edge">
<title>Node20&#45;&gt;Node39</title>
<path fill="none" stroke="midnightblue" d="M1149.29,-280.48C1209.41,-258.12 1363.4,-191.36 1422.75,-76 1434.49,-53.18 1407.17,-34.9 1382.27,-23.62"/>
<polygon fill="midnightblue" stroke="midnightblue" points="1383.51,-20.34 1372.93,-19.64 1380.76,-26.78 1383.51,-20.34"/>
</g>
<!-- Node42 -->
<g id="node42" class="node">
<title>Node42</title>
<g id="a_node42"><a xlink:title=" ">
<polygon fill="white" stroke="#bfbfbf" points="1111.75,-112.5 1111.75,-131.5 1161.75,-131.5 1161.75,-112.5 1111.75,-112.5"/>
<text text-anchor="middle" x="1136.75" y="-119.5" font-family="Helvetica,sans-Serif" font-size="10.00">atomic</text>
</a>
</g>
</g>
<!-- Node20&#45;&gt;Node42 -->
<g id="edge64" class="edge">
<title>Node20&#45;&gt;Node42</title>
<path fill="none" stroke="midnightblue" d="M1125.39,-280.08C1127.28,-253.95 1132.83,-177.21 1135.4,-141.58"/>
<polygon fill="midnightblue" stroke="midnightblue" points="1138.9,-141.79 1136.13,-131.57 1131.92,-141.29 1138.9,-141.79"/>
</g>
<!-- Node45 -->
<g id="node45" class="node">
<title>Node45</title>
<g id="a_node45"><a xlink:title=" ">
<polygon fill="white" stroke="#bfbfbf" points="1006.25,-224.5 1006.25,-243.5 1113.25,-243.5 1113.25,-224.5 1006.25,-224.5"/>
<text text-anchor="middle" x="1059.75" y="-231.5" font-family="Helvetica,sans-Serif" font-size="10.00">condition_variable</text>
</a>
</g>
</g>
<!-- Node20&#45;&gt;Node45 -->
<g id="edge65" class="edge">
<title>Node20&#45;&gt;Node45</title>
<path fill="none" stroke="midnightblue" d="M1114.3,-280.32C1104.6,-272.26 1089.93,-260.08 1078.25,-250.37"/>
<polygon fill="midnightblue" stroke="midnightblue" points="1080.31,-247.53 1070.38,-243.83 1075.84,-252.92 1080.31,-247.53"/>
</g>
<!-- Node22 -->
<g id="node22" class="node">
<title>Node22</title>
<g id="a_node22"><a xlink:href="ccf__memcpy_8h.html" target="_top" xlink:title=" ">
<polygon fill="white" stroke="black" points="1554.75,-56.5 1554.75,-75.5 1640.75,-75.5 1640.75,-56.5 1554.75,-56.5"/>
<text text-anchor="middle" x="1597.75" y="-63.5" font-family="Helvetica,sans-Serif" font-size="10.00">ccf_memcpy.h</text>
</a>
</g>
</g>
<!-- Node21&#45;&gt;Node22 -->
<g id="edge24" class="edge">
<title>Node21&#45;&gt;Node22</title>
<path fill="none" stroke="midnightblue" d="M1518.41,-230.2C1546.91,-225.87 1583.86,-215.02 1602.75,-188 1624.25,-157.24 1613.33,-110.55 1604.76,-85.1"/>
<polygon fill="midnightblue" stroke="midnightblue" points="1608.01,-83.81 1601.32,-75.6 1601.43,-86.19 1608.01,-83.81"/>
</g>
<!-- Node23 -->
<g id="node23" class="node">
<title>Node23</title>
<g id="a_node23"><a xlink:title=" ">
<polygon fill="white" stroke="#bfbfbf" points="1475.75,-0.5 1475.75,-19.5 1525.75,-19.5 1525.75,-0.5 1475.75,-0.5"/>
<text text-anchor="middle" x="1500.75" y="-7.5" font-family="Helvetica,sans-Serif" font-size="10.00">cstring</text>
</a>
</g>
</g>
<!-- Node21&#45;&gt;Node23 -->
<g id="edge61" class="edge">
<title>Node21&#45;&gt;Node23</title>
<path fill="none" stroke="midnightblue" d="M1480.57,-224.3C1483.66,-191.63 1494.61,-75.87 1498.95,-29.96"/>
<polygon fill="midnightblue" stroke="midnightblue" points="1502.45,-30.17 1499.91,-19.88 1495.48,-29.51 1502.45,-30.17"/>
</g>
<!-- Node21&#45;&gt;Node24 -->
<g id="edge26" class="edge">
<title>Node21&#45;&gt;Node24</title>
<path fill="none" stroke="midnightblue" d="M1440.91,-229.42C1342.49,-220.33 1082.46,-196.33 960.13,-185.03"/>
<polygon fill="midnightblue" stroke="midnightblue" points="960.42,-181.55 950.14,-184.11 959.78,-188.52 960.42,-181.55"/>
</g>
<!-- Node43 -->
<g id="node43" class="node">
<title>Node43</title>
<g id="a_node43"><a xlink:title=" ">
<polygon fill="white" stroke="#bfbfbf" points="1529.25,-168.5 1529.25,-187.5 1594.25,-187.5 1594.25,-168.5 1529.25,-168.5"/>
<text text-anchor="middle" x="1561.75" y="-175.5" font-family="Helvetica,sans-Serif" font-size="10.00">functional</text>
</a>
</g>
</g>
<!-- Node21&#45;&gt;Node43 -->
<g id="edge62" class="edge">
<title>Node21&#45;&gt;Node43</title>
<path fill="none" stroke="midnightblue" d="M1492.92,-224.32C1505.59,-215.98 1524.98,-203.21 1539.95,-193.35"/>
<polygon fill="midnightblue" stroke="midnightblue" points="1542.18,-196.08 1548.6,-187.65 1538.33,-190.23 1542.18,-196.08"/>
</g>
<!-- Node44 -->
<g id="node44" class="node">
<title>Node44</title>
<g id="a_node44"><a xlink:title=" ">
<polygon fill="white" stroke="#bfbfbf" points="1440.75,-168.5 1440.75,-187.5 1472.75,-187.5 1472.75,-168.5 1440.75,-168.5"/>
<text text-anchor="middle" x="1456.75" y="-175.5" font-family="Helvetica,sans-Serif" font-size="10.00">set</text>
</a>
</g>
</g>
<!-- Node21&#45;&gt;Node44 -->
<g id="edge63" class="edge">
<title>Node21&#45;&gt;Node44</title>
<path fill="none" stroke="midnightblue" d="M1475.95,-224.08C1472.83,-216.77 1468.32,-206.18 1464.46,-197.1"/>
<polygon fill="midnightblue" stroke="midnightblue" points="1467.61,-195.58 1460.47,-187.75 1461.17,-198.32 1467.61,-195.58"/>
</g>
<!-- Node22&#45;&gt;Node23 -->
<g id="edge25" class="edge">
<title>Node22&#45;&gt;Node23</title>
<path fill="none" stroke="midnightblue" d="M1582.16,-56.32C1566.75,-47.74 1542.93,-34.49 1525.04,-24.52"/>
<polygon fill="midnightblue" stroke="midnightblue" points="1526.73,-21.46 1516.29,-19.65 1523.33,-27.58 1526.73,-21.46"/>
</g>
<!-- Node24&#45;&gt;Node4 -->
<g id="edge57" class="edge">
<title>Node24&#45;&gt;Node4</title>
<path fill="none" stroke="midnightblue" d="M853.55,-168.44C807.7,-158.92 733.61,-143.53 684.54,-133.34"/>
<polygon fill="midnightblue" stroke="midnightblue" points="684.98,-129.86 674.47,-131.25 683.55,-136.71 684.98,-129.86"/>
</g>
<!-- Node24&#45;&gt;Node14 -->
<g id="edge58" class="edge">
<title>Node24&#45;&gt;Node14</title>
<path fill="none" stroke="midnightblue" d="M867.02,-168.44C837.32,-159.28 790.03,-144.69 757.08,-134.52"/>
<polygon fill="midnightblue" stroke="midnightblue" points="757.93,-131.12 747.35,-131.52 755.87,-137.81 757.93,-131.12"/>
</g>
<!-- Node25 -->
<g id="node25" class="node">
<title>Node25</title>
<g id="a_node25"><a xlink:href="include_2ccf_2ds_2hash_8h.html" target="_top" xlink:title=" ">
<polygon fill="white" stroke="black" points="1007.75,-112.5 1007.75,-131.5 1087.75,-131.5 1087.75,-112.5 1007.75,-112.5"/>
<text text-anchor="middle" x="1047.75" y="-119.5" font-family="Helvetica,sans-Serif" font-size="10.00">ccf/ds/hash.h</text>
</a>
</g>
</g>
<!-- Node24&#45;&gt;Node25 -->
<g id="edge27" class="edge">
<title>Node24&#45;&gt;Node25</title>
<path fill="none" stroke="midnightblue" d="M918.99,-168.44C944.62,-159.4 985.23,-145.06 1013.98,-134.92"/>
<polygon fill="midnightblue" stroke="midnightblue" points="1015.35,-138.15 1023.62,-131.52 1013.02,-131.54 1015.35,-138.15"/>
</g>
<!-- Node24&#45;&gt;Node29 -->
<g id="edge60" class="edge">
<title>Node24&#45;&gt;Node29</title>
<path fill="none" stroke="midnightblue" d="M899.95,-168.49C905.36,-159.53 913.97,-144.95 920.75,-132 939.6,-95.98 959.33,-52.63 969.91,-28.82"/>
<polygon fill="midnightblue" stroke="midnightblue" points="973.14,-30.19 973.98,-19.63 966.73,-27.36 973.14,-30.19"/>
</g>
<!-- Node32 -->
<g id="node32" class="node">
<title>Node32</title>
<g id="a_node32"><a xlink:href="nonstd_8h.html" target="_top" xlink:title=" ">
<polygon fill="white" stroke="black" points="571.75,-56.5 571.75,-75.5 661.75,-75.5 661.75,-56.5 571.75,-56.5"/>
<text text-anchor="middle" x="616.75" y="-63.5" font-family="Helvetica,sans-Serif" font-size="10.00">ccf/ds/nonstd.h</text>
</a>
</g>
</g>
<!-- Node24&#45;&gt;Node32 -->
<g id="edge36" class="edge">
<title>Node24&#45;&gt;Node32</title>
<path fill="none" stroke="midnightblue" d="M876.83,-168.49C840.87,-151.41 762.8,-114.39 756.75,-112 723.75,-98.99 685.33,-86.85 657.1,-78.46"/>
<polygon fill="midnightblue" stroke="midnightblue" points="657.76,-75.01 647.18,-75.55 655.79,-81.73 657.76,-75.01"/>
</g>
<!-- Node35 -->
<g id="node35" class="node">
<title>Node35</title>
<g id="a_node35"><a xlink:title=" ">
<polygon fill="white" stroke="#bfbfbf" points="798.75,-0.5 798.75,-19.5 842.75,-19.5 842.75,-0.5 798.75,-0.5"/>
<text text-anchor="middle" x="820.75" y="-7.5" font-family="Helvetica,sans-Serif" font-size="10.00">string</text>
</a>
</g>
</g>
<!-- Node24&#45;&gt;Node35 -->
<g id="edge59" class="edge">
<title>Node24&#45;&gt;Node35</title>
<path fill="none" stroke="midnightblue" d="M882.43,-168.35C863.48,-155.25 825.77,-129.98 791.75,-112 756.19,-93.22 730.81,-109.62 708.75,-76 703.87,-68.57 703.77,-63.36 708.75,-56 713.52,-48.93 757.56,-32.64 788.96,-21.73"/>
<polygon fill="midnightblue" stroke="midnightblue" points="790.33,-24.96 798.65,-18.39 788.05,-18.34 790.33,-24.96"/>
</g>
<!-- Node37 -->
<g id="node37" class="node">
<title>Node37</title>
<g id="a_node37"><a xlink:href="serializer_8h.html" target="_top" xlink:title=" ">
<polygon fill="white" stroke="black" points="841.75,-112.5 841.75,-131.5 911.75,-131.5 911.75,-112.5 841.75,-112.5"/>
<text text-anchor="middle" x="876.75" y="-119.5" font-family="Helvetica,sans-Serif" font-size="10.00">serializer.h</text>
</a>
</g>
</g>
<!-- Node24&#45;&gt;Node37 -->
<g id="edge44" class="edge">
<title>Node24&#45;&gt;Node37</title>
<path fill="none" stroke="midnightblue" d="M891.77,-168.08C889.36,-160.85 885.88,-150.41 882.88,-141.4"/>
<polygon fill="midnightblue" stroke="midnightblue" points="886.15,-140.13 879.66,-131.75 879.51,-142.34 886.15,-140.13"/>
</g>
<!-- Node24&#45;&gt;Node42 -->
<g id="edge56" class="edge">
<title>Node24&#45;&gt;Node42</title>
<path fill="none" stroke="midnightblue" d="M933.1,-168.48C973.74,-159.45 1039.77,-144.76 1096.75,-132 1098.22,-131.67 1099.73,-131.33 1101.25,-130.99"/>
<polygon fill="midnightblue" stroke="midnightblue" points="1102.37,-134.33 1111.36,-128.72 1100.83,-127.5 1102.37,-134.33"/>
</g>
<!-- Node26 -->
<g id="node26" class="node">
<title>Node26</title>
<g id="a_node26"><a xlink:href="siphash_8h.html" target="_top" xlink:title=" ">
<polygon fill="white" stroke="black" points="1044.25,-56.5 1044.25,-75.5 1139.25,-75.5 1139.25,-56.5 1044.25,-56.5"/>
<text text-anchor="middle" x="1091.75" y="-63.5" font-family="Helvetica,sans-Serif" font-size="10.00">ccf/ds/siphash.h</text>
</a>
</g>
</g>
<!-- Node25&#45;&gt;Node26 -->
<g id="edge28" class="edge">
<title>Node25&#45;&gt;Node26</title>
<path fill="none" stroke="midnightblue" d="M1055.01,-112.08C1061.29,-104.38 1070.53,-93.03 1078.18,-83.65"/>
<polygon fill="midnightblue" stroke="midnightblue" points="1081.01,-85.71 1084.62,-75.75 1075.59,-81.29 1081.01,-85.71"/>
</g>
<!-- Node28 -->
<g id="node28" class="node">
<title>Node28</title>
<g id="a_node28"><a xlink:title=" ">
<polygon fill="white" stroke="#bfbfbf" points="1168.75,-0.5 1168.75,-19.5 1218.75,-19.5 1218.75,-0.5 1168.75,-0.5"/>
<text text-anchor="middle" x="1193.75" y="-7.5" font-family="Helvetica,sans-Serif" font-size="10.00">cstdint</text>
</a>
</g>
</g>
<!-- Node25&#45;&gt;Node28 -->
<g id="edge33" class="edge">
<title>Node25&#45;&gt;Node28</title>
<path fill="none" stroke="midnightblue" d="M1087.97,-114.21C1092.94,-113.43 1097.96,-112.68 1102.75,-112 1169.89,-102.52 1360.72,-126.7 1405.75,-76 1411.65,-69.35 1411.34,-62.91 1405.75,-56 1383.93,-29.07 1283.73,-17.6 1229.26,-13.28"/>
<polygon fill="midnightblue" stroke="midnightblue" points="1229.24,-9.77 1219.01,-12.51 1228.72,-16.75 1229.24,-9.77"/>
</g>
<!-- Node25&#45;&gt;Node29 -->
<g id="edge35" class="edge">
<title>Node25&#45;&gt;Node29</title>
<path fill="none" stroke="midnightblue" d="M1042.25,-112.37C1030.75,-94.3 1003.95,-52.18 988.76,-28.31"/>
<polygon fill="midnightblue" stroke="midnightblue" points="991.54,-26.15 983.21,-19.59 985.63,-29.91 991.54,-26.15"/>
</g>
<!-- Node30 -->
<g id="node30" class="node">
<title>Node30</title>
<g id="a_node30"><a xlink:title=" ">
<polygon fill="white" stroke="#bfbfbf" points="738.75,-0.5 738.75,-19.5 780.75,-19.5 780.75,-0.5 738.75,-0.5"/>
<text text-anchor="middle" x="759.75" y="-7.5" font-family="Helvetica,sans-Serif" font-size="10.00">array</text>
</a>
</g>
</g>
<!-- Node25&#45;&gt;Node30 -->
<g id="edge32" class="edge">
<title>Node25&#45;&gt;Node30</title>
<path fill="none" stroke="midnightblue" d="M1025.15,-112.37C973.88,-92.79 848.7,-44.97 790.47,-22.73"/>
<polygon fill="midnightblue" stroke="midnightblue" points="791.65,-19.44 781.06,-19.14 789.16,-25.98 791.65,-19.44"/>
</g>
<!-- Node31 -->
<g id="node31" class="node">
<title>Node31</title>
<g id="a_node31"><a xlink:title=" ">
<polygon fill="white" stroke="#bfbfbf" points="1248.25,-56.5 1248.25,-75.5 1397.25,-75.5 1397.25,-56.5 1248.25,-56.5"/>
<text text-anchor="middle" x="1322.75" y="-63.5" font-family="Helvetica,sans-Serif" font-size="10.00">small_vector/SmallVector.h</text>
</a>
</g>
</g>
<!-- Node25&#45;&gt;Node31 -->
<g id="edge34" class="edge">
<title>Node25&#45;&gt;Node31</title>
<path fill="none" stroke="midnightblue" d="M1088.03,-113.09C1135.96,-103.68 1216.17,-87.93 1269.26,-77.5"/>
<polygon fill="midnightblue" stroke="midnightblue" points="1270.04,-80.92 1279.18,-75.56 1268.69,-74.05 1270.04,-80.92"/>
</g>
<!-- Node27 -->
<g id="node27" class="node">
<title>Node27</title>
<g id="a_node27"><a xlink:title=" ">
<polygon fill="white" stroke="#bfbfbf" points="1065.25,-0.5 1065.25,-19.5 1118.25,-19.5 1118.25,-0.5 1065.25,-0.5"/>
<text text-anchor="middle" x="1091.75" y="-7.5" font-family="Helvetica,sans-Serif" font-size="10.00">cstddef</text>
</a>
</g>
</g>
<!-- Node26&#45;&gt;Node27 -->
<g id="edge29" class="edge">
<title>Node26&#45;&gt;Node27</title>
<path fill="none" stroke="midnightblue" d="M1091.75,-56.08C1091.75,-49.01 1091.75,-38.86 1091.75,-29.99"/>
<polygon fill="midnightblue" stroke="midnightblue" points="1095.25,-29.75 1091.75,-19.75 1088.25,-29.75 1095.25,-29.75"/>
</g>
<!-- Node26&#45;&gt;Node28 -->
<g id="edge30" class="edge">
<title>Node26&#45;&gt;Node28</title>
<path fill="none" stroke="midnightblue" d="M1108.13,-56.32C1124.42,-47.7 1149.61,-34.36 1168.46,-24.39"/>
<polygon fill="midnightblue" stroke="midnightblue" points="1170.2,-27.43 1177.4,-19.65 1166.92,-21.24 1170.2,-27.43"/>
</g>
<!-- Node26&#45;&gt;Node29 -->
<g id="edge31" class="edge">
<title>Node26&#45;&gt;Node29</title>
<path fill="none" stroke="midnightblue" d="M1073.68,-56.44C1055.17,-47.68 1026.17,-33.94 1004.89,-23.86"/>
<polygon fill="midnightblue" stroke="midnightblue" points="1006.26,-20.63 995.73,-19.52 1003.26,-26.96 1006.26,-20.63"/>
</g>
<!-- Node32&#45;&gt;Node16 -->
<g id="edge42" class="edge">
<title>Node32&#45;&gt;Node16</title>
<path fill="none" stroke="midnightblue" d="M589.49,-56.44C560.31,-47.28 513.83,-32.69 481.44,-22.52"/>
<polygon fill="midnightblue" stroke="midnightblue" points="482.46,-19.17 471.87,-19.52 480.37,-25.85 482.46,-19.17"/>
</g>
<!-- Node32&#45;&gt;Node29 -->
<g id="edge43" class="edge">
<title>Node32&#45;&gt;Node29</title>
<path fill="none" stroke="midnightblue" d="M662.1,-58.22C735.47,-47.24 878.54,-25.84 943.81,-16.08"/>
<polygon fill="midnightblue" stroke="midnightblue" points="944.59,-19.5 953.97,-14.56 943.56,-12.58 944.59,-19.5"/>
</g>
<!-- Node32&#45;&gt;Node30 -->
<g id="edge38" class="edge">
<title>Node32&#45;&gt;Node30</title>
<path fill="none" stroke="midnightblue" d="M639.41,-56.44C663.57,-47.32 701.98,-32.81 728.9,-22.65"/>
<polygon fill="midnightblue" stroke="midnightblue" points="730.47,-25.8 738.59,-18.99 728,-19.25 730.47,-25.8"/>
</g>
<!-- Node33 -->
<g id="node33" class="node">
<title>Node33</title>
<g id="a_node33"><a xlink:title=" ">
<polygon fill="white" stroke="#bfbfbf" points="497.75,-0.5 497.75,-19.5 561.75,-19.5 561.75,-0.5 497.75,-0.5"/>
<text text-anchor="middle" x="529.75" y="-7.5" font-family="Helvetica,sans-Serif" font-size="10.00">algorithm</text>
</a>
</g>
</g>
<!-- Node32&#45;&gt;Node33 -->
<g id="edge37" class="edge">
<title>Node32&#45;&gt;Node33</title>
<path fill="none" stroke="midnightblue" d="M602.77,-56.32C589.2,-47.9 568.37,-34.97 552.42,-25.07"/>
<polygon fill="midnightblue" stroke="midnightblue" points="554.03,-21.95 543.69,-19.65 550.34,-27.9 554.03,-21.95"/>
</g>
<!-- Node34 -->
<g id="node34" class="node">
<title>Node34</title>
<g id="a_node34"><a xlink:title=" ">
<polygon fill="white" stroke="#bfbfbf" points="671.25,-0.5 671.25,-19.5 720.25,-19.5 720.25,-0.5 671.25,-0.5"/>
<text text-anchor="middle" x="695.75" y="-7.5" font-family="Helvetica,sans-Serif" font-size="10.00">cctype</text>
</a>
</g>
</g>
<!-- Node32&#45;&gt;Node34 -->
<g id="edge39" class="edge">
<title>Node32&#45;&gt;Node34</title>
<path fill="none" stroke="midnightblue" d="M629.44,-56.32C641.65,-47.98 660.33,-35.21 674.75,-25.35"/>
<polygon fill="midnightblue" stroke="midnightblue" points="676.8,-28.19 683.09,-19.65 672.85,-22.41 676.8,-28.19"/>
</g>
<!-- Node32&#45;&gt;Node35 -->
<g id="edge40" class="edge">
<title>Node32&#45;&gt;Node35</title>
<path fill="none" stroke="midnightblue" d="M650.63,-56.48C683.59,-48.14 735.3,-34.87 788.77,-20.22"/>
<polygon fill="midnightblue" stroke="midnightblue" points="789.7,-23.59 798.42,-17.56 787.85,-16.84 789.7,-23.59"/>
</g>
<!-- Node36 -->
<g id="node36" class="node">
<title>Node36</title>
<g id="a_node36"><a xlink:title=" ">
<polygon fill="white" stroke="#bfbfbf" points="580.25,-0.5 580.25,-19.5 653.25,-19.5 653.25,-0.5 580.25,-0.5"/>
<text text-anchor="middle" x="616.75" y="-7.5" font-family="Helvetica,sans-Serif" font-size="10.00">string_view</text>
</a>
</g>
</g>
<!-- Node32&#45;&gt;Node36 -->
<g id="edge41" class="edge">
<title>Node32&#45;&gt;Node36</title>
<path fill="none" stroke="midnightblue" d="M616.75,-56.08C616.75,-49.01 616.75,-38.86 616.75,-29.99"/>
<polygon fill="midnightblue" stroke="midnightblue" points="620.25,-29.75 616.75,-19.75 613.25,-29.75 620.25,-29.75"/>
</g>
<!-- Node37&#45;&gt;Node16 -->
<g id="edge54" class="edge">
<title>Node37&#45;&gt;Node16</title>
<path fill="none" stroke="midnightblue" d="M841.52,-117.57C770.8,-110.41 613.93,-93.13 562.75,-76 526.29,-63.8 488.01,-40.47 465.27,-25.34"/>
<polygon fill="midnightblue" stroke="midnightblue" points="467.04,-22.31 456.8,-19.6 463.12,-28.1 467.04,-22.31"/>
</g>
<!-- Node37&#45;&gt;Node29 -->
<g id="edge55" class="edge">
<title>Node37&#45;&gt;Node29</title>
<path fill="none" stroke="midnightblue" d="M882.55,-112.13C891.21,-99.17 908.38,-74.58 925.75,-56 935.81,-45.23 948.26,-34.39 958.45,-26.04"/>
<polygon fill="midnightblue" stroke="midnightblue" points="960.78,-28.67 966.38,-19.68 956.39,-23.21 960.78,-28.67"/>
</g>
<!-- Node37&#45;&gt;Node32 -->
<g id="edge45" class="edge">
<title>Node37&#45;&gt;Node32</title>
<path fill="none" stroke="midnightblue" d="M841.68,-113.72C796.98,-104.43 719.35,-88.31 668.01,-77.65"/>
<polygon fill="midnightblue" stroke="midnightblue" points="668.61,-74.2 658.11,-75.59 667.19,-81.05 668.61,-74.2"/>
</g>
<!-- Node37&#45;&gt;Node38 -->
<g id="edge46" class="edge">
<title>Node37&#45;&gt;Node38</title>
<path fill="none" stroke="midnightblue" d="M911.88,-115.5C961.79,-107.6 1056.32,-92.39 1147.19,-76.06"/>
<polygon fill="midnightblue" stroke="midnightblue" points="1147.89,-79.49 1157.11,-74.27 1146.64,-72.6 1147.89,-79.49"/>
</g>
<!-- Node40 -->
<g id="node40" class="node">
<title>Node40</title>
<g id="a_node40"><a xlink:title=" ">
<polygon fill="white" stroke="#bfbfbf" points="777.75,-56.5 777.75,-75.5 835.75,-75.5 835.75,-56.5 777.75,-56.5"/>
<text text-anchor="middle" x="806.75" y="-63.5" font-family="Helvetica,sans-Serif" font-size="10.00">memory</text>
</a>
</g>
</g>
<!-- Node37&#45;&gt;Node40 -->
<g id="edge52" class="edge">
<title>Node37&#45;&gt;Node40</title>
<path fill="none" stroke="midnightblue" d="M865.5,-112.32C854.95,-104.18 838.95,-91.84 826.3,-82.09"/>
<polygon fill="midnightblue" stroke="midnightblue" points="828.25,-79.17 818.2,-75.83 823.98,-84.71 828.25,-79.17"/>
</g>
<!-- Node41 -->
<g id="node41" class="node">
<title>Node41</title>
<g id="a_node41"><a xlink:title=" ">
<polygon fill="white" stroke="#bfbfbf" points="718.25,-56.5 718.25,-75.5 759.25,-75.5 759.25,-56.5 718.25,-56.5"/>
<text text-anchor="middle" x="738.75" y="-63.5" font-family="Helvetica,sans-Serif" font-size="10.00">tuple</text>
</a>
</g>
</g>
<!-- Node37&#45;&gt;Node41 -->
<g id="edge53" class="edge">
<title>Node37&#45;&gt;Node41</title>
<path fill="none" stroke="midnightblue" d="M854.88,-112.44C831.7,-103.37 794.92,-88.98 768.97,-78.83"/>
<polygon fill="midnightblue" stroke="midnightblue" points="770.2,-75.55 759.61,-75.16 767.64,-82.07 770.2,-75.55"/>
</g>
<!-- Node38&#45;&gt;Node23 -->
<g id="edge48" class="edge">
<title>Node38&#45;&gt;Node23</title>
<path fill="none" stroke="midnightblue" d="M1230.57,-57.55C1233.33,-57.02 1236.08,-56.49 1238.75,-56 1319.66,-40.96 1414.97,-25.04 1465.36,-16.76"/>
<polygon fill="midnightblue" stroke="midnightblue" points="1466.11,-20.19 1475.41,-15.11 1464.98,-13.28 1466.11,-20.19"/>
</g>
<!-- Node38&#45;&gt;Node28 -->
<g id="edge47" class="edge">
<title>Node38&#45;&gt;Node28</title>
<path fill="none" stroke="midnightblue" d="M1193.75,-56.08C1193.75,-49.01 1193.75,-38.86 1193.75,-29.99"/>
<polygon fill="midnightblue" stroke="midnightblue" points="1197.25,-29.75 1193.75,-19.75 1190.25,-29.75 1197.25,-29.75"/>
</g>
<!-- Node38&#45;&gt;Node29 -->
<g id="edge51" class="edge">
<title>Node38&#45;&gt;Node29</title>
<path fill="none" stroke="midnightblue" d="M1159.52,-56.44C1118.92,-46.29 1051.68,-29.48 1011.35,-19.4"/>
<polygon fill="midnightblue" stroke="midnightblue" points="1012.02,-15.96 1001.47,-16.93 1010.32,-22.75 1012.02,-15.96"/>
</g>
<!-- Node38&#45;&gt;Node35 -->
<g id="edge50" class="edge">
<title>Node38&#45;&gt;Node35</title>
<path fill="none" stroke="midnightblue" d="M1157.12,-57.64C1153.96,-57.06 1150.8,-56.51 1147.75,-56 1040.25,-38.1 912.02,-21.96 853.18,-14.85"/>
<polygon fill="midnightblue" stroke="midnightblue" points="853.36,-11.34 843.02,-13.62 852.53,-18.29 853.36,-11.34"/>
</g>
<!-- Node38&#45;&gt;Node39 -->
<g id="edge49" class="edge">
<title>Node38&#45;&gt;Node39</title>
<path fill="none" stroke="midnightblue" d="M1218.15,-56.44C1243.94,-47.4 1284.82,-33.06 1313.76,-22.92"/>
<polygon fill="midnightblue" stroke="midnightblue" points="1315.18,-26.13 1323.46,-19.52 1312.86,-19.52 1315.18,-26.13"/>
</g>
</g>
</svg>
