<?xml version="1.0" encoding="UTF-8" standalone="no"?>
<!DOCTYPE svg PUBLIC "-//W3C//DTD SVG 1.1//EN"
 "http://www.w3.org/Graphics/SVG/1.1/DTD/svg11.dtd">
<!-- Generated by graphviz version 2.43.0 (0)
 -->
<!-- Title: src/http/http_builder.h Pages: 1 -->
<svg width="1233pt" height="900pt"
 viewBox="0.00 0.00 1233.00 900.00" xmlns="http://www.w3.org/2000/svg" xmlns:xlink="http://www.w3.org/1999/xlink">
<g id="graph0" class="graph" transform="scale(1 1) rotate(0) translate(4 896)">
<title>src/http/http_builder.h</title>
<polygon fill="white" stroke="transparent" points="-4,4 -4,-896 1229,-896 1229,4 -4,4"/>
<!-- Node1 -->
<g id="node1" class="node">
<title>Node1</title>
<g id="a_node1"><a xlink:title=" ">
<polygon fill="#bfbfbf" stroke="black" points="527.5,-872.5 527.5,-891.5 650.5,-891.5 650.5,-872.5 527.5,-872.5"/>
<text text-anchor="middle" x="589" y="-879.5" font-family="Helvetica,sans-Serif" font-size="10.00">src/http/http_builder.h</text>
</a>
</g>
</g>
<!-- Node2 -->
<g id="node2" class="node">
<title>Node2</title>
<g id="a_node2"><a xlink:href="rpc__tls__client_8h.html" target="_top" xlink:title=" ">
<polygon fill="white" stroke="black" points="976.5,-615.5 976.5,-645.5 1077.5,-645.5 1077.5,-615.5 976.5,-615.5"/>
<text text-anchor="start" x="984.5" y="-633.5" font-family="Helvetica,sans-Serif" font-size="10.00">src/clients/rpc_tls</text>
<text text-anchor="middle" x="1027" y="-622.5" font-family="Helvetica,sans-Serif" font-size="10.00">_client.h</text>
</a>
</g>
</g>
<!-- Node1&#45;&gt;Node2 -->
<g id="edge1" class="edge">
<title>Node1&#45;&gt;Node2</title>
<path fill="none" stroke="midnightblue" d="M656.97,-870.61C746.91,-853.39 904.93,-810.64 998,-713 1015.93,-694.19 1022.87,-663.59 1025.48,-645.72"/>
<polygon fill="midnightblue" stroke="midnightblue" points="656.07,-867.21 646.88,-872.48 657.35,-874.09 656.07,-867.21"/>
</g>
<!-- Node7 -->
<g id="node7" class="node">
<title>Node7</title>
<g id="a_node7"><a xlink:href="client__endpoint_8h.html" target="_top" xlink:title=" ">
<polygon fill="white" stroke="black" points="230,-749.5 230,-779.5 332,-779.5 332,-749.5 230,-749.5"/>
<text text-anchor="start" x="238" y="-767.5" font-family="Helvetica,sans-Serif" font-size="10.00">src/enclave/client</text>
<text text-anchor="middle" x="281" y="-756.5" font-family="Helvetica,sans-Serif" font-size="10.00">_endpoint.h</text>
</a>
</g>
</g>
<!-- Node1&#45;&gt;Node7 -->
<g id="edge7" class="edge">
<title>Node1&#45;&gt;Node7</title>
<path fill="none" stroke="midnightblue" d="M517.28,-879.57C466.65,-875.82 398.71,-865.11 346,-836 321.37,-822.4 300.93,-796.03 289.89,-779.68"/>
<polygon fill="midnightblue" stroke="midnightblue" points="517.28,-883.07 527.49,-880.25 517.75,-876.09 517.28,-883.07"/>
</g>
<!-- Node18 -->
<g id="node18" class="node">
<title>Node18</title>
<g id="a_node18"><a xlink:href="jwt__key__auto__refresh_8h.html" target="_top" xlink:title=" ">
<polygon fill="white" stroke="black" points="447.5,-235.5 447.5,-265.5 572.5,-265.5 572.5,-235.5 447.5,-235.5"/>
<text text-anchor="start" x="455.5" y="-253.5" font-family="Helvetica,sans-Serif" font-size="10.00">src/node/jwt_key_auto</text>
<text text-anchor="middle" x="510" y="-242.5" font-family="Helvetica,sans-Serif" font-size="10.00">_refresh.h</text>
</a>
</g>
</g>
<!-- Node1&#45;&gt;Node18 -->
<g id="edge56" class="edge">
<title>Node1&#45;&gt;Node18</title>
<path fill="none" stroke="midnightblue" d="M564.87,-867.12C551.93,-859.01 536.18,-848.02 524,-836 424.2,-737.51 383.69,-712.56 341,-579 318.04,-507.18 343.47,-557.71 436,-389 460.64,-344.08 489.23,-290.54 502.51,-265.59"/>
<polygon fill="midnightblue" stroke="midnightblue" points="563.34,-870.29 573.7,-872.49 566.97,-864.31 563.34,-870.29"/>
</g>
<!-- Node22 -->
<g id="node22" class="node">
<title>Node22</title>
<g id="a_node22"><a xlink:href="http__parser_8h.html" target="_top" xlink:title=" ">
<polygon fill="white" stroke="black" points="613,-755 613,-774 733,-774 733,-755 613,-755"/>
<text text-anchor="middle" x="673" y="-762" font-family="Helvetica,sans-Serif" font-size="10.00">src/http/http_parser.h</text>
</a>
</g>
</g>
<!-- Node1&#45;&gt;Node22 -->
<g id="edge31" class="edge">
<title>Node1&#45;&gt;Node22</title>
<path fill="none" stroke="midnightblue" d="M616.3,-867.47C629.14,-859.85 643.64,-849.19 653,-836 666.7,-816.7 671.05,-788.23 672.4,-774.1"/>
<polygon fill="midnightblue" stroke="midnightblue" points="614.37,-864.55 607.35,-872.48 617.78,-870.65 614.37,-864.55"/>
</g>
<!-- Node33 -->
<g id="node33" class="node">
<title>Node33</title>
<g id="a_node33"><a xlink:href="http__proc_8h.html" target="_top" xlink:title=" ">
<polygon fill="white" stroke="black" points="533.5,-816.5 533.5,-835.5 644.5,-835.5 644.5,-816.5 533.5,-816.5"/>
<text text-anchor="middle" x="589" y="-823.5" font-family="Helvetica,sans-Serif" font-size="10.00">src/http/http_proc.h</text>
</a>
</g>
</g>
<!-- Node1&#45;&gt;Node33 -->
<g id="edge54" class="edge">
<title>Node1&#45;&gt;Node33</title>
<path fill="none" stroke="midnightblue" d="M589,-861.8C589,-852.91 589,-842.78 589,-835.75"/>
<polygon fill="midnightblue" stroke="midnightblue" points="585.5,-862.08 589,-872.08 592.5,-862.08 585.5,-862.08"/>
</g>
<!-- Node3 -->
<g id="node3" class="node">
<title>Node3</title>
<g id="a_node3"><a xlink:href="perf__client_8h.html" target="_top" xlink:title=" ">
<polygon fill="white" stroke="black" points="992.5,-492.5 992.5,-522.5 1103.5,-522.5 1103.5,-492.5 992.5,-492.5"/>
<text text-anchor="start" x="1000.5" y="-510.5" font-family="Helvetica,sans-Serif" font-size="10.00">src/clients/perf/perf</text>
<text text-anchor="middle" x="1048" y="-499.5" font-family="Helvetica,sans-Serif" font-size="10.00">_client.h</text>
</a>
</g>
</g>
<!-- Node2&#45;&gt;Node3 -->
<g id="edge2" class="edge">
<title>Node2&#45;&gt;Node3</title>
<path fill="none" stroke="midnightblue" d="M1021.64,-605.13C1019.52,-591.41 1018.35,-574.06 1022,-559 1025.16,-545.97 1032.3,-532.53 1038.3,-522.79"/>
<polygon fill="midnightblue" stroke="midnightblue" points="1018.24,-606.03 1023.47,-615.24 1025.13,-604.78 1018.24,-606.03"/>
</g>
<!-- Node6 -->
<g id="node6" class="node">
<title>Node6</title>
<g id="a_node6"><a xlink:href="timing_8h.html" target="_top" xlink:title=" ">
<polygon fill="white" stroke="black" points="1031,-559.5 1031,-578.5 1163,-578.5 1163,-559.5 1031,-559.5"/>
<text text-anchor="middle" x="1097" y="-566.5" font-family="Helvetica,sans-Serif" font-size="10.00">src/clients/perf/timing.h</text>
</a>
</g>
</g>
<!-- Node2&#45;&gt;Node6 -->
<g id="edge5" class="edge">
<title>Node2&#45;&gt;Node6</title>
<path fill="none" stroke="midnightblue" d="M1051.24,-608.89C1063.42,-598.54 1077.52,-586.56 1086.81,-578.66"/>
<polygon fill="midnightblue" stroke="midnightblue" points="1048.94,-606.26 1043.59,-615.4 1053.48,-611.59 1048.94,-606.26"/>
</g>
<!-- Node4 -->
<g id="node4" class="node">
<title>Node4</title>
<g id="a_node4"><a xlink:href="tpcc__client_8cpp.html" target="_top" xlink:title=" ">
<polygon fill="white" stroke="black" points="1109,-425.5 1109,-455.5 1225,-455.5 1225,-425.5 1109,-425.5"/>
<text text-anchor="start" x="1117" y="-443.5" font-family="Helvetica,sans-Serif" font-size="10.00">src/apps/tpcc/clients</text>
<text text-anchor="middle" x="1167" y="-432.5" font-family="Helvetica,sans-Serif" font-size="10.00">/tpcc_client.cpp</text>
</a>
</g>
</g>
<!-- Node3&#45;&gt;Node4 -->
<g id="edge3" class="edge">
<title>Node3&#45;&gt;Node4</title>
<path fill="none" stroke="midnightblue" d="M1082.65,-487.57C1101.37,-477.35 1124.09,-464.94 1141.23,-455.58"/>
<polygon fill="midnightblue" stroke="midnightblue" points="1080.92,-484.53 1073.82,-492.4 1084.28,-490.67 1080.92,-484.53"/>
</g>
<!-- Node5 -->
<g id="node5" class="node">
<title>Node5</title>
<g id="a_node5"><a xlink:href="scenario__perf__client_8cpp.html" target="_top" xlink:title=" ">
<polygon fill="white" stroke="black" points="957.5,-425.5 957.5,-455.5 1090.5,-455.5 1090.5,-425.5 957.5,-425.5"/>
<text text-anchor="start" x="965.5" y="-443.5" font-family="Helvetica,sans-Serif" font-size="10.00">src/clients/perf/scenario</text>
<text text-anchor="middle" x="1024" y="-432.5" font-family="Helvetica,sans-Serif" font-size="10.00">_perf_client.cpp</text>
</a>
</g>
</g>
<!-- Node3&#45;&gt;Node5 -->
<g id="edge4" class="edge">
<title>Node3&#45;&gt;Node5</title>
<path fill="none" stroke="midnightblue" d="M1039.32,-482.99C1035.93,-473.8 1032.15,-463.58 1029.2,-455.58"/>
<polygon fill="midnightblue" stroke="midnightblue" points="1036.05,-484.23 1042.79,-492.4 1042.61,-481.8 1036.05,-484.23"/>
</g>
<!-- Node6&#45;&gt;Node3 -->
<g id="edge6" class="edge">
<title>Node6&#45;&gt;Node3</title>
<path fill="none" stroke="midnightblue" d="M1083.44,-551.53C1075.93,-542.42 1066.71,-531.21 1059.55,-522.52"/>
<polygon fill="midnightblue" stroke="midnightblue" points="1080.92,-553.98 1089.98,-559.48 1086.32,-549.53 1080.92,-553.98"/>
</g>
<!-- Node8 -->
<g id="node8" class="node">
<title>Node8</title>
<g id="a_node8"><a xlink:href="http__endpoint_8h.html" target="_top" xlink:title=" ">
<polygon fill="white" stroke="black" points="350.5,-559.5 350.5,-578.5 483.5,-578.5 483.5,-559.5 350.5,-559.5"/>
<text text-anchor="middle" x="417" y="-566.5" font-family="Helvetica,sans-Serif" font-size="10.00">src/http/http_endpoint.h</text>
</a>
</g>
</g>
<!-- Node7&#45;&gt;Node8 -->
<g id="edge8" class="edge">
<title>Node7&#45;&gt;Node8</title>
<path fill="none" stroke="midnightblue" d="M296.18,-741.23C316.11,-712.08 352.3,-659.45 384,-615 393.11,-602.22 403.91,-587.6 410.61,-578.58"/>
<polygon fill="midnightblue" stroke="midnightblue" points="293.28,-739.26 290.53,-749.49 299.06,-743.21 293.28,-739.26"/>
</g>
<!-- Node9 -->
<g id="node9" class="node">
<title>Node9</title>
<g id="a_node9"><a xlink:href="rpc__sessions_8h.html" target="_top" xlink:title=" ">
<polygon fill="white" stroke="black" points="3,-498 3,-517 149,-517 149,-498 3,-498"/>
<text text-anchor="middle" x="76" y="-505" font-family="Helvetica,sans-Serif" font-size="10.00">src/enclave/rpc_sessions.h</text>
</a>
</g>
</g>
<!-- Node8&#45;&gt;Node9 -->
<g id="edge9" class="edge">
<title>Node8&#45;&gt;Node9</title>
<path fill="none" stroke="midnightblue" d="M357.9,-557.69C291.89,-546.17 186.26,-527.74 124.77,-517.01"/>
<polygon fill="midnightblue" stroke="midnightblue" points="357.69,-561.2 368.14,-559.48 358.89,-554.31 357.69,-561.2"/>
</g>
<!-- Node10 -->
<g id="node10" class="node">
<title>Node10</title>
<g id="a_node10"><a xlink:href="enclave_2enclave_8h.html" target="_top" xlink:title=" ">
<polygon fill="white" stroke="black" points="575,-56.5 575,-75.5 697,-75.5 697,-56.5 575,-56.5"/>
<text text-anchor="middle" x="636" y="-63.5" font-family="Helvetica,sans-Serif" font-size="10.00">src/enclave/enclave.h</text>
</a>
</g>
</g>
<!-- Node9&#45;&gt;Node10 -->
<g id="edge10" class="edge">
<title>Node9&#45;&gt;Node10</title>
<path fill="none" stroke="midnightblue" d="M59.47,-490.67C37.12,-467.46 0,-421.81 0,-374.5 0,-374.5 0,-374.5 0,-182.5 0,-124.46 415.33,-84.8 574.73,-71.72"/>
<polygon fill="midnightblue" stroke="midnightblue" points="57.14,-493.29 66.68,-497.91 62.11,-488.35 57.14,-493.29"/>
</g>
<!-- Node12 -->
<g id="node12" class="node">
<title>Node12</title>
<g id="a_node12"><a xlink:href="node__client_8h.html" target="_top" xlink:title=" ">
<polygon fill="white" stroke="black" points="143,-431 143,-450 269,-450 269,-431 143,-431"/>
<text text-anchor="middle" x="206" y="-438" font-family="Helvetica,sans-Serif" font-size="10.00">src/node/node_client.h</text>
</a>
</g>
</g>
<!-- Node9&#45;&gt;Node12 -->
<g id="edge12" class="edge">
<title>Node9&#45;&gt;Node12</title>
<path fill="none" stroke="midnightblue" d="M102.45,-493.27C128.2,-480.4 166.58,-461.21 188.67,-450.17"/>
<polygon fill="midnightblue" stroke="midnightblue" points="100.64,-490.27 93.26,-497.87 103.77,-496.53 100.64,-490.27"/>
</g>
<!-- Node15 -->
<g id="node15" class="node">
<title>Node15</title>
<g id="a_node15"><a xlink:href="node__state_8h.html" target="_top" xlink:title=" ">
<polygon fill="white" stroke="black" points="328,-174 328,-193 452,-193 452,-174 328,-174"/>
<text text-anchor="middle" x="390" y="-181" font-family="Helvetica,sans-Serif" font-size="10.00">src/node/node_state.h</text>
</a>
</g>
</g>
<!-- Node9&#45;&gt;Node15 -->
<g id="edge28" class="edge">
<title>Node9&#45;&gt;Node15</title>
<path fill="none" stroke="midnightblue" d="M67.33,-488.5C56.11,-463.52 38,-416.65 38,-374.5 38,-374.5 38,-374.5 38,-311 38,-273.24 45.56,-257.35 76,-235 115.05,-206.33 248.13,-193.23 327.97,-187.83"/>
<polygon fill="midnightblue" stroke="midnightblue" points="64.26,-490.19 71.64,-497.79 70.61,-487.24 64.26,-490.19"/>
</g>
<!-- Node21 -->
<g id="node21" class="node">
<title>Node21</title>
<g id="a_node21"><a xlink:href="resharing_8h.html" target="_top" xlink:title=" ">
<polygon fill="white" stroke="black" points="85,-241 85,-260 201,-260 201,-241 85,-241"/>
<text text-anchor="middle" x="143" y="-248" font-family="Helvetica,sans-Serif" font-size="10.00">src/node/resharing.h</text>
</a>
</g>
</g>
<!-- Node9&#45;&gt;Node21 -->
<g id="edge29" class="edge">
<title>Node9&#45;&gt;Node21</title>
<path fill="none" stroke="midnightblue" d="M80.93,-487.75C94.34,-436.71 131.14,-296.65 140.7,-260.24"/>
<polygon fill="midnightblue" stroke="midnightblue" points="77.46,-487.16 78.31,-497.72 84.23,-488.94 77.46,-487.16"/>
</g>
<!-- Node11 -->
<g id="node11" class="node">
<title>Node11</title>
<g id="a_node11"><a xlink:href="enclave_2main_8cpp.html" target="_top" xlink:title=" ">
<polygon fill="white" stroke="black" points="576,-0.5 576,-19.5 696,-19.5 696,-0.5 576,-0.5"/>
<text text-anchor="middle" x="636" y="-7.5" font-family="Helvetica,sans-Serif" font-size="10.00">src/enclave/main.cpp</text>
</a>
</g>
</g>
<!-- Node10&#45;&gt;Node11 -->
<g id="edge11" class="edge">
<title>Node10&#45;&gt;Node11</title>
<path fill="none" stroke="midnightblue" d="M636,-45.8C636,-36.91 636,-26.78 636,-19.75"/>
<polygon fill="midnightblue" stroke="midnightblue" points="632.5,-46.08 636,-56.08 639.5,-46.08 632.5,-46.08"/>
</g>
<!-- Node13 -->
<g id="node13" class="node">
<title>Node13</title>
<g id="a_node13"><a xlink:href="orc__requests_8h.html" target="_top" xlink:title=" ">
<polygon fill="white" stroke="black" points="288.5,-358.5 288.5,-388.5 407.5,-388.5 407.5,-358.5 288.5,-358.5"/>
<text text-anchor="start" x="296.5" y="-376.5" font-family="Helvetica,sans-Serif" font-size="10.00">src/consensus/aft/orc</text>
<text text-anchor="middle" x="348" y="-365.5" font-family="Helvetica,sans-Serif" font-size="10.00">_requests.h</text>
</a>
</g>
</g>
<!-- Node12&#45;&gt;Node13 -->
<g id="edge13" class="edge">
<title>Node12&#45;&gt;Node13</title>
<path fill="none" stroke="midnightblue" d="M234.14,-426.62C258.16,-415.63 292.64,-399.84 317.35,-388.53"/>
<polygon fill="midnightblue" stroke="midnightblue" points="232.49,-423.52 224.86,-430.87 235.41,-429.89 232.49,-423.52"/>
</g>
<!-- Node14 -->
<g id="node14" class="node">
<title>Node14</title>
<g id="a_node14"><a xlink:href="raft_8h.html" target="_top" xlink:title=" ">
<polygon fill="white" stroke="black" points="173.5,-302.5 173.5,-321.5 302.5,-321.5 302.5,-302.5 173.5,-302.5"/>
<text text-anchor="middle" x="238" y="-309.5" font-family="Helvetica,sans-Serif" font-size="10.00">src/consensus/aft/raft.h</text>
</a>
</g>
</g>
<!-- Node12&#45;&gt;Node14 -->
<g id="edge23" class="edge">
<title>Node12&#45;&gt;Node14</title>
<path fill="none" stroke="midnightblue" d="M174.32,-426.28C158.87,-418.01 141.77,-405.73 133,-389 126.6,-376.8 125.42,-369.5 133,-358 145.61,-338.88 168.21,-327.85 189.23,-321.5"/>
<polygon fill="midnightblue" stroke="midnightblue" points="173.13,-429.59 183.64,-430.91 176.24,-423.32 173.13,-429.59"/>
</g>
<!-- Node19 -->
<g id="node19" class="node">
<title>Node19</title>
<g id="a_node19"><a xlink:href="http__node__client_8h.html" target="_top" xlink:title=" ">
<polygon fill="white" stroke="black" points="319,-235.5 319,-265.5 429,-265.5 429,-235.5 319,-235.5"/>
<text text-anchor="start" x="327" y="-253.5" font-family="Helvetica,sans-Serif" font-size="10.00">src/node/http_node</text>
<text text-anchor="middle" x="374" y="-242.5" font-family="Helvetica,sans-Serif" font-size="10.00">_client.h</text>
</a>
</g>
</g>
<!-- Node12&#45;&gt;Node19 -->
<g id="edge24" class="edge">
<title>Node12&#45;&gt;Node19</title>
<path fill="none" stroke="midnightblue" d="M279.26,-431.5C332.85,-423.96 399.02,-410.55 416,-389 445.82,-351.16 406.8,-292.23 385.8,-265.51"/>
<polygon fill="midnightblue" stroke="midnightblue" points="278.51,-428.07 269.07,-432.88 279.45,-435.01 278.51,-428.07"/>
</g>
<!-- Node20 -->
<g id="node20" class="node">
<title>Node20</title>
<g id="a_node20"><a xlink:href="retired__nodes__cleanup_8h.html" target="_top" xlink:title=" ">
<polygon fill="white" stroke="black" points="142,-358.5 142,-388.5 270,-388.5 270,-358.5 142,-358.5"/>
<text text-anchor="start" x="150" y="-376.5" font-family="Helvetica,sans-Serif" font-size="10.00">src/node/retired_nodes</text>
<text text-anchor="middle" x="206" y="-365.5" font-family="Helvetica,sans-Serif" font-size="10.00">_cleanup.h</text>
</a>
</g>
</g>
<!-- Node12&#45;&gt;Node20 -->
<g id="edge26" class="edge">
<title>Node12&#45;&gt;Node20</title>
<path fill="none" stroke="midnightblue" d="M206,-420.41C206,-410.22 206,-397.9 206,-388.59"/>
<polygon fill="midnightblue" stroke="midnightblue" points="202.5,-420.73 206,-430.73 209.5,-420.73 202.5,-420.73"/>
</g>
<!-- Node13&#45;&gt;Node14 -->
<g id="edge14" class="edge">
<title>Node13&#45;&gt;Node14</title>
<path fill="none" stroke="midnightblue" d="M312.88,-353.51C293.11,-342.81 269.38,-329.97 254.01,-321.66"/>
<polygon fill="midnightblue" stroke="midnightblue" points="311.47,-356.72 321.93,-358.4 314.8,-350.56 311.47,-356.72"/>
</g>
<!-- Node17 -->
<g id="node17" class="node">
<title>Node17</title>
<g id="a_node17"><a xlink:href="node__frontend_8h.html" target="_top" xlink:title=" ">
<polygon fill="white" stroke="black" points="540,-302.5 540,-321.5 698,-321.5 698,-302.5 540,-302.5"/>
<text text-anchor="middle" x="619" y="-309.5" font-family="Helvetica,sans-Serif" font-size="10.00">src/node/rpc/node_frontend.h</text>
</a>
</g>
</g>
<!-- Node13&#45;&gt;Node17 -->
<g id="edge19" class="edge">
<title>Node13&#45;&gt;Node17</title>
<path fill="none" stroke="midnightblue" d="M417.58,-357.22C469.29,-345.87 537.94,-330.8 580.26,-321.51"/>
<polygon fill="midnightblue" stroke="midnightblue" points="416.82,-353.81 407.81,-359.37 418.33,-360.64 416.82,-353.81"/>
</g>
<!-- Node14&#45;&gt;Node15 -->
<g id="edge15" class="edge">
<title>Node14&#45;&gt;Node15</title>
<path fill="none" stroke="midnightblue" d="M251.66,-294.32C265.41,-278.1 287.72,-253.3 310,-235 330.56,-218.11 357.13,-202.37 373.88,-193.09"/>
<polygon fill="midnightblue" stroke="midnightblue" points="248.67,-292.43 244.95,-302.35 254.05,-296.92 248.67,-292.43"/>
</g>
<!-- Node15&#45;&gt;Node10 -->
<g id="edge16" class="edge">
<title>Node15&#45;&gt;Node10</title>
<path fill="none" stroke="midnightblue" d="M418.89,-169.74C441.57,-159.66 473.9,-145.15 502,-132 544.16,-112.28 593.28,-88.15 618.73,-75.57"/>
<polygon fill="midnightblue" stroke="midnightblue" points="417.22,-166.65 409.5,-173.91 420.06,-173.05 417.22,-166.65"/>
</g>
<!-- Node16 -->
<g id="node16" class="node">
<title>Node16</title>
<g id="a_node16"><a xlink:href="gov__effects_8h.html" target="_top" xlink:title=" ">
<polygon fill="white" stroke="black" points="349,-112.5 349,-131.5 493,-131.5 493,-112.5 349,-112.5"/>
<text text-anchor="middle" x="421" y="-119.5" font-family="Helvetica,sans-Serif" font-size="10.00">src/node/rpc/gov_effects.h</text>
</a>
</g>
</g>
<!-- Node15&#45;&gt;Node16 -->
<g id="edge17" class="edge">
<title>Node15&#45;&gt;Node16</title>
<path fill="none" stroke="midnightblue" d="M399.2,-164.83C404.94,-153.83 412.06,-140.16 416.57,-131.51"/>
<polygon fill="midnightblue" stroke="midnightblue" points="395.96,-163.49 394.44,-173.98 402.17,-166.72 395.96,-163.49"/>
</g>
<!-- Node16&#45;&gt;Node10 -->
<g id="edge18" class="edge">
<title>Node16&#45;&gt;Node10</title>
<path fill="none" stroke="midnightblue" d="M464.96,-109.96C505.57,-99.76 565.04,-84.82 602.09,-75.52"/>
<polygon fill="midnightblue" stroke="midnightblue" points="463.91,-106.61 455.07,-112.44 465.62,-113.4 463.91,-106.61"/>
</g>
<!-- Node17&#45;&gt;Node10 -->
<g id="edge20" class="edge">
<title>Node17&#45;&gt;Node10</title>
<path fill="none" stroke="midnightblue" d="M620.32,-292.09C623.77,-242.57 632.97,-110.52 635.4,-75.58"/>
<polygon fill="midnightblue" stroke="midnightblue" points="616.81,-292.1 619.61,-302.32 623.79,-292.58 616.81,-292.1"/>
</g>
<!-- Node17&#45;&gt;Node18 -->
<g id="edge21" class="edge">
<title>Node17&#45;&gt;Node18</title>
<path fill="none" stroke="midnightblue" d="M594.35,-297.54C576.85,-287.99 553.42,-275.2 535.69,-265.52"/>
<polygon fill="midnightblue" stroke="midnightblue" points="592.93,-300.76 603.38,-302.48 596.28,-294.61 592.93,-300.76"/>
</g>
<!-- Node18&#45;&gt;Node15 -->
<g id="edge22" class="edge">
<title>Node18&#45;&gt;Node15</title>
<path fill="none" stroke="midnightblue" d="M474.87,-230.47C451.96,-218.06 423.18,-202.47 405.71,-193.01"/>
<polygon fill="midnightblue" stroke="midnightblue" points="473.5,-233.71 483.96,-235.4 476.84,-227.56 473.5,-233.71"/>
</g>
<!-- Node19&#45;&gt;Node15 -->
<g id="edge25" class="edge">
<title>Node19&#45;&gt;Node15</title>
<path fill="none" stroke="midnightblue" d="M379.88,-225.6C382.67,-214.28 385.82,-201.46 387.86,-193.19"/>
<polygon fill="midnightblue" stroke="midnightblue" points="376.46,-224.85 377.47,-235.4 383.26,-226.52 376.46,-224.85"/>
</g>
<!-- Node20&#45;&gt;Node14 -->
<g id="edge27" class="edge">
<title>Node20&#45;&gt;Node14</title>
<path fill="none" stroke="midnightblue" d="M218.37,-349.5C223.62,-339.74 229.42,-328.96 233.34,-321.66"/>
<polygon fill="midnightblue" stroke="midnightblue" points="215.24,-347.93 213.58,-358.4 221.4,-351.25 215.24,-347.93"/>
</g>
<!-- Node21&#45;&gt;Node15 -->
<g id="edge30" class="edge">
<title>Node21&#45;&gt;Node15</title>
<path fill="none" stroke="midnightblue" d="M185.47,-238.32C234.24,-225.49 313.2,-204.71 357.38,-193.08"/>
<polygon fill="midnightblue" stroke="midnightblue" points="184.32,-235.01 175.54,-240.94 186.11,-241.78 184.32,-235.01"/>
</g>
<!-- Node22&#45;&gt;Node2 -->
<g id="edge32" class="edge">
<title>Node22&#45;&gt;Node2</title>
<path fill="none" stroke="midnightblue" d="M716.34,-752.16C745.11,-743.64 783.11,-730.44 814,-713 832.98,-702.28 832.69,-692.12 852,-682 863.2,-676.13 928.76,-657.87 976.36,-645"/>
<polygon fill="midnightblue" stroke="midnightblue" points="715.21,-748.84 706.58,-754.97 717.15,-755.56 715.21,-748.84"/>
</g>
<!-- Node22&#45;&gt;Node8 -->
<g id="edge34" class="edge">
<title>Node22&#45;&gt;Node8</title>
<path fill="none" stroke="midnightblue" d="M602.84,-753.91C540.84,-741.18 454.6,-712.01 417,-646 404.72,-624.45 410.48,-593.56 414.4,-578.68"/>
<polygon fill="midnightblue" stroke="midnightblue" points="602.47,-757.4 612.96,-755.88 603.81,-750.53 602.47,-757.4"/>
</g>
<!-- Node23 -->
<g id="node23" class="node">
<title>Node23</title>
<g id="a_node23"><a xlink:href="endpoint__registry_8cpp.html" target="_top" xlink:title=" ">
<polygon fill="white" stroke="black" points="861,-682.5 861,-712.5 989,-712.5 989,-682.5 861,-682.5"/>
<text text-anchor="start" x="869" y="-700.5" font-family="Helvetica,sans-Serif" font-size="10.00">src/endpoints/endpoint</text>
<text text-anchor="middle" x="925" y="-689.5" font-family="Helvetica,sans-Serif" font-size="10.00">_registry.cpp</text>
</a>
</g>
</g>
<!-- Node22&#45;&gt;Node23 -->
<g id="edge33" class="edge">
<title>Node22&#45;&gt;Node23</title>
<path fill="none" stroke="midnightblue" d="M716,-752.41C758.67,-741.4 824.2,-724.5 870.49,-712.56"/>
<polygon fill="midnightblue" stroke="midnightblue" points="715.01,-749.05 706.2,-754.94 716.76,-755.83 715.01,-749.05"/>
</g>
<!-- Node24 -->
<g id="node24" class="node">
<title>Node24</title>
<g id="a_node24"><a xlink:href="http__jwt_8h.html" target="_top" xlink:title=" ">
<polygon fill="white" stroke="black" points="539.5,-688 539.5,-707 644.5,-707 644.5,-688 539.5,-688"/>
<text text-anchor="middle" x="592" y="-695" font-family="Helvetica,sans-Serif" font-size="10.00">src/http/http_jwt.h</text>
</a>
</g>
</g>
<!-- Node22&#45;&gt;Node24 -->
<g id="edge35" class="edge">
<title>Node22&#45;&gt;Node24</title>
<path fill="none" stroke="midnightblue" d="M653.95,-748.21C637.99,-735.41 615.79,-717.59 602.75,-707.13"/>
<polygon fill="midnightblue" stroke="midnightblue" points="652.09,-751.2 662.08,-754.73 656.47,-745.75 652.09,-751.2"/>
</g>
<!-- Node29 -->
<g id="node29" class="node">
<title>Node29</title>
<g id="a_node29"><a xlink:href="http__rpc__context_8h.html" target="_top" xlink:title=" ">
<polygon fill="white" stroke="black" points="599.5,-621 599.5,-640 746.5,-640 746.5,-621 599.5,-621"/>
<text text-anchor="middle" x="673" y="-628" font-family="Helvetica,sans-Serif" font-size="10.00">src/http/http_rpc_context.h</text>
</a>
</g>
</g>
<!-- Node22&#45;&gt;Node29 -->
<g id="edge44" class="edge">
<title>Node22&#45;&gt;Node29</title>
<path fill="none" stroke="midnightblue" d="M673,-744.78C673,-715.75 673,-661.04 673,-640.02"/>
<polygon fill="midnightblue" stroke="midnightblue" points="669.5,-744.84 673,-754.84 676.5,-744.84 669.5,-744.84"/>
</g>
<!-- Node31 -->
<g id="node31" class="node">
<title>Node31</title>
<g id="a_node31"><a xlink:href="http__sig_8h.html" target="_top" xlink:title=" ">
<polygon fill="white" stroke="black" points="701,-688 701,-707 805,-707 805,-688 701,-688"/>
<text text-anchor="middle" x="753" y="-695" font-family="Helvetica,sans-Serif" font-size="10.00">src/http/http_sig.h</text>
</a>
</g>
</g>
<!-- Node22&#45;&gt;Node31 -->
<g id="edge50" class="edge">
<title>Node22&#45;&gt;Node31</title>
<path fill="none" stroke="midnightblue" d="M691.81,-748.21C707.58,-735.41 729.51,-717.59 742.38,-707.13"/>
<polygon fill="midnightblue" stroke="midnightblue" points="689.34,-745.71 683.79,-754.73 693.76,-751.14 689.34,-745.71"/>
</g>
<!-- Node25 -->
<g id="node25" class="node">
<title>Node25</title>
<g id="a_node25"><a xlink:href="jwt__auth_8cpp.html" target="_top" xlink:title=" ">
<polygon fill="white" stroke="black" points="426.5,-615.5 426.5,-645.5 581.5,-645.5 581.5,-615.5 426.5,-615.5"/>
<text text-anchor="start" x="434.5" y="-633.5" font-family="Helvetica,sans-Serif" font-size="10.00">src/endpoints/authentication</text>
<text text-anchor="middle" x="504" y="-622.5" font-family="Helvetica,sans-Serif" font-size="10.00">/jwt_auth.cpp</text>
</a>
</g>
</g>
<!-- Node24&#45;&gt;Node25 -->
<g id="edge36" class="edge">
<title>Node24&#45;&gt;Node25</title>
<path fill="none" stroke="midnightblue" d="M571.75,-681.54C557.11,-670.73 537.44,-656.2 523.07,-645.59"/>
<polygon fill="midnightblue" stroke="midnightblue" points="570.01,-684.61 580.13,-687.73 574.17,-678.98 570.01,-684.61"/>
</g>
<!-- Node26 -->
<g id="node26" class="node">
<title>Node26</title>
<g id="a_node26"><a xlink:href="frontend_8h.html" target="_top" xlink:title=" ">
<polygon fill="white" stroke="black" points="707.5,-364 707.5,-383 836.5,-383 836.5,-364 707.5,-364"/>
<text text-anchor="middle" x="772" y="-371" font-family="Helvetica,sans-Serif" font-size="10.00">src/node/rpc/frontend.h</text>
</a>
</g>
</g>
<!-- Node24&#45;&gt;Node26 -->
<g id="edge37" class="edge">
<title>Node24&#45;&gt;Node26</title>
<path fill="none" stroke="midnightblue" d="M645.96,-685.86C687.65,-676.58 740.73,-662.12 756,-646 779.95,-620.73 775,-604.82 775,-570 775,-570 775,-570 775,-506.5 775,-459.97 773.11,-404.23 772.33,-383.15"/>
<polygon fill="midnightblue" stroke="midnightblue" points="645.2,-682.44 636.18,-687.99 646.69,-689.28 645.2,-682.44"/>
</g>
<!-- Node26&#45;&gt;Node15 -->
<g id="edge38" class="edge">
<title>Node26&#45;&gt;Node15</title>
<path fill="none" stroke="midnightblue" d="M759.28,-355.74C747.07,-340.43 727.49,-317.82 707,-302 624.76,-238.52 504.7,-206.65 438.44,-193.03"/>
<polygon fill="midnightblue" stroke="midnightblue" points="756.67,-358.08 765.58,-363.81 762.19,-353.78 756.67,-358.08"/>
</g>
<!-- Node26&#45;&gt;Node17 -->
<g id="edge41" class="edge">
<title>Node26&#45;&gt;Node17</title>
<path fill="none" stroke="midnightblue" d="M740.58,-360.28C710.85,-348.72 666.99,-331.66 640.88,-321.51"/>
<polygon fill="midnightblue" stroke="midnightblue" points="739.49,-363.61 750.08,-363.98 742.03,-357.09 739.49,-363.61"/>
</g>
<!-- Node27 -->
<g id="node27" class="node">
<title>Node27</title>
<g id="a_node27"><a xlink:href="member__frontend_8h.html" target="_top" xlink:title=" ">
<polygon fill="white" stroke="black" points="664,-168.5 664,-198.5 784,-198.5 784,-168.5 664,-168.5"/>
<text text-anchor="start" x="672" y="-186.5" font-family="Helvetica,sans-Serif" font-size="10.00">src/node/rpc/member</text>
<text text-anchor="middle" x="724" y="-175.5" font-family="Helvetica,sans-Serif" font-size="10.00">_frontend.h</text>
</a>
</g>
</g>
<!-- Node26&#45;&gt;Node27 -->
<g id="edge39" class="edge">
<title>Node26&#45;&gt;Node27</title>
<path fill="none" stroke="midnightblue" d="M767.25,-353.88C757.66,-316.33 736.19,-232.24 727.63,-198.7"/>
<polygon fill="midnightblue" stroke="midnightblue" points="763.95,-355.11 769.81,-363.93 770.73,-353.38 763.95,-355.11"/>
</g>
<!-- Node28 -->
<g id="node28" class="node">
<title>Node28</title>
<g id="a_node28"><a xlink:href="user__frontend_8h.html" target="_top" xlink:title=" ">
<polygon fill="white" stroke="black" points="702.5,-112.5 702.5,-131.5 857.5,-131.5 857.5,-112.5 702.5,-112.5"/>
<text text-anchor="middle" x="780" y="-119.5" font-family="Helvetica,sans-Serif" font-size="10.00">src/node/rpc/user_frontend.h</text>
</a>
</g>
</g>
<!-- Node26&#45;&gt;Node28 -->
<g id="edge42" class="edge">
<title>Node26&#45;&gt;Node28</title>
<path fill="none" stroke="midnightblue" d="M776.93,-353.89C785.8,-317.89 802.66,-236.24 793,-168 791.18,-155.12 786.55,-140.76 783.34,-131.8"/>
<polygon fill="midnightblue" stroke="midnightblue" points="773.46,-353.34 774.37,-363.9 780.24,-355.08 773.46,-353.34"/>
</g>
<!-- Node27&#45;&gt;Node10 -->
<g id="edge40" class="edge">
<title>Node27&#45;&gt;Node10</title>
<path fill="none" stroke="midnightblue" d="M707.05,-160.26C687.46,-134.54 656.15,-93.45 642.61,-75.67"/>
<polygon fill="midnightblue" stroke="midnightblue" points="704.36,-162.5 713.21,-168.34 709.93,-158.26 704.36,-162.5"/>
</g>
<!-- Node28&#45;&gt;Node10 -->
<g id="edge43" class="edge">
<title>Node28&#45;&gt;Node10</title>
<path fill="none" stroke="midnightblue" d="M747.75,-108.91C720.68,-98.75 682.68,-84.51 658.71,-75.52"/>
<polygon fill="midnightblue" stroke="midnightblue" points="746.59,-112.21 757.18,-112.44 749.05,-105.66 746.59,-112.21"/>
</g>
<!-- Node29&#45;&gt;Node8 -->
<g id="edge45" class="edge">
<title>Node29&#45;&gt;Node8</title>
<path fill="none" stroke="midnightblue" d="M626.47,-618.69C576.8,-607.14 499.11,-589.08 453.61,-578.51"/>
<polygon fill="midnightblue" stroke="midnightblue" points="625.79,-622.12 636.32,-620.98 627.37,-615.3 625.79,-622.12"/>
</g>
<!-- Node29&#45;&gt;Node18 -->
<g id="edge46" class="edge">
<title>Node29&#45;&gt;Node18</title>
<path fill="none" stroke="midnightblue" d="M630.63,-617.81C582.93,-601.76 512,-567.91 512,-508.5 512,-508.5 512,-508.5 512,-372.5 512,-333.84 510.97,-288.25 510.39,-265.66"/>
<polygon fill="midnightblue" stroke="midnightblue" points="629.83,-621.23 640.42,-620.97 631.98,-614.57 629.83,-621.23"/>
</g>
<!-- Node30 -->
<g id="node30" class="node">
<title>Node30</title>
<g id="a_node30"><a xlink:href="forwarder_8h.html" target="_top" xlink:title=" ">
<polygon fill="white" stroke="black" points="803,-431 803,-450 937,-450 937,-431 803,-431"/>
<text text-anchor="middle" x="870" y="-438" font-family="Helvetica,sans-Serif" font-size="10.00">src/node/rpc/forwarder.h</text>
</a>
</g>
</g>
<!-- Node29&#45;&gt;Node30 -->
<g id="edge47" class="edge">
<title>Node29&#45;&gt;Node30</title>
<path fill="none" stroke="midnightblue" d="M689.28,-613.96C729.06,-576 830.19,-479.49 860.97,-450.12"/>
<polygon fill="midnightblue" stroke="midnightblue" points="686.79,-611.5 681.98,-620.93 691.63,-616.56 686.79,-611.5"/>
</g>
<!-- Node30&#45;&gt;Node10 -->
<g id="edge48" class="edge">
<title>Node30&#45;&gt;Node10</title>
<path fill="none" stroke="midnightblue" d="M873.84,-420.9C878.58,-396.31 886,-351.6 886,-313 886,-313 886,-313 886,-182.5 886,-150.05 890.74,-134.12 867,-112 842.82,-89.48 756.98,-77.45 697.05,-71.65"/>
<polygon fill="midnightblue" stroke="midnightblue" points="870.36,-420.47 871.84,-430.96 877.22,-421.84 870.36,-420.47"/>
</g>
<!-- Node30&#45;&gt;Node26 -->
<g id="edge49" class="edge">
<title>Node30&#45;&gt;Node26</title>
<path fill="none" stroke="midnightblue" d="M848.28,-425.09C828.89,-412.24 801.14,-393.83 785.01,-383.13"/>
<polygon fill="midnightblue" stroke="midnightblue" points="846.52,-428.12 856.78,-430.73 850.38,-422.29 846.52,-428.12"/>
</g>
<!-- Node31&#45;&gt;Node2 -->
<g id="edge51" class="edge">
<title>Node31&#45;&gt;Node2</title>
<path fill="none" stroke="midnightblue" d="M799.67,-685.68C843.25,-675.55 910.07,-659.92 968,-646 970.77,-645.33 973.61,-644.65 976.48,-643.95"/>
<polygon fill="midnightblue" stroke="midnightblue" points="798.88,-682.27 789.93,-687.95 800.46,-689.09 798.88,-682.27"/>
</g>
<!-- Node31&#45;&gt;Node29 -->
<g id="edge53" class="edge">
<title>Node31&#45;&gt;Node29</title>
<path fill="none" stroke="midnightblue" d="M734.19,-681.21C718.42,-668.41 696.49,-650.59 683.62,-640.13"/>
<polygon fill="midnightblue" stroke="midnightblue" points="732.24,-684.14 742.21,-687.73 736.66,-678.71 732.24,-684.14"/>
</g>
<!-- Node32 -->
<g id="node32" class="node">
<title>Node32</title>
<g id="a_node32"><a xlink:href="sig__auth_8cpp.html" target="_top" xlink:title=" ">
<polygon fill="white" stroke="black" points="803.5,-615.5 803.5,-645.5 958.5,-645.5 958.5,-615.5 803.5,-615.5"/>
<text text-anchor="start" x="811.5" y="-633.5" font-family="Helvetica,sans-Serif" font-size="10.00">src/endpoints/authentication</text>
<text text-anchor="middle" x="881" y="-622.5" font-family="Helvetica,sans-Serif" font-size="10.00">/sig_auth.cpp</text>
</a>
</g>
</g>
<!-- Node31&#45;&gt;Node32 -->
<g id="edge52" class="edge">
<title>Node31&#45;&gt;Node32</title>
<path fill="none" stroke="midnightblue" d="M779.2,-683.19C800.73,-672.26 831.16,-656.81 853.13,-645.65"/>
<polygon fill="midnightblue" stroke="midnightblue" points="777.33,-680.22 770,-687.87 780.5,-686.46 777.33,-680.22"/>
</g>
<!-- Node33&#45;&gt;Node22 -->
<g id="edge55" class="edge">
<title>Node33&#45;&gt;Node22</title>
<path fill="none" stroke="midnightblue" d="M609.31,-810.61C625.47,-799.17 647.52,-783.55 660.99,-774.01"/>
<polygon fill="midnightblue" stroke="midnightblue" points="607.17,-807.84 601.04,-816.48 611.22,-813.55 607.17,-807.84"/>
</g>
</g>
</svg>
