<?xml version="1.0" encoding="UTF-8" standalone="no"?>
<!DOCTYPE svg PUBLIC "-//W3C//DTD SVG 1.1//EN"
 "http://www.w3.org/Graphics/SVG/1.1/DTD/svg11.dtd">
<!-- Generated by graphviz version 2.43.0 (0)
 -->
<!-- Title: src/http/http_parser.h Pages: 1 -->
<!--zoomable 777 -->
<svg id="main" version="1.1" xmlns="http://www.w3.org/2000/svg" xmlns:xlink="http://www.w3.org/1999/xlink" xml:space="preserve" onload="init(evt)">
<style type="text/css"><![CDATA[
.edge:hover path { stroke: red; }
.edge:hover polygon { stroke: red; fill: red; }
]]></style>
<script type="text/javascript"><![CDATA[
var edges = document.getElementsByTagName('g');
if (edges && edges.length) {
  for (var i=0;i<edges.length;i++) {
    if (edges[i].id.substr(0,4)=='edge') {
      edges[i].setAttribute('class','edge');
    }
  }
}
]]></script>
        <defs>
                <circle id="rim" cx="0" cy="0" r="7"/>
                <circle id="rim2" cx="0" cy="0" r="3.5"/>
                <g id="zoomPlus">
                        <use xlink:href="#rim" fill="#404040">
                                <set attributeName="fill" to="#808080" begin="zoomplus.mouseover" end="zoomplus.mouseout"/>
                        </use>
                        <path d="M-4,0h8M0,-4v8" fill="none" stroke="white" stroke-width="1.5" pointer-events="none"/>
                </g>
                <g id="zoomMin">
                        <use xlink:href="#rim" fill="#404040">
                                <set attributeName="fill" to="#808080" begin="zoomminus.mouseover" end="zoomminus.mouseout"/>
                        </use>
                        <path d="M-4,0h8" fill="none" stroke="white" stroke-width="1.5" pointer-events="none"/>
                </g>
                <g id="dirArrow">
                        <path fill="none" stroke="white" stroke-width="1.5" d="M0,-3.0v7 M-2.5,-0.5L0,-3.0L2.5,-0.5"/>
                </g>
               <g id="resetDef">
                       <use xlink:href="#rim2" fill="#404040">
                               <set attributeName="fill" to="#808080" begin="reset.mouseover" end="reset.mouseout"/>
                       </use>
               </g>
        </defs>

<script type="text/javascript">
var viewWidth = 1206;
var viewHeight = 777;
var sectionId = 'dynsection-1';
</script>
<script xlink:href="svgpan.js"/>
<svg id="graph" class="graph">
<g id="viewport">
<title>src/http/http_parser.h</title>
<polygon fill="white" stroke="transparent" points="-4,4 -4,-773 1201.5,-773 1201.5,4 -4,4"/>
<!-- Node1 -->
<g id="node1" class="node">
<title>Node1</title>
<g id="a_node1"><a xlink:title=" ">
<polygon fill="#bfbfbf" stroke="black" points="602.5,-749.5 602.5,-768.5 722.5,-768.5 722.5,-749.5 602.5,-749.5"/>
<text text-anchor="middle" x="662.5" y="-756.5" font-family="Helvetica,sans-Serif" font-size="10.00">src/http/http_parser.h</text>
</a>
</g>
</g>
<!-- Node2 -->
<g id="node2" class="node">
<title>Node2</title>
<g id="a_node2"><a xlink:href="rpc__tls__client_8h.html" target="_top" xlink:title=" ">
<polygon fill="white" stroke="black" points="321,-615.5 321,-645.5 422,-645.5 422,-615.5 321,-615.5"/>
<text text-anchor="start" x="329" y="-633.5" font-family="Helvetica,sans-Serif" font-size="10.00">src/clients/rpc_tls</text>
<text text-anchor="middle" x="371.5" y="-622.5" font-family="Helvetica,sans-Serif" font-size="10.00">_client.h</text>
</a>
</g>
</g>
<!-- Node1&#45;&gt;Node2 -->
<g id="edge1" class="edge">
<title>Node1&#45;&gt;Node2</title>
<path fill="none" stroke="midnightblue" d="M592.99,-747.57C558.1,-740.67 515.84,-729.73 480.5,-713 443.34,-695.41 406.34,-664.08 386.45,-645.81"/>
<polygon fill="midnightblue" stroke="midnightblue" points="592.62,-751.06 603.1,-749.5 593.93,-744.19 592.62,-751.06"/>
</g>
<!-- Node7 -->
<g id="node7" class="node">
<title>Node7</title>
<g id="a_node7"><a xlink:href="endpoint__registry_8cpp.html" target="_top" xlink:title=" ">
<polygon fill="white" stroke="black" points="975.5,-682.5 975.5,-712.5 1103.5,-712.5 1103.5,-682.5 975.5,-682.5"/>
<text text-anchor="start" x="983.5" y="-700.5" font-family="Helvetica,sans-Serif" font-size="10.00">src/endpoints/endpoint</text>
<text text-anchor="middle" x="1039.5" y="-689.5" font-family="Helvetica,sans-Serif" font-size="10.00">_registry.cpp</text>
</a>
</g>
</g>
<!-- Node1&#45;&gt;Node7 -->
<g id="edge7" class="edge">
<title>Node1&#45;&gt;Node7</title>
<path fill="none" stroke="midnightblue" d="M732.64,-748.61C794.36,-740.12 886.57,-726.84 966.5,-713 969.43,-712.49 972.42,-711.96 975.44,-711.41"/>
<polygon fill="midnightblue" stroke="midnightblue" points="732.06,-745.16 722.63,-749.99 733.01,-752.1 732.06,-745.16"/>
</g>
<!-- Node8 -->
<g id="node8" class="node">
<title>Node8</title>
<g id="a_node8"><a xlink:href="http__endpoint_8h.html" target="_top" xlink:title=" ">
<polygon fill="white" stroke="black" points="428,-559.5 428,-578.5 561,-578.5 561,-559.5 428,-559.5"/>
<text text-anchor="middle" x="494.5" y="-566.5" font-family="Helvetica,sans-Serif" font-size="10.00">src/http/http_endpoint.h</text>
</a>
</g>
</g>
<!-- Node1&#45;&gt;Node8 -->
<g id="edge8" class="edge">
<title>Node1&#45;&gt;Node8</title>
<path fill="none" stroke="midnightblue" d="M623.39,-746.09C603.45,-738.72 579.65,-727.81 561.5,-713 533.11,-689.85 528.88,-679.25 513.5,-646 502.88,-623.04 497.66,-593.32 495.6,-578.79"/>
<polygon fill="midnightblue" stroke="midnightblue" points="622.22,-749.39 632.82,-749.43 624.56,-742.79 622.22,-749.39"/>
</g>
<!-- Node22 -->
<g id="node22" class="node">
<title>Node22</title>
<g id="a_node22"><a xlink:href="http__jwt_8h.html" target="_top" xlink:title=" ">
<polygon fill="white" stroke="black" points="852,-688 852,-707 957,-707 957,-688 852,-688"/>
<text text-anchor="middle" x="904.5" y="-695" font-family="Helvetica,sans-Serif" font-size="10.00">src/http/http_jwt.h</text>
</a>
</g>
</g>
<!-- Node1&#45;&gt;Node22 -->
<g id="edge31" class="edge">
<title>Node1&#45;&gt;Node22</title>
<path fill="none" stroke="midnightblue" d="M707.07,-747.04C754.05,-735.49 827.06,-717.54 869.89,-707.01"/>
<polygon fill="midnightblue" stroke="midnightblue" points="706.05,-743.69 697.17,-749.48 707.72,-750.49 706.05,-743.69"/>
</g>
<!-- Node27 -->
<g id="node27" class="node">
<title>Node27</title>
<g id="a_node27"><a xlink:href="http__rpc__context_8h.html" target="_top" xlink:title=" ">
<polygon fill="white" stroke="black" points="696,-621 696,-640 843,-640 843,-621 696,-621"/>
<text text-anchor="middle" x="769.5" y="-628" font-family="Helvetica,sans-Serif" font-size="10.00">src/http/http_rpc_context.h</text>
</a>
</g>
</g>
<!-- Node1&#45;&gt;Node27 -->
<g id="edge40" class="edge">
<title>Node1&#45;&gt;Node27</title>
<path fill="none" stroke="midnightblue" d="M676.48,-741.47C699.45,-714.32 744.4,-661.17 762.09,-640.26"/>
<polygon fill="midnightblue" stroke="midnightblue" points="673.64,-739.41 669.85,-749.31 678.98,-743.93 673.64,-739.41"/>
</g>
<!-- Node29 -->
<g id="node29" class="node">
<title>Node29</title>
<g id="a_node29"><a xlink:href="http__sig_8h.html" target="_top" xlink:title=" ">
<polygon fill="white" stroke="black" points="570.5,-688 570.5,-707 674.5,-707 674.5,-688 570.5,-688"/>
<text text-anchor="middle" x="622.5" y="-695" font-family="Helvetica,sans-Serif" font-size="10.00">src/http/http_sig.h</text>
</a>
</g>
</g>
<!-- Node1&#45;&gt;Node29 -->
<g id="edge46" class="edge">
<title>Node1&#45;&gt;Node29</title>
<path fill="none" stroke="midnightblue" d="M651.07,-741.01C643.6,-729.89 634.16,-715.84 628.22,-707.01"/>
<polygon fill="midnightblue" stroke="midnightblue" points="648.29,-743.13 656.77,-749.48 654.09,-739.22 648.29,-743.13"/>
</g>
<!-- Node3 -->
<g id="node3" class="node">
<title>Node3</title>
<g id="a_node3"><a xlink:href="perf__client_8h.html" target="_top" xlink:title=" ">
<polygon fill="white" stroke="black" points="161,-492.5 161,-522.5 272,-522.5 272,-492.5 161,-492.5"/>
<text text-anchor="start" x="169" y="-510.5" font-family="Helvetica,sans-Serif" font-size="10.00">src/clients/perf/perf</text>
<text text-anchor="middle" x="216.5" y="-499.5" font-family="Helvetica,sans-Serif" font-size="10.00">_client.h</text>
</a>
</g>
</g>
<!-- Node2&#45;&gt;Node3 -->
<g id="edge2" class="edge">
<title>Node2&#45;&gt;Node3</title>
<path fill="none" stroke="midnightblue" d="M311.17,-613.17C290.73,-605.38 268.94,-594.32 252.5,-579 235.81,-563.45 225.63,-538.42 220.53,-522.75"/>
<polygon fill="midnightblue" stroke="midnightblue" points="310.15,-616.53 320.75,-616.63 312.53,-609.94 310.15,-616.53"/>
</g>
<!-- Node6 -->
<g id="node6" class="node">
<title>Node6</title>
<g id="a_node6"><a xlink:href="timing_8h.html" target="_top" xlink:title=" ">
<polygon fill="white" stroke="black" points="261.5,-559.5 261.5,-578.5 393.5,-578.5 393.5,-559.5 261.5,-559.5"/>
<text text-anchor="middle" x="327.5" y="-566.5" font-family="Helvetica,sans-Serif" font-size="10.00">src/clients/perf/timing.h</text>
</a>
</g>
</g>
<!-- Node2&#45;&gt;Node6 -->
<g id="edge5" class="edge">
<title>Node2&#45;&gt;Node6</title>
<path fill="none" stroke="midnightblue" d="M354.94,-607.1C347.6,-597.19 339.41,-586.11 333.9,-578.66"/>
<polygon fill="midnightblue" stroke="midnightblue" points="352.31,-609.44 361.07,-615.4 357.94,-605.28 352.31,-609.44"/>
</g>
<!-- Node4 -->
<g id="node4" class="node">
<title>Node4</title>
<g id="a_node4"><a xlink:href="tpcc__client_8cpp.html" target="_top" xlink:title=" ">
<polygon fill="white" stroke="black" points="151.5,-425.5 151.5,-455.5 267.5,-455.5 267.5,-425.5 151.5,-425.5"/>
<text text-anchor="start" x="159.5" y="-443.5" font-family="Helvetica,sans-Serif" font-size="10.00">src/apps/tpcc/clients</text>
<text text-anchor="middle" x="209.5" y="-432.5" font-family="Helvetica,sans-Serif" font-size="10.00">/tpcc_client.cpp</text>
</a>
</g>
</g>
<!-- Node3&#45;&gt;Node4 -->
<g id="edge3" class="edge">
<title>Node3&#45;&gt;Node4</title>
<path fill="none" stroke="midnightblue" d="M213.9,-482.4C212.93,-473.37 211.86,-463.41 211.02,-455.58"/>
<polygon fill="midnightblue" stroke="midnightblue" points="210.43,-482.83 214.98,-492.4 217.39,-482.08 210.43,-482.83"/>
</g>
<!-- Node5 -->
<g id="node5" class="node">
<title>Node5</title>
<g id="a_node5"><a xlink:href="scenario__perf__client_8cpp.html" target="_top" xlink:title=" ">
<polygon fill="white" stroke="black" points="0,-425.5 0,-455.5 133,-455.5 133,-425.5 0,-425.5"/>
<text text-anchor="start" x="8" y="-443.5" font-family="Helvetica,sans-Serif" font-size="10.00">src/clients/perf/scenario</text>
<text text-anchor="middle" x="66.5" y="-432.5" font-family="Helvetica,sans-Serif" font-size="10.00">_perf_client.cpp</text>
</a>
</g>
</g>
<!-- Node3&#45;&gt;Node5 -->
<g id="edge4" class="edge">
<title>Node3&#45;&gt;Node5</title>
<path fill="none" stroke="midnightblue" d="M174.75,-488.41C150.8,-478.03 121.18,-465.2 98.98,-455.58"/>
<polygon fill="midnightblue" stroke="midnightblue" points="173.39,-491.63 183.95,-492.4 176.17,-485.21 173.39,-491.63"/>
</g>
<!-- Node6&#45;&gt;Node3 -->
<g id="edge6" class="edge">
<title>Node6&#45;&gt;Node3</title>
<path fill="none" stroke="midnightblue" d="M302.39,-554.54C284.58,-544.99 260.71,-532.2 242.66,-522.52"/>
<polygon fill="midnightblue" stroke="midnightblue" points="301.13,-557.84 311.6,-559.48 304.44,-551.67 301.13,-557.84"/>
</g>
<!-- Node9 -->
<g id="node9" class="node">
<title>Node9</title>
<g id="a_node9"><a xlink:href="rpc__sessions_8h.html" target="_top" xlink:title=" ">
<polygon fill="white" stroke="black" points="298.5,-498 298.5,-517 444.5,-517 444.5,-498 298.5,-498"/>
<text text-anchor="middle" x="371.5" y="-505" font-family="Helvetica,sans-Serif" font-size="10.00">src/enclave/rpc_sessions.h</text>
</a>
</g>
</g>
<!-- Node8&#45;&gt;Node9 -->
<g id="edge9" class="edge">
<title>Node8&#45;&gt;Node9</title>
<path fill="none" stroke="midnightblue" d="M467.67,-555.02C443.81,-543.48 409.63,-526.94 389.09,-517.01"/>
<polygon fill="midnightblue" stroke="midnightblue" points="466.35,-558.27 476.88,-559.48 469.4,-551.97 466.35,-558.27"/>
</g>
<!-- Node10 -->
<g id="node10" class="node">
<title>Node10</title>
<g id="a_node10"><a xlink:href="enclave_2enclave_8h.html" target="_top" xlink:title=" ">
<polygon fill="white" stroke="black" points="835.5,-56.5 835.5,-75.5 957.5,-75.5 957.5,-56.5 835.5,-56.5"/>
<text text-anchor="middle" x="896.5" y="-63.5" font-family="Helvetica,sans-Serif" font-size="10.00">src/enclave/enclave.h</text>
</a>
</g>
</g>
<!-- Node9&#45;&gt;Node10 -->
<g id="edge10" class="edge">
<title>Node9&#45;&gt;Node10</title>
<path fill="none" stroke="midnightblue" d="M354.97,-490.67C332.62,-467.46 295.5,-421.81 295.5,-374.5 295.5,-374.5 295.5,-374.5 295.5,-182.5 295.5,-127.95 682.3,-86.59 835.29,-72.36"/>
<polygon fill="midnightblue" stroke="midnightblue" points="352.64,-493.29 362.18,-497.91 357.61,-488.35 352.64,-493.29"/>
</g>
<!-- Node12 -->
<g id="node12" class="node">
<title>Node12</title>
<g id="a_node12"><a xlink:href="node__client_8h.html" target="_top" xlink:title=" ">
<polygon fill="white" stroke="black" points="438.5,-431 438.5,-450 564.5,-450 564.5,-431 438.5,-431"/>
<text text-anchor="middle" x="501.5" y="-438" font-family="Helvetica,sans-Serif" font-size="10.00">src/node/node_client.h</text>
</a>
</g>
</g>
<!-- Node9&#45;&gt;Node12 -->
<g id="edge12" class="edge">
<title>Node9&#45;&gt;Node12</title>
<path fill="none" stroke="midnightblue" d="M397.95,-493.27C423.7,-480.4 462.08,-461.21 484.17,-450.17"/>
<polygon fill="midnightblue" stroke="midnightblue" points="396.14,-490.27 388.76,-497.87 399.27,-496.53 396.14,-490.27"/>
</g>
<!-- Node15 -->
<g id="node15" class="node">
<title>Node15</title>
<g id="a_node15"><a xlink:href="node__state_8h.html" target="_top" xlink:title=" ">
<polygon fill="white" stroke="black" points="619.5,-174 619.5,-193 743.5,-193 743.5,-174 619.5,-174"/>
<text text-anchor="middle" x="681.5" y="-181" font-family="Helvetica,sans-Serif" font-size="10.00">src/node/node_state.h</text>
</a>
</g>
</g>
<!-- Node9&#45;&gt;Node15 -->
<g id="edge28" class="edge">
<title>Node9&#45;&gt;Node15</title>
<path fill="none" stroke="midnightblue" d="M362.83,-488.5C351.61,-463.52 333.5,-416.65 333.5,-374.5 333.5,-374.5 333.5,-374.5 333.5,-311 333.5,-255.18 382.65,-258.04 433.5,-235 493.23,-207.94 567.61,-195.27 619.26,-189.4"/>
<polygon fill="midnightblue" stroke="midnightblue" points="359.76,-490.19 367.14,-497.79 366.11,-487.24 359.76,-490.19"/>
</g>
<!-- Node21 -->
<g id="node21" class="node">
<title>Node21</title>
<g id="a_node21"><a xlink:href="resharing_8h.html" target="_top" xlink:title=" ">
<polygon fill="white" stroke="black" points="442.5,-241 442.5,-260 558.5,-260 558.5,-241 442.5,-241"/>
<text text-anchor="middle" x="500.5" y="-248" font-family="Helvetica,sans-Serif" font-size="10.00">src/node/resharing.h</text>
</a>
</g>
</g>
<!-- Node9&#45;&gt;Node21 -->
<g id="edge29" class="edge">
<title>Node9&#45;&gt;Node21</title>
<path fill="none" stroke="midnightblue" d="M375.41,-487.76C381.92,-458.79 396.57,-401.89 419.5,-358 440.37,-318.06 476.12,-277.49 492.22,-260.19"/>
<polygon fill="midnightblue" stroke="midnightblue" points="371.95,-487.21 373.25,-497.72 378.79,-488.69 371.95,-487.21"/>
</g>
<!-- Node11 -->
<g id="node11" class="node">
<title>Node11</title>
<g id="a_node11"><a xlink:href="enclave_2main_8cpp.html" target="_top" xlink:title=" ">
<polygon fill="white" stroke="black" points="836.5,-0.5 836.5,-19.5 956.5,-19.5 956.5,-0.5 836.5,-0.5"/>
<text text-anchor="middle" x="896.5" y="-7.5" font-family="Helvetica,sans-Serif" font-size="10.00">src/enclave/main.cpp</text>
</a>
</g>
</g>
<!-- Node10&#45;&gt;Node11 -->
<g id="edge11" class="edge">
<title>Node10&#45;&gt;Node11</title>
<path fill="none" stroke="midnightblue" d="M896.5,-45.8C896.5,-36.91 896.5,-26.78 896.5,-19.75"/>
<polygon fill="midnightblue" stroke="midnightblue" points="893,-46.08 896.5,-56.08 900,-46.08 893,-46.08"/>
</g>
<!-- Node13 -->
<g id="node13" class="node">
<title>Node13</title>
<g id="a_node13"><a xlink:href="orc__requests_8h.html" target="_top" xlink:title=" ">
<polygon fill="white" stroke="black" points="584,-358.5 584,-388.5 703,-388.5 703,-358.5 584,-358.5"/>
<text text-anchor="start" x="592" y="-376.5" font-family="Helvetica,sans-Serif" font-size="10.00">src/consensus/aft/orc</text>
<text text-anchor="middle" x="643.5" y="-365.5" font-family="Helvetica,sans-Serif" font-size="10.00">_requests.h</text>
</a>
</g>
</g>
<!-- Node12&#45;&gt;Node13 -->
<g id="edge13" class="edge">
<title>Node12&#45;&gt;Node13</title>
<path fill="none" stroke="midnightblue" d="M529.64,-426.62C553.66,-415.63 588.14,-399.84 612.85,-388.53"/>
<polygon fill="midnightblue" stroke="midnightblue" points="527.99,-423.52 520.36,-430.87 530.91,-429.89 527.99,-423.52"/>
</g>
<!-- Node14 -->
<g id="node14" class="node">
<title>Node14</title>
<g id="a_node14"><a xlink:href="raft_8h.html" target="_top" xlink:title=" ">
<polygon fill="white" stroke="black" points="480,-302.5 480,-321.5 609,-321.5 609,-302.5 480,-302.5"/>
<text text-anchor="middle" x="544.5" y="-309.5" font-family="Helvetica,sans-Serif" font-size="10.00">src/consensus/aft/raft.h</text>
</a>
</g>
</g>
<!-- Node12&#45;&gt;Node14 -->
<g id="edge23" class="edge">
<title>Node12&#45;&gt;Node14</title>
<path fill="none" stroke="midnightblue" d="M469.82,-426.28C454.37,-418.01 437.27,-405.73 428.5,-389 422.1,-376.8 420.72,-369.37 428.5,-358 441.62,-338.84 464.17,-327.84 485.93,-321.52"/>
<polygon fill="midnightblue" stroke="midnightblue" points="468.63,-429.59 479.14,-430.91 471.74,-423.32 468.63,-429.59"/>
</g>
<!-- Node19 -->
<g id="node19" class="node">
<title>Node19</title>
<g id="a_node19"><a xlink:href="http__node__client_8h.html" target="_top" xlink:title=" ">
<polygon fill="white" stroke="black" points="614.5,-235.5 614.5,-265.5 724.5,-265.5 724.5,-235.5 614.5,-235.5"/>
<text text-anchor="start" x="622.5" y="-253.5" font-family="Helvetica,sans-Serif" font-size="10.00">src/node/http_node</text>
<text text-anchor="middle" x="669.5" y="-242.5" font-family="Helvetica,sans-Serif" font-size="10.00">_client.h</text>
</a>
</g>
</g>
<!-- Node12&#45;&gt;Node19 -->
<g id="edge24" class="edge">
<title>Node12&#45;&gt;Node19</title>
<path fill="none" stroke="midnightblue" d="M574.85,-431.58C628.73,-424.08 695.4,-410.67 712.5,-389 742.24,-351.3 703.18,-292.81 681.8,-265.92"/>
<polygon fill="midnightblue" stroke="midnightblue" points="574.05,-428.16 564.61,-432.96 574.98,-435.1 574.05,-428.16"/>
</g>
<!-- Node20 -->
<g id="node20" class="node">
<title>Node20</title>
<g id="a_node20"><a xlink:href="retired__nodes__cleanup_8h.html" target="_top" xlink:title=" ">
<polygon fill="white" stroke="black" points="437.5,-358.5 437.5,-388.5 565.5,-388.5 565.5,-358.5 437.5,-358.5"/>
<text text-anchor="start" x="445.5" y="-376.5" font-family="Helvetica,sans-Serif" font-size="10.00">src/node/retired_nodes</text>
<text text-anchor="middle" x="501.5" y="-365.5" font-family="Helvetica,sans-Serif" font-size="10.00">_cleanup.h</text>
</a>
</g>
</g>
<!-- Node12&#45;&gt;Node20 -->
<g id="edge26" class="edge">
<title>Node12&#45;&gt;Node20</title>
<path fill="none" stroke="midnightblue" d="M501.5,-420.41C501.5,-410.22 501.5,-397.9 501.5,-388.59"/>
<polygon fill="midnightblue" stroke="midnightblue" points="498,-420.73 501.5,-430.73 505,-420.73 498,-420.73"/>
</g>
<!-- Node13&#45;&gt;Node14 -->
<g id="edge14" class="edge">
<title>Node13&#45;&gt;Node14</title>
<path fill="none" stroke="midnightblue" d="M611.17,-353.07C593.52,-342.46 572.55,-329.86 558.91,-321.66"/>
<polygon fill="midnightblue" stroke="midnightblue" points="609.66,-356.25 620.04,-358.4 613.27,-350.25 609.66,-356.25"/>
</g>
<!-- Node17 -->
<g id="node17" class="node">
<title>Node17</title>
<g id="a_node17"><a xlink:href="node__frontend_8h.html" target="_top" xlink:title=" ">
<polygon fill="white" stroke="black" points="769.5,-302.5 769.5,-321.5 927.5,-321.5 927.5,-302.5 769.5,-302.5"/>
<text text-anchor="middle" x="848.5" y="-309.5" font-family="Helvetica,sans-Serif" font-size="10.00">src/node/rpc/node_frontend.h</text>
</a>
</g>
</g>
<!-- Node13&#45;&gt;Node17 -->
<g id="edge19" class="edge">
<title>Node13&#45;&gt;Node17</title>
<path fill="none" stroke="midnightblue" d="M701.84,-355.57C740.18,-344.44 788.71,-330.35 819.19,-321.51"/>
<polygon fill="midnightblue" stroke="midnightblue" points="700.45,-352.33 691.82,-358.47 702.4,-359.05 700.45,-352.33"/>
</g>
<!-- Node14&#45;&gt;Node15 -->
<g id="edge15" class="edge">
<title>Node14&#45;&gt;Node15</title>
<path fill="none" stroke="midnightblue" d="M555.98,-293.78C567.36,-277.49 585.87,-252.94 605.5,-235 624.33,-217.79 649.53,-202.26 665.65,-193.09"/>
<polygon fill="midnightblue" stroke="midnightblue" points="552.91,-292.07 550.16,-302.3 558.69,-296.02 552.91,-292.07"/>
</g>
<!-- Node15&#45;&gt;Node10 -->
<g id="edge16" class="edge">
<title>Node15&#45;&gt;Node10</title>
<path fill="none" stroke="midnightblue" d="M717.37,-170.62C742.94,-161.53 777.74,-147.89 806.5,-132 837.37,-114.94 870.1,-89.06 886.25,-75.68"/>
<polygon fill="midnightblue" stroke="midnightblue" points="716,-167.39 707.71,-173.99 718.3,-174 716,-167.39"/>
</g>
<!-- Node16 -->
<g id="node16" class="node">
<title>Node16</title>
<g id="a_node16"><a xlink:href="gov__effects_8h.html" target="_top" xlink:title=" ">
<polygon fill="white" stroke="black" points="653.5,-112.5 653.5,-131.5 797.5,-131.5 797.5,-112.5 653.5,-112.5"/>
<text text-anchor="middle" x="725.5" y="-119.5" font-family="Helvetica,sans-Serif" font-size="10.00">src/node/rpc/gov_effects.h</text>
</a>
</g>
</g>
<!-- Node15&#45;&gt;Node16 -->
<g id="edge17" class="edge">
<title>Node15&#45;&gt;Node16</title>
<path fill="none" stroke="midnightblue" d="M693.82,-165.84C702.08,-154.67 712.61,-140.43 719.21,-131.51"/>
<polygon fill="midnightblue" stroke="midnightblue" points="690.94,-163.85 687.8,-173.98 696.56,-168.02 690.94,-163.85"/>
</g>
<!-- Node16&#45;&gt;Node10 -->
<g id="edge18" class="edge">
<title>Node16&#45;&gt;Node10</title>
<path fill="none" stroke="midnightblue" d="M762.54,-109.3C794.76,-99.13 840.69,-84.62 869.53,-75.52"/>
<polygon fill="midnightblue" stroke="midnightblue" points="761.08,-106.09 752.6,-112.44 763.19,-112.77 761.08,-106.09"/>
</g>
<!-- Node17&#45;&gt;Node10 -->
<g id="edge20" class="edge">
<title>Node17&#45;&gt;Node10</title>
<path fill="none" stroke="midnightblue" d="M862.04,-294.23C867.81,-286.17 874,-276.08 877.5,-266 901.84,-195.83 898.76,-103.92 897.1,-75.65"/>
<polygon fill="midnightblue" stroke="midnightblue" points="859.13,-292.28 855.88,-302.36 864.71,-296.51 859.13,-292.28"/>
</g>
<!-- Node18 -->
<g id="node18" class="node">
<title>Node18</title>
<g id="a_node18"><a xlink:href="jwt__key__auto__refresh_8h.html" target="_top" xlink:title=" ">
<polygon fill="white" stroke="black" points="743,-235.5 743,-265.5 868,-265.5 868,-235.5 743,-235.5"/>
<text text-anchor="start" x="751" y="-253.5" font-family="Helvetica,sans-Serif" font-size="10.00">src/node/jwt_key_auto</text>
<text text-anchor="middle" x="805.5" y="-242.5" font-family="Helvetica,sans-Serif" font-size="10.00">_refresh.h</text>
</a>
</g>
</g>
<!-- Node17&#45;&gt;Node18 -->
<g id="edge21" class="edge">
<title>Node17&#45;&gt;Node18</title>
<path fill="none" stroke="midnightblue" d="M836.39,-294.25C829.84,-285.19 821.85,-274.12 815.63,-265.52"/>
<polygon fill="midnightblue" stroke="midnightblue" points="833.64,-296.42 842.34,-302.48 839.32,-292.32 833.64,-296.42"/>
</g>
<!-- Node18&#45;&gt;Node15 -->
<g id="edge22" class="edge">
<title>Node18&#45;&gt;Node15</title>
<path fill="none" stroke="midnightblue" d="M769.52,-230.64C745.79,-218.2 715.86,-202.51 697.73,-193.01"/>
<polygon fill="midnightblue" stroke="midnightblue" points="768.11,-233.85 778.59,-235.4 771.36,-227.65 768.11,-233.85"/>
</g>
<!-- Node19&#45;&gt;Node15 -->
<g id="edge25" class="edge">
<title>Node19&#45;&gt;Node15</title>
<path fill="none" stroke="midnightblue" d="M673.98,-225.25C676.05,-214.02 678.38,-201.38 679.89,-193.19"/>
<polygon fill="midnightblue" stroke="midnightblue" points="670.48,-224.93 672.1,-235.4 677.36,-226.2 670.48,-224.93"/>
</g>
<!-- Node20&#45;&gt;Node14 -->
<g id="edge27" class="edge">
<title>Node20&#45;&gt;Node14</title>
<path fill="none" stroke="midnightblue" d="M517.69,-350.1C524.85,-340.19 532.86,-329.11 538.24,-321.66"/>
<polygon fill="midnightblue" stroke="midnightblue" points="514.71,-348.24 511.69,-358.4 520.38,-352.34 514.71,-348.24"/>
</g>
<!-- Node21&#45;&gt;Node15 -->
<g id="edge30" class="edge">
<title>Node21&#45;&gt;Node15</title>
<path fill="none" stroke="midnightblue" d="M534.09,-237.44C570,-224.54 626.02,-204.42 657.65,-193.06"/>
<polygon fill="midnightblue" stroke="midnightblue" points="532.76,-234.19 524.54,-240.87 535.13,-240.78 532.76,-234.19"/>
</g>
<!-- Node23 -->
<g id="node23" class="node">
<title>Node23</title>
<g id="a_node23"><a xlink:href="jwt__auth_8cpp.html" target="_top" xlink:title=" ">
<polygon fill="white" stroke="black" points="1015,-615.5 1015,-645.5 1170,-645.5 1170,-615.5 1015,-615.5"/>
<text text-anchor="start" x="1023" y="-633.5" font-family="Helvetica,sans-Serif" font-size="10.00">src/endpoints/authentication</text>
<text text-anchor="middle" x="1092.5" y="-622.5" font-family="Helvetica,sans-Serif" font-size="10.00">/jwt_auth.cpp</text>
</a>
</g>
</g>
<!-- Node22&#45;&gt;Node23 -->
<g id="edge32" class="edge">
<title>Node22&#45;&gt;Node23</title>
<path fill="none" stroke="midnightblue" d="M939.24,-684.49C971.11,-673.47 1018.33,-657.14 1051.93,-645.53"/>
<polygon fill="midnightblue" stroke="midnightblue" points="937.77,-681.29 929.46,-687.87 940.06,-687.91 937.77,-681.29"/>
</g>
<!-- Node24 -->
<g id="node24" class="node">
<title>Node24</title>
<g id="a_node24"><a xlink:href="frontend_8h.html" target="_top" xlink:title=" ">
<polygon fill="white" stroke="black" points="976,-364 976,-383 1105,-383 1105,-364 976,-364"/>
<text text-anchor="middle" x="1040.5" y="-371" font-family="Helvetica,sans-Serif" font-size="10.00">src/node/rpc/frontend.h</text>
</a>
</g>
</g>
<!-- Node22&#45;&gt;Node24 -->
<g id="edge33" class="edge">
<title>Node22&#45;&gt;Node24</title>
<path fill="none" stroke="midnightblue" d="M923.06,-681.07C947.25,-659.12 986.5,-616.36 986.5,-570 986.5,-570 986.5,-570 986.5,-506.5 986.5,-456.73 1019.79,-403.74 1034.09,-383.27"/>
<polygon fill="midnightblue" stroke="midnightblue" points="920.43,-678.72 915.22,-687.94 925.05,-683.98 920.43,-678.72"/>
</g>
<!-- Node24&#45;&gt;Node15 -->
<g id="edge34" class="edge">
<title>Node24&#45;&gt;Node15</title>
<path fill="none" stroke="midnightblue" d="M1026.14,-356.33C999.66,-327.52 940.08,-267.3 877.5,-235 835.19,-213.16 782.76,-200.29 742.77,-193.02"/>
<polygon fill="midnightblue" stroke="midnightblue" points="1023.68,-358.83 1032.99,-363.89 1028.87,-354.13 1023.68,-358.83"/>
</g>
<!-- Node24&#45;&gt;Node17 -->
<g id="edge37" class="edge">
<title>Node24&#45;&gt;Node17</title>
<path fill="none" stroke="midnightblue" d="M1003.01,-360.88C965.69,-349.32 909.3,-331.84 875.96,-321.51"/>
<polygon fill="midnightblue" stroke="midnightblue" points="1002.4,-364.36 1012.99,-363.98 1004.48,-357.67 1002.4,-364.36"/>
</g>
<!-- Node25 -->
<g id="node25" class="node">
<title>Node25</title>
<g id="a_node25"><a xlink:href="member__frontend_8h.html" target="_top" xlink:title=" ">
<polygon fill="white" stroke="black" points="1077.5,-168.5 1077.5,-198.5 1197.5,-198.5 1197.5,-168.5 1077.5,-168.5"/>
<text text-anchor="start" x="1085.5" y="-186.5" font-family="Helvetica,sans-Serif" font-size="10.00">src/node/rpc/member</text>
<text text-anchor="middle" x="1137.5" y="-175.5" font-family="Helvetica,sans-Serif" font-size="10.00">_frontend.h</text>
</a>
</g>
</g>
<!-- Node24&#45;&gt;Node25 -->
<g id="edge35" class="edge">
<title>Node24&#45;&gt;Node25</title>
<path fill="none" stroke="midnightblue" d="M1049.61,-354.84C1068.73,-317.78 1112.72,-232.53 1130.17,-198.7"/>
<polygon fill="midnightblue" stroke="midnightblue" points="1046.39,-353.44 1044.92,-363.93 1052.62,-356.65 1046.39,-353.44"/>
</g>
<!-- Node26 -->
<g id="node26" class="node">
<title>Node26</title>
<g id="a_node26"><a xlink:href="user__frontend_8h.html" target="_top" xlink:title=" ">
<polygon fill="white" stroke="black" points="963,-112.5 963,-131.5 1118,-131.5 1118,-112.5 963,-112.5"/>
<text text-anchor="middle" x="1040.5" y="-119.5" font-family="Helvetica,sans-Serif" font-size="10.00">src/node/rpc/user_frontend.h</text>
</a>
</g>
</g>
<!-- Node24&#45;&gt;Node26 -->
<g id="edge38" class="edge">
<title>Node24&#45;&gt;Node26</title>
<path fill="none" stroke="midnightblue" d="M1040.5,-353.84C1040.5,-303.64 1040.5,-167.1 1040.5,-131.55"/>
<polygon fill="midnightblue" stroke="midnightblue" points="1037,-353.91 1040.5,-363.91 1044,-353.91 1037,-353.91"/>
</g>
<!-- Node25&#45;&gt;Node10 -->
<g id="edge36" class="edge">
<title>Node25&#45;&gt;Node10</title>
<path fill="none" stroke="midnightblue" d="M1140.62,-158.04C1141.13,-142.87 1138.94,-124.05 1127.5,-112 1104.67,-87.97 1017.99,-76.32 957.56,-71.02"/>
<polygon fill="midnightblue" stroke="midnightblue" points="1137.11,-158.06 1139.87,-168.29 1144.09,-158.57 1137.11,-158.06"/>
</g>
<!-- Node26&#45;&gt;Node10 -->
<g id="edge39" class="edge">
<title>Node26&#45;&gt;Node10</title>
<path fill="none" stroke="midnightblue" d="M1008.25,-108.91C981.18,-98.75 943.18,-84.51 919.21,-75.52"/>
<polygon fill="midnightblue" stroke="midnightblue" points="1007.09,-112.21 1017.68,-112.44 1009.55,-105.66 1007.09,-112.21"/>
</g>
<!-- Node27&#45;&gt;Node8 -->
<g id="edge41" class="edge">
<title>Node27&#45;&gt;Node8</title>
<path fill="none" stroke="midnightblue" d="M720.19,-618.83C666.86,-607.29 582.91,-589.13 533.83,-578.51"/>
<polygon fill="midnightblue" stroke="midnightblue" points="719.59,-622.28 730.1,-620.98 721.07,-615.44 719.59,-622.28"/>
</g>
<!-- Node27&#45;&gt;Node18 -->
<g id="edge42" class="edge">
<title>Node27&#45;&gt;Node18</title>
<path fill="none" stroke="midnightblue" d="M769.5,-610.94C769.5,-587.19 769.5,-544.79 769.5,-508.5 769.5,-508.5 769.5,-508.5 769.5,-439.5 769.5,-378.26 738.7,-359.23 760.5,-302 765.93,-287.73 777.45,-274.93 787.48,-265.79"/>
<polygon fill="midnightblue" stroke="midnightblue" points="766,-610.99 769.5,-620.99 773,-610.99 766,-610.99"/>
</g>
<!-- Node28 -->
<g id="node28" class="node">
<title>Node28</title>
<g id="a_node28"><a xlink:href="forwarder_8h.html" target="_top" xlink:title=" ">
<polygon fill="white" stroke="black" points="824.5,-431 824.5,-450 958.5,-450 958.5,-431 824.5,-431"/>
<text text-anchor="middle" x="891.5" y="-438" font-family="Helvetica,sans-Serif" font-size="10.00">src/node/rpc/forwarder.h</text>
</a>
</g>
</g>
<!-- Node27&#45;&gt;Node28 -->
<g id="edge43" class="edge">
<title>Node27&#45;&gt;Node28</title>
<path fill="none" stroke="midnightblue" d="M780.69,-612.26C806.04,-573.19 867.12,-479.06 885.91,-450.12"/>
<polygon fill="midnightblue" stroke="midnightblue" points="777.57,-610.64 775.06,-620.93 783.44,-614.45 777.57,-610.64"/>
</g>
<!-- Node28&#45;&gt;Node10 -->
<g id="edge44" class="edge">
<title>Node28&#45;&gt;Node10</title>
<path fill="none" stroke="midnightblue" d="M900.54,-422.01C911.58,-399.55 929.64,-359.07 936.5,-322 954.27,-225.94 912.77,-108.57 900.06,-75.84"/>
<polygon fill="midnightblue" stroke="midnightblue" points="897.39,-420.47 896.02,-430.98 903.65,-423.62 897.39,-420.47"/>
</g>
<!-- Node28&#45;&gt;Node24 -->
<g id="edge45" class="edge">
<title>Node28&#45;&gt;Node24</title>
<path fill="none" stroke="midnightblue" d="M920.66,-426.78C950.16,-413.91 994.99,-394.35 1020.63,-383.17"/>
<polygon fill="midnightblue" stroke="midnightblue" points="919.05,-423.66 911.29,-430.87 921.85,-430.08 919.05,-423.66"/>
</g>
<!-- Node29&#45;&gt;Node2 -->
<g id="edge47" class="edge">
<title>Node29&#45;&gt;Node2</title>
<path fill="none" stroke="midnightblue" d="M579.68,-685.41C536.01,-674.1 468.28,-656.56 422.02,-644.58"/>
<polygon fill="midnightblue" stroke="midnightblue" points="578.87,-688.82 589.43,-687.94 580.62,-682.04 578.87,-688.82"/>
</g>
<!-- Node29&#45;&gt;Node27 -->
<g id="edge49" class="edge">
<title>Node29&#45;&gt;Node27</title>
<path fill="none" stroke="midnightblue" d="M651.26,-683.78C680.38,-670.91 724.6,-651.35 749.9,-640.17"/>
<polygon fill="midnightblue" stroke="midnightblue" points="649.75,-680.62 642.02,-687.87 652.58,-687.03 649.75,-680.62"/>
</g>
<!-- Node30 -->
<g id="node30" class="node">
<title>Node30</title>
<g id="a_node30"><a xlink:href="sig__auth_8cpp.html" target="_top" xlink:title=" ">
<polygon fill="white" stroke="black" points="523,-615.5 523,-645.5 678,-645.5 678,-615.5 523,-615.5"/>
<text text-anchor="start" x="531" y="-633.5" font-family="Helvetica,sans-Serif" font-size="10.00">src/endpoints/authentication</text>
<text text-anchor="middle" x="600.5" y="-622.5" font-family="Helvetica,sans-Serif" font-size="10.00">/sig_auth.cpp</text>
</a>
</g>
</g>
<!-- Node29&#45;&gt;Node30 -->
<g id="edge48" class="edge">
<title>Node29&#45;&gt;Node30</title>
<path fill="none" stroke="midnightblue" d="M616.26,-678.06C612.77,-667.75 608.49,-655.1 605.27,-645.59"/>
<polygon fill="midnightblue" stroke="midnightblue" points="613.01,-679.38 619.53,-687.73 619.64,-677.14 613.01,-679.38"/>
</g>
</g>
</svg>
        <g id="navigator" transform="translate(0 0)" fill="#404254">
                <rect fill="#f2f5e9" fill-opacity="0.5" stroke="#606060" stroke-width=".5" x="0" y="0" width="60" height="60"/>
                <use id="zoomplus" xlink:href="#zoomPlus" x="17" y="9" onmousedown="handleZoom(evt,'in')"/>
                <use id="zoomminus" xlink:href="#zoomMin" x="42" y="9" onmousedown="handleZoom(evt,'out')"/>
                <use id="reset" xlink:href="#resetDef" x="30" y="36" onmousedown="handleReset()"/>
                <g id="arrowUp" xlink:href="#dirArrow" transform="translate(30 24)" onmousedown="handlePan(0,-1)">
                  <use xlink:href="#rim" fill="#404040">
                        <set attributeName="fill" to="#808080" begin="arrowUp.mouseover" end="arrowUp.mouseout"/>
                  </use>
                  <path fill="none" stroke="white" stroke-width="1.5" d="M0,-3.0v7 M-2.5,-0.5L0,-3.0L2.5,-0.5"/>
                </g>
                <g id="arrowRight" xlink:href="#dirArrow" transform="rotate(90) translate(36 -43)" onmousedown="handlePan(1,0)">
                  <use xlink:href="#rim" fill="#404040">
                        <set attributeName="fill" to="#808080" begin="arrowRight.mouseover" end="arrowRight.mouseout"/>
                  </use>
                  <path fill="none" stroke="white" stroke-width="1.5" d="M0,-3.0v7 M-2.5,-0.5L0,-3.0L2.5,-0.5"/>
                </g>
                <g id="arrowDown" xlink:href="#dirArrow" transform="rotate(180) translate(-30 -48)" onmousedown="handlePan(0,1)">
                  <use xlink:href="#rim" fill="#404040">
                        <set attributeName="fill" to="#808080" begin="arrowDown.mouseover" end="arrowDown.mouseout"/>
                  </use>
                  <path fill="none" stroke="white" stroke-width="1.5" d="M0,-3.0v7 M-2.5,-0.5L0,-3.0L2.5,-0.5"/>
                </g>
                <g id="arrowLeft" xlink:href="#dirArrow" transform="rotate(270) translate(-36 17)" onmousedown="handlePan(-1,0)">
                  <use xlink:href="#rim" fill="#404040">
                        <set attributeName="fill" to="#808080" begin="arrowLeft.mouseover" end="arrowLeft.mouseout"/>
                  </use>
                  <path fill="none" stroke="white" stroke-width="1.5" d="M0,-3.0v7 M-2.5,-0.5L0,-3.0L2.5,-0.5"/>
                </g>
        </g>
        <svg viewBox="0 0 15 15" width="100%" height="30px" preserveAspectRatio="xMaxYMin meet">
         <g id="arrow_out" transform="scale(0.3 0.3)">
          <a xlink:href="http__parser_8h__dep__incl_org.svg" target="_base">
           <rect id="button" ry="5" rx="5" y="6" x="6" height="38" width="38"
                fill="#f2f5e9" fill-opacity="0.5" stroke="#606060" stroke-width="1.0"/>
           <path id="arrow"
             d="M 11.500037,31.436501 C 11.940474,20.09759 22.043105,11.32322 32.158766,21.979434 L 37.068811,17.246167 C 37.068811,17.246167 37.088388,32 37.088388,32 L 22.160133,31.978069 C 22.160133,31.978069 26.997745,27.140456 26.997745,27.140456 C 18.528582,18.264221 13.291696,25.230495 11.500037,31.436501 z"
             style="fill:#404040;"/>
          </a>
         </g>
        </svg>
</svg>
