<?xml version="1.0" encoding="UTF-8" standalone="no"?>
<!DOCTYPE svg PUBLIC "-//W3C//DTD SVG 1.1//EN"
 "http://www.w3.org/Graphics/SVG/1.1/DTD/svg11.dtd">
<!-- Generated by graphviz version 2.43.0 (0)
 -->
<!-- Title: src/enclave/interface.h Pages: 1 -->
<svg width="1467pt" height="420pt"
 viewBox="0.00 0.00 1467.00 420.00" xmlns="http://www.w3.org/2000/svg" xmlns:xlink="http://www.w3.org/1999/xlink">
<g id="graph0" class="graph" transform="scale(1 1) rotate(0) translate(4 416)">
<title>src/enclave/interface.h</title>
<polygon fill="white" stroke="transparent" points="-4,4 -4,-416 1463,-416 1463,4 -4,4"/>
<!-- Node1 -->
<g id="node1" class="node">
<title>Node1</title>
<g id="a_node1"><a xlink:title=" ">
<polygon fill="#bfbfbf" stroke="black" points="1207,-392.5 1207,-411.5 1335,-411.5 1335,-392.5 1207,-392.5"/>
<text text-anchor="middle" x="1271" y="-399.5" font-family="Helvetica,sans-Serif" font-size="10.00">src/enclave/interface.h</text>
</a>
</g>
</g>
<!-- Node2 -->
<g id="node2" class="node">
<title>Node2</title>
<g id="a_node2"><a xlink:href="oversized_8h.html" target="_top" xlink:title=" ">
<polygon fill="white" stroke="black" points="1118.5,-336.5 1118.5,-355.5 1205.5,-355.5 1205.5,-336.5 1118.5,-336.5"/>
<text text-anchor="middle" x="1162" y="-343.5" font-family="Helvetica,sans-Serif" font-size="10.00">ds/oversized.h</text>
</a>
</g>
</g>
<!-- Node1&#45;&gt;Node2 -->
<g id="edge1" class="edge">
<title>Node1&#45;&gt;Node2</title>
<path fill="none" stroke="midnightblue" d="M1253.49,-392.32C1235.93,-383.62 1208.67,-370.12 1188.47,-360.11"/>
<polygon fill="midnightblue" stroke="midnightblue" points="1189.98,-356.96 1179.47,-355.65 1186.88,-363.23 1189.98,-356.96"/>
</g>
<!-- Node22 -->
<g id="node22" class="node">
<title>Node22</title>
<g id="a_node22"><a xlink:href="ring__buffer__types_8h.html" target="_top" xlink:title=" ">
<polygon fill="white" stroke="black" points="897,-168.5 897,-187.5 1007,-187.5 1007,-168.5 897,-168.5"/>
<text text-anchor="middle" x="952" y="-175.5" font-family="Helvetica,sans-Serif" font-size="10.00">ring_buffer_types.h</text>
</a>
</g>
</g>
<!-- Node1&#45;&gt;Node22 -->
<g id="edge69" class="edge">
<title>Node1&#45;&gt;Node22</title>
<path fill="none" stroke="midnightblue" d="M1215.61,-392.49C1151.76,-380.51 1046,-353.84 971,-300 944.37,-280.88 934.37,-274.74 923,-244 916.8,-227.24 926.86,-208.67 936.79,-195.69"/>
<polygon fill="midnightblue" stroke="midnightblue" points="939.74,-197.61 943.44,-187.68 934.36,-193.14 939.74,-197.61"/>
</g>
<!-- Node27 -->
<g id="node27" class="node">
<title>Node27</title>
<g id="a_node27"><a xlink:title=" ">
<polygon fill="white" stroke="#bfbfbf" points="871.5,-0.5 871.5,-19.5 918.5,-19.5 918.5,-0.5 871.5,-0.5"/>
<text text-anchor="middle" x="895" y="-7.5" font-family="Helvetica,sans-Serif" font-size="10.00">vector</text>
</a>
</g>
</g>
<!-- Node1&#45;&gt;Node27 -->
<g id="edge71" class="edge">
<title>Node1&#45;&gt;Node27</title>
<path fill="none" stroke="midnightblue" d="M1282.24,-392.36C1302.94,-375.38 1345,-335.42 1345,-291 1345,-291 1345,-291 1345,-233 1345,-143.72 1323.95,-106.03 1250,-56 1192.69,-17.23 1013.49,-32.21 928.57,-19.61"/>
<polygon fill="midnightblue" stroke="midnightblue" points="929.14,-16.16 918.69,-17.93 927.96,-23.06 929.14,-16.16"/>
</g>
<!-- Node45 -->
<g id="node45" class="node">
<title>Node45</title>
<g id="a_node45"><a xlink:title=" ">
<polygon fill="white" stroke="#bfbfbf" points="1373,-336.5 1373,-355.5 1423,-355.5 1423,-336.5 1373,-336.5"/>
<text text-anchor="middle" x="1398" y="-343.5" font-family="Helvetica,sans-Serif" font-size="10.00">chrono</text>
</a>
</g>
</g>
<!-- Node1&#45;&gt;Node45 -->
<g id="edge70" class="edge">
<title>Node1&#45;&gt;Node45</title>
<path fill="none" stroke="midnightblue" d="M1291.12,-392.44C1312.02,-383.56 1344.93,-369.56 1368.72,-359.45"/>
<polygon fill="midnightblue" stroke="midnightblue" points="1370.14,-362.65 1377.97,-355.52 1367.4,-356.21 1370.14,-362.65"/>
</g>
<!-- Node3 -->
<g id="node3" class="node">
<title>Node3</title>
<g id="a_node3"><a xlink:href="messaging_8h.html" target="_top" xlink:title=" ">
<polygon fill="white" stroke="black" points="979.5,-280.5 979.5,-299.5 1058.5,-299.5 1058.5,-280.5 979.5,-280.5"/>
<text text-anchor="middle" x="1019" y="-287.5" font-family="Helvetica,sans-Serif" font-size="10.00">messaging.h</text>
</a>
</g>
</g>
<!-- Node2&#45;&gt;Node3 -->
<g id="edge2" class="edge">
<title>Node2&#45;&gt;Node3</title>
<path fill="none" stroke="midnightblue" d="M1139.34,-336.44C1115.6,-327.48 1078.09,-313.31 1051.26,-303.18"/>
<polygon fill="midnightblue" stroke="midnightblue" points="1052.14,-299.77 1041.55,-299.52 1049.67,-306.32 1052.14,-299.77"/>
</g>
<!-- Node6 -->
<g id="node6" class="node">
<title>Node6</title>
<g id="a_node6"><a xlink:title=" ">
<polygon fill="white" stroke="#bfbfbf" points="367.5,-112.5 367.5,-131.5 446.5,-131.5 446.5,-112.5 367.5,-112.5"/>
<text text-anchor="middle" x="407" y="-119.5" font-family="Helvetica,sans-Serif" font-size="10.00">fmt/format.h</text>
</a>
</g>
</g>
<!-- Node2&#45;&gt;Node6 -->
<g id="edge67" class="edge">
<title>Node2&#45;&gt;Node6</title>
<path fill="none" stroke="midnightblue" d="M1118.27,-344.62C951.29,-342.14 357.55,-323.78 243,-188 237.27,-181.21 237.61,-175.07 243,-168 250.12,-158.67 311.64,-143.57 357.25,-133.47"/>
<polygon fill="midnightblue" stroke="midnightblue" points="358.28,-136.83 367.3,-131.27 356.78,-129.99 358.28,-136.83"/>
</g>
<!-- Node19 -->
<g id="node19" class="node">
<title>Node19</title>
<g id="a_node19"><a xlink:href="ring__buffer_8h.html" target="_top" xlink:title=" ">
<polygon fill="white" stroke="black" points="1161.5,-224.5 1161.5,-243.5 1238.5,-243.5 1238.5,-224.5 1161.5,-224.5"/>
<text text-anchor="middle" x="1200" y="-231.5" font-family="Helvetica,sans-Serif" font-size="10.00">ring_buffer.h</text>
</a>
</g>
</g>
<!-- Node2&#45;&gt;Node19 -->
<g id="edge65" class="edge">
<title>Node2&#45;&gt;Node19</title>
<path fill="none" stroke="midnightblue" d="M1165.94,-336.49C1170.01,-327.53 1176.39,-312.94 1181,-300 1186.54,-284.42 1191.73,-266.35 1195.28,-253.22"/>
<polygon fill="midnightblue" stroke="midnightblue" points="1198.67,-254.08 1197.85,-243.51 1191.9,-252.29 1198.67,-254.08"/>
</g>
<!-- Node36 -->
<g id="node36" class="node">
<title>Node36</title>
<g id="a_node36"><a xlink:href="serialized_8h.html" target="_top" xlink:title=" ">
<polygon fill="white" stroke="black" points="1167.5,-56.5 1167.5,-75.5 1240.5,-75.5 1240.5,-56.5 1167.5,-56.5"/>
<text text-anchor="middle" x="1204" y="-63.5" font-family="Helvetica,sans-Serif" font-size="10.00">serialized.h</text>
</a>
</g>
</g>
<!-- Node2&#45;&gt;Node36 -->
<g id="edge66" class="edge">
<title>Node2&#45;&gt;Node36</title>
<path fill="none" stroke="midnightblue" d="M1180.64,-336.44C1211.29,-320.93 1269,-285.09 1269,-235 1269,-235 1269,-235 1269,-177 1269,-146.9 1265.48,-137.81 1250,-112 1243.22,-100.7 1232.93,-90.27 1223.8,-82.3"/>
<polygon fill="midnightblue" stroke="midnightblue" points="1225.8,-79.41 1215.87,-75.71 1221.33,-84.79 1225.8,-79.41"/>
</g>
<!-- Node44 -->
<g id="node44" class="node">
<title>Node44</title>
<g id="a_node44"><a xlink:title=" ">
<polygon fill="white" stroke="#bfbfbf" points="1078.5,-280.5 1078.5,-299.5 1171.5,-299.5 1171.5,-280.5 1078.5,-280.5"/>
<text text-anchor="middle" x="1125" y="-287.5" font-family="Helvetica,sans-Serif" font-size="10.00">unordered_map</text>
</a>
</g>
</g>
<!-- Node2&#45;&gt;Node44 -->
<g id="edge68" class="edge">
<title>Node2&#45;&gt;Node44</title>
<path fill="none" stroke="midnightblue" d="M1155.89,-336.08C1150.72,-328.53 1143.15,-317.49 1136.81,-308.23"/>
<polygon fill="midnightblue" stroke="midnightblue" points="1139.54,-306.02 1131,-299.75 1133.76,-309.98 1139.54,-306.02"/>
</g>
<!-- Node4 -->
<g id="node4" class="node">
<title>Node4</title>
<g id="a_node4"><a xlink:href="logger_8h.html" target="_top" xlink:title=" ">
<polygon fill="white" stroke="black" points="592.5,-224.5 592.5,-243.5 679.5,-243.5 679.5,-224.5 592.5,-224.5"/>
<text text-anchor="middle" x="636" y="-231.5" font-family="Helvetica,sans-Serif" font-size="10.00">ccf/ds/logger.h</text>
</a>
</g>
</g>
<!-- Node3&#45;&gt;Node4 -->
<g id="edge3" class="edge">
<title>Node3&#45;&gt;Node4</title>
<path fill="none" stroke="midnightblue" d="M979.45,-283.42C910.41,-273.69 767.79,-253.58 689.81,-242.59"/>
<polygon fill="midnightblue" stroke="midnightblue" points="690.11,-239.09 679.71,-241.16 689.13,-246.03 690.11,-239.09"/>
</g>
<!-- Node11 -->
<g id="node11" class="node">
<title>Node11</title>
<g id="a_node11"><a xlink:title=" ">
<polygon fill="white" stroke="#bfbfbf" points="0,-112.5 0,-131.5 38,-131.5 38,-112.5 0,-112.5"/>
<text text-anchor="middle" x="19" y="-119.5" font-family="Helvetica,sans-Serif" font-size="10.00">map</text>
</a>
</g>
</g>
<!-- Node3&#45;&gt;Node11 -->
<g id="edge63" class="edge">
<title>Node3&#45;&gt;Node11</title>
<path fill="none" stroke="midnightblue" d="M979.37,-288.43C821.82,-285.59 240.59,-269.68 79,-188 57.66,-177.21 40.09,-155.51 29.59,-140.15"/>
<polygon fill="midnightblue" stroke="midnightblue" points="32.39,-138.03 24,-131.57 26.52,-141.85 32.39,-138.03"/>
</g>
<!-- Node3&#45;&gt;Node19 -->
<g id="edge20" class="edge">
<title>Node3&#45;&gt;Node19</title>
<path fill="none" stroke="midnightblue" d="M1047.68,-280.44C1078.53,-271.24 1127.73,-256.56 1161.83,-246.39"/>
<polygon fill="midnightblue" stroke="midnightblue" points="1162.87,-249.73 1171.45,-243.52 1160.87,-243.02 1162.87,-249.73"/>
</g>
<!-- Node37 -->
<g id="node37" class="node">
<title>Node37</title>
<g id="a_node37"><a xlink:title=" ">
<polygon fill="white" stroke="#bfbfbf" points="1240.5,-0.5 1240.5,-19.5 1305.5,-19.5 1305.5,-0.5 1240.5,-0.5"/>
<text text-anchor="middle" x="1273" y="-7.5" font-family="Helvetica,sans-Serif" font-size="10.00">stdexcept</text>
</a>
</g>
</g>
<!-- Node3&#45;&gt;Node37 -->
<g id="edge64" class="edge">
<title>Node3&#45;&gt;Node37</title>
<path fill="none" stroke="midnightblue" d="M999.61,-280.38C976.53,-268.83 942.78,-247.11 957,-224 966.56,-208.47 1237.95,-89.69 1250,-76 1261.48,-62.95 1267.34,-43.8 1270.26,-29.66"/>
<polygon fill="midnightblue" stroke="midnightblue" points="1273.74,-30.06 1272.02,-19.61 1266.84,-28.85 1273.74,-30.06"/>
</g>
<!-- Node40 -->
<g id="node40" class="node">
<title>Node40</title>
<g id="a_node40"><a xlink:title=" ">
<polygon fill="white" stroke="#bfbfbf" points="1191,-112.5 1191,-131.5 1241,-131.5 1241,-112.5 1191,-112.5"/>
<text text-anchor="middle" x="1216" y="-119.5" font-family="Helvetica,sans-Serif" font-size="10.00">atomic</text>
</a>
</g>
</g>
<!-- Node3&#45;&gt;Node40 -->
<g id="edge61" class="edge">
<title>Node3&#45;&gt;Node40</title>
<path fill="none" stroke="midnightblue" d="M1035.62,-280.43C1049.54,-272.54 1069.15,-259.71 1082,-244 1105.43,-215.36 1089.86,-194.19 1116,-168 1133.88,-150.08 1160.16,-138.64 1181.29,-131.78"/>
<polygon fill="midnightblue" stroke="midnightblue" points="1182.34,-135.12 1190.89,-128.85 1180.3,-128.42 1182.34,-135.12"/>
</g>
<!-- Node43 -->
<g id="node43" class="node">
<title>Node43</title>
<g id="a_node43"><a xlink:title=" ">
<polygon fill="white" stroke="#bfbfbf" points="965.5,-224.5 965.5,-243.5 1072.5,-243.5 1072.5,-224.5 965.5,-224.5"/>
<text text-anchor="middle" x="1019" y="-231.5" font-family="Helvetica,sans-Serif" font-size="10.00">condition_variable</text>
</a>
</g>
</g>
<!-- Node3&#45;&gt;Node43 -->
<g id="edge62" class="edge">
<title>Node3&#45;&gt;Node43</title>
<path fill="none" stroke="midnightblue" d="M1019,-280.08C1019,-273.01 1019,-262.86 1019,-253.99"/>
<polygon fill="midnightblue" stroke="midnightblue" points="1022.5,-253.75 1019,-243.75 1015.5,-253.75 1022.5,-253.75"/>
</g>
<!-- Node5 -->
<g id="node5" class="node">
<title>Node5</title>
<g id="a_node5"><a xlink:href="enum__formatter_8h.html" target="_top" xlink:title=" ">
<polygon fill="white" stroke="black" points="252,-168.5 252,-187.5 388,-187.5 388,-168.5 252,-168.5"/>
<text text-anchor="middle" x="320" y="-175.5" font-family="Helvetica,sans-Serif" font-size="10.00">ccf/ds/enum_formatter.h</text>
</a>
</g>
</g>
<!-- Node4&#45;&gt;Node5 -->
<g id="edge4" class="edge">
<title>Node4&#45;&gt;Node5</title>
<path fill="none" stroke="midnightblue" d="M592.39,-225.55C537.22,-216.12 441.94,-199.84 379.95,-189.25"/>
<polygon fill="midnightblue" stroke="midnightblue" points="380.37,-185.77 369.92,-187.53 379.19,-192.67 380.37,-185.77"/>
</g>
<!-- Node4&#45;&gt;Node6 -->
<g id="edge14" class="edge">
<title>Node4&#45;&gt;Node6</title>
<path fill="none" stroke="midnightblue" d="M679.54,-224.59C715.6,-216.63 762.68,-203.6 774,-188 779.22,-180.81 779.89,-174.66 774,-168 763.6,-156.24 554.79,-136.18 456.88,-127.37"/>
<polygon fill="midnightblue" stroke="midnightblue" points="456.9,-123.86 446.63,-126.45 456.28,-130.83 456.9,-123.86"/>
</g>
<!-- Node7 -->
<g id="node7" class="node">
<title>Node7</title>
<g id="a_node7"><a xlink:href="thread__ids_8h.html" target="_top" xlink:title=" ">
<polygon fill="white" stroke="black" points="88,-168.5 88,-187.5 196,-187.5 196,-168.5 88,-168.5"/>
<text text-anchor="middle" x="142" y="-175.5" font-family="Helvetica,sans-Serif" font-size="10.00">ccf/ds/thread_ids.h</text>
</a>
</g>
</g>
<!-- Node4&#45;&gt;Node7 -->
<g id="edge6" class="edge">
<title>Node4&#45;&gt;Node7</title>
<path fill="none" stroke="midnightblue" d="M592.16,-228.21C504.72,-218.65 308.31,-197.18 206.28,-186.03"/>
<polygon fill="midnightblue" stroke="midnightblue" points="206.43,-182.52 196.11,-184.91 205.67,-189.48 206.43,-182.52"/>
</g>
<!-- Node13 -->
<g id="node13" class="node">
<title>Node13</title>
<g id="a_node13"><a xlink:title=" ">
<polygon fill="white" stroke="#bfbfbf" points="406.5,-168.5 406.5,-187.5 485.5,-187.5 485.5,-168.5 406.5,-168.5"/>
<text text-anchor="middle" x="446" y="-175.5" font-family="Helvetica,sans-Serif" font-size="10.00">fmt/chrono.h</text>
</a>
</g>
</g>
<!-- Node4&#45;&gt;Node13 -->
<g id="edge13" class="edge">
<title>Node4&#45;&gt;Node13</title>
<path fill="none" stroke="midnightblue" d="M605.89,-224.44C573.37,-215.2 521.42,-200.44 485.61,-190.26"/>
<polygon fill="midnightblue" stroke="midnightblue" points="486.54,-186.88 475.97,-187.52 484.63,-193.62 486.54,-186.88"/>
</g>
<!-- Node14 -->
<g id="node14" class="node">
<title>Node14</title>
<g id="a_node14"><a xlink:title=" ">
<polygon fill="white" stroke="#bfbfbf" points="503,-168.5 503,-187.5 563,-187.5 563,-168.5 503,-168.5"/>
<text text-anchor="middle" x="533" y="-175.5" font-family="Helvetica,sans-Serif" font-size="10.00">iostream</text>
</a>
</g>
</g>
<!-- Node4&#45;&gt;Node14 -->
<g id="edge15" class="edge">
<title>Node4&#45;&gt;Node14</title>
<path fill="none" stroke="midnightblue" d="M619.45,-224.32C603.01,-215.7 577.57,-202.36 558.53,-192.39"/>
<polygon fill="midnightblue" stroke="midnightblue" points="559.99,-189.2 549.51,-187.65 556.74,-195.4 559.99,-189.2"/>
</g>
<!-- Node15 -->
<g id="node15" class="node">
<title>Node15</title>
<g id="a_node15"><a xlink:title=" ">
<polygon fill="white" stroke="#bfbfbf" points="581,-168.5 581,-187.5 691,-187.5 691,-168.5 581,-168.5"/>
<text text-anchor="middle" x="636" y="-175.5" font-family="Helvetica,sans-Serif" font-size="10.00">nlohmann/json.hpp</text>
</a>
</g>
</g>
<!-- Node4&#45;&gt;Node15 -->
<g id="edge16" class="edge">
<title>Node4&#45;&gt;Node15</title>
<path fill="none" stroke="midnightblue" d="M636,-224.08C636,-217.01 636,-206.86 636,-197.99"/>
<polygon fill="midnightblue" stroke="midnightblue" points="639.5,-197.75 636,-187.75 632.5,-197.75 639.5,-197.75"/>
</g>
<!-- Node16 -->
<g id="node16" class="node">
<title>Node16</title>
<g id="a_node16"><a xlink:title=" ">
<polygon fill="white" stroke="#bfbfbf" points="633,-112.5 633,-131.5 689,-131.5 689,-112.5 633,-112.5"/>
<text text-anchor="middle" x="661" y="-119.5" font-family="Helvetica,sans-Serif" font-size="10.00">optional</text>
</a>
</g>
</g>
<!-- Node4&#45;&gt;Node16 -->
<g id="edge17" class="edge">
<title>Node4&#45;&gt;Node16</title>
<path fill="none" stroke="midnightblue" d="M679.93,-224.99C739.68,-213.89 839.78,-194.46 845,-188 850.58,-181.08 850.49,-174.99 845,-168 844.86,-167.82 753.09,-145.44 699.23,-132.31"/>
<polygon fill="midnightblue" stroke="midnightblue" points="699.86,-128.86 689.32,-129.9 698.21,-135.66 699.86,-128.86"/>
</g>
<!-- Node17 -->
<g id="node17" class="node">
<title>Node17</title>
<g id="a_node17"><a xlink:title=" ">
<polygon fill="white" stroke="#bfbfbf" points="709,-168.5 709,-187.5 765,-187.5 765,-168.5 709,-168.5"/>
<text text-anchor="middle" x="737" y="-175.5" font-family="Helvetica,sans-Serif" font-size="10.00">sstream</text>
</a>
</g>
</g>
<!-- Node4&#45;&gt;Node17 -->
<g id="edge18" class="edge">
<title>Node4&#45;&gt;Node17</title>
<path fill="none" stroke="midnightblue" d="M652.23,-224.32C668.35,-215.7 693.3,-202.36 711.96,-192.39"/>
<polygon fill="midnightblue" stroke="midnightblue" points="713.64,-195.46 720.81,-187.65 710.34,-189.28 713.64,-195.46"/>
</g>
<!-- Node18 -->
<g id="node18" class="node">
<title>Node18</title>
<g id="a_node18"><a xlink:title=" ">
<polygon fill="white" stroke="#bfbfbf" points="670.5,-0.5 670.5,-19.5 739.5,-19.5 739.5,-0.5 670.5,-0.5"/>
<text text-anchor="middle" x="705" y="-7.5" font-family="Helvetica,sans-Serif" font-size="10.00">type_traits</text>
</a>
</g>
</g>
<!-- Node4&#45;&gt;Node18 -->
<g id="edge19" class="edge">
<title>Node4&#45;&gt;Node18</title>
<path fill="none" stroke="midnightblue" d="M679.75,-226.26C720.71,-218.94 777.58,-205.87 791,-188 796.34,-180.89 796.58,-174.92 791,-168 743.3,-108.92 697.9,-149.45 624,-132 575.32,-120.51 436.65,-115.52 406,-76 400.55,-68.98 400.2,-62.74 406,-56 422.35,-37.01 580.62,-21.32 660.03,-14.56"/>
<polygon fill="midnightblue" stroke="midnightblue" points="660.56,-18.03 670.23,-13.71 659.97,-11.06 660.56,-18.03"/>
</g>
<!-- Node5&#45;&gt;Node6 -->
<g id="edge5" class="edge">
<title>Node5&#45;&gt;Node6</title>
<path fill="none" stroke="midnightblue" d="M333.98,-168.32C347.55,-159.9 368.38,-146.97 384.32,-137.07"/>
<polygon fill="midnightblue" stroke="midnightblue" points="386.41,-139.9 393.06,-131.65 382.71,-133.95 386.41,-139.9"/>
</g>
<!-- Node7&#45;&gt;Node6 -->
<g id="edge7" class="edge">
<title>Node7&#45;&gt;Node6</title>
<path fill="none" stroke="midnightblue" d="M183.99,-168.44C231.1,-158.84 307.43,-143.29 357.43,-133.1"/>
<polygon fill="midnightblue" stroke="midnightblue" points="358.27,-136.5 367.37,-131.08 356.87,-129.64 358.27,-136.5"/>
</g>
<!-- Node8 -->
<g id="node8" class="node">
<title>Node8</title>
<g id="a_node8"><a xlink:title=" ">
<polygon fill="white" stroke="#bfbfbf" points="184,-112.5 184,-131.5 270,-131.5 270,-112.5 184,-112.5"/>
<text text-anchor="middle" x="227" y="-119.5" font-family="Helvetica,sans-Serif" font-size="10.00">fmt/ostream.h</text>
</a>
</g>
</g>
<!-- Node7&#45;&gt;Node8 -->
<g id="edge8" class="edge">
<title>Node7&#45;&gt;Node8</title>
<path fill="none" stroke="midnightblue" d="M155.66,-168.32C168.92,-159.9 189.27,-146.97 204.85,-137.07"/>
<polygon fill="midnightblue" stroke="midnightblue" points="206.81,-139.97 213.38,-131.65 203.06,-134.06 206.81,-139.97"/>
</g>
<!-- Node9 -->
<g id="node9" class="node">
<title>Node9</title>
<g id="a_node9"><a xlink:title=" ">
<polygon fill="white" stroke="#bfbfbf" points="288.5,-112.5 288.5,-131.5 349.5,-131.5 349.5,-112.5 288.5,-112.5"/>
<text text-anchor="middle" x="319" y="-119.5" font-family="Helvetica,sans-Serif" font-size="10.00">fmt/std.h</text>
</a>
</g>
</g>
<!-- Node7&#45;&gt;Node9 -->
<g id="edge9" class="edge">
<title>Node7&#45;&gt;Node9</title>
<path fill="none" stroke="midnightblue" d="M170.05,-168.44C200.08,-159.28 247.91,-144.69 281.24,-134.52"/>
<polygon fill="midnightblue" stroke="midnightblue" points="282.54,-137.78 291.09,-131.52 280.5,-131.09 282.54,-137.78"/>
</g>
<!-- Node10 -->
<g id="node10" class="node">
<title>Node10</title>
<g id="a_node10"><a xlink:title=" ">
<polygon fill="white" stroke="#bfbfbf" points="56,-112.5 56,-131.5 100,-131.5 100,-112.5 56,-112.5"/>
<text text-anchor="middle" x="78" y="-119.5" font-family="Helvetica,sans-Serif" font-size="10.00">limits</text>
</a>
</g>
</g>
<!-- Node7&#45;&gt;Node10 -->
<g id="edge10" class="edge">
<title>Node7&#45;&gt;Node10</title>
<path fill="none" stroke="midnightblue" d="M131.72,-168.32C122.16,-160.26 107.72,-148.08 96.22,-138.37"/>
<polygon fill="midnightblue" stroke="midnightblue" points="98.37,-135.61 88.47,-131.83 93.86,-140.96 98.37,-135.61"/>
</g>
<!-- Node7&#45;&gt;Node11 -->
<g id="edge11" class="edge">
<title>Node7&#45;&gt;Node11</title>
<path fill="none" stroke="midnightblue" d="M122.51,-168.44C102.36,-159.6 70.68,-145.69 47.67,-135.59"/>
<polygon fill="midnightblue" stroke="midnightblue" points="48.96,-132.33 38.4,-131.52 46.15,-138.74 48.96,-132.33"/>
</g>
<!-- Node12 -->
<g id="node12" class="node">
<title>Node12</title>
<g id="a_node12"><a xlink:title=" ">
<polygon fill="white" stroke="#bfbfbf" points="118,-112.5 118,-131.5 166,-131.5 166,-112.5 118,-112.5"/>
<text text-anchor="middle" x="142" y="-119.5" font-family="Helvetica,sans-Serif" font-size="10.00">thread</text>
</a>
</g>
</g>
<!-- Node7&#45;&gt;Node12 -->
<g id="edge12" class="edge">
<title>Node7&#45;&gt;Node12</title>
<path fill="none" stroke="midnightblue" d="M142,-168.08C142,-161.01 142,-150.86 142,-141.99"/>
<polygon fill="midnightblue" stroke="midnightblue" points="145.5,-141.75 142,-131.75 138.5,-141.75 145.5,-141.75"/>
</g>
<!-- Node20 -->
<g id="node20" class="node">
<title>Node20</title>
<g id="a_node20"><a xlink:href="ccf__memcpy_8h.html" target="_top" xlink:title=" ">
<polygon fill="white" stroke="black" points="1373,-56.5 1373,-75.5 1459,-75.5 1459,-56.5 1373,-56.5"/>
<text text-anchor="middle" x="1416" y="-63.5" font-family="Helvetica,sans-Serif" font-size="10.00">ccf_memcpy.h</text>
</a>
</g>
</g>
<!-- Node19&#45;&gt;Node20 -->
<g id="edge21" class="edge">
<title>Node19&#45;&gt;Node20</title>
<path fill="none" stroke="midnightblue" d="M1238.61,-224.45C1263.77,-217.55 1296.38,-205.97 1321,-188 1360.21,-159.37 1391.64,-110.39 1406.56,-84.4"/>
<polygon fill="midnightblue" stroke="midnightblue" points="1409.63,-86.09 1411.46,-75.65 1403.52,-82.67 1409.63,-86.09"/>
</g>
<!-- Node21 -->
<g id="node21" class="node">
<title>Node21</title>
<g id="a_node21"><a xlink:title=" ">
<polygon fill="white" stroke="#bfbfbf" points="1324,-0.5 1324,-19.5 1374,-19.5 1374,-0.5 1324,-0.5"/>
<text text-anchor="middle" x="1349" y="-7.5" font-family="Helvetica,sans-Serif" font-size="10.00">cstring</text>
</a>
</g>
</g>
<!-- Node19&#45;&gt;Node21 -->
<g id="edge58" class="edge">
<title>Node19&#45;&gt;Node21</title>
<path fill="none" stroke="midnightblue" d="M1211.14,-224.46C1221.84,-215.93 1238.09,-202.1 1250,-188 1288.04,-142.98 1293.48,-128.12 1321,-76 1329.15,-60.57 1336.87,-42.25 1342.14,-29"/>
<polygon fill="midnightblue" stroke="midnightblue" points="1345.43,-30.2 1345.79,-19.61 1338.9,-27.66 1345.43,-30.2"/>
</g>
<!-- Node19&#45;&gt;Node22 -->
<g id="edge23" class="edge">
<title>Node19&#45;&gt;Node22</title>
<path fill="none" stroke="midnightblue" d="M1161.25,-224.56C1118.1,-215.17 1048.25,-199.96 1001.25,-189.72"/>
<polygon fill="midnightblue" stroke="midnightblue" points="1001.81,-186.26 991.3,-187.56 1000.32,-193.1 1001.81,-186.26"/>
</g>
<!-- Node41 -->
<g id="node41" class="node">
<title>Node41</title>
<g id="a_node41"><a xlink:title=" ">
<polygon fill="white" stroke="#bfbfbf" points="1175.5,-168.5 1175.5,-187.5 1240.5,-187.5 1240.5,-168.5 1175.5,-168.5"/>
<text text-anchor="middle" x="1208" y="-175.5" font-family="Helvetica,sans-Serif" font-size="10.00">functional</text>
</a>
</g>
</g>
<!-- Node19&#45;&gt;Node41 -->
<g id="edge59" class="edge">
<title>Node19&#45;&gt;Node41</title>
<path fill="none" stroke="midnightblue" d="M1201.32,-224.08C1202.38,-216.93 1203.91,-206.64 1205.23,-197.69"/>
<polygon fill="midnightblue" stroke="midnightblue" points="1208.7,-198.16 1206.7,-187.75 1201.78,-197.13 1208.7,-198.16"/>
</g>
<!-- Node42 -->
<g id="node42" class="node">
<title>Node42</title>
<g id="a_node42"><a xlink:title=" ">
<polygon fill="white" stroke="#bfbfbf" points="1125,-168.5 1125,-187.5 1157,-187.5 1157,-168.5 1125,-168.5"/>
<text text-anchor="middle" x="1141" y="-175.5" font-family="Helvetica,sans-Serif" font-size="10.00">set</text>
</a>
</g>
</g>
<!-- Node19&#45;&gt;Node42 -->
<g id="edge60" class="edge">
<title>Node19&#45;&gt;Node42</title>
<path fill="none" stroke="midnightblue" d="M1190.52,-224.32C1181.8,-216.34 1168.66,-204.31 1158.1,-194.65"/>
<polygon fill="midnightblue" stroke="midnightblue" points="1160.39,-192 1150.65,-187.83 1155.67,-197.17 1160.39,-192"/>
</g>
<!-- Node20&#45;&gt;Node21 -->
<g id="edge22" class="edge">
<title>Node20&#45;&gt;Node21</title>
<path fill="none" stroke="midnightblue" d="M1405.24,-56.32C1395.23,-48.26 1380.11,-36.08 1368.07,-26.37"/>
<polygon fill="midnightblue" stroke="midnightblue" points="1369.94,-23.38 1359.96,-19.83 1365.55,-28.83 1369.94,-23.38"/>
</g>
<!-- Node22&#45;&gt;Node6 -->
<g id="edge54" class="edge">
<title>Node22&#45;&gt;Node6</title>
<path fill="none" stroke="midnightblue" d="M897,-171.55C790.78,-161.03 558.92,-138.05 456.89,-127.94"/>
<polygon fill="midnightblue" stroke="midnightblue" points="457.14,-124.45 446.85,-126.95 456.45,-131.42 457.14,-124.45"/>
</g>
<!-- Node22&#45;&gt;Node16 -->
<g id="edge55" class="edge">
<title>Node22&#45;&gt;Node16</title>
<path fill="none" stroke="midnightblue" d="M898.29,-168.5C848.97,-160.46 773.63,-147.61 699.25,-132.16"/>
<polygon fill="midnightblue" stroke="midnightblue" points="699.75,-128.69 689.24,-130.06 698.31,-135.54 699.75,-128.69"/>
</g>
<!-- Node23 -->
<g id="node23" class="node">
<title>Node23</title>
<g id="a_node23"><a xlink:href="include_2ccf_2ds_2hash_8h.html" target="_top" xlink:title=" ">
<polygon fill="white" stroke="black" points="707,-112.5 707,-131.5 787,-131.5 787,-112.5 707,-112.5"/>
<text text-anchor="middle" x="747" y="-119.5" font-family="Helvetica,sans-Serif" font-size="10.00">ccf/ds/hash.h</text>
</a>
</g>
</g>
<!-- Node22&#45;&gt;Node23 -->
<g id="edge24" class="edge">
<title>Node22&#45;&gt;Node23</title>
<path fill="none" stroke="midnightblue" d="M919.52,-168.44C884.28,-159.16 827.9,-144.31 789.24,-134.13"/>
<polygon fill="midnightblue" stroke="midnightblue" points="789.89,-130.68 779.33,-131.52 788.11,-137.45 789.89,-130.68"/>
</g>
<!-- Node22&#45;&gt;Node27 -->
<g id="edge57" class="edge">
<title>Node22&#45;&gt;Node27</title>
<path fill="none" stroke="midnightblue" d="M935.19,-168.3C908.67,-153.49 858.08,-120.61 838,-76 828.8,-55.56 849.73,-36.85 868.77,-24.8"/>
<polygon fill="midnightblue" stroke="midnightblue" points="870.73,-27.71 877.55,-19.6 867.16,-21.69 870.73,-27.71"/>
</g>
<!-- Node30 -->
<g id="node30" class="node">
<title>Node30</title>
<g id="a_node30"><a xlink:href="nonstd_8h.html" target="_top" xlink:title=" ">
<polygon fill="white" stroke="black" points="1021,-56.5 1021,-75.5 1111,-75.5 1111,-56.5 1021,-56.5"/>
<text text-anchor="middle" x="1066" y="-63.5" font-family="Helvetica,sans-Serif" font-size="10.00">ccf/ds/nonstd.h</text>
</a>
</g>
</g>
<!-- Node22&#45;&gt;Node30 -->
<g id="edge33" class="edge">
<title>Node22&#45;&gt;Node30</title>
<path fill="none" stroke="midnightblue" d="M960.95,-168.37C980.09,-149.89 1025.28,-106.29 1049.68,-82.74"/>
<polygon fill="midnightblue" stroke="midnightblue" points="1052.33,-85.05 1057.1,-75.59 1047.47,-80.02 1052.33,-85.05"/>
</g>
<!-- Node33 -->
<g id="node33" class="node">
<title>Node33</title>
<g id="a_node33"><a xlink:title=" ">
<polygon fill="white" stroke="#bfbfbf" points="1178,-0.5 1178,-19.5 1222,-19.5 1222,-0.5 1178,-0.5"/>
<text text-anchor="middle" x="1200" y="-7.5" font-family="Helvetica,sans-Serif" font-size="10.00">string</text>
</a>
</g>
</g>
<!-- Node22&#45;&gt;Node33 -->
<g id="edge56" class="edge">
<title>Node22&#45;&gt;Node33</title>
<path fill="none" stroke="midnightblue" d="M968.22,-168.26C998.76,-151.58 1066.51,-113.53 1120,-76 1142.25,-60.39 1166.26,-40.42 1182.1,-26.77"/>
<polygon fill="midnightblue" stroke="midnightblue" points="1184.76,-29.1 1190.01,-19.89 1180.16,-23.81 1184.76,-29.1"/>
</g>
<!-- Node35 -->
<g id="node35" class="node">
<title>Node35</title>
<g id="a_node35"><a xlink:href="serializer_8h.html" target="_top" xlink:title=" ">
<polygon fill="white" stroke="black" points="917,-112.5 917,-131.5 987,-131.5 987,-112.5 917,-112.5"/>
<text text-anchor="middle" x="952" y="-119.5" font-family="Helvetica,sans-Serif" font-size="10.00">serializer.h</text>
</a>
</g>
</g>
<!-- Node22&#45;&gt;Node35 -->
<g id="edge41" class="edge">
<title>Node22&#45;&gt;Node35</title>
<path fill="none" stroke="midnightblue" d="M952,-168.08C952,-161.01 952,-150.86 952,-141.99"/>
<polygon fill="midnightblue" stroke="midnightblue" points="955.5,-141.75 952,-131.75 948.5,-141.75 955.5,-141.75"/>
</g>
<!-- Node22&#45;&gt;Node40 -->
<g id="edge53" class="edge">
<title>Node22&#45;&gt;Node40</title>
<path fill="none" stroke="midnightblue" d="M993.83,-168.44C1045.44,-157.89 1132.27,-140.13 1180.68,-130.22"/>
<polygon fill="midnightblue" stroke="midnightblue" points="1181.59,-133.61 1190.69,-128.18 1180.19,-126.75 1181.59,-133.61"/>
</g>
<!-- Node24 -->
<g id="node24" class="node">
<title>Node24</title>
<g id="a_node24"><a xlink:href="siphash_8h.html" target="_top" xlink:title=" ">
<polygon fill="white" stroke="black" points="415.5,-56.5 415.5,-75.5 510.5,-75.5 510.5,-56.5 415.5,-56.5"/>
<text text-anchor="middle" x="463" y="-63.5" font-family="Helvetica,sans-Serif" font-size="10.00">ccf/ds/siphash.h</text>
</a>
</g>
</g>
<!-- Node23&#45;&gt;Node24 -->
<g id="edge25" class="edge">
<title>Node23&#45;&gt;Node24</title>
<path fill="none" stroke="midnightblue" d="M706.91,-113.38C657.54,-103.99 573.43,-88 518.03,-77.46"/>
<polygon fill="midnightblue" stroke="midnightblue" points="518.52,-73.99 508.04,-75.56 517.21,-80.87 518.52,-73.99"/>
</g>
<!-- Node26 -->
<g id="node26" class="node">
<title>Node26</title>
<g id="a_node26"><a xlink:title=" ">
<polygon fill="white" stroke="#bfbfbf" points="403,-0.5 403,-19.5 453,-19.5 453,-0.5 403,-0.5"/>
<text text-anchor="middle" x="428" y="-7.5" font-family="Helvetica,sans-Serif" font-size="10.00">cstdint</text>
</a>
</g>
</g>
<!-- Node23&#45;&gt;Node26 -->
<g id="edge30" class="edge">
<title>Node23&#45;&gt;Node26</title>
<path fill="none" stroke="midnightblue" d="M706.92,-113.44C703.91,-112.93 700.91,-112.45 698,-112 633.38,-102.09 449.31,-124.98 406,-76 393.97,-62.4 404.06,-41.96 414.19,-27.64"/>
<polygon fill="midnightblue" stroke="midnightblue" points="417.02,-29.71 420.31,-19.64 411.46,-25.46 417.02,-29.71"/>
</g>
<!-- Node23&#45;&gt;Node27 -->
<g id="edge32" class="edge">
<title>Node23&#45;&gt;Node27</title>
<path fill="none" stroke="midnightblue" d="M752.94,-112.48C762.6,-99.09 782.9,-72.91 805,-56 822.56,-42.57 844.76,-31.42 862.71,-23.58"/>
<polygon fill="midnightblue" stroke="midnightblue" points="864.35,-26.69 872.19,-19.57 861.62,-20.24 864.35,-26.69"/>
</g>
<!-- Node28 -->
<g id="node28" class="node">
<title>Node28</title>
<g id="a_node28"><a xlink:title=" ">
<polygon fill="white" stroke="#bfbfbf" points="787,-0.5 787,-19.5 829,-19.5 829,-0.5 787,-0.5"/>
<text text-anchor="middle" x="808" y="-7.5" font-family="Helvetica,sans-Serif" font-size="10.00">array</text>
</a>
</g>
</g>
<!-- Node23&#45;&gt;Node28 -->
<g id="edge29" class="edge">
<title>Node23&#45;&gt;Node28</title>
<path fill="none" stroke="midnightblue" d="M748.46,-112.1C750.86,-99.09 756.46,-74.46 767,-56 773.13,-45.26 782.22,-34.94 790.29,-26.9"/>
<polygon fill="midnightblue" stroke="midnightblue" points="793.03,-29.11 797.86,-19.68 788.21,-24.04 793.03,-29.11"/>
</g>
<!-- Node29 -->
<g id="node29" class="node">
<title>Node29</title>
<g id="a_node29"><a xlink:title=" ">
<polygon fill="white" stroke="#bfbfbf" points="528.5,-56.5 528.5,-75.5 677.5,-75.5 677.5,-56.5 528.5,-56.5"/>
<text text-anchor="middle" x="603" y="-63.5" font-family="Helvetica,sans-Serif" font-size="10.00">small_vector/SmallVector.h</text>
</a>
</g>
</g>
<!-- Node23&#45;&gt;Node29 -->
<g id="edge31" class="edge">
<title>Node23&#45;&gt;Node29</title>
<path fill="none" stroke="midnightblue" d="M724.18,-112.44C700.17,-103.44 662.17,-89.19 635.13,-79.05"/>
<polygon fill="midnightblue" stroke="midnightblue" points="636.3,-75.75 625.71,-75.52 633.84,-82.3 636.3,-75.75"/>
</g>
<!-- Node25 -->
<g id="node25" class="node">
<title>Node25</title>
<g id="a_node25"><a xlink:title=" ">
<polygon fill="white" stroke="#bfbfbf" points="471.5,-0.5 471.5,-19.5 524.5,-19.5 524.5,-0.5 471.5,-0.5"/>
<text text-anchor="middle" x="498" y="-7.5" font-family="Helvetica,sans-Serif" font-size="10.00">cstddef</text>
</a>
</g>
</g>
<!-- Node24&#45;&gt;Node25 -->
<g id="edge26" class="edge">
<title>Node24&#45;&gt;Node25</title>
<path fill="none" stroke="midnightblue" d="M468.78,-56.08C473.67,-48.53 480.83,-37.49 486.83,-28.23"/>
<polygon fill="midnightblue" stroke="midnightblue" points="489.83,-30.05 492.33,-19.75 483.95,-26.24 489.83,-30.05"/>
</g>
<!-- Node24&#45;&gt;Node26 -->
<g id="edge27" class="edge">
<title>Node24&#45;&gt;Node26</title>
<path fill="none" stroke="midnightblue" d="M457.22,-56.08C452.33,-48.53 445.17,-37.49 439.17,-28.23"/>
<polygon fill="midnightblue" stroke="midnightblue" points="442.05,-26.24 433.67,-19.75 436.17,-30.05 442.05,-26.24"/>
</g>
<!-- Node24&#45;&gt;Node27 -->
<g id="edge28" class="edge">
<title>Node24&#45;&gt;Node27</title>
<path fill="none" stroke="midnightblue" d="M510.64,-57.19C513.46,-56.77 516.27,-56.37 519,-56 660.36,-36.67 696.61,-39.13 838,-20 845.58,-18.97 853.7,-17.76 861.37,-16.56"/>
<polygon fill="midnightblue" stroke="midnightblue" points="862.14,-19.99 871.46,-14.96 861.04,-13.07 862.14,-19.99"/>
</g>
<!-- Node30&#45;&gt;Node18 -->
<g id="edge39" class="edge">
<title>Node30&#45;&gt;Node18</title>
<path fill="none" stroke="midnightblue" d="M1020.64,-58.22C951.12,-47.82 818.99,-28.05 749.8,-17.7"/>
<polygon fill="midnightblue" stroke="midnightblue" points="750.07,-14.2 739.66,-16.18 749.03,-21.13 750.07,-14.2"/>
</g>
<!-- Node30&#45;&gt;Node27 -->
<g id="edge40" class="edge">
<title>Node30&#45;&gt;Node27</title>
<path fill="none" stroke="midnightblue" d="M1038.9,-56.44C1008.99,-47 960.81,-31.78 928.54,-21.59"/>
<polygon fill="midnightblue" stroke="midnightblue" points="929.25,-18.15 918.66,-18.47 927.15,-24.82 929.25,-18.15"/>
</g>
<!-- Node30&#45;&gt;Node28 -->
<g id="edge35" class="edge">
<title>Node30&#45;&gt;Node28</title>
<path fill="none" stroke="midnightblue" d="M1025.12,-56.44C973.34,-45.61 885.27,-27.17 838.81,-17.45"/>
<polygon fill="midnightblue" stroke="midnightblue" points="839.52,-14.02 829.01,-15.4 838.08,-20.87 839.52,-14.02"/>
</g>
<!-- Node31 -->
<g id="node31" class="node">
<title>Node31</title>
<g id="a_node31"><a xlink:title=" ">
<polygon fill="white" stroke="#bfbfbf" points="1004,-0.5 1004,-19.5 1068,-19.5 1068,-0.5 1004,-0.5"/>
<text text-anchor="middle" x="1036" y="-7.5" font-family="Helvetica,sans-Serif" font-size="10.00">algorithm</text>
</a>
</g>
</g>
<!-- Node30&#45;&gt;Node31 -->
<g id="edge34" class="edge">
<title>Node30&#45;&gt;Node31</title>
<path fill="none" stroke="midnightblue" d="M1061.05,-56.08C1056.9,-48.61 1050.85,-37.72 1045.73,-28.52"/>
<polygon fill="midnightblue" stroke="midnightblue" points="1048.78,-26.79 1040.86,-19.75 1042.66,-30.19 1048.78,-26.79"/>
</g>
<!-- Node32 -->
<g id="node32" class="node">
<title>Node32</title>
<g id="a_node32"><a xlink:title=" ">
<polygon fill="white" stroke="#bfbfbf" points="936.5,-0.5 936.5,-19.5 985.5,-19.5 985.5,-0.5 936.5,-0.5"/>
<text text-anchor="middle" x="961" y="-7.5" font-family="Helvetica,sans-Serif" font-size="10.00">cctype</text>
</a>
</g>
</g>
<!-- Node30&#45;&gt;Node32 -->
<g id="edge36" class="edge">
<title>Node30&#45;&gt;Node32</title>
<path fill="none" stroke="midnightblue" d="M1049.13,-56.32C1032.29,-47.66 1006.19,-34.24 986.76,-24.25"/>
<polygon fill="midnightblue" stroke="midnightblue" points="988.32,-21.12 977.83,-19.65 985.12,-27.34 988.32,-21.12"/>
</g>
<!-- Node30&#45;&gt;Node33 -->
<g id="edge37" class="edge">
<title>Node30&#45;&gt;Node33</title>
<path fill="none" stroke="midnightblue" d="M1087.23,-56.44C1109.38,-47.52 1144.32,-33.44 1169.44,-23.32"/>
<polygon fill="midnightblue" stroke="midnightblue" points="1170.9,-26.5 1178.87,-19.52 1168.28,-20.01 1170.9,-26.5"/>
</g>
<!-- Node34 -->
<g id="node34" class="node">
<title>Node34</title>
<g id="a_node34"><a xlink:title=" ">
<polygon fill="white" stroke="#bfbfbf" points="1086.5,-0.5 1086.5,-19.5 1159.5,-19.5 1159.5,-0.5 1086.5,-0.5"/>
<text text-anchor="middle" x="1123" y="-7.5" font-family="Helvetica,sans-Serif" font-size="10.00">string_view</text>
</a>
</g>
</g>
<!-- Node30&#45;&gt;Node34 -->
<g id="edge38" class="edge">
<title>Node30&#45;&gt;Node34</title>
<path fill="none" stroke="midnightblue" d="M1075.16,-56.32C1083.5,-48.42 1096.03,-36.55 1106.18,-26.94"/>
<polygon fill="midnightblue" stroke="midnightblue" points="1108.82,-29.25 1113.68,-19.83 1104.01,-24.17 1108.82,-29.25"/>
</g>
<!-- Node35&#45;&gt;Node18 -->
<g id="edge51" class="edge">
<title>Node35&#45;&gt;Node18</title>
<path fill="none" stroke="midnightblue" d="M928.64,-112.39C905.44,-103.7 868.96,-89.65 838,-76 800.09,-59.29 757.19,-37.85 730.61,-24.26"/>
<polygon fill="midnightblue" stroke="midnightblue" points="732.09,-21.09 721.6,-19.64 728.9,-27.32 732.09,-21.09"/>
</g>
<!-- Node35&#45;&gt;Node27 -->
<g id="edge52" class="edge">
<title>Node35&#45;&gt;Node27</title>
<path fill="none" stroke="midnightblue" d="M959.51,-112.12C969.52,-99.14 984.78,-74.54 974,-56 964.12,-39 945.15,-27.89 928.28,-20.96"/>
<polygon fill="midnightblue" stroke="midnightblue" points="929.26,-17.6 918.67,-17.36 926.8,-24.15 929.26,-17.6"/>
</g>
<!-- Node35&#45;&gt;Node30 -->
<g id="edge42" class="edge">
<title>Node35&#45;&gt;Node30</title>
<path fill="none" stroke="midnightblue" d="M970.06,-112.44C988.57,-103.68 1017.58,-89.94 1038.86,-79.86"/>
<polygon fill="midnightblue" stroke="midnightblue" points="1040.48,-82.96 1048.02,-75.52 1037.49,-76.63 1040.48,-82.96"/>
</g>
<!-- Node35&#45;&gt;Node36 -->
<g id="edge43" class="edge">
<title>Node35&#45;&gt;Node36</title>
<path fill="none" stroke="midnightblue" d="M987.04,-113.49C1031.45,-103.98 1108.14,-87.54 1157.43,-76.98"/>
<polygon fill="midnightblue" stroke="midnightblue" points="1158.17,-80.4 1167.21,-74.88 1156.7,-73.56 1158.17,-80.4"/>
</g>
<!-- Node38 -->
<g id="node38" class="node">
<title>Node38</title>
<g id="a_node38"><a xlink:title=" ">
<polygon fill="white" stroke="#bfbfbf" points="847,-56.5 847,-75.5 905,-75.5 905,-56.5 847,-56.5"/>
<text text-anchor="middle" x="876" y="-63.5" font-family="Helvetica,sans-Serif" font-size="10.00">memory</text>
</a>
</g>
</g>
<!-- Node35&#45;&gt;Node38 -->
<g id="edge49" class="edge">
<title>Node35&#45;&gt;Node38</title>
<path fill="none" stroke="midnightblue" d="M939.79,-112.32C928.22,-104.11 910.62,-91.6 896.84,-81.81"/>
<polygon fill="midnightblue" stroke="midnightblue" points="898.61,-78.77 888.43,-75.83 894.56,-84.48 898.61,-78.77"/>
</g>
<!-- Node39 -->
<g id="node39" class="node">
<title>Node39</title>
<g id="a_node39"><a xlink:title=" ">
<polygon fill="white" stroke="#bfbfbf" points="923.5,-56.5 923.5,-75.5 964.5,-75.5 964.5,-56.5 923.5,-56.5"/>
<text text-anchor="middle" x="944" y="-63.5" font-family="Helvetica,sans-Serif" font-size="10.00">tuple</text>
</a>
</g>
</g>
<!-- Node35&#45;&gt;Node39 -->
<g id="edge50" class="edge">
<title>Node35&#45;&gt;Node39</title>
<path fill="none" stroke="midnightblue" d="M950.68,-112.08C949.62,-104.93 948.09,-94.64 946.77,-85.69"/>
<polygon fill="midnightblue" stroke="midnightblue" points="950.22,-85.13 945.3,-75.75 943.3,-86.16 950.22,-85.13"/>
</g>
<!-- Node36&#45;&gt;Node21 -->
<g id="edge45" class="edge">
<title>Node36&#45;&gt;Node21</title>
<path fill="none" stroke="midnightblue" d="M1226.98,-56.44C1251.16,-47.44 1289.42,-33.19 1316.65,-23.05"/>
<polygon fill="midnightblue" stroke="midnightblue" points="1317.98,-26.29 1326.13,-19.52 1315.54,-19.73 1317.98,-26.29"/>
</g>
<!-- Node36&#45;&gt;Node26 -->
<g id="edge44" class="edge">
<title>Node36&#45;&gt;Node26</title>
<path fill="none" stroke="midnightblue" d="M1167.24,-60.64C1152.56,-59.01 1135.5,-57.25 1120,-56 831.35,-32.66 753.04,-64.97 463.09,-19.83"/>
<polygon fill="midnightblue" stroke="midnightblue" points="463.55,-16.36 453.13,-18.26 462.46,-23.28 463.55,-16.36"/>
</g>
<!-- Node36&#45;&gt;Node27 -->
<g id="edge48" class="edge">
<title>Node36&#45;&gt;Node27</title>
<path fill="none" stroke="midnightblue" d="M1167.16,-60.24C1115.89,-53.35 1019.97,-39.47 928.68,-19.94"/>
<polygon fill="midnightblue" stroke="midnightblue" points="929.23,-16.48 918.72,-17.79 927.75,-23.33 929.23,-16.48"/>
</g>
<!-- Node36&#45;&gt;Node33 -->
<g id="edge47" class="edge">
<title>Node36&#45;&gt;Node33</title>
<path fill="none" stroke="midnightblue" d="M1203.34,-56.08C1202.82,-49.01 1202.06,-38.86 1201.41,-29.99"/>
<polygon fill="midnightblue" stroke="midnightblue" points="1204.88,-29.47 1200.65,-19.75 1197.9,-29.98 1204.88,-29.47"/>
</g>
<!-- Node36&#45;&gt;Node37 -->
<g id="edge46" class="edge">
<title>Node36&#45;&gt;Node37</title>
<path fill="none" stroke="midnightblue" d="M1215.09,-56.32C1225.49,-48.18 1241.26,-35.84 1253.72,-26.09"/>
<polygon fill="midnightblue" stroke="midnightblue" points="1255.99,-28.75 1261.71,-19.83 1251.68,-23.24 1255.99,-28.75"/>
</g>
</g>
</svg>
