<?xml version="1.0" encoding="UTF-8" standalone="no"?>
<!DOCTYPE svg PUBLIC "-//W3C//DTD SVG 1.1//EN"
 "http://www.w3.org/Graphics/SVG/1.1/DTD/svg11.dtd">
<!-- Generated by graphviz version 2.43.0 (0)
 -->
<!-- Title: src/node/ledger_secrets.h Pages: 1 -->
<!--zoomable 598 -->
<svg id="main" version="1.1" xmlns="http://www.w3.org/2000/svg" xmlns:xlink="http://www.w3.org/1999/xlink" xml:space="preserve" onload="init(evt)">
<style type="text/css"><![CDATA[
.edge:hover path { stroke: red; }
.edge:hover polygon { stroke: red; fill: red; }
]]></style>
<script type="text/javascript"><![CDATA[
var edges = document.getElementsByTagName('g');
if (edges && edges.length) {
  for (var i=0;i<edges.length;i++) {
    if (edges[i].id.substr(0,4)=='edge') {
      edges[i].setAttribute('class','edge');
    }
  }
}
]]></script>
        <defs>
                <circle id="rim" cx="0" cy="0" r="7"/>
                <circle id="rim2" cx="0" cy="0" r="3.5"/>
                <g id="zoomPlus">
                        <use xlink:href="#rim" fill="#404040">
                                <set attributeName="fill" to="#808080" begin="zoomplus.mouseover" end="zoomplus.mouseout"/>
                        </use>
                        <path d="M-4,0h8M0,-4v8" fill="none" stroke="white" stroke-width="1.5" pointer-events="none"/>
                </g>
                <g id="zoomMin">
                        <use xlink:href="#rim" fill="#404040">
                                <set attributeName="fill" to="#808080" begin="zoomminus.mouseover" end="zoomminus.mouseout"/>
                        </use>
                        <path d="M-4,0h8" fill="none" stroke="white" stroke-width="1.5" pointer-events="none"/>
                </g>
                <g id="dirArrow">
                        <path fill="none" stroke="white" stroke-width="1.5" d="M0,-3.0v7 M-2.5,-0.5L0,-3.0L2.5,-0.5"/>
                </g>
               <g id="resetDef">
                       <use xlink:href="#rim2" fill="#404040">
                               <set attributeName="fill" to="#808080" begin="reset.mouseover" end="reset.mouseout"/>
                       </use>
               </g>
        </defs>

<script type="text/javascript">
var viewWidth = 2108;
var viewHeight = 598;
var sectionId = 'dynsection-1';
</script>
<script xlink:href="svgpan.js"/>
<svg id="graph" class="graph">
<g id="viewport">
<title>src/node/ledger_secrets.h</title>
<polygon fill="white" stroke="transparent" points="-4,4 -4,-594 2103.5,-594 2103.5,4 -4,4"/>
<!-- Node1 -->
<g id="node1" class="node">
<title>Node1</title>
<g id="a_node1"><a xlink:title=" ">
<polygon fill="#bfbfbf" stroke="black" points="485.5,-570.5 485.5,-589.5 626.5,-589.5 626.5,-570.5 485.5,-570.5"/>
<text text-anchor="middle" x="556" y="-577.5" font-family="Helvetica,sans-Serif" font-size="10.00">src/node/ledger_secrets.h</text>
</a>
</g>
</g>
<!-- Node2 -->
<g id="node2" class="node">
<title>Node2</title>
<g id="a_node2"><a xlink:href="node_2encryptor_8h.html" target="_top" xlink:title=" ">
<polygon fill="white" stroke="black" points="212,-252 212,-271 328,-271 328,-252 212,-252"/>
<text text-anchor="middle" x="270" y="-259" font-family="Helvetica,sans-Serif" font-size="10.00">src/node/encryptor.h</text>
</a>
</g>
</g>
<!-- Node1&#45;&gt;Node2 -->
<g id="edge1" class="edge">
<title>Node1&#45;&gt;Node2</title>
<path fill="none" stroke="midnightblue" d="M475.1,-576.72C329.43,-570.4 38,-546.67 38,-458 38,-458 38,-458 38,-394.5 38,-354.53 45.29,-338.58 76,-313 114.1,-281.26 169.9,-269.21 211.88,-264.76"/>
<polygon fill="midnightblue" stroke="midnightblue" points="475.19,-580.23 485.33,-577.14 475.49,-573.23 475.19,-580.23"/>
</g>
<!-- Node3 -->
<g id="node3" class="node">
<title>Node3</title>
<g id="a_node3"><a xlink:href="historical__queries_8h.html" target="_top" xlink:title=" ">
<polygon fill="white" stroke="black" points="231,-179.5 231,-209.5 337,-209.5 337,-179.5 231,-179.5"/>
<text text-anchor="start" x="239" y="-197.5" font-family="Helvetica,sans-Serif" font-size="10.00">src/node/historical</text>
<text text-anchor="middle" x="284" y="-186.5" font-family="Helvetica,sans-Serif" font-size="10.00">_queries.h</text>
</a>
</g>
</g>
<!-- Node1&#45;&gt;Node3 -->
<g id="edge11" class="edge">
<title>Node1&#45;&gt;Node3</title>
<path fill="none" stroke="midnightblue" d="M474.87,-578.46C355.47,-576.51 139.09,-568.18 70,-534 28.84,-513.64 0,-503.92 0,-458 0,-458 0,-458 0,-327.5 0,-226.78 148.72,-202.71 230.91,-197.09"/>
<polygon fill="midnightblue" stroke="midnightblue" points="475.01,-581.97 485.06,-578.62 475.11,-574.97 475.01,-581.97"/>
</g>
<!-- Node9 -->
<g id="node9" class="node">
<title>Node9</title>
<g id="a_node9"><a xlink:href="network__state_8h.html" target="_top" xlink:title=" ">
<polygon fill="white" stroke="black" points="908,-386 908,-405 1048,-405 1048,-386 908,-386"/>
<text text-anchor="middle" x="978" y="-393" font-family="Helvetica,sans-Serif" font-size="10.00">src/node/network_state.h</text>
</a>
</g>
</g>
<!-- Node1&#45;&gt;Node9 -->
<g id="edge12" class="edge">
<title>Node1&#45;&gt;Node9</title>
<path fill="none" stroke="midnightblue" d="M585.34,-566.31C666.14,-531.37 890.34,-434.41 958.25,-405.04"/>
<polygon fill="midnightblue" stroke="midnightblue" points="583.58,-563.26 575.79,-570.44 586.36,-569.69 583.58,-563.26"/>
</g>
<!-- Node22 -->
<g id="node22" class="node">
<title>Node22</title>
<g id="a_node22"><a xlink:href="secret__broadcast_8h.html" target="_top" xlink:title=" ">
<polygon fill="white" stroke="black" points="1059.5,-319 1059.5,-338 1212.5,-338 1212.5,-319 1059.5,-319"/>
<text text-anchor="middle" x="1136" y="-326" font-family="Helvetica,sans-Serif" font-size="10.00">src/node/secret_broadcast.h</text>
</a>
</g>
</g>
<!-- Node1&#45;&gt;Node22 -->
<g id="edge58" class="edge">
<title>Node1&#45;&gt;Node22</title>
<path fill="none" stroke="midnightblue" d="M617.35,-568.55C716.24,-549.58 914.22,-502.68 1057,-411 1088.84,-390.56 1117.36,-354.93 1129.63,-338.4"/>
<polygon fill="midnightblue" stroke="midnightblue" points="616.41,-565.16 607.23,-570.46 617.71,-572.04 616.41,-565.16"/>
</g>
<!-- Node23 -->
<g id="node23" class="node">
<title>Node23</title>
<g id="a_node23"><a xlink:href="share__manager_8h.html" target="_top" xlink:title=" ">
<polygon fill="white" stroke="black" points="498.5,-319 498.5,-338 643.5,-338 643.5,-319 498.5,-319"/>
<text text-anchor="middle" x="571" y="-326" font-family="Helvetica,sans-Serif" font-size="10.00">src/node/share_manager.h</text>
</a>
</g>
</g>
<!-- Node1&#45;&gt;Node23 -->
<g id="edge59" class="edge">
<title>Node1&#45;&gt;Node23</title>
<path fill="none" stroke="midnightblue" d="M557.12,-560.34C560.14,-510.14 568.35,-373.6 570.49,-338.05"/>
<polygon fill="midnightblue" stroke="midnightblue" points="553.62,-560.22 556.52,-570.41 560.61,-560.64 553.62,-560.22"/>
</g>
<!-- Node25 -->
<g id="node25" class="node">
<title>Node25</title>
<g id="a_node25"><a xlink:href="call__types_8h.html" target="_top" xlink:title=" ">
<polygon fill="white" stroke="black" points="341.5,-447.5 341.5,-466.5 478.5,-466.5 478.5,-447.5 341.5,-447.5"/>
<text text-anchor="middle" x="410" y="-454.5" font-family="Helvetica,sans-Serif" font-size="10.00">src/node/rpc/call_types.h</text>
</a>
</g>
</g>
<!-- Node1&#45;&gt;Node25 -->
<g id="edge44" class="edge">
<title>Node1&#45;&gt;Node25</title>
<path fill="none" stroke="midnightblue" d="M542.92,-562.15C529.7,-545.8 508.12,-520.9 486,-503 467.53,-488.05 443.56,-474.7 427.53,-466.5"/>
<polygon fill="midnightblue" stroke="midnightblue" points="540.4,-564.6 549.36,-570.25 545.88,-560.25 540.4,-564.6"/>
</g>
<!-- Node29 -->
<g id="node29" class="node">
<title>Node29</title>
<g id="a_node29"><a xlink:href="node__call__types_8h.html" target="_top" xlink:title=" ">
<polygon fill="white" stroke="black" points="351.5,-503.5 351.5,-533.5 476.5,-533.5 476.5,-503.5 351.5,-503.5"/>
<text text-anchor="start" x="359.5" y="-521.5" font-family="Helvetica,sans-Serif" font-size="10.00">src/node/rpc/node_call</text>
<text text-anchor="middle" x="414" y="-510.5" font-family="Helvetica,sans-Serif" font-size="10.00">_types.h</text>
</a>
</g>
</g>
<!-- Node1&#45;&gt;Node29 -->
<g id="edge56" class="edge">
<title>Node1&#45;&gt;Node29</title>
<path fill="none" stroke="midnightblue" d="M526.38,-566.59C503.36,-556.94 471.41,-543.56 447.47,-533.52"/>
<polygon fill="midnightblue" stroke="midnightblue" points="525.08,-569.84 535.65,-570.48 527.78,-563.38 525.08,-569.84"/>
</g>
<!-- Node30 -->
<g id="node30" class="node">
<title>Node30</title>
<g id="a_node30"><a xlink:href="genesis__gen_8h.html" target="_top" xlink:title=" ">
<polygon fill="white" stroke="black" points="604,-380.5 604,-410.5 714,-410.5 714,-380.5 604,-380.5"/>
<text text-anchor="start" x="612" y="-398.5" font-family="Helvetica,sans-Serif" font-size="10.00">src/service/genesis</text>
<text text-anchor="middle" x="659" y="-387.5" font-family="Helvetica,sans-Serif" font-size="10.00">_gen.h</text>
</a>
</g>
</g>
<!-- Node1&#45;&gt;Node30 -->
<g id="edge60" class="edge">
<title>Node1&#45;&gt;Node30</title>
<path fill="none" stroke="midnightblue" d="M565.99,-561.29C586.38,-525.17 632.4,-443.63 650.99,-410.69"/>
<polygon fill="midnightblue" stroke="midnightblue" points="562.83,-559.77 560.97,-570.2 568.93,-563.21 562.83,-559.77"/>
</g>
<!-- Node2&#45;&gt;Node3 -->
<g id="edge2" class="edge">
<title>Node2&#45;&gt;Node3</title>
<path fill="none" stroke="midnightblue" d="M274.04,-241.74C276.25,-231.49 278.94,-219 280.97,-209.59"/>
<polygon fill="midnightblue" stroke="midnightblue" points="270.57,-241.22 271.89,-251.73 277.42,-242.69 270.57,-241.22"/>
</g>
<!-- Node7 -->
<g id="node7" class="node">
<title>Node7</title>
<g id="a_node7"><a xlink:href="node__state_8h.html" target="_top" xlink:title=" ">
<polygon fill="white" stroke="black" points="671,-185 671,-204 795,-204 795,-185 671,-185"/>
<text text-anchor="middle" x="733" y="-192" font-family="Helvetica,sans-Serif" font-size="10.00">src/node/node_state.h</text>
</a>
</g>
</g>
<!-- Node2&#45;&gt;Node7 -->
<g id="edge7" class="edge">
<title>Node2&#45;&gt;Node7</title>
<path fill="none" stroke="midnightblue" d="M319.86,-249.99C327.27,-248.56 334.82,-247.18 342,-246 457.65,-226.91 593.54,-210.76 670.84,-202.16"/>
<polygon fill="midnightblue" stroke="midnightblue" points="319.03,-246.58 309.9,-251.95 320.38,-253.45 319.03,-246.58"/>
</g>
<!-- Node4 -->
<g id="node4" class="node">
<title>Node4</title>
<g id="a_node4"><a xlink:href="enclave_2enclave_8h.html" target="_top" xlink:title=" ">
<polygon fill="white" stroke="black" points="749,-56.5 749,-75.5 871,-75.5 871,-56.5 749,-56.5"/>
<text text-anchor="middle" x="810" y="-63.5" font-family="Helvetica,sans-Serif" font-size="10.00">src/enclave/enclave.h</text>
</a>
</g>
</g>
<!-- Node3&#45;&gt;Node4 -->
<g id="edge3" class="edge">
<title>Node3&#45;&gt;Node4</title>
<path fill="none" stroke="midnightblue" d="M341.03,-176.67C400.98,-159.28 498.16,-131.95 583,-112 644.4,-97.56 715.87,-83.91 761.96,-75.51"/>
<polygon fill="midnightblue" stroke="midnightblue" points="340,-173.32 331.38,-179.48 341.96,-180.04 340,-173.32"/>
</g>
<!-- Node6 -->
<g id="node6" class="node">
<title>Node6</title>
<g id="a_node6"><a xlink:href="historical__transaction__fetcher_8h.html" target="_top" xlink:title=" ">
<polygon fill="white" stroke="black" points="326.5,-112.5 326.5,-142.5 451.5,-142.5 451.5,-112.5 326.5,-112.5"/>
<text text-anchor="start" x="334.5" y="-130.5" font-family="Helvetica,sans-Serif" font-size="10.00">src/indexing/historical</text>
<text text-anchor="middle" x="389" y="-119.5" font-family="Helvetica,sans-Serif" font-size="10.00">_transaction_fetcher.h</text>
</a>
</g>
</g>
<!-- Node3&#45;&gt;Node6 -->
<g id="edge5" class="edge">
<title>Node3&#45;&gt;Node6</title>
<path fill="none" stroke="midnightblue" d="M315.48,-174.02C331.82,-163.9 351.41,-151.77 366.26,-142.58"/>
<polygon fill="midnightblue" stroke="midnightblue" points="313.44,-171.16 306.78,-179.4 317.13,-177.11 313.44,-171.16"/>
</g>
<!-- Node5 -->
<g id="node5" class="node">
<title>Node5</title>
<g id="a_node5"><a xlink:href="enclave_2main_8cpp.html" target="_top" xlink:title=" ">
<polygon fill="white" stroke="black" points="750,-0.5 750,-19.5 870,-19.5 870,-0.5 750,-0.5"/>
<text text-anchor="middle" x="810" y="-7.5" font-family="Helvetica,sans-Serif" font-size="10.00">src/enclave/main.cpp</text>
</a>
</g>
</g>
<!-- Node4&#45;&gt;Node5 -->
<g id="edge4" class="edge">
<title>Node4&#45;&gt;Node5</title>
<path fill="none" stroke="midnightblue" d="M810,-45.8C810,-36.91 810,-26.78 810,-19.75"/>
<polygon fill="midnightblue" stroke="midnightblue" points="806.5,-46.08 810,-56.08 813.5,-46.08 806.5,-46.08"/>
</g>
<!-- Node6&#45;&gt;Node4 -->
<g id="edge6" class="edge">
<title>Node6&#45;&gt;Node4</title>
<path fill="none" stroke="midnightblue" d="M461.75,-116.22C543.24,-104.7 673.84,-86.24 749.81,-75.51"/>
<polygon fill="midnightblue" stroke="midnightblue" points="460.99,-112.79 451.57,-117.66 461.96,-119.72 460.99,-112.79"/>
</g>
<!-- Node7&#45;&gt;Node4 -->
<g id="edge8" class="edge">
<title>Node7&#45;&gt;Node4</title>
<path fill="none" stroke="midnightblue" d="M755.55,-179C767.77,-170.03 782.13,-157.47 791,-143 804.36,-121.2 808.34,-90.43 809.52,-75.62"/>
<polygon fill="midnightblue" stroke="midnightblue" points="753.34,-176.27 747.15,-184.87 757.35,-182.01 753.34,-176.27"/>
</g>
<!-- Node8 -->
<g id="node8" class="node">
<title>Node8</title>
<g id="a_node8"><a xlink:href="gov__effects_8h.html" target="_top" xlink:title=" ">
<polygon fill="white" stroke="black" points="638,-118 638,-137 782,-137 782,-118 638,-118"/>
<text text-anchor="middle" x="710" y="-125" font-family="Helvetica,sans-Serif" font-size="10.00">src/node/rpc/gov_effects.h</text>
</a>
</g>
</g>
<!-- Node7&#45;&gt;Node8 -->
<g id="edge9" class="edge">
<title>Node7&#45;&gt;Node8</title>
<path fill="none" stroke="midnightblue" d="M726.56,-175.29C722.14,-162.81 716.48,-146.81 713.05,-137.13"/>
<polygon fill="midnightblue" stroke="midnightblue" points="723.26,-176.47 729.9,-184.73 729.86,-174.14 723.26,-176.47"/>
</g>
<!-- Node8&#45;&gt;Node4 -->
<g id="edge10" class="edge">
<title>Node8&#45;&gt;Node4</title>
<path fill="none" stroke="midnightblue" d="M733.12,-112.74C752.44,-101.25 779.37,-85.22 795.7,-75.51"/>
<polygon fill="midnightblue" stroke="midnightblue" points="731.13,-109.85 724.33,-117.98 734.71,-115.87 731.13,-109.85"/>
</g>
<!-- Node9&#45;&gt;Node4 -->
<g id="edge13" class="edge">
<title>Node9&#45;&gt;Node4</title>
<path fill="none" stroke="midnightblue" d="M1058.3,-391.6C1285.42,-382.32 1916,-348.8 1916,-262.5 1916,-262.5 1916,-262.5 1916,-193.5 1916,-87.45 1102.9,-70.26 871.04,-67.51"/>
<polygon fill="midnightblue" stroke="midnightblue" points="1057.97,-388.11 1048.12,-392.01 1058.25,-395.1 1057.97,-388.11"/>
</g>
<!-- Node9&#45;&gt;Node7 -->
<g id="edge30" class="edge">
<title>Node9&#45;&gt;Node7</title>
<path fill="none" stroke="midnightblue" d="M954.7,-380.64C939.93,-371.28 920.87,-358.09 906,-344 865.78,-305.91 871.56,-281.45 829,-246 806.57,-227.32 776.11,-212.75 755.56,-204.16"/>
<polygon fill="midnightblue" stroke="midnightblue" points="952.93,-383.66 963.27,-385.95 956.61,-377.71 952.93,-383.66"/>
</g>
<!-- Node10 -->
<g id="node10" class="node">
<title>Node10</title>
<g id="a_node10"><a xlink:href="wrap_8h.html" target="_top" xlink:title=" ">
<polygon fill="white" stroke="black" points="1307,-319 1307,-338 1385,-338 1385,-319 1307,-319"/>
<text text-anchor="middle" x="1346" y="-326" font-family="Helvetica,sans-Serif" font-size="10.00">src/js/wrap.h</text>
</a>
</g>
</g>
<!-- Node9&#45;&gt;Node10 -->
<g id="edge14" class="edge">
<title>Node9&#45;&gt;Node10</title>
<path fill="none" stroke="midnightblue" d="M1036.35,-384.19C1112.08,-370.82 1242.17,-347.84 1306.96,-336.4"/>
<polygon fill="midnightblue" stroke="midnightblue" points="1035.73,-380.75 1026.49,-385.94 1036.94,-387.64 1035.73,-380.75"/>
</g>
<!-- Node19 -->
<g id="node19" class="node">
<title>Node19</title>
<g id="a_node19"><a xlink:href="node__frontend_8h.html" target="_top" xlink:title=" ">
<polygon fill="white" stroke="black" points="700,-319 700,-338 858,-338 858,-319 700,-319"/>
<text text-anchor="middle" x="779" y="-326" font-family="Helvetica,sans-Serif" font-size="10.00">src/node/rpc/node_frontend.h</text>
</a>
</g>
</g>
<!-- Node9&#45;&gt;Node19 -->
<g id="edge31" class="edge">
<title>Node9&#45;&gt;Node19</title>
<path fill="none" stroke="midnightblue" d="M941.82,-382.68C902.38,-369.8 840.22,-349.5 805.22,-338.06"/>
<polygon fill="midnightblue" stroke="midnightblue" points="940.98,-386.09 951.57,-385.87 943.16,-379.44 940.98,-386.09"/>
</g>
<!-- Node21 -->
<g id="node21" class="node">
<title>Node21</title>
<g id="a_node21"><a xlink:href="user__frontend_8h.html" target="_top" xlink:title=" ">
<polygon fill="white" stroke="black" points="1944.5,-118 1944.5,-137 2099.5,-137 2099.5,-118 1944.5,-118"/>
<text text-anchor="middle" x="2022" y="-125" font-family="Helvetica,sans-Serif" font-size="10.00">src/node/rpc/user_frontend.h</text>
</a>
</g>
</g>
<!-- Node9&#45;&gt;Node21 -->
<g id="edge35" class="edge">
<title>Node9&#45;&gt;Node21</title>
<path fill="none" stroke="midnightblue" d="M1058.19,-395.04C1274.67,-395.83 1859.44,-393.33 1930,-344 2003.35,-292.72 2018.57,-170.43 2021.41,-137.04"/>
<polygon fill="midnightblue" stroke="midnightblue" points="1058.18,-391.54 1048.16,-395 1058.15,-398.54 1058.18,-391.54"/>
</g>
<!-- Node9&#45;&gt;Node22 -->
<g id="edge37" class="edge">
<title>Node9&#45;&gt;Node22</title>
<path fill="none" stroke="midnightblue" d="M1008.51,-381.95C1039.79,-369.08 1087.62,-349.4 1114.93,-338.17"/>
<polygon fill="midnightblue" stroke="midnightblue" points="1006.9,-378.83 998.98,-385.87 1009.56,-385.3 1006.9,-378.83"/>
</g>
<!-- Node9&#45;&gt;Node23 -->
<g id="edge39" class="edge">
<title>Node9&#45;&gt;Node23</title>
<path fill="none" stroke="midnightblue" d="M914.45,-384.35C834.64,-371.6 699.14,-349.96 624.42,-338.03"/>
<polygon fill="midnightblue" stroke="midnightblue" points="913.95,-387.81 924.37,-385.94 915.05,-380.9 913.95,-387.81"/>
</g>
<!-- Node24 -->
<g id="node24" class="node">
<title>Node24</title>
<g id="a_node24"><a xlink:href="snapshotter_8h.html" target="_top" xlink:title=" ">
<polygon fill="white" stroke="black" points="914.5,-319 914.5,-338 1041.5,-338 1041.5,-319 914.5,-319"/>
<text text-anchor="middle" x="978" y="-326" font-family="Helvetica,sans-Serif" font-size="10.00">src/node/snapshotter.h</text>
</a>
</g>
</g>
<!-- Node9&#45;&gt;Node24 -->
<g id="edge42" class="edge">
<title>Node9&#45;&gt;Node24</title>
<path fill="none" stroke="midnightblue" d="M978,-375.54C978,-363.17 978,-347.62 978,-338.13"/>
<polygon fill="midnightblue" stroke="midnightblue" points="974.5,-375.73 978,-385.73 981.5,-375.73 974.5,-375.73"/>
</g>
<!-- Node10&#45;&gt;Node4 -->
<g id="edge16" class="edge">
<title>Node10&#45;&gt;Node4</title>
<path fill="none" stroke="midnightblue" d="M1395.26,-326.33C1517.69,-322.93 1828.19,-310.99 1859,-277 1868.25,-266.79 1867.89,-256.53 1859,-246 1730.7,-93.95 1075.8,-71.04 871.17,-67.61"/>
<polygon fill="midnightblue" stroke="midnightblue" points="1394.94,-322.84 1385.04,-326.61 1395.13,-329.84 1394.94,-322.84"/>
</g>
<!-- Node10&#45;&gt;Node7 -->
<g id="edge27" class="edge">
<title>Node10&#45;&gt;Node7</title>
<path fill="none" stroke="midnightblue" d="M1296.74,-321.59C1238.75,-314.02 1139.85,-299.16 1057,-277 1018.15,-266.61 1010.66,-257.07 972,-246 907.79,-227.61 832.12,-212.73 783.4,-204.01"/>
<polygon fill="midnightblue" stroke="midnightblue" points="1296.36,-325.07 1306.73,-322.88 1297.25,-318.13 1296.36,-325.07"/>
</g>
<!-- Node11 -->
<g id="node11" class="node">
<title>Node11</title>
<g id="a_node11"><a xlink:href="js__generic__base_8cpp.html" target="_top" xlink:title=" ">
<polygon fill="white" stroke="black" points="1066,-246.5 1066,-276.5 1184,-276.5 1184,-246.5 1066,-246.5"/>
<text text-anchor="start" x="1074" y="-264.5" font-family="Helvetica,sans-Serif" font-size="10.00">src/apps/js_generic</text>
<text text-anchor="middle" x="1125" y="-253.5" font-family="Helvetica,sans-Serif" font-size="10.00">/js_generic_base.cpp</text>
</a>
</g>
</g>
<!-- Node10&#45;&gt;Node11 -->
<g id="edge15" class="edge">
<title>Node10&#45;&gt;Node11</title>
<path fill="none" stroke="midnightblue" d="M1306.62,-315.92C1269.14,-304.9 1212.7,-288.29 1172.7,-276.53"/>
<polygon fill="midnightblue" stroke="midnightblue" points="1306.07,-319.4 1316.65,-318.87 1308.05,-312.69 1306.07,-319.4"/>
</g>
<!-- Node12 -->
<g id="node12" class="node">
<title>Node12</title>
<g id="a_node12"><a xlink:href="js_2consensus_8cpp.html" target="_top" xlink:title=" ">
<polygon fill="white" stroke="black" points="1202,-252 1202,-271 1318,-271 1318,-252 1202,-252"/>
<text text-anchor="middle" x="1260" y="-259" font-family="Helvetica,sans-Serif" font-size="10.00">src/js/consensus.cpp</text>
</a>
</g>
</g>
<!-- Node10&#45;&gt;Node12 -->
<g id="edge17" class="edge">
<title>Node10&#45;&gt;Node12</title>
<path fill="none" stroke="midnightblue" d="M1326.24,-312.57C1309.27,-299.74 1285.38,-281.69 1271.41,-271.13"/>
<polygon fill="midnightblue" stroke="midnightblue" points="1324.31,-315.5 1334.4,-318.73 1328.53,-309.91 1324.31,-315.5"/>
</g>
<!-- Node13 -->
<g id="node13" class="node">
<title>Node13</title>
<g id="a_node13"><a xlink:href="wrap_8cpp.html" target="_top" xlink:title=" ">
<polygon fill="white" stroke="black" points="1337.5,-185 1337.5,-204 1426.5,-204 1426.5,-185 1337.5,-185"/>
<text text-anchor="middle" x="1382" y="-192" font-family="Helvetica,sans-Serif" font-size="10.00">src/js/wrap.cpp</text>
</a>
</g>
</g>
<!-- Node10&#45;&gt;Node13 -->
<g id="edge26" class="edge">
<title>Node10&#45;&gt;Node13</title>
<path fill="none" stroke="midnightblue" d="M1349.82,-308.84C1353.34,-292.24 1358.93,-267.35 1365,-246 1369.2,-231.23 1375.1,-214.38 1378.73,-204.36"/>
<polygon fill="midnightblue" stroke="midnightblue" points="1346.34,-308.36 1347.73,-318.87 1353.2,-309.79 1346.34,-308.36"/>
</g>
<!-- Node14 -->
<g id="node14" class="node">
<title>Node14</title>
<g id="a_node14"><a xlink:href="conv_8cpp.html" target="_top" xlink:title=" ">
<polygon fill="white" stroke="black" points="1374,-252 1374,-271 1462,-271 1462,-252 1374,-252"/>
<text text-anchor="middle" x="1418" y="-259" font-family="Helvetica,sans-Serif" font-size="10.00">src/js/conv.cpp</text>
</a>
</g>
</g>
<!-- Node10&#45;&gt;Node14 -->
<g id="edge19" class="edge">
<title>Node10&#45;&gt;Node14</title>
<path fill="none" stroke="midnightblue" d="M1363.33,-311.86C1377.48,-299.08 1396.96,-281.49 1408.44,-271.13"/>
<polygon fill="midnightblue" stroke="midnightblue" points="1360.79,-309.43 1355.71,-318.73 1365.48,-314.63 1360.79,-309.43"/>
</g>
<!-- Node15 -->
<g id="node15" class="node">
<title>Node15</title>
<g id="a_node15"><a xlink:href="js_2crypto_8cpp.html" target="_top" xlink:title=" ">
<polygon fill="white" stroke="black" points="1754,-252 1754,-271 1850,-271 1850,-252 1754,-252"/>
<text text-anchor="middle" x="1802" y="-259" font-family="Helvetica,sans-Serif" font-size="10.00">src/js/crypto.cpp</text>
</a>
</g>
</g>
<!-- Node10&#45;&gt;Node15 -->
<g id="edge21" class="edge">
<title>Node10&#45;&gt;Node15</title>
<path fill="none" stroke="midnightblue" d="M1395.22,-323.24C1470.86,-316.25 1620.02,-300.71 1745,-277 1753.63,-275.36 1762.89,-273.19 1771.39,-271.02"/>
<polygon fill="midnightblue" stroke="midnightblue" points="1394.69,-319.77 1385.05,-324.17 1395.32,-326.74 1394.69,-319.77"/>
</g>
<!-- Node16 -->
<g id="node16" class="node">
<title>Node16</title>
<g id="a_node16"><a xlink:href="js_2historical_8cpp.html" target="_top" xlink:title=" ">
<polygon fill="white" stroke="black" points="1480,-252 1480,-271 1590,-271 1590,-252 1480,-252"/>
<text text-anchor="middle" x="1535" y="-259" font-family="Helvetica,sans-Serif" font-size="10.00">src/js/historical.cpp</text>
</a>
</g>
</g>
<!-- Node10&#45;&gt;Node16 -->
<g id="edge23" class="edge">
<title>Node10&#45;&gt;Node16</title>
<path fill="none" stroke="midnightblue" d="M1380.6,-315.6C1418.07,-302.71 1476.93,-282.47 1510.1,-271.06"/>
<polygon fill="midnightblue" stroke="midnightblue" points="1379.42,-312.31 1371.1,-318.87 1381.69,-318.93 1379.42,-312.31"/>
</g>
<!-- Node17 -->
<g id="node17" class="node">
<title>Node17</title>
<g id="a_node17"><a xlink:href="openenclave_8cpp.html" target="_top" xlink:title=" ">
<polygon fill="white" stroke="black" points="1608,-252 1608,-271 1736,-271 1736,-252 1608,-252"/>
<text text-anchor="middle" x="1672" y="-259" font-family="Helvetica,sans-Serif" font-size="10.00">src/js/openenclave.cpp</text>
</a>
</g>
</g>
<!-- Node10&#45;&gt;Node17 -->
<g id="edge25" class="edge">
<title>Node10&#45;&gt;Node17</title>
<path fill="none" stroke="midnightblue" d="M1395.52,-317.63C1459.24,-304.92 1568.89,-283.06 1629.18,-271.04"/>
<polygon fill="midnightblue" stroke="midnightblue" points="1394.45,-314.27 1385.32,-319.66 1395.81,-321.14 1394.45,-314.27"/>
</g>
<!-- Node18 -->
<g id="node18" class="node">
<title>Node18</title>
<g id="a_node18"><a xlink:href="member__frontend_8h.html" target="_top" xlink:title=" ">
<polygon fill="white" stroke="black" points="451,-246.5 451,-276.5 571,-276.5 571,-246.5 451,-246.5"/>
<text text-anchor="start" x="459" y="-264.5" font-family="Helvetica,sans-Serif" font-size="10.00">src/node/rpc/member</text>
<text text-anchor="middle" x="511" y="-253.5" font-family="Helvetica,sans-Serif" font-size="10.00">_frontend.h</text>
</a>
</g>
</g>
<!-- Node10&#45;&gt;Node18 -->
<g id="edge28" class="edge">
<title>Node10&#45;&gt;Node18</title>
<path fill="none" stroke="midnightblue" d="M1296.86,-321.19C1274.11,-318.41 1246.71,-315.27 1222,-313 984.24,-291.13 924.09,-294.86 686,-277 647.85,-274.14 605.04,-270.6 571.32,-267.73"/>
<polygon fill="midnightblue" stroke="midnightblue" points="1296.6,-324.68 1306.96,-322.43 1297.46,-317.74 1296.6,-324.68"/>
</g>
<!-- Node12&#45;&gt;Node13 -->
<g id="edge18" class="edge">
<title>Node12&#45;&gt;Node13</title>
<path fill="none" stroke="midnightblue" d="M1285.14,-247.1C1309.31,-234.23 1345.1,-215.16 1365.73,-204.17"/>
<polygon fill="midnightblue" stroke="midnightblue" points="1283.38,-244.08 1276.2,-251.87 1286.67,-250.26 1283.38,-244.08"/>
</g>
<!-- Node14&#45;&gt;Node13 -->
<g id="edge20" class="edge">
<title>Node14&#45;&gt;Node13</title>
<path fill="none" stroke="midnightblue" d="M1408.12,-242.66C1401.18,-230.13 1392.2,-213.91 1386.78,-204.13"/>
<polygon fill="midnightblue" stroke="midnightblue" points="1405.24,-244.68 1413.14,-251.73 1411.36,-241.29 1405.24,-244.68"/>
</g>
<!-- Node15&#45;&gt;Node13 -->
<g id="edge22" class="edge">
<title>Node15&#45;&gt;Node13</title>
<path fill="none" stroke="midnightblue" d="M1760.96,-249.48C1755.61,-248.22 1750.19,-247.02 1745,-246 1631.21,-223.68 1495.46,-207.55 1426.69,-200.1"/>
<polygon fill="midnightblue" stroke="midnightblue" points="1760.53,-252.98 1771.08,-251.97 1762.2,-246.18 1760.53,-252.98"/>
</g>
<!-- Node16&#45;&gt;Node13 -->
<g id="edge24" class="edge">
<title>Node16&#45;&gt;Node13</title>
<path fill="none" stroke="midnightblue" d="M1505.46,-247.95C1475.16,-235.08 1428.85,-215.4 1402.4,-204.17"/>
<polygon fill="midnightblue" stroke="midnightblue" points="1504.11,-251.18 1514.68,-251.87 1506.85,-244.74 1504.11,-251.18"/>
</g>
<!-- Node18&#45;&gt;Node4 -->
<g id="edge29" class="edge">
<title>Node18&#45;&gt;Node4</title>
<path fill="none" stroke="midnightblue" d="M523.06,-237.1C541.36,-203.98 579.34,-143.94 629,-112 664.81,-88.97 711.59,-77.72 748.62,-72.24"/>
<polygon fill="midnightblue" stroke="midnightblue" points="519.89,-235.6 518.22,-246.06 526.05,-238.92 519.89,-235.6"/>
</g>
<!-- Node19&#45;&gt;Node4 -->
<g id="edge32" class="edge">
<title>Node19&#45;&gt;Node4</title>
<path fill="none" stroke="midnightblue" d="M800.04,-312.76C810.9,-303.82 823.09,-291.37 829,-277 858.94,-204.21 825.19,-105.56 813.61,-75.83"/>
<polygon fill="midnightblue" stroke="midnightblue" points="797.88,-310 792.11,-318.89 802.16,-315.54 797.88,-310"/>
</g>
<!-- Node20 -->
<g id="node20" class="node">
<title>Node20</title>
<g id="a_node20"><a xlink:href="jwt__key__auto__refresh_8h.html" target="_top" xlink:title=" ">
<polygon fill="white" stroke="black" points="694.5,-246.5 694.5,-276.5 819.5,-276.5 819.5,-246.5 694.5,-246.5"/>
<text text-anchor="start" x="702.5" y="-264.5" font-family="Helvetica,sans-Serif" font-size="10.00">src/node/jwt_key_auto</text>
<text text-anchor="middle" x="757" y="-253.5" font-family="Helvetica,sans-Serif" font-size="10.00">_refresh.h</text>
</a>
</g>
</g>
<!-- Node19&#45;&gt;Node20 -->
<g id="edge33" class="edge">
<title>Node19&#45;&gt;Node20</title>
<path fill="none" stroke="midnightblue" d="M772.76,-309.06C769.27,-298.75 764.99,-286.1 761.77,-276.59"/>
<polygon fill="midnightblue" stroke="midnightblue" points="769.51,-310.38 776.03,-318.73 776.14,-308.14 769.51,-310.38"/>
</g>
<!-- Node20&#45;&gt;Node7 -->
<g id="edge34" class="edge">
<title>Node20&#45;&gt;Node7</title>
<path fill="none" stroke="midnightblue" d="M748.3,-236.94C744.09,-225.54 739.29,-212.55 736.21,-204.19"/>
<polygon fill="midnightblue" stroke="midnightblue" points="745.05,-238.23 751.79,-246.4 751.61,-235.8 745.05,-238.23"/>
</g>
<!-- Node21&#45;&gt;Node4 -->
<g id="edge36" class="edge">
<title>Node21&#45;&gt;Node4</title>
<path fill="none" stroke="midnightblue" d="M1964.9,-116.45C1953.38,-114.71 1941.33,-113.12 1930,-112 1527.42,-72.32 1040.15,-67.41 871.18,-66.97"/>
<polygon fill="midnightblue" stroke="midnightblue" points="1964.44,-119.92 1974.86,-117.99 1965.52,-113 1964.44,-119.92"/>
</g>
<!-- Node22&#45;&gt;Node7 -->
<g id="edge38" class="edge">
<title>Node22&#45;&gt;Node7</title>
<path fill="none" stroke="midnightblue" d="M1095.3,-316.07C1064.67,-306.93 1021.97,-293.02 986,-277 960.37,-265.58 957.04,-256.45 931,-246 881.45,-226.12 821.73,-212.16 780.92,-204.03"/>
<polygon fill="midnightblue" stroke="midnightblue" points="1094.61,-319.52 1105.19,-318.98 1096.59,-312.8 1094.61,-319.52"/>
</g>
<!-- Node23&#45;&gt;Node7 -->
<g id="edge40" class="edge">
<title>Node23&#45;&gt;Node7</title>
<path fill="none" stroke="midnightblue" d="M584.91,-311.43C600.33,-294.15 626.4,-266.41 652,-246 672.99,-229.27 699.85,-213.49 716.75,-204.16"/>
<polygon fill="midnightblue" stroke="midnightblue" points="582.23,-309.18 578.25,-319 587.49,-313.81 582.23,-309.18"/>
</g>
<!-- Node23&#45;&gt;Node18 -->
<g id="edge41" class="edge">
<title>Node23&#45;&gt;Node18</title>
<path fill="none" stroke="midnightblue" d="M556.05,-311.3C546.2,-300.63 533.43,-286.8 524.01,-276.59"/>
<polygon fill="midnightblue" stroke="midnightblue" points="553.55,-313.76 562.91,-318.73 558.7,-309.01 553.55,-313.76"/>
</g>
<!-- Node24&#45;&gt;Node7 -->
<g id="edge43" class="edge">
<title>Node24&#45;&gt;Node7</title>
<path fill="none" stroke="midnightblue" d="M966.12,-310.66C952.27,-292.21 927.7,-263 900,-246 864.63,-224.29 819.29,-211.36 784.78,-204.02"/>
<polygon fill="midnightblue" stroke="midnightblue" points="963.47,-312.96 972.19,-318.97 969.12,-308.83 963.47,-312.96"/>
</g>
<!-- Node25&#45;&gt;Node13 -->
<g id="edge46" class="edge">
<title>Node25&#45;&gt;Node13</title>
<path fill="none" stroke="midnightblue" d="M489.05,-453.62C637.18,-448.64 951.15,-435.51 1057,-411 1140.09,-391.76 1275.5,-379.43 1222,-313 1174.92,-254.54 1104.08,-335.46 1057,-277 1048.36,-266.27 1048.04,-256.46 1057,-246 1092.57,-204.48 1256.78,-196.82 1337.28,-195.59"/>
<polygon fill="midnightblue" stroke="midnightblue" points="488.55,-450.13 478.67,-453.96 488.79,-457.13 488.55,-450.13"/>
</g>
<!-- Node25&#45;&gt;Node18 -->
<g id="edge49" class="edge">
<title>Node25&#45;&gt;Node18</title>
<path fill="none" stroke="midnightblue" d="M330.86,-447.93C215.37,-433.18 21.93,-395.47 95,-313 106.67,-299.83 338.37,-277.72 450.81,-267.71"/>
<polygon fill="midnightblue" stroke="midnightblue" points="330.74,-451.44 341.1,-449.2 331.61,-444.49 330.74,-451.44"/>
</g>
<!-- Node26 -->
<g id="node26" class="node">
<title>Node26</title>
<g id="a_node26"><a xlink:href="common__endpoint__registry_8cpp.html" target="_top" xlink:title=" ">
<polygon fill="white" stroke="black" points="104,-313.5 104,-343.5 232,-343.5 232,-313.5 104,-313.5"/>
<text text-anchor="start" x="112" y="-331.5" font-family="Helvetica,sans-Serif" font-size="10.00">src/endpoints/common</text>
<text text-anchor="middle" x="168" y="-320.5" font-family="Helvetica,sans-Serif" font-size="10.00">_endpoint_registry.cpp</text>
</a>
</g>
</g>
<!-- Node25&#45;&gt;Node26 -->
<g id="edge45" class="edge">
<title>Node25&#45;&gt;Node26</title>
<path fill="none" stroke="midnightblue" d="M379.14,-443.44C358.69,-434.87 331.41,-422.93 308,-411 265.4,-389.29 217.64,-360.47 190.36,-343.56"/>
<polygon fill="midnightblue" stroke="midnightblue" points="378,-446.76 388.58,-447.37 380.69,-440.3 378,-446.76"/>
</g>
<!-- Node27 -->
<g id="node27" class="node">
<title>Node27</title>
<g id="a_node27"><a xlink:href="resharing_8h.html" target="_top" xlink:title=" ">
<polygon fill="white" stroke="black" points="250,-319 250,-338 366,-338 366,-319 250,-319"/>
<text text-anchor="middle" x="308" y="-326" font-family="Helvetica,sans-Serif" font-size="10.00">src/node/resharing.h</text>
</a>
</g>
</g>
<!-- Node25&#45;&gt;Node27 -->
<g id="edge47" class="edge">
<title>Node25&#45;&gt;Node27</title>
<path fill="none" stroke="midnightblue" d="M372.4,-443.64C356.19,-436.5 338.38,-425.93 327,-411 310.08,-388.82 307.85,-354.07 307.8,-338.08"/>
<polygon fill="midnightblue" stroke="midnightblue" points="371.12,-446.89 381.7,-447.44 373.77,-440.42 371.12,-446.89"/>
</g>
<!-- Node28 -->
<g id="node28" class="node">
<title>Node28</title>
<g id="a_node28"><a xlink:href="serialization_8h.html" target="_top" xlink:title=" ">
<polygon fill="white" stroke="black" points="336,-386 336,-405 484,-405 484,-386 336,-386"/>
<text text-anchor="middle" x="410" y="-393" font-family="Helvetica,sans-Serif" font-size="10.00">src/node/rpc/serialization.h</text>
</a>
</g>
</g>
<!-- Node25&#45;&gt;Node28 -->
<g id="edge50" class="edge">
<title>Node25&#45;&gt;Node28</title>
<path fill="none" stroke="midnightblue" d="M410,-437.32C410,-426.5 410,-413.4 410,-405.01"/>
<polygon fill="midnightblue" stroke="midnightblue" points="406.5,-437.48 410,-447.48 413.5,-437.48 406.5,-437.48"/>
</g>
<!-- Node27&#45;&gt;Node7 -->
<g id="edge48" class="edge">
<title>Node27&#45;&gt;Node7</title>
<path fill="none" stroke="midnightblue" d="M318.03,-310.16C330.11,-291.02 352.28,-260.95 380,-246 428.97,-219.59 583.21,-205.37 670.74,-199.24"/>
<polygon fill="midnightblue" stroke="midnightblue" points="314.99,-308.43 312.8,-318.8 320.97,-312.06 314.99,-308.43"/>
</g>
<!-- Node28&#45;&gt;Node7 -->
<g id="edge52" class="edge">
<title>Node28&#45;&gt;Node7</title>
<path fill="none" stroke="midnightblue" d="M408,-375.86C405.74,-344.28 406.25,-280.33 442,-246 473.94,-215.32 595.29,-203.05 670.83,-198.32"/>
<polygon fill="midnightblue" stroke="midnightblue" points="404.52,-376.27 408.9,-385.92 411.5,-375.65 404.52,-376.27"/>
</g>
<!-- Node28&#45;&gt;Node18 -->
<g id="edge54" class="edge">
<title>Node28&#45;&gt;Node18</title>
<path fill="none" stroke="midnightblue" d="M418.15,-376.44C426.37,-359.22 440.11,-333.02 456,-313 466.8,-299.39 481.36,-286.2 492.79,-276.71"/>
<polygon fill="midnightblue" stroke="midnightblue" points="414.81,-375.32 413.77,-385.86 421.16,-378.27 414.81,-375.32"/>
</g>
<!-- Node28&#45;&gt;Node19 -->
<g id="edge55" class="edge">
<title>Node28&#45;&gt;Node19</title>
<path fill="none" stroke="midnightblue" d="M468.51,-384.19C540.98,-371.43 663.1,-349.92 730.57,-338.03"/>
<polygon fill="midnightblue" stroke="midnightblue" points="467.86,-380.75 458.62,-385.94 469.08,-387.65 467.86,-380.75"/>
</g>
<!-- Node28&#45;&gt;Node26 -->
<g id="edge51" class="edge">
<title>Node28&#45;&gt;Node26</title>
<path fill="none" stroke="midnightblue" d="M368.44,-383.34C327.47,-372.33 264.7,-355.47 220.34,-343.56"/>
<polygon fill="midnightblue" stroke="midnightblue" points="367.55,-386.72 378.11,-385.94 369.36,-379.96 367.55,-386.72"/>
</g>
<!-- Node28&#45;&gt;Node27 -->
<g id="edge53" class="edge">
<title>Node28&#45;&gt;Node27</title>
<path fill="none" stroke="midnightblue" d="M387.67,-380.27C367.48,-367.4 338.41,-348.88 321.54,-338.13"/>
<polygon fill="midnightblue" stroke="midnightblue" points="385.93,-383.31 396.24,-385.73 389.69,-377.41 385.93,-383.31"/>
</g>
<!-- Node29&#45;&gt;Node25 -->
<g id="edge57" class="edge">
<title>Node29&#45;&gt;Node25</title>
<path fill="none" stroke="midnightblue" d="M412.37,-493.29C411.74,-483.86 411.05,-473.65 410.58,-466.66"/>
<polygon fill="midnightblue" stroke="midnightblue" points="408.89,-493.66 413.05,-503.4 415.87,-493.19 408.89,-493.66"/>
</g>
<!-- Node30&#45;&gt;Node7 -->
<g id="edge61" class="edge">
<title>Node30&#45;&gt;Node7</title>
<path fill="none" stroke="midnightblue" d="M659.29,-369.98C660.56,-339.41 665.81,-286.27 686,-246 694.59,-228.87 710.8,-213.43 721.75,-204.25"/>
<polygon fill="midnightblue" stroke="midnightblue" points="655.79,-370.06 658.98,-380.16 662.78,-370.27 655.79,-370.06"/>
</g>
<!-- Node30&#45;&gt;Node18 -->
<g id="edge62" class="edge">
<title>Node30&#45;&gt;Node18</title>
<path fill="none" stroke="midnightblue" d="M593.59,-393.02C556.85,-388.41 513.74,-375.88 490,-344 474.99,-323.85 489.63,-293.98 500.85,-276.56"/>
<polygon fill="midnightblue" stroke="midnightblue" points="593.44,-396.53 603.76,-394.12 594.2,-389.57 593.44,-396.53"/>
</g>
<!-- Node30&#45;&gt;Node19 -->
<g id="edge63" class="edge">
<title>Node30&#45;&gt;Node19</title>
<path fill="none" stroke="midnightblue" d="M694.13,-375.47C717.04,-363.06 745.82,-347.47 763.29,-338.01"/>
<polygon fill="midnightblue" stroke="midnightblue" points="692.16,-372.56 685.04,-380.4 695.5,-378.71 692.16,-372.56"/>
</g>
<!-- Node30&#45;&gt;Node22 -->
<g id="edge64" class="edge">
<title>Node30&#45;&gt;Node22</title>
<path fill="none" stroke="midnightblue" d="M724.43,-386.9C802.35,-377.66 936.37,-361.15 1051,-344 1062.99,-342.21 1075.91,-340.09 1087.96,-338.05"/>
<polygon fill="midnightblue" stroke="midnightblue" points="723.8,-383.45 714.28,-388.1 724.62,-390.4 723.8,-383.45"/>
</g>
<!-- Node30&#45;&gt;Node23 -->
<g id="edge65" class="edge">
<title>Node30&#45;&gt;Node23</title>
<path fill="none" stroke="midnightblue" d="M631.66,-374.31C615.14,-362.1 594.93,-347.18 582.52,-338.01"/>
<polygon fill="midnightblue" stroke="midnightblue" points="629.78,-377.27 639.91,-380.4 633.94,-371.64 629.78,-377.27"/>
</g>
</g>
</svg>
        <g id="navigator" transform="translate(0 0)" fill="#404254">
                <rect fill="#f2f5e9" fill-opacity="0.5" stroke="#606060" stroke-width=".5" x="0" y="0" width="60" height="60"/>
                <use id="zoomplus" xlink:href="#zoomPlus" x="17" y="9" onmousedown="handleZoom(evt,'in')"/>
                <use id="zoomminus" xlink:href="#zoomMin" x="42" y="9" onmousedown="handleZoom(evt,'out')"/>
                <use id="reset" xlink:href="#resetDef" x="30" y="36" onmousedown="handleReset()"/>
                <g id="arrowUp" xlink:href="#dirArrow" transform="translate(30 24)" onmousedown="handlePan(0,-1)">
                  <use xlink:href="#rim" fill="#404040">
                        <set attributeName="fill" to="#808080" begin="arrowUp.mouseover" end="arrowUp.mouseout"/>
                  </use>
                  <path fill="none" stroke="white" stroke-width="1.5" d="M0,-3.0v7 M-2.5,-0.5L0,-3.0L2.5,-0.5"/>
                </g>
                <g id="arrowRight" xlink:href="#dirArrow" transform="rotate(90) translate(36 -43)" onmousedown="handlePan(1,0)">
                  <use xlink:href="#rim" fill="#404040">
                        <set attributeName="fill" to="#808080" begin="arrowRight.mouseover" end="arrowRight.mouseout"/>
                  </use>
                  <path fill="none" stroke="white" stroke-width="1.5" d="M0,-3.0v7 M-2.5,-0.5L0,-3.0L2.5,-0.5"/>
                </g>
                <g id="arrowDown" xlink:href="#dirArrow" transform="rotate(180) translate(-30 -48)" onmousedown="handlePan(0,1)">
                  <use xlink:href="#rim" fill="#404040">
                        <set attributeName="fill" to="#808080" begin="arrowDown.mouseover" end="arrowDown.mouseout"/>
                  </use>
                  <path fill="none" stroke="white" stroke-width="1.5" d="M0,-3.0v7 M-2.5,-0.5L0,-3.0L2.5,-0.5"/>
                </g>
                <g id="arrowLeft" xlink:href="#dirArrow" transform="rotate(270) translate(-36 17)" onmousedown="handlePan(-1,0)">
                  <use xlink:href="#rim" fill="#404040">
                        <set attributeName="fill" to="#808080" begin="arrowLeft.mouseover" end="arrowLeft.mouseout"/>
                  </use>
                  <path fill="none" stroke="white" stroke-width="1.5" d="M0,-3.0v7 M-2.5,-0.5L0,-3.0L2.5,-0.5"/>
                </g>
        </g>
        <svg viewBox="0 0 15 15" width="100%" height="30px" preserveAspectRatio="xMaxYMin meet">
         <g id="arrow_out" transform="scale(0.3 0.3)">
          <a xlink:href="ledger__secrets_8h__dep__incl_org.svg" target="_base">
           <rect id="button" ry="5" rx="5" y="6" x="6" height="38" width="38"
                fill="#f2f5e9" fill-opacity="0.5" stroke="#606060" stroke-width="1.0"/>
           <path id="arrow"
             d="M 11.500037,31.436501 C 11.940474,20.09759 22.043105,11.32322 32.158766,21.979434 L 37.068811,17.246167 C 37.068811,17.246167 37.088388,32 37.088388,32 L 22.160133,31.978069 C 22.160133,31.978069 26.997745,27.140456 26.997745,27.140456 C 18.528582,18.264221 13.291696,25.230495 11.500037,31.436501 z"
             style="fill:#404040;"/>
          </a>
         </g>
        </svg>
</svg>
