<?xml version="1.0" encoding="UTF-8" standalone="no"?>
<!DOCTYPE svg PUBLIC "-//W3C//DTD SVG 1.1//EN"
 "http://www.w3.org/Graphics/SVG/1.1/DTD/svg11.dtd">
<!-- Generated by graphviz version 2.43.0 (0)
 -->
<!-- Title: src/host/lfs_file_handler.h Pages: 1 -->
<svg width="1840pt" height="386pt"
 viewBox="0.00 0.00 1840.19 386.00" xmlns="http://www.w3.org/2000/svg" xmlns:xlink="http://www.w3.org/1999/xlink">
<g id="graph0" class="graph" transform="scale(1 1) rotate(0) translate(4 382)">
<title>src/host/lfs_file_handler.h</title>
<polygon fill="white" stroke="transparent" points="-4,4 -4,-382 1836.19,-382 1836.19,4 -4,4"/>
<!-- Node1 -->
<g id="node1" class="node">
<title>Node1</title>
<g id="a_node1"><a xlink:title=" ">
<polygon fill="#bfbfbf" stroke="black" points="849.19,-358.5 849.19,-377.5 989.19,-377.5 989.19,-358.5 849.19,-358.5"/>
<text text-anchor="middle" x="919.19" y="-365.5" font-family="Helvetica,sans-Serif" font-size="10.00">src/host/lfs_file_handler.h</text>
</a>
</g>
</g>
<!-- Node2 -->
<g id="node2" class="node">
<title>Node2</title>
<g id="a_node2"><a xlink:href="messaging_8h.html" target="_top" xlink:title=" ">
<polygon fill="white" stroke="black" points="823.69,-302.5 823.69,-321.5 916.69,-321.5 916.69,-302.5 823.69,-302.5"/>
<text text-anchor="middle" x="870.19" y="-309.5" font-family="Helvetica,sans-Serif" font-size="10.00">ds/messaging.h</text>
</a>
</g>
</g>
<!-- Node1&#45;&gt;Node2 -->
<g id="edge1" class="edge">
<title>Node1&#45;&gt;Node2</title>
<path fill="none" stroke="midnightblue" d="M911.1,-358.08C904.04,-350.3 893.6,-338.8 885.04,-329.37"/>
<polygon fill="midnightblue" stroke="midnightblue" points="887.45,-326.8 878.13,-321.75 882.26,-331.51 887.45,-326.8"/>
</g>
<!-- Node43 -->
<g id="node43" class="node">
<title>Node43</title>
<g id="a_node43"><a xlink:href="lfs__ringbuffer__types_8h.html" target="_top" xlink:title=" ">
<polygon fill="white" stroke="black" points="659.19,-235.5 659.19,-265.5 785.19,-265.5 785.19,-235.5 659.19,-235.5"/>
<text text-anchor="start" x="667.19" y="-253.5" font-family="Helvetica,sans-Serif" font-size="10.00">indexing/lfs_ringbuffer</text>
<text text-anchor="middle" x="722.19" y="-242.5" font-family="Helvetica,sans-Serif" font-size="10.00">_types.h</text>
</a>
</g>
</g>
<!-- Node1&#45;&gt;Node43 -->
<g id="edge64" class="edge">
<title>Node1&#45;&gt;Node43</title>
<path fill="none" stroke="midnightblue" d="M894.6,-358.45C872.77,-350.4 840.38,-337.32 814.19,-322 789.34,-307.46 763.53,-287.15 745.59,-272.06"/>
<polygon fill="midnightblue" stroke="midnightblue" points="747.82,-269.36 737.94,-265.54 743.28,-274.69 747.82,-269.36"/>
</g>
<!-- Node46 -->
<g id="node46" class="node">
<title>Node46</title>
<g id="a_node46"><a xlink:title=" ">
<polygon fill="white" stroke="#bfbfbf" points="935.19,-302.5 935.19,-321.5 1003.19,-321.5 1003.19,-302.5 935.19,-302.5"/>
<text text-anchor="middle" x="969.19" y="-309.5" font-family="Helvetica,sans-Serif" font-size="10.00">filesystem</text>
</a>
</g>
</g>
<!-- Node1&#45;&gt;Node46 -->
<g id="edge71" class="edge">
<title>Node1&#45;&gt;Node46</title>
<path fill="none" stroke="midnightblue" d="M927.45,-358.08C934.66,-350.3 945.3,-338.8 954.04,-329.37"/>
<polygon fill="midnightblue" stroke="midnightblue" points="956.86,-331.47 961.09,-321.75 951.73,-326.71 956.86,-331.47"/>
</g>
<!-- Node47 -->
<g id="node47" class="node">
<title>Node47</title>
<g id="a_node47"><a xlink:title=" ">
<polygon fill="white" stroke="#bfbfbf" points="1021.69,-302.5 1021.69,-321.5 1076.69,-321.5 1076.69,-302.5 1021.69,-302.5"/>
<text text-anchor="middle" x="1049.19" y="-309.5" font-family="Helvetica,sans-Serif" font-size="10.00">fstream</text>
</a>
</g>
</g>
<!-- Node1&#45;&gt;Node47 -->
<g id="edge72" class="edge">
<title>Node1&#45;&gt;Node47</title>
<path fill="none" stroke="midnightblue" d="M939.79,-358.44C961.19,-349.56 994.87,-335.56 1019.22,-325.45"/>
<polygon fill="midnightblue" stroke="midnightblue" points="1020.8,-328.58 1028.69,-321.52 1018.11,-322.12 1020.8,-328.58"/>
</g>
<!-- Node3 -->
<g id="node3" class="node">
<title>Node3</title>
<g id="a_node3"><a xlink:href="logger_8h.html" target="_top" xlink:title=" ">
<polygon fill="white" stroke="black" points="350.69,-241 350.69,-260 437.69,-260 437.69,-241 350.69,-241"/>
<text text-anchor="middle" x="394.19" y="-248" font-family="Helvetica,sans-Serif" font-size="10.00">ccf/ds/logger.h</text>
</a>
</g>
</g>
<!-- Node2&#45;&gt;Node3 -->
<g id="edge2" class="edge">
<title>Node2&#45;&gt;Node3</title>
<path fill="none" stroke="midnightblue" d="M823.68,-305.19C734.96,-294.1 542,-269.98 447.92,-258.22"/>
<polygon fill="midnightblue" stroke="midnightblue" points="448.13,-254.71 437.77,-256.95 447.26,-261.66 448.13,-254.71"/>
</g>
<!-- Node10 -->
<g id="node10" class="node">
<title>Node10</title>
<g id="a_node10"><a xlink:title=" ">
<polygon fill="white" stroke="#bfbfbf" points="650.19,-123.5 650.19,-142.5 688.19,-142.5 688.19,-123.5 650.19,-123.5"/>
<text text-anchor="middle" x="669.19" y="-130.5" font-family="Helvetica,sans-Serif" font-size="10.00">map</text>
</a>
</g>
</g>
<!-- Node2&#45;&gt;Node10 -->
<g id="edge62" class="edge">
<title>Node2&#45;&gt;Node10</title>
<path fill="none" stroke="midnightblue" d="M864.29,-302.32C848.57,-279.69 803.52,-217.95 754.19,-179 736.99,-165.42 715.09,-153.94 697.82,-145.97"/>
<polygon fill="midnightblue" stroke="midnightblue" points="698.82,-142.58 688.27,-141.7 695.97,-148.97 698.82,-142.58"/>
</g>
<!-- Node18 -->
<g id="node18" class="node">
<title>Node18</title>
<g id="a_node18"><a xlink:href="ring__buffer_8h.html" target="_top" xlink:title=" ">
<polygon fill="white" stroke="black" points="1629.69,-241 1629.69,-260 1706.69,-260 1706.69,-241 1629.69,-241"/>
<text text-anchor="middle" x="1668.19" y="-248" font-family="Helvetica,sans-Serif" font-size="10.00">ring_buffer.h</text>
</a>
</g>
</g>
<!-- Node2&#45;&gt;Node18 -->
<g id="edge19" class="edge">
<title>Node2&#45;&gt;Node18</title>
<path fill="none" stroke="midnightblue" d="M916.89,-303.13C920.04,-302.71 923.16,-302.33 926.19,-302 1206.78,-271.57 1279.24,-292.8 1560.19,-266 1579.66,-264.14 1601.01,-261.42 1619.55,-258.84"/>
<polygon fill="midnightblue" stroke="midnightblue" points="1620.13,-262.29 1629.54,-257.42 1619.14,-255.36 1620.13,-262.29"/>
</g>
<!-- Node36 -->
<g id="node36" class="node">
<title>Node36</title>
<g id="a_node36"><a xlink:title=" ">
<polygon fill="white" stroke="#bfbfbf" points="1398.69,-0.5 1398.69,-19.5 1463.69,-19.5 1463.69,-0.5 1398.69,-0.5"/>
<text text-anchor="middle" x="1431.19" y="-7.5" font-family="Helvetica,sans-Serif" font-size="10.00">stdexcept</text>
</a>
</g>
</g>
<!-- Node2&#45;&gt;Node36 -->
<g id="edge63" class="edge">
<title>Node2&#45;&gt;Node36</title>
<path fill="none" stroke="midnightblue" d="M916.92,-303.26C1069.94,-277.82 1546.19,-198.01 1546.19,-190 1546.19,-190 1546.19,-190 1546.19,-132 1546.19,-97.18 1549.32,-82.88 1527.19,-56 1513.54,-39.42 1492.4,-28.61 1473.42,-21.75"/>
<polygon fill="midnightblue" stroke="midnightblue" points="1474.34,-18.36 1463.75,-18.51 1472.12,-25 1474.34,-18.36"/>
</g>
<!-- Node39 -->
<g id="node39" class="node">
<title>Node39</title>
<g id="a_node39"><a xlink:title=" ">
<polygon fill="white" stroke="#bfbfbf" points="780.19,-123.5 780.19,-142.5 830.19,-142.5 830.19,-123.5 780.19,-123.5"/>
<text text-anchor="middle" x="805.19" y="-130.5" font-family="Helvetica,sans-Serif" font-size="10.00">atomic</text>
</a>
</g>
</g>
<!-- Node2&#45;&gt;Node39 -->
<g id="edge60" class="edge">
<title>Node2&#45;&gt;Node39</title>
<path fill="none" stroke="midnightblue" d="M867.06,-302.46C857.09,-275.31 825.95,-190.51 812.03,-152.62"/>
<polygon fill="midnightblue" stroke="midnightblue" points="815.18,-151.05 808.45,-142.87 808.61,-153.46 815.18,-151.05"/>
</g>
<!-- Node42 -->
<g id="node42" class="node">
<title>Node42</title>
<g id="a_node42"><a xlink:title=" ">
<polygon fill="white" stroke="#bfbfbf" points="898.69,-241 898.69,-260 1005.69,-260 1005.69,-241 898.69,-241"/>
<text text-anchor="middle" x="952.19" y="-248" font-family="Helvetica,sans-Serif" font-size="10.00">condition_variable</text>
</a>
</g>
</g>
<!-- Node2&#45;&gt;Node42 -->
<g id="edge61" class="edge">
<title>Node2&#45;&gt;Node42</title>
<path fill="none" stroke="midnightblue" d="M881.94,-302.48C894.97,-293.02 916.23,-277.6 931.95,-266.19"/>
<polygon fill="midnightblue" stroke="midnightblue" points="934.43,-268.71 940.47,-260.01 930.32,-263.05 934.43,-268.71"/>
</g>
<!-- Node4 -->
<g id="node4" class="node">
<title>Node4</title>
<g id="a_node4"><a xlink:href="enum__formatter_8h.html" target="_top" xlink:title=" ">
<polygon fill="white" stroke="black" points="518.19,-179.5 518.19,-198.5 654.19,-198.5 654.19,-179.5 518.19,-179.5"/>
<text text-anchor="middle" x="586.19" y="-186.5" font-family="Helvetica,sans-Serif" font-size="10.00">ccf/ds/enum_formatter.h</text>
</a>
</g>
</g>
<!-- Node3&#45;&gt;Node4 -->
<g id="edge3" class="edge">
<title>Node3&#45;&gt;Node4</title>
<path fill="none" stroke="midnightblue" d="M421.7,-240.98C455.06,-230.64 511.45,-213.16 548.75,-201.6"/>
<polygon fill="midnightblue" stroke="midnightblue" points="550.22,-204.81 558.73,-198.51 548.15,-198.13 550.22,-204.81"/>
</g>
<!-- Node5 -->
<g id="node5" class="node">
<title>Node5</title>
<g id="a_node5"><a xlink:title=" ">
<polygon fill="white" stroke="#bfbfbf" points="386.69,-123.5 386.69,-142.5 465.69,-142.5 465.69,-123.5 386.69,-123.5"/>
<text text-anchor="middle" x="426.19" y="-130.5" font-family="Helvetica,sans-Serif" font-size="10.00">fmt/format.h</text>
</a>
</g>
</g>
<!-- Node3&#45;&gt;Node5 -->
<g id="edge13" class="edge">
<title>Node3&#45;&gt;Node5</title>
<path fill="none" stroke="midnightblue" d="M350.51,-247.84C283.02,-243.69 165.2,-229.23 206.19,-179 216.93,-165.84 315.03,-149.74 376.55,-140.8"/>
<polygon fill="midnightblue" stroke="midnightblue" points="377.06,-144.27 386.46,-139.38 376.07,-137.34 377.06,-144.27"/>
</g>
<!-- Node6 -->
<g id="node6" class="node">
<title>Node6</title>
<g id="a_node6"><a xlink:href="thread__ids_8h.html" target="_top" xlink:title=" ">
<polygon fill="white" stroke="black" points="51.19,-179.5 51.19,-198.5 159.19,-198.5 159.19,-179.5 51.19,-179.5"/>
<text text-anchor="middle" x="105.19" y="-186.5" font-family="Helvetica,sans-Serif" font-size="10.00">ccf/ds/thread_ids.h</text>
</a>
</g>
</g>
<!-- Node3&#45;&gt;Node6 -->
<g id="edge5" class="edge">
<title>Node3&#45;&gt;Node6</title>
<path fill="none" stroke="midnightblue" d="M352.79,-240.98C301.07,-230.33 212.58,-212.11 156.58,-200.58"/>
<polygon fill="midnightblue" stroke="midnightblue" points="157.02,-197.1 146.52,-198.51 155.61,-203.95 157.02,-197.1"/>
</g>
<!-- Node12 -->
<g id="node12" class="node">
<title>Node12</title>
<g id="a_node12"><a xlink:title=" ">
<polygon fill="white" stroke="#bfbfbf" points="215.69,-179.5 215.69,-198.5 294.69,-198.5 294.69,-179.5 215.69,-179.5"/>
<text text-anchor="middle" x="255.19" y="-186.5" font-family="Helvetica,sans-Serif" font-size="10.00">fmt/chrono.h</text>
</a>
</g>
</g>
<!-- Node3&#45;&gt;Node12 -->
<g id="edge12" class="edge">
<title>Node3&#45;&gt;Node12</title>
<path fill="none" stroke="midnightblue" d="M374.28,-240.98C350.74,-230.9 311.38,-214.05 284.4,-202.5"/>
<polygon fill="midnightblue" stroke="midnightblue" points="285.64,-199.23 275.07,-198.51 282.89,-205.66 285.64,-199.23"/>
</g>
<!-- Node13 -->
<g id="node13" class="node">
<title>Node13</title>
<g id="a_node13"><a xlink:title=" ">
<polygon fill="white" stroke="#bfbfbf" points="312.19,-179.5 312.19,-198.5 372.19,-198.5 372.19,-179.5 312.19,-179.5"/>
<text text-anchor="middle" x="342.19" y="-186.5" font-family="Helvetica,sans-Serif" font-size="10.00">iostream</text>
</a>
</g>
</g>
<!-- Node3&#45;&gt;Node13 -->
<g id="edge14" class="edge">
<title>Node3&#45;&gt;Node13</title>
<path fill="none" stroke="midnightblue" d="M386.74,-240.98C378.86,-231.96 366.25,-217.52 356.45,-206.31"/>
<polygon fill="midnightblue" stroke="midnightblue" points="358.84,-203.74 349.63,-198.51 353.57,-208.34 358.84,-203.74"/>
</g>
<!-- Node14 -->
<g id="node14" class="node">
<title>Node14</title>
<g id="a_node14"><a xlink:title=" ">
<polygon fill="white" stroke="#bfbfbf" points="390.19,-179.5 390.19,-198.5 500.19,-198.5 500.19,-179.5 390.19,-179.5"/>
<text text-anchor="middle" x="445.19" y="-186.5" font-family="Helvetica,sans-Serif" font-size="10.00">nlohmann/json.hpp</text>
</a>
</g>
</g>
<!-- Node3&#45;&gt;Node14 -->
<g id="edge15" class="edge">
<title>Node3&#45;&gt;Node14</title>
<path fill="none" stroke="midnightblue" d="M401.5,-240.98C409.23,-231.96 421.6,-217.52 431.21,-206.31"/>
<polygon fill="midnightblue" stroke="midnightblue" points="434.05,-208.38 437.9,-198.51 428.73,-203.82 434.05,-208.38"/>
</g>
<!-- Node15 -->
<g id="node15" class="node">
<title>Node15</title>
<g id="a_node15"><a xlink:title=" ">
<polygon fill="white" stroke="#bfbfbf" points="706.19,-123.5 706.19,-142.5 762.19,-142.5 762.19,-123.5 706.19,-123.5"/>
<text text-anchor="middle" x="734.19" y="-130.5" font-family="Helvetica,sans-Serif" font-size="10.00">optional</text>
</a>
</g>
</g>
<!-- Node3&#45;&gt;Node15 -->
<g id="edge16" class="edge">
<title>Node3&#45;&gt;Node15</title>
<path fill="none" stroke="midnightblue" d="M437.77,-249.83C521.27,-249.42 698.98,-243.25 737.19,-199 748.02,-186.46 745.46,-166.96 741.3,-152.59"/>
<polygon fill="midnightblue" stroke="midnightblue" points="744.51,-151.16 737.99,-142.8 737.87,-153.39 744.51,-151.16"/>
</g>
<!-- Node16 -->
<g id="node16" class="node">
<title>Node16</title>
<g id="a_node16"><a xlink:title=" ">
<polygon fill="white" stroke="#bfbfbf" points="672.19,-179.5 672.19,-198.5 728.19,-198.5 728.19,-179.5 672.19,-179.5"/>
<text text-anchor="middle" x="700.19" y="-186.5" font-family="Helvetica,sans-Serif" font-size="10.00">sstream</text>
</a>
</g>
</g>
<!-- Node3&#45;&gt;Node16 -->
<g id="edge17" class="edge">
<title>Node3&#45;&gt;Node16</title>
<path fill="none" stroke="midnightblue" d="M438.13,-241.99C489.53,-233.04 577.4,-217.23 662.16,-199.14"/>
<polygon fill="midnightblue" stroke="midnightblue" points="662.9,-202.56 671.95,-197.03 661.43,-195.71 662.9,-202.56"/>
</g>
<!-- Node17 -->
<g id="node17" class="node">
<title>Node17</title>
<g id="a_node17"><a xlink:title=" ">
<polygon fill="white" stroke="#bfbfbf" points="623.69,-0.5 623.69,-19.5 692.69,-19.5 692.69,-0.5 623.69,-0.5"/>
<text text-anchor="middle" x="658.19" y="-7.5" font-family="Helvetica,sans-Serif" font-size="10.00">type_traits</text>
</a>
</g>
</g>
<!-- Node3&#45;&gt;Node17 -->
<g id="edge18" class="edge">
<title>Node3&#45;&gt;Node17</title>
<path fill="none" stroke="midnightblue" d="M350.51,-249.43C232.9,-247.8 -75.42,-233.2 17.19,-123 93.97,-31.64 480.62,-14.79 613.37,-11.7"/>
<polygon fill="midnightblue" stroke="midnightblue" points="613.66,-15.19 623.59,-11.47 613.51,-8.19 613.66,-15.19"/>
</g>
<!-- Node4&#45;&gt;Node5 -->
<g id="edge4" class="edge">
<title>Node4&#45;&gt;Node5</title>
<path fill="none" stroke="midnightblue" d="M560.84,-179.44C533.92,-170.36 491.2,-155.94 461.11,-145.78"/>
<polygon fill="midnightblue" stroke="midnightblue" points="462.02,-142.4 451.43,-142.52 459.78,-149.03 462.02,-142.4"/>
</g>
<!-- Node6&#45;&gt;Node5 -->
<g id="edge6" class="edge">
<title>Node6&#45;&gt;Node5</title>
<path fill="none" stroke="midnightblue" d="M156.06,-179.44C216.38,-169.29 316.3,-152.49 376.23,-142.4"/>
<polygon fill="midnightblue" stroke="midnightblue" points="376.93,-145.84 386.22,-140.73 375.77,-138.93 376.93,-145.84"/>
</g>
<!-- Node7 -->
<g id="node7" class="node">
<title>Node7</title>
<g id="a_node7"><a xlink:title=" ">
<polygon fill="white" stroke="#bfbfbf" points="172.19,-123.5 172.19,-142.5 258.19,-142.5 258.19,-123.5 172.19,-123.5"/>
<text text-anchor="middle" x="215.19" y="-130.5" font-family="Helvetica,sans-Serif" font-size="10.00">fmt/ostream.h</text>
</a>
</g>
</g>
<!-- Node6&#45;&gt;Node7 -->
<g id="edge7" class="edge">
<title>Node6&#45;&gt;Node7</title>
<path fill="none" stroke="midnightblue" d="M122.87,-179.32C140.59,-170.62 168.1,-157.12 188.48,-147.11"/>
<polygon fill="midnightblue" stroke="midnightblue" points="190.13,-150.2 197.56,-142.65 187.04,-143.92 190.13,-150.2"/>
</g>
<!-- Node8 -->
<g id="node8" class="node">
<title>Node8</title>
<g id="a_node8"><a xlink:title=" ">
<polygon fill="white" stroke="#bfbfbf" points="26.69,-123.5 26.69,-142.5 87.69,-142.5 87.69,-123.5 26.69,-123.5"/>
<text text-anchor="middle" x="57.19" y="-130.5" font-family="Helvetica,sans-Serif" font-size="10.00">fmt/std.h</text>
</a>
</g>
</g>
<!-- Node6&#45;&gt;Node8 -->
<g id="edge8" class="edge">
<title>Node6&#45;&gt;Node8</title>
<path fill="none" stroke="midnightblue" d="M97.27,-179.08C90.35,-171.3 80.13,-159.8 71.74,-150.37"/>
<polygon fill="midnightblue" stroke="midnightblue" points="74.23,-147.9 64.97,-142.75 69,-152.55 74.23,-147.9"/>
</g>
<!-- Node9 -->
<g id="node9" class="node">
<title>Node9</title>
<g id="a_node9"><a xlink:title=" ">
<polygon fill="white" stroke="#bfbfbf" points="276.19,-123.5 276.19,-142.5 320.19,-142.5 320.19,-123.5 276.19,-123.5"/>
<text text-anchor="middle" x="298.19" y="-130.5" font-family="Helvetica,sans-Serif" font-size="10.00">limits</text>
</a>
</g>
</g>
<!-- Node6&#45;&gt;Node9 -->
<g id="edge9" class="edge">
<title>Node6&#45;&gt;Node9</title>
<path fill="none" stroke="midnightblue" d="M136.28,-179.48C166.94,-171.05 215.39,-157.67 266.31,-143.23"/>
<polygon fill="midnightblue" stroke="midnightblue" points="267.52,-146.52 276.19,-140.42 265.61,-139.79 267.52,-146.52"/>
</g>
<!-- Node6&#45;&gt;Node10 -->
<g id="edge10" class="edge">
<title>Node6&#45;&gt;Node10</title>
<path fill="none" stroke="midnightblue" d="M159.44,-183.1C174.57,-181.76 191.02,-180.31 206.19,-179 399.03,-162.41 450.19,-179.9 640.19,-143 640.29,-142.98 640.39,-142.96 640.49,-142.94"/>
<polygon fill="midnightblue" stroke="midnightblue" points="641.13,-146.39 650,-140.6 639.45,-139.59 641.13,-146.39"/>
</g>
<!-- Node11 -->
<g id="node11" class="node">
<title>Node11</title>
<g id="a_node11"><a xlink:title=" ">
<polygon fill="white" stroke="#bfbfbf" points="106.19,-123.5 106.19,-142.5 154.19,-142.5 154.19,-123.5 106.19,-123.5"/>
<text text-anchor="middle" x="130.19" y="-130.5" font-family="Helvetica,sans-Serif" font-size="10.00">thread</text>
</a>
</g>
</g>
<!-- Node6&#45;&gt;Node11 -->
<g id="edge11" class="edge">
<title>Node6&#45;&gt;Node11</title>
<path fill="none" stroke="midnightblue" d="M109.32,-179.08C112.71,-171.77 117.61,-161.18 121.81,-152.1"/>
<polygon fill="midnightblue" stroke="midnightblue" points="125.12,-153.3 126.14,-142.75 118.76,-150.36 125.12,-153.3"/>
</g>
<!-- Node19 -->
<g id="node19" class="node">
<title>Node19</title>
<g id="a_node19"><a xlink:href="ccf__memcpy_8h.html" target="_top" xlink:title=" ">
<polygon fill="white" stroke="black" points="1574.19,-62 1574.19,-81 1660.19,-81 1660.19,-62 1574.19,-62"/>
<text text-anchor="middle" x="1617.19" y="-69" font-family="Helvetica,sans-Serif" font-size="10.00">ccf_memcpy.h</text>
</a>
</g>
</g>
<!-- Node18&#45;&gt;Node19 -->
<g id="edge20" class="edge">
<title>Node18&#45;&gt;Node19</title>
<path fill="none" stroke="midnightblue" d="M1665.73,-240.96C1657.91,-213.81 1633.48,-129.01 1622.56,-91.12"/>
<polygon fill="midnightblue" stroke="midnightblue" points="1625.88,-90.01 1619.75,-81.37 1619.15,-91.95 1625.88,-90.01"/>
</g>
<!-- Node20 -->
<g id="node20" class="node">
<title>Node20</title>
<g id="a_node20"><a xlink:title=" ">
<polygon fill="white" stroke="#bfbfbf" points="1592.19,-0.5 1592.19,-19.5 1642.19,-19.5 1642.19,-0.5 1592.19,-0.5"/>
<text text-anchor="middle" x="1617.19" y="-7.5" font-family="Helvetica,sans-Serif" font-size="10.00">cstring</text>
</a>
</g>
</g>
<!-- Node18&#45;&gt;Node20 -->
<g id="edge57" class="edge">
<title>Node18&#45;&gt;Node20</title>
<path fill="none" stroke="midnightblue" d="M1670.68,-240.86C1678.3,-212.67 1699.08,-121.39 1669.19,-56 1663.42,-43.36 1652.14,-32.91 1641.56,-25.27"/>
<polygon fill="midnightblue" stroke="midnightblue" points="1643.23,-22.18 1632.98,-19.53 1639.34,-28 1643.23,-22.18"/>
</g>
<!-- Node21 -->
<g id="node21" class="node">
<title>Node21</title>
<g id="a_node21"><a xlink:href="ring__buffer__types_8h.html" target="_top" xlink:title=" ">
<polygon fill="white" stroke="black" points="898.19,-179.5 898.19,-198.5 1008.19,-198.5 1008.19,-179.5 898.19,-179.5"/>
<text text-anchor="middle" x="953.19" y="-186.5" font-family="Helvetica,sans-Serif" font-size="10.00">ring_buffer_types.h</text>
</a>
</g>
</g>
<!-- Node18&#45;&gt;Node21 -->
<g id="edge22" class="edge">
<title>Node18&#45;&gt;Node21</title>
<path fill="none" stroke="midnightblue" d="M1629.5,-246.28C1512.95,-236.58 1164.31,-207.57 1018.46,-195.43"/>
<polygon fill="midnightblue" stroke="midnightblue" points="1018.58,-191.93 1008.32,-194.59 1017.99,-198.9 1018.58,-191.93"/>
</g>
<!-- Node40 -->
<g id="node40" class="node">
<title>Node40</title>
<g id="a_node40"><a xlink:title=" ">
<polygon fill="white" stroke="#bfbfbf" points="1716.69,-179.5 1716.69,-198.5 1781.69,-198.5 1781.69,-179.5 1716.69,-179.5"/>
<text text-anchor="middle" x="1749.19" y="-186.5" font-family="Helvetica,sans-Serif" font-size="10.00">functional</text>
</a>
</g>
</g>
<!-- Node18&#45;&gt;Node40 -->
<g id="edge58" class="edge">
<title>Node18&#45;&gt;Node40</title>
<path fill="none" stroke="midnightblue" d="M1679.8,-240.98C1692.67,-231.52 1713.67,-216.1 1729.2,-204.69"/>
<polygon fill="midnightblue" stroke="midnightblue" points="1731.62,-207.25 1737.61,-198.51 1727.48,-201.61 1731.62,-207.25"/>
</g>
<!-- Node41 -->
<g id="node41" class="node">
<title>Node41</title>
<g id="a_node41"><a xlink:title=" ">
<polygon fill="white" stroke="#bfbfbf" points="1800.19,-179.5 1800.19,-198.5 1832.19,-198.5 1832.19,-179.5 1800.19,-179.5"/>
<text text-anchor="middle" x="1816.19" y="-186.5" font-family="Helvetica,sans-Serif" font-size="10.00">set</text>
</a>
</g>
</g>
<!-- Node18&#45;&gt;Node41 -->
<g id="edge59" class="edge">
<title>Node18&#45;&gt;Node41</title>
<path fill="none" stroke="midnightblue" d="M1689.4,-240.98C1716.14,-230.22 1762.07,-211.76 1790.7,-200.25"/>
<polygon fill="midnightblue" stroke="midnightblue" points="1792.07,-203.47 1800.04,-196.49 1789.46,-196.98 1792.07,-203.47"/>
</g>
<!-- Node19&#45;&gt;Node20 -->
<g id="edge21" class="edge">
<title>Node19&#45;&gt;Node20</title>
<path fill="none" stroke="midnightblue" d="M1617.19,-61.98C1617.19,-53.58 1617.19,-40.48 1617.19,-29.66"/>
<polygon fill="midnightblue" stroke="midnightblue" points="1620.69,-29.51 1617.19,-19.51 1613.69,-29.51 1620.69,-29.51"/>
</g>
<!-- Node21&#45;&gt;Node5 -->
<g id="edge53" class="edge">
<title>Node21&#45;&gt;Node5</title>
<path fill="none" stroke="midnightblue" d="M898,-183.35C811.28,-175.88 637.85,-160.29 491.19,-143 486.36,-142.43 481.32,-141.8 476.29,-141.14"/>
<polygon fill="midnightblue" stroke="midnightblue" points="476.41,-137.63 466.03,-139.78 475.48,-144.57 476.41,-137.63"/>
</g>
<!-- Node21&#45;&gt;Node15 -->
<g id="edge54" class="edge">
<title>Node21&#45;&gt;Node15</title>
<path fill="none" stroke="midnightblue" d="M918.49,-179.44C878.69,-169.63 813.62,-153.59 772.4,-143.42"/>
<polygon fill="midnightblue" stroke="midnightblue" points="773.01,-139.97 762.46,-140.97 771.33,-146.76 773.01,-139.97"/>
</g>
<!-- Node22 -->
<g id="node22" class="node">
<title>Node22</title>
<g id="a_node22"><a xlink:href="include_2ccf_2ds_2hash_8h.html" target="_top" xlink:title=" ">
<polygon fill="white" stroke="black" points="1155.19,-123.5 1155.19,-142.5 1235.19,-142.5 1235.19,-123.5 1155.19,-123.5"/>
<text text-anchor="middle" x="1195.19" y="-130.5" font-family="Helvetica,sans-Serif" font-size="10.00">ccf/ds/hash.h</text>
</a>
</g>
</g>
<!-- Node21&#45;&gt;Node22 -->
<g id="edge23" class="edge">
<title>Node21&#45;&gt;Node22</title>
<path fill="none" stroke="midnightblue" d="M991.54,-179.44C1033.67,-170.04 1101.4,-154.93 1147.06,-144.74"/>
<polygon fill="midnightblue" stroke="midnightblue" points="1148.03,-148.11 1157.03,-142.52 1146.5,-141.28 1148.03,-148.11"/>
</g>
<!-- Node26 -->
<g id="node26" class="node">
<title>Node26</title>
<g id="a_node26"><a xlink:title=" ">
<polygon fill="white" stroke="#bfbfbf" points="1074.69,-0.5 1074.69,-19.5 1121.69,-19.5 1121.69,-0.5 1074.69,-0.5"/>
<text text-anchor="middle" x="1098.19" y="-7.5" font-family="Helvetica,sans-Serif" font-size="10.00">vector</text>
</a>
</g>
</g>
<!-- Node21&#45;&gt;Node26 -->
<g id="edge56" class="edge">
<title>Node21&#45;&gt;Node26</title>
<path fill="none" stroke="midnightblue" d="M960.19,-179.46C982.81,-151.85 1054.3,-64.58 1084.5,-27.71"/>
<polygon fill="midnightblue" stroke="midnightblue" points="1087.3,-29.82 1090.93,-19.87 1081.88,-25.39 1087.3,-29.82"/>
</g>
<!-- Node29 -->
<g id="node29" class="node">
<title>Node29</title>
<g id="a_node29"><a xlink:href="nonstd_8h.html" target="_top" xlink:title=" ">
<polygon fill="white" stroke="black" points="828.19,-62 828.19,-81 918.19,-81 918.19,-62 828.19,-62"/>
<text text-anchor="middle" x="873.19" y="-69" font-family="Helvetica,sans-Serif" font-size="10.00">ccf/ds/nonstd.h</text>
</a>
</g>
</g>
<!-- Node21&#45;&gt;Node29 -->
<g id="edge32" class="edge">
<title>Node21&#45;&gt;Node29</title>
<path fill="none" stroke="midnightblue" d="M958.29,-179.35C965.28,-166.24 975.83,-140.97 965.19,-123 954.24,-104.49 933.82,-92.31 915,-84.56"/>
<polygon fill="midnightblue" stroke="midnightblue" points="916.24,-81.29 905.65,-81 913.75,-87.83 916.24,-81.29"/>
</g>
<!-- Node32 -->
<g id="node32" class="node">
<title>Node32</title>
<g id="a_node32"><a xlink:title=" ">
<polygon fill="white" stroke="#bfbfbf" points="711.19,-0.5 711.19,-19.5 755.19,-19.5 755.19,-0.5 711.19,-0.5"/>
<text text-anchor="middle" x="733.19" y="-7.5" font-family="Helvetica,sans-Serif" font-size="10.00">string</text>
</a>
</g>
</g>
<!-- Node21&#45;&gt;Node32 -->
<g id="edge55" class="edge">
<title>Node21&#45;&gt;Node32</title>
<path fill="none" stroke="midnightblue" d="M939.04,-179.35C917.72,-166.45 875.95,-141.69 839.19,-123 804.44,-105.32 785.45,-115.82 759.19,-87 744.7,-71.08 738.23,-46.73 735.38,-29.9"/>
<polygon fill="midnightblue" stroke="midnightblue" points="738.79,-29.06 733.93,-19.64 731.86,-30.04 738.79,-29.06"/>
</g>
<!-- Node34 -->
<g id="node34" class="node">
<title>Node34</title>
<g id="a_node34"><a xlink:href="serializer_8h.html" target="_top" xlink:title=" ">
<polygon fill="white" stroke="black" points="886.19,-123.5 886.19,-142.5 956.19,-142.5 956.19,-123.5 886.19,-123.5"/>
<text text-anchor="middle" x="921.19" y="-130.5" font-family="Helvetica,sans-Serif" font-size="10.00">serializer.h</text>
</a>
</g>
</g>
<!-- Node21&#45;&gt;Node34 -->
<g id="edge40" class="edge">
<title>Node21&#45;&gt;Node34</title>
<path fill="none" stroke="midnightblue" d="M947.91,-179.08C943.48,-171.61 937.03,-160.72 931.57,-151.52"/>
<polygon fill="midnightblue" stroke="midnightblue" points="934.49,-149.57 926.38,-142.75 928.47,-153.14 934.49,-149.57"/>
</g>
<!-- Node21&#45;&gt;Node39 -->
<g id="edge52" class="edge">
<title>Node21&#45;&gt;Node39</title>
<path fill="none" stroke="midnightblue" d="M929.74,-179.44C905.06,-170.44 866.01,-156.19 838.22,-146.05"/>
<polygon fill="midnightblue" stroke="midnightblue" points="839.13,-142.66 828.53,-142.52 836.73,-149.23 839.13,-142.66"/>
</g>
<!-- Node23 -->
<g id="node23" class="node">
<title>Node23</title>
<g id="a_node23"><a xlink:href="siphash_8h.html" target="_top" xlink:title=" ">
<polygon fill="white" stroke="black" points="1422.69,-62 1422.69,-81 1517.69,-81 1517.69,-62 1422.69,-62"/>
<text text-anchor="middle" x="1470.19" y="-69" font-family="Helvetica,sans-Serif" font-size="10.00">ccf/ds/siphash.h</text>
</a>
</g>
</g>
<!-- Node22&#45;&gt;Node23 -->
<g id="edge24" class="edge">
<title>Node22&#45;&gt;Node23</title>
<path fill="none" stroke="midnightblue" d="M1235.29,-123.8C1278.15,-114.97 1348.06,-100.38 1408.19,-87 1413.32,-85.86 1418.68,-84.64 1424.01,-83.42"/>
<polygon fill="midnightblue" stroke="midnightblue" points="1425.21,-86.73 1434.16,-81.07 1423.63,-79.91 1425.21,-86.73"/>
</g>
<!-- Node25 -->
<g id="node25" class="node">
<title>Node25</title>
<g id="a_node25"><a xlink:title=" ">
<polygon fill="white" stroke="#bfbfbf" points="1330.19,-0.5 1330.19,-19.5 1380.19,-19.5 1380.19,-0.5 1330.19,-0.5"/>
<text text-anchor="middle" x="1355.19" y="-7.5" font-family="Helvetica,sans-Serif" font-size="10.00">cstdint</text>
</a>
</g>
</g>
<!-- Node22&#45;&gt;Node25 -->
<g id="edge29" class="edge">
<title>Node22&#45;&gt;Node25</title>
<path fill="none" stroke="midnightblue" d="M1235.52,-127.64C1283.19,-121.57 1358.19,-108.77 1375.19,-87 1388.39,-70.1 1377.84,-45.31 1367.74,-28.68"/>
<polygon fill="midnightblue" stroke="midnightblue" points="1370.43,-26.4 1362.02,-19.96 1364.57,-30.24 1370.43,-26.4"/>
</g>
<!-- Node22&#45;&gt;Node26 -->
<g id="edge31" class="edge">
<title>Node22&#45;&gt;Node26</title>
<path fill="none" stroke="midnightblue" d="M1169.78,-123.42C1152.46,-116.29 1130.37,-104.47 1117.19,-87 1104.68,-70.41 1100.34,-46.56 1098.87,-30.02"/>
<polygon fill="midnightblue" stroke="midnightblue" points="1102.35,-29.68 1098.24,-19.92 1095.37,-30.11 1102.35,-29.68"/>
</g>
<!-- Node27 -->
<g id="node27" class="node">
<title>Node27</title>
<g id="a_node27"><a xlink:title=" ">
<polygon fill="white" stroke="#bfbfbf" points="1014.19,-0.5 1014.19,-19.5 1056.19,-19.5 1056.19,-0.5 1014.19,-0.5"/>
<text text-anchor="middle" x="1035.19" y="-7.5" font-family="Helvetica,sans-Serif" font-size="10.00">array</text>
</a>
</g>
</g>
<!-- Node22&#45;&gt;Node27 -->
<g id="edge28" class="edge">
<title>Node22&#45;&gt;Node27</title>
<path fill="none" stroke="midnightblue" d="M1170.19,-123.49C1150.05,-115.88 1121.65,-103.41 1100.19,-87 1078.08,-70.09 1058.17,-44.56 1046.38,-27.83"/>
<polygon fill="midnightblue" stroke="midnightblue" points="1049.24,-25.82 1040.7,-19.55 1043.47,-29.78 1049.24,-25.82"/>
</g>
<!-- Node28 -->
<g id="node28" class="node">
<title>Node28</title>
<g id="a_node28"><a xlink:title=" ">
<polygon fill="white" stroke="#bfbfbf" points="1217.69,-62 1217.69,-81 1366.69,-81 1366.69,-62 1217.69,-62"/>
<text text-anchor="middle" x="1292.19" y="-69" font-family="Helvetica,sans-Serif" font-size="10.00">small_vector/SmallVector.h</text>
</a>
</g>
</g>
<!-- Node22&#45;&gt;Node28 -->
<g id="edge30" class="edge">
<title>Node22&#45;&gt;Node28</title>
<path fill="none" stroke="midnightblue" d="M1209.09,-123.48C1224.86,-113.8 1250.83,-97.87 1269.54,-86.39"/>
<polygon fill="midnightblue" stroke="midnightblue" points="1271.63,-89.22 1278.32,-81.01 1267.97,-83.25 1271.63,-89.22"/>
</g>
<!-- Node24 -->
<g id="node24" class="node">
<title>Node24</title>
<g id="a_node24"><a xlink:title=" ">
<polygon fill="white" stroke="#bfbfbf" points="1481.69,-0.5 1481.69,-19.5 1534.69,-19.5 1534.69,-0.5 1481.69,-0.5"/>
<text text-anchor="middle" x="1508.19" y="-7.5" font-family="Helvetica,sans-Serif" font-size="10.00">cstddef</text>
</a>
</g>
</g>
<!-- Node23&#45;&gt;Node24 -->
<g id="edge25" class="edge">
<title>Node23&#45;&gt;Node24</title>
<path fill="none" stroke="midnightblue" d="M1475.64,-61.98C1481.28,-53.14 1490.25,-39.09 1497.35,-27.98"/>
<polygon fill="midnightblue" stroke="midnightblue" points="1500.33,-29.82 1502.76,-19.51 1494.43,-26.05 1500.33,-29.82"/>
</g>
<!-- Node23&#45;&gt;Node25 -->
<g id="edge26" class="edge">
<title>Node23&#45;&gt;Node25</title>
<path fill="none" stroke="midnightblue" d="M1453.72,-61.98C1434.59,-52.08 1402.82,-35.64 1380.54,-24.12"/>
<polygon fill="midnightblue" stroke="midnightblue" points="1382.13,-21 1371.64,-19.51 1378.91,-27.21 1382.13,-21"/>
</g>
<!-- Node23&#45;&gt;Node26 -->
<g id="edge27" class="edge">
<title>Node23&#45;&gt;Node26</title>
<path fill="none" stroke="midnightblue" d="M1422.32,-62.84C1345.95,-50.63 1198.41,-27.03 1132.02,-16.41"/>
<polygon fill="midnightblue" stroke="midnightblue" points="1132.51,-12.94 1122.08,-14.82 1131.4,-19.86 1132.51,-12.94"/>
</g>
<!-- Node29&#45;&gt;Node17 -->
<g id="edge38" class="edge">
<title>Node29&#45;&gt;Node17</title>
<path fill="none" stroke="midnightblue" d="M842.39,-61.98C804.63,-51.53 740.53,-33.79 698.78,-22.23"/>
<polygon fill="midnightblue" stroke="midnightblue" points="699.51,-18.8 688.94,-19.51 697.64,-25.55 699.51,-18.8"/>
</g>
<!-- Node29&#45;&gt;Node26 -->
<g id="edge39" class="edge">
<title>Node29&#45;&gt;Node26</title>
<path fill="none" stroke="midnightblue" d="M906.17,-61.92C942.5,-52.45 1002.89,-36.65 1064.51,-20.16"/>
<polygon fill="midnightblue" stroke="midnightblue" points="1065.65,-23.48 1074.41,-17.51 1063.84,-16.72 1065.65,-23.48"/>
</g>
<!-- Node29&#45;&gt;Node27 -->
<g id="edge34" class="edge">
<title>Node29&#45;&gt;Node27</title>
<path fill="none" stroke="midnightblue" d="M896.4,-61.98C924.82,-51.54 973.05,-33.82 1004.51,-22.27"/>
<polygon fill="midnightblue" stroke="midnightblue" points="1005.91,-25.49 1014.09,-18.75 1003.49,-18.91 1005.91,-25.49"/>
</g>
<!-- Node30 -->
<g id="node30" class="node">
<title>Node30</title>
<g id="a_node30"><a xlink:title=" ">
<polygon fill="white" stroke="#bfbfbf" points="773.19,-0.5 773.19,-19.5 837.19,-19.5 837.19,-0.5 773.19,-0.5"/>
<text text-anchor="middle" x="805.19" y="-7.5" font-family="Helvetica,sans-Serif" font-size="10.00">algorithm</text>
</a>
</g>
</g>
<!-- Node29&#45;&gt;Node30 -->
<g id="edge33" class="edge">
<title>Node29&#45;&gt;Node30</title>
<path fill="none" stroke="midnightblue" d="M863.45,-61.98C852.85,-52.7 835.67,-37.67 822.71,-26.33"/>
<polygon fill="midnightblue" stroke="midnightblue" points="824.75,-23.46 814.92,-19.51 820.14,-28.73 824.75,-23.46"/>
</g>
<!-- Node31 -->
<g id="node31" class="node">
<title>Node31</title>
<g id="a_node31"><a xlink:title=" ">
<polygon fill="white" stroke="#bfbfbf" points="855.69,-0.5 855.69,-19.5 904.69,-19.5 904.69,-0.5 855.69,-0.5"/>
<text text-anchor="middle" x="880.19" y="-7.5" font-family="Helvetica,sans-Serif" font-size="10.00">cctype</text>
</a>
</g>
</g>
<!-- Node29&#45;&gt;Node31 -->
<g id="edge35" class="edge">
<title>Node29&#45;&gt;Node31</title>
<path fill="none" stroke="midnightblue" d="M874.2,-61.98C875.18,-53.58 876.72,-40.48 878,-29.66"/>
<polygon fill="midnightblue" stroke="midnightblue" points="881.5,-29.85 879.19,-19.51 874.55,-29.03 881.5,-29.85"/>
</g>
<!-- Node29&#45;&gt;Node32 -->
<g id="edge36" class="edge">
<title>Node29&#45;&gt;Node32</title>
<path fill="none" stroke="midnightblue" d="M853.13,-61.98C829.43,-51.9 789.79,-35.05 762.61,-23.5"/>
<polygon fill="midnightblue" stroke="midnightblue" points="763.79,-20.2 753.21,-19.51 761.05,-26.64 763.79,-20.2"/>
</g>
<!-- Node33 -->
<g id="node33" class="node">
<title>Node33</title>
<g id="a_node33"><a xlink:title=" ">
<polygon fill="white" stroke="#bfbfbf" points="922.69,-0.5 922.69,-19.5 995.69,-19.5 995.69,-0.5 922.69,-0.5"/>
<text text-anchor="middle" x="959.19" y="-7.5" font-family="Helvetica,sans-Serif" font-size="10.00">string_view</text>
</a>
</g>
</g>
<!-- Node29&#45;&gt;Node33 -->
<g id="edge37" class="edge">
<title>Node29&#45;&gt;Node33</title>
<path fill="none" stroke="midnightblue" d="M885.51,-61.98C899.31,-52.43 921.89,-36.81 938.42,-25.37"/>
<polygon fill="midnightblue" stroke="midnightblue" points="940.66,-28.08 946.89,-19.51 936.68,-22.32 940.66,-28.08"/>
</g>
<!-- Node34&#45;&gt;Node17 -->
<g id="edge50" class="edge">
<title>Node34&#45;&gt;Node17</title>
<path fill="none" stroke="midnightblue" d="M886.01,-126.17C852.24,-119.68 800.43,-107.33 759.19,-87 726.44,-70.86 693.6,-43.59 674.62,-26.49"/>
<polygon fill="midnightblue" stroke="midnightblue" points="676.88,-23.81 667.15,-19.63 672.15,-28.97 676.88,-23.81"/>
</g>
<!-- Node34&#45;&gt;Node26 -->
<g id="edge51" class="edge">
<title>Node34&#45;&gt;Node26</title>
<path fill="none" stroke="midnightblue" d="M929.72,-123.21C944.64,-108.15 976.88,-77 1008.19,-56 1027.04,-43.36 1049.94,-31.95 1067.93,-23.79"/>
<polygon fill="midnightblue" stroke="midnightblue" points="1069.64,-26.86 1077.36,-19.6 1066.8,-20.46 1069.64,-26.86"/>
</g>
<!-- Node34&#45;&gt;Node29 -->
<g id="edge41" class="edge">
<title>Node34&#45;&gt;Node29</title>
<path fill="none" stroke="midnightblue" d="M914.32,-123.48C907.04,-114.46 895.4,-100.02 886.35,-88.81"/>
<polygon fill="midnightblue" stroke="midnightblue" points="889.06,-86.59 880.06,-81.01 883.61,-90.99 889.06,-86.59"/>
</g>
<!-- Node35 -->
<g id="node35" class="node">
<title>Node35</title>
<g id="a_node35"><a xlink:href="serialized_8h.html" target="_top" xlink:title=" ">
<polygon fill="white" stroke="black" points="1126.69,-62 1126.69,-81 1199.69,-81 1199.69,-62 1126.69,-62"/>
<text text-anchor="middle" x="1163.19" y="-69" font-family="Helvetica,sans-Serif" font-size="10.00">serialized.h</text>
</a>
</g>
</g>
<!-- Node34&#45;&gt;Node35 -->
<g id="edge42" class="edge">
<title>Node34&#45;&gt;Node35</title>
<path fill="none" stroke="midnightblue" d="M955.87,-123.48C998.72,-112.94 1071.74,-94.99 1118.69,-83.44"/>
<polygon fill="midnightblue" stroke="midnightblue" points="1119.71,-86.8 1128.58,-81.01 1118.04,-80 1119.71,-86.8"/>
</g>
<!-- Node37 -->
<g id="node37" class="node">
<title>Node37</title>
<g id="a_node37"><a xlink:title=" ">
<polygon fill="white" stroke="#bfbfbf" points="578.19,-62 578.19,-81 636.19,-81 636.19,-62 578.19,-62"/>
<text text-anchor="middle" x="607.19" y="-69" font-family="Helvetica,sans-Serif" font-size="10.00">memory</text>
</a>
</g>
</g>
<!-- Node34&#45;&gt;Node37 -->
<g id="edge48" class="edge">
<title>Node34&#45;&gt;Node37</title>
<path fill="none" stroke="midnightblue" d="M886.17,-128.01C834.18,-121.68 733.71,-107.87 650.19,-87 646.8,-86.15 643.3,-85.16 639.82,-84.11"/>
<polygon fill="midnightblue" stroke="midnightblue" points="640.79,-80.74 630.2,-81.02 638.65,-87.41 640.79,-80.74"/>
</g>
<!-- Node38 -->
<g id="node38" class="node">
<title>Node38</title>
<g id="a_node38"><a xlink:title=" ">
<polygon fill="white" stroke="#bfbfbf" points="768.69,-62 768.69,-81 809.69,-81 809.69,-62 768.69,-62"/>
<text text-anchor="middle" x="789.19" y="-69" font-family="Helvetica,sans-Serif" font-size="10.00">tuple</text>
</a>
</g>
</g>
<!-- Node34&#45;&gt;Node38 -->
<g id="edge49" class="edge">
<title>Node34&#45;&gt;Node38</title>
<path fill="none" stroke="midnightblue" d="M901.16,-123.41C880.53,-114.5 847.48,-100.07 819.19,-87 818.04,-86.47 816.87,-85.92 815.68,-85.36"/>
<polygon fill="midnightblue" stroke="midnightblue" points="817.13,-82.18 806.59,-81.04 814.12,-88.5 817.13,-82.18"/>
</g>
<!-- Node35&#45;&gt;Node20 -->
<g id="edge44" class="edge">
<title>Node35&#45;&gt;Node20</title>
<path fill="none" stroke="midnightblue" d="M1186.77,-61.9C1193.6,-59.68 1201.13,-57.5 1208.19,-56 1355.11,-24.81 1394.99,-37.19 1544.19,-20 1556.46,-18.59 1569.87,-16.96 1581.81,-15.48"/>
<polygon fill="midnightblue" stroke="midnightblue" points="1582.38,-18.93 1591.87,-14.22 1581.51,-11.99 1582.38,-18.93"/>
</g>
<!-- Node35&#45;&gt;Node25 -->
<g id="edge43" class="edge">
<title>Node35&#45;&gt;Node25</title>
<path fill="none" stroke="midnightblue" d="M1189.82,-61.85C1195.86,-59.91 1202.24,-57.87 1208.19,-56 1246.46,-43.98 1290.46,-30.56 1320.27,-21.53"/>
<polygon fill="midnightblue" stroke="midnightblue" points="1321.63,-24.78 1330.19,-18.53 1319.6,-18.08 1321.63,-24.78"/>
</g>
<!-- Node35&#45;&gt;Node26 -->
<g id="edge47" class="edge">
<title>Node35&#45;&gt;Node26</title>
<path fill="none" stroke="midnightblue" d="M1153.88,-61.98C1143.74,-52.7 1127.33,-37.67 1114.94,-26.33"/>
<polygon fill="midnightblue" stroke="midnightblue" points="1117.23,-23.68 1107.49,-19.51 1112.5,-28.84 1117.23,-23.68"/>
</g>
<!-- Node35&#45;&gt;Node32 -->
<g id="edge46" class="edge">
<title>Node35&#45;&gt;Node32</title>
<path fill="none" stroke="midnightblue" d="M1126.57,-67.8C1057.58,-62.29 903.59,-48.02 765.36,-19.96"/>
<polygon fill="midnightblue" stroke="midnightblue" points="765.94,-16.5 755.44,-17.91 764.53,-23.36 765.94,-16.5"/>
</g>
<!-- Node35&#45;&gt;Node36 -->
<g id="edge45" class="edge">
<title>Node35&#45;&gt;Node36</title>
<path fill="none" stroke="midnightblue" d="M1188.27,-61.85C1194.72,-59.79 1201.68,-57.69 1208.19,-56 1284.48,-36.19 1307.12,-36.53 1388.43,-20.11"/>
<polygon fill="midnightblue" stroke="midnightblue" points="1389.55,-23.46 1398.64,-18.02 1388.14,-16.6 1389.55,-23.46"/>
</g>
<!-- Node43&#45;&gt;Node21 -->
<g id="edge65" class="edge">
<title>Node43&#45;&gt;Node21</title>
<path fill="none" stroke="midnightblue" d="M776.64,-235.47C817.37,-224.99 872.3,-210.84 910.01,-201.12"/>
<polygon fill="midnightblue" stroke="midnightblue" points="911.36,-204.39 920.17,-198.51 909.61,-197.61 911.36,-204.39"/>
</g>
<!-- Node44 -->
<g id="node44" class="node">
<title>Node44</title>
<g id="a_node44"><a xlink:href="lfs__interface_8h.html" target="_top" xlink:title=" ">
<polygon fill="white" stroke="black" points="500.69,-123.5 500.69,-142.5 631.69,-142.5 631.69,-123.5 500.69,-123.5"/>
<text text-anchor="middle" x="566.19" y="-130.5" font-family="Helvetica,sans-Serif" font-size="10.00">indexing/lfs_interface.h</text>
</a>
</g>
</g>
<!-- Node43&#45;&gt;Node44 -->
<g id="edge66" class="edge">
<title>Node43&#45;&gt;Node44</title>
<path fill="none" stroke="midnightblue" d="M731.31,-235.31C739.92,-219.91 749.8,-195.35 737.19,-179 724.9,-163.05 680.3,-151.63 639.74,-144.29"/>
<polygon fill="midnightblue" stroke="midnightblue" points="640.26,-140.83 629.8,-142.55 639.05,-147.72 640.26,-140.83"/>
</g>
<!-- Node44&#45;&gt;Node26 -->
<g id="edge70" class="edge">
<title>Node44&#45;&gt;Node26</title>
<path fill="none" stroke="midnightblue" d="M632.06,-124.01C735.28,-111.46 923.8,-88.4 927.19,-87 947.98,-78.41 947.4,-66.69 967.19,-56 984.31,-46.76 1032.1,-31.23 1064.97,-21.05"/>
<polygon fill="midnightblue" stroke="midnightblue" points="1066.11,-24.36 1074.64,-18.07 1064.05,-17.67 1066.11,-24.36"/>
</g>
<!-- Node44&#45;&gt;Node32 -->
<g id="edge69" class="edge">
<title>Node44&#45;&gt;Node32</title>
<path fill="none" stroke="midnightblue" d="M583.42,-123.43C599.83,-114.98 624.95,-101.3 645.19,-87 671.83,-68.18 699.89,-42.85 716.98,-26.71"/>
<polygon fill="midnightblue" stroke="midnightblue" points="719.61,-29.04 724.42,-19.6 714.77,-23.98 719.61,-29.04"/>
</g>
<!-- Node44&#45;&gt;Node37 -->
<g id="edge68" class="edge">
<title>Node44&#45;&gt;Node37</title>
<path fill="none" stroke="midnightblue" d="M572.07,-123.48C578.16,-114.64 587.84,-100.59 595.5,-89.48"/>
<polygon fill="midnightblue" stroke="midnightblue" points="598.54,-91.23 601.33,-81.01 592.77,-87.26 598.54,-91.23"/>
</g>
<!-- Node45 -->
<g id="node45" class="node">
<title>Node45</title>
<g id="a_node45"><a xlink:href="node__subsystem__interface_8h.html" target="_top" xlink:title=" ">
<polygon fill="white" stroke="black" points="444.19,-56.5 444.19,-86.5 560.19,-86.5 560.19,-56.5 444.19,-56.5"/>
<text text-anchor="start" x="452.19" y="-74.5" font-family="Helvetica,sans-Serif" font-size="10.00">ccf/node_subsystem</text>
<text text-anchor="middle" x="502.19" y="-63.5" font-family="Helvetica,sans-Serif" font-size="10.00">_interface.h</text>
</a>
</g>
</g>
<!-- Node44&#45;&gt;Node45 -->
<g id="edge67" class="edge">
<title>Node44&#45;&gt;Node45</title>
<path fill="none" stroke="midnightblue" d="M557.02,-123.48C548.6,-115.64 535.77,-103.71 524.64,-93.37"/>
<polygon fill="midnightblue" stroke="midnightblue" points="526.98,-90.77 517.28,-86.52 522.22,-95.9 526.98,-90.77"/>
</g>
</g>
</svg>
