<?xml version="1.0" encoding="UTF-8" standalone="no"?>
<!DOCTYPE svg PUBLIC "-//W3C//DTD SVG 1.1//EN"
 "http://www.w3.org/Graphics/SVG/1.1/DTD/svg11.dtd">
<!-- Generated by graphviz version 2.43.0 (0)
 -->
<!-- Title: src/host/load_monitor.h Pages: 1 -->
<svg width="1894pt" height="364pt"
 viewBox="0.00 0.00 1894.00 364.00" xmlns="http://www.w3.org/2000/svg" xmlns:xlink="http://www.w3.org/1999/xlink">
<g id="graph0" class="graph" transform="scale(1 1) rotate(0) translate(4 360)">
<title>src/host/load_monitor.h</title>
<polygon fill="white" stroke="transparent" points="-4,4 -4,-360 1890,-360 1890,4 -4,4"/>
<!-- Node1 -->
<g id="node1" class="node">
<title>Node1</title>
<g id="a_node1"><a xlink:title=" ">
<polygon fill="#bfbfbf" stroke="black" points="1429.5,-336.5 1429.5,-355.5 1560.5,-355.5 1560.5,-336.5 1429.5,-336.5"/>
<text text-anchor="middle" x="1495" y="-343.5" font-family="Helvetica,sans-Serif" font-size="10.00">src/host/load_monitor.h</text>
</a>
</g>
</g>
<!-- Node2 -->
<g id="node2" class="node">
<title>Node2</title>
<g id="a_node2"><a xlink:href="messaging_8h.html" target="_top" xlink:title=" ">
<polygon fill="white" stroke="black" points="1096.5,-280.5 1096.5,-299.5 1189.5,-299.5 1189.5,-280.5 1096.5,-280.5"/>
<text text-anchor="middle" x="1143" y="-287.5" font-family="Helvetica,sans-Serif" font-size="10.00">ds/messaging.h</text>
</a>
</g>
</g>
<!-- Node1&#45;&gt;Node2 -->
<g id="edge1" class="edge">
<title>Node1&#45;&gt;Node2</title>
<path fill="none" stroke="midnightblue" d="M1439.22,-336.44C1373.72,-326.39 1265.64,-309.81 1199.73,-299.7"/>
<polygon fill="midnightblue" stroke="midnightblue" points="1199.94,-296.19 1189.52,-298.14 1198.88,-303.11 1199.94,-296.19"/>
</g>
<!-- Node43 -->
<g id="node43" class="node">
<title>Node43</title>
<g id="a_node43"><a xlink:href="timer_8h.html" target="_top" xlink:title=" ">
<polygon fill="white" stroke="black" points="1766.5,-280.5 1766.5,-299.5 1817.5,-299.5 1817.5,-280.5 1766.5,-280.5"/>
<text text-anchor="middle" x="1792" y="-287.5" font-family="Helvetica,sans-Serif" font-size="10.00">timer.h</text>
</a>
</g>
</g>
<!-- Node1&#45;&gt;Node43 -->
<g id="edge64" class="edge">
<title>Node1&#45;&gt;Node43</title>
<path fill="none" stroke="midnightblue" d="M1542.06,-336.44C1601.56,-325.63 1702.67,-307.24 1756.24,-297.5"/>
<polygon fill="midnightblue" stroke="midnightblue" points="1757.08,-300.91 1766.29,-295.67 1755.82,-294.02 1757.08,-300.91"/>
</g>
<!-- Node3 -->
<g id="node3" class="node">
<title>Node3</title>
<g id="a_node3"><a xlink:href="logger_8h.html" target="_top" xlink:title=" ">
<polygon fill="white" stroke="black" points="1321.5,-224.5 1321.5,-243.5 1408.5,-243.5 1408.5,-224.5 1321.5,-224.5"/>
<text text-anchor="middle" x="1365" y="-231.5" font-family="Helvetica,sans-Serif" font-size="10.00">ccf/ds/logger.h</text>
</a>
</g>
</g>
<!-- Node2&#45;&gt;Node3 -->
<g id="edge2" class="edge">
<title>Node2&#45;&gt;Node3</title>
<path fill="none" stroke="midnightblue" d="M1178.18,-280.44C1216.58,-271.1 1278.18,-256.12 1320.06,-245.93"/>
<polygon fill="midnightblue" stroke="midnightblue" points="1321.1,-249.28 1329.99,-243.52 1319.44,-242.48 1321.1,-249.28"/>
</g>
<!-- Node10 -->
<g id="node10" class="node">
<title>Node10</title>
<g id="a_node10"><a xlink:title=" ">
<polygon fill="white" stroke="#bfbfbf" points="1710,-112.5 1710,-131.5 1748,-131.5 1748,-112.5 1710,-112.5"/>
<text text-anchor="middle" x="1729" y="-119.5" font-family="Helvetica,sans-Serif" font-size="10.00">map</text>
</a>
</g>
</g>
<!-- Node2&#45;&gt;Node10 -->
<g id="edge62" class="edge">
<title>Node2&#45;&gt;Node10</title>
<path fill="none" stroke="midnightblue" d="M1189.74,-287.63C1313.6,-282.97 1645.78,-263.55 1719,-188 1730.66,-175.97 1732.24,-156.37 1731.46,-141.83"/>
<polygon fill="midnightblue" stroke="midnightblue" points="1734.91,-141.13 1730.48,-131.5 1727.94,-141.79 1734.91,-141.13"/>
</g>
<!-- Node18 -->
<g id="node18" class="node">
<title>Node18</title>
<g id="a_node18"><a xlink:href="ring__buffer_8h.html" target="_top" xlink:title=" ">
<polygon fill="white" stroke="black" points="435.5,-224.5 435.5,-243.5 512.5,-243.5 512.5,-224.5 435.5,-224.5"/>
<text text-anchor="middle" x="474" y="-231.5" font-family="Helvetica,sans-Serif" font-size="10.00">ring_buffer.h</text>
</a>
</g>
</g>
<!-- Node2&#45;&gt;Node18 -->
<g id="edge19" class="edge">
<title>Node2&#45;&gt;Node18</title>
<path fill="none" stroke="midnightblue" d="M1096.49,-285.25C974.57,-275.41 646.63,-248.93 522.5,-238.92"/>
<polygon fill="midnightblue" stroke="midnightblue" points="522.78,-235.43 512.53,-238.11 522.21,-242.4 522.78,-235.43"/>
</g>
<!-- Node36 -->
<g id="node36" class="node">
<title>Node36</title>
<g id="a_node36"><a xlink:title=" ">
<polygon fill="white" stroke="#bfbfbf" points="1001.5,-0.5 1001.5,-19.5 1066.5,-19.5 1066.5,-0.5 1001.5,-0.5"/>
<text text-anchor="middle" x="1034" y="-7.5" font-family="Helvetica,sans-Serif" font-size="10.00">stdexcept</text>
</a>
</g>
</g>
<!-- Node2&#45;&gt;Node36 -->
<g id="edge63" class="edge">
<title>Node2&#45;&gt;Node36</title>
<path fill="none" stroke="midnightblue" d="M1124.58,-280.46C1096.21,-266.09 1043.08,-234.06 1024,-188 1009.96,-154.11 1052.6,-134.3 1065,-76 1066.85,-67.31 1067.64,-64.49 1065,-56 1061.77,-45.62 1055.22,-35.52 1048.98,-27.53"/>
<polygon fill="midnightblue" stroke="midnightblue" points="1051.58,-25.19 1042.48,-19.77 1046.21,-29.68 1051.58,-25.19"/>
</g>
<!-- Node39 -->
<g id="node39" class="node">
<title>Node39</title>
<g id="a_node39"><a xlink:title=" ">
<polygon fill="white" stroke="#bfbfbf" points="880,-112.5 880,-131.5 930,-131.5 930,-112.5 880,-112.5"/>
<text text-anchor="middle" x="905" y="-119.5" font-family="Helvetica,sans-Serif" font-size="10.00">atomic</text>
</a>
</g>
</g>
<!-- Node2&#45;&gt;Node39 -->
<g id="edge60" class="edge">
<title>Node2&#45;&gt;Node39</title>
<path fill="none" stroke="midnightblue" d="M1096.28,-283.33C1064.26,-277.59 1022.13,-266.24 991,-244 952.86,-216.75 925.51,-167.16 912.87,-140.71"/>
<polygon fill="midnightblue" stroke="midnightblue" points="915.99,-139.12 908.62,-131.51 909.63,-142.06 915.99,-139.12"/>
</g>
<!-- Node42 -->
<g id="node42" class="node">
<title>Node42</title>
<g id="a_node42"><a xlink:title=" ">
<polygon fill="white" stroke="#bfbfbf" points="1089.5,-224.5 1089.5,-243.5 1196.5,-243.5 1196.5,-224.5 1089.5,-224.5"/>
<text text-anchor="middle" x="1143" y="-231.5" font-family="Helvetica,sans-Serif" font-size="10.00">condition_variable</text>
</a>
</g>
</g>
<!-- Node2&#45;&gt;Node42 -->
<g id="edge61" class="edge">
<title>Node2&#45;&gt;Node42</title>
<path fill="none" stroke="midnightblue" d="M1143,-280.08C1143,-273.01 1143,-262.86 1143,-253.99"/>
<polygon fill="midnightblue" stroke="midnightblue" points="1146.5,-253.75 1143,-243.75 1139.5,-253.75 1146.5,-253.75"/>
</g>
<!-- Node4 -->
<g id="node4" class="node">
<title>Node4</title>
<g id="a_node4"><a xlink:href="enum__formatter_8h.html" target="_top" xlink:title=" ">
<polygon fill="white" stroke="black" points="1033,-168.5 1033,-187.5 1169,-187.5 1169,-168.5 1033,-168.5"/>
<text text-anchor="middle" x="1101" y="-175.5" font-family="Helvetica,sans-Serif" font-size="10.00">ccf/ds/enum_formatter.h</text>
</a>
</g>
</g>
<!-- Node3&#45;&gt;Node4 -->
<g id="edge3" class="edge">
<title>Node3&#45;&gt;Node4</title>
<path fill="none" stroke="midnightblue" d="M1323.17,-224.44C1276.92,-214.98 1202.39,-199.74 1152.56,-189.55"/>
<polygon fill="midnightblue" stroke="midnightblue" points="1153.13,-186.09 1142.64,-187.52 1151.73,-192.95 1153.13,-186.09"/>
</g>
<!-- Node5 -->
<g id="node5" class="node">
<title>Node5</title>
<g id="a_node5"><a xlink:title=" ">
<polygon fill="white" stroke="#bfbfbf" points="1206.5,-112.5 1206.5,-131.5 1285.5,-131.5 1285.5,-112.5 1206.5,-112.5"/>
<text text-anchor="middle" x="1246" y="-119.5" font-family="Helvetica,sans-Serif" font-size="10.00">fmt/format.h</text>
</a>
</g>
</g>
<!-- Node3&#45;&gt;Node5 -->
<g id="edge13" class="edge">
<title>Node3&#45;&gt;Node5</title>
<path fill="none" stroke="midnightblue" d="M1408.52,-225.16C1450.73,-215.65 1505.12,-197.18 1481,-168 1457.98,-140.16 1357.76,-129.37 1295.87,-125.32"/>
<polygon fill="midnightblue" stroke="midnightblue" points="1295.73,-121.81 1285.53,-124.69 1295.3,-128.8 1295.73,-121.81"/>
</g>
<!-- Node6 -->
<g id="node6" class="node">
<title>Node6</title>
<g id="a_node6"><a xlink:href="thread__ids_8h.html" target="_top" xlink:title=" ">
<polygon fill="white" stroke="black" points="1602,-168.5 1602,-187.5 1710,-187.5 1710,-168.5 1602,-168.5"/>
<text text-anchor="middle" x="1656" y="-175.5" font-family="Helvetica,sans-Serif" font-size="10.00">ccf/ds/thread_ids.h</text>
</a>
</g>
</g>
<!-- Node3&#45;&gt;Node6 -->
<g id="edge5" class="edge">
<title>Node3&#45;&gt;Node6</title>
<path fill="none" stroke="midnightblue" d="M1408.57,-224.92C1459.46,-215.47 1543.81,-199.82 1599.65,-189.46"/>
<polygon fill="midnightblue" stroke="midnightblue" points="1600.53,-192.85 1609.73,-187.59 1599.26,-185.97 1600.53,-192.85"/>
</g>
<!-- Node12 -->
<g id="node12" class="node">
<title>Node12</title>
<g id="a_node12"><a xlink:title=" ">
<polygon fill="white" stroke="#bfbfbf" points="1187.5,-168.5 1187.5,-187.5 1266.5,-187.5 1266.5,-168.5 1187.5,-168.5"/>
<text text-anchor="middle" x="1227" y="-175.5" font-family="Helvetica,sans-Serif" font-size="10.00">fmt/chrono.h</text>
</a>
</g>
</g>
<!-- Node3&#45;&gt;Node12 -->
<g id="edge12" class="edge">
<title>Node3&#45;&gt;Node12</title>
<path fill="none" stroke="midnightblue" d="M1343.13,-224.44C1320.22,-215.48 1284.02,-201.31 1258.13,-191.18"/>
<polygon fill="midnightblue" stroke="midnightblue" points="1259.35,-187.9 1248.76,-187.52 1256.8,-194.42 1259.35,-187.9"/>
</g>
<!-- Node13 -->
<g id="node13" class="node">
<title>Node13</title>
<g id="a_node13"><a xlink:title=" ">
<polygon fill="white" stroke="#bfbfbf" points="1284,-168.5 1284,-187.5 1344,-187.5 1344,-168.5 1284,-168.5"/>
<text text-anchor="middle" x="1314" y="-175.5" font-family="Helvetica,sans-Serif" font-size="10.00">iostream</text>
</a>
</g>
</g>
<!-- Node3&#45;&gt;Node13 -->
<g id="edge14" class="edge">
<title>Node3&#45;&gt;Node13</title>
<path fill="none" stroke="midnightblue" d="M1356.58,-224.08C1349.15,-216.22 1338.15,-204.57 1329.19,-195.08"/>
<polygon fill="midnightblue" stroke="midnightblue" points="1331.68,-192.62 1322.26,-187.75 1326.59,-197.42 1331.68,-192.62"/>
</g>
<!-- Node14 -->
<g id="node14" class="node">
<title>Node14</title>
<g id="a_node14"><a xlink:title=" ">
<polygon fill="white" stroke="#bfbfbf" points="1362,-168.5 1362,-187.5 1472,-187.5 1472,-168.5 1362,-168.5"/>
<text text-anchor="middle" x="1417" y="-175.5" font-family="Helvetica,sans-Serif" font-size="10.00">nlohmann/json.hpp</text>
</a>
</g>
</g>
<!-- Node3&#45;&gt;Node14 -->
<g id="edge15" class="edge">
<title>Node3&#45;&gt;Node14</title>
<path fill="none" stroke="midnightblue" d="M1373.59,-224.08C1381.16,-216.22 1392.38,-204.57 1401.51,-195.08"/>
<polygon fill="midnightblue" stroke="midnightblue" points="1404.16,-197.38 1408.57,-187.75 1399.12,-192.53 1404.16,-197.38"/>
</g>
<!-- Node15 -->
<g id="node15" class="node">
<title>Node15</title>
<g id="a_node15"><a xlink:title=" ">
<polygon fill="white" stroke="#bfbfbf" points="948,-112.5 948,-131.5 1004,-131.5 1004,-112.5 948,-112.5"/>
<text text-anchor="middle" x="976" y="-119.5" font-family="Helvetica,sans-Serif" font-size="10.00">optional</text>
</a>
</g>
</g>
<!-- Node3&#45;&gt;Node15 -->
<g id="edge16" class="edge">
<title>Node3&#45;&gt;Node15</title>
<path fill="none" stroke="midnightblue" d="M1321.29,-231.44C1240.94,-227.9 1073.44,-217.16 1024,-188 1005.74,-177.23 992.31,-156.52 984.37,-141.37"/>
<polygon fill="midnightblue" stroke="midnightblue" points="987.3,-139.39 979.76,-131.95 981.02,-142.47 987.3,-139.39"/>
</g>
<!-- Node16 -->
<g id="node16" class="node">
<title>Node16</title>
<g id="a_node16"><a xlink:title=" ">
<polygon fill="white" stroke="#bfbfbf" points="1528,-168.5 1528,-187.5 1584,-187.5 1584,-168.5 1528,-168.5"/>
<text text-anchor="middle" x="1556" y="-175.5" font-family="Helvetica,sans-Serif" font-size="10.00">sstream</text>
</a>
</g>
</g>
<!-- Node3&#45;&gt;Node16 -->
<g id="edge17" class="edge">
<title>Node3&#45;&gt;Node16</title>
<path fill="none" stroke="midnightblue" d="M1395.26,-224.44C1428.53,-215.04 1482.03,-199.91 1518.07,-189.72"/>
<polygon fill="midnightblue" stroke="midnightblue" points="1519.07,-193.08 1527.75,-186.99 1517.17,-186.34 1519.07,-193.08"/>
</g>
<!-- Node17 -->
<g id="node17" class="node">
<title>Node17</title>
<g id="a_node17"><a xlink:title=" ">
<polygon fill="white" stroke="#bfbfbf" points="1084.5,-0.5 1084.5,-19.5 1153.5,-19.5 1153.5,-0.5 1084.5,-0.5"/>
<text text-anchor="middle" x="1119" y="-7.5" font-family="Helvetica,sans-Serif" font-size="10.00">type_traits</text>
</a>
</g>
</g>
<!-- Node3&#45;&gt;Node17 -->
<g id="edge18" class="edge">
<title>Node3&#45;&gt;Node17</title>
<path fill="none" stroke="midnightblue" d="M1408.69,-233.7C1529.68,-234.25 1853.91,-225.46 1757,-112 1680.15,-22.02 1296.44,-11.76 1164.02,-10.93"/>
<polygon fill="midnightblue" stroke="midnightblue" points="1163.84,-7.42 1153.83,-10.88 1163.81,-14.42 1163.84,-7.42"/>
</g>
<!-- Node4&#45;&gt;Node5 -->
<g id="edge4" class="edge">
<title>Node4&#45;&gt;Node5</title>
<path fill="none" stroke="midnightblue" d="M1123.98,-168.44C1148.16,-159.44 1186.42,-145.19 1213.65,-135.05"/>
<polygon fill="midnightblue" stroke="midnightblue" points="1214.98,-138.29 1223.13,-131.52 1212.54,-131.73 1214.98,-138.29"/>
</g>
<!-- Node6&#45;&gt;Node5 -->
<g id="edge6" class="edge">
<title>Node6&#45;&gt;Node5</title>
<path fill="none" stroke="midnightblue" d="M1601.71,-169.2C1598.76,-168.79 1595.85,-168.39 1593,-168 1487.3,-153.6 1363.33,-137.78 1295.9,-129.27"/>
<polygon fill="midnightblue" stroke="midnightblue" points="1295.93,-125.74 1285.57,-127.96 1295.06,-132.69 1295.93,-125.74"/>
</g>
<!-- Node7 -->
<g id="node7" class="node">
<title>Node7</title>
<g id="a_node7"><a xlink:title=" ">
<polygon fill="white" stroke="#bfbfbf" points="1526,-112.5 1526,-131.5 1612,-131.5 1612,-112.5 1526,-112.5"/>
<text text-anchor="middle" x="1569" y="-119.5" font-family="Helvetica,sans-Serif" font-size="10.00">fmt/ostream.h</text>
</a>
</g>
</g>
<!-- Node6&#45;&gt;Node7 -->
<g id="edge7" class="edge">
<title>Node6&#45;&gt;Node7</title>
<path fill="none" stroke="midnightblue" d="M1642.02,-168.32C1628.45,-159.9 1607.62,-146.97 1591.68,-137.07"/>
<polygon fill="midnightblue" stroke="midnightblue" points="1593.29,-133.95 1582.94,-131.65 1589.59,-139.9 1593.29,-133.95"/>
</g>
<!-- Node8 -->
<g id="node8" class="node">
<title>Node8</title>
<g id="a_node8"><a xlink:title=" ">
<polygon fill="white" stroke="#bfbfbf" points="1630.5,-112.5 1630.5,-131.5 1691.5,-131.5 1691.5,-112.5 1630.5,-112.5"/>
<text text-anchor="middle" x="1661" y="-119.5" font-family="Helvetica,sans-Serif" font-size="10.00">fmt/std.h</text>
</a>
</g>
</g>
<!-- Node6&#45;&gt;Node8 -->
<g id="edge8" class="edge">
<title>Node6&#45;&gt;Node8</title>
<path fill="none" stroke="midnightblue" d="M1656.83,-168.08C1657.48,-161.01 1658.42,-150.86 1659.24,-141.99"/>
<polygon fill="midnightblue" stroke="midnightblue" points="1662.75,-142.03 1660.19,-131.75 1655.78,-141.39 1662.75,-142.03"/>
</g>
<!-- Node9 -->
<g id="node9" class="node">
<title>Node9</title>
<g id="a_node9"><a xlink:title=" ">
<polygon fill="white" stroke="#bfbfbf" points="1398,-112.5 1398,-131.5 1442,-131.5 1442,-112.5 1398,-112.5"/>
<text text-anchor="middle" x="1420" y="-119.5" font-family="Helvetica,sans-Serif" font-size="10.00">limits</text>
</a>
</g>
</g>
<!-- Node6&#45;&gt;Node9 -->
<g id="edge9" class="edge">
<title>Node6&#45;&gt;Node9</title>
<path fill="none" stroke="midnightblue" d="M1613.01,-168.43C1573.51,-160.36 1513.13,-147.55 1452.1,-132.16"/>
<polygon fill="midnightblue" stroke="midnightblue" points="1452.86,-128.74 1442.3,-129.67 1451.13,-135.52 1452.86,-128.74"/>
</g>
<!-- Node6&#45;&gt;Node10 -->
<g id="edge10" class="edge">
<title>Node6&#45;&gt;Node10</title>
<path fill="none" stroke="midnightblue" d="M1667.73,-168.32C1678.84,-160.11 1695.74,-147.6 1708.98,-137.81"/>
<polygon fill="midnightblue" stroke="midnightblue" points="1711.1,-140.59 1717.06,-131.83 1706.94,-134.97 1711.1,-140.59"/>
</g>
<!-- Node11 -->
<g id="node11" class="node">
<title>Node11</title>
<g id="a_node11"><a xlink:title=" ">
<polygon fill="white" stroke="#bfbfbf" points="1460,-112.5 1460,-131.5 1508,-131.5 1508,-112.5 1460,-112.5"/>
<text text-anchor="middle" x="1484" y="-119.5" font-family="Helvetica,sans-Serif" font-size="10.00">thread</text>
</a>
</g>
</g>
<!-- Node6&#45;&gt;Node11 -->
<g id="edge11" class="edge">
<title>Node6&#45;&gt;Node11</title>
<path fill="none" stroke="midnightblue" d="M1628.75,-168.44C1598.74,-159.02 1550.47,-143.87 1518.01,-133.68"/>
<polygon fill="midnightblue" stroke="midnightblue" points="1518.66,-130.21 1508.07,-130.56 1516.57,-136.89 1518.66,-130.21"/>
</g>
<!-- Node19 -->
<g id="node19" class="node">
<title>Node19</title>
<g id="a_node19"><a xlink:href="ccf__memcpy_8h.html" target="_top" xlink:title=" ">
<polygon fill="white" stroke="black" points="88,-56.5 88,-75.5 174,-75.5 174,-56.5 88,-56.5"/>
<text text-anchor="middle" x="131" y="-63.5" font-family="Helvetica,sans-Serif" font-size="10.00">ccf_memcpy.h</text>
</a>
</g>
</g>
<!-- Node18&#45;&gt;Node19 -->
<g id="edge20" class="edge">
<title>Node18&#45;&gt;Node19</title>
<path fill="none" stroke="midnightblue" d="M456.04,-224.31C399.55,-196.97 225.22,-112.6 157.91,-80.02"/>
<polygon fill="midnightblue" stroke="midnightblue" points="159.31,-76.81 148.78,-75.61 156.26,-83.11 159.31,-76.81"/>
</g>
<!-- Node20 -->
<g id="node20" class="node">
<title>Node20</title>
<g id="a_node20"><a xlink:title=" ">
<polygon fill="white" stroke="#bfbfbf" points="106,-0.5 106,-19.5 156,-19.5 156,-0.5 106,-0.5"/>
<text text-anchor="middle" x="131" y="-7.5" font-family="Helvetica,sans-Serif" font-size="10.00">cstring</text>
</a>
</g>
</g>
<!-- Node18&#45;&gt;Node20 -->
<g id="edge57" class="edge">
<title>Node18&#45;&gt;Node20</title>
<path fill="none" stroke="midnightblue" d="M435.41,-231.28C352.81,-225.26 159.86,-198.14 79,-76 66.81,-57.59 87.7,-38 106.52,-25.2"/>
<polygon fill="midnightblue" stroke="midnightblue" points="108.63,-28 115.17,-19.66 104.86,-22.1 108.63,-28"/>
</g>
<!-- Node21 -->
<g id="node21" class="node">
<title>Node21</title>
<g id="a_node21"><a xlink:href="ring__buffer__types_8h.html" target="_top" xlink:title=" ">
<polygon fill="white" stroke="black" points="677,-168.5 677,-187.5 787,-187.5 787,-168.5 677,-168.5"/>
<text text-anchor="middle" x="732" y="-175.5" font-family="Helvetica,sans-Serif" font-size="10.00">ring_buffer_types.h</text>
</a>
</g>
</g>
<!-- Node18&#45;&gt;Node21 -->
<g id="edge22" class="edge">
<title>Node18&#45;&gt;Node21</title>
<path fill="none" stroke="midnightblue" d="M512.63,-224.92C557.47,-215.53 631.6,-200.01 681.11,-189.65"/>
<polygon fill="midnightblue" stroke="midnightblue" points="681.9,-193.06 690.98,-187.59 680.47,-186.21 681.9,-193.06"/>
</g>
<!-- Node40 -->
<g id="node40" class="node">
<title>Node40</title>
<g id="a_node40"><a xlink:title=" ">
<polygon fill="white" stroke="#bfbfbf" points="805.5,-168.5 805.5,-187.5 870.5,-187.5 870.5,-168.5 805.5,-168.5"/>
<text text-anchor="middle" x="838" y="-175.5" font-family="Helvetica,sans-Serif" font-size="10.00">functional</text>
</a>
</g>
</g>
<!-- Node18&#45;&gt;Node40 -->
<g id="edge58" class="edge">
<title>Node18&#45;&gt;Node40</title>
<path fill="none" stroke="midnightblue" d="M512.8,-228.5C571.61,-221.47 687.02,-206.9 795.36,-187.99"/>
<polygon fill="midnightblue" stroke="midnightblue" points="796.24,-191.39 805.49,-186.21 795.03,-184.5 796.24,-191.39"/>
</g>
<!-- Node41 -->
<g id="node41" class="node">
<title>Node41</title>
<g id="a_node41"><a xlink:title=" ">
<polygon fill="white" stroke="#bfbfbf" points="0,-168.5 0,-187.5 32,-187.5 32,-168.5 0,-168.5"/>
<text text-anchor="middle" x="16" y="-175.5" font-family="Helvetica,sans-Serif" font-size="10.00">set</text>
</a>
</g>
</g>
<!-- Node18&#45;&gt;Node41 -->
<g id="edge59" class="edge">
<title>Node18&#45;&gt;Node41</title>
<path fill="none" stroke="midnightblue" d="M435.27,-231.35C359.74,-227.6 187.75,-216.45 46,-188 44.71,-187.74 43.4,-187.45 42.08,-187.14"/>
<polygon fill="midnightblue" stroke="midnightblue" points="42.62,-183.66 32.05,-184.42 40.79,-190.41 42.62,-183.66"/>
</g>
<!-- Node19&#45;&gt;Node20 -->
<g id="edge21" class="edge">
<title>Node19&#45;&gt;Node20</title>
<path fill="none" stroke="midnightblue" d="M131,-56.08C131,-49.01 131,-38.86 131,-29.99"/>
<polygon fill="midnightblue" stroke="midnightblue" points="134.5,-29.75 131,-19.75 127.5,-29.75 134.5,-29.75"/>
</g>
<!-- Node21&#45;&gt;Node5 -->
<g id="edge53" class="edge">
<title>Node21&#45;&gt;Node5</title>
<path fill="none" stroke="midnightblue" d="M787.14,-169.1C790.14,-168.72 793.1,-168.35 796,-168 941.03,-150.56 1112.92,-134.7 1196.04,-127.34"/>
<polygon fill="midnightblue" stroke="midnightblue" points="1196.56,-130.81 1206.21,-126.44 1195.94,-123.83 1196.56,-130.81"/>
</g>
<!-- Node21&#45;&gt;Node15 -->
<g id="edge54" class="edge">
<title>Node21&#45;&gt;Node15</title>
<path fill="none" stroke="midnightblue" d="M772.52,-168.5C812.18,-160.11 874.56,-146.73 937.61,-132.28"/>
<polygon fill="midnightblue" stroke="midnightblue" points="938.77,-135.6 947.74,-129.95 937.21,-128.78 938.77,-135.6"/>
</g>
<!-- Node22 -->
<g id="node22" class="node">
<title>Node22</title>
<g id="a_node22"><a xlink:href="include_2ccf_2ds_2hash_8h.html" target="_top" xlink:title=" ">
<polygon fill="white" stroke="black" points="365,-112.5 365,-131.5 445,-131.5 445,-112.5 365,-112.5"/>
<text text-anchor="middle" x="405" y="-119.5" font-family="Helvetica,sans-Serif" font-size="10.00">ccf/ds/hash.h</text>
</a>
</g>
</g>
<!-- Node21&#45;&gt;Node22 -->
<g id="edge23" class="edge">
<title>Node21&#45;&gt;Node22</title>
<path fill="none" stroke="midnightblue" d="M680.19,-168.44C618.56,-158.27 516.38,-141.39 455.39,-131.32"/>
<polygon fill="midnightblue" stroke="midnightblue" points="455.67,-127.82 445.23,-129.64 454.53,-134.73 455.67,-127.82"/>
</g>
<!-- Node26 -->
<g id="node26" class="node">
<title>Node26</title>
<g id="a_node26"><a xlink:title=" ">
<polygon fill="white" stroke="#bfbfbf" points="572.5,-0.5 572.5,-19.5 619.5,-19.5 619.5,-0.5 572.5,-0.5"/>
<text text-anchor="middle" x="596" y="-7.5" font-family="Helvetica,sans-Serif" font-size="10.00">vector</text>
</a>
</g>
</g>
<!-- Node21&#45;&gt;Node26 -->
<g id="edge56" class="edge">
<title>Node21&#45;&gt;Node26</title>
<path fill="none" stroke="midnightblue" d="M717.4,-168.39C692.6,-153.01 642.29,-118.43 615,-76 605.96,-61.94 601.1,-43.45 598.57,-29.78"/>
<polygon fill="midnightblue" stroke="midnightblue" points="601.98,-28.96 596.94,-19.64 595.07,-30.07 601.98,-28.96"/>
</g>
<!-- Node29 -->
<g id="node29" class="node">
<title>Node29</title>
<g id="a_node29"><a xlink:href="nonstd_8h.html" target="_top" xlink:title=" ">
<polygon fill="white" stroke="black" points="792,-56.5 792,-75.5 882,-75.5 882,-56.5 792,-56.5"/>
<text text-anchor="middle" x="837" y="-63.5" font-family="Helvetica,sans-Serif" font-size="10.00">ccf/ds/nonstd.h</text>
</a>
</g>
</g>
<!-- Node21&#45;&gt;Node29 -->
<g id="edge32" class="edge">
<title>Node21&#45;&gt;Node29</title>
<path fill="none" stroke="midnightblue" d="M738.06,-168.11C747.11,-155.13 765.01,-130.52 783,-112 793.49,-101.19 806.42,-90.35 817,-82.01"/>
<polygon fill="midnightblue" stroke="midnightblue" points="819.45,-84.54 825.22,-75.65 815.17,-79 819.45,-84.54"/>
</g>
<!-- Node32 -->
<g id="node32" class="node">
<title>Node32</title>
<g id="a_node32"><a xlink:title=" ">
<polygon fill="white" stroke="#bfbfbf" points="698,-0.5 698,-19.5 742,-19.5 742,-0.5 698,-0.5"/>
<text text-anchor="middle" x="720" y="-7.5" font-family="Helvetica,sans-Serif" font-size="10.00">string</text>
</a>
</g>
</g>
<!-- Node21&#45;&gt;Node32 -->
<g id="edge55" class="edge">
<title>Node21&#45;&gt;Node32</title>
<path fill="none" stroke="midnightblue" d="M731.35,-168.08C729.47,-141.95 723.92,-65.21 721.34,-29.58"/>
<polygon fill="midnightblue" stroke="midnightblue" points="724.83,-29.29 720.62,-19.57 717.85,-29.79 724.83,-29.29"/>
</g>
<!-- Node34 -->
<g id="node34" class="node">
<title>Node34</title>
<g id="a_node34"><a xlink:href="serializer_8h.html" target="_top" xlink:title=" ">
<polygon fill="white" stroke="black" points="792,-112.5 792,-131.5 862,-131.5 862,-112.5 792,-112.5"/>
<text text-anchor="middle" x="827" y="-119.5" font-family="Helvetica,sans-Serif" font-size="10.00">serializer.h</text>
</a>
</g>
</g>
<!-- Node21&#45;&gt;Node34 -->
<g id="edge40" class="edge">
<title>Node21&#45;&gt;Node34</title>
<path fill="none" stroke="midnightblue" d="M747.26,-168.32C762.22,-159.82 785.25,-146.73 802.73,-136.8"/>
<polygon fill="midnightblue" stroke="midnightblue" points="804.81,-139.64 811.77,-131.65 801.35,-133.55 804.81,-139.64"/>
</g>
<!-- Node21&#45;&gt;Node39 -->
<g id="edge52" class="edge">
<title>Node21&#45;&gt;Node39</title>
<path fill="none" stroke="midnightblue" d="M759.41,-168.44C789.46,-159.06 837.73,-144 870.37,-133.81"/>
<polygon fill="midnightblue" stroke="midnightblue" points="871.46,-137.14 879.96,-130.82 869.37,-130.45 871.46,-137.14"/>
</g>
<!-- Node23 -->
<g id="node23" class="node">
<title>Node23</title>
<g id="a_node23"><a xlink:href="siphash_8h.html" target="_top" xlink:title=" ">
<polygon fill="white" stroke="black" points="192.5,-56.5 192.5,-75.5 287.5,-75.5 287.5,-56.5 192.5,-56.5"/>
<text text-anchor="middle" x="240" y="-63.5" font-family="Helvetica,sans-Serif" font-size="10.00">ccf/ds/siphash.h</text>
</a>
</g>
</g>
<!-- Node22&#45;&gt;Node23 -->
<g id="edge24" class="edge">
<title>Node22&#45;&gt;Node23</title>
<path fill="none" stroke="midnightblue" d="M378.86,-112.44C350.98,-103.32 306.65,-88.81 275.6,-78.65"/>
<polygon fill="midnightblue" stroke="midnightblue" points="276.62,-75.3 266.02,-75.52 274.44,-81.95 276.62,-75.3"/>
</g>
<!-- Node25 -->
<g id="node25" class="node">
<title>Node25</title>
<g id="a_node25"><a xlink:title=" ">
<polygon fill="white" stroke="#bfbfbf" points="291,-0.5 291,-19.5 341,-19.5 341,-0.5 291,-0.5"/>
<text text-anchor="middle" x="316" y="-7.5" font-family="Helvetica,sans-Serif" font-size="10.00">cstdint</text>
</a>
</g>
</g>
<!-- Node22&#45;&gt;Node25 -->
<g id="edge29" class="edge">
<title>Node22&#45;&gt;Node25</title>
<path fill="none" stroke="midnightblue" d="M386.99,-112.46C372.49,-104.75 352.53,-92.16 340,-76 329.42,-62.35 323.15,-43.56 319.7,-29.69"/>
<polygon fill="midnightblue" stroke="midnightblue" points="323.09,-28.82 317.49,-19.82 316.25,-30.34 323.09,-28.82"/>
</g>
<!-- Node22&#45;&gt;Node26 -->
<g id="edge31" class="edge">
<title>Node22&#45;&gt;Node26</title>
<path fill="none" stroke="midnightblue" d="M394.66,-112.31C380.24,-99.15 357.4,-73.82 372,-56 395.61,-27.17 505.23,-16.42 561.88,-12.74"/>
<polygon fill="midnightblue" stroke="midnightblue" points="562.37,-16.22 572.14,-12.11 561.95,-9.23 562.37,-16.22"/>
</g>
<!-- Node27 -->
<g id="node27" class="node">
<title>Node27</title>
<g id="a_node27"><a xlink:title=" ">
<polygon fill="white" stroke="#bfbfbf" points="638,-0.5 638,-19.5 680,-19.5 680,-0.5 638,-0.5"/>
<text text-anchor="middle" x="659" y="-7.5" font-family="Helvetica,sans-Serif" font-size="10.00">array</text>
</a>
</g>
</g>
<!-- Node22&#45;&gt;Node27 -->
<g id="edge28" class="edge">
<title>Node22&#45;&gt;Node27</title>
<path fill="none" stroke="midnightblue" d="M435.36,-112.44C462.89,-104.29 504.34,-91.07 539,-76 574.1,-60.73 612.69,-38.85 636.39,-24.78"/>
<polygon fill="midnightblue" stroke="midnightblue" points="638.21,-27.77 644.99,-19.62 634.61,-21.76 638.21,-27.77"/>
</g>
<!-- Node28 -->
<g id="node28" class="node">
<title>Node28</title>
<g id="a_node28"><a xlink:title=" ">
<polygon fill="white" stroke="#bfbfbf" points="381.5,-56.5 381.5,-75.5 530.5,-75.5 530.5,-56.5 381.5,-56.5"/>
<text text-anchor="middle" x="456" y="-63.5" font-family="Helvetica,sans-Serif" font-size="10.00">small_vector/SmallVector.h</text>
</a>
</g>
</g>
<!-- Node22&#45;&gt;Node28 -->
<g id="edge30" class="edge">
<title>Node22&#45;&gt;Node28</title>
<path fill="none" stroke="midnightblue" d="M413.42,-112.08C420.85,-104.22 431.85,-92.57 440.81,-83.08"/>
<polygon fill="midnightblue" stroke="midnightblue" points="443.41,-85.42 447.74,-75.75 438.32,-80.62 443.41,-85.42"/>
</g>
<!-- Node24 -->
<g id="node24" class="node">
<title>Node24</title>
<g id="a_node24"><a xlink:title=" ">
<polygon fill="white" stroke="#bfbfbf" points="213.5,-0.5 213.5,-19.5 266.5,-19.5 266.5,-0.5 213.5,-0.5"/>
<text text-anchor="middle" x="240" y="-7.5" font-family="Helvetica,sans-Serif" font-size="10.00">cstddef</text>
</a>
</g>
</g>
<!-- Node23&#45;&gt;Node24 -->
<g id="edge25" class="edge">
<title>Node23&#45;&gt;Node24</title>
<path fill="none" stroke="midnightblue" d="M240,-56.08C240,-49.01 240,-38.86 240,-29.99"/>
<polygon fill="midnightblue" stroke="midnightblue" points="243.5,-29.75 240,-19.75 236.5,-29.75 243.5,-29.75"/>
</g>
<!-- Node23&#45;&gt;Node25 -->
<g id="edge26" class="edge">
<title>Node23&#45;&gt;Node25</title>
<path fill="none" stroke="midnightblue" d="M252.21,-56.32C263.78,-48.11 281.38,-35.6 295.16,-25.81"/>
<polygon fill="midnightblue" stroke="midnightblue" points="297.44,-28.48 303.57,-19.83 293.39,-22.77 297.44,-28.48"/>
</g>
<!-- Node23&#45;&gt;Node26 -->
<g id="edge27" class="edge">
<title>Node23&#45;&gt;Node26</title>
<path fill="none" stroke="midnightblue" d="M287.64,-57.77C360.69,-46.69 498.57,-25.78 562.23,-16.12"/>
<polygon fill="midnightblue" stroke="midnightblue" points="562.78,-19.58 572.14,-14.62 561.73,-12.66 562.78,-19.58"/>
</g>
<!-- Node29&#45;&gt;Node17 -->
<g id="edge38" class="edge">
<title>Node29&#45;&gt;Node17</title>
<path fill="none" stroke="midnightblue" d="M882.22,-56.66C928.07,-48.15 1001.32,-34.44 1074.56,-20.06"/>
<polygon fill="midnightblue" stroke="midnightblue" points="1075.29,-23.49 1084.42,-18.12 1073.94,-16.62 1075.29,-23.49"/>
</g>
<!-- Node29&#45;&gt;Node26 -->
<g id="edge39" class="edge">
<title>Node29&#45;&gt;Node26</title>
<path fill="none" stroke="midnightblue" d="M794.22,-56.44C754.21,-48.28 692.55,-35.3 629.83,-20.1"/>
<polygon fill="midnightblue" stroke="midnightblue" points="630.3,-16.61 619.75,-17.64 628.64,-23.41 630.3,-16.61"/>
</g>
<!-- Node29&#45;&gt;Node27 -->
<g id="edge34" class="edge">
<title>Node29&#45;&gt;Node27</title>
<path fill="none" stroke="midnightblue" d="M808.8,-56.44C776.37,-46.61 723.32,-30.51 689.83,-20.35"/>
<polygon fill="midnightblue" stroke="midnightblue" points="690.69,-16.96 680.1,-17.4 688.66,-23.66 690.69,-16.96"/>
</g>
<!-- Node30 -->
<g id="node30" class="node">
<title>Node30</title>
<g id="a_node30"><a xlink:title=" ">
<polygon fill="white" stroke="#bfbfbf" points="919,-0.5 919,-19.5 983,-19.5 983,-0.5 919,-0.5"/>
<text text-anchor="middle" x="951" y="-7.5" font-family="Helvetica,sans-Serif" font-size="10.00">algorithm</text>
</a>
</g>
</g>
<!-- Node29&#45;&gt;Node30 -->
<g id="edge33" class="edge">
<title>Node29&#45;&gt;Node30</title>
<path fill="none" stroke="midnightblue" d="M855.06,-56.44C873.57,-47.68 902.58,-33.94 923.86,-23.86"/>
<polygon fill="midnightblue" stroke="midnightblue" points="925.48,-26.96 933.02,-19.52 922.49,-20.63 925.48,-26.96"/>
</g>
<!-- Node31 -->
<g id="node31" class="node">
<title>Node31</title>
<g id="a_node31"><a xlink:title=" ">
<polygon fill="white" stroke="#bfbfbf" points="760.5,-0.5 760.5,-19.5 809.5,-19.5 809.5,-0.5 760.5,-0.5"/>
<text text-anchor="middle" x="785" y="-7.5" font-family="Helvetica,sans-Serif" font-size="10.00">cctype</text>
</a>
</g>
</g>
<!-- Node29&#45;&gt;Node31 -->
<g id="edge35" class="edge">
<title>Node29&#45;&gt;Node31</title>
<path fill="none" stroke="midnightblue" d="M828.41,-56.08C820.84,-48.22 809.62,-36.57 800.49,-27.08"/>
<polygon fill="midnightblue" stroke="midnightblue" points="802.88,-24.53 793.43,-19.75 797.84,-29.38 802.88,-24.53"/>
</g>
<!-- Node29&#45;&gt;Node32 -->
<g id="edge36" class="edge">
<title>Node29&#45;&gt;Node32</title>
<path fill="none" stroke="midnightblue" d="M818.46,-56.44C799.38,-47.64 769.43,-33.81 747.56,-23.72"/>
<polygon fill="midnightblue" stroke="midnightblue" points="749,-20.53 738.45,-19.52 746.07,-26.88 749,-20.53"/>
</g>
<!-- Node33 -->
<g id="node33" class="node">
<title>Node33</title>
<g id="a_node33"><a xlink:title=" ">
<polygon fill="white" stroke="#bfbfbf" points="827.5,-0.5 827.5,-19.5 900.5,-19.5 900.5,-0.5 827.5,-0.5"/>
<text text-anchor="middle" x="864" y="-7.5" font-family="Helvetica,sans-Serif" font-size="10.00">string_view</text>
</a>
</g>
</g>
<!-- Node29&#45;&gt;Node33 -->
<g id="edge37" class="edge">
<title>Node29&#45;&gt;Node33</title>
<path fill="none" stroke="midnightblue" d="M841.46,-56.08C845.15,-48.69 850.52,-37.95 855.09,-28.81"/>
<polygon fill="midnightblue" stroke="midnightblue" points="858.28,-30.26 859.62,-19.75 852.02,-27.13 858.28,-30.26"/>
</g>
<!-- Node34&#45;&gt;Node17 -->
<g id="edge50" class="edge">
<title>Node34&#45;&gt;Node17</title>
<path fill="none" stroke="midnightblue" d="M853.28,-112.43C878.44,-103.99 917.29,-90.31 950,-76 967.85,-68.19 971.09,-63.65 989,-56 1019.38,-43.03 1054.89,-30.93 1081.11,-22.56"/>
<polygon fill="midnightblue" stroke="midnightblue" points="1082.19,-25.89 1090.67,-19.54 1080.08,-19.21 1082.19,-25.89"/>
</g>
<!-- Node34&#45;&gt;Node26 -->
<g id="edge51" class="edge">
<title>Node34&#45;&gt;Node26</title>
<path fill="none" stroke="midnightblue" d="M812.35,-112.49C789.85,-99.55 745.25,-74.51 706,-56 680.43,-43.94 650.72,-31.9 628.63,-23.31"/>
<polygon fill="midnightblue" stroke="midnightblue" points="629.64,-19.95 619.05,-19.62 627.13,-26.48 629.64,-19.95"/>
</g>
<!-- Node34&#45;&gt;Node29 -->
<g id="edge41" class="edge">
<title>Node34&#45;&gt;Node29</title>
<path fill="none" stroke="midnightblue" d="M828.65,-112.08C829.98,-104.93 831.88,-94.64 833.54,-85.69"/>
<polygon fill="midnightblue" stroke="midnightblue" points="837,-86.22 835.38,-75.75 830.12,-84.95 837,-86.22"/>
</g>
<!-- Node35 -->
<g id="node35" class="node">
<title>Node35</title>
<g id="a_node35"><a xlink:href="serialized_8h.html" target="_top" xlink:title=" ">
<polygon fill="white" stroke="black" points="624.5,-56.5 624.5,-75.5 697.5,-75.5 697.5,-56.5 624.5,-56.5"/>
<text text-anchor="middle" x="661" y="-63.5" font-family="Helvetica,sans-Serif" font-size="10.00">serialized.h</text>
</a>
</g>
</g>
<!-- Node34&#45;&gt;Node35 -->
<g id="edge42" class="edge">
<title>Node34&#45;&gt;Node35</title>
<path fill="none" stroke="midnightblue" d="M800.7,-112.44C772.65,-103.32 728.06,-88.81 696.82,-78.65"/>
<polygon fill="midnightblue" stroke="midnightblue" points="697.77,-75.28 687.18,-75.52 695.61,-81.94 697.77,-75.28"/>
</g>
<!-- Node37 -->
<g id="node37" class="node">
<title>Node37</title>
<g id="a_node37"><a xlink:title=" ">
<polygon fill="white" stroke="#bfbfbf" points="998,-56.5 998,-75.5 1056,-75.5 1056,-56.5 998,-56.5"/>
<text text-anchor="middle" x="1027" y="-63.5" font-family="Helvetica,sans-Serif" font-size="10.00">memory</text>
</a>
</g>
</g>
<!-- Node34&#45;&gt;Node37 -->
<g id="edge48" class="edge">
<title>Node34&#45;&gt;Node37</title>
<path fill="none" stroke="midnightblue" d="M858.69,-112.44C893.63,-103.01 949.87,-87.83 987.61,-77.63"/>
<polygon fill="midnightblue" stroke="midnightblue" points="988.99,-80.89 997.74,-74.9 987.17,-74.13 988.99,-80.89"/>
</g>
<!-- Node38 -->
<g id="node38" class="node">
<title>Node38</title>
<g id="a_node38"><a xlink:title=" ">
<polygon fill="white" stroke="#bfbfbf" points="900.5,-56.5 900.5,-75.5 941.5,-75.5 941.5,-56.5 900.5,-56.5"/>
<text text-anchor="middle" x="921" y="-63.5" font-family="Helvetica,sans-Serif" font-size="10.00">tuple</text>
</a>
</g>
</g>
<!-- Node34&#45;&gt;Node38 -->
<g id="edge49" class="edge">
<title>Node34&#45;&gt;Node38</title>
<path fill="none" stroke="midnightblue" d="M842.1,-112.32C856.9,-103.82 879.69,-90.73 896.98,-80.8"/>
<polygon fill="midnightblue" stroke="midnightblue" points="899.01,-83.67 905.93,-75.65 895.52,-77.6 899.01,-83.67"/>
</g>
<!-- Node35&#45;&gt;Node20 -->
<g id="edge44" class="edge">
<title>Node35&#45;&gt;Node20</title>
<path fill="none" stroke="midnightblue" d="M624.24,-61.69C546.58,-54.62 360.1,-37.31 204,-20 191.73,-18.64 178.32,-17.02 166.37,-15.54"/>
<polygon fill="midnightblue" stroke="midnightblue" points="166.68,-12.05 156.32,-14.28 165.81,-18.99 166.68,-12.05"/>
</g>
<!-- Node35&#45;&gt;Node25 -->
<g id="edge43" class="edge">
<title>Node35&#45;&gt;Node25</title>
<path fill="none" stroke="midnightblue" d="M624.41,-59.27C557.71,-48.83 417.2,-26.84 351.4,-16.54"/>
<polygon fill="midnightblue" stroke="midnightblue" points="351.55,-13.02 341.13,-14.93 350.47,-19.94 351.55,-13.02"/>
</g>
<!-- Node35&#45;&gt;Node26 -->
<g id="edge47" class="edge">
<title>Node35&#45;&gt;Node26</title>
<path fill="none" stroke="midnightblue" d="M650.56,-56.32C640.85,-48.26 626.18,-36.08 614.5,-26.37"/>
<polygon fill="midnightblue" stroke="midnightblue" points="616.56,-23.53 606.63,-19.83 612.09,-28.92 616.56,-23.53"/>
</g>
<!-- Node35&#45;&gt;Node32 -->
<g id="edge46" class="edge">
<title>Node35&#45;&gt;Node32</title>
<path fill="none" stroke="midnightblue" d="M670.48,-56.32C679.2,-48.34 692.34,-36.31 702.9,-26.65"/>
<polygon fill="midnightblue" stroke="midnightblue" points="705.33,-29.17 710.35,-19.83 700.61,-24 705.33,-29.17"/>
</g>
<!-- Node35&#45;&gt;Node36 -->
<g id="edge45" class="edge">
<title>Node35&#45;&gt;Node36</title>
<path fill="none" stroke="midnightblue" d="M697.88,-60.91C757.42,-54.11 878.63,-39.44 991.63,-19.94"/>
<polygon fill="midnightblue" stroke="midnightblue" points="992.24,-23.39 1001.49,-18.22 991.04,-16.49 992.24,-23.39"/>
</g>
<!-- Node44 -->
<g id="node44" class="node">
<title>Node44</title>
<g id="a_node44"><a xlink:href="proxy_8h.html" target="_top" xlink:title=" ">
<polygon fill="white" stroke="black" points="1766,-224.5 1766,-243.5 1818,-243.5 1818,-224.5 1766,-224.5"/>
<text text-anchor="middle" x="1792" y="-231.5" font-family="Helvetica,sans-Serif" font-size="10.00">proxy.h</text>
</a>
</g>
</g>
<!-- Node43&#45;&gt;Node44 -->
<g id="edge65" class="edge">
<title>Node43&#45;&gt;Node44</title>
<path fill="none" stroke="midnightblue" d="M1792,-280.08C1792,-273.01 1792,-262.86 1792,-253.99"/>
<polygon fill="midnightblue" stroke="midnightblue" points="1795.5,-253.75 1792,-243.75 1788.5,-253.75 1795.5,-253.75"/>
</g>
<!-- Node46 -->
<g id="node46" class="node">
<title>Node46</title>
<g id="a_node46"><a xlink:title=" ">
<polygon fill="white" stroke="#bfbfbf" points="1836,-224.5 1836,-243.5 1886,-243.5 1886,-224.5 1836,-224.5"/>
<text text-anchor="middle" x="1861" y="-231.5" font-family="Helvetica,sans-Serif" font-size="10.00">chrono</text>
</a>
</g>
</g>
<!-- Node43&#45;&gt;Node46 -->
<g id="edge68" class="edge">
<title>Node43&#45;&gt;Node46</title>
<path fill="none" stroke="midnightblue" d="M1803.09,-280.32C1813.49,-272.18 1829.26,-259.84 1841.72,-250.09"/>
<polygon fill="midnightblue" stroke="midnightblue" points="1843.99,-252.75 1849.71,-243.83 1839.68,-247.24 1843.99,-252.75"/>
</g>
<!-- Node44&#45;&gt;Node37 -->
<g id="edge66" class="edge">
<title>Node44&#45;&gt;Node37</title>
<path fill="none" stroke="midnightblue" d="M1792.54,-224.18C1793.4,-201.35 1792.16,-140.16 1757,-112 1702.92,-68.68 1210.3,-66.52 1066.34,-66.82"/>
<polygon fill="midnightblue" stroke="midnightblue" points="1066.19,-63.32 1056.2,-66.85 1066.21,-70.32 1066.19,-63.32"/>
</g>
<!-- Node45 -->
<g id="node45" class="node">
<title>Node45</title>
<g id="a_node45"><a xlink:title=" ">
<polygon fill="white" stroke="#bfbfbf" points="1842.5,-168.5 1842.5,-187.5 1879.5,-187.5 1879.5,-168.5 1842.5,-168.5"/>
<text text-anchor="middle" x="1861" y="-175.5" font-family="Helvetica,sans-Serif" font-size="10.00">uv.h</text>
</a>
</g>
</g>
<!-- Node44&#45;&gt;Node45 -->
<g id="edge67" class="edge">
<title>Node44&#45;&gt;Node45</title>
<path fill="none" stroke="midnightblue" d="M1803.09,-224.32C1813.49,-216.18 1829.26,-203.84 1841.72,-194.09"/>
<polygon fill="midnightblue" stroke="midnightblue" points="1843.99,-196.75 1849.71,-187.83 1839.68,-191.24 1843.99,-196.75"/>
</g>
</g>
</svg>
