<?xml version="1.0" encoding="UTF-8" standalone="no"?>
<!DOCTYPE svg PUBLIC "-//W3C//DTD SVG 1.1//EN"
 "http://www.w3.org/Graphics/SVG/1.1/DTD/svg11.dtd">
<!-- Generated by graphviz version 2.43.0 (0)
 -->
<!-- Title: include/ccf/service/tables/members.h Pages: 1 -->
<!--zoomable 665 -->
<svg id="main" version="1.1" xmlns="http://www.w3.org/2000/svg" xmlns:xlink="http://www.w3.org/1999/xlink" xml:space="preserve" onload="init(evt)">
<style type="text/css"><![CDATA[
.edge:hover path { stroke: red; }
.edge:hover polygon { stroke: red; fill: red; }
]]></style>
<script type="text/javascript"><![CDATA[
var edges = document.getElementsByTagName('g');
if (edges && edges.length) {
  for (var i=0;i<edges.length;i++) {
    if (edges[i].id.substr(0,4)=='edge') {
      edges[i].setAttribute('class','edge');
    }
  }
}
]]></script>
        <defs>
                <circle id="rim" cx="0" cy="0" r="7"/>
                <circle id="rim2" cx="0" cy="0" r="3.5"/>
                <g id="zoomPlus">
                        <use xlink:href="#rim" fill="#404040">
                                <set attributeName="fill" to="#808080" begin="zoomplus.mouseover" end="zoomplus.mouseout"/>
                        </use>
                        <path d="M-4,0h8M0,-4v8" fill="none" stroke="white" stroke-width="1.5" pointer-events="none"/>
                </g>
                <g id="zoomMin">
                        <use xlink:href="#rim" fill="#404040">
                                <set attributeName="fill" to="#808080" begin="zoomminus.mouseover" end="zoomminus.mouseout"/>
                        </use>
                        <path d="M-4,0h8" fill="none" stroke="white" stroke-width="1.5" pointer-events="none"/>
                </g>
                <g id="dirArrow">
                        <path fill="none" stroke="white" stroke-width="1.5" d="M0,-3.0v7 M-2.5,-0.5L0,-3.0L2.5,-0.5"/>
                </g>
               <g id="resetDef">
                       <use xlink:href="#rim2" fill="#404040">
                               <set attributeName="fill" to="#808080" begin="reset.mouseover" end="reset.mouseout"/>
                       </use>
               </g>
        </defs>

<script type="text/javascript">
var viewWidth = 2004;
var viewHeight = 665;
var sectionId = 'dynsection-1';
</script>
<script xlink:href="svgpan.js"/>
<svg id="graph" class="graph">
<g id="viewport">
<title>include/ccf/service/tables/members.h</title>
<polygon fill="white" stroke="transparent" points="-4,4 -4,-661 2000.18,-661 2000.18,4 -4,4"/>
<!-- Node1 -->
<g id="node1" class="node">
<title>Node1</title>
<g id="a_node1"><a xlink:title=" ">
<polygon fill="#bfbfbf" stroke="black" points="367,-626.5 367,-656.5 475,-656.5 475,-626.5 367,-626.5"/>
<text text-anchor="start" x="375" y="-644.5" font-family="Helvetica,sans-Serif" font-size="10.00">include/ccf/service</text>
<text text-anchor="middle" x="421" y="-633.5" font-family="Helvetica,sans-Serif" font-size="10.00">/tables/members.h</text>
</a>
</g>
</g>
<!-- Node2 -->
<g id="node2" class="node">
<title>Node2</title>
<g id="a_node2"><a xlink:href="common_2configuration_8h.html" target="_top" xlink:title=" ">
<polygon fill="white" stroke="black" points="49,-565 49,-584 201,-584 201,-565 49,-565"/>
<text text-anchor="middle" x="125" y="-572" font-family="Helvetica,sans-Serif" font-size="10.00">src/common/configuration.h</text>
</a>
</g>
</g>
<!-- Node1&#45;&gt;Node2 -->
<g id="edge1" class="edge">
<title>Node1&#45;&gt;Node2</title>
<path fill="none" stroke="midnightblue" d="M356.78,-626.4C297.99,-613.49 212.91,-594.8 163.85,-584.03"/>
<polygon fill="midnightblue" stroke="midnightblue" points="356.19,-629.85 366.71,-628.58 357.69,-623.01 356.19,-629.85"/>
</g>
<!-- Node5 -->
<g id="node5" class="node">
<title>Node5</title>
<g id="a_node5"><a xlink:href="node__call__types_8h.html" target="_top" xlink:title=" ">
<polygon fill="white" stroke="black" points="178.5,-492.5 178.5,-522.5 303.5,-522.5 303.5,-492.5 178.5,-492.5"/>
<text text-anchor="start" x="186.5" y="-510.5" font-family="Helvetica,sans-Serif" font-size="10.00">src/node/rpc/node_call</text>
<text text-anchor="middle" x="241" y="-499.5" font-family="Helvetica,sans-Serif" font-size="10.00">_types.h</text>
</a>
</g>
</g>
<!-- Node1&#45;&gt;Node5 -->
<g id="edge29" class="edge">
<title>Node1&#45;&gt;Node5</title>
<path fill="none" stroke="midnightblue" d="M356.37,-638.57C319.23,-633.84 274.94,-621.33 249,-590 233.31,-571.05 235.18,-540.5 238.03,-522.67"/>
<polygon fill="midnightblue" stroke="midnightblue" points="356.31,-642.08 366.64,-639.71 357.08,-635.12 356.31,-642.08"/>
</g>
<!-- Node14 -->
<g id="node14" class="node">
<title>Node14</title>
<g id="a_node14"><a xlink:href="member__frontend_8h.html" target="_top" xlink:title=" ">
<polygon fill="white" stroke="black" points="296,-224.5 296,-254.5 416,-254.5 416,-224.5 296,-224.5"/>
<text text-anchor="start" x="304" y="-242.5" font-family="Helvetica,sans-Serif" font-size="10.00">src/node/rpc/member</text>
<text text-anchor="middle" x="356" y="-231.5" font-family="Helvetica,sans-Serif" font-size="10.00">_frontend.h</text>
</a>
</g>
</g>
<!-- Node1&#45;&gt;Node14 -->
<g id="edge28" class="edge">
<title>Node1&#45;&gt;Node14</title>
<path fill="none" stroke="midnightblue" d="M356.82,-639.18C261.75,-636.05 89.4,-625.51 40,-590 7.23,-566.45 0,-548.85 0,-508.5 0,-508.5 0,-508.5 0,-372.5 0,-331.75 9.01,-314.92 42,-291 81.51,-262.36 216.14,-249.2 295.71,-243.79"/>
<polygon fill="midnightblue" stroke="midnightblue" points="356.79,-642.68 366.89,-639.5 357,-635.69 356.79,-642.68"/>
</g>
<!-- Node18 -->
<g id="node18" class="node">
<title>Node18</title>
<g id="a_node18"><a xlink:href="cert__auth_8cpp.html" target="_top" xlink:title=" ">
<polygon fill="white" stroke="black" points="257.5,-559.5 257.5,-589.5 412.5,-589.5 412.5,-559.5 257.5,-559.5"/>
<text text-anchor="start" x="265.5" y="-577.5" font-family="Helvetica,sans-Serif" font-size="10.00">src/endpoints/authentication</text>
<text text-anchor="middle" x="335" y="-566.5" font-family="Helvetica,sans-Serif" font-size="10.00">/cert_auth.cpp</text>
</a>
</g>
</g>
<!-- Node1&#45;&gt;Node18 -->
<g id="edge25" class="edge">
<title>Node1&#45;&gt;Node18</title>
<path fill="none" stroke="midnightblue" d="M394.1,-620.17C380.95,-610.23 365.45,-598.51 353.62,-589.58"/>
<polygon fill="midnightblue" stroke="midnightblue" points="392.25,-623.16 402.34,-626.4 396.47,-617.57 392.25,-623.16"/>
</g>
<!-- Node19 -->
<g id="node19" class="node">
<title>Node19</title>
<g id="a_node19"><a xlink:href="sig__auth_8cpp.html" target="_top" xlink:title=" ">
<polygon fill="white" stroke="black" points="430.5,-559.5 430.5,-589.5 585.5,-589.5 585.5,-559.5 430.5,-559.5"/>
<text text-anchor="start" x="438.5" y="-577.5" font-family="Helvetica,sans-Serif" font-size="10.00">src/endpoints/authentication</text>
<text text-anchor="middle" x="508" y="-566.5" font-family="Helvetica,sans-Serif" font-size="10.00">/sig_auth.cpp</text>
</a>
</g>
</g>
<!-- Node1&#45;&gt;Node19 -->
<g id="edge26" class="edge">
<title>Node1&#45;&gt;Node19</title>
<path fill="none" stroke="midnightblue" d="M448.21,-620.17C461.52,-610.23 477.2,-598.51 489.16,-589.58"/>
<polygon fill="midnightblue" stroke="midnightblue" points="445.79,-617.61 439.88,-626.4 449.98,-623.21 445.79,-617.61"/>
</g>
<!-- Node20 -->
<g id="node20" class="node">
<title>Node20</title>
<g id="a_node20"><a xlink:href="base__endpoint__registry_8cpp.html" target="_top" xlink:title=" ">
<polygon fill="white" stroke="black" points="604,-559.5 604,-589.5 730,-589.5 730,-559.5 604,-559.5"/>
<text text-anchor="start" x="612" y="-577.5" font-family="Helvetica,sans-Serif" font-size="10.00">src/endpoints/base</text>
<text text-anchor="middle" x="667" y="-566.5" font-family="Helvetica,sans-Serif" font-size="10.00">_endpoint_registry.cpp</text>
</a>
</g>
</g>
<!-- Node1&#45;&gt;Node20 -->
<g id="edge27" class="edge">
<title>Node1&#45;&gt;Node20</title>
<path fill="none" stroke="midnightblue" d="M483.76,-623.92C523.9,-613.31 575.42,-599.7 613.6,-589.61"/>
<polygon fill="midnightblue" stroke="midnightblue" points="482.85,-620.54 474.08,-626.48 484.64,-627.31 482.85,-620.54"/>
</g>
<!-- Node21 -->
<g id="node21" class="node">
<title>Node21</title>
<g id="a_node21"><a xlink:href="genesis__gen_8h.html" target="_top" xlink:title=" ">
<polygon fill="white" stroke="black" points="692,-358.5 692,-388.5 802,-388.5 802,-358.5 692,-358.5"/>
<text text-anchor="start" x="700" y="-376.5" font-family="Helvetica,sans-Serif" font-size="10.00">src/service/genesis</text>
<text text-anchor="middle" x="747" y="-365.5" font-family="Helvetica,sans-Serif" font-size="10.00">_gen.h</text>
</a>
</g>
</g>
<!-- Node1&#45;&gt;Node21 -->
<g id="edge30" class="edge">
<title>Node1&#45;&gt;Node21</title>
<path fill="none" stroke="midnightblue" d="M485.32,-639.57C568.44,-636.87 706.39,-626.8 739,-590 790.53,-531.86 763.78,-426.39 751.8,-388.51"/>
<polygon fill="midnightblue" stroke="midnightblue" points="485.11,-636.07 475.22,-639.87 485.32,-643.07 485.11,-636.07"/>
</g>
<!-- Node24 -->
<g id="node24" class="node">
<title>Node24</title>
<g id="a_node24"><a xlink:href="network__tables_8h.html" target="_top" xlink:title=" ">
<polygon fill="white" stroke="black" points="906,-425.5 906,-455.5 1018,-455.5 1018,-425.5 906,-425.5"/>
<text text-anchor="start" x="914" y="-443.5" font-family="Helvetica,sans-Serif" font-size="10.00">src/service/network</text>
<text text-anchor="middle" x="962" y="-432.5" font-family="Helvetica,sans-Serif" font-size="10.00">_tables.h</text>
</a>
</g>
</g>
<!-- Node1&#45;&gt;Node24 -->
<g id="edge39" class="edge">
<title>Node1&#45;&gt;Node24</title>
<path fill="none" stroke="midnightblue" d="M485.37,-641.04C557.86,-639.46 677.81,-630.17 772,-590 848.25,-557.48 920.21,-486.43 948.9,-455.91"/>
<polygon fill="midnightblue" stroke="midnightblue" points="484.96,-637.55 475.03,-641.22 485.09,-644.54 484.96,-637.55"/>
</g>
<!-- Node3 -->
<g id="node3" class="node">
<title>Node3</title>
<g id="a_node3"><a xlink:href="host_2configuration_8h.html" target="_top" xlink:title=" ">
<polygon fill="white" stroke="black" points="29.5,-498 29.5,-517 160.5,-517 160.5,-498 29.5,-498"/>
<text text-anchor="middle" x="95" y="-505" font-family="Helvetica,sans-Serif" font-size="10.00">src/host/configuration.h</text>
</a>
</g>
</g>
<!-- Node2&#45;&gt;Node3 -->
<g id="edge2" class="edge">
<title>Node2&#45;&gt;Node3</title>
<path fill="none" stroke="midnightblue" d="M116.6,-555.29C110.83,-542.81 103.45,-526.81 98.98,-517.13"/>
<polygon fill="midnightblue" stroke="midnightblue" points="113.59,-557.12 120.95,-564.73 119.94,-554.19 113.59,-557.12"/>
</g>
<!-- Node2&#45;&gt;Node5 -->
<g id="edge4" class="edge">
<title>Node2&#45;&gt;Node5</title>
<path fill="none" stroke="midnightblue" d="M149.53,-559.75C169.03,-548.83 196.2,-533.6 215.86,-522.59"/>
<polygon fill="midnightblue" stroke="midnightblue" points="147.66,-556.79 140.64,-564.73 151.08,-562.9 147.66,-556.79"/>
</g>
<!-- Node4 -->
<g id="node4" class="node">
<title>Node4</title>
<g id="a_node4"><a xlink:href="host_2main_8cpp.html" target="_top" xlink:title=" ">
<polygon fill="white" stroke="black" points="43.5,-431 43.5,-450 146.5,-450 146.5,-431 43.5,-431"/>
<text text-anchor="middle" x="95" y="-438" font-family="Helvetica,sans-Serif" font-size="10.00">src/host/main.cpp</text>
</a>
</g>
</g>
<!-- Node3&#45;&gt;Node4 -->
<g id="edge3" class="edge">
<title>Node3&#45;&gt;Node4</title>
<path fill="none" stroke="midnightblue" d="M95,-487.54C95,-475.17 95,-459.62 95,-450.13"/>
<polygon fill="midnightblue" stroke="midnightblue" points="91.5,-487.73 95,-497.73 98.5,-487.73 91.5,-487.73"/>
</g>
<!-- Node6 -->
<g id="node6" class="node">
<title>Node6</title>
<g id="a_node6"><a xlink:href="call__types_8h.html" target="_top" xlink:title=" ">
<polygon fill="white" stroke="black" points="175.5,-431 175.5,-450 312.5,-450 312.5,-431 175.5,-431"/>
<text text-anchor="middle" x="244" y="-438" font-family="Helvetica,sans-Serif" font-size="10.00">src/node/rpc/call_types.h</text>
</a>
</g>
</g>
<!-- Node5&#45;&gt;Node6 -->
<g id="edge5" class="edge">
<title>Node5&#45;&gt;Node6</title>
<path fill="none" stroke="midnightblue" d="M242.12,-482.25C242.64,-471.02 243.22,-458.38 243.6,-450.19"/>
<polygon fill="midnightblue" stroke="midnightblue" points="238.62,-482.25 241.65,-492.4 245.61,-482.57 238.62,-482.25"/>
</g>
<!-- Node7 -->
<g id="node7" class="node">
<title>Node7</title>
<g id="a_node7"><a xlink:href="common__endpoint__registry_8cpp.html" target="_top" xlink:title=" ">
<polygon fill="white" stroke="black" points="66,-291.5 66,-321.5 194,-321.5 194,-291.5 66,-291.5"/>
<text text-anchor="start" x="74" y="-309.5" font-family="Helvetica,sans-Serif" font-size="10.00">src/endpoints/common</text>
<text text-anchor="middle" x="130" y="-298.5" font-family="Helvetica,sans-Serif" font-size="10.00">_endpoint_registry.cpp</text>
</a>
</g>
</g>
<!-- Node6&#45;&gt;Node7 -->
<g id="edge6" class="edge">
<title>Node6&#45;&gt;Node7</title>
<path fill="none" stroke="midnightblue" d="M229.74,-422.98C207.17,-396.86 163.63,-346.44 142.34,-321.78"/>
<polygon fill="midnightblue" stroke="midnightblue" points="227.34,-425.56 236.52,-430.84 232.63,-420.98 227.34,-425.56"/>
</g>
<!-- Node8 -->
<g id="node8" class="node">
<title>Node8</title>
<g id="a_node8"><a xlink:href="wrap_8cpp.html" target="_top" xlink:title=" ">
<polygon fill="white" stroke="black" points="1243.5,-168.5 1243.5,-187.5 1332.5,-187.5 1332.5,-168.5 1243.5,-168.5"/>
<text text-anchor="middle" x="1288" y="-175.5" font-family="Helvetica,sans-Serif" font-size="10.00">src/js/wrap.cpp</text>
</a>
</g>
</g>
<!-- Node6&#45;&gt;Node8 -->
<g id="edge7" class="edge">
<title>Node6&#45;&gt;Node8</title>
<path fill="none" stroke="midnightblue" d="M323.07,-437.79C538.3,-432.77 1120.63,-416.68 1151,-389 1183.36,-359.51 1187.54,-325.82 1161,-291 1124.4,-242.98 1066.6,-303.02 1030,-255 1021.65,-244.04 1021.13,-234.55 1030,-224 1056.73,-192.2 1176.78,-182.87 1243.29,-180.13"/>
<polygon fill="midnightblue" stroke="midnightblue" points="322.71,-434.29 312.8,-438.02 322.88,-441.29 322.71,-434.29"/>
</g>
<!-- Node9 -->
<g id="node9" class="node">
<title>Node9</title>
<g id="a_node9"><a xlink:href="resharing_8h.html" target="_top" xlink:title=" ">
<polygon fill="white" stroke="black" points="212,-297 212,-316 328,-316 328,-297 212,-297"/>
<text text-anchor="middle" x="270" y="-304" font-family="Helvetica,sans-Serif" font-size="10.00">src/node/resharing.h</text>
</a>
</g>
</g>
<!-- Node6&#45;&gt;Node9 -->
<g id="edge8" class="edge">
<title>Node6&#45;&gt;Node9</title>
<path fill="none" stroke="midnightblue" d="M247.69,-420.78C253.41,-391.75 264.18,-337.04 268.32,-316.02"/>
<polygon fill="midnightblue" stroke="midnightblue" points="244.2,-420.35 245.71,-430.84 251.07,-421.7 244.2,-420.35"/>
</g>
<!-- Node6&#45;&gt;Node14 -->
<g id="edge14" class="edge">
<title>Node6&#45;&gt;Node14</title>
<path fill="none" stroke="midnightblue" d="M205.21,-427.71C136.57,-404.96 5.6,-351.81 57,-291 86.95,-255.57 217.39,-244.99 295.75,-241.83"/>
<polygon fill="midnightblue" stroke="midnightblue" points="204.26,-431.09 214.85,-430.85 206.42,-424.43 204.26,-431.09"/>
</g>
<!-- Node15 -->
<g id="node15" class="node">
<title>Node15</title>
<g id="a_node15"><a xlink:href="serialization_8h.html" target="_top" xlink:title=" ">
<polygon fill="white" stroke="black" points="281,-364 281,-383 429,-383 429,-364 281,-364"/>
<text text-anchor="middle" x="355" y="-371" font-family="Helvetica,sans-Serif" font-size="10.00">src/node/rpc/serialization.h</text>
</a>
</g>
</g>
<!-- Node6&#45;&gt;Node15 -->
<g id="edge16" class="edge">
<title>Node6&#45;&gt;Node15</title>
<path fill="none" stroke="midnightblue" d="M267.71,-425.62C289.7,-412.74 321.74,-393.98 340.27,-383.13"/>
<polygon fill="midnightblue" stroke="midnightblue" points="265.83,-422.66 258.97,-430.73 269.37,-428.7 265.83,-422.66"/>
</g>
<!-- Node10 -->
<g id="node10" class="node">
<title>Node10</title>
<g id="a_node10"><a xlink:href="node__state_8h.html" target="_top" xlink:title=" ">
<polygon fill="white" stroke="black" points="728,-168.5 728,-187.5 852,-187.5 852,-168.5 728,-168.5"/>
<text text-anchor="middle" x="790" y="-175.5" font-family="Helvetica,sans-Serif" font-size="10.00">src/node/node_state.h</text>
</a>
</g>
</g>
<!-- Node9&#45;&gt;Node10 -->
<g id="edge9" class="edge">
<title>Node9&#45;&gt;Node10</title>
<path fill="none" stroke="midnightblue" d="M268.11,-286.7C267.36,-267.86 269.57,-239.51 287,-224 319.3,-195.26 600.45,-184.09 727.79,-180.48"/>
<polygon fill="midnightblue" stroke="midnightblue" points="264.62,-287.03 268.82,-296.75 271.61,-286.53 264.62,-287.03"/>
</g>
<!-- Node11 -->
<g id="node11" class="node">
<title>Node11</title>
<g id="a_node11"><a xlink:href="enclave_2enclave_8h.html" target="_top" xlink:title=" ">
<polygon fill="white" stroke="black" points="829,-56.5 829,-75.5 951,-75.5 951,-56.5 829,-56.5"/>
<text text-anchor="middle" x="890" y="-63.5" font-family="Helvetica,sans-Serif" font-size="10.00">src/enclave/enclave.h</text>
</a>
</g>
</g>
<!-- Node10&#45;&gt;Node11 -->
<g id="edge10" class="edge">
<title>Node10&#45;&gt;Node11</title>
<path fill="none" stroke="midnightblue" d="M825.75,-164.41C841.65,-157.17 859.36,-146.57 871,-132 884.5,-115.1 888.41,-88.91 889.54,-75.52"/>
<polygon fill="midnightblue" stroke="midnightblue" points="824,-161.36 816.16,-168.49 826.73,-167.8 824,-161.36"/>
</g>
<!-- Node13 -->
<g id="node13" class="node">
<title>Node13</title>
<g id="a_node13"><a xlink:href="gov__effects_8h.html" target="_top" xlink:title=" ">
<polygon fill="white" stroke="black" points="718,-112.5 718,-131.5 862,-131.5 862,-112.5 718,-112.5"/>
<text text-anchor="middle" x="790" y="-119.5" font-family="Helvetica,sans-Serif" font-size="10.00">src/node/rpc/gov_effects.h</text>
</a>
</g>
</g>
<!-- Node10&#45;&gt;Node13 -->
<g id="edge12" class="edge">
<title>Node10&#45;&gt;Node13</title>
<path fill="none" stroke="midnightblue" d="M790,-157.8C790,-148.91 790,-138.78 790,-131.75"/>
<polygon fill="midnightblue" stroke="midnightblue" points="786.5,-158.08 790,-168.08 793.5,-158.08 786.5,-158.08"/>
</g>
<!-- Node12 -->
<g id="node12" class="node">
<title>Node12</title>
<g id="a_node12"><a xlink:href="enclave_2main_8cpp.html" target="_top" xlink:title=" ">
<polygon fill="white" stroke="black" points="830,-0.5 830,-19.5 950,-19.5 950,-0.5 830,-0.5"/>
<text text-anchor="middle" x="890" y="-7.5" font-family="Helvetica,sans-Serif" font-size="10.00">src/enclave/main.cpp</text>
</a>
</g>
</g>
<!-- Node11&#45;&gt;Node12 -->
<g id="edge11" class="edge">
<title>Node11&#45;&gt;Node12</title>
<path fill="none" stroke="midnightblue" d="M890,-45.8C890,-36.91 890,-26.78 890,-19.75"/>
<polygon fill="midnightblue" stroke="midnightblue" points="886.5,-46.08 890,-56.08 893.5,-46.08 886.5,-46.08"/>
</g>
<!-- Node13&#45;&gt;Node11 -->
<g id="edge13" class="edge">
<title>Node13&#45;&gt;Node11</title>
<path fill="none" stroke="midnightblue" d="M815.09,-107.45C833.55,-97.48 858.1,-84.23 873.97,-75.65"/>
<polygon fill="midnightblue" stroke="midnightblue" points="813.2,-104.49 806.07,-112.32 816.53,-110.65 813.2,-104.49"/>
</g>
<!-- Node14&#45;&gt;Node11 -->
<g id="edge15" class="edge">
<title>Node14&#45;&gt;Node11</title>
<path fill="none" stroke="midnightblue" d="M368.82,-215.62C386.77,-186.04 422.36,-135.54 468,-112 529.39,-80.34 727.23,-70.92 828.71,-68.14"/>
<polygon fill="midnightblue" stroke="midnightblue" points="365.69,-214.03 363.63,-224.42 371.72,-217.59 365.69,-214.03"/>
</g>
<!-- Node15&#45;&gt;Node7 -->
<g id="edge17" class="edge">
<title>Node15&#45;&gt;Node7</title>
<path fill="none" stroke="midnightblue" d="M315.39,-361.06C277.24,-350.04 219.46,-333.34 178.56,-321.53"/>
<polygon fill="midnightblue" stroke="midnightblue" points="314.54,-364.46 325.12,-363.87 316.49,-357.73 314.54,-364.46"/>
</g>
<!-- Node15&#45;&gt;Node9 -->
<g id="edge19" class="edge">
<title>Node15&#45;&gt;Node9</title>
<path fill="none" stroke="midnightblue" d="M335.47,-357.57C318.7,-344.74 295.09,-326.69 281.28,-316.13"/>
<polygon fill="midnightblue" stroke="midnightblue" points="333.47,-360.44 343.54,-363.73 337.72,-354.88 333.47,-360.44"/>
</g>
<!-- Node15&#45;&gt;Node10 -->
<g id="edge18" class="edge">
<title>Node15&#45;&gt;Node10</title>
<path fill="none" stroke="midnightblue" d="M366.3,-355.31C388.24,-323.48 439.95,-255.73 502,-224 540.41,-204.36 655.41,-190.92 727.94,-184.13"/>
<polygon fill="midnightblue" stroke="midnightblue" points="363.16,-353.7 360.47,-363.95 368.96,-357.62 363.16,-353.7"/>
</g>
<!-- Node15&#45;&gt;Node14 -->
<g id="edge20" class="edge">
<title>Node15&#45;&gt;Node14</title>
<path fill="none" stroke="midnightblue" d="M355.14,-353.53C355.35,-326.81 355.71,-278.69 355.89,-254.78"/>
<polygon fill="midnightblue" stroke="midnightblue" points="351.64,-353.81 355.07,-363.84 358.64,-353.87 351.64,-353.81"/>
</g>
<!-- Node16 -->
<g id="node16" class="node">
<title>Node16</title>
<g id="a_node16"><a xlink:href="node__frontend_8h.html" target="_top" xlink:title=" ">
<polygon fill="white" stroke="black" points="460,-297 460,-316 618,-316 618,-297 460,-297"/>
<text text-anchor="middle" x="539" y="-304" font-family="Helvetica,sans-Serif" font-size="10.00">src/node/rpc/node_frontend.h</text>
</a>
</g>
</g>
<!-- Node15&#45;&gt;Node16 -->
<g id="edge21" class="edge">
<title>Node15&#45;&gt;Node16</title>
<path fill="none" stroke="midnightblue" d="M389.15,-360.44C425.65,-347.54 482.6,-327.42 514.76,-316.06"/>
<polygon fill="midnightblue" stroke="midnightblue" points="387.7,-357.24 379.43,-363.87 390.03,-363.84 387.7,-357.24"/>
</g>
<!-- Node16&#45;&gt;Node11 -->
<g id="edge22" class="edge">
<title>Node16&#45;&gt;Node11</title>
<path fill="none" stroke="midnightblue" d="M522.36,-289.21C507.25,-272.37 489.15,-245.57 502,-224 569.8,-110.23 737.71,-78.88 828.83,-70.26"/>
<polygon fill="midnightblue" stroke="midnightblue" points="519.97,-291.77 529.39,-296.62 525.04,-286.95 519.97,-291.77"/>
</g>
<!-- Node17 -->
<g id="node17" class="node">
<title>Node17</title>
<g id="a_node17"><a xlink:href="jwt__key__auto__refresh_8h.html" target="_top" xlink:title=" ">
<polygon fill="white" stroke="black" points="510.5,-224.5 510.5,-254.5 635.5,-254.5 635.5,-224.5 510.5,-224.5"/>
<text text-anchor="start" x="518.5" y="-242.5" font-family="Helvetica,sans-Serif" font-size="10.00">src/node/jwt_key_auto</text>
<text text-anchor="middle" x="573" y="-231.5" font-family="Helvetica,sans-Serif" font-size="10.00">_refresh.h</text>
</a>
</g>
</g>
<!-- Node16&#45;&gt;Node17 -->
<g id="edge23" class="edge">
<title>Node16&#45;&gt;Node17</title>
<path fill="none" stroke="midnightblue" d="M548.3,-287.71C553.76,-277.29 560.55,-264.3 565.63,-254.59"/>
<polygon fill="midnightblue" stroke="midnightblue" points="545.12,-286.25 543.59,-296.73 551.32,-289.5 545.12,-286.25"/>
</g>
<!-- Node17&#45;&gt;Node10 -->
<g id="edge24" class="edge">
<title>Node17&#45;&gt;Node10</title>
<path fill="none" stroke="midnightblue" d="M633.98,-221.78C674.68,-210.62 726.51,-196.41 758.98,-187.51"/>
<polygon fill="midnightblue" stroke="midnightblue" points="632.87,-218.45 624.15,-224.47 634.72,-225.21 632.87,-218.45"/>
</g>
<!-- Node21&#45;&gt;Node10 -->
<g id="edge31" class="edge">
<title>Node21&#45;&gt;Node10</title>
<path fill="none" stroke="midnightblue" d="M699.24,-353.45C686.11,-345.74 673.45,-335.42 666,-322 659.31,-309.95 660.41,-303.59 666,-291 688.26,-240.9 745.24,-203.73 773.54,-187.7"/>
<polygon fill="midnightblue" stroke="midnightblue" points="697.88,-356.69 708.34,-358.37 701.21,-350.54 697.88,-356.69"/>
</g>
<!-- Node21&#45;&gt;Node14 -->
<g id="edge32" class="edge">
<title>Node21&#45;&gt;Node14</title>
<path fill="none" stroke="midnightblue" d="M681.69,-371.29C619.64,-367.9 525.09,-356.79 451,-322 416.38,-305.74 384.46,-273.32 367.89,-254.64"/>
<polygon fill="midnightblue" stroke="midnightblue" points="681.58,-374.79 691.74,-371.79 681.92,-367.8 681.58,-374.79"/>
</g>
<!-- Node21&#45;&gt;Node16 -->
<g id="edge33" class="edge">
<title>Node21&#45;&gt;Node16</title>
<path fill="none" stroke="midnightblue" d="M692.38,-355.43C651.81,-342.75 598.2,-326 566.29,-316.03"/>
<polygon fill="midnightblue" stroke="midnightblue" points="691.53,-358.83 702.12,-358.48 693.62,-352.15 691.53,-358.83"/>
</g>
<!-- Node22 -->
<g id="node22" class="node">
<title>Node22</title>
<g id="a_node22"><a xlink:href="secret__broadcast_8h.html" target="_top" xlink:title=" ">
<polygon fill="white" stroke="black" points="837.5,-297 837.5,-316 990.5,-316 990.5,-297 837.5,-297"/>
<text text-anchor="middle" x="914" y="-304" font-family="Helvetica,sans-Serif" font-size="10.00">src/node/secret_broadcast.h</text>
</a>
</g>
</g>
<!-- Node21&#45;&gt;Node22 -->
<g id="edge34" class="edge">
<title>Node21&#45;&gt;Node22</title>
<path fill="none" stroke="midnightblue" d="M792.93,-354.62C825.26,-342.04 867.07,-325.77 892.14,-316.01"/>
<polygon fill="midnightblue" stroke="midnightblue" points="791.29,-351.51 783.24,-358.4 793.83,-358.03 791.29,-351.51"/>
</g>
<!-- Node23 -->
<g id="node23" class="node">
<title>Node23</title>
<g id="a_node23"><a xlink:href="share__manager_8h.html" target="_top" xlink:title=" ">
<polygon fill="white" stroke="black" points="674.5,-297 674.5,-316 819.5,-316 819.5,-297 674.5,-297"/>
<text text-anchor="middle" x="747" y="-304" font-family="Helvetica,sans-Serif" font-size="10.00">src/node/share_manager.h</text>
</a>
</g>
</g>
<!-- Node21&#45;&gt;Node23 -->
<g id="edge36" class="edge">
<title>Node21&#45;&gt;Node23</title>
<path fill="none" stroke="midnightblue" d="M747,-348.25C747,-337.02 747,-324.38 747,-316.19"/>
<polygon fill="midnightblue" stroke="midnightblue" points="743.5,-348.4 747,-358.4 750.5,-348.4 743.5,-348.4"/>
</g>
<!-- Node22&#45;&gt;Node10 -->
<g id="edge35" class="edge">
<title>Node22&#45;&gt;Node10</title>
<path fill="none" stroke="midnightblue" d="M898.15,-289.33C871.63,-262.28 819.17,-208.76 798.58,-187.76"/>
<polygon fill="midnightblue" stroke="midnightblue" points="895.98,-292.11 905.48,-296.81 900.98,-287.21 895.98,-292.11"/>
</g>
<!-- Node23&#45;&gt;Node10 -->
<g id="edge37" class="edge">
<title>Node23&#45;&gt;Node10</title>
<path fill="none" stroke="midnightblue" d="M753.23,-287.17C762.63,-259.53 780.07,-208.22 787.02,-187.76"/>
<polygon fill="midnightblue" stroke="midnightblue" points="749.86,-286.21 749.96,-296.81 756.49,-288.46 749.86,-286.21"/>
</g>
<!-- Node23&#45;&gt;Node14 -->
<g id="edge38" class="edge">
<title>Node23&#45;&gt;Node14</title>
<path fill="none" stroke="midnightblue" d="M685.43,-295.26C611.79,-283.02 489.36,-262.67 416.3,-250.52"/>
<polygon fill="midnightblue" stroke="midnightblue" points="685.04,-298.75 695.48,-296.94 686.19,-291.84 685.04,-298.75"/>
</g>
<!-- Node24&#45;&gt;Node21 -->
<g id="edge66" class="edge">
<title>Node24&#45;&gt;Node21</title>
<path fill="none" stroke="midnightblue" d="M906.03,-422.58C871.11,-412.02 826.69,-398.59 793.67,-388.61"/>
<polygon fill="midnightblue" stroke="midnightblue" points="905.03,-425.93 915.61,-425.48 907.05,-419.23 905.03,-425.93"/>
</g>
<!-- Node25 -->
<g id="node25" class="node">
<title>Node25</title>
<g id="a_node25"><a xlink:href="kv__module__loader_8cpp.html" target="_top" xlink:title=" ">
<polygon fill="white" stroke="black" points="1230.5,-358.5 1230.5,-388.5 1373.5,-388.5 1373.5,-358.5 1230.5,-358.5"/>
<text text-anchor="start" x="1238.5" y="-376.5" font-family="Helvetica,sans-Serif" font-size="10.00">src/apps/js_v8/kv_module</text>
<text text-anchor="middle" x="1302" y="-365.5" font-family="Helvetica,sans-Serif" font-size="10.00">_loader.cpp</text>
</a>
</g>
</g>
<!-- Node24&#45;&gt;Node25 -->
<g id="edge40" class="edge">
<title>Node24&#45;&gt;Node25</title>
<path fill="none" stroke="midnightblue" d="M1028.32,-426.82C1086.45,-415.71 1170.74,-399.59 1230.39,-388.19"/>
<polygon fill="midnightblue" stroke="midnightblue" points="1027.31,-423.45 1018.14,-428.77 1028.62,-430.33 1027.31,-423.45"/>
</g>
<!-- Node26 -->
<g id="node26" class="node">
<title>Node26</title>
<g id="a_node26"><a xlink:href="network__state_8h.html" target="_top" xlink:title=" ">
<polygon fill="white" stroke="black" points="1002,-364 1002,-383 1142,-383 1142,-364 1002,-364"/>
<text text-anchor="middle" x="1072" y="-371" font-family="Helvetica,sans-Serif" font-size="10.00">src/node/network_state.h</text>
</a>
</g>
</g>
<!-- Node24&#45;&gt;Node26 -->
<g id="edge41" class="edge">
<title>Node24&#45;&gt;Node26</title>
<path fill="none" stroke="midnightblue" d="M994.48,-420.31C1015.43,-407.93 1041.66,-392.43 1057.6,-383.01"/>
<polygon fill="midnightblue" stroke="midnightblue" points="992.7,-417.3 985.87,-425.4 996.26,-423.32 992.7,-417.3"/>
</g>
<!-- Node26&#45;&gt;Node10 -->
<g id="edge58" class="edge">
<title>Node26&#45;&gt;Node10</title>
<path fill="none" stroke="midnightblue" d="M1099.14,-358.96C1127.52,-343.03 1165.31,-315.62 1145,-291 1091.42,-226.05 1037.67,-285.01 959,-255 933.86,-245.41 931.2,-235.76 907,-224 876.66,-209.26 840.17,-195.87 816.1,-187.6"/>
<polygon fill="midnightblue" stroke="midnightblue" points="1097.12,-356.07 1089.98,-363.9 1100.44,-362.23 1097.12,-356.07"/>
</g>
<!-- Node26&#45;&gt;Node11 -->
<g id="edge42" class="edge">
<title>Node26&#45;&gt;Node11</title>
<path fill="none" stroke="midnightblue" d="M1152.29,-364.71C1296.19,-350.74 1583.65,-322.8 1589,-322 1771.04,-294.91 1995,-424.54 1995,-240.5 1995,-240.5 1995,-240.5 1995,-177 1995,-146.9 1999.7,-130.55 1976,-112 1935.45,-80.28 1174.71,-69.94 951.23,-67.58"/>
<polygon fill="midnightblue" stroke="midnightblue" points="1151.8,-361.24 1142.18,-365.69 1152.47,-368.21 1151.8,-361.24"/>
</g>
<!-- Node26&#45;&gt;Node16 -->
<g id="edge59" class="edge">
<title>Node26&#45;&gt;Node16</title>
<path fill="none" stroke="midnightblue" d="M991.91,-362.73C887.87,-350.05 707.9,-328.1 609.04,-316.04"/>
<polygon fill="midnightblue" stroke="midnightblue" points="991.7,-366.23 1002.05,-363.97 992.54,-359.28 991.7,-366.23"/>
</g>
<!-- Node26&#45;&gt;Node22 -->
<g id="edge62" class="edge">
<title>Node26&#45;&gt;Node22</title>
<path fill="none" stroke="midnightblue" d="M1041.49,-359.95C1010.21,-347.08 962.38,-327.4 935.07,-316.17"/>
<polygon fill="midnightblue" stroke="midnightblue" points="1040.44,-363.3 1051.02,-363.87 1043.1,-356.83 1040.44,-363.3"/>
</g>
<!-- Node26&#45;&gt;Node23 -->
<g id="edge63" class="edge">
<title>Node26&#45;&gt;Node23</title>
<path fill="none" stroke="midnightblue" d="M1019.29,-361.96C955.32,-349.16 848.72,-327.84 789.66,-316.03"/>
<polygon fill="midnightblue" stroke="midnightblue" points="1018.69,-365.41 1029.18,-363.94 1020.06,-358.54 1018.69,-365.41"/>
</g>
<!-- Node27 -->
<g id="node27" class="node">
<title>Node27</title>
<g id="a_node27"><a xlink:href="wrap_8h.html" target="_top" xlink:title=" ">
<polygon fill="white" stroke="black" points="1230,-297 1230,-316 1308,-316 1308,-297 1230,-297"/>
<text text-anchor="middle" x="1269" y="-304" font-family="Helvetica,sans-Serif" font-size="10.00">src/js/wrap.h</text>
</a>
</g>
</g>
<!-- Node26&#45;&gt;Node27 -->
<g id="edge43" class="edge">
<title>Node26&#45;&gt;Node27</title>
<path fill="none" stroke="midnightblue" d="M1108.06,-360.6C1147.12,-347.71 1208.47,-327.47 1243.05,-316.06"/>
<polygon fill="midnightblue" stroke="midnightblue" points="1106.56,-357.41 1098.16,-363.87 1108.75,-364.06 1106.56,-357.41"/>
</g>
<!-- Node34 -->
<g id="node34" class="node">
<title>Node34</title>
<g id="a_node34"><a xlink:href="user__frontend_8h.html" target="_top" xlink:title=" ">
<polygon fill="white" stroke="black" points="1811.5,-112.5 1811.5,-131.5 1966.5,-131.5 1966.5,-112.5 1811.5,-112.5"/>
<text text-anchor="middle" x="1889" y="-119.5" font-family="Helvetica,sans-Serif" font-size="10.00">src/node/rpc/user_frontend.h</text>
</a>
</g>
</g>
<!-- Node26&#45;&gt;Node34 -->
<g id="edge60" class="edge">
<title>Node26&#45;&gt;Node34</title>
<path fill="none" stroke="midnightblue" d="M1151.97,-362.73C1345.03,-338.85 1822.7,-277.76 1849,-255 1886.66,-222.41 1889.53,-155.64 1889.28,-131.74"/>
<polygon fill="midnightblue" stroke="midnightblue" points="1151.38,-359.28 1141.88,-363.98 1152.23,-366.23 1151.38,-359.28"/>
</g>
<!-- Node35 -->
<g id="node35" class="node">
<title>Node35</title>
<g id="a_node35"><a xlink:href="snapshotter_8h.html" target="_top" xlink:title=" ">
<polygon fill="white" stroke="black" points="1008.5,-297 1008.5,-316 1135.5,-316 1135.5,-297 1008.5,-297"/>
<text text-anchor="middle" x="1072" y="-304" font-family="Helvetica,sans-Serif" font-size="10.00">src/node/snapshotter.h</text>
</a>
</g>
</g>
<!-- Node26&#45;&gt;Node35 -->
<g id="edge64" class="edge">
<title>Node26&#45;&gt;Node35</title>
<path fill="none" stroke="midnightblue" d="M1072,-353.54C1072,-341.17 1072,-325.62 1072,-316.13"/>
<polygon fill="midnightblue" stroke="midnightblue" points="1068.5,-353.73 1072,-363.73 1075.5,-353.73 1068.5,-353.73"/>
</g>
<!-- Node27&#45;&gt;Node8 -->
<g id="edge55" class="edge">
<title>Node27&#45;&gt;Node8</title>
<path fill="none" stroke="midnightblue" d="M1237.32,-292.28C1221.87,-284.01 1204.77,-271.73 1196,-255 1189.6,-242.8 1188.71,-235.69 1196,-224 1207.67,-205.3 1229.62,-194.15 1249.15,-187.64"/>
<polygon fill="midnightblue" stroke="midnightblue" points="1236.13,-295.59 1246.64,-296.91 1239.24,-289.32 1236.13,-295.59"/>
</g>
<!-- Node27&#45;&gt;Node10 -->
<g id="edge56" class="edge">
<title>Node27&#45;&gt;Node10</title>
<path fill="none" stroke="midnightblue" d="M1219.65,-297.41C1170.93,-288.89 1094.56,-274.05 1030,-255 993.03,-244.09 985.58,-236.15 949,-224 906.12,-209.76 855.82,-196.01 823.46,-187.53"/>
<polygon fill="midnightblue" stroke="midnightblue" points="1219.17,-300.88 1229.62,-299.14 1220.36,-293.99 1219.17,-300.88"/>
</g>
<!-- Node27&#45;&gt;Node11 -->
<g id="edge45" class="edge">
<title>Node27&#45;&gt;Node11</title>
<path fill="none" stroke="midnightblue" d="M1318.49,-304.79C1449.49,-302.4 1797.67,-292.55 1832,-255 1841.3,-244.83 1840.91,-234.51 1832,-224 1717.87,-89.27 1141.53,-70.05 951.14,-67.4"/>
<polygon fill="midnightblue" stroke="midnightblue" points="1318.27,-301.29 1308.33,-304.97 1318.39,-308.29 1318.27,-301.29"/>
</g>
<!-- Node27&#45;&gt;Node14 -->
<g id="edge57" class="edge">
<title>Node27&#45;&gt;Node14</title>
<path fill="none" stroke="midnightblue" d="M1219.87,-299.06C1197.12,-296.26 1169.72,-293.14 1145,-291 859.84,-266.37 787.37,-277.15 502,-255 473.81,-252.81 442.62,-249.8 416.33,-247.08"/>
<polygon fill="midnightblue" stroke="midnightblue" points="1219.61,-302.56 1229.97,-300.32 1220.48,-295.61 1219.61,-302.56"/>
</g>
<!-- Node28 -->
<g id="node28" class="node">
<title>Node28</title>
<g id="a_node28"><a xlink:href="js__generic__base_8cpp.html" target="_top" xlink:title=" ">
<polygon fill="white" stroke="black" points="1205,-224.5 1205,-254.5 1323,-254.5 1323,-224.5 1205,-224.5"/>
<text text-anchor="start" x="1213" y="-242.5" font-family="Helvetica,sans-Serif" font-size="10.00">src/apps/js_generic</text>
<text text-anchor="middle" x="1264" y="-231.5" font-family="Helvetica,sans-Serif" font-size="10.00">/js_generic_base.cpp</text>
</a>
</g>
</g>
<!-- Node27&#45;&gt;Node28 -->
<g id="edge44" class="edge">
<title>Node27&#45;&gt;Node28</title>
<path fill="none" stroke="midnightblue" d="M1267.56,-286.74C1266.77,-276.49 1265.81,-264 1265.08,-254.59"/>
<polygon fill="midnightblue" stroke="midnightblue" points="1264.07,-287.03 1268.33,-296.73 1271.05,-286.49 1264.07,-287.03"/>
</g>
<!-- Node29 -->
<g id="node29" class="node">
<title>Node29</title>
<g id="a_node29"><a xlink:href="js_2consensus_8cpp.html" target="_top" xlink:title=" ">
<polygon fill="white" stroke="black" points="1341,-230 1341,-249 1457,-249 1457,-230 1341,-230"/>
<text text-anchor="middle" x="1399" y="-237" font-family="Helvetica,sans-Serif" font-size="10.00">src/js/consensus.cpp</text>
</a>
</g>
</g>
<!-- Node27&#45;&gt;Node29 -->
<g id="edge46" class="edge">
<title>Node27&#45;&gt;Node29</title>
<path fill="none" stroke="midnightblue" d="M1295.45,-292.27C1321.2,-279.4 1359.58,-260.21 1381.67,-249.17"/>
<polygon fill="midnightblue" stroke="midnightblue" points="1293.64,-289.27 1286.26,-296.87 1296.77,-295.53 1293.64,-289.27"/>
</g>
<!-- Node30 -->
<g id="node30" class="node">
<title>Node30</title>
<g id="a_node30"><a xlink:href="conv_8cpp.html" target="_top" xlink:title=" ">
<polygon fill="white" stroke="black" points="1475,-230 1475,-249 1563,-249 1563,-230 1475,-230"/>
<text text-anchor="middle" x="1519" y="-237" font-family="Helvetica,sans-Serif" font-size="10.00">src/js/conv.cpp</text>
</a>
</g>
</g>
<!-- Node27&#45;&gt;Node30 -->
<g id="edge48" class="edge">
<title>Node27&#45;&gt;Node30</title>
<path fill="none" stroke="midnightblue" d="M1312.8,-294.49C1352.76,-284.39 1413.41,-268.93 1466,-255 1473.19,-253.09 1480.92,-251 1488.19,-249.02"/>
<polygon fill="midnightblue" stroke="midnightblue" points="1311.7,-291.16 1302.86,-297 1313.41,-297.94 1311.7,-291.16"/>
</g>
<!-- Node31 -->
<g id="node31" class="node">
<title>Node31</title>
<g id="a_node31"><a xlink:href="js_2crypto_8cpp.html" target="_top" xlink:title=" ">
<polygon fill="white" stroke="black" points="1727,-230 1727,-249 1823,-249 1823,-230 1727,-230"/>
<text text-anchor="middle" x="1775" y="-237" font-family="Helvetica,sans-Serif" font-size="10.00">src/js/crypto.cpp</text>
</a>
</g>
</g>
<!-- Node27&#45;&gt;Node31 -->
<g id="edge50" class="edge">
<title>Node27&#45;&gt;Node31</title>
<path fill="none" stroke="midnightblue" d="M1318.14,-302.19C1401.07,-296.11 1573.88,-281.31 1718,-255 1726.74,-253.4 1736.12,-251.22 1744.7,-249.03"/>
<polygon fill="midnightblue" stroke="midnightblue" points="1317.72,-298.71 1308,-302.92 1318.23,-305.69 1317.72,-298.71"/>
</g>
<!-- Node32 -->
<g id="node32" class="node">
<title>Node32</title>
<g id="a_node32"><a xlink:href="js_2historical_8cpp.html" target="_top" xlink:title=" ">
<polygon fill="white" stroke="black" points="1039,-230 1039,-249 1149,-249 1149,-230 1039,-230"/>
<text text-anchor="middle" x="1094" y="-237" font-family="Helvetica,sans-Serif" font-size="10.00">src/js/historical.cpp</text>
</a>
</g>
</g>
<!-- Node27&#45;&gt;Node32 -->
<g id="edge52" class="edge">
<title>Node27&#45;&gt;Node32</title>
<path fill="none" stroke="midnightblue" d="M1236.07,-293.27C1201.34,-280.37 1147.51,-260.38 1117.06,-249.06"/>
<polygon fill="midnightblue" stroke="midnightblue" points="1235.17,-296.67 1245.76,-296.87 1237.61,-290.11 1235.17,-296.67"/>
</g>
<!-- Node33 -->
<g id="node33" class="node">
<title>Node33</title>
<g id="a_node33"><a xlink:href="openenclave_8cpp.html" target="_top" xlink:title=" ">
<polygon fill="white" stroke="black" points="1581,-230 1581,-249 1709,-249 1709,-230 1581,-230"/>
<text text-anchor="middle" x="1645" y="-237" font-family="Helvetica,sans-Serif" font-size="10.00">src/js/openenclave.cpp</text>
</a>
</g>
</g>
<!-- Node27&#45;&gt;Node33 -->
<g id="edge54" class="edge">
<title>Node27&#45;&gt;Node33</title>
<path fill="none" stroke="midnightblue" d="M1318.25,-297.77C1378.27,-288.24 1482.73,-271.3 1572,-255 1582.17,-253.14 1593.11,-251.03 1603.35,-249"/>
<polygon fill="midnightblue" stroke="midnightblue" points="1317.62,-294.33 1308.29,-299.35 1318.71,-301.24 1317.62,-294.33"/>
</g>
<!-- Node29&#45;&gt;Node8 -->
<g id="edge47" class="edge">
<title>Node29&#45;&gt;Node8</title>
<path fill="none" stroke="midnightblue" d="M1374.21,-225.21C1352.71,-213.69 1322.24,-197.36 1303.87,-187.51"/>
<polygon fill="midnightblue" stroke="midnightblue" points="1372.63,-228.34 1383.1,-229.98 1375.94,-222.17 1372.63,-228.34"/>
</g>
<!-- Node30&#45;&gt;Node8 -->
<g id="edge49" class="edge">
<title>Node30&#45;&gt;Node8</title>
<path fill="none" stroke="midnightblue" d="M1478.47,-227.33C1474.26,-226.19 1470.05,-225.07 1466,-224 1416.22,-210.9 1358.41,-196.42 1322.51,-187.51"/>
<polygon fill="midnightblue" stroke="midnightblue" points="1477.63,-230.72 1488.2,-229.96 1479.46,-223.97 1477.63,-230.72"/>
</g>
<!-- Node31&#45;&gt;Node8 -->
<g id="edge51" class="edge">
<title>Node31&#45;&gt;Node8</title>
<path fill="none" stroke="midnightblue" d="M1734.79,-227.5C1729.18,-226.19 1723.47,-224.98 1718,-224 1578.53,-199.1 1410.97,-186.45 1332.56,-181.53"/>
<polygon fill="midnightblue" stroke="midnightblue" points="1734.16,-230.95 1744.71,-229.93 1735.83,-224.15 1734.16,-230.95"/>
</g>
<!-- Node32&#45;&gt;Node8 -->
<g id="edge53" class="edge">
<title>Node32&#45;&gt;Node8</title>
<path fill="none" stroke="midnightblue" d="M1131.4,-227.03C1169.11,-215.46 1226.43,-197.88 1260.26,-187.51"/>
<polygon fill="midnightblue" stroke="midnightblue" points="1130.33,-223.7 1121.8,-229.98 1132.38,-230.39 1130.33,-223.7"/>
</g>
<!-- Node34&#45;&gt;Node11 -->
<g id="edge61" class="edge">
<title>Node34&#45;&gt;Node11</title>
<path fill="none" stroke="midnightblue" d="M1800.94,-112.3C1799.62,-112.2 1798.31,-112.1 1797,-112 1479,-88.57 1097.35,-74.07 951.11,-69.02"/>
<polygon fill="midnightblue" stroke="midnightblue" points="1800.97,-115.81 1811.22,-113.13 1801.54,-108.83 1800.97,-115.81"/>
</g>
<!-- Node35&#45;&gt;Node10 -->
<g id="edge65" class="edge">
<title>Node35&#45;&gt;Node10</title>
<path fill="none" stroke="midnightblue" d="M1030.38,-294.06C999.56,-285.01 956.87,-271.2 921,-255 897.4,-244.34 832.55,-205.08 803.91,-187.55"/>
<polygon fill="midnightblue" stroke="midnightblue" points="1029.77,-297.53 1040.35,-296.95 1031.72,-290.81 1029.77,-297.53"/>
</g>
</g>
</svg>
        <g id="navigator" transform="translate(0 0)" fill="#404254">
                <rect fill="#f2f5e9" fill-opacity="0.5" stroke="#606060" stroke-width=".5" x="0" y="0" width="60" height="60"/>
                <use id="zoomplus" xlink:href="#zoomPlus" x="17" y="9" onmousedown="handleZoom(evt,'in')"/>
                <use id="zoomminus" xlink:href="#zoomMin" x="42" y="9" onmousedown="handleZoom(evt,'out')"/>
                <use id="reset" xlink:href="#resetDef" x="30" y="36" onmousedown="handleReset()"/>
                <g id="arrowUp" xlink:href="#dirArrow" transform="translate(30 24)" onmousedown="handlePan(0,-1)">
                  <use xlink:href="#rim" fill="#404040">
                        <set attributeName="fill" to="#808080" begin="arrowUp.mouseover" end="arrowUp.mouseout"/>
                  </use>
                  <path fill="none" stroke="white" stroke-width="1.5" d="M0,-3.0v7 M-2.5,-0.5L0,-3.0L2.5,-0.5"/>
                </g>
                <g id="arrowRight" xlink:href="#dirArrow" transform="rotate(90) translate(36 -43)" onmousedown="handlePan(1,0)">
                  <use xlink:href="#rim" fill="#404040">
                        <set attributeName="fill" to="#808080" begin="arrowRight.mouseover" end="arrowRight.mouseout"/>
                  </use>
                  <path fill="none" stroke="white" stroke-width="1.5" d="M0,-3.0v7 M-2.5,-0.5L0,-3.0L2.5,-0.5"/>
                </g>
                <g id="arrowDown" xlink:href="#dirArrow" transform="rotate(180) translate(-30 -48)" onmousedown="handlePan(0,1)">
                  <use xlink:href="#rim" fill="#404040">
                        <set attributeName="fill" to="#808080" begin="arrowDown.mouseover" end="arrowDown.mouseout"/>
                  </use>
                  <path fill="none" stroke="white" stroke-width="1.5" d="M0,-3.0v7 M-2.5,-0.5L0,-3.0L2.5,-0.5"/>
                </g>
                <g id="arrowLeft" xlink:href="#dirArrow" transform="rotate(270) translate(-36 17)" onmousedown="handlePan(-1,0)">
                  <use xlink:href="#rim" fill="#404040">
                        <set attributeName="fill" to="#808080" begin="arrowLeft.mouseover" end="arrowLeft.mouseout"/>
                  </use>
                  <path fill="none" stroke="white" stroke-width="1.5" d="M0,-3.0v7 M-2.5,-0.5L0,-3.0L2.5,-0.5"/>
                </g>
        </g>
        <svg viewBox="0 0 15 15" width="100%" height="30px" preserveAspectRatio="xMaxYMin meet">
         <g id="arrow_out" transform="scale(0.3 0.3)">
          <a xlink:href="members_8h__dep__incl_org.svg" target="_base">
           <rect id="button" ry="5" rx="5" y="6" x="6" height="38" width="38"
                fill="#f2f5e9" fill-opacity="0.5" stroke="#606060" stroke-width="1.0"/>
           <path id="arrow"
             d="M 11.500037,31.436501 C 11.940474,20.09759 22.043105,11.32322 32.158766,21.979434 L 37.068811,17.246167 C 37.068811,17.246167 37.088388,32 37.088388,32 L 22.160133,31.978069 C 22.160133,31.978069 26.997745,27.140456 26.997745,27.140456 C 18.528582,18.264221 13.291696,25.230495 11.500037,31.436501 z"
             style="fill:#404040;"/>
          </a>
         </g>
        </svg>
</svg>
