<?xml version="1.0" encoding="UTF-8" standalone="no"?>
<!DOCTYPE svg PUBLIC "-//W3C//DTD SVG 1.1//EN"
 "http://www.w3.org/Graphics/SVG/1.1/DTD/svg11.dtd">
<!-- Generated by graphviz version 2.43.0 (0)
 -->
<!-- Title: src/tls/msg_types.h Pages: 1 -->
<!--zoomable 956 -->
<svg id="main" version="1.1" xmlns="http://www.w3.org/2000/svg" xmlns:xlink="http://www.w3.org/1999/xlink" xml:space="preserve" onload="init(evt)">
<style type="text/css"><![CDATA[
.edge:hover path { stroke: red; }
.edge:hover polygon { stroke: red; fill: red; }
]]></style>
<script type="text/javascript"><![CDATA[
var edges = document.getElementsByTagName('g');
if (edges && edges.length) {
  for (var i=0;i<edges.length;i++) {
    if (edges[i].id.substr(0,4)=='edge') {
      edges[i].setAttribute('class','edge');
    }
  }
}
]]></script>
        <defs>
                <circle id="rim" cx="0" cy="0" r="7"/>
                <circle id="rim2" cx="0" cy="0" r="3.5"/>
                <g id="zoomPlus">
                        <use xlink:href="#rim" fill="#404040">
                                <set attributeName="fill" to="#808080" begin="zoomplus.mouseover" end="zoomplus.mouseout"/>
                        </use>
                        <path d="M-4,0h8M0,-4v8" fill="none" stroke="white" stroke-width="1.5" pointer-events="none"/>
                </g>
                <g id="zoomMin">
                        <use xlink:href="#rim" fill="#404040">
                                <set attributeName="fill" to="#808080" begin="zoomminus.mouseover" end="zoomminus.mouseout"/>
                        </use>
                        <path d="M-4,0h8" fill="none" stroke="white" stroke-width="1.5" pointer-events="none"/>
                </g>
                <g id="dirArrow">
                        <path fill="none" stroke="white" stroke-width="1.5" d="M0,-3.0v7 M-2.5,-0.5L0,-3.0L2.5,-0.5"/>
                </g>
               <g id="resetDef">
                       <use xlink:href="#rim2" fill="#404040">
                               <set attributeName="fill" to="#808080" begin="reset.mouseover" end="reset.mouseout"/>
                       </use>
               </g>
        </defs>

<script type="text/javascript">
var viewWidth = 1034;
var viewHeight = 956;
var sectionId = 'dynsection-1';
</script>
<script xlink:href="svgpan.js"/>
<svg id="graph" class="graph">
<g id="viewport">
<title>src/tls/msg_types.h</title>
<polygon fill="white" stroke="transparent" points="-4,4 -4,-952 1030.48,-952 1030.48,4 -4,4"/>
<!-- Node1 -->
<g id="node1" class="node">
<title>Node1</title>
<g id="a_node1"><a xlink:title=" ">
<polygon fill="#bfbfbf" stroke="black" points="337.5,-928.5 337.5,-947.5 448.5,-947.5 448.5,-928.5 337.5,-928.5"/>
<text text-anchor="middle" x="393" y="-935.5" font-family="Helvetica,sans-Serif" font-size="10.00">src/tls/msg_types.h</text>
</a>
</g>
</g>
<!-- Node2 -->
<g id="node2" class="node">
<title>Node2</title>
<g id="a_node2"><a xlink:href="client__endpoint_8h.html" target="_top" xlink:title=" ">
<polygon fill="white" stroke="black" points="179,-749.5 179,-779.5 281,-779.5 281,-749.5 179,-749.5"/>
<text text-anchor="start" x="187" y="-767.5" font-family="Helvetica,sans-Serif" font-size="10.00">src/enclave/client</text>
<text text-anchor="middle" x="230" y="-756.5" font-family="Helvetica,sans-Serif" font-size="10.00">_endpoint.h</text>
</a>
</g>
</g>
<!-- Node1&#45;&gt;Node2 -->
<g id="edge1" class="edge">
<title>Node1&#45;&gt;Node2</title>
<path fill="none" stroke="midnightblue" d="M361.66,-924.04C345.59,-916.35 326.41,-905.46 312,-892 275.66,-858.05 248.09,-804.81 236.29,-779.62"/>
<polygon fill="midnightblue" stroke="midnightblue" points="360.66,-927.43 371.2,-928.41 363.57,-921.06 360.66,-927.43"/>
</g>
<!-- Node17 -->
<g id="node17" class="node">
<title>Node17</title>
<g id="a_node17"><a xlink:href="tls__endpoint_8h.html" target="_top" xlink:title=" ">
<polygon fill="white" stroke="black" points="321,-872.5 321,-891.5 465,-891.5 465,-872.5 321,-872.5"/>
<text text-anchor="middle" x="393" y="-879.5" font-family="Helvetica,sans-Serif" font-size="10.00">src/enclave/tls_endpoint.h</text>
</a>
</g>
</g>
<!-- Node1&#45;&gt;Node17 -->
<g id="edge25" class="edge">
<title>Node1&#45;&gt;Node17</title>
<path fill="none" stroke="midnightblue" d="M393,-917.8C393,-908.91 393,-898.78 393,-891.75"/>
<polygon fill="midnightblue" stroke="midnightblue" points="389.5,-918.08 393,-928.08 396.5,-918.08 389.5,-918.08"/>
</g>
<!-- Node35 -->
<g id="node35" class="node">
<title>Node35</title>
<g id="a_node35"><a xlink:href="rpc__connections_8h.html" target="_top" xlink:title=" ">
<polygon fill="white" stroke="black" points="493,-872.5 493,-891.5 639,-891.5 639,-872.5 493,-872.5"/>
<text text-anchor="middle" x="566" y="-879.5" font-family="Helvetica,sans-Serif" font-size="10.00">src/host/rpc_connections.h</text>
</a>
</g>
</g>
<!-- Node1&#45;&gt;Node35 -->
<g id="edge56" class="edge">
<title>Node1&#45;&gt;Node35</title>
<path fill="none" stroke="midnightblue" d="M430.05,-925.44C462.66,-915.26 509.41,-900.66 538.72,-891.52"/>
<polygon fill="midnightblue" stroke="midnightblue" points="428.92,-922.12 420.41,-928.44 431,-928.8 428.92,-922.12"/>
</g>
<!-- Node3 -->
<g id="node3" class="node">
<title>Node3</title>
<g id="a_node3"><a xlink:href="http__endpoint_8h.html" target="_top" xlink:title=" ">
<polygon fill="white" stroke="black" points="198.5,-559.5 198.5,-578.5 331.5,-578.5 331.5,-559.5 198.5,-559.5"/>
<text text-anchor="middle" x="265" y="-566.5" font-family="Helvetica,sans-Serif" font-size="10.00">src/http/http_endpoint.h</text>
</a>
</g>
</g>
<!-- Node2&#45;&gt;Node3 -->
<g id="edge2" class="edge">
<title>Node2&#45;&gt;Node3</title>
<path fill="none" stroke="midnightblue" d="M226.53,-739.24C225.5,-730.94 224.51,-721.58 224,-713 223.19,-699.25 221.59,-695.57 224,-682 231.12,-641.83 251.56,-597.16 260.61,-578.7"/>
<polygon fill="midnightblue" stroke="midnightblue" points="223.09,-739.94 227.87,-749.39 230.03,-739.02 223.09,-739.94"/>
</g>
<!-- Node4 -->
<g id="node4" class="node">
<title>Node4</title>
<g id="a_node4"><a xlink:href="rpc__sessions_8h.html" target="_top" xlink:title=" ">
<polygon fill="white" stroke="black" points="3,-498 3,-517 149,-517 149,-498 3,-498"/>
<text text-anchor="middle" x="76" y="-505" font-family="Helvetica,sans-Serif" font-size="10.00">src/enclave/rpc_sessions.h</text>
</a>
</g>
</g>
<!-- Node3&#45;&gt;Node4 -->
<g id="edge3" class="edge">
<title>Node3&#45;&gt;Node4</title>
<path fill="none" stroke="midnightblue" d="M228.09,-556.38C191.35,-544.82 135.85,-527.34 103.03,-517.01"/>
<polygon fill="midnightblue" stroke="midnightblue" points="227.33,-559.81 237.92,-559.48 229.43,-553.13 227.33,-559.81"/>
</g>
<!-- Node5 -->
<g id="node5" class="node">
<title>Node5</title>
<g id="a_node5"><a xlink:href="enclave_2enclave_8h.html" target="_top" xlink:title=" ">
<polygon fill="white" stroke="black" points="477,-56.5 477,-75.5 599,-75.5 599,-56.5 477,-56.5"/>
<text text-anchor="middle" x="538" y="-63.5" font-family="Helvetica,sans-Serif" font-size="10.00">src/enclave/enclave.h</text>
</a>
</g>
</g>
<!-- Node4&#45;&gt;Node5 -->
<g id="edge4" class="edge">
<title>Node4&#45;&gt;Node5</title>
<path fill="none" stroke="midnightblue" d="M59.47,-490.67C37.12,-467.46 0,-421.81 0,-374.5 0,-374.5 0,-374.5 0,-182.5 0,-85.89 335.8,-69.84 476.81,-67.36"/>
<polygon fill="midnightblue" stroke="midnightblue" points="57.14,-493.29 66.68,-497.91 62.11,-488.35 57.14,-493.29"/>
</g>
<!-- Node7 -->
<g id="node7" class="node">
<title>Node7</title>
<g id="a_node7"><a xlink:href="node__client_8h.html" target="_top" xlink:title=" ">
<polygon fill="white" stroke="black" points="104,-431 104,-450 230,-450 230,-431 104,-431"/>
<text text-anchor="middle" x="167" y="-438" font-family="Helvetica,sans-Serif" font-size="10.00">src/node/node_client.h</text>
</a>
</g>
</g>
<!-- Node4&#45;&gt;Node7 -->
<g id="edge6" class="edge">
<title>Node4&#45;&gt;Node7</title>
<path fill="none" stroke="midnightblue" d="M96.41,-491.92C114.4,-479.07 140.01,-460.78 154.92,-450.13"/>
<polygon fill="midnightblue" stroke="midnightblue" points="94.38,-489.07 88.27,-497.73 98.44,-494.77 94.38,-489.07"/>
</g>
<!-- Node10 -->
<g id="node10" class="node">
<title>Node10</title>
<g id="a_node10"><a xlink:href="node__state_8h.html" target="_top" xlink:title=" ">
<polygon fill="white" stroke="black" points="276,-174 276,-193 400,-193 400,-174 276,-174"/>
<text text-anchor="middle" x="338" y="-181" font-family="Helvetica,sans-Serif" font-size="10.00">src/node/node_state.h</text>
</a>
</g>
</g>
<!-- Node4&#45;&gt;Node10 -->
<g id="edge22" class="edge">
<title>Node4&#45;&gt;Node10</title>
<path fill="none" stroke="midnightblue" d="M67.33,-488.5C56.11,-463.52 38,-416.65 38,-374.5 38,-374.5 38,-374.5 38,-311 38,-276.18 31.57,-258.78 57,-235 87.96,-206.06 202.93,-193.25 275.87,-187.93"/>
<polygon fill="midnightblue" stroke="midnightblue" points="64.26,-490.19 71.64,-497.79 70.61,-487.24 64.26,-490.19"/>
</g>
<!-- Node16 -->
<g id="node16" class="node">
<title>Node16</title>
<g id="a_node16"><a xlink:href="resharing_8h.html" target="_top" xlink:title=" ">
<polygon fill="white" stroke="black" points="66,-241 66,-260 182,-260 182,-241 66,-241"/>
<text text-anchor="middle" x="124" y="-248" font-family="Helvetica,sans-Serif" font-size="10.00">src/node/resharing.h</text>
</a>
</g>
</g>
<!-- Node4&#45;&gt;Node16 -->
<g id="edge23" class="edge">
<title>Node4&#45;&gt;Node16</title>
<path fill="none" stroke="midnightblue" d="M79.53,-487.75C89.14,-436.71 115.5,-296.65 122.35,-260.24"/>
<polygon fill="midnightblue" stroke="midnightblue" points="76.06,-487.25 77.65,-497.72 82.94,-488.54 76.06,-487.25"/>
</g>
<!-- Node6 -->
<g id="node6" class="node">
<title>Node6</title>
<g id="a_node6"><a xlink:href="enclave_2main_8cpp.html" target="_top" xlink:title=" ">
<polygon fill="white" stroke="black" points="478,-0.5 478,-19.5 598,-19.5 598,-0.5 478,-0.5"/>
<text text-anchor="middle" x="538" y="-7.5" font-family="Helvetica,sans-Serif" font-size="10.00">src/enclave/main.cpp</text>
</a>
</g>
</g>
<!-- Node5&#45;&gt;Node6 -->
<g id="edge5" class="edge">
<title>Node5&#45;&gt;Node6</title>
<path fill="none" stroke="midnightblue" d="M538,-45.8C538,-36.91 538,-26.78 538,-19.75"/>
<polygon fill="midnightblue" stroke="midnightblue" points="534.5,-46.08 538,-56.08 541.5,-46.08 534.5,-46.08"/>
</g>
<!-- Node8 -->
<g id="node8" class="node">
<title>Node8</title>
<g id="a_node8"><a xlink:href="orc__requests_8h.html" target="_top" xlink:title=" ">
<polygon fill="white" stroke="black" points="326.5,-358.5 326.5,-388.5 445.5,-388.5 445.5,-358.5 326.5,-358.5"/>
<text text-anchor="start" x="334.5" y="-376.5" font-family="Helvetica,sans-Serif" font-size="10.00">src/consensus/aft/orc</text>
<text text-anchor="middle" x="386" y="-365.5" font-family="Helvetica,sans-Serif" font-size="10.00">_requests.h</text>
</a>
</g>
</g>
<!-- Node7&#45;&gt;Node8 -->
<g id="edge7" class="edge">
<title>Node7&#45;&gt;Node8</title>
<path fill="none" stroke="midnightblue" d="M206.03,-427.92C243.16,-416.9 299.09,-400.29 338.74,-388.53"/>
<polygon fill="midnightblue" stroke="midnightblue" points="204.67,-424.67 196.08,-430.87 206.66,-431.38 204.67,-424.67"/>
</g>
<!-- Node9 -->
<g id="node9" class="node">
<title>Node9</title>
<g id="a_node9"><a xlink:href="raft_8h.html" target="_top" xlink:title=" ">
<polygon fill="white" stroke="black" points="208.5,-302.5 208.5,-321.5 337.5,-321.5 337.5,-302.5 208.5,-302.5"/>
<text text-anchor="middle" x="273" y="-309.5" font-family="Helvetica,sans-Serif" font-size="10.00">src/consensus/aft/raft.h</text>
</a>
</g>
</g>
<!-- Node7&#45;&gt;Node9 -->
<g id="edge17" class="edge">
<title>Node7&#45;&gt;Node9</title>
<path fill="none" stroke="midnightblue" d="M162.75,-421.01C159.77,-403.25 158.3,-376.48 171,-358 184.05,-339.02 207,-327.96 227.84,-321.56"/>
<polygon fill="midnightblue" stroke="midnightblue" points="159.35,-421.85 164.74,-430.97 166.21,-420.48 159.35,-421.85"/>
</g>
<!-- Node14 -->
<g id="node14" class="node">
<title>Node14</title>
<g id="a_node14"><a xlink:href="http__node__client_8h.html" target="_top" xlink:title=" ">
<polygon fill="white" stroke="black" points="200,-235.5 200,-265.5 310,-265.5 310,-235.5 200,-235.5"/>
<text text-anchor="start" x="208" y="-253.5" font-family="Helvetica,sans-Serif" font-size="10.00">src/node/http_node</text>
<text text-anchor="middle" x="255" y="-242.5" font-family="Helvetica,sans-Serif" font-size="10.00">_client.h</text>
</a>
</g>
</g>
<!-- Node7&#45;&gt;Node14 -->
<g id="edge18" class="edge">
<title>Node7&#45;&gt;Node14</title>
<path fill="none" stroke="midnightblue" d="M160.63,-420.99C155.84,-404.17 151.18,-378.87 158,-358 171.21,-317.59 209.65,-283.88 233.99,-265.8"/>
<polygon fill="midnightblue" stroke="midnightblue" points="157.34,-422.2 163.67,-430.69 164.02,-420.1 157.34,-422.2"/>
</g>
<!-- Node15 -->
<g id="node15" class="node">
<title>Node15</title>
<g id="a_node15"><a xlink:href="retired__nodes__cleanup_8h.html" target="_top" xlink:title=" ">
<polygon fill="white" stroke="black" points="180,-358.5 180,-388.5 308,-388.5 308,-358.5 180,-358.5"/>
<text text-anchor="start" x="188" y="-376.5" font-family="Helvetica,sans-Serif" font-size="10.00">src/node/retired_nodes</text>
<text text-anchor="middle" x="244" y="-365.5" font-family="Helvetica,sans-Serif" font-size="10.00">_cleanup.h</text>
</a>
</g>
</g>
<!-- Node7&#45;&gt;Node15 -->
<g id="edge20" class="edge">
<title>Node7&#45;&gt;Node15</title>
<path fill="none" stroke="midnightblue" d="M185.08,-424.24C197.86,-413.45 214.86,-399.1 227.31,-388.59"/>
<polygon fill="midnightblue" stroke="midnightblue" points="182.77,-421.61 177.38,-430.73 187.28,-426.96 182.77,-421.61"/>
</g>
<!-- Node8&#45;&gt;Node9 -->
<g id="edge8" class="edge">
<title>Node8&#45;&gt;Node9</title>
<path fill="none" stroke="midnightblue" d="M350.2,-353.65C329.83,-342.93 305.3,-330.01 289.44,-321.66"/>
<polygon fill="midnightblue" stroke="midnightblue" points="348.74,-356.84 359.22,-358.4 352,-350.64 348.74,-356.84"/>
</g>
<!-- Node12 -->
<g id="node12" class="node">
<title>Node12</title>
<g id="a_node12"><a xlink:href="node__frontend_8h.html" target="_top" xlink:title=" ">
<polygon fill="white" stroke="black" points="423,-302.5 423,-321.5 581,-321.5 581,-302.5 423,-302.5"/>
<text text-anchor="middle" x="502" y="-309.5" font-family="Helvetica,sans-Serif" font-size="10.00">src/node/rpc/node_frontend.h</text>
</a>
</g>
</g>
<!-- Node8&#45;&gt;Node12 -->
<g id="edge13" class="edge">
<title>Node8&#45;&gt;Node12</title>
<path fill="none" stroke="midnightblue" d="M422.47,-353.8C443.43,-343.04 468.77,-330.05 485.12,-321.66"/>
<polygon fill="midnightblue" stroke="midnightblue" points="420.79,-350.72 413.49,-358.4 423.99,-356.95 420.79,-350.72"/>
</g>
<!-- Node9&#45;&gt;Node10 -->
<g id="edge9" class="edge">
<title>Node9&#45;&gt;Node10</title>
<path fill="none" stroke="midnightblue" d="M293.07,-295.86C302.27,-287.93 312.54,-277.48 319,-266 332.54,-241.94 336.45,-208.7 337.56,-193.16"/>
<polygon fill="midnightblue" stroke="midnightblue" points="290.6,-293.37 285.07,-302.4 295.03,-298.79 290.6,-293.37"/>
</g>
<!-- Node10&#45;&gt;Node5 -->
<g id="edge10" class="edge">
<title>Node10&#45;&gt;Node5</title>
<path fill="none" stroke="midnightblue" d="M338.06,-163.5C339.16,-147.6 343.31,-125.43 357,-112 373.99,-95.34 431.15,-82.97 476.74,-75.46"/>
<polygon fill="midnightblue" stroke="midnightblue" points="334.56,-163.64 337.71,-173.75 341.55,-163.88 334.56,-163.64"/>
</g>
<!-- Node11 -->
<g id="node11" class="node">
<title>Node11</title>
<g id="a_node11"><a xlink:href="gov__effects_8h.html" target="_top" xlink:title=" ">
<polygon fill="white" stroke="black" points="366,-112.5 366,-131.5 510,-131.5 510,-112.5 366,-112.5"/>
<text text-anchor="middle" x="438" y="-119.5" font-family="Helvetica,sans-Serif" font-size="10.00">src/node/rpc/gov_effects.h</text>
</a>
</g>
</g>
<!-- Node10&#45;&gt;Node11 -->
<g id="edge11" class="edge">
<title>Node10&#45;&gt;Node11</title>
<path fill="none" stroke="midnightblue" d="M361.12,-168.74C380.44,-157.25 407.37,-141.22 423.7,-131.51"/>
<polygon fill="midnightblue" stroke="midnightblue" points="359.13,-165.85 352.33,-173.98 362.71,-171.87 359.13,-165.85"/>
</g>
<!-- Node11&#45;&gt;Node5 -->
<g id="edge12" class="edge">
<title>Node11&#45;&gt;Node5</title>
<path fill="none" stroke="midnightblue" d="M463.09,-107.45C481.55,-97.48 506.1,-84.23 521.97,-75.65"/>
<polygon fill="midnightblue" stroke="midnightblue" points="461.2,-104.49 454.07,-112.32 464.53,-110.65 461.2,-104.49"/>
</g>
<!-- Node12&#45;&gt;Node5 -->
<g id="edge14" class="edge">
<title>Node12&#45;&gt;Node5</title>
<path fill="none" stroke="midnightblue" d="M504.74,-292.4C512.01,-243.13 531.57,-110.59 536.73,-75.58"/>
<polygon fill="midnightblue" stroke="midnightblue" points="501.28,-291.91 503.28,-302.32 508.2,-292.93 501.28,-291.91"/>
</g>
<!-- Node13 -->
<g id="node13" class="node">
<title>Node13</title>
<g id="a_node13"><a xlink:href="jwt__key__auto__refresh_8h.html" target="_top" xlink:title=" ">
<polygon fill="white" stroke="black" points="366.5,-235.5 366.5,-265.5 491.5,-265.5 491.5,-235.5 366.5,-235.5"/>
<text text-anchor="start" x="374.5" y="-253.5" font-family="Helvetica,sans-Serif" font-size="10.00">src/node/jwt_key_auto</text>
<text text-anchor="middle" x="429" y="-242.5" font-family="Helvetica,sans-Serif" font-size="10.00">_refresh.h</text>
</a>
</g>
</g>
<!-- Node12&#45;&gt;Node13 -->
<g id="edge15" class="edge">
<title>Node12&#45;&gt;Node13</title>
<path fill="none" stroke="midnightblue" d="M483.5,-295.92C472.04,-286.58 457.42,-274.66 446.2,-265.52"/>
<polygon fill="midnightblue" stroke="midnightblue" points="481.58,-298.87 491.54,-302.48 486,-293.44 481.58,-298.87"/>
</g>
<!-- Node13&#45;&gt;Node10 -->
<g id="edge16" class="edge">
<title>Node13&#45;&gt;Node10</title>
<path fill="none" stroke="midnightblue" d="M400.73,-229.31C383.64,-217.1 362.75,-202.18 349.91,-193.01"/>
<polygon fill="midnightblue" stroke="midnightblue" points="399.08,-232.43 409.25,-235.4 403.15,-226.74 399.08,-232.43"/>
</g>
<!-- Node14&#45;&gt;Node10 -->
<g id="edge19" class="edge">
<title>Node14&#45;&gt;Node10</title>
<path fill="none" stroke="midnightblue" d="M281.17,-229.01C296.58,-216.94 315.26,-202.3 326.9,-193.19"/>
<polygon fill="midnightblue" stroke="midnightblue" points="278.72,-226.47 273.01,-235.4 283.04,-231.99 278.72,-226.47"/>
</g>
<!-- Node15&#45;&gt;Node9 -->
<g id="edge21" class="edge">
<title>Node15&#45;&gt;Node9</title>
<path fill="none" stroke="midnightblue" d="M255.36,-349.2C260.07,-339.52 265.26,-328.88 268.78,-321.66"/>
<polygon fill="midnightblue" stroke="midnightblue" points="252.11,-347.88 250.87,-358.4 258.4,-350.94 252.11,-347.88"/>
</g>
<!-- Node16&#45;&gt;Node10 -->
<g id="edge24" class="edge">
<title>Node16&#45;&gt;Node10</title>
<path fill="none" stroke="midnightblue" d="M162.1,-237.93C204.47,-225.06 271.92,-204.57 309.81,-193.06"/>
<polygon fill="midnightblue" stroke="midnightblue" points="160.97,-234.61 152.42,-240.87 163,-241.31 160.97,-234.61"/>
</g>
<!-- Node18 -->
<g id="node18" class="node">
<title>Node18</title>
<g id="a_node18"><a xlink:href="http__parser_8h.html" target="_top" xlink:title=" ">
<polygon fill="white" stroke="black" points="399,-755 399,-774 519,-774 519,-755 399,-755"/>
<text text-anchor="middle" x="459" y="-762" font-family="Helvetica,sans-Serif" font-size="10.00">src/http/http_parser.h</text>
</a>
</g>
</g>
<!-- Node17&#45;&gt;Node18 -->
<g id="edge26" class="edge">
<title>Node17&#45;&gt;Node18</title>
<path fill="none" stroke="midnightblue" d="M389.55,-862.38C387.96,-848.8 387.78,-830.34 395,-816 404.74,-796.66 425.7,-782.4 440.99,-774.06"/>
<polygon fill="midnightblue" stroke="midnightblue" points="386.12,-863.09 391.09,-872.45 393.04,-862.03 386.12,-863.09"/>
</g>
<!-- Node34 -->
<g id="node34" class="node">
<title>Node34</title>
<g id="a_node34"><a xlink:href="http__proc_8h.html" target="_top" xlink:title=" ">
<polygon fill="white" stroke="black" points="403.5,-816.5 403.5,-835.5 514.5,-835.5 514.5,-816.5 403.5,-816.5"/>
<text text-anchor="middle" x="459" y="-823.5" font-family="Helvetica,sans-Serif" font-size="10.00">src/http/http_proc.h</text>
</a>
</g>
</g>
<!-- Node17&#45;&gt;Node34 -->
<g id="edge54" class="edge">
<title>Node17&#45;&gt;Node34</title>
<path fill="none" stroke="midnightblue" d="M411.55,-865.82C423.38,-856.15 438.29,-843.95 448.2,-835.83"/>
<polygon fill="midnightblue" stroke="midnightblue" points="409.13,-863.28 403.6,-872.32 413.56,-868.7 409.13,-863.28"/>
</g>
<!-- Node18&#45;&gt;Node3 -->
<g id="edge34" class="edge">
<title>Node18&#45;&gt;Node3</title>
<path fill="none" stroke="midnightblue" d="M443.03,-747.57C403.92,-708.56 304.31,-609.21 273.93,-578.91"/>
<polygon fill="midnightblue" stroke="midnightblue" points="440.86,-750.35 450.41,-754.94 445.81,-745.4 440.86,-750.35"/>
</g>
<!-- Node19 -->
<g id="node19" class="node">
<title>Node19</title>
<g id="a_node19"><a xlink:href="rpc__tls__client_8h.html" target="_top" xlink:title=" ">
<polygon fill="white" stroke="black" points="723.5,-615.5 723.5,-645.5 824.5,-645.5 824.5,-615.5 723.5,-615.5"/>
<text text-anchor="start" x="731.5" y="-633.5" font-family="Helvetica,sans-Serif" font-size="10.00">src/clients/rpc_tls</text>
<text text-anchor="middle" x="774" y="-622.5" font-family="Helvetica,sans-Serif" font-size="10.00">_client.h</text>
</a>
</g>
</g>
<!-- Node18&#45;&gt;Node19 -->
<g id="edge27" class="edge">
<title>Node18&#45;&gt;Node19</title>
<path fill="none" stroke="midnightblue" d="M515.19,-752.83C552.88,-744.58 603.11,-731.42 645,-713 687.19,-694.45 731.63,-663.46 755.76,-645.52"/>
<polygon fill="midnightblue" stroke="midnightblue" points="514.45,-749.41 505.4,-754.93 515.91,-756.26 514.45,-749.41"/>
</g>
<!-- Node24 -->
<g id="node24" class="node">
<title>Node24</title>
<g id="a_node24"><a xlink:href="endpoint__registry_8cpp.html" target="_top" xlink:title=" ">
<polygon fill="white" stroke="black" points="233,-682.5 233,-712.5 361,-712.5 361,-682.5 233,-682.5"/>
<text text-anchor="start" x="241" y="-700.5" font-family="Helvetica,sans-Serif" font-size="10.00">src/endpoints/endpoint</text>
<text text-anchor="middle" x="297" y="-689.5" font-family="Helvetica,sans-Serif" font-size="10.00">_registry.cpp</text>
</a>
</g>
</g>
<!-- Node18&#45;&gt;Node24 -->
<g id="edge33" class="edge">
<title>Node18&#45;&gt;Node24</title>
<path fill="none" stroke="midnightblue" d="M427.99,-751.06C400.55,-740.05 360.53,-723.99 331.96,-712.53"/>
<polygon fill="midnightblue" stroke="midnightblue" points="426.9,-754.39 437.49,-754.87 429.51,-747.9 426.9,-754.39"/>
</g>
<!-- Node25 -->
<g id="node25" class="node">
<title>Node25</title>
<g id="a_node25"><a xlink:href="http__jwt_8h.html" target="_top" xlink:title=" ">
<polygon fill="white" stroke="black" points="867.5,-688 867.5,-707 972.5,-707 972.5,-688 867.5,-688"/>
<text text-anchor="middle" x="920" y="-695" font-family="Helvetica,sans-Serif" font-size="10.00">src/http/http_jwt.h</text>
</a>
</g>
</g>
<!-- Node18&#45;&gt;Node25 -->
<g id="edge35" class="edge">
<title>Node18&#45;&gt;Node25</title>
<path fill="none" stroke="midnightblue" d="M529.43,-753.57C622.41,-740.46 784.04,-717.67 867.21,-705.94"/>
<polygon fill="midnightblue" stroke="midnightblue" points="528.68,-750.14 519.27,-755 529.66,-757.07 528.68,-750.14"/>
</g>
<!-- Node30 -->
<g id="node30" class="node">
<title>Node30</title>
<g id="a_node30"><a xlink:href="http__rpc__context_8h.html" target="_top" xlink:title=" ">
<polygon fill="white" stroke="black" points="385.5,-621 385.5,-640 532.5,-640 532.5,-621 385.5,-621"/>
<text text-anchor="middle" x="459" y="-628" font-family="Helvetica,sans-Serif" font-size="10.00">src/http/http_rpc_context.h</text>
</a>
</g>
</g>
<!-- Node18&#45;&gt;Node30 -->
<g id="edge44" class="edge">
<title>Node18&#45;&gt;Node30</title>
<path fill="none" stroke="midnightblue" d="M459,-744.78C459,-715.75 459,-661.04 459,-640.02"/>
<polygon fill="midnightblue" stroke="midnightblue" points="455.5,-744.84 459,-754.84 462.5,-744.84 455.5,-744.84"/>
</g>
<!-- Node32 -->
<g id="node32" class="node">
<title>Node32</title>
<g id="a_node32"><a xlink:href="http__sig_8h.html" target="_top" xlink:title=" ">
<polygon fill="white" stroke="black" points="532,-688 532,-707 636,-707 636,-688 532,-688"/>
<text text-anchor="middle" x="584" y="-695" font-family="Helvetica,sans-Serif" font-size="10.00">src/http/http_sig.h</text>
</a>
</g>
</g>
<!-- Node18&#45;&gt;Node32 -->
<g id="edge50" class="edge">
<title>Node18&#45;&gt;Node32</title>
<path fill="none" stroke="midnightblue" d="M484.76,-750.1C509.52,-737.23 546.19,-718.16 567.33,-707.17"/>
<polygon fill="midnightblue" stroke="midnightblue" points="482.86,-747.15 475.6,-754.87 486.09,-753.36 482.86,-747.15"/>
</g>
<!-- Node20 -->
<g id="node20" class="node">
<title>Node20</title>
<g id="a_node20"><a xlink:href="perf__client_8h.html" target="_top" xlink:title=" ">
<polygon fill="white" stroke="black" points="753.5,-492.5 753.5,-522.5 864.5,-522.5 864.5,-492.5 753.5,-492.5"/>
<text text-anchor="start" x="761.5" y="-510.5" font-family="Helvetica,sans-Serif" font-size="10.00">src/clients/perf/perf</text>
<text text-anchor="middle" x="809" y="-499.5" font-family="Helvetica,sans-Serif" font-size="10.00">_client.h</text>
</a>
</g>
</g>
<!-- Node19&#45;&gt;Node20 -->
<g id="edge28" class="edge">
<title>Node19&#45;&gt;Node20</title>
<path fill="none" stroke="midnightblue" d="M796.57,-607.62C803.55,-599.38 810.36,-589.46 814,-579 820.49,-560.34 816.84,-537.27 813.24,-522.71"/>
<polygon fill="midnightblue" stroke="midnightblue" points="793.78,-605.49 789.65,-615.25 798.96,-610.19 793.78,-605.49"/>
</g>
<!-- Node23 -->
<g id="node23" class="node">
<title>Node23</title>
<g id="a_node23"><a xlink:href="timing_8h.html" target="_top" xlink:title=" ">
<polygon fill="white" stroke="black" points="673,-559.5 673,-578.5 805,-578.5 805,-559.5 673,-559.5"/>
<text text-anchor="middle" x="739" y="-566.5" font-family="Helvetica,sans-Serif" font-size="10.00">src/clients/perf/timing.h</text>
</a>
</g>
</g>
<!-- Node19&#45;&gt;Node23 -->
<g id="edge31" class="edge">
<title>Node19&#45;&gt;Node23</title>
<path fill="none" stroke="midnightblue" d="M760.47,-606.5C754.73,-596.74 748.39,-585.96 744.09,-578.66"/>
<polygon fill="midnightblue" stroke="midnightblue" points="757.62,-608.55 765.71,-615.4 763.65,-605.01 757.62,-608.55"/>
</g>
<!-- Node21 -->
<g id="node21" class="node">
<title>Node21</title>
<g id="a_node21"><a xlink:href="tpcc__client_8cpp.html" target="_top" xlink:title=" ">
<polygon fill="white" stroke="black" points="871,-425.5 871,-455.5 987,-455.5 987,-425.5 871,-425.5"/>
<text text-anchor="start" x="879" y="-443.5" font-family="Helvetica,sans-Serif" font-size="10.00">src/apps/tpcc/clients</text>
<text text-anchor="middle" x="929" y="-432.5" font-family="Helvetica,sans-Serif" font-size="10.00">/tpcc_client.cpp</text>
</a>
</g>
</g>
<!-- Node20&#45;&gt;Node21 -->
<g id="edge29" class="edge">
<title>Node20&#45;&gt;Node21</title>
<path fill="none" stroke="midnightblue" d="M843.94,-487.57C862.82,-477.35 885.73,-464.94 903.01,-455.58"/>
<polygon fill="midnightblue" stroke="midnightblue" points="842.16,-484.56 835.04,-492.4 845.5,-490.71 842.16,-484.56"/>
</g>
<!-- Node22 -->
<g id="node22" class="node">
<title>Node22</title>
<g id="a_node22"><a xlink:href="scenario__perf__client_8cpp.html" target="_top" xlink:title=" ">
<polygon fill="white" stroke="black" points="719.5,-425.5 719.5,-455.5 852.5,-455.5 852.5,-425.5 719.5,-425.5"/>
<text text-anchor="start" x="727.5" y="-443.5" font-family="Helvetica,sans-Serif" font-size="10.00">src/clients/perf/scenario</text>
<text text-anchor="middle" x="786" y="-432.5" font-family="Helvetica,sans-Serif" font-size="10.00">_perf_client.cpp</text>
</a>
</g>
</g>
<!-- Node20&#45;&gt;Node22 -->
<g id="edge30" class="edge">
<title>Node20&#45;&gt;Node22</title>
<path fill="none" stroke="midnightblue" d="M800.58,-482.7C797.35,-473.59 793.78,-463.49 790.98,-455.58"/>
<polygon fill="midnightblue" stroke="midnightblue" points="797.37,-484.14 804.01,-492.4 803.97,-481.8 797.37,-484.14"/>
</g>
<!-- Node23&#45;&gt;Node20 -->
<g id="edge32" class="edge">
<title>Node23&#45;&gt;Node20</title>
<path fill="none" stroke="midnightblue" d="M756.74,-552.92C767.73,-543.58 781.75,-531.66 792.5,-522.52"/>
<polygon fill="midnightblue" stroke="midnightblue" points="754.38,-550.33 749.03,-559.48 758.92,-555.67 754.38,-550.33"/>
</g>
<!-- Node26 -->
<g id="node26" class="node">
<title>Node26</title>
<g id="a_node26"><a xlink:href="jwt__auth_8cpp.html" target="_top" xlink:title=" ">
<polygon fill="white" stroke="black" points="842.5,-615.5 842.5,-645.5 997.5,-645.5 997.5,-615.5 842.5,-615.5"/>
<text text-anchor="start" x="850.5" y="-633.5" font-family="Helvetica,sans-Serif" font-size="10.00">src/endpoints/authentication</text>
<text text-anchor="middle" x="920" y="-622.5" font-family="Helvetica,sans-Serif" font-size="10.00">/jwt_auth.cpp</text>
</a>
</g>
</g>
<!-- Node25&#45;&gt;Node26 -->
<g id="edge36" class="edge">
<title>Node25&#45;&gt;Node26</title>
<path fill="none" stroke="midnightblue" d="M920,-677.41C920,-667.22 920,-654.9 920,-645.59"/>
<polygon fill="midnightblue" stroke="midnightblue" points="916.5,-677.73 920,-687.73 923.5,-677.73 916.5,-677.73"/>
</g>
<!-- Node27 -->
<g id="node27" class="node">
<title>Node27</title>
<g id="a_node27"><a xlink:href="frontend_8h.html" target="_top" xlink:title=" ">
<polygon fill="white" stroke="black" points="637.5,-364 637.5,-383 766.5,-383 766.5,-364 637.5,-364"/>
<text text-anchor="middle" x="702" y="-371" font-family="Helvetica,sans-Serif" font-size="10.00">src/node/rpc/frontend.h</text>
</a>
</g>
</g>
<!-- Node25&#45;&gt;Node27 -->
<g id="edge37" class="edge">
<title>Node25&#45;&gt;Node27</title>
<path fill="none" stroke="midnightblue" d="M955.14,-683.88C973.15,-675.7 993.98,-663.31 1007,-646 1027.93,-618.18 1026,-604.82 1026,-570 1026,-570 1026,-570 1026,-506.5 1026,-467.9 1025.67,-449.69 996,-425 962.02,-396.72 842.57,-383.7 766.79,-378.16"/>
<polygon fill="midnightblue" stroke="midnightblue" points="953.32,-680.85 945.49,-687.99 956.06,-687.29 953.32,-680.85"/>
</g>
<!-- Node27&#45;&gt;Node10 -->
<g id="edge38" class="edge">
<title>Node27&#45;&gt;Node10</title>
<path fill="none" stroke="midnightblue" d="M683.73,-357.18C649.76,-329.35 573.68,-270.13 501,-235 460.46,-215.41 410.59,-201.28 376.77,-193.03"/>
<polygon fill="midnightblue" stroke="midnightblue" points="681.86,-360.17 691.8,-363.85 686.32,-354.78 681.86,-360.17"/>
</g>
<!-- Node27&#45;&gt;Node12 -->
<g id="edge41" class="edge">
<title>Node27&#45;&gt;Node12</title>
<path fill="none" stroke="midnightblue" d="M663.44,-361.03C624.57,-349.46 565.48,-331.88 530.6,-321.51"/>
<polygon fill="midnightblue" stroke="midnightblue" points="662.76,-364.48 673.34,-363.98 664.76,-357.77 662.76,-364.48"/>
</g>
<!-- Node28 -->
<g id="node28" class="node">
<title>Node28</title>
<g id="a_node28"><a xlink:href="member__frontend_8h.html" target="_top" xlink:title=" ">
<polygon fill="white" stroke="black" points="637,-168.5 637,-198.5 757,-198.5 757,-168.5 637,-168.5"/>
<text text-anchor="start" x="645" y="-186.5" font-family="Helvetica,sans-Serif" font-size="10.00">src/node/rpc/member</text>
<text text-anchor="middle" x="697" y="-175.5" font-family="Helvetica,sans-Serif" font-size="10.00">_frontend.h</text>
</a>
</g>
</g>
<!-- Node27&#45;&gt;Node28 -->
<g id="edge39" class="edge">
<title>Node27&#45;&gt;Node28</title>
<path fill="none" stroke="midnightblue" d="M701.5,-353.88C700.51,-316.33 698.27,-232.24 697.38,-198.7"/>
<polygon fill="midnightblue" stroke="midnightblue" points="698.01,-354.03 701.77,-363.93 705,-353.84 698.01,-354.03"/>
</g>
<!-- Node29 -->
<g id="node29" class="node">
<title>Node29</title>
<g id="a_node29"><a xlink:href="user__frontend_8h.html" target="_top" xlink:title=" ">
<polygon fill="white" stroke="black" points="699.5,-112.5 699.5,-131.5 854.5,-131.5 854.5,-112.5 699.5,-112.5"/>
<text text-anchor="middle" x="777" y="-119.5" font-family="Helvetica,sans-Serif" font-size="10.00">src/node/rpc/user_frontend.h</text>
</a>
</g>
</g>
<!-- Node27&#45;&gt;Node29 -->
<g id="edge42" class="edge">
<title>Node27&#45;&gt;Node29</title>
<path fill="none" stroke="midnightblue" d="M710.23,-354.14C723.9,-322.92 751.23,-257.18 766,-199 772.1,-174.96 775.14,-145.74 776.35,-131.55"/>
<polygon fill="midnightblue" stroke="midnightblue" points="706.86,-353.12 706.01,-363.68 713.26,-355.95 706.86,-353.12"/>
</g>
<!-- Node28&#45;&gt;Node5 -->
<g id="edge40" class="edge">
<title>Node28&#45;&gt;Node5</title>
<path fill="none" stroke="midnightblue" d="M677.5,-161.02C663.3,-146.14 643.11,-126.48 623,-112 602.13,-96.97 575.61,-83.74 557.79,-75.58"/>
<polygon fill="midnightblue" stroke="midnightblue" points="674.95,-163.42 684.35,-168.32 680.06,-158.63 674.95,-163.42"/>
</g>
<!-- Node29&#45;&gt;Node5 -->
<g id="edge43" class="edge">
<title>Node29&#45;&gt;Node5</title>
<path fill="none" stroke="midnightblue" d="M729.28,-110.22C684.11,-100.01 617.23,-84.9 575.69,-75.52"/>
<polygon fill="midnightblue" stroke="midnightblue" points="728.6,-113.65 739.13,-112.44 730.15,-106.83 728.6,-113.65"/>
</g>
<!-- Node30&#45;&gt;Node3 -->
<g id="edge45" class="edge">
<title>Node30&#45;&gt;Node3</title>
<path fill="none" stroke="midnightblue" d="M421.6,-618.03C383.89,-606.46 326.57,-588.88 292.74,-578.51"/>
<polygon fill="midnightblue" stroke="midnightblue" points="420.62,-621.39 431.2,-620.98 422.67,-614.7 420.62,-621.39"/>
</g>
<!-- Node30&#45;&gt;Node13 -->
<g id="edge46" class="edge">
<title>Node30&#45;&gt;Node13</title>
<path fill="none" stroke="midnightblue" d="M462.79,-610.67C467.24,-586.95 474,-544.88 474,-508.5 474,-508.5 474,-508.5 474,-439.5 474,-402.31 474.11,-389.91 455,-358 442.54,-337.2 424,-344.09 414,-322 405.64,-303.53 413.87,-280.21 421.04,-265.57"/>
<polygon fill="midnightblue" stroke="midnightblue" points="459.31,-610.26 460.84,-620.74 466.18,-611.59 459.31,-610.26"/>
</g>
<!-- Node31 -->
<g id="node31" class="node">
<title>Node31</title>
<g id="a_node31"><a xlink:href="forwarder_8h.html" target="_top" xlink:title=" ">
<polygon fill="white" stroke="black" points="542,-431 542,-450 676,-450 676,-431 542,-431"/>
<text text-anchor="middle" x="609" y="-438" font-family="Helvetica,sans-Serif" font-size="10.00">src/node/rpc/forwarder.h</text>
</a>
</g>
</g>
<!-- Node30&#45;&gt;Node31 -->
<g id="edge47" class="edge">
<title>Node30&#45;&gt;Node31</title>
<path fill="none" stroke="midnightblue" d="M472.36,-612.75C503.29,-573.99 578.93,-479.19 602.12,-450.12"/>
<polygon fill="midnightblue" stroke="midnightblue" points="469.34,-610.93 465.83,-620.93 474.81,-615.3 469.34,-610.93"/>
</g>
<!-- Node31&#45;&gt;Node5 -->
<g id="edge48" class="edge">
<title>Node31&#45;&gt;Node5</title>
<path fill="none" stroke="midnightblue" d="M609,-420.8C609,-396.12 609,-351.3 609,-313 609,-313 609,-313 609,-182.5 609,-136.6 567.8,-93.61 548.17,-75.73"/>
<polygon fill="midnightblue" stroke="midnightblue" points="605.5,-420.91 609,-430.91 612.5,-420.91 605.5,-420.91"/>
</g>
<!-- Node31&#45;&gt;Node27 -->
<g id="edge49" class="edge">
<title>Node31&#45;&gt;Node27</title>
<path fill="none" stroke="midnightblue" d="M629.86,-424.92C648.25,-412.07 674.41,-393.78 689.66,-383.13"/>
<polygon fill="midnightblue" stroke="midnightblue" points="627.73,-422.14 621.54,-430.73 631.74,-427.87 627.73,-422.14"/>
</g>
<!-- Node32&#45;&gt;Node19 -->
<g id="edge51" class="edge">
<title>Node32&#45;&gt;Node19</title>
<path fill="none" stroke="midnightblue" d="M619.11,-684.49C651.32,-673.47 699.04,-657.14 732.99,-645.53"/>
<polygon fill="midnightblue" stroke="midnightblue" points="617.56,-681.32 609.23,-687.87 619.83,-687.94 617.56,-681.32"/>
</g>
<!-- Node32&#45;&gt;Node30 -->
<g id="edge53" class="edge">
<title>Node32&#45;&gt;Node30</title>
<path fill="none" stroke="midnightblue" d="M558.24,-683.1C533.48,-670.23 496.81,-651.16 475.67,-640.17"/>
<polygon fill="midnightblue" stroke="midnightblue" points="556.91,-686.36 567.4,-687.87 560.14,-680.15 556.91,-686.36"/>
</g>
<!-- Node33 -->
<g id="node33" class="node">
<title>Node33</title>
<g id="a_node33"><a xlink:href="sig__auth_8cpp.html" target="_top" xlink:title=" ">
<polygon fill="white" stroke="black" points="550.5,-615.5 550.5,-645.5 705.5,-645.5 705.5,-615.5 550.5,-615.5"/>
<text text-anchor="start" x="558.5" y="-633.5" font-family="Helvetica,sans-Serif" font-size="10.00">src/endpoints/authentication</text>
<text text-anchor="middle" x="628" y="-622.5" font-family="Helvetica,sans-Serif" font-size="10.00">/sig_auth.cpp</text>
</a>
</g>
</g>
<!-- Node32&#45;&gt;Node33 -->
<g id="edge52" class="edge">
<title>Node32&#45;&gt;Node33</title>
<path fill="none" stroke="midnightblue" d="M595.61,-679.35C602.73,-668.82 611.75,-655.5 618.46,-645.59"/>
<polygon fill="midnightblue" stroke="midnightblue" points="592.64,-677.49 589.93,-687.73 598.44,-681.41 592.64,-677.49"/>
</g>
<!-- Node34&#45;&gt;Node18 -->
<g id="edge55" class="edge">
<title>Node34&#45;&gt;Node18</title>
<path fill="none" stroke="midnightblue" d="M459,-806.32C459,-795.5 459,-782.4 459,-774.01"/>
<polygon fill="midnightblue" stroke="midnightblue" points="455.5,-806.48 459,-816.48 462.5,-806.48 455.5,-806.48"/>
</g>
<!-- Node36 -->
<g id="node36" class="node">
<title>Node36</title>
<g id="a_node36"><a xlink:href="host_2main_8cpp.html" target="_top" xlink:title=" ">
<polygon fill="white" stroke="black" points="532.5,-816.5 532.5,-835.5 635.5,-835.5 635.5,-816.5 532.5,-816.5"/>
<text text-anchor="middle" x="584" y="-823.5" font-family="Helvetica,sans-Serif" font-size="10.00">src/host/main.cpp</text>
</a>
</g>
</g>
<!-- Node35&#45;&gt;Node36 -->
<g id="edge57" class="edge">
<title>Node35&#45;&gt;Node36</title>
<path fill="none" stroke="midnightblue" d="M572.2,-862.4C575.21,-853.36 578.69,-842.94 581.08,-835.75"/>
<polygon fill="midnightblue" stroke="midnightblue" points="568.81,-861.49 568.97,-872.08 575.46,-863.7 568.81,-861.49"/>
</g>
</g>
</svg>
        <g id="navigator" transform="translate(0 0)" fill="#404254">
                <rect fill="#f2f5e9" fill-opacity="0.5" stroke="#606060" stroke-width=".5" x="0" y="0" width="60" height="60"/>
                <use id="zoomplus" xlink:href="#zoomPlus" x="17" y="9" onmousedown="handleZoom(evt,'in')"/>
                <use id="zoomminus" xlink:href="#zoomMin" x="42" y="9" onmousedown="handleZoom(evt,'out')"/>
                <use id="reset" xlink:href="#resetDef" x="30" y="36" onmousedown="handleReset()"/>
                <g id="arrowUp" xlink:href="#dirArrow" transform="translate(30 24)" onmousedown="handlePan(0,-1)">
                  <use xlink:href="#rim" fill="#404040">
                        <set attributeName="fill" to="#808080" begin="arrowUp.mouseover" end="arrowUp.mouseout"/>
                  </use>
                  <path fill="none" stroke="white" stroke-width="1.5" d="M0,-3.0v7 M-2.5,-0.5L0,-3.0L2.5,-0.5"/>
                </g>
                <g id="arrowRight" xlink:href="#dirArrow" transform="rotate(90) translate(36 -43)" onmousedown="handlePan(1,0)">
                  <use xlink:href="#rim" fill="#404040">
                        <set attributeName="fill" to="#808080" begin="arrowRight.mouseover" end="arrowRight.mouseout"/>
                  </use>
                  <path fill="none" stroke="white" stroke-width="1.5" d="M0,-3.0v7 M-2.5,-0.5L0,-3.0L2.5,-0.5"/>
                </g>
                <g id="arrowDown" xlink:href="#dirArrow" transform="rotate(180) translate(-30 -48)" onmousedown="handlePan(0,1)">
                  <use xlink:href="#rim" fill="#404040">
                        <set attributeName="fill" to="#808080" begin="arrowDown.mouseover" end="arrowDown.mouseout"/>
                  </use>
                  <path fill="none" stroke="white" stroke-width="1.5" d="M0,-3.0v7 M-2.5,-0.5L0,-3.0L2.5,-0.5"/>
                </g>
                <g id="arrowLeft" xlink:href="#dirArrow" transform="rotate(270) translate(-36 17)" onmousedown="handlePan(-1,0)">
                  <use xlink:href="#rim" fill="#404040">
                        <set attributeName="fill" to="#808080" begin="arrowLeft.mouseover" end="arrowLeft.mouseout"/>
                  </use>
                  <path fill="none" stroke="white" stroke-width="1.5" d="M0,-3.0v7 M-2.5,-0.5L0,-3.0L2.5,-0.5"/>
                </g>
        </g>
        <svg viewBox="0 0 15 15" width="100%" height="30px" preserveAspectRatio="xMaxYMin meet">
         <g id="arrow_out" transform="scale(0.3 0.3)">
          <a xlink:href="msg__types_8h__dep__incl_org.svg" target="_base">
           <rect id="button" ry="5" rx="5" y="6" x="6" height="38" width="38"
                fill="#f2f5e9" fill-opacity="0.5" stroke="#606060" stroke-width="1.0"/>
           <path id="arrow"
             d="M 11.500037,31.436501 C 11.940474,20.09759 22.043105,11.32322 32.158766,21.979434 L 37.068811,17.246167 C 37.068811,17.246167 37.088388,32 37.088388,32 L 22.160133,31.978069 C 22.160133,31.978069 26.997745,27.140456 26.997745,27.140456 C 18.528582,18.264221 13.291696,25.230495 11.500037,31.436501 z"
             style="fill:#404040;"/>
          </a>
         </g>
        </svg>
</svg>
