<?xml version="1.0" encoding="UTF-8" standalone="no"?>
<!DOCTYPE svg PUBLIC "-//W3C//DTD SVG 1.1//EN"
 "http://www.w3.org/Graphics/SVG/1.1/DTD/svg11.dtd">
<!-- Generated by graphviz version 2.43.0 (0)
 -->
<!-- Title: include/ccf/service/node_info_network.h Pages: 1 -->
<!--zoomable 319 -->
<svg id="main" version="1.1" xmlns="http://www.w3.org/2000/svg" xmlns:xlink="http://www.w3.org/1999/xlink" xml:space="preserve" onload="init(evt)">
<style type="text/css"><![CDATA[
.edge:hover path { stroke: red; }
.edge:hover polygon { stroke: red; fill: red; }
]]></style>
<script type="text/javascript"><![CDATA[
var edges = document.getElementsByTagName('g');
if (edges && edges.length) {
  for (var i=0;i<edges.length;i++) {
    if (edges[i].id.substr(0,4)=='edge') {
      edges[i].setAttribute('class','edge');
    }
  }
}
]]></script>
        <defs>
                <circle id="rim" cx="0" cy="0" r="7"/>
                <circle id="rim2" cx="0" cy="0" r="3.5"/>
                <g id="zoomPlus">
                        <use xlink:href="#rim" fill="#404040">
                                <set attributeName="fill" to="#808080" begin="zoomplus.mouseover" end="zoomplus.mouseout"/>
                        </use>
                        <path d="M-4,0h8M0,-4v8" fill="none" stroke="white" stroke-width="1.5" pointer-events="none"/>
                </g>
                <g id="zoomMin">
                        <use xlink:href="#rim" fill="#404040">
                                <set attributeName="fill" to="#808080" begin="zoomminus.mouseover" end="zoomminus.mouseout"/>
                        </use>
                        <path d="M-4,0h8" fill="none" stroke="white" stroke-width="1.5" pointer-events="none"/>
                </g>
                <g id="dirArrow">
                        <path fill="none" stroke="white" stroke-width="1.5" d="M0,-3.0v7 M-2.5,-0.5L0,-3.0L2.5,-0.5"/>
                </g>
               <g id="resetDef">
                       <use xlink:href="#rim2" fill="#404040">
                               <set attributeName="fill" to="#808080" begin="reset.mouseover" end="reset.mouseout"/>
                       </use>
               </g>
        </defs>

<script type="text/javascript">
var viewWidth = 1312;
var viewHeight = 319;
var sectionId = 'dynsection-0';
</script>
<script xlink:href="svgpan.js"/>
<svg id="graph" class="graph">
<g id="viewport">
<title>include/ccf/service/node_info_network.h</title>
<polygon fill="white" stroke="transparent" points="-4,4 -4,-315 1308,-315 1308,4 -4,4"/>
<!-- Node1 -->
<g id="node1" class="node">
<title>Node1</title>
<g id="a_node1"><a xlink:title=" ">
<polygon fill="#bfbfbf" stroke="black" points="97,-280.5 97,-310.5 219,-310.5 219,-280.5 97,-280.5"/>
<text text-anchor="start" x="105" y="-298.5" font-family="Helvetica,sans-Serif" font-size="10.00">include/ccf/service</text>
<text text-anchor="middle" x="158" y="-287.5" font-family="Helvetica,sans-Serif" font-size="10.00">/node_info_network.h</text>
</a>
</g>
</g>
<!-- Node2 -->
<g id="node2" class="node">
<title>Node2</title>
<g id="a_node2"><a xlink:href="json_8h.html" target="_top" xlink:title=" ">
<polygon fill="white" stroke="black" points="252.5,-168.5 252.5,-187.5 329.5,-187.5 329.5,-168.5 252.5,-168.5"/>
<text text-anchor="middle" x="291" y="-175.5" font-family="Helvetica,sans-Serif" font-size="10.00">ccf/ds/json.h</text>
</a>
</g>
</g>
<!-- Node1&#45;&gt;Node2 -->
<g id="edge1" class="edge">
<title>Node1&#45;&gt;Node2</title>
<path fill="none" stroke="midnightblue" d="M174.31,-280.34C199.47,-258.49 247.55,-216.73 273.45,-194.24"/>
<polygon fill="midnightblue" stroke="midnightblue" points="275.76,-196.87 281.02,-187.67 271.17,-191.58 275.76,-196.87"/>
</g>
<!-- Node4 -->
<g id="node4" class="node">
<title>Node4</title>
<g id="a_node4"><a xlink:title=" ">
<polygon fill="white" stroke="#bfbfbf" points="26,-0.5 26,-19.5 70,-19.5 70,-0.5 26,-0.5"/>
<text text-anchor="middle" x="48" y="-7.5" font-family="Helvetica,sans-Serif" font-size="10.00">string</text>
</a>
</g>
</g>
<!-- Node1&#45;&gt;Node4 -->
<g id="edge45" class="edge">
<title>Node1&#45;&gt;Node4</title>
<path fill="none" stroke="midnightblue" d="M106.7,-280.44C60.57,-264.3 0,-232.86 0,-179 0,-179 0,-179 0,-121 0,-85.58 21.16,-48.71 35.38,-27.92"/>
<polygon fill="midnightblue" stroke="midnightblue" points="38.38,-29.74 41.33,-19.56 32.68,-25.68 38.38,-29.74"/>
</g>
<!-- Node7 -->
<g id="node7" class="node">
<title>Node7</title>
<g id="a_node7"><a xlink:href="nonstd_8h.html" target="_top" xlink:title=" ">
<polygon fill="white" stroke="black" points="196,-56.5 196,-75.5 286,-75.5 286,-56.5 196,-56.5"/>
<text text-anchor="middle" x="241" y="-63.5" font-family="Helvetica,sans-Serif" font-size="10.00">ccf/ds/nonstd.h</text>
</a>
</g>
</g>
<!-- Node1&#45;&gt;Node7 -->
<g id="edge18" class="edge">
<title>Node1&#45;&gt;Node7</title>
<path fill="none" stroke="midnightblue" d="M157.14,-280.15C155.85,-247.84 156.38,-167.89 188,-112 194.97,-99.69 206.66,-89.22 217.29,-81.48"/>
<polygon fill="midnightblue" stroke="midnightblue" points="219.56,-84.18 225.85,-75.65 215.62,-78.39 219.56,-84.18"/>
</g>
<!-- Node16 -->
<g id="node16" class="node">
<title>Node16</title>
<g id="a_node16"><a xlink:href="http__configuration_8h.html" target="_top" xlink:title=" ">
<polygon fill="white" stroke="black" points="307.5,-224.5 307.5,-243.5 438.5,-243.5 438.5,-224.5 307.5,-224.5"/>
<text text-anchor="middle" x="373" y="-231.5" font-family="Helvetica,sans-Serif" font-size="10.00">ccf/http_configuration.h</text>
</a>
</g>
</g>
<!-- Node1&#45;&gt;Node16 -->
<g id="edge19" class="edge">
<title>Node1&#45;&gt;Node16</title>
<path fill="none" stroke="midnightblue" d="M208.68,-280.47C246.42,-270.03 297.27,-255.96 332.36,-246.25"/>
<polygon fill="midnightblue" stroke="midnightblue" points="333.56,-249.55 342.26,-243.51 331.69,-242.8 333.56,-249.55"/>
</g>
<!-- Node3 -->
<g id="node3" class="node">
<title>Node3</title>
<g id="a_node3"><a xlink:href="include_2ccf_2crypto_2base64_8h.html" target="_top" xlink:title=" ">
<polygon fill="white" stroke="black" points="66,-56.5 66,-75.5 178,-75.5 178,-56.5 66,-56.5"/>
<text text-anchor="middle" x="122" y="-63.5" font-family="Helvetica,sans-Serif" font-size="10.00">ccf/crypto/base64.h</text>
</a>
</g>
</g>
<!-- Node2&#45;&gt;Node3 -->
<g id="edge2" class="edge">
<title>Node2&#45;&gt;Node3</title>
<path fill="none" stroke="midnightblue" d="M252.44,-170.45C225.16,-164.25 188.97,-152.7 163,-132 147.55,-119.69 136.26,-99.87 129.48,-85.35"/>
<polygon fill="midnightblue" stroke="midnightblue" points="132.56,-83.66 125.35,-75.9 126.15,-86.47 132.56,-83.66"/>
</g>
<!-- Node6 -->
<g id="node6" class="node">
<title>Node6</title>
<g id="a_node6"><a xlink:href="include_2ccf_2ds_2json__schema_8h.html" target="_top" xlink:title=" ">
<polygon fill="white" stroke="black" points="205.5,-112.5 205.5,-131.5 326.5,-131.5 326.5,-112.5 205.5,-112.5"/>
<text text-anchor="middle" x="266" y="-119.5" font-family="Helvetica,sans-Serif" font-size="10.00">ccf/ds/json_schema.h</text>
</a>
</g>
</g>
<!-- Node2&#45;&gt;Node6 -->
<g id="edge5" class="edge">
<title>Node2&#45;&gt;Node6</title>
<path fill="none" stroke="midnightblue" d="M286.87,-168.08C283.49,-160.77 278.58,-150.18 274.38,-141.1"/>
<polygon fill="midnightblue" stroke="midnightblue" points="277.43,-139.36 270.05,-131.75 271.08,-142.3 277.43,-139.36"/>
</g>
<!-- Node13 -->
<g id="node13" class="node">
<title>Node13</title>
<g id="a_node13"><a xlink:title=" ">
<polygon fill="white" stroke="#bfbfbf" points="856.5,-0.5 856.5,-19.5 935.5,-19.5 935.5,-0.5 856.5,-0.5"/>
<text text-anchor="middle" x="896" y="-7.5" font-family="Helvetica,sans-Serif" font-size="10.00">fmt/format.h</text>
</a>
</g>
</g>
<!-- Node2&#45;&gt;Node13 -->
<g id="edge16" class="edge">
<title>Node2&#45;&gt;Node13</title>
<path fill="none" stroke="midnightblue" d="M301.72,-168.24C311.59,-159.76 326.15,-146.14 336,-132 357.26,-101.49 340.57,-77.38 371,-56 409.32,-29.08 722.27,-16.43 845.97,-12.45"/>
<polygon fill="midnightblue" stroke="midnightblue" points="846.4,-15.94 856.29,-12.12 846.18,-8.94 846.4,-15.94"/>
</g>
<!-- Node15 -->
<g id="node15" class="node">
<title>Node15</title>
<g id="a_node15"><a xlink:title=" ">
<polygon fill="white" stroke="#bfbfbf" points="508,-56.5 508,-75.5 564,-75.5 564,-56.5 508,-56.5"/>
<text text-anchor="middle" x="536" y="-63.5" font-family="Helvetica,sans-Serif" font-size="10.00">sstream</text>
</a>
</g>
</g>
<!-- Node2&#45;&gt;Node15 -->
<g id="edge17" class="edge">
<title>Node2&#45;&gt;Node15</title>
<path fill="none" stroke="midnightblue" d="M310.22,-168.37C353.16,-149.09 457.04,-102.45 507.51,-79.79"/>
<polygon fill="midnightblue" stroke="midnightblue" points="509.18,-82.88 516.86,-75.59 506.31,-76.49 509.18,-82.88"/>
</g>
<!-- Node3&#45;&gt;Node4 -->
<g id="edge3" class="edge">
<title>Node3&#45;&gt;Node4</title>
<path fill="none" stroke="midnightblue" d="M110.11,-56.32C98.85,-48.11 81.71,-35.6 68.29,-25.81"/>
<polygon fill="midnightblue" stroke="midnightblue" points="70.25,-22.9 60.11,-19.83 66.12,-28.56 70.25,-22.9"/>
</g>
<!-- Node5 -->
<g id="node5" class="node">
<title>Node5</title>
<g id="a_node5"><a xlink:title=" ">
<polygon fill="white" stroke="#bfbfbf" points="94.5,-0.5 94.5,-19.5 141.5,-19.5 141.5,-0.5 94.5,-0.5"/>
<text text-anchor="middle" x="118" y="-7.5" font-family="Helvetica,sans-Serif" font-size="10.00">vector</text>
</a>
</g>
</g>
<!-- Node3&#45;&gt;Node5 -->
<g id="edge4" class="edge">
<title>Node3&#45;&gt;Node5</title>
<path fill="none" stroke="midnightblue" d="M121.34,-56.08C120.82,-49.01 120.06,-38.86 119.41,-29.99"/>
<polygon fill="midnightblue" stroke="midnightblue" points="122.88,-29.47 118.65,-19.75 115.9,-29.98 122.88,-29.47"/>
</g>
<!-- Node6&#45;&gt;Node7 -->
<g id="edge6" class="edge">
<title>Node6&#45;&gt;Node7</title>
<path fill="none" stroke="midnightblue" d="M261.87,-112.08C258.49,-104.77 253.58,-94.18 249.38,-85.1"/>
<polygon fill="midnightblue" stroke="midnightblue" points="252.43,-83.36 245.05,-75.75 246.08,-86.3 252.43,-83.36"/>
</g>
<!-- Node6&#45;&gt;Node13 -->
<g id="edge14" class="edge">
<title>Node6&#45;&gt;Node13</title>
<path fill="none" stroke="midnightblue" d="M272.39,-112.33C283.73,-97.72 308.93,-68.54 338,-56 384,-36.15 717.93,-19.08 846.1,-13.19"/>
<polygon fill="midnightblue" stroke="midnightblue" points="846.58,-16.67 856.41,-12.72 846.26,-9.68 846.58,-16.67"/>
</g>
<!-- Node14 -->
<g id="node14" class="node">
<title>Node14</title>
<g id="a_node14"><a xlink:title=" ">
<polygon fill="white" stroke="#bfbfbf" points="380,-56.5 380,-75.5 490,-75.5 490,-56.5 380,-56.5"/>
<text text-anchor="middle" x="435" y="-63.5" font-family="Helvetica,sans-Serif" font-size="10.00">nlohmann/json.hpp</text>
</a>
</g>
</g>
<!-- Node6&#45;&gt;Node14 -->
<g id="edge15" class="edge">
<title>Node6&#45;&gt;Node14</title>
<path fill="none" stroke="midnightblue" d="M292.78,-112.44C321.33,-103.32 366.73,-88.81 398.54,-78.65"/>
<polygon fill="midnightblue" stroke="midnightblue" points="399.89,-81.89 408.35,-75.52 397.76,-75.23 399.89,-81.89"/>
</g>
<!-- Node7&#45;&gt;Node4 -->
<g id="edge10" class="edge">
<title>Node7&#45;&gt;Node4</title>
<path fill="none" stroke="midnightblue" d="M210.42,-56.44C174.82,-46.48 116.29,-30.11 80.07,-19.97"/>
<polygon fill="midnightblue" stroke="midnightblue" points="80.61,-16.49 70.03,-17.16 78.72,-23.23 80.61,-16.49"/>
</g>
<!-- Node7&#45;&gt;Node5 -->
<g id="edge13" class="edge">
<title>Node7&#45;&gt;Node5</title>
<path fill="none" stroke="midnightblue" d="M221.51,-56.44C201.36,-47.6 169.68,-33.69 146.67,-23.59"/>
<polygon fill="midnightblue" stroke="midnightblue" points="147.96,-20.33 137.4,-19.52 145.15,-26.74 147.96,-20.33"/>
</g>
<!-- Node8 -->
<g id="node8" class="node">
<title>Node8</title>
<g id="a_node8"><a xlink:title=" ">
<polygon fill="white" stroke="#bfbfbf" points="379,-0.5 379,-19.5 443,-19.5 443,-0.5 379,-0.5"/>
<text text-anchor="middle" x="411" y="-7.5" font-family="Helvetica,sans-Serif" font-size="10.00">algorithm</text>
</a>
</g>
</g>
<!-- Node7&#45;&gt;Node8 -->
<g id="edge7" class="edge">
<title>Node7&#45;&gt;Node8</title>
<path fill="none" stroke="midnightblue" d="M267.94,-56.44C296.66,-47.32 342.33,-32.81 374.32,-22.65"/>
<polygon fill="midnightblue" stroke="midnightblue" points="375.72,-25.88 384.19,-19.52 373.6,-19.21 375.72,-25.88"/>
</g>
<!-- Node9 -->
<g id="node9" class="node">
<title>Node9</title>
<g id="a_node9"><a xlink:title=" ">
<polygon fill="white" stroke="#bfbfbf" points="160,-0.5 160,-19.5 202,-19.5 202,-0.5 160,-0.5"/>
<text text-anchor="middle" x="181" y="-7.5" font-family="Helvetica,sans-Serif" font-size="10.00">array</text>
</a>
</g>
</g>
<!-- Node7&#45;&gt;Node9 -->
<g id="edge8" class="edge">
<title>Node7&#45;&gt;Node9</title>
<path fill="none" stroke="midnightblue" d="M231.36,-56.32C222.49,-48.34 209.13,-36.31 198.39,-26.65"/>
<polygon fill="midnightblue" stroke="midnightblue" points="200.59,-23.92 190.82,-19.83 195.91,-29.13 200.59,-23.92"/>
</g>
<!-- Node10 -->
<g id="node10" class="node">
<title>Node10</title>
<g id="a_node10"><a xlink:title=" ">
<polygon fill="white" stroke="#bfbfbf" points="220.5,-0.5 220.5,-19.5 269.5,-19.5 269.5,-0.5 220.5,-0.5"/>
<text text-anchor="middle" x="245" y="-7.5" font-family="Helvetica,sans-Serif" font-size="10.00">cctype</text>
</a>
</g>
</g>
<!-- Node7&#45;&gt;Node10 -->
<g id="edge9" class="edge">
<title>Node7&#45;&gt;Node10</title>
<path fill="none" stroke="midnightblue" d="M241.66,-56.08C242.18,-49.01 242.94,-38.86 243.59,-29.99"/>
<polygon fill="midnightblue" stroke="midnightblue" points="247.1,-29.98 244.35,-19.75 240.12,-29.47 247.1,-29.98"/>
</g>
<!-- Node11 -->
<g id="node11" class="node">
<title>Node11</title>
<g id="a_node11"><a xlink:title=" ">
<polygon fill="white" stroke="#bfbfbf" points="287.5,-0.5 287.5,-19.5 360.5,-19.5 360.5,-0.5 287.5,-0.5"/>
<text text-anchor="middle" x="324" y="-7.5" font-family="Helvetica,sans-Serif" font-size="10.00">string_view</text>
</a>
</g>
</g>
<!-- Node7&#45;&gt;Node11 -->
<g id="edge11" class="edge">
<title>Node7&#45;&gt;Node11</title>
<path fill="none" stroke="midnightblue" d="M254.34,-56.32C267.16,-47.98 286.78,-35.21 301.94,-25.35"/>
<polygon fill="midnightblue" stroke="midnightblue" points="304.22,-28.04 310.7,-19.65 300.41,-22.17 304.22,-28.04"/>
</g>
<!-- Node12 -->
<g id="node12" class="node">
<title>Node12</title>
<g id="a_node12"><a xlink:title=" ">
<polygon fill="white" stroke="#bfbfbf" points="546.5,-0.5 546.5,-19.5 615.5,-19.5 615.5,-0.5 546.5,-0.5"/>
<text text-anchor="middle" x="581" y="-7.5" font-family="Helvetica,sans-Serif" font-size="10.00">type_traits</text>
</a>
</g>
</g>
<!-- Node7&#45;&gt;Node12 -->
<g id="edge12" class="edge">
<title>Node7&#45;&gt;Node12</title>
<path fill="none" stroke="midnightblue" d="M286.15,-57.83C351.48,-47.45 471.63,-28.37 536.56,-18.06"/>
<polygon fill="midnightblue" stroke="midnightblue" points="537.16,-21.51 546.49,-16.48 536.06,-14.59 537.16,-21.51"/>
</g>
<!-- Node16&#45;&gt;Node2 -->
<g id="edge20" class="edge">
<title>Node16&#45;&gt;Node2</title>
<path fill="none" stroke="midnightblue" d="M359.83,-224.32C347.15,-215.98 327.77,-203.21 312.79,-193.35"/>
<polygon fill="midnightblue" stroke="midnightblue" points="314.42,-190.23 304.14,-187.65 310.57,-196.08 314.42,-190.23"/>
</g>
<!-- Node17 -->
<g id="node17" class="node">
<title>Node17</title>
<g id="a_node17"><a xlink:href="unit__strings_8h.html" target="_top" xlink:title=" ">
<polygon fill="white" stroke="black" points="374,-168.5 374,-187.5 488,-187.5 488,-168.5 374,-168.5"/>
<text text-anchor="middle" x="431" y="-175.5" font-family="Helvetica,sans-Serif" font-size="10.00">ccf/ds/unit_strings.h</text>
</a>
</g>
</g>
<!-- Node16&#45;&gt;Node17 -->
<g id="edge21" class="edge">
<title>Node16&#45;&gt;Node17</title>
<path fill="none" stroke="midnightblue" d="M382.32,-224.32C390.89,-216.34 403.81,-204.31 414.19,-194.65"/>
<polygon fill="midnightblue" stroke="midnightblue" points="416.58,-197.21 421.51,-187.83 411.81,-192.09 416.58,-197.21"/>
</g>
<!-- Node28 -->
<g id="node28" class="node">
<title>Node28</title>
<g id="a_node28"><a xlink:title=" ">
<polygon fill="white" stroke="#bfbfbf" points="582,-56.5 582,-75.5 638,-75.5 638,-56.5 582,-56.5"/>
<text text-anchor="middle" x="610" y="-63.5" font-family="Helvetica,sans-Serif" font-size="10.00">optional</text>
</a>
</g>
</g>
<!-- Node16&#45;&gt;Node28 -->
<g id="edge44" class="edge">
<title>Node16&#45;&gt;Node28</title>
<path fill="none" stroke="midnightblue" d="M424.26,-224.42C476.05,-212.87 554.08,-187.05 595,-132 604.82,-118.78 608.36,-100.2 609.57,-86.28"/>
<polygon fill="midnightblue" stroke="midnightblue" points="613.08,-86.08 610.12,-75.91 606.09,-85.71 613.08,-86.08"/>
</g>
<!-- Node17&#45;&gt;Node4 -->
<g id="edge43" class="edge">
<title>Node17&#45;&gt;Node4</title>
<path fill="none" stroke="midnightblue" d="M373.98,-170.04C279.09,-157.16 95.37,-126.24 57,-76 46.96,-62.85 45.41,-43.71 45.96,-29.6"/>
<polygon fill="midnightblue" stroke="midnightblue" points="49.45,-29.82 46.72,-19.58 42.47,-29.29 49.45,-29.82"/>
</g>
<!-- Node17&#45;&gt;Node7 -->
<g id="edge39" class="edge">
<title>Node17&#45;&gt;Node7</title>
<path fill="none" stroke="midnightblue" d="M373.89,-169.84C308.3,-161.04 208.23,-145.6 197,-132 183.5,-115.66 202.65,-95.18 219.76,-81.62"/>
<polygon fill="midnightblue" stroke="midnightblue" points="221.93,-84.37 227.84,-75.57 217.74,-78.76 221.93,-84.37"/>
</g>
<!-- Node17&#45;&gt;Node14 -->
<g id="edge42" class="edge">
<title>Node17&#45;&gt;Node14</title>
<path fill="none" stroke="midnightblue" d="M431.31,-168.37C431.96,-150.62 433.45,-109.67 434.32,-85.6"/>
<polygon fill="midnightblue" stroke="midnightblue" points="437.82,-85.71 434.69,-75.59 430.83,-85.46 437.82,-85.71"/>
</g>
<!-- Node18 -->
<g id="node18" class="node">
<title>Node18</title>
<g id="a_node18"><a xlink:href="logger_8h.html" target="_top" xlink:title=" ">
<polygon fill="white" stroke="black" points="667.5,-112.5 667.5,-131.5 754.5,-131.5 754.5,-112.5 667.5,-112.5"/>
<text text-anchor="middle" x="711" y="-119.5" font-family="Helvetica,sans-Serif" font-size="10.00">ccf/ds/logger.h</text>
</a>
</g>
</g>
<!-- Node17&#45;&gt;Node18 -->
<g id="edge22" class="edge">
<title>Node17&#45;&gt;Node18</title>
<path fill="none" stroke="midnightblue" d="M475.37,-168.44C524.77,-158.92 604.6,-143.52 657.44,-133.33"/>
<polygon fill="midnightblue" stroke="midnightblue" points="658.15,-136.76 667.3,-131.43 656.82,-129.88 658.15,-136.76"/>
</g>
<!-- Node29 -->
<g id="node29" class="node">
<title>Node29</title>
<g id="a_node29"><a xlink:title=" ">
<polygon fill="white" stroke="#bfbfbf" points="459.5,-112.5 459.5,-131.5 520.5,-131.5 520.5,-112.5 459.5,-112.5"/>
<text text-anchor="middle" x="490" y="-119.5" font-family="Helvetica,sans-Serif" font-size="10.00">charconv</text>
</a>
</g>
</g>
<!-- Node17&#45;&gt;Node29 -->
<g id="edge40" class="edge">
<title>Node17&#45;&gt;Node29</title>
<path fill="none" stroke="midnightblue" d="M440.48,-168.32C449.2,-160.34 462.34,-148.31 472.9,-138.65"/>
<polygon fill="midnightblue" stroke="midnightblue" points="475.33,-141.17 480.35,-131.83 470.61,-136 475.33,-141.17"/>
</g>
<!-- Node30 -->
<g id="node30" class="node">
<title>Node30</title>
<g id="a_node30"><a xlink:title=" ">
<polygon fill="white" stroke="#bfbfbf" points="538.5,-112.5 538.5,-131.5 585.5,-131.5 585.5,-112.5 538.5,-112.5"/>
<text text-anchor="middle" x="562" y="-119.5" font-family="Helvetica,sans-Serif" font-size="10.00">cmath</text>
</a>
</g>
</g>
<!-- Node17&#45;&gt;Node30 -->
<g id="edge41" class="edge">
<title>Node17&#45;&gt;Node30</title>
<path fill="none" stroke="midnightblue" d="M451.76,-168.44C473.32,-159.56 507.26,-145.56 531.79,-135.45"/>
<polygon fill="midnightblue" stroke="midnightblue" points="533.43,-138.56 541.34,-131.52 530.76,-132.09 533.43,-138.56"/>
</g>
<!-- Node18&#45;&gt;Node12 -->
<g id="edge38" class="edge">
<title>Node18&#45;&gt;Node12</title>
<path fill="none" stroke="midnightblue" d="M703.59,-112.48C692.14,-99.53 669.12,-74.48 647,-56 633.47,-44.7 617.1,-33.52 604.05,-25.14"/>
<polygon fill="midnightblue" stroke="midnightblue" points="605.54,-21.94 595.22,-19.56 601.8,-27.86 605.54,-21.94"/>
</g>
<!-- Node18&#45;&gt;Node13 -->
<g id="edge33" class="edge">
<title>Node18&#45;&gt;Node13</title>
<path fill="none" stroke="midnightblue" d="M754.75,-121.2C830.48,-120.5 981.05,-114.21 1014,-76 1019.81,-69.27 1019.04,-63.32 1014,-56 1005.2,-43.23 970.08,-30.82 940.42,-22.29"/>
<polygon fill="midnightblue" stroke="midnightblue" points="941.19,-18.87 930.61,-19.54 939.3,-25.61 941.19,-18.87"/>
</g>
<!-- Node18&#45;&gt;Node14 -->
<g id="edge35" class="edge">
<title>Node18&#45;&gt;Node14</title>
<path fill="none" stroke="midnightblue" d="M667.27,-112.44C618.82,-102.96 540.67,-87.67 488.58,-77.48"/>
<polygon fill="midnightblue" stroke="midnightblue" points="489.01,-74 478.53,-75.52 487.67,-80.87 489.01,-74"/>
</g>
<!-- Node18&#45;&gt;Node15 -->
<g id="edge37" class="edge">
<title>Node18&#45;&gt;Node15</title>
<path fill="none" stroke="midnightblue" d="M683.27,-112.44C653.57,-103.28 606.28,-88.69 573.33,-78.52"/>
<polygon fill="midnightblue" stroke="midnightblue" points="574.19,-75.12 563.6,-75.52 572.12,-81.81 574.19,-75.12"/>
</g>
<!-- Node19 -->
<g id="node19" class="node">
<title>Node19</title>
<g id="a_node19"><a xlink:href="enum__formatter_8h.html" target="_top" xlink:title=" ">
<polygon fill="white" stroke="black" points="869,-56.5 869,-75.5 1005,-75.5 1005,-56.5 869,-56.5"/>
<text text-anchor="middle" x="937" y="-63.5" font-family="Helvetica,sans-Serif" font-size="10.00">ccf/ds/enum_formatter.h</text>
</a>
</g>
</g>
<!-- Node18&#45;&gt;Node19 -->
<g id="edge23" class="edge">
<title>Node18&#45;&gt;Node19</title>
<path fill="none" stroke="midnightblue" d="M746.81,-112.44C785.99,-103.08 848.88,-88.06 891.52,-77.87"/>
<polygon fill="midnightblue" stroke="midnightblue" points="892.44,-81.24 901.36,-75.52 890.82,-74.44 892.44,-81.24"/>
</g>
<!-- Node20 -->
<g id="node20" class="node">
<title>Node20</title>
<g id="a_node20"><a xlink:href="thread__ids_8h.html" target="_top" xlink:title=" ">
<polygon fill="white" stroke="black" points="1061,-56.5 1061,-75.5 1169,-75.5 1169,-56.5 1061,-56.5"/>
<text text-anchor="middle" x="1115" y="-63.5" font-family="Helvetica,sans-Serif" font-size="10.00">ccf/ds/thread_ids.h</text>
</a>
</g>
</g>
<!-- Node18&#45;&gt;Node20 -->
<g id="edge25" class="edge">
<title>Node18&#45;&gt;Node20</title>
<path fill="none" stroke="midnightblue" d="M754.62,-115.17C825.91,-105.64 967.75,-86.68 1050.63,-75.6"/>
<polygon fill="midnightblue" stroke="midnightblue" points="1051.24,-79.05 1060.69,-74.26 1050.31,-72.12 1051.24,-79.05"/>
</g>
<!-- Node26 -->
<g id="node26" class="node">
<title>Node26</title>
<g id="a_node26"><a xlink:title=" ">
<polygon fill="white" stroke="#bfbfbf" points="694.5,-56.5 694.5,-75.5 773.5,-75.5 773.5,-56.5 694.5,-56.5"/>
<text text-anchor="middle" x="734" y="-63.5" font-family="Helvetica,sans-Serif" font-size="10.00">fmt/chrono.h</text>
</a>
</g>
</g>
<!-- Node18&#45;&gt;Node26 -->
<g id="edge32" class="edge">
<title>Node18&#45;&gt;Node26</title>
<path fill="none" stroke="midnightblue" d="M714.8,-112.08C717.91,-104.77 722.42,-94.18 726.29,-85.1"/>
<polygon fill="midnightblue" stroke="midnightblue" points="729.57,-86.32 730.27,-75.75 723.13,-83.58 729.57,-86.32"/>
</g>
<!-- Node27 -->
<g id="node27" class="node">
<title>Node27</title>
<g id="a_node27"><a xlink:title=" ">
<polygon fill="white" stroke="#bfbfbf" points="791,-56.5 791,-75.5 851,-75.5 851,-56.5 791,-56.5"/>
<text text-anchor="middle" x="821" y="-63.5" font-family="Helvetica,sans-Serif" font-size="10.00">iostream</text>
</a>
</g>
</g>
<!-- Node18&#45;&gt;Node27 -->
<g id="edge34" class="edge">
<title>Node18&#45;&gt;Node27</title>
<path fill="none" stroke="midnightblue" d="M728.67,-112.32C746.39,-103.62 773.9,-90.12 794.29,-80.11"/>
<polygon fill="midnightblue" stroke="midnightblue" points="795.94,-83.2 803.37,-75.65 792.85,-76.92 795.94,-83.2"/>
</g>
<!-- Node18&#45;&gt;Node28 -->
<g id="edge36" class="edge">
<title>Node18&#45;&gt;Node28</title>
<path fill="none" stroke="midnightblue" d="M694.77,-112.32C678.65,-103.7 653.7,-90.36 635.04,-80.39"/>
<polygon fill="midnightblue" stroke="midnightblue" points="636.66,-77.28 626.19,-75.65 633.36,-83.46 636.66,-77.28"/>
</g>
<!-- Node19&#45;&gt;Node13 -->
<g id="edge24" class="edge">
<title>Node19&#45;&gt;Node13</title>
<path fill="none" stroke="midnightblue" d="M930.23,-56.08C924.44,-48.46 915.94,-37.26 908.86,-27.94"/>
<polygon fill="midnightblue" stroke="midnightblue" points="911.48,-25.6 902.64,-19.75 905.9,-29.83 911.48,-25.6"/>
</g>
<!-- Node20&#45;&gt;Node13 -->
<g id="edge26" class="edge">
<title>Node20&#45;&gt;Node13</title>
<path fill="none" stroke="midnightblue" d="M1080.3,-56.44C1042.42,-47.1 981.65,-32.12 940.34,-21.93"/>
<polygon fill="midnightblue" stroke="midnightblue" points="941.09,-18.51 930.54,-19.52 939.41,-25.31 941.09,-18.51"/>
</g>
<!-- Node21 -->
<g id="node21" class="node">
<title>Node21</title>
<g id="a_node21"><a xlink:title=" ">
<polygon fill="white" stroke="#bfbfbf" points="1020,-0.5 1020,-19.5 1106,-19.5 1106,-0.5 1020,-0.5"/>
<text text-anchor="middle" x="1063" y="-7.5" font-family="Helvetica,sans-Serif" font-size="10.00">fmt/ostream.h</text>
</a>
</g>
</g>
<!-- Node20&#45;&gt;Node21 -->
<g id="edge27" class="edge">
<title>Node20&#45;&gt;Node21</title>
<path fill="none" stroke="midnightblue" d="M1106.41,-56.08C1098.84,-48.22 1087.62,-36.57 1078.49,-27.08"/>
<polygon fill="midnightblue" stroke="midnightblue" points="1080.88,-24.53 1071.43,-19.75 1075.84,-29.38 1080.88,-24.53"/>
</g>
<!-- Node22 -->
<g id="node22" class="node">
<title>Node22</title>
<g id="a_node22"><a xlink:title=" ">
<polygon fill="white" stroke="#bfbfbf" points="1124.5,-0.5 1124.5,-19.5 1185.5,-19.5 1185.5,-0.5 1124.5,-0.5"/>
<text text-anchor="middle" x="1155" y="-7.5" font-family="Helvetica,sans-Serif" font-size="10.00">fmt/std.h</text>
</a>
</g>
</g>
<!-- Node20&#45;&gt;Node22 -->
<g id="edge28" class="edge">
<title>Node20&#45;&gt;Node22</title>
<path fill="none" stroke="midnightblue" d="M1121.61,-56.08C1127.26,-48.46 1135.54,-37.26 1142.45,-27.94"/>
<polygon fill="midnightblue" stroke="midnightblue" points="1145.38,-29.87 1148.52,-19.75 1139.75,-25.7 1145.38,-29.87"/>
</g>
<!-- Node23 -->
<g id="node23" class="node">
<title>Node23</title>
<g id="a_node23"><a xlink:title=" ">
<polygon fill="white" stroke="#bfbfbf" points="1204,-0.5 1204,-19.5 1248,-19.5 1248,-0.5 1204,-0.5"/>
<text text-anchor="middle" x="1226" y="-7.5" font-family="Helvetica,sans-Serif" font-size="10.00">limits</text>
</a>
</g>
</g>
<!-- Node20&#45;&gt;Node23 -->
<g id="edge29" class="edge">
<title>Node20&#45;&gt;Node23</title>
<path fill="none" stroke="midnightblue" d="M1132.83,-56.32C1150.72,-47.62 1178.48,-34.12 1199.05,-24.11"/>
<polygon fill="midnightblue" stroke="midnightblue" points="1200.75,-27.18 1208.21,-19.65 1197.69,-20.88 1200.75,-27.18"/>
</g>
<!-- Node24 -->
<g id="node24" class="node">
<title>Node24</title>
<g id="a_node24"><a xlink:title=" ">
<polygon fill="white" stroke="#bfbfbf" points="1266,-0.5 1266,-19.5 1304,-19.5 1304,-0.5 1266,-0.5"/>
<text text-anchor="middle" x="1285" y="-7.5" font-family="Helvetica,sans-Serif" font-size="10.00">map</text>
</a>
</g>
</g>
<!-- Node20&#45;&gt;Node24 -->
<g id="edge30" class="edge">
<title>Node20&#45;&gt;Node24</title>
<path fill="none" stroke="midnightblue" d="M1141.97,-56.49C1168.64,-48.06 1210.88,-34.7 1256.05,-20.3"/>
<polygon fill="midnightblue" stroke="midnightblue" points="1257.26,-23.58 1265.72,-17.21 1255.13,-16.91 1257.26,-23.58"/>
</g>
<!-- Node25 -->
<g id="node25" class="node">
<title>Node25</title>
<g id="a_node25"><a xlink:title=" ">
<polygon fill="white" stroke="#bfbfbf" points="954,-0.5 954,-19.5 1002,-19.5 1002,-0.5 954,-0.5"/>
<text text-anchor="middle" x="978" y="-7.5" font-family="Helvetica,sans-Serif" font-size="10.00">thread</text>
</a>
</g>
</g>
<!-- Node20&#45;&gt;Node25 -->
<g id="edge31" class="edge">
<title>Node20&#45;&gt;Node25</title>
<path fill="none" stroke="midnightblue" d="M1093.29,-56.44C1070.65,-47.52 1034.93,-33.44 1009.25,-23.32"/>
<polygon fill="midnightblue" stroke="midnightblue" points="1010.19,-19.93 999.61,-19.52 1007.63,-26.44 1010.19,-19.93"/>
</g>
</g>
</svg>
        <g id="navigator" transform="translate(0 0)" fill="#404254">
                <rect fill="#f2f5e9" fill-opacity="0.5" stroke="#606060" stroke-width=".5" x="0" y="0" width="60" height="60"/>
                <use id="zoomplus" xlink:href="#zoomPlus" x="17" y="9" onmousedown="handleZoom(evt,'in')"/>
                <use id="zoomminus" xlink:href="#zoomMin" x="42" y="9" onmousedown="handleZoom(evt,'out')"/>
                <use id="reset" xlink:href="#resetDef" x="30" y="36" onmousedown="handleReset()"/>
                <g id="arrowUp" xlink:href="#dirArrow" transform="translate(30 24)" onmousedown="handlePan(0,-1)">
                  <use xlink:href="#rim" fill="#404040">
                        <set attributeName="fill" to="#808080" begin="arrowUp.mouseover" end="arrowUp.mouseout"/>
                  </use>
                  <path fill="none" stroke="white" stroke-width="1.5" d="M0,-3.0v7 M-2.5,-0.5L0,-3.0L2.5,-0.5"/>
                </g>
                <g id="arrowRight" xlink:href="#dirArrow" transform="rotate(90) translate(36 -43)" onmousedown="handlePan(1,0)">
                  <use xlink:href="#rim" fill="#404040">
                        <set attributeName="fill" to="#808080" begin="arrowRight.mouseover" end="arrowRight.mouseout"/>
                  </use>
                  <path fill="none" stroke="white" stroke-width="1.5" d="M0,-3.0v7 M-2.5,-0.5L0,-3.0L2.5,-0.5"/>
                </g>
                <g id="arrowDown" xlink:href="#dirArrow" transform="rotate(180) translate(-30 -48)" onmousedown="handlePan(0,1)">
                  <use xlink:href="#rim" fill="#404040">
                        <set attributeName="fill" to="#808080" begin="arrowDown.mouseover" end="arrowDown.mouseout"/>
                  </use>
                  <path fill="none" stroke="white" stroke-width="1.5" d="M0,-3.0v7 M-2.5,-0.5L0,-3.0L2.5,-0.5"/>
                </g>
                <g id="arrowLeft" xlink:href="#dirArrow" transform="rotate(270) translate(-36 17)" onmousedown="handlePan(-1,0)">
                  <use xlink:href="#rim" fill="#404040">
                        <set attributeName="fill" to="#808080" begin="arrowLeft.mouseover" end="arrowLeft.mouseout"/>
                  </use>
                  <path fill="none" stroke="white" stroke-width="1.5" d="M0,-3.0v7 M-2.5,-0.5L0,-3.0L2.5,-0.5"/>
                </g>
        </g>
        <svg viewBox="0 0 15 15" width="100%" height="30px" preserveAspectRatio="xMaxYMin meet">
         <g id="arrow_out" transform="scale(0.3 0.3)">
          <a xlink:href="node__info__network_8h__incl_org.svg" target="_base">
           <rect id="button" ry="5" rx="5" y="6" x="6" height="38" width="38"
                fill="#f2f5e9" fill-opacity="0.5" stroke="#606060" stroke-width="1.0"/>
           <path id="arrow"
             d="M 11.500037,31.436501 C 11.940474,20.09759 22.043105,11.32322 32.158766,21.979434 L 37.068811,17.246167 C 37.068811,17.246167 37.088388,32 37.088388,32 L 22.160133,31.978069 C 22.160133,31.978069 26.997745,27.140456 26.997745,27.140456 C 18.528582,18.264221 13.291696,25.230495 11.500037,31.436501 z"
             style="fill:#404040;"/>
          </a>
         </g>
        </svg>
</svg>
