<?xml version="1.0" encoding="UTF-8" standalone="no"?>
<!DOCTYPE svg PUBLIC "-//W3C//DTD SVG 1.1//EN"
 "http://www.w3.org/Graphics/SVG/1.1/DTD/svg11.dtd">
<!-- Generated by graphviz version 2.43.0 (0)
 -->
<!-- Title: include/ccf/node_startup_state.h Pages: 1 -->
<svg width="1819pt" height="609pt"
 viewBox="0.00 0.00 1818.86 609.00" xmlns="http://www.w3.org/2000/svg" xmlns:xlink="http://www.w3.org/1999/xlink">
<g id="graph0" class="graph" transform="scale(1 1) rotate(0) translate(4 605)">
<title>include/ccf/node_startup_state.h</title>
<polygon fill="white" stroke="transparent" points="-4,4 -4,-605 1814.86,-605 1814.86,4 -4,4"/>
<!-- Node1 -->
<g id="node1" class="node">
<title>Node1</title>
<g id="a_node1"><a xlink:title=" ">
<polygon fill="#bfbfbf" stroke="black" points="662,-570.5 662,-600.5 798,-600.5 798,-570.5 662,-570.5"/>
<text text-anchor="start" x="670" y="-588.5" font-family="Helvetica,sans-Serif" font-size="10.00">include/ccf/node_startup</text>
<text text-anchor="middle" x="730" y="-577.5" font-family="Helvetica,sans-Serif" font-size="10.00">_state.h</text>
</a>
</g>
</g>
<!-- Node2 -->
<g id="node2" class="node">
<title>Node2</title>
<g id="a_node2"><a xlink:href="node__call__types_8h.html" target="_top" xlink:title=" ">
<polygon fill="white" stroke="black" points="540.5,-503.5 540.5,-533.5 665.5,-533.5 665.5,-503.5 540.5,-503.5"/>
<text text-anchor="start" x="548.5" y="-521.5" font-family="Helvetica,sans-Serif" font-size="10.00">src/node/rpc/node_call</text>
<text text-anchor="middle" x="603" y="-510.5" font-family="Helvetica,sans-Serif" font-size="10.00">_types.h</text>
</a>
</g>
</g>
<!-- Node1&#45;&gt;Node2 -->
<g id="edge1" class="edge">
<title>Node1&#45;&gt;Node2</title>
<path fill="none" stroke="midnightblue" d="M693.3,-565.71C673.27,-555.46 648.88,-542.98 630.5,-533.58"/>
<polygon fill="midnightblue" stroke="midnightblue" points="691.95,-568.96 702.44,-570.4 695.14,-562.72 691.95,-568.96"/>
</g>
<!-- Node15 -->
<g id="node15" class="node">
<title>Node15</title>
<g id="a_node15"><a xlink:href="node__interface_8h.html" target="_top" xlink:title=" ">
<polygon fill="white" stroke="black" points="758.5,-380.5 758.5,-399.5 919.5,-399.5 919.5,-380.5 758.5,-380.5"/>
<text text-anchor="middle" x="839" y="-387.5" font-family="Helvetica,sans-Serif" font-size="10.00">src/node/rpc/node_interface.h</text>
</a>
</g>
</g>
<!-- Node1&#45;&gt;Node15 -->
<g id="edge22" class="edge">
<title>Node1&#45;&gt;Node15</title>
<path fill="none" stroke="midnightblue" d="M749.81,-562.81C769.39,-540.34 798.95,-503.47 817,-467 828.33,-444.1 834.81,-414.36 837.51,-399.8"/>
<polygon fill="midnightblue" stroke="midnightblue" points="747.1,-560.6 743.09,-570.41 752.34,-565.24 747.1,-560.6"/>
</g>
<!-- Node28 -->
<g id="node28" class="node">
<title>Node28</title>
<g id="a_node28"><a xlink:href="node__operation__interface_8h.html" target="_top" xlink:title=" ">
<polygon fill="white" stroke="black" points="652.5,-436.5 652.5,-466.5 807.5,-466.5 807.5,-436.5 652.5,-436.5"/>
<text text-anchor="start" x="660.5" y="-454.5" font-family="Helvetica,sans-Serif" font-size="10.00">src/node/rpc/node_operation</text>
<text text-anchor="middle" x="730" y="-443.5" font-family="Helvetica,sans-Serif" font-size="10.00">_interface.h</text>
</a>
</g>
</g>
<!-- Node1&#45;&gt;Node28 -->
<g id="edge50" class="edge">
<title>Node1&#45;&gt;Node28</title>
<path fill="none" stroke="midnightblue" d="M730,-560.02C730,-532.51 730,-488.79 730,-466.52"/>
<polygon fill="midnightblue" stroke="midnightblue" points="726.5,-560.37 730,-570.37 733.5,-560.37 726.5,-560.37"/>
</g>
<!-- Node3 -->
<g id="node3" class="node">
<title>Node3</title>
<g id="a_node3"><a xlink:href="call__types_8h.html" target="_top" xlink:title=" ">
<polygon fill="white" stroke="black" points="431.5,-442 431.5,-461 568.5,-461 568.5,-442 431.5,-442"/>
<text text-anchor="middle" x="500" y="-449" font-family="Helvetica,sans-Serif" font-size="10.00">src/node/rpc/call_types.h</text>
</a>
</g>
</g>
<!-- Node2&#45;&gt;Node3 -->
<g id="edge2" class="edge">
<title>Node2&#45;&gt;Node3</title>
<path fill="none" stroke="midnightblue" d="M572.06,-497.97C552.53,-485.65 528.28,-470.35 513.48,-461.01"/>
<polygon fill="midnightblue" stroke="midnightblue" points="570.33,-501.02 580.65,-503.4 574.06,-495.1 570.33,-501.02"/>
</g>
<!-- Node4 -->
<g id="node4" class="node">
<title>Node4</title>
<g id="a_node4"><a xlink:href="common__endpoint__registry_8cpp.html" target="_top" xlink:title=" ">
<polygon fill="white" stroke="black" points="134,-313.5 134,-343.5 262,-343.5 262,-313.5 134,-313.5"/>
<text text-anchor="start" x="142" y="-331.5" font-family="Helvetica,sans-Serif" font-size="10.00">src/endpoints/common</text>
<text text-anchor="middle" x="198" y="-320.5" font-family="Helvetica,sans-Serif" font-size="10.00">_endpoint_registry.cpp</text>
</a>
</g>
</g>
<!-- Node3&#45;&gt;Node4 -->
<g id="edge3" class="edge">
<title>Node3&#45;&gt;Node4</title>
<path fill="none" stroke="midnightblue" d="M424.27,-440.16C383.14,-432.63 332.21,-420.13 290,-400 259.49,-385.45 229.4,-359.64 212.32,-343.61"/>
<polygon fill="midnightblue" stroke="midnightblue" points="423.77,-443.63 434.23,-441.92 424.99,-436.73 423.77,-443.63"/>
</g>
<!-- Node5 -->
<g id="node5" class="node">
<title>Node5</title>
<g id="a_node5"><a xlink:href="wrap_8cpp.html" target="_top" xlink:title=" ">
<polygon fill="white" stroke="black" points="967.5,-185 967.5,-204 1056.5,-204 1056.5,-185 967.5,-185"/>
<text text-anchor="middle" x="1012" y="-192" font-family="Helvetica,sans-Serif" font-size="10.00">src/js/wrap.cpp</text>
</a>
</g>
</g>
<!-- Node3&#45;&gt;Node5 -->
<g id="edge4" class="edge">
<title>Node3&#45;&gt;Node5</title>
<path fill="none" stroke="midnightblue" d="M516.81,-435.14C546.92,-408.12 612.75,-351.34 675,-313 734.76,-276.19 751.98,-269.83 818,-246 869.23,-227.51 930.33,-212.75 970.08,-204.08"/>
<polygon fill="midnightblue" stroke="midnightblue" points="514.37,-432.62 509.29,-441.93 519.06,-437.82 514.37,-432.62"/>
</g>
<!-- Node6 -->
<g id="node6" class="node">
<title>Node6</title>
<g id="a_node6"><a xlink:href="resharing_8h.html" target="_top" xlink:title=" ">
<polygon fill="white" stroke="black" points="0,-319 0,-338 116,-338 116,-319 0,-319"/>
<text text-anchor="middle" x="58" y="-326" font-family="Helvetica,sans-Serif" font-size="10.00">src/node/resharing.h</text>
</a>
</g>
</g>
<!-- Node3&#45;&gt;Node6 -->
<g id="edge5" class="edge">
<title>Node3&#45;&gt;Node6</title>
<path fill="none" stroke="midnightblue" d="M436.88,-440.2C386.61,-431.38 314.69,-417.36 253,-400 188.03,-381.72 113.62,-352.4 78.46,-338.01"/>
<polygon fill="midnightblue" stroke="midnightblue" points="436.5,-443.69 446.95,-441.95 437.69,-436.79 436.5,-443.69"/>
</g>
<!-- Node11 -->
<g id="node11" class="node">
<title>Node11</title>
<g id="a_node11"><a xlink:href="member__frontend_8h.html" target="_top" xlink:title=" ">
<polygon fill="white" stroke="black" points="508,-246.5 508,-276.5 628,-276.5 628,-246.5 508,-246.5"/>
<text text-anchor="start" x="516" y="-264.5" font-family="Helvetica,sans-Serif" font-size="10.00">src/node/rpc/member</text>
<text text-anchor="middle" x="568" y="-253.5" font-family="Helvetica,sans-Serif" font-size="10.00">_frontend.h</text>
</a>
</g>
</g>
<!-- Node3&#45;&gt;Node11 -->
<g id="edge11" class="edge">
<title>Node3&#45;&gt;Node11</title>
<path fill="none" stroke="midnightblue" d="M506.56,-432.36C520.05,-395.05 550.68,-310.38 562.86,-276.7"/>
<polygon fill="midnightblue" stroke="midnightblue" points="503.21,-431.34 503.1,-441.93 509.79,-433.72 503.21,-431.34"/>
</g>
<!-- Node12 -->
<g id="node12" class="node">
<title>Node12</title>
<g id="a_node12"><a xlink:href="serialization_8h.html" target="_top" xlink:title=" ">
<polygon fill="white" stroke="black" points="299,-380.5 299,-399.5 447,-399.5 447,-380.5 299,-380.5"/>
<text text-anchor="middle" x="373" y="-387.5" font-family="Helvetica,sans-Serif" font-size="10.00">src/node/rpc/serialization.h</text>
</a>
</g>
</g>
<!-- Node3&#45;&gt;Node12 -->
<g id="edge13" class="edge">
<title>Node3&#45;&gt;Node12</title>
<path fill="none" stroke="midnightblue" d="M472.62,-437.67C447.98,-426.13 412.46,-409.49 391.16,-399.51"/>
<polygon fill="midnightblue" stroke="midnightblue" points="471.26,-440.9 481.8,-441.98 474.23,-434.56 471.26,-440.9"/>
</g>
<!-- Node7 -->
<g id="node7" class="node">
<title>Node7</title>
<g id="a_node7"><a xlink:href="node__state_8h.html" target="_top" xlink:title=" ">
<polygon fill="white" stroke="black" points="299,-185 299,-204 423,-204 423,-185 299,-185"/>
<text text-anchor="middle" x="361" y="-192" font-family="Helvetica,sans-Serif" font-size="10.00">src/node/node_state.h</text>
</a>
</g>
</g>
<!-- Node6&#45;&gt;Node7 -->
<g id="edge6" class="edge">
<title>Node6&#45;&gt;Node7</title>
<path fill="none" stroke="midnightblue" d="M87.38,-314.7C148.87,-287.91 289.67,-226.57 341.44,-204.02"/>
<polygon fill="midnightblue" stroke="midnightblue" points="85.65,-311.64 77.88,-318.84 88.45,-318.05 85.65,-311.64"/>
</g>
<!-- Node8 -->
<g id="node8" class="node">
<title>Node8</title>
<g id="a_node8"><a xlink:href="enclave_2enclave_8h.html" target="_top" xlink:title=" ">
<polygon fill="white" stroke="black" points="633,-56.5 633,-75.5 755,-75.5 755,-56.5 633,-56.5"/>
<text text-anchor="middle" x="694" y="-63.5" font-family="Helvetica,sans-Serif" font-size="10.00">src/enclave/enclave.h</text>
</a>
</g>
</g>
<!-- Node7&#45;&gt;Node8 -->
<g id="edge7" class="edge">
<title>Node7&#45;&gt;Node8</title>
<path fill="none" stroke="midnightblue" d="M379.73,-178.2C407.26,-155.83 456.43,-116.36 466,-112 519.24,-87.75 585.31,-76.53 632.6,-71.36"/>
<polygon fill="midnightblue" stroke="midnightblue" points="377.17,-175.77 371.63,-184.8 381.59,-181.19 377.17,-175.77"/>
</g>
<!-- Node10 -->
<g id="node10" class="node">
<title>Node10</title>
<g id="a_node10"><a xlink:href="gov__effects_8h.html" target="_top" xlink:title=" ">
<polygon fill="white" stroke="black" points="270,-118 270,-137 414,-137 414,-118 270,-118"/>
<text text-anchor="middle" x="342" y="-125" font-family="Helvetica,sans-Serif" font-size="10.00">src/node/rpc/gov_effects.h</text>
</a>
</g>
</g>
<!-- Node7&#45;&gt;Node10 -->
<g id="edge9" class="edge">
<title>Node7&#45;&gt;Node10</title>
<path fill="none" stroke="midnightblue" d="M355.57,-174.91C351.94,-162.49 347.32,-146.72 344.52,-137.13"/>
<polygon fill="midnightblue" stroke="midnightblue" points="352.27,-176.12 358.44,-184.73 358.99,-174.15 352.27,-176.12"/>
</g>
<!-- Node9 -->
<g id="node9" class="node">
<title>Node9</title>
<g id="a_node9"><a xlink:href="enclave_2main_8cpp.html" target="_top" xlink:title=" ">
<polygon fill="white" stroke="black" points="634,-0.5 634,-19.5 754,-19.5 754,-0.5 634,-0.5"/>
<text text-anchor="middle" x="694" y="-7.5" font-family="Helvetica,sans-Serif" font-size="10.00">src/enclave/main.cpp</text>
</a>
</g>
</g>
<!-- Node8&#45;&gt;Node9 -->
<g id="edge8" class="edge">
<title>Node8&#45;&gt;Node9</title>
<path fill="none" stroke="midnightblue" d="M694,-45.8C694,-36.91 694,-26.78 694,-19.75"/>
<polygon fill="midnightblue" stroke="midnightblue" points="690.5,-46.08 694,-56.08 697.5,-46.08 690.5,-46.08"/>
</g>
<!-- Node10&#45;&gt;Node8 -->
<g id="edge10" class="edge">
<title>Node10&#45;&gt;Node8</title>
<path fill="none" stroke="midnightblue" d="M402.58,-116.26C470.7,-104.75 580.06,-86.26 643.66,-75.51"/>
<polygon fill="midnightblue" stroke="midnightblue" points="401.71,-112.86 392.43,-117.98 402.88,-119.76 401.71,-112.86"/>
</g>
<!-- Node11&#45;&gt;Node8 -->
<g id="edge12" class="edge">
<title>Node11&#45;&gt;Node8</title>
<path fill="none" stroke="midnightblue" d="M582.88,-237.64C610.83,-194.72 670.01,-103.85 688.42,-75.58"/>
<polygon fill="midnightblue" stroke="midnightblue" points="579.79,-235.98 577.27,-246.27 585.65,-239.8 579.79,-235.98"/>
</g>
<!-- Node12&#45;&gt;Node4 -->
<g id="edge14" class="edge">
<title>Node12&#45;&gt;Node4</title>
<path fill="none" stroke="midnightblue" d="M338.38,-377.23C309.89,-367.54 269.42,-353.78 239.24,-343.52"/>
<polygon fill="midnightblue" stroke="midnightblue" points="337.33,-380.57 347.93,-380.48 339.59,-373.94 337.33,-380.57"/>
</g>
<!-- Node12&#45;&gt;Node6 -->
<g id="edge16" class="edge">
<title>Node12&#45;&gt;Node6</title>
<path fill="none" stroke="midnightblue" d="M312.98,-378.69C262.69,-369.91 189.04,-356.74 125,-344 115.66,-342.14 105.62,-340.03 96.22,-338"/>
<polygon fill="midnightblue" stroke="midnightblue" points="312.58,-382.17 323.03,-380.44 313.78,-375.28 312.58,-382.17"/>
</g>
<!-- Node12&#45;&gt;Node7 -->
<g id="edge15" class="edge">
<title>Node12&#45;&gt;Node7</title>
<path fill="none" stroke="midnightblue" d="M342.45,-375.56C329.67,-368.22 316.15,-357.77 309,-344 301.46,-329.49 305.36,-265.77 314,-246 321.67,-228.44 338.11,-213.1 349.37,-204.07"/>
<polygon fill="midnightblue" stroke="midnightblue" points="341.04,-378.77 351.52,-380.36 344.32,-372.59 341.04,-378.77"/>
</g>
<!-- Node12&#45;&gt;Node11 -->
<g id="edge17" class="edge">
<title>Node12&#45;&gt;Node11</title>
<path fill="none" stroke="midnightblue" d="M412.59,-377.36C434.91,-369.79 462.7,-358.59 485,-344 514.24,-324.88 541.86,-294.38 556.7,-276.62"/>
<polygon fill="midnightblue" stroke="midnightblue" points="411.49,-374.04 403.08,-380.49 413.68,-380.69 411.49,-374.04"/>
</g>
<!-- Node13 -->
<g id="node13" class="node">
<title>Node13</title>
<g id="a_node13"><a xlink:href="node__frontend_8h.html" target="_top" xlink:title=" ">
<polygon fill="white" stroke="black" points="318,-319 318,-338 476,-338 476,-319 318,-319"/>
<text text-anchor="middle" x="397" y="-326" font-family="Helvetica,sans-Serif" font-size="10.00">src/node/rpc/node_frontend.h</text>
</a>
</g>
</g>
<!-- Node12&#45;&gt;Node13 -->
<g id="edge18" class="edge">
<title>Node12&#45;&gt;Node13</title>
<path fill="none" stroke="midnightblue" d="M380.26,-371C384.68,-360.05 390.11,-346.57 393.57,-338.01"/>
<polygon fill="midnightblue" stroke="midnightblue" points="376.93,-369.89 376.44,-380.48 383.43,-372.51 376.93,-369.89"/>
</g>
<!-- Node13&#45;&gt;Node8 -->
<g id="edge19" class="edge">
<title>Node13&#45;&gt;Node8</title>
<path fill="none" stroke="midnightblue" d="M415.6,-312.06C427.5,-302.12 443.24,-288.89 457,-277 540.61,-204.75 560.24,-185.22 643,-112 657.33,-99.32 673.94,-84.67 684.22,-75.62"/>
<polygon fill="midnightblue" stroke="midnightblue" points="413.14,-309.55 407.69,-318.64 417.62,-314.93 413.14,-309.55"/>
</g>
<!-- Node14 -->
<g id="node14" class="node">
<title>Node14</title>
<g id="a_node14"><a xlink:href="jwt__key__auto__refresh_8h.html" target="_top" xlink:title=" ">
<polygon fill="white" stroke="black" points="322.5,-246.5 322.5,-276.5 447.5,-276.5 447.5,-246.5 322.5,-246.5"/>
<text text-anchor="start" x="330.5" y="-264.5" font-family="Helvetica,sans-Serif" font-size="10.00">src/node/jwt_key_auto</text>
<text text-anchor="middle" x="385" y="-253.5" font-family="Helvetica,sans-Serif" font-size="10.00">_refresh.h</text>
</a>
</g>
</g>
<!-- Node13&#45;&gt;Node14 -->
<g id="edge20" class="edge">
<title>Node13&#45;&gt;Node14</title>
<path fill="none" stroke="midnightblue" d="M393.54,-308.74C391.64,-298.49 389.34,-286 387.6,-276.59"/>
<polygon fill="midnightblue" stroke="midnightblue" points="390.12,-309.54 395.38,-318.73 397.01,-308.26 390.12,-309.54"/>
</g>
<!-- Node14&#45;&gt;Node7 -->
<g id="edge21" class="edge">
<title>Node14&#45;&gt;Node7</title>
<path fill="none" stroke="midnightblue" d="M376.3,-236.94C372.09,-225.54 367.29,-212.55 364.21,-204.19"/>
<polygon fill="midnightblue" stroke="midnightblue" points="373.05,-238.23 379.79,-246.4 379.61,-235.8 373.05,-238.23"/>
</g>
<!-- Node15&#45;&gt;Node5 -->
<g id="edge23" class="edge">
<title>Node15&#45;&gt;Node5</title>
<path fill="none" stroke="midnightblue" d="M848.89,-371.34C856.3,-355.71 864.04,-332.45 857,-313 849.91,-293.42 834.09,-296.58 827,-277 822.31,-264.05 818.64,-256.95 827,-246 843.97,-223.77 918.34,-208.97 967.46,-201.42"/>
<polygon fill="midnightblue" stroke="midnightblue" points="845.7,-369.89 844.23,-380.38 851.92,-373.09 845.7,-369.89"/>
</g>
<!-- Node15&#45;&gt;Node11 -->
<g id="edge43" class="edge">
<title>Node15&#45;&gt;Node11</title>
<path fill="none" stroke="midnightblue" d="M779.04,-378.33C747.08,-371.23 707.71,-360.18 675,-344 638.58,-325.98 602.24,-294.81 582.69,-276.68"/>
<polygon fill="midnightblue" stroke="midnightblue" points="778.62,-381.82 789.14,-380.49 780.09,-374.97 778.62,-381.82"/>
</g>
<!-- Node15&#45;&gt;Node13 -->
<g id="edge47" class="edge">
<title>Node15&#45;&gt;Node13</title>
<path fill="none" stroke="midnightblue" d="M765.54,-379.11C680.22,-367.63 540.9,-348.87 460.21,-338.01"/>
<polygon fill="midnightblue" stroke="midnightblue" points="765.29,-382.61 775.67,-380.48 766.23,-375.67 765.29,-382.61"/>
</g>
<!-- Node16 -->
<g id="node16" class="node">
<title>Node16</title>
<g id="a_node16"><a xlink:href="wrap_8h.html" target="_top" xlink:title=" ">
<polygon fill="white" stroke="black" points="970,-319 970,-338 1048,-338 1048,-319 970,-319"/>
<text text-anchor="middle" x="1009" y="-326" font-family="Helvetica,sans-Serif" font-size="10.00">src/js/wrap.h</text>
</a>
</g>
</g>
<!-- Node15&#45;&gt;Node16 -->
<g id="edge24" class="edge">
<title>Node15&#45;&gt;Node16</title>
<path fill="none" stroke="midnightblue" d="M873.05,-377.08C906.09,-365.52 955.42,-348.25 984.69,-338.01"/>
<polygon fill="midnightblue" stroke="midnightblue" points="871.64,-373.87 863.36,-380.48 873.95,-380.48 871.64,-373.87"/>
</g>
<!-- Node23 -->
<g id="node23" class="node">
<title>Node23</title>
<g id="a_node23"><a xlink:href="historical__queries_8h.html" target="_top" xlink:title=" ">
<polygon fill="white" stroke="black" points="1074,-179.5 1074,-209.5 1180,-209.5 1180,-179.5 1074,-179.5"/>
<text text-anchor="start" x="1082" y="-197.5" font-family="Helvetica,sans-Serif" font-size="10.00">src/node/historical</text>
<text text-anchor="middle" x="1127" y="-186.5" font-family="Helvetica,sans-Serif" font-size="10.00">_queries.h</text>
</a>
</g>
</g>
<!-- Node15&#45;&gt;Node23 -->
<g id="edge39" class="edge">
<title>Node15&#45;&gt;Node23</title>
<path fill="none" stroke="midnightblue" d="M929.65,-382.75C1127.42,-368.2 1583.61,-329.27 1629,-277 1638.03,-266.6 1638.24,-256.22 1629,-246 1599.29,-213.15 1303.2,-200.69 1180.17,-196.9"/>
<polygon fill="midnightblue" stroke="midnightblue" points="929.29,-379.27 919.57,-383.49 929.8,-386.25 929.29,-379.27"/>
</g>
<!-- Node25 -->
<g id="node25" class="node">
<title>Node25</title>
<g id="a_node25"><a xlink:href="network__identity__subsystem_8h.html" target="_top" xlink:title=" ">
<polygon fill="white" stroke="black" points="1676.5,-313.5 1676.5,-343.5 1803.5,-343.5 1803.5,-313.5 1676.5,-313.5"/>
<text text-anchor="start" x="1684.5" y="-331.5" font-family="Helvetica,sans-Serif" font-size="10.00">src/node/rpc/network</text>
<text text-anchor="middle" x="1740" y="-320.5" font-family="Helvetica,sans-Serif" font-size="10.00">_identity_subsystem.h</text>
</a>
</g>
</g>
<!-- Node15&#45;&gt;Node25 -->
<g id="edge44" class="edge">
<title>Node15&#45;&gt;Node25</title>
<path fill="none" stroke="midnightblue" d="M929.83,-387.86C1081.86,-385.1 1397.24,-375.71 1662,-344 1666.65,-343.44 1671.44,-342.78 1676.25,-342.04"/>
<polygon fill="midnightblue" stroke="midnightblue" points="929.55,-384.37 919.61,-388.04 929.67,-391.36 929.55,-384.37"/>
</g>
<!-- Node27 -->
<g id="node27" class="node">
<title>Node27</title>
<g id="a_node27"><a xlink:href="node__operation_8h.html" target="_top" xlink:title=" ">
<polygon fill="white" stroke="black" points="684,-319 684,-338 848,-338 848,-319 684,-319"/>
<text text-anchor="middle" x="766" y="-326" font-family="Helvetica,sans-Serif" font-size="10.00">src/node/rpc/node_operation.h</text>
</a>
</g>
</g>
<!-- Node15&#45;&gt;Node27 -->
<g id="edge48" class="edge">
<title>Node15&#45;&gt;Node27</title>
<path fill="none" stroke="midnightblue" d="M820.56,-373.97C806.6,-362.59 787.92,-347.37 776.44,-338.01"/>
<polygon fill="midnightblue" stroke="midnightblue" points="818.58,-376.87 828.54,-380.48 823,-371.44 818.58,-376.87"/>
</g>
<!-- Node16&#45;&gt;Node5 -->
<g id="edge36" class="edge">
<title>Node16&#45;&gt;Node5</title>
<path fill="none" stroke="midnightblue" d="M1058.27,-327.77C1143.7,-327.06 1313.78,-320.12 1351,-277 1360,-266.57 1360.11,-256.33 1351,-246 1308.63,-197.96 1127.83,-222.48 1065,-210 1056.95,-208.4 1048.33,-206.24 1040.43,-204.08"/>
<polygon fill="midnightblue" stroke="midnightblue" points="1058.02,-324.27 1048.04,-327.82 1058.06,-331.27 1058.02,-324.27"/>
</g>
<!-- Node16&#45;&gt;Node7 -->
<g id="edge37" class="edge">
<title>Node16&#45;&gt;Node7</title>
<path fill="none" stroke="midnightblue" d="M962.24,-316.71C891.85,-300.59 754.38,-269.59 637,-246 557.96,-230.12 465.77,-213.66 410.46,-204.02"/>
<polygon fill="midnightblue" stroke="midnightblue" points="961.6,-320.15 972.13,-318.98 963.16,-313.33 961.6,-320.15"/>
</g>
<!-- Node16&#45;&gt;Node8 -->
<g id="edge26" class="edge">
<title>Node16&#45;&gt;Node8</title>
<path fill="none" stroke="midnightblue" d="M959.75,-323.61C920.48,-318.35 865.82,-306.01 827,-277 757.75,-225.26 770.87,-184.64 724,-112 715.75,-99.22 705.93,-84.59 699.83,-75.58"/>
<polygon fill="midnightblue" stroke="midnightblue" points="959.53,-327.11 969.88,-324.85 960.39,-320.16 959.53,-327.11"/>
</g>
<!-- Node16&#45;&gt;Node11 -->
<g id="edge38" class="edge">
<title>Node16&#45;&gt;Node11</title>
<path fill="none" stroke="midnightblue" d="M959.89,-320.26C878.59,-308.28 716.27,-284.35 628.2,-271.37"/>
<polygon fill="midnightblue" stroke="midnightblue" points="959.46,-323.74 969.86,-321.73 960.48,-316.81 959.46,-323.74"/>
</g>
<!-- Node17 -->
<g id="node17" class="node">
<title>Node17</title>
<g id="a_node17"><a xlink:href="js__generic__base_8cpp.html" target="_top" xlink:title=" ">
<polygon fill="white" stroke="black" points="950,-246.5 950,-276.5 1068,-276.5 1068,-246.5 950,-246.5"/>
<text text-anchor="start" x="958" y="-264.5" font-family="Helvetica,sans-Serif" font-size="10.00">src/apps/js_generic</text>
<text text-anchor="middle" x="1009" y="-253.5" font-family="Helvetica,sans-Serif" font-size="10.00">/js_generic_base.cpp</text>
</a>
</g>
</g>
<!-- Node16&#45;&gt;Node17 -->
<g id="edge25" class="edge">
<title>Node16&#45;&gt;Node17</title>
<path fill="none" stroke="midnightblue" d="M1009,-308.41C1009,-298.22 1009,-285.9 1009,-276.59"/>
<polygon fill="midnightblue" stroke="midnightblue" points="1005.5,-308.73 1009,-318.73 1012.5,-308.73 1005.5,-308.73"/>
</g>
<!-- Node18 -->
<g id="node18" class="node">
<title>Node18</title>
<g id="a_node18"><a xlink:href="js_2consensus_8cpp.html" target="_top" xlink:title=" ">
<polygon fill="white" stroke="black" points="1398,-252 1398,-271 1514,-271 1514,-252 1398,-252"/>
<text text-anchor="middle" x="1456" y="-259" font-family="Helvetica,sans-Serif" font-size="10.00">src/js/consensus.cpp</text>
</a>
</g>
</g>
<!-- Node16&#45;&gt;Node18 -->
<g id="edge27" class="edge">
<title>Node16&#45;&gt;Node18</title>
<path fill="none" stroke="midnightblue" d="M1058.38,-321.89C1130.25,-313.48 1267.76,-296.51 1384,-277 1394.44,-275.25 1405.68,-273.11 1416.1,-271.02"/>
<polygon fill="midnightblue" stroke="midnightblue" points="1057.79,-318.43 1048.27,-323.06 1058.6,-325.38 1057.79,-318.43"/>
</g>
<!-- Node19 -->
<g id="node19" class="node">
<title>Node19</title>
<g id="a_node19"><a xlink:href="conv_8cpp.html" target="_top" xlink:title=" ">
<polygon fill="white" stroke="black" points="1532,-252 1532,-271 1620,-271 1620,-252 1532,-252"/>
<text text-anchor="middle" x="1576" y="-259" font-family="Helvetica,sans-Serif" font-size="10.00">src/js/conv.cpp</text>
</a>
</g>
</g>
<!-- Node16&#45;&gt;Node19 -->
<g id="edge29" class="edge">
<title>Node16&#45;&gt;Node19</title>
<path fill="none" stroke="midnightblue" d="M1058.12,-325.44C1150.04,-320.98 1354.04,-308.18 1523,-277 1531.26,-275.48 1540.1,-273.29 1548.15,-271.07"/>
<polygon fill="midnightblue" stroke="midnightblue" points="1057.82,-321.95 1048,-325.92 1058.16,-328.94 1057.82,-321.95"/>
</g>
<!-- Node20 -->
<g id="node20" class="node">
<title>Node20</title>
<g id="a_node20"><a xlink:href="js_2crypto_8cpp.html" target="_top" xlink:title=" ">
<polygon fill="white" stroke="black" points="836,-252 836,-271 932,-271 932,-252 836,-252"/>
<text text-anchor="middle" x="884" y="-259" font-family="Helvetica,sans-Serif" font-size="10.00">src/js/crypto.cpp</text>
</a>
</g>
</g>
<!-- Node16&#45;&gt;Node20 -->
<g id="edge31" class="edge">
<title>Node16&#45;&gt;Node20</title>
<path fill="none" stroke="midnightblue" d="M983.24,-314.1C958.48,-301.23 921.81,-282.16 900.67,-271.17"/>
<polygon fill="midnightblue" stroke="midnightblue" points="981.91,-317.36 992.4,-318.87 985.14,-311.15 981.91,-317.36"/>
</g>
<!-- Node21 -->
<g id="node21" class="node">
<title>Node21</title>
<g id="a_node21"><a xlink:href="js_2historical_8cpp.html" target="_top" xlink:title=" ">
<polygon fill="white" stroke="black" points="1086,-252 1086,-271 1196,-271 1196,-252 1086,-252"/>
<text text-anchor="middle" x="1141" y="-259" font-family="Helvetica,sans-Serif" font-size="10.00">src/js/historical.cpp</text>
</a>
</g>
</g>
<!-- Node16&#45;&gt;Node21 -->
<g id="edge33" class="edge">
<title>Node16&#45;&gt;Node21</title>
<path fill="none" stroke="midnightblue" d="M1035.51,-314.44C1061.66,-301.57 1100.88,-282.26 1123.4,-271.17"/>
<polygon fill="midnightblue" stroke="midnightblue" points="1033.95,-311.31 1026.53,-318.87 1037.05,-317.59 1033.95,-311.31"/>
</g>
<!-- Node22 -->
<g id="node22" class="node">
<title>Node22</title>
<g id="a_node22"><a xlink:href="openenclave_8cpp.html" target="_top" xlink:title=" ">
<polygon fill="white" stroke="black" points="1214,-252 1214,-271 1342,-271 1342,-252 1214,-252"/>
<text text-anchor="middle" x="1278" y="-259" font-family="Helvetica,sans-Serif" font-size="10.00">src/js/openenclave.cpp</text>
</a>
</g>
</g>
<!-- Node16&#45;&gt;Node22 -->
<g id="edge35" class="edge">
<title>Node16&#45;&gt;Node22</title>
<path fill="none" stroke="midnightblue" d="M1054.26,-316.56C1107.29,-303.75 1194.05,-282.78 1242.48,-271.08"/>
<polygon fill="midnightblue" stroke="midnightblue" points="1053.34,-313.18 1044.44,-318.94 1054.99,-319.99 1053.34,-313.18"/>
</g>
<!-- Node18&#45;&gt;Node5 -->
<g id="edge28" class="edge">
<title>Node18&#45;&gt;Node5</title>
<path fill="none" stroke="midnightblue" d="M1406.95,-250.03C1399.29,-248.57 1391.45,-247.17 1384,-246 1243.04,-223.9 1205.12,-236.91 1065,-210 1056.85,-208.43 1048.12,-206.26 1040.14,-204.07"/>
<polygon fill="midnightblue" stroke="midnightblue" points="1406.39,-253.49 1416.87,-251.98 1407.74,-246.62 1406.39,-253.49"/>
</g>
<!-- Node19&#45;&gt;Node5 -->
<g id="edge30" class="edge">
<title>Node19&#45;&gt;Node5</title>
<path fill="none" stroke="midnightblue" d="M1538.8,-249.38C1533.53,-248.08 1528.15,-246.9 1523,-246 1321.86,-210.9 1266.14,-245.1 1065,-210 1056.54,-208.52 1047.48,-206.29 1039.29,-204.02"/>
<polygon fill="midnightblue" stroke="midnightblue" points="1538.15,-252.83 1548.71,-251.98 1539.93,-246.05 1538.15,-252.83"/>
</g>
<!-- Node20&#45;&gt;Node5 -->
<g id="edge32" class="edge">
<title>Node20&#45;&gt;Node5</title>
<path fill="none" stroke="midnightblue" d="M910.05,-247.27C935.4,-234.4 973.19,-215.21 994.93,-204.17"/>
<polygon fill="midnightblue" stroke="midnightblue" points="908.33,-244.22 901,-251.87 911.5,-250.46 908.33,-244.22"/>
</g>
<!-- Node21&#45;&gt;Node5 -->
<g id="edge34" class="edge">
<title>Node21&#45;&gt;Node5</title>
<path fill="none" stroke="midnightblue" d="M1114.75,-247.27C1089.2,-234.4 1051.11,-215.21 1029.2,-204.17"/>
<polygon fill="midnightblue" stroke="midnightblue" points="1113.36,-250.49 1123.87,-251.87 1116.51,-244.24 1113.36,-250.49"/>
</g>
<!-- Node23&#45;&gt;Node8 -->
<g id="edge40" class="edge">
<title>Node23&#45;&gt;Node8</title>
<path fill="none" stroke="midnightblue" d="M1109.86,-171.55C1093.58,-152.41 1067.28,-125.64 1038,-112 989.06,-89.21 840,-76.28 755.02,-70.56"/>
<polygon fill="midnightblue" stroke="midnightblue" points="1107.34,-174 1116.41,-179.48 1112.74,-169.54 1107.34,-174"/>
</g>
<!-- Node24 -->
<g id="node24" class="node">
<title>Node24</title>
<g id="a_node24"><a xlink:href="historical__transaction__fetcher_8h.html" target="_top" xlink:title=" ">
<polygon fill="white" stroke="black" points="903.5,-112.5 903.5,-142.5 1028.5,-142.5 1028.5,-112.5 903.5,-112.5"/>
<text text-anchor="start" x="911.5" y="-130.5" font-family="Helvetica,sans-Serif" font-size="10.00">src/indexing/historical</text>
<text text-anchor="middle" x="966" y="-119.5" font-family="Helvetica,sans-Serif" font-size="10.00">_transaction_fetcher.h</text>
</a>
</g>
</g>
<!-- Node23&#45;&gt;Node24 -->
<g id="edge41" class="edge">
<title>Node23&#45;&gt;Node24</title>
<path fill="none" stroke="midnightblue" d="M1082.52,-175.54C1056.76,-165.14 1024.8,-152.24 1000.87,-142.58"/>
<polygon fill="midnightblue" stroke="midnightblue" points="1081.48,-178.9 1092.07,-179.4 1084.1,-172.41 1081.48,-178.9"/>
</g>
<!-- Node24&#45;&gt;Node8 -->
<g id="edge42" class="edge">
<title>Node24&#45;&gt;Node8</title>
<path fill="none" stroke="midnightblue" d="M893.17,-110.57C841.64,-99.3 774.56,-84.62 732.89,-75.51"/>
<polygon fill="midnightblue" stroke="midnightblue" points="892.74,-114.06 903.26,-112.77 894.24,-107.22 892.74,-114.06"/>
</g>
<!-- Node25&#45;&gt;Node8 -->
<g id="edge45" class="edge">
<title>Node25&#45;&gt;Node8</title>
<path fill="none" stroke="midnightblue" d="M1773.75,-307.46C1797.5,-290.84 1822.24,-266.68 1805,-246 1593.23,8.05 1400.04,-161.3 1073,-112 961.29,-95.16 830.26,-80.79 755.21,-73.07"/>
<polygon fill="midnightblue" stroke="midnightblue" points="1771.5,-304.75 1765.12,-313.22 1775.38,-310.57 1771.5,-304.75"/>
</g>
<!-- Node26 -->
<g id="node26" class="node">
<title>Node26</title>
<g id="a_node26"><a xlink:href="historical__queries__adapter_8cpp.html" target="_top" xlink:title=" ">
<polygon fill="white" stroke="black" points="1676,-246.5 1676,-276.5 1796,-276.5 1796,-246.5 1676,-246.5"/>
<text text-anchor="start" x="1684" y="-264.5" font-family="Helvetica,sans-Serif" font-size="10.00">src/node/historical</text>
<text text-anchor="middle" x="1736" y="-253.5" font-family="Helvetica,sans-Serif" font-size="10.00">_queries_adapter.cpp</text>
</a>
</g>
</g>
<!-- Node25&#45;&gt;Node26 -->
<g id="edge46" class="edge">
<title>Node25&#45;&gt;Node26</title>
<path fill="none" stroke="midnightblue" d="M1738.52,-303.4C1737.96,-294.37 1737.35,-284.41 1736.87,-276.58"/>
<polygon fill="midnightblue" stroke="midnightblue" points="1735.02,-303.63 1739.13,-313.4 1742.01,-303.2 1735.02,-303.63"/>
</g>
<!-- Node27&#45;&gt;Node8 -->
<g id="edge49" class="edge">
<title>Node27&#45;&gt;Node8</title>
<path fill="none" stroke="midnightblue" d="M760.9,-309.04C746.62,-257.38 706.63,-112.69 696.4,-75.7"/>
<polygon fill="midnightblue" stroke="midnightblue" points="757.57,-310.13 763.6,-318.83 764.31,-308.26 757.57,-310.13"/>
</g>
<!-- Node28&#45;&gt;Node11 -->
<g id="edge51" class="edge">
<title>Node28&#45;&gt;Node11</title>
<path fill="none" stroke="midnightblue" d="M707,-429.7C684.67,-408.99 650.37,-375.79 624,-344 605.48,-321.67 587,-293.3 576.59,-276.6"/>
<polygon fill="midnightblue" stroke="midnightblue" points="704.64,-432.29 714.37,-436.49 709.38,-427.14 704.64,-432.29"/>
</g>
<!-- Node28&#45;&gt;Node15 -->
<g id="edge52" class="edge">
<title>Node28&#45;&gt;Node15</title>
<path fill="none" stroke="midnightblue" d="M764.8,-431.51C784.39,-420.81 807.91,-407.97 823.14,-399.66"/>
<polygon fill="midnightblue" stroke="midnightblue" points="762.93,-428.54 755.83,-436.4 766.29,-434.68 762.93,-428.54"/>
</g>
<!-- Node28&#45;&gt;Node27 -->
<g id="edge53" class="edge">
<title>Node28&#45;&gt;Node27</title>
<path fill="none" stroke="midnightblue" d="M736.65,-426.38C740.45,-412.74 745.38,-395.38 750,-380 754.44,-365.2 759.94,-348.08 763.2,-338.05"/>
<polygon fill="midnightblue" stroke="midnightblue" points="733.16,-425.85 733.86,-436.42 739.91,-427.72 733.16,-425.85"/>
</g>
</g>
</svg>
