<?xml version="1.0" encoding="UTF-8" standalone="no"?>
<!DOCTYPE svg PUBLIC "-//W3C//DTD SVG 1.1//EN"
 "http://www.w3.org/Graphics/SVG/1.1/DTD/svg11.dtd">
<!-- Generated by graphviz version 2.43.0 (0)
 -->
<!-- Title: src/ds/non_blocking.h Pages: 1 -->
<!--zoomable 308 -->
<svg id="main" version="1.1" xmlns="http://www.w3.org/2000/svg" xmlns:xlink="http://www.w3.org/1999/xlink" xml:space="preserve" onload="init(evt)">
<style type="text/css"><![CDATA[
.edge:hover path { stroke: red; }
.edge:hover polygon { stroke: red; fill: red; }
]]></style>
<script type="text/javascript"><![CDATA[
var edges = document.getElementsByTagName('g');
if (edges && edges.length) {
  for (var i=0;i<edges.length;i++) {
    if (edges[i].id.substr(0,4)=='edge') {
      edges[i].setAttribute('class','edge');
    }
  }
}
]]></script>
        <defs>
                <circle id="rim" cx="0" cy="0" r="7"/>
                <circle id="rim2" cx="0" cy="0" r="3.5"/>
                <g id="zoomPlus">
                        <use xlink:href="#rim" fill="#404040">
                                <set attributeName="fill" to="#808080" begin="zoomplus.mouseover" end="zoomplus.mouseout"/>
                        </use>
                        <path d="M-4,0h8M0,-4v8" fill="none" stroke="white" stroke-width="1.5" pointer-events="none"/>
                </g>
                <g id="zoomMin">
                        <use xlink:href="#rim" fill="#404040">
                                <set attributeName="fill" to="#808080" begin="zoomminus.mouseover" end="zoomminus.mouseout"/>
                        </use>
                        <path d="M-4,0h8" fill="none" stroke="white" stroke-width="1.5" pointer-events="none"/>
                </g>
                <g id="dirArrow">
                        <path fill="none" stroke="white" stroke-width="1.5" d="M0,-3.0v7 M-2.5,-0.5L0,-3.0L2.5,-0.5"/>
                </g>
               <g id="resetDef">
                       <use xlink:href="#rim2" fill="#404040">
                               <set attributeName="fill" to="#808080" begin="reset.mouseover" end="reset.mouseout"/>
                       </use>
               </g>
        </defs>

<script type="text/javascript">
var viewWidth = 1106;
var viewHeight = 308;
var sectionId = 'dynsection-0';
</script>
<script xlink:href="svgpan.js"/>
<svg id="graph" class="graph">
<g id="viewport">
<title>src/ds/non_blocking.h</title>
<polygon fill="white" stroke="transparent" points="-4,4 -4,-304 1101.5,-304 1101.5,4 -4,4"/>
<!-- Node1 -->
<g id="node1" class="node">
<title>Node1</title>
<g id="a_node1"><a xlink:title=" ">
<polygon fill="#bfbfbf" stroke="black" points="611.5,-280.5 611.5,-299.5 733.5,-299.5 733.5,-280.5 611.5,-280.5"/>
<text text-anchor="middle" x="672.5" y="-287.5" font-family="Helvetica,sans-Serif" font-size="10.00">src/ds/non_blocking.h</text>
</a>
</g>
</g>
<!-- Node2 -->
<g id="node2" class="node">
<title>Node2</title>
<g id="a_node2"><a xlink:href="ring__buffer_8h.html" target="_top" xlink:title=" ">
<polygon fill="white" stroke="black" points="701,-224.5 701,-243.5 778,-243.5 778,-224.5 701,-224.5"/>
<text text-anchor="middle" x="739.5" y="-231.5" font-family="Helvetica,sans-Serif" font-size="10.00">ring_buffer.h</text>
</a>
</g>
</g>
<!-- Node1&#45;&gt;Node2 -->
<g id="edge1" class="edge">
<title>Node1&#45;&gt;Node2</title>
<path fill="none" stroke="midnightblue" d="M683.26,-280.32C693.27,-272.26 708.39,-260.08 720.43,-250.37"/>
<polygon fill="midnightblue" stroke="midnightblue" points="722.95,-252.83 728.54,-243.83 718.56,-247.38 722.95,-252.83"/>
</g>
<!-- Node10 -->
<g id="node10" class="node">
<title>Node10</title>
<g id="a_node10"><a xlink:title=" ">
<polygon fill="white" stroke="#bfbfbf" points="475,-0.5 475,-19.5 522,-19.5 522,-0.5 475,-0.5"/>
<text text-anchor="middle" x="498.5" y="-7.5" font-family="Helvetica,sans-Serif" font-size="10.00">vector</text>
</a>
</g>
</g>
<!-- Node1&#45;&gt;Node10 -->
<g id="edge45" class="edge">
<title>Node1&#45;&gt;Node10</title>
<path fill="none" stroke="midnightblue" d="M623.84,-280.4C574.52,-268.82 500.74,-242.93 466.5,-188 434.61,-136.85 469.01,-62.2 487.86,-28.57"/>
<polygon fill="midnightblue" stroke="midnightblue" points="491.12,-29.93 493.12,-19.53 485.06,-26.41 491.12,-29.93"/>
</g>
<!-- Node22 -->
<g id="node22" class="node">
<title>Node22</title>
<g id="a_node22"><a xlink:title=" ">
<polygon fill="white" stroke="#bfbfbf" points="54.5,-56.5 54.5,-75.5 112.5,-75.5 112.5,-56.5 54.5,-56.5"/>
<text text-anchor="middle" x="83.5" y="-63.5" font-family="Helvetica,sans-Serif" font-size="10.00">memory</text>
</a>
</g>
</g>
<!-- Node1&#45;&gt;Node22 -->
<g id="edge44" class="edge">
<title>Node1&#45;&gt;Node22</title>
<path fill="none" stroke="midnightblue" d="M611.45,-282.11C562.47,-275.49 492.41,-263.55 433.5,-244 325.97,-208.31 305.31,-183.71 204.5,-132 170.78,-114.71 132.3,-93.84 107.96,-80.49"/>
<polygon fill="midnightblue" stroke="midnightblue" points="109.51,-77.35 99.06,-75.61 106.14,-83.49 109.51,-77.35"/>
</g>
<!-- Node25 -->
<g id="node25" class="node">
<title>Node25</title>
<g id="a_node25"><a xlink:title=" ">
<polygon fill="white" stroke="#bfbfbf" points="693,-112.5 693,-131.5 772,-131.5 772,-112.5 693,-112.5"/>
<text text-anchor="middle" x="732.5" y="-119.5" font-family="Helvetica,sans-Serif" font-size="10.00">fmt/format.h</text>
</a>
</g>
</g>
<!-- Node1&#45;&gt;Node25 -->
<g id="edge43" class="edge">
<title>Node1&#45;&gt;Node25</title>
<path fill="none" stroke="midnightblue" d="M673.72,-280.48C676.8,-260.27 685.97,-208.15 703.5,-168 707.77,-158.22 714.04,-148.16 719.66,-140.04"/>
<polygon fill="midnightblue" stroke="midnightblue" points="722.58,-141.98 725.59,-131.82 716.9,-137.89 722.58,-141.98"/>
</g>
<!-- Node29 -->
<g id="node29" class="node">
<title>Node29</title>
<g id="a_node29"><a xlink:title=" ">
<polygon fill="white" stroke="#bfbfbf" points="796,-224.5 796,-243.5 843,-243.5 843,-224.5 796,-224.5"/>
<text text-anchor="middle" x="819.5" y="-231.5" font-family="Helvetica,sans-Serif" font-size="10.00">deque</text>
</a>
</g>
</g>
<!-- Node1&#45;&gt;Node29 -->
<g id="edge42" class="edge">
<title>Node1&#45;&gt;Node29</title>
<path fill="none" stroke="midnightblue" d="M695.79,-280.44C720.31,-271.44 759.1,-257.19 786.7,-247.05"/>
<polygon fill="midnightblue" stroke="midnightblue" points="788.14,-250.25 796.32,-243.52 785.72,-243.68 788.14,-250.25"/>
</g>
<!-- Node3 -->
<g id="node3" class="node">
<title>Node3</title>
<g id="a_node3"><a xlink:href="ccf__memcpy_8h.html" target="_top" xlink:title=" ">
<polygon fill="white" stroke="black" points="1011.5,-168.5 1011.5,-187.5 1097.5,-187.5 1097.5,-168.5 1011.5,-168.5"/>
<text text-anchor="middle" x="1054.5" y="-175.5" font-family="Helvetica,sans-Serif" font-size="10.00">ccf_memcpy.h</text>
</a>
</g>
</g>
<!-- Node2&#45;&gt;Node3 -->
<g id="edge2" class="edge">
<title>Node2&#45;&gt;Node3</title>
<path fill="none" stroke="midnightblue" d="M778,-225.72C781.21,-225.13 784.41,-224.55 787.5,-224 861.63,-210.8 947.52,-196.5 1001.44,-187.65"/>
<polygon fill="midnightblue" stroke="midnightblue" points="1002.15,-191.08 1011.45,-186.01 1001.02,-184.17 1002.15,-191.08"/>
</g>
<!-- Node4 -->
<g id="node4" class="node">
<title>Node4</title>
<g id="a_node4"><a xlink:title=" ">
<polygon fill="white" stroke="#bfbfbf" points="958.5,-0.5 958.5,-19.5 1008.5,-19.5 1008.5,-0.5 958.5,-0.5"/>
<text text-anchor="middle" x="983.5" y="-7.5" font-family="Helvetica,sans-Serif" font-size="10.00">cstring</text>
</a>
</g>
</g>
<!-- Node2&#45;&gt;Node4 -->
<g id="edge39" class="edge">
<title>Node2&#45;&gt;Node4</title>
<path fill="none" stroke="midnightblue" d="M764.63,-224.45C785.28,-216.74 814.75,-204.14 837.5,-188 893.9,-147.99 903.75,-131.13 945.5,-76 956.82,-61.05 967.38,-42.45 974.49,-28.98"/>
<polygon fill="midnightblue" stroke="midnightblue" points="977.73,-30.32 979.2,-19.83 971.51,-27.12 977.73,-30.32"/>
</g>
<!-- Node5 -->
<g id="node5" class="node">
<title>Node5</title>
<g id="a_node5"><a xlink:href="ring__buffer__types_8h.html" target="_top" xlink:title=" ">
<polygon fill="white" stroke="black" points="475.5,-168.5 475.5,-187.5 585.5,-187.5 585.5,-168.5 475.5,-168.5"/>
<text text-anchor="middle" x="530.5" y="-175.5" font-family="Helvetica,sans-Serif" font-size="10.00">ring_buffer_types.h</text>
</a>
</g>
</g>
<!-- Node2&#45;&gt;Node5 -->
<g id="edge4" class="edge">
<title>Node2&#45;&gt;Node5</title>
<path fill="none" stroke="midnightblue" d="M706.38,-224.44C670.38,-215.14 612.73,-200.25 573.31,-190.06"/>
<polygon fill="midnightblue" stroke="midnightblue" points="574.02,-186.63 563.46,-187.52 572.27,-193.41 574.02,-186.63"/>
</g>
<!-- Node27 -->
<g id="node27" class="node">
<title>Node27</title>
<g id="a_node27"><a xlink:title=" ">
<polygon fill="white" stroke="#bfbfbf" points="763,-168.5 763,-187.5 828,-187.5 828,-168.5 763,-168.5"/>
<text text-anchor="middle" x="795.5" y="-175.5" font-family="Helvetica,sans-Serif" font-size="10.00">functional</text>
</a>
</g>
</g>
<!-- Node2&#45;&gt;Node27 -->
<g id="edge40" class="edge">
<title>Node2&#45;&gt;Node27</title>
<path fill="none" stroke="midnightblue" d="M748.5,-224.32C756.69,-216.42 769.01,-204.55 778.97,-194.94"/>
<polygon fill="midnightblue" stroke="midnightblue" points="781.57,-197.29 786.34,-187.83 776.71,-192.26 781.57,-197.29"/>
</g>
<!-- Node28 -->
<g id="node28" class="node">
<title>Node28</title>
<g id="a_node28"><a xlink:title=" ">
<polygon fill="white" stroke="#bfbfbf" points="712.5,-168.5 712.5,-187.5 744.5,-187.5 744.5,-168.5 712.5,-168.5"/>
<text text-anchor="middle" x="728.5" y="-175.5" font-family="Helvetica,sans-Serif" font-size="10.00">set</text>
</a>
</g>
</g>
<!-- Node2&#45;&gt;Node28 -->
<g id="edge41" class="edge">
<title>Node2&#45;&gt;Node28</title>
<path fill="none" stroke="midnightblue" d="M737.68,-224.08C736.23,-216.93 734.13,-206.64 732.31,-197.69"/>
<polygon fill="midnightblue" stroke="midnightblue" points="735.71,-196.85 730.28,-187.75 728.85,-198.25 735.71,-196.85"/>
</g>
<!-- Node3&#45;&gt;Node4 -->
<g id="edge3" class="edge">
<title>Node3&#45;&gt;Node4</title>
<path fill="none" stroke="midnightblue" d="M1050.68,-168.08C1039.46,-141.83 1006.4,-64.55 991.25,-29.12"/>
<polygon fill="midnightblue" stroke="midnightblue" points="994.32,-27.39 987.16,-19.57 987.88,-30.14 994.32,-27.39"/>
</g>
<!-- Node6 -->
<g id="node6" class="node">
<title>Node6</title>
<g id="a_node6"><a xlink:href="include_2ccf_2ds_2hash_8h.html" target="_top" xlink:title=" ">
<polygon fill="white" stroke="black" points="526.5,-112.5 526.5,-131.5 606.5,-131.5 606.5,-112.5 526.5,-112.5"/>
<text text-anchor="middle" x="566.5" y="-119.5" font-family="Helvetica,sans-Serif" font-size="10.00">ccf/ds/hash.h</text>
</a>
</g>
</g>
<!-- Node5&#45;&gt;Node6 -->
<g id="edge5" class="edge">
<title>Node5&#45;&gt;Node6</title>
<path fill="none" stroke="midnightblue" d="M536.44,-168.08C541.48,-160.53 548.84,-149.49 555.01,-140.23"/>
<polygon fill="midnightblue" stroke="midnightblue" points="558.03,-142.01 560.67,-131.75 552.21,-138.13 558.03,-142.01"/>
</g>
<!-- Node5&#45;&gt;Node10 -->
<g id="edge38" class="edge">
<title>Node5&#45;&gt;Node10</title>
<path fill="none" stroke="midnightblue" d="M527.68,-168.46C524.8,-159.46 520.36,-144.86 517.5,-132 509.54,-96.14 503.67,-53.59 500.7,-29.7"/>
<polygon fill="midnightblue" stroke="midnightblue" points="504.15,-29.08 499.47,-19.58 497.2,-29.93 504.15,-29.08"/>
</g>
<!-- Node13 -->
<g id="node13" class="node">
<title>Node13</title>
<g id="a_node13"><a xlink:href="nonstd_8h.html" target="_top" xlink:title=" ">
<polygon fill="white" stroke="black" points="130.5,-56.5 130.5,-75.5 220.5,-75.5 220.5,-56.5 130.5,-56.5"/>
<text text-anchor="middle" x="175.5" y="-63.5" font-family="Helvetica,sans-Serif" font-size="10.00">ccf/ds/nonstd.h</text>
</a>
</g>
</g>
<!-- Node5&#45;&gt;Node13 -->
<g id="edge14" class="edge">
<title>Node5&#45;&gt;Node13</title>
<path fill="none" stroke="midnightblue" d="M475.33,-173.12C401.24,-167.15 274.2,-154.04 233.5,-132 213.01,-120.91 196.18,-99.63 186.03,-84.44"/>
<polygon fill="midnightblue" stroke="midnightblue" points="188.92,-82.47 180.59,-75.92 183.01,-86.23 188.92,-82.47"/>
</g>
<!-- Node16 -->
<g id="node16" class="node">
<title>Node16</title>
<g id="a_node16"><a xlink:title=" ">
<polygon fill="white" stroke="#bfbfbf" points="388.5,-0.5 388.5,-19.5 432.5,-19.5 432.5,-0.5 388.5,-0.5"/>
<text text-anchor="middle" x="410.5" y="-7.5" font-family="Helvetica,sans-Serif" font-size="10.00">string</text>
</a>
</g>
</g>
<!-- Node5&#45;&gt;Node16 -->
<g id="edge37" class="edge">
<title>Node5&#45;&gt;Node16</title>
<path fill="none" stroke="midnightblue" d="M475.22,-175.65C405.82,-172.65 292.66,-163 266.5,-132 226.53,-84.64 324.95,-41.01 378.55,-21.6"/>
<polygon fill="midnightblue" stroke="midnightblue" points="380.04,-24.78 388.3,-18.15 377.71,-18.18 380.04,-24.78"/>
</g>
<!-- Node19 -->
<g id="node19" class="node">
<title>Node19</title>
<g id="a_node19"><a xlink:href="serializer_8h.html" target="_top" xlink:title=" ">
<polygon fill="white" stroke="black" points="349.5,-112.5 349.5,-131.5 419.5,-131.5 419.5,-112.5 349.5,-112.5"/>
<text text-anchor="middle" x="384.5" y="-119.5" font-family="Helvetica,sans-Serif" font-size="10.00">serializer.h</text>
</a>
</g>
</g>
<!-- Node5&#45;&gt;Node19 -->
<g id="edge22" class="edge">
<title>Node5&#45;&gt;Node19</title>
<path fill="none" stroke="midnightblue" d="M507.37,-168.44C483.02,-159.44 444.49,-145.19 417.08,-135.05"/>
<polygon fill="midnightblue" stroke="midnightblue" points="418.12,-131.7 407.53,-131.52 415.69,-138.27 418.12,-131.7"/>
</g>
<!-- Node24 -->
<g id="node24" class="node">
<title>Node24</title>
<g id="a_node24"><a xlink:title=" ">
<polygon fill="white" stroke="#bfbfbf" points="624.5,-112.5 624.5,-131.5 674.5,-131.5 674.5,-112.5 624.5,-112.5"/>
<text text-anchor="middle" x="649.5" y="-119.5" font-family="Helvetica,sans-Serif" font-size="10.00">atomic</text>
</a>
</g>
</g>
<!-- Node5&#45;&gt;Node24 -->
<g id="edge34" class="edge">
<title>Node5&#45;&gt;Node24</title>
<path fill="none" stroke="midnightblue" d="M549.36,-168.44C568.77,-159.64 599.23,-145.81 621.46,-135.72"/>
<polygon fill="midnightblue" stroke="midnightblue" points="623.07,-138.84 630.73,-131.52 620.18,-132.46 623.07,-138.84"/>
</g>
<!-- Node5&#45;&gt;Node25 -->
<g id="edge35" class="edge">
<title>Node5&#45;&gt;Node25</title>
<path fill="none" stroke="midnightblue" d="M562.51,-168.44C597.23,-159.16 652.79,-144.31 690.88,-134.13"/>
<polygon fill="midnightblue" stroke="midnightblue" points="691.89,-137.48 700.64,-131.52 690.08,-130.72 691.89,-137.48"/>
</g>
<!-- Node26 -->
<g id="node26" class="node">
<title>Node26</title>
<g id="a_node26"><a xlink:title=" ">
<polygon fill="white" stroke="#bfbfbf" points="275.5,-112.5 275.5,-131.5 331.5,-131.5 331.5,-112.5 275.5,-112.5"/>
<text text-anchor="middle" x="303.5" y="-119.5" font-family="Helvetica,sans-Serif" font-size="10.00">optional</text>
</a>
</g>
</g>
<!-- Node5&#45;&gt;Node26 -->
<g id="edge36" class="edge">
<title>Node5&#45;&gt;Node26</title>
<path fill="none" stroke="midnightblue" d="M494.06,-168.44C457.82,-159.91 400.36,-146.34 341.6,-132.25"/>
<polygon fill="midnightblue" stroke="midnightblue" points="342.32,-128.83 331.78,-129.9 340.68,-135.63 342.32,-128.83"/>
</g>
<!-- Node7 -->
<g id="node7" class="node">
<title>Node7</title>
<g id="a_node7"><a xlink:href="siphash_8h.html" target="_top" xlink:title=" ">
<polygon fill="white" stroke="black" points="656,-56.5 656,-75.5 751,-75.5 751,-56.5 656,-56.5"/>
<text text-anchor="middle" x="703.5" y="-63.5" font-family="Helvetica,sans-Serif" font-size="10.00">ccf/ds/siphash.h</text>
</a>
</g>
</g>
<!-- Node6&#45;&gt;Node7 -->
<g id="edge6" class="edge">
<title>Node6&#45;&gt;Node7</title>
<path fill="none" stroke="midnightblue" d="M588.21,-112.44C610.85,-103.52 646.57,-89.44 672.25,-79.32"/>
<polygon fill="midnightblue" stroke="midnightblue" points="673.87,-82.44 681.89,-75.52 671.31,-75.93 673.87,-82.44"/>
</g>
<!-- Node9 -->
<g id="node9" class="node">
<title>Node9</title>
<g id="a_node9"><a xlink:title=" ">
<polygon fill="white" stroke="#bfbfbf" points="736.5,-0.5 736.5,-19.5 786.5,-19.5 786.5,-0.5 736.5,-0.5"/>
<text text-anchor="middle" x="761.5" y="-7.5" font-family="Helvetica,sans-Serif" font-size="10.00">cstdint</text>
</a>
</g>
</g>
<!-- Node6&#45;&gt;Node9 -->
<g id="edge11" class="edge">
<title>Node6&#45;&gt;Node9</title>
<path fill="none" stroke="midnightblue" d="M606.57,-113.41C609.59,-112.91 612.59,-112.43 615.5,-112 684.53,-101.69 881.06,-128.1 927.5,-76 966.64,-32.08 856.13,-17.55 796.63,-12.97"/>
<polygon fill="midnightblue" stroke="midnightblue" points="796.73,-9.47 786.51,-12.25 796.24,-16.45 796.73,-9.47"/>
</g>
<!-- Node6&#45;&gt;Node10 -->
<g id="edge13" class="edge">
<title>Node6&#45;&gt;Node10</title>
<path fill="none" stroke="midnightblue" d="M561.16,-112.37C549.99,-94.3 523.95,-52.18 509.2,-28.31"/>
<polygon fill="midnightblue" stroke="midnightblue" points="512.05,-26.26 503.81,-19.59 506.09,-29.94 512.05,-26.26"/>
</g>
<!-- Node11 -->
<g id="node11" class="node">
<title>Node11</title>
<g id="a_node11"><a xlink:title=" ">
<polygon fill="white" stroke="#bfbfbf" points="328.5,-0.5 328.5,-19.5 370.5,-19.5 370.5,-0.5 328.5,-0.5"/>
<text text-anchor="middle" x="349.5" y="-7.5" font-family="Helvetica,sans-Serif" font-size="10.00">array</text>
</a>
</g>
</g>
<!-- Node6&#45;&gt;Node11 -->
<g id="edge10" class="edge">
<title>Node6&#45;&gt;Node11</title>
<path fill="none" stroke="midnightblue" d="M549.47,-112.37C511.68,-93.21 420.59,-47.04 375.57,-24.22"/>
<polygon fill="midnightblue" stroke="midnightblue" points="376.95,-20.99 366.45,-19.59 373.79,-27.23 376.95,-20.99"/>
</g>
<!-- Node12 -->
<g id="node12" class="node">
<title>Node12</title>
<g id="a_node12"><a xlink:title=" ">
<polygon fill="white" stroke="#bfbfbf" points="769,-56.5 769,-75.5 918,-75.5 918,-56.5 769,-56.5"/>
<text text-anchor="middle" x="843.5" y="-63.5" font-family="Helvetica,sans-Serif" font-size="10.00">small_vector/SmallVector.h</text>
</a>
</g>
</g>
<!-- Node6&#45;&gt;Node12 -->
<g id="edge12" class="edge">
<title>Node6&#45;&gt;Node12</title>
<path fill="none" stroke="midnightblue" d="M606.78,-113.15C654.99,-103.75 735.91,-87.97 789.5,-77.53"/>
<polygon fill="midnightblue" stroke="midnightblue" points="790.37,-80.92 799.51,-75.58 789.03,-74.05 790.37,-80.92"/>
</g>
<!-- Node8 -->
<g id="node8" class="node">
<title>Node8</title>
<g id="a_node8"><a xlink:title=" ">
<polygon fill="white" stroke="#bfbfbf" points="665,-0.5 665,-19.5 718,-19.5 718,-0.5 665,-0.5"/>
<text text-anchor="middle" x="691.5" y="-7.5" font-family="Helvetica,sans-Serif" font-size="10.00">cstddef</text>
</a>
</g>
</g>
<!-- Node7&#45;&gt;Node8 -->
<g id="edge7" class="edge">
<title>Node7&#45;&gt;Node8</title>
<path fill="none" stroke="midnightblue" d="M701.52,-56.08C699.93,-48.93 697.64,-38.64 695.65,-29.69"/>
<polygon fill="midnightblue" stroke="midnightblue" points="699.03,-28.75 693.44,-19.75 692.2,-30.27 699.03,-28.75"/>
</g>
<!-- Node7&#45;&gt;Node9 -->
<g id="edge8" class="edge">
<title>Node7&#45;&gt;Node9</title>
<path fill="none" stroke="midnightblue" d="M712.82,-56.32C721.39,-48.34 734.31,-36.31 744.69,-26.65"/>
<polygon fill="midnightblue" stroke="midnightblue" points="747.08,-29.21 752.01,-19.83 742.31,-24.09 747.08,-29.21"/>
</g>
<!-- Node7&#45;&gt;Node10 -->
<g id="edge9" class="edge">
<title>Node7&#45;&gt;Node10</title>
<path fill="none" stroke="midnightblue" d="M671.02,-56.44C632.98,-46.42 570.31,-29.92 531.89,-19.79"/>
<polygon fill="midnightblue" stroke="midnightblue" points="532.76,-16.41 522.2,-17.24 530.98,-23.18 532.76,-16.41"/>
</g>
<!-- Node13&#45;&gt;Node10 -->
<g id="edge21" class="edge">
<title>Node13&#45;&gt;Node10</title>
<path fill="none" stroke="midnightblue" d="M220.75,-57.43C286.29,-46.48 406.18,-26.43 464.64,-16.66"/>
<polygon fill="midnightblue" stroke="midnightblue" points="465.53,-20.06 474.81,-14.96 464.37,-13.16 465.53,-20.06"/>
</g>
<!-- Node13&#45;&gt;Node11 -->
<g id="edge16" class="edge">
<title>Node13&#45;&gt;Node11</title>
<path fill="none" stroke="midnightblue" d="M203.07,-56.44C234.46,-46.7 285.62,-30.83 318.4,-20.65"/>
<polygon fill="midnightblue" stroke="midnightblue" points="319.84,-23.87 328.35,-17.56 317.76,-17.18 319.84,-23.87"/>
</g>
<!-- Node14 -->
<g id="node14" class="node">
<title>Node14</title>
<g id="a_node14"><a xlink:title=" ">
<polygon fill="white" stroke="#bfbfbf" points="67.5,-0.5 67.5,-19.5 131.5,-19.5 131.5,-0.5 67.5,-0.5"/>
<text text-anchor="middle" x="99.5" y="-7.5" font-family="Helvetica,sans-Serif" font-size="10.00">algorithm</text>
</a>
</g>
</g>
<!-- Node13&#45;&gt;Node14 -->
<g id="edge15" class="edge">
<title>Node13&#45;&gt;Node14</title>
<path fill="none" stroke="midnightblue" d="M163.29,-56.32C151.72,-48.11 134.12,-35.6 120.34,-25.81"/>
<polygon fill="midnightblue" stroke="midnightblue" points="122.11,-22.77 111.93,-19.83 118.06,-28.48 122.11,-22.77"/>
</g>
<!-- Node15 -->
<g id="node15" class="node">
<title>Node15</title>
<g id="a_node15"><a xlink:title=" ">
<polygon fill="white" stroke="#bfbfbf" points="0,-0.5 0,-19.5 49,-19.5 49,-0.5 0,-0.5"/>
<text text-anchor="middle" x="24.5" y="-7.5" font-family="Helvetica,sans-Serif" font-size="10.00">cctype</text>
</a>
</g>
</g>
<!-- Node13&#45;&gt;Node15 -->
<g id="edge17" class="edge">
<title>Node13&#45;&gt;Node15</title>
<path fill="none" stroke="midnightblue" d="M151.57,-56.44C126.28,-47.4 86.2,-33.06 57.82,-22.92"/>
<polygon fill="midnightblue" stroke="midnightblue" points="58.91,-19.59 48.31,-19.52 56.55,-26.18 58.91,-19.59"/>
</g>
<!-- Node13&#45;&gt;Node16 -->
<g id="edge18" class="edge">
<title>Node13&#45;&gt;Node16</title>
<path fill="none" stroke="midnightblue" d="M217.89,-56.49C257.18,-48.42 317.47,-35.56 378.41,-20.16"/>
<polygon fill="midnightblue" stroke="midnightblue" points="379.37,-23.53 388.2,-17.66 377.64,-16.74 379.37,-23.53"/>
</g>
<!-- Node17 -->
<g id="node17" class="node">
<title>Node17</title>
<g id="a_node17"><a xlink:title=" ">
<polygon fill="white" stroke="#bfbfbf" points="150,-0.5 150,-19.5 223,-19.5 223,-0.5 150,-0.5"/>
<text text-anchor="middle" x="186.5" y="-7.5" font-family="Helvetica,sans-Serif" font-size="10.00">string_view</text>
</a>
</g>
</g>
<!-- Node13&#45;&gt;Node17 -->
<g id="edge19" class="edge">
<title>Node13&#45;&gt;Node17</title>
<path fill="none" stroke="midnightblue" d="M177.32,-56.08C178.77,-48.93 180.87,-38.64 182.69,-29.69"/>
<polygon fill="midnightblue" stroke="midnightblue" points="186.15,-30.25 184.72,-19.75 179.29,-28.85 186.15,-30.25"/>
</g>
<!-- Node18 -->
<g id="node18" class="node">
<title>Node18</title>
<g id="a_node18"><a xlink:title=" ">
<polygon fill="white" stroke="#bfbfbf" points="241,-0.5 241,-19.5 310,-19.5 310,-0.5 241,-0.5"/>
<text text-anchor="middle" x="275.5" y="-7.5" font-family="Helvetica,sans-Serif" font-size="10.00">type_traits</text>
</a>
</g>
</g>
<!-- Node13&#45;&gt;Node18 -->
<g id="edge20" class="edge">
<title>Node13&#45;&gt;Node18</title>
<path fill="none" stroke="midnightblue" d="M191.57,-56.32C207.46,-47.74 232.01,-34.49 250.46,-24.52"/>
<polygon fill="midnightblue" stroke="midnightblue" points="252.34,-27.49 259.47,-19.65 249.01,-21.33 252.34,-27.49"/>
</g>
<!-- Node19&#45;&gt;Node10 -->
<g id="edge33" class="edge">
<title>Node19&#45;&gt;Node10</title>
<path fill="none" stroke="midnightblue" d="M385.62,-112.38C387.79,-98.85 393.73,-72.49 408.5,-56 423.59,-39.16 446.43,-27.84 465.32,-20.77"/>
<polygon fill="midnightblue" stroke="midnightblue" points="466.5,-24.07 474.78,-17.45 464.18,-17.46 466.5,-24.07"/>
</g>
<!-- Node19&#45;&gt;Node13 -->
<g id="edge23" class="edge">
<title>Node19&#45;&gt;Node13</title>
<path fill="none" stroke="midnightblue" d="M351.38,-112.44C315.38,-103.14 257.73,-88.25 218.31,-78.06"/>
<polygon fill="midnightblue" stroke="midnightblue" points="219.02,-74.63 208.46,-75.52 217.27,-81.41 219.02,-74.63"/>
</g>
<!-- Node19&#45;&gt;Node18 -->
<g id="edge32" class="edge">
<title>Node19&#45;&gt;Node18</title>
<path fill="none" stroke="midnightblue" d="M362.26,-112.5C345.19,-105.04 322,-92.76 306.5,-76 294.05,-62.54 285.7,-43.18 280.83,-29.09"/>
<polygon fill="midnightblue" stroke="midnightblue" points="284.15,-27.99 277.77,-19.52 277.48,-30.12 284.15,-27.99"/>
</g>
<!-- Node20 -->
<g id="node20" class="node">
<title>Node20</title>
<g id="a_node20"><a xlink:href="serialized_8h.html" target="_top" xlink:title=" ">
<polygon fill="white" stroke="black" points="565,-56.5 565,-75.5 638,-75.5 638,-56.5 565,-56.5"/>
<text text-anchor="middle" x="601.5" y="-63.5" font-family="Helvetica,sans-Serif" font-size="10.00">serialized.h</text>
</a>
</g>
</g>
<!-- Node19&#45;&gt;Node20 -->
<g id="edge24" class="edge">
<title>Node19&#45;&gt;Node20</title>
<path fill="none" stroke="midnightblue" d="M418.88,-112.44C456.42,-103.1 516.63,-88.12 557.57,-77.93"/>
<polygon fill="midnightblue" stroke="midnightblue" points="558.42,-81.33 567.28,-75.52 556.73,-74.53 558.42,-81.33"/>
</g>
<!-- Node19&#45;&gt;Node22 -->
<g id="edge30" class="edge">
<title>Node19&#45;&gt;Node22</title>
<path fill="none" stroke="midnightblue" d="M349.46,-113.7C346.43,-113.11 343.41,-112.54 340.5,-112 246.62,-94.69 219.92,-95.32 122.48,-76.08"/>
<polygon fill="midnightblue" stroke="midnightblue" points="122.99,-72.61 112.5,-74.09 121.62,-79.48 122.99,-72.61"/>
</g>
<!-- Node23 -->
<g id="node23" class="node">
<title>Node23</title>
<g id="a_node23"><a xlink:title=" ">
<polygon fill="white" stroke="#bfbfbf" points="315,-56.5 315,-75.5 356,-75.5 356,-56.5 315,-56.5"/>
<text text-anchor="middle" x="335.5" y="-63.5" font-family="Helvetica,sans-Serif" font-size="10.00">tuple</text>
</a>
</g>
</g>
<!-- Node19&#45;&gt;Node23 -->
<g id="edge31" class="edge">
<title>Node19&#45;&gt;Node23</title>
<path fill="none" stroke="midnightblue" d="M376.41,-112.08C369.34,-104.3 358.91,-92.8 350.35,-83.37"/>
<polygon fill="midnightblue" stroke="midnightblue" points="352.75,-80.8 343.44,-75.75 347.57,-85.51 352.75,-80.8"/>
</g>
<!-- Node20&#45;&gt;Node4 -->
<g id="edge26" class="edge">
<title>Node20&#45;&gt;Node4</title>
<path fill="none" stroke="midnightblue" d="M638.12,-57.63C641.29,-57.05 644.45,-56.5 647.5,-56 756.74,-38.01 886.87,-22.16 948.2,-15.02"/>
<polygon fill="midnightblue" stroke="midnightblue" points="948.6,-18.5 958.13,-13.87 947.8,-11.54 948.6,-18.5"/>
</g>
<!-- Node20&#45;&gt;Node9 -->
<g id="edge25" class="edge">
<title>Node20&#45;&gt;Node9</title>
<path fill="none" stroke="midnightblue" d="M626.85,-56.44C653.77,-47.36 696.5,-32.94 726.59,-22.78"/>
<polygon fill="midnightblue" stroke="midnightblue" points="727.91,-26.03 736.27,-19.52 725.67,-19.4 727.91,-26.03"/>
</g>
<!-- Node20&#45;&gt;Node10 -->
<g id="edge29" class="edge">
<title>Node20&#45;&gt;Node10</title>
<path fill="none" stroke="midnightblue" d="M584.95,-56.32C568.51,-47.7 543.07,-34.36 524.03,-24.39"/>
<polygon fill="midnightblue" stroke="midnightblue" points="525.49,-21.2 515.01,-19.65 522.24,-27.4 525.49,-21.2"/>
</g>
<!-- Node20&#45;&gt;Node16 -->
<g id="edge28" class="edge">
<title>Node20&#45;&gt;Node16</title>
<path fill="none" stroke="midnightblue" d="M571.24,-56.44C536.1,-46.51 478.4,-30.2 442.53,-20.05"/>
<polygon fill="midnightblue" stroke="midnightblue" points="443.16,-16.6 432.58,-17.24 441.25,-23.33 443.16,-16.6"/>
</g>
<!-- Node21 -->
<g id="node21" class="node">
<title>Node21</title>
<g id="a_node21"><a xlink:title=" ">
<polygon fill="white" stroke="#bfbfbf" points="569,-0.5 569,-19.5 634,-19.5 634,-0.5 569,-0.5"/>
<text text-anchor="middle" x="601.5" y="-7.5" font-family="Helvetica,sans-Serif" font-size="10.00">stdexcept</text>
</a>
</g>
</g>
<!-- Node20&#45;&gt;Node21 -->
<g id="edge27" class="edge">
<title>Node20&#45;&gt;Node21</title>
<path fill="none" stroke="midnightblue" d="M601.5,-56.08C601.5,-49.01 601.5,-38.86 601.5,-29.99"/>
<polygon fill="midnightblue" stroke="midnightblue" points="605,-29.75 601.5,-19.75 598,-29.75 605,-29.75"/>
</g>
</g>
</svg>
        <g id="navigator" transform="translate(0 0)" fill="#404254">
                <rect fill="#f2f5e9" fill-opacity="0.5" stroke="#606060" stroke-width=".5" x="0" y="0" width="60" height="60"/>
                <use id="zoomplus" xlink:href="#zoomPlus" x="17" y="9" onmousedown="handleZoom(evt,'in')"/>
                <use id="zoomminus" xlink:href="#zoomMin" x="42" y="9" onmousedown="handleZoom(evt,'out')"/>
                <use id="reset" xlink:href="#resetDef" x="30" y="36" onmousedown="handleReset()"/>
                <g id="arrowUp" xlink:href="#dirArrow" transform="translate(30 24)" onmousedown="handlePan(0,-1)">
                  <use xlink:href="#rim" fill="#404040">
                        <set attributeName="fill" to="#808080" begin="arrowUp.mouseover" end="arrowUp.mouseout"/>
                  </use>
                  <path fill="none" stroke="white" stroke-width="1.5" d="M0,-3.0v7 M-2.5,-0.5L0,-3.0L2.5,-0.5"/>
                </g>
                <g id="arrowRight" xlink:href="#dirArrow" transform="rotate(90) translate(36 -43)" onmousedown="handlePan(1,0)">
                  <use xlink:href="#rim" fill="#404040">
                        <set attributeName="fill" to="#808080" begin="arrowRight.mouseover" end="arrowRight.mouseout"/>
                  </use>
                  <path fill="none" stroke="white" stroke-width="1.5" d="M0,-3.0v7 M-2.5,-0.5L0,-3.0L2.5,-0.5"/>
                </g>
                <g id="arrowDown" xlink:href="#dirArrow" transform="rotate(180) translate(-30 -48)" onmousedown="handlePan(0,1)">
                  <use xlink:href="#rim" fill="#404040">
                        <set attributeName="fill" to="#808080" begin="arrowDown.mouseover" end="arrowDown.mouseout"/>
                  </use>
                  <path fill="none" stroke="white" stroke-width="1.5" d="M0,-3.0v7 M-2.5,-0.5L0,-3.0L2.5,-0.5"/>
                </g>
                <g id="arrowLeft" xlink:href="#dirArrow" transform="rotate(270) translate(-36 17)" onmousedown="handlePan(-1,0)">
                  <use xlink:href="#rim" fill="#404040">
                        <set attributeName="fill" to="#808080" begin="arrowLeft.mouseover" end="arrowLeft.mouseout"/>
                  </use>
                  <path fill="none" stroke="white" stroke-width="1.5" d="M0,-3.0v7 M-2.5,-0.5L0,-3.0L2.5,-0.5"/>
                </g>
        </g>
        <svg viewBox="0 0 15 15" width="100%" height="30px" preserveAspectRatio="xMaxYMin meet">
         <g id="arrow_out" transform="scale(0.3 0.3)">
          <a xlink:href="non__blocking_8h__incl_org.svg" target="_base">
           <rect id="button" ry="5" rx="5" y="6" x="6" height="38" width="38"
                fill="#f2f5e9" fill-opacity="0.5" stroke="#606060" stroke-width="1.0"/>
           <path id="arrow"
             d="M 11.500037,31.436501 C 11.940474,20.09759 22.043105,11.32322 32.158766,21.979434 L 37.068811,17.246167 C 37.068811,17.246167 37.088388,32 37.088388,32 L 22.160133,31.978069 C 22.160133,31.978069 26.997745,27.140456 26.997745,27.140456 C 18.528582,18.264221 13.291696,25.230495 11.500037,31.436501 z"
             style="fill:#404040;"/>
          </a>
         </g>
        </svg>
</svg>
