<?xml version="1.0" encoding="UTF-8" standalone="no"?>
<!DOCTYPE svg PUBLIC "-//W3C//DTD SVG 1.1//EN"
 "http://www.w3.org/Graphics/SVG/1.1/DTD/svg11.dtd">
<!-- Generated by graphviz version 2.43.0 (0)
 -->
<!-- Title: src/ds/oversized.h Pages: 1 -->
<svg width="1815pt" height="364pt"
 viewBox="0.00 0.00 1814.50 364.00" xmlns="http://www.w3.org/2000/svg" xmlns:xlink="http://www.w3.org/1999/xlink">
<g id="graph0" class="graph" transform="scale(1 1) rotate(0) translate(4 360)">
<title>src/ds/oversized.h</title>
<polygon fill="white" stroke="transparent" points="-4,4 -4,-360 1810.5,-360 1810.5,4 -4,4"/>
<!-- Node1 -->
<g id="node1" class="node">
<title>Node1</title>
<g id="a_node1"><a xlink:title=" ">
<polygon fill="#bfbfbf" stroke="black" points="915,-336.5 915,-355.5 1019,-355.5 1019,-336.5 915,-336.5"/>
<text text-anchor="middle" x="967" y="-343.5" font-family="Helvetica,sans-Serif" font-size="10.00">src/ds/oversized.h</text>
</a>
</g>
</g>
<!-- Node2 -->
<g id="node2" class="node">
<title>Node2</title>
<g id="a_node2"><a xlink:href="messaging_8h.html" target="_top" xlink:title=" ">
<polygon fill="white" stroke="black" points="927.5,-280.5 927.5,-299.5 1006.5,-299.5 1006.5,-280.5 927.5,-280.5"/>
<text text-anchor="middle" x="967" y="-287.5" font-family="Helvetica,sans-Serif" font-size="10.00">messaging.h</text>
</a>
</g>
</g>
<!-- Node1&#45;&gt;Node2 -->
<g id="edge1" class="edge">
<title>Node1&#45;&gt;Node2</title>
<path fill="none" stroke="midnightblue" d="M967,-336.08C967,-329.01 967,-318.86 967,-309.99"/>
<polygon fill="midnightblue" stroke="midnightblue" points="970.5,-309.75 967,-299.75 963.5,-309.75 970.5,-309.75"/>
</g>
<!-- Node5 -->
<g id="node5" class="node">
<title>Node5</title>
<g id="a_node5"><a xlink:title=" ">
<polygon fill="white" stroke="#bfbfbf" points="1358.5,-112.5 1358.5,-131.5 1437.5,-131.5 1437.5,-112.5 1358.5,-112.5"/>
<text text-anchor="middle" x="1398" y="-119.5" font-family="Helvetica,sans-Serif" font-size="10.00">fmt/format.h</text>
</a>
</g>
</g>
<!-- Node1&#45;&gt;Node5 -->
<g id="edge66" class="edge">
<title>Node1&#45;&gt;Node5</title>
<path fill="none" stroke="midnightblue" d="M1019.31,-339.48C1153.23,-324.15 1502.73,-276.28 1571,-188 1605.58,-143.28 1510.61,-129.33 1448.04,-124.97"/>
<polygon fill="midnightblue" stroke="midnightblue" points="1448.12,-121.47 1437.92,-124.33 1447.68,-128.46 1448.12,-121.47"/>
</g>
<!-- Node18 -->
<g id="node18" class="node">
<title>Node18</title>
<g id="a_node18"><a xlink:href="ring__buffer_8h.html" target="_top" xlink:title=" ">
<polygon fill="white" stroke="black" points="428.5,-224.5 428.5,-243.5 505.5,-243.5 505.5,-224.5 428.5,-224.5"/>
<text text-anchor="middle" x="467" y="-231.5" font-family="Helvetica,sans-Serif" font-size="10.00">ring_buffer.h</text>
</a>
</g>
</g>
<!-- Node1&#45;&gt;Node18 -->
<g id="edge64" class="edge">
<title>Node1&#45;&gt;Node18</title>
<path fill="none" stroke="midnightblue" d="M914.9,-341.49C849.61,-336.26 734.68,-324.31 639,-300 586.62,-286.69 528.3,-262.56 494.8,-247.74"/>
<polygon fill="midnightblue" stroke="midnightblue" points="496.2,-244.53 485.64,-243.64 493.34,-250.92 496.2,-244.53"/>
</g>
<!-- Node35 -->
<g id="node35" class="node">
<title>Node35</title>
<g id="a_node35"><a xlink:href="serialized_8h.html" target="_top" xlink:title=" ">
<polygon fill="white" stroke="black" points="624.5,-56.5 624.5,-75.5 697.5,-75.5 697.5,-56.5 624.5,-56.5"/>
<text text-anchor="middle" x="661" y="-63.5" font-family="Helvetica,sans-Serif" font-size="10.00">serialized.h</text>
</a>
</g>
</g>
<!-- Node1&#45;&gt;Node35 -->
<g id="edge65" class="edge">
<title>Node1&#45;&gt;Node35</title>
<path fill="none" stroke="midnightblue" d="M914.8,-337.72C825.51,-323.8 653,-289.8 653,-235 653,-235 653,-235 653,-177 653,-144.86 656.44,-107.58 658.81,-85.72"/>
<polygon fill="midnightblue" stroke="midnightblue" points="662.31,-85.87 659.95,-75.54 655.36,-85.09 662.31,-85.87"/>
</g>
<!-- Node43 -->
<g id="node43" class="node">
<title>Node43</title>
<g id="a_node43"><a xlink:title=" ">
<polygon fill="white" stroke="#bfbfbf" points="1713.5,-280.5 1713.5,-299.5 1806.5,-299.5 1806.5,-280.5 1713.5,-280.5"/>
<text text-anchor="middle" x="1760" y="-287.5" font-family="Helvetica,sans-Serif" font-size="10.00">unordered_map</text>
</a>
</g>
</g>
<!-- Node1&#45;&gt;Node43 -->
<g id="edge67" class="edge">
<title>Node1&#45;&gt;Node43</title>
<path fill="none" stroke="midnightblue" d="M1019.05,-343.32C1139.13,-339.12 1444.78,-326.52 1699,-300 1700.46,-299.85 1701.95,-299.69 1703.44,-299.51"/>
<polygon fill="midnightblue" stroke="midnightblue" points="1703.93,-302.98 1713.42,-298.29 1703.07,-296.03 1703.93,-302.98"/>
</g>
<!-- Node3 -->
<g id="node3" class="node">
<title>Node3</title>
<g id="a_node3"><a xlink:href="logger_8h.html" target="_top" xlink:title=" ">
<polygon fill="white" stroke="black" points="1134.5,-224.5 1134.5,-243.5 1221.5,-243.5 1221.5,-224.5 1134.5,-224.5"/>
<text text-anchor="middle" x="1178" y="-231.5" font-family="Helvetica,sans-Serif" font-size="10.00">ccf/ds/logger.h</text>
</a>
</g>
</g>
<!-- Node2&#45;&gt;Node3 -->
<g id="edge2" class="edge">
<title>Node2&#45;&gt;Node3</title>
<path fill="none" stroke="midnightblue" d="M1000.43,-280.44C1036.86,-271.12 1095.23,-256.18 1135.03,-246"/>
<polygon fill="midnightblue" stroke="midnightblue" points="1135.9,-249.39 1144.72,-243.52 1134.17,-242.61 1135.9,-249.39"/>
</g>
<!-- Node10 -->
<g id="node10" class="node">
<title>Node10</title>
<g id="a_node10"><a xlink:title=" ">
<polygon fill="white" stroke="#bfbfbf" points="1618,-112.5 1618,-131.5 1656,-131.5 1656,-112.5 1618,-112.5"/>
<text text-anchor="middle" x="1637" y="-119.5" font-family="Helvetica,sans-Serif" font-size="10.00">map</text>
</a>
</g>
</g>
<!-- Node2&#45;&gt;Node10 -->
<g id="edge62" class="edge">
<title>Node2&#45;&gt;Node10</title>
<path fill="none" stroke="midnightblue" d="M1006.72,-287.35C1130.63,-281.49 1507.58,-258.17 1604,-188 1619.32,-176.85 1628,-156.52 1632.58,-141.56"/>
<polygon fill="midnightblue" stroke="midnightblue" points="1635.98,-142.38 1635.22,-131.81 1629.22,-140.55 1635.98,-142.38"/>
</g>
<!-- Node2&#45;&gt;Node18 -->
<g id="edge19" class="edge">
<title>Node2&#45;&gt;Node18</title>
<path fill="none" stroke="midnightblue" d="M927.35,-284.72C836.66,-274.92 614.37,-250.92 515.63,-240.25"/>
<polygon fill="midnightblue" stroke="midnightblue" points="515.94,-236.77 505.62,-239.17 515.19,-243.72 515.94,-236.77"/>
</g>
<!-- Node36 -->
<g id="node36" class="node">
<title>Node36</title>
<g id="a_node36"><a xlink:title=" ">
<polygon fill="white" stroke="#bfbfbf" points="919.5,-0.5 919.5,-19.5 984.5,-19.5 984.5,-0.5 919.5,-0.5"/>
<text text-anchor="middle" x="952" y="-7.5" font-family="Helvetica,sans-Serif" font-size="10.00">stdexcept</text>
</a>
</g>
</g>
<!-- Node2&#45;&gt;Node36 -->
<g id="edge63" class="edge">
<title>Node2&#45;&gt;Node36</title>
<path fill="none" stroke="midnightblue" d="M1006.61,-289.62C1094.67,-290.13 1312.83,-286.56 1489,-244 1584.04,-221.04 1729.27,-185.69 1665,-112 1568.1,-0.9 1159.49,-44.13 994.55,-19.83"/>
<polygon fill="midnightblue" stroke="midnightblue" points="994.94,-16.35 984.51,-18.22 993.83,-23.26 994.94,-16.35"/>
</g>
<!-- Node39 -->
<g id="node39" class="node">
<title>Node39</title>
<g id="a_node39"><a xlink:title=" ">
<polygon fill="white" stroke="#bfbfbf" points="890,-112.5 890,-131.5 940,-131.5 940,-112.5 890,-112.5"/>
<text text-anchor="middle" x="915" y="-119.5" font-family="Helvetica,sans-Serif" font-size="10.00">atomic</text>
</a>
</g>
</g>
<!-- Node2&#45;&gt;Node39 -->
<g id="edge60" class="edge">
<title>Node2&#45;&gt;Node39</title>
<path fill="none" stroke="midnightblue" d="M953.45,-280.45C930.66,-265.17 885.45,-230.73 868,-188 860.23,-168.96 877.06,-150.26 892.69,-137.84"/>
<polygon fill="midnightblue" stroke="midnightblue" points="895.14,-140.39 901.09,-131.63 890.97,-134.76 895.14,-140.39"/>
</g>
<!-- Node42 -->
<g id="node42" class="node">
<title>Node42</title>
<g id="a_node42"><a xlink:title=" ">
<polygon fill="white" stroke="#bfbfbf" points="683.5,-224.5 683.5,-243.5 790.5,-243.5 790.5,-224.5 683.5,-224.5"/>
<text text-anchor="middle" x="737" y="-231.5" font-family="Helvetica,sans-Serif" font-size="10.00">condition_variable</text>
</a>
</g>
</g>
<!-- Node2&#45;&gt;Node42 -->
<g id="edge61" class="edge">
<title>Node2&#45;&gt;Node42</title>
<path fill="none" stroke="midnightblue" d="M930.56,-280.44C890.6,-271.06 826.41,-255.99 783.02,-245.8"/>
<polygon fill="midnightblue" stroke="midnightblue" points="783.81,-242.39 773.27,-243.52 782.21,-249.21 783.81,-242.39"/>
</g>
<!-- Node4 -->
<g id="node4" class="node">
<title>Node4</title>
<g id="a_node4"><a xlink:href="enum__formatter_8h.html" target="_top" xlink:title=" ">
<polygon fill="white" stroke="black" points="1426,-168.5 1426,-187.5 1562,-187.5 1562,-168.5 1426,-168.5"/>
<text text-anchor="middle" x="1494" y="-175.5" font-family="Helvetica,sans-Serif" font-size="10.00">ccf/ds/enum_formatter.h</text>
</a>
</g>
</g>
<!-- Node3&#45;&gt;Node4 -->
<g id="edge3" class="edge">
<title>Node3&#45;&gt;Node4</title>
<path fill="none" stroke="midnightblue" d="M1221.61,-225.55C1276.78,-216.12 1372.06,-199.84 1434.05,-189.25"/>
<polygon fill="midnightblue" stroke="midnightblue" points="1434.81,-192.67 1444.08,-187.53 1433.63,-185.77 1434.81,-192.67"/>
</g>
<!-- Node3&#45;&gt;Node5 -->
<g id="edge13" class="edge">
<title>Node3&#45;&gt;Node5</title>
<path fill="none" stroke="midnightblue" d="M1221.93,-228.38C1274.03,-222.04 1356.63,-208.98 1379,-188 1391.59,-176.2 1395.99,-156.56 1397.45,-141.96"/>
<polygon fill="midnightblue" stroke="midnightblue" points="1400.97,-141.76 1398.09,-131.57 1393.98,-141.33 1400.97,-141.76"/>
</g>
<!-- Node6 -->
<g id="node6" class="node">
<title>Node6</title>
<g id="a_node6"><a xlink:href="thread__ids_8h.html" target="_top" xlink:title=" ">
<polygon fill="white" stroke="black" points="1188,-168.5 1188,-187.5 1296,-187.5 1296,-168.5 1188,-168.5"/>
<text text-anchor="middle" x="1242" y="-175.5" font-family="Helvetica,sans-Serif" font-size="10.00">ccf/ds/thread_ids.h</text>
</a>
</g>
</g>
<!-- Node3&#45;&gt;Node6 -->
<g id="edge5" class="edge">
<title>Node3&#45;&gt;Node6</title>
<path fill="none" stroke="midnightblue" d="M1188.28,-224.32C1197.84,-216.26 1212.28,-204.08 1223.78,-194.37"/>
<polygon fill="midnightblue" stroke="midnightblue" points="1226.14,-196.96 1231.53,-187.83 1221.63,-191.61 1226.14,-196.96"/>
</g>
<!-- Node12 -->
<g id="node12" class="node">
<title>Node12</title>
<g id="a_node12"><a xlink:title=" ">
<polygon fill="white" stroke="#bfbfbf" points="885.5,-168.5 885.5,-187.5 964.5,-187.5 964.5,-168.5 885.5,-168.5"/>
<text text-anchor="middle" x="925" y="-175.5" font-family="Helvetica,sans-Serif" font-size="10.00">fmt/chrono.h</text>
</a>
</g>
</g>
<!-- Node3&#45;&gt;Node12 -->
<g id="edge12" class="edge">
<title>Node3&#45;&gt;Node12</title>
<path fill="none" stroke="midnightblue" d="M1137.91,-224.44C1093.68,-215 1022.46,-199.8 974.72,-189.61"/>
<polygon fill="midnightblue" stroke="midnightblue" points="975.41,-186.18 964.9,-187.52 973.95,-193.03 975.41,-186.18"/>
</g>
<!-- Node13 -->
<g id="node13" class="node">
<title>Node13</title>
<g id="a_node13"><a xlink:title=" ">
<polygon fill="white" stroke="#bfbfbf" points="982,-168.5 982,-187.5 1042,-187.5 1042,-168.5 982,-168.5"/>
<text text-anchor="middle" x="1012" y="-175.5" font-family="Helvetica,sans-Serif" font-size="10.00">iostream</text>
</a>
</g>
</g>
<!-- Node3&#45;&gt;Node13 -->
<g id="edge14" class="edge">
<title>Node3&#45;&gt;Node13</title>
<path fill="none" stroke="midnightblue" d="M1151.7,-224.44C1123.65,-215.32 1079.06,-200.81 1047.82,-190.65"/>
<polygon fill="midnightblue" stroke="midnightblue" points="1048.77,-187.28 1038.18,-187.52 1046.61,-193.94 1048.77,-187.28"/>
</g>
<!-- Node14 -->
<g id="node14" class="node">
<title>Node14</title>
<g id="a_node14"><a xlink:title=" ">
<polygon fill="white" stroke="#bfbfbf" points="1060,-168.5 1060,-187.5 1170,-187.5 1170,-168.5 1060,-168.5"/>
<text text-anchor="middle" x="1115" y="-175.5" font-family="Helvetica,sans-Serif" font-size="10.00">nlohmann/json.hpp</text>
</a>
</g>
</g>
<!-- Node3&#45;&gt;Node14 -->
<g id="edge15" class="edge">
<title>Node3&#45;&gt;Node14</title>
<path fill="none" stroke="midnightblue" d="M1167.88,-224.32C1158.47,-216.26 1144.26,-204.08 1132.93,-194.37"/>
<polygon fill="midnightblue" stroke="midnightblue" points="1135.18,-191.68 1125.31,-187.83 1130.62,-197 1135.18,-191.68"/>
</g>
<!-- Node15 -->
<g id="node15" class="node">
<title>Node15</title>
<g id="a_node15"><a xlink:title=" ">
<polygon fill="white" stroke="#bfbfbf" points="958,-112.5 958,-131.5 1014,-131.5 1014,-112.5 958,-112.5"/>
<text text-anchor="middle" x="986" y="-119.5" font-family="Helvetica,sans-Serif" font-size="10.00">optional</text>
</a>
</g>
</g>
<!-- Node3&#45;&gt;Node15 -->
<g id="edge16" class="edge">
<title>Node3&#45;&gt;Node15</title>
<path fill="none" stroke="midnightblue" d="M1134.39,-233.17C1058.91,-232.44 908.84,-226.09 876,-188 870.2,-181.27 871.05,-175.38 876,-168 884.49,-155.36 919.75,-142.33 948.1,-133.57"/>
<polygon fill="midnightblue" stroke="midnightblue" points="949.21,-136.89 957.78,-130.66 947.2,-130.19 949.21,-136.89"/>
</g>
<!-- Node16 -->
<g id="node16" class="node">
<title>Node16</title>
<g id="a_node16"><a xlink:title=" ">
<polygon fill="white" stroke="#bfbfbf" points="1314,-168.5 1314,-187.5 1370,-187.5 1370,-168.5 1314,-168.5"/>
<text text-anchor="middle" x="1342" y="-175.5" font-family="Helvetica,sans-Serif" font-size="10.00">sstream</text>
</a>
</g>
</g>
<!-- Node3&#45;&gt;Node16 -->
<g id="edge17" class="edge">
<title>Node3&#45;&gt;Node16</title>
<path fill="none" stroke="midnightblue" d="M1203.99,-224.44C1231.7,-215.32 1275.75,-200.81 1306.62,-190.65"/>
<polygon fill="midnightblue" stroke="midnightblue" points="1307.73,-193.97 1316.14,-187.52 1305.54,-187.32 1307.73,-193.97"/>
</g>
<!-- Node17 -->
<g id="node17" class="node">
<title>Node17</title>
<g id="a_node17"><a xlink:title=" ">
<polygon fill="white" stroke="#bfbfbf" points="1085.5,-0.5 1085.5,-19.5 1154.5,-19.5 1154.5,-0.5 1085.5,-0.5"/>
<text text-anchor="middle" x="1120" y="-7.5" font-family="Helvetica,sans-Serif" font-size="10.00">type_traits</text>
</a>
</g>
</g>
<!-- Node3&#45;&gt;Node17 -->
<g id="edge18" class="edge">
<title>Node3&#45;&gt;Node17</title>
<path fill="none" stroke="midnightblue" d="M1221.81,-231.21C1319.43,-226.77 1548.06,-213.72 1571,-188 1576.92,-181.37 1575.82,-175.47 1571,-168 1481.82,-29.87 1260.16,-11.53 1164.79,-10.28"/>
<polygon fill="midnightblue" stroke="midnightblue" points="1164.64,-6.78 1154.61,-10.21 1164.59,-13.78 1164.64,-6.78"/>
</g>
<!-- Node4&#45;&gt;Node5 -->
<g id="edge4" class="edge">
<title>Node4&#45;&gt;Node5</title>
<path fill="none" stroke="midnightblue" d="M1478.58,-168.32C1463.46,-159.82 1440.18,-146.73 1422.53,-136.8"/>
<polygon fill="midnightblue" stroke="midnightblue" points="1423.82,-133.51 1413.39,-131.65 1420.39,-139.61 1423.82,-133.51"/>
</g>
<!-- Node6&#45;&gt;Node5 -->
<g id="edge6" class="edge">
<title>Node6&#45;&gt;Node5</title>
<path fill="none" stroke="midnightblue" d="M1266.72,-168.44C1292.85,-159.4 1334.26,-145.06 1363.58,-134.92"/>
<polygon fill="midnightblue" stroke="midnightblue" points="1365.09,-138.1 1373.4,-131.52 1362.8,-131.48 1365.09,-138.1"/>
</g>
<!-- Node7 -->
<g id="node7" class="node">
<title>Node7</title>
<g id="a_node7"><a xlink:title=" ">
<polygon fill="white" stroke="#bfbfbf" points="1041,-112.5 1041,-131.5 1127,-131.5 1127,-112.5 1041,-112.5"/>
<text text-anchor="middle" x="1084" y="-119.5" font-family="Helvetica,sans-Serif" font-size="10.00">fmt/ostream.h</text>
</a>
</g>
</g>
<!-- Node6&#45;&gt;Node7 -->
<g id="edge7" class="edge">
<title>Node6&#45;&gt;Node7</title>
<path fill="none" stroke="midnightblue" d="M1216.96,-168.44C1190.38,-159.36 1148.19,-144.94 1118.48,-134.78"/>
<polygon fill="midnightblue" stroke="midnightblue" points="1119.51,-131.44 1108.92,-131.52 1117.25,-138.06 1119.51,-131.44"/>
</g>
<!-- Node8 -->
<g id="node8" class="node">
<title>Node8</title>
<g id="a_node8"><a xlink:title=" ">
<polygon fill="white" stroke="#bfbfbf" points="1145.5,-112.5 1145.5,-131.5 1206.5,-131.5 1206.5,-112.5 1145.5,-112.5"/>
<text text-anchor="middle" x="1176" y="-119.5" font-family="Helvetica,sans-Serif" font-size="10.00">fmt/std.h</text>
</a>
</g>
</g>
<!-- Node6&#45;&gt;Node8 -->
<g id="edge8" class="edge">
<title>Node6&#45;&gt;Node8</title>
<path fill="none" stroke="midnightblue" d="M1231.4,-168.32C1221.54,-160.26 1206.65,-148.08 1194.78,-138.37"/>
<polygon fill="midnightblue" stroke="midnightblue" points="1196.75,-135.46 1186.8,-131.83 1192.32,-140.88 1196.75,-135.46"/>
</g>
<!-- Node9 -->
<g id="node9" class="node">
<title>Node9</title>
<g id="a_node9"><a xlink:title=" ">
<polygon fill="white" stroke="#bfbfbf" points="1225,-112.5 1225,-131.5 1269,-131.5 1269,-112.5 1225,-112.5"/>
<text text-anchor="middle" x="1247" y="-119.5" font-family="Helvetica,sans-Serif" font-size="10.00">limits</text>
</a>
</g>
</g>
<!-- Node6&#45;&gt;Node9 -->
<g id="edge9" class="edge">
<title>Node6&#45;&gt;Node9</title>
<path fill="none" stroke="midnightblue" d="M1242.83,-168.08C1243.48,-161.01 1244.42,-150.86 1245.24,-141.99"/>
<polygon fill="midnightblue" stroke="midnightblue" points="1248.75,-142.03 1246.19,-131.75 1241.78,-141.39 1248.75,-142.03"/>
</g>
<!-- Node6&#45;&gt;Node10 -->
<g id="edge10" class="edge">
<title>Node6&#45;&gt;Node10</title>
<path fill="none" stroke="midnightblue" d="M1296.29,-169.22C1299.24,-168.8 1302.15,-168.4 1305,-168 1416.76,-152.44 1549.79,-134.62 1607.68,-126.9"/>
<polygon fill="midnightblue" stroke="midnightblue" points="1608.46,-130.33 1617.91,-125.54 1607.53,-123.39 1608.46,-130.33"/>
</g>
<!-- Node11 -->
<g id="node11" class="node">
<title>Node11</title>
<g id="a_node11"><a xlink:title=" ">
<polygon fill="white" stroke="#bfbfbf" points="1287,-112.5 1287,-131.5 1335,-131.5 1335,-112.5 1287,-112.5"/>
<text text-anchor="middle" x="1311" y="-119.5" font-family="Helvetica,sans-Serif" font-size="10.00">thread</text>
</a>
</g>
</g>
<!-- Node6&#45;&gt;Node11 -->
<g id="edge11" class="edge">
<title>Node6&#45;&gt;Node11</title>
<path fill="none" stroke="midnightblue" d="M1253.09,-168.32C1263.49,-160.18 1279.26,-147.84 1291.72,-138.09"/>
<polygon fill="midnightblue" stroke="midnightblue" points="1293.99,-140.75 1299.71,-131.83 1289.68,-135.24 1293.99,-140.75"/>
</g>
<!-- Node19 -->
<g id="node19" class="node">
<title>Node19</title>
<g id="a_node19"><a xlink:href="ccf__memcpy_8h.html" target="_top" xlink:title=" ">
<polygon fill="white" stroke="black" points="88,-56.5 88,-75.5 174,-75.5 174,-56.5 88,-56.5"/>
<text text-anchor="middle" x="131" y="-63.5" font-family="Helvetica,sans-Serif" font-size="10.00">ccf_memcpy.h</text>
</a>
</g>
</g>
<!-- Node18&#45;&gt;Node19 -->
<g id="edge20" class="edge">
<title>Node18&#45;&gt;Node19</title>
<path fill="none" stroke="midnightblue" d="M449.41,-224.31C394.18,-197.02 224,-112.95 157.77,-80.22"/>
<polygon fill="midnightblue" stroke="midnightblue" points="158.93,-76.9 148.42,-75.61 155.83,-83.17 158.93,-76.9"/>
</g>
<!-- Node20 -->
<g id="node20" class="node">
<title>Node20</title>
<g id="a_node20"><a xlink:title=" ">
<polygon fill="white" stroke="#bfbfbf" points="106,-0.5 106,-19.5 156,-19.5 156,-0.5 106,-0.5"/>
<text text-anchor="middle" x="131" y="-7.5" font-family="Helvetica,sans-Serif" font-size="10.00">cstring</text>
</a>
</g>
</g>
<!-- Node18&#45;&gt;Node20 -->
<g id="edge57" class="edge">
<title>Node18&#45;&gt;Node20</title>
<path fill="none" stroke="midnightblue" d="M428.44,-230.99C346.9,-224.4 158.01,-196.25 79,-76 66.87,-57.55 87.75,-37.96 106.55,-25.18"/>
<polygon fill="midnightblue" stroke="midnightblue" points="108.66,-27.98 115.19,-19.64 104.88,-22.09 108.66,-27.98"/>
</g>
<!-- Node21 -->
<g id="node21" class="node">
<title>Node21</title>
<g id="a_node21"><a xlink:href="ring__buffer__types_8h.html" target="_top" xlink:title=" ">
<polygon fill="white" stroke="black" points="681,-168.5 681,-187.5 791,-187.5 791,-168.5 681,-168.5"/>
<text text-anchor="middle" x="736" y="-175.5" font-family="Helvetica,sans-Serif" font-size="10.00">ring_buffer_types.h</text>
</a>
</g>
</g>
<!-- Node18&#45;&gt;Node21 -->
<g id="edge22" class="edge">
<title>Node18&#45;&gt;Node21</title>
<path fill="none" stroke="midnightblue" d="M505.54,-225.26C552.26,-215.89 631.2,-200.04 683.46,-189.55"/>
<polygon fill="midnightblue" stroke="midnightblue" points="684.42,-192.92 693.54,-187.52 683.04,-186.06 684.42,-192.92"/>
</g>
<!-- Node40 -->
<g id="node40" class="node">
<title>Node40</title>
<g id="a_node40"><a xlink:title=" ">
<polygon fill="white" stroke="#bfbfbf" points="434.5,-168.5 434.5,-187.5 499.5,-187.5 499.5,-168.5 434.5,-168.5"/>
<text text-anchor="middle" x="467" y="-175.5" font-family="Helvetica,sans-Serif" font-size="10.00">functional</text>
</a>
</g>
</g>
<!-- Node18&#45;&gt;Node40 -->
<g id="edge58" class="edge">
<title>Node18&#45;&gt;Node40</title>
<path fill="none" stroke="midnightblue" d="M467,-224.08C467,-217.01 467,-206.86 467,-197.99"/>
<polygon fill="midnightblue" stroke="midnightblue" points="470.5,-197.75 467,-187.75 463.5,-197.75 470.5,-197.75"/>
</g>
<!-- Node41 -->
<g id="node41" class="node">
<title>Node41</title>
<g id="a_node41"><a xlink:title=" ">
<polygon fill="white" stroke="#bfbfbf" points="0,-168.5 0,-187.5 32,-187.5 32,-168.5 0,-168.5"/>
<text text-anchor="middle" x="16" y="-175.5" font-family="Helvetica,sans-Serif" font-size="10.00">set</text>
</a>
</g>
</g>
<!-- Node18&#45;&gt;Node41 -->
<g id="edge59" class="edge">
<title>Node18&#45;&gt;Node41</title>
<path fill="none" stroke="midnightblue" d="M428.33,-231.26C353.73,-227.38 185.07,-216.04 46,-188 44.71,-187.74 43.4,-187.45 42.08,-187.13"/>
<polygon fill="midnightblue" stroke="midnightblue" points="42.62,-183.66 32.05,-184.41 40.79,-190.41 42.62,-183.66"/>
</g>
<!-- Node19&#45;&gt;Node20 -->
<g id="edge21" class="edge">
<title>Node19&#45;&gt;Node20</title>
<path fill="none" stroke="midnightblue" d="M131,-56.08C131,-49.01 131,-38.86 131,-29.99"/>
<polygon fill="midnightblue" stroke="midnightblue" points="134.5,-29.75 131,-19.75 127.5,-29.75 134.5,-29.75"/>
</g>
<!-- Node21&#45;&gt;Node5 -->
<g id="edge53" class="edge">
<title>Node21&#45;&gt;Node5</title>
<path fill="none" stroke="midnightblue" d="M791.09,-173.21C930.48,-163.59 1289.98,-138.49 1344,-132 1345.3,-131.84 1346.62,-131.68 1347.95,-131.51"/>
<polygon fill="midnightblue" stroke="midnightblue" points="1348.84,-134.91 1358.25,-130.05 1347.86,-127.98 1348.84,-134.91"/>
</g>
<!-- Node21&#45;&gt;Node15 -->
<g id="edge54" class="edge">
<title>Node21&#45;&gt;Node15</title>
<path fill="none" stroke="midnightblue" d="M778.11,-168.5C819.04,-160.14 883.2,-146.82 947.79,-132.23"/>
<polygon fill="midnightblue" stroke="midnightblue" points="948.76,-135.59 957.74,-129.97 947.21,-128.77 948.76,-135.59"/>
</g>
<!-- Node22 -->
<g id="node22" class="node">
<title>Node22</title>
<g id="a_node22"><a xlink:href="include_2ccf_2ds_2hash_8h.html" target="_top" xlink:title=" ">
<polygon fill="white" stroke="black" points="365,-112.5 365,-131.5 445,-131.5 445,-112.5 365,-112.5"/>
<text text-anchor="middle" x="405" y="-119.5" font-family="Helvetica,sans-Serif" font-size="10.00">ccf/ds/hash.h</text>
</a>
</g>
</g>
<!-- Node21&#45;&gt;Node22 -->
<g id="edge23" class="edge">
<title>Node21&#45;&gt;Node22</title>
<path fill="none" stroke="midnightblue" d="M683.55,-168.44C620.87,-158.22 516.74,-141.23 455.11,-131.18"/>
<polygon fill="midnightblue" stroke="midnightblue" points="455.66,-127.72 445.23,-129.56 454.54,-134.63 455.66,-127.72"/>
</g>
<!-- Node26 -->
<g id="node26" class="node">
<title>Node26</title>
<g id="a_node26"><a xlink:title=" ">
<polygon fill="white" stroke="#bfbfbf" points="572.5,-0.5 572.5,-19.5 619.5,-19.5 619.5,-0.5 572.5,-0.5"/>
<text text-anchor="middle" x="596" y="-7.5" font-family="Helvetica,sans-Serif" font-size="10.00">vector</text>
</a>
</g>
</g>
<!-- Node21&#45;&gt;Node26 -->
<g id="edge56" class="edge">
<title>Node21&#45;&gt;Node26</title>
<path fill="none" stroke="midnightblue" d="M720.48,-168.27C694.68,-152.97 643.03,-118.81 615,-76 605.84,-62.02 601,-43.51 598.5,-29.83"/>
<polygon fill="midnightblue" stroke="midnightblue" points="601.91,-29.01 596.91,-19.67 594.99,-30.09 601.91,-29.01"/>
</g>
<!-- Node29 -->
<g id="node29" class="node">
<title>Node29</title>
<g id="a_node29"><a xlink:href="nonstd_8h.html" target="_top" xlink:title=" ">
<polygon fill="white" stroke="black" points="754,-56.5 754,-75.5 844,-75.5 844,-56.5 754,-56.5"/>
<text text-anchor="middle" x="799" y="-63.5" font-family="Helvetica,sans-Serif" font-size="10.00">ccf/ds/nonstd.h</text>
</a>
</g>
</g>
<!-- Node21&#45;&gt;Node29 -->
<g id="edge32" class="edge">
<title>Node21&#45;&gt;Node29</title>
<path fill="none" stroke="midnightblue" d="M737.14,-168.48C739.15,-155.53 744.2,-130.47 755,-112 761.5,-100.88 771.35,-90.46 780.08,-82.45"/>
<polygon fill="midnightblue" stroke="midnightblue" points="782.43,-85.04 787.66,-75.82 777.83,-79.77 782.43,-85.04"/>
</g>
<!-- Node32 -->
<g id="node32" class="node">
<title>Node32</title>
<g id="a_node32"><a xlink:title=" ">
<polygon fill="white" stroke="#bfbfbf" points="766,-0.5 766,-19.5 810,-19.5 810,-0.5 766,-0.5"/>
<text text-anchor="middle" x="788" y="-7.5" font-family="Helvetica,sans-Serif" font-size="10.00">string</text>
</a>
</g>
</g>
<!-- Node21&#45;&gt;Node32 -->
<g id="edge55" class="edge">
<title>Node21&#45;&gt;Node32</title>
<path fill="none" stroke="midnightblue" d="M757.97,-168.41C779.77,-159.73 814.03,-145.69 843,-132 860.26,-123.85 863.44,-119.49 881,-112 927.54,-92.15 959.42,-117.05 989,-76 1052.41,11.98 1138.51,-98.24 820.32,-20.17"/>
<polygon fill="midnightblue" stroke="midnightblue" points="820.85,-16.7 810.3,-17.69 819.16,-23.49 820.85,-16.7"/>
</g>
<!-- Node34 -->
<g id="node34" class="node">
<title>Node34</title>
<g id="a_node34"><a xlink:href="serializer_8h.html" target="_top" xlink:title=" ">
<polygon fill="white" stroke="black" points="764,-112.5 764,-131.5 834,-131.5 834,-112.5 764,-112.5"/>
<text text-anchor="middle" x="799" y="-119.5" font-family="Helvetica,sans-Serif" font-size="10.00">serializer.h</text>
</a>
</g>
</g>
<!-- Node21&#45;&gt;Node34 -->
<g id="edge40" class="edge">
<title>Node21&#45;&gt;Node34</title>
<path fill="none" stroke="midnightblue" d="M746.12,-168.32C755.53,-160.26 769.74,-148.08 781.07,-138.37"/>
<polygon fill="midnightblue" stroke="midnightblue" points="783.38,-141 788.69,-131.83 778.82,-135.68 783.38,-141"/>
</g>
<!-- Node21&#45;&gt;Node39 -->
<g id="edge52" class="edge">
<title>Node21&#45;&gt;Node39</title>
<path fill="none" stroke="midnightblue" d="M764.36,-168.44C795.72,-158.98 846.26,-143.74 880.04,-133.55"/>
<polygon fill="midnightblue" stroke="midnightblue" points="881.38,-136.8 889.95,-130.56 879.36,-130.1 881.38,-136.8"/>
</g>
<!-- Node23 -->
<g id="node23" class="node">
<title>Node23</title>
<g id="a_node23"><a xlink:href="siphash_8h.html" target="_top" xlink:title=" ">
<polygon fill="white" stroke="black" points="230.5,-56.5 230.5,-75.5 325.5,-75.5 325.5,-56.5 230.5,-56.5"/>
<text text-anchor="middle" x="278" y="-63.5" font-family="Helvetica,sans-Serif" font-size="10.00">ccf/ds/siphash.h</text>
</a>
</g>
</g>
<!-- Node22&#45;&gt;Node23 -->
<g id="edge24" class="edge">
<title>Node22&#45;&gt;Node23</title>
<path fill="none" stroke="midnightblue" d="M384.88,-112.44C363.98,-103.56 331.07,-89.56 307.28,-79.45"/>
<polygon fill="midnightblue" stroke="midnightblue" points="308.6,-76.21 298.03,-75.52 305.86,-82.65 308.6,-76.21"/>
</g>
<!-- Node25 -->
<g id="node25" class="node">
<title>Node25</title>
<g id="a_node25"><a xlink:title=" ">
<polygon fill="white" stroke="#bfbfbf" points="288,-0.5 288,-19.5 338,-19.5 338,-0.5 288,-0.5"/>
<text text-anchor="middle" x="313" y="-7.5" font-family="Helvetica,sans-Serif" font-size="10.00">cstdint</text>
</a>
</g>
</g>
<!-- Node22&#45;&gt;Node25 -->
<g id="edge29" class="edge">
<title>Node22&#45;&gt;Node25</title>
<path fill="none" stroke="midnightblue" d="M364.63,-116.88C315.97,-110.99 238.51,-98.31 221,-76 201.22,-50.8 244.43,-31.23 278.12,-20.41"/>
<polygon fill="midnightblue" stroke="midnightblue" points="279.2,-23.74 287.74,-17.46 277.16,-17.04 279.2,-23.74"/>
</g>
<!-- Node22&#45;&gt;Node26 -->
<g id="edge31" class="edge">
<title>Node22&#45;&gt;Node26</title>
<path fill="none" stroke="midnightblue" d="M445.29,-113.31C473.27,-106.63 510.5,-94.97 539,-76 557.86,-63.44 574.29,-43.1 584.61,-28.51"/>
<polygon fill="midnightblue" stroke="midnightblue" points="587.73,-30.14 590.46,-19.9 581.95,-26.2 587.73,-30.14"/>
</g>
<!-- Node27 -->
<g id="node27" class="node">
<title>Node27</title>
<g id="a_node27"><a xlink:title=" ">
<polygon fill="white" stroke="#bfbfbf" points="638,-0.5 638,-19.5 680,-19.5 680,-0.5 638,-0.5"/>
<text text-anchor="middle" x="659" y="-7.5" font-family="Helvetica,sans-Serif" font-size="10.00">array</text>
</a>
</g>
</g>
<!-- Node22&#45;&gt;Node27 -->
<g id="edge28" class="edge">
<title>Node22&#45;&gt;Node27</title>
<path fill="none" stroke="midnightblue" d="M394.53,-112.2C379.94,-98.9 356.89,-73.38 372,-56 409.69,-12.64 571.83,-32.04 628,-20 628.1,-19.98 628.2,-19.96 628.3,-19.94"/>
<polygon fill="midnightblue" stroke="midnightblue" points="628.89,-23.4 637.76,-17.6 627.21,-16.6 628.89,-23.4"/>
</g>
<!-- Node28 -->
<g id="node28" class="node">
<title>Node28</title>
<g id="a_node28"><a xlink:title=" ">
<polygon fill="white" stroke="#bfbfbf" points="381.5,-56.5 381.5,-75.5 530.5,-75.5 530.5,-56.5 381.5,-56.5"/>
<text text-anchor="middle" x="456" y="-63.5" font-family="Helvetica,sans-Serif" font-size="10.00">small_vector/SmallVector.h</text>
</a>
</g>
</g>
<!-- Node22&#45;&gt;Node28 -->
<g id="edge30" class="edge">
<title>Node22&#45;&gt;Node28</title>
<path fill="none" stroke="midnightblue" d="M413.42,-112.08C420.85,-104.22 431.85,-92.57 440.81,-83.08"/>
<polygon fill="midnightblue" stroke="midnightblue" points="443.41,-85.42 447.74,-75.75 438.32,-80.62 443.41,-85.42"/>
</g>
<!-- Node24 -->
<g id="node24" class="node">
<title>Node24</title>
<g id="a_node24"><a xlink:title=" ">
<polygon fill="white" stroke="#bfbfbf" points="216.5,-0.5 216.5,-19.5 269.5,-19.5 269.5,-0.5 216.5,-0.5"/>
<text text-anchor="middle" x="243" y="-7.5" font-family="Helvetica,sans-Serif" font-size="10.00">cstddef</text>
</a>
</g>
</g>
<!-- Node23&#45;&gt;Node24 -->
<g id="edge25" class="edge">
<title>Node23&#45;&gt;Node24</title>
<path fill="none" stroke="midnightblue" d="M272.22,-56.08C267.33,-48.53 260.17,-37.49 254.17,-28.23"/>
<polygon fill="midnightblue" stroke="midnightblue" points="257.05,-26.24 248.67,-19.75 251.17,-30.05 257.05,-26.24"/>
</g>
<!-- Node23&#45;&gt;Node25 -->
<g id="edge26" class="edge">
<title>Node23&#45;&gt;Node25</title>
<path fill="none" stroke="midnightblue" d="M283.78,-56.08C288.67,-48.53 295.83,-37.49 301.83,-28.23"/>
<polygon fill="midnightblue" stroke="midnightblue" points="304.83,-30.05 307.33,-19.75 298.95,-26.24 304.83,-30.05"/>
</g>
<!-- Node23&#45;&gt;Node26 -->
<g id="edge27" class="edge">
<title>Node23&#45;&gt;Node26</title>
<path fill="none" stroke="midnightblue" d="M325.61,-56.92C390.69,-45.86 505.81,-26.32 562.52,-16.69"/>
<polygon fill="midnightblue" stroke="midnightblue" points="563.13,-20.13 572.4,-15.01 561.96,-13.23 563.13,-20.13"/>
</g>
<!-- Node29&#45;&gt;Node17 -->
<g id="edge38" class="edge">
<title>Node29&#45;&gt;Node17</title>
<path fill="none" stroke="midnightblue" d="M844.08,-57.47C847.1,-56.97 850.09,-56.48 853,-56 948.97,-40.26 975.6,-38.18 1075.53,-20.02"/>
<polygon fill="midnightblue" stroke="midnightblue" points="1076.23,-23.45 1085.44,-18.21 1074.97,-16.56 1076.23,-23.45"/>
</g>
<!-- Node29&#45;&gt;Node26 -->
<g id="edge39" class="edge">
<title>Node29&#45;&gt;Node26</title>
<path fill="none" stroke="midnightblue" d="M766.39,-56.45C734.09,-47.96 682.97,-34.47 629.45,-20.11"/>
<polygon fill="midnightblue" stroke="midnightblue" points="630.35,-16.72 619.79,-17.51 628.54,-23.49 630.35,-16.72"/>
</g>
<!-- Node29&#45;&gt;Node27 -->
<g id="edge34" class="edge">
<title>Node29&#45;&gt;Node27</title>
<path fill="none" stroke="midnightblue" d="M776.82,-56.44C753.3,-47.37 715.99,-32.98 689.66,-22.83"/>
<polygon fill="midnightblue" stroke="midnightblue" points="690.75,-19.5 680.16,-19.16 688.23,-26.03 690.75,-19.5"/>
</g>
<!-- Node30 -->
<g id="node30" class="node">
<title>Node30</title>
<g id="a_node30"><a xlink:title=" ">
<polygon fill="white" stroke="#bfbfbf" points="1003,-0.5 1003,-19.5 1067,-19.5 1067,-0.5 1003,-0.5"/>
<text text-anchor="middle" x="1035" y="-7.5" font-family="Helvetica,sans-Serif" font-size="10.00">algorithm</text>
</a>
</g>
</g>
<!-- Node29&#45;&gt;Node30 -->
<g id="edge33" class="edge">
<title>Node29&#45;&gt;Node30</title>
<path fill="none" stroke="midnightblue" d="M836.39,-56.44C878.96,-46.7 948.33,-30.83 992.8,-20.66"/>
<polygon fill="midnightblue" stroke="midnightblue" points="993.74,-24.03 1002.71,-18.39 992.18,-17.21 993.74,-24.03"/>
</g>
<!-- Node31 -->
<g id="node31" class="node">
<title>Node31</title>
<g id="a_node31"><a xlink:title=" ">
<polygon fill="white" stroke="#bfbfbf" points="698.5,-0.5 698.5,-19.5 747.5,-19.5 747.5,-0.5 698.5,-0.5"/>
<text text-anchor="middle" x="723" y="-7.5" font-family="Helvetica,sans-Serif" font-size="10.00">cctype</text>
</a>
</g>
</g>
<!-- Node29&#45;&gt;Node31 -->
<g id="edge35" class="edge">
<title>Node29&#45;&gt;Node31</title>
<path fill="none" stroke="midnightblue" d="M786.79,-56.32C775.22,-48.11 757.62,-35.6 743.84,-25.81"/>
<polygon fill="midnightblue" stroke="midnightblue" points="745.61,-22.77 735.43,-19.83 741.56,-28.48 745.61,-22.77"/>
</g>
<!-- Node29&#45;&gt;Node32 -->
<g id="edge36" class="edge">
<title>Node29&#45;&gt;Node32</title>
<path fill="none" stroke="midnightblue" d="M797.18,-56.08C795.73,-48.93 793.63,-38.64 791.81,-29.69"/>
<polygon fill="midnightblue" stroke="midnightblue" points="795.21,-28.85 789.78,-19.75 788.35,-30.25 795.21,-28.85"/>
</g>
<!-- Node33 -->
<g id="node33" class="node">
<title>Node33</title>
<g id="a_node33"><a xlink:title=" ">
<polygon fill="white" stroke="#bfbfbf" points="828.5,-0.5 828.5,-19.5 901.5,-19.5 901.5,-0.5 828.5,-0.5"/>
<text text-anchor="middle" x="865" y="-7.5" font-family="Helvetica,sans-Serif" font-size="10.00">string_view</text>
</a>
</g>
</g>
<!-- Node29&#45;&gt;Node33 -->
<g id="edge37" class="edge">
<title>Node29&#45;&gt;Node33</title>
<path fill="none" stroke="midnightblue" d="M809.6,-56.32C819.46,-48.26 834.35,-36.08 846.22,-26.37"/>
<polygon fill="midnightblue" stroke="midnightblue" points="848.68,-28.88 854.2,-19.83 844.25,-23.46 848.68,-28.88"/>
</g>
<!-- Node34&#45;&gt;Node17 -->
<g id="edge50" class="edge">
<title>Node34&#45;&gt;Node17</title>
<path fill="none" stroke="midnightblue" d="M834.01,-115.19C872.67,-108.2 936.39,-95 989,-76 1028.17,-61.85 1070.93,-39.15 1096.6,-24.66"/>
<polygon fill="midnightblue" stroke="midnightblue" points="1098.61,-27.54 1105.55,-19.54 1095.13,-21.46 1098.61,-27.54"/>
</g>
<!-- Node34&#45;&gt;Node26 -->
<g id="edge51" class="edge">
<title>Node34&#45;&gt;Node26</title>
<path fill="none" stroke="midnightblue" d="M788.35,-112.37C771.57,-99.06 737.65,-73.26 706,-56 681.34,-42.55 651.79,-30.68 629.54,-22.51"/>
<polygon fill="midnightblue" stroke="midnightblue" points="630.46,-19.13 619.87,-19.03 628.09,-25.71 630.46,-19.13"/>
</g>
<!-- Node34&#45;&gt;Node29 -->
<g id="edge41" class="edge">
<title>Node34&#45;&gt;Node29</title>
<path fill="none" stroke="midnightblue" d="M799,-112.08C799,-105.01 799,-94.86 799,-85.99"/>
<polygon fill="midnightblue" stroke="midnightblue" points="802.5,-85.75 799,-75.75 795.5,-85.75 802.5,-85.75"/>
</g>
<!-- Node34&#45;&gt;Node35 -->
<g id="edge42" class="edge">
<title>Node34&#45;&gt;Node35</title>
<path fill="none" stroke="midnightblue" d="M777.13,-112.44C754.22,-103.48 718.02,-89.31 692.13,-79.18"/>
<polygon fill="midnightblue" stroke="midnightblue" points="693.35,-75.9 682.76,-75.52 690.8,-82.42 693.35,-75.9"/>
</g>
<!-- Node37 -->
<g id="node37" class="node">
<title>Node37</title>
<g id="a_node37"><a xlink:title=" ">
<polygon fill="white" stroke="#bfbfbf" points="862,-56.5 862,-75.5 920,-75.5 920,-56.5 862,-56.5"/>
<text text-anchor="middle" x="891" y="-63.5" font-family="Helvetica,sans-Serif" font-size="10.00">memory</text>
</a>
</g>
</g>
<!-- Node34&#45;&gt;Node37 -->
<g id="edge48" class="edge">
<title>Node34&#45;&gt;Node37</title>
<path fill="none" stroke="midnightblue" d="M813.78,-112.32C828.27,-103.82 850.57,-90.73 867.49,-80.8"/>
<polygon fill="midnightblue" stroke="midnightblue" points="869.4,-83.74 876.26,-75.65 865.86,-77.7 869.4,-83.74"/>
</g>
<!-- Node38 -->
<g id="node38" class="node">
<title>Node38</title>
<g id="a_node38"><a xlink:title=" ">
<polygon fill="white" stroke="#bfbfbf" points="938.5,-56.5 938.5,-75.5 979.5,-75.5 979.5,-56.5 938.5,-56.5"/>
<text text-anchor="middle" x="959" y="-63.5" font-family="Helvetica,sans-Serif" font-size="10.00">tuple</text>
</a>
</g>
</g>
<!-- Node34&#45;&gt;Node38 -->
<g id="edge49" class="edge">
<title>Node34&#45;&gt;Node38</title>
<path fill="none" stroke="midnightblue" d="M824.35,-112.44C852.69,-102.88 898.56,-87.4 928.76,-77.21"/>
<polygon fill="midnightblue" stroke="midnightblue" points="929.99,-80.49 938.35,-73.97 927.75,-73.85 929.99,-80.49"/>
</g>
<!-- Node35&#45;&gt;Node20 -->
<g id="edge44" class="edge">
<title>Node35&#45;&gt;Node20</title>
<path fill="none" stroke="midnightblue" d="M624.49,-61.62C547.35,-54.42 362.12,-36.87 207,-20 193.79,-18.56 179.31,-16.88 166.56,-15.35"/>
<polygon fill="midnightblue" stroke="midnightblue" points="166.67,-11.84 156.32,-14.12 165.83,-18.79 166.67,-11.84"/>
</g>
<!-- Node35&#45;&gt;Node25 -->
<g id="edge43" class="edge">
<title>Node35&#45;&gt;Node25</title>
<path fill="none" stroke="midnightblue" d="M624.42,-59.32C557.16,-48.89 414.72,-26.78 348.38,-16.49"/>
<polygon fill="midnightblue" stroke="midnightblue" points="348.82,-13.02 338.41,-14.94 347.75,-19.93 348.82,-13.02"/>
</g>
<!-- Node35&#45;&gt;Node26 -->
<g id="edge47" class="edge">
<title>Node35&#45;&gt;Node26</title>
<path fill="none" stroke="midnightblue" d="M650.56,-56.32C640.85,-48.26 626.18,-36.08 614.5,-26.37"/>
<polygon fill="midnightblue" stroke="midnightblue" points="616.56,-23.53 606.63,-19.83 612.09,-28.92 616.56,-23.53"/>
</g>
<!-- Node35&#45;&gt;Node32 -->
<g id="edge46" class="edge">
<title>Node35&#45;&gt;Node32</title>
<path fill="none" stroke="midnightblue" d="M681.12,-56.44C702.02,-47.56 734.93,-33.56 758.72,-23.45"/>
<polygon fill="midnightblue" stroke="midnightblue" points="760.14,-26.65 767.97,-19.52 757.4,-20.21 760.14,-26.65"/>
</g>
<!-- Node35&#45;&gt;Node36 -->
<g id="edge45" class="edge">
<title>Node35&#45;&gt;Node36</title>
<path fill="none" stroke="midnightblue" d="M697.78,-58.74C744.52,-50.69 827.95,-36.05 909.53,-20.04"/>
<polygon fill="midnightblue" stroke="midnightblue" points="910.33,-23.45 919.46,-18.08 908.97,-16.58 910.33,-23.45"/>
</g>
</g>
</svg>
