<?xml version="1.0" encoding="UTF-8" standalone="no"?>
<!DOCTYPE svg PUBLIC "-//W3C//DTD SVG 1.1//EN"
 "http://www.w3.org/Graphics/SVG/1.1/DTD/svg11.dtd">
<!-- Generated by graphviz version 2.43.0 (0)
 -->
<!-- Title: src/host/process_launcher.h Pages: 1 -->
<svg width="1638pt" height="476pt"
 viewBox="0.00 0.00 1637.99 476.00" xmlns="http://www.w3.org/2000/svg" xmlns:xlink="http://www.w3.org/1999/xlink">
<g id="graph0" class="graph" transform="scale(1 1) rotate(0) translate(4 472)">
<title>src/host/process_launcher.h</title>
<polygon fill="white" stroke="transparent" points="-4,4 -4,-472 1633.99,-472 1633.99,4 -4,4"/>
<!-- Node1 -->
<g id="node1" class="node">
<title>Node1</title>
<g id="a_node1"><a xlink:title=" ">
<polygon fill="#bfbfbf" stroke="black" points="1338.5,-448.5 1338.5,-467.5 1489.5,-467.5 1489.5,-448.5 1338.5,-448.5"/>
<text text-anchor="middle" x="1414" y="-455.5" font-family="Helvetica,sans-Serif" font-size="10.00">src/host/process_launcher.h</text>
</a>
</g>
</g>
<!-- Node2 -->
<g id="node2" class="node">
<title>Node2</title>
<g id="a_node2"><a xlink:href="messaging_8h.html" target="_top" xlink:title=" ">
<polygon fill="white" stroke="black" points="979.5,-280.5 979.5,-299.5 1072.5,-299.5 1072.5,-280.5 979.5,-280.5"/>
<text text-anchor="middle" x="1026" y="-287.5" font-family="Helvetica,sans-Serif" font-size="10.00">ds/messaging.h</text>
</a>
</g>
</g>
<!-- Node1&#45;&gt;Node2 -->
<g id="edge1" class="edge">
<title>Node1&#45;&gt;Node2</title>
<path fill="none" stroke="midnightblue" d="M1361.56,-448.45C1324.02,-441.31 1272.78,-429.46 1230,-412 1158.26,-382.71 1081.76,-331.1 1046.26,-305.81"/>
<polygon fill="midnightblue" stroke="midnightblue" points="1047.92,-302.69 1037.76,-299.69 1043.83,-308.37 1047.92,-302.69"/>
</g>
<!-- Node43 -->
<g id="node43" class="node">
<title>Node43</title>
<g id="a_node43"><a xlink:href="interface_8h.html" target="_top" xlink:title=" ">
<polygon fill="white" stroke="black" points="1239,-392.5 1239,-411.5 1349,-411.5 1349,-392.5 1239,-392.5"/>
<text text-anchor="middle" x="1294" y="-399.5" font-family="Helvetica,sans-Serif" font-size="10.00">enclave/interface.h</text>
</a>
</g>
</g>
<!-- Node1&#45;&gt;Node43 -->
<g id="edge64" class="edge">
<title>Node1&#45;&gt;Node43</title>
<path fill="none" stroke="midnightblue" d="M1394.99,-448.44C1375.41,-439.64 1344.69,-425.81 1322.27,-415.72"/>
<polygon fill="midnightblue" stroke="midnightblue" points="1323.48,-412.43 1312.93,-411.52 1320.61,-418.81 1323.48,-412.43"/>
</g>
<!-- Node45 -->
<g id="node45" class="node">
<title>Node45</title>
<g id="a_node45"><a xlink:title=" ">
<polygon fill="white" stroke="#bfbfbf" points="1381.5,-280.5 1381.5,-299.5 1474.5,-299.5 1474.5,-280.5 1381.5,-280.5"/>
<text text-anchor="middle" x="1428" y="-287.5" font-family="Helvetica,sans-Serif" font-size="10.00">unordered_map</text>
</a>
</g>
</g>
<!-- Node1&#45;&gt;Node45 -->
<g id="edge76" class="edge">
<title>Node1&#45;&gt;Node45</title>
<path fill="none" stroke="midnightblue" d="M1414.75,-448.08C1416.96,-421.95 1423.43,-345.21 1426.43,-309.58"/>
<polygon fill="midnightblue" stroke="midnightblue" points="1429.92,-309.83 1427.28,-299.57 1422.95,-309.24 1429.92,-309.83"/>
</g>
<!-- Node46 -->
<g id="node46" class="node">
<title>Node46</title>
<g id="a_node46"><a xlink:title=" ">
<polygon fill="white" stroke="#bfbfbf" points="1356,-336.5 1356,-355.5 1406,-355.5 1406,-336.5 1356,-336.5"/>
<text text-anchor="middle" x="1381" y="-343.5" font-family="Helvetica,sans-Serif" font-size="10.00">chrono</text>
</a>
</g>
</g>
<!-- Node1&#45;&gt;Node46 -->
<g id="edge74" class="edge">
<title>Node1&#45;&gt;Node46</title>
<path fill="none" stroke="midnightblue" d="M1411.41,-448.37C1406.06,-430.54 1393.69,-389.3 1386.48,-365.27"/>
<polygon fill="midnightblue" stroke="midnightblue" points="1389.8,-364.16 1383.58,-355.59 1383.1,-366.18 1389.8,-364.16"/>
</g>
<!-- Node47 -->
<g id="node47" class="node">
<title>Node47</title>
<g id="a_node47"><a xlink:title=" ">
<polygon fill="white" stroke="#bfbfbf" points="1462.5,-392.5 1462.5,-411.5 1509.5,-411.5 1509.5,-392.5 1462.5,-392.5"/>
<text text-anchor="middle" x="1486" y="-399.5" font-family="Helvetica,sans-Serif" font-size="10.00">queue</text>
</a>
</g>
</g>
<!-- Node1&#45;&gt;Node47 -->
<g id="edge75" class="edge">
<title>Node1&#45;&gt;Node47</title>
<path fill="none" stroke="midnightblue" d="M1425.57,-448.32C1436.42,-440.18 1452.88,-427.84 1465.88,-418.09"/>
<polygon fill="midnightblue" stroke="midnightblue" points="1468.32,-420.63 1474.22,-411.83 1464.12,-415.03 1468.32,-420.63"/>
</g>
<!-- Node48 -->
<g id="node48" class="node">
<title>Node48</title>
<g id="a_node48"><a xlink:title=" ">
<polygon fill="white" stroke="#bfbfbf" points="1527.5,-392.5 1527.5,-411.5 1564.5,-411.5 1564.5,-392.5 1527.5,-392.5"/>
<text text-anchor="middle" x="1546" y="-399.5" font-family="Helvetica,sans-Serif" font-size="10.00">uv.h</text>
</a>
</g>
</g>
<!-- Node1&#45;&gt;Node48 -->
<g id="edge77" class="edge">
<title>Node1&#45;&gt;Node48</title>
<path fill="none" stroke="midnightblue" d="M1434.92,-448.44C1457.38,-439.25 1493.19,-424.61 1518.05,-414.43"/>
<polygon fill="midnightblue" stroke="midnightblue" points="1519.39,-417.67 1527.32,-410.64 1516.74,-411.19 1519.39,-417.67"/>
</g>
<!-- Node3 -->
<g id="node3" class="node">
<title>Node3</title>
<g id="a_node3"><a xlink:href="logger_8h.html" target="_top" xlink:title=" ">
<polygon fill="white" stroke="black" points="500.5,-224.5 500.5,-243.5 587.5,-243.5 587.5,-224.5 500.5,-224.5"/>
<text text-anchor="middle" x="544" y="-231.5" font-family="Helvetica,sans-Serif" font-size="10.00">ccf/ds/logger.h</text>
</a>
</g>
</g>
<!-- Node2&#45;&gt;Node3 -->
<g id="edge2" class="edge">
<title>Node2&#45;&gt;Node3</title>
<path fill="none" stroke="midnightblue" d="M979.35,-283.77C889.42,-273.7 692.6,-251.65 597.51,-241"/>
<polygon fill="midnightblue" stroke="midnightblue" points="597.86,-237.51 587.53,-239.88 597.08,-244.47 597.86,-237.51"/>
</g>
<!-- Node10 -->
<g id="node10" class="node">
<title>Node10</title>
<g id="a_node10"><a xlink:title=" ">
<polygon fill="white" stroke="#bfbfbf" points="0,-112.5 0,-131.5 38,-131.5 38,-112.5 0,-112.5"/>
<text text-anchor="middle" x="19" y="-119.5" font-family="Helvetica,sans-Serif" font-size="10.00">map</text>
</a>
</g>
</g>
<!-- Node2&#45;&gt;Node10 -->
<g id="edge62" class="edge">
<title>Node2&#45;&gt;Node10</title>
<path fill="none" stroke="midnightblue" d="M979.35,-289.06C809.44,-288.52 225.45,-279.88 68,-188 49.38,-177.13 35.55,-156.13 27.41,-140.93"/>
<polygon fill="midnightblue" stroke="midnightblue" points="30.51,-139.31 22.9,-131.95 24.26,-142.46 30.51,-139.31"/>
</g>
<!-- Node18 -->
<g id="node18" class="node">
<title>Node18</title>
<g id="a_node18"><a xlink:href="ring__buffer_8h.html" target="_top" xlink:title=" ">
<polygon fill="white" stroke="black" points="1326.5,-224.5 1326.5,-243.5 1403.5,-243.5 1403.5,-224.5 1326.5,-224.5"/>
<text text-anchor="middle" x="1365" y="-231.5" font-family="Helvetica,sans-Serif" font-size="10.00">ring_buffer.h</text>
</a>
</g>
</g>
<!-- Node2&#45;&gt;Node18 -->
<g id="edge19" class="edge">
<title>Node2&#45;&gt;Node18</title>
<path fill="none" stroke="midnightblue" d="M1072.78,-281.55C1136.83,-271.35 1251.27,-253.12 1316.31,-242.76"/>
<polygon fill="midnightblue" stroke="midnightblue" points="1316.98,-246.19 1326.31,-241.16 1315.88,-239.28 1316.98,-246.19"/>
</g>
<!-- Node36 -->
<g id="node36" class="node">
<title>Node36</title>
<g id="a_node36"><a xlink:title=" ">
<polygon fill="white" stroke="#bfbfbf" points="1442.5,-0.5 1442.5,-19.5 1507.5,-19.5 1507.5,-0.5 1442.5,-0.5"/>
<text text-anchor="middle" x="1475" y="-7.5" font-family="Helvetica,sans-Serif" font-size="10.00">stdexcept</text>
</a>
</g>
</g>
<!-- Node2&#45;&gt;Node36 -->
<g id="edge63" class="edge">
<title>Node2&#45;&gt;Node36</title>
<path fill="none" stroke="midnightblue" d="M1047.88,-280.44C1135.55,-245.91 1457.95,-116.85 1484,-76 1492.88,-62.07 1488.81,-43.06 1483.62,-29.2"/>
<polygon fill="midnightblue" stroke="midnightblue" points="1486.74,-27.61 1479.62,-19.77 1480.3,-30.34 1486.74,-27.61"/>
</g>
<!-- Node39 -->
<g id="node39" class="node">
<title>Node39</title>
<g id="a_node39"><a xlink:title=" ">
<polygon fill="white" stroke="#bfbfbf" points="1110,-112.5 1110,-131.5 1160,-131.5 1160,-112.5 1110,-112.5"/>
<text text-anchor="middle" x="1135" y="-119.5" font-family="Helvetica,sans-Serif" font-size="10.00">atomic</text>
</a>
</g>
</g>
<!-- Node2&#45;&gt;Node39 -->
<g id="edge60" class="edge">
<title>Node2&#45;&gt;Node39</title>
<path fill="none" stroke="midnightblue" d="M1039.74,-280.45C1051.91,-272.32 1069.47,-259.1 1081,-244 1105.7,-211.68 1122.04,-166.27 1129.79,-141.28"/>
<polygon fill="midnightblue" stroke="midnightblue" points="1133.16,-142.22 1132.66,-131.64 1126.45,-140.22 1133.16,-142.22"/>
</g>
<!-- Node42 -->
<g id="node42" class="node">
<title>Node42</title>
<g id="a_node42"><a xlink:title=" ">
<polygon fill="white" stroke="#bfbfbf" points="965.5,-224.5 965.5,-243.5 1072.5,-243.5 1072.5,-224.5 965.5,-224.5"/>
<text text-anchor="middle" x="1019" y="-231.5" font-family="Helvetica,sans-Serif" font-size="10.00">condition_variable</text>
</a>
</g>
</g>
<!-- Node2&#45;&gt;Node42 -->
<g id="edge61" class="edge">
<title>Node2&#45;&gt;Node42</title>
<path fill="none" stroke="midnightblue" d="M1024.84,-280.08C1023.92,-272.93 1022.58,-262.64 1021.42,-253.69"/>
<polygon fill="midnightblue" stroke="midnightblue" points="1024.89,-253.22 1020.13,-243.75 1017.95,-254.12 1024.89,-253.22"/>
</g>
<!-- Node4 -->
<g id="node4" class="node">
<title>Node4</title>
<g id="a_node4"><a xlink:href="enum__formatter_8h.html" target="_top" xlink:title=" ">
<polygon fill="white" stroke="black" points="618,-168.5 618,-187.5 754,-187.5 754,-168.5 618,-168.5"/>
<text text-anchor="middle" x="686" y="-175.5" font-family="Helvetica,sans-Serif" font-size="10.00">ccf/ds/enum_formatter.h</text>
</a>
</g>
</g>
<!-- Node3&#45;&gt;Node4 -->
<g id="edge3" class="edge">
<title>Node3&#45;&gt;Node4</title>
<path fill="none" stroke="midnightblue" d="M566.5,-224.44C590.08,-215.48 627.32,-201.31 653.96,-191.18"/>
<polygon fill="midnightblue" stroke="midnightblue" points="655.5,-194.34 663.6,-187.52 653.01,-187.8 655.5,-194.34"/>
</g>
<!-- Node5 -->
<g id="node5" class="node">
<title>Node5</title>
<g id="a_node5"><a xlink:title=" ">
<polygon fill="white" stroke="#bfbfbf" points="635.5,-112.5 635.5,-131.5 714.5,-131.5 714.5,-112.5 635.5,-112.5"/>
<text text-anchor="middle" x="675" y="-119.5" font-family="Helvetica,sans-Serif" font-size="10.00">fmt/format.h</text>
</a>
</g>
</g>
<!-- Node3&#45;&gt;Node5 -->
<g id="edge13" class="edge">
<title>Node3&#45;&gt;Node5</title>
<path fill="none" stroke="midnightblue" d="M587.98,-230.36C645.45,-225.88 741.35,-214.55 763,-188 781.55,-165.26 745.65,-146.29 714.27,-134.82"/>
<polygon fill="midnightblue" stroke="midnightblue" points="715.33,-131.49 704.74,-131.51 713.04,-138.1 715.33,-131.49"/>
</g>
<!-- Node6 -->
<g id="node6" class="node">
<title>Node6</title>
<g id="a_node6"><a xlink:href="thread__ids_8h.html" target="_top" xlink:title=" ">
<polygon fill="white" stroke="black" points="77,-168.5 77,-187.5 185,-187.5 185,-168.5 77,-168.5"/>
<text text-anchor="middle" x="131" y="-175.5" font-family="Helvetica,sans-Serif" font-size="10.00">ccf/ds/thread_ids.h</text>
</a>
</g>
</g>
<!-- Node3&#45;&gt;Node6 -->
<g id="edge5" class="edge">
<title>Node3&#45;&gt;Node6</title>
<path fill="none" stroke="midnightblue" d="M500.32,-227.58C435.94,-219.56 311.49,-203.87 195.42,-188.18"/>
<polygon fill="midnightblue" stroke="midnightblue" points="195.67,-184.68 185.29,-186.8 194.73,-191.62 195.67,-184.68"/>
</g>
<!-- Node12 -->
<g id="node12" class="node">
<title>Node12</title>
<g id="a_node12"><a xlink:title=" ">
<polygon fill="white" stroke="#bfbfbf" points="203.5,-168.5 203.5,-187.5 282.5,-187.5 282.5,-168.5 203.5,-168.5"/>
<text text-anchor="middle" x="243" y="-175.5" font-family="Helvetica,sans-Serif" font-size="10.00">fmt/chrono.h</text>
</a>
</g>
</g>
<!-- Node3&#45;&gt;Node12 -->
<g id="edge12" class="edge">
<title>Node3&#45;&gt;Node12</title>
<path fill="none" stroke="midnightblue" d="M500.1,-225.32C451.7,-216.82 371.23,-202.61 292.62,-188.28"/>
<polygon fill="midnightblue" stroke="midnightblue" points="293.01,-184.8 282.55,-186.45 291.76,-191.68 293.01,-184.8"/>
</g>
<!-- Node13 -->
<g id="node13" class="node">
<title>Node13</title>
<g id="a_node13"><a xlink:title=" ">
<polygon fill="white" stroke="#bfbfbf" points="300,-168.5 300,-187.5 360,-187.5 360,-168.5 300,-168.5"/>
<text text-anchor="middle" x="330" y="-175.5" font-family="Helvetica,sans-Serif" font-size="10.00">iostream</text>
</a>
</g>
</g>
<!-- Node3&#45;&gt;Node13 -->
<g id="edge14" class="edge">
<title>Node3&#45;&gt;Node13</title>
<path fill="none" stroke="midnightblue" d="M510.09,-224.44C472.06,-214.85 410.44,-199.3 370.07,-189.11"/>
<polygon fill="midnightblue" stroke="midnightblue" points="370.84,-185.7 360.29,-186.64 369.13,-192.48 370.84,-185.7"/>
</g>
<!-- Node14 -->
<g id="node14" class="node">
<title>Node14</title>
<g id="a_node14"><a xlink:title=" ">
<polygon fill="white" stroke="#bfbfbf" points="378,-168.5 378,-187.5 488,-187.5 488,-168.5 378,-168.5"/>
<text text-anchor="middle" x="433" y="-175.5" font-family="Helvetica,sans-Serif" font-size="10.00">nlohmann/json.hpp</text>
</a>
</g>
</g>
<!-- Node3&#45;&gt;Node14 -->
<g id="edge15" class="edge">
<title>Node3&#45;&gt;Node14</title>
<path fill="none" stroke="midnightblue" d="M526.17,-224.32C508.28,-215.62 480.52,-202.12 459.95,-192.11"/>
<polygon fill="midnightblue" stroke="midnightblue" points="461.31,-188.88 450.79,-187.65 458.25,-195.18 461.31,-188.88"/>
</g>
<!-- Node15 -->
<g id="node15" class="node">
<title>Node15</title>
<g id="a_node15"><a xlink:title=" ">
<polygon fill="white" stroke="#bfbfbf" points="732,-112.5 732,-131.5 788,-131.5 788,-112.5 732,-112.5"/>
<text text-anchor="middle" x="760" y="-119.5" font-family="Helvetica,sans-Serif" font-size="10.00">optional</text>
</a>
</g>
</g>
<!-- Node3&#45;&gt;Node15 -->
<g id="edge16" class="edge">
<title>Node3&#45;&gt;Node15</title>
<path fill="none" stroke="midnightblue" d="M587.72,-231.1C649.12,-227.42 756.07,-216.92 780,-188 791.36,-174.27 782.37,-154.13 773.08,-139.92"/>
<polygon fill="midnightblue" stroke="midnightblue" points="775.79,-137.69 767.14,-131.56 770.08,-141.74 775.79,-137.69"/>
</g>
<!-- Node16 -->
<g id="node16" class="node">
<title>Node16</title>
<g id="a_node16"><a xlink:title=" ">
<polygon fill="white" stroke="#bfbfbf" points="544,-168.5 544,-187.5 600,-187.5 600,-168.5 544,-168.5"/>
<text text-anchor="middle" x="572" y="-175.5" font-family="Helvetica,sans-Serif" font-size="10.00">sstream</text>
</a>
</g>
</g>
<!-- Node3&#45;&gt;Node16 -->
<g id="edge17" class="edge">
<title>Node3&#45;&gt;Node16</title>
<path fill="none" stroke="midnightblue" d="M548.62,-224.08C552.46,-216.69 558.02,-205.95 562.76,-196.81"/>
<polygon fill="midnightblue" stroke="midnightblue" points="565.97,-198.24 567.46,-187.75 559.75,-195.02 565.97,-198.24"/>
</g>
<!-- Node17 -->
<g id="node17" class="node">
<title>Node17</title>
<g id="a_node17"><a xlink:title=" ">
<polygon fill="white" stroke="#bfbfbf" points="481.5,-0.5 481.5,-19.5 550.5,-19.5 550.5,-0.5 481.5,-0.5"/>
<text text-anchor="middle" x="516" y="-7.5" font-family="Helvetica,sans-Serif" font-size="10.00">type_traits</text>
</a>
</g>
</g>
<!-- Node3&#45;&gt;Node17 -->
<g id="edge18" class="edge">
<title>Node3&#45;&gt;Node17</title>
<path fill="none" stroke="midnightblue" d="M542.04,-224.41C540.04,-215.39 536.96,-200.76 535,-188 526.2,-130.59 520.08,-62.09 517.45,-29.71"/>
<polygon fill="midnightblue" stroke="midnightblue" points="520.92,-29.2 516.64,-19.51 513.94,-29.76 520.92,-29.2"/>
</g>
<!-- Node4&#45;&gt;Node5 -->
<g id="edge4" class="edge">
<title>Node4&#45;&gt;Node5</title>
<path fill="none" stroke="midnightblue" d="M684.18,-168.08C682.73,-160.93 680.63,-150.64 678.81,-141.69"/>
<polygon fill="midnightblue" stroke="midnightblue" points="682.21,-140.85 676.78,-131.75 675.35,-142.25 682.21,-140.85"/>
</g>
<!-- Node6&#45;&gt;Node5 -->
<g id="edge6" class="edge">
<title>Node6&#45;&gt;Node5</title>
<path fill="none" stroke="midnightblue" d="M185.27,-169.08C188.22,-168.7 191.15,-168.34 194,-168 351.08,-149.44 537.75,-133.81 625.18,-126.86"/>
<polygon fill="midnightblue" stroke="midnightblue" points="625.64,-130.33 635.34,-126.05 625.09,-123.35 625.64,-130.33"/>
</g>
<!-- Node7 -->
<g id="node7" class="node">
<title>Node7</title>
<g id="a_node7"><a xlink:title=" ">
<polygon fill="white" stroke="#bfbfbf" points="184,-112.5 184,-131.5 270,-131.5 270,-112.5 184,-112.5"/>
<text text-anchor="middle" x="227" y="-119.5" font-family="Helvetica,sans-Serif" font-size="10.00">fmt/ostream.h</text>
</a>
</g>
</g>
<!-- Node6&#45;&gt;Node7 -->
<g id="edge7" class="edge">
<title>Node6&#45;&gt;Node7</title>
<path fill="none" stroke="midnightblue" d="M146.42,-168.32C161.54,-159.82 184.82,-146.73 202.47,-136.8"/>
<polygon fill="midnightblue" stroke="midnightblue" points="204.61,-139.61 211.61,-131.65 201.18,-133.51 204.61,-139.61"/>
</g>
<!-- Node8 -->
<g id="node8" class="node">
<title>Node8</title>
<g id="a_node8"><a xlink:title=" ">
<polygon fill="white" stroke="#bfbfbf" points="288.5,-112.5 288.5,-131.5 349.5,-131.5 349.5,-112.5 288.5,-112.5"/>
<text text-anchor="middle" x="319" y="-119.5" font-family="Helvetica,sans-Serif" font-size="10.00">fmt/std.h</text>
</a>
</g>
</g>
<!-- Node6&#45;&gt;Node8 -->
<g id="edge8" class="edge">
<title>Node6&#45;&gt;Node8</title>
<path fill="none" stroke="midnightblue" d="M160.79,-168.44C192.83,-159.24 243.93,-144.56 279.35,-134.39"/>
<polygon fill="midnightblue" stroke="midnightblue" points="280.71,-137.64 289.35,-131.52 278.77,-130.91 280.71,-137.64"/>
</g>
<!-- Node9 -->
<g id="node9" class="node">
<title>Node9</title>
<g id="a_node9"><a xlink:title=" ">
<polygon fill="white" stroke="#bfbfbf" points="56,-112.5 56,-131.5 100,-131.5 100,-112.5 56,-112.5"/>
<text text-anchor="middle" x="78" y="-119.5" font-family="Helvetica,sans-Serif" font-size="10.00">limits</text>
</a>
</g>
</g>
<!-- Node6&#45;&gt;Node9 -->
<g id="edge9" class="edge">
<title>Node6&#45;&gt;Node9</title>
<path fill="none" stroke="midnightblue" d="M122.25,-168.08C114.53,-160.22 103.1,-148.57 93.78,-139.08"/>
<polygon fill="midnightblue" stroke="midnightblue" points="96.09,-136.44 86.59,-131.75 91.1,-141.34 96.09,-136.44"/>
</g>
<!-- Node6&#45;&gt;Node10 -->
<g id="edge10" class="edge">
<title>Node6&#45;&gt;Node10</title>
<path fill="none" stroke="midnightblue" d="M113.01,-168.32C94.96,-159.62 66.95,-146.12 46.2,-136.11"/>
<polygon fill="midnightblue" stroke="midnightblue" points="47.48,-132.84 36.95,-131.65 44.44,-139.15 47.48,-132.84"/>
</g>
<!-- Node11 -->
<g id="node11" class="node">
<title>Node11</title>
<g id="a_node11"><a xlink:title=" ">
<polygon fill="white" stroke="#bfbfbf" points="118,-112.5 118,-131.5 166,-131.5 166,-112.5 118,-112.5"/>
<text text-anchor="middle" x="142" y="-119.5" font-family="Helvetica,sans-Serif" font-size="10.00">thread</text>
</a>
</g>
</g>
<!-- Node6&#45;&gt;Node11 -->
<g id="edge11" class="edge">
<title>Node6&#45;&gt;Node11</title>
<path fill="none" stroke="midnightblue" d="M132.82,-168.08C134.27,-160.93 136.37,-150.64 138.19,-141.69"/>
<polygon fill="midnightblue" stroke="midnightblue" points="141.65,-142.25 140.22,-131.75 134.79,-140.85 141.65,-142.25"/>
</g>
<!-- Node19 -->
<g id="node19" class="node">
<title>Node19</title>
<g id="a_node19"><a xlink:href="ccf__memcpy_8h.html" target="_top" xlink:title=" ">
<polygon fill="white" stroke="black" points="1532,-56.5 1532,-75.5 1618,-75.5 1618,-56.5 1532,-56.5"/>
<text text-anchor="middle" x="1575" y="-63.5" font-family="Helvetica,sans-Serif" font-size="10.00">ccf_memcpy.h</text>
</a>
</g>
</g>
<!-- Node18&#45;&gt;Node19 -->
<g id="edge20" class="edge">
<title>Node18&#45;&gt;Node19</title>
<path fill="none" stroke="midnightblue" d="M1386.58,-224.4C1405.31,-216.41 1432.68,-203.44 1454,-188 1497.91,-156.2 1540.7,-108.25 1561.66,-83.34"/>
<polygon fill="midnightblue" stroke="midnightblue" points="1564.43,-85.48 1568.13,-75.55 1559.05,-81.01 1564.43,-85.48"/>
</g>
<!-- Node20 -->
<g id="node20" class="node">
<title>Node20</title>
<g id="a_node20"><a xlink:title=" ">
<polygon fill="white" stroke="#bfbfbf" points="1550,-0.5 1550,-19.5 1600,-19.5 1600,-0.5 1550,-0.5"/>
<text text-anchor="middle" x="1575" y="-7.5" font-family="Helvetica,sans-Serif" font-size="10.00">cstring</text>
</a>
</g>
</g>
<!-- Node18&#45;&gt;Node20 -->
<g id="edge57" class="edge">
<title>Node18&#45;&gt;Node20</title>
<path fill="none" stroke="midnightblue" d="M1401.76,-224.43C1462.84,-207.9 1582.87,-165.1 1627,-76 1636.65,-56.52 1617.01,-37.5 1599.17,-25.12"/>
<polygon fill="midnightblue" stroke="midnightblue" points="1600.98,-22.12 1590.69,-19.6 1597.17,-27.99 1600.98,-22.12"/>
</g>
<!-- Node21 -->
<g id="node21" class="node">
<title>Node21</title>
<g id="a_node21"><a xlink:href="ring__buffer__types_8h.html" target="_top" xlink:title=" ">
<polygon fill="white" stroke="black" points="925,-168.5 925,-187.5 1035,-187.5 1035,-168.5 925,-168.5"/>
<text text-anchor="middle" x="980" y="-175.5" font-family="Helvetica,sans-Serif" font-size="10.00">ring_buffer_types.h</text>
</a>
</g>
</g>
<!-- Node18&#45;&gt;Node21 -->
<g id="edge22" class="edge">
<title>Node18&#45;&gt;Node21</title>
<path fill="none" stroke="midnightblue" d="M1326.32,-227.58C1260.49,-218.34 1125.98,-199.47 1045.34,-188.16"/>
<polygon fill="midnightblue" stroke="midnightblue" points="1045.68,-184.68 1035.3,-186.76 1044.71,-191.61 1045.68,-184.68"/>
</g>
<!-- Node40 -->
<g id="node40" class="node">
<title>Node40</title>
<g id="a_node40"><a xlink:title=" ">
<polygon fill="white" stroke="#bfbfbf" points="1329.5,-168.5 1329.5,-187.5 1394.5,-187.5 1394.5,-168.5 1329.5,-168.5"/>
<text text-anchor="middle" x="1362" y="-175.5" font-family="Helvetica,sans-Serif" font-size="10.00">functional</text>
</a>
</g>
</g>
<!-- Node18&#45;&gt;Node40 -->
<g id="edge58" class="edge">
<title>Node18&#45;&gt;Node40</title>
<path fill="none" stroke="midnightblue" d="M1364.5,-224.08C1364.11,-217.01 1363.55,-206.86 1363.05,-197.99"/>
<polygon fill="midnightblue" stroke="midnightblue" points="1366.54,-197.54 1362.49,-187.75 1359.55,-197.93 1366.54,-197.54"/>
</g>
<!-- Node41 -->
<g id="node41" class="node">
<title>Node41</title>
<g id="a_node41"><a xlink:title=" ">
<polygon fill="white" stroke="#bfbfbf" points="1413,-168.5 1413,-187.5 1445,-187.5 1445,-168.5 1413,-168.5"/>
<text text-anchor="middle" x="1429" y="-175.5" font-family="Helvetica,sans-Serif" font-size="10.00">set</text>
</a>
</g>
</g>
<!-- Node18&#45;&gt;Node41 -->
<g id="edge59" class="edge">
<title>Node18&#45;&gt;Node41</title>
<path fill="none" stroke="midnightblue" d="M1375.28,-224.32C1384.84,-216.26 1399.28,-204.08 1410.78,-194.37"/>
<polygon fill="midnightblue" stroke="midnightblue" points="1413.14,-196.96 1418.53,-187.83 1408.63,-191.61 1413.14,-196.96"/>
</g>
<!-- Node19&#45;&gt;Node20 -->
<g id="edge21" class="edge">
<title>Node19&#45;&gt;Node20</title>
<path fill="none" stroke="midnightblue" d="M1575,-56.08C1575,-49.01 1575,-38.86 1575,-29.99"/>
<polygon fill="midnightblue" stroke="midnightblue" points="1578.5,-29.75 1575,-19.75 1571.5,-29.75 1578.5,-29.75"/>
</g>
<!-- Node21&#45;&gt;Node5 -->
<g id="edge53" class="edge">
<title>Node21&#45;&gt;Node5</title>
<path fill="none" stroke="midnightblue" d="M930.22,-168.47C880.55,-159.91 801.77,-146.23 724.46,-132.25"/>
<polygon fill="midnightblue" stroke="midnightblue" points="725.01,-128.79 714.55,-130.45 723.76,-135.68 725.01,-128.79"/>
</g>
<!-- Node21&#45;&gt;Node15 -->
<g id="edge54" class="edge">
<title>Node21&#45;&gt;Node15</title>
<path fill="none" stroke="midnightblue" d="M945.14,-168.44C905.04,-158.6 839.43,-142.5 798.04,-132.34"/>
<polygon fill="midnightblue" stroke="midnightblue" points="798.61,-128.87 788.06,-129.89 796.94,-135.67 798.61,-128.87"/>
</g>
<!-- Node22 -->
<g id="node22" class="node">
<title>Node22</title>
<g id="a_node22"><a xlink:href="include_2ccf_2ds_2hash_8h.html" target="_top" xlink:title=" ">
<polygon fill="white" stroke="black" points="1010,-112.5 1010,-131.5 1090,-131.5 1090,-112.5 1010,-112.5"/>
<text text-anchor="middle" x="1050" y="-119.5" font-family="Helvetica,sans-Serif" font-size="10.00">ccf/ds/hash.h</text>
</a>
</g>
</g>
<!-- Node21&#45;&gt;Node22 -->
<g id="edge23" class="edge">
<title>Node21&#45;&gt;Node22</title>
<path fill="none" stroke="midnightblue" d="M991.25,-168.32C1001.8,-160.18 1017.8,-147.84 1030.44,-138.09"/>
<polygon fill="midnightblue" stroke="midnightblue" points="1032.77,-140.71 1038.55,-131.83 1028.49,-135.17 1032.77,-140.71"/>
</g>
<!-- Node26 -->
<g id="node26" class="node">
<title>Node26</title>
<g id="a_node26"><a xlink:title=" ">
<polygon fill="white" stroke="#bfbfbf" points="994.5,-0.5 994.5,-19.5 1041.5,-19.5 1041.5,-0.5 994.5,-0.5"/>
<text text-anchor="middle" x="1018" y="-7.5" font-family="Helvetica,sans-Serif" font-size="10.00">vector</text>
</a>
</g>
</g>
<!-- Node21&#45;&gt;Node26 -->
<g id="edge56" class="edge">
<title>Node21&#45;&gt;Node26</title>
<path fill="none" stroke="midnightblue" d="M982.04,-168.08C988.02,-141.95 1005.59,-65.21 1013.75,-29.58"/>
<polygon fill="midnightblue" stroke="midnightblue" points="1017.22,-30.1 1016.04,-19.57 1010.4,-28.53 1017.22,-30.1"/>
</g>
<!-- Node29 -->
<g id="node29" class="node">
<title>Node29</title>
<g id="a_node29"><a xlink:href="nonstd_8h.html" target="_top" xlink:title=" ">
<polygon fill="white" stroke="black" points="612,-56.5 612,-75.5 702,-75.5 702,-56.5 612,-56.5"/>
<text text-anchor="middle" x="657" y="-63.5" font-family="Helvetica,sans-Serif" font-size="10.00">ccf/ds/nonstd.h</text>
</a>
</g>
</g>
<!-- Node21&#45;&gt;Node29 -->
<g id="edge32" class="edge">
<title>Node21&#45;&gt;Node29</title>
<path fill="none" stroke="midnightblue" d="M946.27,-168.42C916.48,-160.41 872.14,-147.38 835,-132 817.37,-124.7 814.6,-119.39 797,-112 764.82,-98.48 727.09,-86.57 698.9,-78.4"/>
<polygon fill="midnightblue" stroke="midnightblue" points="699.56,-74.95 688.98,-75.57 697.64,-81.68 699.56,-74.95"/>
</g>
<!-- Node32 -->
<g id="node32" class="node">
<title>Node32</title>
<g id="a_node32"><a xlink:title=" ">
<polygon fill="white" stroke="#bfbfbf" points="869,-0.5 869,-19.5 913,-19.5 913,-0.5 869,-0.5"/>
<text text-anchor="middle" x="891" y="-7.5" font-family="Helvetica,sans-Serif" font-size="10.00">string</text>
</a>
</g>
</g>
<!-- Node21&#45;&gt;Node32 -->
<g id="edge55" class="edge">
<title>Node21&#45;&gt;Node32</title>
<path fill="none" stroke="midnightblue" d="M975.21,-168.08C961.08,-141.72 919.35,-63.88 900.47,-28.66"/>
<polygon fill="midnightblue" stroke="midnightblue" points="903.4,-26.73 895.59,-19.57 897.23,-30.04 903.4,-26.73"/>
</g>
<!-- Node34 -->
<g id="node34" class="node">
<title>Node34</title>
<g id="a_node34"><a xlink:href="serializer_8h.html" target="_top" xlink:title=" ">
<polygon fill="white" stroke="black" points="844,-112.5 844,-131.5 914,-131.5 914,-112.5 844,-112.5"/>
<text text-anchor="middle" x="879" y="-119.5" font-family="Helvetica,sans-Serif" font-size="10.00">serializer.h</text>
</a>
</g>
</g>
<!-- Node21&#45;&gt;Node34 -->
<g id="edge40" class="edge">
<title>Node21&#45;&gt;Node34</title>
<path fill="none" stroke="midnightblue" d="M963.77,-168.32C947.65,-159.7 922.7,-146.36 904.04,-136.39"/>
<polygon fill="midnightblue" stroke="midnightblue" points="905.66,-133.28 895.19,-131.65 902.36,-139.46 905.66,-133.28"/>
</g>
<!-- Node21&#45;&gt;Node39 -->
<g id="edge52" class="edge">
<title>Node21&#45;&gt;Node39</title>
<path fill="none" stroke="midnightblue" d="M1004.56,-168.44C1030.52,-159.4 1071.67,-145.06 1100.8,-134.92"/>
<polygon fill="midnightblue" stroke="midnightblue" points="1102.26,-138.11 1110.55,-131.52 1099.96,-131.5 1102.26,-138.11"/>
</g>
<!-- Node23 -->
<g id="node23" class="node">
<title>Node23</title>
<g id="a_node23"><a xlink:href="siphash_8h.html" target="_top" xlink:title=" ">
<polygon fill="white" stroke="black" points="1250.5,-56.5 1250.5,-75.5 1345.5,-75.5 1345.5,-56.5 1250.5,-56.5"/>
<text text-anchor="middle" x="1298" y="-63.5" font-family="Helvetica,sans-Serif" font-size="10.00">ccf/ds/siphash.h</text>
</a>
</g>
</g>
<!-- Node22&#45;&gt;Node23 -->
<g id="edge24" class="edge">
<title>Node22&#45;&gt;Node23</title>
<path fill="none" stroke="midnightblue" d="M1089.3,-112.44C1132.56,-103.02 1202.17,-87.87 1248.97,-77.68"/>
<polygon fill="midnightblue" stroke="midnightblue" points="1249.86,-81.06 1258.89,-75.52 1248.37,-74.22 1249.86,-81.06"/>
</g>
<!-- Node25 -->
<g id="node25" class="node">
<title>Node25</title>
<g id="a_node25"><a xlink:title=" ">
<polygon fill="white" stroke="#bfbfbf" points="1349,-0.5 1349,-19.5 1399,-19.5 1399,-0.5 1349,-0.5"/>
<text text-anchor="middle" x="1374" y="-7.5" font-family="Helvetica,sans-Serif" font-size="10.00">cstdint</text>
</a>
</g>
</g>
<!-- Node22&#45;&gt;Node25 -->
<g id="edge29" class="edge">
<title>Node22&#45;&gt;Node25</title>
<path fill="none" stroke="midnightblue" d="M1090.07,-113.8C1093.76,-113.17 1097.45,-112.57 1101,-112 1157.08,-103.06 1310.82,-112.88 1354,-76 1367.31,-64.64 1371.91,-44.64 1373.43,-29.82"/>
<polygon fill="midnightblue" stroke="midnightblue" points="1376.93,-29.93 1374.08,-19.72 1369.94,-29.48 1376.93,-29.93"/>
</g>
<!-- Node22&#45;&gt;Node26 -->
<g id="edge31" class="edge">
<title>Node22&#45;&gt;Node26</title>
<path fill="none" stroke="midnightblue" d="M1047.24,-112.4C1044.35,-103.36 1039.74,-88.72 1036,-76 1031.41,-60.38 1026.49,-42.55 1022.96,-29.52"/>
<polygon fill="midnightblue" stroke="midnightblue" points="1026.34,-28.6 1020.36,-19.86 1019.58,-30.42 1026.34,-28.6"/>
</g>
<!-- Node27 -->
<g id="node27" class="node">
<title>Node27</title>
<g id="a_node27"><a xlink:title=" ">
<polygon fill="white" stroke="#bfbfbf" points="809,-0.5 809,-19.5 851,-19.5 851,-0.5 809,-0.5"/>
<text text-anchor="middle" x="830" y="-7.5" font-family="Helvetica,sans-Serif" font-size="10.00">array</text>
</a>
</g>
</g>
<!-- Node22&#45;&gt;Node27 -->
<g id="edge28" class="edge">
<title>Node22&#45;&gt;Node27</title>
<path fill="none" stroke="midnightblue" d="M1032.74,-112.37C994.34,-93.17 901.68,-46.84 856.15,-24.07"/>
<polygon fill="midnightblue" stroke="midnightblue" points="857.69,-20.93 847.18,-19.59 854.56,-27.19 857.69,-20.93"/>
</g>
<!-- Node28 -->
<g id="node28" class="node">
<title>Node28</title>
<g id="a_node28"><a xlink:title=" ">
<polygon fill="white" stroke="#bfbfbf" points="1045.5,-56.5 1045.5,-75.5 1194.5,-75.5 1194.5,-56.5 1045.5,-56.5"/>
<text text-anchor="middle" x="1120" y="-63.5" font-family="Helvetica,sans-Serif" font-size="10.00">small_vector/SmallVector.h</text>
</a>
</g>
</g>
<!-- Node22&#45;&gt;Node28 -->
<g id="edge30" class="edge">
<title>Node22&#45;&gt;Node28</title>
<path fill="none" stroke="midnightblue" d="M1061.25,-112.32C1071.8,-104.18 1087.8,-91.84 1100.44,-82.09"/>
<polygon fill="midnightblue" stroke="midnightblue" points="1102.77,-84.71 1108.55,-75.83 1098.49,-79.17 1102.77,-84.71"/>
</g>
<!-- Node24 -->
<g id="node24" class="node">
<title>Node24</title>
<g id="a_node24"><a xlink:title=" ">
<polygon fill="white" stroke="#bfbfbf" points="1271.5,-0.5 1271.5,-19.5 1324.5,-19.5 1324.5,-0.5 1271.5,-0.5"/>
<text text-anchor="middle" x="1298" y="-7.5" font-family="Helvetica,sans-Serif" font-size="10.00">cstddef</text>
</a>
</g>
</g>
<!-- Node23&#45;&gt;Node24 -->
<g id="edge25" class="edge">
<title>Node23&#45;&gt;Node24</title>
<path fill="none" stroke="midnightblue" d="M1298,-56.08C1298,-49.01 1298,-38.86 1298,-29.99"/>
<polygon fill="midnightblue" stroke="midnightblue" points="1301.5,-29.75 1298,-19.75 1294.5,-29.75 1301.5,-29.75"/>
</g>
<!-- Node23&#45;&gt;Node25 -->
<g id="edge26" class="edge">
<title>Node23&#45;&gt;Node25</title>
<path fill="none" stroke="midnightblue" d="M1310.21,-56.32C1321.78,-48.11 1339.38,-35.6 1353.16,-25.81"/>
<polygon fill="midnightblue" stroke="midnightblue" points="1355.44,-28.48 1361.57,-19.83 1351.39,-22.77 1355.44,-28.48"/>
</g>
<!-- Node23&#45;&gt;Node26 -->
<g id="edge27" class="edge">
<title>Node23&#45;&gt;Node26</title>
<path fill="none" stroke="midnightblue" d="M1253.63,-56.44C1197.49,-45.62 1102.03,-27.21 1051.57,-17.47"/>
<polygon fill="midnightblue" stroke="midnightblue" points="1052,-13.99 1041.52,-15.54 1050.67,-20.87 1052,-13.99"/>
</g>
<!-- Node29&#45;&gt;Node17 -->
<g id="edge38" class="edge">
<title>Node29&#45;&gt;Node17</title>
<path fill="none" stroke="midnightblue" d="M634.66,-56.44C611.25,-47.48 574.26,-33.31 547.81,-23.18"/>
<polygon fill="midnightblue" stroke="midnightblue" points="548.83,-19.82 538.24,-19.52 546.32,-26.36 548.83,-19.82"/>
</g>
<!-- Node29&#45;&gt;Node26 -->
<g id="edge39" class="edge">
<title>Node29&#45;&gt;Node26</title>
<path fill="none" stroke="midnightblue" d="M702.07,-57.42C705.09,-56.93 708.09,-56.46 711,-56 810.24,-40.46 927.8,-23.68 984.33,-15.71"/>
<polygon fill="midnightblue" stroke="midnightblue" points="985.07,-19.15 994.48,-14.29 984.09,-12.21 985.07,-19.15"/>
</g>
<!-- Node29&#45;&gt;Node27 -->
<g id="edge34" class="edge">
<title>Node29&#45;&gt;Node27</title>
<path fill="none" stroke="midnightblue" d="M684.41,-56.44C715.62,-46.7 766.48,-30.83 799.08,-20.65"/>
<polygon fill="midnightblue" stroke="midnightblue" points="800.47,-23.88 808.97,-17.56 798.39,-17.2 800.47,-23.88"/>
</g>
<!-- Node30 -->
<g id="node30" class="node">
<title>Node30</title>
<g id="a_node30"><a xlink:title=" ">
<polygon fill="white" stroke="#bfbfbf" points="727,-0.5 727,-19.5 791,-19.5 791,-0.5 727,-0.5"/>
<text text-anchor="middle" x="759" y="-7.5" font-family="Helvetica,sans-Serif" font-size="10.00">algorithm</text>
</a>
</g>
</g>
<!-- Node29&#45;&gt;Node30 -->
<g id="edge33" class="edge">
<title>Node29&#45;&gt;Node30</title>
<path fill="none" stroke="midnightblue" d="M673.39,-56.32C689.67,-47.7 714.87,-34.36 733.72,-24.39"/>
<polygon fill="midnightblue" stroke="midnightblue" points="735.45,-27.43 742.65,-19.65 732.18,-21.24 735.45,-27.43"/>
</g>
<!-- Node31 -->
<g id="node31" class="node">
<title>Node31</title>
<g id="a_node31"><a xlink:title=" ">
<polygon fill="white" stroke="#bfbfbf" points="568.5,-0.5 568.5,-19.5 617.5,-19.5 617.5,-0.5 568.5,-0.5"/>
<text text-anchor="middle" x="593" y="-7.5" font-family="Helvetica,sans-Serif" font-size="10.00">cctype</text>
</a>
</g>
</g>
<!-- Node29&#45;&gt;Node31 -->
<g id="edge35" class="edge">
<title>Node29&#45;&gt;Node31</title>
<path fill="none" stroke="midnightblue" d="M646.72,-56.32C637.16,-48.26 622.72,-36.08 611.22,-26.37"/>
<polygon fill="midnightblue" stroke="midnightblue" points="613.37,-23.61 603.47,-19.83 608.86,-28.96 613.37,-23.61"/>
</g>
<!-- Node29&#45;&gt;Node32 -->
<g id="edge36" class="edge">
<title>Node29&#45;&gt;Node32</title>
<path fill="none" stroke="midnightblue" d="M699.18,-56.48C738.27,-48.39 798.26,-35.52 858.95,-20.15"/>
<polygon fill="midnightblue" stroke="midnightblue" points="859.87,-23.53 868.7,-17.66 858.14,-16.74 859.87,-23.53"/>
</g>
<!-- Node33 -->
<g id="node33" class="node">
<title>Node33</title>
<g id="a_node33"><a xlink:title=" ">
<polygon fill="white" stroke="#bfbfbf" points="635.5,-0.5 635.5,-19.5 708.5,-19.5 708.5,-0.5 635.5,-0.5"/>
<text text-anchor="middle" x="672" y="-7.5" font-family="Helvetica,sans-Serif" font-size="10.00">string_view</text>
</a>
</g>
</g>
<!-- Node29&#45;&gt;Node33 -->
<g id="edge37" class="edge">
<title>Node29&#45;&gt;Node33</title>
<path fill="none" stroke="midnightblue" d="M659.48,-56.08C661.49,-48.85 664.39,-38.41 666.89,-29.4"/>
<polygon fill="midnightblue" stroke="midnightblue" points="670.26,-30.32 669.57,-19.75 663.52,-28.45 670.26,-30.32"/>
</g>
<!-- Node34&#45;&gt;Node17 -->
<g id="edge50" class="edge">
<title>Node34&#45;&gt;Node17</title>
<path fill="none" stroke="midnightblue" d="M843.92,-117.39C779.7,-110.42 645.9,-94.22 603,-76 575.51,-64.33 548.74,-42.21 532.31,-27.05"/>
<polygon fill="midnightblue" stroke="midnightblue" points="534.38,-24.19 524.72,-19.85 529.56,-29.27 534.38,-24.19"/>
</g>
<!-- Node34&#45;&gt;Node26 -->
<g id="edge51" class="edge">
<title>Node34&#45;&gt;Node26</title>
<path fill="none" stroke="midnightblue" d="M889.91,-112.37C913.56,-93.65 969.79,-49.15 999.26,-25.83"/>
<polygon fill="midnightblue" stroke="midnightblue" points="1001.47,-28.54 1007.14,-19.59 997.13,-23.05 1001.47,-28.54"/>
</g>
<!-- Node34&#45;&gt;Node29 -->
<g id="edge41" class="edge">
<title>Node34&#45;&gt;Node29</title>
<path fill="none" stroke="midnightblue" d="M843.82,-112.44C805.42,-103.1 743.82,-88.12 701.94,-77.93"/>
<polygon fill="midnightblue" stroke="midnightblue" points="702.56,-74.48 692.01,-75.52 700.9,-81.28 702.56,-74.48"/>
</g>
<!-- Node35 -->
<g id="node35" class="node">
<title>Node35</title>
<g id="a_node35"><a xlink:href="serialized_8h.html" target="_top" xlink:title=" ">
<polygon fill="white" stroke="black" points="1402.5,-56.5 1402.5,-75.5 1475.5,-75.5 1475.5,-56.5 1402.5,-56.5"/>
<text text-anchor="middle" x="1439" y="-63.5" font-family="Helvetica,sans-Serif" font-size="10.00">serialized.h</text>
</a>
</g>
</g>
<!-- Node34&#45;&gt;Node35 -->
<g id="edge42" class="edge">
<title>Node34&#45;&gt;Node35</title>
<path fill="none" stroke="midnightblue" d="M914.17,-117.8C992.95,-110.61 1189.57,-92.49 1354,-76 1366.34,-74.76 1379.69,-73.37 1392.07,-72.06"/>
<polygon fill="midnightblue" stroke="midnightblue" points="1392.62,-75.52 1402.19,-70.99 1391.88,-68.56 1392.62,-75.52"/>
</g>
<!-- Node37 -->
<g id="node37" class="node">
<title>Node37</title>
<g id="a_node37"><a xlink:title=" ">
<polygon fill="white" stroke="#bfbfbf" points="720,-56.5 720,-75.5 778,-75.5 778,-56.5 720,-56.5"/>
<text text-anchor="middle" x="749" y="-63.5" font-family="Helvetica,sans-Serif" font-size="10.00">memory</text>
</a>
</g>
</g>
<!-- Node34&#45;&gt;Node37 -->
<g id="edge48" class="edge">
<title>Node34&#45;&gt;Node37</title>
<path fill="none" stroke="midnightblue" d="M858.4,-112.44C837.01,-103.56 803.32,-89.56 778.98,-79.45"/>
<polygon fill="midnightblue" stroke="midnightblue" points="780.08,-76.12 769.5,-75.52 777.39,-82.58 780.08,-76.12"/>
</g>
<!-- Node38 -->
<g id="node38" class="node">
<title>Node38</title>
<g id="a_node38"><a xlink:title=" ">
<polygon fill="white" stroke="#bfbfbf" points="796.5,-56.5 796.5,-75.5 837.5,-75.5 837.5,-56.5 796.5,-56.5"/>
<text text-anchor="middle" x="817" y="-63.5" font-family="Helvetica,sans-Serif" font-size="10.00">tuple</text>
</a>
</g>
</g>
<!-- Node34&#45;&gt;Node38 -->
<g id="edge49" class="edge">
<title>Node34&#45;&gt;Node38</title>
<path fill="none" stroke="midnightblue" d="M869.04,-112.32C859.87,-104.34 846.06,-92.31 834.97,-82.65"/>
<polygon fill="midnightblue" stroke="midnightblue" points="836.98,-79.76 827.14,-75.83 832.38,-85.04 836.98,-79.76"/>
</g>
<!-- Node35&#45;&gt;Node20 -->
<g id="edge44" class="edge">
<title>Node35&#45;&gt;Node20</title>
<path fill="none" stroke="midnightblue" d="M1460.55,-56.44C1483.03,-47.52 1518.49,-33.44 1543.98,-23.32"/>
<polygon fill="midnightblue" stroke="midnightblue" points="1545.55,-26.46 1553.55,-19.52 1542.97,-19.95 1545.55,-26.46"/>
</g>
<!-- Node35&#45;&gt;Node25 -->
<g id="edge43" class="edge">
<title>Node35&#45;&gt;Node25</title>
<path fill="none" stroke="midnightblue" d="M1428.56,-56.32C1418.85,-48.26 1404.18,-36.08 1392.5,-26.37"/>
<polygon fill="midnightblue" stroke="midnightblue" points="1394.56,-23.53 1384.63,-19.83 1390.09,-28.92 1394.56,-23.53"/>
</g>
<!-- Node35&#45;&gt;Node26 -->
<g id="edge47" class="edge">
<title>Node35&#45;&gt;Node26</title>
<path fill="none" stroke="midnightblue" d="M1402.38,-60.3C1321.75,-49.96 1129.87,-25.35 1051.86,-15.34"/>
<polygon fill="midnightblue" stroke="midnightblue" points="1051.99,-11.83 1041.63,-14.03 1051.1,-18.77 1051.99,-11.83"/>
</g>
<!-- Node35&#45;&gt;Node32 -->
<g id="edge46" class="edge">
<title>Node35&#45;&gt;Node32</title>
<path fill="none" stroke="midnightblue" d="M1402.19,-61.03C1387.24,-59.44 1369.8,-57.6 1354,-56 1269.94,-47.46 1013.97,-22.82 923.28,-14.1"/>
<polygon fill="midnightblue" stroke="midnightblue" points="923.35,-10.59 913.06,-13.12 922.68,-17.56 923.35,-10.59"/>
</g>
<!-- Node35&#45;&gt;Node36 -->
<g id="edge45" class="edge">
<title>Node35&#45;&gt;Node36</title>
<path fill="none" stroke="midnightblue" d="M1444.94,-56.08C1449.98,-48.53 1457.34,-37.49 1463.51,-28.23"/>
<polygon fill="midnightblue" stroke="midnightblue" points="1466.53,-30.01 1469.17,-19.75 1460.71,-26.13 1466.53,-30.01"/>
</g>
<!-- Node43&#45;&gt;Node21 -->
<g id="edge71" class="edge">
<title>Node43&#45;&gt;Node21</title>
<path fill="none" stroke="midnightblue" d="M1238.79,-399.6C1166.56,-394.69 1040.9,-375.07 970,-300 946.42,-275.03 947.67,-257.32 956,-224 958.44,-214.25 963.44,-204.29 968.24,-196.23"/>
<polygon fill="midnightblue" stroke="midnightblue" points="971.21,-198.08 973.63,-187.77 965.31,-194.32 971.21,-198.08"/>
</g>
<!-- Node43&#45;&gt;Node26 -->
<g id="edge73" class="edge">
<title>Node43&#45;&gt;Node26</title>
<path fill="none" stroke="midnightblue" d="M1279.81,-392.37C1267.8,-384.37 1250.99,-371.39 1241,-356 1224.62,-330.75 1222,-321.1 1222,-291 1222,-291 1222,-291 1222,-121 1222,-90.9 1224.76,-76.79 1203,-56 1181.5,-35.46 1098.86,-21.57 1051.63,-15.12"/>
<polygon fill="midnightblue" stroke="midnightblue" points="1051.93,-11.63 1041.56,-13.79 1051.01,-18.57 1051.93,-11.63"/>
</g>
<!-- Node44 -->
<g id="node44" class="node">
<title>Node44</title>
<g id="a_node44"><a xlink:href="oversized_8h.html" target="_top" xlink:title=" ">
<polygon fill="white" stroke="black" points="1250.5,-336.5 1250.5,-355.5 1337.5,-355.5 1337.5,-336.5 1250.5,-336.5"/>
<text text-anchor="middle" x="1294" y="-343.5" font-family="Helvetica,sans-Serif" font-size="10.00">ds/oversized.h</text>
</a>
</g>
</g>
<!-- Node43&#45;&gt;Node44 -->
<g id="edge65" class="edge">
<title>Node43&#45;&gt;Node44</title>
<path fill="none" stroke="midnightblue" d="M1294,-392.08C1294,-385.01 1294,-374.86 1294,-365.99"/>
<polygon fill="midnightblue" stroke="midnightblue" points="1297.5,-365.75 1294,-355.75 1290.5,-365.75 1297.5,-365.75"/>
</g>
<!-- Node43&#45;&gt;Node46 -->
<g id="edge72" class="edge">
<title>Node43&#45;&gt;Node46</title>
<path fill="none" stroke="midnightblue" d="M1307.98,-392.32C1321.55,-383.9 1342.38,-370.97 1358.32,-361.07"/>
<polygon fill="midnightblue" stroke="midnightblue" points="1360.41,-363.9 1367.06,-355.65 1356.71,-357.95 1360.41,-363.9"/>
</g>
<!-- Node44&#45;&gt;Node2 -->
<g id="edge66" class="edge">
<title>Node44&#45;&gt;Node2</title>
<path fill="none" stroke="midnightblue" d="M1251.53,-336.44C1204.59,-326.98 1128.92,-311.74 1078.35,-301.55"/>
<polygon fill="midnightblue" stroke="midnightblue" points="1078.76,-298.06 1068.27,-299.52 1077.38,-304.92 1078.76,-298.06"/>
</g>
<!-- Node44&#45;&gt;Node5 -->
<g id="edge69" class="edge">
<title>Node44&#45;&gt;Node5</title>
<path fill="none" stroke="midnightblue" d="M1281.7,-336.22C1250.03,-314.01 1162.42,-255.18 1081,-224 1010.91,-197.16 988.92,-205.78 916,-188 844.81,-170.64 762.52,-147.86 714.85,-134.39"/>
<polygon fill="midnightblue" stroke="midnightblue" points="715.51,-130.94 704.94,-131.58 713.6,-137.67 715.51,-130.94"/>
</g>
<!-- Node44&#45;&gt;Node18 -->
<g id="edge67" class="edge">
<title>Node44&#45;&gt;Node18</title>
<path fill="none" stroke="midnightblue" d="M1299.57,-336.37C1311.24,-318.3 1338.42,-276.18 1353.83,-252.31"/>
<polygon fill="midnightblue" stroke="midnightblue" points="1356.97,-253.89 1359.45,-243.59 1351.09,-250.1 1356.97,-253.89"/>
</g>
<!-- Node44&#45;&gt;Node35 -->
<g id="edge68" class="edge">
<title>Node44&#45;&gt;Node35</title>
<path fill="none" stroke="midnightblue" d="M1294.52,-336.45C1295.61,-317.95 1298,-272.84 1298,-235 1298,-235 1298,-235 1298,-177 1298,-125.26 1357.74,-94.27 1399.45,-78.94"/>
<polygon fill="midnightblue" stroke="midnightblue" points="1400.82,-82.17 1409.1,-75.55 1398.5,-75.56 1400.82,-82.17"/>
</g>
<!-- Node44&#45;&gt;Node45 -->
<g id="edge70" class="edge">
<title>Node44&#45;&gt;Node45</title>
<path fill="none" stroke="midnightblue" d="M1315.23,-336.44C1337.38,-327.52 1372.32,-313.44 1397.44,-303.32"/>
<polygon fill="midnightblue" stroke="midnightblue" points="1398.9,-306.5 1406.87,-299.52 1396.28,-300.01 1398.9,-306.5"/>
</g>
</g>
</svg>
