<?xml version="1.0" encoding="UTF-8" standalone="no"?>
<!DOCTYPE svg PUBLIC "-//W3C//DTD SVG 1.1//EN"
 "http://www.w3.org/Graphics/SVG/1.1/DTD/svg11.dtd">
<!-- Generated by graphviz version 2.43.0 (0)
 -->
<!-- Title: include/ccf/node/quote.h Pages: 1 -->
<!--zoomable 364 -->
<svg id="main" version="1.1" xmlns="http://www.w3.org/2000/svg" xmlns:xlink="http://www.w3.org/1999/xlink" xml:space="preserve" onload="init(evt)">
<style type="text/css"><![CDATA[
.edge:hover path { stroke: red; }
.edge:hover polygon { stroke: red; fill: red; }
]]></style>
<script type="text/javascript"><![CDATA[
var edges = document.getElementsByTagName('g');
if (edges && edges.length) {
  for (var i=0;i<edges.length;i++) {
    if (edges[i].id.substr(0,4)=='edge') {
      edges[i].setAttribute('class','edge');
    }
  }
}
]]></script>
        <defs>
                <circle id="rim" cx="0" cy="0" r="7"/>
                <circle id="rim2" cx="0" cy="0" r="3.5"/>
                <g id="zoomPlus">
                        <use xlink:href="#rim" fill="#404040">
                                <set attributeName="fill" to="#808080" begin="zoomplus.mouseover" end="zoomplus.mouseout"/>
                        </use>
                        <path d="M-4,0h8M0,-4v8" fill="none" stroke="white" stroke-width="1.5" pointer-events="none"/>
                </g>
                <g id="zoomMin">
                        <use xlink:href="#rim" fill="#404040">
                                <set attributeName="fill" to="#808080" begin="zoomminus.mouseover" end="zoomminus.mouseout"/>
                        </use>
                        <path d="M-4,0h8" fill="none" stroke="white" stroke-width="1.5" pointer-events="none"/>
                </g>
                <g id="dirArrow">
                        <path fill="none" stroke="white" stroke-width="1.5" d="M0,-3.0v7 M-2.5,-0.5L0,-3.0L2.5,-0.5"/>
                </g>
               <g id="resetDef">
                       <use xlink:href="#rim2" fill="#404040">
                               <set attributeName="fill" to="#808080" begin="reset.mouseover" end="reset.mouseout"/>
                       </use>
               </g>
        </defs>

<script type="text/javascript">
var viewWidth = 1484;
var viewHeight = 364;
var sectionId = 'dynsection-0';
</script>
<script xlink:href="svgpan.js"/>
<svg id="graph" class="graph">
<g id="viewport">
<title>include/ccf/node/quote.h</title>
<polygon fill="white" stroke="transparent" points="-4,4 -4,-360 1479.57,-360 1479.57,4 -4,4"/>
<!-- Node1 -->
<g id="node1" class="node">
<title>Node1</title>
<g id="a_node1"><a xlink:title=" ">
<polygon fill="#bfbfbf" stroke="black" points="224,-336.5 224,-355.5 360,-355.5 360,-336.5 224,-336.5"/>
<text text-anchor="middle" x="292" y="-343.5" font-family="Helvetica,sans-Serif" font-size="10.00">include/ccf/node/quote.h</text>
</a>
</g>
</g>
<!-- Node2 -->
<g id="node2" class="node">
<title>Node2</title>
<g id="a_node2"><a xlink:href="quote__info_8h.html" target="_top" xlink:title=" ">
<polygon fill="white" stroke="black" points="130.5,-224.5 130.5,-243.5 225.5,-243.5 225.5,-224.5 130.5,-224.5"/>
<text text-anchor="middle" x="178" y="-231.5" font-family="Helvetica,sans-Serif" font-size="10.00">ccf/quote_info.h</text>
</a>
</g>
</g>
<!-- Node1&#45;&gt;Node2 -->
<g id="edge1" class="edge">
<title>Node1&#45;&gt;Node2</title>
<path fill="none" stroke="midnightblue" d="M269.69,-336.35C252.53,-328.81 229.1,-316.49 213,-300 199.87,-286.55 190.3,-267.19 184.52,-253.09"/>
<polygon fill="midnightblue" stroke="midnightblue" points="187.7,-251.61 180.84,-243.53 181.16,-254.12 187.7,-251.61"/>
</g>
<!-- Node6 -->
<g id="node6" class="node">
<title>Node6</title>
<g id="a_node6"><a xlink:title=" ">
<polygon fill="white" stroke="#bfbfbf" points="52.5,-0.5 52.5,-19.5 99.5,-19.5 99.5,-0.5 52.5,-0.5"/>
<text text-anchor="middle" x="76" y="-7.5" font-family="Helvetica,sans-Serif" font-size="10.00">vector</text>
</a>
</g>
</g>
<!-- Node1&#45;&gt;Node6 -->
<g id="edge67" class="edge">
<title>Node1&#45;&gt;Node6</title>
<path fill="none" stroke="midnightblue" d="M240.47,-336.5C156.64,-321.19 0,-285.79 0,-235 0,-235 0,-235 0,-121 0,-81.28 33.96,-45.5 56.48,-26.15"/>
<polygon fill="midnightblue" stroke="midnightblue" points="58.98,-28.63 64.46,-19.57 54.52,-23.24 58.98,-28.63"/>
</g>
<!-- Node17 -->
<g id="node17" class="node">
<title>Node17</title>
<g id="a_node17"><a xlink:href="code__digest_8h.html" target="_top" xlink:title=" ">
<polygon fill="white" stroke="black" points="222,-280.5 222,-299.5 362,-299.5 362,-280.5 222,-280.5"/>
<text text-anchor="middle" x="292" y="-287.5" font-family="Helvetica,sans-Serif" font-size="10.00">ccf/service/code_digest.h</text>
</a>
</g>
</g>
<!-- Node1&#45;&gt;Node17 -->
<g id="edge20" class="edge">
<title>Node1&#45;&gt;Node17</title>
<path fill="none" stroke="midnightblue" d="M292,-336.08C292,-329.01 292,-318.86 292,-309.99"/>
<polygon fill="midnightblue" stroke="midnightblue" points="295.5,-309.75 292,-299.75 288.5,-309.75 295.5,-309.75"/>
</g>
<!-- Node21 -->
<g id="node21" class="node">
<title>Node21</title>
<g id="a_node21"><a xlink:href="tx_8h.html" target="_top" xlink:title=" ">
<polygon fill="white" stroke="black" points="1016.5,-280.5 1016.5,-299.5 1069.5,-299.5 1069.5,-280.5 1016.5,-280.5"/>
<text text-anchor="middle" x="1043" y="-287.5" font-family="Helvetica,sans-Serif" font-size="10.00">ccf/tx.h</text>
</a>
</g>
</g>
<!-- Node1&#45;&gt;Node21 -->
<g id="edge32" class="edge">
<title>Node1&#45;&gt;Node21</title>
<path fill="none" stroke="midnightblue" d="M360.3,-340.09C515.09,-328.96 888.29,-302.12 1006.47,-293.63"/>
<polygon fill="midnightblue" stroke="midnightblue" points="1006.73,-297.12 1016.46,-292.91 1006.23,-290.13 1006.73,-297.12"/>
</g>
<!-- Node33 -->
<g id="node33" class="node">
<title>Node33</title>
<g id="a_node33"><a xlink:title=" ">
<polygon fill="white" stroke="#bfbfbf" points="1407,-112.5 1407,-131.5 1463,-131.5 1463,-112.5 1407,-112.5"/>
<text text-anchor="middle" x="1435" y="-119.5" font-family="Helvetica,sans-Serif" font-size="10.00">optional</text>
</a>
</g>
</g>
<!-- Node1&#45;&gt;Node33 -->
<g id="edge66" class="edge">
<title>Node1&#45;&gt;Node33</title>
<path fill="none" stroke="midnightblue" d="M360.23,-344.56C497.13,-342.92 814.82,-335.26 1079,-300 1198.32,-284.07 1233.57,-291.93 1344,-244 1383.81,-226.72 1400.8,-224.68 1424,-188 1432.7,-174.25 1435.13,-155.72 1435.57,-141.96"/>
<polygon fill="midnightblue" stroke="midnightblue" points="1439.07,-141.74 1435.56,-131.74 1432.07,-141.74 1439.07,-141.74"/>
</g>
<!-- Node3 -->
<g id="node3" class="node">
<title>Node3</title>
<g id="a_node3"><a xlink:href="json_8h.html" target="_top" xlink:title=" ">
<polygon fill="white" stroke="black" points="358.5,-168.5 358.5,-187.5 435.5,-187.5 435.5,-168.5 358.5,-168.5"/>
<text text-anchor="middle" x="397" y="-175.5" font-family="Helvetica,sans-Serif" font-size="10.00">ccf/ds/json.h</text>
</a>
</g>
</g>
<!-- Node2&#45;&gt;Node3 -->
<g id="edge2" class="edge">
<title>Node2&#45;&gt;Node3</title>
<path fill="none" stroke="midnightblue" d="M212.7,-224.44C250.58,-215.1 311.35,-200.12 352.66,-189.93"/>
<polygon fill="midnightblue" stroke="midnightblue" points="353.59,-193.31 362.46,-187.52 351.91,-186.51 353.59,-193.31"/>
</g>
<!-- Node2&#45;&gt;Node6 -->
<g id="edge19" class="edge">
<title>Node2&#45;&gt;Node6</title>
<path fill="none" stroke="midnightblue" d="M170.27,-224.26C150.84,-201.67 100.08,-138.73 80,-76 75.2,-61.01 74.44,-43.1 74.74,-29.88"/>
<polygon fill="midnightblue" stroke="midnightblue" points="78.25,-29.81 75.21,-19.66 71.26,-29.49 78.25,-29.81"/>
</g>
<!-- Node4 -->
<g id="node4" class="node">
<title>Node4</title>
<g id="a_node4"><a xlink:href="include_2ccf_2crypto_2base64_8h.html" target="_top" xlink:title=" ">
<polygon fill="white" stroke="black" points="104,-56.5 104,-75.5 216,-75.5 216,-56.5 104,-56.5"/>
<text text-anchor="middle" x="160" y="-63.5" font-family="Helvetica,sans-Serif" font-size="10.00">ccf/crypto/base64.h</text>
</a>
</g>
</g>
<!-- Node3&#45;&gt;Node4 -->
<g id="edge3" class="edge">
<title>Node3&#45;&gt;Node4</title>
<path fill="none" stroke="midnightblue" d="M358.45,-173.78C303.04,-168.39 204.71,-155.71 179,-132 166.19,-120.19 161.84,-100.26 160.46,-85.58"/>
<polygon fill="midnightblue" stroke="midnightblue" points="163.95,-85.38 159.88,-75.6 156.96,-85.78 163.95,-85.38"/>
</g>
<!-- Node7 -->
<g id="node7" class="node">
<title>Node7</title>
<g id="a_node7"><a xlink:href="include_2ccf_2ds_2json__schema_8h.html" target="_top" xlink:title=" ">
<polygon fill="white" stroke="black" points="738.5,-112.5 738.5,-131.5 859.5,-131.5 859.5,-112.5 738.5,-112.5"/>
<text text-anchor="middle" x="799" y="-119.5" font-family="Helvetica,sans-Serif" font-size="10.00">ccf/ds/json_schema.h</text>
</a>
</g>
</g>
<!-- Node3&#45;&gt;Node7 -->
<g id="edge6" class="edge">
<title>Node3&#45;&gt;Node7</title>
<path fill="none" stroke="midnightblue" d="M435.55,-171.82C502.87,-162.78 642.81,-143.98 728.06,-132.53"/>
<polygon fill="midnightblue" stroke="midnightblue" points="728.73,-135.97 738.18,-131.17 727.8,-129.03 728.73,-135.97"/>
</g>
<!-- Node14 -->
<g id="node14" class="node">
<title>Node14</title>
<g id="a_node14"><a xlink:title=" ">
<polygon fill="white" stroke="#bfbfbf" points="460.5,-56.5 460.5,-75.5 539.5,-75.5 539.5,-56.5 460.5,-56.5"/>
<text text-anchor="middle" x="500" y="-63.5" font-family="Helvetica,sans-Serif" font-size="10.00">fmt/format.h</text>
</a>
</g>
</g>
<!-- Node3&#45;&gt;Node14 -->
<g id="edge17" class="edge">
<title>Node3&#45;&gt;Node14</title>
<path fill="none" stroke="midnightblue" d="M393.12,-168.14C387.92,-154.76 380.57,-129.14 392,-112 405.14,-92.29 428.73,-81.2 450.51,-74.96"/>
<polygon fill="midnightblue" stroke="midnightblue" points="451.54,-78.31 460.35,-72.43 449.79,-71.53 451.54,-78.31"/>
</g>
<!-- Node16 -->
<g id="node16" class="node">
<title>Node16</title>
<g id="a_node16"><a xlink:title=" ">
<polygon fill="white" stroke="#bfbfbf" points="472,-112.5 472,-131.5 528,-131.5 528,-112.5 472,-112.5"/>
<text text-anchor="middle" x="500" y="-119.5" font-family="Helvetica,sans-Serif" font-size="10.00">sstream</text>
</a>
</g>
</g>
<!-- Node3&#45;&gt;Node16 -->
<g id="edge18" class="edge">
<title>Node3&#45;&gt;Node16</title>
<path fill="none" stroke="midnightblue" d="M413.55,-168.32C429.99,-159.7 455.43,-146.36 474.47,-136.39"/>
<polygon fill="midnightblue" stroke="midnightblue" points="476.26,-139.4 483.49,-131.65 473.01,-133.2 476.26,-139.4"/>
</g>
<!-- Node5 -->
<g id="node5" class="node">
<title>Node5</title>
<g id="a_node5"><a xlink:title=" ">
<polygon fill="white" stroke="#bfbfbf" points="318,-0.5 318,-19.5 362,-19.5 362,-0.5 318,-0.5"/>
<text text-anchor="middle" x="340" y="-7.5" font-family="Helvetica,sans-Serif" font-size="10.00">string</text>
</a>
</g>
</g>
<!-- Node4&#45;&gt;Node5 -->
<g id="edge4" class="edge">
<title>Node4&#45;&gt;Node5</title>
<path fill="none" stroke="midnightblue" d="M188.52,-56.44C221.04,-46.69 274.08,-30.78 307.99,-20.6"/>
<polygon fill="midnightblue" stroke="midnightblue" points="309.28,-23.87 317.85,-17.64 307.27,-17.17 309.28,-23.87"/>
</g>
<!-- Node4&#45;&gt;Node6 -->
<g id="edge5" class="edge">
<title>Node4&#45;&gt;Node6</title>
<path fill="none" stroke="midnightblue" d="M146.5,-56.32C133.4,-47.9 113.29,-34.97 97.89,-25.07"/>
<polygon fill="midnightblue" stroke="midnightblue" points="99.77,-22.12 89.46,-19.65 95.98,-28.01 99.77,-22.12"/>
</g>
<!-- Node8 -->
<g id="node8" class="node">
<title>Node8</title>
<g id="a_node8"><a xlink:href="nonstd_8h.html" target="_top" xlink:title=" ">
<polygon fill="white" stroke="black" points="689,-56.5 689,-75.5 779,-75.5 779,-56.5 689,-56.5"/>
<text text-anchor="middle" x="734" y="-63.5" font-family="Helvetica,sans-Serif" font-size="10.00">ccf/ds/nonstd.h</text>
</a>
</g>
</g>
<!-- Node7&#45;&gt;Node8 -->
<g id="edge7" class="edge">
<title>Node7&#45;&gt;Node8</title>
<path fill="none" stroke="midnightblue" d="M788.56,-112.32C778.85,-104.26 764.18,-92.08 752.5,-82.37"/>
<polygon fill="midnightblue" stroke="midnightblue" points="754.56,-79.53 744.63,-75.83 750.09,-84.92 754.56,-79.53"/>
</g>
<!-- Node7&#45;&gt;Node14 -->
<g id="edge15" class="edge">
<title>Node7&#45;&gt;Node14</title>
<path fill="none" stroke="midnightblue" d="M751.62,-112.44C696.44,-102.48 605.69,-86.09 549.57,-75.95"/>
<polygon fill="midnightblue" stroke="midnightblue" points="549.98,-72.47 539.52,-74.14 548.74,-79.36 549.98,-72.47"/>
</g>
<!-- Node15 -->
<g id="node15" class="node">
<title>Node15</title>
<g id="a_node15"><a xlink:title=" ">
<polygon fill="white" stroke="#bfbfbf" points="797,-56.5 797,-75.5 907,-75.5 907,-56.5 797,-56.5"/>
<text text-anchor="middle" x="852" y="-63.5" font-family="Helvetica,sans-Serif" font-size="10.00">nlohmann/json.hpp</text>
</a>
</g>
</g>
<!-- Node7&#45;&gt;Node15 -->
<g id="edge16" class="edge">
<title>Node7&#45;&gt;Node15</title>
<path fill="none" stroke="midnightblue" d="M807.75,-112.08C815.47,-104.22 826.9,-92.57 836.22,-83.08"/>
<polygon fill="midnightblue" stroke="midnightblue" points="838.9,-85.34 843.41,-75.75 833.91,-80.44 838.9,-85.34"/>
</g>
<!-- Node8&#45;&gt;Node5 -->
<g id="edge11" class="edge">
<title>Node8&#45;&gt;Node5</title>
<path fill="none" stroke="midnightblue" d="M688.91,-58.04C684.22,-57.34 679.51,-56.65 675,-56 564.03,-40.08 432.14,-22.86 372.34,-15.15"/>
<polygon fill="midnightblue" stroke="midnightblue" points="372.73,-11.67 362.37,-13.86 371.84,-18.61 372.73,-11.67"/>
</g>
<!-- Node8&#45;&gt;Node6 -->
<g id="edge14" class="edge">
<title>Node8&#45;&gt;Node6</title>
<path fill="none" stroke="midnightblue" d="M688.77,-61.29C564.43,-51.08 219.41,-22.77 109.85,-13.78"/>
<polygon fill="midnightblue" stroke="midnightblue" points="109.96,-10.28 99.71,-12.95 109.39,-17.25 109.96,-10.28"/>
</g>
<!-- Node9 -->
<g id="node9" class="node">
<title>Node9</title>
<g id="a_node9"><a xlink:title=" ">
<polygon fill="white" stroke="#bfbfbf" points="653,-0.5 653,-19.5 717,-19.5 717,-0.5 653,-0.5"/>
<text text-anchor="middle" x="685" y="-7.5" font-family="Helvetica,sans-Serif" font-size="10.00">algorithm</text>
</a>
</g>
</g>
<!-- Node8&#45;&gt;Node9 -->
<g id="edge8" class="edge">
<title>Node8&#45;&gt;Node9</title>
<path fill="none" stroke="midnightblue" d="M725.91,-56.08C718.84,-48.3 708.41,-36.8 699.85,-27.37"/>
<polygon fill="midnightblue" stroke="midnightblue" points="702.25,-24.8 692.94,-19.75 697.07,-29.51 702.25,-24.8"/>
</g>
<!-- Node10 -->
<g id="node10" class="node">
<title>Node10</title>
<g id="a_node10"><a xlink:title=" ">
<polygon fill="white" stroke="#bfbfbf" points="1203,-0.5 1203,-19.5 1245,-19.5 1245,-0.5 1203,-0.5"/>
<text text-anchor="middle" x="1224" y="-7.5" font-family="Helvetica,sans-Serif" font-size="10.00">array</text>
</a>
</g>
</g>
<!-- Node8&#45;&gt;Node10 -->
<g id="edge9" class="edge">
<title>Node8&#45;&gt;Node10</title>
<path fill="none" stroke="midnightblue" d="M779.05,-57.28C782.08,-56.82 785.08,-56.39 788,-56 939,-35.64 1120.5,-19.6 1192.43,-13.58"/>
<polygon fill="midnightblue" stroke="midnightblue" points="1192.95,-17.05 1202.62,-12.73 1192.37,-10.07 1192.95,-17.05"/>
</g>
<!-- Node11 -->
<g id="node11" class="node">
<title>Node11</title>
<g id="a_node11"><a xlink:title=" ">
<polygon fill="white" stroke="#bfbfbf" points="735.5,-0.5 735.5,-19.5 784.5,-19.5 784.5,-0.5 735.5,-0.5"/>
<text text-anchor="middle" x="760" y="-7.5" font-family="Helvetica,sans-Serif" font-size="10.00">cctype</text>
</a>
</g>
</g>
<!-- Node8&#45;&gt;Node11 -->
<g id="edge10" class="edge">
<title>Node8&#45;&gt;Node11</title>
<path fill="none" stroke="midnightblue" d="M738.29,-56.08C741.85,-48.69 747.02,-37.95 751.42,-28.81"/>
<polygon fill="midnightblue" stroke="midnightblue" points="754.6,-30.28 755.79,-19.75 748.29,-27.24 754.6,-30.28"/>
</g>
<!-- Node12 -->
<g id="node12" class="node">
<title>Node12</title>
<g id="a_node12"><a xlink:title=" ">
<polygon fill="white" stroke="#bfbfbf" points="1315.5,-0.5 1315.5,-19.5 1388.5,-19.5 1388.5,-0.5 1315.5,-0.5"/>
<text text-anchor="middle" x="1352" y="-7.5" font-family="Helvetica,sans-Serif" font-size="10.00">string_view</text>
</a>
</g>
</g>
<!-- Node8&#45;&gt;Node12 -->
<g id="edge12" class="edge">
<title>Node8&#45;&gt;Node12</title>
<path fill="none" stroke="midnightblue" d="M779.04,-57.19C782.07,-56.76 785.08,-56.36 788,-56 994.21,-30.9 1047.01,-37.5 1254,-20 1270.62,-18.6 1288.81,-16.95 1304.97,-15.46"/>
<polygon fill="midnightblue" stroke="midnightblue" points="1305.61,-18.91 1315.25,-14.5 1304.97,-11.94 1305.61,-18.91"/>
</g>
<!-- Node13 -->
<g id="node13" class="node">
<title>Node13</title>
<g id="a_node13"><a xlink:title=" ">
<polygon fill="white" stroke="#bfbfbf" points="1011.5,-0.5 1011.5,-19.5 1080.5,-19.5 1080.5,-0.5 1011.5,-0.5"/>
<text text-anchor="middle" x="1046" y="-7.5" font-family="Helvetica,sans-Serif" font-size="10.00">type_traits</text>
</a>
</g>
</g>
<!-- Node8&#45;&gt;Node13 -->
<g id="edge13" class="edge">
<title>Node8&#45;&gt;Node13</title>
<path fill="none" stroke="midnightblue" d="M779.03,-57.21C838.26,-46.96 941.71,-29.05 1000.94,-18.8"/>
<polygon fill="midnightblue" stroke="midnightblue" points="1001.86,-22.19 1011.12,-17.04 1000.67,-15.29 1001.86,-22.19"/>
</g>
<!-- Node17&#45;&gt;Node3 -->
<g id="edge31" class="edge">
<title>Node17&#45;&gt;Node3</title>
<path fill="none" stroke="midnightblue" d="M300.24,-280.37C317.8,-261.97 359.13,-218.67 381.68,-195.05"/>
<polygon fill="midnightblue" stroke="midnightblue" points="384.43,-197.24 388.8,-187.59 379.36,-192.41 384.43,-197.24"/>
</g>
<!-- Node18 -->
<g id="node18" class="node">
<title>Node18</title>
<g id="a_node18"><a xlink:href="sha256__hash_8h.html" target="_top" xlink:title=" ">
<polygon fill="white" stroke="black" points="376,-224.5 376,-243.5 516,-243.5 516,-224.5 376,-224.5"/>
<text text-anchor="middle" x="446" y="-231.5" font-family="Helvetica,sans-Serif" font-size="10.00">ccf/crypto/sha256_hash.h</text>
</a>
</g>
</g>
<!-- Node17&#45;&gt;Node18 -->
<g id="edge21" class="edge">
<title>Node17&#45;&gt;Node18</title>
<path fill="none" stroke="midnightblue" d="M316.4,-280.44C342.2,-271.4 383.08,-257.06 412.02,-246.92"/>
<polygon fill="midnightblue" stroke="midnightblue" points="413.43,-250.13 421.71,-243.52 411.12,-243.52 413.43,-250.13"/>
</g>
<!-- Node20 -->
<g id="node20" class="node">
<title>Node20</title>
<g id="a_node20"><a xlink:href="hex_8h.html" target="_top" xlink:title=" ">
<polygon fill="white" stroke="black" points="188.5,-112.5 188.5,-131.5 263.5,-131.5 263.5,-112.5 188.5,-112.5"/>
<text text-anchor="middle" x="226" y="-119.5" font-family="Helvetica,sans-Serif" font-size="10.00">ccf/ds/hex.h</text>
</a>
</g>
</g>
<!-- Node17&#45;&gt;Node20 -->
<g id="edge26" class="edge">
<title>Node17&#45;&gt;Node20</title>
<path fill="none" stroke="midnightblue" d="M288.45,-280.08C278.02,-253.83 247.29,-176.55 233.2,-141.12"/>
<polygon fill="midnightblue" stroke="midnightblue" points="236.35,-139.57 229.41,-131.57 229.85,-142.15 236.35,-139.57"/>
</g>
<!-- Node18&#45;&gt;Node3 -->
<g id="edge22" class="edge">
<title>Node18&#45;&gt;Node3</title>
<path fill="none" stroke="midnightblue" d="M437.91,-224.08C430.84,-216.3 420.41,-204.8 411.85,-195.37"/>
<polygon fill="midnightblue" stroke="midnightblue" points="414.25,-192.8 404.94,-187.75 409.07,-197.51 414.25,-192.8"/>
</g>
<!-- Node18&#45;&gt;Node10 -->
<g id="edge23" class="edge">
<title>Node18&#45;&gt;Node10</title>
<path fill="none" stroke="midnightblue" d="M516.37,-230.62C627.46,-226.19 850.06,-214.6 1037,-188 1067.01,-183.73 1284.89,-155.53 1304,-132 1325.29,-105.78 1321.05,-85.16 1304,-56 1293.41,-37.89 1272.56,-26.51 1254.8,-19.72"/>
<polygon fill="midnightblue" stroke="midnightblue" points="1255.93,-16.41 1245.34,-16.41 1253.62,-23.02 1255.93,-16.41"/>
</g>
<!-- Node18&#45;&gt;Node14 -->
<g id="edge25" class="edge">
<title>Node18&#45;&gt;Node14</title>
<path fill="none" stroke="midnightblue" d="M446.65,-224.48C447.4,-211.96 448.05,-187.91 444,-168 438.88,-142.86 417.71,-134.52 430,-112 437.82,-97.68 452.36,-87.24 466.18,-80.04"/>
<polygon fill="midnightblue" stroke="midnightblue" points="468.02,-83.03 475.53,-75.56 465,-76.72 468.02,-83.03"/>
</g>
<!-- Node19 -->
<g id="node19" class="node">
<title>Node19</title>
<g id="a_node19"><a xlink:title=" ">
<polygon fill="white" stroke="#bfbfbf" points="272,-56.5 272,-75.5 312,-75.5 312,-56.5 272,-56.5"/>
<text text-anchor="middle" x="292" y="-63.5" font-family="Helvetica,sans-Serif" font-size="10.00">span</text>
</a>
</g>
</g>
<!-- Node18&#45;&gt;Node19 -->
<g id="edge24" class="edge">
<title>Node18&#45;&gt;Node19</title>
<path fill="none" stroke="midnightblue" d="M414.3,-224.49C393.55,-217.56 367.04,-205.93 349,-188 319.6,-158.78 303.49,-111.48 296.43,-85.52"/>
<polygon fill="midnightblue" stroke="midnightblue" points="299.81,-84.63 293.94,-75.82 293.03,-86.37 299.81,-84.63"/>
</g>
<!-- Node20&#45;&gt;Node5 -->
<g id="edge29" class="edge">
<title>Node20&#45;&gt;Node5</title>
<path fill="none" stroke="midnightblue" d="M229.15,-112.5C234.44,-99.14 246.2,-72.99 263,-56 276.34,-42.5 294.56,-31.62 309.92,-23.93"/>
<polygon fill="midnightblue" stroke="midnightblue" points="311.54,-27.04 319.05,-19.57 308.52,-20.72 311.54,-27.04"/>
</g>
<!-- Node20&#45;&gt;Node6 -->
<g id="edge30" class="edge">
<title>Node20&#45;&gt;Node6</title>
<path fill="none" stroke="midnightblue" d="M188.25,-117.38C158.98,-112.61 119.41,-101.57 95,-76 83.21,-63.65 78.69,-44.4 76.97,-30.05"/>
<polygon fill="midnightblue" stroke="midnightblue" points="80.44,-29.49 76.12,-19.82 73.46,-30.08 80.44,-29.49"/>
</g>
<!-- Node20&#45;&gt;Node14 -->
<g id="edge27" class="edge">
<title>Node20&#45;&gt;Node14</title>
<path fill="none" stroke="midnightblue" d="M263.52,-113.6C311.99,-104.05 396.5,-87.4 450.27,-76.8"/>
<polygon fill="midnightblue" stroke="midnightblue" points="451.13,-80.2 460.27,-74.83 449.78,-73.33 451.13,-80.2"/>
</g>
<!-- Node20&#45;&gt;Node19 -->
<g id="edge28" class="edge">
<title>Node20&#45;&gt;Node19</title>
<path fill="none" stroke="midnightblue" d="M236.6,-112.32C246.46,-104.26 261.35,-92.08 273.22,-82.37"/>
<polygon fill="midnightblue" stroke="midnightblue" points="275.68,-84.88 281.2,-75.83 271.25,-79.46 275.68,-84.88"/>
</g>
<!-- Node21&#45;&gt;Node5 -->
<g id="edge65" class="edge">
<title>Node21&#45;&gt;Node5</title>
<path fill="none" stroke="midnightblue" d="M1016.39,-288.97C897.54,-288.59 418.91,-284.55 367,-244 301.48,-192.82 323.29,-75.08 334.81,-29.49"/>
<polygon fill="midnightblue" stroke="midnightblue" points="338.21,-30.33 337.4,-19.77 331.45,-28.53 338.21,-30.33"/>
</g>
<!-- Node21&#45;&gt;Node18 -->
<g id="edge51" class="edge">
<title>Node21&#45;&gt;Node18</title>
<path fill="none" stroke="midnightblue" d="M1016.19,-286.57C930.72,-278.84 662.38,-254.57 526.52,-242.28"/>
<polygon fill="midnightblue" stroke="midnightblue" points="526.45,-238.76 516.17,-241.35 525.82,-245.73 526.45,-238.76"/>
</g>
<!-- Node22 -->
<g id="node22" class="node">
<title>Node22</title>
<g id="a_node22"><a xlink:href="ccf__assert_8h.html" target="_top" xlink:title=" ">
<polygon fill="white" stroke="black" points="917,-224.5 917,-243.5 1009,-243.5 1009,-224.5 917,-224.5"/>
<text text-anchor="middle" x="963" y="-231.5" font-family="Helvetica,sans-Serif" font-size="10.00">ccf/ccf_assert.h</text>
</a>
</g>
</g>
<!-- Node21&#45;&gt;Node22 -->
<g id="edge33" class="edge">
<title>Node21&#45;&gt;Node22</title>
<path fill="none" stroke="midnightblue" d="M1030.15,-280.32C1017.78,-271.98 998.87,-259.21 984.26,-249.35"/>
<polygon fill="midnightblue" stroke="midnightblue" points="986.07,-246.35 975.82,-243.65 982.15,-252.15 986.07,-246.35"/>
</g>
<!-- Node29 -->
<g id="node29" class="node">
<title>Node29</title>
<g id="a_node29"><a xlink:title=" ">
<polygon fill="white" stroke="#bfbfbf" points="1237,-56.5 1237,-75.5 1275,-75.5 1275,-56.5 1237,-56.5"/>
<text text-anchor="middle" x="1256" y="-63.5" font-family="Helvetica,sans-Serif" font-size="10.00">map</text>
</a>
</g>
</g>
<!-- Node21&#45;&gt;Node29 -->
<g id="edge62" class="edge">
<title>Node21&#45;&gt;Node29</title>
<path fill="none" stroke="midnightblue" d="M1069.82,-289.06C1123.75,-288.3 1248.3,-282.18 1344,-244 1414.21,-215.99 1445.77,-202.9 1472,-132 1475.08,-123.66 1477.61,-118.9 1472,-112 1448.77,-83.43 1338.61,-72.39 1285.19,-68.67"/>
<polygon fill="midnightblue" stroke="midnightblue" points="1285.21,-65.16 1275,-68 1284.75,-72.15 1285.21,-65.16"/>
</g>
<!-- Node21&#45;&gt;Node33 -->
<g id="edge64" class="edge">
<title>Node21&#45;&gt;Node33</title>
<path fill="none" stroke="midnightblue" d="M1069.61,-288.9C1134.54,-287.27 1303.1,-274.43 1403,-188 1416.95,-175.93 1425.42,-156.37 1430.11,-141.85"/>
<polygon fill="midnightblue" stroke="midnightblue" points="1433.56,-142.52 1432.98,-131.94 1426.83,-140.57 1433.56,-142.52"/>
</g>
<!-- Node34 -->
<g id="node34" class="node">
<title>Node34</title>
<g id="a_node34"><a xlink:href="tx__id_8h.html" target="_top" xlink:title=" ">
<polygon fill="white" stroke="black" points="1153.5,-224.5 1153.5,-243.5 1220.5,-243.5 1220.5,-224.5 1153.5,-224.5"/>
<text text-anchor="middle" x="1187" y="-231.5" font-family="Helvetica,sans-Serif" font-size="10.00">ccf/tx_id.h</text>
</a>
</g>
</g>
<!-- Node21&#45;&gt;Node34 -->
<g id="edge52" class="edge">
<title>Node21&#45;&gt;Node34</title>
<path fill="none" stroke="midnightblue" d="M1065.82,-280.44C1089.83,-271.44 1127.83,-257.19 1154.87,-247.05"/>
<polygon fill="midnightblue" stroke="midnightblue" points="1156.16,-250.3 1164.29,-243.52 1153.7,-243.75 1156.16,-250.3"/>
</g>
<!-- Node37 -->
<g id="node37" class="node">
<title>Node37</title>
<g id="a_node37"><a xlink:title=" ">
<polygon fill="white" stroke="#bfbfbf" points="1027,-224.5 1027,-243.5 1059,-243.5 1059,-224.5 1027,-224.5"/>
<text text-anchor="middle" x="1043" y="-231.5" font-family="Helvetica,sans-Serif" font-size="10.00">list</text>
</a>
</g>
</g>
<!-- Node21&#45;&gt;Node37 -->
<g id="edge61" class="edge">
<title>Node21&#45;&gt;Node37</title>
<path fill="none" stroke="midnightblue" d="M1043,-280.08C1043,-273.01 1043,-262.86 1043,-253.99"/>
<polygon fill="midnightblue" stroke="midnightblue" points="1046.5,-253.75 1043,-243.75 1039.5,-253.75 1046.5,-253.75"/>
</g>
<!-- Node38 -->
<g id="node38" class="node">
<title>Node38</title>
<g id="a_node38"><a xlink:title=" ">
<polygon fill="white" stroke="#bfbfbf" points="1077,-224.5 1077,-243.5 1135,-243.5 1135,-224.5 1077,-224.5"/>
<text text-anchor="middle" x="1106" y="-231.5" font-family="Helvetica,sans-Serif" font-size="10.00">memory</text>
</a>
</g>
</g>
<!-- Node21&#45;&gt;Node38 -->
<g id="edge63" class="edge">
<title>Node21&#45;&gt;Node38</title>
<path fill="none" stroke="midnightblue" d="M1053.12,-280.32C1062.53,-272.26 1076.74,-260.08 1088.07,-250.37"/>
<polygon fill="midnightblue" stroke="midnightblue" points="1090.38,-253 1095.69,-243.83 1085.82,-247.68 1090.38,-253"/>
</g>
<!-- Node23 -->
<g id="node23" class="node">
<title>Node23</title>
<g id="a_node23"><a xlink:href="logger_8h.html" target="_top" xlink:title=" ">
<polygon fill="white" stroke="black" points="940.5,-168.5 940.5,-187.5 1027.5,-187.5 1027.5,-168.5 940.5,-168.5"/>
<text text-anchor="middle" x="984" y="-175.5" font-family="Helvetica,sans-Serif" font-size="10.00">ccf/ds/logger.h</text>
</a>
</g>
</g>
<!-- Node22&#45;&gt;Node23 -->
<g id="edge34" class="edge">
<title>Node22&#45;&gt;Node23</title>
<path fill="none" stroke="midnightblue" d="M966.47,-224.08C969.31,-216.77 973.43,-206.18 976.96,-197.1"/>
<polygon fill="midnightblue" stroke="midnightblue" points="980.23,-198.34 980.6,-187.75 973.71,-195.8 980.23,-198.34"/>
</g>
<!-- Node23&#45;&gt;Node13 -->
<g id="edge50" class="edge">
<title>Node23&#45;&gt;Node13</title>
<path fill="none" stroke="midnightblue" d="M1027.78,-173.56C1107,-166.89 1267.5,-151.16 1284,-132 1306.04,-106.41 1305.55,-82.01 1284,-56 1259.97,-27 1153.03,-16.55 1090.98,-12.89"/>
<polygon fill="midnightblue" stroke="midnightblue" points="1090.87,-9.38 1080.69,-12.32 1090.48,-16.37 1090.87,-9.38"/>
</g>
<!-- Node23&#45;&gt;Node14 -->
<g id="edge45" class="edge">
<title>Node23&#45;&gt;Node14</title>
<path fill="none" stroke="midnightblue" d="M940.16,-175.46C848.5,-171.72 639.73,-160.27 575,-132 549.95,-121.06 527.15,-98.72 513.43,-83.31"/>
<polygon fill="midnightblue" stroke="midnightblue" points="515.95,-80.88 506.78,-75.58 510.64,-85.44 515.95,-80.88"/>
</g>
<!-- Node23&#45;&gt;Node15 -->
<g id="edge47" class="edge">
<title>Node23&#45;&gt;Node15</title>
<path fill="none" stroke="midnightblue" d="M1019.16,-168.44C1055.36,-157.96 1103.67,-138.32 1082,-112 1076.6,-105.45 980.45,-88.31 914.19,-77.17"/>
<polygon fill="midnightblue" stroke="midnightblue" points="914.68,-73.7 904.24,-75.51 913.53,-80.61 914.68,-73.7"/>
</g>
<!-- Node23&#45;&gt;Node16 -->
<g id="edge49" class="edge">
<title>Node23&#45;&gt;Node16</title>
<path fill="none" stroke="midnightblue" d="M940.19,-174.14C860.57,-168.59 686.96,-154.84 542,-132 540.76,-131.8 539.5,-131.59 538.22,-131.38"/>
<polygon fill="midnightblue" stroke="midnightblue" points="538.86,-127.93 528.39,-129.52 537.57,-134.81 538.86,-127.93"/>
</g>
<!-- Node24 -->
<g id="node24" class="node">
<title>Node24</title>
<g id="a_node24"><a xlink:href="enum__formatter_8h.html" target="_top" xlink:title=" ">
<polygon fill="white" stroke="black" points="584,-112.5 584,-131.5 720,-131.5 720,-112.5 584,-112.5"/>
<text text-anchor="middle" x="652" y="-119.5" font-family="Helvetica,sans-Serif" font-size="10.00">ccf/ds/enum_formatter.h</text>
</a>
</g>
</g>
<!-- Node23&#45;&gt;Node24 -->
<g id="edge35" class="edge">
<title>Node23&#45;&gt;Node24</title>
<path fill="none" stroke="midnightblue" d="M940.26,-169.88C882.51,-160.49 780.47,-143.9 714.58,-133.18"/>
<polygon fill="midnightblue" stroke="midnightblue" points="714.76,-129.66 704.32,-131.51 713.63,-136.57 714.76,-129.66"/>
</g>
<!-- Node25 -->
<g id="node25" class="node">
<title>Node25</title>
<g id="a_node25"><a xlink:href="thread__ids_8h.html" target="_top" xlink:title=" ">
<polygon fill="white" stroke="black" points="1167,-112.5 1167,-131.5 1275,-131.5 1275,-112.5 1167,-112.5"/>
<text text-anchor="middle" x="1221" y="-119.5" font-family="Helvetica,sans-Serif" font-size="10.00">ccf/ds/thread_ids.h</text>
</a>
</g>
</g>
<!-- Node23&#45;&gt;Node25 -->
<g id="edge37" class="edge">
<title>Node23&#45;&gt;Node25</title>
<path fill="none" stroke="midnightblue" d="M1021.55,-168.44C1062.81,-159.04 1129.14,-143.93 1173.87,-133.74"/>
<polygon fill="midnightblue" stroke="midnightblue" points="1174.65,-137.15 1183.62,-131.52 1173.09,-130.33 1174.65,-137.15"/>
</g>
<!-- Node31 -->
<g id="node31" class="node">
<title>Node31</title>
<g id="a_node31"><a xlink:title=" ">
<polygon fill="white" stroke="#bfbfbf" points="916.5,-112.5 916.5,-131.5 995.5,-131.5 995.5,-112.5 916.5,-112.5"/>
<text text-anchor="middle" x="956" y="-119.5" font-family="Helvetica,sans-Serif" font-size="10.00">fmt/chrono.h</text>
</a>
</g>
</g>
<!-- Node23&#45;&gt;Node31 -->
<g id="edge44" class="edge">
<title>Node23&#45;&gt;Node31</title>
<path fill="none" stroke="midnightblue" d="M979.38,-168.08C975.54,-160.69 969.98,-149.95 965.24,-140.81"/>
<polygon fill="midnightblue" stroke="midnightblue" points="968.25,-139.02 960.54,-131.75 962.03,-142.24 968.25,-139.02"/>
</g>
<!-- Node32 -->
<g id="node32" class="node">
<title>Node32</title>
<g id="a_node32"><a xlink:title=" ">
<polygon fill="white" stroke="#bfbfbf" points="1013,-112.5 1013,-131.5 1073,-131.5 1073,-112.5 1013,-112.5"/>
<text text-anchor="middle" x="1043" y="-119.5" font-family="Helvetica,sans-Serif" font-size="10.00">iostream</text>
</a>
</g>
</g>
<!-- Node23&#45;&gt;Node32 -->
<g id="edge46" class="edge">
<title>Node23&#45;&gt;Node32</title>
<path fill="none" stroke="midnightblue" d="M993.48,-168.32C1002.2,-160.34 1015.34,-148.31 1025.9,-138.65"/>
<polygon fill="midnightblue" stroke="midnightblue" points="1028.33,-141.17 1033.35,-131.83 1023.61,-136 1028.33,-141.17"/>
</g>
<!-- Node23&#45;&gt;Node33 -->
<g id="edge48" class="edge">
<title>Node23&#45;&gt;Node33</title>
<path fill="none" stroke="midnightblue" d="M1027.65,-171.77C1115.74,-161.23 1313.43,-137.56 1396.78,-127.58"/>
<polygon fill="midnightblue" stroke="midnightblue" points="1397.32,-131.04 1406.83,-126.37 1396.49,-124.09 1397.32,-131.04"/>
</g>
<!-- Node24&#45;&gt;Node14 -->
<g id="edge36" class="edge">
<title>Node24&#45;&gt;Node14</title>
<path fill="none" stroke="midnightblue" d="M627.92,-112.44C602.46,-103.4 562.11,-89.06 533.54,-78.92"/>
<polygon fill="midnightblue" stroke="midnightblue" points="534.57,-75.57 523.97,-75.52 532.22,-82.16 534.57,-75.57"/>
</g>
<!-- Node25&#45;&gt;Node14 -->
<g id="edge38" class="edge">
<title>Node25&#45;&gt;Node14</title>
<path fill="none" stroke="midnightblue" d="M1166.81,-116.94C1031.45,-106.8 680.11,-80.49 549.69,-70.72"/>
<polygon fill="midnightblue" stroke="midnightblue" points="549.82,-67.22 539.59,-69.96 549.3,-74.2 549.82,-67.22"/>
</g>
<!-- Node26 -->
<g id="node26" class="node">
<title>Node26</title>
<g id="a_node26"><a xlink:title=" ">
<polygon fill="white" stroke="#bfbfbf" points="925,-56.5 925,-75.5 1011,-75.5 1011,-56.5 925,-56.5"/>
<text text-anchor="middle" x="968" y="-63.5" font-family="Helvetica,sans-Serif" font-size="10.00">fmt/ostream.h</text>
</a>
</g>
</g>
<!-- Node25&#45;&gt;Node26 -->
<g id="edge39" class="edge">
<title>Node25&#45;&gt;Node26</title>
<path fill="none" stroke="midnightblue" d="M1180.91,-112.44C1136.68,-103 1065.46,-87.8 1017.72,-77.61"/>
<polygon fill="midnightblue" stroke="midnightblue" points="1018.41,-74.18 1007.9,-75.52 1016.95,-81.03 1018.41,-74.18"/>
</g>
<!-- Node27 -->
<g id="node27" class="node">
<title>Node27</title>
<g id="a_node27"><a xlink:title=" ">
<polygon fill="white" stroke="#bfbfbf" points="1095.5,-56.5 1095.5,-75.5 1156.5,-75.5 1156.5,-56.5 1095.5,-56.5"/>
<text text-anchor="middle" x="1126" y="-63.5" font-family="Helvetica,sans-Serif" font-size="10.00">fmt/std.h</text>
</a>
</g>
</g>
<!-- Node25&#45;&gt;Node27 -->
<g id="edge40" class="edge">
<title>Node25&#45;&gt;Node27</title>
<path fill="none" stroke="midnightblue" d="M1205.74,-112.32C1190.78,-103.82 1167.75,-90.73 1150.27,-80.8"/>
<polygon fill="midnightblue" stroke="midnightblue" points="1151.65,-77.55 1141.23,-75.65 1148.19,-83.64 1151.65,-77.55"/>
</g>
<!-- Node28 -->
<g id="node28" class="node">
<title>Node28</title>
<g id="a_node28"><a xlink:title=" ">
<polygon fill="white" stroke="#bfbfbf" points="1175,-56.5 1175,-75.5 1219,-75.5 1219,-56.5 1175,-56.5"/>
<text text-anchor="middle" x="1197" y="-63.5" font-family="Helvetica,sans-Serif" font-size="10.00">limits</text>
</a>
</g>
</g>
<!-- Node25&#45;&gt;Node28 -->
<g id="edge41" class="edge">
<title>Node25&#45;&gt;Node28</title>
<path fill="none" stroke="midnightblue" d="M1217.04,-112.08C1213.79,-104.77 1209.08,-94.18 1205.05,-85.1"/>
<polygon fill="midnightblue" stroke="midnightblue" points="1208.15,-83.47 1200.89,-75.75 1201.75,-86.31 1208.15,-83.47"/>
</g>
<!-- Node25&#45;&gt;Node29 -->
<g id="edge42" class="edge">
<title>Node25&#45;&gt;Node29</title>
<path fill="none" stroke="midnightblue" d="M1226.78,-112.08C1231.67,-104.53 1238.83,-93.49 1244.83,-84.23"/>
<polygon fill="midnightblue" stroke="midnightblue" points="1247.83,-86.05 1250.33,-75.75 1241.95,-82.24 1247.83,-86.05"/>
</g>
<!-- Node30 -->
<g id="node30" class="node">
<title>Node30</title>
<g id="a_node30"><a xlink:title=" ">
<polygon fill="white" stroke="#bfbfbf" points="1029,-56.5 1029,-75.5 1077,-75.5 1077,-56.5 1029,-56.5"/>
<text text-anchor="middle" x="1053" y="-63.5" font-family="Helvetica,sans-Serif" font-size="10.00">thread</text>
</a>
</g>
</g>
<!-- Node25&#45;&gt;Node30 -->
<g id="edge43" class="edge">
<title>Node25&#45;&gt;Node30</title>
<path fill="none" stroke="midnightblue" d="M1194.38,-112.44C1165.24,-103.08 1118.46,-88.04 1086.77,-77.85"/>
<polygon fill="midnightblue" stroke="midnightblue" points="1087.64,-74.46 1077.05,-74.73 1085.5,-81.12 1087.64,-74.46"/>
</g>
<!-- Node34&#45;&gt;Node3 -->
<g id="edge53" class="edge">
<title>Node34&#45;&gt;Node3</title>
<path fill="none" stroke="midnightblue" d="M1153.28,-225.44C1150.15,-224.89 1147.02,-224.4 1144,-224 854.49,-185.98 779.14,-210.37 488,-188 474.38,-186.95 459.63,-185.59 446.05,-184.25"/>
<polygon fill="midnightblue" stroke="midnightblue" points="446.24,-180.75 435.94,-183.23 445.53,-187.71 446.24,-180.75"/>
</g>
<!-- Node34&#45;&gt;Node5 -->
<g id="edge59" class="edge">
<title>Node34&#45;&gt;Node5</title>
<path fill="none" stroke="midnightblue" d="M1153.22,-225.8C1150.11,-225.18 1147,-224.57 1144,-224 1050.1,-206.21 1014.78,-235.77 932,-188 894,-166.07 906.78,-134.31 869,-112 795.37,-68.52 763.99,-92.03 680,-76 566.95,-54.43 432.78,-28.76 372.34,-17.19"/>
<polygon fill="midnightblue" stroke="midnightblue" points="372.76,-13.71 362.28,-15.26 371.44,-20.58 372.76,-13.71"/>
</g>
<!-- Node34&#45;&gt;Node12 -->
<g id="edge60" class="edge">
<title>Node34&#45;&gt;Node12</title>
<path fill="none" stroke="midnightblue" d="M1190.47,-224.42C1196.57,-210.47 1210.51,-182.92 1231,-168 1277.4,-134.23 1320.54,-177.89 1355,-132 1377.52,-102.01 1367.18,-55.01 1358.85,-29.31"/>
<polygon fill="midnightblue" stroke="midnightblue" points="1362.1,-28 1355.51,-19.71 1355.49,-30.3 1362.1,-28"/>
</g>
<!-- Node34&#45;&gt;Node14 -->
<g id="edge56" class="edge">
<title>Node34&#45;&gt;Node14</title>
<path fill="none" stroke="midnightblue" d="M1153.24,-225.69C1150.12,-225.09 1147.01,-224.51 1144,-224 1024.67,-203.59 993.98,-204.17 874,-188 691.3,-163.37 584.24,-270.88 463,-132 449.77,-116.84 466.12,-96.21 481.08,-82.29"/>
<polygon fill="midnightblue" stroke="midnightblue" points="483.4,-84.91 488.62,-75.69 478.79,-79.65 483.4,-84.91"/>
</g>
<!-- Node34&#45;&gt;Node15 -->
<g id="edge57" class="edge">
<title>Node34&#45;&gt;Node15</title>
<path fill="none" stroke="midnightblue" d="M1183.35,-224.21C1173.42,-201.47 1143.55,-140.48 1098,-112 1082.81,-102.5 984.98,-86.55 917.36,-76.41"/>
<polygon fill="midnightblue" stroke="midnightblue" points="917.61,-72.91 907.2,-74.9 916.58,-79.83 917.61,-72.91"/>
</g>
<!-- Node34&#45;&gt;Node33 -->
<g id="edge58" class="edge">
<title>Node34&#45;&gt;Node33</title>
<path fill="none" stroke="midnightblue" d="M1220.73,-231.25C1260.82,-227.83 1328.51,-217.74 1378,-188 1397.63,-176.2 1414.11,-155.38 1424.22,-140.48"/>
<polygon fill="midnightblue" stroke="midnightblue" points="1427.41,-141.99 1429.91,-131.7 1421.54,-138.18 1427.41,-141.99"/>
</g>
<!-- Node35 -->
<g id="node35" class="node">
<title>Node35</title>
<g id="a_node35"><a xlink:title=" ">
<polygon fill="white" stroke="#bfbfbf" points="1239.5,-168.5 1239.5,-187.5 1300.5,-187.5 1300.5,-168.5 1239.5,-168.5"/>
<text text-anchor="middle" x="1270" y="-175.5" font-family="Helvetica,sans-Serif" font-size="10.00">charconv</text>
</a>
</g>
</g>
<!-- Node34&#45;&gt;Node35 -->
<g id="edge54" class="edge">
<title>Node34&#45;&gt;Node35</title>
<path fill="none" stroke="midnightblue" d="M1200.34,-224.32C1213.16,-215.98 1232.78,-203.21 1247.94,-193.35"/>
<polygon fill="midnightblue" stroke="midnightblue" points="1250.22,-196.04 1256.7,-187.65 1246.41,-190.17 1250.22,-196.04"/>
</g>
<!-- Node36 -->
<g id="node36" class="node">
<title>Node36</title>
<g id="a_node36"><a xlink:title=" ">
<polygon fill="white" stroke="#bfbfbf" points="1319,-168.5 1319,-187.5 1369,-187.5 1369,-168.5 1319,-168.5"/>
<text text-anchor="middle" x="1344" y="-175.5" font-family="Helvetica,sans-Serif" font-size="10.00">cstdint</text>
</a>
</g>
</g>
<!-- Node34&#45;&gt;Node36 -->
<g id="edge55" class="edge">
<title>Node34&#45;&gt;Node36</title>
<path fill="none" stroke="midnightblue" d="M1211.88,-224.44C1238.29,-215.36 1280.22,-200.94 1309.74,-190.78"/>
<polygon fill="midnightblue" stroke="midnightblue" points="1310.92,-194.08 1319.24,-187.52 1308.64,-187.46 1310.92,-194.08"/>
</g>
</g>
</svg>
        <g id="navigator" transform="translate(0 0)" fill="#404254">
                <rect fill="#f2f5e9" fill-opacity="0.5" stroke="#606060" stroke-width=".5" x="0" y="0" width="60" height="60"/>
                <use id="zoomplus" xlink:href="#zoomPlus" x="17" y="9" onmousedown="handleZoom(evt,'in')"/>
                <use id="zoomminus" xlink:href="#zoomMin" x="42" y="9" onmousedown="handleZoom(evt,'out')"/>
                <use id="reset" xlink:href="#resetDef" x="30" y="36" onmousedown="handleReset()"/>
                <g id="arrowUp" xlink:href="#dirArrow" transform="translate(30 24)" onmousedown="handlePan(0,-1)">
                  <use xlink:href="#rim" fill="#404040">
                        <set attributeName="fill" to="#808080" begin="arrowUp.mouseover" end="arrowUp.mouseout"/>
                  </use>
                  <path fill="none" stroke="white" stroke-width="1.5" d="M0,-3.0v7 M-2.5,-0.5L0,-3.0L2.5,-0.5"/>
                </g>
                <g id="arrowRight" xlink:href="#dirArrow" transform="rotate(90) translate(36 -43)" onmousedown="handlePan(1,0)">
                  <use xlink:href="#rim" fill="#404040">
                        <set attributeName="fill" to="#808080" begin="arrowRight.mouseover" end="arrowRight.mouseout"/>
                  </use>
                  <path fill="none" stroke="white" stroke-width="1.5" d="M0,-3.0v7 M-2.5,-0.5L0,-3.0L2.5,-0.5"/>
                </g>
                <g id="arrowDown" xlink:href="#dirArrow" transform="rotate(180) translate(-30 -48)" onmousedown="handlePan(0,1)">
                  <use xlink:href="#rim" fill="#404040">
                        <set attributeName="fill" to="#808080" begin="arrowDown.mouseover" end="arrowDown.mouseout"/>
                  </use>
                  <path fill="none" stroke="white" stroke-width="1.5" d="M0,-3.0v7 M-2.5,-0.5L0,-3.0L2.5,-0.5"/>
                </g>
                <g id="arrowLeft" xlink:href="#dirArrow" transform="rotate(270) translate(-36 17)" onmousedown="handlePan(-1,0)">
                  <use xlink:href="#rim" fill="#404040">
                        <set attributeName="fill" to="#808080" begin="arrowLeft.mouseover" end="arrowLeft.mouseout"/>
                  </use>
                  <path fill="none" stroke="white" stroke-width="1.5" d="M0,-3.0v7 M-2.5,-0.5L0,-3.0L2.5,-0.5"/>
                </g>
        </g>
        <svg viewBox="0 0 15 15" width="100%" height="30px" preserveAspectRatio="xMaxYMin meet">
         <g id="arrow_out" transform="scale(0.3 0.3)">
          <a xlink:href="quote_8h__incl_org.svg" target="_base">
           <rect id="button" ry="5" rx="5" y="6" x="6" height="38" width="38"
                fill="#f2f5e9" fill-opacity="0.5" stroke="#606060" stroke-width="1.0"/>
           <path id="arrow"
             d="M 11.500037,31.436501 C 11.940474,20.09759 22.043105,11.32322 32.158766,21.979434 L 37.068811,17.246167 C 37.068811,17.246167 37.088388,32 37.088388,32 L 22.160133,31.978069 C 22.160133,31.978069 26.997745,27.140456 26.997745,27.140456 C 18.528582,18.264221 13.291696,25.230495 11.500037,31.436501 z"
             style="fill:#404040;"/>
          </a>
         </g>
        </svg>
</svg>
