<?xml version="1.0" encoding="UTF-8" standalone="no"?>
<!DOCTYPE svg PUBLIC "-//W3C//DTD SVG 1.1//EN"
 "http://www.w3.org/Graphics/SVG/1.1/DTD/svg11.dtd">
<!-- Generated by graphviz version 2.43.0 (0)
 -->
<!-- Title: src/host/rpc_connections.h Pages: 1 -->
<!--zoomable 308 -->
<svg id="main" version="1.1" xmlns="http://www.w3.org/2000/svg" xmlns:xlink="http://www.w3.org/1999/xlink" xml:space="preserve" onload="init(evt)">
<style type="text/css"><![CDATA[
.edge:hover path { stroke: red; }
.edge:hover polygon { stroke: red; fill: red; }
]]></style>
<script type="text/javascript"><![CDATA[
var edges = document.getElementsByTagName('g');
if (edges && edges.length) {
  for (var i=0;i<edges.length;i++) {
    if (edges[i].id.substr(0,4)=='edge') {
      edges[i].setAttribute('class','edge');
    }
  }
}
]]></script>
        <defs>
                <circle id="rim" cx="0" cy="0" r="7"/>
                <circle id="rim2" cx="0" cy="0" r="3.5"/>
                <g id="zoomPlus">
                        <use xlink:href="#rim" fill="#404040">
                                <set attributeName="fill" to="#808080" begin="zoomplus.mouseover" end="zoomplus.mouseout"/>
                        </use>
                        <path d="M-4,0h8M0,-4v8" fill="none" stroke="white" stroke-width="1.5" pointer-events="none"/>
                </g>
                <g id="zoomMin">
                        <use xlink:href="#rim" fill="#404040">
                                <set attributeName="fill" to="#808080" begin="zoomminus.mouseover" end="zoomminus.mouseout"/>
                        </use>
                        <path d="M-4,0h8" fill="none" stroke="white" stroke-width="1.5" pointer-events="none"/>
                </g>
                <g id="dirArrow">
                        <path fill="none" stroke="white" stroke-width="1.5" d="M0,-3.0v7 M-2.5,-0.5L0,-3.0L2.5,-0.5"/>
                </g>
               <g id="resetDef">
                       <use xlink:href="#rim2" fill="#404040">
                               <set attributeName="fill" to="#808080" begin="reset.mouseover" end="reset.mouseout"/>
                       </use>
               </g>
        </defs>

<script type="text/javascript">
var viewWidth = 1844;
var viewHeight = 308;
var sectionId = 'dynsection-0';
</script>
<script xlink:href="svgpan.js"/>
<svg id="graph" class="graph">
<g id="viewport">
<title>src/host/rpc_connections.h</title>
<polygon fill="white" stroke="transparent" points="-4,4 -4,-304 1840.26,-304 1840.26,4 -4,4"/>
<!-- Node1 -->
<g id="node1" class="node">
<title>Node1</title>
<g id="a_node1"><a xlink:title=" ">
<polygon fill="#bfbfbf" stroke="black" points="934.26,-280.5 934.26,-299.5 1080.26,-299.5 1080.26,-280.5 934.26,-280.5"/>
<text text-anchor="middle" x="1007.26" y="-287.5" font-family="Helvetica,sans-Serif" font-size="10.00">src/host/rpc_connections.h</text>
</a>
</g>
</g>
<!-- Node2 -->
<g id="node2" class="node">
<title>Node2</title>
<g id="a_node2"><a xlink:href="msg__types_8h.html" target="_top" xlink:title=" ">
<polygon fill="white" stroke="black" points="733.76,-224.5 733.76,-243.5 836.76,-243.5 836.76,-224.5 733.76,-224.5"/>
<text text-anchor="middle" x="785.26" y="-231.5" font-family="Helvetica,sans-Serif" font-size="10.00">../tls/msg_types.h</text>
</a>
</g>
</g>
<!-- Node1&#45;&gt;Node2 -->
<g id="edge1" class="edge">
<title>Node1&#45;&gt;Node2</title>
<path fill="none" stroke="midnightblue" d="M972.09,-280.44C933.68,-271.1 872.09,-256.12 830.21,-245.93"/>
<polygon fill="midnightblue" stroke="midnightblue" points="830.82,-242.48 820.28,-243.52 829.17,-249.28 830.82,-242.48"/>
</g>
<!-- Node26 -->
<g id="node26" class="node">
<title>Node26</title>
<g id="a_node26"><a xlink:href="tcp_8h.html" target="_top" xlink:title=" ">
<polygon fill="white" stroke="black" points="986.76,-224.5 986.76,-243.5 1027.76,-243.5 1027.76,-224.5 986.76,-224.5"/>
<text text-anchor="middle" x="1007.26" y="-231.5" font-family="Helvetica,sans-Serif" font-size="10.00">tcp.h</text>
</a>
</g>
</g>
<!-- Node1&#45;&gt;Node26 -->
<g id="edge37" class="edge">
<title>Node1&#45;&gt;Node26</title>
<path fill="none" stroke="midnightblue" d="M1007.26,-280.08C1007.26,-273.01 1007.26,-262.86 1007.26,-253.99"/>
<polygon fill="midnightblue" stroke="midnightblue" points="1010.76,-253.75 1007.26,-243.75 1003.76,-253.75 1010.76,-253.75"/>
</g>
<!-- Node44 -->
<g id="node44" class="node">
<title>Node44</title>
<g id="a_node44"><a xlink:title=" ">
<polygon fill="white" stroke="#bfbfbf" points="1045.76,-224.5 1045.76,-243.5 1138.76,-243.5 1138.76,-224.5 1045.76,-224.5"/>
<text text-anchor="middle" x="1092.26" y="-231.5" font-family="Helvetica,sans-Serif" font-size="10.00">unordered_map</text>
</a>
</g>
</g>
<!-- Node1&#45;&gt;Node44 -->
<g id="edge66" class="edge">
<title>Node1&#45;&gt;Node44</title>
<path fill="none" stroke="midnightblue" d="M1020.92,-280.32C1034.18,-271.9 1054.53,-258.97 1070.11,-249.07"/>
<polygon fill="midnightblue" stroke="midnightblue" points="1072.08,-251.97 1078.64,-243.65 1068.32,-246.06 1072.08,-251.97"/>
</g>
<!-- Node3 -->
<g id="node3" class="node">
<title>Node3</title>
<g id="a_node3"><a xlink:href="ring__buffer__types_8h.html" target="_top" xlink:title=" ">
<polygon fill="white" stroke="black" points="541.76,-168.5 541.76,-187.5 666.76,-187.5 666.76,-168.5 541.76,-168.5"/>
<text text-anchor="middle" x="604.26" y="-175.5" font-family="Helvetica,sans-Serif" font-size="10.00">ds/ring_buffer_types.h</text>
</a>
</g>
</g>
<!-- Node2&#45;&gt;Node3 -->
<g id="edge2" class="edge">
<title>Node2&#45;&gt;Node3</title>
<path fill="none" stroke="midnightblue" d="M756.58,-224.44C725.74,-215.24 676.54,-200.56 642.43,-190.39"/>
<polygon fill="midnightblue" stroke="midnightblue" points="643.39,-187.02 632.81,-187.52 641.39,-193.73 643.39,-187.02"/>
</g>
<!-- Node4 -->
<g id="node4" class="node">
<title>Node4</title>
<g id="a_node4"><a xlink:href="include_2ccf_2ds_2hash_8h.html" target="_top" xlink:title=" ">
<polygon fill="white" stroke="black" points="149.26,-112.5 149.26,-131.5 229.26,-131.5 229.26,-112.5 149.26,-112.5"/>
<text text-anchor="middle" x="189.26" y="-119.5" font-family="Helvetica,sans-Serif" font-size="10.00">ccf/ds/hash.h</text>
</a>
</g>
</g>
<!-- Node3&#45;&gt;Node4 -->
<g id="edge3" class="edge">
<title>Node3&#45;&gt;Node4</title>
<path fill="none" stroke="midnightblue" d="M541.68,-168.86C459.18,-158.12 315.62,-139.44 239.69,-129.56"/>
<polygon fill="midnightblue" stroke="midnightblue" points="239.81,-126.05 229.44,-128.23 238.91,-132.99 239.81,-126.05"/>
</g>
<!-- Node8 -->
<g id="node8" class="node">
<title>Node8</title>
<g id="a_node8"><a xlink:title=" ">
<polygon fill="white" stroke="#bfbfbf" points="278.76,-0.5 278.76,-19.5 325.76,-19.5 325.76,-0.5 278.76,-0.5"/>
<text text-anchor="middle" x="302.26" y="-7.5" font-family="Helvetica,sans-Serif" font-size="10.00">vector</text>
</a>
</g>
</g>
<!-- Node3&#45;&gt;Node8 -->
<g id="edge36" class="edge">
<title>Node3&#45;&gt;Node8</title>
<path fill="none" stroke="midnightblue" d="M565.94,-168.43C514.53,-155.42 422.4,-126.69 359.26,-76 341.79,-61.97 325.31,-42.2 314.61,-28.15"/>
<polygon fill="midnightblue" stroke="midnightblue" points="317.23,-25.81 308.46,-19.87 311.61,-29.98 317.23,-25.81"/>
</g>
<!-- Node11 -->
<g id="node11" class="node">
<title>Node11</title>
<g id="a_node11"><a xlink:href="nonstd_8h.html" target="_top" xlink:title=" ">
<polygon fill="white" stroke="black" points="576.26,-56.5 576.26,-75.5 666.26,-75.5 666.26,-56.5 576.26,-56.5"/>
<text text-anchor="middle" x="621.26" y="-63.5" font-family="Helvetica,sans-Serif" font-size="10.00">ccf/ds/nonstd.h</text>
</a>
</g>
</g>
<!-- Node3&#45;&gt;Node11 -->
<g id="edge12" class="edge">
<title>Node3&#45;&gt;Node11</title>
<path fill="none" stroke="midnightblue" d="M605.6,-168.37C608.34,-150.62 614.67,-109.67 618.39,-85.6"/>
<polygon fill="midnightblue" stroke="midnightblue" points="621.87,-86.01 619.94,-75.59 614.95,-84.94 621.87,-86.01"/>
</g>
<!-- Node14 -->
<g id="node14" class="node">
<title>Node14</title>
<g id="a_node14"><a xlink:title=" ">
<polygon fill="white" stroke="#bfbfbf" points="496.26,-0.5 496.26,-19.5 540.26,-19.5 540.26,-0.5 496.26,-0.5"/>
<text text-anchor="middle" x="518.26" y="-7.5" font-family="Helvetica,sans-Serif" font-size="10.00">string</text>
</a>
</g>
</g>
<!-- Node3&#45;&gt;Node14 -->
<g id="edge35" class="edge">
<title>Node3&#45;&gt;Node14</title>
<path fill="none" stroke="midnightblue" d="M599.64,-168.08C585.99,-141.72 545.66,-63.88 527.41,-28.66"/>
<polygon fill="midnightblue" stroke="midnightblue" points="530.41,-26.84 522.7,-19.57 524.2,-30.06 530.41,-26.84"/>
</g>
<!-- Node17 -->
<g id="node17" class="node">
<title>Node17</title>
<g id="a_node17"><a xlink:href="serializer_8h.html" target="_top" xlink:title=" ">
<polygon fill="white" stroke="black" points="632.26,-112.5 632.26,-131.5 702.26,-131.5 702.26,-112.5 632.26,-112.5"/>
<text text-anchor="middle" x="667.26" y="-119.5" font-family="Helvetica,sans-Serif" font-size="10.00">serializer.h</text>
</a>
</g>
</g>
<!-- Node3&#45;&gt;Node17 -->
<g id="edge20" class="edge">
<title>Node3&#45;&gt;Node17</title>
<path fill="none" stroke="midnightblue" d="M614.39,-168.32C623.79,-160.26 638.01,-148.08 649.33,-138.37"/>
<polygon fill="midnightblue" stroke="midnightblue" points="651.64,-141 656.96,-131.83 647.09,-135.68 651.64,-141"/>
</g>
<!-- Node23 -->
<g id="node23" class="node">
<title>Node23</title>
<g id="a_node23"><a xlink:title=" ">
<polygon fill="white" stroke="#bfbfbf" points="470.26,-112.5 470.26,-131.5 520.26,-131.5 520.26,-112.5 470.26,-112.5"/>
<text text-anchor="middle" x="495.26" y="-119.5" font-family="Helvetica,sans-Serif" font-size="10.00">atomic</text>
</a>
</g>
</g>
<!-- Node3&#45;&gt;Node23 -->
<g id="edge32" class="edge">
<title>Node3&#45;&gt;Node23</title>
<path fill="none" stroke="midnightblue" d="M586.75,-168.32C569.19,-159.62 541.93,-146.12 521.73,-136.11"/>
<polygon fill="midnightblue" stroke="midnightblue" points="523.25,-132.96 512.73,-131.65 520.14,-139.23 523.25,-132.96"/>
</g>
<!-- Node24 -->
<g id="node24" class="node">
<title>Node24</title>
<g id="a_node24"><a xlink:title=" ">
<polygon fill="white" stroke="#bfbfbf" points="1082.76,-0.5 1082.76,-19.5 1161.76,-19.5 1161.76,-0.5 1082.76,-0.5"/>
<text text-anchor="middle" x="1122.26" y="-7.5" font-family="Helvetica,sans-Serif" font-size="10.00">fmt/format.h</text>
</a>
</g>
</g>
<!-- Node3&#45;&gt;Node24 -->
<g id="edge33" class="edge">
<title>Node3&#45;&gt;Node24</title>
<path fill="none" stroke="midnightblue" d="M626.86,-168.5C670.43,-151.93 768.84,-113.64 849.26,-76 866.55,-67.91 869.25,-62.31 887.26,-56 949.17,-34.32 1024.12,-22.26 1072.47,-16.21"/>
<polygon fill="midnightblue" stroke="midnightblue" points="1073.16,-19.65 1082.67,-14.97 1072.32,-12.7 1073.16,-19.65"/>
</g>
<!-- Node25 -->
<g id="node25" class="node">
<title>Node25</title>
<g id="a_node25"><a xlink:title=" ">
<polygon fill="white" stroke="#bfbfbf" points="896.26,-56.5 896.26,-75.5 952.26,-75.5 952.26,-56.5 896.26,-56.5"/>
<text text-anchor="middle" x="924.26" y="-63.5" font-family="Helvetica,sans-Serif" font-size="10.00">optional</text>
</a>
</g>
</g>
<!-- Node3&#45;&gt;Node25 -->
<g id="edge34" class="edge">
<title>Node3&#45;&gt;Node25</title>
<path fill="none" stroke="midnightblue" d="M666.87,-171.78C735.15,-165.18 839.26,-152.18 873.26,-132 892.08,-120.83 906.59,-99.89 915.23,-84.79"/>
<polygon fill="midnightblue" stroke="midnightblue" points="918.38,-86.33 920.06,-75.87 912.22,-83 918.38,-86.33"/>
</g>
<!-- Node5 -->
<g id="node5" class="node">
<title>Node5</title>
<g id="a_node5"><a xlink:href="siphash_8h.html" target="_top" xlink:title=" ">
<polygon fill="white" stroke="black" points="14.76,-56.5 14.76,-75.5 109.76,-75.5 109.76,-56.5 14.76,-56.5"/>
<text text-anchor="middle" x="62.26" y="-63.5" font-family="Helvetica,sans-Serif" font-size="10.00">ccf/ds/siphash.h</text>
</a>
</g>
</g>
<!-- Node4&#45;&gt;Node5 -->
<g id="edge4" class="edge">
<title>Node4&#45;&gt;Node5</title>
<path fill="none" stroke="midnightblue" d="M169.14,-112.44C148.24,-103.56 115.33,-89.56 91.55,-79.45"/>
<polygon fill="midnightblue" stroke="midnightblue" points="92.87,-76.21 82.29,-75.52 90.13,-82.65 92.87,-76.21"/>
</g>
<!-- Node7 -->
<g id="node7" class="node">
<title>Node7</title>
<g id="a_node7"><a xlink:title=" ">
<polygon fill="white" stroke="#bfbfbf" points="2.26,-0.5 2.26,-19.5 52.26,-19.5 52.26,-0.5 2.26,-0.5"/>
<text text-anchor="middle" x="27.26" y="-7.5" font-family="Helvetica,sans-Serif" font-size="10.00">cstdint</text>
</a>
</g>
</g>
<!-- Node4&#45;&gt;Node7 -->
<g id="edge9" class="edge">
<title>Node4&#45;&gt;Node7</title>
<path fill="none" stroke="midnightblue" d="M148.9,-116.88C100.23,-110.99 22.78,-98.31 5.26,-76 -5.72,-62.01 3.59,-42.23 13.26,-28.17"/>
<polygon fill="midnightblue" stroke="midnightblue" points="16.27,-29.98 19.46,-19.88 10.67,-25.79 16.27,-29.98"/>
</g>
<!-- Node4&#45;&gt;Node8 -->
<g id="edge11" class="edge">
<title>Node4&#45;&gt;Node8</title>
<path fill="none" stroke="midnightblue" d="M179.16,-112.49C165.03,-99.57 142.58,-74.53 156.26,-56 181.89,-21.29 233.9,-12.52 268.42,-10.74"/>
<polygon fill="midnightblue" stroke="midnightblue" points="268.64,-14.24 278.52,-10.39 268.4,-7.24 268.64,-14.24"/>
</g>
<!-- Node9 -->
<g id="node9" class="node">
<title>Node9</title>
<g id="a_node9"><a xlink:title=" ">
<polygon fill="white" stroke="#bfbfbf" points="558.26,-0.5 558.26,-19.5 600.26,-19.5 600.26,-0.5 558.26,-0.5"/>
<text text-anchor="middle" x="579.26" y="-7.5" font-family="Helvetica,sans-Serif" font-size="10.00">array</text>
</a>
</g>
</g>
<!-- Node4&#45;&gt;Node9 -->
<g id="edge8" class="edge">
<title>Node4&#45;&gt;Node9</title>
<path fill="none" stroke="midnightblue" d="M229.34,-121.02C288.59,-119.74 402.04,-112.22 490.26,-76 518.56,-64.38 546.21,-41.93 563,-26.71"/>
<polygon fill="midnightblue" stroke="midnightblue" points="565.39,-29.27 570.32,-19.89 560.62,-24.14 565.39,-29.27"/>
</g>
<!-- Node10 -->
<g id="node10" class="node">
<title>Node10</title>
<g id="a_node10"><a xlink:title=" ">
<polygon fill="white" stroke="#bfbfbf" points="165.76,-56.5 165.76,-75.5 314.76,-75.5 314.76,-56.5 165.76,-56.5"/>
<text text-anchor="middle" x="240.26" y="-63.5" font-family="Helvetica,sans-Serif" font-size="10.00">small_vector/SmallVector.h</text>
</a>
</g>
</g>
<!-- Node4&#45;&gt;Node10 -->
<g id="edge10" class="edge">
<title>Node4&#45;&gt;Node10</title>
<path fill="none" stroke="midnightblue" d="M197.69,-112.08C205.11,-104.22 216.12,-92.57 225.08,-83.08"/>
<polygon fill="midnightblue" stroke="midnightblue" points="227.68,-85.42 232,-75.75 222.59,-80.62 227.68,-85.42"/>
</g>
<!-- Node6 -->
<g id="node6" class="node">
<title>Node6</title>
<g id="a_node6"><a xlink:title=" ">
<polygon fill="white" stroke="#bfbfbf" points="70.76,-0.5 70.76,-19.5 123.76,-19.5 123.76,-0.5 70.76,-0.5"/>
<text text-anchor="middle" x="97.26" y="-7.5" font-family="Helvetica,sans-Serif" font-size="10.00">cstddef</text>
</a>
</g>
</g>
<!-- Node5&#45;&gt;Node6 -->
<g id="edge5" class="edge">
<title>Node5&#45;&gt;Node6</title>
<path fill="none" stroke="midnightblue" d="M68.04,-56.08C72.94,-48.53 80.09,-37.49 86.1,-28.23"/>
<polygon fill="midnightblue" stroke="midnightblue" points="89.09,-30.05 91.59,-19.75 83.22,-26.24 89.09,-30.05"/>
</g>
<!-- Node5&#45;&gt;Node7 -->
<g id="edge6" class="edge">
<title>Node5&#45;&gt;Node7</title>
<path fill="none" stroke="midnightblue" d="M56.48,-56.08C51.59,-48.53 44.44,-37.49 38.43,-28.23"/>
<polygon fill="midnightblue" stroke="midnightblue" points="41.31,-26.24 32.94,-19.75 35.44,-30.05 41.31,-26.24"/>
</g>
<!-- Node5&#45;&gt;Node8 -->
<g id="edge7" class="edge">
<title>Node5&#45;&gt;Node8</title>
<path fill="none" stroke="midnightblue" d="M100.29,-56.44C146.67,-46.01 224.33,-28.53 268.62,-18.57"/>
<polygon fill="midnightblue" stroke="midnightblue" points="269.61,-21.93 278.6,-16.32 268.07,-15.11 269.61,-21.93"/>
</g>
<!-- Node11&#45;&gt;Node8 -->
<g id="edge19" class="edge">
<title>Node11&#45;&gt;Node8</title>
<path fill="none" stroke="midnightblue" d="M575.9,-59.43C521.25,-52.38 426.51,-39.05 335.87,-19.92"/>
<polygon fill="midnightblue" stroke="midnightblue" points="336.49,-16.47 325.98,-17.8 335.03,-23.32 336.49,-16.47"/>
</g>
<!-- Node11&#45;&gt;Node9 -->
<g id="edge14" class="edge">
<title>Node11&#45;&gt;Node9</title>
<path fill="none" stroke="midnightblue" d="M614.33,-56.08C608.33,-48.38 599.51,-37.03 592.22,-27.65"/>
<polygon fill="midnightblue" stroke="midnightblue" points="594.97,-25.5 586.07,-19.75 589.45,-29.79 594.97,-25.5"/>
</g>
<!-- Node12 -->
<g id="node12" class="node">
<title>Node12</title>
<g id="a_node12"><a xlink:title=" ">
<polygon fill="white" stroke="#bfbfbf" points="777.26,-0.5 777.26,-19.5 841.26,-19.5 841.26,-0.5 777.26,-0.5"/>
<text text-anchor="middle" x="809.26" y="-7.5" font-family="Helvetica,sans-Serif" font-size="10.00">algorithm</text>
</a>
</g>
</g>
<!-- Node11&#45;&gt;Node12 -->
<g id="edge13" class="edge">
<title>Node11&#45;&gt;Node12</title>
<path fill="none" stroke="midnightblue" d="M651.05,-56.44C683.09,-47.24 734.2,-32.56 769.62,-22.39"/>
<polygon fill="midnightblue" stroke="midnightblue" points="770.97,-25.64 779.61,-19.52 769.04,-18.91 770.97,-25.64"/>
</g>
<!-- Node13 -->
<g id="node13" class="node">
<title>Node13</title>
<g id="a_node13"><a xlink:title=" ">
<polygon fill="white" stroke="#bfbfbf" points="618.76,-0.5 618.76,-19.5 667.76,-19.5 667.76,-0.5 618.76,-0.5"/>
<text text-anchor="middle" x="643.26" y="-7.5" font-family="Helvetica,sans-Serif" font-size="10.00">cctype</text>
</a>
</g>
</g>
<!-- Node11&#45;&gt;Node13 -->
<g id="edge15" class="edge">
<title>Node11&#45;&gt;Node13</title>
<path fill="none" stroke="midnightblue" d="M624.9,-56.08C627.88,-48.77 632.19,-38.18 635.89,-29.1"/>
<polygon fill="midnightblue" stroke="midnightblue" points="639.17,-30.33 639.7,-19.75 632.68,-27.69 639.17,-30.33"/>
</g>
<!-- Node11&#45;&gt;Node14 -->
<g id="edge16" class="edge">
<title>Node11&#45;&gt;Node14</title>
<path fill="none" stroke="midnightblue" d="M604.71,-56.32C588.27,-47.7 562.83,-34.36 543.8,-24.39"/>
<polygon fill="midnightblue" stroke="midnightblue" points="545.25,-21.2 534.77,-19.65 542,-27.4 545.25,-21.2"/>
</g>
<!-- Node15 -->
<g id="node15" class="node">
<title>Node15</title>
<g id="a_node15"><a xlink:title=" ">
<polygon fill="white" stroke="#bfbfbf" points="685.76,-0.5 685.76,-19.5 758.76,-19.5 758.76,-0.5 685.76,-0.5"/>
<text text-anchor="middle" x="722.26" y="-7.5" font-family="Helvetica,sans-Serif" font-size="10.00">string_view</text>
</a>
</g>
</g>
<!-- Node11&#45;&gt;Node15 -->
<g id="edge17" class="edge">
<title>Node11&#45;&gt;Node15</title>
<path fill="none" stroke="midnightblue" d="M637.49,-56.32C653.61,-47.7 678.56,-34.36 697.23,-24.39"/>
<polygon fill="midnightblue" stroke="midnightblue" points="698.91,-27.46 706.08,-19.65 695.61,-21.28 698.91,-27.46"/>
</g>
<!-- Node16 -->
<g id="node16" class="node">
<title>Node16</title>
<g id="a_node16"><a xlink:title=" ">
<polygon fill="white" stroke="#bfbfbf" points="859.76,-0.5 859.76,-19.5 928.76,-19.5 928.76,-0.5 859.76,-0.5"/>
<text text-anchor="middle" x="894.26" y="-7.5" font-family="Helvetica,sans-Serif" font-size="10.00">type_traits</text>
</a>
</g>
</g>
<!-- Node11&#45;&gt;Node16 -->
<g id="edge18" class="edge">
<title>Node11&#45;&gt;Node16</title>
<path fill="none" stroke="midnightblue" d="M665.18,-56.47C709.23,-47.9 779.26,-34.2 849.74,-20.09"/>
<polygon fill="midnightblue" stroke="midnightblue" points="850.56,-23.5 859.68,-18.1 849.19,-16.63 850.56,-23.5"/>
</g>
<!-- Node17&#45;&gt;Node8 -->
<g id="edge31" class="edge">
<title>Node17&#45;&gt;Node8</title>
<path fill="none" stroke="midnightblue" d="M632.17,-119.8C579.73,-116.98 478.62,-107.55 399.26,-76 368.85,-63.91 338.22,-41.22 319.74,-26.11"/>
<polygon fill="midnightblue" stroke="midnightblue" points="321.84,-23.3 311.93,-19.57 317.35,-28.67 321.84,-23.3"/>
</g>
<!-- Node17&#45;&gt;Node11 -->
<g id="edge21" class="edge">
<title>Node17&#45;&gt;Node11</title>
<path fill="none" stroke="midnightblue" d="M659.67,-112.08C653.04,-104.3 643.24,-92.8 635.21,-83.37"/>
<polygon fill="midnightblue" stroke="midnightblue" points="637.87,-81.09 628.72,-75.75 632.54,-85.63 637.87,-81.09"/>
</g>
<!-- Node17&#45;&gt;Node16 -->
<g id="edge30" class="edge">
<title>Node17&#45;&gt;Node16</title>
<path fill="none" stroke="midnightblue" d="M679.54,-112.38C698.84,-99.08 737.74,-73.29 773.26,-56 800.54,-42.72 832.8,-30.9 857.14,-22.72"/>
<polygon fill="midnightblue" stroke="midnightblue" points="858.33,-26.01 866.72,-19.54 856.13,-19.36 858.33,-26.01"/>
</g>
<!-- Node18 -->
<g id="node18" class="node">
<title>Node18</title>
<g id="a_node18"><a xlink:href="serialized_8h.html" target="_top" xlink:title=" ">
<polygon fill="white" stroke="black" points="408.76,-56.5 408.76,-75.5 481.76,-75.5 481.76,-56.5 408.76,-56.5"/>
<text text-anchor="middle" x="445.26" y="-63.5" font-family="Helvetica,sans-Serif" font-size="10.00">serialized.h</text>
</a>
</g>
</g>
<!-- Node17&#45;&gt;Node18 -->
<g id="edge22" class="edge">
<title>Node17&#45;&gt;Node18</title>
<path fill="none" stroke="midnightblue" d="M632.09,-112.44C593.68,-103.1 532.09,-88.12 490.21,-77.93"/>
<polygon fill="midnightblue" stroke="midnightblue" points="490.82,-74.48 480.28,-75.52 489.17,-81.28 490.82,-74.48"/>
</g>
<!-- Node21 -->
<g id="node21" class="node">
<title>Node21</title>
<g id="a_node21"><a xlink:title=" ">
<polygon fill="white" stroke="#bfbfbf" points="782.26,-56.5 782.26,-75.5 840.26,-75.5 840.26,-56.5 782.26,-56.5"/>
<text text-anchor="middle" x="811.26" y="-63.5" font-family="Helvetica,sans-Serif" font-size="10.00">memory</text>
</a>
</g>
</g>
<!-- Node17&#45;&gt;Node21 -->
<g id="edge28" class="edge">
<title>Node17&#45;&gt;Node21</title>
<path fill="none" stroke="midnightblue" d="M690.08,-112.44C714.1,-103.44 752.09,-89.19 779.13,-79.05"/>
<polygon fill="midnightblue" stroke="midnightblue" points="780.42,-82.3 788.55,-75.52 777.96,-75.75 780.42,-82.3"/>
</g>
<!-- Node22 -->
<g id="node22" class="node">
<title>Node22</title>
<g id="a_node22"><a xlink:title=" ">
<polygon fill="white" stroke="#bfbfbf" points="684.76,-56.5 684.76,-75.5 725.76,-75.5 725.76,-56.5 684.76,-56.5"/>
<text text-anchor="middle" x="705.26" y="-63.5" font-family="Helvetica,sans-Serif" font-size="10.00">tuple</text>
</a>
</g>
</g>
<!-- Node17&#45;&gt;Node22 -->
<g id="edge29" class="edge">
<title>Node17&#45;&gt;Node22</title>
<path fill="none" stroke="midnightblue" d="M673.54,-112.08C678.91,-104.46 686.78,-93.26 693.34,-83.94"/>
<polygon fill="midnightblue" stroke="midnightblue" points="696.21,-85.94 699.11,-75.75 690.49,-81.91 696.21,-85.94"/>
</g>
<!-- Node18&#45;&gt;Node7 -->
<g id="edge23" class="edge">
<title>Node18&#45;&gt;Node7</title>
<path fill="none" stroke="midnightblue" d="M408.74,-62.46C341.85,-57.43 195.11,-44.66 62.36,-19.96"/>
<polygon fill="midnightblue" stroke="midnightblue" points="62.9,-16.5 52.42,-18.09 61.6,-23.38 62.9,-16.5"/>
</g>
<!-- Node18&#45;&gt;Node8 -->
<g id="edge27" class="edge">
<title>Node18&#45;&gt;Node8</title>
<path fill="none" stroke="midnightblue" d="M422.6,-56.44C398.86,-47.48 361.35,-33.31 334.53,-23.18"/>
<polygon fill="midnightblue" stroke="midnightblue" points="335.41,-19.77 324.82,-19.52 332.94,-26.32 335.41,-19.77"/>
</g>
<!-- Node18&#45;&gt;Node14 -->
<g id="edge26" class="edge">
<title>Node18&#45;&gt;Node14</title>
<path fill="none" stroke="midnightblue" d="M456.99,-56.32C468.1,-48.11 485.01,-35.6 498.25,-25.81"/>
<polygon fill="midnightblue" stroke="midnightblue" points="500.36,-28.59 506.32,-19.83 496.2,-22.97 500.36,-28.59"/>
</g>
<!-- Node19 -->
<g id="node19" class="node">
<title>Node19</title>
<g id="a_node19"><a xlink:title=" ">
<polygon fill="white" stroke="#bfbfbf" points="344.26,-0.5 344.26,-19.5 394.26,-19.5 394.26,-0.5 344.26,-0.5"/>
<text text-anchor="middle" x="369.26" y="-7.5" font-family="Helvetica,sans-Serif" font-size="10.00">cstring</text>
</a>
</g>
</g>
<!-- Node18&#45;&gt;Node19 -->
<g id="edge24" class="edge">
<title>Node18&#45;&gt;Node19</title>
<path fill="none" stroke="midnightblue" d="M433.05,-56.32C421.49,-48.11 403.89,-35.6 390.1,-25.81"/>
<polygon fill="midnightblue" stroke="midnightblue" points="391.88,-22.77 381.7,-19.83 387.82,-28.48 391.88,-22.77"/>
</g>
<!-- Node20 -->
<g id="node20" class="node">
<title>Node20</title>
<g id="a_node20"><a xlink:title=" ">
<polygon fill="white" stroke="#bfbfbf" points="412.76,-0.5 412.76,-19.5 477.76,-19.5 477.76,-0.5 412.76,-0.5"/>
<text text-anchor="middle" x="445.26" y="-7.5" font-family="Helvetica,sans-Serif" font-size="10.00">stdexcept</text>
</a>
</g>
</g>
<!-- Node18&#45;&gt;Node20 -->
<g id="edge25" class="edge">
<title>Node18&#45;&gt;Node20</title>
<path fill="none" stroke="midnightblue" d="M445.26,-56.08C445.26,-49.01 445.26,-38.86 445.26,-29.99"/>
<polygon fill="midnightblue" stroke="midnightblue" points="448.76,-29.75 445.26,-19.75 441.76,-29.75 448.76,-29.75"/>
</g>
<!-- Node26&#45;&gt;Node25 -->
<g id="edge65" class="edge">
<title>Node26&#45;&gt;Node25</title>
<path fill="none" stroke="midnightblue" d="M1002.58,-224.43C993.15,-207.11 971.33,-166.64 954.26,-132 946.55,-116.34 938.27,-98.3 932.37,-85.2"/>
<polygon fill="midnightblue" stroke="midnightblue" points="935.48,-83.59 928.2,-75.9 929.09,-86.46 935.48,-83.59"/>
</g>
<!-- Node27 -->
<g id="node27" class="node">
<title>Node27</title>
<g id="a_node27"><a xlink:href="before__io_8h.html" target="_top" xlink:title=" ">
<polygon fill="white" stroke="black" points="1003.76,-168.5 1003.76,-187.5 1074.76,-187.5 1074.76,-168.5 1003.76,-168.5"/>
<text text-anchor="middle" x="1039.26" y="-175.5" font-family="Helvetica,sans-Serif" font-size="10.00">before_io.h</text>
</a>
</g>
</g>
<!-- Node26&#45;&gt;Node27 -->
<g id="edge38" class="edge">
<title>Node26&#45;&gt;Node27</title>
<path fill="none" stroke="midnightblue" d="M1012.55,-224.08C1016.97,-216.61 1023.43,-205.72 1028.88,-196.52"/>
<polygon fill="midnightblue" stroke="midnightblue" points="1031.99,-198.14 1034.08,-187.75 1025.97,-194.57 1031.99,-198.14"/>
</g>
<!-- Node28 -->
<g id="node28" class="node">
<title>Node28</title>
<g id="a_node28"><a xlink:href="logger_8h.html" target="_top" xlink:title=" ">
<polygon fill="white" stroke="black" points="1175.76,-112.5 1175.76,-131.5 1262.76,-131.5 1262.76,-112.5 1175.76,-112.5"/>
<text text-anchor="middle" x="1219.26" y="-119.5" font-family="Helvetica,sans-Serif" font-size="10.00">ccf/ds/logger.h</text>
</a>
</g>
</g>
<!-- Node26&#45;&gt;Node28 -->
<g id="edge59" class="edge">
<title>Node26&#45;&gt;Node28</title>
<path fill="none" stroke="midnightblue" d="M1027.98,-226.75C1063.89,-215.84 1134.86,-193.93 1145.26,-188 1168.33,-174.86 1190.63,-153.75 1204.62,-139.17"/>
<polygon fill="midnightblue" stroke="midnightblue" points="1207.2,-141.53 1211.48,-131.84 1202.09,-136.75 1207.2,-141.53"/>
</g>
<!-- Node40 -->
<g id="node40" class="node">
<title>Node40</title>
<g id="a_node40"><a xlink:href="proxy_8h.html" target="_top" xlink:title=" ">
<polygon fill="white" stroke="black" points="963.26,-112.5 963.26,-131.5 1015.26,-131.5 1015.26,-112.5 963.26,-112.5"/>
<text text-anchor="middle" x="989.26" y="-119.5" font-family="Helvetica,sans-Serif" font-size="10.00">proxy.h</text>
</a>
</g>
</g>
<!-- Node26&#45;&gt;Node40 -->
<g id="edge64" class="edge">
<title>Node26&#45;&gt;Node40</title>
<path fill="none" stroke="midnightblue" d="M1004.53,-224.47C1001.76,-215.49 997.56,-200.9 995.26,-188 992.53,-172.64 991,-155 990.17,-141.98"/>
<polygon fill="midnightblue" stroke="midnightblue" points="993.66,-141.69 989.61,-131.89 986.67,-142.07 993.66,-141.69"/>
</g>
<!-- Node42 -->
<g id="node42" class="node">
<title>Node42</title>
<g id="a_node42"><a xlink:href="dns_8h.html" target="_top" xlink:title=" ">
<polygon fill="white" stroke="black" points="1092.76,-168.5 1092.76,-187.5 1135.76,-187.5 1135.76,-168.5 1092.76,-168.5"/>
<text text-anchor="middle" x="1114.26" y="-175.5" font-family="Helvetica,sans-Serif" font-size="10.00">dns.h</text>
</a>
</g>
</g>
<!-- Node26&#45;&gt;Node42 -->
<g id="edge60" class="edge">
<title>Node26&#45;&gt;Node42</title>
<path fill="none" stroke="midnightblue" d="M1024.46,-224.32C1041.61,-215.66 1068.21,-202.24 1088.01,-192.25"/>
<polygon fill="midnightblue" stroke="midnightblue" points="1089.76,-195.28 1097.11,-187.65 1086.61,-189.04 1089.76,-195.28"/>
</g>
<!-- Node27&#45;&gt;Node28 -->
<g id="edge39" class="edge">
<title>Node27&#45;&gt;Node28</title>
<path fill="none" stroke="midnightblue" d="M1067.79,-168.44C1098.33,-159.28 1146.97,-144.69 1180.87,-134.52"/>
<polygon fill="midnightblue" stroke="midnightblue" points="1182.3,-137.74 1190.88,-131.52 1180.29,-131.04 1182.3,-137.74"/>
</g>
<!-- Node27&#45;&gt;Node40 -->
<g id="edge56" class="edge">
<title>Node27&#45;&gt;Node40</title>
<path fill="none" stroke="midnightblue" d="M1031.01,-168.08C1023.8,-160.3 1013.15,-148.8 1004.42,-139.37"/>
<polygon fill="midnightblue" stroke="midnightblue" points="1006.73,-136.71 997.37,-131.75 1001.59,-141.47 1006.73,-136.71"/>
</g>
<!-- Node28&#45;&gt;Node16 -->
<g id="edge55" class="edge">
<title>Node28&#45;&gt;Node16</title>
<path fill="none" stroke="midnightblue" d="M1193.36,-112.43C1166.17,-103.42 1122.18,-88.81 1084.26,-76 1029.84,-57.62 966.76,-35.97 928.72,-22.88"/>
<polygon fill="midnightblue" stroke="midnightblue" points="929.73,-19.53 919.14,-19.58 927.46,-26.15 929.73,-19.53"/>
</g>
<!-- Node28&#45;&gt;Node24 -->
<g id="edge50" class="edge">
<title>Node28&#45;&gt;Node24</title>
<path fill="none" stroke="midnightblue" d="M1181.06,-112.46C1147.92,-104.19 1103.67,-90.76 1093.26,-76 1082.54,-60.78 1094.49,-40.95 1106.14,-27.21"/>
<polygon fill="midnightblue" stroke="midnightblue" points="1108.99,-29.29 1113.15,-19.55 1103.82,-24.57 1108.99,-29.29"/>
</g>
<!-- Node28&#45;&gt;Node25 -->
<g id="edge53" class="edge">
<title>Node28&#45;&gt;Node25</title>
<path fill="none" stroke="midnightblue" d="M1175.66,-113.51C1107.86,-101.84 982.78,-80.22 962.26,-76 962.16,-75.98 962.06,-75.96 961.96,-75.94"/>
<polygon fill="midnightblue" stroke="midnightblue" points="962.96,-72.57 952.44,-73.87 961.47,-79.41 962.96,-72.57"/>
</g>
<!-- Node29 -->
<g id="node29" class="node">
<title>Node29</title>
<g id="a_node29"><a xlink:href="enum__formatter_8h.html" target="_top" xlink:title=" ">
<polygon fill="white" stroke="black" points="1102.26,-56.5 1102.26,-75.5 1238.26,-75.5 1238.26,-56.5 1102.26,-56.5"/>
<text text-anchor="middle" x="1170.26" y="-63.5" font-family="Helvetica,sans-Serif" font-size="10.00">ccf/ds/enum_formatter.h</text>
</a>
</g>
</g>
<!-- Node28&#45;&gt;Node29 -->
<g id="edge40" class="edge">
<title>Node28&#45;&gt;Node29</title>
<path fill="none" stroke="midnightblue" d="M1211.17,-112.08C1204.11,-104.3 1193.68,-92.8 1185.11,-83.37"/>
<polygon fill="midnightblue" stroke="midnightblue" points="1187.52,-80.8 1178.2,-75.75 1182.33,-85.51 1187.52,-80.8"/>
</g>
<!-- Node30 -->
<g id="node30" class="node">
<title>Node30</title>
<g id="a_node30"><a xlink:href="thread__ids_8h.html" target="_top" xlink:title=" ">
<polygon fill="white" stroke="black" points="1633.26,-56.5 1633.26,-75.5 1741.26,-75.5 1741.26,-56.5 1633.26,-56.5"/>
<text text-anchor="middle" x="1687.26" y="-63.5" font-family="Helvetica,sans-Serif" font-size="10.00">ccf/ds/thread_ids.h</text>
</a>
</g>
</g>
<!-- Node28&#45;&gt;Node30 -->
<g id="edge42" class="edge">
<title>Node28&#45;&gt;Node30</title>
<path fill="none" stroke="midnightblue" d="M1262.77,-116.62C1335.19,-109.22 1485.29,-93.48 1622.69,-76.17"/>
<polygon fill="midnightblue" stroke="midnightblue" points="1623.5,-79.59 1632.98,-74.86 1622.62,-72.65 1623.5,-79.59"/>
</g>
<!-- Node36 -->
<g id="node36" class="node">
<title>Node36</title>
<g id="a_node36"><a xlink:title=" ">
<polygon fill="white" stroke="#bfbfbf" points="1256.76,-56.5 1256.76,-75.5 1335.76,-75.5 1335.76,-56.5 1256.76,-56.5"/>
<text text-anchor="middle" x="1296.26" y="-63.5" font-family="Helvetica,sans-Serif" font-size="10.00">fmt/chrono.h</text>
</a>
</g>
</g>
<!-- Node28&#45;&gt;Node36 -->
<g id="edge49" class="edge">
<title>Node28&#45;&gt;Node36</title>
<path fill="none" stroke="midnightblue" d="M1231.64,-112.32C1243.42,-104.06 1261.4,-91.45 1275.4,-81.63"/>
<polygon fill="midnightblue" stroke="midnightblue" points="1277.75,-84.26 1283.92,-75.65 1273.73,-78.53 1277.75,-84.26"/>
</g>
<!-- Node37 -->
<g id="node37" class="node">
<title>Node37</title>
<g id="a_node37"><a xlink:title=" ">
<polygon fill="white" stroke="#bfbfbf" points="1353.26,-56.5 1353.26,-75.5 1413.26,-75.5 1413.26,-56.5 1353.26,-56.5"/>
<text text-anchor="middle" x="1383.26" y="-63.5" font-family="Helvetica,sans-Serif" font-size="10.00">iostream</text>
</a>
</g>
</g>
<!-- Node28&#45;&gt;Node37 -->
<g id="edge51" class="edge">
<title>Node28&#45;&gt;Node37</title>
<path fill="none" stroke="midnightblue" d="M1245.25,-112.44C1272.96,-103.32 1317.02,-88.81 1347.88,-78.65"/>
<polygon fill="midnightblue" stroke="midnightblue" points="1349,-81.97 1357.4,-75.52 1346.81,-75.32 1349,-81.97"/>
</g>
<!-- Node38 -->
<g id="node38" class="node">
<title>Node38</title>
<g id="a_node38"><a xlink:title=" ">
<polygon fill="white" stroke="#bfbfbf" points="1431.26,-56.5 1431.26,-75.5 1541.26,-75.5 1541.26,-56.5 1431.26,-56.5"/>
<text text-anchor="middle" x="1486.26" y="-63.5" font-family="Helvetica,sans-Serif" font-size="10.00">nlohmann/json.hpp</text>
</a>
</g>
</g>
<!-- Node28&#45;&gt;Node38 -->
<g id="edge52" class="edge">
<title>Node28&#45;&gt;Node38</title>
<path fill="none" stroke="midnightblue" d="M1261.57,-112.44C1308.34,-102.98 1383.72,-87.74 1434.11,-77.55"/>
<polygon fill="midnightblue" stroke="midnightblue" points="1435.05,-80.93 1444.15,-75.52 1433.66,-74.07 1435.05,-80.93"/>
</g>
<!-- Node39 -->
<g id="node39" class="node">
<title>Node39</title>
<g id="a_node39"><a xlink:title=" ">
<polygon fill="white" stroke="#bfbfbf" points="1559.26,-56.5 1559.26,-75.5 1615.26,-75.5 1615.26,-56.5 1559.26,-56.5"/>
<text text-anchor="middle" x="1587.26" y="-63.5" font-family="Helvetica,sans-Serif" font-size="10.00">sstream</text>
</a>
</g>
</g>
<!-- Node28&#45;&gt;Node39 -->
<g id="edge54" class="edge">
<title>Node28&#45;&gt;Node39</title>
<path fill="none" stroke="midnightblue" d="M1262.87,-116.53C1324.47,-109.89 1440.67,-96.2 1548.93,-76.08"/>
<polygon fill="midnightblue" stroke="midnightblue" points="1549.87,-79.47 1559.05,-74.18 1548.57,-72.59 1549.87,-79.47"/>
</g>
<!-- Node29&#45;&gt;Node24 -->
<g id="edge41" class="edge">
<title>Node29&#45;&gt;Node24</title>
<path fill="none" stroke="midnightblue" d="M1162.34,-56.08C1155.42,-48.3 1145.2,-36.8 1136.81,-27.37"/>
<polygon fill="midnightblue" stroke="midnightblue" points="1139.3,-24.9 1130.04,-19.75 1134.07,-29.55 1139.3,-24.9"/>
</g>
<!-- Node30&#45;&gt;Node24 -->
<g id="edge43" class="edge">
<title>Node30&#45;&gt;Node24</title>
<path fill="none" stroke="midnightblue" d="M1632.99,-57.06C1630.04,-56.69 1627.12,-56.33 1624.26,-56 1459.14,-36.82 1262.63,-21.32 1172.26,-14.61"/>
<polygon fill="midnightblue" stroke="midnightblue" points="1172.26,-11.1 1162.03,-13.85 1171.75,-18.08 1172.26,-11.1"/>
</g>
<!-- Node31 -->
<g id="node31" class="node">
<title>Node31</title>
<g id="a_node31"><a xlink:title=" ">
<polygon fill="white" stroke="#bfbfbf" points="1552.26,-0.5 1552.26,-19.5 1638.26,-19.5 1638.26,-0.5 1552.26,-0.5"/>
<text text-anchor="middle" x="1595.26" y="-7.5" font-family="Helvetica,sans-Serif" font-size="10.00">fmt/ostream.h</text>
</a>
</g>
</g>
<!-- Node30&#45;&gt;Node31 -->
<g id="edge44" class="edge">
<title>Node30&#45;&gt;Node31</title>
<path fill="none" stroke="midnightblue" d="M1672.48,-56.32C1658,-47.82 1635.69,-34.73 1618.77,-24.8"/>
<polygon fill="midnightblue" stroke="midnightblue" points="1620.4,-21.7 1610.01,-19.65 1616.86,-27.74 1620.4,-21.7"/>
</g>
<!-- Node32 -->
<g id="node32" class="node">
<title>Node32</title>
<g id="a_node32"><a xlink:title=" ">
<polygon fill="white" stroke="#bfbfbf" points="1656.76,-0.5 1656.76,-19.5 1717.76,-19.5 1717.76,-0.5 1656.76,-0.5"/>
<text text-anchor="middle" x="1687.26" y="-7.5" font-family="Helvetica,sans-Serif" font-size="10.00">fmt/std.h</text>
</a>
</g>
</g>
<!-- Node30&#45;&gt;Node32 -->
<g id="edge45" class="edge">
<title>Node30&#45;&gt;Node32</title>
<path fill="none" stroke="midnightblue" d="M1687.26,-56.08C1687.26,-49.01 1687.26,-38.86 1687.26,-29.99"/>
<polygon fill="midnightblue" stroke="midnightblue" points="1690.76,-29.75 1687.26,-19.75 1683.76,-29.75 1690.76,-29.75"/>
</g>
<!-- Node33 -->
<g id="node33" class="node">
<title>Node33</title>
<g id="a_node33"><a xlink:title=" ">
<polygon fill="white" stroke="#bfbfbf" points="1736.26,-0.5 1736.26,-19.5 1780.26,-19.5 1780.26,-0.5 1736.26,-0.5"/>
<text text-anchor="middle" x="1758.26" y="-7.5" font-family="Helvetica,sans-Serif" font-size="10.00">limits</text>
</a>
</g>
</g>
<!-- Node30&#45;&gt;Node33 -->
<g id="edge46" class="edge">
<title>Node30&#45;&gt;Node33</title>
<path fill="none" stroke="midnightblue" d="M1698.67,-56.32C1709.37,-48.18 1725.6,-35.84 1738.43,-26.09"/>
<polygon fill="midnightblue" stroke="midnightblue" points="1740.81,-28.67 1746.65,-19.83 1736.57,-23.1 1740.81,-28.67"/>
</g>
<!-- Node34 -->
<g id="node34" class="node">
<title>Node34</title>
<g id="a_node34"><a xlink:title=" ">
<polygon fill="white" stroke="#bfbfbf" points="1798.26,-0.5 1798.26,-19.5 1836.26,-19.5 1836.26,-0.5 1798.26,-0.5"/>
<text text-anchor="middle" x="1817.26" y="-7.5" font-family="Helvetica,sans-Serif" font-size="10.00">map</text>
</a>
</g>
</g>
<!-- Node30&#45;&gt;Node34 -->
<g id="edge47" class="edge">
<title>Node30&#45;&gt;Node34</title>
<path fill="none" stroke="midnightblue" d="M1707.86,-56.44C1729.63,-47.4 1764.14,-33.07 1788.57,-22.92"/>
<polygon fill="midnightblue" stroke="midnightblue" points="1790.14,-26.06 1798.03,-18.99 1787.45,-19.59 1790.14,-26.06"/>
</g>
<!-- Node35 -->
<g id="node35" class="node">
<title>Node35</title>
<g id="a_node35"><a xlink:title=" ">
<polygon fill="white" stroke="#bfbfbf" points="1486.26,-0.5 1486.26,-19.5 1534.26,-19.5 1534.26,-0.5 1486.26,-0.5"/>
<text text-anchor="middle" x="1510.26" y="-7.5" font-family="Helvetica,sans-Serif" font-size="10.00">thread</text>
</a>
</g>
</g>
<!-- Node30&#45;&gt;Node35 -->
<g id="edge48" class="edge">
<title>Node30&#45;&gt;Node35</title>
<path fill="none" stroke="midnightblue" d="M1659.22,-56.44C1628.03,-46.93 1577.67,-31.56 1544.26,-21.37"/>
<polygon fill="midnightblue" stroke="midnightblue" points="1545.07,-17.96 1534.48,-18.39 1543.02,-24.65 1545.07,-17.96"/>
</g>
<!-- Node40&#45;&gt;Node21 -->
<g id="edge57" class="edge">
<title>Node40&#45;&gt;Node21</title>
<path fill="none" stroke="midnightblue" d="M963,-113.03C932.9,-103.9 883.31,-88.86 849.06,-78.47"/>
<polygon fill="midnightblue" stroke="midnightblue" points="849.99,-75.09 839.4,-75.54 847.95,-81.79 849.99,-75.09"/>
</g>
<!-- Node41 -->
<g id="node41" class="node">
<title>Node41</title>
<g id="a_node41"><a xlink:title=" ">
<polygon fill="white" stroke="#bfbfbf" points="970.76,-56.5 970.76,-75.5 1007.76,-75.5 1007.76,-56.5 970.76,-56.5"/>
<text text-anchor="middle" x="989.26" y="-63.5" font-family="Helvetica,sans-Serif" font-size="10.00">uv.h</text>
</a>
</g>
</g>
<!-- Node40&#45;&gt;Node41 -->
<g id="edge58" class="edge">
<title>Node40&#45;&gt;Node41</title>
<path fill="none" stroke="midnightblue" d="M989.26,-112.08C989.26,-105.01 989.26,-94.86 989.26,-85.99"/>
<polygon fill="midnightblue" stroke="midnightblue" points="992.76,-85.75 989.26,-75.75 985.76,-85.75 992.76,-85.75"/>
</g>
<!-- Node42&#45;&gt;Node28 -->
<g id="edge61" class="edge">
<title>Node42&#45;&gt;Node28</title>
<path fill="none" stroke="midnightblue" d="M1131.13,-168.32C1147.97,-159.66 1174.07,-146.24 1193.5,-136.25"/>
<polygon fill="midnightblue" stroke="midnightblue" points="1195.14,-139.34 1202.44,-131.65 1191.94,-133.12 1195.14,-139.34"/>
</g>
<!-- Node42&#45;&gt;Node41 -->
<g id="edge63" class="edge">
<title>Node42&#45;&gt;Node41</title>
<path fill="none" stroke="midnightblue" d="M1104.26,-168.41C1093.76,-159.39 1076.8,-144.76 1062.26,-132 1043.29,-115.34 1021.71,-96.09 1006.96,-82.89"/>
<polygon fill="midnightblue" stroke="midnightblue" points="1008.93,-79.94 999.14,-75.88 1004.25,-85.16 1008.93,-79.94"/>
</g>
<!-- Node43 -->
<g id="node43" class="node">
<title>Node43</title>
<g id="a_node43"><a xlink:title=" ">
<polygon fill="white" stroke="#bfbfbf" points="1071.26,-112.5 1071.26,-131.5 1157.26,-131.5 1157.26,-112.5 1071.26,-112.5"/>
<text text-anchor="middle" x="1114.26" y="-119.5" font-family="Helvetica,sans-Serif" font-size="10.00">unordered_set</text>
</a>
</g>
</g>
<!-- Node42&#45;&gt;Node43 -->
<g id="edge62" class="edge">
<title>Node42&#45;&gt;Node43</title>
<path fill="none" stroke="midnightblue" d="M1114.26,-168.08C1114.26,-161.01 1114.26,-150.86 1114.26,-141.99"/>
<polygon fill="midnightblue" stroke="midnightblue" points="1117.76,-141.75 1114.26,-131.75 1110.76,-141.75 1117.76,-141.75"/>
</g>
</g>
</svg>
        <g id="navigator" transform="translate(0 0)" fill="#404254">
                <rect fill="#f2f5e9" fill-opacity="0.5" stroke="#606060" stroke-width=".5" x="0" y="0" width="60" height="60"/>
                <use id="zoomplus" xlink:href="#zoomPlus" x="17" y="9" onmousedown="handleZoom(evt,'in')"/>
                <use id="zoomminus" xlink:href="#zoomMin" x="42" y="9" onmousedown="handleZoom(evt,'out')"/>
                <use id="reset" xlink:href="#resetDef" x="30" y="36" onmousedown="handleReset()"/>
                <g id="arrowUp" xlink:href="#dirArrow" transform="translate(30 24)" onmousedown="handlePan(0,-1)">
                  <use xlink:href="#rim" fill="#404040">
                        <set attributeName="fill" to="#808080" begin="arrowUp.mouseover" end="arrowUp.mouseout"/>
                  </use>
                  <path fill="none" stroke="white" stroke-width="1.5" d="M0,-3.0v7 M-2.5,-0.5L0,-3.0L2.5,-0.5"/>
                </g>
                <g id="arrowRight" xlink:href="#dirArrow" transform="rotate(90) translate(36 -43)" onmousedown="handlePan(1,0)">
                  <use xlink:href="#rim" fill="#404040">
                        <set attributeName="fill" to="#808080" begin="arrowRight.mouseover" end="arrowRight.mouseout"/>
                  </use>
                  <path fill="none" stroke="white" stroke-width="1.5" d="M0,-3.0v7 M-2.5,-0.5L0,-3.0L2.5,-0.5"/>
                </g>
                <g id="arrowDown" xlink:href="#dirArrow" transform="rotate(180) translate(-30 -48)" onmousedown="handlePan(0,1)">
                  <use xlink:href="#rim" fill="#404040">
                        <set attributeName="fill" to="#808080" begin="arrowDown.mouseover" end="arrowDown.mouseout"/>
                  </use>
                  <path fill="none" stroke="white" stroke-width="1.5" d="M0,-3.0v7 M-2.5,-0.5L0,-3.0L2.5,-0.5"/>
                </g>
                <g id="arrowLeft" xlink:href="#dirArrow" transform="rotate(270) translate(-36 17)" onmousedown="handlePan(-1,0)">
                  <use xlink:href="#rim" fill="#404040">
                        <set attributeName="fill" to="#808080" begin="arrowLeft.mouseover" end="arrowLeft.mouseout"/>
                  </use>
                  <path fill="none" stroke="white" stroke-width="1.5" d="M0,-3.0v7 M-2.5,-0.5L0,-3.0L2.5,-0.5"/>
                </g>
        </g>
        <svg viewBox="0 0 15 15" width="100%" height="30px" preserveAspectRatio="xMaxYMin meet">
         <g id="arrow_out" transform="scale(0.3 0.3)">
          <a xlink:href="rpc__connections_8h__incl_org.svg" target="_base">
           <rect id="button" ry="5" rx="5" y="6" x="6" height="38" width="38"
                fill="#f2f5e9" fill-opacity="0.5" stroke="#606060" stroke-width="1.0"/>
           <path id="arrow"
             d="M 11.500037,31.436501 C 11.940474,20.09759 22.043105,11.32322 32.158766,21.979434 L 37.068811,17.246167 C 37.068811,17.246167 37.088388,32 37.088388,32 L 22.160133,31.978069 C 22.160133,31.978069 26.997745,27.140456 26.997745,27.140456 C 18.528582,18.264221 13.291696,25.230495 11.500037,31.436501 z"
             style="fill:#404040;"/>
          </a>
         </g>
        </svg>
</svg>
