<?xml version="1.0" encoding="UTF-8" standalone="no"?>
<!DOCTYPE svg PUBLIC "-//W3C//DTD SVG 1.1//EN"
 "http://www.w3.org/Graphics/SVG/1.1/DTD/svg11.dtd">
<!-- Generated by graphviz version 2.43.0 (0)
 -->
<!-- Title: src/node/rpc/rpc_context_impl.h Pages: 1 -->
<svg width="1848pt" height="442pt"
 viewBox="0.00 0.00 1848.00 442.00" xmlns="http://www.w3.org/2000/svg" xmlns:xlink="http://www.w3.org/1999/xlink">
<g id="graph0" class="graph" transform="scale(1 1) rotate(0) translate(4 438)">
<title>src/node/rpc/rpc_context_impl.h</title>
<polygon fill="white" stroke="transparent" points="-4,4 -4,-438 1844,-438 1844,4 -4,4"/>
<!-- Node1 -->
<g id="node1" class="node">
<title>Node1</title>
<g id="a_node1"><a xlink:title=" ">
<polygon fill="#bfbfbf" stroke="black" points="603,-403.5 603,-433.5 739,-433.5 739,-403.5 603,-403.5"/>
<text text-anchor="start" x="611" y="-421.5" font-family="Helvetica,sans-Serif" font-size="10.00">src/node/rpc/rpc_context</text>
<text text-anchor="middle" x="671" y="-410.5" font-family="Helvetica,sans-Serif" font-size="10.00">_impl.h</text>
</a>
</g>
</g>
<!-- Node2 -->
<g id="node2" class="node">
<title>Node2</title>
<g id="a_node2"><a xlink:href="rpc__context_8h.html" target="_top" xlink:title=" ">
<polygon fill="white" stroke="black" points="436,-347.5 436,-366.5 536,-366.5 536,-347.5 436,-347.5"/>
<text text-anchor="middle" x="486" y="-354.5" font-family="Helvetica,sans-Serif" font-size="10.00">ccf/rpc_context.h</text>
</a>
</g>
</g>
<!-- Node1&#45;&gt;Node2 -->
<g id="edge1" class="edge">
<title>Node1&#45;&gt;Node2</title>
<path fill="none" stroke="midnightblue" d="M627.16,-403.4C595.19,-393.12 552.38,-379.35 522.32,-369.68"/>
<polygon fill="midnightblue" stroke="midnightblue" points="523.24,-366.3 512.65,-366.57 521.1,-372.96 523.24,-366.3"/>
</g>
<!-- Node33 -->
<g id="node33" class="node">
<title>Node33</title>
<g id="a_node33"><a xlink:href="claims_8h.html" target="_top" xlink:title=" ">
<polygon fill="white" stroke="black" points="845.5,-347.5 845.5,-366.5 948.5,-366.5 948.5,-347.5 845.5,-347.5"/>
<text text-anchor="middle" x="897" y="-354.5" font-family="Helvetica,sans-Serif" font-size="10.00">node/rpc/claims.h</text>
</a>
</g>
</g>
<!-- Node1&#45;&gt;Node33 -->
<g id="edge49" class="edge">
<title>Node1&#45;&gt;Node33</title>
<path fill="none" stroke="midnightblue" d="M724.27,-403.47C764.11,-392.99 817.86,-378.84 854.75,-369.12"/>
<polygon fill="midnightblue" stroke="midnightblue" points="855.91,-372.44 864.69,-366.51 854.13,-365.67 855.91,-372.44"/>
</g>
<!-- Node3 -->
<g id="node3" class="node">
<title>Node3</title>
<g id="a_node3"><a xlink:href="claims__digest_8h.html" target="_top" xlink:title=" ">
<polygon fill="white" stroke="black" points="842,-286 842,-305 952,-305 952,-286 842,-286"/>
<text text-anchor="middle" x="897" y="-293" font-family="Helvetica,sans-Serif" font-size="10.00">ccf/claims_digest.h</text>
</a>
</g>
</g>
<!-- Node2&#45;&gt;Node3 -->
<g id="edge2" class="edge">
<title>Node2&#45;&gt;Node3</title>
<path fill="none" stroke="midnightblue" d="M536.22,-350.98C603.9,-343.88 728.03,-329.65 833,-311 839.18,-309.9 845.67,-308.6 852.05,-307.24"/>
<polygon fill="midnightblue" stroke="midnightblue" points="852.9,-310.64 861.91,-305.07 851.39,-303.8 852.9,-310.64"/>
</g>
<!-- Node8 -->
<g id="node8" class="node">
<title>Node8</title>
<g id="a_node8"><a xlink:title=" ">
<polygon fill="white" stroke="#bfbfbf" points="402.5,-0.5 402.5,-19.5 449.5,-19.5 449.5,-0.5 402.5,-0.5"/>
<text text-anchor="middle" x="426" y="-7.5" font-family="Helvetica,sans-Serif" font-size="10.00">vector</text>
</a>
</g>
</g>
<!-- Node2&#45;&gt;Node8 -->
<g id="edge48" class="edge">
<title>Node2&#45;&gt;Node8</title>
<path fill="none" stroke="midnightblue" d="M435.95,-348.92C390.64,-341.52 328.41,-328.53 311,-311 286.46,-286.3 292,-269.82 292,-235 292,-235 292,-235 292,-121 292,-68.97 353.09,-37.06 392.77,-21.81"/>
<polygon fill="midnightblue" stroke="midnightblue" points="394.17,-25.02 402.35,-18.29 391.76,-18.45 394.17,-25.02"/>
</g>
<!-- Node20 -->
<g id="node20" class="node">
<title>Node20</title>
<g id="a_node20"><a xlink:href="frame__format_8h.html" target="_top" xlink:title=" ">
<polygon fill="white" stroke="black" points="596,-286 596,-305 706,-305 706,-286 596,-286"/>
<text text-anchor="middle" x="651" y="-293" font-family="Helvetica,sans-Serif" font-size="10.00">ccf/frame_format.h</text>
</a>
</g>
</g>
<!-- Node2&#45;&gt;Node20 -->
<g id="edge24" class="edge">
<title>Node2&#45;&gt;Node20</title>
<path fill="none" stroke="midnightblue" d="M509.64,-347.48C537.94,-337.27 585.53,-320.11 617.59,-308.55"/>
<polygon fill="midnightblue" stroke="midnightblue" points="619.18,-311.69 627.4,-305.01 616.81,-305.11 619.18,-311.69"/>
</g>
<!-- Node21 -->
<g id="node21" class="node">
<title>Node21</title>
<g id="a_node21"><a xlink:href="http__consts_8h.html" target="_top" xlink:title=" ">
<polygon fill="white" stroke="black" points="724.5,-286 724.5,-305 823.5,-305 823.5,-286 724.5,-286"/>
<text text-anchor="middle" x="774" y="-293" font-family="Helvetica,sans-Serif" font-size="10.00">ccf/http_consts.h</text>
</a>
</g>
</g>
<!-- Node2&#45;&gt;Node21 -->
<g id="edge25" class="edge">
<title>Node2&#45;&gt;Node21</title>
<path fill="none" stroke="midnightblue" d="M533.06,-347.42C579.45,-338.81 652.29,-324.86 715,-311 720.02,-309.89 725.27,-308.68 730.48,-307.44"/>
<polygon fill="midnightblue" stroke="midnightblue" points="731.47,-310.8 740.37,-305.05 729.83,-304 731.47,-310.8"/>
</g>
<!-- Node22 -->
<g id="node22" class="node">
<title>Node22</title>
<g id="a_node22"><a xlink:href="http__header__map_8h.html" target="_top" xlink:title=" ">
<polygon fill="white" stroke="black" points="0,-224.5 0,-243.5 128,-243.5 128,-224.5 0,-224.5"/>
<text text-anchor="middle" x="64" y="-231.5" font-family="Helvetica,sans-Serif" font-size="10.00">ccf/http_header_map.h</text>
</a>
</g>
</g>
<!-- Node2&#45;&gt;Node22 -->
<g id="edge26" class="edge">
<title>Node2&#45;&gt;Node22</title>
<path fill="none" stroke="midnightblue" d="M435.87,-356.62C370.93,-355.74 255.35,-348.37 165,-311 131.08,-296.97 98.37,-268.83 79.77,-251.01"/>
<polygon fill="midnightblue" stroke="midnightblue" points="82.07,-248.36 72.48,-243.86 77.17,-253.36 82.07,-248.36"/>
</g>
<!-- Node23 -->
<g id="node23" class="node">
<title>Node23</title>
<g id="a_node23"><a xlink:href="odata__error_8h.html" target="_top" xlink:title=" ">
<polygon fill="white" stroke="black" points="320,-286 320,-305 418,-305 418,-286 320,-286"/>
<text text-anchor="middle" x="369" y="-293" font-family="Helvetica,sans-Serif" font-size="10.00">ccf/odata_error.h</text>
</a>
</g>
</g>
<!-- Node2&#45;&gt;Node23 -->
<g id="edge28" class="edge">
<title>Node2&#45;&gt;Node23</title>
<path fill="none" stroke="midnightblue" d="M469.24,-347.48C449.78,-337.58 417.45,-321.14 394.79,-309.62"/>
<polygon fill="midnightblue" stroke="midnightblue" points="396.23,-306.42 385.73,-305.01 393.06,-312.66 396.23,-306.42"/>
</g>
<!-- Node25 -->
<g id="node25" class="node">
<title>Node25</title>
<g id="a_node25"><a xlink:href="rest__verb_8h.html" target="_top" xlink:title=" ">
<polygon fill="white" stroke="black" points="174.5,-286 174.5,-305 263.5,-305 263.5,-286 174.5,-286"/>
<text text-anchor="middle" x="219" y="-293" font-family="Helvetica,sans-Serif" font-size="10.00">ccf/rest_verb.h</text>
</a>
</g>
</g>
<!-- Node2&#45;&gt;Node25 -->
<g id="edge31" class="edge">
<title>Node2&#45;&gt;Node25</title>
<path fill="none" stroke="midnightblue" d="M444.88,-347.46C402.87,-338.65 335.78,-324.35 278,-311 273.05,-309.86 267.88,-308.63 262.74,-307.39"/>
<polygon fill="midnightblue" stroke="midnightblue" points="263.51,-303.98 252.97,-305.02 261.86,-310.78 263.51,-303.98"/>
</g>
<!-- Node27 -->
<g id="node27" class="node">
<title>Node27</title>
<g id="a_node27"><a xlink:href="signed__req_8h.html" target="_top" xlink:title=" ">
<polygon fill="white" stroke="black" points="474,-280.5 474,-310.5 578,-310.5 578,-280.5 474,-280.5"/>
<text text-anchor="start" x="482" y="-298.5" font-family="Helvetica,sans-Serif" font-size="10.00">ccf/service/signed</text>
<text text-anchor="middle" x="526" y="-287.5" font-family="Helvetica,sans-Serif" font-size="10.00">_req.h</text>
</a>
</g>
</g>
<!-- Node2&#45;&gt;Node27 -->
<g id="edge34" class="edge">
<title>Node2&#45;&gt;Node27</title>
<path fill="none" stroke="midnightblue" d="M491.73,-347.48C496.74,-340.02 504.25,-328.85 510.96,-318.87"/>
<polygon fill="midnightblue" stroke="midnightblue" points="513.9,-320.77 516.57,-310.52 508.09,-316.87 513.9,-320.77"/>
</g>
<!-- Node29 -->
<g id="node29" class="node">
<title>Node29</title>
<g id="a_node29"><a xlink:href="tx__id_8h.html" target="_top" xlink:title=" ">
<polygon fill="white" stroke="black" points="494.5,-224.5 494.5,-243.5 561.5,-243.5 561.5,-224.5 494.5,-224.5"/>
<text text-anchor="middle" x="528" y="-231.5" font-family="Helvetica,sans-Serif" font-size="10.00">ccf/tx_id.h</text>
</a>
</g>
</g>
<!-- Node2&#45;&gt;Node29 -->
<g id="edge39" class="edge">
<title>Node2&#45;&gt;Node29</title>
<path fill="none" stroke="midnightblue" d="M479.53,-347.14C469.71,-332.5 453.35,-302.64 465,-280 472.08,-266.25 485.52,-255.77 498.18,-248.39"/>
<polygon fill="midnightblue" stroke="midnightblue" points="500,-251.39 507.15,-243.57 496.69,-245.22 500,-251.39"/>
</g>
<!-- Node4 -->
<g id="node4" class="node">
<title>Node4</title>
<g id="a_node4"><a xlink:href="sha256__hash_8h.html" target="_top" xlink:title=" ">
<polygon fill="white" stroke="black" points="812,-224.5 812,-243.5 952,-243.5 952,-224.5 812,-224.5"/>
<text text-anchor="middle" x="882" y="-231.5" font-family="Helvetica,sans-Serif" font-size="10.00">ccf/crypto/sha256_hash.h</text>
</a>
</g>
</g>
<!-- Node3&#45;&gt;Node4 -->
<g id="edge3" class="edge">
<title>Node3&#45;&gt;Node4</title>
<path fill="none" stroke="midnightblue" d="M894.85,-285.98C892.71,-277.49 889.36,-264.2 886.62,-253.32"/>
<polygon fill="midnightblue" stroke="midnightblue" points="889.98,-252.35 884.15,-243.51 883.2,-254.06 889.98,-252.35"/>
</g>
<!-- Node5 -->
<g id="node5" class="node">
<title>Node5</title>
<g id="a_node5"><a xlink:href="json_8h.html" target="_top" xlink:title=" ">
<polygon fill="white" stroke="black" points="727.5,-168.5 727.5,-187.5 804.5,-187.5 804.5,-168.5 727.5,-168.5"/>
<text text-anchor="middle" x="766" y="-175.5" font-family="Helvetica,sans-Serif" font-size="10.00">ccf/ds/json.h</text>
</a>
</g>
</g>
<!-- Node4&#45;&gt;Node5 -->
<g id="edge4" class="edge">
<title>Node4&#45;&gt;Node5</title>
<path fill="none" stroke="midnightblue" d="M863.62,-224.44C844.78,-215.68 815.27,-201.94 793.62,-191.86"/>
<polygon fill="midnightblue" stroke="midnightblue" points="794.84,-188.56 784.29,-187.52 791.88,-194.91 794.84,-188.56"/>
</g>
<!-- Node12 -->
<g id="node12" class="node">
<title>Node12</title>
<g id="a_node12"><a xlink:title=" ">
<polygon fill="white" stroke="#bfbfbf" points="1335,-0.5 1335,-19.5 1377,-19.5 1377,-0.5 1335,-0.5"/>
<text text-anchor="middle" x="1356" y="-7.5" font-family="Helvetica,sans-Serif" font-size="10.00">array</text>
</a>
</g>
</g>
<!-- Node4&#45;&gt;Node12 -->
<g id="edge21" class="edge">
<title>Node4&#45;&gt;Node12</title>
<path fill="none" stroke="midnightblue" d="M952.19,-230.76C1085.13,-224.87 1365.58,-204 1424,-132 1452.05,-97.43 1404.19,-49.73 1375.38,-25.86"/>
<polygon fill="midnightblue" stroke="midnightblue" points="1377.49,-23.06 1367.5,-19.53 1373.1,-28.52 1377.49,-23.06"/>
</g>
<!-- Node16 -->
<g id="node16" class="node">
<title>Node16</title>
<g id="a_node16"><a xlink:title=" ">
<polygon fill="white" stroke="#bfbfbf" points="805.5,-56.5 805.5,-75.5 884.5,-75.5 884.5,-56.5 805.5,-56.5"/>
<text text-anchor="middle" x="845" y="-63.5" font-family="Helvetica,sans-Serif" font-size="10.00">fmt/format.h</text>
</a>
</g>
</g>
<!-- Node4&#45;&gt;Node16 -->
<g id="edge23" class="edge">
<title>Node4&#45;&gt;Node16</title>
<path fill="none" stroke="midnightblue" d="M874.53,-224.4C867.58,-215.82 857.61,-201.94 853,-188 841.54,-153.32 841.94,-110.06 843.39,-85.79"/>
<polygon fill="midnightblue" stroke="midnightblue" points="846.88,-86.02 844.11,-75.79 839.9,-85.51 846.88,-86.02"/>
</g>
<!-- Node19 -->
<g id="node19" class="node">
<title>Node19</title>
<g id="a_node19"><a xlink:title=" ">
<polygon fill="white" stroke="#bfbfbf" points="862,-168.5 862,-187.5 902,-187.5 902,-168.5 862,-168.5"/>
<text text-anchor="middle" x="882" y="-175.5" font-family="Helvetica,sans-Serif" font-size="10.00">span</text>
</a>
</g>
</g>
<!-- Node4&#45;&gt;Node19 -->
<g id="edge22" class="edge">
<title>Node4&#45;&gt;Node19</title>
<path fill="none" stroke="midnightblue" d="M882,-224.08C882,-217.01 882,-206.86 882,-197.99"/>
<polygon fill="midnightblue" stroke="midnightblue" points="885.5,-197.75 882,-187.75 878.5,-197.75 885.5,-197.75"/>
</g>
<!-- Node6 -->
<g id="node6" class="node">
<title>Node6</title>
<g id="a_node6"><a xlink:href="include_2ccf_2crypto_2base64_8h.html" target="_top" xlink:title=" ">
<polygon fill="white" stroke="black" points="399,-56.5 399,-75.5 511,-75.5 511,-56.5 399,-56.5"/>
<text text-anchor="middle" x="455" y="-63.5" font-family="Helvetica,sans-Serif" font-size="10.00">ccf/crypto/base64.h</text>
</a>
</g>
</g>
<!-- Node5&#45;&gt;Node6 -->
<g id="edge5" class="edge">
<title>Node5&#45;&gt;Node6</title>
<path fill="none" stroke="midnightblue" d="M727.32,-168.45C693.12,-160.44 642.11,-147.43 599,-132 556.72,-116.87 509.63,-94.51 481.17,-80.36"/>
<polygon fill="midnightblue" stroke="midnightblue" points="482.43,-77.07 471.92,-75.72 479.29,-83.33 482.43,-77.07"/>
</g>
<!-- Node9 -->
<g id="node9" class="node">
<title>Node9</title>
<g id="a_node9"><a xlink:href="include_2ccf_2ds_2json__schema_8h.html" target="_top" xlink:title=" ">
<polygon fill="white" stroke="black" points="607.5,-112.5 607.5,-131.5 728.5,-131.5 728.5,-112.5 607.5,-112.5"/>
<text text-anchor="middle" x="668" y="-119.5" font-family="Helvetica,sans-Serif" font-size="10.00">ccf/ds/json_schema.h</text>
</a>
</g>
</g>
<!-- Node5&#45;&gt;Node9 -->
<g id="edge8" class="edge">
<title>Node5&#45;&gt;Node9</title>
<path fill="none" stroke="midnightblue" d="M750.25,-168.32C734.68,-159.74 710.62,-146.49 692.54,-136.52"/>
<polygon fill="midnightblue" stroke="midnightblue" points="694.15,-133.42 683.71,-131.65 690.78,-139.55 694.15,-133.42"/>
</g>
<!-- Node5&#45;&gt;Node16 -->
<g id="edge19" class="edge">
<title>Node5&#45;&gt;Node16</title>
<path fill="none" stroke="midnightblue" d="M772.2,-168.37C785.24,-150.22 815.7,-107.8 832.8,-83.99"/>
<polygon fill="midnightblue" stroke="midnightblue" points="835.84,-85.76 838.83,-75.59 830.15,-81.67 835.84,-85.76"/>
</g>
<!-- Node18 -->
<g id="node18" class="node">
<title>Node18</title>
<g id="a_node18"><a xlink:title=" ">
<polygon fill="white" stroke="#bfbfbf" points="935,-112.5 935,-131.5 991,-131.5 991,-112.5 935,-112.5"/>
<text text-anchor="middle" x="963" y="-119.5" font-family="Helvetica,sans-Serif" font-size="10.00">sstream</text>
</a>
</g>
</g>
<!-- Node5&#45;&gt;Node18 -->
<g id="edge20" class="edge">
<title>Node5&#45;&gt;Node18</title>
<path fill="none" stroke="midnightblue" d="M797.22,-168.44C831.83,-158.96 887.67,-143.65 924.84,-133.46"/>
<polygon fill="midnightblue" stroke="midnightblue" points="926.08,-136.75 934.8,-130.73 924.23,-130 926.08,-136.75"/>
</g>
<!-- Node7 -->
<g id="node7" class="node">
<title>Node7</title>
<g id="a_node7"><a xlink:title=" ">
<polygon fill="white" stroke="#bfbfbf" points="311,-0.5 311,-19.5 355,-19.5 355,-0.5 311,-0.5"/>
<text text-anchor="middle" x="333" y="-7.5" font-family="Helvetica,sans-Serif" font-size="10.00">string</text>
</a>
</g>
</g>
<!-- Node6&#45;&gt;Node7 -->
<g id="edge6" class="edge">
<title>Node6&#45;&gt;Node7</title>
<path fill="none" stroke="midnightblue" d="M435.67,-56.44C415.68,-47.6 384.26,-33.69 361.44,-23.59"/>
<polygon fill="midnightblue" stroke="midnightblue" points="362.8,-20.36 352.24,-19.52 359.97,-26.76 362.8,-20.36"/>
</g>
<!-- Node6&#45;&gt;Node8 -->
<g id="edge7" class="edge">
<title>Node6&#45;&gt;Node8</title>
<path fill="none" stroke="midnightblue" d="M450.21,-56.08C446.24,-48.69 440.47,-37.95 435.57,-28.81"/>
<polygon fill="midnightblue" stroke="midnightblue" points="438.51,-26.91 430.7,-19.75 432.35,-30.22 438.51,-26.91"/>
</g>
<!-- Node10 -->
<g id="node10" class="node">
<title>Node10</title>
<g id="a_node10"><a xlink:href="nonstd_8h.html" target="_top" xlink:title=" ">
<polygon fill="white" stroke="black" points="697,-56.5 697,-75.5 787,-75.5 787,-56.5 697,-56.5"/>
<text text-anchor="middle" x="742" y="-63.5" font-family="Helvetica,sans-Serif" font-size="10.00">ccf/ds/nonstd.h</text>
</a>
</g>
</g>
<!-- Node9&#45;&gt;Node10 -->
<g id="edge9" class="edge">
<title>Node9&#45;&gt;Node10</title>
<path fill="none" stroke="midnightblue" d="M679.89,-112.32C691.15,-104.11 708.29,-91.6 721.71,-81.81"/>
<polygon fill="midnightblue" stroke="midnightblue" points="723.88,-84.56 729.89,-75.83 719.75,-78.9 723.88,-84.56"/>
</g>
<!-- Node9&#45;&gt;Node16 -->
<g id="edge17" class="edge">
<title>Node9&#45;&gt;Node16</title>
<path fill="none" stroke="midnightblue" d="M696.05,-112.44C726.08,-103.28 773.91,-88.69 807.24,-78.52"/>
<polygon fill="midnightblue" stroke="midnightblue" points="808.54,-81.78 817.09,-75.52 806.5,-75.09 808.54,-81.78"/>
</g>
<!-- Node17 -->
<g id="node17" class="node">
<title>Node17</title>
<g id="a_node17"><a xlink:title=" ">
<polygon fill="white" stroke="#bfbfbf" points="569,-56.5 569,-75.5 679,-75.5 679,-56.5 569,-56.5"/>
<text text-anchor="middle" x="624" y="-63.5" font-family="Helvetica,sans-Serif" font-size="10.00">nlohmann/json.hpp</text>
</a>
</g>
</g>
<!-- Node9&#45;&gt;Node17 -->
<g id="edge18" class="edge">
<title>Node9&#45;&gt;Node17</title>
<path fill="none" stroke="midnightblue" d="M660.73,-112.08C654.46,-104.38 645.21,-93.03 637.57,-83.65"/>
<polygon fill="midnightblue" stroke="midnightblue" points="640.16,-81.29 631.13,-75.75 634.73,-85.71 640.16,-81.29"/>
</g>
<!-- Node10&#45;&gt;Node7 -->
<g id="edge13" class="edge">
<title>Node10&#45;&gt;Node7</title>
<path fill="none" stroke="midnightblue" d="M696.94,-57.34C693.92,-56.87 690.92,-56.42 688,-56 557.71,-37.17 524.46,-37.61 394,-20 384.6,-18.73 374.39,-17.26 365.07,-15.88"/>
<polygon fill="midnightblue" stroke="midnightblue" points="365.41,-12.4 355,-14.38 364.38,-19.32 365.41,-12.4"/>
</g>
<!-- Node10&#45;&gt;Node8 -->
<g id="edge16" class="edge">
<title>Node10&#45;&gt;Node8</title>
<path fill="none" stroke="midnightblue" d="M696.72,-57.26C632.62,-46.31 516.87,-26.53 459.75,-16.77"/>
<polygon fill="midnightblue" stroke="midnightblue" points="460.24,-13.3 449.79,-15.07 459.06,-20.2 460.24,-13.3"/>
</g>
<!-- Node11 -->
<g id="node11" class="node">
<title>Node11</title>
<g id="a_node11"><a xlink:title=" ">
<polygon fill="white" stroke="#bfbfbf" points="672,-0.5 672,-19.5 736,-19.5 736,-0.5 672,-0.5"/>
<text text-anchor="middle" x="704" y="-7.5" font-family="Helvetica,sans-Serif" font-size="10.00">algorithm</text>
</a>
</g>
</g>
<!-- Node10&#45;&gt;Node11 -->
<g id="edge10" class="edge">
<title>Node10&#45;&gt;Node11</title>
<path fill="none" stroke="midnightblue" d="M735.73,-56.08C730.36,-48.46 722.48,-37.26 715.92,-27.94"/>
<polygon fill="midnightblue" stroke="midnightblue" points="718.78,-25.91 710.16,-19.75 713.05,-29.94 718.78,-25.91"/>
</g>
<!-- Node10&#45;&gt;Node12 -->
<g id="edge11" class="edge">
<title>Node10&#45;&gt;Node12</title>
<path fill="none" stroke="midnightblue" d="M787.28,-57.29C790.56,-56.82 793.83,-56.39 797,-56 997.43,-31.58 1239.96,-17.19 1324.86,-12.61"/>
<polygon fill="midnightblue" stroke="midnightblue" points="1325.07,-16.1 1334.87,-12.08 1324.7,-9.11 1325.07,-16.1"/>
</g>
<!-- Node13 -->
<g id="node13" class="node">
<title>Node13</title>
<g id="a_node13"><a xlink:title=" ">
<polygon fill="white" stroke="#bfbfbf" points="754.5,-0.5 754.5,-19.5 803.5,-19.5 803.5,-0.5 754.5,-0.5"/>
<text text-anchor="middle" x="779" y="-7.5" font-family="Helvetica,sans-Serif" font-size="10.00">cctype</text>
</a>
</g>
</g>
<!-- Node10&#45;&gt;Node13 -->
<g id="edge12" class="edge">
<title>Node10&#45;&gt;Node13</title>
<path fill="none" stroke="midnightblue" d="M748.11,-56.08C753.28,-48.53 760.85,-37.49 767.19,-28.23"/>
<polygon fill="midnightblue" stroke="midnightblue" points="770.24,-29.98 773,-19.75 764.46,-26.02 770.24,-29.98"/>
</g>
<!-- Node14 -->
<g id="node14" class="node">
<title>Node14</title>
<g id="a_node14"><a xlink:title=" ">
<polygon fill="white" stroke="#bfbfbf" points="542.5,-0.5 542.5,-19.5 615.5,-19.5 615.5,-0.5 542.5,-0.5"/>
<text text-anchor="middle" x="579" y="-7.5" font-family="Helvetica,sans-Serif" font-size="10.00">string_view</text>
</a>
</g>
</g>
<!-- Node10&#45;&gt;Node14 -->
<g id="edge14" class="edge">
<title>Node10&#45;&gt;Node14</title>
<path fill="none" stroke="midnightblue" d="M716.17,-56.44C688.75,-47.36 645.22,-32.94 614.57,-22.78"/>
<polygon fill="midnightblue" stroke="midnightblue" points="615.3,-19.34 604.71,-19.52 613.1,-25.98 615.3,-19.34"/>
</g>
<!-- Node15 -->
<g id="node15" class="node">
<title>Node15</title>
<g id="a_node15"><a xlink:title=" ">
<polygon fill="white" stroke="#bfbfbf" points="1105.5,-0.5 1105.5,-19.5 1174.5,-19.5 1174.5,-0.5 1105.5,-0.5"/>
<text text-anchor="middle" x="1140" y="-7.5" font-family="Helvetica,sans-Serif" font-size="10.00">type_traits</text>
</a>
</g>
</g>
<!-- Node10&#45;&gt;Node15 -->
<g id="edge15" class="edge">
<title>Node10&#45;&gt;Node15</title>
<path fill="none" stroke="midnightblue" d="M787,-57.52C790.39,-56.99 793.75,-56.48 797,-56 903.88,-40.25 1029.9,-24.42 1095.4,-16.39"/>
<polygon fill="midnightblue" stroke="midnightblue" points="1095.88,-19.86 1105.38,-15.17 1095.03,-12.91 1095.88,-19.86"/>
</g>
<!-- Node22&#45;&gt;Node7 -->
<g id="edge27" class="edge">
<title>Node22&#45;&gt;Node7</title>
<path fill="none" stroke="midnightblue" d="M65.09,-224.39C69.2,-195.63 86.48,-102.15 142,-56 187.55,-18.13 259.33,-10.95 300.7,-10.23"/>
<polygon fill="midnightblue" stroke="midnightblue" points="300.79,-13.73 310.77,-10.18 300.75,-6.73 300.79,-13.73"/>
</g>
<!-- Node23&#45;&gt;Node5 -->
<g id="edge29" class="edge">
<title>Node23&#45;&gt;Node5</title>
<path fill="none" stroke="midnightblue" d="M416.05,-285.92C457.59,-277.6 519.4,-263.39 571,-244 589.23,-237.15 591.89,-231.18 610,-224 645.82,-209.8 687.87,-197.94 719.28,-189.96"/>
<polygon fill="midnightblue" stroke="midnightblue" points="720.23,-193.33 729.08,-187.51 718.53,-186.54 720.23,-193.33"/>
</g>
<!-- Node24 -->
<g id="node24" class="node">
<title>Node24</title>
<g id="a_node24"><a xlink:href="http__status_8h.html" target="_top" xlink:title=" ">
<polygon fill="white" stroke="black" points="320,-224.5 320,-243.5 418,-243.5 418,-224.5 320,-224.5"/>
<text text-anchor="middle" x="369" y="-231.5" font-family="Helvetica,sans-Serif" font-size="10.00">ccf/http_status.h</text>
</a>
</g>
</g>
<!-- Node23&#45;&gt;Node24 -->
<g id="edge30" class="edge">
<title>Node23&#45;&gt;Node24</title>
<path fill="none" stroke="midnightblue" d="M369,-285.98C369,-277.58 369,-264.48 369,-253.66"/>
<polygon fill="midnightblue" stroke="midnightblue" points="372.5,-253.51 369,-243.51 365.5,-253.51 372.5,-253.51"/>
</g>
<!-- Node25&#45;&gt;Node7 -->
<g id="edge33" class="edge">
<title>Node25&#45;&gt;Node7</title>
<path fill="none" stroke="midnightblue" d="M209.22,-285.76C199.26,-276.36 184.04,-260.53 175,-244 160.56,-217.59 156,-209.1 156,-179 156,-179 156,-179 156,-121 156,-53.47 250.08,-25.94 301.06,-15.98"/>
<polygon fill="midnightblue" stroke="midnightblue" points="301.74,-19.41 310.94,-14.16 300.47,-12.53 301.74,-19.41"/>
</g>
<!-- Node26 -->
<g id="node26" class="node">
<title>Node26</title>
<g id="a_node26"><a xlink:title=" ">
<polygon fill="white" stroke="#bfbfbf" points="184,-224.5 184,-243.5 264,-243.5 264,-224.5 184,-224.5"/>
<text text-anchor="middle" x="224" y="-231.5" font-family="Helvetica,sans-Serif" font-size="10.00">llhttp/llhttp.h</text>
</a>
</g>
</g>
<!-- Node25&#45;&gt;Node26 -->
<g id="edge32" class="edge">
<title>Node25&#45;&gt;Node26</title>
<path fill="none" stroke="midnightblue" d="M219.72,-285.98C220.42,-277.58 221.52,-264.48 222.43,-253.66"/>
<polygon fill="midnightblue" stroke="midnightblue" points="225.94,-253.77 223.28,-243.51 218.96,-253.18 225.94,-253.77"/>
</g>
<!-- Node27&#45;&gt;Node5 -->
<g id="edge37" class="edge">
<title>Node27&#45;&gt;Node5</title>
<path fill="none" stroke="midnightblue" d="M578.23,-282.04C581.2,-281.35 584.14,-280.66 587,-280 658.01,-263.57 693.86,-293.89 747,-244 759.58,-232.19 763.98,-212.56 765.45,-197.95"/>
<polygon fill="midnightblue" stroke="midnightblue" points="768.96,-197.76 766.09,-187.56 761.98,-197.33 768.96,-197.76"/>
</g>
<!-- Node27&#45;&gt;Node8 -->
<g id="edge38" class="edge">
<title>Node27&#45;&gt;Node8</title>
<path fill="none" stroke="midnightblue" d="M505.49,-280.31C468.42,-254.45 393.46,-201.09 387,-188 376.43,-166.59 335.04,-206.2 390,-56 394.02,-45.01 401.89,-34.66 409.24,-26.67"/>
<polygon fill="midnightblue" stroke="midnightblue" points="411.75,-29.11 416.27,-19.53 406.76,-24.2 411.75,-29.11"/>
</g>
<!-- Node28 -->
<g id="node28" class="node">
<title>Node28</title>
<g id="a_node28"><a xlink:href="md__type_8h.html" target="_top" xlink:title=" ">
<polygon fill="white" stroke="black" points="618.5,-224.5 618.5,-243.5 737.5,-243.5 737.5,-224.5 618.5,-224.5"/>
<text text-anchor="middle" x="678" y="-231.5" font-family="Helvetica,sans-Serif" font-size="10.00">ccf/crypto/md_type.h</text>
</a>
</g>
</g>
<!-- Node27&#45;&gt;Node28 -->
<g id="edge35" class="edge">
<title>Node27&#45;&gt;Node28</title>
<path fill="none" stroke="midnightblue" d="M562.02,-280.4C587.64,-270.37 621.73,-257.03 646.31,-247.4"/>
<polygon fill="midnightblue" stroke="midnightblue" points="647.85,-250.56 655.88,-243.66 645.29,-244.04 647.85,-250.56"/>
</g>
<!-- Node28&#45;&gt;Node5 -->
<g id="edge36" class="edge">
<title>Node28&#45;&gt;Node5</title>
<path fill="none" stroke="midnightblue" d="M692.14,-224.32C705.87,-215.9 726.94,-202.97 743.06,-193.07"/>
<polygon fill="midnightblue" stroke="midnightblue" points="745.2,-195.87 751.9,-187.65 741.54,-189.9 745.2,-195.87"/>
</g>
<!-- Node29&#45;&gt;Node5 -->
<g id="edge40" class="edge">
<title>Node29&#45;&gt;Node5</title>
<path fill="none" stroke="midnightblue" d="M561.59,-225.38C602.54,-216.09 672,-200.33 718.43,-189.79"/>
<polygon fill="midnightblue" stroke="midnightblue" points="719.28,-193.19 728.26,-187.56 717.73,-186.36 719.28,-193.19"/>
</g>
<!-- Node29&#45;&gt;Node7 -->
<g id="edge46" class="edge">
<title>Node29&#45;&gt;Node7</title>
<path fill="none" stroke="midnightblue" d="M494.19,-226C457.48,-217.77 402.07,-203.27 387,-188 343.41,-143.85 334.86,-65.6 333.28,-29.81"/>
<polygon fill="midnightblue" stroke="midnightblue" points="336.78,-29.67 332.98,-19.78 329.78,-29.88 336.78,-29.67"/>
</g>
<!-- Node29&#45;&gt;Node14 -->
<g id="edge47" class="edge">
<title>Node29&#45;&gt;Node14</title>
<path fill="none" stroke="midnightblue" d="M529.43,-224.46C534.99,-191.35 555.1,-72.46 560,-56 562.72,-46.86 566.72,-37.06 570.35,-28.95"/>
<polygon fill="midnightblue" stroke="midnightblue" points="573.58,-30.3 574.62,-19.75 567.23,-27.35 573.58,-30.3"/>
</g>
<!-- Node29&#45;&gt;Node16 -->
<g id="edge43" class="edge">
<title>Node29&#45;&gt;Node16</title>
<path fill="none" stroke="midnightblue" d="M547.43,-224.43C584.86,-207.73 669.37,-169.23 738,-132 768.12,-115.66 801.73,-94.79 823.1,-81.17"/>
<polygon fill="midnightblue" stroke="midnightblue" points="825.2,-83.98 831.73,-75.64 821.43,-78.09 825.2,-83.98"/>
</g>
<!-- Node29&#45;&gt;Node17 -->
<g id="edge44" class="edge">
<title>Node29&#45;&gt;Node17</title>
<path fill="none" stroke="midnightblue" d="M537.26,-224.43C546.08,-215.87 559.27,-202.02 568,-188 587.28,-157.03 583.22,-144.89 599,-112 603.44,-102.73 608.94,-92.71 613.65,-84.48"/>
<polygon fill="midnightblue" stroke="midnightblue" points="616.7,-86.2 618.7,-75.8 610.64,-82.68 616.7,-86.2"/>
</g>
<!-- Node30 -->
<g id="node30" class="node">
<title>Node30</title>
<g id="a_node30"><a xlink:title=" ">
<polygon fill="white" stroke="#bfbfbf" points="464.5,-168.5 464.5,-187.5 525.5,-187.5 525.5,-168.5 464.5,-168.5"/>
<text text-anchor="middle" x="495" y="-175.5" font-family="Helvetica,sans-Serif" font-size="10.00">charconv</text>
</a>
</g>
</g>
<!-- Node29&#45;&gt;Node30 -->
<g id="edge41" class="edge">
<title>Node29&#45;&gt;Node30</title>
<path fill="none" stroke="midnightblue" d="M522.55,-224.08C517.99,-216.61 511.33,-205.72 505.71,-196.52"/>
<polygon fill="midnightblue" stroke="midnightblue" points="508.55,-194.46 500.35,-187.75 502.58,-198.11 508.55,-194.46"/>
</g>
<!-- Node31 -->
<g id="node31" class="node">
<title>Node31</title>
<g id="a_node31"><a xlink:title=" ">
<polygon fill="white" stroke="#bfbfbf" points="396,-168.5 396,-187.5 446,-187.5 446,-168.5 396,-168.5"/>
<text text-anchor="middle" x="421" y="-175.5" font-family="Helvetica,sans-Serif" font-size="10.00">cstdint</text>
</a>
</g>
</g>
<!-- Node29&#45;&gt;Node31 -->
<g id="edge42" class="edge">
<title>Node29&#45;&gt;Node31</title>
<path fill="none" stroke="midnightblue" d="M510.81,-224.32C493.65,-215.66 467.05,-202.24 447.25,-192.25"/>
<polygon fill="midnightblue" stroke="midnightblue" points="448.65,-189.04 438.15,-187.65 445.5,-195.28 448.65,-189.04"/>
</g>
<!-- Node32 -->
<g id="node32" class="node">
<title>Node32</title>
<g id="a_node32"><a xlink:title=" ">
<polygon fill="white" stroke="#bfbfbf" points="861,-112.5 861,-131.5 917,-131.5 917,-112.5 861,-112.5"/>
<text text-anchor="middle" x="889" y="-119.5" font-family="Helvetica,sans-Serif" font-size="10.00">optional</text>
</a>
</g>
</g>
<!-- Node29&#45;&gt;Node32 -->
<g id="edge45" class="edge">
<title>Node29&#45;&gt;Node32</title>
<path fill="none" stroke="midnightblue" d="M560.23,-224.43C590.29,-216.14 636.18,-202.69 675,-188 695.09,-180.4 698.77,-175.22 719,-168 763.49,-152.13 816.3,-139 851.12,-131.1"/>
<polygon fill="midnightblue" stroke="midnightblue" points="851.89,-134.52 860.88,-128.92 850.36,-127.69 851.89,-134.52"/>
</g>
<!-- Node33&#45;&gt;Node3 -->
<g id="edge50" class="edge">
<title>Node33&#45;&gt;Node3</title>
<path fill="none" stroke="midnightblue" d="M897,-347.48C897,-339.08 897,-325.98 897,-315.16"/>
<polygon fill="midnightblue" stroke="midnightblue" points="900.5,-315.01 897,-305.01 893.5,-315.01 900.5,-315.01"/>
</g>
<!-- Node34 -->
<g id="node34" class="node">
<title>Node34</title>
<g id="a_node34"><a xlink:href="logger_8h.html" target="_top" xlink:title=" ">
<polygon fill="white" stroke="black" points="1061.5,-168.5 1061.5,-187.5 1148.5,-187.5 1148.5,-168.5 1061.5,-168.5"/>
<text text-anchor="middle" x="1105" y="-175.5" font-family="Helvetica,sans-Serif" font-size="10.00">ccf/ds/logger.h</text>
</a>
</g>
</g>
<!-- Node33&#45;&gt;Node34 -->
<g id="edge51" class="edge">
<title>Node33&#45;&gt;Node34</title>
<path fill="none" stroke="midnightblue" d="M910.35,-347.34C923.56,-338.62 944.17,-324.54 961,-311 1009.86,-271.7 1063.25,-220.32 1089.14,-194.81"/>
<polygon fill="midnightblue" stroke="midnightblue" points="1091.62,-197.28 1096.26,-187.76 1086.69,-192.31 1091.62,-197.28"/>
</g>
<!-- Node34&#45;&gt;Node15 -->
<g id="edge67" class="edge">
<title>Node34&#45;&gt;Node15</title>
<path fill="none" stroke="midnightblue" d="M1148.62,-177.12C1223.7,-176.3 1372.44,-169.81 1405,-132 1470.31,-56.17 1276.33,-25.27 1184.88,-15.15"/>
<polygon fill="midnightblue" stroke="midnightblue" points="1185.1,-11.66 1174.79,-14.07 1184.36,-18.62 1185.1,-11.66"/>
</g>
<!-- Node34&#45;&gt;Node16 -->
<g id="edge62" class="edge">
<title>Node34&#45;&gt;Node16</title>
<path fill="none" stroke="midnightblue" d="M1098.01,-168.35C1086.17,-154.29 1060.72,-126.59 1033,-112 989.52,-89.11 934.28,-77.68 894.95,-72.09"/>
<polygon fill="midnightblue" stroke="midnightblue" points="895.19,-68.59 884.81,-70.73 894.26,-75.53 895.19,-68.59"/>
</g>
<!-- Node34&#45;&gt;Node17 -->
<g id="edge64" class="edge">
<title>Node34&#45;&gt;Node17</title>
<path fill="none" stroke="midnightblue" d="M1091.24,-168.37C1063.33,-150.89 1002.49,-112.87 1000,-112 871.24,-67.24 828.46,-92.47 689.33,-76.1"/>
<polygon fill="midnightblue" stroke="midnightblue" points="689.5,-72.59 679.15,-74.84 688.64,-79.54 689.5,-72.59"/>
</g>
<!-- Node34&#45;&gt;Node18 -->
<g id="edge66" class="edge">
<title>Node34&#45;&gt;Node18</title>
<path fill="none" stroke="midnightblue" d="M1082.5,-168.44C1058.92,-159.48 1021.68,-145.31 995.04,-135.18"/>
<polygon fill="midnightblue" stroke="midnightblue" points="995.99,-131.8 985.4,-131.52 993.5,-138.34 995.99,-131.8"/>
</g>
<!-- Node34&#45;&gt;Node32 -->
<g id="edge65" class="edge">
<title>Node34&#45;&gt;Node32</title>
<path fill="none" stroke="midnightblue" d="M1070.77,-168.44C1031.62,-158.66 967.7,-142.67 927.03,-132.51"/>
<polygon fill="midnightblue" stroke="midnightblue" points="927.77,-129.08 917.21,-130.05 926.07,-135.87 927.77,-129.08"/>
</g>
<!-- Node35 -->
<g id="node35" class="node">
<title>Node35</title>
<g id="a_node35"><a xlink:href="enum__formatter_8h.html" target="_top" xlink:title=" ">
<polygon fill="white" stroke="black" points="1085,-112.5 1085,-131.5 1221,-131.5 1221,-112.5 1085,-112.5"/>
<text text-anchor="middle" x="1153" y="-119.5" font-family="Helvetica,sans-Serif" font-size="10.00">ccf/ds/enum_formatter.h</text>
</a>
</g>
</g>
<!-- Node34&#45;&gt;Node35 -->
<g id="edge52" class="edge">
<title>Node34&#45;&gt;Node35</title>
<path fill="none" stroke="midnightblue" d="M1112.93,-168.08C1119.85,-160.3 1130.07,-148.8 1138.45,-139.37"/>
<polygon fill="midnightblue" stroke="midnightblue" points="1141.19,-141.55 1145.22,-131.75 1135.96,-136.9 1141.19,-141.55"/>
</g>
<!-- Node36 -->
<g id="node36" class="node">
<title>Node36</title>
<g id="a_node36"><a xlink:href="thread__ids_8h.html" target="_top" xlink:title=" ">
<polygon fill="white" stroke="black" points="1545,-112.5 1545,-131.5 1653,-131.5 1653,-112.5 1545,-112.5"/>
<text text-anchor="middle" x="1599" y="-119.5" font-family="Helvetica,sans-Serif" font-size="10.00">ccf/ds/thread_ids.h</text>
</a>
</g>
</g>
<!-- Node34&#45;&gt;Node36 -->
<g id="edge54" class="edge">
<title>Node34&#45;&gt;Node36</title>
<path fill="none" stroke="midnightblue" d="M1148.84,-172.21C1236.28,-162.65 1432.69,-141.18 1534.72,-130.03"/>
<polygon fill="midnightblue" stroke="midnightblue" points="1535.33,-133.48 1544.89,-128.91 1534.57,-126.52 1535.33,-133.48"/>
</g>
<!-- Node42 -->
<g id="node42" class="node">
<title>Node42</title>
<g id="a_node42"><a xlink:title=" ">
<polygon fill="white" stroke="#bfbfbf" points="1239.5,-112.5 1239.5,-131.5 1318.5,-131.5 1318.5,-112.5 1239.5,-112.5"/>
<text text-anchor="middle" x="1279" y="-119.5" font-family="Helvetica,sans-Serif" font-size="10.00">fmt/chrono.h</text>
</a>
</g>
</g>
<!-- Node34&#45;&gt;Node42 -->
<g id="edge61" class="edge">
<title>Node34&#45;&gt;Node42</title>
<path fill="none" stroke="midnightblue" d="M1132.57,-168.44C1162.1,-159.28 1209.12,-144.69 1241.88,-134.52"/>
<polygon fill="midnightblue" stroke="midnightblue" points="1243.04,-137.82 1251.56,-131.52 1240.97,-131.14 1243.04,-137.82"/>
</g>
<!-- Node43 -->
<g id="node43" class="node">
<title>Node43</title>
<g id="a_node43"><a xlink:title=" ">
<polygon fill="white" stroke="#bfbfbf" points="1336,-112.5 1336,-131.5 1396,-131.5 1396,-112.5 1336,-112.5"/>
<text text-anchor="middle" x="1366" y="-119.5" font-family="Helvetica,sans-Serif" font-size="10.00">iostream</text>
</a>
</g>
</g>
<!-- Node34&#45;&gt;Node43 -->
<g id="edge63" class="edge">
<title>Node34&#45;&gt;Node43</title>
<path fill="none" stroke="midnightblue" d="M1148.68,-168.63C1191.59,-160.32 1259.18,-146.95 1325.9,-132.42"/>
<polygon fill="midnightblue" stroke="midnightblue" points="1326.72,-135.82 1335.74,-130.26 1325.22,-128.98 1326.72,-135.82"/>
</g>
<!-- Node35&#45;&gt;Node16 -->
<g id="edge53" class="edge">
<title>Node35&#45;&gt;Node16</title>
<path fill="none" stroke="midnightblue" d="M1104.2,-112.44C1046.91,-102.4 952.42,-85.83 894.74,-75.72"/>
<polygon fill="midnightblue" stroke="midnightblue" points="895.21,-72.25 884.76,-73.97 894.01,-79.15 895.21,-72.25"/>
</g>
<!-- Node36&#45;&gt;Node16 -->
<g id="edge55" class="edge">
<title>Node36&#45;&gt;Node16</title>
<path fill="none" stroke="midnightblue" d="M1544.77,-117.12C1404.25,-107.05 1029.85,-80.24 894.61,-70.55"/>
<polygon fill="midnightblue" stroke="midnightblue" points="894.76,-67.05 884.53,-69.83 894.26,-74.04 894.76,-67.05"/>
</g>
<!-- Node37 -->
<g id="node37" class="node">
<title>Node37</title>
<g id="a_node37"><a xlink:title=" ">
<polygon fill="white" stroke="#bfbfbf" points="1556,-56.5 1556,-75.5 1642,-75.5 1642,-56.5 1556,-56.5"/>
<text text-anchor="middle" x="1599" y="-63.5" font-family="Helvetica,sans-Serif" font-size="10.00">fmt/ostream.h</text>
</a>
</g>
</g>
<!-- Node36&#45;&gt;Node37 -->
<g id="edge56" class="edge">
<title>Node36&#45;&gt;Node37</title>
<path fill="none" stroke="midnightblue" d="M1599,-112.08C1599,-105.01 1599,-94.86 1599,-85.99"/>
<polygon fill="midnightblue" stroke="midnightblue" points="1602.5,-85.75 1599,-75.75 1595.5,-85.75 1602.5,-85.75"/>
</g>
<!-- Node38 -->
<g id="node38" class="node">
<title>Node38</title>
<g id="a_node38"><a xlink:title=" ">
<polygon fill="white" stroke="#bfbfbf" points="1660.5,-56.5 1660.5,-75.5 1721.5,-75.5 1721.5,-56.5 1660.5,-56.5"/>
<text text-anchor="middle" x="1691" y="-63.5" font-family="Helvetica,sans-Serif" font-size="10.00">fmt/std.h</text>
</a>
</g>
</g>
<!-- Node36&#45;&gt;Node38 -->
<g id="edge57" class="edge">
<title>Node36&#45;&gt;Node38</title>
<path fill="none" stroke="midnightblue" d="M1613.78,-112.32C1628.27,-103.82 1650.57,-90.73 1667.49,-80.8"/>
<polygon fill="midnightblue" stroke="midnightblue" points="1669.4,-83.74 1676.26,-75.65 1665.86,-77.7 1669.4,-83.74"/>
</g>
<!-- Node39 -->
<g id="node39" class="node">
<title>Node39</title>
<g id="a_node39"><a xlink:title=" ">
<polygon fill="white" stroke="#bfbfbf" points="1740,-56.5 1740,-75.5 1784,-75.5 1784,-56.5 1740,-56.5"/>
<text text-anchor="middle" x="1762" y="-63.5" font-family="Helvetica,sans-Serif" font-size="10.00">limits</text>
</a>
</g>
</g>
<!-- Node36&#45;&gt;Node39 -->
<g id="edge58" class="edge">
<title>Node36&#45;&gt;Node39</title>
<path fill="none" stroke="midnightblue" d="M1624.83,-112.44C1653.38,-102.99 1699.39,-87.74 1730.15,-77.55"/>
<polygon fill="midnightblue" stroke="midnightblue" points="1731.56,-80.77 1739.95,-74.3 1729.36,-74.13 1731.56,-80.77"/>
</g>
<!-- Node40 -->
<g id="node40" class="node">
<title>Node40</title>
<g id="a_node40"><a xlink:title=" ">
<polygon fill="white" stroke="#bfbfbf" points="1802,-56.5 1802,-75.5 1840,-75.5 1840,-56.5 1802,-56.5"/>
<text text-anchor="middle" x="1821" y="-63.5" font-family="Helvetica,sans-Serif" font-size="10.00">map</text>
</a>
</g>
</g>
<!-- Node36&#45;&gt;Node40 -->
<g id="edge59" class="edge">
<title>Node36&#45;&gt;Node40</title>
<path fill="none" stroke="midnightblue" d="M1640.12,-112.5C1677.49,-104.54 1734.29,-91.88 1792.12,-76.08"/>
<polygon fill="midnightblue" stroke="midnightblue" points="1793.08,-79.44 1801.78,-73.41 1791.21,-72.7 1793.08,-79.44"/>
</g>
<!-- Node41 -->
<g id="node41" class="node">
<title>Node41</title>
<g id="a_node41"><a xlink:title=" ">
<polygon fill="white" stroke="#bfbfbf" points="1490,-56.5 1490,-75.5 1538,-75.5 1538,-56.5 1490,-56.5"/>
<text text-anchor="middle" x="1514" y="-63.5" font-family="Helvetica,sans-Serif" font-size="10.00">thread</text>
</a>
</g>
</g>
<!-- Node36&#45;&gt;Node41 -->
<g id="edge60" class="edge">
<title>Node36&#45;&gt;Node41</title>
<path fill="none" stroke="midnightblue" d="M1585.34,-112.32C1572.08,-103.9 1551.73,-90.97 1536.15,-81.07"/>
<polygon fill="midnightblue" stroke="midnightblue" points="1537.94,-78.06 1527.62,-75.65 1534.19,-83.97 1537.94,-78.06"/>
</g>
</g>
</svg>
