<?xml version="1.0" encoding="UTF-8" standalone="no"?>
<!DOCTYPE svg PUBLIC "-//W3C//DTD SVG 1.1//EN"
 "http://www.w3.org/Graphics/SVG/1.1/DTD/svg11.dtd">
<!-- Generated by graphviz version 2.43.0 (0)
 -->
<!-- Title: src/enclave/rpc_map.h Pages: 1 -->
<svg width="1883pt" height="498pt"
 viewBox="0.00 0.00 1883.00 498.00" xmlns="http://www.w3.org/2000/svg" xmlns:xlink="http://www.w3.org/1999/xlink">
<g id="graph0" class="graph" transform="scale(1 1) rotate(0) translate(4 494)">
<title>src/enclave/rpc_map.h</title>
<polygon fill="white" stroke="transparent" points="-4,4 -4,-494 1879,-494 1879,4 -4,4"/>
<!-- Node1 -->
<g id="node1" class="node">
<title>Node1</title>
<g id="a_node1"><a xlink:title=" ">
<polygon fill="#bfbfbf" stroke="black" points="175,-470.5 175,-489.5 301,-489.5 301,-470.5 175,-470.5"/>
<text text-anchor="middle" x="238" y="-477.5" font-family="Helvetica,sans-Serif" font-size="10.00">src/enclave/rpc_map.h</text>
</a>
</g>
</g>
<!-- Node2 -->
<g id="node2" class="node">
<title>Node2</title>
<g id="a_node2"><a xlink:href="actors_8h.html" target="_top" xlink:title=" ">
<polygon fill="white" stroke="black" points="153.5,-414.5 153.5,-433.5 226.5,-433.5 226.5,-414.5 153.5,-414.5"/>
<text text-anchor="middle" x="190" y="-421.5" font-family="Helvetica,sans-Serif" font-size="10.00">ccf/actors.h</text>
</a>
</g>
</g>
<!-- Node1&#45;&gt;Node2 -->
<g id="edge1" class="edge">
<title>Node1&#45;&gt;Node2</title>
<path fill="none" stroke="midnightblue" d="M230.07,-470.08C223.15,-462.3 212.93,-450.8 204.55,-441.37"/>
<polygon fill="midnightblue" stroke="midnightblue" points="207.04,-438.9 197.78,-433.75 201.81,-443.55 207.04,-438.9"/>
</g>
<!-- Node4 -->
<g id="node4" class="node">
<title>Node4</title>
<g id="a_node4"><a xlink:href="rpc__handler_8h.html" target="_top" xlink:title=" ">
<polygon fill="white" stroke="black" points="285,-414.5 285,-433.5 367,-433.5 367,-414.5 285,-414.5"/>
<text text-anchor="middle" x="326" y="-421.5" font-family="Helvetica,sans-Serif" font-size="10.00">rpc_handler.h</text>
</a>
</g>
</g>
<!-- Node1&#45;&gt;Node4 -->
<g id="edge3" class="edge">
<title>Node1&#45;&gt;Node4</title>
<path fill="none" stroke="midnightblue" d="M252.14,-470.32C265.87,-461.9 286.94,-448.97 303.06,-439.07"/>
<polygon fill="midnightblue" stroke="midnightblue" points="305.2,-441.87 311.9,-433.65 301.54,-435.9 305.2,-441.87"/>
</g>
<!-- Node3 -->
<g id="node3" class="node">
<title>Node3</title>
<g id="a_node3"><a xlink:title=" ">
<polygon fill="white" stroke="#bfbfbf" points="203,-0.5 203,-19.5 253,-19.5 253,-0.5 203,-0.5"/>
<text text-anchor="middle" x="228" y="-7.5" font-family="Helvetica,sans-Serif" font-size="10.00">cstdint</text>
</a>
</g>
</g>
<!-- Node2&#45;&gt;Node3 -->
<g id="edge2" class="edge">
<title>Node2&#45;&gt;Node3</title>
<path fill="none" stroke="midnightblue" d="M174.47,-414.46C161.56,-406.6 143.65,-393.78 133,-378 116.17,-353.05 114,-343.1 114,-313 114,-313 114,-313 114,-249.5 114,-212.31 116.6,-201.39 133,-168 156.25,-120.65 183.12,-122.52 208,-76 215.83,-61.36 221.09,-43.19 224.25,-29.79"/>
<polygon fill="midnightblue" stroke="midnightblue" points="227.71,-30.35 226.41,-19.83 220.87,-28.86 227.71,-30.35"/>
</g>
<!-- Node5 -->
<g id="node5" class="node">
<title>Node5</title>
<g id="a_node5"><a xlink:href="pem_8h.html" target="_top" xlink:title=" ">
<polygon fill="white" stroke="black" points="284,-241 284,-260 382,-260 382,-241 284,-241"/>
<text text-anchor="middle" x="333" y="-248" font-family="Helvetica,sans-Serif" font-size="10.00">ccf/crypto/pem.h</text>
</a>
</g>
</g>
<!-- Node4&#45;&gt;Node5 -->
<g id="edge4" class="edge">
<title>Node4&#45;&gt;Node5</title>
<path fill="none" stroke="midnightblue" d="M350.47,-414.44C366.57,-407.38 386.38,-395.63 396,-378 417.43,-338.75 376.41,-291.26 351,-267.17"/>
<polygon fill="midnightblue" stroke="midnightblue" points="353.14,-264.38 343.4,-260.2 348.41,-269.54 353.14,-264.38"/>
</g>
<!-- Node9 -->
<g id="node9" class="node">
<title>Node9</title>
<g id="a_node9"><a xlink:title=" ">
<polygon fill="white" stroke="#bfbfbf" points="56.5,-0.5 56.5,-19.5 103.5,-19.5 103.5,-0.5 56.5,-0.5"/>
<text text-anchor="middle" x="80" y="-7.5" font-family="Helvetica,sans-Serif" font-size="10.00">vector</text>
</a>
</g>
</g>
<!-- Node4&#45;&gt;Node9 -->
<g id="edge84" class="edge">
<title>Node4&#45;&gt;Node9</title>
<path fill="none" stroke="midnightblue" d="M284.71,-417.91C196.99,-405.94 0,-372.43 0,-313 0,-313 0,-313 0,-121 0,-80.62 35.69,-45.11 59.4,-25.97"/>
<polygon fill="midnightblue" stroke="midnightblue" points="61.74,-28.58 67.5,-19.69 57.45,-23.05 61.74,-28.58"/>
</g>
<!-- Node24 -->
<g id="node24" class="node">
<title>Node24</title>
<g id="a_node24"><a xlink:href="tx_8h.html" target="_top" xlink:title=" ">
<polygon fill="white" stroke="black" points="1289.5,-302.5 1289.5,-321.5 1342.5,-321.5 1342.5,-302.5 1289.5,-302.5"/>
<text text-anchor="middle" x="1316" y="-309.5" font-family="Helvetica,sans-Serif" font-size="10.00">ccf/tx.h</text>
</a>
</g>
</g>
<!-- Node4&#45;&gt;Node24 -->
<g id="edge28" class="edge">
<title>Node4&#45;&gt;Node24</title>
<path fill="none" stroke="midnightblue" d="M367.28,-418.41C529.87,-400.35 1124.67,-334.26 1279.14,-317.1"/>
<polygon fill="midnightblue" stroke="midnightblue" points="1279.53,-320.57 1289.08,-315.99 1278.76,-313.62 1279.53,-320.57"/>
</g>
<!-- Node31 -->
<g id="node31" class="node">
<title>Node31</title>
<g id="a_node31"><a xlink:title=" ">
<polygon fill="white" stroke="#bfbfbf" points="1703,-56.5 1703,-75.5 1747,-75.5 1747,-56.5 1703,-56.5"/>
<text text-anchor="middle" x="1725" y="-63.5" font-family="Helvetica,sans-Serif" font-size="10.00">limits</text>
</a>
</g>
</g>
<!-- Node4&#45;&gt;Node31 -->
<g id="edge82" class="edge">
<title>Node4&#45;&gt;Node31</title>
<path fill="none" stroke="midnightblue" d="M367.03,-422.29C612.4,-417.8 1875,-390.89 1875,-313 1875,-313 1875,-313 1875,-182.5 1875,-123.35 1800.86,-90.28 1756.83,-75.86"/>
<polygon fill="midnightblue" stroke="midnightblue" points="1757.72,-72.47 1747.13,-72.82 1755.63,-79.15 1757.72,-72.47"/>
</g>
<!-- Node41 -->
<g id="node41" class="node">
<title>Node41</title>
<g id="a_node41"><a xlink:href="forwarder__types_8h.html" target="_top" xlink:title=" ">
<polygon fill="white" stroke="black" points="142.5,-358.5 142.5,-377.5 247.5,-377.5 247.5,-358.5 142.5,-358.5"/>
<text text-anchor="middle" x="195" y="-365.5" font-family="Helvetica,sans-Serif" font-size="10.00">forwarder_types.h</text>
</a>
</g>
</g>
<!-- Node4&#45;&gt;Node41 -->
<g id="edge66" class="edge">
<title>Node4&#45;&gt;Node41</title>
<path fill="none" stroke="midnightblue" d="M305.24,-414.44C283.68,-405.56 249.74,-391.56 225.21,-381.45"/>
<polygon fill="midnightblue" stroke="midnightblue" points="226.24,-378.09 215.66,-377.52 223.57,-384.56 226.24,-378.09"/>
</g>
<!-- Node49 -->
<g id="node49" class="node">
<title>Node49</title>
<g id="a_node49"><a xlink:title=" ">
<polygon fill="white" stroke="#bfbfbf" points="266,-358.5 266,-377.5 316,-377.5 316,-358.5 266,-358.5"/>
<text text-anchor="middle" x="291" y="-365.5" font-family="Helvetica,sans-Serif" font-size="10.00">chrono</text>
</a>
</g>
</g>
<!-- Node4&#45;&gt;Node49 -->
<g id="edge81" class="edge">
<title>Node4&#45;&gt;Node49</title>
<path fill="none" stroke="midnightblue" d="M320.22,-414.08C315.33,-406.53 308.17,-395.49 302.17,-386.23"/>
<polygon fill="midnightblue" stroke="midnightblue" points="305.05,-384.24 296.67,-377.75 299.17,-388.05 305.05,-384.24"/>
</g>
<!-- Node50 -->
<g id="node50" class="node">
<title>Node50</title>
<g id="a_node50"><a xlink:title=" ">
<polygon fill="white" stroke="#bfbfbf" points="334.5,-358.5 334.5,-377.5 387.5,-377.5 387.5,-358.5 334.5,-358.5"/>
<text text-anchor="middle" x="361" y="-365.5" font-family="Helvetica,sans-Serif" font-size="10.00">stdint.h</text>
</a>
</g>
</g>
<!-- Node4&#45;&gt;Node50 -->
<g id="edge83" class="edge">
<title>Node4&#45;&gt;Node50</title>
<path fill="none" stroke="midnightblue" d="M331.78,-414.08C336.67,-406.53 343.83,-395.49 349.83,-386.23"/>
<polygon fill="midnightblue" stroke="midnightblue" points="352.83,-388.05 355.33,-377.75 346.95,-384.24 352.83,-388.05"/>
</g>
<!-- Node6 -->
<g id="node6" class="node">
<title>Node6</title>
<g id="a_node6"><a xlink:href="json_8h.html" target="_top" xlink:title=" ">
<polygon fill="white" stroke="black" points="796.5,-174 796.5,-193 873.5,-193 873.5,-174 796.5,-174"/>
<text text-anchor="middle" x="835" y="-181" font-family="Helvetica,sans-Serif" font-size="10.00">ccf/ds/json.h</text>
</a>
</g>
</g>
<!-- Node5&#45;&gt;Node6 -->
<g id="edge5" class="edge">
<title>Node5&#45;&gt;Node6</title>
<path fill="none" stroke="midnightblue" d="M382.05,-243.15C478.22,-230.7 690.49,-203.21 786.34,-190.8"/>
<polygon fill="midnightblue" stroke="midnightblue" points="786.88,-194.26 796.35,-189.51 785.98,-187.32 786.88,-194.26"/>
</g>
<!-- Node5&#45;&gt;Node9 -->
<g id="edge27" class="edge">
<title>Node5&#45;&gt;Node9</title>
<path fill="none" stroke="midnightblue" d="M283.75,-242.68C231.79,-234.53 154.5,-219.4 133,-199 84.85,-153.31 79.35,-67.57 79.42,-29.75"/>
<polygon fill="midnightblue" stroke="midnightblue" points="82.93,-29.7 79.59,-19.64 75.93,-29.58 82.93,-29.7"/>
</g>
<!-- Node15 -->
<g id="node15" class="node">
<title>Node15</title>
<g id="a_node15"><a xlink:title=" ">
<polygon fill="white" stroke="#bfbfbf" points="509.5,-0.5 509.5,-19.5 582.5,-19.5 582.5,-0.5 509.5,-0.5"/>
<text text-anchor="middle" x="546" y="-7.5" font-family="Helvetica,sans-Serif" font-size="10.00">string_view</text>
</a>
</g>
</g>
<!-- Node5&#45;&gt;Node15 -->
<g id="edge26" class="edge">
<title>Node5&#45;&gt;Node15</title>
<path fill="none" stroke="midnightblue" d="M328.91,-240.92C315.44,-211.33 275.95,-112.23 322,-56 343.93,-29.22 440.06,-18.04 499.04,-13.64"/>
<polygon fill="midnightblue" stroke="midnightblue" points="499.5,-17.11 509.23,-12.91 499.01,-10.13 499.5,-17.11"/>
</g>
<!-- Node20 -->
<g id="node20" class="node">
<title>Node20</title>
<g id="a_node20"><a xlink:title=" ">
<polygon fill="white" stroke="#bfbfbf" points="226,-174 226,-193 276,-193 276,-174 226,-174"/>
<text text-anchor="middle" x="251" y="-181" font-family="Helvetica,sans-Serif" font-size="10.00">cstring</text>
</a>
</g>
</g>
<!-- Node5&#45;&gt;Node20 -->
<g id="edge22" class="edge">
<title>Node5&#45;&gt;Node20</title>
<path fill="none" stroke="midnightblue" d="M321.94,-240.73C308.66,-230.21 286.17,-212.38 270.07,-199.62"/>
<polygon fill="midnightblue" stroke="midnightblue" points="271.89,-196.6 261.88,-193.13 267.55,-202.08 271.89,-196.6"/>
</g>
<!-- Node21 -->
<g id="node21" class="node">
<title>Node21</title>
<g id="a_node21"><a xlink:title=" ">
<polygon fill="white" stroke="#bfbfbf" points="142.5,-174 142.5,-193 207.5,-193 207.5,-174 142.5,-174"/>
<text text-anchor="middle" x="175" y="-181" font-family="Helvetica,sans-Serif" font-size="10.00">exception</text>
</a>
</g>
</g>
<!-- Node5&#45;&gt;Node21 -->
<g id="edge23" class="edge">
<title>Node5&#45;&gt;Node21</title>
<path fill="none" stroke="midnightblue" d="M312.02,-240.87C284.75,-229.65 236.93,-209.98 205.61,-197.09"/>
<polygon fill="midnightblue" stroke="midnightblue" points="206.65,-193.74 196.07,-193.17 203.98,-200.21 206.65,-193.74"/>
</g>
<!-- Node22 -->
<g id="node22" class="node">
<title>Node22</title>
<g id="a_node22"><a xlink:title=" ">
<polygon fill="white" stroke="#bfbfbf" points="332,-174 332,-193 390,-193 390,-174 332,-174"/>
<text text-anchor="middle" x="361" y="-181" font-family="Helvetica,sans-Serif" font-size="10.00">memory</text>
</a>
</g>
</g>
<!-- Node5&#45;&gt;Node22 -->
<g id="edge24" class="edge">
<title>Node5&#45;&gt;Node22</title>
<path fill="none" stroke="midnightblue" d="M336.78,-240.73C340.97,-230.99 347.87,-214.98 353.23,-202.53"/>
<polygon fill="midnightblue" stroke="midnightblue" points="356.54,-203.7 357.28,-193.13 350.11,-200.93 356.54,-203.7"/>
</g>
<!-- Node23 -->
<g id="node23" class="node">
<title>Node23</title>
<g id="a_node23"><a xlink:title=" ">
<polygon fill="white" stroke="#bfbfbf" points="408,-174 408,-193 448,-193 448,-174 408,-174"/>
<text text-anchor="middle" x="428" y="-181" font-family="Helvetica,sans-Serif" font-size="10.00">span</text>
</a>
</g>
</g>
<!-- Node5&#45;&gt;Node23 -->
<g id="edge25" class="edge">
<title>Node5&#45;&gt;Node23</title>
<path fill="none" stroke="midnightblue" d="M345.81,-240.73C361.48,-230.01 388.22,-211.72 406.93,-198.91"/>
<polygon fill="midnightblue" stroke="midnightblue" points="409.11,-201.66 415.39,-193.13 405.16,-195.89 409.11,-201.66"/>
</g>
<!-- Node7 -->
<g id="node7" class="node">
<title>Node7</title>
<g id="a_node7"><a xlink:href="include_2ccf_2crypto_2base64_8h.html" target="_top" xlink:title=" ">
<polygon fill="white" stroke="black" points="574,-56.5 574,-75.5 686,-75.5 686,-56.5 574,-56.5"/>
<text text-anchor="middle" x="630" y="-63.5" font-family="Helvetica,sans-Serif" font-size="10.00">ccf/crypto/base64.h</text>
</a>
</g>
</g>
<!-- Node6&#45;&gt;Node7 -->
<g id="edge6" class="edge">
<title>Node6&#45;&gt;Node7</title>
<path fill="none" stroke="midnightblue" d="M816.28,-173.94C795.59,-164.32 761.43,-147.95 733,-132 704.06,-115.76 671.88,-95 651.32,-81.37"/>
<polygon fill="midnightblue" stroke="midnightblue" points="653.01,-78.28 642.75,-75.65 649.12,-84.11 653.01,-78.28"/>
</g>
<!-- Node10 -->
<g id="node10" class="node">
<title>Node10</title>
<g id="a_node10"><a xlink:href="include_2ccf_2ds_2json__schema_8h.html" target="_top" xlink:title=" ">
<polygon fill="white" stroke="black" points="742.5,-112.5 742.5,-131.5 863.5,-131.5 863.5,-112.5 742.5,-112.5"/>
<text text-anchor="middle" x="803" y="-119.5" font-family="Helvetica,sans-Serif" font-size="10.00">ccf/ds/json_schema.h</text>
</a>
</g>
</g>
<!-- Node6&#45;&gt;Node10 -->
<g id="edge9" class="edge">
<title>Node6&#45;&gt;Node10</title>
<path fill="none" stroke="midnightblue" d="M830.42,-173.98C825.76,-165.32 818.41,-151.65 812.49,-140.65"/>
<polygon fill="midnightblue" stroke="midnightblue" points="815.4,-138.66 807.58,-131.51 809.23,-141.97 815.4,-138.66"/>
</g>
<!-- Node17 -->
<g id="node17" class="node">
<title>Node17</title>
<g id="a_node17"><a xlink:title=" ">
<polygon fill="white" stroke="#bfbfbf" points="1047.5,-56.5 1047.5,-75.5 1126.5,-75.5 1126.5,-56.5 1047.5,-56.5"/>
<text text-anchor="middle" x="1087" y="-63.5" font-family="Helvetica,sans-Serif" font-size="10.00">fmt/format.h</text>
</a>
</g>
</g>
<!-- Node6&#45;&gt;Node17 -->
<g id="edge20" class="edge">
<title>Node6&#45;&gt;Node17</title>
<path fill="none" stroke="midnightblue" d="M846.78,-173.89C866.89,-159.49 909.53,-130.32 949,-112 979.54,-97.83 1015.78,-86.19 1043.46,-78.31"/>
<polygon fill="midnightblue" stroke="midnightblue" points="1044.56,-81.63 1053.25,-75.57 1042.68,-74.89 1044.56,-81.63"/>
</g>
<!-- Node19 -->
<g id="node19" class="node">
<title>Node19</title>
<g id="a_node19"><a xlink:title=" ">
<polygon fill="white" stroke="#bfbfbf" points="958,-112.5 958,-131.5 1014,-131.5 1014,-112.5 958,-112.5"/>
<text text-anchor="middle" x="986" y="-119.5" font-family="Helvetica,sans-Serif" font-size="10.00">sstream</text>
</a>
</g>
</g>
<!-- Node6&#45;&gt;Node19 -->
<g id="edge21" class="edge">
<title>Node6&#45;&gt;Node19</title>
<path fill="none" stroke="midnightblue" d="M856.63,-173.98C882.42,-163.81 925.71,-146.76 955.04,-135.2"/>
<polygon fill="midnightblue" stroke="midnightblue" points="956.38,-138.43 964.41,-131.51 953.82,-131.92 956.38,-138.43"/>
</g>
<!-- Node8 -->
<g id="node8" class="node">
<title>Node8</title>
<g id="a_node8"><a xlink:title=" ">
<polygon fill="white" stroke="#bfbfbf" points="852,-0.5 852,-19.5 896,-19.5 896,-0.5 852,-0.5"/>
<text text-anchor="middle" x="874" y="-7.5" font-family="Helvetica,sans-Serif" font-size="10.00">string</text>
</a>
</g>
</g>
<!-- Node7&#45;&gt;Node8 -->
<g id="edge7" class="edge">
<title>Node7&#45;&gt;Node8</title>
<path fill="none" stroke="midnightblue" d="M675.1,-56.48C716.26,-48.48 778.95,-35.74 841.99,-20.12"/>
<polygon fill="midnightblue" stroke="midnightblue" points="842.85,-23.51 851.7,-17.69 841.15,-16.72 842.85,-23.51"/>
</g>
<!-- Node7&#45;&gt;Node9 -->
<g id="edge8" class="edge">
<title>Node7&#45;&gt;Node9</title>
<path fill="none" stroke="midnightblue" d="M573.67,-61.2C459.18,-53.28 202.8,-34.56 116,-20 115.11,-19.85 114.21,-19.69 113.3,-19.52"/>
<polygon fill="midnightblue" stroke="midnightblue" points="114.02,-16.1 103.51,-17.44 112.57,-22.94 114.02,-16.1"/>
</g>
<!-- Node11 -->
<g id="node11" class="node">
<title>Node11</title>
<g id="a_node11"><a xlink:href="nonstd_8h.html" target="_top" xlink:title=" ">
<polygon fill="white" stroke="black" points="704,-56.5 704,-75.5 794,-75.5 794,-56.5 704,-56.5"/>
<text text-anchor="middle" x="749" y="-63.5" font-family="Helvetica,sans-Serif" font-size="10.00">ccf/ds/nonstd.h</text>
</a>
</g>
</g>
<!-- Node10&#45;&gt;Node11 -->
<g id="edge10" class="edge">
<title>Node10&#45;&gt;Node11</title>
<path fill="none" stroke="midnightblue" d="M794.08,-112.08C786.22,-104.22 774.57,-92.57 765.08,-83.08"/>
<polygon fill="midnightblue" stroke="midnightblue" points="767.3,-80.35 757.75,-75.75 762.35,-85.3 767.3,-80.35"/>
</g>
<!-- Node10&#45;&gt;Node17 -->
<g id="edge18" class="edge">
<title>Node10&#45;&gt;Node17</title>
<path fill="none" stroke="midnightblue" d="M848,-112.44C899.58,-102.64 983.85,-86.61 1037.31,-76.45"/>
<polygon fill="midnightblue" stroke="midnightblue" points="1038.08,-79.86 1047.25,-74.56 1036.77,-72.99 1038.08,-79.86"/>
</g>
<!-- Node18 -->
<g id="node18" class="node">
<title>Node18</title>
<g id="a_node18"><a xlink:title=" ">
<polygon fill="white" stroke="#bfbfbf" points="888,-56.5 888,-75.5 998,-75.5 998,-56.5 888,-56.5"/>
<text text-anchor="middle" x="943" y="-63.5" font-family="Helvetica,sans-Serif" font-size="10.00">nlohmann/json.hpp</text>
</a>
</g>
</g>
<!-- Node10&#45;&gt;Node18 -->
<g id="edge19" class="edge">
<title>Node10&#45;&gt;Node18</title>
<path fill="none" stroke="midnightblue" d="M825.18,-112.44C848.43,-103.48 885.15,-89.31 911.42,-79.18"/>
<polygon fill="midnightblue" stroke="midnightblue" points="912.85,-82.38 920.92,-75.52 910.33,-75.85 912.85,-82.38"/>
</g>
<!-- Node11&#45;&gt;Node8 -->
<g id="edge14" class="edge">
<title>Node11&#45;&gt;Node8</title>
<path fill="none" stroke="midnightblue" d="M768.81,-56.44C789.29,-47.6 821.48,-33.69 844.86,-23.59"/>
<polygon fill="midnightblue" stroke="midnightblue" points="846.49,-26.7 854.29,-19.52 843.72,-20.27 846.49,-26.7"/>
</g>
<!-- Node11&#45;&gt;Node9 -->
<g id="edge17" class="edge">
<title>Node11&#45;&gt;Node9</title>
<path fill="none" stroke="midnightblue" d="M703.97,-57.14C700.94,-56.72 697.93,-56.33 695,-56 438.83,-26.77 370.8,-59.43 116,-20 115.26,-19.89 114.51,-19.76 113.76,-19.63"/>
<polygon fill="midnightblue" stroke="midnightblue" points="114.39,-16.19 103.89,-17.62 112.99,-23.05 114.39,-16.19"/>
</g>
<!-- Node12 -->
<g id="node12" class="node">
<title>Node12</title>
<g id="a_node12"><a xlink:title=" ">
<polygon fill="white" stroke="#bfbfbf" points="642,-0.5 642,-19.5 706,-19.5 706,-0.5 642,-0.5"/>
<text text-anchor="middle" x="674" y="-7.5" font-family="Helvetica,sans-Serif" font-size="10.00">algorithm</text>
</a>
</g>
</g>
<!-- Node11&#45;&gt;Node12 -->
<g id="edge11" class="edge">
<title>Node11&#45;&gt;Node12</title>
<path fill="none" stroke="midnightblue" d="M736.95,-56.32C725.54,-48.11 708.17,-35.6 694.57,-25.81"/>
<polygon fill="midnightblue" stroke="midnightblue" points="696.43,-22.84 686.27,-19.83 692.34,-28.52 696.43,-22.84"/>
</g>
<!-- Node13 -->
<g id="node13" class="node">
<title>Node13</title>
<g id="a_node13"><a xlink:title=" ">
<polygon fill="white" stroke="#bfbfbf" points="792,-0.5 792,-19.5 834,-19.5 834,-0.5 792,-0.5"/>
<text text-anchor="middle" x="813" y="-7.5" font-family="Helvetica,sans-Serif" font-size="10.00">array</text>
</a>
</g>
</g>
<!-- Node11&#45;&gt;Node13 -->
<g id="edge12" class="edge">
<title>Node11&#45;&gt;Node13</title>
<path fill="none" stroke="midnightblue" d="M759.28,-56.32C768.84,-48.26 783.28,-36.08 794.78,-26.37"/>
<polygon fill="midnightblue" stroke="midnightblue" points="797.14,-28.96 802.53,-19.83 792.63,-23.61 797.14,-28.96"/>
</g>
<!-- Node14 -->
<g id="node14" class="node">
<title>Node14</title>
<g id="a_node14"><a xlink:title=" ">
<polygon fill="white" stroke="#bfbfbf" points="724.5,-0.5 724.5,-19.5 773.5,-19.5 773.5,-0.5 724.5,-0.5"/>
<text text-anchor="middle" x="749" y="-7.5" font-family="Helvetica,sans-Serif" font-size="10.00">cctype</text>
</a>
</g>
</g>
<!-- Node11&#45;&gt;Node14 -->
<g id="edge13" class="edge">
<title>Node11&#45;&gt;Node14</title>
<path fill="none" stroke="midnightblue" d="M749,-56.08C749,-49.01 749,-38.86 749,-29.99"/>
<polygon fill="midnightblue" stroke="midnightblue" points="752.5,-29.75 749,-19.75 745.5,-29.75 752.5,-29.75"/>
</g>
<!-- Node11&#45;&gt;Node15 -->
<g id="edge15" class="edge">
<title>Node11&#45;&gt;Node15</title>
<path fill="none" stroke="midnightblue" d="M716.83,-56.44C681.94,-47.16 626.11,-32.31 587.83,-22.13"/>
<polygon fill="midnightblue" stroke="midnightblue" points="588.58,-18.7 578.02,-19.52 586.78,-25.47 588.58,-18.7"/>
</g>
<!-- Node16 -->
<g id="node16" class="node">
<title>Node16</title>
<g id="a_node16"><a xlink:title=" ">
<polygon fill="white" stroke="#bfbfbf" points="1346.5,-0.5 1346.5,-19.5 1415.5,-19.5 1415.5,-0.5 1346.5,-0.5"/>
<text text-anchor="middle" x="1381" y="-7.5" font-family="Helvetica,sans-Serif" font-size="10.00">type_traits</text>
</a>
</g>
</g>
<!-- Node11&#45;&gt;Node16 -->
<g id="edge16" class="edge">
<title>Node11&#45;&gt;Node16</title>
<path fill="none" stroke="midnightblue" d="M794.2,-61.14C910.63,-51.19 1219.83,-24.77 1336.02,-14.84"/>
<polygon fill="midnightblue" stroke="midnightblue" points="1336.66,-18.3 1346.33,-13.96 1336.07,-11.33 1336.66,-18.3"/>
</g>
<!-- Node24&#45;&gt;Node8 -->
<g id="edge65" class="edge">
<title>Node24&#45;&gt;Node8</title>
<path fill="none" stroke="midnightblue" d="M1342.64,-311.5C1451.6,-312.29 1854.81,-302.52 1795,-112 1785.92,-83.06 1782.52,-70.72 1756,-56 1718.16,-34.99 1060.72,-16.03 906.29,-11.85"/>
<polygon fill="midnightblue" stroke="midnightblue" points="906.14,-8.35 896.05,-11.58 905.95,-15.34 906.14,-8.35"/>
</g>
<!-- Node24&#45;&gt;Node22 -->
<g id="edge63" class="edge">
<title>Node24&#45;&gt;Node22</title>
<path fill="none" stroke="midnightblue" d="M1289.31,-310.44C1173.89,-307.86 717.16,-295.93 577,-266 506.03,-250.84 427.39,-216.35 387.44,-197.46"/>
<polygon fill="midnightblue" stroke="midnightblue" points="388.91,-194.28 378.37,-193.13 385.89,-200.6 388.91,-194.28"/>
</g>
<!-- Node25 -->
<g id="node25" class="node">
<title>Node25</title>
<g id="a_node25"><a xlink:href="ccf__assert_8h.html" target="_top" xlink:title=" ">
<polygon fill="white" stroke="black" points="1270,-241 1270,-260 1362,-260 1362,-241 1270,-241"/>
<text text-anchor="middle" x="1316" y="-248" font-family="Helvetica,sans-Serif" font-size="10.00">ccf/ccf_assert.h</text>
</a>
</g>
</g>
<!-- Node24&#45;&gt;Node25 -->
<g id="edge29" class="edge">
<title>Node24&#45;&gt;Node25</title>
<path fill="none" stroke="midnightblue" d="M1316,-302.48C1316,-294.08 1316,-280.98 1316,-270.16"/>
<polygon fill="midnightblue" stroke="midnightblue" points="1319.5,-270.01 1316,-260.01 1312.5,-270.01 1319.5,-270.01"/>
</g>
<!-- Node32 -->
<g id="node32" class="node">
<title>Node32</title>
<g id="a_node32"><a xlink:title=" ">
<polygon fill="white" stroke="#bfbfbf" points="1647,-56.5 1647,-75.5 1685,-75.5 1685,-56.5 1647,-56.5"/>
<text text-anchor="middle" x="1666" y="-63.5" font-family="Helvetica,sans-Serif" font-size="10.00">map</text>
</a>
</g>
</g>
<!-- Node24&#45;&gt;Node32 -->
<g id="edge62" class="edge">
<title>Node24&#45;&gt;Node32</title>
<path fill="none" stroke="midnightblue" d="M1342.61,-310.54C1425.42,-307.48 1679.03,-285.45 1780,-132 1784.89,-124.57 1785,-119.35 1780,-112 1774.95,-104.58 1727.03,-87.39 1694.95,-76.53"/>
<polygon fill="midnightblue" stroke="midnightblue" points="1695.76,-73.11 1685.16,-73.25 1693.53,-79.75 1695.76,-73.11"/>
</g>
<!-- Node36 -->
<g id="node36" class="node">
<title>Node36</title>
<g id="a_node36"><a xlink:title=" ">
<polygon fill="white" stroke="#bfbfbf" points="1715,-112.5 1715,-131.5 1771,-131.5 1771,-112.5 1715,-112.5"/>
<text text-anchor="middle" x="1743" y="-119.5" font-family="Helvetica,sans-Serif" font-size="10.00">optional</text>
</a>
</g>
</g>
<!-- Node24&#45;&gt;Node36 -->
<g id="edge64" class="edge">
<title>Node24&#45;&gt;Node36</title>
<path fill="none" stroke="midnightblue" d="M1336.16,-302.45C1357.33,-293.46 1391.55,-278.85 1421,-266 1529.68,-218.58 1658.41,-160.98 1714.51,-135.8"/>
<polygon fill="midnightblue" stroke="midnightblue" points="1716.11,-138.92 1723.8,-131.63 1713.25,-132.53 1716.11,-138.92"/>
</g>
<!-- Node37 -->
<g id="node37" class="node">
<title>Node37</title>
<g id="a_node37"><a xlink:href="sha256__hash_8h.html" target="_top" xlink:title=" ">
<polygon fill="white" stroke="black" points="780,-241 780,-260 920,-260 920,-241 780,-241"/>
<text text-anchor="middle" x="850" y="-248" font-family="Helvetica,sans-Serif" font-size="10.00">ccf/crypto/sha256_hash.h</text>
</a>
</g>
</g>
<!-- Node24&#45;&gt;Node37 -->
<g id="edge47" class="edge">
<title>Node24&#45;&gt;Node37</title>
<path fill="none" stroke="midnightblue" d="M1289.27,-307.59C1220.14,-298.76 1033.41,-274.92 927,-261.33"/>
<polygon fill="midnightblue" stroke="midnightblue" points="927.32,-257.84 916.96,-260.05 926.43,-264.79 927.32,-257.84"/>
</g>
<!-- Node38 -->
<g id="node38" class="node">
<title>Node38</title>
<g id="a_node38"><a xlink:href="tx__id_8h.html" target="_top" xlink:title=" ">
<polygon fill="white" stroke="black" points="1084.5,-241 1084.5,-260 1151.5,-260 1151.5,-241 1084.5,-241"/>
<text text-anchor="middle" x="1118" y="-248" font-family="Helvetica,sans-Serif" font-size="10.00">ccf/tx_id.h</text>
</a>
</g>
</g>
<!-- Node24&#45;&gt;Node38 -->
<g id="edge52" class="edge">
<title>Node24&#45;&gt;Node38</title>
<path fill="none" stroke="midnightblue" d="M1289.3,-302.98C1255.02,-292.67 1195.32,-274.73 1156.23,-262.99"/>
<polygon fill="midnightblue" stroke="midnightblue" points="1157.1,-259.6 1146.52,-260.07 1155.09,-266.3 1157.1,-259.6"/>
</g>
<!-- Node40 -->
<g id="node40" class="node">
<title>Node40</title>
<g id="a_node40"><a xlink:title=" ">
<polygon fill="white" stroke="#bfbfbf" points="1380,-241 1380,-260 1412,-260 1412,-241 1380,-241"/>
<text text-anchor="middle" x="1396" y="-248" font-family="Helvetica,sans-Serif" font-size="10.00">list</text>
</a>
</g>
</g>
<!-- Node24&#45;&gt;Node40 -->
<g id="edge61" class="edge">
<title>Node24&#45;&gt;Node40</title>
<path fill="none" stroke="midnightblue" d="M1327.46,-302.48C1340.17,-293.02 1360.91,-277.6 1376.25,-266.19"/>
<polygon fill="midnightblue" stroke="midnightblue" points="1378.62,-268.79 1384.56,-260.01 1374.45,-263.17 1378.62,-268.79"/>
</g>
<!-- Node26 -->
<g id="node26" class="node">
<title>Node26</title>
<g id="a_node26"><a xlink:href="logger_8h.html" target="_top" xlink:title=" ">
<polygon fill="white" stroke="black" points="1399.5,-174 1399.5,-193 1486.5,-193 1486.5,-174 1399.5,-174"/>
<text text-anchor="middle" x="1443" y="-181" font-family="Helvetica,sans-Serif" font-size="10.00">ccf/ds/logger.h</text>
</a>
</g>
</g>
<!-- Node25&#45;&gt;Node26 -->
<g id="edge30" class="edge">
<title>Node25&#45;&gt;Node26</title>
<path fill="none" stroke="midnightblue" d="M1332.86,-240.87C1354.4,-229.84 1391.9,-210.66 1417.08,-197.77"/>
<polygon fill="midnightblue" stroke="midnightblue" points="1418.76,-200.84 1426.07,-193.17 1415.57,-194.61 1418.76,-200.84"/>
</g>
<!-- Node26&#45;&gt;Node16 -->
<g id="edge46" class="edge">
<title>Node26&#45;&gt;Node16</title>
<path fill="none" stroke="midnightblue" d="M1470.36,-173.95C1477.38,-171.88 1484.94,-169.76 1492,-168 1569.46,-148.65 1593.98,-161.93 1668,-132 1678.74,-127.66 1750.42,-86.16 1756,-76 1760.28,-68.21 1761.9,-62.65 1756,-56 1734.4,-31.65 1520.72,-18 1425.91,-13.1"/>
<polygon fill="midnightblue" stroke="midnightblue" points="1425.93,-9.6 1415.76,-12.59 1425.57,-16.59 1425.93,-9.6"/>
</g>
<!-- Node26&#45;&gt;Node17 -->
<g id="edge41" class="edge">
<title>Node26&#45;&gt;Node17</title>
<path fill="none" stroke="midnightblue" d="M1414.53,-173.97C1406.93,-171.85 1398.69,-169.71 1391,-168 1295.99,-146.9 1264.62,-169.96 1175,-132 1147.3,-120.27 1120.19,-98.17 1103.54,-83.03"/>
<polygon fill="midnightblue" stroke="midnightblue" points="1105.54,-80.1 1095.84,-75.83 1100.76,-85.22 1105.54,-80.1"/>
</g>
<!-- Node26&#45;&gt;Node18 -->
<g id="edge43" class="edge">
<title>Node26&#45;&gt;Node18</title>
<path fill="none" stroke="midnightblue" d="M1415.1,-174C1407.35,-171.83 1398.89,-169.65 1391,-168 1279.84,-144.7 1248.55,-158.06 1138,-132 1078.7,-118.02 1011.76,-93.77 973.75,-79.17"/>
<polygon fill="midnightblue" stroke="midnightblue" points="974.86,-75.85 964.28,-75.51 972.34,-82.38 974.86,-75.85"/>
</g>
<!-- Node26&#45;&gt;Node19 -->
<g id="edge45" class="edge">
<title>Node26&#45;&gt;Node19</title>
<path fill="none" stroke="midnightblue" d="M1415.67,-173.99C1407.77,-171.77 1399.1,-169.57 1391,-168 1248.32,-140.39 1210.43,-148.12 1066,-132 1052.41,-130.48 1037.52,-128.81 1024.31,-127.32"/>
<polygon fill="midnightblue" stroke="midnightblue" points="1024.47,-123.82 1014.14,-126.18 1023.68,-130.77 1024.47,-123.82"/>
</g>
<!-- Node27 -->
<g id="node27" class="node">
<title>Node27</title>
<g id="a_node27"><a xlink:href="enum__formatter_8h.html" target="_top" xlink:title=" ">
<polygon fill="white" stroke="black" points="1184,-112.5 1184,-131.5 1320,-131.5 1320,-112.5 1184,-112.5"/>
<text text-anchor="middle" x="1252" y="-119.5" font-family="Helvetica,sans-Serif" font-size="10.00">ccf/ds/enum_formatter.h</text>
</a>
</g>
</g>
<!-- Node26&#45;&gt;Node27 -->
<g id="edge31" class="edge">
<title>Node26&#45;&gt;Node27</title>
<path fill="none" stroke="midnightblue" d="M1415.63,-173.98C1382.45,-163.64 1326.35,-146.16 1289.24,-134.6"/>
<polygon fill="midnightblue" stroke="midnightblue" points="1289.9,-131.14 1279.31,-131.51 1287.82,-137.82 1289.9,-131.14"/>
</g>
<!-- Node28 -->
<g id="node28" class="node">
<title>Node28</title>
<g id="a_node28"><a xlink:href="thread__ids_8h.html" target="_top" xlink:title=" ">
<polygon fill="white" stroke="black" points="1551,-112.5 1551,-131.5 1659,-131.5 1659,-112.5 1551,-112.5"/>
<text text-anchor="middle" x="1605" y="-119.5" font-family="Helvetica,sans-Serif" font-size="10.00">ccf/ds/thread_ids.h</text>
</a>
</g>
</g>
<!-- Node26&#45;&gt;Node28 -->
<g id="edge33" class="edge">
<title>Node26&#45;&gt;Node28</title>
<path fill="none" stroke="midnightblue" d="M1466.21,-173.98C1494,-163.77 1540.72,-146.61 1572.19,-135.05"/>
<polygon fill="midnightblue" stroke="midnightblue" points="1573.65,-138.24 1581.83,-131.51 1571.24,-131.67 1573.65,-138.24"/>
</g>
<!-- Node34 -->
<g id="node34" class="node">
<title>Node34</title>
<g id="a_node34"><a xlink:title=" ">
<polygon fill="white" stroke="#bfbfbf" points="1376.5,-112.5 1376.5,-131.5 1455.5,-131.5 1455.5,-112.5 1376.5,-112.5"/>
<text text-anchor="middle" x="1416" y="-119.5" font-family="Helvetica,sans-Serif" font-size="10.00">fmt/chrono.h</text>
</a>
</g>
</g>
<!-- Node26&#45;&gt;Node34 -->
<g id="edge40" class="edge">
<title>Node26&#45;&gt;Node34</title>
<path fill="none" stroke="midnightblue" d="M1439.13,-173.98C1435.2,-165.32 1429,-151.65 1424.01,-140.65"/>
<polygon fill="midnightblue" stroke="midnightblue" points="1427.18,-139.17 1419.86,-131.51 1420.81,-142.06 1427.18,-139.17"/>
</g>
<!-- Node35 -->
<g id="node35" class="node">
<title>Node35</title>
<g id="a_node35"><a xlink:title=" ">
<polygon fill="white" stroke="#bfbfbf" points="1473,-112.5 1473,-131.5 1533,-131.5 1533,-112.5 1473,-112.5"/>
<text text-anchor="middle" x="1503" y="-119.5" font-family="Helvetica,sans-Serif" font-size="10.00">iostream</text>
</a>
</g>
</g>
<!-- Node26&#45;&gt;Node35 -->
<g id="edge42" class="edge">
<title>Node26&#45;&gt;Node35</title>
<path fill="none" stroke="midnightblue" d="M1451.6,-173.98C1460.86,-164.78 1475.82,-149.96 1487.21,-138.66"/>
<polygon fill="midnightblue" stroke="midnightblue" points="1489.78,-141.04 1494.42,-131.51 1484.85,-136.07 1489.78,-141.04"/>
</g>
<!-- Node26&#45;&gt;Node36 -->
<g id="edge44" class="edge">
<title>Node26&#45;&gt;Node36</title>
<path fill="none" stroke="midnightblue" d="M1486.87,-174.16C1538.25,-164.33 1625.88,-147.4 1701,-132 1702.23,-131.75 1703.49,-131.49 1704.75,-131.23"/>
<polygon fill="midnightblue" stroke="midnightblue" points="1705.48,-134.65 1714.55,-129.17 1704.04,-127.8 1705.48,-134.65"/>
</g>
<!-- Node27&#45;&gt;Node17 -->
<g id="edge32" class="edge">
<title>Node27&#45;&gt;Node17</title>
<path fill="none" stroke="midnightblue" d="M1225.86,-112.44C1197.98,-103.32 1153.65,-88.81 1122.6,-78.65"/>
<polygon fill="midnightblue" stroke="midnightblue" points="1123.62,-75.3 1113.02,-75.52 1121.44,-81.95 1123.62,-75.3"/>
</g>
<!-- Node28&#45;&gt;Node17 -->
<g id="edge34" class="edge">
<title>Node28&#45;&gt;Node17</title>
<path fill="none" stroke="midnightblue" d="M1550.72,-113.09C1547.77,-112.71 1544.85,-112.34 1542,-112 1394.86,-94.22 1220.32,-78.44 1136.61,-71.2"/>
<polygon fill="midnightblue" stroke="midnightblue" points="1136.89,-67.71 1126.62,-70.34 1136.29,-74.68 1136.89,-67.71"/>
</g>
<!-- Node29 -->
<g id="node29" class="node">
<title>Node29</title>
<g id="a_node29"><a xlink:title=" ">
<polygon fill="white" stroke="#bfbfbf" points="1397,-56.5 1397,-75.5 1483,-75.5 1483,-56.5 1397,-56.5"/>
<text text-anchor="middle" x="1440" y="-63.5" font-family="Helvetica,sans-Serif" font-size="10.00">fmt/ostream.h</text>
</a>
</g>
</g>
<!-- Node28&#45;&gt;Node29 -->
<g id="edge35" class="edge">
<title>Node28&#45;&gt;Node29</title>
<path fill="none" stroke="midnightblue" d="M1578.86,-112.44C1550.98,-103.32 1506.65,-88.81 1475.6,-78.65"/>
<polygon fill="midnightblue" stroke="midnightblue" points="1476.62,-75.3 1466.02,-75.52 1474.44,-81.95 1476.62,-75.3"/>
</g>
<!-- Node30 -->
<g id="node30" class="node">
<title>Node30</title>
<g id="a_node30"><a xlink:title=" ">
<polygon fill="white" stroke="#bfbfbf" points="1501.5,-56.5 1501.5,-75.5 1562.5,-75.5 1562.5,-56.5 1501.5,-56.5"/>
<text text-anchor="middle" x="1532" y="-63.5" font-family="Helvetica,sans-Serif" font-size="10.00">fmt/std.h</text>
</a>
</g>
</g>
<!-- Node28&#45;&gt;Node30 -->
<g id="edge36" class="edge">
<title>Node28&#45;&gt;Node30</title>
<path fill="none" stroke="midnightblue" d="M1593.27,-112.32C1582.16,-104.11 1565.26,-91.6 1552.02,-81.81"/>
<polygon fill="midnightblue" stroke="midnightblue" points="1554.06,-78.97 1543.94,-75.83 1549.9,-84.59 1554.06,-78.97"/>
</g>
<!-- Node28&#45;&gt;Node31 -->
<g id="edge37" class="edge">
<title>Node28&#45;&gt;Node31</title>
<path fill="none" stroke="midnightblue" d="M1624.01,-112.44C1643.59,-103.64 1674.31,-89.81 1696.73,-79.72"/>
<polygon fill="midnightblue" stroke="midnightblue" points="1698.39,-82.81 1706.07,-75.52 1695.52,-76.43 1698.39,-82.81"/>
</g>
<!-- Node28&#45;&gt;Node32 -->
<g id="edge38" class="edge">
<title>Node28&#45;&gt;Node32</title>
<path fill="none" stroke="midnightblue" d="M1614.8,-112.32C1623.82,-104.34 1637.41,-92.31 1648.32,-82.65"/>
<polygon fill="midnightblue" stroke="midnightblue" points="1650.85,-85.08 1656.02,-75.83 1646.21,-79.84 1650.85,-85.08"/>
</g>
<!-- Node33 -->
<g id="node33" class="node">
<title>Node33</title>
<g id="a_node33"><a xlink:title=" ">
<polygon fill="white" stroke="#bfbfbf" points="1581,-56.5 1581,-75.5 1629,-75.5 1629,-56.5 1581,-56.5"/>
<text text-anchor="middle" x="1605" y="-63.5" font-family="Helvetica,sans-Serif" font-size="10.00">thread</text>
</a>
</g>
</g>
<!-- Node28&#45;&gt;Node33 -->
<g id="edge39" class="edge">
<title>Node28&#45;&gt;Node33</title>
<path fill="none" stroke="midnightblue" d="M1605,-112.08C1605,-105.01 1605,-94.86 1605,-85.99"/>
<polygon fill="midnightblue" stroke="midnightblue" points="1608.5,-85.75 1605,-75.75 1601.5,-85.75 1608.5,-85.75"/>
</g>
<!-- Node37&#45;&gt;Node6 -->
<g id="edge48" class="edge">
<title>Node37&#45;&gt;Node6</title>
<path fill="none" stroke="midnightblue" d="M847.98,-240.73C845.75,-231.09 842.11,-215.3 839.25,-202.91"/>
<polygon fill="midnightblue" stroke="midnightblue" points="842.65,-202.08 836.99,-193.13 835.83,-203.66 842.65,-202.08"/>
</g>
<!-- Node37&#45;&gt;Node13 -->
<g id="edge49" class="edge">
<title>Node37&#45;&gt;Node13</title>
<path fill="none" stroke="midnightblue" d="M835.17,-240.91C808.01,-224.16 751.39,-184.12 733,-132 730.04,-123.62 728.37,-119.59 733,-112 751.22,-82.14 782.55,-104.39 803,-76 812.49,-62.83 814.52,-44.24 814.45,-30.31"/>
<polygon fill="midnightblue" stroke="midnightblue" points="817.93,-29.77 814.02,-19.93 810.94,-30.06 817.93,-29.77"/>
</g>
<!-- Node37&#45;&gt;Node17 -->
<g id="edge51" class="edge">
<title>Node37&#45;&gt;Node17</title>
<path fill="none" stroke="midnightblue" d="M864.58,-240.95C895.23,-222.69 968.06,-177.8 1023,-132 1041.33,-116.72 1060.26,-96.9 1072.73,-83.18"/>
<polygon fill="midnightblue" stroke="midnightblue" points="1075.53,-85.31 1079.6,-75.53 1070.32,-80.64 1075.53,-85.31"/>
</g>
<!-- Node37&#45;&gt;Node23 -->
<g id="edge50" class="edge">
<title>Node37&#45;&gt;Node23</title>
<path fill="none" stroke="midnightblue" d="M779.9,-243.34C683.63,-234.39 515.73,-216.89 457,-199 455.33,-198.49 453.65,-197.9 451.97,-197.24"/>
<polygon fill="midnightblue" stroke="midnightblue" points="453.21,-193.96 442.65,-193.02 450.32,-200.33 453.21,-193.96"/>
</g>
<!-- Node38&#45;&gt;Node3 -->
<g id="edge55" class="edge">
<title>Node38&#45;&gt;Node3</title>
<path fill="none" stroke="midnightblue" d="M1084.31,-246.51C989.62,-237.96 725.65,-213.14 689,-199 587.05,-159.67 589.8,-98.19 489,-56 412.77,-24.1 314.94,-14.81 263.41,-12.11"/>
<polygon fill="midnightblue" stroke="midnightblue" points="263.29,-8.6 253.14,-11.62 262.96,-15.59 263.29,-8.6"/>
</g>
<!-- Node38&#45;&gt;Node6 -->
<g id="edge53" class="edge">
<title>Node38&#45;&gt;Node6</title>
<path fill="none" stroke="midnightblue" d="M1084.42,-241.79C1034.15,-230.24 939.12,-208.41 881.98,-195.29"/>
<polygon fill="midnightblue" stroke="midnightblue" points="882.65,-191.85 872.12,-193.02 881.08,-198.67 882.65,-191.85"/>
</g>
<!-- Node38&#45;&gt;Node8 -->
<g id="edge59" class="edge">
<title>Node38&#45;&gt;Node8</title>
<path fill="none" stroke="midnightblue" d="M1151.82,-242C1200.99,-229.07 1290.55,-197.43 1329,-132 1333.5,-124.34 1334.34,-119.1 1329,-112 1277.66,-43.74 1001.56,-19.38 906.32,-12.93"/>
<polygon fill="midnightblue" stroke="midnightblue" points="906.35,-9.43 896.14,-12.26 905.89,-16.41 906.35,-9.43"/>
</g>
<!-- Node38&#45;&gt;Node15 -->
<g id="edge60" class="edge">
<title>Node38&#45;&gt;Node15</title>
<path fill="none" stroke="midnightblue" d="M1084.19,-248.27C1023.23,-245.2 891.54,-234.65 787,-199 680.24,-162.59 635.45,-164.09 565,-76 554.34,-62.67 549.66,-43.55 547.61,-29.5"/>
<polygon fill="midnightblue" stroke="midnightblue" points="551.08,-29.06 546.46,-19.52 544.12,-29.86 551.08,-29.06"/>
</g>
<!-- Node38&#45;&gt;Node17 -->
<g id="edge56" class="edge">
<title>Node38&#45;&gt;Node17</title>
<path fill="none" stroke="midnightblue" d="M1116.5,-240.7C1111.73,-212.57 1096.76,-124.46 1090.17,-85.66"/>
<polygon fill="midnightblue" stroke="midnightblue" points="1093.61,-84.99 1088.48,-75.71 1086.7,-86.16 1093.61,-84.99"/>
</g>
<!-- Node38&#45;&gt;Node18 -->
<g id="edge57" class="edge">
<title>Node38&#45;&gt;Node18</title>
<path fill="none" stroke="midnightblue" d="M1094.82,-240.95C1056.91,-225.63 982.56,-189.58 949,-132 940.89,-118.08 939.94,-99.57 940.69,-85.86"/>
<polygon fill="midnightblue" stroke="midnightblue" points="944.2,-85.96 941.61,-75.69 937.23,-85.33 944.2,-85.96"/>
</g>
<!-- Node38&#45;&gt;Node36 -->
<g id="edge58" class="edge">
<title>Node38&#45;&gt;Node36</title>
<path fill="none" stroke="midnightblue" d="M1151.75,-245.72C1231.62,-236.65 1430.44,-213.36 1496,-199 1574.19,-181.87 1663.36,-151.7 1710.23,-134.99"/>
<polygon fill="midnightblue" stroke="midnightblue" points="1711.62,-138.21 1719.85,-131.54 1709.25,-131.63 1711.62,-138.21"/>
</g>
<!-- Node39 -->
<g id="node39" class="node">
<title>Node39</title>
<g id="a_node39"><a xlink:title=" ">
<polygon fill="white" stroke="#bfbfbf" points="1320.5,-174 1320.5,-193 1381.5,-193 1381.5,-174 1320.5,-174"/>
<text text-anchor="middle" x="1351" y="-181" font-family="Helvetica,sans-Serif" font-size="10.00">charconv</text>
</a>
</g>
</g>
<!-- Node38&#45;&gt;Node39 -->
<g id="edge54" class="edge">
<title>Node38&#45;&gt;Node39</title>
<path fill="none" stroke="midnightblue" d="M1151.76,-240.97C1189.5,-231.3 1252.36,-214.84 1306,-199 1309.15,-198.07 1312.41,-197.08 1315.68,-196.06"/>
<polygon fill="midnightblue" stroke="midnightblue" points="1316.89,-199.35 1325.37,-193 1314.78,-192.68 1316.89,-199.35"/>
</g>
<!-- Node41&#45;&gt;Node9 -->
<g id="edge80" class="edge">
<title>Node41&#45;&gt;Node9</title>
<path fill="none" stroke="midnightblue" d="M161.32,-358.49C115.19,-344.59 38,-312.24 38,-251.5 38,-251.5 38,-251.5 38,-121 38,-86.41 56.35,-49.49 68.79,-28.43"/>
<polygon fill="midnightblue" stroke="midnightblue" points="71.91,-30.04 74.16,-19.69 65.94,-26.38 71.91,-30.04"/>
</g>
<!-- Node42 -->
<g id="node42" class="node">
<title>Node42</title>
<g id="a_node42"><a xlink:href="entity__id_8h.html" target="_top" xlink:title=" ">
<polygon fill="white" stroke="black" points="632,-302.5 632,-321.5 718,-321.5 718,-302.5 632,-302.5"/>
<text text-anchor="middle" x="675" y="-309.5" font-family="Helvetica,sans-Serif" font-size="10.00">ccf/entity_id.h</text>
</a>
</g>
</g>
<!-- Node41&#45;&gt;Node42 -->
<g id="edge67" class="edge">
<title>Node41&#45;&gt;Node42</title>
<path fill="none" stroke="midnightblue" d="M247.75,-359.21C250.88,-358.79 253.98,-358.38 257,-358 387.81,-341.47 542.14,-325.86 621.66,-318.11"/>
<polygon fill="midnightblue" stroke="midnightblue" points="622.3,-321.56 631.91,-317.11 621.62,-314.59 622.3,-321.56"/>
</g>
<!-- Node42&#45;&gt;Node6 -->
<g id="edge68" class="edge">
<title>Node42&#45;&gt;Node6</title>
<path fill="none" stroke="midnightblue" d="M685.94,-302.33C703.75,-288.22 740.15,-259.39 771,-235 786.16,-223.02 803.35,-209.46 816.09,-199.41"/>
<polygon fill="midnightblue" stroke="midnightblue" points="818.44,-202.01 824.12,-193.07 814.11,-196.52 818.44,-202.01"/>
</g>
<!-- Node42&#45;&gt;Node8 -->
<g id="edge79" class="edge">
<title>Node42&#45;&gt;Node8</title>
<path fill="none" stroke="midnightblue" d="M679.19,-302.19C683.34,-293.23 689.68,-278.86 694,-266 716.46,-199.06 689.05,-167.26 733,-112 754.78,-84.62 774.29,-95.99 803,-76 823.87,-61.47 845.01,-41.26 858.73,-27.24"/>
<polygon fill="midnightblue" stroke="midnightblue" points="861.48,-29.43 865.89,-19.8 856.43,-24.58 861.48,-29.43"/>
</g>
<!-- Node43 -->
<g id="node43" class="node">
<title>Node43</title>
<g id="a_node43"><a xlink:href="blit__serialiser_8h.html" target="_top" xlink:title=" ">
<polygon fill="white" stroke="black" points="586.5,-235.5 586.5,-265.5 685.5,-265.5 685.5,-235.5 586.5,-235.5"/>
<text text-anchor="start" x="594.5" y="-253.5" font-family="Helvetica,sans-Serif" font-size="10.00">ccf/kv/serialisers</text>
<text text-anchor="middle" x="636" y="-242.5" font-family="Helvetica,sans-Serif" font-size="10.00">/blit_serialiser.h</text>
</a>
</g>
</g>
<!-- Node42&#45;&gt;Node43 -->
<g id="edge69" class="edge">
<title>Node42&#45;&gt;Node43</title>
<path fill="none" stroke="midnightblue" d="M669.41,-302.48C664.57,-295.09 657.35,-284.08 650.86,-274.17"/>
<polygon fill="midnightblue" stroke="midnightblue" points="653.6,-271.97 645.19,-265.52 647.75,-275.81 653.6,-271.97"/>
</g>
<!-- Node43&#45;&gt;Node11 -->
<g id="edge70" class="edge">
<title>Node43&#45;&gt;Node11</title>
<path fill="none" stroke="midnightblue" d="M634.86,-235.45C633.44,-208.66 633.99,-149.6 662,-112 673.29,-96.84 691.19,-86.36 707.82,-79.35"/>
<polygon fill="midnightblue" stroke="midnightblue" points="709.35,-82.51 717.4,-75.62 706.82,-75.99 709.35,-82.51"/>
</g>
<!-- Node44 -->
<g id="node44" class="node">
<title>Node44</title>
<g id="a_node44"><a xlink:href="serialised__entry_8h.html" target="_top" xlink:title=" ">
<polygon fill="white" stroke="black" points="466.5,-168.5 466.5,-198.5 571.5,-198.5 571.5,-168.5 466.5,-168.5"/>
<text text-anchor="start" x="474.5" y="-186.5" font-family="Helvetica,sans-Serif" font-size="10.00">ccf/kv/serialisers</text>
<text text-anchor="middle" x="519" y="-175.5" font-family="Helvetica,sans-Serif" font-size="10.00">/serialised_entry.h</text>
</a>
</g>
</g>
<!-- Node43&#45;&gt;Node44 -->
<g id="edge71" class="edge">
<title>Node43&#45;&gt;Node44</title>
<path fill="none" stroke="midnightblue" d="M610.61,-235.4C593.82,-226.07 571.61,-213.73 553.26,-203.53"/>
<polygon fill="midnightblue" stroke="midnightblue" points="554.78,-200.37 544.34,-198.58 551.38,-206.49 554.78,-200.37"/>
</g>
<!-- Node45 -->
<g id="node45" class="node">
<title>Node45</title>
<g id="a_node45"><a xlink:href="byte__vector_8h.html" target="_top" xlink:title=" ">
<polygon fill="white" stroke="black" points="372,-112.5 372,-131.5 472,-131.5 472,-112.5 372,-112.5"/>
<text text-anchor="middle" x="422" y="-119.5" font-family="Helvetica,sans-Serif" font-size="10.00">ccf/byte_vector.h</text>
</a>
</g>
</g>
<!-- Node44&#45;&gt;Node45 -->
<g id="edge72" class="edge">
<title>Node44&#45;&gt;Node45</title>
<path fill="none" stroke="midnightblue" d="M496.01,-168.4C480.61,-158.95 460.41,-146.56 445,-137.11"/>
<polygon fill="midnightblue" stroke="midnightblue" points="446.47,-133.9 436.11,-131.66 442.81,-139.87 446.47,-133.9"/>
</g>
<!-- Node45&#45;&gt;Node17 -->
<g id="edge77" class="edge">
<title>Node45&#45;&gt;Node17</title>
<path fill="none" stroke="midnightblue" d="M472.13,-117.74C573.33,-111.03 809.25,-94.72 1007,-76 1016.71,-75.08 1027.07,-73.99 1037,-72.9"/>
<polygon fill="midnightblue" stroke="midnightblue" points="1037.6,-76.35 1047.15,-71.76 1036.82,-69.4 1037.6,-76.35"/>
</g>
<!-- Node46 -->
<g id="node46" class="node">
<title>Node46</title>
<g id="a_node46"><a xlink:href="siphash_8h.html" target="_top" xlink:title=" ">
<polygon fill="white" stroke="black" points="104.5,-56.5 104.5,-75.5 199.5,-75.5 199.5,-56.5 104.5,-56.5"/>
<text text-anchor="middle" x="152" y="-63.5" font-family="Helvetica,sans-Serif" font-size="10.00">ccf/ds/siphash.h</text>
</a>
</g>
</g>
<!-- Node45&#45;&gt;Node46 -->
<g id="edge73" class="edge">
<title>Node45&#45;&gt;Node46</title>
<path fill="none" stroke="midnightblue" d="M379.22,-112.44C331.82,-102.96 255.37,-87.67 204.42,-77.48"/>
<polygon fill="midnightblue" stroke="midnightblue" points="205.07,-74.05 194.58,-75.52 203.7,-80.91 205.07,-74.05"/>
</g>
<!-- Node48 -->
<g id="node48" class="node">
<title>Node48</title>
<g id="a_node48"><a xlink:title=" ">
<polygon fill="white" stroke="#bfbfbf" points="331.5,-56.5 331.5,-75.5 480.5,-75.5 480.5,-56.5 331.5,-56.5"/>
<text text-anchor="middle" x="406" y="-63.5" font-family="Helvetica,sans-Serif" font-size="10.00">small_vector/SmallVector.h</text>
</a>
</g>
</g>
<!-- Node45&#45;&gt;Node48 -->
<g id="edge78" class="edge">
<title>Node45&#45;&gt;Node48</title>
<path fill="none" stroke="midnightblue" d="M419.36,-112.08C417.21,-104.85 414.12,-94.41 411.45,-85.4"/>
<polygon fill="midnightblue" stroke="midnightblue" points="414.79,-84.34 408.59,-75.75 408.08,-86.33 414.79,-84.34"/>
</g>
<!-- Node46&#45;&gt;Node3 -->
<g id="edge75" class="edge">
<title>Node46&#45;&gt;Node3</title>
<path fill="none" stroke="midnightblue" d="M164.21,-56.32C175.78,-48.11 193.38,-35.6 207.16,-25.81"/>
<polygon fill="midnightblue" stroke="midnightblue" points="209.44,-28.48 215.57,-19.83 205.39,-22.77 209.44,-28.48"/>
</g>
<!-- Node46&#45;&gt;Node9 -->
<g id="edge76" class="edge">
<title>Node46&#45;&gt;Node9</title>
<path fill="none" stroke="midnightblue" d="M140.43,-56.32C129.58,-48.18 113.12,-35.84 100.12,-26.09"/>
<polygon fill="midnightblue" stroke="midnightblue" points="101.88,-23.03 91.78,-19.83 97.68,-28.63 101.88,-23.03"/>
</g>
<!-- Node47 -->
<g id="node47" class="node">
<title>Node47</title>
<g id="a_node47"><a xlink:title=" ">
<polygon fill="white" stroke="#bfbfbf" points="125.5,-0.5 125.5,-19.5 178.5,-19.5 178.5,-0.5 125.5,-0.5"/>
<text text-anchor="middle" x="152" y="-7.5" font-family="Helvetica,sans-Serif" font-size="10.00">cstddef</text>
</a>
</g>
</g>
<!-- Node46&#45;&gt;Node47 -->
<g id="edge74" class="edge">
<title>Node46&#45;&gt;Node47</title>
<path fill="none" stroke="midnightblue" d="M152,-56.08C152,-49.01 152,-38.86 152,-29.99"/>
<polygon fill="midnightblue" stroke="midnightblue" points="155.5,-29.75 152,-19.75 148.5,-29.75 155.5,-29.75"/>
</g>
</g>
</svg>
