<?xml version="1.0" encoding="UTF-8" standalone="no"?>
<!DOCTYPE svg PUBLIC "-//W3C//DTD SVG 1.1//EN"
 "http://www.w3.org/Graphics/SVG/1.1/DTD/svg11.dtd">
<!-- Generated by graphviz version 2.43.0 (0)
 -->
<!-- Title: src/service/tables/secrets.h Pages: 1 -->
<!--zoomable 732 -->
<svg id="main" version="1.1" xmlns="http://www.w3.org/2000/svg" xmlns:xlink="http://www.w3.org/1999/xlink" xml:space="preserve" onload="init(evt)">
<style type="text/css"><![CDATA[
.edge:hover path { stroke: red; }
.edge:hover polygon { stroke: red; fill: red; }
]]></style>
<script type="text/javascript"><![CDATA[
var edges = document.getElementsByTagName('g');
if (edges && edges.length) {
  for (var i=0;i<edges.length;i++) {
    if (edges[i].id.substr(0,4)=='edge') {
      edges[i].setAttribute('class','edge');
    }
  }
}
]]></script>
        <defs>
                <circle id="rim" cx="0" cy="0" r="7"/>
                <circle id="rim2" cx="0" cy="0" r="3.5"/>
                <g id="zoomPlus">
                        <use xlink:href="#rim" fill="#404040">
                                <set attributeName="fill" to="#808080" begin="zoomplus.mouseover" end="zoomplus.mouseout"/>
                        </use>
                        <path d="M-4,0h8M0,-4v8" fill="none" stroke="white" stroke-width="1.5" pointer-events="none"/>
                </g>
                <g id="zoomMin">
                        <use xlink:href="#rim" fill="#404040">
                                <set attributeName="fill" to="#808080" begin="zoomminus.mouseover" end="zoomminus.mouseout"/>
                        </use>
                        <path d="M-4,0h8" fill="none" stroke="white" stroke-width="1.5" pointer-events="none"/>
                </g>
                <g id="dirArrow">
                        <path fill="none" stroke="white" stroke-width="1.5" d="M0,-3.0v7 M-2.5,-0.5L0,-3.0L2.5,-0.5"/>
                </g>
               <g id="resetDef">
                       <use xlink:href="#rim2" fill="#404040">
                               <set attributeName="fill" to="#808080" begin="reset.mouseover" end="reset.mouseout"/>
                       </use>
               </g>
        </defs>

<script type="text/javascript">
var viewWidth = 2025;
var viewHeight = 732;
var sectionId = 'dynsection-1';
</script>
<script xlink:href="svgpan.js"/>
<svg id="graph" class="graph">
<g id="viewport">
<title>src/service/tables/secrets.h</title>
<polygon fill="white" stroke="transparent" points="-4,4 -4,-728 2021.47,-728 2021.47,4 -4,4"/>
<!-- Node1 -->
<g id="node1" class="node">
<title>Node1</title>
<g id="a_node1"><a xlink:title=" ">
<polygon fill="#bfbfbf" stroke="black" points="919.49,-693.5 919.49,-723.5 1021.49,-723.5 1021.49,-693.5 919.49,-693.5"/>
<text text-anchor="start" x="927.49" y="-711.5" font-family="Helvetica,sans-Serif" font-size="10.00">src/service/tables</text>
<text text-anchor="middle" x="970.49" y="-700.5" font-family="Helvetica,sans-Serif" font-size="10.00">/secrets.h</text>
</a>
</g>
</g>
<!-- Node2 -->
<g id="node2" class="node">
<title>Node2</title>
<g id="a_node2"><a xlink:href="ledger__secret_8h.html" target="_top" xlink:title=" ">
<polygon fill="white" stroke="black" points="806.49,-637.5 806.49,-656.5 942.49,-656.5 942.49,-637.5 806.49,-637.5"/>
<text text-anchor="middle" x="874.49" y="-644.5" font-family="Helvetica,sans-Serif" font-size="10.00">src/node/ledger_secret.h</text>
</a>
</g>
</g>
<!-- Node1&#45;&gt;Node2 -->
<g id="edge1" class="edge">
<title>Node1&#45;&gt;Node2</title>
<path fill="none" stroke="midnightblue" d="M939.14,-688.07C922.03,-677.46 901.69,-664.86 888.46,-656.66"/>
<polygon fill="midnightblue" stroke="midnightblue" points="937.4,-691.11 947.74,-693.4 941.09,-685.16 937.4,-691.11"/>
</g>
<!-- Node3 -->
<g id="node3" class="node">
<title>Node3</title>
<g id="a_node3"><a xlink:href="ledger__secrets_8h.html" target="_top" xlink:title=" ">
<polygon fill="white" stroke="black" points="803.99,-581.5 803.99,-600.5 944.99,-600.5 944.99,-581.5 803.99,-581.5"/>
<text text-anchor="middle" x="874.49" y="-588.5" font-family="Helvetica,sans-Serif" font-size="10.00">src/node/ledger_secrets.h</text>
</a>
</g>
</g>
<!-- Node1&#45;&gt;Node3 -->
<g id="edge68" class="edge">
<title>Node1&#45;&gt;Node3</title>
<path fill="none" stroke="midnightblue" d="M968.56,-683.09C966.35,-668.48 961.61,-650.24 951.49,-637 938.24,-619.65 916.22,-607.76 899.12,-600.58"/>
<polygon fill="midnightblue" stroke="midnightblue" points="965.14,-683.9 969.81,-693.41 972.09,-683.06 965.14,-683.9"/>
</g>
<!-- Node33 -->
<g id="node33" class="node">
<title>Node33</title>
<g id="a_node33"><a xlink:href="network__tables_8h.html" target="_top" xlink:title=" ">
<polygon fill="white" stroke="black" points="1101.49,-447.5 1101.49,-477.5 1213.49,-477.5 1213.49,-447.5 1101.49,-447.5"/>
<text text-anchor="start" x="1109.49" y="-465.5" font-family="Helvetica,sans-Serif" font-size="10.00">src/service/network</text>
<text text-anchor="middle" x="1157.49" y="-454.5" font-family="Helvetica,sans-Serif" font-size="10.00">_tables.h</text>
</a>
</g>
</g>
<!-- Node1&#45;&gt;Node33 -->
<g id="edge69" class="edge">
<title>Node1&#45;&gt;Node33</title>
<path fill="none" stroke="midnightblue" d="M987.58,-685.2C1025.42,-635.83 1115.39,-518.44 1146.6,-477.71"/>
<polygon fill="midnightblue" stroke="midnightblue" points="984.66,-683.26 981.36,-693.33 990.22,-687.52 984.66,-683.26"/>
</g>
<!-- Node2&#45;&gt;Node3 -->
<g id="edge2" class="edge">
<title>Node2&#45;&gt;Node3</title>
<path fill="none" stroke="midnightblue" d="M874.49,-626.8C874.49,-617.91 874.49,-607.78 874.49,-600.75"/>
<polygon fill="midnightblue" stroke="midnightblue" points="870.99,-627.08 874.49,-637.08 877.99,-627.08 870.99,-627.08"/>
</g>
<!-- Node4 -->
<g id="node4" class="node">
<title>Node4</title>
<g id="a_node4"><a xlink:href="node_2encryptor_8h.html" target="_top" xlink:title=" ">
<polygon fill="white" stroke="black" points="1025.49,-252 1025.49,-271 1141.49,-271 1141.49,-252 1025.49,-252"/>
<text text-anchor="middle" x="1083.49" y="-259" font-family="Helvetica,sans-Serif" font-size="10.00">src/node/encryptor.h</text>
</a>
</g>
</g>
<!-- Node3&#45;&gt;Node4 -->
<g id="edge3" class="edge">
<title>Node3&#45;&gt;Node4</title>
<path fill="none" stroke="midnightblue" d="M955.32,-585.45C1092.81,-575.49 1357.49,-545.63 1357.49,-463.5 1357.49,-463.5 1357.49,-463.5 1357.49,-394.5 1357.49,-341.63 1189.84,-290.71 1116.82,-271.03"/>
<polygon fill="midnightblue" stroke="midnightblue" points="954.97,-581.97 945.24,-586.17 955.47,-588.95 954.97,-581.97"/>
</g>
<!-- Node5 -->
<g id="node5" class="node">
<title>Node5</title>
<g id="a_node5"><a xlink:href="historical__queries_8h.html" target="_top" xlink:title=" ">
<polygon fill="white" stroke="black" points="1503.49,-179.5 1503.49,-209.5 1609.49,-209.5 1609.49,-179.5 1503.49,-179.5"/>
<text text-anchor="start" x="1511.49" y="-197.5" font-family="Helvetica,sans-Serif" font-size="10.00">src/node/historical</text>
<text text-anchor="middle" x="1556.49" y="-186.5" font-family="Helvetica,sans-Serif" font-size="10.00">_queries.h</text>
</a>
</g>
</g>
<!-- Node3&#45;&gt;Node5 -->
<g id="edge13" class="edge">
<title>Node3&#45;&gt;Node5</title>
<path fill="none" stroke="midnightblue" d="M955.46,-587.89C1188.36,-580.77 1843.49,-552.78 1843.49,-463.5 1843.49,-463.5 1843.49,-463.5 1843.49,-327.5 1843.49,-290.31 1851.35,-271.73 1824.49,-246 1794.37,-217.13 1678.69,-204.08 1609.54,-198.75"/>
<polygon fill="midnightblue" stroke="midnightblue" points="955.24,-584.4 945.35,-588.2 955.45,-591.39 955.24,-584.4"/>
</g>
<!-- Node11 -->
<g id="node11" class="node">
<title>Node11</title>
<g id="a_node11"><a xlink:href="network__state_8h.html" target="_top" xlink:title=" ">
<polygon fill="white" stroke="black" points="975.49,-386 975.49,-405 1115.49,-405 1115.49,-386 975.49,-386"/>
<text text-anchor="middle" x="1045.49" y="-393" font-family="Helvetica,sans-Serif" font-size="10.00">src/node/network_state.h</text>
</a>
</g>
</g>
<!-- Node3&#45;&gt;Node11 -->
<g id="edge14" class="edge">
<title>Node3&#45;&gt;Node11</title>
<path fill="none" stroke="midnightblue" d="M889,-573.58C923.78,-534.23 1010.96,-435.58 1037.62,-405.41"/>
<polygon fill="midnightblue" stroke="midnightblue" points="886.06,-571.62 882.06,-581.44 891.31,-576.26 886.06,-571.62"/>
</g>
<!-- Node24 -->
<g id="node24" class="node">
<title>Node24</title>
<g id="a_node24"><a xlink:href="secret__broadcast_8h.html" target="_top" xlink:title=" ">
<polygon fill="white" stroke="black" points="797.99,-319 797.99,-338 950.99,-338 950.99,-319 797.99,-319"/>
<text text-anchor="middle" x="874.49" y="-326" font-family="Helvetica,sans-Serif" font-size="10.00">src/node/secret_broadcast.h</text>
</a>
</g>
</g>
<!-- Node3&#45;&gt;Node24 -->
<g id="edge60" class="edge">
<title>Node3&#45;&gt;Node24</title>
<path fill="none" stroke="midnightblue" d="M874.49,-571.22C874.49,-519.27 874.49,-375.11 874.49,-338.2"/>
<polygon fill="midnightblue" stroke="midnightblue" points="870.99,-571.33 874.49,-581.33 877.99,-571.33 870.99,-571.33"/>
</g>
<!-- Node25 -->
<g id="node25" class="node">
<title>Node25</title>
<g id="a_node25"><a xlink:href="share__manager_8h.html" target="_top" xlink:title=" ">
<polygon fill="white" stroke="black" points="419.99,-319 419.99,-338 564.99,-338 564.99,-319 419.99,-319"/>
<text text-anchor="middle" x="492.49" y="-326" font-family="Helvetica,sans-Serif" font-size="10.00">src/node/share_manager.h</text>
</a>
</g>
</g>
<!-- Node3&#45;&gt;Node25 -->
<g id="edge61" class="edge">
<title>Node3&#45;&gt;Node25</title>
<path fill="none" stroke="midnightblue" d="M853.31,-575.56C783.35,-527.85 560.98,-376.2 505.25,-338.2"/>
<polygon fill="midnightblue" stroke="midnightblue" points="851.55,-578.59 861.78,-581.33 855.49,-572.81 851.55,-578.59"/>
</g>
<!-- Node27 -->
<g id="node27" class="node">
<title>Node27</title>
<g id="a_node27"><a xlink:href="call__types_8h.html" target="_top" xlink:title=" ">
<polygon fill="white" stroke="black" points="262.99,-453 262.99,-472 399.99,-472 399.99,-453 262.99,-453"/>
<text text-anchor="middle" x="331.49" y="-460" font-family="Helvetica,sans-Serif" font-size="10.00">src/node/rpc/call_types.h</text>
</a>
</g>
</g>
<!-- Node3&#45;&gt;Node27 -->
<g id="edge46" class="edge">
<title>Node3&#45;&gt;Node27</title>
<path fill="none" stroke="midnightblue" d="M793.65,-588.45C680.3,-585.19 480.72,-575.23 415.49,-545 379.36,-528.25 349.32,-489.38 337.22,-472.07"/>
<polygon fill="midnightblue" stroke="midnightblue" points="793.57,-591.95 803.67,-588.72 793.77,-584.95 793.57,-591.95"/>
</g>
<!-- Node31 -->
<g id="node31" class="node">
<title>Node31</title>
<g id="a_node31"><a xlink:href="node__call__types_8h.html" target="_top" xlink:title=" ">
<polygon fill="white" stroke="black" points="424.99,-514.5 424.99,-544.5 549.99,-544.5 549.99,-514.5 424.99,-514.5"/>
<text text-anchor="start" x="432.99" y="-532.5" font-family="Helvetica,sans-Serif" font-size="10.00">src/node/rpc/node_call</text>
<text text-anchor="middle" x="487.49" y="-521.5" font-family="Helvetica,sans-Serif" font-size="10.00">_types.h</text>
</a>
</g>
</g>
<!-- Node3&#45;&gt;Node31 -->
<g id="edge58" class="edge">
<title>Node3&#45;&gt;Node31</title>
<path fill="none" stroke="midnightblue" d="M809.15,-579.95C736.92,-568.85 621.39,-551.09 550.22,-540.14"/>
<polygon fill="midnightblue" stroke="midnightblue" points="808.63,-583.41 819.05,-581.48 809.69,-576.5 808.63,-583.41"/>
</g>
<!-- Node32 -->
<g id="node32" class="node">
<title>Node32</title>
<g id="a_node32"><a xlink:href="genesis__gen_8h.html" target="_top" xlink:title=" ">
<polygon fill="white" stroke="black" points="714.49,-380.5 714.49,-410.5 824.49,-410.5 824.49,-380.5 714.49,-380.5"/>
<text text-anchor="start" x="722.49" y="-398.5" font-family="Helvetica,sans-Serif" font-size="10.00">src/service/genesis</text>
<text text-anchor="middle" x="769.49" y="-387.5" font-family="Helvetica,sans-Serif" font-size="10.00">_gen.h</text>
</a>
</g>
</g>
<!-- Node3&#45;&gt;Node32 -->
<g id="edge62" class="edge">
<title>Node3&#45;&gt;Node32</title>
<path fill="none" stroke="midnightblue" d="M865.04,-572.58C844.47,-534.68 795.99,-445.33 777.16,-410.63"/>
<polygon fill="midnightblue" stroke="midnightblue" points="862,-574.32 869.85,-581.44 868.15,-570.98 862,-574.32"/>
</g>
<!-- Node4&#45;&gt;Node5 -->
<g id="edge4" class="edge">
<title>Node4&#45;&gt;Node5</title>
<path fill="none" stroke="midnightblue" d="M1130.09,-249.86C1136.91,-248.46 1143.87,-247.13 1150.49,-246 1276.36,-224.6 1425.64,-208.35 1503.39,-200.57"/>
<polygon fill="midnightblue" stroke="midnightblue" points="1129.31,-246.44 1120.24,-251.93 1130.75,-253.29 1129.31,-246.44"/>
</g>
<!-- Node9 -->
<g id="node9" class="node">
<title>Node9</title>
<g id="a_node9"><a xlink:href="node__state_8h.html" target="_top" xlink:title=" ">
<polygon fill="white" stroke="black" points="715.49,-185 715.49,-204 839.49,-204 839.49,-185 715.49,-185"/>
<text text-anchor="middle" x="777.49" y="-192" font-family="Helvetica,sans-Serif" font-size="10.00">src/node/node_state.h</text>
</a>
</g>
</g>
<!-- Node4&#45;&gt;Node9 -->
<g id="edge9" class="edge">
<title>Node4&#45;&gt;Node9</title>
<path fill="none" stroke="midnightblue" d="M1033.14,-249.8C972.92,-237.01 873.33,-215.86 817.9,-204.08"/>
<polygon fill="midnightblue" stroke="midnightblue" points="1032.67,-253.28 1043.17,-251.94 1034.12,-246.43 1032.67,-253.28"/>
</g>
<!-- Node6 -->
<g id="node6" class="node">
<title>Node6</title>
<g id="a_node6"><a xlink:href="enclave_2enclave_8h.html" target="_top" xlink:title=" ">
<polygon fill="white" stroke="black" points="830.49,-56.5 830.49,-75.5 952.49,-75.5 952.49,-56.5 830.49,-56.5"/>
<text text-anchor="middle" x="891.49" y="-63.5" font-family="Helvetica,sans-Serif" font-size="10.00">src/enclave/enclave.h</text>
</a>
</g>
</g>
<!-- Node5&#45;&gt;Node6 -->
<g id="edge5" class="edge">
<title>Node5&#45;&gt;Node6</title>
<path fill="none" stroke="midnightblue" d="M1535.76,-172.02C1514.21,-150.25 1481.45,-118.83 1465.49,-112 1374.51,-73.07 1080.9,-67.44 952.52,-66.89"/>
<polygon fill="midnightblue" stroke="midnightblue" points="1533.36,-174.58 1542.87,-179.26 1538.36,-169.67 1533.36,-174.58"/>
</g>
<!-- Node8 -->
<g id="node8" class="node">
<title>Node8</title>
<g id="a_node8"><a xlink:href="historical__transaction__fetcher_8h.html" target="_top" xlink:title=" ">
<polygon fill="white" stroke="black" points="1517.99,-112.5 1517.99,-142.5 1642.99,-142.5 1642.99,-112.5 1517.99,-112.5"/>
<text text-anchor="start" x="1525.99" y="-130.5" font-family="Helvetica,sans-Serif" font-size="10.00">src/indexing/historical</text>
<text text-anchor="middle" x="1580.49" y="-119.5" font-family="Helvetica,sans-Serif" font-size="10.00">_transaction_fetcher.h</text>
</a>
</g>
</g>
<!-- Node5&#45;&gt;Node8 -->
<g id="edge7" class="edge">
<title>Node5&#45;&gt;Node8</title>
<path fill="none" stroke="midnightblue" d="M1565.17,-169.99C1568.57,-160.8 1572.34,-150.58 1575.3,-142.58"/>
<polygon fill="midnightblue" stroke="midnightblue" points="1561.88,-168.8 1561.7,-179.4 1568.45,-171.23 1561.88,-168.8"/>
</g>
<!-- Node7 -->
<g id="node7" class="node">
<title>Node7</title>
<g id="a_node7"><a xlink:href="enclave_2main_8cpp.html" target="_top" xlink:title=" ">
<polygon fill="white" stroke="black" points="831.49,-0.5 831.49,-19.5 951.49,-19.5 951.49,-0.5 831.49,-0.5"/>
<text text-anchor="middle" x="891.49" y="-7.5" font-family="Helvetica,sans-Serif" font-size="10.00">src/enclave/main.cpp</text>
</a>
</g>
</g>
<!-- Node6&#45;&gt;Node7 -->
<g id="edge6" class="edge">
<title>Node6&#45;&gt;Node7</title>
<path fill="none" stroke="midnightblue" d="M891.49,-45.8C891.49,-36.91 891.49,-26.78 891.49,-19.75"/>
<polygon fill="midnightblue" stroke="midnightblue" points="887.99,-46.08 891.49,-56.08 894.99,-46.08 887.99,-46.08"/>
</g>
<!-- Node8&#45;&gt;Node6 -->
<g id="edge8" class="edge">
<title>Node8&#45;&gt;Node6</title>
<path fill="none" stroke="midnightblue" d="M1507.96,-112.61C1506.46,-112.4 1504.97,-112.19 1503.49,-112 1302.78,-85.81 1062.88,-73.71 952.53,-69.21"/>
<polygon fill="midnightblue" stroke="midnightblue" points="1507.56,-116.09 1517.97,-114.12 1508.61,-109.16 1507.56,-116.09"/>
</g>
<!-- Node9&#45;&gt;Node6 -->
<g id="edge10" class="edge">
<title>Node9&#45;&gt;Node6</title>
<path fill="none" stroke="midnightblue" d="M779.6,-174.77C782.48,-156.84 789.18,-129.94 804.49,-112 819.62,-94.28 843.47,-82.64 862.38,-75.65"/>
<polygon fill="midnightblue" stroke="midnightblue" points="776.11,-174.47 778.23,-184.85 783.04,-175.41 776.11,-174.47"/>
</g>
<!-- Node10 -->
<g id="node10" class="node">
<title>Node10</title>
<g id="a_node10"><a xlink:href="gov__effects_8h.html" target="_top" xlink:title=" ">
<polygon fill="white" stroke="black" points="613.49,-118 613.49,-137 757.49,-137 757.49,-118 613.49,-118"/>
<text text-anchor="middle" x="685.49" y="-125" font-family="Helvetica,sans-Serif" font-size="10.00">src/node/rpc/gov_effects.h</text>
</a>
</g>
</g>
<!-- Node9&#45;&gt;Node10 -->
<g id="edge11" class="edge">
<title>Node9&#45;&gt;Node10</title>
<path fill="none" stroke="midnightblue" d="M756.86,-178.92C738.67,-166.07 712.79,-147.78 697.7,-137.13"/>
<polygon fill="midnightblue" stroke="midnightblue" points="754.9,-181.82 765.09,-184.73 758.94,-176.1 754.9,-181.82"/>
</g>
<!-- Node10&#45;&gt;Node6 -->
<g id="edge12" class="edge">
<title>Node10&#45;&gt;Node6</title>
<path fill="none" stroke="midnightblue" d="M724.7,-115.18C764.73,-103.61 825.96,-85.93 862.03,-75.51"/>
<polygon fill="midnightblue" stroke="midnightblue" points="723.64,-111.84 715.01,-117.98 725.59,-118.56 723.64,-111.84"/>
</g>
<!-- Node11&#45;&gt;Node6 -->
<g id="edge15" class="edge">
<title>Node11&#45;&gt;Node6</title>
<path fill="none" stroke="midnightblue" d="M1088.16,-382.38C1107.06,-374.65 1127.48,-362.51 1138.49,-344 1145.54,-332.16 1146.74,-324.04 1138.49,-313 1104.64,-267.72 1055.36,-318.06 1016.49,-277 964.69,-222.28 1023.72,-171.51 977.49,-112 963.54,-94.03 940.39,-82.5 921.62,-75.62"/>
<polygon fill="midnightblue" stroke="midnightblue" points="1086.87,-379.12 1078.76,-385.93 1089.35,-385.67 1086.87,-379.12"/>
</g>
<!-- Node11&#45;&gt;Node9 -->
<g id="edge32" class="edge">
<title>Node11&#45;&gt;Node9</title>
<path fill="none" stroke="midnightblue" d="M1068.46,-380.09C1092.16,-363.45 1123.25,-335.48 1104.49,-313 1047.18,-244.33 988.18,-313.44 906.49,-277 885.95,-267.84 885.21,-258.47 866.49,-246 842.25,-229.85 812.54,-213.66 794.32,-204.12"/>
<polygon fill="midnightblue" stroke="midnightblue" points="1066.19,-377.4 1059.85,-385.88 1070.1,-383.21 1066.19,-377.4"/>
</g>
<!-- Node12 -->
<g id="node12" class="node">
<title>Node12</title>
<g id="a_node12"><a xlink:href="wrap_8h.html" target="_top" xlink:title=" ">
<polygon fill="white" stroke="black" points="1412.49,-319 1412.49,-338 1490.49,-338 1490.49,-319 1412.49,-319"/>
<text text-anchor="middle" x="1451.49" y="-326" font-family="Helvetica,sans-Serif" font-size="10.00">src/js/wrap.h</text>
</a>
</g>
</g>
<!-- Node11&#45;&gt;Node12 -->
<g id="edge16" class="edge">
<title>Node11&#45;&gt;Node12</title>
<path fill="none" stroke="midnightblue" d="M1109.04,-384.33C1194.07,-370.71 1342.29,-346.98 1412.49,-335.74"/>
<polygon fill="midnightblue" stroke="midnightblue" points="1108.31,-380.9 1098.99,-385.94 1109.42,-387.81 1108.31,-380.9"/>
</g>
<!-- Node21 -->
<g id="node21" class="node">
<title>Node21</title>
<g id="a_node21"><a xlink:href="node__frontend_8h.html" target="_top" xlink:title=" ">
<polygon fill="white" stroke="black" points="583.49,-319 583.49,-338 741.49,-338 741.49,-319 583.49,-319"/>
<text text-anchor="middle" x="662.49" y="-326" font-family="Helvetica,sans-Serif" font-size="10.00">src/node/rpc/node_frontend.h</text>
</a>
</g>
</g>
<!-- Node11&#45;&gt;Node21 -->
<g id="edge33" class="edge">
<title>Node11&#45;&gt;Node21</title>
<path fill="none" stroke="midnightblue" d="M984.77,-384.19C909.55,-371.43 782.79,-349.92 712.77,-338.03"/>
<polygon fill="midnightblue" stroke="midnightblue" points="984.58,-387.71 995.03,-385.94 985.76,-380.81 984.58,-387.71"/>
</g>
<!-- Node23 -->
<g id="node23" class="node">
<title>Node23</title>
<g id="a_node23"><a xlink:href="user__frontend_8h.html" target="_top" xlink:title=" ">
<polygon fill="white" stroke="black" points="813.99,-118 813.99,-137 968.99,-137 968.99,-118 813.99,-118"/>
<text text-anchor="middle" x="891.49" y="-125" font-family="Helvetica,sans-Serif" font-size="10.00">src/node/rpc/user_frontend.h</text>
</a>
</g>
</g>
<!-- Node11&#45;&gt;Node23 -->
<g id="edge37" class="edge">
<title>Node11&#45;&gt;Node23</title>
<path fill="none" stroke="midnightblue" d="M1078.31,-381.65C1094.42,-373.48 1112.3,-361.16 1121.49,-344 1128,-331.86 1129.92,-323.9 1121.49,-313 1082.74,-262.84 1034.5,-314.63 983.49,-277 932,-239.01 902.89,-162.76 894.25,-137.13"/>
<polygon fill="midnightblue" stroke="midnightblue" points="1076.66,-378.56 1069.11,-385.99 1079.65,-384.89 1076.66,-378.56"/>
</g>
<!-- Node11&#45;&gt;Node24 -->
<g id="edge39" class="edge">
<title>Node11&#45;&gt;Node24</title>
<path fill="none" stroke="midnightblue" d="M1013.32,-382.27C979.38,-369.37 926.78,-349.38 897.02,-338.06"/>
<polygon fill="midnightblue" stroke="midnightblue" points="1012.2,-385.59 1022.79,-385.87 1014.68,-379.04 1012.2,-385.59"/>
</g>
<!-- Node11&#45;&gt;Node25 -->
<g id="edge41" class="edge">
<title>Node11&#45;&gt;Node25</title>
<path fill="none" stroke="midnightblue" d="M965.49,-387.6C871.62,-379.11 711.39,-363.42 574.49,-344 562.47,-342.29 549.51,-340.15 537.52,-338.03"/>
<polygon fill="midnightblue" stroke="midnightblue" points="965.21,-391.09 975.48,-388.5 965.84,-384.12 965.21,-391.09"/>
</g>
<!-- Node26 -->
<g id="node26" class="node">
<title>Node26</title>
<g id="a_node26"><a xlink:href="snapshotter_8h.html" target="_top" xlink:title=" ">
<polygon fill="white" stroke="black" points="968.99,-319 968.99,-338 1095.99,-338 1095.99,-319 968.99,-319"/>
<text text-anchor="middle" x="1032.49" y="-326" font-family="Helvetica,sans-Serif" font-size="10.00">src/node/snapshotter.h</text>
</a>
</g>
</g>
<!-- Node11&#45;&gt;Node26 -->
<g id="edge44" class="edge">
<title>Node11&#45;&gt;Node26</title>
<path fill="none" stroke="midnightblue" d="M1041.78,-375.91C1039.29,-363.49 1036.14,-347.72 1034.22,-338.13"/>
<polygon fill="midnightblue" stroke="midnightblue" points="1038.35,-376.61 1043.74,-385.73 1045.21,-375.24 1038.35,-376.61"/>
</g>
<!-- Node12&#45;&gt;Node6 -->
<g id="edge18" class="edge">
<title>Node12&#45;&gt;Node6</title>
<path fill="none" stroke="midnightblue" d="M1452.09,-308.61C1451.63,-290.37 1448.07,-263.06 1432.49,-246 1304.73,-106.11 1065.38,-75.35 952.88,-68.72"/>
<polygon fill="midnightblue" stroke="midnightblue" points="1448.59,-308.62 1452.05,-318.63 1455.59,-308.64 1448.59,-308.62"/>
</g>
<!-- Node12&#45;&gt;Node9 -->
<g id="edge29" class="edge">
<title>Node12&#45;&gt;Node9</title>
<path fill="none" stroke="midnightblue" d="M1401.89,-325.18C1320.53,-320.62 1154.01,-308.05 1016.49,-277 933.32,-258.22 838.57,-220.93 797.85,-204.1"/>
<polygon fill="midnightblue" stroke="midnightblue" points="1402.15,-328.7 1412.33,-325.75 1402.53,-321.71 1402.15,-328.7"/>
</g>
<!-- Node13 -->
<g id="node13" class="node">
<title>Node13</title>
<g id="a_node13"><a xlink:href="js__generic__base_8cpp.html" target="_top" xlink:title=" ">
<polygon fill="white" stroke="black" points="1305.49,-246.5 1305.49,-276.5 1423.49,-276.5 1423.49,-246.5 1305.49,-246.5"/>
<text text-anchor="start" x="1313.49" y="-264.5" font-family="Helvetica,sans-Serif" font-size="10.00">src/apps/js_generic</text>
<text text-anchor="middle" x="1364.49" y="-253.5" font-family="Helvetica,sans-Serif" font-size="10.00">/js_generic_base.cpp</text>
</a>
</g>
</g>
<!-- Node12&#45;&gt;Node13 -->
<g id="edge17" class="edge">
<title>Node12&#45;&gt;Node13</title>
<path fill="none" stroke="midnightblue" d="M1431.48,-312.54C1417,-301.73 1397.56,-287.2 1383.35,-276.59"/>
<polygon fill="midnightblue" stroke="midnightblue" points="1429.65,-315.55 1439.76,-318.73 1433.84,-309.94 1429.65,-315.55"/>
</g>
<!-- Node14 -->
<g id="node14" class="node">
<title>Node14</title>
<g id="a_node14"><a xlink:href="js_2consensus_8cpp.html" target="_top" xlink:title=" ">
<polygon fill="white" stroke="black" points="1585.49,-252 1585.49,-271 1701.49,-271 1701.49,-252 1585.49,-252"/>
<text text-anchor="middle" x="1643.49" y="-259" font-family="Helvetica,sans-Serif" font-size="10.00">src/js/consensus.cpp</text>
</a>
</g>
</g>
<!-- Node12&#45;&gt;Node14 -->
<g id="edge19" class="edge">
<title>Node12&#45;&gt;Node14</title>
<path fill="none" stroke="midnightblue" d="M1486.64,-315.6C1524.71,-302.71 1584.5,-282.47 1618.2,-271.06"/>
<polygon fill="midnightblue" stroke="midnightblue" points="1485.34,-312.35 1476.99,-318.87 1487.58,-318.98 1485.34,-312.35"/>
</g>
<!-- Node15 -->
<g id="node15" class="node">
<title>Node15</title>
<g id="a_node15"><a xlink:href="wrap_8cpp.html" target="_top" xlink:title=" ">
<polygon fill="white" stroke="black" points="1801.99,-185 1801.99,-204 1890.99,-204 1890.99,-185 1801.99,-185"/>
<text text-anchor="middle" x="1846.49" y="-192" font-family="Helvetica,sans-Serif" font-size="10.00">src/js/wrap.cpp</text>
</a>
</g>
</g>
<!-- Node12&#45;&gt;Node15 -->
<g id="edge28" class="edge">
<title>Node12&#45;&gt;Node15</title>
<path fill="none" stroke="midnightblue" d="M1501.08,-323.74C1632.84,-313.63 1982.28,-286.02 1990.49,-277 2024.25,-239.94 1945.08,-215.53 1891.25,-203.75"/>
<polygon fill="midnightblue" stroke="midnightblue" points="1500.56,-320.27 1490.86,-324.52 1501.1,-327.25 1500.56,-320.27"/>
</g>
<!-- Node16 -->
<g id="node16" class="node">
<title>Node16</title>
<g id="a_node16"><a xlink:href="conv_8cpp.html" target="_top" xlink:title=" ">
<polygon fill="white" stroke="black" points="1479.49,-252 1479.49,-271 1567.49,-271 1567.49,-252 1479.49,-252"/>
<text text-anchor="middle" x="1523.49" y="-259" font-family="Helvetica,sans-Serif" font-size="10.00">src/js/conv.cpp</text>
</a>
</g>
</g>
<!-- Node12&#45;&gt;Node16 -->
<g id="edge21" class="edge">
<title>Node12&#45;&gt;Node16</title>
<path fill="none" stroke="midnightblue" d="M1468.82,-311.86C1482.98,-299.08 1502.46,-281.49 1513.94,-271.13"/>
<polygon fill="midnightblue" stroke="midnightblue" points="1466.28,-309.43 1461.2,-318.73 1470.97,-314.63 1466.28,-309.43"/>
</g>
<!-- Node17 -->
<g id="node17" class="node">
<title>Node17</title>
<g id="a_node17"><a xlink:href="js_2crypto_8cpp.html" target="_top" xlink:title=" ">
<polygon fill="white" stroke="black" points="1719.49,-252 1719.49,-271 1815.49,-271 1815.49,-252 1719.49,-252"/>
<text text-anchor="middle" x="1767.49" y="-259" font-family="Helvetica,sans-Serif" font-size="10.00">src/js/crypto.cpp</text>
</a>
</g>
</g>
<!-- Node12&#45;&gt;Node17 -->
<g id="edge23" class="edge">
<title>Node12&#45;&gt;Node17</title>
<path fill="none" stroke="midnightblue" d="M1500.69,-318.76C1552.91,-309.29 1637.79,-293.32 1710.49,-277 1718.56,-275.19 1727.23,-273.07 1735.32,-271.02"/>
<polygon fill="midnightblue" stroke="midnightblue" points="1499.91,-315.35 1490.69,-320.57 1501.15,-322.24 1499.91,-315.35"/>
</g>
<!-- Node18 -->
<g id="node18" class="node">
<title>Node18</title>
<g id="a_node18"><a xlink:href="js_2historical_8cpp.html" target="_top" xlink:title=" ">
<polygon fill="white" stroke="black" points="1871.49,-252 1871.49,-271 1981.49,-271 1981.49,-252 1871.49,-252"/>
<text text-anchor="middle" x="1926.49" y="-259" font-family="Helvetica,sans-Serif" font-size="10.00">src/js/historical.cpp</text>
</a>
</g>
</g>
<!-- Node12&#45;&gt;Node18 -->
<g id="edge25" class="edge">
<title>Node12&#45;&gt;Node18</title>
<path fill="none" stroke="midnightblue" d="M1500.76,-320.94C1572.15,-311.4 1708.51,-293.1 1824.49,-277 1839.73,-274.89 1856.24,-272.56 1871.45,-270.39"/>
<polygon fill="midnightblue" stroke="midnightblue" points="1500.16,-317.49 1490.71,-322.28 1501.08,-324.42 1500.16,-317.49"/>
</g>
<!-- Node19 -->
<g id="node19" class="node">
<title>Node19</title>
<g id="a_node19"><a xlink:href="openenclave_8cpp.html" target="_top" xlink:title=" ">
<polygon fill="white" stroke="black" points="1159.49,-252 1159.49,-271 1287.49,-271 1287.49,-252 1159.49,-252"/>
<text text-anchor="middle" x="1223.49" y="-259" font-family="Helvetica,sans-Serif" font-size="10.00">src/js/openenclave.cpp</text>
</a>
</g>
</g>
<!-- Node12&#45;&gt;Node19 -->
<g id="edge27" class="edge">
<title>Node12&#45;&gt;Node19</title>
<path fill="none" stroke="midnightblue" d="M1411.48,-316.09C1366.37,-303.23 1294.06,-282.62 1253.53,-271.06"/>
<polygon fill="midnightblue" stroke="midnightblue" points="1410.64,-319.49 1421.22,-318.87 1412.56,-312.76 1410.64,-319.49"/>
</g>
<!-- Node20 -->
<g id="node20" class="node">
<title>Node20</title>
<g id="a_node20"><a xlink:href="member__frontend_8h.html" target="_top" xlink:title=" ">
<polygon fill="white" stroke="black" points="372.49,-246.5 372.49,-276.5 492.49,-276.5 492.49,-246.5 372.49,-246.5"/>
<text text-anchor="start" x="380.49" y="-264.5" font-family="Helvetica,sans-Serif" font-size="10.00">src/node/rpc/member</text>
<text text-anchor="middle" x="432.49" y="-253.5" font-family="Helvetica,sans-Serif" font-size="10.00">_frontend.h</text>
</a>
</g>
</g>
<!-- Node12&#45;&gt;Node20 -->
<g id="edge30" class="edge">
<title>Node12&#45;&gt;Node20</title>
<path fill="none" stroke="midnightblue" d="M1402.26,-324.96C1272.2,-318.17 908.71,-298.62 606.49,-277 568.7,-274.3 526.33,-270.78 492.86,-267.88"/>
<polygon fill="midnightblue" stroke="midnightblue" points="1402.14,-328.46 1412.3,-325.49 1402.5,-321.47 1402.14,-328.46"/>
</g>
<!-- Node14&#45;&gt;Node15 -->
<g id="edge20" class="edge">
<title>Node14&#45;&gt;Node15</title>
<path fill="none" stroke="midnightblue" d="M1680.14,-248.77C1720.36,-235.89 1783.97,-215.52 1819.75,-204.06"/>
<polygon fill="midnightblue" stroke="midnightblue" points="1678.91,-245.49 1670.45,-251.87 1681.04,-252.15 1678.91,-245.49"/>
</g>
<!-- Node16&#45;&gt;Node15 -->
<g id="edge22" class="edge">
<title>Node16&#45;&gt;Node15</title>
<path fill="none" stroke="midnightblue" d="M1562.94,-249.33C1567.49,-248.15 1572.09,-247.01 1576.49,-246 1655.27,-227.89 1748.09,-211.62 1801.83,-202.7"/>
<polygon fill="midnightblue" stroke="midnightblue" points="1561.86,-245.99 1553.1,-251.94 1563.66,-252.75 1561.86,-245.99"/>
</g>
<!-- Node17&#45;&gt;Node15 -->
<g id="edge24" class="edge">
<title>Node17&#45;&gt;Node15</title>
<path fill="none" stroke="midnightblue" d="M1786.07,-245.21C1801.64,-232.41 1823.29,-214.59 1836.01,-204.13"/>
<polygon fill="midnightblue" stroke="midnightblue" points="1783.65,-242.68 1778.15,-251.73 1788.09,-248.08 1783.65,-242.68"/>
</g>
<!-- Node18&#45;&gt;Node15 -->
<g id="edge26" class="edge">
<title>Node18&#45;&gt;Node15</title>
<path fill="none" stroke="midnightblue" d="M1907.68,-245.21C1891.92,-232.41 1869.99,-214.59 1857.11,-204.13"/>
<polygon fill="midnightblue" stroke="midnightblue" points="1905.74,-248.14 1915.7,-251.73 1910.15,-242.71 1905.74,-248.14"/>
</g>
<!-- Node20&#45;&gt;Node6 -->
<g id="edge31" class="edge">
<title>Node20&#45;&gt;Node6</title>
<path fill="none" stroke="midnightblue" d="M441.7,-236.43C456.09,-202.42 487.35,-141.19 535.49,-112 583.7,-82.77 741.7,-72.38 830.14,-68.8"/>
<polygon fill="midnightblue" stroke="midnightblue" points="438.32,-235.47 437.78,-246.05 444.8,-238.11 438.32,-235.47"/>
</g>
<!-- Node21&#45;&gt;Node6 -->
<g id="edge34" class="edge">
<title>Node21&#45;&gt;Node6</title>
<path fill="none" stroke="midnightblue" d="M638.98,-313.18C626.88,-304.4 613.28,-291.97 606.49,-277 576.19,-210.21 556.82,-167.73 604.49,-112 632.98,-78.7 755,-69.88 830.47,-67.64"/>
<polygon fill="midnightblue" stroke="midnightblue" points="637.16,-316.18 647.4,-318.92 641.1,-310.39 637.16,-316.18"/>
</g>
<!-- Node22 -->
<g id="node22" class="node">
<title>Node22</title>
<g id="a_node22"><a xlink:href="jwt__key__auto__refresh_8h.html" target="_top" xlink:title=" ">
<polygon fill="white" stroke="black" points="615.99,-246.5 615.99,-276.5 740.99,-276.5 740.99,-246.5 615.99,-246.5"/>
<text text-anchor="start" x="623.99" y="-264.5" font-family="Helvetica,sans-Serif" font-size="10.00">src/node/jwt_key_auto</text>
<text text-anchor="middle" x="678.49" y="-253.5" font-family="Helvetica,sans-Serif" font-size="10.00">_refresh.h</text>
</a>
</g>
</g>
<!-- Node21&#45;&gt;Node22 -->
<g id="edge35" class="edge">
<title>Node21&#45;&gt;Node22</title>
<path fill="none" stroke="midnightblue" d="M667.11,-308.74C669.64,-298.49 672.71,-286 675.03,-276.59"/>
<polygon fill="midnightblue" stroke="midnightblue" points="663.64,-308.19 664.65,-318.73 670.44,-309.86 663.64,-308.19"/>
</g>
<!-- Node22&#45;&gt;Node9 -->
<g id="edge36" class="edge">
<title>Node22&#45;&gt;Node9</title>
<path fill="none" stroke="midnightblue" d="M708.49,-240.81C727.21,-228.51 750.38,-213.3 764.54,-204.01"/>
<polygon fill="midnightblue" stroke="midnightblue" points="706.41,-237.98 699.98,-246.4 710.26,-243.83 706.41,-237.98"/>
</g>
<!-- Node23&#45;&gt;Node6 -->
<g id="edge38" class="edge">
<title>Node23&#45;&gt;Node6</title>
<path fill="none" stroke="midnightblue" d="M891.49,-107.82C891.49,-97 891.49,-83.9 891.49,-75.51"/>
<polygon fill="midnightblue" stroke="midnightblue" points="887.99,-107.98 891.49,-117.98 894.99,-107.98 887.99,-107.98"/>
</g>
<!-- Node24&#45;&gt;Node9 -->
<g id="edge40" class="edge">
<title>Node24&#45;&gt;Node9</title>
<path fill="none" stroke="midnightblue" d="M859.72,-311.17C851.17,-301.48 840.39,-288.81 831.49,-277 812.3,-251.51 792.18,-219.5 782.84,-204.3"/>
<polygon fill="midnightblue" stroke="midnightblue" points="857.28,-313.69 866.55,-318.83 862.5,-309.03 857.28,-313.69"/>
</g>
<!-- Node25&#45;&gt;Node9 -->
<g id="edge42" class="edge">
<title>Node25&#45;&gt;Node9</title>
<path fill="none" stroke="midnightblue" d="M510,-312.11C531.41,-293.99 569.4,-264.1 606.49,-246 647.81,-225.84 698.73,-212.08 734.21,-204.07"/>
<polygon fill="midnightblue" stroke="midnightblue" points="507.44,-309.69 502.14,-318.86 512.01,-315 507.44,-309.69"/>
</g>
<!-- Node25&#45;&gt;Node20 -->
<g id="edge43" class="edge">
<title>Node25&#45;&gt;Node20</title>
<path fill="none" stroke="midnightblue" d="M477.54,-311.3C467.7,-300.63 454.93,-286.8 445.5,-276.59"/>
<polygon fill="midnightblue" stroke="midnightblue" points="475.05,-313.76 484.4,-318.73 480.19,-309.01 475.05,-313.76"/>
</g>
<!-- Node26&#45;&gt;Node9 -->
<g id="edge45" class="edge">
<title>Node26&#45;&gt;Node9</title>
<path fill="none" stroke="midnightblue" d="M977.67,-316.66C944.88,-308.72 903.18,-295.96 869.49,-277 860.1,-271.71 808.25,-224.03 786.79,-204.14"/>
<polygon fill="midnightblue" stroke="midnightblue" points="977.01,-320.1 987.54,-318.98 978.6,-313.29 977.01,-320.1"/>
</g>
<!-- Node27&#45;&gt;Node15 -->
<g id="edge48" class="edge">
<title>Node27&#45;&gt;Node15</title>
<path fill="none" stroke="midnightblue" d="M410.09,-461.17C583.28,-459.68 992.8,-451.82 1124.49,-411 1150.19,-403.03 1150.99,-388.57 1176.49,-380 1353.08,-320.64 1885.66,-417.07 2008.49,-277 2045.76,-234.51 1951.12,-211.54 1891.23,-201.6"/>
<polygon fill="midnightblue" stroke="midnightblue" points="410,-457.67 400.03,-461.25 410.06,-464.67 410,-457.67"/>
</g>
<!-- Node27&#45;&gt;Node20 -->
<g id="edge51" class="edge">
<title>Node27&#45;&gt;Node20</title>
<path fill="none" stroke="midnightblue" d="M252.7,-452.55C137.1,-436.42 -57.16,-396.13 16.49,-313 39.68,-286.83 262.65,-271.48 372.26,-265.47"/>
<polygon fill="midnightblue" stroke="midnightblue" points="252.56,-456.06 262.94,-453.94 253.5,-449.13 252.56,-456.06"/>
</g>
<!-- Node28 -->
<g id="node28" class="node">
<title>Node28</title>
<g id="a_node28"><a xlink:href="common__endpoint__registry_8cpp.html" target="_top" xlink:title=" ">
<polygon fill="white" stroke="black" points="25.49,-313.5 25.49,-343.5 153.49,-343.5 153.49,-313.5 25.49,-313.5"/>
<text text-anchor="start" x="33.49" y="-331.5" font-family="Helvetica,sans-Serif" font-size="10.00">src/endpoints/common</text>
<text text-anchor="middle" x="89.49" y="-320.5" font-family="Helvetica,sans-Serif" font-size="10.00">_endpoint_registry.cpp</text>
</a>
</g>
</g>
<!-- Node27&#45;&gt;Node28 -->
<g id="edge47" class="edge">
<title>Node27&#45;&gt;Node28</title>
<path fill="none" stroke="midnightblue" d="M304.41,-448.31C284.17,-438.34 255.92,-424.16 231.49,-411 189.46,-388.34 141.44,-360.32 113.39,-343.74"/>
<polygon fill="midnightblue" stroke="midnightblue" points="303.12,-451.58 313.64,-452.84 306.21,-445.29 303.12,-451.58"/>
</g>
<!-- Node29 -->
<g id="node29" class="node">
<title>Node29</title>
<g id="a_node29"><a xlink:href="resharing_8h.html" target="_top" xlink:title=" ">
<polygon fill="white" stroke="black" points="171.49,-319 171.49,-338 287.49,-338 287.49,-319 171.49,-319"/>
<text text-anchor="middle" x="229.49" y="-326" font-family="Helvetica,sans-Serif" font-size="10.00">src/node/resharing.h</text>
</a>
</g>
</g>
<!-- Node27&#45;&gt;Node29 -->
<g id="edge49" class="edge">
<title>Node27&#45;&gt;Node29</title>
<path fill="none" stroke="midnightblue" d="M298.2,-448.75C280.9,-440.49 260.85,-428.06 248.49,-411 232.22,-388.52 229.65,-354.22 229.4,-338.25"/>
<polygon fill="midnightblue" stroke="midnightblue" points="296.9,-452.01 307.46,-452.92 299.77,-445.62 296.9,-452.01"/>
</g>
<!-- Node30 -->
<g id="node30" class="node">
<title>Node30</title>
<g id="a_node30"><a xlink:href="serialization_8h.html" target="_top" xlink:title=" ">
<polygon fill="white" stroke="black" points="257.49,-386 257.49,-405 405.49,-405 405.49,-386 257.49,-386"/>
<text text-anchor="middle" x="331.49" y="-393" font-family="Helvetica,sans-Serif" font-size="10.00">src/node/rpc/serialization.h</text>
</a>
</g>
</g>
<!-- Node27&#45;&gt;Node30 -->
<g id="edge52" class="edge">
<title>Node27&#45;&gt;Node30</title>
<path fill="none" stroke="midnightblue" d="M331.49,-442.54C331.49,-430.17 331.49,-414.62 331.49,-405.13"/>
<polygon fill="midnightblue" stroke="midnightblue" points="327.99,-442.73 331.49,-452.73 334.99,-442.73 327.99,-442.73"/>
</g>
<!-- Node29&#45;&gt;Node9 -->
<g id="edge50" class="edge">
<title>Node29&#45;&gt;Node9</title>
<path fill="none" stroke="midnightblue" d="M239.25,-310.27C251.2,-290.98 273.36,-260.52 301.49,-246 372.11,-209.55 602.88,-199.38 715.1,-196.56"/>
<polygon fill="midnightblue" stroke="midnightblue" points="236.18,-308.58 234.09,-318.96 242.2,-312.15 236.18,-308.58"/>
</g>
<!-- Node30&#45;&gt;Node9 -->
<g id="edge54" class="edge">
<title>Node30&#45;&gt;Node9</title>
<path fill="none" stroke="midnightblue" d="M329.31,-375.67C326.78,-343.79 326.89,-279.42 363.49,-246 413.62,-200.23 612.41,-194.42 715.2,-194.58"/>
<polygon fill="midnightblue" stroke="midnightblue" points="325.85,-376.21 330.3,-385.83 332.82,-375.53 325.85,-376.21"/>
</g>
<!-- Node30&#45;&gt;Node20 -->
<g id="edge56" class="edge">
<title>Node30&#45;&gt;Node20</title>
<path fill="none" stroke="midnightblue" d="M339.64,-376.44C347.87,-359.22 361.6,-333.02 377.49,-313 388.29,-299.39 402.86,-286.2 414.28,-276.71"/>
<polygon fill="midnightblue" stroke="midnightblue" points="336.3,-375.32 335.26,-385.86 342.65,-378.27 336.3,-375.32"/>
</g>
<!-- Node30&#45;&gt;Node21 -->
<g id="edge57" class="edge">
<title>Node30&#45;&gt;Node21</title>
<path fill="none" stroke="midnightblue" d="M385.18,-383.96C450.32,-371.16 558.9,-349.84 619.05,-338.03"/>
<polygon fill="midnightblue" stroke="midnightblue" points="384.24,-380.57 375.11,-385.94 385.59,-387.44 384.24,-380.57"/>
</g>
<!-- Node30&#45;&gt;Node28 -->
<g id="edge53" class="edge">
<title>Node30&#45;&gt;Node28</title>
<path fill="none" stroke="midnightblue" d="M289.94,-383.34C248.96,-372.33 186.2,-355.47 141.84,-343.56"/>
<polygon fill="midnightblue" stroke="midnightblue" points="289.04,-386.72 299.61,-385.94 290.86,-379.96 289.04,-386.72"/>
</g>
<!-- Node30&#45;&gt;Node29 -->
<g id="edge55" class="edge">
<title>Node30&#45;&gt;Node29</title>
<path fill="none" stroke="midnightblue" d="M309.16,-380.27C288.97,-367.4 259.9,-348.88 243.03,-338.13"/>
<polygon fill="midnightblue" stroke="midnightblue" points="307.42,-383.31 317.74,-385.73 311.19,-377.41 307.42,-383.31"/>
</g>
<!-- Node31&#45;&gt;Node27 -->
<g id="edge59" class="edge">
<title>Node31&#45;&gt;Node27</title>
<path fill="none" stroke="midnightblue" d="M444.19,-510.46C414.05,-497.9 375.23,-481.72 351.91,-472.01"/>
<polygon fill="midnightblue" stroke="midnightblue" points="443.07,-513.78 453.64,-514.4 445.76,-507.32 443.07,-513.78"/>
</g>
<!-- Node32&#45;&gt;Node9 -->
<g id="edge63" class="edge">
<title>Node32&#45;&gt;Node9</title>
<path fill="none" stroke="midnightblue" d="M770.48,-369.96C772.27,-325.43 775.98,-233.25 777.14,-204.36"/>
<polygon fill="midnightblue" stroke="midnightblue" points="766.97,-370.06 770.07,-380.19 773.97,-370.34 766.97,-370.06"/>
</g>
<!-- Node32&#45;&gt;Node20 -->
<g id="edge64" class="edge">
<title>Node32&#45;&gt;Node20</title>
<path fill="none" stroke="midnightblue" d="M704.31,-395.1C611.35,-394.41 447.8,-386.93 410.49,-344 393.86,-324.86 409.76,-294.37 421.81,-276.61"/>
<polygon fill="midnightblue" stroke="midnightblue" points="704.44,-398.6 714.45,-395.15 704.47,-391.6 704.44,-398.6"/>
</g>
<!-- Node32&#45;&gt;Node21 -->
<g id="edge65" class="edge">
<title>Node32&#45;&gt;Node21</title>
<path fill="none" stroke="midnightblue" d="M737.63,-375.14C717.29,-362.79 691.94,-347.39 676.5,-338.01"/>
<polygon fill="midnightblue" stroke="midnightblue" points="735.91,-378.2 746.28,-380.4 739.55,-372.21 735.91,-378.2"/>
</g>
<!-- Node32&#45;&gt;Node24 -->
<g id="edge66" class="edge">
<title>Node32&#45;&gt;Node24</title>
<path fill="none" stroke="midnightblue" d="M801.03,-374.97C820.94,-362.65 845.67,-347.35 860.75,-338.01"/>
<polygon fill="midnightblue" stroke="midnightblue" points="798.94,-372.16 792.28,-380.4 802.62,-378.11 798.94,-372.16"/>
</g>
<!-- Node32&#45;&gt;Node25 -->
<g id="edge67" class="edge">
<title>Node32&#45;&gt;Node25</title>
<path fill="none" stroke="midnightblue" d="M704.48,-379.24C649.75,-366.4 573.48,-348.5 528.91,-338.05"/>
<polygon fill="midnightblue" stroke="midnightblue" points="703.9,-382.7 714.44,-381.58 705.5,-375.89 703.9,-382.7"/>
</g>
<!-- Node33&#45;&gt;Node11 -->
<g id="edge71" class="edge">
<title>Node33&#45;&gt;Node11</title>
<path fill="none" stroke="midnightblue" d="M1124.42,-442.31C1103.09,-429.93 1076.39,-414.43 1060.15,-405.01"/>
<polygon fill="midnightblue" stroke="midnightblue" points="1122.79,-445.4 1133.19,-447.4 1126.3,-439.35 1122.79,-445.4"/>
</g>
<!-- Node33&#45;&gt;Node32 -->
<g id="edge72" class="edge">
<title>Node33&#45;&gt;Node32</title>
<path fill="none" stroke="midnightblue" d="M1091.19,-450.39C1015.99,-437.8 894.73,-417.48 824.54,-405.72"/>
<polygon fill="midnightblue" stroke="midnightblue" points="1091.05,-453.92 1101.49,-452.12 1092.21,-447.01 1091.05,-453.92"/>
</g>
<!-- Node34 -->
<g id="node34" class="node">
<title>Node34</title>
<g id="a_node34"><a xlink:href="kv__module__loader_8cpp.html" target="_top" xlink:title=" ">
<polygon fill="white" stroke="black" points="1185.99,-380.5 1185.99,-410.5 1328.99,-410.5 1328.99,-380.5 1185.99,-380.5"/>
<text text-anchor="start" x="1193.99" y="-398.5" font-family="Helvetica,sans-Serif" font-size="10.00">src/apps/js_v8/kv_module</text>
<text text-anchor="middle" x="1257.49" y="-387.5" font-family="Helvetica,sans-Serif" font-size="10.00">_loader.cpp</text>
</a>
</g>
</g>
<!-- Node33&#45;&gt;Node34 -->
<g id="edge70" class="edge">
<title>Node33&#45;&gt;Node34</title>
<path fill="none" stroke="midnightblue" d="M1187.9,-441.73C1203.38,-431.68 1221.83,-419.68 1235.84,-410.58"/>
<polygon fill="midnightblue" stroke="midnightblue" points="1185.67,-439.01 1179.19,-447.4 1189.48,-444.88 1185.67,-439.01"/>
</g>
</g>
</svg>
        <g id="navigator" transform="translate(0 0)" fill="#404254">
                <rect fill="#f2f5e9" fill-opacity="0.5" stroke="#606060" stroke-width=".5" x="0" y="0" width="60" height="60"/>
                <use id="zoomplus" xlink:href="#zoomPlus" x="17" y="9" onmousedown="handleZoom(evt,'in')"/>
                <use id="zoomminus" xlink:href="#zoomMin" x="42" y="9" onmousedown="handleZoom(evt,'out')"/>
                <use id="reset" xlink:href="#resetDef" x="30" y="36" onmousedown="handleReset()"/>
                <g id="arrowUp" xlink:href="#dirArrow" transform="translate(30 24)" onmousedown="handlePan(0,-1)">
                  <use xlink:href="#rim" fill="#404040">
                        <set attributeName="fill" to="#808080" begin="arrowUp.mouseover" end="arrowUp.mouseout"/>
                  </use>
                  <path fill="none" stroke="white" stroke-width="1.5" d="M0,-3.0v7 M-2.5,-0.5L0,-3.0L2.5,-0.5"/>
                </g>
                <g id="arrowRight" xlink:href="#dirArrow" transform="rotate(90) translate(36 -43)" onmousedown="handlePan(1,0)">
                  <use xlink:href="#rim" fill="#404040">
                        <set attributeName="fill" to="#808080" begin="arrowRight.mouseover" end="arrowRight.mouseout"/>
                  </use>
                  <path fill="none" stroke="white" stroke-width="1.5" d="M0,-3.0v7 M-2.5,-0.5L0,-3.0L2.5,-0.5"/>
                </g>
                <g id="arrowDown" xlink:href="#dirArrow" transform="rotate(180) translate(-30 -48)" onmousedown="handlePan(0,1)">
                  <use xlink:href="#rim" fill="#404040">
                        <set attributeName="fill" to="#808080" begin="arrowDown.mouseover" end="arrowDown.mouseout"/>
                  </use>
                  <path fill="none" stroke="white" stroke-width="1.5" d="M0,-3.0v7 M-2.5,-0.5L0,-3.0L2.5,-0.5"/>
                </g>
                <g id="arrowLeft" xlink:href="#dirArrow" transform="rotate(270) translate(-36 17)" onmousedown="handlePan(-1,0)">
                  <use xlink:href="#rim" fill="#404040">
                        <set attributeName="fill" to="#808080" begin="arrowLeft.mouseover" end="arrowLeft.mouseout"/>
                  </use>
                  <path fill="none" stroke="white" stroke-width="1.5" d="M0,-3.0v7 M-2.5,-0.5L0,-3.0L2.5,-0.5"/>
                </g>
        </g>
        <svg viewBox="0 0 15 15" width="100%" height="30px" preserveAspectRatio="xMaxYMin meet">
         <g id="arrow_out" transform="scale(0.3 0.3)">
          <a xlink:href="secrets_8h__dep__incl_org.svg" target="_base">
           <rect id="button" ry="5" rx="5" y="6" x="6" height="38" width="38"
                fill="#f2f5e9" fill-opacity="0.5" stroke="#606060" stroke-width="1.0"/>
           <path id="arrow"
             d="M 11.500037,31.436501 C 11.940474,20.09759 22.043105,11.32322 32.158766,21.979434 L 37.068811,17.246167 C 37.068811,17.246167 37.088388,32 37.088388,32 L 22.160133,31.978069 C 22.160133,31.978069 26.997745,27.140456 26.997745,27.140456 C 18.528582,18.264221 13.291696,25.230495 11.500037,31.436501 z"
             style="fill:#404040;"/>
          </a>
         </g>
        </svg>
</svg>
