<?xml version="1.0" encoding="UTF-8" standalone="no"?>
<!DOCTYPE svg PUBLIC "-//W3C//DTD SVG 1.1//EN"
 "http://www.w3.org/Graphics/SVG/1.1/DTD/svg11.dtd">
<!-- Generated by graphviz version 2.43.0 (0)
 -->
<!-- Title: src/host/sig_term.h Pages: 1 -->
<svg width="1647pt" height="532pt"
 viewBox="0.00 0.00 1647.00 532.00" xmlns="http://www.w3.org/2000/svg" xmlns:xlink="http://www.w3.org/1999/xlink">
<g id="graph0" class="graph" transform="scale(1 1) rotate(0) translate(4 528)">
<title>src/host/sig_term.h</title>
<polygon fill="white" stroke="transparent" points="-4,4 -4,-528 1643,-528 1643,4 -4,4"/>
<!-- Node1 -->
<g id="node1" class="node">
<title>Node1</title>
<g id="a_node1"><a xlink:title=" ">
<polygon fill="#bfbfbf" stroke="black" points="379,-504.5 379,-523.5 489,-523.5 489,-504.5 379,-504.5"/>
<text text-anchor="middle" x="434" y="-511.5" font-family="Helvetica,sans-Serif" font-size="10.00">src/host/sig_term.h</text>
</a>
</g>
</g>
<!-- Node2 -->
<g id="node2" class="node">
<title>Node2</title>
<g id="a_node2"><a xlink:href="host_2enclave_8h.html" target="_top" xlink:title=" ">
<polygon fill="white" stroke="black" points="556,-448.5 556,-467.5 620,-467.5 620,-448.5 556,-448.5"/>
<text text-anchor="middle" x="588" y="-455.5" font-family="Helvetica,sans-Serif" font-size="10.00">enclave.h</text>
</a>
</g>
</g>
<!-- Node1&#45;&gt;Node2 -->
<g id="edge1" class="edge">
<title>Node1&#45;&gt;Node2</title>
<path fill="none" stroke="midnightblue" d="M458.4,-504.44C484.2,-495.4 525.08,-481.06 554.02,-470.92"/>
<polygon fill="midnightblue" stroke="midnightblue" points="555.43,-474.13 563.71,-467.52 553.12,-467.52 555.43,-474.13"/>
</g>
<!-- Node48 -->
<g id="node48" class="node">
<title>Node48</title>
<g id="a_node48"><a xlink:title=" ">
<polygon fill="white" stroke="#bfbfbf" points="401,-336.5 401,-355.5 451,-355.5 451,-336.5 401,-336.5"/>
<text text-anchor="middle" x="426" y="-343.5" font-family="Helvetica,sans-Serif" font-size="10.00">chrono</text>
</a>
</g>
</g>
<!-- Node1&#45;&gt;Node48 -->
<g id="edge83" class="edge">
<title>Node1&#45;&gt;Node48</title>
<path fill="none" stroke="midnightblue" d="M433.57,-504.08C432.31,-477.95 428.61,-401.21 426.9,-365.58"/>
<polygon fill="midnightblue" stroke="midnightblue" points="430.39,-365.39 426.41,-355.57 423.4,-365.73 430.39,-365.39"/>
</g>
<!-- Node51 -->
<g id="node51" class="node">
<title>Node51</title>
<g id="a_node51"><a xlink:href="signal_8h.html" target="_top" xlink:title=" ">
<polygon fill="white" stroke="black" points="350.5,-392.5 350.5,-411.5 405.5,-411.5 405.5,-392.5 350.5,-392.5"/>
<text text-anchor="middle" x="378" y="-399.5" font-family="Helvetica,sans-Serif" font-size="10.00">signal.h</text>
</a>
</g>
</g>
<!-- Node1&#45;&gt;Node51 -->
<g id="edge78" class="edge">
<title>Node1&#45;&gt;Node51</title>
<path fill="none" stroke="midnightblue" d="M429.61,-504.37C420.45,-486.38 399.15,-444.55 386.97,-420.63"/>
<polygon fill="midnightblue" stroke="midnightblue" points="390.03,-418.92 382.37,-411.59 383.79,-422.09 390.03,-418.92"/>
</g>
<!-- Node3 -->
<g id="node3" class="node">
<title>Node3</title>
<g id="a_node3"><a xlink:href="logger_8h.html" target="_top" xlink:title=" ">
<polygon fill="white" stroke="black" points="435.5,-224.5 435.5,-243.5 522.5,-243.5 522.5,-224.5 435.5,-224.5"/>
<text text-anchor="middle" x="479" y="-231.5" font-family="Helvetica,sans-Serif" font-size="10.00">ccf/ds/logger.h</text>
</a>
</g>
</g>
<!-- Node2&#45;&gt;Node3 -->
<g id="edge2" class="edge">
<title>Node2&#45;&gt;Node3</title>
<path fill="none" stroke="midnightblue" d="M555.7,-449.33C535.75,-442.82 511.45,-431.37 498,-412 464.26,-363.42 470.35,-288.56 475.57,-253.86"/>
<polygon fill="midnightblue" stroke="midnightblue" points="479.07,-254.17 477.25,-243.73 472.16,-253.02 479.07,-254.17"/>
</g>
<!-- Node18 -->
<g id="node18" class="node">
<title>Node18</title>
<g id="a_node18"><a xlink:title=" ">
<polygon fill="white" stroke="#bfbfbf" points="507.5,-392.5 507.5,-411.5 586.5,-411.5 586.5,-392.5 507.5,-392.5"/>
<text text-anchor="middle" x="547" y="-399.5" font-family="Helvetica,sans-Serif" font-size="10.00">ccf/version.h</text>
</a>
</g>
</g>
<!-- Node2&#45;&gt;Node18 -->
<g id="edge19" class="edge">
<title>Node2&#45;&gt;Node18</title>
<path fill="none" stroke="midnightblue" d="M581.23,-448.08C575.44,-440.46 566.94,-429.26 559.86,-419.94"/>
<polygon fill="midnightblue" stroke="midnightblue" points="562.48,-417.6 553.64,-411.75 556.9,-421.83 562.48,-417.6"/>
</g>
<!-- Node19 -->
<g id="node19" class="node">
<title>Node19</title>
<g id="a_node19"><a xlink:href="interface_8h.html" target="_top" xlink:title=" ">
<polygon fill="white" stroke="black" points="759,-392.5 759,-411.5 869,-411.5 869,-392.5 759,-392.5"/>
<text text-anchor="middle" x="814" y="-399.5" font-family="Helvetica,sans-Serif" font-size="10.00">enclave/interface.h</text>
</a>
</g>
</g>
<!-- Node2&#45;&gt;Node19 -->
<g id="edge20" class="edge">
<title>Node2&#45;&gt;Node19</title>
<path fill="none" stroke="midnightblue" d="M620.38,-449.26C659.22,-439.98 724.57,-424.37 768.48,-413.88"/>
<polygon fill="midnightblue" stroke="midnightblue" points="769.41,-417.25 778.32,-411.52 767.78,-410.44 769.41,-417.25"/>
</g>
<!-- Node49 -->
<g id="node49" class="node">
<title>Node49</title>
<g id="a_node49"><a xlink:title=" ">
<polygon fill="white" stroke="#bfbfbf" points="605,-392.5 605,-411.5 655,-411.5 655,-392.5 605,-392.5"/>
<text text-anchor="middle" x="630" y="-399.5" font-family="Helvetica,sans-Serif" font-size="10.00">dlfcn.h</text>
</a>
</g>
</g>
<!-- Node2&#45;&gt;Node49 -->
<g id="edge76" class="edge">
<title>Node2&#45;&gt;Node49</title>
<path fill="none" stroke="midnightblue" d="M594.94,-448.08C600.93,-440.38 609.75,-429.03 617.05,-419.65"/>
<polygon fill="midnightblue" stroke="midnightblue" points="619.82,-421.79 623.19,-411.75 614.29,-417.5 619.82,-421.79"/>
</g>
<!-- Node50 -->
<g id="node50" class="node">
<title>Node50</title>
<g id="a_node50"><a xlink:title=" ">
<polygon fill="white" stroke="#bfbfbf" points="673,-392.5 673,-411.5 741,-411.5 741,-392.5 673,-392.5"/>
<text text-anchor="middle" x="707" y="-399.5" font-family="Helvetica,sans-Serif" font-size="10.00">filesystem</text>
</a>
</g>
</g>
<!-- Node2&#45;&gt;Node50 -->
<g id="edge77" class="edge">
<title>Node2&#45;&gt;Node50</title>
<path fill="none" stroke="midnightblue" d="M606.86,-448.44C626.27,-439.64 656.73,-425.81 678.96,-415.72"/>
<polygon fill="midnightblue" stroke="midnightblue" points="680.57,-418.84 688.23,-411.52 677.68,-412.46 680.57,-418.84"/>
</g>
<!-- Node4 -->
<g id="node4" class="node">
<title>Node4</title>
<g id="a_node4"><a xlink:href="enum__formatter_8h.html" target="_top" xlink:title=" ">
<polygon fill="white" stroke="black" points="510,-168.5 510,-187.5 646,-187.5 646,-168.5 510,-168.5"/>
<text text-anchor="middle" x="578" y="-175.5" font-family="Helvetica,sans-Serif" font-size="10.00">ccf/ds/enum_formatter.h</text>
</a>
</g>
</g>
<!-- Node3&#45;&gt;Node4 -->
<g id="edge3" class="edge">
<title>Node3&#45;&gt;Node4</title>
<path fill="none" stroke="midnightblue" d="M494.91,-224.32C510.64,-215.74 534.94,-202.49 553.21,-192.52"/>
<polygon fill="midnightblue" stroke="midnightblue" points="555.03,-195.52 562.13,-187.65 551.68,-189.37 555.03,-195.52"/>
</g>
<!-- Node5 -->
<g id="node5" class="node">
<title>Node5</title>
<g id="a_node5"><a xlink:title=" ">
<polygon fill="white" stroke="#bfbfbf" points="544.5,-112.5 544.5,-131.5 623.5,-131.5 623.5,-112.5 544.5,-112.5"/>
<text text-anchor="middle" x="584" y="-119.5" font-family="Helvetica,sans-Serif" font-size="10.00">fmt/format.h</text>
</a>
</g>
</g>
<!-- Node3&#45;&gt;Node5 -->
<g id="edge13" class="edge">
<title>Node3&#45;&gt;Node5</title>
<path fill="none" stroke="midnightblue" d="M479.89,-224.45C481.69,-211.01 486.88,-184.76 501,-168 513.36,-153.33 531.77,-142.67 548.11,-135.42"/>
<polygon fill="midnightblue" stroke="midnightblue" points="549.54,-138.61 557.43,-131.54 546.85,-132.15 549.54,-138.61"/>
</g>
<!-- Node6 -->
<g id="node6" class="node">
<title>Node6</title>
<g id="a_node6"><a xlink:href="thread__ids_8h.html" target="_top" xlink:title=" ">
<polygon fill="white" stroke="black" points="346,-168.5 346,-187.5 454,-187.5 454,-168.5 346,-168.5"/>
<text text-anchor="middle" x="400" y="-175.5" font-family="Helvetica,sans-Serif" font-size="10.00">ccf/ds/thread_ids.h</text>
</a>
</g>
</g>
<!-- Node3&#45;&gt;Node6 -->
<g id="edge5" class="edge">
<title>Node3&#45;&gt;Node6</title>
<path fill="none" stroke="midnightblue" d="M466.31,-224.32C454.1,-215.98 435.42,-203.21 421,-193.35"/>
<polygon fill="midnightblue" stroke="midnightblue" points="422.89,-190.41 412.66,-187.65 418.94,-196.19 422.89,-190.41"/>
</g>
<!-- Node12 -->
<g id="node12" class="node">
<title>Node12</title>
<g id="a_node12"><a xlink:title=" ">
<polygon fill="white" stroke="#bfbfbf" points="664.5,-168.5 664.5,-187.5 743.5,-187.5 743.5,-168.5 664.5,-168.5"/>
<text text-anchor="middle" x="704" y="-175.5" font-family="Helvetica,sans-Serif" font-size="10.00">fmt/chrono.h</text>
</a>
</g>
</g>
<!-- Node3&#45;&gt;Node12 -->
<g id="edge12" class="edge">
<title>Node3&#45;&gt;Node12</title>
<path fill="none" stroke="midnightblue" d="M514.65,-224.44C553.66,-215.08 616.27,-200.06 658.72,-189.87"/>
<polygon fill="midnightblue" stroke="midnightblue" points="659.61,-193.25 668.51,-187.52 657.97,-186.45 659.61,-193.25"/>
</g>
<!-- Node13 -->
<g id="node13" class="node">
<title>Node13</title>
<g id="a_node13"><a xlink:title=" ">
<polygon fill="white" stroke="#bfbfbf" points="66,-168.5 66,-187.5 126,-187.5 126,-168.5 66,-168.5"/>
<text text-anchor="middle" x="96" y="-175.5" font-family="Helvetica,sans-Serif" font-size="10.00">iostream</text>
</a>
</g>
</g>
<!-- Node3&#45;&gt;Node13 -->
<g id="edge14" class="edge">
<title>Node3&#45;&gt;Node13</title>
<path fill="none" stroke="midnightblue" d="M435.35,-228.66C371.68,-222.03 249.46,-208.16 136.07,-188.04"/>
<polygon fill="midnightblue" stroke="midnightblue" points="136.64,-184.59 126.17,-186.27 135.4,-191.48 136.64,-184.59"/>
</g>
<!-- Node14 -->
<g id="node14" class="node">
<title>Node14</title>
<g id="a_node14"><a xlink:title=" ">
<polygon fill="white" stroke="#bfbfbf" points="144,-168.5 144,-187.5 254,-187.5 254,-168.5 144,-168.5"/>
<text text-anchor="middle" x="199" y="-175.5" font-family="Helvetica,sans-Serif" font-size="10.00">nlohmann/json.hpp</text>
</a>
</g>
</g>
<!-- Node3&#45;&gt;Node14 -->
<g id="edge15" class="edge">
<title>Node3&#45;&gt;Node14</title>
<path fill="none" stroke="midnightblue" d="M435.25,-224.56C386.12,-215.09 306.34,-199.7 253.28,-189.47"/>
<polygon fill="midnightblue" stroke="midnightblue" points="253.85,-186.01 243.37,-187.56 252.52,-192.89 253.85,-186.01"/>
</g>
<!-- Node15 -->
<g id="node15" class="node">
<title>Node15</title>
<g id="a_node15"><a xlink:title=" ">
<polygon fill="white" stroke="#bfbfbf" points="641,-112.5 641,-131.5 697,-131.5 697,-112.5 641,-112.5"/>
<text text-anchor="middle" x="669" y="-119.5" font-family="Helvetica,sans-Serif" font-size="10.00">optional</text>
</a>
</g>
</g>
<!-- Node3&#45;&gt;Node15 -->
<g id="edge16" class="edge">
<title>Node3&#45;&gt;Node15</title>
<path fill="none" stroke="midnightblue" d="M522.59,-232.39C592.08,-230.38 723.09,-222.06 752,-188 770.43,-166.28 735.77,-146.94 705.76,-135.12"/>
<polygon fill="midnightblue" stroke="midnightblue" points="706.84,-131.79 696.25,-131.55 704.38,-138.34 706.84,-131.79"/>
</g>
<!-- Node16 -->
<g id="node16" class="node">
<title>Node16</title>
<g id="a_node16"><a xlink:title=" ">
<polygon fill="white" stroke="#bfbfbf" points="272,-168.5 272,-187.5 328,-187.5 328,-168.5 272,-168.5"/>
<text text-anchor="middle" x="300" y="-175.5" font-family="Helvetica,sans-Serif" font-size="10.00">sstream</text>
</a>
</g>
</g>
<!-- Node3&#45;&gt;Node16 -->
<g id="edge17" class="edge">
<title>Node3&#45;&gt;Node16</title>
<path fill="none" stroke="midnightblue" d="M450.64,-224.44C420.26,-215.28 371.89,-200.69 338.18,-190.52"/>
<polygon fill="midnightblue" stroke="midnightblue" points="338.82,-187.05 328.23,-187.52 336.79,-193.76 338.82,-187.05"/>
</g>
<!-- Node17 -->
<g id="node17" class="node">
<title>Node17</title>
<g id="a_node17"><a xlink:title=" ">
<polygon fill="white" stroke="#bfbfbf" points="465.5,-0.5 465.5,-19.5 534.5,-19.5 534.5,-0.5 465.5,-0.5"/>
<text text-anchor="middle" x="500" y="-7.5" font-family="Helvetica,sans-Serif" font-size="10.00">type_traits</text>
</a>
</g>
</g>
<!-- Node3&#45;&gt;Node17 -->
<g id="edge18" class="edge">
<title>Node3&#45;&gt;Node17</title>
<path fill="none" stroke="midnightblue" d="M435.44,-231.59C332.7,-227.81 82,-215.81 57,-188 -60.39,-57.42 320.48,-21.73 454.85,-13.32"/>
<polygon fill="midnightblue" stroke="midnightblue" points="455.44,-16.79 465.21,-12.69 455.02,-9.8 455.44,-16.79"/>
</g>
<!-- Node4&#45;&gt;Node5 -->
<g id="edge4" class="edge">
<title>Node4&#45;&gt;Node5</title>
<path fill="none" stroke="midnightblue" d="M578.99,-168.08C579.79,-160.93 580.93,-150.64 581.92,-141.69"/>
<polygon fill="midnightblue" stroke="midnightblue" points="585.4,-142.08 583.03,-131.75 578.44,-141.3 585.4,-142.08"/>
</g>
<!-- Node6&#45;&gt;Node5 -->
<g id="edge6" class="edge">
<title>Node6&#45;&gt;Node5</title>
<path fill="none" stroke="midnightblue" d="M429.16,-168.44C460.51,-159.24 510.53,-144.56 545.2,-134.39"/>
<polygon fill="midnightblue" stroke="midnightblue" points="546.37,-137.69 554.98,-131.52 544.4,-130.97 546.37,-137.69"/>
</g>
<!-- Node7 -->
<g id="node7" class="node">
<title>Node7</title>
<g id="a_node7"><a xlink:title=" ">
<polygon fill="white" stroke="#bfbfbf" points="304,-112.5 304,-131.5 390,-131.5 390,-112.5 304,-112.5"/>
<text text-anchor="middle" x="347" y="-119.5" font-family="Helvetica,sans-Serif" font-size="10.00">fmt/ostream.h</text>
</a>
</g>
</g>
<!-- Node6&#45;&gt;Node7 -->
<g id="edge7" class="edge">
<title>Node6&#45;&gt;Node7</title>
<path fill="none" stroke="midnightblue" d="M391.25,-168.08C383.53,-160.22 372.1,-148.57 362.78,-139.08"/>
<polygon fill="midnightblue" stroke="midnightblue" points="365.09,-136.44 355.59,-131.75 360.1,-141.34 365.09,-136.44"/>
</g>
<!-- Node8 -->
<g id="node8" class="node">
<title>Node8</title>
<g id="a_node8"><a xlink:title=" ">
<polygon fill="white" stroke="#bfbfbf" points="408.5,-112.5 408.5,-131.5 469.5,-131.5 469.5,-112.5 408.5,-112.5"/>
<text text-anchor="middle" x="439" y="-119.5" font-family="Helvetica,sans-Serif" font-size="10.00">fmt/std.h</text>
</a>
</g>
</g>
<!-- Node6&#45;&gt;Node8 -->
<g id="edge8" class="edge">
<title>Node6&#45;&gt;Node8</title>
<path fill="none" stroke="midnightblue" d="M406.44,-168.08C411.95,-160.46 420.03,-149.26 426.76,-139.94"/>
<polygon fill="midnightblue" stroke="midnightblue" points="429.66,-141.91 432.68,-131.75 423.99,-137.81 429.66,-141.91"/>
</g>
<!-- Node9 -->
<g id="node9" class="node">
<title>Node9</title>
<g id="a_node9"><a xlink:title=" ">
<polygon fill="white" stroke="#bfbfbf" points="176,-112.5 176,-131.5 220,-131.5 220,-112.5 176,-112.5"/>
<text text-anchor="middle" x="198" y="-119.5" font-family="Helvetica,sans-Serif" font-size="10.00">limits</text>
</a>
</g>
</g>
<!-- Node6&#45;&gt;Node9 -->
<g id="edge9" class="edge">
<title>Node6&#45;&gt;Node9</title>
<path fill="none" stroke="midnightblue" d="M366.51,-168.45C334.01,-160.1 283.05,-146.85 230.22,-132.29"/>
<polygon fill="midnightblue" stroke="midnightblue" points="230.9,-128.85 220.33,-129.56 229.04,-135.6 230.9,-128.85"/>
</g>
<!-- Node10 -->
<g id="node10" class="node">
<title>Node10</title>
<g id="a_node10"><a xlink:title=" ">
<polygon fill="white" stroke="#bfbfbf" points="488,-112.5 488,-131.5 526,-131.5 526,-112.5 488,-112.5"/>
<text text-anchor="middle" x="507" y="-119.5" font-family="Helvetica,sans-Serif" font-size="10.00">map</text>
</a>
</g>
</g>
<!-- Node6&#45;&gt;Node10 -->
<g id="edge10" class="edge">
<title>Node6&#45;&gt;Node10</title>
<path fill="none" stroke="midnightblue" d="M417.19,-168.32C434.35,-159.66 460.95,-146.24 480.75,-136.25"/>
<polygon fill="midnightblue" stroke="midnightblue" points="482.5,-139.28 489.85,-131.65 479.35,-133.04 482.5,-139.28"/>
</g>
<!-- Node11 -->
<g id="node11" class="node">
<title>Node11</title>
<g id="a_node11"><a xlink:title=" ">
<polygon fill="white" stroke="#bfbfbf" points="238,-112.5 238,-131.5 286,-131.5 286,-112.5 238,-112.5"/>
<text text-anchor="middle" x="262" y="-119.5" font-family="Helvetica,sans-Serif" font-size="10.00">thread</text>
</a>
</g>
</g>
<!-- Node6&#45;&gt;Node11 -->
<g id="edge11" class="edge">
<title>Node6&#45;&gt;Node11</title>
<path fill="none" stroke="midnightblue" d="M378.13,-168.44C355.22,-159.48 319.02,-145.31 293.13,-135.18"/>
<polygon fill="midnightblue" stroke="midnightblue" points="294.35,-131.9 283.76,-131.52 291.8,-138.42 294.35,-131.9"/>
</g>
<!-- Node20 -->
<g id="node20" class="node">
<title>Node20</title>
<g id="a_node20"><a xlink:href="oversized_8h.html" target="_top" xlink:title=" ">
<polygon fill="white" stroke="black" points="1224.5,-336.5 1224.5,-355.5 1311.5,-355.5 1311.5,-336.5 1224.5,-336.5"/>
<text text-anchor="middle" x="1268" y="-343.5" font-family="Helvetica,sans-Serif" font-size="10.00">ds/oversized.h</text>
</a>
</g>
</g>
<!-- Node19&#45;&gt;Node20 -->
<g id="edge21" class="edge">
<title>Node19&#45;&gt;Node20</title>
<path fill="none" stroke="midnightblue" d="M869.22,-394.43C956.98,-383.99 1127.26,-363.74 1214.16,-353.4"/>
<polygon fill="midnightblue" stroke="midnightblue" points="1214.81,-356.85 1224.33,-352.19 1213.99,-349.9 1214.81,-356.85"/>
</g>
<!-- Node25 -->
<g id="node25" class="node">
<title>Node25</title>
<g id="a_node25"><a xlink:href="ring__buffer__types_8h.html" target="_top" xlink:title=" ">
<polygon fill="white" stroke="black" points="914,-168.5 914,-187.5 1024,-187.5 1024,-168.5 914,-168.5"/>
<text text-anchor="middle" x="969" y="-175.5" font-family="Helvetica,sans-Serif" font-size="10.00">ring_buffer_types.h</text>
</a>
</g>
</g>
<!-- Node19&#45;&gt;Node25 -->
<g id="edge73" class="edge">
<title>Node19&#45;&gt;Node25</title>
<path fill="none" stroke="midnightblue" d="M820.08,-392.3C843.17,-359.22 925.77,-240.91 956.96,-196.24"/>
<polygon fill="midnightblue" stroke="midnightblue" points="959.94,-198.09 962.8,-187.88 954.2,-194.08 959.94,-198.09"/>
</g>
<!-- Node30 -->
<g id="node30" class="node">
<title>Node30</title>
<g id="a_node30"><a xlink:title=" ">
<polygon fill="white" stroke="#bfbfbf" points="870.5,-0.5 870.5,-19.5 917.5,-19.5 917.5,-0.5 870.5,-0.5"/>
<text text-anchor="middle" x="894" y="-7.5" font-family="Helvetica,sans-Serif" font-size="10.00">vector</text>
</a>
</g>
</g>
<!-- Node19&#45;&gt;Node30 -->
<g id="edge75" class="edge">
<title>Node19&#45;&gt;Node30</title>
<path fill="none" stroke="midnightblue" d="M813.48,-392.45C812.39,-373.95 810,-328.84 810,-291 810,-291 810,-291 810,-233 810,-152.35 723.71,-122.04 770,-56 780.66,-40.79 827.6,-26.79 860.56,-18.57"/>
<polygon fill="midnightblue" stroke="midnightblue" points="861.39,-21.97 870.29,-16.21 859.74,-15.17 861.39,-21.97"/>
</g>
<!-- Node19&#45;&gt;Node48 -->
<g id="edge74" class="edge">
<title>Node19&#45;&gt;Node48</title>
<path fill="none" stroke="midnightblue" d="M758.84,-393.24C755.85,-392.82 752.89,-392.4 750,-392 644.95,-377.32 520.71,-360.1 461.21,-351.87"/>
<polygon fill="midnightblue" stroke="midnightblue" points="461.59,-348.39 451.21,-350.49 460.63,-355.32 461.59,-348.39"/>
</g>
<!-- Node20&#45;&gt;Node5 -->
<g id="edge71" class="edge">
<title>Node20&#45;&gt;Node5</title>
<path fill="none" stroke="midnightblue" d="M1245.04,-336.49C1172.96,-309.91 944.5,-226.72 752,-168 710.52,-155.35 662.69,-142.72 628.71,-134.08"/>
<polygon fill="midnightblue" stroke="midnightblue" points="629.18,-130.59 618.62,-131.53 627.46,-137.38 629.18,-130.59"/>
</g>
<!-- Node21 -->
<g id="node21" class="node">
<title>Node21</title>
<g id="a_node21"><a xlink:href="messaging_8h.html" target="_top" xlink:title=" ">
<polygon fill="white" stroke="black" points="1165.5,-280.5 1165.5,-299.5 1244.5,-299.5 1244.5,-280.5 1165.5,-280.5"/>
<text text-anchor="middle" x="1205" y="-287.5" font-family="Helvetica,sans-Serif" font-size="10.00">messaging.h</text>
</a>
</g>
</g>
<!-- Node20&#45;&gt;Node21 -->
<g id="edge22" class="edge">
<title>Node20&#45;&gt;Node21</title>
<path fill="none" stroke="midnightblue" d="M1257.88,-336.32C1248.47,-328.26 1234.26,-316.08 1222.93,-306.37"/>
<polygon fill="midnightblue" stroke="midnightblue" points="1225.18,-303.68 1215.31,-299.83 1220.62,-309 1225.18,-303.68"/>
</g>
<!-- Node22 -->
<g id="node22" class="node">
<title>Node22</title>
<g id="a_node22"><a xlink:href="ring__buffer_8h.html" target="_top" xlink:title=" ">
<polygon fill="white" stroke="black" points="1442.5,-224.5 1442.5,-243.5 1519.5,-243.5 1519.5,-224.5 1442.5,-224.5"/>
<text text-anchor="middle" x="1481" y="-231.5" font-family="Helvetica,sans-Serif" font-size="10.00">ring_buffer.h</text>
</a>
</g>
</g>
<!-- Node20&#45;&gt;Node22 -->
<g id="edge69" class="edge">
<title>Node20&#45;&gt;Node22</title>
<path fill="none" stroke="midnightblue" d="M1311.75,-340.58C1363.58,-334.45 1445.63,-321.59 1467,-300 1478.79,-288.09 1481.71,-268.78 1482.03,-254.3"/>
<polygon fill="midnightblue" stroke="midnightblue" points="1485.52,-253.89 1481.85,-243.95 1478.52,-254.01 1485.52,-253.89"/>
</g>
<!-- Node39 -->
<g id="node39" class="node">
<title>Node39</title>
<g id="a_node39"><a xlink:href="serialized_8h.html" target="_top" xlink:title=" ">
<polygon fill="white" stroke="black" points="1316.5,-56.5 1316.5,-75.5 1389.5,-75.5 1389.5,-56.5 1316.5,-56.5"/>
<text text-anchor="middle" x="1353" y="-63.5" font-family="Helvetica,sans-Serif" font-size="10.00">serialized.h</text>
</a>
</g>
</g>
<!-- Node20&#45;&gt;Node39 -->
<g id="edge70" class="edge">
<title>Node20&#45;&gt;Node39</title>
<path fill="none" stroke="midnightblue" d="M1270.69,-336.49C1279.76,-307.77 1310.01,-211.7 1334,-132 1338.71,-116.34 1343.91,-98.52 1347.68,-85.5"/>
<polygon fill="midnightblue" stroke="midnightblue" points="1351.05,-86.42 1350.46,-75.84 1344.33,-84.48 1351.05,-86.42"/>
</g>
<!-- Node47 -->
<g id="node47" class="node">
<title>Node47</title>
<g id="a_node47"><a xlink:title=" ">
<polygon fill="white" stroke="#bfbfbf" points="1365.5,-280.5 1365.5,-299.5 1458.5,-299.5 1458.5,-280.5 1365.5,-280.5"/>
<text text-anchor="middle" x="1412" y="-287.5" font-family="Helvetica,sans-Serif" font-size="10.00">unordered_map</text>
</a>
</g>
</g>
<!-- Node20&#45;&gt;Node47 -->
<g id="edge72" class="edge">
<title>Node20&#45;&gt;Node47</title>
<path fill="none" stroke="midnightblue" d="M1290.82,-336.44C1314.83,-327.44 1352.83,-313.19 1379.87,-303.05"/>
<polygon fill="midnightblue" stroke="midnightblue" points="1381.16,-306.3 1389.29,-299.52 1378.7,-299.75 1381.16,-306.3"/>
</g>
<!-- Node21&#45;&gt;Node3 -->
<g id="edge23" class="edge">
<title>Node21&#45;&gt;Node3</title>
<path fill="none" stroke="midnightblue" d="M1165.45,-286.06C1043.34,-276.98 672.13,-249.36 532.69,-238.99"/>
<polygon fill="midnightblue" stroke="midnightblue" points="532.9,-235.5 522.67,-238.25 532.38,-242.48 532.9,-235.5"/>
</g>
<!-- Node21&#45;&gt;Node10 -->
<g id="edge67" class="edge">
<title>Node21&#45;&gt;Node10</title>
<path fill="none" stroke="midnightblue" d="M1176.87,-280.47C1106.07,-259.22 914.52,-203.1 752,-168 659.52,-148.03 631.79,-154.56 535.98,-131.93"/>
<polygon fill="midnightblue" stroke="midnightblue" points="536.72,-128.51 526.17,-129.57 535.08,-135.31 536.72,-128.51"/>
</g>
<!-- Node21&#45;&gt;Node22 -->
<g id="edge24" class="edge">
<title>Node21&#45;&gt;Node22</title>
<path fill="none" stroke="midnightblue" d="M1244.54,-281.26C1294.11,-271.56 1379.05,-254.95 1432.5,-244.49"/>
<polygon fill="midnightblue" stroke="midnightblue" points="1433.28,-247.9 1442.42,-242.55 1431.93,-241.03 1433.28,-247.9"/>
</g>
<!-- Node40 -->
<g id="node40" class="node">
<title>Node40</title>
<g id="a_node40"><a xlink:title=" ">
<polygon fill="white" stroke="#bfbfbf" points="1358.5,-0.5 1358.5,-19.5 1423.5,-19.5 1423.5,-0.5 1358.5,-0.5"/>
<text text-anchor="middle" x="1391" y="-7.5" font-family="Helvetica,sans-Serif" font-size="10.00">stdexcept</text>
</a>
</g>
</g>
<!-- Node21&#45;&gt;Node40 -->
<g id="edge68" class="edge">
<title>Node21&#45;&gt;Node40</title>
<path fill="none" stroke="midnightblue" d="M1185.26,-280.39C1161.77,-268.85 1127.43,-247.14 1142,-224 1192.42,-143.93 1255,-184.08 1334,-132 1365.56,-111.2 1382.38,-110.42 1398,-76 1404.66,-61.32 1401.78,-42.92 1397.89,-29.45"/>
<polygon fill="midnightblue" stroke="midnightblue" points="1401.18,-28.26 1394.72,-19.87 1394.54,-30.46 1401.18,-28.26"/>
</g>
<!-- Node43 -->
<g id="node43" class="node">
<title>Node43</title>
<g id="a_node43"><a xlink:title=" ">
<polygon fill="white" stroke="#bfbfbf" points="1275,-112.5 1275,-131.5 1325,-131.5 1325,-112.5 1275,-112.5"/>
<text text-anchor="middle" x="1300" y="-119.5" font-family="Helvetica,sans-Serif" font-size="10.00">atomic</text>
</a>
</g>
</g>
<!-- Node21&#45;&gt;Node43 -->
<g id="edge65" class="edge">
<title>Node21&#45;&gt;Node43</title>
<path fill="none" stroke="midnightblue" d="M1222.82,-280.38C1236.84,-272.7 1255.81,-260.19 1267,-244 1288.79,-212.46 1296.22,-167.08 1298.73,-141.81"/>
<polygon fill="midnightblue" stroke="midnightblue" points="1302.23,-141.99 1299.57,-131.74 1295.25,-141.41 1302.23,-141.99"/>
</g>
<!-- Node46 -->
<g id="node46" class="node">
<title>Node46</title>
<g id="a_node46"><a xlink:title=" ">
<polygon fill="white" stroke="#bfbfbf" points="1151.5,-224.5 1151.5,-243.5 1258.5,-243.5 1258.5,-224.5 1151.5,-224.5"/>
<text text-anchor="middle" x="1205" y="-231.5" font-family="Helvetica,sans-Serif" font-size="10.00">condition_variable</text>
</a>
</g>
</g>
<!-- Node21&#45;&gt;Node46 -->
<g id="edge66" class="edge">
<title>Node21&#45;&gt;Node46</title>
<path fill="none" stroke="midnightblue" d="M1205,-280.08C1205,-273.01 1205,-262.86 1205,-253.99"/>
<polygon fill="midnightblue" stroke="midnightblue" points="1208.5,-253.75 1205,-243.75 1201.5,-253.75 1208.5,-253.75"/>
</g>
<!-- Node23 -->
<g id="node23" class="node">
<title>Node23</title>
<g id="a_node23"><a xlink:href="ccf__memcpy_8h.html" target="_top" xlink:title=" ">
<polygon fill="white" stroke="black" points="1553,-56.5 1553,-75.5 1639,-75.5 1639,-56.5 1553,-56.5"/>
<text text-anchor="middle" x="1596" y="-63.5" font-family="Helvetica,sans-Serif" font-size="10.00">ccf_memcpy.h</text>
</a>
</g>
</g>
<!-- Node22&#45;&gt;Node23 -->
<g id="edge25" class="edge">
<title>Node22&#45;&gt;Node23</title>
<path fill="none" stroke="midnightblue" d="M1495.94,-224.24C1508.71,-216.15 1526.89,-203.12 1539,-188 1564.68,-155.96 1582.08,-110.45 1590.39,-85.37"/>
<polygon fill="midnightblue" stroke="midnightblue" points="1593.77,-86.27 1593.47,-75.68 1587.1,-84.15 1593.77,-86.27"/>
</g>
<!-- Node24 -->
<g id="node24" class="node">
<title>Node24</title>
<g id="a_node24"><a xlink:title=" ">
<polygon fill="white" stroke="#bfbfbf" points="1500,-0.5 1500,-19.5 1550,-19.5 1550,-0.5 1500,-0.5"/>
<text text-anchor="middle" x="1525" y="-7.5" font-family="Helvetica,sans-Serif" font-size="10.00">cstring</text>
</a>
</g>
</g>
<!-- Node22&#45;&gt;Node24 -->
<g id="edge62" class="edge">
<title>Node22&#45;&gt;Node24</title>
<path fill="none" stroke="midnightblue" d="M1487.31,-224.18C1493.21,-215.45 1501.73,-201.46 1506,-188 1523.55,-132.64 1525.57,-63.18 1525.41,-30.15"/>
<polygon fill="midnightblue" stroke="midnightblue" points="1528.9,-29.68 1525.27,-19.72 1521.9,-29.77 1528.9,-29.68"/>
</g>
<!-- Node22&#45;&gt;Node25 -->
<g id="edge27" class="edge">
<title>Node22&#45;&gt;Node25</title>
<path fill="none" stroke="midnightblue" d="M1442.1,-228.9C1354.72,-219.68 1142.13,-197.26 1034.19,-185.88"/>
<polygon fill="midnightblue" stroke="midnightblue" points="1034.39,-182.38 1024.08,-184.81 1033.66,-189.34 1034.39,-182.38"/>
</g>
<!-- Node44 -->
<g id="node44" class="node">
<title>Node44</title>
<g id="a_node44"><a xlink:title=" ">
<polygon fill="white" stroke="#bfbfbf" points="1381.5,-168.5 1381.5,-187.5 1446.5,-187.5 1446.5,-168.5 1381.5,-168.5"/>
<text text-anchor="middle" x="1414" y="-175.5" font-family="Helvetica,sans-Serif" font-size="10.00">functional</text>
</a>
</g>
</g>
<!-- Node22&#45;&gt;Node44 -->
<g id="edge63" class="edge">
<title>Node22&#45;&gt;Node44</title>
<path fill="none" stroke="midnightblue" d="M1470.24,-224.32C1460.23,-216.26 1445.11,-204.08 1433.07,-194.37"/>
<polygon fill="midnightblue" stroke="midnightblue" points="1434.94,-191.38 1424.96,-187.83 1430.55,-196.83 1434.94,-191.38"/>
</g>
<!-- Node45 -->
<g id="node45" class="node">
<title>Node45</title>
<g id="a_node45"><a xlink:title=" ">
<polygon fill="white" stroke="#bfbfbf" points="1465,-168.5 1465,-187.5 1497,-187.5 1497,-168.5 1465,-168.5"/>
<text text-anchor="middle" x="1481" y="-175.5" font-family="Helvetica,sans-Serif" font-size="10.00">set</text>
</a>
</g>
</g>
<!-- Node22&#45;&gt;Node45 -->
<g id="edge64" class="edge">
<title>Node22&#45;&gt;Node45</title>
<path fill="none" stroke="midnightblue" d="M1481,-224.08C1481,-217.01 1481,-206.86 1481,-197.99"/>
<polygon fill="midnightblue" stroke="midnightblue" points="1484.5,-197.75 1481,-187.75 1477.5,-197.75 1484.5,-197.75"/>
</g>
<!-- Node23&#45;&gt;Node24 -->
<g id="edge26" class="edge">
<title>Node23&#45;&gt;Node24</title>
<path fill="none" stroke="midnightblue" d="M1584.59,-56.32C1573.89,-48.18 1557.66,-35.84 1544.84,-26.09"/>
<polygon fill="midnightblue" stroke="midnightblue" points="1546.69,-23.1 1536.61,-19.83 1542.46,-28.67 1546.69,-23.1"/>
</g>
<!-- Node25&#45;&gt;Node5 -->
<g id="edge58" class="edge">
<title>Node25&#45;&gt;Node5</title>
<path fill="none" stroke="midnightblue" d="M913.98,-169.81C832.17,-159.11 683.45,-139.55 633.54,-132.12"/>
<polygon fill="midnightblue" stroke="midnightblue" points="633.94,-128.64 623.52,-130.58 632.87,-135.56 633.94,-128.64"/>
</g>
<!-- Node25&#45;&gt;Node15 -->
<g id="edge59" class="edge">
<title>Node25&#45;&gt;Node15</title>
<path fill="none" stroke="midnightblue" d="M921.46,-168.44C862.17,-157.77 761.97,-139.73 707.33,-129.9"/>
<polygon fill="midnightblue" stroke="midnightblue" points="707.82,-126.43 697.36,-128.1 706.58,-133.32 707.82,-126.43"/>
</g>
<!-- Node26 -->
<g id="node26" class="node">
<title>Node26</title>
<g id="a_node26"><a xlink:href="include_2ccf_2ds_2hash_8h.html" target="_top" xlink:title=" ">
<polygon fill="white" stroke="black" points="948,-112.5 948,-131.5 1028,-131.5 1028,-112.5 948,-112.5"/>
<text text-anchor="middle" x="988" y="-119.5" font-family="Helvetica,sans-Serif" font-size="10.00">ccf/ds/hash.h</text>
</a>
</g>
</g>
<!-- Node25&#45;&gt;Node26 -->
<g id="edge28" class="edge">
<title>Node25&#45;&gt;Node26</title>
<path fill="none" stroke="midnightblue" d="M972.14,-168.08C974.68,-160.85 978.36,-150.41 981.53,-141.4"/>
<polygon fill="midnightblue" stroke="midnightblue" points="984.9,-142.35 984.92,-131.75 978.3,-140.02 984.9,-142.35"/>
</g>
<!-- Node25&#45;&gt;Node30 -->
<g id="edge61" class="edge">
<title>Node25&#45;&gt;Node30</title>
<path fill="none" stroke="midnightblue" d="M962.39,-168.41C955.84,-159.61 945.83,-145.38 939,-132 921.24,-97.21 906.8,-53.7 899.4,-29.47"/>
<polygon fill="midnightblue" stroke="midnightblue" points="902.72,-28.38 896.5,-19.8 896.02,-30.38 902.72,-28.38"/>
</g>
<!-- Node33 -->
<g id="node33" class="node">
<title>Node33</title>
<g id="a_node33"><a xlink:href="nonstd_8h.html" target="_top" xlink:title=" ">
<polygon fill="white" stroke="black" points="602,-56.5 602,-75.5 692,-75.5 692,-56.5 602,-56.5"/>
<text text-anchor="middle" x="647" y="-63.5" font-family="Helvetica,sans-Serif" font-size="10.00">ccf/ds/nonstd.h</text>
</a>
</g>
</g>
<!-- Node25&#45;&gt;Node33 -->
<g id="edge37" class="edge">
<title>Node25&#45;&gt;Node33</title>
<path fill="none" stroke="midnightblue" d="M921.31,-168.44C883.03,-160.87 828.24,-148.48 782,-132 741.85,-117.69 697.78,-95.06 671.27,-80.63"/>
<polygon fill="midnightblue" stroke="midnightblue" points="672.78,-77.47 662.33,-75.72 669.41,-83.6 672.78,-77.47"/>
</g>
<!-- Node36 -->
<g id="node36" class="node">
<title>Node36</title>
<g id="a_node36"><a xlink:title=" ">
<polygon fill="white" stroke="#bfbfbf" points="1214,-0.5 1214,-19.5 1258,-19.5 1258,-0.5 1214,-0.5"/>
<text text-anchor="middle" x="1236" y="-7.5" font-family="Helvetica,sans-Serif" font-size="10.00">string</text>
</a>
</g>
</g>
<!-- Node25&#45;&gt;Node36 -->
<g id="edge60" class="edge">
<title>Node25&#45;&gt;Node36</title>
<path fill="none" stroke="midnightblue" d="M1024.08,-172.58C1085.42,-164.46 1182.32,-141.41 1231,-76 1240.81,-62.82 1241.1,-43.68 1239.52,-29.58"/>
<polygon fill="midnightblue" stroke="midnightblue" points="1242.96,-28.93 1237.99,-19.57 1236.04,-29.98 1242.96,-28.93"/>
</g>
<!-- Node38 -->
<g id="node38" class="node">
<title>Node38</title>
<g id="a_node38"><a xlink:href="serializer_8h.html" target="_top" xlink:title=" ">
<polygon fill="white" stroke="black" points="791,-112.5 791,-131.5 861,-131.5 861,-112.5 791,-112.5"/>
<text text-anchor="middle" x="826" y="-119.5" font-family="Helvetica,sans-Serif" font-size="10.00">serializer.h</text>
</a>
</g>
</g>
<!-- Node25&#45;&gt;Node38 -->
<g id="edge45" class="edge">
<title>Node25&#45;&gt;Node38</title>
<path fill="none" stroke="midnightblue" d="M946.34,-168.44C922.6,-159.48 885.09,-145.31 858.26,-135.18"/>
<polygon fill="midnightblue" stroke="midnightblue" points="859.14,-131.77 848.55,-131.52 856.67,-138.32 859.14,-131.77"/>
</g>
<!-- Node25&#45;&gt;Node43 -->
<g id="edge57" class="edge">
<title>Node25&#45;&gt;Node43</title>
<path fill="none" stroke="midnightblue" d="M1024.1,-169.75C1082.97,-161.71 1178.89,-147.78 1261,-132 1262.27,-131.76 1263.55,-131.5 1264.85,-131.24"/>
<polygon fill="midnightblue" stroke="midnightblue" points="1265.84,-134.6 1274.88,-129.08 1264.37,-127.76 1265.84,-134.6"/>
</g>
<!-- Node27 -->
<g id="node27" class="node">
<title>Node27</title>
<g id="a_node27"><a xlink:href="siphash_8h.html" target="_top" xlink:title=" ">
<polygon fill="white" stroke="black" points="960.5,-56.5 960.5,-75.5 1055.5,-75.5 1055.5,-56.5 960.5,-56.5"/>
<text text-anchor="middle" x="1008" y="-63.5" font-family="Helvetica,sans-Serif" font-size="10.00">ccf/ds/siphash.h</text>
</a>
</g>
</g>
<!-- Node26&#45;&gt;Node27 -->
<g id="edge29" class="edge">
<title>Node26&#45;&gt;Node27</title>
<path fill="none" stroke="midnightblue" d="M991.3,-112.08C993.98,-104.85 997.85,-94.41 1001.19,-85.4"/>
<polygon fill="midnightblue" stroke="midnightblue" points="1004.57,-86.34 1004.76,-75.75 998,-83.91 1004.57,-86.34"/>
</g>
<!-- Node29 -->
<g id="node29" class="node">
<title>Node29</title>
<g id="a_node29"><a xlink:title=" ">
<polygon fill="white" stroke="#bfbfbf" points="1276,-0.5 1276,-19.5 1326,-19.5 1326,-0.5 1276,-0.5"/>
<text text-anchor="middle" x="1301" y="-7.5" font-family="Helvetica,sans-Serif" font-size="10.00">cstdint</text>
</a>
</g>
</g>
<!-- Node26&#45;&gt;Node29 -->
<g id="edge34" class="edge">
<title>Node26&#45;&gt;Node29</title>
<path fill="none" stroke="midnightblue" d="M1028.02,-120.35C1078.04,-118.06 1165.06,-109.14 1231,-76 1254.04,-64.42 1274.91,-42.93 1287.76,-27.84"/>
<polygon fill="midnightblue" stroke="midnightblue" points="1290.7,-29.76 1294.34,-19.81 1285.29,-25.32 1290.7,-29.76"/>
</g>
<!-- Node26&#45;&gt;Node30 -->
<g id="edge36" class="edge">
<title>Node26&#45;&gt;Node30</title>
<path fill="none" stroke="midnightblue" d="M980.62,-112.37C964.97,-94.05 928.22,-51.05 907.98,-27.36"/>
<polygon fill="midnightblue" stroke="midnightblue" points="910.5,-24.92 901.34,-19.59 905.18,-29.47 910.5,-24.92"/>
</g>
<!-- Node31 -->
<g id="node31" class="node">
<title>Node31</title>
<g id="a_node31"><a xlink:title=" ">
<polygon fill="white" stroke="#bfbfbf" points="800,-0.5 800,-19.5 842,-19.5 842,-0.5 800,-0.5"/>
<text text-anchor="middle" x="821" y="-7.5" font-family="Helvetica,sans-Serif" font-size="10.00">array</text>
</a>
</g>
</g>
<!-- Node26&#45;&gt;Node31 -->
<g id="edge33" class="edge">
<title>Node26&#45;&gt;Node31</title>
<path fill="none" stroke="midnightblue" d="M974.9,-112.37C946.24,-93.49 877.76,-48.38 842.61,-25.24"/>
<polygon fill="midnightblue" stroke="midnightblue" points="844.32,-22.17 834.04,-19.59 840.47,-28.02 844.32,-22.17"/>
</g>
<!-- Node32 -->
<g id="node32" class="node">
<title>Node32</title>
<g id="a_node32"><a xlink:title=" ">
<polygon fill="white" stroke="#bfbfbf" points="1073.5,-56.5 1073.5,-75.5 1222.5,-75.5 1222.5,-56.5 1073.5,-56.5"/>
<text text-anchor="middle" x="1148" y="-63.5" font-family="Helvetica,sans-Serif" font-size="10.00">small_vector/SmallVector.h</text>
</a>
</g>
</g>
<!-- Node26&#45;&gt;Node32 -->
<g id="edge35" class="edge">
<title>Node26&#45;&gt;Node32</title>
<path fill="none" stroke="midnightblue" d="M1013.35,-112.44C1040.27,-103.36 1083,-88.94 1113.09,-78.78"/>
<polygon fill="midnightblue" stroke="midnightblue" points="1114.41,-82.03 1122.77,-75.52 1112.17,-75.4 1114.41,-82.03"/>
</g>
<!-- Node28 -->
<g id="node28" class="node">
<title>Node28</title>
<g id="a_node28"><a xlink:title=" ">
<polygon fill="white" stroke="#bfbfbf" points="981.5,-0.5 981.5,-19.5 1034.5,-19.5 1034.5,-0.5 981.5,-0.5"/>
<text text-anchor="middle" x="1008" y="-7.5" font-family="Helvetica,sans-Serif" font-size="10.00">cstddef</text>
</a>
</g>
</g>
<!-- Node27&#45;&gt;Node28 -->
<g id="edge30" class="edge">
<title>Node27&#45;&gt;Node28</title>
<path fill="none" stroke="midnightblue" d="M1008,-56.08C1008,-49.01 1008,-38.86 1008,-29.99"/>
<polygon fill="midnightblue" stroke="midnightblue" points="1011.5,-29.75 1008,-19.75 1004.5,-29.75 1011.5,-29.75"/>
</g>
<!-- Node27&#45;&gt;Node29 -->
<g id="edge31" class="edge">
<title>Node27&#45;&gt;Node29</title>
<path fill="none" stroke="midnightblue" d="M1055.77,-57.21C1115.06,-47.46 1213.81,-30.93 1265.76,-20.09"/>
<polygon fill="midnightblue" stroke="midnightblue" points="1266.77,-23.45 1275.81,-17.93 1265.3,-16.61 1266.77,-23.45"/>
</g>
<!-- Node27&#45;&gt;Node30 -->
<g id="edge32" class="edge">
<title>Node27&#45;&gt;Node30</title>
<path fill="none" stroke="midnightblue" d="M989.94,-56.44C971.43,-47.68 942.42,-33.94 921.14,-23.86"/>
<polygon fill="midnightblue" stroke="midnightblue" points="922.51,-20.63 911.98,-19.52 919.52,-26.96 922.51,-20.63"/>
</g>
<!-- Node33&#45;&gt;Node17 -->
<g id="edge43" class="edge">
<title>Node33&#45;&gt;Node17</title>
<path fill="none" stroke="midnightblue" d="M623.71,-56.44C599.19,-47.44 560.4,-33.19 532.8,-23.05"/>
<polygon fill="midnightblue" stroke="midnightblue" points="533.78,-19.68 523.18,-19.52 531.36,-26.25 533.78,-19.68"/>
</g>
<!-- Node33&#45;&gt;Node30 -->
<g id="edge44" class="edge">
<title>Node33&#45;&gt;Node30</title>
<path fill="none" stroke="midnightblue" d="M686.14,-56.44C734.22,-45.93 814.98,-28.28 860.38,-18.35"/>
<polygon fill="midnightblue" stroke="midnightblue" points="861.3,-21.73 870.32,-16.18 859.8,-14.89 861.3,-21.73"/>
</g>
<!-- Node33&#45;&gt;Node31 -->
<g id="edge39" class="edge">
<title>Node33&#45;&gt;Node31</title>
<path fill="none" stroke="midnightblue" d="M674.57,-56.44C705.96,-46.7 757.12,-30.83 789.9,-20.65"/>
<polygon fill="midnightblue" stroke="midnightblue" points="791.34,-23.87 799.85,-17.56 789.26,-17.18 791.34,-23.87"/>
</g>
<!-- Node34 -->
<g id="node34" class="node">
<title>Node34</title>
<g id="a_node34"><a xlink:title=" ">
<polygon fill="white" stroke="#bfbfbf" points="620,-0.5 620,-19.5 684,-19.5 684,-0.5 620,-0.5"/>
<text text-anchor="middle" x="652" y="-7.5" font-family="Helvetica,sans-Serif" font-size="10.00">algorithm</text>
</a>
</g>
</g>
<!-- Node33&#45;&gt;Node34 -->
<g id="edge38" class="edge">
<title>Node33&#45;&gt;Node34</title>
<path fill="none" stroke="midnightblue" d="M647.83,-56.08C648.48,-49.01 649.42,-38.86 650.24,-29.99"/>
<polygon fill="midnightblue" stroke="midnightblue" points="653.75,-30.03 651.19,-19.75 646.78,-29.39 653.75,-30.03"/>
</g>
<!-- Node35 -->
<g id="node35" class="node">
<title>Node35</title>
<g id="a_node35"><a xlink:title=" ">
<polygon fill="white" stroke="#bfbfbf" points="552.5,-0.5 552.5,-19.5 601.5,-19.5 601.5,-0.5 552.5,-0.5"/>
<text text-anchor="middle" x="577" y="-7.5" font-family="Helvetica,sans-Serif" font-size="10.00">cctype</text>
</a>
</g>
</g>
<!-- Node33&#45;&gt;Node35 -->
<g id="edge40" class="edge">
<title>Node33&#45;&gt;Node35</title>
<path fill="none" stroke="midnightblue" d="M635.75,-56.32C625.2,-48.18 609.2,-35.84 596.56,-26.09"/>
<polygon fill="midnightblue" stroke="midnightblue" points="598.51,-23.17 588.45,-19.83 594.23,-28.71 598.51,-23.17"/>
</g>
<!-- Node33&#45;&gt;Node36 -->
<g id="edge41" class="edge">
<title>Node33&#45;&gt;Node36</title>
<path fill="none" stroke="midnightblue" d="M692.24,-60.85C806.6,-50.37 1105.15,-23 1203.83,-13.95"/>
<polygon fill="midnightblue" stroke="midnightblue" points="1204.16,-17.43 1213.8,-13.04 1203.52,-10.46 1204.16,-17.43"/>
</g>
<!-- Node37 -->
<g id="node37" class="node">
<title>Node37</title>
<g id="a_node37"><a xlink:title=" ">
<polygon fill="white" stroke="#bfbfbf" points="702.5,-0.5 702.5,-19.5 775.5,-19.5 775.5,-0.5 702.5,-0.5"/>
<text text-anchor="middle" x="739" y="-7.5" font-family="Helvetica,sans-Serif" font-size="10.00">string_view</text>
</a>
</g>
</g>
<!-- Node33&#45;&gt;Node37 -->
<g id="edge42" class="edge">
<title>Node33&#45;&gt;Node37</title>
<path fill="none" stroke="midnightblue" d="M661.78,-56.32C676.27,-47.82 698.57,-34.73 715.49,-24.8"/>
<polygon fill="midnightblue" stroke="midnightblue" points="717.4,-27.74 724.26,-19.65 713.86,-21.7 717.4,-27.74"/>
</g>
<!-- Node38&#45;&gt;Node17 -->
<g id="edge55" class="edge">
<title>Node38&#45;&gt;Node17</title>
<path fill="none" stroke="midnightblue" d="M790.72,-118.78C743.9,-114.81 659.4,-104.1 593,-76 564,-63.73 534.96,-41.44 517.23,-26.43"/>
<polygon fill="midnightblue" stroke="midnightblue" points="519.34,-23.62 509.49,-19.72 514.76,-28.91 519.34,-23.62"/>
</g>
<!-- Node38&#45;&gt;Node30 -->
<g id="edge56" class="edge">
<title>Node38&#45;&gt;Node30</title>
<path fill="none" stroke="midnightblue" d="M811.16,-112.35C792.01,-100.06 762.76,-76.74 777,-56 786.77,-41.78 829.33,-27.91 860.31,-19.41"/>
<polygon fill="midnightblue" stroke="midnightblue" points="861.54,-22.7 870.3,-16.74 859.74,-15.94 861.54,-22.7"/>
</g>
<!-- Node38&#45;&gt;Node33 -->
<g id="edge46" class="edge">
<title>Node38&#45;&gt;Node33</title>
<path fill="none" stroke="midnightblue" d="M797.64,-112.44C767.26,-103.28 718.89,-88.69 685.18,-78.52"/>
<polygon fill="midnightblue" stroke="midnightblue" points="685.82,-75.05 675.23,-75.52 683.79,-81.76 685.82,-75.05"/>
</g>
<!-- Node38&#45;&gt;Node39 -->
<g id="edge47" class="edge">
<title>Node38&#45;&gt;Node39</title>
<path fill="none" stroke="midnightblue" d="M861.4,-117.37C953.77,-107.91 1202.15,-82.46 1306.17,-71.8"/>
<polygon fill="midnightblue" stroke="midnightblue" points="1306.77,-75.26 1316.36,-70.75 1306.06,-68.29 1306.77,-75.26"/>
</g>
<!-- Node41 -->
<g id="node41" class="node">
<title>Node41</title>
<g id="a_node41"><a xlink:title=" ">
<polygon fill="white" stroke="#bfbfbf" points="285,-56.5 285,-75.5 343,-75.5 343,-56.5 285,-56.5"/>
<text text-anchor="middle" x="314" y="-63.5" font-family="Helvetica,sans-Serif" font-size="10.00">memory</text>
</a>
</g>
</g>
<!-- Node38&#45;&gt;Node41 -->
<g id="edge53" class="edge">
<title>Node38&#45;&gt;Node41</title>
<path fill="none" stroke="midnightblue" d="M790.81,-117.29C698.49,-107.55 449.84,-81.33 353.18,-71.13"/>
<polygon fill="midnightblue" stroke="midnightblue" points="353.55,-67.65 343.24,-70.08 352.81,-74.61 353.55,-67.65"/>
</g>
<!-- Node42 -->
<g id="node42" class="node">
<title>Node42</title>
<g id="a_node42"><a xlink:title=" ">
<polygon fill="white" stroke="#bfbfbf" points="786.5,-56.5 786.5,-75.5 827.5,-75.5 827.5,-56.5 786.5,-56.5"/>
<text text-anchor="middle" x="807" y="-63.5" font-family="Helvetica,sans-Serif" font-size="10.00">tuple</text>
</a>
</g>
</g>
<!-- Node38&#45;&gt;Node42 -->
<g id="edge54" class="edge">
<title>Node38&#45;&gt;Node42</title>
<path fill="none" stroke="midnightblue" d="M822.86,-112.08C820.32,-104.85 816.64,-94.41 813.47,-85.4"/>
<polygon fill="midnightblue" stroke="midnightblue" points="816.7,-84.02 810.08,-75.75 810.1,-86.35 816.7,-84.02"/>
</g>
<!-- Node39&#45;&gt;Node24 -->
<g id="edge49" class="edge">
<title>Node39&#45;&gt;Node24</title>
<path fill="none" stroke="midnightblue" d="M1380.25,-56.44C1409.91,-47.13 1457.43,-32.21 1489.87,-22.03"/>
<polygon fill="midnightblue" stroke="midnightblue" points="1491.34,-25.24 1499.83,-18.9 1489.24,-18.56 1491.34,-25.24"/>
</g>
<!-- Node39&#45;&gt;Node29 -->
<g id="edge48" class="edge">
<title>Node39&#45;&gt;Node29</title>
<path fill="none" stroke="midnightblue" d="M1344.41,-56.08C1336.84,-48.22 1325.62,-36.57 1316.49,-27.08"/>
<polygon fill="midnightblue" stroke="midnightblue" points="1318.88,-24.53 1309.43,-19.75 1313.84,-29.38 1318.88,-24.53"/>
</g>
<!-- Node39&#45;&gt;Node30 -->
<g id="edge52" class="edge">
<title>Node39&#45;&gt;Node30</title>
<path fill="none" stroke="midnightblue" d="M1316.21,-60.67C1229.1,-50.42 1011.26,-24.8 927.52,-14.94"/>
<polygon fill="midnightblue" stroke="midnightblue" points="927.88,-11.46 917.54,-13.77 927.06,-18.41 927.88,-11.46"/>
</g>
<!-- Node39&#45;&gt;Node36 -->
<g id="edge51" class="edge">
<title>Node39&#45;&gt;Node36</title>
<path fill="none" stroke="midnightblue" d="M1334.46,-56.44C1315.38,-47.64 1285.43,-33.81 1263.56,-23.72"/>
<polygon fill="midnightblue" stroke="midnightblue" points="1265,-20.53 1254.45,-19.52 1262.07,-26.88 1265,-20.53"/>
</g>
<!-- Node39&#45;&gt;Node40 -->
<g id="edge50" class="edge">
<title>Node39&#45;&gt;Node40</title>
<path fill="none" stroke="midnightblue" d="M1359.27,-56.08C1364.64,-48.46 1372.52,-37.26 1379.08,-27.94"/>
<polygon fill="midnightblue" stroke="midnightblue" points="1381.95,-29.94 1384.84,-19.75 1376.22,-25.91 1381.95,-29.94"/>
</g>
<!-- Node51&#45;&gt;Node48 -->
<g id="edge82" class="edge">
<title>Node51&#45;&gt;Node48</title>
<path fill="none" stroke="midnightblue" d="M385.93,-392.08C392.85,-384.3 403.07,-372.8 411.45,-363.37"/>
<polygon fill="midnightblue" stroke="midnightblue" points="414.19,-365.55 418.22,-355.75 408.96,-360.9 414.19,-365.55"/>
</g>
<!-- Node52 -->
<g id="node52" class="node">
<title>Node52</title>
<g id="a_node52"><a xlink:href="proxy_8h.html" target="_top" xlink:title=" ">
<polygon fill="white" stroke="black" points="175,-336.5 175,-355.5 227,-355.5 227,-336.5 175,-336.5"/>
<text text-anchor="middle" x="201" y="-343.5" font-family="Helvetica,sans-Serif" font-size="10.00">proxy.h</text>
</a>
</g>
</g>
<!-- Node51&#45;&gt;Node52 -->
<g id="edge79" class="edge">
<title>Node51&#45;&gt;Node52</title>
<path fill="none" stroke="midnightblue" d="M350.34,-392.56C319.77,-383.23 270.41,-368.18 236.88,-357.95"/>
<polygon fill="midnightblue" stroke="midnightblue" points="237.61,-354.51 227.02,-354.94 235.57,-361.2 237.61,-354.51"/>
</g>
<!-- Node52&#45;&gt;Node41 -->
<g id="edge80" class="edge">
<title>Node52&#45;&gt;Node41</title>
<path fill="none" stroke="midnightblue" d="M174.72,-342.75C120.24,-336.49 0,-313.76 0,-235 0,-235 0,-235 0,-177 0,-119.4 190.56,-84.79 274.78,-72.3"/>
<polygon fill="midnightblue" stroke="midnightblue" points="275.35,-75.76 284.74,-70.86 274.34,-68.83 275.35,-75.76"/>
</g>
<!-- Node53 -->
<g id="node53" class="node">
<title>Node53</title>
<g id="a_node53"><a xlink:title=" ">
<polygon fill="white" stroke="#bfbfbf" points="182.5,-280.5 182.5,-299.5 219.5,-299.5 219.5,-280.5 182.5,-280.5"/>
<text text-anchor="middle" x="201" y="-287.5" font-family="Helvetica,sans-Serif" font-size="10.00">uv.h</text>
</a>
</g>
</g>
<!-- Node52&#45;&gt;Node53 -->
<g id="edge81" class="edge">
<title>Node52&#45;&gt;Node53</title>
<path fill="none" stroke="midnightblue" d="M201,-336.08C201,-329.01 201,-318.86 201,-309.99"/>
<polygon fill="midnightblue" stroke="midnightblue" points="204.5,-309.75 201,-299.75 197.5,-309.75 204.5,-309.75"/>
</g>
</g>
</svg>
