<?xml version="1.0" encoding="UTF-8" standalone="no"?>
<!DOCTYPE svg PUBLIC "-//W3C//DTD SVG 1.1//EN"
 "http://www.w3.org/Graphics/SVG/1.1/DTD/svg11.dtd">
<!-- Generated by graphviz version 2.43.0 (0)
 -->
<!-- Title: include/ccf/endpoints/authentication/sig_auth.h Pages: 1 -->
<svg width="1883pt" height="475pt"
 viewBox="0.00 0.00 1883.00 475.00" xmlns="http://www.w3.org/2000/svg" xmlns:xlink="http://www.w3.org/1999/xlink">
<g id="graph0" class="graph" transform="scale(1 1) rotate(0) translate(4 471)">
<title>include/ccf/endpoints/authentication/sig_auth.h</title>
<polygon fill="white" stroke="transparent" points="-4,4 -4,-471 1879,-471 1879,4 -4,4"/>
<!-- Node1 -->
<g id="node1" class="node">
<title>Node1</title>
<g id="a_node1"><a xlink:title=" ">
<polygon fill="#bfbfbf" stroke="black" points="735.5,-436.5 735.5,-466.5 878.5,-466.5 878.5,-436.5 735.5,-436.5"/>
<text text-anchor="start" x="743.5" y="-454.5" font-family="Helvetica,sans-Serif" font-size="10.00">include/ccf/endpoints</text>
<text text-anchor="middle" x="807" y="-443.5" font-family="Helvetica,sans-Serif" font-size="10.00">/authentication/sig_auth.h</text>
</a>
</g>
</g>
<!-- Node2 -->
<g id="node2" class="node">
<title>Node2</title>
<g id="a_node2"><a xlink:href="pem_8h.html" target="_top" xlink:title=" ">
<polygon fill="white" stroke="black" points="182,-241 182,-260 280,-260 280,-241 182,-241"/>
<text text-anchor="middle" x="231" y="-248" font-family="Helvetica,sans-Serif" font-size="10.00">ccf/crypto/pem.h</text>
</a>
</g>
</g>
<!-- Node1&#45;&gt;Node2 -->
<g id="edge1" class="edge">
<title>Node1&#45;&gt;Node2</title>
<path fill="none" stroke="midnightblue" d="M735.09,-448.46C630.96,-442.47 435.53,-419.52 297,-333 271.49,-317.07 251.42,-287.76 240.39,-268.97"/>
<polygon fill="midnightblue" stroke="midnightblue" points="243.42,-267.23 235.47,-260.23 237.33,-270.66 243.42,-267.23"/>
</g>
<!-- Node21 -->
<g id="node21" class="node">
<title>Node21</title>
<g id="a_node21"><a xlink:href="authentication__types_8h.html" target="_top" xlink:title=" ">
<polygon fill="white" stroke="black" points="1488.5,-369.5 1488.5,-399.5 1643.5,-399.5 1643.5,-369.5 1488.5,-369.5"/>
<text text-anchor="start" x="1496.5" y="-387.5" font-family="Helvetica,sans-Serif" font-size="10.00">ccf/endpoints/authentication</text>
<text text-anchor="middle" x="1566" y="-376.5" font-family="Helvetica,sans-Serif" font-size="10.00">/authentication_types.h</text>
</a>
</g>
</g>
<!-- Node1&#45;&gt;Node21 -->
<g id="edge25" class="edge">
<title>Node1&#45;&gt;Node21</title>
<path fill="none" stroke="midnightblue" d="M878.75,-444.36C1018.45,-432.39 1326.56,-406.01 1478.2,-393.02"/>
<polygon fill="midnightblue" stroke="midnightblue" points="1478.73,-396.49 1488.4,-392.15 1478.14,-389.51 1478.73,-396.49"/>
</g>
<!-- Node40 -->
<g id="node40" class="node">
<title>Node40</title>
<g id="a_node40"><a xlink:href="entity__id_8h.html" target="_top" xlink:title=" ">
<polygon fill="white" stroke="black" points="805,-308 805,-327 891,-327 891,-308 805,-308"/>
<text text-anchor="middle" x="848" y="-315" font-family="Helvetica,sans-Serif" font-size="10.00">ccf/entity_id.h</text>
</a>
</g>
</g>
<!-- Node1&#45;&gt;Node40 -->
<g id="edge67" class="edge">
<title>Node1&#45;&gt;Node40</title>
<path fill="none" stroke="midnightblue" d="M811.39,-436.37C818.87,-412.29 834.08,-363.31 842.35,-336.7"/>
<polygon fill="midnightblue" stroke="midnightblue" points="845.71,-337.69 845.33,-327.1 839.02,-335.61 845.71,-337.69"/>
</g>
<!-- Node47 -->
<g id="node47" class="node">
<title>Node47</title>
<g id="a_node47"><a xlink:href="signed__req_8h.html" target="_top" xlink:title=" ">
<polygon fill="white" stroke="black" points="679,-302.5 679,-332.5 783,-332.5 783,-302.5 679,-302.5"/>
<text text-anchor="start" x="687" y="-320.5" font-family="Helvetica,sans-Serif" font-size="10.00">ccf/service/signed</text>
<text text-anchor="middle" x="731" y="-309.5" font-family="Helvetica,sans-Serif" font-size="10.00">_req.h</text>
</a>
</g>
</g>
<!-- Node1&#45;&gt;Node47 -->
<g id="edge80" class="edge">
<title>Node1&#45;&gt;Node47</title>
<path fill="none" stroke="midnightblue" d="M798.87,-436.37C785.78,-413.65 759.93,-368.75 744.19,-341.4"/>
<polygon fill="midnightblue" stroke="midnightblue" points="747.1,-339.44 739.07,-332.52 741.03,-342.94 747.1,-339.44"/>
</g>
<!-- Node3 -->
<g id="node3" class="node">
<title>Node3</title>
<g id="a_node3"><a xlink:href="json_8h.html" target="_top" xlink:title=" ">
<polygon fill="white" stroke="black" points="628.5,-174 628.5,-193 705.5,-193 705.5,-174 628.5,-174"/>
<text text-anchor="middle" x="667" y="-181" font-family="Helvetica,sans-Serif" font-size="10.00">ccf/ds/json.h</text>
</a>
</g>
</g>
<!-- Node2&#45;&gt;Node3 -->
<g id="edge2" class="edge">
<title>Node2&#45;&gt;Node3</title>
<path fill="none" stroke="midnightblue" d="M280.17,-242.17C364.19,-229.64 534.41,-204.27 618.19,-191.78"/>
<polygon fill="midnightblue" stroke="midnightblue" points="618.83,-195.22 628.21,-190.28 617.8,-188.3 618.83,-195.22"/>
</g>
<!-- Node6 -->
<g id="node6" class="node">
<title>Node6</title>
<g id="a_node6"><a xlink:title=" ">
<polygon fill="white" stroke="#bfbfbf" points="162.5,-0.5 162.5,-19.5 209.5,-19.5 209.5,-0.5 162.5,-0.5"/>
<text text-anchor="middle" x="186" y="-7.5" font-family="Helvetica,sans-Serif" font-size="10.00">vector</text>
</a>
</g>
</g>
<!-- Node2&#45;&gt;Node6 -->
<g id="edge24" class="edge">
<title>Node2&#45;&gt;Node6</title>
<path fill="none" stroke="midnightblue" d="M181.89,-241.93C135.9,-233.73 72.06,-219.06 57,-199 29.58,-162.49 45.47,-112.55 95,-56 110.13,-38.73 133.43,-27.38 152.67,-20.4"/>
<polygon fill="midnightblue" stroke="midnightblue" points="153.94,-23.66 162.29,-17.14 151.69,-17.03 153.94,-23.66"/>
</g>
<!-- Node12 -->
<g id="node12" class="node">
<title>Node12</title>
<g id="a_node12"><a xlink:title=" ">
<polygon fill="white" stroke="#bfbfbf" points="483.5,-0.5 483.5,-19.5 556.5,-19.5 556.5,-0.5 483.5,-0.5"/>
<text text-anchor="middle" x="520" y="-7.5" font-family="Helvetica,sans-Serif" font-size="10.00">string_view</text>
</a>
</g>
</g>
<!-- Node2&#45;&gt;Node12 -->
<g id="edge23" class="edge">
<title>Node2&#45;&gt;Node12</title>
<path fill="none" stroke="midnightblue" d="M228.38,-240.73C219.94,-210.51 196.78,-109.61 246,-56 261.18,-39.47 399.29,-23.17 473.43,-15.52"/>
<polygon fill="midnightblue" stroke="midnightblue" points="473.86,-19 483.45,-14.5 473.15,-12.03 473.86,-19"/>
</g>
<!-- Node17 -->
<g id="node17" class="node">
<title>Node17</title>
<g id="a_node17"><a xlink:title=" ">
<polygon fill="white" stroke="#bfbfbf" points="66,-174 66,-193 116,-193 116,-174 66,-174"/>
<text text-anchor="middle" x="91" y="-181" font-family="Helvetica,sans-Serif" font-size="10.00">cstring</text>
</a>
</g>
</g>
<!-- Node2&#45;&gt;Node17 -->
<g id="edge19" class="edge">
<title>Node2&#45;&gt;Node17</title>
<path fill="none" stroke="midnightblue" d="M212.41,-240.87C188.46,-229.75 146.61,-210.32 118.85,-197.43"/>
<polygon fill="midnightblue" stroke="midnightblue" points="120.21,-194.2 109.67,-193.17 117.26,-200.55 120.21,-194.2"/>
</g>
<!-- Node18 -->
<g id="node18" class="node">
<title>Node18</title>
<g id="a_node18"><a xlink:title=" ">
<polygon fill="white" stroke="#bfbfbf" points="134.5,-174 134.5,-193 199.5,-193 199.5,-174 134.5,-174"/>
<text text-anchor="middle" x="167" y="-181" font-family="Helvetica,sans-Serif" font-size="10.00">exception</text>
</a>
</g>
</g>
<!-- Node2&#45;&gt;Node18 -->
<g id="edge20" class="edge">
<title>Node2&#45;&gt;Node18</title>
<path fill="none" stroke="midnightblue" d="M222.37,-240.73C212.2,-230.4 195.1,-213.04 182.59,-200.33"/>
<polygon fill="midnightblue" stroke="midnightblue" points="185,-197.8 175.49,-193.13 180.02,-202.71 185,-197.8"/>
</g>
<!-- Node19 -->
<g id="node19" class="node">
<title>Node19</title>
<g id="a_node19"><a xlink:title=" ">
<polygon fill="white" stroke="#bfbfbf" points="256,-174 256,-193 314,-193 314,-174 256,-174"/>
<text text-anchor="middle" x="285" y="-181" font-family="Helvetica,sans-Serif" font-size="10.00">memory</text>
</a>
</g>
</g>
<!-- Node2&#45;&gt;Node19 -->
<g id="edge21" class="edge">
<title>Node2&#45;&gt;Node19</title>
<path fill="none" stroke="midnightblue" d="M238.28,-240.73C246.7,-230.6 260.75,-213.69 271.25,-201.06"/>
<polygon fill="midnightblue" stroke="midnightblue" points="274.13,-203.06 277.83,-193.13 268.75,-198.58 274.13,-203.06"/>
</g>
<!-- Node20 -->
<g id="node20" class="node">
<title>Node20</title>
<g id="a_node20"><a xlink:title=" ">
<polygon fill="white" stroke="#bfbfbf" points="456,-174 456,-193 496,-193 496,-174 456,-174"/>
<text text-anchor="middle" x="476" y="-181" font-family="Helvetica,sans-Serif" font-size="10.00">span</text>
</a>
</g>
</g>
<!-- Node2&#45;&gt;Node20 -->
<g id="edge22" class="edge">
<title>Node2&#45;&gt;Node20</title>
<path fill="none" stroke="midnightblue" d="M280.12,-241.15C324.28,-232.89 390.52,-218.65 446,-199 447.43,-198.49 448.88,-197.94 450.34,-197.35"/>
<polygon fill="midnightblue" stroke="midnightblue" points="452.06,-200.41 459.77,-193.14 449.21,-194.02 452.06,-200.41"/>
</g>
<!-- Node4 -->
<g id="node4" class="node">
<title>Node4</title>
<g id="a_node4"><a xlink:href="include_2ccf_2crypto_2base64_8h.html" target="_top" xlink:title=" ">
<polygon fill="white" stroke="black" points="422,-56.5 422,-75.5 534,-75.5 534,-56.5 422,-56.5"/>
<text text-anchor="middle" x="478" y="-63.5" font-family="Helvetica,sans-Serif" font-size="10.00">ccf/crypto/base64.h</text>
</a>
</g>
</g>
<!-- Node3&#45;&gt;Node4 -->
<g id="edge3" class="edge">
<title>Node3&#45;&gt;Node4</title>
<path fill="none" stroke="midnightblue" d="M628.32,-178.61C593.73,-173.32 543.48,-160.91 510,-132 496.04,-119.95 487.57,-100.38 482.89,-85.86"/>
<polygon fill="midnightblue" stroke="midnightblue" points="486.16,-84.57 480.01,-75.94 479.44,-86.52 486.16,-84.57"/>
</g>
<!-- Node7 -->
<g id="node7" class="node">
<title>Node7</title>
<g id="a_node7"><a xlink:href="include_2ccf_2ds_2json__schema_8h.html" target="_top" xlink:title=" ">
<polygon fill="white" stroke="black" points="666.5,-112.5 666.5,-131.5 787.5,-131.5 787.5,-112.5 666.5,-112.5"/>
<text text-anchor="middle" x="727" y="-119.5" font-family="Helvetica,sans-Serif" font-size="10.00">ccf/ds/json_schema.h</text>
</a>
</g>
</g>
<!-- Node3&#45;&gt;Node7 -->
<g id="edge6" class="edge">
<title>Node3&#45;&gt;Node7</title>
<path fill="none" stroke="midnightblue" d="M675.6,-173.98C684.86,-164.78 699.82,-149.96 711.21,-138.66"/>
<polygon fill="midnightblue" stroke="midnightblue" points="713.78,-141.04 718.42,-131.51 708.85,-136.07 713.78,-141.04"/>
</g>
<!-- Node14 -->
<g id="node14" class="node">
<title>Node14</title>
<g id="a_node14"><a xlink:title=" ">
<polygon fill="white" stroke="#bfbfbf" points="869.5,-56.5 869.5,-75.5 948.5,-75.5 948.5,-56.5 869.5,-56.5"/>
<text text-anchor="middle" x="909" y="-63.5" font-family="Helvetica,sans-Serif" font-size="10.00">fmt/format.h</text>
</a>
</g>
</g>
<!-- Node3&#45;&gt;Node14 -->
<g id="edge17" class="edge">
<title>Node3&#45;&gt;Node14</title>
<path fill="none" stroke="midnightblue" d="M662.1,-173.99C654.47,-159.49 642.08,-129.82 657,-112 682.25,-81.84 793.09,-71.87 859.06,-68.59"/>
<polygon fill="midnightblue" stroke="midnightblue" points="859.42,-72.08 869.25,-68.12 859.1,-65.09 859.42,-72.08"/>
</g>
<!-- Node16 -->
<g id="node16" class="node">
<title>Node16</title>
<g id="a_node16"><a xlink:title=" ">
<polygon fill="white" stroke="#bfbfbf" points="806,-112.5 806,-131.5 862,-131.5 862,-112.5 806,-112.5"/>
<text text-anchor="middle" x="834" y="-119.5" font-family="Helvetica,sans-Serif" font-size="10.00">sstream</text>
</a>
</g>
</g>
<!-- Node3&#45;&gt;Node16 -->
<g id="edge18" class="edge">
<title>Node3&#45;&gt;Node16</title>
<path fill="none" stroke="midnightblue" d="M690.93,-173.98C719.7,-163.72 768.16,-146.46 800.6,-134.9"/>
<polygon fill="midnightblue" stroke="midnightblue" points="801.87,-138.16 810.12,-131.51 799.52,-131.57 801.87,-138.16"/>
</g>
<!-- Node5 -->
<g id="node5" class="node">
<title>Node5</title>
<g id="a_node5"><a xlink:title=" ">
<polygon fill="white" stroke="#bfbfbf" points="1720,-0.5 1720,-19.5 1764,-19.5 1764,-0.5 1720,-0.5"/>
<text text-anchor="middle" x="1742" y="-7.5" font-family="Helvetica,sans-Serif" font-size="10.00">string</text>
</a>
</g>
</g>
<!-- Node4&#45;&gt;Node5 -->
<g id="edge4" class="edge">
<title>Node4&#45;&gt;Node5</title>
<path fill="none" stroke="midnightblue" d="M534.24,-61.1C560.06,-59.39 591.07,-57.45 619,-56 1050.62,-33.58 1576.05,-16.27 1709.83,-12.01"/>
<polygon fill="midnightblue" stroke="midnightblue" points="1709.94,-15.51 1719.83,-11.69 1709.72,-8.51 1709.94,-15.51"/>
</g>
<!-- Node4&#45;&gt;Node6 -->
<g id="edge5" class="edge">
<title>Node4&#45;&gt;Node6</title>
<path fill="none" stroke="midnightblue" d="M431.73,-56.44C372.76,-45.54 272.19,-26.94 219.88,-17.26"/>
<polygon fill="midnightblue" stroke="midnightblue" points="220.25,-13.77 209.78,-15.4 218.98,-20.66 220.25,-13.77"/>
</g>
<!-- Node8 -->
<g id="node8" class="node">
<title>Node8</title>
<g id="a_node8"><a xlink:href="nonstd_8h.html" target="_top" xlink:title=" ">
<polygon fill="white" stroke="black" points="628,-56.5 628,-75.5 718,-75.5 718,-56.5 628,-56.5"/>
<text text-anchor="middle" x="673" y="-63.5" font-family="Helvetica,sans-Serif" font-size="10.00">ccf/ds/nonstd.h</text>
</a>
</g>
</g>
<!-- Node7&#45;&gt;Node8 -->
<g id="edge7" class="edge">
<title>Node7&#45;&gt;Node8</title>
<path fill="none" stroke="midnightblue" d="M718.08,-112.08C710.22,-104.22 698.57,-92.57 689.08,-83.08"/>
<polygon fill="midnightblue" stroke="midnightblue" points="691.3,-80.35 681.75,-75.75 686.35,-85.3 691.3,-80.35"/>
</g>
<!-- Node7&#45;&gt;Node14 -->
<g id="edge15" class="edge">
<title>Node7&#45;&gt;Node14</title>
<path fill="none" stroke="midnightblue" d="M755.84,-112.44C786.86,-103.24 836.33,-88.56 870.62,-78.39"/>
<polygon fill="midnightblue" stroke="midnightblue" points="871.71,-81.72 880.3,-75.52 869.71,-75.01 871.71,-81.72"/>
</g>
<!-- Node15 -->
<g id="node15" class="node">
<title>Node15</title>
<g id="a_node15"><a xlink:title=" ">
<polygon fill="white" stroke="#bfbfbf" points="1529,-56.5 1529,-75.5 1639,-75.5 1639,-56.5 1529,-56.5"/>
<text text-anchor="middle" x="1584" y="-63.5" font-family="Helvetica,sans-Serif" font-size="10.00">nlohmann/json.hpp</text>
</a>
</g>
</g>
<!-- Node7&#45;&gt;Node15 -->
<g id="edge16" class="edge">
<title>Node7&#45;&gt;Node15</title>
<path fill="none" stroke="midnightblue" d="M787.67,-112.9C790.83,-112.58 793.95,-112.27 797,-112 1114.18,-83.76 1198,-105.97 1518.83,-76.02"/>
<polygon fill="midnightblue" stroke="midnightblue" points="1519.25,-79.5 1528.88,-75.07 1518.59,-72.53 1519.25,-79.5"/>
</g>
<!-- Node8&#45;&gt;Node5 -->
<g id="edge11" class="edge">
<title>Node8&#45;&gt;Node5</title>
<path fill="none" stroke="midnightblue" d="M718.25,-62.71C897.55,-53.66 1555.8,-20.41 1709.68,-12.63"/>
<polygon fill="midnightblue" stroke="midnightblue" points="1710.06,-16.12 1719.87,-12.12 1709.71,-9.13 1710.06,-16.12"/>
</g>
<!-- Node8&#45;&gt;Node6 -->
<g id="edge14" class="edge">
<title>Node8&#45;&gt;Node6</title>
<path fill="none" stroke="midnightblue" d="M627.62,-59.97C530.7,-49.22 305.37,-24.24 219.79,-14.75"/>
<polygon fill="midnightblue" stroke="midnightblue" points="219.92,-11.24 209.6,-13.62 219.15,-18.2 219.92,-11.24"/>
</g>
<!-- Node9 -->
<g id="node9" class="node">
<title>Node9</title>
<g id="a_node9"><a xlink:title=" ">
<polygon fill="white" stroke="#bfbfbf" points="575,-0.5 575,-19.5 639,-19.5 639,-0.5 575,-0.5"/>
<text text-anchor="middle" x="607" y="-7.5" font-family="Helvetica,sans-Serif" font-size="10.00">algorithm</text>
</a>
</g>
</g>
<!-- Node8&#45;&gt;Node9 -->
<g id="edge8" class="edge">
<title>Node8&#45;&gt;Node9</title>
<path fill="none" stroke="midnightblue" d="M662.4,-56.32C652.54,-48.26 637.65,-36.08 625.78,-26.37"/>
<polygon fill="midnightblue" stroke="midnightblue" points="627.75,-23.46 617.8,-19.83 623.32,-28.88 627.75,-23.46"/>
</g>
<!-- Node10 -->
<g id="node10" class="node">
<title>Node10</title>
<g id="a_node10"><a xlink:title=" ">
<polygon fill="white" stroke="#bfbfbf" points="725,-0.5 725,-19.5 767,-19.5 767,-0.5 725,-0.5"/>
<text text-anchor="middle" x="746" y="-7.5" font-family="Helvetica,sans-Serif" font-size="10.00">array</text>
</a>
</g>
</g>
<!-- Node8&#45;&gt;Node10 -->
<g id="edge9" class="edge">
<title>Node8&#45;&gt;Node10</title>
<path fill="none" stroke="midnightblue" d="M684.73,-56.32C695.84,-48.11 712.74,-35.6 725.98,-25.81"/>
<polygon fill="midnightblue" stroke="midnightblue" points="728.1,-28.59 734.06,-19.83 723.94,-22.97 728.1,-28.59"/>
</g>
<!-- Node11 -->
<g id="node11" class="node">
<title>Node11</title>
<g id="a_node11"><a xlink:title=" ">
<polygon fill="white" stroke="#bfbfbf" points="657.5,-0.5 657.5,-19.5 706.5,-19.5 706.5,-0.5 657.5,-0.5"/>
<text text-anchor="middle" x="682" y="-7.5" font-family="Helvetica,sans-Serif" font-size="10.00">cctype</text>
</a>
</g>
</g>
<!-- Node8&#45;&gt;Node11 -->
<g id="edge10" class="edge">
<title>Node8&#45;&gt;Node11</title>
<path fill="none" stroke="midnightblue" d="M674.49,-56.08C675.68,-48.93 677.39,-38.64 678.88,-29.69"/>
<polygon fill="midnightblue" stroke="midnightblue" points="682.35,-30.19 680.54,-19.75 675.45,-29.04 682.35,-30.19"/>
</g>
<!-- Node8&#45;&gt;Node12 -->
<g id="edge12" class="edge">
<title>Node8&#45;&gt;Node12</title>
<path fill="none" stroke="midnightblue" d="M648.76,-56.44C623.13,-47.4 582.51,-33.06 553.76,-22.92"/>
<polygon fill="midnightblue" stroke="midnightblue" points="554.72,-19.54 544.13,-19.52 552.39,-26.15 554.72,-19.54"/>
</g>
<!-- Node13 -->
<g id="node13" class="node">
<title>Node13</title>
<g id="a_node13"><a xlink:title=" ">
<polygon fill="white" stroke="#bfbfbf" points="970.5,-0.5 970.5,-19.5 1039.5,-19.5 1039.5,-0.5 970.5,-0.5"/>
<text text-anchor="middle" x="1005" y="-7.5" font-family="Helvetica,sans-Serif" font-size="10.00">type_traits</text>
</a>
</g>
</g>
<!-- Node8&#45;&gt;Node13 -->
<g id="edge13" class="edge">
<title>Node8&#45;&gt;Node13</title>
<path fill="none" stroke="midnightblue" d="M718.12,-57.66C781.6,-47.34 896.6,-28.63 960.01,-18.32"/>
<polygon fill="midnightblue" stroke="midnightblue" points="960.8,-21.74 970.11,-16.68 959.67,-14.83 960.8,-21.74"/>
</g>
<!-- Node21&#45;&gt;Node5 -->
<g id="edge66" class="edge">
<title>Node21&#45;&gt;Node5</title>
<path fill="none" stroke="midnightblue" d="M1643.57,-382.62C1735.11,-377.01 1875,-351.98 1875,-251.5 1875,-251.5 1875,-251.5 1875,-121 1875,-68.65 1813.07,-36.53 1773.72,-21.4"/>
<polygon fill="midnightblue" stroke="midnightblue" points="1774.85,-18.08 1764.26,-17.92 1772.44,-24.65 1774.85,-18.08"/>
</g>
<!-- Node21&#45;&gt;Node15 -->
<g id="edge65" class="edge">
<title>Node21&#45;&gt;Node15</title>
<path fill="none" stroke="midnightblue" d="M1624.02,-369.46C1675.15,-353.69 1746.54,-322.54 1780,-266 1829.31,-182.67 1682.45,-108.26 1615.45,-79.56"/>
<polygon fill="midnightblue" stroke="midnightblue" points="1616.75,-76.31 1606.17,-75.66 1614.03,-82.76 1616.75,-76.31"/>
</g>
<!-- Node21&#45;&gt;Node19 -->
<g id="edge64" class="edge">
<title>Node21&#45;&gt;Node19</title>
<path fill="none" stroke="midnightblue" d="M1488.37,-382.73C1332.59,-380.39 971.04,-370.96 670,-333 517.19,-313.73 454.41,-356.79 330,-266 308.72,-250.47 296.29,-221.67 290.07,-202.8"/>
<polygon fill="midnightblue" stroke="midnightblue" points="293.36,-201.57 287.11,-193.01 286.66,-203.6 293.36,-201.57"/>
</g>
<!-- Node22 -->
<g id="node22" class="node">
<title>Node22</title>
<g id="a_node22"><a xlink:href="tx_8h.html" target="_top" xlink:title=" ">
<polygon fill="white" stroke="black" points="1539.5,-308 1539.5,-327 1592.5,-327 1592.5,-308 1539.5,-308"/>
<text text-anchor="middle" x="1566" y="-315" font-family="Helvetica,sans-Serif" font-size="10.00">ccf/tx.h</text>
</a>
</g>
</g>
<!-- Node21&#45;&gt;Node22 -->
<g id="edge26" class="edge">
<title>Node21&#45;&gt;Node22</title>
<path fill="none" stroke="midnightblue" d="M1566,-369.4C1566,-360.06 1566,-347.71 1566,-337.52"/>
<polygon fill="midnightblue" stroke="midnightblue" points="1569.5,-337.19 1566,-327.19 1562.5,-337.19 1569.5,-337.19"/>
</g>
<!-- Node22&#45;&gt;Node5 -->
<g id="edge63" class="edge">
<title>Node22&#45;&gt;Node5</title>
<path fill="none" stroke="midnightblue" d="M1592.58,-313.71C1643.87,-307.78 1753.79,-292.29 1780,-266 1806.26,-239.66 1799,-221.69 1799,-184.5 1799,-184.5 1799,-184.5 1799,-121 1799,-84.3 1773.68,-47.66 1756.79,-27.3"/>
<polygon fill="midnightblue" stroke="midnightblue" points="1759.35,-24.9 1750.17,-19.62 1754.05,-29.48 1759.35,-24.9"/>
</g>
<!-- Node22&#45;&gt;Node19 -->
<g id="edge61" class="edge">
<title>Node22&#45;&gt;Node19</title>
<path fill="none" stroke="midnightblue" d="M1539.33,-315.85C1369.01,-311.6 438.74,-287.5 383,-266 347.75,-252.4 315.93,-220.69 298.64,-201.08"/>
<polygon fill="midnightblue" stroke="midnightblue" points="301.12,-198.58 291.96,-193.26 295.8,-203.13 301.12,-198.58"/>
</g>
<!-- Node23 -->
<g id="node23" class="node">
<title>Node23</title>
<g id="a_node23"><a xlink:href="ccf__assert_8h.html" target="_top" xlink:title=" ">
<polygon fill="white" stroke="black" points="1478,-241 1478,-260 1570,-260 1570,-241 1478,-241"/>
<text text-anchor="middle" x="1524" y="-248" font-family="Helvetica,sans-Serif" font-size="10.00">ccf/ccf_assert.h</text>
</a>
</g>
</g>
<!-- Node22&#45;&gt;Node23 -->
<g id="edge27" class="edge">
<title>Node22&#45;&gt;Node23</title>
<path fill="none" stroke="midnightblue" d="M1560.34,-307.73C1553.91,-297.79 1543.28,-281.34 1535.17,-268.79"/>
<polygon fill="midnightblue" stroke="midnightblue" points="1537.94,-266.63 1529.57,-260.13 1532.06,-270.43 1537.94,-266.63"/>
</g>
<!-- Node30 -->
<g id="node30" class="node">
<title>Node30</title>
<g id="a_node30"><a xlink:title=" ">
<polygon fill="white" stroke="#bfbfbf" points="1657,-56.5 1657,-75.5 1695,-75.5 1695,-56.5 1657,-56.5"/>
<text text-anchor="middle" x="1676" y="-63.5" font-family="Helvetica,sans-Serif" font-size="10.00">map</text>
</a>
</g>
</g>
<!-- Node22&#45;&gt;Node30 -->
<g id="edge60" class="edge">
<title>Node22&#45;&gt;Node30</title>
<path fill="none" stroke="midnightblue" d="M1571.04,-307.69C1576.67,-297.72 1585.92,-280.91 1593,-266 1623.98,-200.72 1655.43,-120.74 1669.03,-85.35"/>
<polygon fill="midnightblue" stroke="midnightblue" points="1672.35,-86.45 1672.65,-75.86 1665.81,-83.95 1672.35,-86.45"/>
</g>
<!-- Node34 -->
<g id="node34" class="node">
<title>Node34</title>
<g id="a_node34"><a xlink:title=" ">
<polygon fill="white" stroke="#bfbfbf" points="1525,-112.5 1525,-131.5 1581,-131.5 1581,-112.5 1525,-112.5"/>
<text text-anchor="middle" x="1553" y="-119.5" font-family="Helvetica,sans-Serif" font-size="10.00">optional</text>
</a>
</g>
</g>
<!-- Node22&#45;&gt;Node34 -->
<g id="edge62" class="edge">
<title>Node22&#45;&gt;Node34</title>
<path fill="none" stroke="midnightblue" d="M1568.99,-307.69C1572.21,-297.72 1577.11,-280.91 1579,-266 1584.71,-220.9 1569.5,-168.45 1559.99,-141.33"/>
<polygon fill="midnightblue" stroke="midnightblue" points="1563.18,-139.85 1556.46,-131.65 1556.6,-142.25 1563.18,-139.85"/>
</g>
<!-- Node35 -->
<g id="node35" class="node">
<title>Node35</title>
<g id="a_node35"><a xlink:href="sha256__hash_8h.html" target="_top" xlink:title=" ">
<polygon fill="white" stroke="black" points="510,-241 510,-260 650,-260 650,-241 510,-241"/>
<text text-anchor="middle" x="580" y="-248" font-family="Helvetica,sans-Serif" font-size="10.00">ccf/crypto/sha256_hash.h</text>
</a>
</g>
</g>
<!-- Node22&#45;&gt;Node35 -->
<g id="edge45" class="edge">
<title>Node22&#45;&gt;Node35</title>
<path fill="none" stroke="midnightblue" d="M1539.18,-316.24C1429.58,-314.91 1005.09,-307.23 659,-266 649.85,-264.91 640.16,-263.42 630.81,-261.8"/>
<polygon fill="midnightblue" stroke="midnightblue" points="631.31,-258.33 620.85,-260.01 630.08,-265.22 631.31,-258.33"/>
</g>
<!-- Node36 -->
<g id="node36" class="node">
<title>Node36</title>
<g id="a_node36"><a xlink:href="tx__id_8h.html" target="_top" xlink:title=" ">
<polygon fill="white" stroke="black" points="1381.5,-241 1381.5,-260 1448.5,-260 1448.5,-241 1381.5,-241"/>
<text text-anchor="middle" x="1415" y="-248" font-family="Helvetica,sans-Serif" font-size="10.00">ccf/tx_id.h</text>
</a>
</g>
</g>
<!-- Node22&#45;&gt;Node36 -->
<g id="edge50" class="edge">
<title>Node22&#45;&gt;Node36</title>
<path fill="none" stroke="midnightblue" d="M1545.95,-307.87C1520,-296.7 1474.58,-277.15 1444.64,-264.26"/>
<polygon fill="midnightblue" stroke="midnightblue" points="1445.7,-260.91 1435.13,-260.17 1442.94,-267.34 1445.7,-260.91"/>
</g>
<!-- Node39 -->
<g id="node39" class="node">
<title>Node39</title>
<g id="a_node39"><a xlink:title=" ">
<polygon fill="white" stroke="#bfbfbf" points="1739,-241 1739,-260 1771,-260 1771,-241 1739,-241"/>
<text text-anchor="middle" x="1755" y="-248" font-family="Helvetica,sans-Serif" font-size="10.00">list</text>
</a>
</g>
</g>
<!-- Node22&#45;&gt;Node39 -->
<g id="edge59" class="edge">
<title>Node22&#45;&gt;Node39</title>
<path fill="none" stroke="midnightblue" d="M1592.57,-309.32C1624.47,-300.41 1679.39,-284.16 1725,-266 1726.59,-265.37 1728.21,-264.69 1729.84,-263.98"/>
<polygon fill="midnightblue" stroke="midnightblue" points="1731.38,-267.12 1739,-259.76 1728.45,-260.77 1731.38,-267.12"/>
</g>
<!-- Node24 -->
<g id="node24" class="node">
<title>Node24</title>
<g id="a_node24"><a xlink:href="logger_8h.html" target="_top" xlink:title=" ">
<polygon fill="white" stroke="black" points="1260.5,-174 1260.5,-193 1347.5,-193 1347.5,-174 1260.5,-174"/>
<text text-anchor="middle" x="1304" y="-181" font-family="Helvetica,sans-Serif" font-size="10.00">ccf/ds/logger.h</text>
</a>
</g>
</g>
<!-- Node23&#45;&gt;Node24 -->
<g id="edge28" class="edge">
<title>Node23&#45;&gt;Node24</title>
<path fill="none" stroke="midnightblue" d="M1494.79,-240.87C1455.64,-229.3 1386.07,-208.75 1342.63,-195.91"/>
<polygon fill="midnightblue" stroke="midnightblue" points="1343.57,-192.54 1332.98,-193.06 1341.58,-199.25 1343.57,-192.54"/>
</g>
<!-- Node24&#45;&gt;Node13 -->
<g id="edge44" class="edge">
<title>Node24&#45;&gt;Node13</title>
<path fill="none" stroke="midnightblue" d="M1308.86,-173.74C1316.1,-159.4 1327.5,-130.61 1314,-112 1311.92,-109.13 1123.24,-48.7 1041.78,-22.71"/>
<polygon fill="midnightblue" stroke="midnightblue" points="1042.52,-19.28 1031.93,-19.58 1040.4,-25.95 1042.52,-19.28"/>
</g>
<!-- Node24&#45;&gt;Node14 -->
<g id="edge39" class="edge">
<title>Node24&#45;&gt;Node14</title>
<path fill="none" stroke="midnightblue" d="M1269.53,-173.97C1235.69,-165.13 1182.9,-150.08 1139,-132 1121.35,-124.73 1118.88,-118.68 1101,-112 1054.09,-94.48 998.1,-82.29 958.73,-75.06"/>
<polygon fill="midnightblue" stroke="midnightblue" points="959.3,-71.61 948.84,-73.28 958.07,-78.5 959.3,-71.61"/>
</g>
<!-- Node24&#45;&gt;Node15 -->
<g id="edge41" class="edge">
<title>Node24&#45;&gt;Node15</title>
<path fill="none" stroke="midnightblue" d="M1344.81,-173.92C1380.78,-165.6 1434.13,-151.4 1478,-132 1494.88,-124.54 1536.51,-98.04 1562.29,-81.27"/>
<polygon fill="midnightblue" stroke="midnightblue" points="1564.53,-83.98 1570.99,-75.59 1560.7,-78.12 1564.53,-83.98"/>
</g>
<!-- Node24&#45;&gt;Node16 -->
<g id="edge43" class="edge">
<title>Node24&#45;&gt;Node16</title>
<path fill="none" stroke="midnightblue" d="M1260.21,-176.96C1168.76,-165.38 958.87,-138.81 872.35,-127.86"/>
<polygon fill="midnightblue" stroke="midnightblue" points="872.55,-124.35 862.19,-126.57 871.67,-131.3 872.55,-124.35"/>
</g>
<!-- Node25 -->
<g id="node25" class="node">
<title>Node25</title>
<g id="a_node25"><a xlink:href="enum__formatter_8h.html" target="_top" xlink:title=" ">
<polygon fill="white" stroke="black" points="956,-112.5 956,-131.5 1092,-131.5 1092,-112.5 956,-112.5"/>
<text text-anchor="middle" x="1024" y="-119.5" font-family="Helvetica,sans-Serif" font-size="10.00">ccf/ds/enum_formatter.h</text>
</a>
</g>
</g>
<!-- Node24&#45;&gt;Node25 -->
<g id="edge29" class="edge">
<title>Node24&#45;&gt;Node25</title>
<path fill="none" stroke="midnightblue" d="M1263.88,-173.98C1213.88,-163.35 1128.4,-145.18 1074.13,-133.65"/>
<polygon fill="midnightblue" stroke="midnightblue" points="1074.55,-130.16 1064.04,-131.51 1073.1,-137.01 1074.55,-130.16"/>
</g>
<!-- Node26 -->
<g id="node26" class="node">
<title>Node26</title>
<g id="a_node26"><a xlink:href="thread__ids_8h.html" target="_top" xlink:title=" ">
<polygon fill="white" stroke="black" points="1361,-112.5 1361,-131.5 1469,-131.5 1469,-112.5 1361,-112.5"/>
<text text-anchor="middle" x="1415" y="-119.5" font-family="Helvetica,sans-Serif" font-size="10.00">ccf/ds/thread_ids.h</text>
</a>
</g>
</g>
<!-- Node24&#45;&gt;Node26 -->
<g id="edge31" class="edge">
<title>Node24&#45;&gt;Node26</title>
<path fill="none" stroke="midnightblue" d="M1319.9,-173.98C1338.28,-164.12 1368.76,-147.79 1390.24,-136.27"/>
<polygon fill="midnightblue" stroke="midnightblue" points="1391.97,-139.32 1399.13,-131.51 1388.66,-133.15 1391.97,-139.32"/>
</g>
<!-- Node32 -->
<g id="node32" class="node">
<title>Node32</title>
<g id="a_node32"><a xlink:title=" ">
<polygon fill="white" stroke="#bfbfbf" points="1148.5,-112.5 1148.5,-131.5 1227.5,-131.5 1227.5,-112.5 1148.5,-112.5"/>
<text text-anchor="middle" x="1188" y="-119.5" font-family="Helvetica,sans-Serif" font-size="10.00">fmt/chrono.h</text>
</a>
</g>
</g>
<!-- Node24&#45;&gt;Node32 -->
<g id="edge38" class="edge">
<title>Node24&#45;&gt;Node32</title>
<path fill="none" stroke="midnightblue" d="M1287.38,-173.98C1268.08,-164.08 1236.04,-147.64 1213.57,-136.12"/>
<polygon fill="midnightblue" stroke="midnightblue" points="1215.08,-132.96 1204.59,-131.51 1211.89,-139.19 1215.08,-132.96"/>
</g>
<!-- Node33 -->
<g id="node33" class="node">
<title>Node33</title>
<g id="a_node33"><a xlink:title=" ">
<polygon fill="white" stroke="#bfbfbf" points="1245,-112.5 1245,-131.5 1305,-131.5 1305,-112.5 1245,-112.5"/>
<text text-anchor="middle" x="1275" y="-119.5" font-family="Helvetica,sans-Serif" font-size="10.00">iostream</text>
</a>
</g>
</g>
<!-- Node24&#45;&gt;Node33 -->
<g id="edge40" class="edge">
<title>Node24&#45;&gt;Node33</title>
<path fill="none" stroke="midnightblue" d="M1299.85,-173.98C1295.62,-165.32 1288.96,-151.65 1283.6,-140.65"/>
<polygon fill="midnightblue" stroke="midnightblue" points="1286.67,-138.96 1279.15,-131.51 1280.38,-142.03 1286.67,-138.96"/>
</g>
<!-- Node24&#45;&gt;Node34 -->
<g id="edge42" class="edge">
<title>Node24&#45;&gt;Node34</title>
<path fill="none" stroke="midnightblue" d="M1339.68,-173.98C1386.16,-162.87 1467.1,-143.53 1514.79,-132.13"/>
<polygon fill="midnightblue" stroke="midnightblue" points="1515.81,-135.48 1524.73,-129.76 1514.19,-128.68 1515.81,-135.48"/>
</g>
<!-- Node25&#45;&gt;Node14 -->
<g id="edge30" class="edge">
<title>Node25&#45;&gt;Node14</title>
<path fill="none" stroke="midnightblue" d="M1005.78,-112.44C987.1,-103.68 957.84,-89.94 936.38,-79.86"/>
<polygon fill="midnightblue" stroke="midnightblue" points="937.68,-76.6 927.14,-75.52 934.7,-82.93 937.68,-76.6"/>
</g>
<!-- Node26&#45;&gt;Node14 -->
<g id="edge32" class="edge">
<title>Node26&#45;&gt;Node14</title>
<path fill="none" stroke="midnightblue" d="M1360.85,-115.22C1262.09,-104.68 1054.11,-82.49 958.72,-72.31"/>
<polygon fill="midnightblue" stroke="midnightblue" points="959.07,-68.82 948.75,-71.24 958.32,-75.78 959.07,-68.82"/>
</g>
<!-- Node27 -->
<g id="node27" class="node">
<title>Node27</title>
<g id="a_node27"><a xlink:title=" ">
<polygon fill="white" stroke="#bfbfbf" points="1425,-56.5 1425,-75.5 1511,-75.5 1511,-56.5 1425,-56.5"/>
<text text-anchor="middle" x="1468" y="-63.5" font-family="Helvetica,sans-Serif" font-size="10.00">fmt/ostream.h</text>
</a>
</g>
</g>
<!-- Node26&#45;&gt;Node27 -->
<g id="edge33" class="edge">
<title>Node26&#45;&gt;Node27</title>
<path fill="none" stroke="midnightblue" d="M1423.75,-112.08C1431.47,-104.22 1442.9,-92.57 1452.22,-83.08"/>
<polygon fill="midnightblue" stroke="midnightblue" points="1454.9,-85.34 1459.41,-75.75 1449.91,-80.44 1454.9,-85.34"/>
</g>
<!-- Node28 -->
<g id="node28" class="node">
<title>Node28</title>
<g id="a_node28"><a xlink:title=" ">
<polygon fill="white" stroke="#bfbfbf" points="1217.5,-56.5 1217.5,-75.5 1278.5,-75.5 1278.5,-56.5 1217.5,-56.5"/>
<text text-anchor="middle" x="1248" y="-63.5" font-family="Helvetica,sans-Serif" font-size="10.00">fmt/std.h</text>
</a>
</g>
</g>
<!-- Node26&#45;&gt;Node28 -->
<g id="edge34" class="edge">
<title>Node26&#45;&gt;Node28</title>
<path fill="none" stroke="midnightblue" d="M1388.54,-112.44C1360.32,-103.32 1315.46,-88.81 1284.03,-78.65"/>
<polygon fill="midnightblue" stroke="midnightblue" points="1284.93,-75.26 1274.34,-75.52 1282.78,-81.92 1284.93,-75.26"/>
</g>
<!-- Node29 -->
<g id="node29" class="node">
<title>Node29</title>
<g id="a_node29"><a xlink:title=" ">
<polygon fill="white" stroke="#bfbfbf" points="1297,-56.5 1297,-75.5 1341,-75.5 1341,-56.5 1297,-56.5"/>
<text text-anchor="middle" x="1319" y="-63.5" font-family="Helvetica,sans-Serif" font-size="10.00">limits</text>
</a>
</g>
</g>
<!-- Node26&#45;&gt;Node29 -->
<g id="edge35" class="edge">
<title>Node26&#45;&gt;Node29</title>
<path fill="none" stroke="midnightblue" d="M1399.58,-112.32C1384.46,-103.82 1361.18,-90.73 1343.53,-80.8"/>
<polygon fill="midnightblue" stroke="midnightblue" points="1344.82,-77.51 1334.39,-75.65 1341.39,-83.61 1344.82,-77.51"/>
</g>
<!-- Node26&#45;&gt;Node30 -->
<g id="edge36" class="edge">
<title>Node26&#45;&gt;Node30</title>
<path fill="none" stroke="midnightblue" d="M1469.08,-112.45C1514.34,-104.87 1580.75,-92.75 1647.03,-76.01"/>
<polygon fill="midnightblue" stroke="midnightblue" points="1647.99,-79.38 1656.81,-73.5 1646.25,-72.59 1647.99,-79.38"/>
</g>
<!-- Node31 -->
<g id="node31" class="node">
<title>Node31</title>
<g id="a_node31"><a xlink:title=" ">
<polygon fill="white" stroke="#bfbfbf" points="1359,-56.5 1359,-75.5 1407,-75.5 1407,-56.5 1359,-56.5"/>
<text text-anchor="middle" x="1383" y="-63.5" font-family="Helvetica,sans-Serif" font-size="10.00">thread</text>
</a>
</g>
</g>
<!-- Node26&#45;&gt;Node31 -->
<g id="edge37" class="edge">
<title>Node26&#45;&gt;Node31</title>
<path fill="none" stroke="midnightblue" d="M1409.72,-112.08C1405.29,-104.61 1398.84,-93.72 1393.38,-84.52"/>
<polygon fill="midnightblue" stroke="midnightblue" points="1396.29,-82.57 1388.19,-75.75 1390.27,-86.14 1396.29,-82.57"/>
</g>
<!-- Node35&#45;&gt;Node3 -->
<g id="edge46" class="edge">
<title>Node35&#45;&gt;Node3</title>
<path fill="none" stroke="midnightblue" d="M591.73,-240.73C605.95,-230.11 630.13,-212.05 647.24,-199.26"/>
<polygon fill="midnightblue" stroke="midnightblue" points="649.54,-201.92 655.45,-193.13 645.35,-196.31 649.54,-201.92"/>
</g>
<!-- Node35&#45;&gt;Node10 -->
<g id="edge47" class="edge">
<title>Node35&#45;&gt;Node10</title>
<path fill="none" stroke="midnightblue" d="M581.98,-240.85C587.83,-217.12 607.16,-150.25 647,-112 675.13,-85 701.4,-105.41 727,-76 738.21,-63.12 742.81,-43.95 744.7,-29.76"/>
<polygon fill="midnightblue" stroke="midnightblue" points="748.2,-29.96 745.71,-19.66 741.23,-29.26 748.2,-29.96"/>
</g>
<!-- Node35&#45;&gt;Node14 -->
<g id="edge49" class="edge">
<title>Node35&#45;&gt;Node14</title>
<path fill="none" stroke="midnightblue" d="M625.63,-241C687.56,-227.44 798.76,-195.68 871,-132 885.52,-119.2 895.95,-99.46 902.17,-85.1"/>
<polygon fill="midnightblue" stroke="midnightblue" points="905.44,-86.34 905.95,-75.76 898.96,-83.71 905.44,-86.34"/>
</g>
<!-- Node35&#45;&gt;Node20 -->
<g id="edge48" class="edge">
<title>Node35&#45;&gt;Node20</title>
<path fill="none" stroke="midnightblue" d="M565.97,-240.73C548.67,-229.92 519.01,-211.38 498.51,-198.57"/>
<polygon fill="midnightblue" stroke="midnightblue" points="500.14,-195.46 489.8,-193.13 496.43,-201.4 500.14,-195.46"/>
</g>
<!-- Node36&#45;&gt;Node3 -->
<g id="edge51" class="edge">
<title>Node36&#45;&gt;Node3</title>
<path fill="none" stroke="midnightblue" d="M1381.4,-247.88C1284.47,-243.02 996.02,-227.06 758,-199 744.33,-197.39 729.56,-195.22 715.99,-193.05"/>
<polygon fill="midnightblue" stroke="midnightblue" points="716.3,-189.56 705.87,-191.41 715.18,-196.47 716.3,-189.56"/>
</g>
<!-- Node36&#45;&gt;Node5 -->
<g id="edge57" class="edge">
<title>Node36&#45;&gt;Node5</title>
<path fill="none" stroke="midnightblue" d="M1447.03,-240.94C1475.65,-232.55 1518.17,-218.22 1552,-199 1627.56,-156.07 1647.37,-141.92 1704,-76 1716.35,-61.62 1726.91,-42.67 1733.73,-28.95"/>
<polygon fill="midnightblue" stroke="midnightblue" points="1737.03,-30.16 1738.2,-19.63 1730.72,-27.14 1737.03,-30.16"/>
</g>
<!-- Node36&#45;&gt;Node12 -->
<g id="edge58" class="edge">
<title>Node36&#45;&gt;Node12</title>
<path fill="none" stroke="midnightblue" d="M1381.17,-246.94C1251.67,-236.75 788.2,-196.4 657,-132 604.28,-106.12 556.18,-54.42 533.58,-27.76"/>
<polygon fill="midnightblue" stroke="midnightblue" points="536.01,-25.2 526.92,-19.75 530.62,-29.68 536.01,-25.2"/>
</g>
<!-- Node36&#45;&gt;Node14 -->
<g id="edge54" class="edge">
<title>Node36&#45;&gt;Node14</title>
<path fill="none" stroke="midnightblue" d="M1381.23,-249.61C1298.65,-248.22 1083.34,-234.34 947,-132 931.35,-120.26 921.01,-100.03 915.12,-85.25"/>
<polygon fill="midnightblue" stroke="midnightblue" points="918.33,-83.84 911.61,-75.65 911.76,-86.24 918.33,-83.84"/>
</g>
<!-- Node36&#45;&gt;Node15 -->
<g id="edge55" class="edge">
<title>Node36&#45;&gt;Node15</title>
<path fill="none" stroke="midnightblue" d="M1418.75,-240.94C1426.46,-224.36 1445.69,-187.72 1473,-168 1517.11,-136.15 1557.68,-175.76 1590,-132 1599.87,-118.63 1596.47,-99.26 1591.76,-85.14"/>
<polygon fill="midnightblue" stroke="midnightblue" points="1594.93,-83.65 1588.1,-75.55 1588.39,-86.14 1594.93,-83.65"/>
</g>
<!-- Node36&#45;&gt;Node34 -->
<g id="edge56" class="edge">
<title>Node36&#45;&gt;Node34</title>
<path fill="none" stroke="midnightblue" d="M1415.17,-240.68C1415.95,-224.29 1419.89,-188.9 1439,-168 1449.63,-156.38 1486.09,-143.15 1514.95,-134.06"/>
<polygon fill="midnightblue" stroke="midnightblue" points="1516.26,-137.31 1524.79,-131.02 1514.2,-130.63 1516.26,-137.31"/>
</g>
<!-- Node37 -->
<g id="node37" class="node">
<title>Node37</title>
<g id="a_node37"><a xlink:title=" ">
<polygon fill="white" stroke="#bfbfbf" points="1481.5,-174 1481.5,-193 1542.5,-193 1542.5,-174 1481.5,-174"/>
<text text-anchor="middle" x="1512" y="-181" font-family="Helvetica,sans-Serif" font-size="10.00">charconv</text>
</a>
</g>
</g>
<!-- Node36&#45;&gt;Node37 -->
<g id="edge52" class="edge">
<title>Node36&#45;&gt;Node37</title>
<path fill="none" stroke="midnightblue" d="M1428.08,-240.73C1444.15,-229.96 1471.63,-211.55 1490.75,-198.74"/>
<polygon fill="midnightblue" stroke="midnightblue" points="1492.77,-201.6 1499.13,-193.13 1488.87,-195.79 1492.77,-201.6"/>
</g>
<!-- Node38 -->
<g id="node38" class="node">
<title>Node38</title>
<g id="a_node38"><a xlink:title=" ">
<polygon fill="white" stroke="#bfbfbf" points="339,-0.5 339,-19.5 389,-19.5 389,-0.5 339,-0.5"/>
<text text-anchor="middle" x="364" y="-7.5" font-family="Helvetica,sans-Serif" font-size="10.00">cstdint</text>
</a>
</g>
</g>
<!-- Node36&#45;&gt;Node38 -->
<g id="edge53" class="edge">
<title>Node36&#45;&gt;Node38</title>
<path fill="none" stroke="midnightblue" d="M1381.31,-246.09C1311.36,-238.85 1145.37,-220.78 1007,-199 850.55,-174.37 803.57,-192 657,-132 600.65,-108.93 598.67,-80.67 543,-56 495.54,-34.97 436.46,-22.53 399.48,-16.24"/>
<polygon fill="midnightblue" stroke="midnightblue" points="399.64,-12.72 389.2,-14.55 398.5,-19.63 399.64,-12.72"/>
</g>
<!-- Node40&#45;&gt;Node3 -->
<g id="edge68" class="edge">
<title>Node40&#45;&gt;Node3</title>
<path fill="none" stroke="midnightblue" d="M846.64,-307.8C843.61,-291.28 834.76,-255.24 813,-235 786.35,-210.22 746.95,-197.52 715.79,-191.06"/>
<polygon fill="midnightblue" stroke="midnightblue" points="716.05,-187.55 705.57,-189.1 714.73,-194.42 716.05,-187.55"/>
</g>
<!-- Node40&#45;&gt;Node5 -->
<g id="edge79" class="edge">
<title>Node40&#45;&gt;Node5</title>
<path fill="none" stroke="midnightblue" d="M891.02,-315.58C1038.56,-312.13 1518.39,-298.51 1579,-266 1672.85,-215.66 1678.15,-171.64 1725,-76 1732.22,-61.27 1736.63,-43.11 1739.15,-29.73"/>
<polygon fill="midnightblue" stroke="midnightblue" points="1742.61,-30.24 1740.84,-19.8 1735.71,-29.07 1742.61,-30.24"/>
</g>
<!-- Node41 -->
<g id="node41" class="node">
<title>Node41</title>
<g id="a_node41"><a xlink:href="blit__serialiser_8h.html" target="_top" xlink:title=" ">
<polygon fill="white" stroke="black" points="392.5,-235.5 392.5,-265.5 491.5,-265.5 491.5,-235.5 392.5,-235.5"/>
<text text-anchor="start" x="400.5" y="-253.5" font-family="Helvetica,sans-Serif" font-size="10.00">ccf/kv/serialisers</text>
<text text-anchor="middle" x="442" y="-242.5" font-family="Helvetica,sans-Serif" font-size="10.00">/blit_serialiser.h</text>
</a>
</g>
</g>
<!-- Node40&#45;&gt;Node41 -->
<g id="edge69" class="edge">
<title>Node40&#45;&gt;Node41</title>
<path fill="none" stroke="midnightblue" d="M817.94,-307.95C809.59,-305.78 800.48,-303.62 792,-302 667.11,-278.21 630.92,-289.03 501.68,-265.97"/>
<polygon fill="midnightblue" stroke="midnightblue" points="502.27,-262.52 491.8,-264.18 501.02,-269.41 502.27,-262.52"/>
</g>
<!-- Node41&#45;&gt;Node8 -->
<g id="edge70" class="edge">
<title>Node41&#45;&gt;Node8</title>
<path fill="none" stroke="midnightblue" d="M461.06,-235.38C473.87,-225.61 490.93,-212.07 505,-199 543.71,-163.05 543.92,-143.94 586,-112 603.37,-98.82 625.17,-87.55 642.61,-79.58"/>
<polygon fill="midnightblue" stroke="midnightblue" points="644.07,-82.77 651.79,-75.51 641.22,-76.37 644.07,-82.77"/>
</g>
<!-- Node42 -->
<g id="node42" class="node">
<title>Node42</title>
<g id="a_node42"><a xlink:href="serialised__entry_8h.html" target="_top" xlink:title=" ">
<polygon fill="white" stroke="black" points="332.5,-168.5 332.5,-198.5 437.5,-198.5 437.5,-168.5 332.5,-168.5"/>
<text text-anchor="start" x="340.5" y="-186.5" font-family="Helvetica,sans-Serif" font-size="10.00">ccf/kv/serialisers</text>
<text text-anchor="middle" x="385" y="-175.5" font-family="Helvetica,sans-Serif" font-size="10.00">/serialised_entry.h</text>
</a>
</g>
</g>
<!-- Node41&#45;&gt;Node42 -->
<g id="edge71" class="edge">
<title>Node41&#45;&gt;Node42</title>
<path fill="none" stroke="midnightblue" d="M429.63,-235.4C422.16,-226.88 412.49,-215.85 404.06,-206.23"/>
<polygon fill="midnightblue" stroke="midnightblue" points="406.57,-203.79 397.34,-198.58 401.31,-208.4 406.57,-203.79"/>
</g>
<!-- Node43 -->
<g id="node43" class="node">
<title>Node43</title>
<g id="a_node43"><a xlink:href="byte__vector_8h.html" target="_top" xlink:title=" ">
<polygon fill="white" stroke="black" points="300,-112.5 300,-131.5 400,-131.5 400,-112.5 300,-112.5"/>
<text text-anchor="middle" x="350" y="-119.5" font-family="Helvetica,sans-Serif" font-size="10.00">ccf/byte_vector.h</text>
</a>
</g>
</g>
<!-- Node42&#45;&gt;Node43 -->
<g id="edge72" class="edge">
<title>Node42&#45;&gt;Node43</title>
<path fill="none" stroke="midnightblue" d="M376.71,-168.4C371.78,-160.02 365.49,-149.33 360.25,-140.42"/>
<polygon fill="midnightblue" stroke="midnightblue" points="363.18,-138.5 355.09,-131.66 357.15,-142.05 363.18,-138.5"/>
</g>
<!-- Node43&#45;&gt;Node14 -->
<g id="edge77" class="edge">
<title>Node43&#45;&gt;Node14</title>
<path fill="none" stroke="midnightblue" d="M400.1,-116.16C506.3,-105.9 752.99,-82.07 859.06,-71.82"/>
<polygon fill="midnightblue" stroke="midnightblue" points="859.56,-75.29 869.17,-70.85 858.88,-68.33 859.56,-75.29"/>
</g>
<!-- Node44 -->
<g id="node44" class="node">
<title>Node44</title>
<g id="a_node44"><a xlink:href="siphash_8h.html" target="_top" xlink:title=" ">
<polygon fill="white" stroke="black" points="104.5,-56.5 104.5,-75.5 199.5,-75.5 199.5,-56.5 104.5,-56.5"/>
<text text-anchor="middle" x="152" y="-63.5" font-family="Helvetica,sans-Serif" font-size="10.00">ccf/ds/siphash.h</text>
</a>
</g>
</g>
<!-- Node43&#45;&gt;Node44 -->
<g id="edge73" class="edge">
<title>Node43&#45;&gt;Node44</title>
<path fill="none" stroke="midnightblue" d="M318.63,-112.44C284.74,-103.2 230.6,-88.44 193.28,-78.26"/>
<polygon fill="midnightblue" stroke="midnightblue" points="193.8,-74.77 183.23,-75.52 191.95,-81.52 193.8,-74.77"/>
</g>
<!-- Node46 -->
<g id="node46" class="node">
<title>Node46</title>
<g id="a_node46"><a xlink:title=" ">
<polygon fill="white" stroke="#bfbfbf" points="255.5,-56.5 255.5,-75.5 404.5,-75.5 404.5,-56.5 255.5,-56.5"/>
<text text-anchor="middle" x="330" y="-63.5" font-family="Helvetica,sans-Serif" font-size="10.00">small_vector/SmallVector.h</text>
</a>
</g>
</g>
<!-- Node43&#45;&gt;Node46 -->
<g id="edge78" class="edge">
<title>Node43&#45;&gt;Node46</title>
<path fill="none" stroke="midnightblue" d="M346.7,-112.08C344.02,-104.85 340.15,-94.41 336.81,-85.4"/>
<polygon fill="midnightblue" stroke="midnightblue" points="340,-83.91 333.24,-75.75 333.43,-86.34 340,-83.91"/>
</g>
<!-- Node44&#45;&gt;Node6 -->
<g id="edge76" class="edge">
<title>Node44&#45;&gt;Node6</title>
<path fill="none" stroke="midnightblue" d="M157.61,-56.08C162.37,-48.53 169.32,-37.49 175.15,-28.23"/>
<polygon fill="midnightblue" stroke="midnightblue" points="178.12,-30.08 180.49,-19.75 172.2,-26.35 178.12,-30.08"/>
</g>
<!-- Node44&#45;&gt;Node38 -->
<g id="edge75" class="edge">
<title>Node44&#45;&gt;Node38</title>
<path fill="none" stroke="midnightblue" d="M185.59,-56.44C224.79,-46.46 289.31,-30.03 329.07,-19.9"/>
<polygon fill="midnightblue" stroke="midnightblue" points="330.04,-23.26 338.86,-17.4 328.31,-16.48 330.04,-23.26"/>
</g>
<!-- Node45 -->
<g id="node45" class="node">
<title>Node45</title>
<g id="a_node45"><a xlink:title=" ">
<polygon fill="white" stroke="#bfbfbf" points="91.5,-0.5 91.5,-19.5 144.5,-19.5 144.5,-0.5 91.5,-0.5"/>
<text text-anchor="middle" x="118" y="-7.5" font-family="Helvetica,sans-Serif" font-size="10.00">cstddef</text>
</a>
</g>
</g>
<!-- Node44&#45;&gt;Node45 -->
<g id="edge74" class="edge">
<title>Node44&#45;&gt;Node45</title>
<path fill="none" stroke="midnightblue" d="M146.39,-56.08C141.63,-48.53 134.68,-37.49 128.85,-28.23"/>
<polygon fill="midnightblue" stroke="midnightblue" points="131.8,-26.35 123.51,-19.75 125.88,-30.08 131.8,-26.35"/>
</g>
<!-- Node47&#45;&gt;Node3 -->
<g id="edge83" class="edge">
<title>Node47&#45;&gt;Node3</title>
<path fill="none" stroke="midnightblue" d="M759.48,-302.35C773.21,-293.86 788.34,-281.66 796,-266 802.06,-253.62 803.77,-246.38 796,-235 778.05,-208.7 744.17,-196.1 715.63,-190.06"/>
<polygon fill="midnightblue" stroke="midnightblue" points="716.27,-186.62 705.79,-188.18 714.96,-193.49 716.27,-186.62"/>
</g>
<!-- Node47&#45;&gt;Node6 -->
<g id="edge84" class="edge">
<title>Node47&#45;&gt;Node6</title>
<path fill="none" stroke="midnightblue" d="M678.76,-314.1C558.97,-308.23 267.57,-291.69 173,-266 90.98,-243.72 0,-269.49 0,-184.5 0,-184.5 0,-184.5 0,-121 0,-76.55 38.06,-79.15 76,-56 100.24,-41.21 130.21,-29.31 152.74,-21.48"/>
<polygon fill="midnightblue" stroke="midnightblue" points="153.87,-24.79 162.22,-18.27 151.62,-18.16 153.87,-24.79"/>
</g>
<!-- Node48 -->
<g id="node48" class="node">
<title>Node48</title>
<g id="a_node48"><a xlink:href="md__type_8h.html" target="_top" xlink:title=" ">
<polygon fill="white" stroke="black" points="668.5,-241 668.5,-260 787.5,-260 787.5,-241 668.5,-241"/>
<text text-anchor="middle" x="728" y="-248" font-family="Helvetica,sans-Serif" font-size="10.00">ccf/crypto/md_type.h</text>
</a>
</g>
</g>
<!-- Node47&#45;&gt;Node48 -->
<g id="edge81" class="edge">
<title>Node47&#45;&gt;Node48</title>
<path fill="none" stroke="midnightblue" d="M730.35,-302.4C729.91,-292.96 729.34,-280.45 728.86,-270.19"/>
<polygon fill="midnightblue" stroke="midnightblue" points="732.36,-270.02 728.4,-260.19 725.37,-270.35 732.36,-270.02"/>
</g>
<!-- Node48&#45;&gt;Node3 -->
<g id="edge82" class="edge">
<title>Node48&#45;&gt;Node3</title>
<path fill="none" stroke="midnightblue" d="M719.77,-240.73C710.17,-230.5 694.09,-213.36 682.2,-200.69"/>
<polygon fill="midnightblue" stroke="midnightblue" points="684.49,-198.02 675.1,-193.13 679.39,-202.81 684.49,-198.02"/>
</g>
</g>
</svg>
