<?xml version="1.0" encoding="UTF-8" standalone="no"?>
<!DOCTYPE svg PUBLIC "-//W3C//DTD SVG 1.1//EN"
 "http://www.w3.org/Graphics/SVG/1.1/DTD/svg11.dtd">
<!-- Generated by graphviz version 2.43.0 (0)
 -->
<!-- Title: src/enclave/endpoint.h Pages: 1 -->
<svg width="1204pt" height="945pt"
 viewBox="0.00 0.00 1203.50 945.00" xmlns="http://www.w3.org/2000/svg" xmlns:xlink="http://www.w3.org/1999/xlink">
<g id="graph0" class="graph" transform="scale(1 1) rotate(0) translate(4 941)">
<title>src/enclave/endpoint.h</title>
<polygon fill="white" stroke="transparent" points="-4,4 -4,-941 1199.5,-941 1199.5,4 -4,4"/>
<!-- Node1 -->
<g id="node1" class="node">
<title>Node1</title>
<g id="a_node1"><a xlink:title=" ">
<polygon fill="#bfbfbf" stroke="black" points="621,-917.5 621,-936.5 748,-936.5 748,-917.5 621,-917.5"/>
<text text-anchor="middle" x="684.5" y="-924.5" font-family="Helvetica,sans-Serif" font-size="10.00">src/enclave/endpoint.h</text>
</a>
</g>
</g>
<!-- Node2 -->
<g id="node2" class="node">
<title>Node2</title>
<g id="a_node2"><a xlink:href="tls__endpoint_8h.html" target="_top" xlink:title=" ">
<polygon fill="white" stroke="black" points="612.5,-861.5 612.5,-880.5 756.5,-880.5 756.5,-861.5 612.5,-861.5"/>
<text text-anchor="middle" x="684.5" y="-868.5" font-family="Helvetica,sans-Serif" font-size="10.00">src/enclave/tls_endpoint.h</text>
</a>
</g>
</g>
<!-- Node1&#45;&gt;Node2 -->
<g id="edge1" class="edge">
<title>Node1&#45;&gt;Node2</title>
<path fill="none" stroke="midnightblue" d="M684.5,-906.8C684.5,-897.91 684.5,-887.78 684.5,-880.75"/>
<polygon fill="midnightblue" stroke="midnightblue" points="681,-907.08 684.5,-917.08 688,-907.08 681,-907.08"/>
</g>
<!-- Node3 -->
<g id="node3" class="node">
<title>Node3</title>
<g id="a_node3"><a xlink:href="http__parser_8h.html" target="_top" xlink:title=" ">
<polygon fill="white" stroke="black" points="624.5,-749.5 624.5,-768.5 744.5,-768.5 744.5,-749.5 624.5,-749.5"/>
<text text-anchor="middle" x="684.5" y="-756.5" font-family="Helvetica,sans-Serif" font-size="10.00">src/http/http_parser.h</text>
</a>
</g>
</g>
<!-- Node2&#45;&gt;Node3 -->
<g id="edge2" class="edge">
<title>Node2&#45;&gt;Node3</title>
<path fill="none" stroke="midnightblue" d="M673.08,-852.44C668.52,-844.42 663.81,-834.58 661.5,-825 656.51,-804.28 669.58,-780.95 678.01,-768.66"/>
<polygon fill="midnightblue" stroke="midnightblue" points="670.21,-854.46 678.4,-861.19 676.19,-850.83 670.21,-854.46"/>
</g>
<!-- Node33 -->
<g id="node33" class="node">
<title>Node33</title>
<g id="a_node33"><a xlink:href="http__proc_8h.html" target="_top" xlink:title=" ">
<polygon fill="white" stroke="black" points="671,-805.5 671,-824.5 782,-824.5 782,-805.5 671,-805.5"/>
<text text-anchor="middle" x="726.5" y="-812.5" font-family="Helvetica,sans-Serif" font-size="10.00">src/http/http_proc.h</text>
</a>
</g>
</g>
<!-- Node2&#45;&gt;Node33 -->
<g id="edge52" class="edge">
<title>Node2&#45;&gt;Node33</title>
<path fill="none" stroke="midnightblue" d="M697.61,-853.14C704.93,-843.74 713.74,-832.4 719.69,-824.75"/>
<polygon fill="midnightblue" stroke="midnightblue" points="694.81,-851.04 691.44,-861.08 700.34,-855.34 694.81,-851.04"/>
</g>
<!-- Node4 -->
<g id="node4" class="node">
<title>Node4</title>
<g id="a_node4"><a xlink:href="rpc__tls__client_8h.html" target="_top" xlink:title=" ">
<polygon fill="white" stroke="black" points="329,-615.5 329,-645.5 430,-645.5 430,-615.5 329,-615.5"/>
<text text-anchor="start" x="337" y="-633.5" font-family="Helvetica,sans-Serif" font-size="10.00">src/clients/rpc_tls</text>
<text text-anchor="middle" x="379.5" y="-622.5" font-family="Helvetica,sans-Serif" font-size="10.00">_client.h</text>
</a>
</g>
</g>
<!-- Node3&#45;&gt;Node4 -->
<g id="edge3" class="edge">
<title>Node3&#45;&gt;Node4</title>
<path fill="none" stroke="midnightblue" d="M614.01,-750.6C573.45,-744.38 522.39,-733.13 480.5,-713 444.96,-695.92 410.81,-664.11 392.76,-645.68"/>
<polygon fill="midnightblue" stroke="midnightblue" points="613.69,-754.09 624.09,-752.08 614.7,-747.17 613.69,-754.09"/>
</g>
<!-- Node9 -->
<g id="node9" class="node">
<title>Node9</title>
<g id="a_node9"><a xlink:href="endpoint__registry_8cpp.html" target="_top" xlink:title=" ">
<polygon fill="white" stroke="black" points="1000.5,-682.5 1000.5,-712.5 1128.5,-712.5 1128.5,-682.5 1000.5,-682.5"/>
<text text-anchor="start" x="1008.5" y="-700.5" font-family="Helvetica,sans-Serif" font-size="10.00">src/endpoints/endpoint</text>
<text text-anchor="middle" x="1064.5" y="-689.5" font-family="Helvetica,sans-Serif" font-size="10.00">_registry.cpp</text>
</a>
</g>
</g>
<!-- Node3&#45;&gt;Node9 -->
<g id="edge9" class="edge">
<title>Node3&#45;&gt;Node9</title>
<path fill="none" stroke="midnightblue" d="M754.76,-748.73C817.09,-740.26 910.54,-726.96 991.5,-713 994.43,-712.49 997.42,-711.96 1000.44,-711.41"/>
<polygon fill="midnightblue" stroke="midnightblue" points="754.09,-745.29 744.65,-750.1 755.02,-752.23 754.09,-745.29"/>
</g>
<!-- Node10 -->
<g id="node10" class="node">
<title>Node10</title>
<g id="a_node10"><a xlink:href="http__endpoint_8h.html" target="_top" xlink:title=" ">
<polygon fill="white" stroke="black" points="428,-559.5 428,-578.5 561,-578.5 561,-559.5 428,-559.5"/>
<text text-anchor="middle" x="494.5" y="-566.5" font-family="Helvetica,sans-Serif" font-size="10.00">src/http/http_endpoint.h</text>
</a>
</g>
</g>
<!-- Node3&#45;&gt;Node10 -->
<g id="edge10" class="edge">
<title>Node3&#45;&gt;Node10</title>
<path fill="none" stroke="midnightblue" d="M633.45,-746.73C609.9,-739.77 582.57,-729.01 561.5,-713 532.34,-690.83 528.88,-679.25 513.5,-646 502.88,-623.04 497.66,-593.32 495.6,-578.79"/>
<polygon fill="midnightblue" stroke="midnightblue" points="632.7,-750.16 643.28,-749.49 634.59,-743.42 632.7,-750.16"/>
</g>
<!-- Node24 -->
<g id="node24" class="node">
<title>Node24</title>
<g id="a_node24"><a xlink:href="http__jwt_8h.html" target="_top" xlink:title=" ">
<polygon fill="white" stroke="black" points="877,-688 877,-707 982,-707 982,-688 877,-688"/>
<text text-anchor="middle" x="929.5" y="-695" font-family="Helvetica,sans-Serif" font-size="10.00">src/http/http_jwt.h</text>
</a>
</g>
</g>
<!-- Node3&#45;&gt;Node24 -->
<g id="edge33" class="edge">
<title>Node3&#45;&gt;Node24</title>
<path fill="none" stroke="midnightblue" d="M729.33,-747.11C776.88,-735.57 851.01,-717.56 894.46,-707.01"/>
<polygon fill="midnightblue" stroke="midnightblue" points="728.49,-743.71 719.6,-749.48 730.15,-750.52 728.49,-743.71"/>
</g>
<!-- Node29 -->
<g id="node29" class="node">
<title>Node29</title>
<g id="a_node29"><a xlink:href="http__rpc__context_8h.html" target="_top" xlink:title=" ">
<polygon fill="white" stroke="black" points="696,-621 696,-640 843,-640 843,-621 696,-621"/>
<text text-anchor="middle" x="769.5" y="-628" font-family="Helvetica,sans-Serif" font-size="10.00">src/http/http_rpc_context.h</text>
</a>
</g>
</g>
<!-- Node3&#45;&gt;Node29 -->
<g id="edge42" class="edge">
<title>Node3&#45;&gt;Node29</title>
<path fill="none" stroke="midnightblue" d="M696.08,-740.76C714.47,-713.4 749.68,-660.99 763.62,-640.26"/>
<polygon fill="midnightblue" stroke="midnightblue" points="693.01,-739.05 690.34,-749.31 698.82,-742.96 693.01,-739.05"/>
</g>
<!-- Node31 -->
<g id="node31" class="node">
<title>Node31</title>
<g id="a_node31"><a xlink:href="http__sig_8h.html" target="_top" xlink:title=" ">
<polygon fill="white" stroke="black" points="570.5,-688 570.5,-707 674.5,-707 674.5,-688 570.5,-688"/>
<text text-anchor="middle" x="622.5" y="-695" font-family="Helvetica,sans-Serif" font-size="10.00">src/http/http_sig.h</text>
</a>
</g>
</g>
<!-- Node3&#45;&gt;Node31 -->
<g id="edge48" class="edge">
<title>Node3&#45;&gt;Node31</title>
<path fill="none" stroke="midnightblue" d="M668.17,-742.32C656.39,-731.02 640.94,-716.19 631.37,-707.01"/>
<polygon fill="midnightblue" stroke="midnightblue" points="665.98,-745.08 675.62,-749.48 670.83,-740.03 665.98,-745.08"/>
</g>
<!-- Node5 -->
<g id="node5" class="node">
<title>Node5</title>
<g id="a_node5"><a xlink:href="perf__client_8h.html" target="_top" xlink:title=" ">
<polygon fill="white" stroke="black" points="161,-492.5 161,-522.5 272,-522.5 272,-492.5 161,-492.5"/>
<text text-anchor="start" x="169" y="-510.5" font-family="Helvetica,sans-Serif" font-size="10.00">src/clients/perf/perf</text>
<text text-anchor="middle" x="216.5" y="-499.5" font-family="Helvetica,sans-Serif" font-size="10.00">_client.h</text>
</a>
</g>
</g>
<!-- Node4&#45;&gt;Node5 -->
<g id="edge4" class="edge">
<title>Node4&#45;&gt;Node5</title>
<path fill="none" stroke="midnightblue" d="M319.35,-612.17C299.14,-604.32 277.44,-593.47 260.5,-579 242.29,-563.44 229.2,-538.42 222.24,-522.74"/>
<polygon fill="midnightblue" stroke="midnightblue" points="318.23,-615.48 328.82,-615.68 320.66,-608.92 318.23,-615.48"/>
</g>
<!-- Node8 -->
<g id="node8" class="node">
<title>Node8</title>
<g id="a_node8"><a xlink:href="timing_8h.html" target="_top" xlink:title=" ">
<polygon fill="white" stroke="black" points="269.5,-559.5 269.5,-578.5 401.5,-578.5 401.5,-559.5 269.5,-559.5"/>
<text text-anchor="middle" x="335.5" y="-566.5" font-family="Helvetica,sans-Serif" font-size="10.00">src/clients/perf/timing.h</text>
</a>
</g>
</g>
<!-- Node4&#45;&gt;Node8 -->
<g id="edge7" class="edge">
<title>Node4&#45;&gt;Node8</title>
<path fill="none" stroke="midnightblue" d="M362.94,-607.1C355.6,-597.19 347.41,-586.11 341.9,-578.66"/>
<polygon fill="midnightblue" stroke="midnightblue" points="360.31,-609.44 369.07,-615.4 365.94,-605.28 360.31,-609.44"/>
</g>
<!-- Node6 -->
<g id="node6" class="node">
<title>Node6</title>
<g id="a_node6"><a xlink:href="tpcc__client_8cpp.html" target="_top" xlink:title=" ">
<polygon fill="white" stroke="black" points="151.5,-425.5 151.5,-455.5 267.5,-455.5 267.5,-425.5 151.5,-425.5"/>
<text text-anchor="start" x="159.5" y="-443.5" font-family="Helvetica,sans-Serif" font-size="10.00">src/apps/tpcc/clients</text>
<text text-anchor="middle" x="209.5" y="-432.5" font-family="Helvetica,sans-Serif" font-size="10.00">/tpcc_client.cpp</text>
</a>
</g>
</g>
<!-- Node5&#45;&gt;Node6 -->
<g id="edge5" class="edge">
<title>Node5&#45;&gt;Node6</title>
<path fill="none" stroke="midnightblue" d="M213.9,-482.4C212.93,-473.37 211.86,-463.41 211.02,-455.58"/>
<polygon fill="midnightblue" stroke="midnightblue" points="210.43,-482.83 214.98,-492.4 217.39,-482.08 210.43,-482.83"/>
</g>
<!-- Node7 -->
<g id="node7" class="node">
<title>Node7</title>
<g id="a_node7"><a xlink:href="scenario__perf__client_8cpp.html" target="_top" xlink:title=" ">
<polygon fill="white" stroke="black" points="0,-425.5 0,-455.5 133,-455.5 133,-425.5 0,-425.5"/>
<text text-anchor="start" x="8" y="-443.5" font-family="Helvetica,sans-Serif" font-size="10.00">src/clients/perf/scenario</text>
<text text-anchor="middle" x="66.5" y="-432.5" font-family="Helvetica,sans-Serif" font-size="10.00">_perf_client.cpp</text>
</a>
</g>
</g>
<!-- Node5&#45;&gt;Node7 -->
<g id="edge6" class="edge">
<title>Node5&#45;&gt;Node7</title>
<path fill="none" stroke="midnightblue" d="M174.75,-488.41C150.8,-478.03 121.18,-465.2 98.98,-455.58"/>
<polygon fill="midnightblue" stroke="midnightblue" points="173.39,-491.63 183.95,-492.4 176.17,-485.21 173.39,-491.63"/>
</g>
<!-- Node8&#45;&gt;Node5 -->
<g id="edge8" class="edge">
<title>Node8&#45;&gt;Node5</title>
<path fill="none" stroke="midnightblue" d="M309.38,-554.94C290.19,-545.35 264.17,-532.33 244.55,-522.52"/>
<polygon fill="midnightblue" stroke="midnightblue" points="307.94,-558.13 318.45,-559.48 311.07,-551.87 307.94,-558.13"/>
</g>
<!-- Node11 -->
<g id="node11" class="node">
<title>Node11</title>
<g id="a_node11"><a xlink:href="rpc__sessions_8h.html" target="_top" xlink:title=" ">
<polygon fill="white" stroke="black" points="298.5,-498 298.5,-517 444.5,-517 444.5,-498 298.5,-498"/>
<text text-anchor="middle" x="371.5" y="-505" font-family="Helvetica,sans-Serif" font-size="10.00">src/enclave/rpc_sessions.h</text>
</a>
</g>
</g>
<!-- Node10&#45;&gt;Node11 -->
<g id="edge11" class="edge">
<title>Node10&#45;&gt;Node11</title>
<path fill="none" stroke="midnightblue" d="M467.67,-555.02C443.81,-543.48 409.63,-526.94 389.09,-517.01"/>
<polygon fill="midnightblue" stroke="midnightblue" points="466.35,-558.27 476.88,-559.48 469.4,-551.97 466.35,-558.27"/>
</g>
<!-- Node12 -->
<g id="node12" class="node">
<title>Node12</title>
<g id="a_node12"><a xlink:href="enclave_2enclave_8h.html" target="_top" xlink:title=" ">
<polygon fill="white" stroke="black" points="827.5,-56.5 827.5,-75.5 949.5,-75.5 949.5,-56.5 827.5,-56.5"/>
<text text-anchor="middle" x="888.5" y="-63.5" font-family="Helvetica,sans-Serif" font-size="10.00">src/enclave/enclave.h</text>
</a>
</g>
</g>
<!-- Node11&#45;&gt;Node12 -->
<g id="edge12" class="edge">
<title>Node11&#45;&gt;Node12</title>
<path fill="none" stroke="midnightblue" d="M354.97,-490.67C332.62,-467.46 295.5,-421.81 295.5,-374.5 295.5,-374.5 295.5,-374.5 295.5,-182.5 295.5,-74.99 675.76,-65.6 827.27,-66.13"/>
<polygon fill="midnightblue" stroke="midnightblue" points="352.64,-493.29 362.18,-497.91 357.61,-488.35 352.64,-493.29"/>
</g>
<!-- Node14 -->
<g id="node14" class="node">
<title>Node14</title>
<g id="a_node14"><a xlink:href="node__client_8h.html" target="_top" xlink:title=" ">
<polygon fill="white" stroke="black" points="438.5,-431 438.5,-450 564.5,-450 564.5,-431 438.5,-431"/>
<text text-anchor="middle" x="501.5" y="-438" font-family="Helvetica,sans-Serif" font-size="10.00">src/node/node_client.h</text>
</a>
</g>
</g>
<!-- Node11&#45;&gt;Node14 -->
<g id="edge14" class="edge">
<title>Node11&#45;&gt;Node14</title>
<path fill="none" stroke="midnightblue" d="M397.95,-493.27C423.7,-480.4 462.08,-461.21 484.17,-450.17"/>
<polygon fill="midnightblue" stroke="midnightblue" points="396.14,-490.27 388.76,-497.87 399.27,-496.53 396.14,-490.27"/>
</g>
<!-- Node17 -->
<g id="node17" class="node">
<title>Node17</title>
<g id="a_node17"><a xlink:href="node__state_8h.html" target="_top" xlink:title=" ">
<polygon fill="white" stroke="black" points="611.5,-174 611.5,-193 735.5,-193 735.5,-174 611.5,-174"/>
<text text-anchor="middle" x="673.5" y="-181" font-family="Helvetica,sans-Serif" font-size="10.00">src/node/node_state.h</text>
</a>
</g>
</g>
<!-- Node11&#45;&gt;Node17 -->
<g id="edge30" class="edge">
<title>Node11&#45;&gt;Node17</title>
<path fill="none" stroke="midnightblue" d="M362.83,-488.5C351.61,-463.52 333.5,-416.65 333.5,-374.5 333.5,-374.5 333.5,-374.5 333.5,-311 333.5,-269.31 353.17,-257.14 388.5,-235 424.74,-212.28 538.83,-197.45 611.19,-190.06"/>
<polygon fill="midnightblue" stroke="midnightblue" points="359.76,-490.19 367.14,-497.79 366.11,-487.24 359.76,-490.19"/>
</g>
<!-- Node23 -->
<g id="node23" class="node">
<title>Node23</title>
<g id="a_node23"><a xlink:href="resharing_8h.html" target="_top" xlink:title=" ">
<polygon fill="white" stroke="black" points="397.5,-241 397.5,-260 513.5,-260 513.5,-241 397.5,-241"/>
<text text-anchor="middle" x="455.5" y="-248" font-family="Helvetica,sans-Serif" font-size="10.00">src/node/resharing.h</text>
</a>
</g>
</g>
<!-- Node11&#45;&gt;Node23 -->
<g id="edge31" class="edge">
<title>Node11&#45;&gt;Node23</title>
<path fill="none" stroke="midnightblue" d="M377.35,-488.12C386.32,-460.04 404.03,-404.78 419.5,-358 431.57,-321.49 446.38,-278.11 452.57,-260.05"/>
<polygon fill="midnightblue" stroke="midnightblue" points="373.98,-487.19 374.27,-497.78 380.65,-489.32 373.98,-487.19"/>
</g>
<!-- Node13 -->
<g id="node13" class="node">
<title>Node13</title>
<g id="a_node13"><a xlink:href="enclave_2main_8cpp.html" target="_top" xlink:title=" ">
<polygon fill="white" stroke="black" points="828.5,-0.5 828.5,-19.5 948.5,-19.5 948.5,-0.5 828.5,-0.5"/>
<text text-anchor="middle" x="888.5" y="-7.5" font-family="Helvetica,sans-Serif" font-size="10.00">src/enclave/main.cpp</text>
</a>
</g>
</g>
<!-- Node12&#45;&gt;Node13 -->
<g id="edge13" class="edge">
<title>Node12&#45;&gt;Node13</title>
<path fill="none" stroke="midnightblue" d="M888.5,-45.8C888.5,-36.91 888.5,-26.78 888.5,-19.75"/>
<polygon fill="midnightblue" stroke="midnightblue" points="885,-46.08 888.5,-56.08 892,-46.08 885,-46.08"/>
</g>
<!-- Node15 -->
<g id="node15" class="node">
<title>Node15</title>
<g id="a_node15"><a xlink:href="orc__requests_8h.html" target="_top" xlink:title=" ">
<polygon fill="white" stroke="black" points="584,-358.5 584,-388.5 703,-388.5 703,-358.5 584,-358.5"/>
<text text-anchor="start" x="592" y="-376.5" font-family="Helvetica,sans-Serif" font-size="10.00">src/consensus/aft/orc</text>
<text text-anchor="middle" x="643.5" y="-365.5" font-family="Helvetica,sans-Serif" font-size="10.00">_requests.h</text>
</a>
</g>
</g>
<!-- Node14&#45;&gt;Node15 -->
<g id="edge15" class="edge">
<title>Node14&#45;&gt;Node15</title>
<path fill="none" stroke="midnightblue" d="M529.64,-426.62C553.66,-415.63 588.14,-399.84 612.85,-388.53"/>
<polygon fill="midnightblue" stroke="midnightblue" points="527.99,-423.52 520.36,-430.87 530.91,-429.89 527.99,-423.52"/>
</g>
<!-- Node16 -->
<g id="node16" class="node">
<title>Node16</title>
<g id="a_node16"><a xlink:href="raft_8h.html" target="_top" xlink:title=" ">
<polygon fill="white" stroke="black" points="469,-302.5 469,-321.5 598,-321.5 598,-302.5 469,-302.5"/>
<text text-anchor="middle" x="533.5" y="-309.5" font-family="Helvetica,sans-Serif" font-size="10.00">src/consensus/aft/raft.h</text>
</a>
</g>
</g>
<!-- Node14&#45;&gt;Node16 -->
<g id="edge25" class="edge">
<title>Node14&#45;&gt;Node16</title>
<path fill="none" stroke="midnightblue" d="M469.82,-426.28C454.37,-418.01 437.27,-405.73 428.5,-389 422.1,-376.8 420.92,-369.5 428.5,-358 441.11,-338.88 463.71,-327.85 484.73,-321.5"/>
<polygon fill="midnightblue" stroke="midnightblue" points="468.63,-429.59 479.14,-430.91 471.74,-423.32 468.63,-429.59"/>
</g>
<!-- Node21 -->
<g id="node21" class="node">
<title>Node21</title>
<g id="a_node21"><a xlink:href="http__node__client_8h.html" target="_top" xlink:title=" ">
<polygon fill="white" stroke="black" points="606.5,-235.5 606.5,-265.5 716.5,-265.5 716.5,-235.5 606.5,-235.5"/>
<text text-anchor="start" x="614.5" y="-253.5" font-family="Helvetica,sans-Serif" font-size="10.00">src/node/http_node</text>
<text text-anchor="middle" x="661.5" y="-242.5" font-family="Helvetica,sans-Serif" font-size="10.00">_client.h</text>
</a>
</g>
</g>
<!-- Node14&#45;&gt;Node21 -->
<g id="edge26" class="edge">
<title>Node14&#45;&gt;Node21</title>
<path fill="none" stroke="midnightblue" d="M574.76,-431.5C628.35,-423.96 694.52,-410.55 711.5,-389 741.69,-350.69 698.47,-292.5 674.97,-265.8"/>
<polygon fill="midnightblue" stroke="midnightblue" points="574.01,-428.07 564.57,-432.88 574.95,-435.01 574.01,-428.07"/>
</g>
<!-- Node22 -->
<g id="node22" class="node">
<title>Node22</title>
<g id="a_node22"><a xlink:href="retired__nodes__cleanup_8h.html" target="_top" xlink:title=" ">
<polygon fill="white" stroke="black" points="437.5,-358.5 437.5,-388.5 565.5,-388.5 565.5,-358.5 437.5,-358.5"/>
<text text-anchor="start" x="445.5" y="-376.5" font-family="Helvetica,sans-Serif" font-size="10.00">src/node/retired_nodes</text>
<text text-anchor="middle" x="501.5" y="-365.5" font-family="Helvetica,sans-Serif" font-size="10.00">_cleanup.h</text>
</a>
</g>
</g>
<!-- Node14&#45;&gt;Node22 -->
<g id="edge28" class="edge">
<title>Node14&#45;&gt;Node22</title>
<path fill="none" stroke="midnightblue" d="M501.5,-420.41C501.5,-410.22 501.5,-397.9 501.5,-388.59"/>
<polygon fill="midnightblue" stroke="midnightblue" points="498,-420.73 501.5,-430.73 505,-420.73 498,-420.73"/>
</g>
<!-- Node15&#45;&gt;Node16 -->
<g id="edge16" class="edge">
<title>Node15&#45;&gt;Node16</title>
<path fill="none" stroke="midnightblue" d="M608.38,-353.51C588.61,-342.81 564.88,-329.97 549.51,-321.66"/>
<polygon fill="midnightblue" stroke="midnightblue" points="606.97,-356.72 617.43,-358.4 610.3,-350.56 606.97,-356.72"/>
</g>
<!-- Node19 -->
<g id="node19" class="node">
<title>Node19</title>
<g id="a_node19"><a xlink:href="node__frontend_8h.html" target="_top" xlink:title=" ">
<polygon fill="white" stroke="black" points="768.5,-302.5 768.5,-321.5 926.5,-321.5 926.5,-302.5 768.5,-302.5"/>
<text text-anchor="middle" x="847.5" y="-309.5" font-family="Helvetica,sans-Serif" font-size="10.00">src/node/rpc/node_frontend.h</text>
</a>
</g>
</g>
<!-- Node15&#45;&gt;Node19 -->
<g id="edge21" class="edge">
<title>Node15&#45;&gt;Node19</title>
<path fill="none" stroke="midnightblue" d="M701.55,-355.57C739.71,-344.44 788,-330.35 818.34,-321.51"/>
<polygon fill="midnightblue" stroke="midnightblue" points="700.21,-352.31 691.59,-358.47 702.17,-359.03 700.21,-352.31"/>
</g>
<!-- Node16&#45;&gt;Node17 -->
<g id="edge17" class="edge">
<title>Node16&#45;&gt;Node17</title>
<path fill="none" stroke="midnightblue" d="M545.71,-293.83C557.76,-277.58 577.28,-253.05 597.5,-235 616.65,-217.91 641.99,-202.23 658.03,-193.01"/>
<polygon fill="midnightblue" stroke="midnightblue" points="542.58,-292.19 539.53,-302.33 548.24,-296.3 542.58,-292.19"/>
</g>
<!-- Node17&#45;&gt;Node12 -->
<g id="edge18" class="edge">
<title>Node17&#45;&gt;Node12</title>
<path fill="none" stroke="midnightblue" d="M709.37,-170.62C734.94,-161.53 769.74,-147.89 798.5,-132 829.37,-114.94 862.1,-89.06 878.25,-75.68"/>
<polygon fill="midnightblue" stroke="midnightblue" points="708,-167.39 699.71,-173.99 710.3,-174 708,-167.39"/>
</g>
<!-- Node18 -->
<g id="node18" class="node">
<title>Node18</title>
<g id="a_node18"><a xlink:href="gov__effects_8h.html" target="_top" xlink:title=" ">
<polygon fill="white" stroke="black" points="645.5,-112.5 645.5,-131.5 789.5,-131.5 789.5,-112.5 645.5,-112.5"/>
<text text-anchor="middle" x="717.5" y="-119.5" font-family="Helvetica,sans-Serif" font-size="10.00">src/node/rpc/gov_effects.h</text>
</a>
</g>
</g>
<!-- Node17&#45;&gt;Node18 -->
<g id="edge19" class="edge">
<title>Node17&#45;&gt;Node18</title>
<path fill="none" stroke="midnightblue" d="M685.82,-165.84C694.08,-154.67 704.61,-140.43 711.21,-131.51"/>
<polygon fill="midnightblue" stroke="midnightblue" points="682.94,-163.85 679.8,-173.98 688.56,-168.02 682.94,-163.85"/>
</g>
<!-- Node18&#45;&gt;Node12 -->
<g id="edge20" class="edge">
<title>Node18&#45;&gt;Node12</title>
<path fill="none" stroke="midnightblue" d="M754.54,-109.3C786.76,-99.13 832.69,-84.62 861.53,-75.52"/>
<polygon fill="midnightblue" stroke="midnightblue" points="753.08,-106.09 744.6,-112.44 755.19,-112.77 753.08,-106.09"/>
</g>
<!-- Node19&#45;&gt;Node12 -->
<g id="edge22" class="edge">
<title>Node19&#45;&gt;Node12</title>
<path fill="none" stroke="midnightblue" d="M857.34,-293.52C861.46,-285.39 865.9,-275.46 868.5,-266 888.21,-194.35 888.94,-103.43 888.65,-75.53"/>
<polygon fill="midnightblue" stroke="midnightblue" points="854.23,-291.9 852.6,-302.37 860.4,-295.21 854.23,-291.9"/>
</g>
<!-- Node20 -->
<g id="node20" class="node">
<title>Node20</title>
<g id="a_node20"><a xlink:href="jwt__key__auto__refresh_8h.html" target="_top" xlink:title=" ">
<polygon fill="white" stroke="black" points="735,-235.5 735,-265.5 860,-265.5 860,-235.5 735,-235.5"/>
<text text-anchor="start" x="743" y="-253.5" font-family="Helvetica,sans-Serif" font-size="10.00">src/node/jwt_key_auto</text>
<text text-anchor="middle" x="797.5" y="-242.5" font-family="Helvetica,sans-Serif" font-size="10.00">_refresh.h</text>
</a>
</g>
</g>
<!-- Node19&#45;&gt;Node20 -->
<g id="edge23" class="edge">
<title>Node19&#45;&gt;Node20</title>
<path fill="none" stroke="midnightblue" d="M833.9,-294.81C826.2,-285.65 816.66,-274.3 809.28,-265.52"/>
<polygon fill="midnightblue" stroke="midnightblue" points="831.22,-297.07 840.34,-302.48 836.58,-292.57 831.22,-297.07"/>
</g>
<!-- Node20&#45;&gt;Node17 -->
<g id="edge24" class="edge">
<title>Node20&#45;&gt;Node17</title>
<path fill="none" stroke="midnightblue" d="M761.52,-230.64C737.79,-218.2 707.86,-202.51 689.73,-193.01"/>
<polygon fill="midnightblue" stroke="midnightblue" points="760.11,-233.85 770.59,-235.4 763.36,-227.65 760.11,-233.85"/>
</g>
<!-- Node21&#45;&gt;Node17 -->
<g id="edge27" class="edge">
<title>Node21&#45;&gt;Node17</title>
<path fill="none" stroke="midnightblue" d="M665.98,-225.25C668.05,-214.02 670.38,-201.38 671.89,-193.19"/>
<polygon fill="midnightblue" stroke="midnightblue" points="662.48,-224.93 664.1,-235.4 669.36,-226.2 662.48,-224.93"/>
</g>
<!-- Node22&#45;&gt;Node16 -->
<g id="edge29" class="edge">
<title>Node22&#45;&gt;Node16</title>
<path fill="none" stroke="midnightblue" d="M513.87,-349.5C519.12,-339.74 524.92,-328.96 528.84,-321.66"/>
<polygon fill="midnightblue" stroke="midnightblue" points="510.74,-347.93 509.08,-358.4 516.9,-351.25 510.74,-347.93"/>
</g>
<!-- Node23&#45;&gt;Node17 -->
<g id="edge32" class="edge">
<title>Node23&#45;&gt;Node17</title>
<path fill="none" stroke="midnightblue" d="M494.04,-238.01C537.18,-225.15 606.11,-204.59 644.78,-193.06"/>
<polygon fill="midnightblue" stroke="midnightblue" points="493.03,-234.66 484.45,-240.87 495.03,-241.37 493.03,-234.66"/>
</g>
<!-- Node25 -->
<g id="node25" class="node">
<title>Node25</title>
<g id="a_node25"><a xlink:href="jwt__auth_8cpp.html" target="_top" xlink:title=" ">
<polygon fill="white" stroke="black" points="1038,-615.5 1038,-645.5 1193,-645.5 1193,-615.5 1038,-615.5"/>
<text text-anchor="start" x="1046" y="-633.5" font-family="Helvetica,sans-Serif" font-size="10.00">src/endpoints/authentication</text>
<text text-anchor="middle" x="1115.5" y="-622.5" font-family="Helvetica,sans-Serif" font-size="10.00">/jwt_auth.cpp</text>
</a>
</g>
</g>
<!-- Node24&#45;&gt;Node25 -->
<g id="edge34" class="edge">
<title>Node24&#45;&gt;Node25</title>
<path fill="none" stroke="midnightblue" d="M963.87,-684.49C995.4,-673.47 1042.12,-657.14 1075.36,-645.53"/>
<polygon fill="midnightblue" stroke="midnightblue" points="962.48,-681.27 954.2,-687.87 964.79,-687.87 962.48,-681.27"/>
</g>
<!-- Node26 -->
<g id="node26" class="node">
<title>Node26</title>
<g id="a_node26"><a xlink:href="frontend_8h.html" target="_top" xlink:title=" ">
<polygon fill="white" stroke="black" points="974,-364 974,-383 1103,-383 1103,-364 974,-364"/>
<text text-anchor="middle" x="1038.5" y="-371" font-family="Helvetica,sans-Serif" font-size="10.00">src/node/rpc/frontend.h</text>
</a>
</g>
</g>
<!-- Node24&#45;&gt;Node26 -->
<g id="edge35" class="edge">
<title>Node24&#45;&gt;Node26</title>
<path fill="none" stroke="midnightblue" d="M947.61,-680.98C971.21,-658.92 1009.5,-616.02 1009.5,-570 1009.5,-570 1009.5,-570 1009.5,-506.5 1009.5,-458.87 1027.74,-403.78 1035.29,-383.01"/>
<polygon fill="midnightblue" stroke="midnightblue" points="945.03,-678.59 939.96,-687.89 949.73,-683.78 945.03,-678.59"/>
</g>
<!-- Node26&#45;&gt;Node17 -->
<g id="edge36" class="edge">
<title>Node26&#45;&gt;Node17</title>
<path fill="none" stroke="midnightblue" d="M1023.37,-356.37C995.5,-327.62 932.98,-267.49 868.5,-235 825.56,-213.36 772.49,-200.4 732.56,-193.04"/>
<polygon fill="midnightblue" stroke="midnightblue" points="1021.14,-359.1 1030.58,-363.91 1026.2,-354.26 1021.14,-359.1"/>
</g>
<!-- Node26&#45;&gt;Node19 -->
<g id="edge39" class="edge">
<title>Node26&#45;&gt;Node19</title>
<path fill="none" stroke="midnightblue" d="M1001.2,-360.88C964.07,-349.32 907.98,-331.84 874.81,-321.51"/>
<polygon fill="midnightblue" stroke="midnightblue" points="1000.55,-364.34 1011.13,-363.98 1002.63,-357.66 1000.55,-364.34"/>
</g>
<!-- Node27 -->
<g id="node27" class="node">
<title>Node27</title>
<g id="a_node27"><a xlink:href="member__frontend_8h.html" target="_top" xlink:title=" ">
<polygon fill="white" stroke="black" points="1075.5,-168.5 1075.5,-198.5 1195.5,-198.5 1195.5,-168.5 1075.5,-168.5"/>
<text text-anchor="start" x="1083.5" y="-186.5" font-family="Helvetica,sans-Serif" font-size="10.00">src/node/rpc/member</text>
<text text-anchor="middle" x="1135.5" y="-175.5" font-family="Helvetica,sans-Serif" font-size="10.00">_frontend.h</text>
</a>
</g>
</g>
<!-- Node26&#45;&gt;Node27 -->
<g id="edge37" class="edge">
<title>Node26&#45;&gt;Node27</title>
<path fill="none" stroke="midnightblue" d="M1047.61,-354.84C1066.73,-317.78 1110.72,-232.53 1128.17,-198.7"/>
<polygon fill="midnightblue" stroke="midnightblue" points="1044.39,-353.44 1042.92,-363.93 1050.62,-356.65 1044.39,-353.44"/>
</g>
<!-- Node28 -->
<g id="node28" class="node">
<title>Node28</title>
<g id="a_node28"><a xlink:href="user__frontend_8h.html" target="_top" xlink:title=" ">
<polygon fill="white" stroke="black" points="961,-112.5 961,-131.5 1116,-131.5 1116,-112.5 961,-112.5"/>
<text text-anchor="middle" x="1038.5" y="-119.5" font-family="Helvetica,sans-Serif" font-size="10.00">src/node/rpc/user_frontend.h</text>
</a>
</g>
</g>
<!-- Node26&#45;&gt;Node28 -->
<g id="edge40" class="edge">
<title>Node26&#45;&gt;Node28</title>
<path fill="none" stroke="midnightblue" d="M1038.5,-353.84C1038.5,-303.64 1038.5,-167.1 1038.5,-131.55"/>
<polygon fill="midnightblue" stroke="midnightblue" points="1035,-353.91 1038.5,-363.91 1042,-353.91 1035,-353.91"/>
</g>
<!-- Node27&#45;&gt;Node12 -->
<g id="edge38" class="edge">
<title>Node27&#45;&gt;Node12</title>
<path fill="none" stroke="midnightblue" d="M1138.64,-158.02C1139.15,-142.85 1136.97,-124.02 1125.5,-112 1101.86,-87.23 1011.75,-75.75 949.71,-70.68"/>
<polygon fill="midnightblue" stroke="midnightblue" points="1135.13,-158.05 1137.88,-168.28 1142.11,-158.56 1135.13,-158.05"/>
</g>
<!-- Node28&#45;&gt;Node12 -->
<g id="edge41" class="edge">
<title>Node28&#45;&gt;Node12</title>
<path fill="none" stroke="midnightblue" d="M1005.28,-109.04C977.05,-98.88 937.24,-84.55 912.16,-75.52"/>
<polygon fill="midnightblue" stroke="midnightblue" points="1004.14,-112.35 1014.73,-112.44 1006.51,-105.76 1004.14,-112.35"/>
</g>
<!-- Node29&#45;&gt;Node10 -->
<g id="edge43" class="edge">
<title>Node29&#45;&gt;Node10</title>
<path fill="none" stroke="midnightblue" d="M720.19,-618.83C666.86,-607.29 582.91,-589.13 533.83,-578.51"/>
<polygon fill="midnightblue" stroke="midnightblue" points="719.59,-622.28 730.1,-620.98 721.07,-615.44 719.59,-622.28"/>
</g>
<!-- Node29&#45;&gt;Node20 -->
<g id="edge44" class="edge">
<title>Node29&#45;&gt;Node20</title>
<path fill="none" stroke="midnightblue" d="M769.5,-610.94C769.5,-587.19 769.5,-544.79 769.5,-508.5 769.5,-508.5 769.5,-508.5 769.5,-439.5 769.5,-378.23 740.08,-360.11 759.5,-302 764.09,-288.26 774.05,-275.27 782.62,-265.9"/>
<polygon fill="midnightblue" stroke="midnightblue" points="766,-610.99 769.5,-620.99 773,-610.99 766,-610.99"/>
</g>
<!-- Node30 -->
<g id="node30" class="node">
<title>Node30</title>
<g id="a_node30"><a xlink:href="forwarder_8h.html" target="_top" xlink:title=" ">
<polygon fill="white" stroke="black" points="847.5,-431 847.5,-450 981.5,-450 981.5,-431 847.5,-431"/>
<text text-anchor="middle" x="914.5" y="-438" font-family="Helvetica,sans-Serif" font-size="10.00">src/node/rpc/forwarder.h</text>
</a>
</g>
</g>
<!-- Node29&#45;&gt;Node30 -->
<g id="edge45" class="edge">
<title>Node29&#45;&gt;Node30</title>
<path fill="none" stroke="midnightblue" d="M782.42,-612.75C812.31,-573.99 885.43,-479.19 907.85,-450.12"/>
<polygon fill="midnightblue" stroke="midnightblue" points="779.44,-610.88 776.11,-620.93 784.99,-615.15 779.44,-610.88"/>
</g>
<!-- Node30&#45;&gt;Node12 -->
<g id="edge46" class="edge">
<title>Node30&#45;&gt;Node12</title>
<path fill="none" stroke="midnightblue" d="M918.87,-420.92C924.05,-397.87 932.37,-357.3 935.5,-322 944.17,-224.25 903.99,-108.06 891.87,-75.73"/>
<polygon fill="midnightblue" stroke="midnightblue" points="915.45,-420.2 916.62,-430.73 922.27,-421.77 915.45,-420.2"/>
</g>
<!-- Node30&#45;&gt;Node26 -->
<g id="edge47" class="edge">
<title>Node30&#45;&gt;Node26</title>
<path fill="none" stroke="midnightblue" d="M940.06,-426.1C964.61,-413.23 1000.99,-394.16 1021.97,-383.17"/>
<polygon fill="midnightblue" stroke="midnightblue" points="938.2,-423.13 930.97,-430.87 941.45,-429.33 938.2,-423.13"/>
</g>
<!-- Node31&#45;&gt;Node4 -->
<g id="edge49" class="edge">
<title>Node31&#45;&gt;Node4</title>
<path fill="none" stroke="midnightblue" d="M580.64,-685.3C538.92,-674.14 474.81,-656.99 430.22,-645.07"/>
<polygon fill="midnightblue" stroke="midnightblue" points="579.92,-688.73 590.48,-687.94 581.73,-681.97 579.92,-688.73"/>
</g>
<!-- Node31&#45;&gt;Node29 -->
<g id="edge51" class="edge">
<title>Node31&#45;&gt;Node29</title>
<path fill="none" stroke="midnightblue" d="M651.26,-683.78C680.38,-670.91 724.6,-651.35 749.9,-640.17"/>
<polygon fill="midnightblue" stroke="midnightblue" points="649.75,-680.62 642.02,-687.87 652.58,-687.03 649.75,-680.62"/>
</g>
<!-- Node32 -->
<g id="node32" class="node">
<title>Node32</title>
<g id="a_node32"><a xlink:href="sig__auth_8cpp.html" target="_top" xlink:title=" ">
<polygon fill="white" stroke="black" points="523,-615.5 523,-645.5 678,-645.5 678,-615.5 523,-615.5"/>
<text text-anchor="start" x="531" y="-633.5" font-family="Helvetica,sans-Serif" font-size="10.00">src/endpoints/authentication</text>
<text text-anchor="middle" x="600.5" y="-622.5" font-family="Helvetica,sans-Serif" font-size="10.00">/sig_auth.cpp</text>
</a>
</g>
</g>
<!-- Node31&#45;&gt;Node32 -->
<g id="edge50" class="edge">
<title>Node31&#45;&gt;Node32</title>
<path fill="none" stroke="midnightblue" d="M616.26,-678.06C612.77,-667.75 608.49,-655.1 605.27,-645.59"/>
<polygon fill="midnightblue" stroke="midnightblue" points="613.01,-679.38 619.53,-687.73 619.64,-677.14 613.01,-679.38"/>
</g>
<!-- Node33&#45;&gt;Node3 -->
<g id="edge53" class="edge">
<title>Node33&#45;&gt;Node3</title>
<path fill="none" stroke="midnightblue" d="M713.39,-797.14C706.07,-787.74 697.26,-776.4 691.31,-768.75"/>
<polygon fill="midnightblue" stroke="midnightblue" points="710.66,-799.34 719.56,-805.08 716.19,-795.04 710.66,-799.34"/>
</g>
</g>
</svg>
