<?xml version="1.0" encoding="UTF-8" standalone="no"?>
<!DOCTYPE svg PUBLIC "-//W3C//DTD SVG 1.1//EN"
 "http://www.w3.org/Graphics/SVG/1.1/DTD/svg11.dtd">
<!-- Generated by graphviz version 2.43.0 (0)
 -->
<!-- Title: ccf::CreateNetworkNodeToNode::In Pages: 1 -->
<!--zoomable 233 -->
<svg id="main" version="1.1" xmlns="http://www.w3.org/2000/svg" xmlns:xlink="http://www.w3.org/1999/xlink" xml:space="preserve" onload="init(evt)">
<style type="text/css"><![CDATA[
.edge:hover path { stroke: red; }
.edge:hover polygon { stroke: red; fill: red; }
]]></style>
<script type="text/javascript"><![CDATA[
var edges = document.getElementsByTagName('g');
if (edges && edges.length) {
  for (var i=0;i<edges.length;i++) {
    if (edges[i].id.substr(0,4)=='edge') {
      edges[i].setAttribute('class','edge');
    }
  }
}
]]></script>
        <defs>
                <circle id="rim" cx="0" cy="0" r="7"/>
                <circle id="rim2" cx="0" cy="0" r="3.5"/>
                <g id="zoomPlus">
                        <use xlink:href="#rim" fill="#404040">
                                <set attributeName="fill" to="#808080" begin="zoomplus.mouseover" end="zoomplus.mouseout"/>
                        </use>
                        <path d="M-4,0h8M0,-4v8" fill="none" stroke="white" stroke-width="1.5" pointer-events="none"/>
                </g>
                <g id="zoomMin">
                        <use xlink:href="#rim" fill="#404040">
                                <set attributeName="fill" to="#808080" begin="zoomminus.mouseover" end="zoomminus.mouseout"/>
                        </use>
                        <path d="M-4,0h8" fill="none" stroke="white" stroke-width="1.5" pointer-events="none"/>
                </g>
                <g id="dirArrow">
                        <path fill="none" stroke="white" stroke-width="1.5" d="M0,-3.0v7 M-2.5,-0.5L0,-3.0L2.5,-0.5"/>
                </g>
               <g id="resetDef">
                       <use xlink:href="#rim2" fill="#404040">
                               <set attributeName="fill" to="#808080" begin="reset.mouseover" end="reset.mouseout"/>
                       </use>
               </g>
        </defs>

<script type="text/javascript">
var viewWidth = 1493;
var viewHeight = 233;
var sectionId = 'dynsection-0';
</script>
<script xlink:href="svgpan.js"/>
<svg id="graph" class="graph">
<g id="viewport">
<title>ccf::CreateNetworkNodeToNode::In</title>
<polygon fill="white" stroke="transparent" points="-4,4 -4,-229 1489,-229 1489,4 -4,4"/>
<!-- Node1 -->
<g id="node1" class="node">
<title>Node1</title>
<g id="a_node1"><a xlink:title=" ">
<polygon fill="#bfbfbf" stroke="black" points="1339,-71 1339,-101 1485,-101 1485,-71 1339,-71"/>
<text text-anchor="start" x="1347" y="-89" font-family="Helvetica,sans-Serif" font-size="10.00">ccf::CreateNetworkNodeTo</text>
<text text-anchor="middle" x="1412" y="-78" font-family="Helvetica,sans-Serif" font-size="10.00">Node::In</text>
</a>
</g>
</g>
<!-- Node2 -->
<g id="node2" class="node">
<title>Node2</title>
<g id="a_node2"><a xlink:href="structccf_1_1EntityId.html" target="_top" xlink:title=" ">
<polygon fill="white" stroke="black" points="995,-201.5 995,-220.5 1174,-220.5 1174,-201.5 995,-201.5"/>
<text text-anchor="middle" x="1084.5" y="-208.5" font-family="Helvetica,sans-Serif" font-size="10.00">ccf::EntityId&lt; NodeIdFormatter &gt;</text>
</a>
</g>
</g>
<!-- Node2&#45;&gt;Node1 -->
<g id="edge1" class="edge">
<title>Node2&#45;&gt;Node1</title>
<path fill="none" stroke="#9a32cd" stroke-dasharray="5,2" d="M1184.31,-214.93C1228.24,-212.93 1279.32,-205.22 1321,-184 1358.46,-164.92 1388.15,-123.44 1402.18,-101.05"/>
<polygon fill="#9a32cd" stroke="#9a32cd" points="1184.05,-211.43 1174.19,-215.3 1184.31,-218.43 1184.05,-211.43"/>
<text text-anchor="middle" x="1256.5" y="-217" font-family="Helvetica,sans-Serif" font-size="10.00"> node_id</text>
</g>
<!-- Node3 -->
<g id="node3" class="node">
<title>Node3</title>
<g id="a_node3"><a xlink:href="classcrypto_1_1Pem.html" target="_top" xlink:title=" ">
<polygon fill="white" stroke="black" points="1047,-114.5 1047,-133.5 1122,-133.5 1122,-114.5 1047,-114.5"/>
<text text-anchor="middle" x="1084.5" y="-121.5" font-family="Helvetica,sans-Serif" font-size="10.00">crypto::Pem</text>
</a>
</g>
</g>
<!-- Node3&#45;&gt;Node1 -->
<g id="edge2" class="edge">
<title>Node3&#45;&gt;Node1</title>
<path fill="none" stroke="#9a32cd" stroke-dasharray="5,2" d="M1132.28,-119.97C1179.87,-115.69 1255.68,-108.4 1321,-100 1326.8,-99.25 1332.81,-98.43 1338.84,-97.57"/>
<polygon fill="#9a32cd" stroke="#9a32cd" points="1131.93,-116.48 1122.28,-120.86 1132.55,-123.45 1131.93,-116.48"/>
<text text-anchor="start" x="1192" y="-172" font-family="Helvetica,sans-Serif" font-size="10.00"> certificate_signing</text>
<text text-anchor="middle" x="1256.5" y="-161" font-family="Helvetica,sans-Serif" font-size="10.00">_request</text>
<text text-anchor="middle" x="1256.5" y="-150" font-family="Helvetica,sans-Serif" font-size="10.00">node_endorsed_certificate</text>
<text text-anchor="middle" x="1256.5" y="-139" font-family="Helvetica,sans-Serif" font-size="10.00">public_encryption_key</text>
<text text-anchor="middle" x="1256.5" y="-128" font-family="Helvetica,sans-Serif" font-size="10.00">public_key</text>
<text text-anchor="middle" x="1256.5" y="-117" font-family="Helvetica,sans-Serif" font-size="10.00">service_cert</text>
</g>
<!-- Node4 -->
<g id="node4" class="node">
<title>Node4</title>
<g id="a_node4"><a xlink:href="structccf_1_1CodeDigest.html" target="_top" xlink:title=" ">
<polygon fill="white" stroke="black" points="1038.5,-76.5 1038.5,-95.5 1130.5,-95.5 1130.5,-76.5 1038.5,-76.5"/>
<text text-anchor="middle" x="1084.5" y="-83.5" font-family="Helvetica,sans-Serif" font-size="10.00">ccf::CodeDigest</text>
</a>
</g>
</g>
<!-- Node4&#45;&gt;Node1 -->
<g id="edge3" class="edge">
<title>Node4&#45;&gt;Node1</title>
<path fill="none" stroke="#9a32cd" stroke-dasharray="5,2" d="M1140.94,-86C1195.53,-86 1279.19,-86 1338.92,-86"/>
<polygon fill="#9a32cd" stroke="#9a32cd" points="1140.76,-82.5 1130.76,-86 1140.76,-89.5 1140.76,-82.5"/>
<text text-anchor="middle" x="1256.5" y="-89" font-family="Helvetica,sans-Serif" font-size="10.00"> code_digest</text>
</g>
<!-- Node5 -->
<g id="node5" class="node">
<title>Node5</title>
<g id="a_node5"><a xlink:title=" ">
<polygon fill="white" stroke="black" points="806,-70.5 806,-111.5 923,-111.5 923,-70.5 806,-70.5"/>
<text text-anchor="start" x="814" y="-99.5" font-family="Helvetica,sans-Serif" font-size="10.00">std::array&lt; uint8_t,</text>
<text text-anchor="start" x="814" y="-88.5" font-family="Helvetica,sans-Serif" font-size="10.00"> crypto::Sha256Hash</text>
<text text-anchor="middle" x="864.5" y="-77.5" font-family="Helvetica,sans-Serif" font-size="10.00">::SIZE &gt;</text>
</a>
</g>
</g>
<!-- Node5&#45;&gt;Node4 -->
<g id="edge4" class="edge">
<title>Node5&#45;&gt;Node4</title>
<path fill="none" stroke="#9a32cd" stroke-dasharray="5,2" d="M933.45,-89.44C967.62,-88.66 1008.11,-87.73 1038.41,-87.03"/>
<polygon fill="#9a32cd" stroke="#9a32cd" points="932.98,-85.95 923.06,-89.68 933.14,-92.95 932.98,-85.95"/>
<text text-anchor="middle" x="964.5" y="-91" font-family="Helvetica,sans-Serif" font-size="10.00"> data</text>
</g>
<!-- Node6 -->
<g id="node6" class="node">
<title>Node6</title>
<g id="a_node6"><a xlink:href="structccf_1_1NodeInfoNetwork.html" target="_top" xlink:title=" ">
<polygon fill="white" stroke="black" points="1023.5,-38.5 1023.5,-57.5 1145.5,-57.5 1145.5,-38.5 1023.5,-38.5"/>
<text text-anchor="middle" x="1084.5" y="-45.5" font-family="Helvetica,sans-Serif" font-size="10.00">ccf::NodeInfoNetwork</text>
</a>
</g>
</g>
<!-- Node6&#45;&gt;Node1 -->
<g id="edge5" class="edge">
<title>Node6&#45;&gt;Node1</title>
<path fill="none" stroke="#9a32cd" stroke-dasharray="5,2" d="M1155.69,-53.6C1202.59,-57.65 1265.6,-63.69 1321,-71 1326.81,-71.77 1332.82,-72.63 1338.85,-73.53"/>
<polygon fill="#9a32cd" stroke="#9a32cd" points="1155.9,-50.11 1145.64,-52.74 1155.31,-57.08 1155.9,-50.11"/>
<text text-anchor="middle" x="1256.5" y="-74" font-family="Helvetica,sans-Serif" font-size="10.00"> node_info_network</text>
</g>
<!-- Node7 -->
<g id="node7" class="node">
<title>Node7</title>
<g id="a_node7"><a xlink:href="structccf_1_1NodeInfoNetwork__v2.html" target="_top" xlink:title=" ">
<polygon fill="white" stroke="black" points="795,-32.5 795,-51.5 934,-51.5 934,-32.5 795,-32.5"/>
<text text-anchor="middle" x="864.5" y="-39.5" font-family="Helvetica,sans-Serif" font-size="10.00">ccf::NodeInfoNetwork_v2</text>
</a>
</g>
</g>
<!-- Node7&#45;&gt;Node6 -->
<g id="edge6" class="edge">
<title>Node7&#45;&gt;Node6</title>
<path fill="none" stroke="midnightblue" d="M944.39,-44.17C970.39,-44.89 998.88,-45.67 1023.27,-46.34"/>
<polygon fill="midnightblue" stroke="midnightblue" points="944.27,-40.67 934.18,-43.89 944.08,-47.66 944.27,-40.67"/>
</g>
<!-- Node8 -->
<g id="node8" class="node">
<title>Node8</title>
<g id="a_node8"><a xlink:href="structccf_1_1NodeInfoNetwork__v2_1_1NetInterface.html" target="_top" xlink:title=" ">
<polygon fill="white" stroke="black" points="333,-39 333,-69 455,-69 455,-39 333,-39"/>
<text text-anchor="start" x="341" y="-57" font-family="Helvetica,sans-Serif" font-size="10.00">ccf::NodeInfoNetwork</text>
<text text-anchor="middle" x="394" y="-46" font-family="Helvetica,sans-Serif" font-size="10.00">_v2::NetInterface</text>
</a>
</g>
</g>
<!-- Node8&#45;&gt;Node7 -->
<g id="edge7" class="edge">
<title>Node8&#45;&gt;Node7</title>
<path fill="none" stroke="#9a32cd" stroke-dasharray="5,2" d="M465.18,-54.29C483.66,-54.29 503.58,-54.22 522,-54 635.36,-52.67 663.76,-53.26 777,-48 782.71,-47.73 788.64,-47.42 794.58,-47.07"/>
<polygon fill="#9a32cd" stroke="#9a32cd" points="465.08,-50.8 455.08,-54.29 465.08,-57.8 465.08,-50.8"/>
<text text-anchor="middle" x="613" y="-56" font-family="Helvetica,sans-Serif" font-size="10.00"> node_to_node_interface</text>
</g>
<!-- Node11 -->
<g id="node11" class="node">
<title>Node11</title>
<g id="a_node11"><a xlink:title=" ">
<polygon fill="white" stroke="black" points="540,-1 540,-31 686,-31 686,-1 540,-1"/>
<text text-anchor="start" x="548" y="-19" font-family="Helvetica,sans-Serif" font-size="10.00">std::map&lt; RpcInterfaceID,</text>
<text text-anchor="middle" x="613" y="-8" font-family="Helvetica,sans-Serif" font-size="10.00"> NetInterface &gt;</text>
</a>
</g>
</g>
<!-- Node8&#45;&gt;Node11 -->
<g id="edge12" class="edge">
<title>Node8&#45;&gt;Node11</title>
<path fill="none" stroke="#9a32cd" stroke-dasharray="5,2" d="M465.19,-41.71C489.06,-37.53 515.75,-32.85 539.77,-28.65"/>
<polygon fill="#9a32cd" stroke="#9a32cd" points="464.4,-38.29 455.16,-43.47 465.61,-45.19 464.4,-38.29"/>
<text text-anchor="middle" x="497.5" y="-43" font-family="Helvetica,sans-Serif" font-size="10.00"> elements</text>
</g>
<!-- Node9 -->
<g id="node9" class="node">
<title>Node9</title>
<g id="a_node9"><a xlink:title=" ">
<polygon fill="white" stroke="black" points="141,-15.5 141,-34.5 206,-34.5 206,-15.5 141,-15.5"/>
<text text-anchor="middle" x="173.5" y="-22.5" font-family="Helvetica,sans-Serif" font-size="10.00">std::string</text>
</a>
</g>
</g>
<!-- Node9&#45;&gt;Node8 -->
<g id="edge8" class="edge">
<title>Node9&#45;&gt;Node8</title>
<path fill="none" stroke="#9a32cd" stroke-dasharray="5,2" d="M216.47,-30.57C249.43,-34.95 295.77,-41.1 332.7,-46"/>
<polygon fill="#9a32cd" stroke="#9a32cd" points="216.65,-27.06 206.27,-29.22 215.72,-34 216.65,-27.06"/>
<text text-anchor="middle" x="269.5" y="-57" font-family="Helvetica,sans-Serif" font-size="10.00"> bind_address</text>
<text text-anchor="middle" x="269.5" y="-46" font-family="Helvetica,sans-Serif" font-size="10.00">published_address</text>
</g>
<!-- Node9&#45;&gt;Node11 -->
<g id="edge11" class="edge">
<title>Node9&#45;&gt;Node11</title>
<path fill="none" stroke="#9a32cd" stroke-dasharray="5,2" d="M216.37,-22.73C248.31,-21.1 293.42,-19.02 333,-18 403.21,-16.2 483.4,-15.8 539.73,-15.79"/>
<polygon fill="#9a32cd" stroke="#9a32cd" points="215.87,-19.25 206.06,-23.26 216.23,-26.24 215.87,-19.25"/>
<text text-anchor="middle" x="394" y="-21" font-family="Helvetica,sans-Serif" font-size="10.00"> keys</text>
</g>
<!-- Node10 -->
<g id="node10" class="node">
<title>Node10</title>
<g id="a_node10"><a xlink:title=" ">
<polygon fill="white" stroke="black" points="0,-10 0,-40 104,-40 104,-10 0,-10"/>
<text text-anchor="start" x="8" y="-28" font-family="Helvetica,sans-Serif" font-size="10.00">std::basic_string&lt;</text>
<text text-anchor="middle" x="52" y="-17" font-family="Helvetica,sans-Serif" font-size="10.00"> Char &gt;</text>
</a>
</g>
</g>
<!-- Node10&#45;&gt;Node9 -->
<g id="edge9" class="edge">
<title>Node10&#45;&gt;Node9</title>
<path fill="none" stroke="midnightblue" d="M114.1,-25C123.41,-25 132.68,-25 141,-25"/>
<polygon fill="midnightblue" stroke="midnightblue" points="114.03,-21.5 104.03,-25 114.03,-28.5 114.03,-21.5"/>
</g>
<!-- Node11&#45;&gt;Node7 -->
<g id="edge10" class="edge">
<title>Node11&#45;&gt;Node7</title>
<path fill="none" stroke="#9a32cd" stroke-dasharray="5,2" d="M696.37,-24.58C728.31,-27.91 764.44,-31.68 794.93,-34.85"/>
<polygon fill="#9a32cd" stroke="#9a32cd" points="696.47,-21.08 686.17,-23.52 695.75,-28.04 696.47,-21.08"/>
<text text-anchor="middle" x="740.5" y="-36" font-family="Helvetica,sans-Serif" font-size="10.00"> rpc_interfaces</text>
</g>
<!-- Node12 -->
<g id="node12" class="node">
<title>Node12</title>
<g id="a_node12"><a xlink:href="structccf_1_1TxID.html" target="_top" xlink:title=" ">
<polygon fill="white" stroke="black" points="1055,-0.5 1055,-19.5 1114,-19.5 1114,-0.5 1055,-0.5"/>
<text text-anchor="middle" x="1084.5" y="-7.5" font-family="Helvetica,sans-Serif" font-size="10.00">ccf::TxID</text>
</a>
</g>
</g>
<!-- Node12&#45;&gt;Node1 -->
<g id="edge13" class="edge">
<title>Node12&#45;&gt;Node1</title>
<path fill="none" stroke="#9a32cd" stroke-dasharray="5,2" d="M1124.18,-11.17C1171.54,-13.48 1253.73,-20.39 1321,-41 1344.22,-48.11 1368.76,-60.77 1386.34,-70.85"/>
<polygon fill="#9a32cd" stroke="#9a32cd" points="1124.2,-7.67 1114.06,-10.72 1123.89,-14.66 1124.2,-7.67"/>
<text text-anchor="middle" x="1256.5" y="-44" font-family="Helvetica,sans-Serif" font-size="10.00"> create_txid</text>
</g>
</g>
</svg>
        <g id="navigator" transform="translate(0 0)" fill="#404254">
                <rect fill="#f2f5e9" fill-opacity="0.5" stroke="#606060" stroke-width=".5" x="0" y="0" width="60" height="60"/>
                <use id="zoomplus" xlink:href="#zoomPlus" x="17" y="9" onmousedown="handleZoom(evt,'in')"/>
                <use id="zoomminus" xlink:href="#zoomMin" x="42" y="9" onmousedown="handleZoom(evt,'out')"/>
                <use id="reset" xlink:href="#resetDef" x="30" y="36" onmousedown="handleReset()"/>
                <g id="arrowUp" xlink:href="#dirArrow" transform="translate(30 24)" onmousedown="handlePan(0,-1)">
                  <use xlink:href="#rim" fill="#404040">
                        <set attributeName="fill" to="#808080" begin="arrowUp.mouseover" end="arrowUp.mouseout"/>
                  </use>
                  <path fill="none" stroke="white" stroke-width="1.5" d="M0,-3.0v7 M-2.5,-0.5L0,-3.0L2.5,-0.5"/>
                </g>
                <g id="arrowRight" xlink:href="#dirArrow" transform="rotate(90) translate(36 -43)" onmousedown="handlePan(1,0)">
                  <use xlink:href="#rim" fill="#404040">
                        <set attributeName="fill" to="#808080" begin="arrowRight.mouseover" end="arrowRight.mouseout"/>
                  </use>
                  <path fill="none" stroke="white" stroke-width="1.5" d="M0,-3.0v7 M-2.5,-0.5L0,-3.0L2.5,-0.5"/>
                </g>
                <g id="arrowDown" xlink:href="#dirArrow" transform="rotate(180) translate(-30 -48)" onmousedown="handlePan(0,1)">
                  <use xlink:href="#rim" fill="#404040">
                        <set attributeName="fill" to="#808080" begin="arrowDown.mouseover" end="arrowDown.mouseout"/>
                  </use>
                  <path fill="none" stroke="white" stroke-width="1.5" d="M0,-3.0v7 M-2.5,-0.5L0,-3.0L2.5,-0.5"/>
                </g>
                <g id="arrowLeft" xlink:href="#dirArrow" transform="rotate(270) translate(-36 17)" onmousedown="handlePan(-1,0)">
                  <use xlink:href="#rim" fill="#404040">
                        <set attributeName="fill" to="#808080" begin="arrowLeft.mouseover" end="arrowLeft.mouseout"/>
                  </use>
                  <path fill="none" stroke="white" stroke-width="1.5" d="M0,-3.0v7 M-2.5,-0.5L0,-3.0L2.5,-0.5"/>
                </g>
        </g>
        <svg viewBox="0 0 15 15" width="100%" height="30px" preserveAspectRatio="xMaxYMin meet">
         <g id="arrow_out" transform="scale(0.3 0.3)">
          <a xlink:href="structccf_1_1CreateNetworkNodeToNode_1_1In__coll__graph_org.svg" target="_base">
           <rect id="button" ry="5" rx="5" y="6" x="6" height="38" width="38"
                fill="#f2f5e9" fill-opacity="0.5" stroke="#606060" stroke-width="1.0"/>
           <path id="arrow"
             d="M 11.500037,31.436501 C 11.940474,20.09759 22.043105,11.32322 32.158766,21.979434 L 37.068811,17.246167 C 37.068811,17.246167 37.088388,32 37.088388,32 L 22.160133,31.978069 C 22.160133,31.978069 26.997745,27.140456 26.997745,27.140456 C 18.528582,18.264221 13.291696,25.230495 11.500037,31.436501 z"
             style="fill:#404040;"/>
          </a>
         </g>
        </svg>
</svg>
