<?xml version="1.0" encoding="UTF-8" standalone="no"?>
<!DOCTYPE svg PUBLIC "-//W3C//DTD SVG 1.1//EN"
 "http://www.w3.org/Graphics/SVG/1.1/DTD/svg11.dtd">
<!-- Generated by graphviz version 2.43.0 (0)
 -->
<!-- Title: ccf::indexing::strategies::SeqnosByKey_Bucketed_Untyped::Impl Pages: 1 -->
<!--zoomable 252 -->
<svg id="main" version="1.1" xmlns="http://www.w3.org/2000/svg" xmlns:xlink="http://www.w3.org/1999/xlink" xml:space="preserve" onload="init(evt)">
<style type="text/css"><![CDATA[
.edge:hover path { stroke: red; }
.edge:hover polygon { stroke: red; fill: red; }
]]></style>
<script type="text/javascript"><![CDATA[
var edges = document.getElementsByTagName('g');
if (edges && edges.length) {
  for (var i=0;i<edges.length;i++) {
    if (edges[i].id.substr(0,4)=='edge') {
      edges[i].setAttribute('class','edge');
    }
  }
}
]]></script>
        <defs>
                <circle id="rim" cx="0" cy="0" r="7"/>
                <circle id="rim2" cx="0" cy="0" r="3.5"/>
                <g id="zoomPlus">
                        <use xlink:href="#rim" fill="#404040">
                                <set attributeName="fill" to="#808080" begin="zoomplus.mouseover" end="zoomplus.mouseout"/>
                        </use>
                        <path d="M-4,0h8M0,-4v8" fill="none" stroke="white" stroke-width="1.5" pointer-events="none"/>
                </g>
                <g id="zoomMin">
                        <use xlink:href="#rim" fill="#404040">
                                <set attributeName="fill" to="#808080" begin="zoomminus.mouseover" end="zoomminus.mouseout"/>
                        </use>
                        <path d="M-4,0h8" fill="none" stroke="white" stroke-width="1.5" pointer-events="none"/>
                </g>
                <g id="dirArrow">
                        <path fill="none" stroke="white" stroke-width="1.5" d="M0,-3.0v7 M-2.5,-0.5L0,-3.0L2.5,-0.5"/>
                </g>
               <g id="resetDef">
                       <use xlink:href="#rim2" fill="#404040">
                               <set attributeName="fill" to="#808080" begin="reset.mouseover" end="reset.mouseout"/>
                       </use>
               </g>
        </defs>

<script type="text/javascript">
var viewWidth = 858;
var viewHeight = 252;
var sectionId = 'dynsection-0';
</script>
<script xlink:href="svgpan.js"/>
<svg id="graph" class="graph">
<g id="viewport">
<title>ccf::indexing::strategies::SeqnosByKey_Bucketed_Untyped::Impl</title>
<polygon fill="white" stroke="transparent" points="-4,4 -4,-248 854,-248 854,4 -4,4"/>
<!-- Node1 -->
<g id="node1" class="node">
<title>Node1</title>
<g id="a_node1"><a xlink:title=" ">
<polygon fill="#bfbfbf" stroke="black" points="711,-98.5 711,-139.5 850,-139.5 850,-98.5 711,-98.5"/>
<text text-anchor="start" x="719" y="-127.5" font-family="Helvetica,sans-Serif" font-size="10.00">ccf::indexing::strategies</text>
<text text-anchor="start" x="719" y="-116.5" font-family="Helvetica,sans-Serif" font-size="10.00">::SeqnosByKey_Bucketed</text>
<text text-anchor="middle" x="780.5" y="-105.5" font-family="Helvetica,sans-Serif" font-size="10.00">_Untyped::Impl</text>
</a>
</g>
</g>
<!-- Node2 -->
<g id="node2" class="node">
<title>Node2</title>
<g id="a_node2"><a xlink:title=" ">
<polygon fill="white" stroke="black" points="439.5,-202.5 439.5,-243.5 582.5,-243.5 582.5,-202.5 439.5,-202.5"/>
<text text-anchor="start" x="447.5" y="-231.5" font-family="Helvetica,sans-Serif" font-size="10.00">std::unordered_map</text>
<text text-anchor="start" x="447.5" y="-220.5" font-family="Helvetica,sans-Serif" font-size="10.00">&lt; ccf::ByteVector, Current</text>
<text text-anchor="middle" x="511" y="-209.5" font-family="Helvetica,sans-Serif" font-size="10.00">Result &gt;</text>
</a>
</g>
</g>
<!-- Node2&#45;&gt;Node1 -->
<g id="edge1" class="edge">
<title>Node2&#45;&gt;Node1</title>
<path fill="none" stroke="#9a32cd" stroke-dasharray="5,2" d="M592.58,-206.04C624.56,-197.96 661.22,-186.96 693,-173 713.42,-164.03 734.7,-150.81 751.04,-139.69"/>
<polygon fill="#9a32cd" stroke="#9a32cd" points="591.68,-202.66 582.81,-208.46 593.36,-209.45 591.68,-202.66"/>
<text text-anchor="middle" x="655" y="-201" font-family="Helvetica,sans-Serif" font-size="10.00"> current_results</text>
</g>
<!-- Node3 -->
<g id="node3" class="node">
<title>Node3</title>
<g id="a_node3"><a xlink:href="classLRU.html" target="_top" xlink:title=" ">
<polygon fill="white" stroke="black" points="423,-164.5 423,-183.5 599,-183.5 599,-164.5 423,-164.5"/>
<text text-anchor="middle" x="511" y="-171.5" font-family="Helvetica,sans-Serif" font-size="10.00">LRU&lt; BucketKey, BucketValue &gt;</text>
</a>
</g>
</g>
<!-- Node3&#45;&gt;Node1 -->
<g id="edge2" class="edge">
<title>Node3&#45;&gt;Node1</title>
<path fill="none" stroke="#9a32cd" stroke-dasharray="5,2" d="M591.26,-162.92C623.05,-157.94 659.92,-151.49 693,-144 698.95,-142.65 705.09,-141.14 711.23,-139.53"/>
<polygon fill="#9a32cd" stroke="#9a32cd" points="590.48,-159.5 581.13,-164.49 591.54,-166.42 590.48,-159.5"/>
<text text-anchor="middle" x="655" y="-161" font-family="Helvetica,sans-Serif" font-size="10.00"> old_results</text>
</g>
<!-- Node4 -->
<g id="node4" class="node">
<title>Node4</title>
<g id="a_node4"><a xlink:title=" ">
<polygon fill="white" stroke="black" points="476.5,-126.5 476.5,-145.5 545.5,-145.5 545.5,-126.5 476.5,-126.5"/>
<text text-anchor="middle" x="511" y="-133.5" font-family="Helvetica,sans-Serif" font-size="10.00">std::mutex</text>
</a>
</g>
</g>
<!-- Node4&#45;&gt;Node1 -->
<g id="edge3" class="edge">
<title>Node4&#45;&gt;Node1</title>
<path fill="none" stroke="#9a32cd" stroke-dasharray="5,2" d="M555.8,-133.22C597.85,-130.54 662,-126.47 710.84,-123.36"/>
<polygon fill="#9a32cd" stroke="#9a32cd" points="555.37,-129.74 545.61,-133.86 555.81,-136.72 555.37,-129.74"/>
<text text-anchor="middle" x="655" y="-132" font-family="Helvetica,sans-Serif" font-size="10.00"> results_access</text>
</g>
<!-- Node5 -->
<g id="node5" class="node">
<title>Node5</title>
<g id="a_node5"><a xlink:title=" ">
<polygon fill="white" stroke="black" points="478.5,-88.5 478.5,-107.5 543.5,-107.5 543.5,-88.5 478.5,-88.5"/>
<text text-anchor="middle" x="511" y="-95.5" font-family="Helvetica,sans-Serif" font-size="10.00">std::string</text>
</a>
</g>
</g>
<!-- Node5&#45;&gt;Node1 -->
<g id="edge4" class="edge">
<title>Node5&#45;&gt;Node1</title>
<path fill="none" stroke="#9a32cd" stroke-dasharray="5,2" d="M554.08,-99.91C590.79,-101.73 645.48,-104.81 693,-109 698.72,-109.5 704.65,-110.08 710.6,-110.69"/>
<polygon fill="#9a32cd" stroke="#9a32cd" points="553.91,-96.4 543.75,-99.41 553.57,-103.39 553.91,-96.4"/>
<text text-anchor="middle" x="655" y="-112" font-family="Helvetica,sans-Serif" font-size="10.00"> name</text>
</g>
<!-- Node6 -->
<g id="node6" class="node">
<title>Node6</title>
<g id="a_node6"><a xlink:title=" ">
<polygon fill="white" stroke="black" points="230,-83 230,-113 334,-113 334,-83 230,-83"/>
<text text-anchor="start" x="238" y="-101" font-family="Helvetica,sans-Serif" font-size="10.00">std::basic_string&lt;</text>
<text text-anchor="middle" x="282" y="-90" font-family="Helvetica,sans-Serif" font-size="10.00"> Char &gt;</text>
</a>
</g>
</g>
<!-- Node6&#45;&gt;Node5 -->
<g id="edge5" class="edge">
<title>Node6&#45;&gt;Node5</title>
<path fill="none" stroke="midnightblue" d="M344.35,-98C387.56,-98 443.64,-98 478.21,-98"/>
<polygon fill="midnightblue" stroke="midnightblue" points="344.23,-94.5 334.23,-98 344.23,-101.5 344.23,-94.5"/>
</g>
<!-- Node7 -->
<g id="node7" class="node">
<title>Node7</title>
<g id="a_node7"><a xlink:title=" ">
<polygon fill="white" stroke="black" points="424.5,-39 424.5,-69 597.5,-69 597.5,-39 424.5,-39"/>
<text text-anchor="start" x="432.5" y="-57" font-family="Helvetica,sans-Serif" font-size="10.00">std::shared_ptr&lt; ccf</text>
<text text-anchor="middle" x="511" y="-46" font-family="Helvetica,sans-Serif" font-size="10.00">::indexing::AbstractLFSAccess &gt;</text>
</a>
</g>
</g>
<!-- Node7&#45;&gt;Node1 -->
<g id="edge6" class="edge">
<title>Node7&#45;&gt;Node1</title>
<path fill="none" stroke="#9a32cd" stroke-dasharray="5,2" d="M607.88,-69.08C635.55,-74.23 665.65,-80.58 693,-88 703.93,-90.97 715.45,-94.67 726.4,-98.48"/>
<polygon fill="#9a32cd" stroke="#9a32cd" points="608.27,-65.6 597.8,-67.25 607.01,-72.48 608.27,-65.6"/>
<text text-anchor="middle" x="655" y="-91" font-family="Helvetica,sans-Serif" font-size="10.00"> lfs_access</text>
</g>
<!-- Node8 -->
<g id="node8" class="node">
<title>Node8</title>
<g id="a_node8"><a xlink:href="classccf_1_1indexing_1_1AbstractLFSAccess.html" target="_top" xlink:title=" ">
<polygon fill="white" stroke="black" points="194,-44.5 194,-63.5 370,-63.5 370,-44.5 194,-44.5"/>
<text text-anchor="middle" x="282" y="-51.5" font-family="Helvetica,sans-Serif" font-size="10.00">ccf::indexing::AbstractLFSAccess</text>
</a>
</g>
</g>
<!-- Node8&#45;&gt;Node7 -->
<g id="edge7" class="edge">
<title>Node8&#45;&gt;Node7</title>
<path fill="none" stroke="#9a32cd" stroke-dasharray="5,2" d="M380.19,-54C394.84,-54 409.86,-54 424.24,-54"/>
<polygon fill="#9a32cd" stroke="#9a32cd" points="380.11,-50.5 370.11,-54 380.11,-57.5 380.11,-50.5"/>
<text text-anchor="middle" x="396.5" y="-57" font-family="Helvetica,sans-Serif" font-size="10.00"> ptr</text>
</g>
<!-- Node9 -->
<g id="node9" class="node">
<title>Node9</title>
<g id="a_node9"><a xlink:href="classccf_1_1AbstractNodeSubSystem.html" target="_top" xlink:title=" ">
<polygon fill="white" stroke="black" points="0,-44.5 0,-63.5 157,-63.5 157,-44.5 0,-44.5"/>
<text text-anchor="middle" x="78.5" y="-51.5" font-family="Helvetica,sans-Serif" font-size="10.00">ccf::AbstractNodeSubSystem</text>
</a>
</g>
</g>
<!-- Node9&#45;&gt;Node8 -->
<g id="edge8" class="edge">
<title>Node9&#45;&gt;Node8</title>
<path fill="none" stroke="midnightblue" d="M167.31,-54C176.06,-54 184.95,-54 193.69,-54"/>
<polygon fill="midnightblue" stroke="midnightblue" points="167.12,-50.5 157.12,-54 167.12,-57.5 167.12,-50.5"/>
</g>
<!-- Node10 -->
<g id="node10" class="node">
<title>Node10</title>
<g id="a_node10"><a xlink:href="structccf_1_1TxID.html" target="_top" xlink:title=" ">
<polygon fill="white" stroke="black" points="481.5,-0.5 481.5,-19.5 540.5,-19.5 540.5,-0.5 481.5,-0.5"/>
<text text-anchor="middle" x="511" y="-7.5" font-family="Helvetica,sans-Serif" font-size="10.00">ccf::TxID</text>
</a>
</g>
</g>
<!-- Node10&#45;&gt;Node1 -->
<g id="edge9" class="edge">
<title>Node10&#45;&gt;Node1</title>
<path fill="none" stroke="#9a32cd" stroke-dasharray="5,2" d="M550.61,-15.11C588.38,-21.16 646.8,-33.42 693,-56 716.03,-67.26 739.37,-84.69 755.99,-98.36"/>
<polygon fill="#9a32cd" stroke="#9a32cd" points="550.95,-11.62 540.53,-13.56 549.88,-18.53 550.95,-11.62"/>
<text text-anchor="middle" x="655" y="-59" font-family="Helvetica,sans-Serif" font-size="10.00"> current_txid</text>
</g>
</g>
</svg>
        <g id="navigator" transform="translate(0 0)" fill="#404254">
                <rect fill="#f2f5e9" fill-opacity="0.5" stroke="#606060" stroke-width=".5" x="0" y="0" width="60" height="60"/>
                <use id="zoomplus" xlink:href="#zoomPlus" x="17" y="9" onmousedown="handleZoom(evt,'in')"/>
                <use id="zoomminus" xlink:href="#zoomMin" x="42" y="9" onmousedown="handleZoom(evt,'out')"/>
                <use id="reset" xlink:href="#resetDef" x="30" y="36" onmousedown="handleReset()"/>
                <g id="arrowUp" xlink:href="#dirArrow" transform="translate(30 24)" onmousedown="handlePan(0,-1)">
                  <use xlink:href="#rim" fill="#404040">
                        <set attributeName="fill" to="#808080" begin="arrowUp.mouseover" end="arrowUp.mouseout"/>
                  </use>
                  <path fill="none" stroke="white" stroke-width="1.5" d="M0,-3.0v7 M-2.5,-0.5L0,-3.0L2.5,-0.5"/>
                </g>
                <g id="arrowRight" xlink:href="#dirArrow" transform="rotate(90) translate(36 -43)" onmousedown="handlePan(1,0)">
                  <use xlink:href="#rim" fill="#404040">
                        <set attributeName="fill" to="#808080" begin="arrowRight.mouseover" end="arrowRight.mouseout"/>
                  </use>
                  <path fill="none" stroke="white" stroke-width="1.5" d="M0,-3.0v7 M-2.5,-0.5L0,-3.0L2.5,-0.5"/>
                </g>
                <g id="arrowDown" xlink:href="#dirArrow" transform="rotate(180) translate(-30 -48)" onmousedown="handlePan(0,1)">
                  <use xlink:href="#rim" fill="#404040">
                        <set attributeName="fill" to="#808080" begin="arrowDown.mouseover" end="arrowDown.mouseout"/>
                  </use>
                  <path fill="none" stroke="white" stroke-width="1.5" d="M0,-3.0v7 M-2.5,-0.5L0,-3.0L2.5,-0.5"/>
                </g>
                <g id="arrowLeft" xlink:href="#dirArrow" transform="rotate(270) translate(-36 17)" onmousedown="handlePan(-1,0)">
                  <use xlink:href="#rim" fill="#404040">
                        <set attributeName="fill" to="#808080" begin="arrowLeft.mouseover" end="arrowLeft.mouseout"/>
                  </use>
                  <path fill="none" stroke="white" stroke-width="1.5" d="M0,-3.0v7 M-2.5,-0.5L0,-3.0L2.5,-0.5"/>
                </g>
        </g>
        <svg viewBox="0 0 15 15" width="100%" height="30px" preserveAspectRatio="xMaxYMin meet">
         <g id="arrow_out" transform="scale(0.3 0.3)">
          <a xlink:href="structccf_1_1indexing_1_1strategies_1_1SeqnosByKey__Bucketed__Untyped_1_1Impl__coll__graph_org.svg" target="_base">
           <rect id="button" ry="5" rx="5" y="6" x="6" height="38" width="38"
                fill="#f2f5e9" fill-opacity="0.5" stroke="#606060" stroke-width="1.0"/>
           <path id="arrow"
             d="M 11.500037,31.436501 C 11.940474,20.09759 22.043105,11.32322 32.158766,21.979434 L 37.068811,17.246167 C 37.068811,17.246167 37.088388,32 37.088388,32 L 22.160133,31.978069 C 22.160133,31.978069 26.997745,27.140456 26.997745,27.140456 C 18.528582,18.264221 13.291696,25.230495 11.500037,31.436501 z"
             style="fill:#404040;"/>
          </a>
         </g>
        </svg>
</svg>
