<?xml version="1.0" encoding="UTF-8" standalone="no"?>
<!DOCTYPE svg PUBLIC "-//W3C//DTD SVG 1.1//EN"
 "http://www.w3.org/Graphics/SVG/1.1/DTD/svg11.dtd">
<!-- Generated by graphviz version 2.43.0 (0)
 -->
<!-- Title: src/ds/thread_messaging.h Pages: 1 -->
<svg width="1028pt" height="252pt"
 viewBox="0.00 0.00 1028.00 252.00" xmlns="http://www.w3.org/2000/svg" xmlns:xlink="http://www.w3.org/1999/xlink">
<g id="graph0" class="graph" transform="scale(1 1) rotate(0) translate(4 248)">
<title>src/ds/thread_messaging.h</title>
<polygon fill="white" stroke="transparent" points="-4,4 -4,-248 1024,-248 1024,4 -4,4"/>
<!-- Node1 -->
<g id="node1" class="node">
<title>Node1</title>
<g id="a_node1"><a xlink:title=" ">
<polygon fill="#bfbfbf" stroke="black" points="475.5,-224.5 475.5,-243.5 622.5,-243.5 622.5,-224.5 475.5,-224.5"/>
<text text-anchor="middle" x="549" y="-231.5" font-family="Helvetica,sans-Serif" font-size="10.00">src/ds/thread_messaging.h</text>
</a>
</g>
</g>
<!-- Node2 -->
<g id="node2" class="node">
<title>Node2</title>
<g id="a_node2"><a xlink:href="ccf__assert_8h.html" target="_top" xlink:title=" ">
<polygon fill="white" stroke="black" points="403,-168.5 403,-187.5 495,-187.5 495,-168.5 403,-168.5"/>
<text text-anchor="middle" x="449" y="-175.5" font-family="Helvetica,sans-Serif" font-size="10.00">ccf/ccf_assert.h</text>
</a>
</g>
</g>
<!-- Node1&#45;&gt;Node2 -->
<g id="edge1" class="edge">
<title>Node1&#45;&gt;Node2</title>
<path fill="none" stroke="midnightblue" d="M532.93,-224.32C517.04,-215.74 492.49,-202.49 474.04,-192.52"/>
<polygon fill="midnightblue" stroke="midnightblue" points="475.49,-189.33 465.03,-187.65 472.16,-195.49 475.49,-189.33"/>
</g>
<!-- Node3 -->
<g id="node3" class="node">
<title>Node3</title>
<g id="a_node3"><a xlink:href="logger_8h.html" target="_top" xlink:title=" ">
<polygon fill="white" stroke="black" points="479.5,-112.5 479.5,-131.5 566.5,-131.5 566.5,-112.5 479.5,-112.5"/>
<text text-anchor="middle" x="523" y="-119.5" font-family="Helvetica,sans-Serif" font-size="10.00">ccf/ds/logger.h</text>
</a>
</g>
</g>
<!-- Node1&#45;&gt;Node3 -->
<g id="edge19" class="edge">
<title>Node1&#45;&gt;Node3</title>
<path fill="none" stroke="midnightblue" d="M546.96,-224.37C542.76,-206.62 533.08,-165.67 527.4,-141.6"/>
<polygon fill="midnightblue" stroke="midnightblue" points="530.74,-140.52 525.03,-131.59 523.92,-142.13 530.74,-140.52"/>
</g>
<!-- Node6 -->
<g id="node6" class="node">
<title>Node6</title>
<g id="a_node6"><a xlink:href="thread__ids_8h.html" target="_top" xlink:title=" ">
<polygon fill="white" stroke="black" points="181,-56.5 181,-75.5 289,-75.5 289,-56.5 181,-56.5"/>
<text text-anchor="middle" x="235" y="-63.5" font-family="Helvetica,sans-Serif" font-size="10.00">ccf/ds/thread_ids.h</text>
</a>
</g>
</g>
<!-- Node1&#45;&gt;Node6 -->
<g id="edge20" class="edge">
<title>Node1&#45;&gt;Node6</title>
<path fill="none" stroke="midnightblue" d="M503.61,-224.45C471.8,-217.36 428.91,-205.58 394,-188 336.44,-159.01 278.69,-108.37 251.33,-82.77"/>
<polygon fill="midnightblue" stroke="midnightblue" points="253.52,-80.02 243.85,-75.69 248.7,-85.1 253.52,-80.02"/>
</g>
<!-- Node18 -->
<g id="node18" class="node">
<title>Node18</title>
<g id="a_node18"><a xlink:title=" ">
<polygon fill="white" stroke="#bfbfbf" points="551,-168.5 551,-187.5 601,-187.5 601,-168.5 551,-168.5"/>
<text text-anchor="middle" x="576" y="-175.5" font-family="Helvetica,sans-Serif" font-size="10.00">atomic</text>
</a>
</g>
</g>
<!-- Node1&#45;&gt;Node18 -->
<g id="edge21" class="edge">
<title>Node1&#45;&gt;Node18</title>
<path fill="none" stroke="midnightblue" d="M553.46,-224.08C557.15,-216.69 562.52,-205.95 567.09,-196.81"/>
<polygon fill="midnightblue" stroke="midnightblue" points="570.28,-198.26 571.62,-187.75 564.02,-195.13 570.28,-198.26"/>
</g>
<!-- Node19 -->
<g id="node19" class="node">
<title>Node19</title>
<g id="a_node19"><a xlink:title=" ">
<polygon fill="white" stroke="#bfbfbf" points="619,-168.5 619,-187.5 669,-187.5 669,-168.5 619,-168.5"/>
<text text-anchor="middle" x="644" y="-175.5" font-family="Helvetica,sans-Serif" font-size="10.00">chrono</text>
</a>
</g>
</g>
<!-- Node1&#45;&gt;Node19 -->
<g id="edge22" class="edge">
<title>Node1&#45;&gt;Node19</title>
<path fill="none" stroke="midnightblue" d="M564.26,-224.32C579.22,-215.82 602.25,-202.73 619.73,-192.8"/>
<polygon fill="midnightblue" stroke="midnightblue" points="621.81,-195.64 628.77,-187.65 618.35,-189.55 621.81,-195.64"/>
</g>
<!-- Node20 -->
<g id="node20" class="node">
<title>Node20</title>
<g id="a_node20"><a xlink:title=" ">
<polygon fill="white" stroke="#bfbfbf" points="687.5,-168.5 687.5,-187.5 740.5,-187.5 740.5,-168.5 687.5,-168.5"/>
<text text-anchor="middle" x="714" y="-175.5" font-family="Helvetica,sans-Serif" font-size="10.00">cstddef</text>
</a>
</g>
</g>
<!-- Node1&#45;&gt;Node20 -->
<g id="edge23" class="edge">
<title>Node1&#45;&gt;Node20</title>
<path fill="none" stroke="midnightblue" d="M575.14,-224.44C603.02,-215.32 647.35,-200.81 678.4,-190.65"/>
<polygon fill="midnightblue" stroke="midnightblue" points="679.56,-193.95 687.98,-187.52 677.38,-187.3 679.56,-193.95"/>
</g>
<!-- Node2&#45;&gt;Node3 -->
<g id="edge2" class="edge">
<title>Node2&#45;&gt;Node3</title>
<path fill="none" stroke="midnightblue" d="M460.89,-168.32C472.15,-160.11 489.29,-147.6 502.71,-137.81"/>
<polygon fill="midnightblue" stroke="midnightblue" points="504.88,-140.56 510.89,-131.83 500.75,-134.9 504.88,-140.56"/>
</g>
<!-- Node4 -->
<g id="node4" class="node">
<title>Node4</title>
<g id="a_node4"><a xlink:href="enum__formatter_8h.html" target="_top" xlink:title=" ">
<polygon fill="white" stroke="black" points="884,-56.5 884,-75.5 1020,-75.5 1020,-56.5 884,-56.5"/>
<text text-anchor="middle" x="952" y="-63.5" font-family="Helvetica,sans-Serif" font-size="10.00">ccf/ds/enum_formatter.h</text>
</a>
</g>
</g>
<!-- Node3&#45;&gt;Node4 -->
<g id="edge3" class="edge">
<title>Node3&#45;&gt;Node4</title>
<path fill="none" stroke="midnightblue" d="M566.89,-115.47C639.17,-106.38 784.18,-88.12 874.17,-76.8"/>
<polygon fill="midnightblue" stroke="midnightblue" points="874.84,-80.24 884.32,-75.52 873.97,-73.29 874.84,-80.24"/>
</g>
<!-- Node5 -->
<g id="node5" class="node">
<title>Node5</title>
<g id="a_node5"><a xlink:title=" ">
<polygon fill="white" stroke="#bfbfbf" points="368.5,-0.5 368.5,-19.5 447.5,-19.5 447.5,-0.5 368.5,-0.5"/>
<text text-anchor="middle" x="408" y="-7.5" font-family="Helvetica,sans-Serif" font-size="10.00">fmt/format.h</text>
</a>
</g>
</g>
<!-- Node3&#45;&gt;Node5 -->
<g id="edge13" class="edge">
<title>Node3&#45;&gt;Node5</title>
<path fill="none" stroke="midnightblue" d="M479.38,-116.67C429.81,-110.75 353.51,-98.23 336,-76 319.85,-55.5 349.64,-36 375.66,-23.8"/>
<polygon fill="midnightblue" stroke="midnightblue" points="377.28,-26.91 384.99,-19.65 374.43,-20.52 377.28,-26.91"/>
</g>
<!-- Node3&#45;&gt;Node6 -->
<g id="edge5" class="edge">
<title>Node3&#45;&gt;Node6</title>
<path fill="none" stroke="midnightblue" d="M479.26,-112.8C428.74,-103.33 345.55,-87.73 290.52,-77.41"/>
<polygon fill="midnightblue" stroke="midnightblue" points="291.06,-73.95 280.58,-75.55 289.77,-80.83 291.06,-73.95"/>
</g>
<!-- Node12 -->
<g id="node12" class="node">
<title>Node12</title>
<g id="a_node12"><a xlink:title=" ">
<polygon fill="white" stroke="#bfbfbf" points="345.5,-56.5 345.5,-75.5 424.5,-75.5 424.5,-56.5 345.5,-56.5"/>
<text text-anchor="middle" x="385" y="-63.5" font-family="Helvetica,sans-Serif" font-size="10.00">fmt/chrono.h</text>
</a>
</g>
</g>
<!-- Node3&#45;&gt;Node12 -->
<g id="edge12" class="edge">
<title>Node3&#45;&gt;Node12</title>
<path fill="none" stroke="midnightblue" d="M501.13,-112.44C478.22,-103.48 442.02,-89.31 416.13,-79.18"/>
<polygon fill="midnightblue" stroke="midnightblue" points="417.35,-75.9 406.76,-75.52 414.8,-82.42 417.35,-75.9"/>
</g>
<!-- Node13 -->
<g id="node13" class="node">
<title>Node13</title>
<g id="a_node13"><a xlink:title=" ">
<polygon fill="white" stroke="#bfbfbf" points="442,-56.5 442,-75.5 502,-75.5 502,-56.5 442,-56.5"/>
<text text-anchor="middle" x="472" y="-63.5" font-family="Helvetica,sans-Serif" font-size="10.00">iostream</text>
</a>
</g>
</g>
<!-- Node3&#45;&gt;Node13 -->
<g id="edge14" class="edge">
<title>Node3&#45;&gt;Node13</title>
<path fill="none" stroke="midnightblue" d="M514.58,-112.08C507.15,-104.22 496.15,-92.57 487.19,-83.08"/>
<polygon fill="midnightblue" stroke="midnightblue" points="489.68,-80.62 480.26,-75.75 484.59,-85.42 489.68,-80.62"/>
</g>
<!-- Node14 -->
<g id="node14" class="node">
<title>Node14</title>
<g id="a_node14"><a xlink:title=" ">
<polygon fill="white" stroke="#bfbfbf" points="520,-56.5 520,-75.5 630,-75.5 630,-56.5 520,-56.5"/>
<text text-anchor="middle" x="575" y="-63.5" font-family="Helvetica,sans-Serif" font-size="10.00">nlohmann/json.hpp</text>
</a>
</g>
</g>
<!-- Node3&#45;&gt;Node14 -->
<g id="edge15" class="edge">
<title>Node3&#45;&gt;Node14</title>
<path fill="none" stroke="midnightblue" d="M531.59,-112.08C539.16,-104.22 550.38,-92.57 559.51,-83.08"/>
<polygon fill="midnightblue" stroke="midnightblue" points="562.16,-85.38 566.57,-75.75 557.12,-80.53 562.16,-85.38"/>
</g>
<!-- Node15 -->
<g id="node15" class="node">
<title>Node15</title>
<g id="a_node15"><a xlink:title=" ">
<polygon fill="white" stroke="#bfbfbf" points="648,-56.5 648,-75.5 704,-75.5 704,-56.5 648,-56.5"/>
<text text-anchor="middle" x="676" y="-63.5" font-family="Helvetica,sans-Serif" font-size="10.00">optional</text>
</a>
</g>
</g>
<!-- Node3&#45;&gt;Node15 -->
<g id="edge16" class="edge">
<title>Node3&#45;&gt;Node15</title>
<path fill="none" stroke="midnightblue" d="M547.24,-112.44C572.87,-103.4 613.49,-89.06 642.24,-78.92"/>
<polygon fill="midnightblue" stroke="midnightblue" points="643.61,-82.15 651.87,-75.52 641.28,-75.54 643.61,-82.15"/>
</g>
<!-- Node16 -->
<g id="node16" class="node">
<title>Node16</title>
<g id="a_node16"><a xlink:title=" ">
<polygon fill="white" stroke="#bfbfbf" points="722,-56.5 722,-75.5 778,-75.5 778,-56.5 722,-56.5"/>
<text text-anchor="middle" x="750" y="-63.5" font-family="Helvetica,sans-Serif" font-size="10.00">sstream</text>
</a>
</g>
</g>
<!-- Node3&#45;&gt;Node16 -->
<g id="edge17" class="edge">
<title>Node3&#45;&gt;Node16</title>
<path fill="none" stroke="midnightblue" d="M559.44,-112.44C595.68,-103.91 653.14,-90.34 711.9,-76.25"/>
<polygon fill="midnightblue" stroke="midnightblue" points="712.82,-79.63 721.72,-73.9 711.18,-72.83 712.82,-79.63"/>
</g>
<!-- Node17 -->
<g id="node17" class="node">
<title>Node17</title>
<g id="a_node17"><a xlink:title=" ">
<polygon fill="white" stroke="#bfbfbf" points="796.5,-56.5 796.5,-75.5 865.5,-75.5 865.5,-56.5 796.5,-56.5"/>
<text text-anchor="middle" x="831" y="-63.5" font-family="Helvetica,sans-Serif" font-size="10.00">type_traits</text>
</a>
</g>
</g>
<!-- Node3&#45;&gt;Node17 -->
<g id="edge18" class="edge">
<title>Node3&#45;&gt;Node17</title>
<path fill="none" stroke="midnightblue" d="M566.52,-114.03C616.92,-105.86 702.69,-91.65 786.49,-76.04"/>
<polygon fill="midnightblue" stroke="midnightblue" points="787.25,-79.46 796.43,-74.18 785.96,-72.58 787.25,-79.46"/>
</g>
<!-- Node4&#45;&gt;Node5 -->
<g id="edge4" class="edge">
<title>Node4&#45;&gt;Node5</title>
<path fill="none" stroke="midnightblue" d="M883.99,-56.97C880.95,-56.64 877.94,-56.31 875,-56 723.19,-39.82 543.34,-23.21 457.89,-15.47"/>
<polygon fill="midnightblue" stroke="midnightblue" points="457.97,-11.97 447.7,-14.55 457.34,-18.94 457.97,-11.97"/>
</g>
<!-- Node6&#45;&gt;Node5 -->
<g id="edge6" class="edge">
<title>Node6&#45;&gt;Node5</title>
<path fill="none" stroke="midnightblue" d="M262.41,-56.44C291.77,-47.28 338.52,-32.69 371.1,-22.52"/>
<polygon fill="midnightblue" stroke="midnightblue" points="372.21,-25.84 380.72,-19.52 370.13,-19.16 372.21,-25.84"/>
</g>
<!-- Node7 -->
<g id="node7" class="node">
<title>Node7</title>
<g id="a_node7"><a xlink:title=" ">
<polygon fill="white" stroke="#bfbfbf" points="0,-0.5 0,-19.5 86,-19.5 86,-0.5 0,-0.5"/>
<text text-anchor="middle" x="43" y="-7.5" font-family="Helvetica,sans-Serif" font-size="10.00">fmt/ostream.h</text>
</a>
</g>
</g>
<!-- Node6&#45;&gt;Node7 -->
<g id="edge7" class="edge">
<title>Node6&#45;&gt;Node7</title>
<path fill="none" stroke="midnightblue" d="M204.58,-56.44C171.72,-47.2 119.22,-32.44 83.03,-22.26"/>
<polygon fill="midnightblue" stroke="midnightblue" points="83.85,-18.85 73.28,-19.52 81.96,-25.59 83.85,-18.85"/>
</g>
<!-- Node8 -->
<g id="node8" class="node">
<title>Node8</title>
<g id="a_node8"><a xlink:title=" ">
<polygon fill="white" stroke="#bfbfbf" points="104.5,-0.5 104.5,-19.5 165.5,-19.5 165.5,-0.5 104.5,-0.5"/>
<text text-anchor="middle" x="135" y="-7.5" font-family="Helvetica,sans-Serif" font-size="10.00">fmt/std.h</text>
</a>
</g>
</g>
<!-- Node6&#45;&gt;Node8 -->
<g id="edge8" class="edge">
<title>Node6&#45;&gt;Node8</title>
<path fill="none" stroke="midnightblue" d="M218.93,-56.32C203.04,-47.74 178.49,-34.49 160.04,-24.52"/>
<polygon fill="midnightblue" stroke="midnightblue" points="161.49,-21.33 151.03,-19.65 158.16,-27.49 161.49,-21.33"/>
</g>
<!-- Node9 -->
<g id="node9" class="node">
<title>Node9</title>
<g id="a_node9"><a xlink:title=" ">
<polygon fill="white" stroke="#bfbfbf" points="184,-0.5 184,-19.5 228,-19.5 228,-0.5 184,-0.5"/>
<text text-anchor="middle" x="206" y="-7.5" font-family="Helvetica,sans-Serif" font-size="10.00">limits</text>
</a>
</g>
</g>
<!-- Node6&#45;&gt;Node9 -->
<g id="edge9" class="edge">
<title>Node6&#45;&gt;Node9</title>
<path fill="none" stroke="midnightblue" d="M230.21,-56.08C226.24,-48.69 220.47,-37.95 215.57,-28.81"/>
<polygon fill="midnightblue" stroke="midnightblue" points="218.51,-26.91 210.7,-19.75 212.35,-30.22 218.51,-26.91"/>
</g>
<!-- Node10 -->
<g id="node10" class="node">
<title>Node10</title>
<g id="a_node10"><a xlink:title=" ">
<polygon fill="white" stroke="#bfbfbf" points="246,-0.5 246,-19.5 284,-19.5 284,-0.5 246,-0.5"/>
<text text-anchor="middle" x="265" y="-7.5" font-family="Helvetica,sans-Serif" font-size="10.00">map</text>
</a>
</g>
</g>
<!-- Node6&#45;&gt;Node10 -->
<g id="edge10" class="edge">
<title>Node6&#45;&gt;Node10</title>
<path fill="none" stroke="midnightblue" d="M239.95,-56.08C244.1,-48.61 250.15,-37.72 255.27,-28.52"/>
<polygon fill="midnightblue" stroke="midnightblue" points="258.34,-30.19 260.14,-19.75 252.22,-26.79 258.34,-30.19"/>
</g>
<!-- Node11 -->
<g id="node11" class="node">
<title>Node11</title>
<g id="a_node11"><a xlink:title=" ">
<polygon fill="white" stroke="#bfbfbf" points="302,-0.5 302,-19.5 350,-19.5 350,-0.5 302,-0.5"/>
<text text-anchor="middle" x="326" y="-7.5" font-family="Helvetica,sans-Serif" font-size="10.00">thread</text>
</a>
</g>
</g>
<!-- Node6&#45;&gt;Node11 -->
<g id="edge11" class="edge">
<title>Node6&#45;&gt;Node11</title>
<path fill="none" stroke="midnightblue" d="M249.62,-56.32C263.95,-47.82 286.01,-34.73 302.75,-24.8"/>
<polygon fill="midnightblue" stroke="midnightblue" points="304.6,-27.77 311.42,-19.65 301.03,-21.75 304.6,-27.77"/>
</g>
</g>
</svg>
