<?xml version="1.0" encoding="UTF-8" standalone="no"?>
<!DOCTYPE svg PUBLIC "-//W3C//DTD SVG 1.1//EN"
 "http://www.w3.org/Graphics/SVG/1.1/DTD/svg11.dtd">
<!-- Generated by graphviz version 2.43.0 (0)
 -->
<!-- Title: src/tls/tls.h Pages: 1 -->
<!--zoomable 1001 -->
<svg id="main" version="1.1" xmlns="http://www.w3.org/2000/svg" xmlns:xlink="http://www.w3.org/1999/xlink" xml:space="preserve" onload="init(evt)">
<style type="text/css"><![CDATA[
.edge:hover path { stroke: red; }
.edge:hover polygon { stroke: red; fill: red; }
]]></style>
<script type="text/javascript"><![CDATA[
var edges = document.getElementsByTagName('g');
if (edges && edges.length) {
  for (var i=0;i<edges.length;i++) {
    if (edges[i].id.substr(0,4)=='edge') {
      edges[i].setAttribute('class','edge');
    }
  }
}
]]></script>
        <defs>
                <circle id="rim" cx="0" cy="0" r="7"/>
                <circle id="rim2" cx="0" cy="0" r="3.5"/>
                <g id="zoomPlus">
                        <use xlink:href="#rim" fill="#404040">
                                <set attributeName="fill" to="#808080" begin="zoomplus.mouseover" end="zoomplus.mouseout"/>
                        </use>
                        <path d="M-4,0h8M0,-4v8" fill="none" stroke="white" stroke-width="1.5" pointer-events="none"/>
                </g>
                <g id="zoomMin">
                        <use xlink:href="#rim" fill="#404040">
                                <set attributeName="fill" to="#808080" begin="zoomminus.mouseover" end="zoomminus.mouseout"/>
                        </use>
                        <path d="M-4,0h8" fill="none" stroke="white" stroke-width="1.5" pointer-events="none"/>
                </g>
                <g id="dirArrow">
                        <path fill="none" stroke="white" stroke-width="1.5" d="M0,-3.0v7 M-2.5,-0.5L0,-3.0L2.5,-0.5"/>
                </g>
               <g id="resetDef">
                       <use xlink:href="#rim2" fill="#404040">
                               <set attributeName="fill" to="#808080" begin="reset.mouseover" end="reset.mouseout"/>
                       </use>
               </g>
        </defs>

<script type="text/javascript">
var viewWidth = 1104;
var viewHeight = 1001;
var sectionId = 'dynsection-1';
</script>
<script xlink:href="svgpan.js"/>
<svg id="graph" class="graph">
<g id="viewport">
<title>src/tls/tls.h</title>
<polygon fill="white" stroke="transparent" points="-4,4 -4,-997 1100,-997 1100,4 -4,4"/>
<!-- Node1 -->
<g id="node1" class="node">
<title>Node1</title>
<g id="a_node1"><a xlink:title=" ">
<polygon fill="#bfbfbf" stroke="black" points="680,-973.5 680,-992.5 750,-992.5 750,-973.5 680,-973.5"/>
<text text-anchor="middle" x="715" y="-980.5" font-family="Helvetica,sans-Serif" font-size="10.00">src/tls/tls.h</text>
</a>
</g>
</g>
<!-- Node2 -->
<g id="node2" class="node">
<title>Node2</title>
<g id="a_node2"><a xlink:href="tls__endpoint_8h.html" target="_top" xlink:title=" ">
<polygon fill="white" stroke="black" points="574,-861.5 574,-880.5 718,-880.5 718,-861.5 574,-861.5"/>
<text text-anchor="middle" x="646" y="-868.5" font-family="Helvetica,sans-Serif" font-size="10.00">src/enclave/tls_endpoint.h</text>
</a>
</g>
</g>
<!-- Node1&#45;&gt;Node2 -->
<g id="edge1" class="edge">
<title>Node1&#45;&gt;Node2</title>
<path fill="none" stroke="midnightblue" d="M704.11,-964.64C689.12,-940.74 662.7,-898.63 651.39,-880.59"/>
<polygon fill="midnightblue" stroke="midnightblue" points="701.31,-966.76 709.59,-973.37 707.24,-963.04 701.31,-966.76"/>
</g>
<!-- Node34 -->
<g id="node34" class="node">
<title>Node34</title>
<g id="a_node34"><a xlink:href="context_8h.html" target="_top" xlink:title=" ">
<polygon fill="white" stroke="black" points="717.5,-917.5 717.5,-936.5 812.5,-936.5 812.5,-917.5 717.5,-917.5"/>
<text text-anchor="middle" x="765" y="-924.5" font-family="Helvetica,sans-Serif" font-size="10.00">src/tls/context.h</text>
</a>
</g>
</g>
<!-- Node1&#45;&gt;Node34 -->
<g id="edge54" class="edge">
<title>Node1&#45;&gt;Node34</title>
<path fill="none" stroke="midnightblue" d="M730.08,-965.72C738.89,-956.2 749.67,-944.56 756.9,-936.75"/>
<polygon fill="midnightblue" stroke="midnightblue" points="727.48,-963.37 723.26,-973.08 732.62,-968.12 727.48,-963.37"/>
</g>
<!-- Node3 -->
<g id="node3" class="node">
<title>Node3</title>
<g id="a_node3"><a xlink:href="http__parser_8h.html" target="_top" xlink:title=" ">
<polygon fill="white" stroke="black" points="441,-749.5 441,-768.5 561,-768.5 561,-749.5 441,-749.5"/>
<text text-anchor="middle" x="501" y="-756.5" font-family="Helvetica,sans-Serif" font-size="10.00">src/http/http_parser.h</text>
</a>
</g>
</g>
<!-- Node2&#45;&gt;Node3 -->
<g id="edge2" class="edge">
<title>Node2&#45;&gt;Node3</title>
<path fill="none" stroke="midnightblue" d="M604.51,-858.14C584.37,-850.9 560.76,-840.1 543,-825 524.16,-808.99 510.71,-782.41 504.63,-768.73"/>
<polygon fill="midnightblue" stroke="midnightblue" points="603.48,-861.48 614.07,-861.4 605.74,-854.86 603.48,-861.48"/>
</g>
<!-- Node33 -->
<g id="node33" class="node">
<title>Node33</title>
<g id="a_node33"><a xlink:href="http__proc_8h.html" target="_top" xlink:title=" ">
<polygon fill="white" stroke="black" points="552.5,-805.5 552.5,-824.5 663.5,-824.5 663.5,-805.5 552.5,-805.5"/>
<text text-anchor="middle" x="608" y="-812.5" font-family="Helvetica,sans-Serif" font-size="10.00">src/http/http_proc.h</text>
</a>
</g>
</g>
<!-- Node2&#45;&gt;Node33 -->
<g id="edge52" class="edge">
<title>Node2&#45;&gt;Node33</title>
<path fill="none" stroke="midnightblue" d="M633.94,-852.86C627.36,-843.5 619.49,-832.33 614.16,-824.75"/>
<polygon fill="midnightblue" stroke="midnightblue" points="631.11,-854.92 639.73,-861.08 636.83,-850.89 631.11,-854.92"/>
</g>
<!-- Node4 -->
<g id="node4" class="node">
<title>Node4</title>
<g id="a_node4"><a xlink:href="rpc__tls__client_8h.html" target="_top" xlink:title=" ">
<polygon fill="white" stroke="black" points="47.5,-615.5 47.5,-645.5 148.5,-645.5 148.5,-615.5 47.5,-615.5"/>
<text text-anchor="start" x="55.5" y="-633.5" font-family="Helvetica,sans-Serif" font-size="10.00">src/clients/rpc_tls</text>
<text text-anchor="middle" x="98" y="-622.5" font-family="Helvetica,sans-Serif" font-size="10.00">_client.h</text>
</a>
</g>
</g>
<!-- Node3&#45;&gt;Node4 -->
<g id="edge3" class="edge">
<title>Node3&#45;&gt;Node4</title>
<path fill="none" stroke="midnightblue" d="M430.75,-754.58C373.48,-749.92 291.34,-738.93 224,-713 181.21,-696.52 137.7,-664.18 114.69,-645.58"/>
<polygon fill="midnightblue" stroke="midnightblue" points="430.55,-758.07 440.79,-755.35 431.09,-751.09 430.55,-758.07"/>
</g>
<!-- Node9 -->
<g id="node9" class="node">
<title>Node9</title>
<g id="a_node9"><a xlink:href="endpoint__registry_8cpp.html" target="_top" xlink:title=" ">
<polygon fill="white" stroke="black" points="432,-682.5 432,-712.5 560,-712.5 560,-682.5 432,-682.5"/>
<text text-anchor="start" x="440" y="-700.5" font-family="Helvetica,sans-Serif" font-size="10.00">src/endpoints/endpoint</text>
<text text-anchor="middle" x="496" y="-689.5" font-family="Helvetica,sans-Serif" font-size="10.00">_registry.cpp</text>
</a>
</g>
</g>
<!-- Node3&#45;&gt;Node9 -->
<g id="edge9" class="edge">
<title>Node3&#45;&gt;Node9</title>
<path fill="none" stroke="midnightblue" d="M499.42,-739.23C498.7,-730.59 497.85,-720.5 497.18,-712.52"/>
<polygon fill="midnightblue" stroke="midnightblue" points="495.96,-739.8 500.28,-749.48 502.93,-739.22 495.96,-739.8"/>
</g>
<!-- Node10 -->
<g id="node10" class="node">
<title>Node10</title>
<g id="a_node10"><a xlink:href="http__endpoint_8h.html" target="_top" xlink:title=" ">
<polygon fill="white" stroke="black" points="576.5,-559.5 576.5,-578.5 709.5,-578.5 709.5,-559.5 576.5,-559.5"/>
<text text-anchor="middle" x="643" y="-566.5" font-family="Helvetica,sans-Serif" font-size="10.00">src/http/http_endpoint.h</text>
</a>
</g>
</g>
<!-- Node3&#45;&gt;Node10 -->
<g id="edge10" class="edge">
<title>Node3&#45;&gt;Node10</title>
<path fill="none" stroke="midnightblue" d="M571.23,-749.44C618.77,-742.21 675.91,-730.26 693,-713 724,-681.69 728.45,-654.03 708,-615 698.95,-597.74 679.94,-585.78 664.81,-578.55"/>
<polygon fill="midnightblue" stroke="midnightblue" points="570.64,-745.99 561.25,-750.91 571.66,-752.91 570.64,-745.99"/>
</g>
<!-- Node24 -->
<g id="node24" class="node">
<title>Node24</title>
<g id="a_node24"><a xlink:href="http__jwt_8h.html" target="_top" xlink:title=" ">
<polygon fill="white" stroke="black" points="578.5,-688 578.5,-707 683.5,-707 683.5,-688 578.5,-688"/>
<text text-anchor="middle" x="631" y="-695" font-family="Helvetica,sans-Serif" font-size="10.00">src/http/http_jwt.h</text>
</a>
</g>
</g>
<!-- Node3&#45;&gt;Node24 -->
<g id="edge33" class="edge">
<title>Node3&#45;&gt;Node24</title>
<path fill="none" stroke="midnightblue" d="M529.02,-745.17C554.25,-733.63 590.61,-716.99 612.41,-707.01"/>
<polygon fill="midnightblue" stroke="midnightblue" points="527.26,-742.13 519.63,-749.48 530.18,-748.5 527.26,-742.13"/>
</g>
<!-- Node29 -->
<g id="node29" class="node">
<title>Node29</title>
<g id="a_node29"><a xlink:href="http__rpc__context_8h.html" target="_top" xlink:title=" ">
<polygon fill="white" stroke="black" points="339.5,-621 339.5,-640 486.5,-640 486.5,-621 339.5,-621"/>
<text text-anchor="middle" x="413" y="-628" font-family="Helvetica,sans-Serif" font-size="10.00">src/http/http_rpc_context.h</text>
</a>
</g>
</g>
<!-- Node3&#45;&gt;Node29 -->
<g id="edge42" class="edge">
<title>Node3&#45;&gt;Node29</title>
<path fill="none" stroke="midnightblue" d="M464.49,-745.44C449.22,-738.31 432.79,-727.79 423,-713 407.97,-690.3 409.8,-656.1 411.7,-640.2"/>
<polygon fill="midnightblue" stroke="midnightblue" points="463.2,-748.69 473.77,-749.45 465.98,-742.27 463.2,-748.69"/>
</g>
<!-- Node31 -->
<g id="node31" class="node">
<title>Node31</title>
<g id="a_node31"><a xlink:href="http__sig_8h.html" target="_top" xlink:title=" ">
<polygon fill="white" stroke="black" points="233,-688 233,-707 337,-707 337,-688 233,-688"/>
<text text-anchor="middle" x="285" y="-695" font-family="Helvetica,sans-Serif" font-size="10.00">src/http/http_sig.h</text>
</a>
</g>
</g>
<!-- Node3&#45;&gt;Node31 -->
<g id="edge48" class="edge">
<title>Node3&#45;&gt;Node31</title>
<path fill="none" stroke="midnightblue" d="M460.16,-746.75C418.19,-735.19 353.8,-717.45 315.89,-707.01"/>
<polygon fill="midnightblue" stroke="midnightblue" points="459.48,-750.19 470.05,-749.48 461.34,-743.44 459.48,-750.19"/>
</g>
<!-- Node5 -->
<g id="node5" class="node">
<title>Node5</title>
<g id="a_node5"><a xlink:href="perf__client_8h.html" target="_top" xlink:title=" ">
<polygon fill="white" stroke="black" points="36.5,-492.5 36.5,-522.5 147.5,-522.5 147.5,-492.5 36.5,-492.5"/>
<text text-anchor="start" x="44.5" y="-510.5" font-family="Helvetica,sans-Serif" font-size="10.00">src/clients/perf/perf</text>
<text text-anchor="middle" x="92" y="-499.5" font-family="Helvetica,sans-Serif" font-size="10.00">_client.h</text>
</a>
</g>
</g>
<!-- Node4&#45;&gt;Node5 -->
<g id="edge4" class="edge">
<title>Node4&#45;&gt;Node5</title>
<path fill="none" stroke="midnightblue" d="M123.36,-608.39C136.37,-594.86 148.14,-576.6 141,-559 135.08,-544.4 122.68,-531.69 111.84,-522.67"/>
<polygon fill="midnightblue" stroke="midnightblue" points="120.88,-605.92 116.11,-615.38 125.74,-610.96 120.88,-605.92"/>
</g>
<!-- Node8 -->
<g id="node8" class="node">
<title>Node8</title>
<g id="a_node8"><a xlink:href="timing_8h.html" target="_top" xlink:title=" ">
<polygon fill="white" stroke="black" points="0,-559.5 0,-578.5 132,-578.5 132,-559.5 0,-559.5"/>
<text text-anchor="middle" x="66" y="-566.5" font-family="Helvetica,sans-Serif" font-size="10.00">src/clients/perf/timing.h</text>
</a>
</g>
</g>
<!-- Node4&#45;&gt;Node8 -->
<g id="edge7" class="edge">
<title>Node4&#45;&gt;Node8</title>
<path fill="none" stroke="midnightblue" d="M85.63,-606.5C80.38,-596.74 74.58,-585.96 70.66,-578.66"/>
<polygon fill="midnightblue" stroke="midnightblue" points="82.6,-608.25 90.42,-615.4 88.76,-604.93 82.6,-608.25"/>
</g>
<!-- Node6 -->
<g id="node6" class="node">
<title>Node6</title>
<g id="a_node6"><a xlink:href="tpcc__client_8cpp.html" target="_top" xlink:title=" ">
<polygon fill="white" stroke="black" points="161,-425.5 161,-455.5 277,-455.5 277,-425.5 161,-425.5"/>
<text text-anchor="start" x="169" y="-443.5" font-family="Helvetica,sans-Serif" font-size="10.00">src/apps/tpcc/clients</text>
<text text-anchor="middle" x="219" y="-432.5" font-family="Helvetica,sans-Serif" font-size="10.00">/tpcc_client.cpp</text>
</a>
</g>
</g>
<!-- Node5&#45;&gt;Node6 -->
<g id="edge5" class="edge">
<title>Node5&#45;&gt;Node6</title>
<path fill="none" stroke="midnightblue" d="M128.7,-487.71C148.73,-477.46 173.12,-464.98 191.5,-455.58"/>
<polygon fill="midnightblue" stroke="midnightblue" points="126.86,-484.72 119.56,-492.4 130.05,-490.96 126.86,-484.72"/>
</g>
<!-- Node7 -->
<g id="node7" class="node">
<title>Node7</title>
<g id="a_node7"><a xlink:href="scenario__perf__client_8cpp.html" target="_top" xlink:title=" ">
<polygon fill="white" stroke="black" points="9.5,-425.5 9.5,-455.5 142.5,-455.5 142.5,-425.5 9.5,-425.5"/>
<text text-anchor="start" x="17.5" y="-443.5" font-family="Helvetica,sans-Serif" font-size="10.00">src/clients/perf/scenario</text>
<text text-anchor="middle" x="76" y="-432.5" font-family="Helvetica,sans-Serif" font-size="10.00">_perf_client.cpp</text>
</a>
</g>
</g>
<!-- Node5&#45;&gt;Node7 -->
<g id="edge6" class="edge">
<title>Node5&#45;&gt;Node7</title>
<path fill="none" stroke="midnightblue" d="M86.07,-482.4C83.84,-473.37 81.39,-463.41 79.46,-455.58"/>
<polygon fill="midnightblue" stroke="midnightblue" points="82.74,-483.52 88.53,-492.4 89.54,-481.85 82.74,-483.52"/>
</g>
<!-- Node8&#45;&gt;Node5 -->
<g id="edge8" class="edge">
<title>Node8&#45;&gt;Node5</title>
<path fill="none" stroke="midnightblue" d="M73.82,-550.1C77.68,-541.27 82.27,-530.77 85.87,-522.52"/>
<polygon fill="midnightblue" stroke="midnightblue" points="70.52,-548.91 69.73,-559.48 76.94,-551.71 70.52,-548.91"/>
</g>
<!-- Node11 -->
<g id="node11" class="node">
<title>Node11</title>
<g id="a_node11"><a xlink:href="rpc__sessions_8h.html" target="_top" xlink:title=" ">
<polygon fill="white" stroke="black" points="783,-498 783,-517 929,-517 929,-498 783,-498"/>
<text text-anchor="middle" x="856" y="-505" font-family="Helvetica,sans-Serif" font-size="10.00">src/enclave/rpc_sessions.h</text>
</a>
</g>
</g>
<!-- Node10&#45;&gt;Node11 -->
<g id="edge11" class="edge">
<title>Node10&#45;&gt;Node11</title>
<path fill="none" stroke="midnightblue" d="M683.28,-556.75C724.66,-545.19 788.16,-527.45 825.54,-517.01"/>
<polygon fill="midnightblue" stroke="midnightblue" points="682.21,-553.41 673.52,-559.48 684.09,-560.16 682.21,-553.41"/>
</g>
<!-- Node12 -->
<g id="node12" class="node">
<title>Node12</title>
<g id="a_node12"><a xlink:href="enclave_2enclave_8h.html" target="_top" xlink:title=" ">
<polygon fill="white" stroke="black" points="383,-56.5 383,-75.5 505,-75.5 505,-56.5 383,-56.5"/>
<text text-anchor="middle" x="444" y="-63.5" font-family="Helvetica,sans-Serif" font-size="10.00">src/enclave/enclave.h</text>
</a>
</g>
</g>
<!-- Node11&#45;&gt;Node12 -->
<g id="edge12" class="edge">
<title>Node11&#45;&gt;Node12</title>
<path fill="none" stroke="midnightblue" d="M936.2,-495.98C1005.98,-481.8 1096,-449.06 1096,-374.5 1096,-374.5 1096,-374.5 1096,-182.5 1096,-122.83 667.13,-83.98 505.05,-71.42"/>
<polygon fill="midnightblue" stroke="midnightblue" points="935.22,-492.61 926.06,-497.94 936.55,-499.48 935.22,-492.61"/>
</g>
<!-- Node14 -->
<g id="node14" class="node">
<title>Node14</title>
<g id="a_node14"><a xlink:href="node__client_8h.html" target="_top" xlink:title=" ">
<polygon fill="white" stroke="black" points="779,-431 779,-450 905,-450 905,-431 779,-431"/>
<text text-anchor="middle" x="842" y="-438" font-family="Helvetica,sans-Serif" font-size="10.00">src/node/node_client.h</text>
</a>
</g>
</g>
<!-- Node11&#45;&gt;Node14 -->
<g id="edge14" class="edge">
<title>Node11&#45;&gt;Node14</title>
<path fill="none" stroke="midnightblue" d="M852,-487.91C849.32,-475.49 845.92,-459.72 843.86,-450.13"/>
<polygon fill="midnightblue" stroke="midnightblue" points="848.58,-488.69 854.11,-497.73 855.43,-487.22 848.58,-488.69"/>
</g>
<!-- Node17 -->
<g id="node17" class="node">
<title>Node17</title>
<g id="a_node17"><a xlink:href="node__state_8h.html" target="_top" xlink:title=" ">
<polygon fill="white" stroke="black" points="590,-174 590,-193 714,-193 714,-174 590,-174"/>
<text text-anchor="middle" x="652" y="-181" font-family="Helvetica,sans-Serif" font-size="10.00">src/node/node_state.h</text>
</a>
</g>
</g>
<!-- Node11&#45;&gt;Node17 -->
<g id="edge30" class="edge">
<title>Node11&#45;&gt;Node17</title>
<path fill="none" stroke="midnightblue" d="M878.53,-491.99C890.74,-483.01 905.11,-470.46 914,-456 949.87,-397.69 954.34,-359.38 917,-302 872.32,-233.35 777.35,-204.5 714.08,-192.59"/>
<polygon fill="midnightblue" stroke="midnightblue" points="876.32,-489.26 870.13,-497.86 880.33,-495 876.32,-489.26"/>
</g>
<!-- Node23 -->
<g id="node23" class="node">
<title>Node23</title>
<g id="a_node23"><a xlink:href="resharing_8h.html" target="_top" xlink:title=" ">
<polygon fill="white" stroke="black" points="952,-241 952,-260 1068,-260 1068,-241 952,-241"/>
<text text-anchor="middle" x="1010" y="-248" font-family="Helvetica,sans-Serif" font-size="10.00">src/node/resharing.h</text>
</a>
</g>
</g>
<!-- Node11&#45;&gt;Node23 -->
<g id="edge31" class="edge">
<title>Node11&#45;&gt;Node23</title>
<path fill="none" stroke="midnightblue" d="M923.28,-495.14C946.6,-487.81 970.7,-475.77 986,-456 1033.47,-394.65 1017.71,-290.37 1011.8,-260.02"/>
<polygon fill="midnightblue" stroke="midnightblue" points="922,-491.86 913.36,-498 923.94,-498.59 922,-491.86"/>
</g>
<!-- Node13 -->
<g id="node13" class="node">
<title>Node13</title>
<g id="a_node13"><a xlink:href="enclave_2main_8cpp.html" target="_top" xlink:title=" ">
<polygon fill="white" stroke="black" points="384,-0.5 384,-19.5 504,-19.5 504,-0.5 384,-0.5"/>
<text text-anchor="middle" x="444" y="-7.5" font-family="Helvetica,sans-Serif" font-size="10.00">src/enclave/main.cpp</text>
</a>
</g>
</g>
<!-- Node12&#45;&gt;Node13 -->
<g id="edge13" class="edge">
<title>Node12&#45;&gt;Node13</title>
<path fill="none" stroke="midnightblue" d="M444,-45.8C444,-36.91 444,-26.78 444,-19.75"/>
<polygon fill="midnightblue" stroke="midnightblue" points="440.5,-46.08 444,-56.08 447.5,-46.08 440.5,-46.08"/>
</g>
<!-- Node15 -->
<g id="node15" class="node">
<title>Node15</title>
<g id="a_node15"><a xlink:href="orc__requests_8h.html" target="_top" xlink:title=" ">
<polygon fill="white" stroke="black" points="602.5,-358.5 602.5,-388.5 721.5,-388.5 721.5,-358.5 602.5,-358.5"/>
<text text-anchor="start" x="610.5" y="-376.5" font-family="Helvetica,sans-Serif" font-size="10.00">src/consensus/aft/orc</text>
<text text-anchor="middle" x="662" y="-365.5" font-family="Helvetica,sans-Serif" font-size="10.00">_requests.h</text>
</a>
</g>
</g>
<!-- Node14&#45;&gt;Node15 -->
<g id="edge15" class="edge">
<title>Node14&#45;&gt;Node15</title>
<path fill="none" stroke="midnightblue" d="M808.34,-427.35C777.83,-416.33 732.87,-400.09 700.85,-388.53"/>
<polygon fill="midnightblue" stroke="midnightblue" points="807.5,-430.76 818.1,-430.87 809.88,-424.18 807.5,-430.76"/>
</g>
<!-- Node16 -->
<g id="node16" class="node">
<title>Node16</title>
<g id="a_node16"><a xlink:href="raft_8h.html" target="_top" xlink:title=" ">
<polygon fill="white" stroke="black" points="778.5,-302.5 778.5,-321.5 907.5,-321.5 907.5,-302.5 778.5,-302.5"/>
<text text-anchor="middle" x="843" y="-309.5" font-family="Helvetica,sans-Serif" font-size="10.00">src/consensus/aft/raft.h</text>
</a>
</g>
</g>
<!-- Node14&#45;&gt;Node16 -->
<g id="edge25" class="edge">
<title>Node14&#45;&gt;Node16</title>
<path fill="none" stroke="midnightblue" d="M873.68,-426.28C889.13,-418.01 906.23,-405.73 915,-389 921.4,-376.8 921.68,-370.05 915,-358 905.14,-340.21 884.99,-328.52 868.5,-321.53"/>
<polygon fill="midnightblue" stroke="midnightblue" points="871.76,-423.32 864.36,-430.91 874.87,-429.59 871.76,-423.32"/>
</g>
<!-- Node21 -->
<g id="node21" class="node">
<title>Node21</title>
<g id="a_node21"><a xlink:href="http__node__client_8h.html" target="_top" xlink:title=" ">
<polygon fill="white" stroke="black" points="688,-235.5 688,-265.5 798,-265.5 798,-235.5 688,-235.5"/>
<text text-anchor="start" x="696" y="-253.5" font-family="Helvetica,sans-Serif" font-size="10.00">src/node/http_node</text>
<text text-anchor="middle" x="743" y="-242.5" font-family="Helvetica,sans-Serif" font-size="10.00">_client.h</text>
</a>
</g>
</g>
<!-- Node14&#45;&gt;Node21 -->
<g id="edge26" class="edge">
<title>Node14&#45;&gt;Node21</title>
<path fill="none" stroke="midnightblue" d="M812.78,-426.23C797.39,-417.74 779.57,-405.27 769,-389 743.58,-349.89 741.67,-292.1 742.3,-265.65"/>
<polygon fill="midnightblue" stroke="midnightblue" points="811.48,-429.49 821.96,-430.99 814.7,-423.28 811.48,-429.49"/>
</g>
<!-- Node22 -->
<g id="node22" class="node">
<title>Node22</title>
<g id="a_node22"><a xlink:href="retired__nodes__cleanup_8h.html" target="_top" xlink:title=" ">
<polygon fill="white" stroke="black" points="778,-358.5 778,-388.5 906,-388.5 906,-358.5 778,-358.5"/>
<text text-anchor="start" x="786" y="-376.5" font-family="Helvetica,sans-Serif" font-size="10.00">src/node/retired_nodes</text>
<text text-anchor="middle" x="842" y="-365.5" font-family="Helvetica,sans-Serif" font-size="10.00">_cleanup.h</text>
</a>
</g>
</g>
<!-- Node14&#45;&gt;Node22 -->
<g id="edge28" class="edge">
<title>Node14&#45;&gt;Node22</title>
<path fill="none" stroke="midnightblue" d="M842,-420.41C842,-410.22 842,-397.9 842,-388.59"/>
<polygon fill="midnightblue" stroke="midnightblue" points="838.5,-420.73 842,-430.73 845.5,-420.73 838.5,-420.73"/>
</g>
<!-- Node15&#45;&gt;Node16 -->
<g id="edge16" class="edge">
<title>Node15&#45;&gt;Node16</title>
<path fill="none" stroke="midnightblue" d="M714.57,-355.22C748.17,-344.17 790.29,-330.33 816.93,-321.57"/>
<polygon fill="midnightblue" stroke="midnightblue" points="713.3,-351.95 704.89,-358.4 715.49,-358.6 713.3,-351.95"/>
</g>
<!-- Node19 -->
<g id="node19" class="node">
<title>Node19</title>
<g id="a_node19"><a xlink:href="node__frontend_8h.html" target="_top" xlink:title=" ">
<polygon fill="white" stroke="black" points="428,-302.5 428,-321.5 586,-321.5 586,-302.5 428,-302.5"/>
<text text-anchor="middle" x="507" y="-309.5" font-family="Helvetica,sans-Serif" font-size="10.00">src/node/rpc/node_frontend.h</text>
</a>
</g>
</g>
<!-- Node15&#45;&gt;Node19 -->
<g id="edge21" class="edge">
<title>Node15&#45;&gt;Node19</title>
<path fill="none" stroke="midnightblue" d="M615.89,-354.8C587.4,-343.86 552.09,-330.31 529.55,-321.66"/>
<polygon fill="midnightblue" stroke="midnightblue" points="614.68,-358.08 625.27,-358.4 617.19,-351.55 614.68,-358.08"/>
</g>
<!-- Node16&#45;&gt;Node17 -->
<g id="edge17" class="edge">
<title>Node16&#45;&gt;Node17</title>
<path fill="none" stroke="midnightblue" d="M838.7,-292.38C833.81,-275.19 824.17,-250.11 807,-235 781.19,-212.28 744.96,-199.75 714.02,-192.86"/>
<polygon fill="midnightblue" stroke="midnightblue" points="835.39,-293.54 841.26,-302.35 842.17,-291.8 835.39,-293.54"/>
</g>
<!-- Node17&#45;&gt;Node12 -->
<g id="edge18" class="edge">
<title>Node17&#45;&gt;Node12</title>
<path fill="none" stroke="midnightblue" d="M651.07,-163.42C649.26,-147.47 644.15,-125.26 630,-112 612,-95.13 552.29,-82.69 505.33,-75.22"/>
<polygon fill="midnightblue" stroke="midnightblue" points="647.61,-164.02 651.89,-173.71 654.59,-163.46 647.61,-164.02"/>
</g>
<!-- Node18 -->
<g id="node18" class="node">
<title>Node18</title>
<g id="a_node18"><a xlink:href="gov__effects_8h.html" target="_top" xlink:title=" ">
<polygon fill="white" stroke="black" points="477,-112.5 477,-131.5 621,-131.5 621,-112.5 477,-112.5"/>
<text text-anchor="middle" x="549" y="-119.5" font-family="Helvetica,sans-Serif" font-size="10.00">src/node/rpc/gov_effects.h</text>
</a>
</g>
</g>
<!-- Node17&#45;&gt;Node18 -->
<g id="edge19" class="edge">
<title>Node17&#45;&gt;Node18</title>
<path fill="none" stroke="midnightblue" d="M628.46,-168.9C608.54,-157.4 580.62,-141.27 563.73,-131.51"/>
<polygon fill="midnightblue" stroke="midnightblue" points="626.83,-172 637.24,-173.98 630.33,-165.94 626.83,-172"/>
</g>
<!-- Node18&#45;&gt;Node12 -->
<g id="edge20" class="edge">
<title>Node18&#45;&gt;Node12</title>
<path fill="none" stroke="midnightblue" d="M523.19,-107.73C503.75,-97.73 477.65,-84.31 460.83,-75.65"/>
<polygon fill="midnightblue" stroke="midnightblue" points="521.64,-110.86 532.13,-112.32 524.84,-104.64 521.64,-110.86"/>
</g>
<!-- Node19&#45;&gt;Node12 -->
<g id="edge22" class="edge">
<title>Node19&#45;&gt;Node12</title>
<path fill="none" stroke="midnightblue" d="M499.02,-292.95C495.63,-284.82 491.81,-275.04 489,-266 466.6,-193.96 450.32,-104.03 445.49,-75.86"/>
<polygon fill="midnightblue" stroke="midnightblue" points="495.83,-294.38 502.99,-302.19 502.26,-291.62 495.83,-294.38"/>
</g>
<!-- Node20 -->
<g id="node20" class="node">
<title>Node20</title>
<g id="a_node20"><a xlink:href="jwt__key__auto__refresh_8h.html" target="_top" xlink:title=" ">
<polygon fill="white" stroke="black" points="498.5,-235.5 498.5,-265.5 623.5,-265.5 623.5,-235.5 498.5,-235.5"/>
<text text-anchor="start" x="506.5" y="-253.5" font-family="Helvetica,sans-Serif" font-size="10.00">src/node/jwt_key_auto</text>
<text text-anchor="middle" x="561" y="-242.5" font-family="Helvetica,sans-Serif" font-size="10.00">_refresh.h</text>
</a>
</g>
</g>
<!-- Node19&#45;&gt;Node20 -->
<g id="edge23" class="edge">
<title>Node19&#45;&gt;Node20</title>
<path fill="none" stroke="midnightblue" d="M521.69,-294.81C530.01,-285.65 540.3,-274.3 548.27,-265.52"/>
<polygon fill="midnightblue" stroke="midnightblue" points="518.87,-292.72 514.74,-302.48 524.05,-297.42 518.87,-292.72"/>
</g>
<!-- Node20&#45;&gt;Node17 -->
<g id="edge24" class="edge">
<title>Node20&#45;&gt;Node17</title>
<path fill="none" stroke="midnightblue" d="M589.27,-229.31C606.36,-217.1 627.25,-202.18 640.09,-193.01"/>
<polygon fill="midnightblue" stroke="midnightblue" points="586.85,-226.74 580.75,-235.4 590.92,-232.43 586.85,-226.74"/>
</g>
<!-- Node21&#45;&gt;Node17 -->
<g id="edge27" class="edge">
<title>Node21&#45;&gt;Node17</title>
<path fill="none" stroke="midnightblue" d="M714.73,-229.31C697.64,-217.1 676.75,-202.18 663.91,-193.01"/>
<polygon fill="midnightblue" stroke="midnightblue" points="713.08,-232.43 723.25,-235.4 717.15,-226.74 713.08,-232.43"/>
</g>
<!-- Node22&#45;&gt;Node16 -->
<g id="edge29" class="edge">
<title>Node22&#45;&gt;Node16</title>
<path fill="none" stroke="midnightblue" d="M842.41,-348.29C842.57,-338.86 842.74,-328.65 842.85,-321.66"/>
<polygon fill="midnightblue" stroke="midnightblue" points="838.91,-348.34 842.24,-358.4 845.9,-348.46 838.91,-348.34"/>
</g>
<!-- Node23&#45;&gt;Node17 -->
<g id="edge32" class="edge">
<title>Node23&#45;&gt;Node17</title>
<path fill="none" stroke="midnightblue" d="M958.54,-238.98C951.64,-237.62 944.65,-236.26 938,-235 855.63,-219.44 759.63,-202.79 702.44,-193.03"/>
<polygon fill="midnightblue" stroke="midnightblue" points="958.04,-242.45 968.53,-240.97 959.41,-235.59 958.04,-242.45"/>
</g>
<!-- Node25 -->
<g id="node25" class="node">
<title>Node25</title>
<g id="a_node25"><a xlink:href="jwt__auth_8cpp.html" target="_top" xlink:title=" ">
<polygon fill="white" stroke="black" points="543.5,-615.5 543.5,-645.5 698.5,-645.5 698.5,-615.5 543.5,-615.5"/>
<text text-anchor="start" x="551.5" y="-633.5" font-family="Helvetica,sans-Serif" font-size="10.00">src/endpoints/authentication</text>
<text text-anchor="middle" x="621" y="-622.5" font-family="Helvetica,sans-Serif" font-size="10.00">/jwt_auth.cpp</text>
</a>
</g>
</g>
<!-- Node24&#45;&gt;Node25 -->
<g id="edge34" class="edge">
<title>Node24&#45;&gt;Node25</title>
<path fill="none" stroke="midnightblue" d="M628.11,-677.74C626.54,-667.49 624.62,-655 623.17,-645.59"/>
<polygon fill="midnightblue" stroke="midnightblue" points="624.67,-678.38 629.65,-687.73 631.59,-677.32 624.67,-678.38"/>
</g>
<!-- Node26 -->
<g id="node26" class="node">
<title>Node26</title>
<g id="a_node26"><a xlink:href="frontend_8h.html" target="_top" xlink:title=" ">
<polygon fill="white" stroke="black" points="335.5,-364 335.5,-383 464.5,-383 464.5,-364 335.5,-364"/>
<text text-anchor="middle" x="400" y="-371" font-family="Helvetica,sans-Serif" font-size="10.00">src/node/rpc/frontend.h</text>
</a>
</g>
</g>
<!-- Node24&#45;&gt;Node26 -->
<g id="edge35" class="edge">
<title>Node24&#45;&gt;Node26</title>
<path fill="none" stroke="midnightblue" d="M590.99,-684.36C571.17,-676.43 548.45,-664.11 534,-646 470.64,-566.64 535.04,-507.62 476,-425 462,-405.41 437.83,-391.28 420.51,-383.03"/>
<polygon fill="midnightblue" stroke="midnightblue" points="589.84,-687.67 600.43,-687.91 592.3,-681.12 589.84,-687.67"/>
</g>
<!-- Node26&#45;&gt;Node17 -->
<g id="edge36" class="edge">
<title>Node26&#45;&gt;Node17</title>
<path fill="none" stroke="midnightblue" d="M402.25,-353.64C404.67,-338.79 409.52,-317.99 419,-302 440.97,-264.96 451.89,-256.84 489,-235 525.13,-213.74 571.12,-200.55 605.03,-193.01"/>
<polygon fill="midnightblue" stroke="midnightblue" points="398.77,-353.28 400.84,-363.67 405.7,-354.25 398.77,-353.28"/>
</g>
<!-- Node26&#45;&gt;Node19 -->
<g id="edge39" class="edge">
<title>Node26&#45;&gt;Node19</title>
<path fill="none" stroke="midnightblue" d="M424.18,-359.06C444.88,-347.54 474.07,-331.31 491.7,-321.51"/>
<polygon fill="midnightblue" stroke="midnightblue" points="422.37,-356.06 415.33,-363.98 425.77,-362.17 422.37,-356.06"/>
</g>
<!-- Node27 -->
<g id="node27" class="node">
<title>Node27</title>
<g id="a_node27"><a xlink:href="member__frontend_8h.html" target="_top" xlink:title=" ">
<polygon fill="white" stroke="black" points="214,-168.5 214,-198.5 334,-198.5 334,-168.5 214,-168.5"/>
<text text-anchor="start" x="222" y="-186.5" font-family="Helvetica,sans-Serif" font-size="10.00">src/node/rpc/member</text>
<text text-anchor="middle" x="274" y="-175.5" font-family="Helvetica,sans-Serif" font-size="10.00">_frontend.h</text>
</a>
</g>
</g>
<!-- Node26&#45;&gt;Node27 -->
<g id="edge37" class="edge">
<title>Node26&#45;&gt;Node27</title>
<path fill="none" stroke="midnightblue" d="M381.24,-356.85C370.67,-347.44 357.7,-334.84 348,-322 316.79,-280.68 290.96,-224.48 279.85,-198.6"/>
<polygon fill="midnightblue" stroke="midnightblue" points="379.24,-359.75 389.09,-363.65 383.82,-354.46 379.24,-359.75"/>
</g>
<!-- Node28 -->
<g id="node28" class="node">
<title>Node28</title>
<g id="a_node28"><a xlink:href="user__frontend_8h.html" target="_top" xlink:title=" ">
<polygon fill="white" stroke="black" points="260.5,-112.5 260.5,-131.5 415.5,-131.5 415.5,-112.5 260.5,-112.5"/>
<text text-anchor="middle" x="338" y="-119.5" font-family="Helvetica,sans-Serif" font-size="10.00">src/node/rpc/user_frontend.h</text>
</a>
</g>
</g>
<!-- Node26&#45;&gt;Node28 -->
<g id="edge40" class="edge">
<title>Node26&#45;&gt;Node28</title>
<path fill="none" stroke="midnightblue" d="M395.44,-354.16C383.03,-304.21 348.98,-167.17 340.13,-131.55"/>
<polygon fill="midnightblue" stroke="midnightblue" points="392.06,-355.05 397.87,-363.91 398.85,-353.36 392.06,-355.05"/>
</g>
<!-- Node27&#45;&gt;Node12 -->
<g id="edge38" class="edge">
<title>Node27&#45;&gt;Node12</title>
<path fill="none" stroke="midnightblue" d="M256.53,-159.8C247.35,-144.93 240.06,-125.78 251,-112 267.31,-91.45 332.68,-79.42 382.87,-73.04"/>
<polygon fill="midnightblue" stroke="midnightblue" points="253.85,-162.08 262.34,-168.42 259.65,-158.17 253.85,-162.08"/>
</g>
<!-- Node28&#45;&gt;Node12 -->
<g id="edge41" class="edge">
<title>Node28&#45;&gt;Node12</title>
<path fill="none" stroke="midnightblue" d="M364.06,-107.73C383.68,-97.73 410.03,-84.31 427.01,-75.65"/>
<polygon fill="midnightblue" stroke="midnightblue" points="362.35,-104.67 355.03,-112.32 365.53,-110.9 362.35,-104.67"/>
</g>
<!-- Node29&#45;&gt;Node10 -->
<g id="edge43" class="edge">
<title>Node29&#45;&gt;Node10</title>
<path fill="none" stroke="midnightblue" d="M455.64,-618.47C500.3,-606.91 569.49,-589.02 610.11,-578.51"/>
<polygon fill="midnightblue" stroke="midnightblue" points="454.76,-615.08 445.95,-620.98 456.51,-621.86 454.76,-615.08"/>
</g>
<!-- Node29&#45;&gt;Node20 -->
<g id="edge44" class="edge">
<title>Node29&#45;&gt;Node20</title>
<path fill="none" stroke="midnightblue" d="M427.35,-612.88C464.14,-569.04 561.29,-445.15 595,-322 600.63,-301.42 586.57,-279.57 574.85,-265.74"/>
<polygon fill="midnightblue" stroke="midnightblue" points="424.45,-610.89 420.65,-620.78 429.79,-615.42 424.45,-610.89"/>
</g>
<!-- Node30 -->
<g id="node30" class="node">
<title>Node30</title>
<g id="a_node30"><a xlink:href="forwarder_8h.html" target="_top" xlink:title=" ">
<polygon fill="white" stroke="black" points="333,-431 333,-450 467,-450 467,-431 333,-431"/>
<text text-anchor="middle" x="400" y="-438" font-family="Helvetica,sans-Serif" font-size="10.00">src/node/rpc/forwarder.h</text>
</a>
</g>
</g>
<!-- Node29&#45;&gt;Node30 -->
<g id="edge45" class="edge">
<title>Node29&#45;&gt;Node30</title>
<path fill="none" stroke="midnightblue" d="M411.7,-610.74C408.94,-570.81 402.57,-478.7 400.6,-450.12"/>
<polygon fill="midnightblue" stroke="midnightblue" points="408.23,-611.2 412.41,-620.93 415.21,-610.72 408.23,-611.2"/>
</g>
<!-- Node30&#45;&gt;Node12 -->
<g id="edge46" class="edge">
<title>Node30&#45;&gt;Node12</title>
<path fill="none" stroke="midnightblue" d="M333.34,-428.85C270.53,-414.56 186,-382.44 186,-313 186,-313 186,-313 186,-182.5 186,-96.62 306.56,-74.18 382.86,-68.58"/>
<polygon fill="midnightblue" stroke="midnightblue" points="332.7,-432.29 343.21,-430.99 334.18,-425.45 332.7,-432.29"/>
</g>
<!-- Node30&#45;&gt;Node26 -->
<g id="edge47" class="edge">
<title>Node30&#45;&gt;Node26</title>
<path fill="none" stroke="midnightblue" d="M400,-420.54C400,-408.17 400,-392.62 400,-383.13"/>
<polygon fill="midnightblue" stroke="midnightblue" points="396.5,-420.73 400,-430.73 403.5,-420.73 396.5,-420.73"/>
</g>
<!-- Node31&#45;&gt;Node4 -->
<g id="edge49" class="edge">
<title>Node31&#45;&gt;Node4</title>
<path fill="none" stroke="midnightblue" d="M250.45,-684.49C218.75,-673.47 171.77,-657.14 138.36,-645.53"/>
<polygon fill="midnightblue" stroke="midnightblue" points="249.57,-687.89 260.17,-687.87 251.87,-681.28 249.57,-687.89"/>
</g>
<!-- Node31&#45;&gt;Node29 -->
<g id="edge51" class="edge">
<title>Node31&#45;&gt;Node29</title>
<path fill="none" stroke="midnightblue" d="M311.05,-683.27C336.4,-670.4 374.19,-651.21 395.93,-640.17"/>
<polygon fill="midnightblue" stroke="midnightblue" points="309.33,-680.22 302,-687.87 312.5,-686.46 309.33,-680.22"/>
</g>
<!-- Node32 -->
<g id="node32" class="node">
<title>Node32</title>
<g id="a_node32"><a xlink:href="sig__auth_8cpp.html" target="_top" xlink:title=" ">
<polygon fill="white" stroke="black" points="166.5,-615.5 166.5,-645.5 321.5,-645.5 321.5,-615.5 166.5,-615.5"/>
<text text-anchor="start" x="174.5" y="-633.5" font-family="Helvetica,sans-Serif" font-size="10.00">src/endpoints/authentication</text>
<text text-anchor="middle" x="244" y="-622.5" font-family="Helvetica,sans-Serif" font-size="10.00">/sig_auth.cpp</text>
</a>
</g>
</g>
<!-- Node31&#45;&gt;Node32 -->
<g id="edge50" class="edge">
<title>Node31&#45;&gt;Node32</title>
<path fill="none" stroke="midnightblue" d="M273.98,-679.03C267.37,-668.56 259.08,-655.4 252.89,-645.59"/>
<polygon fill="midnightblue" stroke="midnightblue" points="271.18,-681.14 279.47,-687.73 277.1,-677.41 271.18,-681.14"/>
</g>
<!-- Node33&#45;&gt;Node3 -->
<g id="edge53" class="edge">
<title>Node33&#45;&gt;Node3</title>
<path fill="none" stroke="midnightblue" d="M581.7,-800.73C561.89,-790.73 535.29,-777.31 518.15,-768.65"/>
<polygon fill="midnightblue" stroke="midnightblue" points="580.3,-803.94 590.81,-805.32 583.46,-797.69 580.3,-803.94"/>
</g>
<!-- Node34&#45;&gt;Node2 -->
<g id="edge56" class="edge">
<title>Node34&#45;&gt;Node2</title>
<path fill="none" stroke="midnightblue" d="M736.86,-913.23C714.6,-903.13 684.14,-889.31 664.77,-880.52"/>
<polygon fill="midnightblue" stroke="midnightblue" points="735.59,-916.5 746.14,-917.44 738.48,-910.12 735.59,-916.5"/>
</g>
<!-- Node34&#45;&gt;Node11 -->
<g id="edge55" class="edge">
<title>Node34&#45;&gt;Node11</title>
<path fill="none" stroke="midnightblue" d="M805.83,-914.15C848.41,-898.99 909,-868.24 909,-816 909,-816 909,-816 909,-629.5 909,-583.86 876.97,-536.06 862.71,-517.04"/>
<polygon fill="midnightblue" stroke="midnightblue" points="804.59,-910.88 796.25,-917.42 806.84,-917.51 804.59,-910.88"/>
</g>
<!-- Node35 -->
<g id="node35" class="node">
<title>Node35</title>
<g id="a_node35"><a xlink:href="client_8h.html" target="_top" xlink:title=" ">
<polygon fill="white" stroke="black" points="727.5,-559.5 727.5,-578.5 812.5,-578.5 812.5,-559.5 727.5,-559.5"/>
<text text-anchor="middle" x="770" y="-566.5" font-family="Helvetica,sans-Serif" font-size="10.00">src/tls/client.h</text>
</a>
</g>
</g>
<!-- Node34&#45;&gt;Node35 -->
<g id="edge57" class="edge">
<title>Node34&#45;&gt;Node35</title>
<path fill="none" stroke="midnightblue" d="M765,-907.25C765,-885.36 765,-848.05 765,-816 765,-816 765,-816 765,-696.5 765,-652.1 768.11,-599.01 769.43,-578.58"/>
<polygon fill="midnightblue" stroke="midnightblue" points="761.5,-907.44 765,-917.44 768.5,-907.44 761.5,-907.44"/>
</g>
<!-- Node36 -->
<g id="node36" class="node">
<title>Node36</title>
<g id="a_node36"><a xlink:href="server_8h.html" target="_top" xlink:title=" ">
<polygon fill="white" stroke="black" points="793,-805.5 793,-824.5 881,-824.5 881,-805.5 793,-805.5"/>
<text text-anchor="middle" x="837" y="-812.5" font-family="Helvetica,sans-Serif" font-size="10.00">src/tls/server.h</text>
</a>
</g>
</g>
<!-- Node34&#45;&gt;Node36 -->
<g id="edge60" class="edge">
<title>Node34&#45;&gt;Node36</title>
<path fill="none" stroke="midnightblue" d="M776.16,-908.96C791.76,-885.12 819.52,-842.71 831.38,-824.59"/>
<polygon fill="midnightblue" stroke="midnightblue" points="773.2,-907.08 770.65,-917.37 779.05,-910.92 773.2,-907.08"/>
</g>
<!-- Node35&#45;&gt;Node11 -->
<g id="edge58" class="edge">
<title>Node35&#45;&gt;Node11</title>
<path fill="none" stroke="midnightblue" d="M790.8,-553.61C807.34,-542.17 829.92,-526.55 843.7,-517.01"/>
<polygon fill="midnightblue" stroke="midnightblue" points="788.55,-550.91 782.32,-559.48 792.54,-556.66 788.55,-550.91"/>
</g>
<!-- Node35&#45;&gt;Node17 -->
<g id="edge59" class="edge">
<title>Node35&#45;&gt;Node17</title>
<path fill="none" stroke="midnightblue" d="M747.18,-553.83C706.93,-527.32 624.59,-465.88 593,-389 587.76,-376.26 587.82,-370.77 593,-358 601.39,-337.32 617.85,-341.87 628,-322 650.7,-277.54 652.41,-215.6 652.21,-193.1"/>
<polygon fill="midnightblue" stroke="midnightblue" points="745.48,-556.9 755.78,-559.38 749.28,-551.02 745.48,-556.9"/>
</g>
<!-- Node36&#45;&gt;Node11 -->
<g id="edge61" class="edge">
<title>Node36&#45;&gt;Node11</title>
<path fill="none" stroke="midnightblue" d="M839.61,-795.33C842.58,-772.53 847,-732.76 847,-698.5 847,-698.5 847,-698.5 847,-629.5 847,-587.37 852.49,-537.22 854.9,-517.29"/>
<polygon fill="midnightblue" stroke="midnightblue" points="836.14,-794.95 838.27,-805.33 843.07,-795.89 836.14,-794.95"/>
</g>
</g>
</svg>
        <g id="navigator" transform="translate(0 0)" fill="#404254">
                <rect fill="#f2f5e9" fill-opacity="0.5" stroke="#606060" stroke-width=".5" x="0" y="0" width="60" height="60"/>
                <use id="zoomplus" xlink:href="#zoomPlus" x="17" y="9" onmousedown="handleZoom(evt,'in')"/>
                <use id="zoomminus" xlink:href="#zoomMin" x="42" y="9" onmousedown="handleZoom(evt,'out')"/>
                <use id="reset" xlink:href="#resetDef" x="30" y="36" onmousedown="handleReset()"/>
                <g id="arrowUp" xlink:href="#dirArrow" transform="translate(30 24)" onmousedown="handlePan(0,-1)">
                  <use xlink:href="#rim" fill="#404040">
                        <set attributeName="fill" to="#808080" begin="arrowUp.mouseover" end="arrowUp.mouseout"/>
                  </use>
                  <path fill="none" stroke="white" stroke-width="1.5" d="M0,-3.0v7 M-2.5,-0.5L0,-3.0L2.5,-0.5"/>
                </g>
                <g id="arrowRight" xlink:href="#dirArrow" transform="rotate(90) translate(36 -43)" onmousedown="handlePan(1,0)">
                  <use xlink:href="#rim" fill="#404040">
                        <set attributeName="fill" to="#808080" begin="arrowRight.mouseover" end="arrowRight.mouseout"/>
                  </use>
                  <path fill="none" stroke="white" stroke-width="1.5" d="M0,-3.0v7 M-2.5,-0.5L0,-3.0L2.5,-0.5"/>
                </g>
                <g id="arrowDown" xlink:href="#dirArrow" transform="rotate(180) translate(-30 -48)" onmousedown="handlePan(0,1)">
                  <use xlink:href="#rim" fill="#404040">
                        <set attributeName="fill" to="#808080" begin="arrowDown.mouseover" end="arrowDown.mouseout"/>
                  </use>
                  <path fill="none" stroke="white" stroke-width="1.5" d="M0,-3.0v7 M-2.5,-0.5L0,-3.0L2.5,-0.5"/>
                </g>
                <g id="arrowLeft" xlink:href="#dirArrow" transform="rotate(270) translate(-36 17)" onmousedown="handlePan(-1,0)">
                  <use xlink:href="#rim" fill="#404040">
                        <set attributeName="fill" to="#808080" begin="arrowLeft.mouseover" end="arrowLeft.mouseout"/>
                  </use>
                  <path fill="none" stroke="white" stroke-width="1.5" d="M0,-3.0v7 M-2.5,-0.5L0,-3.0L2.5,-0.5"/>
                </g>
        </g>
        <svg viewBox="0 0 15 15" width="100%" height="30px" preserveAspectRatio="xMaxYMin meet">
         <g id="arrow_out" transform="scale(0.3 0.3)">
          <a xlink:href="tls_8h__dep__incl_org.svg" target="_base">
           <rect id="button" ry="5" rx="5" y="6" x="6" height="38" width="38"
                fill="#f2f5e9" fill-opacity="0.5" stroke="#606060" stroke-width="1.0"/>
           <path id="arrow"
             d="M 11.500037,31.436501 C 11.940474,20.09759 22.043105,11.32322 32.158766,21.979434 L 37.068811,17.246167 C 37.068811,17.246167 37.088388,32 37.088388,32 L 22.160133,31.978069 C 22.160133,31.978069 26.997745,27.140456 26.997745,27.140456 C 18.528582,18.264221 13.291696,25.230495 11.500037,31.436501 z"
             style="fill:#404040;"/>
          </a>
         </g>
        </svg>
</svg>
