<?xml version="1.0" encoding="UTF-8" standalone="no"?>
<!DOCTYPE svg PUBLIC "-//W3C//DTD SVG 1.1//EN"
 "http://www.w3.org/Graphics/SVG/1.1/DTD/svg11.dtd">
<!-- Generated by graphviz version 2.43.0 (0)
 -->
<!-- Title: include/ccf/node/acme_subsystem_interface.h Pages: 1 -->
<svg width="1858pt" height="397pt"
 viewBox="0.00 0.00 1858.00 397.00" xmlns="http://www.w3.org/2000/svg" xmlns:xlink="http://www.w3.org/1999/xlink">
<g id="graph0" class="graph" transform="scale(1 1) rotate(0) translate(4 393)">
<title>include/ccf/node/acme_subsystem_interface.h</title>
<polygon fill="white" stroke="transparent" points="-4,4 -4,-393 1854,-393 1854,4 -4,4"/>
<!-- Node1 -->
<g id="node1" class="node">
<title>Node1</title>
<g id="a_node1"><a xlink:title=" ">
<polygon fill="#bfbfbf" stroke="black" points="348.5,-358.5 348.5,-388.5 481.5,-388.5 481.5,-358.5 348.5,-358.5"/>
<text text-anchor="start" x="356.5" y="-376.5" font-family="Helvetica,sans-Serif" font-size="10.00">include/ccf/node/acme</text>
<text text-anchor="middle" x="415" y="-365.5" font-family="Helvetica,sans-Serif" font-size="10.00">_subsystem_interface.h</text>
</a>
</g>
</g>
<!-- Node2 -->
<g id="node2" class="node">
<title>Node2</title>
<g id="a_node2"><a xlink:href="pem_8h.html" target="_top" xlink:title=" ">
<polygon fill="white" stroke="black" points="185,-230 185,-249 283,-249 283,-230 185,-230"/>
<text text-anchor="middle" x="234" y="-237" font-family="Helvetica,sans-Serif" font-size="10.00">ccf/crypto/pem.h</text>
</a>
</g>
</g>
<!-- Node1&#45;&gt;Node2 -->
<g id="edge1" class="edge">
<title>Node1&#45;&gt;Node2</title>
<path fill="none" stroke="midnightblue" d="M357.25,-358.46C333.37,-350.59 306.53,-338.88 286,-322 265.09,-304.81 249.89,-276.94 241.5,-258.67"/>
<polygon fill="midnightblue" stroke="midnightblue" points="244.67,-257.16 237.46,-249.4 238.25,-259.96 244.67,-257.16"/>
</g>
<!-- Node5 -->
<g id="node5" class="node">
<title>Node5</title>
<g id="a_node5"><a xlink:title=" ">
<polygon fill="white" stroke="#bfbfbf" points="537,-0.5 537,-19.5 581,-19.5 581,-0.5 537,-0.5"/>
<text text-anchor="middle" x="559" y="-7.5" font-family="Helvetica,sans-Serif" font-size="10.00">string</text>
</a>
</g>
</g>
<!-- Node1&#45;&gt;Node5 -->
<g id="edge67" class="edge">
<title>Node1&#45;&gt;Node5</title>
<path fill="none" stroke="midnightblue" d="M384.88,-358.44C370.62,-350.05 354.99,-337.9 347,-322 340.81,-309.69 342.61,-304.06 347,-291 386.58,-173.17 497.56,-65.44 541.13,-26.45"/>
<polygon fill="midnightblue" stroke="midnightblue" points="543.49,-29.03 548.67,-19.78 538.86,-23.78 543.49,-29.03"/>
</g>
<!-- Node6 -->
<g id="node6" class="node">
<title>Node6</title>
<g id="a_node6"><a xlink:title=" ">
<polygon fill="white" stroke="#bfbfbf" points="291.5,-0.5 291.5,-19.5 338.5,-19.5 338.5,-0.5 291.5,-0.5"/>
<text text-anchor="middle" x="315" y="-7.5" font-family="Helvetica,sans-Serif" font-size="10.00">vector</text>
</a>
</g>
</g>
<!-- Node1&#45;&gt;Node6 -->
<g id="edge68" class="edge">
<title>Node1&#45;&gt;Node6</title>
<path fill="none" stroke="midnightblue" d="M348.32,-365.26C231.01,-350.64 0,-312.7 0,-240.5 0,-240.5 0,-240.5 0,-121 0,-61.96 199.73,-27.2 281.11,-15.48"/>
<polygon fill="midnightblue" stroke="midnightblue" points="281.91,-18.91 291.32,-14.05 280.93,-11.97 281.91,-18.91"/>
</g>
<!-- Node21 -->
<g id="node21" class="node">
<title>Node21</title>
<g id="a_node21"><a xlink:href="http__header__map_8h.html" target="_top" xlink:title=" ">
<polygon fill="white" stroke="black" points="587,-56.5 587,-75.5 715,-75.5 715,-56.5 587,-56.5"/>
<text text-anchor="middle" x="651" y="-63.5" font-family="Helvetica,sans-Serif" font-size="10.00">ccf/http_header_map.h</text>
</a>
</g>
</g>
<!-- Node1&#45;&gt;Node21 -->
<g id="edge25" class="edge">
<title>Node1&#45;&gt;Node21</title>
<path fill="none" stroke="midnightblue" d="M481.62,-363.7C530.73,-355.69 591.56,-342.03 607,-322 615.41,-311.09 615.52,-301.83 607,-291 564.86,-237.47 500.14,-308.53 458,-255 449.48,-244.17 452.08,-236.44 458,-224 492.22,-152.05 577.33,-102.27 622.23,-80.07"/>
<polygon fill="midnightblue" stroke="midnightblue" points="623.94,-83.13 631.43,-75.63 620.9,-76.83 623.94,-83.13"/>
</g>
<!-- Node23 -->
<g id="node23" class="node">
<title>Node23</title>
<g id="a_node23"><a xlink:href="http__status_8h.html" target="_top" xlink:title=" ">
<polygon fill="white" stroke="black" points="366,-297 366,-316 464,-316 464,-297 366,-297"/>
<text text-anchor="middle" x="415" y="-304" font-family="Helvetica,sans-Serif" font-size="10.00">ccf/http_status.h</text>
</a>
</g>
</g>
<!-- Node1&#45;&gt;Node23 -->
<g id="edge28" class="edge">
<title>Node1&#45;&gt;Node23</title>
<path fill="none" stroke="midnightblue" d="M415,-358.4C415,-349.06 415,-336.71 415,-326.52"/>
<polygon fill="midnightblue" stroke="midnightblue" points="418.5,-326.19 415,-316.19 411.5,-326.19 418.5,-326.19"/>
</g>
<!-- Node24 -->
<g id="node24" class="node">
<title>Node24</title>
<g id="a_node24"><a xlink:href="node__subsystem__interface_8h.html" target="_top" xlink:title=" ">
<polygon fill="white" stroke="black" points="482,-291.5 482,-321.5 598,-321.5 598,-291.5 482,-291.5"/>
<text text-anchor="start" x="490" y="-309.5" font-family="Helvetica,sans-Serif" font-size="10.00">ccf/node_subsystem</text>
<text text-anchor="middle" x="540" y="-298.5" font-family="Helvetica,sans-Serif" font-size="10.00">_interface.h</text>
</a>
</g>
</g>
<!-- Node1&#45;&gt;Node24 -->
<g id="edge29" class="edge">
<title>Node1&#45;&gt;Node24</title>
<path fill="none" stroke="midnightblue" d="M442.12,-358.4C460.22,-348.98 484.23,-336.5 503.93,-326.26"/>
<polygon fill="midnightblue" stroke="midnightblue" points="505.67,-329.3 512.93,-321.58 502.44,-323.08 505.67,-329.3"/>
</g>
<!-- Node25 -->
<g id="node25" class="node">
<title>Node25</title>
<g id="a_node25"><a xlink:href="acme__client__config_8h.html" target="_top" xlink:title=" ">
<polygon fill="white" stroke="black" points="466.5,-224.5 466.5,-254.5 597.5,-254.5 597.5,-224.5 466.5,-224.5"/>
<text text-anchor="start" x="474.5" y="-242.5" font-family="Helvetica,sans-Serif" font-size="10.00">ccf/service/acme_client</text>
<text text-anchor="middle" x="532" y="-231.5" font-family="Helvetica,sans-Serif" font-size="10.00">_config.h</text>
</a>
</g>
</g>
<!-- Node1&#45;&gt;Node25 -->
<g id="edge30" class="edge">
<title>Node1&#45;&gt;Node25</title>
<path fill="none" stroke="midnightblue" d="M392.93,-358.49C369.92,-342.13 339.46,-314.32 357,-291 369.45,-274.45 414.98,-261.61 456.48,-253.02"/>
<polygon fill="midnightblue" stroke="midnightblue" points="457.25,-256.44 466.36,-251.04 455.87,-249.58 457.25,-256.44"/>
</g>
<!-- Node26 -->
<g id="node26" class="node">
<title>Node26</title>
<g id="a_node26"><a xlink:title=" ">
<polygon fill="white" stroke="#bfbfbf" points="733,-56.5 733,-75.5 789,-75.5 789,-56.5 733,-56.5"/>
<text text-anchor="middle" x="761" y="-63.5" font-family="Helvetica,sans-Serif" font-size="10.00">optional</text>
</a>
</g>
</g>
<!-- Node1&#45;&gt;Node26 -->
<g id="edge66" class="edge">
<title>Node1&#45;&gt;Node26</title>
<path fill="none" stroke="midnightblue" d="M481.58,-371.89C526.67,-368.1 584.93,-356.14 624,-322 679.31,-273.66 648.05,-232.06 684,-168 702.14,-135.67 729.67,-102.25 746.42,-83.11"/>
<polygon fill="midnightblue" stroke="midnightblue" points="749.07,-85.4 753.09,-75.6 743.83,-80.75 749.07,-85.4"/>
</g>
<!-- Node27 -->
<g id="node27" class="node">
<title>Node27</title>
<g id="a_node27"><a xlink:href="node__info__network_8h.html" target="_top" xlink:title=" ">
<polygon fill="white" stroke="black" points="692,-291.5 692,-321.5 812,-321.5 812,-291.5 692,-291.5"/>
<text text-anchor="start" x="700" y="-309.5" font-family="Helvetica,sans-Serif" font-size="10.00">ccf/service/node_info</text>
<text text-anchor="middle" x="752" y="-298.5" font-family="Helvetica,sans-Serif" font-size="10.00">_network.h</text>
</a>
</g>
</g>
<!-- Node1&#45;&gt;Node27 -->
<g id="edge35" class="edge">
<title>Node1&#45;&gt;Node27</title>
<path fill="none" stroke="midnightblue" d="M481.76,-359.75C534.93,-349.58 611.25,-334.95 678,-322 679.27,-321.75 680.54,-321.51 681.83,-321.26"/>
<polygon fill="midnightblue" stroke="midnightblue" points="682.68,-324.66 691.83,-319.31 681.34,-317.79 682.68,-324.66"/>
</g>
<!-- Node3 -->
<g id="node3" class="node">
<title>Node3</title>
<g id="a_node3"><a xlink:href="json_8h.html" target="_top" xlink:title=" ">
<polygon fill="white" stroke="black" points="692.5,-168.5 692.5,-187.5 769.5,-187.5 769.5,-168.5 692.5,-168.5"/>
<text text-anchor="middle" x="731" y="-175.5" font-family="Helvetica,sans-Serif" font-size="10.00">ccf/ds/json.h</text>
</a>
</g>
</g>
<!-- Node2&#45;&gt;Node3 -->
<g id="edge2" class="edge">
<title>Node2&#45;&gt;Node3</title>
<path fill="none" stroke="midnightblue" d="M283.01,-232.63C378.26,-221.23 587.3,-196.2 682.29,-184.83"/>
<polygon fill="midnightblue" stroke="midnightblue" points="682.97,-188.27 692.49,-183.61 682.14,-181.32 682.97,-188.27"/>
</g>
<!-- Node2&#45;&gt;Node6 -->
<g id="edge24" class="edge">
<title>Node2&#45;&gt;Node6</title>
<path fill="none" stroke="midnightblue" d="M185.83,-229.96C146.08,-220.38 98.67,-201.58 115,-168 150.6,-94.8 238.67,-45.6 285.16,-23.8"/>
<polygon fill="midnightblue" stroke="midnightblue" points="286.78,-26.91 294.41,-19.57 283.86,-20.54 286.78,-26.91"/>
</g>
<!-- Node12 -->
<g id="node12" class="node">
<title>Node12</title>
<g id="a_node12"><a xlink:title=" ">
<polygon fill="white" stroke="#bfbfbf" points="401.5,-0.5 401.5,-19.5 474.5,-19.5 474.5,-0.5 401.5,-0.5"/>
<text text-anchor="middle" x="438" y="-7.5" font-family="Helvetica,sans-Serif" font-size="10.00">string_view</text>
</a>
</g>
</g>
<!-- Node2&#45;&gt;Node12 -->
<g id="edge23" class="edge">
<title>Node2&#45;&gt;Node12</title>
<path fill="none" stroke="midnightblue" d="M278.28,-229.96C301.8,-222.92 328.74,-210.32 343,-188 374.66,-138.45 301.71,-105.15 334,-56 346.82,-36.48 370.11,-25.39 391.41,-19.1"/>
<polygon fill="midnightblue" stroke="midnightblue" points="392.56,-22.42 401.33,-16.47 390.76,-15.66 392.56,-22.42"/>
</g>
<!-- Node17 -->
<g id="node17" class="node">
<title>Node17</title>
<g id="a_node17"><a xlink:title=" ">
<polygon fill="white" stroke="#bfbfbf" points="124,-168.5 124,-187.5 174,-187.5 174,-168.5 124,-168.5"/>
<text text-anchor="middle" x="149" y="-175.5" font-family="Helvetica,sans-Serif" font-size="10.00">cstring</text>
</a>
</g>
</g>
<!-- Node2&#45;&gt;Node17 -->
<g id="edge19" class="edge">
<title>Node2&#45;&gt;Node17</title>
<path fill="none" stroke="midnightblue" d="M221.82,-229.98C208.19,-220.43 185.87,-204.81 169.53,-193.37"/>
<polygon fill="midnightblue" stroke="midnightblue" points="171.36,-190.38 161.16,-187.51 167.34,-196.11 171.36,-190.38"/>
</g>
<!-- Node18 -->
<g id="node18" class="node">
<title>Node18</title>
<g id="a_node18"><a xlink:title=" ">
<polygon fill="white" stroke="#bfbfbf" points="192.5,-168.5 192.5,-187.5 257.5,-187.5 257.5,-168.5 192.5,-168.5"/>
<text text-anchor="middle" x="225" y="-175.5" font-family="Helvetica,sans-Serif" font-size="10.00">exception</text>
</a>
</g>
</g>
<!-- Node2&#45;&gt;Node18 -->
<g id="edge20" class="edge">
<title>Node2&#45;&gt;Node18</title>
<path fill="none" stroke="midnightblue" d="M232.71,-229.98C231.44,-221.58 229.46,-208.48 227.82,-197.66"/>
<polygon fill="midnightblue" stroke="midnightblue" points="231.24,-196.87 226.29,-187.51 224.32,-197.92 231.24,-196.87"/>
</g>
<!-- Node19 -->
<g id="node19" class="node">
<title>Node19</title>
<g id="a_node19"><a xlink:title=" ">
<polygon fill="white" stroke="#bfbfbf" points="276,-168.5 276,-187.5 334,-187.5 334,-168.5 276,-168.5"/>
<text text-anchor="middle" x="305" y="-175.5" font-family="Helvetica,sans-Serif" font-size="10.00">memory</text>
</a>
</g>
</g>
<!-- Node2&#45;&gt;Node19 -->
<g id="edge21" class="edge">
<title>Node2&#45;&gt;Node19</title>
<path fill="none" stroke="midnightblue" d="M244.17,-229.98C255.35,-220.61 273.52,-205.38 287.09,-194.01"/>
<polygon fill="midnightblue" stroke="midnightblue" points="289.43,-196.61 294.85,-187.51 284.93,-191.25 289.43,-196.61"/>
</g>
<!-- Node20 -->
<g id="node20" class="node">
<title>Node20</title>
<g id="a_node20"><a xlink:title=" ">
<polygon fill="white" stroke="#bfbfbf" points="28,-168.5 28,-187.5 68,-187.5 68,-168.5 28,-168.5"/>
<text text-anchor="middle" x="48" y="-175.5" font-family="Helvetica,sans-Serif" font-size="10.00">span</text>
</a>
</g>
</g>
<!-- Node2&#45;&gt;Node20 -->
<g id="edge22" class="edge">
<title>Node2&#45;&gt;Node20</title>
<path fill="none" stroke="midnightblue" d="M207.35,-229.98C173.07,-219.01 113.68,-200.01 77.89,-188.56"/>
<polygon fill="midnightblue" stroke="midnightblue" points="78.62,-185.12 68.03,-185.41 76.49,-191.79 78.62,-185.12"/>
</g>
<!-- Node4 -->
<g id="node4" class="node">
<title>Node4</title>
<g id="a_node4"><a xlink:href="include_2ccf_2crypto_2base64_8h.html" target="_top" xlink:title=" ">
<polygon fill="white" stroke="black" points="343,-56.5 343,-75.5 455,-75.5 455,-56.5 343,-56.5"/>
<text text-anchor="middle" x="399" y="-63.5" font-family="Helvetica,sans-Serif" font-size="10.00">ccf/crypto/base64.h</text>
</a>
</g>
</g>
<!-- Node3&#45;&gt;Node4 -->
<g id="edge3" class="edge">
<title>Node3&#45;&gt;Node4</title>
<path fill="none" stroke="midnightblue" d="M705.22,-168.46C646.39,-148.97 502.1,-101.16 434.73,-78.84"/>
<polygon fill="midnightblue" stroke="midnightblue" points="435.58,-75.43 424.99,-75.61 433.38,-82.08 435.58,-75.43"/>
</g>
<!-- Node7 -->
<g id="node7" class="node">
<title>Node7</title>
<g id="a_node7"><a xlink:href="include_2ccf_2ds_2json__schema_8h.html" target="_top" xlink:title=" ">
<polygon fill="white" stroke="black" points="970.5,-112.5 970.5,-131.5 1091.5,-131.5 1091.5,-112.5 970.5,-112.5"/>
<text text-anchor="middle" x="1031" y="-119.5" font-family="Helvetica,sans-Serif" font-size="10.00">ccf/ds/json_schema.h</text>
</a>
</g>
</g>
<!-- Node3&#45;&gt;Node7 -->
<g id="edge6" class="edge">
<title>Node3&#45;&gt;Node7</title>
<path fill="none" stroke="midnightblue" d="M769.61,-170.05C821.37,-160.73 913.67,-144.12 973.59,-133.33"/>
<polygon fill="midnightblue" stroke="midnightblue" points="974.43,-136.74 983.65,-131.52 973.19,-129.85 974.43,-136.74"/>
</g>
<!-- Node14 -->
<g id="node14" class="node">
<title>Node14</title>
<g id="a_node14"><a xlink:title=" ">
<polygon fill="white" stroke="#bfbfbf" points="1239.5,-0.5 1239.5,-19.5 1318.5,-19.5 1318.5,-0.5 1239.5,-0.5"/>
<text text-anchor="middle" x="1279" y="-7.5" font-family="Helvetica,sans-Serif" font-size="10.00">fmt/format.h</text>
</a>
</g>
</g>
<!-- Node3&#45;&gt;Node14 -->
<g id="edge17" class="edge">
<title>Node3&#45;&gt;Node14</title>
<path fill="none" stroke="midnightblue" d="M746.77,-168.48C788.37,-146.37 905.03,-86.78 1009,-56 1084.13,-33.76 1174.48,-21.5 1229.28,-15.59"/>
<polygon fill="midnightblue" stroke="midnightblue" points="1229.84,-19.05 1239.42,-14.53 1229.11,-12.09 1229.84,-19.05"/>
</g>
<!-- Node16 -->
<g id="node16" class="node">
<title>Node16</title>
<g id="a_node16"><a xlink:title=" ">
<polygon fill="white" stroke="#bfbfbf" points="1157,-56.5 1157,-75.5 1213,-75.5 1213,-56.5 1157,-56.5"/>
<text text-anchor="middle" x="1185" y="-63.5" font-family="Helvetica,sans-Serif" font-size="10.00">sstream</text>
</a>
</g>
</g>
<!-- Node3&#45;&gt;Node16 -->
<g id="edge18" class="edge">
<title>Node3&#45;&gt;Node16</title>
<path fill="none" stroke="midnightblue" d="M769.62,-174.9C851.86,-170.02 1041.59,-156.41 1101,-132 1128.31,-120.78 1154.31,-98.17 1169.96,-82.81"/>
<polygon fill="midnightblue" stroke="midnightblue" points="1172.61,-85.11 1177.16,-75.53 1167.64,-80.18 1172.61,-85.11"/>
</g>
<!-- Node4&#45;&gt;Node5 -->
<g id="edge4" class="edge">
<title>Node4&#45;&gt;Node5</title>
<path fill="none" stroke="midnightblue" d="M424.35,-56.44C452.22,-47.04 497.03,-31.91 527.22,-21.72"/>
<polygon fill="midnightblue" stroke="midnightblue" points="528.5,-24.99 536.86,-18.47 526.26,-18.35 528.5,-24.99"/>
</g>
<!-- Node4&#45;&gt;Node6 -->
<g id="edge5" class="edge">
<title>Node4&#45;&gt;Node6</title>
<path fill="none" stroke="midnightblue" d="M385.5,-56.32C372.4,-47.9 352.29,-34.97 336.89,-25.07"/>
<polygon fill="midnightblue" stroke="midnightblue" points="338.77,-22.12 328.46,-19.65 334.98,-28.01 338.77,-22.12"/>
</g>
<!-- Node8 -->
<g id="node8" class="node">
<title>Node8</title>
<g id="a_node8"><a xlink:href="nonstd_8h.html" target="_top" xlink:title=" ">
<polygon fill="white" stroke="black" points="845,-56.5 845,-75.5 935,-75.5 935,-56.5 845,-56.5"/>
<text text-anchor="middle" x="890" y="-63.5" font-family="Helvetica,sans-Serif" font-size="10.00">ccf/ds/nonstd.h</text>
</a>
</g>
</g>
<!-- Node7&#45;&gt;Node8 -->
<g id="edge7" class="edge">
<title>Node7&#45;&gt;Node8</title>
<path fill="none" stroke="midnightblue" d="M1008.66,-112.44C985.25,-103.48 948.26,-89.31 921.81,-79.18"/>
<polygon fill="midnightblue" stroke="midnightblue" points="922.83,-75.82 912.24,-75.52 920.32,-82.36 922.83,-75.82"/>
</g>
<!-- Node7&#45;&gt;Node14 -->
<g id="edge15" class="edge">
<title>Node7&#45;&gt;Node14</title>
<path fill="none" stroke="midnightblue" d="M1025.66,-112.29C1018.06,-98.64 1006.44,-72.12 1020,-56 1033.32,-40.17 1157.72,-24.19 1229.15,-16.21"/>
<polygon fill="midnightblue" stroke="midnightblue" points="1229.73,-19.67 1239.29,-15.09 1228.96,-12.71 1229.73,-19.67"/>
</g>
<!-- Node15 -->
<g id="node15" class="node">
<title>Node15</title>
<g id="a_node15"><a xlink:title=" ">
<polygon fill="white" stroke="#bfbfbf" points="1029,-56.5 1029,-75.5 1139,-75.5 1139,-56.5 1029,-56.5"/>
<text text-anchor="middle" x="1084" y="-63.5" font-family="Helvetica,sans-Serif" font-size="10.00">nlohmann/json.hpp</text>
</a>
</g>
</g>
<!-- Node7&#45;&gt;Node15 -->
<g id="edge16" class="edge">
<title>Node7&#45;&gt;Node15</title>
<path fill="none" stroke="midnightblue" d="M1039.75,-112.08C1047.47,-104.22 1058.9,-92.57 1068.22,-83.08"/>
<polygon fill="midnightblue" stroke="midnightblue" points="1070.9,-85.34 1075.41,-75.75 1065.91,-80.44 1070.9,-85.34"/>
</g>
<!-- Node8&#45;&gt;Node5 -->
<g id="edge11" class="edge">
<title>Node8&#45;&gt;Node5</title>
<path fill="none" stroke="midnightblue" d="M844.67,-57.6C776.69,-46.51 650.02,-25.85 590.91,-16.21"/>
<polygon fill="midnightblue" stroke="midnightblue" points="591.46,-12.75 581.02,-14.59 590.33,-19.66 591.46,-12.75"/>
</g>
<!-- Node8&#45;&gt;Node6 -->
<g id="edge14" class="edge">
<title>Node8&#45;&gt;Node6</title>
<path fill="none" stroke="midnightblue" d="M844.62,-60.48C829.76,-59.02 813.18,-57.42 798,-56 618.07,-39.2 572.77,-38.36 393,-20 378.41,-18.51 362.31,-16.68 348.54,-15.07"/>
<polygon fill="midnightblue" stroke="midnightblue" points="348.88,-11.58 338.53,-13.88 348.05,-18.53 348.88,-11.58"/>
</g>
<!-- Node9 -->
<g id="node9" class="node">
<title>Node9</title>
<g id="a_node9"><a xlink:title=" ">
<polygon fill="white" stroke="#bfbfbf" points="858,-0.5 858,-19.5 922,-19.5 922,-0.5 858,-0.5"/>
<text text-anchor="middle" x="890" y="-7.5" font-family="Helvetica,sans-Serif" font-size="10.00">algorithm</text>
</a>
</g>
</g>
<!-- Node8&#45;&gt;Node9 -->
<g id="edge8" class="edge">
<title>Node8&#45;&gt;Node9</title>
<path fill="none" stroke="midnightblue" d="M890,-56.08C890,-49.01 890,-38.86 890,-29.99"/>
<polygon fill="midnightblue" stroke="midnightblue" points="893.5,-29.75 890,-19.75 886.5,-29.75 893.5,-29.75"/>
</g>
<!-- Node10 -->
<g id="node10" class="node">
<title>Node10</title>
<g id="a_node10"><a xlink:title=" ">
<polygon fill="white" stroke="#bfbfbf" points="996,-0.5 996,-19.5 1038,-19.5 1038,-0.5 996,-0.5"/>
<text text-anchor="middle" x="1017" y="-7.5" font-family="Helvetica,sans-Serif" font-size="10.00">array</text>
</a>
</g>
</g>
<!-- Node8&#45;&gt;Node10 -->
<g id="edge9" class="edge">
<title>Node8&#45;&gt;Node10</title>
<path fill="none" stroke="midnightblue" d="M910.12,-56.44C931.02,-47.56 963.93,-33.56 987.72,-23.45"/>
<polygon fill="midnightblue" stroke="midnightblue" points="989.14,-26.65 996.97,-19.52 986.4,-20.21 989.14,-26.65"/>
</g>
<!-- Node11 -->
<g id="node11" class="node">
<title>Node11</title>
<g id="a_node11"><a xlink:title=" ">
<polygon fill="white" stroke="#bfbfbf" points="790.5,-0.5 790.5,-19.5 839.5,-19.5 839.5,-0.5 790.5,-0.5"/>
<text text-anchor="middle" x="815" y="-7.5" font-family="Helvetica,sans-Serif" font-size="10.00">cctype</text>
</a>
</g>
</g>
<!-- Node8&#45;&gt;Node11 -->
<g id="edge10" class="edge">
<title>Node8&#45;&gt;Node11</title>
<path fill="none" stroke="midnightblue" d="M877.95,-56.32C866.54,-48.11 849.17,-35.6 835.57,-25.81"/>
<polygon fill="midnightblue" stroke="midnightblue" points="837.43,-22.84 827.27,-19.83 833.34,-28.52 837.43,-22.84"/>
</g>
<!-- Node8&#45;&gt;Node12 -->
<g id="edge12" class="edge">
<title>Node8&#45;&gt;Node12</title>
<path fill="none" stroke="midnightblue" d="M844.59,-59.58C758.43,-49.28 572.07,-27.02 484.83,-16.59"/>
<polygon fill="midnightblue" stroke="midnightblue" points="485.04,-13.09 474.69,-15.38 484.21,-20.05 485.04,-13.09"/>
</g>
<!-- Node13 -->
<g id="node13" class="node">
<title>Node13</title>
<g id="a_node13"><a xlink:title=" ">
<polygon fill="white" stroke="#bfbfbf" points="1104.5,-0.5 1104.5,-19.5 1173.5,-19.5 1173.5,-0.5 1104.5,-0.5"/>
<text text-anchor="middle" x="1139" y="-7.5" font-family="Helvetica,sans-Serif" font-size="10.00">type_traits</text>
</a>
</g>
</g>
<!-- Node8&#45;&gt;Node13 -->
<g id="edge13" class="edge">
<title>Node8&#45;&gt;Node13</title>
<path fill="none" stroke="midnightblue" d="M929.45,-56.44C974.3,-46.72 1047.34,-30.88 1094.26,-20.7"/>
<polygon fill="midnightblue" stroke="midnightblue" points="1095.12,-24.1 1104.15,-18.56 1093.63,-17.26 1095.12,-24.1"/>
</g>
<!-- Node21&#45;&gt;Node5 -->
<g id="edge27" class="edge">
<title>Node21&#45;&gt;Node5</title>
<path fill="none" stroke="midnightblue" d="M636.22,-56.32C621.73,-47.82 599.43,-34.73 582.51,-24.8"/>
<polygon fill="midnightblue" stroke="midnightblue" points="584.14,-21.7 573.74,-19.65 580.6,-27.74 584.14,-21.7"/>
</g>
<!-- Node22 -->
<g id="node22" class="node">
<title>Node22</title>
<g id="a_node22"><a xlink:title=" ">
<polygon fill="white" stroke="#bfbfbf" points="940,-0.5 940,-19.5 978,-19.5 978,-0.5 940,-0.5"/>
<text text-anchor="middle" x="959" y="-7.5" font-family="Helvetica,sans-Serif" font-size="10.00">map</text>
</a>
</g>
</g>
<!-- Node21&#45;&gt;Node22 -->
<g id="edge26" class="edge">
<title>Node21&#45;&gt;Node22</title>
<path fill="none" stroke="midnightblue" d="M710.79,-56.48C775.84,-47.03 876.7,-31.81 929.86,-19.92"/>
<polygon fill="midnightblue" stroke="midnightblue" points="930.89,-23.27 939.83,-17.58 929.29,-16.45 930.89,-23.27"/>
</g>
<!-- Node25&#45;&gt;Node3 -->
<g id="edge31" class="edge">
<title>Node25&#45;&gt;Node3</title>
<path fill="none" stroke="midnightblue" d="M578.91,-224.47C613.69,-214.08 660.5,-200.08 692.97,-190.37"/>
<polygon fill="midnightblue" stroke="midnightblue" points="693.97,-193.72 702.55,-187.51 691.97,-187.02 693.97,-193.72"/>
</g>
<!-- Node25&#45;&gt;Node5 -->
<g id="edge33" class="edge">
<title>Node25&#45;&gt;Node5</title>
<path fill="none" stroke="midnightblue" d="M531.9,-224.16C531.94,-193.18 533.35,-117.8 545,-56 546.69,-47.06 549.55,-37.39 552.25,-29.31"/>
<polygon fill="midnightblue" stroke="midnightblue" points="555.58,-30.41 555.59,-19.81 548.97,-28.08 555.58,-30.41"/>
</g>
<!-- Node25&#45;&gt;Node6 -->
<g id="edge34" class="edge">
<title>Node25&#45;&gt;Node6</title>
<path fill="none" stroke="midnightblue" d="M506.25,-224.37C463.91,-199.81 379.73,-145.19 334,-76 324.78,-62.05 319.94,-43.55 317.46,-29.85"/>
<polygon fill="midnightblue" stroke="midnightblue" points="320.88,-29.03 315.89,-19.68 313.96,-30.1 320.88,-29.03"/>
</g>
<!-- Node25&#45;&gt;Node26 -->
<g id="edge32" class="edge">
<title>Node25&#45;&gt;Node26</title>
<path fill="none" stroke="midnightblue" d="M543.24,-224.26C563.87,-198.88 610.18,-145.36 659,-112 679.33,-98.11 704.63,-86.92 724.95,-79.16"/>
<polygon fill="midnightblue" stroke="midnightblue" points="726.32,-82.39 734.48,-75.64 723.89,-75.83 726.32,-82.39"/>
</g>
<!-- Node27&#45;&gt;Node3 -->
<g id="edge36" class="edge">
<title>Node27&#45;&gt;Node3</title>
<path fill="none" stroke="midnightblue" d="M740.83,-291.43C733.91,-281.79 725.67,-268.37 722,-255 716.73,-235.82 720.7,-213.09 724.91,-197.52"/>
<polygon fill="midnightblue" stroke="midnightblue" points="728.36,-198.18 727.88,-187.59 721.66,-196.17 728.36,-198.18"/>
</g>
<!-- Node27&#45;&gt;Node5 -->
<g id="edge65" class="edge">
<title>Node27&#45;&gt;Node5</title>
<path fill="none" stroke="midnightblue" d="M738.35,-291.47C705.91,-257.4 623.54,-166.43 578,-76 570.56,-61.23 565.56,-43.08 562.57,-29.71"/>
<polygon fill="midnightblue" stroke="midnightblue" points="565.97,-28.87 560.51,-19.79 559.11,-30.29 565.97,-28.87"/>
</g>
<!-- Node27&#45;&gt;Node8 -->
<g id="edge37" class="edge">
<title>Node27&#45;&gt;Node8</title>
<path fill="none" stroke="midnightblue" d="M812.15,-293.53C834.06,-286.1 856.89,-274.15 871,-255 908.76,-203.77 900.2,-122.22 893.84,-85.72"/>
<polygon fill="midnightblue" stroke="midnightblue" points="897.21,-84.73 891.91,-75.55 890.34,-86.03 897.21,-84.73"/>
</g>
<!-- Node27&#45;&gt;Node25 -->
<g id="edge64" class="edge">
<title>Node27&#45;&gt;Node25</title>
<path fill="none" stroke="midnightblue" d="M704.53,-291.48C670.82,-281.51 625.37,-268.09 589.58,-257.51"/>
<polygon fill="midnightblue" stroke="midnightblue" points="590.34,-254.09 579.76,-254.61 588.36,-260.8 590.34,-254.09"/>
</g>
<!-- Node28 -->
<g id="node28" class="node">
<title>Node28</title>
<g id="a_node28"><a xlink:href="http__configuration_8h.html" target="_top" xlink:title=" ">
<polygon fill="white" stroke="black" points="730.5,-230 730.5,-249 861.5,-249 861.5,-230 730.5,-230"/>
<text text-anchor="middle" x="796" y="-237" font-family="Helvetica,sans-Serif" font-size="10.00">ccf/http_configuration.h</text>
</a>
</g>
</g>
<!-- Node27&#45;&gt;Node28 -->
<g id="edge38" class="edge">
<title>Node27&#45;&gt;Node28</title>
<path fill="none" stroke="midnightblue" d="M761.55,-291.4C768.27,-281.46 777.31,-268.11 784.44,-257.57"/>
<polygon fill="midnightblue" stroke="midnightblue" points="787.41,-259.44 790.11,-249.19 781.61,-255.51 787.41,-259.44"/>
</g>
<!-- Node28&#45;&gt;Node3 -->
<g id="edge39" class="edge">
<title>Node28&#45;&gt;Node3</title>
<path fill="none" stroke="midnightblue" d="M786.69,-229.98C776.55,-220.7 760.14,-205.67 747.75,-194.33"/>
<polygon fill="midnightblue" stroke="midnightblue" points="750.04,-191.68 740.3,-187.51 745.31,-196.84 750.04,-191.68"/>
</g>
<!-- Node28&#45;&gt;Node26 -->
<g id="edge63" class="edge">
<title>Node28&#45;&gt;Node26</title>
<path fill="none" stroke="midnightblue" d="M794.22,-229.76C788.76,-203.04 772.23,-122.02 764.75,-85.36"/>
<polygon fill="midnightblue" stroke="midnightblue" points="768.17,-84.62 762.74,-75.52 761.31,-86.02 768.17,-84.62"/>
</g>
<!-- Node29 -->
<g id="node29" class="node">
<title>Node29</title>
<g id="a_node29"><a xlink:href="unit__strings_8h.html" target="_top" xlink:title=" ">
<polygon fill="white" stroke="black" points="1122,-168.5 1122,-187.5 1236,-187.5 1236,-168.5 1122,-168.5"/>
<text text-anchor="middle" x="1179" y="-175.5" font-family="Helvetica,sans-Serif" font-size="10.00">ccf/ds/unit_strings.h</text>
</a>
</g>
</g>
<!-- Node28&#45;&gt;Node29 -->
<g id="edge40" class="edge">
<title>Node28&#45;&gt;Node29</title>
<path fill="none" stroke="midnightblue" d="M850.87,-229.98C920.41,-219.17 1040.1,-200.58 1114.1,-189.08"/>
<polygon fill="midnightblue" stroke="midnightblue" points="1114.88,-192.5 1124.23,-187.51 1113.81,-185.59 1114.88,-192.5"/>
</g>
<!-- Node29&#45;&gt;Node5 -->
<g id="edge62" class="edge">
<title>Node29&#45;&gt;Node5</title>
<path fill="none" stroke="midnightblue" d="M1121.92,-172.41C1070.27,-166.94 992.75,-155.41 929,-132 897.41,-120.4 829.55,-67.73 798,-56 726.95,-29.59 638.02,-18.09 591.23,-13.58"/>
<polygon fill="midnightblue" stroke="midnightblue" points="591.37,-10.08 581.09,-12.65 590.73,-17.05 591.37,-10.08"/>
</g>
<!-- Node29&#45;&gt;Node8 -->
<g id="edge58" class="edge">
<title>Node29&#45;&gt;Node8</title>
<path fill="none" stroke="midnightblue" d="M1121.91,-173.39C1076.5,-168.62 1012.44,-157.58 962,-132 938.65,-120.16 917.1,-98.72 903.78,-83.72"/>
<polygon fill="midnightblue" stroke="midnightblue" points="906.11,-81.05 896.94,-75.74 900.8,-85.61 906.11,-81.05"/>
</g>
<!-- Node29&#45;&gt;Node15 -->
<g id="edge61" class="edge">
<title>Node29&#45;&gt;Node15</title>
<path fill="none" stroke="midnightblue" d="M1218.45,-168.49C1256.7,-158.41 1305.96,-139.46 1284,-112 1275.33,-101.16 1202.92,-86.82 1147.7,-77.27"/>
<polygon fill="midnightblue" stroke="midnightblue" points="1148.06,-73.78 1137.61,-75.54 1146.88,-80.68 1148.06,-73.78"/>
</g>
<!-- Node30 -->
<g id="node30" class="node">
<title>Node30</title>
<g id="a_node30"><a xlink:href="logger_8h.html" target="_top" xlink:title=" ">
<polygon fill="white" stroke="black" points="1331.5,-112.5 1331.5,-131.5 1418.5,-131.5 1418.5,-112.5 1331.5,-112.5"/>
<text text-anchor="middle" x="1375" y="-119.5" font-family="Helvetica,sans-Serif" font-size="10.00">ccf/ds/logger.h</text>
</a>
</g>
</g>
<!-- Node29&#45;&gt;Node30 -->
<g id="edge41" class="edge">
<title>Node29&#45;&gt;Node30</title>
<path fill="none" stroke="midnightblue" d="M1210.06,-168.44C1243.6,-159.2 1297.2,-144.44 1334.14,-134.26"/>
<polygon fill="midnightblue" stroke="midnightblue" points="1335.38,-137.55 1344.09,-131.52 1333.52,-130.8 1335.38,-137.55"/>
</g>
<!-- Node39 -->
<g id="node39" class="node">
<title>Node39</title>
<g id="a_node39"><a xlink:title=" ">
<polygon fill="white" stroke="#bfbfbf" points="1148.5,-112.5 1148.5,-131.5 1209.5,-131.5 1209.5,-112.5 1148.5,-112.5"/>
<text text-anchor="middle" x="1179" y="-119.5" font-family="Helvetica,sans-Serif" font-size="10.00">charconv</text>
</a>
</g>
</g>
<!-- Node29&#45;&gt;Node39 -->
<g id="edge59" class="edge">
<title>Node29&#45;&gt;Node39</title>
<path fill="none" stroke="midnightblue" d="M1179,-168.08C1179,-161.01 1179,-150.86 1179,-141.99"/>
<polygon fill="midnightblue" stroke="midnightblue" points="1182.5,-141.75 1179,-131.75 1175.5,-141.75 1182.5,-141.75"/>
</g>
<!-- Node40 -->
<g id="node40" class="node">
<title>Node40</title>
<g id="a_node40"><a xlink:title=" ">
<polygon fill="white" stroke="#bfbfbf" points="1227.5,-112.5 1227.5,-131.5 1274.5,-131.5 1274.5,-112.5 1227.5,-112.5"/>
<text text-anchor="middle" x="1251" y="-119.5" font-family="Helvetica,sans-Serif" font-size="10.00">cmath</text>
</a>
</g>
</g>
<!-- Node29&#45;&gt;Node40 -->
<g id="edge60" class="edge">
<title>Node29&#45;&gt;Node40</title>
<path fill="none" stroke="midnightblue" d="M1190.57,-168.32C1201.42,-160.18 1217.88,-147.84 1230.88,-138.09"/>
<polygon fill="midnightblue" stroke="midnightblue" points="1233.32,-140.63 1239.22,-131.83 1229.12,-135.03 1233.32,-140.63"/>
</g>
<!-- Node30&#45;&gt;Node13 -->
<g id="edge57" class="edge">
<title>Node30&#45;&gt;Node13</title>
<path fill="none" stroke="midnightblue" d="M1356.48,-112.37C1315.21,-93.13 1215.48,-46.65 1166.74,-23.93"/>
<polygon fill="midnightblue" stroke="midnightblue" points="1167.97,-20.64 1157.43,-19.59 1165.02,-26.99 1167.97,-20.64"/>
</g>
<!-- Node30&#45;&gt;Node14 -->
<g id="edge52" class="edge">
<title>Node30&#45;&gt;Node14</title>
<path fill="none" stroke="midnightblue" d="M1350.84,-112.48C1333.75,-105.28 1311.54,-93.33 1298,-76 1287.61,-62.69 1282.89,-43.86 1280.76,-29.89"/>
<polygon fill="midnightblue" stroke="midnightblue" points="1284.23,-29.43 1279.54,-19.93 1277.28,-30.28 1284.23,-29.43"/>
</g>
<!-- Node30&#45;&gt;Node15 -->
<g id="edge54" class="edge">
<title>Node30&#45;&gt;Node15</title>
<path fill="none" stroke="midnightblue" d="M1331.43,-112.92C1280.54,-103.47 1196.19,-87.82 1140.35,-77.46"/>
<polygon fill="midnightblue" stroke="midnightblue" points="1140.74,-73.97 1130.27,-75.59 1139.47,-80.85 1140.74,-73.97"/>
</g>
<!-- Node30&#45;&gt;Node16 -->
<g id="edge56" class="edge">
<title>Node30&#45;&gt;Node16</title>
<path fill="none" stroke="midnightblue" d="M1344.89,-112.44C1311.8,-103.04 1258.58,-87.91 1222.73,-77.72"/>
<polygon fill="midnightblue" stroke="midnightblue" points="1223.68,-74.36 1213.11,-74.99 1221.77,-81.09 1223.68,-74.36"/>
</g>
<!-- Node30&#45;&gt;Node26 -->
<g id="edge55" class="edge">
<title>Node30&#45;&gt;Node26</title>
<path fill="none" stroke="midnightblue" d="M1331.04,-116.49C1316.12,-115 1299.34,-113.37 1284,-112 1085.04,-94.17 1034.76,-95.9 836,-76 823.99,-74.8 810.92,-73.3 799.11,-71.87"/>
<polygon fill="midnightblue" stroke="midnightblue" points="799.46,-68.38 789.11,-70.64 798.61,-75.33 799.46,-68.38"/>
</g>
<!-- Node31 -->
<g id="node31" class="node">
<title>Node31</title>
<g id="a_node31"><a xlink:href="enum__formatter_8h.html" target="_top" xlink:title=" ">
<polygon fill="white" stroke="black" points="1307,-56.5 1307,-75.5 1443,-75.5 1443,-56.5 1307,-56.5"/>
<text text-anchor="middle" x="1375" y="-63.5" font-family="Helvetica,sans-Serif" font-size="10.00">ccf/ds/enum_formatter.h</text>
</a>
</g>
</g>
<!-- Node30&#45;&gt;Node31 -->
<g id="edge42" class="edge">
<title>Node30&#45;&gt;Node31</title>
<path fill="none" stroke="midnightblue" d="M1375,-112.08C1375,-105.01 1375,-94.86 1375,-85.99"/>
<polygon fill="midnightblue" stroke="midnightblue" points="1378.5,-85.75 1375,-75.75 1371.5,-85.75 1378.5,-85.75"/>
</g>
<!-- Node32 -->
<g id="node32" class="node">
<title>Node32</title>
<g id="a_node32"><a xlink:href="thread__ids_8h.html" target="_top" xlink:title=" ">
<polygon fill="white" stroke="black" points="1636,-56.5 1636,-75.5 1744,-75.5 1744,-56.5 1636,-56.5"/>
<text text-anchor="middle" x="1690" y="-63.5" font-family="Helvetica,sans-Serif" font-size="10.00">ccf/ds/thread_ids.h</text>
</a>
</g>
</g>
<!-- Node30&#45;&gt;Node32 -->
<g id="edge44" class="edge">
<title>Node30&#45;&gt;Node32</title>
<path fill="none" stroke="midnightblue" d="M1418.8,-113.49C1473.89,-104.05 1568.71,-87.79 1630.37,-77.22"/>
<polygon fill="midnightblue" stroke="midnightblue" points="1631.08,-80.65 1640.35,-75.51 1629.9,-73.75 1631.08,-80.65"/>
</g>
<!-- Node37 -->
<g id="node37" class="node">
<title>Node37</title>
<g id="a_node37"><a xlink:title=" ">
<polygon fill="white" stroke="#bfbfbf" points="1461.5,-56.5 1461.5,-75.5 1540.5,-75.5 1540.5,-56.5 1461.5,-56.5"/>
<text text-anchor="middle" x="1501" y="-63.5" font-family="Helvetica,sans-Serif" font-size="10.00">fmt/chrono.h</text>
</a>
</g>
</g>
<!-- Node30&#45;&gt;Node37 -->
<g id="edge51" class="edge">
<title>Node30&#45;&gt;Node37</title>
<path fill="none" stroke="midnightblue" d="M1394.97,-112.44C1415.61,-103.6 1448.06,-89.69 1471.63,-79.59"/>
<polygon fill="midnightblue" stroke="midnightblue" points="1473.32,-82.67 1481.13,-75.52 1470.56,-76.24 1473.32,-82.67"/>
</g>
<!-- Node38 -->
<g id="node38" class="node">
<title>Node38</title>
<g id="a_node38"><a xlink:title=" ">
<polygon fill="white" stroke="#bfbfbf" points="1558,-56.5 1558,-75.5 1618,-75.5 1618,-56.5 1558,-56.5"/>
<text text-anchor="middle" x="1588" y="-63.5" font-family="Helvetica,sans-Serif" font-size="10.00">iostream</text>
</a>
</g>
</g>
<!-- Node30&#45;&gt;Node38 -->
<g id="edge53" class="edge">
<title>Node30&#45;&gt;Node38</title>
<path fill="none" stroke="midnightblue" d="M1408.75,-112.44C1446.6,-102.85 1507.93,-87.3 1548.12,-77.11"/>
<polygon fill="midnightblue" stroke="midnightblue" points="1549.02,-80.49 1557.85,-74.64 1547.3,-73.71 1549.02,-80.49"/>
</g>
<!-- Node31&#45;&gt;Node14 -->
<g id="edge43" class="edge">
<title>Node31&#45;&gt;Node14</title>
<path fill="none" stroke="midnightblue" d="M1359.58,-56.32C1344.46,-47.82 1321.18,-34.73 1303.53,-24.8"/>
<polygon fill="midnightblue" stroke="midnightblue" points="1304.82,-21.51 1294.39,-19.65 1301.39,-27.61 1304.82,-21.51"/>
</g>
<!-- Node32&#45;&gt;Node14 -->
<g id="edge45" class="edge">
<title>Node32&#45;&gt;Node14</title>
<path fill="none" stroke="midnightblue" d="M1635.71,-57.2C1632.76,-56.79 1629.85,-56.39 1627,-56 1520.78,-41.55 1396.16,-25.7 1328.63,-17.21"/>
<polygon fill="midnightblue" stroke="midnightblue" points="1329.05,-13.73 1318.69,-15.96 1328.17,-20.68 1329.05,-13.73"/>
</g>
<!-- Node32&#45;&gt;Node22 -->
<g id="edge49" class="edge">
<title>Node32&#45;&gt;Node22</title>
<path fill="none" stroke="midnightblue" d="M1635.74,-56.95C1632.79,-56.6 1629.86,-56.28 1627,-56 1346.82,-28.16 1268.93,-70.99 988.19,-19.72"/>
<polygon fill="midnightblue" stroke="midnightblue" points="988.58,-16.23 978.11,-17.85 987.31,-23.11 988.58,-16.23"/>
</g>
<!-- Node33 -->
<g id="node33" class="node">
<title>Node33</title>
<g id="a_node33"><a xlink:title=" ">
<polygon fill="white" stroke="#bfbfbf" points="1764,-0.5 1764,-19.5 1850,-19.5 1850,-0.5 1764,-0.5"/>
<text text-anchor="middle" x="1807" y="-7.5" font-family="Helvetica,sans-Serif" font-size="10.00">fmt/ostream.h</text>
</a>
</g>
</g>
<!-- Node32&#45;&gt;Node33 -->
<g id="edge46" class="edge">
<title>Node32&#45;&gt;Node33</title>
<path fill="none" stroke="midnightblue" d="M1708.54,-56.44C1727.62,-47.64 1757.57,-33.81 1779.44,-23.72"/>
<polygon fill="midnightblue" stroke="midnightblue" points="1780.93,-26.88 1788.55,-19.52 1778,-20.53 1780.93,-26.88"/>
</g>
<!-- Node34 -->
<g id="node34" class="node">
<title>Node34</title>
<g id="a_node34"><a xlink:title=" ">
<polygon fill="white" stroke="#bfbfbf" points="1556.5,-0.5 1556.5,-19.5 1617.5,-19.5 1617.5,-0.5 1556.5,-0.5"/>
<text text-anchor="middle" x="1587" y="-7.5" font-family="Helvetica,sans-Serif" font-size="10.00">fmt/std.h</text>
</a>
</g>
</g>
<!-- Node32&#45;&gt;Node34 -->
<g id="edge47" class="edge">
<title>Node32&#45;&gt;Node34</title>
<path fill="none" stroke="midnightblue" d="M1673.45,-56.32C1657.01,-47.7 1631.57,-34.36 1612.53,-24.39"/>
<polygon fill="midnightblue" stroke="midnightblue" points="1613.99,-21.2 1603.51,-19.65 1610.74,-27.4 1613.99,-21.2"/>
</g>
<!-- Node35 -->
<g id="node35" class="node">
<title>Node35</title>
<g id="a_node35"><a xlink:title=" ">
<polygon fill="white" stroke="#bfbfbf" points="1636,-0.5 1636,-19.5 1680,-19.5 1680,-0.5 1636,-0.5"/>
<text text-anchor="middle" x="1658" y="-7.5" font-family="Helvetica,sans-Serif" font-size="10.00">limits</text>
</a>
</g>
</g>
<!-- Node32&#45;&gt;Node35 -->
<g id="edge48" class="edge">
<title>Node32&#45;&gt;Node35</title>
<path fill="none" stroke="midnightblue" d="M1684.72,-56.08C1680.29,-48.61 1673.84,-37.72 1668.38,-28.52"/>
<polygon fill="midnightblue" stroke="midnightblue" points="1671.29,-26.57 1663.19,-19.75 1665.27,-30.14 1671.29,-26.57"/>
</g>
<!-- Node36 -->
<g id="node36" class="node">
<title>Node36</title>
<g id="a_node36"><a xlink:title=" ">
<polygon fill="white" stroke="#bfbfbf" points="1698,-0.5 1698,-19.5 1746,-19.5 1746,-0.5 1698,-0.5"/>
<text text-anchor="middle" x="1722" y="-7.5" font-family="Helvetica,sans-Serif" font-size="10.00">thread</text>
</a>
</g>
</g>
<!-- Node32&#45;&gt;Node36 -->
<g id="edge50" class="edge">
<title>Node32&#45;&gt;Node36</title>
<path fill="none" stroke="midnightblue" d="M1695.28,-56.08C1699.71,-48.61 1706.16,-37.72 1711.62,-28.52"/>
<polygon fill="midnightblue" stroke="midnightblue" points="1714.73,-30.14 1716.81,-19.75 1708.71,-26.57 1714.73,-30.14"/>
</g>
</g>
</svg>
