<?xml version="1.0" encoding="UTF-8" standalone="no"?>
<!DOCTYPE svg PUBLIC "-//W3C//DTD SVG 1.1//EN"
 "http://www.w3.org/Graphics/SVG/1.1/DTD/svg11.dtd">
<!-- Generated by graphviz version 2.43.0 (0)
 -->
<!-- Title: include/ccf/pal/attestation.h Pages: 1 -->
<svg width="492pt" height="375pt"
 viewBox="0.00 0.00 491.50 375.00" xmlns="http://www.w3.org/2000/svg" xmlns:xlink="http://www.w3.org/1999/xlink">
<g id="graph0" class="graph" transform="scale(1 1) rotate(0) translate(4 371)">
<title>include/ccf/pal/attestation.h</title>
<polygon fill="white" stroke="transparent" points="-4,4 -4,-371 487.5,-371 487.5,4 -4,4"/>
<!-- Node1 -->
<g id="node1" class="node">
<title>Node1</title>
<g id="a_node1"><a xlink:title=" ">
<polygon fill="#bfbfbf" stroke="black" points="138.5,-347.5 138.5,-366.5 290.5,-366.5 290.5,-347.5 138.5,-347.5"/>
<text text-anchor="middle" x="214.5" y="-354.5" font-family="Helvetica,sans-Serif" font-size="10.00">include/ccf/pal/attestation.h</text>
</a>
</g>
</g>
<!-- Node2 -->
<g id="node2" class="node">
<title>Node2</title>
<g id="a_node2"><a xlink:href="host_2main_8cpp.html" target="_top" xlink:title=" ">
<polygon fill="white" stroke="black" points="0,-291.5 0,-310.5 103,-310.5 103,-291.5 0,-291.5"/>
<text text-anchor="middle" x="51.5" y="-298.5" font-family="Helvetica,sans-Serif" font-size="10.00">src/host/main.cpp</text>
</a>
</g>
</g>
<!-- Node1&#45;&gt;Node2 -->
<g id="edge1" class="edge">
<title>Node1&#45;&gt;Node2</title>
<path fill="none" stroke="midnightblue" d="M178.8,-344.17C148.1,-334 104.58,-319.59 77.21,-310.52"/>
<polygon fill="midnightblue" stroke="midnightblue" points="178.08,-347.62 188.67,-347.44 180.28,-340.98 178.08,-347.62"/>
</g>
<!-- Node3 -->
<g id="node3" class="node">
<title>Node3</title>
<g id="a_node3"><a xlink:href="node__state_8h.html" target="_top" xlink:title=" ">
<polygon fill="white" stroke="black" points="206.5,-168.5 206.5,-187.5 330.5,-187.5 330.5,-168.5 206.5,-168.5"/>
<text text-anchor="middle" x="268.5" y="-175.5" font-family="Helvetica,sans-Serif" font-size="10.00">src/node/node_state.h</text>
</a>
</g>
</g>
<!-- Node1&#45;&gt;Node3 -->
<g id="edge2" class="edge">
<title>Node1&#45;&gt;Node3</title>
<path fill="none" stroke="midnightblue" d="M184.79,-342.55C172.16,-335.16 158.7,-324.69 151.5,-311 133.5,-276.78 128.56,-255.84 150.5,-224 163.68,-204.86 186.18,-193.86 208.02,-187.53"/>
<polygon fill="midnightblue" stroke="midnightblue" points="183.28,-345.71 193.74,-347.38 186.6,-339.55 183.28,-345.71"/>
</g>
<!-- Node7 -->
<g id="node7" class="node">
<title>Node7</title>
<g id="a_node7"><a xlink:href="quote_8cpp.html" target="_top" xlink:title=" ">
<polygon fill="white" stroke="black" points="160,-291.5 160,-310.5 269,-310.5 269,-291.5 160,-291.5"/>
<text text-anchor="middle" x="214.5" y="-298.5" font-family="Helvetica,sans-Serif" font-size="10.00">src/node/quote.cpp</text>
</a>
</g>
</g>
<!-- Node1&#45;&gt;Node7 -->
<g id="edge7" class="edge">
<title>Node1&#45;&gt;Node7</title>
<path fill="none" stroke="midnightblue" d="M214.5,-336.8C214.5,-327.91 214.5,-317.78 214.5,-310.75"/>
<polygon fill="midnightblue" stroke="midnightblue" points="211,-337.08 214.5,-347.08 218,-337.08 211,-337.08"/>
</g>
<!-- Node8 -->
<g id="node8" class="node">
<title>Node8</title>
<g id="a_node8"><a xlink:href="quote__endorsements__client_8h.html" target="_top" xlink:title=" ">
<polygon fill="white" stroke="black" points="159.5,-224.5 159.5,-254.5 323.5,-254.5 323.5,-224.5 159.5,-224.5"/>
<text text-anchor="start" x="167.5" y="-242.5" font-family="Helvetica,sans-Serif" font-size="10.00">src/node/quote_endorsements</text>
<text text-anchor="middle" x="241.5" y="-231.5" font-family="Helvetica,sans-Serif" font-size="10.00">_client.h</text>
</a>
</g>
</g>
<!-- Node1&#45;&gt;Node8 -->
<g id="edge8" class="edge">
<title>Node1&#45;&gt;Node8</title>
<path fill="none" stroke="midnightblue" d="M245.05,-342.56C257.83,-335.22 271.35,-324.77 278.5,-311 288.69,-291.37 271.69,-268.74 257.51,-254.53"/>
<polygon fill="midnightblue" stroke="midnightblue" points="243.18,-339.59 235.98,-347.36 246.46,-345.77 243.18,-339.59"/>
</g>
<!-- Node9 -->
<g id="node9" class="node">
<title>Node9</title>
<g id="a_node9"><a xlink:href="node__frontend_8h.html" target="_top" xlink:title=" ">
<polygon fill="white" stroke="black" points="325.5,-291.5 325.5,-310.5 483.5,-310.5 483.5,-291.5 325.5,-291.5"/>
<text text-anchor="middle" x="404.5" y="-298.5" font-family="Helvetica,sans-Serif" font-size="10.00">src/node/rpc/node_frontend.h</text>
</a>
</g>
</g>
<!-- Node1&#45;&gt;Node9 -->
<g id="edge10" class="edge">
<title>Node1&#45;&gt;Node9</title>
<path fill="none" stroke="midnightblue" d="M254.26,-344.7C290.12,-334.51 342.07,-319.74 374.53,-310.52"/>
<polygon fill="midnightblue" stroke="midnightblue" points="253.27,-341.34 244.61,-347.44 255.18,-348.08 253.27,-341.34"/>
</g>
<!-- Node4 -->
<g id="node4" class="node">
<title>Node4</title>
<g id="a_node4"><a xlink:href="src_2enclave_2enclave_8h.html" target="_top" xlink:title=" ">
<polygon fill="white" stroke="black" points="307.5,-56.5 307.5,-75.5 429.5,-75.5 429.5,-56.5 307.5,-56.5"/>
<text text-anchor="middle" x="368.5" y="-63.5" font-family="Helvetica,sans-Serif" font-size="10.00">src/enclave/enclave.h</text>
</a>
</g>
</g>
<!-- Node3&#45;&gt;Node4 -->
<g id="edge3" class="edge">
<title>Node3&#45;&gt;Node4</title>
<path fill="none" stroke="midnightblue" d="M270.11,-158.5C272.17,-144.45 276.85,-125.34 287.5,-112 301.56,-94.4 324.46,-82.6 342.34,-75.51"/>
<polygon fill="midnightblue" stroke="midnightblue" points="266.63,-158.14 268.96,-168.48 273.58,-158.94 266.63,-158.14"/>
</g>
<!-- Node6 -->
<g id="node6" class="node">
<title>Node6</title>
<g id="a_node6"><a xlink:href="gov__effects_8h.html" target="_top" xlink:title=" ">
<polygon fill="white" stroke="black" points="296.5,-112.5 296.5,-131.5 440.5,-131.5 440.5,-112.5 296.5,-112.5"/>
<text text-anchor="middle" x="368.5" y="-119.5" font-family="Helvetica,sans-Serif" font-size="10.00">src/node/rpc/gov_effects.h</text>
</a>
</g>
</g>
<!-- Node3&#45;&gt;Node6 -->
<g id="edge5" class="edge">
<title>Node3&#45;&gt;Node6</title>
<path fill="none" stroke="midnightblue" d="M293.59,-163.45C312.05,-153.48 336.6,-140.23 352.47,-131.65"/>
<polygon fill="midnightblue" stroke="midnightblue" points="291.7,-160.49 284.57,-168.32 295.03,-166.65 291.7,-160.49"/>
</g>
<!-- Node5 -->
<g id="node5" class="node">
<title>Node5</title>
<g id="a_node5"><a xlink:href="enclave_2main_8cpp.html" target="_top" xlink:title=" ">
<polygon fill="white" stroke="black" points="308.5,-0.5 308.5,-19.5 428.5,-19.5 428.5,-0.5 308.5,-0.5"/>
<text text-anchor="middle" x="368.5" y="-7.5" font-family="Helvetica,sans-Serif" font-size="10.00">src/enclave/main.cpp</text>
</a>
</g>
</g>
<!-- Node4&#45;&gt;Node5 -->
<g id="edge4" class="edge">
<title>Node4&#45;&gt;Node5</title>
<path fill="none" stroke="midnightblue" d="M368.5,-45.8C368.5,-36.91 368.5,-26.78 368.5,-19.75"/>
<polygon fill="midnightblue" stroke="midnightblue" points="365,-46.08 368.5,-56.08 372,-46.08 365,-46.08"/>
</g>
<!-- Node6&#45;&gt;Node4 -->
<g id="edge6" class="edge">
<title>Node6&#45;&gt;Node4</title>
<path fill="none" stroke="midnightblue" d="M368.5,-101.8C368.5,-92.91 368.5,-82.78 368.5,-75.75"/>
<polygon fill="midnightblue" stroke="midnightblue" points="365,-102.08 368.5,-112.08 372,-102.08 365,-102.08"/>
</g>
<!-- Node8&#45;&gt;Node3 -->
<g id="edge9" class="edge">
<title>Node8&#45;&gt;Node3</title>
<path fill="none" stroke="midnightblue" d="M252.07,-215.2C256.47,-205.52 261.29,-194.88 264.57,-187.66"/>
<polygon fill="midnightblue" stroke="midnightblue" points="248.84,-213.85 247.9,-224.4 255.22,-216.74 248.84,-213.85"/>
</g>
<!-- Node9&#45;&gt;Node4 -->
<g id="edge11" class="edge">
<title>Node9&#45;&gt;Node4</title>
<path fill="none" stroke="midnightblue" d="M439.16,-287.24C453.4,-280.08 468.41,-269.59 476.5,-255 483.18,-242.95 478.13,-237.68 476.5,-224 470.46,-173.15 480.49,-152.76 449.5,-112 436.06,-94.33 413.57,-82.63 395.7,-75.61"/>
<polygon fill="midnightblue" stroke="midnightblue" points="437.61,-284.1 430,-291.47 440.55,-290.45 437.61,-284.1"/>
</g>
<!-- Node10 -->
<g id="node10" class="node">
<title>Node10</title>
<g id="a_node10"><a xlink:href="jwt__key__auto__refresh_8h.html" target="_top" xlink:title=" ">
<polygon fill="white" stroke="black" points="342,-224.5 342,-254.5 467,-254.5 467,-224.5 342,-224.5"/>
<text text-anchor="start" x="350" y="-242.5" font-family="Helvetica,sans-Serif" font-size="10.00">src/node/jwt_key_auto</text>
<text text-anchor="middle" x="404.5" y="-231.5" font-family="Helvetica,sans-Serif" font-size="10.00">_refresh.h</text>
</a>
</g>
</g>
<!-- Node9&#45;&gt;Node10 -->
<g id="edge12" class="edge">
<title>Node9&#45;&gt;Node10</title>
<path fill="none" stroke="midnightblue" d="M404.5,-281.23C404.5,-272.59 404.5,-262.5 404.5,-254.52"/>
<polygon fill="midnightblue" stroke="midnightblue" points="401,-281.48 404.5,-291.48 408,-281.48 401,-281.48"/>
</g>
<!-- Node10&#45;&gt;Node3 -->
<g id="edge13" class="edge">
<title>Node10&#45;&gt;Node3</title>
<path fill="none" stroke="midnightblue" d="M363.06,-220.37C338.24,-209.51 307.81,-196.2 288.29,-187.66"/>
<polygon fill="midnightblue" stroke="midnightblue" points="361.71,-223.6 372.27,-224.4 364.51,-217.18 361.71,-223.6"/>
</g>
</g>
</svg>
