<?xml version="1.0" encoding="UTF-8" standalone="no"?>
<!DOCTYPE svg PUBLIC "-//W3C//DTD SVG 1.1//EN"
 "http://www.w3.org/Graphics/SVG/1.1/DTD/svg11.dtd">
<!-- Generated by graphviz version 2.43.0 (0)
 -->
<!-- Title: src/crypto/certs.h Pages: 1 -->
<!--zoomable 476 -->
<svg id="main" version="1.1" xmlns="http://www.w3.org/2000/svg" xmlns:xlink="http://www.w3.org/1999/xlink" xml:space="preserve" onload="init(evt)">
<style type="text/css"><![CDATA[
.edge:hover path { stroke: red; }
.edge:hover polygon { stroke: red; fill: red; }
]]></style>
<script type="text/javascript"><![CDATA[
var edges = document.getElementsByTagName('g');
if (edges && edges.length) {
  for (var i=0;i<edges.length;i++) {
    if (edges[i].id.substr(0,4)=='edge') {
      edges[i].setAttribute('class','edge');
    }
  }
}
]]></script>
        <defs>
                <circle id="rim" cx="0" cy="0" r="7"/>
                <circle id="rim2" cx="0" cy="0" r="3.5"/>
                <g id="zoomPlus">
                        <use xlink:href="#rim" fill="#404040">
                                <set attributeName="fill" to="#808080" begin="zoomplus.mouseover" end="zoomplus.mouseout"/>
                        </use>
                        <path d="M-4,0h8M0,-4v8" fill="none" stroke="white" stroke-width="1.5" pointer-events="none"/>
                </g>
                <g id="zoomMin">
                        <use xlink:href="#rim" fill="#404040">
                                <set attributeName="fill" to="#808080" begin="zoomminus.mouseover" end="zoomminus.mouseout"/>
                        </use>
                        <path d="M-4,0h8" fill="none" stroke="white" stroke-width="1.5" pointer-events="none"/>
                </g>
                <g id="dirArrow">
                        <path fill="none" stroke="white" stroke-width="1.5" d="M0,-3.0v7 M-2.5,-0.5L0,-3.0L2.5,-0.5"/>
                </g>
               <g id="resetDef">
                       <use xlink:href="#rim2" fill="#404040">
                               <set attributeName="fill" to="#808080" begin="reset.mouseover" end="reset.mouseout"/>
                       </use>
               </g>
        </defs>

<script type="text/javascript">
var viewWidth = 1504;
var viewHeight = 476;
var sectionId = 'dynsection-0';
</script>
<script xlink:href="svgpan.js"/>
<svg id="graph" class="graph">
<g id="viewport">
<title>src/crypto/certs.h</title>
<polygon fill="white" stroke="transparent" points="-4,4 -4,-472 1500,-472 1500,4 -4,4"/>
<!-- Node1 -->
<g id="node1" class="node">
<title>Node1</title>
<g id="a_node1"><a xlink:title=" ">
<polygon fill="#bfbfbf" stroke="black" points="783.5,-448.5 783.5,-467.5 884.5,-467.5 884.5,-448.5 783.5,-448.5"/>
<text text-anchor="middle" x="834" y="-455.5" font-family="Helvetica,sans-Serif" font-size="10.00">src/crypto/certs.h</text>
</a>
</g>
</g>
<!-- Node2 -->
<g id="node2" class="node">
<title>Node2</title>
<g id="a_node2"><a xlink:href="include_2ccf_2crypto_2key__pair_8h.html" target="_top" xlink:title=" ">
<polygon fill="white" stroke="black" points="408.5,-392.5 408.5,-411.5 525.5,-411.5 525.5,-392.5 408.5,-392.5"/>
<text text-anchor="middle" x="467" y="-399.5" font-family="Helvetica,sans-Serif" font-size="10.00">ccf/crypto/key_pair.h</text>
</a>
</g>
</g>
<!-- Node1&#45;&gt;Node2 -->
<g id="edge1" class="edge">
<title>Node1&#45;&gt;Node2</title>
<path fill="none" stroke="midnightblue" d="M783.36,-449.55C718.88,-440.06 607.25,-423.64 535.3,-413.05"/>
<polygon fill="midnightblue" stroke="midnightblue" points="535.38,-409.52 524.98,-411.53 534.37,-416.45 535.38,-409.52"/>
</g>
<!-- Node7 -->
<g id="node7" class="node">
<title>Node7</title>
<g id="a_node7"><a xlink:title=" ">
<polygon fill="white" stroke="#bfbfbf" points="92,-0.5 92,-19.5 136,-19.5 136,-0.5 92,-0.5"/>
<text text-anchor="middle" x="114" y="-7.5" font-family="Helvetica,sans-Serif" font-size="10.00">string</text>
</a>
</g>
</g>
<!-- Node1&#45;&gt;Node7 -->
<g id="edge65" class="edge">
<title>Node1&#45;&gt;Node7</title>
<path fill="none" stroke="midnightblue" d="M783.4,-455.68C602.7,-450.32 0,-426.46 0,-347 0,-347 0,-347 0,-121 0,-74.11 50.55,-40.89 84.33,-23.93"/>
<polygon fill="midnightblue" stroke="midnightblue" points="85.87,-27.07 93.36,-19.58 82.83,-20.77 85.87,-27.07"/>
</g>
<!-- Node21 -->
<g id="node21" class="node">
<title>Node21</title>
<g id="a_node21"><a xlink:href="pem_8h.html" target="_top" xlink:title=" ">
<polygon fill="white" stroke="black" points="785,-280.5 785,-299.5 883,-299.5 883,-280.5 785,-280.5"/>
<text text-anchor="middle" x="834" y="-287.5" font-family="Helvetica,sans-Serif" font-size="10.00">ccf/crypto/pem.h</text>
</a>
</g>
</g>
<!-- Node1&#45;&gt;Node21 -->
<g id="edge55" class="edge">
<title>Node1&#45;&gt;Node21</title>
<path fill="none" stroke="midnightblue" d="M834,-448.08C834,-421.95 834,-345.21 834,-309.58"/>
<polygon fill="midnightblue" stroke="midnightblue" points="837.5,-309.57 834,-299.57 830.5,-309.57 837.5,-309.57"/>
</g>
<!-- Node31 -->
<g id="node31" class="node">
<title>Node31</title>
<g id="a_node31"><a xlink:href="x509__time__fmt_8h.html" target="_top" xlink:title=" ">
<polygon fill="white" stroke="black" points="1173,-168.5 1173,-187.5 1287,-187.5 1287,-168.5 1173,-168.5"/>
<text text-anchor="middle" x="1230" y="-175.5" font-family="Helvetica,sans-Serif" font-size="10.00">ds/x509_time_fmt.h</text>
</a>
</g>
</g>
<!-- Node1&#45;&gt;Node31 -->
<g id="edge56" class="edge">
<title>Node1&#45;&gt;Node31</title>
<path fill="none" stroke="midnightblue" d="M884.67,-452.61C986,-442.42 1204,-412.84 1204,-347 1204,-347 1204,-347 1204,-289 1204,-255.93 1215.27,-218.73 1222.97,-197.17"/>
<polygon fill="midnightblue" stroke="midnightblue" points="1226.29,-198.27 1226.49,-187.68 1219.73,-195.83 1226.29,-198.27"/>
</g>
<!-- Node32 -->
<g id="node32" class="node">
<title>Node32</title>
<g id="a_node32"><a xlink:title=" ">
<polygon fill="white" stroke="#bfbfbf" points="1446,-112.5 1446,-131.5 1496,-131.5 1496,-112.5 1446,-112.5"/>
<text text-anchor="middle" x="1471" y="-119.5" font-family="Helvetica,sans-Serif" font-size="10.00">chrono</text>
</a>
</g>
</g>
<!-- Node1&#45;&gt;Node32 -->
<g id="edge64" class="edge">
<title>Node1&#45;&gt;Node32</title>
<path fill="none" stroke="midnightblue" d="M884.59,-457.69C1022.2,-458.23 1393,-450.11 1393,-347 1393,-347 1393,-347 1393,-233 1393,-192.97 1427.8,-157.34 1450.91,-138.09"/>
<polygon fill="midnightblue" stroke="midnightblue" points="1453.2,-140.74 1458.81,-131.76 1448.82,-135.28 1453.2,-140.74"/>
</g>
<!-- Node3 -->
<g id="node3" class="node">
<title>Node3</title>
<g id="a_node3"><a xlink:href="curve_8h.html" target="_top" xlink:title=" ">
<polygon fill="white" stroke="black" points="323,-280.5 323,-299.5 427,-299.5 427,-280.5 323,-280.5"/>
<text text-anchor="middle" x="375" y="-287.5" font-family="Helvetica,sans-Serif" font-size="10.00">ccf/crypto/curve.h</text>
</a>
</g>
</g>
<!-- Node2&#45;&gt;Node3 -->
<g id="edge2" class="edge">
<title>Node2&#45;&gt;Node3</title>
<path fill="none" stroke="midnightblue" d="M445.14,-392.36C429.1,-384.96 407.94,-372.83 395,-356 384.67,-342.56 379.63,-323.74 377.2,-309.81"/>
<polygon fill="midnightblue" stroke="midnightblue" points="380.66,-309.28 375.76,-299.88 373.74,-310.28 380.66,-309.28"/>
</g>
<!-- Node2&#45;&gt;Node7 -->
<g id="edge53" class="edge">
<title>Node2&#45;&gt;Node7</title>
<path fill="none" stroke="midnightblue" d="M408.25,-398.18C290.76,-390.93 38,-366.54 38,-291 38,-291 38,-291 38,-121 38,-81.28 71.96,-45.5 94.48,-26.15"/>
<polygon fill="midnightblue" stroke="midnightblue" points="96.98,-28.63 102.46,-19.57 92.52,-23.24 96.98,-28.63"/>
</g>
<!-- Node8 -->
<g id="node8" class="node">
<title>Node8</title>
<g id="a_node8"><a xlink:title=" ">
<polygon fill="white" stroke="#bfbfbf" points="719.5,-0.5 719.5,-19.5 766.5,-19.5 766.5,-0.5 719.5,-0.5"/>
<text text-anchor="middle" x="743" y="-7.5" font-family="Helvetica,sans-Serif" font-size="10.00">vector</text>
</a>
</g>
</g>
<!-- Node2&#45;&gt;Node8 -->
<g id="edge54" class="edge">
<title>Node2&#45;&gt;Node8</title>
<path fill="none" stroke="midnightblue" d="M525.51,-397.61C689.73,-387.33 1143,-353.31 1143,-291 1143,-291 1143,-291 1143,-121 1143,-45.25 872.9,-19.71 776.6,-13.02"/>
<polygon fill="midnightblue" stroke="midnightblue" points="776.74,-9.52 766.53,-12.34 776.27,-16.5 776.74,-9.52"/>
</g>
<!-- Node2&#45;&gt;Node21 -->
<g id="edge27" class="edge">
<title>Node2&#45;&gt;Node21</title>
<path fill="none" stroke="midnightblue" d="M515.3,-392.44C556.57,-384.61 617.3,-371.84 669,-356 718.09,-340.96 773.23,-317.94 805.72,-303.71"/>
<polygon fill="midnightblue" stroke="midnightblue" points="807.31,-306.84 815.04,-299.6 804.48,-300.43 807.31,-306.84"/>
</g>
<!-- Node26 -->
<g id="node26" class="node">
<title>Node26</title>
<g id="a_node26"><a xlink:href="include_2ccf_2crypto_2public__key_8h.html" target="_top" xlink:title=" ">
<polygon fill="white" stroke="black" points="403.5,-336.5 403.5,-355.5 530.5,-355.5 530.5,-336.5 403.5,-336.5"/>
<text text-anchor="middle" x="467" y="-343.5" font-family="Helvetica,sans-Serif" font-size="10.00">ccf/crypto/public_key.h</text>
</a>
</g>
</g>
<!-- Node2&#45;&gt;Node26 -->
<g id="edge35" class="edge">
<title>Node2&#45;&gt;Node26</title>
<path fill="none" stroke="midnightblue" d="M467,-392.08C467,-385.01 467,-374.86 467,-365.99"/>
<polygon fill="midnightblue" stroke="midnightblue" points="470.5,-365.75 467,-355.75 463.5,-365.75 470.5,-365.75"/>
</g>
<!-- Node28 -->
<g id="node28" class="node">
<title>Node28</title>
<g id="a_node28"><a xlink:title=" ">
<polygon fill="white" stroke="#bfbfbf" points="589,-224.5 589,-243.5 639,-243.5 639,-224.5 589,-224.5"/>
<text text-anchor="middle" x="614" y="-231.5" font-family="Helvetica,sans-Serif" font-size="10.00">cstdint</text>
</a>
</g>
</g>
<!-- Node2&#45;&gt;Node28 -->
<g id="edge51" class="edge">
<title>Node2&#45;&gt;Node28</title>
<path fill="none" stroke="midnightblue" d="M498.88,-392.47C539.13,-379.8 606.65,-351.73 636,-300 644.6,-284.85 636.19,-265.79 627.4,-252.24"/>
<polygon fill="midnightblue" stroke="midnightblue" points="630.1,-249.99 621.46,-243.85 624.39,-254.04 630.1,-249.99"/>
</g>
<!-- Node29 -->
<g id="node29" class="node">
<title>Node29</title>
<g id="a_node29"><a xlink:href="san_8h.html" target="_top" xlink:title=" ">
<polygon fill="white" stroke="black" points="142,-224.5 142,-243.5 236,-243.5 236,-224.5 142,-224.5"/>
<text text-anchor="middle" x="189" y="-231.5" font-family="Helvetica,sans-Serif" font-size="10.00">ccf/crypto/san.h</text>
</a>
</g>
</g>
<!-- Node2&#45;&gt;Node29 -->
<g id="edge50" class="edge">
<title>Node2&#45;&gt;Node29</title>
<path fill="none" stroke="midnightblue" d="M408.5,-401.01C336.68,-397.44 217.82,-379.07 164,-300 153.84,-285.08 164.04,-265.45 174.3,-251.69"/>
<polygon fill="midnightblue" stroke="midnightblue" points="177.27,-253.57 180.84,-243.59 171.83,-249.17 177.27,-253.57"/>
</g>
<!-- Node30 -->
<g id="node30" class="node">
<title>Node30</title>
<g id="a_node30"><a xlink:title=" ">
<polygon fill="white" stroke="#bfbfbf" points="173,-280.5 173,-299.5 229,-299.5 229,-280.5 173,-280.5"/>
<text text-anchor="middle" x="201" y="-287.5" font-family="Helvetica,sans-Serif" font-size="10.00">optional</text>
</a>
</g>
</g>
<!-- Node2&#45;&gt;Node30 -->
<g id="edge52" class="edge">
<title>Node2&#45;&gt;Node30</title>
<path fill="none" stroke="midnightblue" d="M446.13,-392.37C399.32,-373.01 285.79,-326.06 231.25,-303.51"/>
<polygon fill="midnightblue" stroke="midnightblue" points="232.35,-300.18 221.78,-299.59 229.68,-306.65 232.35,-300.18"/>
</g>
<!-- Node4 -->
<g id="node4" class="node">
<title>Node4</title>
<g id="a_node4"><a xlink:href="md__type_8h.html" target="_top" xlink:title=" ">
<polygon fill="white" stroke="black" points="413.5,-224.5 413.5,-243.5 532.5,-243.5 532.5,-224.5 413.5,-224.5"/>
<text text-anchor="middle" x="473" y="-231.5" font-family="Helvetica,sans-Serif" font-size="10.00">ccf/crypto/md_type.h</text>
</a>
</g>
</g>
<!-- Node3&#45;&gt;Node4 -->
<g id="edge3" class="edge">
<title>Node3&#45;&gt;Node4</title>
<path fill="none" stroke="midnightblue" d="M390.75,-280.32C406.32,-271.74 430.38,-258.49 448.46,-248.52"/>
<polygon fill="midnightblue" stroke="midnightblue" points="450.22,-251.55 457.29,-243.65 446.85,-245.42 450.22,-251.55"/>
</g>
<!-- Node5 -->
<g id="node5" class="node">
<title>Node5</title>
<g id="a_node5"><a xlink:href="json_8h.html" target="_top" xlink:title=" ">
<polygon fill="white" stroke="black" points="522.5,-168.5 522.5,-187.5 599.5,-187.5 599.5,-168.5 522.5,-168.5"/>
<text text-anchor="middle" x="561" y="-175.5" font-family="Helvetica,sans-Serif" font-size="10.00">ccf/ds/json.h</text>
</a>
</g>
</g>
<!-- Node3&#45;&gt;Node5 -->
<g id="edge23" class="edge">
<title>Node3&#45;&gt;Node5</title>
<path fill="none" stroke="midnightblue" d="M427.22,-280.66C469.88,-272.84 525.69,-259.96 542,-244 554.2,-232.06 558.67,-212.75 560.26,-198.28"/>
<polygon fill="midnightblue" stroke="midnightblue" points="563.78,-198.17 561,-187.94 556.79,-197.66 563.78,-198.17"/>
</g>
<!-- Node3&#45;&gt;Node7 -->
<g id="edge26" class="edge">
<title>Node3&#45;&gt;Node7</title>
<path fill="none" stroke="midnightblue" d="M322.96,-282.26C256.1,-273.15 146.95,-256.61 133,-244 110.68,-223.81 114,-209.1 114,-179 114,-179 114,-179 114,-121 114,-88.95 114,-51.64 114,-29.75"/>
<polygon fill="midnightblue" stroke="midnightblue" points="117.5,-29.56 114,-19.56 110.5,-29.56 117.5,-29.56"/>
</g>
<!-- Node16 -->
<g id="node16" class="node">
<title>Node16</title>
<g id="a_node16"><a xlink:title=" ">
<polygon fill="white" stroke="#bfbfbf" points="193.5,-56.5 193.5,-75.5 272.5,-75.5 272.5,-56.5 193.5,-56.5"/>
<text text-anchor="middle" x="233" y="-63.5" font-family="Helvetica,sans-Serif" font-size="10.00">fmt/format.h</text>
</a>
</g>
</g>
<!-- Node3&#45;&gt;Node16 -->
<g id="edge24" class="edge">
<title>Node3&#45;&gt;Node16</title>
<path fill="none" stroke="midnightblue" d="M359.22,-280.44C345.75,-272.48 326.61,-259.53 314,-244 273.23,-193.8 248.15,-119.75 238.09,-85.55"/>
<polygon fill="midnightblue" stroke="midnightblue" points="241.35,-84.24 235.25,-75.57 234.62,-86.15 241.35,-84.24"/>
</g>
<!-- Node19 -->
<g id="node19" class="node">
<title>Node19</title>
<g id="a_node19"><a xlink:href="enum__formatter_8h.html" target="_top" xlink:title=" ">
<polygon fill="white" stroke="black" points="368,-168.5 368,-187.5 504,-187.5 504,-168.5 368,-168.5"/>
<text text-anchor="middle" x="436" y="-175.5" font-family="Helvetica,sans-Serif" font-size="10.00">ccf/ds/enum_formatter.h</text>
</a>
</g>
</g>
<!-- Node3&#45;&gt;Node19 -->
<g id="edge21" class="edge">
<title>Node3&#45;&gt;Node19</title>
<path fill="none" stroke="midnightblue" d="M358.83,-280.34C338.39,-268.22 307.5,-245.31 322,-224 333.11,-207.67 351.15,-197.27 369.63,-190.64"/>
<polygon fill="midnightblue" stroke="midnightblue" points="370.87,-193.92 379.31,-187.5 368.71,-187.26 370.87,-193.92"/>
</g>
<!-- Node20 -->
<g id="node20" class="node">
<title>Node20</title>
<g id="a_node20"><a xlink:title=" ">
<polygon fill="white" stroke="#bfbfbf" points="330.5,-224.5 330.5,-243.5 395.5,-243.5 395.5,-224.5 330.5,-224.5"/>
<text text-anchor="middle" x="363" y="-231.5" font-family="Helvetica,sans-Serif" font-size="10.00">stdexcept</text>
</a>
</g>
</g>
<!-- Node3&#45;&gt;Node20 -->
<g id="edge25" class="edge">
<title>Node3&#45;&gt;Node20</title>
<path fill="none" stroke="midnightblue" d="M373.02,-280.08C371.43,-272.93 369.14,-262.64 367.15,-253.69"/>
<polygon fill="midnightblue" stroke="midnightblue" points="370.53,-252.75 364.94,-243.75 363.7,-254.27 370.53,-252.75"/>
</g>
<!-- Node4&#45;&gt;Node5 -->
<g id="edge4" class="edge">
<title>Node4&#45;&gt;Node5</title>
<path fill="none" stroke="midnightblue" d="M487.14,-224.32C500.87,-215.9 521.94,-202.97 538.06,-193.07"/>
<polygon fill="midnightblue" stroke="midnightblue" points="540.2,-195.87 546.9,-187.65 536.54,-189.9 540.2,-195.87"/>
</g>
<!-- Node6 -->
<g id="node6" class="node">
<title>Node6</title>
<g id="a_node6"><a xlink:href="include_2ccf_2crypto_2base64_8h.html" target="_top" xlink:title=" ">
<polygon fill="white" stroke="black" points="527,-56.5 527,-75.5 639,-75.5 639,-56.5 527,-56.5"/>
<text text-anchor="middle" x="583" y="-63.5" font-family="Helvetica,sans-Serif" font-size="10.00">ccf/crypto/base64.h</text>
</a>
</g>
</g>
<!-- Node5&#45;&gt;Node6 -->
<g id="edge5" class="edge">
<title>Node5&#45;&gt;Node6</title>
<path fill="none" stroke="midnightblue" d="M562.73,-168.37C566.28,-150.62 574.47,-109.67 579.28,-85.6"/>
<polygon fill="midnightblue" stroke="midnightblue" points="582.75,-86.08 581.28,-75.59 575.89,-84.71 582.75,-86.08"/>
</g>
<!-- Node9 -->
<g id="node9" class="node">
<title>Node9</title>
<g id="a_node9"><a xlink:href="include_2ccf_2ds_2json__schema_8h.html" target="_top" xlink:title=" ">
<polygon fill="white" stroke="black" points="336.5,-112.5 336.5,-131.5 457.5,-131.5 457.5,-112.5 336.5,-112.5"/>
<text text-anchor="middle" x="397" y="-119.5" font-family="Helvetica,sans-Serif" font-size="10.00">ccf/ds/json_schema.h</text>
</a>
</g>
</g>
<!-- Node5&#45;&gt;Node9 -->
<g id="edge8" class="edge">
<title>Node5&#45;&gt;Node9</title>
<path fill="none" stroke="midnightblue" d="M535.01,-168.44C507.3,-159.32 463.25,-144.81 432.38,-134.65"/>
<polygon fill="midnightblue" stroke="midnightblue" points="433.46,-131.32 422.86,-131.52 431.27,-137.97 433.46,-131.32"/>
</g>
<!-- Node5&#45;&gt;Node16 -->
<g id="edge19" class="edge">
<title>Node5&#45;&gt;Node16</title>
<path fill="none" stroke="midnightblue" d="M522.4,-169.75C457.35,-157.51 332.49,-133.87 328,-132 312.29,-125.44 275.41,-98.82 252.5,-81.75"/>
<polygon fill="midnightblue" stroke="midnightblue" points="254.3,-78.72 244.2,-75.52 250.1,-84.32 254.3,-78.72"/>
</g>
<!-- Node18 -->
<g id="node18" class="node">
<title>Node18</title>
<g id="a_node18"><a xlink:title=" ">
<polygon fill="white" stroke="#bfbfbf" points="845,-112.5 845,-131.5 901,-131.5 901,-112.5 845,-112.5"/>
<text text-anchor="middle" x="873" y="-119.5" font-family="Helvetica,sans-Serif" font-size="10.00">sstream</text>
</a>
</g>
</g>
<!-- Node5&#45;&gt;Node18 -->
<g id="edge20" class="edge">
<title>Node5&#45;&gt;Node18</title>
<path fill="none" stroke="midnightblue" d="M599.57,-170.32C659.55,-159.94 774.52,-140.05 834.47,-129.67"/>
<polygon fill="midnightblue" stroke="midnightblue" points="835.4,-133.06 844.65,-127.91 834.2,-126.16 835.4,-133.06"/>
</g>
<!-- Node6&#45;&gt;Node7 -->
<g id="edge6" class="edge">
<title>Node6&#45;&gt;Node7</title>
<path fill="none" stroke="midnightblue" d="M526.99,-57.15C523.95,-56.75 520.94,-56.37 518,-56 380.07,-38.77 215.23,-21.42 146.54,-14.33"/>
<polygon fill="midnightblue" stroke="midnightblue" points="146.67,-10.82 136.36,-13.28 145.95,-17.78 146.67,-10.82"/>
</g>
<!-- Node6&#45;&gt;Node8 -->
<g id="edge7" class="edge">
<title>Node6&#45;&gt;Node8</title>
<path fill="none" stroke="midnightblue" d="M608.35,-56.44C635.74,-47.2 679.51,-32.43 709.67,-22.25"/>
<polygon fill="midnightblue" stroke="midnightblue" points="710.98,-25.5 719.33,-18.99 708.74,-18.87 710.98,-25.5"/>
</g>
<!-- Node10 -->
<g id="node10" class="node">
<title>Node10</title>
<g id="a_node10"><a xlink:href="nonstd_8h.html" target="_top" xlink:title=" ">
<polygon fill="white" stroke="black" points="419,-56.5 419,-75.5 509,-75.5 509,-56.5 419,-56.5"/>
<text text-anchor="middle" x="464" y="-63.5" font-family="Helvetica,sans-Serif" font-size="10.00">ccf/ds/nonstd.h</text>
</a>
</g>
</g>
<!-- Node9&#45;&gt;Node10 -->
<g id="edge9" class="edge">
<title>Node9&#45;&gt;Node10</title>
<path fill="none" stroke="midnightblue" d="M407.76,-112.32C417.77,-104.26 432.89,-92.08 444.93,-82.37"/>
<polygon fill="midnightblue" stroke="midnightblue" points="447.45,-84.83 453.04,-75.83 443.06,-79.38 447.45,-84.83"/>
</g>
<!-- Node9&#45;&gt;Node16 -->
<g id="edge17" class="edge">
<title>Node9&#45;&gt;Node16</title>
<path fill="none" stroke="midnightblue" d="M371.01,-112.44C343.3,-103.32 299.25,-88.81 268.38,-78.65"/>
<polygon fill="midnightblue" stroke="midnightblue" points="269.46,-75.32 258.86,-75.52 267.27,-81.97 269.46,-75.32"/>
</g>
<!-- Node17 -->
<g id="node17" class="node">
<title>Node17</title>
<g id="a_node17"><a xlink:title=" ">
<polygon fill="white" stroke="#bfbfbf" points="291,-56.5 291,-75.5 401,-75.5 401,-56.5 291,-56.5"/>
<text text-anchor="middle" x="346" y="-63.5" font-family="Helvetica,sans-Serif" font-size="10.00">nlohmann/json.hpp</text>
</a>
</g>
</g>
<!-- Node9&#45;&gt;Node17 -->
<g id="edge18" class="edge">
<title>Node9&#45;&gt;Node17</title>
<path fill="none" stroke="midnightblue" d="M388.58,-112.08C381.15,-104.22 370.15,-92.57 361.19,-83.08"/>
<polygon fill="midnightblue" stroke="midnightblue" points="363.68,-80.62 354.26,-75.75 358.59,-85.42 363.68,-80.62"/>
</g>
<!-- Node10&#45;&gt;Node7 -->
<g id="edge13" class="edge">
<title>Node10&#45;&gt;Node7</title>
<path fill="none" stroke="midnightblue" d="M418.93,-57.44C415.91,-56.95 412.91,-56.46 410,-56 314.23,-40.74 200.85,-23.82 146.38,-15.77"/>
<polygon fill="midnightblue" stroke="midnightblue" points="146.7,-12.28 136.3,-14.28 145.68,-19.2 146.7,-12.28"/>
</g>
<!-- Node10&#45;&gt;Node8 -->
<g id="edge16" class="edge">
<title>Node10&#45;&gt;Node8</title>
<path fill="none" stroke="midnightblue" d="M508.21,-56.44C564.01,-45.64 658.78,-27.3 709.16,-17.55"/>
<polygon fill="midnightblue" stroke="midnightblue" points="710.06,-20.94 719.21,-15.6 708.73,-14.07 710.06,-20.94"/>
</g>
<!-- Node11 -->
<g id="node11" class="node">
<title>Node11</title>
<g id="a_node11"><a xlink:title=" ">
<polygon fill="white" stroke="#bfbfbf" points="375,-0.5 375,-19.5 439,-19.5 439,-0.5 375,-0.5"/>
<text text-anchor="middle" x="407" y="-7.5" font-family="Helvetica,sans-Serif" font-size="10.00">algorithm</text>
</a>
</g>
</g>
<!-- Node10&#45;&gt;Node11 -->
<g id="edge10" class="edge">
<title>Node10&#45;&gt;Node11</title>
<path fill="none" stroke="midnightblue" d="M454.84,-56.32C446.5,-48.42 433.97,-36.55 423.82,-26.94"/>
<polygon fill="midnightblue" stroke="midnightblue" points="425.99,-24.17 416.32,-19.83 421.18,-29.25 425.99,-24.17"/>
</g>
<!-- Node12 -->
<g id="node12" class="node">
<title>Node12</title>
<g id="a_node12"><a xlink:title=" ">
<polygon fill="white" stroke="#bfbfbf" points="457,-0.5 457,-19.5 499,-19.5 499,-0.5 457,-0.5"/>
<text text-anchor="middle" x="478" y="-7.5" font-family="Helvetica,sans-Serif" font-size="10.00">array</text>
</a>
</g>
</g>
<!-- Node10&#45;&gt;Node12 -->
<g id="edge11" class="edge">
<title>Node10&#45;&gt;Node12</title>
<path fill="none" stroke="midnightblue" d="M466.31,-56.08C468.17,-48.93 470.84,-38.64 473.15,-29.69"/>
<polygon fill="midnightblue" stroke="midnightblue" points="476.61,-30.31 475.73,-19.75 469.83,-28.55 476.61,-30.31"/>
</g>
<!-- Node13 -->
<g id="node13" class="node">
<title>Node13</title>
<g id="a_node13"><a xlink:title=" ">
<polygon fill="white" stroke="#bfbfbf" points="517.5,-0.5 517.5,-19.5 566.5,-19.5 566.5,-0.5 517.5,-0.5"/>
<text text-anchor="middle" x="542" y="-7.5" font-family="Helvetica,sans-Serif" font-size="10.00">cctype</text>
</a>
</g>
</g>
<!-- Node10&#45;&gt;Node13 -->
<g id="edge12" class="edge">
<title>Node10&#45;&gt;Node13</title>
<path fill="none" stroke="midnightblue" d="M476.53,-56.32C488.59,-47.98 507.03,-35.21 521.27,-25.35"/>
<polygon fill="midnightblue" stroke="midnightblue" points="523.27,-28.22 529.5,-19.65 519.28,-22.47 523.27,-28.22"/>
</g>
<!-- Node14 -->
<g id="node14" class="node">
<title>Node14</title>
<g id="a_node14"><a xlink:title=" ">
<polygon fill="white" stroke="#bfbfbf" points="599.5,-0.5 599.5,-19.5 672.5,-19.5 672.5,-0.5 599.5,-0.5"/>
<text text-anchor="middle" x="636" y="-7.5" font-family="Helvetica,sans-Serif" font-size="10.00">string_view</text>
</a>
</g>
</g>
<!-- Node10&#45;&gt;Node14 -->
<g id="edge14" class="edge">
<title>Node10&#45;&gt;Node14</title>
<path fill="none" stroke="midnightblue" d="M491.25,-56.44C520.44,-47.28 566.92,-32.69 599.31,-22.52"/>
<polygon fill="midnightblue" stroke="midnightblue" points="600.38,-25.85 608.87,-19.52 598.28,-19.17 600.38,-25.85"/>
</g>
<!-- Node15 -->
<g id="node15" class="node">
<title>Node15</title>
<g id="a_node15"><a xlink:title=" ">
<polygon fill="white" stroke="#bfbfbf" points="287.5,-0.5 287.5,-19.5 356.5,-19.5 356.5,-0.5 287.5,-0.5"/>
<text text-anchor="middle" x="322" y="-7.5" font-family="Helvetica,sans-Serif" font-size="10.00">type_traits</text>
</a>
</g>
</g>
<!-- Node10&#45;&gt;Node15 -->
<g id="edge15" class="edge">
<title>Node10&#45;&gt;Node15</title>
<path fill="none" stroke="midnightblue" d="M441.5,-56.44C417.92,-47.48 380.68,-33.31 354.04,-23.18"/>
<polygon fill="midnightblue" stroke="midnightblue" points="354.99,-19.8 344.4,-19.52 352.5,-26.34 354.99,-19.8"/>
</g>
<!-- Node19&#45;&gt;Node16 -->
<g id="edge22" class="edge">
<title>Node19&#45;&gt;Node16</title>
<path fill="none" stroke="midnightblue" d="M388.99,-168.43C360.02,-161.67 323,-150.26 294,-132 274.05,-119.43 256.23,-98.8 245.08,-84.15"/>
<polygon fill="midnightblue" stroke="midnightblue" points="247.79,-81.92 239.04,-75.93 242.15,-86.06 247.79,-81.92"/>
</g>
<!-- Node21&#45;&gt;Node5 -->
<g id="edge28" class="edge">
<title>Node21&#45;&gt;Node5</title>
<path fill="none" stroke="midnightblue" d="M812.58,-280.37C764.44,-260.97 647.54,-213.87 591.69,-191.37"/>
<polygon fill="midnightblue" stroke="midnightblue" points="592.91,-188.08 582.32,-187.59 590.29,-194.58 592.91,-188.08"/>
</g>
<!-- Node21&#45;&gt;Node8 -->
<g id="edge34" class="edge">
<title>Node21&#45;&gt;Node8</title>
<path fill="none" stroke="midnightblue" d="M883.1,-286.28C947.78,-281.7 1056.77,-270.24 1086,-244 1108.4,-223.89 1105,-209.1 1105,-179 1105,-179 1105,-179 1105,-121 1105,-52.83 867.03,-22.89 776.97,-14"/>
<polygon fill="midnightblue" stroke="midnightblue" points="777.04,-10.49 766.75,-13.02 776.37,-17.46 777.04,-10.49"/>
</g>
<!-- Node21&#45;&gt;Node14 -->
<g id="edge33" class="edge">
<title>Node21&#45;&gt;Node14</title>
<path fill="none" stroke="midnightblue" d="M827.4,-280.44C820.48,-271.43 809.35,-256.82 800,-244 741.69,-164.05 674.36,-66.77 647.72,-28.07"/>
<polygon fill="midnightblue" stroke="midnightblue" points="650.4,-25.79 641.85,-19.54 644.64,-29.76 650.4,-25.79"/>
</g>
<!-- Node22 -->
<g id="node22" class="node">
<title>Node22</title>
<g id="a_node22"><a xlink:title=" ">
<polygon fill="white" stroke="#bfbfbf" points="809,-224.5 809,-243.5 859,-243.5 859,-224.5 809,-224.5"/>
<text text-anchor="middle" x="834" y="-231.5" font-family="Helvetica,sans-Serif" font-size="10.00">cstring</text>
</a>
</g>
</g>
<!-- Node21&#45;&gt;Node22 -->
<g id="edge29" class="edge">
<title>Node21&#45;&gt;Node22</title>
<path fill="none" stroke="midnightblue" d="M834,-280.08C834,-273.01 834,-262.86 834,-253.99"/>
<polygon fill="midnightblue" stroke="midnightblue" points="837.5,-253.75 834,-243.75 830.5,-253.75 837.5,-253.75"/>
</g>
<!-- Node23 -->
<g id="node23" class="node">
<title>Node23</title>
<g id="a_node23"><a xlink:title=" ">
<polygon fill="white" stroke="#bfbfbf" points="877.5,-224.5 877.5,-243.5 942.5,-243.5 942.5,-224.5 877.5,-224.5"/>
<text text-anchor="middle" x="910" y="-231.5" font-family="Helvetica,sans-Serif" font-size="10.00">exception</text>
</a>
</g>
</g>
<!-- Node21&#45;&gt;Node23 -->
<g id="edge30" class="edge">
<title>Node21&#45;&gt;Node23</title>
<path fill="none" stroke="midnightblue" d="M846.21,-280.32C857.78,-272.11 875.38,-259.6 889.16,-249.81"/>
<polygon fill="midnightblue" stroke="midnightblue" points="891.44,-252.48 897.57,-243.83 887.39,-246.77 891.44,-252.48"/>
</g>
<!-- Node24 -->
<g id="node24" class="node">
<title>Node24</title>
<g id="a_node24"><a xlink:title=" ">
<polygon fill="white" stroke="#bfbfbf" points="961,-224.5 961,-243.5 1019,-243.5 1019,-224.5 961,-224.5"/>
<text text-anchor="middle" x="990" y="-231.5" font-family="Helvetica,sans-Serif" font-size="10.00">memory</text>
</a>
</g>
</g>
<!-- Node21&#45;&gt;Node24 -->
<g id="edge31" class="edge">
<title>Node21&#45;&gt;Node24</title>
<path fill="none" stroke="midnightblue" d="M858.72,-280.44C884.85,-271.4 926.26,-257.06 955.58,-246.92"/>
<polygon fill="midnightblue" stroke="midnightblue" points="957.09,-250.1 965.4,-243.52 954.8,-243.48 957.09,-250.1"/>
</g>
<!-- Node25 -->
<g id="node25" class="node">
<title>Node25</title>
<g id="a_node25"><a xlink:title=" ">
<polygon fill="white" stroke="#bfbfbf" points="1037,-224.5 1037,-243.5 1077,-243.5 1077,-224.5 1037,-224.5"/>
<text text-anchor="middle" x="1057" y="-231.5" font-family="Helvetica,sans-Serif" font-size="10.00">span</text>
</a>
</g>
</g>
<!-- Node21&#45;&gt;Node25 -->
<g id="edge32" class="edge">
<title>Node21&#45;&gt;Node25</title>
<path fill="none" stroke="midnightblue" d="M874.72,-280.46C912.04,-272.43 969.03,-259.67 1027.07,-244.11"/>
<polygon fill="midnightblue" stroke="midnightblue" points="1028.03,-247.47 1036.77,-241.48 1026.21,-240.72 1028.03,-247.47"/>
</g>
<!-- Node26&#45;&gt;Node3 -->
<g id="edge36" class="edge">
<title>Node26&#45;&gt;Node3</title>
<path fill="none" stroke="midnightblue" d="M452.22,-336.32C437.73,-327.82 415.43,-314.73 398.51,-304.8"/>
<polygon fill="midnightblue" stroke="midnightblue" points="400.14,-301.7 389.74,-299.65 396.6,-307.74 400.14,-301.7"/>
</g>
<!-- Node26&#45;&gt;Node7 -->
<g id="edge48" class="edge">
<title>Node26&#45;&gt;Node7</title>
<path fill="none" stroke="midnightblue" d="M407.62,-336.45C367.95,-329.51 315.16,-317.91 271,-300 255.11,-293.55 253.7,-286.89 238,-280 185.45,-256.93 159.26,-279.28 114,-244 87.61,-223.43 76,-212.46 76,-179 76,-179 76,-179 76,-121 76,-86.81 92.6,-49.76 103.86,-28.57"/>
<polygon fill="midnightblue" stroke="midnightblue" points="106.95,-30.22 108.72,-19.77 100.82,-26.83 106.95,-30.22"/>
</g>
<!-- Node26&#45;&gt;Node8 -->
<g id="edge49" class="edge">
<title>Node26&#45;&gt;Node8</title>
<path fill="none" stroke="midnightblue" d="M530.84,-339.89C564.93,-334.42 605.92,-323.15 636,-300 724.49,-231.89 739.81,-82.74 742.45,-29.97"/>
<polygon fill="midnightblue" stroke="midnightblue" points="745.96,-29.85 742.86,-19.72 738.97,-29.58 745.96,-29.85"/>
</g>
<!-- Node26&#45;&gt;Node21 -->
<g id="edge40" class="edge">
<title>Node26&#45;&gt;Node21</title>
<path fill="none" stroke="midnightblue" d="M525.15,-336.44C593.4,-326.4 705.96,-309.84 774.7,-299.73"/>
<polygon fill="midnightblue" stroke="midnightblue" points="775.54,-303.14 784.93,-298.22 774.53,-296.21 775.54,-303.14"/>
</g>
<!-- Node27 -->
<g id="node27" class="node">
<title>Node27</title>
<g id="a_node27"><a xlink:href="hash__bytes_8h.html" target="_top" xlink:title=" ">
<polygon fill="white" stroke="black" points="495,-280.5 495,-299.5 627,-299.5 627,-280.5 495,-280.5"/>
<text text-anchor="middle" x="561" y="-287.5" font-family="Helvetica,sans-Serif" font-size="10.00">ccf/crypto/hash_bytes.h</text>
</a>
</g>
</g>
<!-- Node26&#45;&gt;Node27 -->
<g id="edge37" class="edge">
<title>Node26&#45;&gt;Node27</title>
<path fill="none" stroke="midnightblue" d="M482.1,-336.32C496.9,-327.82 519.69,-314.73 536.98,-304.8"/>
<polygon fill="midnightblue" stroke="midnightblue" points="539.01,-307.67 545.93,-299.65 535.52,-301.6 539.01,-307.67"/>
</g>
<!-- Node26&#45;&gt;Node28 -->
<g id="edge46" class="edge">
<title>Node26&#45;&gt;Node28</title>
<path fill="none" stroke="midnightblue" d="M467.13,-336.19C467.81,-322.41 471.12,-295.7 486,-280 498.96,-266.33 545.69,-252.17 578.94,-243.48"/>
<polygon fill="midnightblue" stroke="midnightblue" points="579.95,-246.83 588.77,-240.96 578.22,-240.05 579.95,-246.83"/>
</g>
<!-- Node26&#45;&gt;Node29 -->
<g id="edge41" class="edge">
<title>Node26&#45;&gt;Node29</title>
<path fill="none" stroke="midnightblue" d="M430.78,-336.46C399.35,-328.55 352.91,-315.67 314,-300 294.34,-292.09 244.04,-265.11 213.58,-248.5"/>
<polygon fill="midnightblue" stroke="midnightblue" points="214.9,-245.24 204.45,-243.51 211.54,-251.38 214.9,-245.24"/>
</g>
<!-- Node26&#45;&gt;Node30 -->
<g id="edge47" class="edge">
<title>Node26&#45;&gt;Node30</title>
<path fill="none" stroke="midnightblue" d="M423.61,-336.45C378.46,-327.52 305.72,-313.02 243,-300 241.73,-299.74 240.43,-299.47 239.12,-299.19"/>
<polygon fill="midnightblue" stroke="midnightblue" points="239.51,-295.7 229,-297.05 238.06,-302.55 239.51,-295.7"/>
</g>
<!-- Node27&#45;&gt;Node8 -->
<g id="edge39" class="edge">
<title>Node27&#45;&gt;Node8</title>
<path fill="none" stroke="midnightblue" d="M590.74,-280.37C609.66,-273.44 633.3,-261.85 648,-244 667.13,-220.77 667,-209.1 667,-179 667,-179 667,-179 667,-121 667,-81.28 700.96,-45.5 723.48,-26.15"/>
<polygon fill="midnightblue" stroke="midnightblue" points="725.98,-28.63 731.46,-19.57 721.52,-23.24 725.98,-28.63"/>
</g>
<!-- Node27&#45;&gt;Node28 -->
<g id="edge38" class="edge">
<title>Node27&#45;&gt;Node28</title>
<path fill="none" stroke="midnightblue" d="M569.75,-280.08C577.47,-272.22 588.9,-260.57 598.22,-251.08"/>
<polygon fill="midnightblue" stroke="midnightblue" points="600.9,-253.34 605.41,-243.75 595.91,-248.44 600.9,-253.34"/>
</g>
<!-- Node29&#45;&gt;Node5 -->
<g id="edge42" class="edge">
<title>Node29&#45;&gt;Node5</title>
<path fill="none" stroke="midnightblue" d="M236.05,-227.17C297.22,-219.44 407.6,-204.96 512.16,-188.07"/>
<polygon fill="midnightblue" stroke="midnightblue" points="512.95,-191.49 522.26,-186.43 511.82,-184.58 512.95,-191.49"/>
</g>
<!-- Node29&#45;&gt;Node7 -->
<g id="edge45" class="edge">
<title>Node29&#45;&gt;Node7</title>
<path fill="none" stroke="midnightblue" d="M186.06,-224.3C174.98,-191.49 135.58,-74.88 120.21,-29.38"/>
<polygon fill="midnightblue" stroke="midnightblue" points="123.52,-28.24 117,-19.88 116.89,-30.48 123.52,-28.24"/>
</g>
<!-- Node29&#45;&gt;Node10 -->
<g id="edge43" class="edge">
<title>Node29&#45;&gt;Node10</title>
<path fill="none" stroke="midnightblue" d="M210.36,-224.49C242.46,-211.78 305.15,-187.26 359,-168 406.64,-150.96 437.42,-173.05 467,-132 476.69,-118.56 474.29,-99.19 470.48,-85.1"/>
<polygon fill="midnightblue" stroke="midnightblue" points="473.81,-84.02 467.46,-75.53 467.13,-86.12 473.81,-84.02"/>
</g>
<!-- Node29&#45;&gt;Node16 -->
<g id="edge44" class="edge">
<title>Node29&#45;&gt;Node16</title>
<path fill="none" stroke="midnightblue" d="M190.79,-224.43C194.99,-204.53 206.06,-153.75 218,-112 220.55,-103.08 223.76,-93.3 226.56,-85.14"/>
<polygon fill="midnightblue" stroke="midnightblue" points="229.91,-86.15 229.9,-75.56 223.3,-83.84 229.91,-86.15"/>
</g>
<!-- Node31&#45;&gt;Node8 -->
<g id="edge63" class="edge">
<title>Node31&#45;&gt;Node8</title>
<path fill="none" stroke="midnightblue" d="M1224.06,-168.49C1217.87,-159.54 1207.97,-144.96 1200,-132 1179.67,-98.94 1189.42,-77.34 1157,-56 1094.75,-15.03 864.29,-10.86 776.9,-10.79"/>
<polygon fill="midnightblue" stroke="midnightblue" points="776.73,-7.29 766.73,-10.8 776.74,-14.29 776.73,-7.29"/>
</g>
<!-- Node31&#45;&gt;Node16 -->
<g id="edge59" class="edge">
<title>Node31&#45;&gt;Node16</title>
<path fill="none" stroke="midnightblue" d="M1196.17,-168.46C1138.07,-154.18 1015.41,-125.66 910,-112 636,-76.5 561.32,-108.55 282.52,-75.88"/>
<polygon fill="midnightblue" stroke="midnightblue" points="282.86,-72.4 272.52,-74.69 282.03,-79.35 282.86,-72.4"/>
</g>
<!-- Node31&#45;&gt;Node18 -->
<g id="edge61" class="edge">
<title>Node31&#45;&gt;Node18</title>
<path fill="none" stroke="midnightblue" d="M1173.43,-168.44C1100.05,-157.34 974.01,-138.28 911.08,-128.76"/>
<polygon fill="midnightblue" stroke="midnightblue" points="911.58,-125.3 901.17,-127.26 910.54,-132.22 911.58,-125.3"/>
</g>
<!-- Node31&#45;&gt;Node32 -->
<g id="edge57" class="edge">
<title>Node31&#45;&gt;Node32</title>
<path fill="none" stroke="midnightblue" d="M1271.76,-168.49C1311.52,-160.27 1373.3,-147.16 1435.75,-132.22"/>
<polygon fill="midnightblue" stroke="midnightblue" points="1436.88,-135.55 1445.78,-129.81 1435.24,-128.75 1436.88,-135.55"/>
</g>
<!-- Node33 -->
<g id="node33" class="node">
<title>Node33</title>
<g id="a_node33"><a xlink:title=" ">
<polygon fill="white" stroke="#bfbfbf" points="1275.5,-112.5 1275.5,-131.5 1354.5,-131.5 1354.5,-112.5 1275.5,-112.5"/>
<text text-anchor="middle" x="1315" y="-119.5" font-family="Helvetica,sans-Serif" font-size="10.00">fmt/chrono.h</text>
</a>
</g>
</g>
<!-- Node31&#45;&gt;Node33 -->
<g id="edge58" class="edge">
<title>Node31&#45;&gt;Node33</title>
<path fill="none" stroke="midnightblue" d="M1243.66,-168.32C1256.92,-159.9 1277.27,-146.97 1292.85,-137.07"/>
<polygon fill="midnightblue" stroke="midnightblue" points="1294.81,-139.97 1301.38,-131.65 1291.06,-134.06 1294.81,-139.97"/>
</g>
<!-- Node34 -->
<g id="node34" class="node">
<title>Node34</title>
<g id="a_node34"><a xlink:title=" ">
<polygon fill="white" stroke="#bfbfbf" points="1372,-112.5 1372,-131.5 1428,-131.5 1428,-112.5 1372,-112.5"/>
<text text-anchor="middle" x="1400" y="-119.5" font-family="Helvetica,sans-Serif" font-size="10.00">iomanip</text>
</a>
</g>
</g>
<!-- Node31&#45;&gt;Node34 -->
<g id="edge60" class="edge">
<title>Node31&#45;&gt;Node34</title>
<path fill="none" stroke="midnightblue" d="M1256.94,-168.44C1285.66,-159.32 1331.33,-144.81 1363.32,-134.65"/>
<polygon fill="midnightblue" stroke="midnightblue" points="1364.72,-137.88 1373.19,-131.52 1362.6,-131.21 1364.72,-137.88"/>
</g>
<!-- Node35 -->
<g id="node35" class="node">
<title>Node35</title>
<g id="a_node35"><a xlink:title=" ">
<polygon fill="white" stroke="#bfbfbf" points="1209,-112.5 1209,-131.5 1257,-131.5 1257,-112.5 1209,-112.5"/>
<text text-anchor="middle" x="1233" y="-119.5" font-family="Helvetica,sans-Serif" font-size="10.00">time.h</text>
</a>
</g>
</g>
<!-- Node31&#45;&gt;Node35 -->
<g id="edge62" class="edge">
<title>Node31&#45;&gt;Node35</title>
<path fill="none" stroke="midnightblue" d="M1230.5,-168.08C1230.89,-161.01 1231.45,-150.86 1231.95,-141.99"/>
<polygon fill="midnightblue" stroke="midnightblue" points="1235.45,-141.93 1232.51,-131.75 1228.46,-141.54 1235.45,-141.93"/>
</g>
</g>
</svg>
        <g id="navigator" transform="translate(0 0)" fill="#404254">
                <rect fill="#f2f5e9" fill-opacity="0.5" stroke="#606060" stroke-width=".5" x="0" y="0" width="60" height="60"/>
                <use id="zoomplus" xlink:href="#zoomPlus" x="17" y="9" onmousedown="handleZoom(evt,'in')"/>
                <use id="zoomminus" xlink:href="#zoomMin" x="42" y="9" onmousedown="handleZoom(evt,'out')"/>
                <use id="reset" xlink:href="#resetDef" x="30" y="36" onmousedown="handleReset()"/>
                <g id="arrowUp" xlink:href="#dirArrow" transform="translate(30 24)" onmousedown="handlePan(0,-1)">
                  <use xlink:href="#rim" fill="#404040">
                        <set attributeName="fill" to="#808080" begin="arrowUp.mouseover" end="arrowUp.mouseout"/>
                  </use>
                  <path fill="none" stroke="white" stroke-width="1.5" d="M0,-3.0v7 M-2.5,-0.5L0,-3.0L2.5,-0.5"/>
                </g>
                <g id="arrowRight" xlink:href="#dirArrow" transform="rotate(90) translate(36 -43)" onmousedown="handlePan(1,0)">
                  <use xlink:href="#rim" fill="#404040">
                        <set attributeName="fill" to="#808080" begin="arrowRight.mouseover" end="arrowRight.mouseout"/>
                  </use>
                  <path fill="none" stroke="white" stroke-width="1.5" d="M0,-3.0v7 M-2.5,-0.5L0,-3.0L2.5,-0.5"/>
                </g>
                <g id="arrowDown" xlink:href="#dirArrow" transform="rotate(180) translate(-30 -48)" onmousedown="handlePan(0,1)">
                  <use xlink:href="#rim" fill="#404040">
                        <set attributeName="fill" to="#808080" begin="arrowDown.mouseover" end="arrowDown.mouseout"/>
                  </use>
                  <path fill="none" stroke="white" stroke-width="1.5" d="M0,-3.0v7 M-2.5,-0.5L0,-3.0L2.5,-0.5"/>
                </g>
                <g id="arrowLeft" xlink:href="#dirArrow" transform="rotate(270) translate(-36 17)" onmousedown="handlePan(-1,0)">
                  <use xlink:href="#rim" fill="#404040">
                        <set attributeName="fill" to="#808080" begin="arrowLeft.mouseover" end="arrowLeft.mouseout"/>
                  </use>
                  <path fill="none" stroke="white" stroke-width="1.5" d="M0,-3.0v7 M-2.5,-0.5L0,-3.0L2.5,-0.5"/>
                </g>
        </g>
        <svg viewBox="0 0 15 15" width="100%" height="30px" preserveAspectRatio="xMaxYMin meet">
         <g id="arrow_out" transform="scale(0.3 0.3)">
          <a xlink:href="certs_8h__incl_org.svg" target="_base">
           <rect id="button" ry="5" rx="5" y="6" x="6" height="38" width="38"
                fill="#f2f5e9" fill-opacity="0.5" stroke="#606060" stroke-width="1.0"/>
           <path id="arrow"
             d="M 11.500037,31.436501 C 11.940474,20.09759 22.043105,11.32322 32.158766,21.979434 L 37.068811,17.246167 C 37.068811,17.246167 37.088388,32 37.088388,32 L 22.160133,31.978069 C 22.160133,31.978069 26.997745,27.140456 26.997745,27.140456 C 18.528582,18.264221 13.291696,25.230495 11.500037,31.436501 z"
             style="fill:#404040;"/>
          </a>
         </g>
        </svg>
</svg>
