<?xml version="1.0" encoding="UTF-8" standalone="no"?>
<!DOCTYPE svg PUBLIC "-//W3C//DTD SVG 1.1//EN"
 "http://www.w3.org/Graphics/SVG/1.1/DTD/svg11.dtd">
<!-- Generated by graphviz version 2.43.0 (0)
 -->
<!-- Title: kv::MapHandle&lt; K, V, KSerialiser, VSerialiser &gt; Pages: 1 -->
<svg width="1185pt" height="236pt"
 viewBox="0.00 0.00 1185.00 235.50" xmlns="http://www.w3.org/2000/svg" xmlns:xlink="http://www.w3.org/1999/xlink">
<g id="graph0" class="graph" transform="scale(1 1) rotate(0) translate(4 231.5)">
<title>kv::MapHandle&lt; K, V, KSerialiser, VSerialiser &gt;</title>
<polygon fill="white" stroke="transparent" points="-4,4 -4,-231.5 1181,-231.5 1181,4 -4,4"/>
<!-- Node1 -->
<g id="node1" class="node">
<title>Node1</title>
<g id="a_node1"><a xlink:title=" ">
<polygon fill="#bfbfbf" stroke="black" points="1035,-118.5 1035,-148.5 1177,-148.5 1177,-118.5 1035,-118.5"/>
<text text-anchor="start" x="1043" y="-136.5" font-family="Helvetica,sans-Serif" font-size="10.00">kv::MapHandle&lt; K, V,</text>
<text text-anchor="middle" x="1106" y="-125.5" font-family="Helvetica,sans-Serif" font-size="10.00"> KSerialiser, VSerialiser &gt;</text>
</a>
</g>
</g>
<!-- Node2 -->
<g id="node2" class="node">
<title>Node2</title>
<g id="a_node2"><a xlink:href="classkv_1_1AbstractHandle.html" target="_top" xlink:title=" ">
<polygon fill="white" stroke="black" points="368.5,-171 368.5,-190 477.5,-190 477.5,-171 368.5,-171"/>
<text text-anchor="middle" x="423" y="-178" font-family="Helvetica,sans-Serif" font-size="10.00">kv::AbstractHandle</text>
</a>
</g>
</g>
<!-- Node2&#45;&gt;Node1 -->
<g id="edge1" class="edge">
<title>Node2&#45;&gt;Node1</title>
<path fill="none" stroke="midnightblue" d="M487.79,-177.96C596.54,-173.34 824.73,-162.33 1017,-144.5 1022.83,-143.96 1028.86,-143.34 1034.91,-142.67"/>
<polygon fill="midnightblue" stroke="midnightblue" points="487.49,-174.47 477.65,-178.39 487.79,-181.47 487.49,-174.47"/>
</g>
<!-- Node4 -->
<g id="node4" class="node">
<title>Node4</title>
<g id="a_node4"><a xlink:href="classkv_1_1untyped_1_1MapHandle.html" target="_top" xlink:title=" ">
<polygon fill="white" stroke="black" points="584,-93 584,-112 719,-112 719,-93 584,-93"/>
<text text-anchor="middle" x="651.5" y="-100" font-family="Helvetica,sans-Serif" font-size="10.00">kv::untyped::MapHandle</text>
</a>
</g>
</g>
<!-- Node2&#45;&gt;Node4 -->
<g id="edge4" class="edge">
<title>Node2&#45;&gt;Node4</title>
<path fill="none" stroke="midnightblue" d="M468.97,-168.11C497.09,-160.06 533.92,-148.97 566,-137.5 587.83,-129.7 612.24,-119.41 629.19,-112.01"/>
<polygon fill="midnightblue" stroke="midnightblue" points="467.7,-164.83 459.04,-170.93 469.61,-171.57 467.7,-164.83"/>
</g>
<!-- Node3 -->
<g id="node3" class="node">
<title>Node3</title>
<g id="a_node3"><a xlink:href="classkv_1_1ReadableMapHandle.html" target="_top" xlink:title=" ">
<polygon fill="white" stroke="black" points="842.5,-71 842.5,-112 977.5,-112 977.5,-71 842.5,-71"/>
<text text-anchor="start" x="850.5" y="-100" font-family="Helvetica,sans-Serif" font-size="10.00">kv::ReadableMapHandle</text>
<text text-anchor="start" x="850.5" y="-89" font-family="Helvetica,sans-Serif" font-size="10.00">&lt; K, V, KSerialiser,</text>
<text text-anchor="middle" x="910" y="-78" font-family="Helvetica,sans-Serif" font-size="10.00"> VSerialiser &gt;</text>
</a>
</g>
</g>
<!-- Node3&#45;&gt;Node1 -->
<g id="edge2" class="edge">
<title>Node3&#45;&gt;Node1</title>
<path fill="none" stroke="midnightblue" d="M987.95,-108.16C1003.64,-111.56 1020.06,-115.11 1035.47,-118.45"/>
<polygon fill="midnightblue" stroke="midnightblue" points="988.28,-104.65 977.76,-105.95 986.8,-111.49 988.28,-104.65"/>
</g>
<!-- Node4&#45;&gt;Node1 -->
<g id="edge15" class="edge">
<title>Node4&#45;&gt;Node1</title>
<path fill="none" stroke="#9a32cd" stroke-dasharray="5,2" d="M729.37,-112.62C731.94,-112.93 734.49,-113.22 737,-113.5 774.71,-117.73 784.14,-118.92 822,-121.5 894.49,-126.44 977.57,-129.68 1034.87,-131.53"/>
<polygon fill="#9a32cd" stroke="#9a32cd" points="729.7,-109.14 719.35,-111.43 728.87,-116.09 729.7,-109.14"/>
<text text-anchor="middle" x="910" y="-132.5" font-family="Helvetica,sans-Serif" font-size="10.00"> untyped_handle</text>
</g>
<!-- Node4&#45;&gt;Node3 -->
<g id="edge3" class="edge">
<title>Node4&#45;&gt;Node3</title>
<path fill="none" stroke="#9a32cd" stroke-dasharray="5,2" d="M729.64,-99.19C765.48,-97.65 807.7,-95.84 842.17,-94.37"/>
<polygon fill="#9a32cd" stroke="#9a32cd" points="729.06,-95.71 719.22,-99.64 729.36,-102.71 729.06,-95.71"/>
<text text-anchor="middle" x="770.5" y="-101.5" font-family="Helvetica,sans-Serif" font-size="10.00"> read_handle</text>
</g>
<!-- Node13 -->
<g id="node13" class="node">
<title>Node13</title>
<g id="a_node13"><a xlink:href="classkv_1_1WriteableMapHandle.html" target="_top" xlink:title=" ">
<polygon fill="white" stroke="black" points="822,-21.5 822,-51.5 998,-51.5 998,-21.5 822,-21.5"/>
<text text-anchor="start" x="830" y="-39.5" font-family="Helvetica,sans-Serif" font-size="10.00">kv::WriteableMapHandle</text>
<text text-anchor="middle" x="910" y="-28.5" font-family="Helvetica,sans-Serif" font-size="10.00">&lt; K, V, KSerialiser, VSerialiser &gt;</text>
</a>
</g>
</g>
<!-- Node4&#45;&gt;Node13 -->
<g id="edge14" class="edge">
<title>Node4&#45;&gt;Node13</title>
<path fill="none" stroke="#9a32cd" stroke-dasharray="5,2" d="M698.79,-90.41C711.2,-87.18 724.61,-83.7 737,-80.5 774.6,-70.79 816.86,-59.98 850.08,-51.51"/>
<polygon fill="#9a32cd" stroke="#9a32cd" points="697.89,-87.03 689.09,-92.94 699.65,-93.8 697.89,-87.03"/>
<text text-anchor="middle" x="770.5" y="-83.5" font-family="Helvetica,sans-Serif" font-size="10.00"> write_handle</text>
</g>
<!-- Node5 -->
<g id="node5" class="node">
<title>Node5</title>
<g id="a_node5"><a xlink:href="structkv_1_1untyped_1_1ChangeSet.html" target="_top" xlink:title=" ">
<polygon fill="white" stroke="black" points="357,-126 357,-145 489,-145 489,-126 357,-126"/>
<text text-anchor="middle" x="423" y="-133" font-family="Helvetica,sans-Serif" font-size="10.00">kv::untyped::ChangeSet</text>
</a>
</g>
</g>
<!-- Node5&#45;&gt;Node4 -->
<g id="edge5" class="edge">
<title>Node5&#45;&gt;Node4</title>
<path fill="none" stroke="#9a32cd" stroke-dasharray="5,2" d="M499.26,-124.54C526.99,-120.49 558.16,-115.95 584.97,-112.05"/>
<polygon fill="#9a32cd" stroke="#9a32cd" points="498.6,-121.09 489.21,-126 499.61,-128.02 498.6,-121.09"/>
<text text-anchor="middle" x="536.5" y="-125.5" font-family="Helvetica,sans-Serif" font-size="10.00"> tx_changes</text>
</g>
<!-- Node6 -->
<g id="node6" class="node">
<title>Node6</title>
<g id="a_node6"><a xlink:href="classkv_1_1AbstractChangeSet.html" target="_top" xlink:title=" ">
<polygon fill="white" stroke="black" points="114,-208 114,-227 241,-227 241,-208 114,-208"/>
<text text-anchor="middle" x="177.5" y="-215" font-family="Helvetica,sans-Serif" font-size="10.00">kv::AbstractChangeSet</text>
</a>
</g>
</g>
<!-- Node6&#45;&gt;Node5 -->
<g id="edge6" class="edge">
<title>Node6&#45;&gt;Node5</title>
<path fill="none" stroke="midnightblue" d="M251.18,-214.2C280.27,-210.14 312.98,-201.89 339,-185.5 350.28,-178.39 346.42,-169.61 357,-161.5 366.16,-154.48 377.48,-149.09 388.08,-145.08"/>
<polygon fill="midnightblue" stroke="midnightblue" points="250.54,-210.76 241.06,-215.47 251.41,-217.7 250.54,-210.76"/>
</g>
<!-- Node7 -->
<g id="node7" class="node">
<title>Node7</title>
<g id="a_node7"><a xlink:href="classchamp_1_1Map.html" target="_top" xlink:title=" ">
<polygon fill="white" stroke="black" points="111.5,-170 111.5,-189 243.5,-189 243.5,-170 111.5,-170"/>
<text text-anchor="middle" x="177.5" y="-177" font-family="Helvetica,sans-Serif" font-size="10.00">champ::Map&lt; K, V, H &gt;</text>
</a>
</g>
</g>
<!-- Node7&#45;&gt;Node5 -->
<g id="edge7" class="edge">
<title>Node7&#45;&gt;Node5</title>
<path fill="none" stroke="#9a32cd" stroke-dasharray="5,2" d="M241.43,-168.13C281.09,-160.96 331.72,-151.81 369.27,-145.03"/>
<polygon fill="#9a32cd" stroke="#9a32cd" points="240.55,-164.73 231.34,-169.95 241.8,-171.62 240.55,-164.73"/>
<text text-anchor="middle" x="310.5" y="-173.5" font-family="Helvetica,sans-Serif" font-size="10.00"> committed</text>
<text text-anchor="middle" x="310.5" y="-162.5" font-family="Helvetica,sans-Serif" font-size="10.00">state</text>
</g>
<!-- Node8 -->
<g id="node8" class="node">
<title>Node8</title>
<g id="a_node8"><a xlink:title=" ">
<polygon fill="white" stroke="black" points="91,-120.5 91,-150.5 264,-150.5 264,-120.5 91,-120.5"/>
<text text-anchor="start" x="99" y="-138.5" font-family="Helvetica,sans-Serif" font-size="10.00">std::map&lt; K, std::tuple</text>
<text text-anchor="middle" x="177.5" y="-127.5" font-family="Helvetica,sans-Serif" font-size="10.00">&lt; Version, LastReadVersion &gt; &gt;</text>
</a>
</g>
</g>
<!-- Node8&#45;&gt;Node5 -->
<g id="edge8" class="edge">
<title>Node8&#45;&gt;Node5</title>
<path fill="none" stroke="#9a32cd" stroke-dasharray="5,2" d="M274.1,-135.5C301.75,-135.5 331.29,-135.5 356.64,-135.5"/>
<polygon fill="#9a32cd" stroke="#9a32cd" points="274.01,-132 264.01,-135.5 274.01,-139 274.01,-132"/>
<text text-anchor="middle" x="310.5" y="-138.5" font-family="Helvetica,sans-Serif" font-size="10.00"> reads</text>
</g>
<!-- Node9 -->
<g id="node9" class="node">
<title>Node9</title>
<g id="a_node9"><a xlink:title=" ">
<polygon fill="white" stroke="black" points="0,-126 0,-145 29,-145 29,-126 0,-126"/>
<text text-anchor="middle" x="14.5" y="-133" font-family="Helvetica,sans-Serif" font-size="10.00">K</text>
</a>
</g>
</g>
<!-- Node9&#45;&gt;Node8 -->
<g id="edge9" class="edge">
<title>Node9&#45;&gt;Node8</title>
<path fill="none" stroke="#9a32cd" stroke-dasharray="5,2" d="M39.32,-135.5C53.23,-135.5 71.72,-135.5 90.62,-135.5"/>
<polygon fill="#9a32cd" stroke="#9a32cd" points="39.23,-132 29.23,-135.5 39.23,-139 39.23,-132"/>
<text text-anchor="middle" x="60" y="-138.5" font-family="Helvetica,sans-Serif" font-size="10.00"> keys</text>
</g>
<!-- Node10 -->
<g id="node10" class="node">
<title>Node10</title>
<g id="a_node10"><a xlink:title=" ">
<polygon fill="white" stroke="black" points="107,-49.5 107,-101.5 248,-101.5 248,-49.5 107,-49.5"/>
<text text-anchor="start" x="115" y="-89.5" font-family="Helvetica,sans-Serif" font-size="10.00">std::map&lt; kv::serialisers</text>
<text text-anchor="start" x="115" y="-78.5" font-family="Helvetica,sans-Serif" font-size="10.00">::SerialisedEntry, std</text>
<text text-anchor="start" x="115" y="-67.5" font-family="Helvetica,sans-Serif" font-size="10.00">::optional&lt; kv::serialisers</text>
<text text-anchor="middle" x="177.5" y="-56.5" font-family="Helvetica,sans-Serif" font-size="10.00">::SerialisedEntry &gt; &gt;</text>
</a>
</g>
</g>
<!-- Node10&#45;&gt;Node5 -->
<g id="edge10" class="edge">
<title>Node10&#45;&gt;Node5</title>
<path fill="none" stroke="#9a32cd" stroke-dasharray="5,2" d="M258.21,-95.14C300.17,-105.48 349.73,-117.69 383.26,-125.95"/>
<polygon fill="#9a32cd" stroke="#9a32cd" points="258.82,-91.69 248.28,-92.69 257.15,-98.48 258.82,-91.69"/>
<text text-anchor="middle" x="310.5" y="-116.5" font-family="Helvetica,sans-Serif" font-size="10.00"> writes</text>
</g>
<!-- Node11 -->
<g id="node11" class="node">
<title>Node11</title>
<g id="a_node11"><a xlink:title=" ">
<polygon fill="white" stroke="black" points="390.5,-74 390.5,-93 455.5,-93 455.5,-74 390.5,-74"/>
<text text-anchor="middle" x="423" y="-81" font-family="Helvetica,sans-Serif" font-size="10.00">std::string</text>
</a>
</g>
</g>
<!-- Node11&#45;&gt;Node4 -->
<g id="edge11" class="edge">
<title>Node11&#45;&gt;Node4</title>
<path fill="none" stroke="#9a32cd" stroke-dasharray="5,2" d="M466.01,-83.06C494.33,-83.16 532.5,-84.07 566,-87.5 578.3,-88.76 591.51,-90.78 603.74,-92.93"/>
<polygon fill="#9a32cd" stroke="#9a32cd" points="465.67,-79.56 455.67,-83.06 465.67,-86.56 465.67,-79.56"/>
<text text-anchor="middle" x="536.5" y="-90.5" font-family="Helvetica,sans-Serif" font-size="10.00"> map_name</text>
</g>
<!-- Node12 -->
<g id="node12" class="node">
<title>Node12</title>
<g id="a_node12"><a xlink:title=" ">
<polygon fill="white" stroke="black" points="125.5,-0.5 125.5,-30.5 229.5,-30.5 229.5,-0.5 125.5,-0.5"/>
<text text-anchor="start" x="133.5" y="-18.5" font-family="Helvetica,sans-Serif" font-size="10.00">std::basic_string&lt;</text>
<text text-anchor="middle" x="177.5" y="-7.5" font-family="Helvetica,sans-Serif" font-size="10.00"> Char &gt;</text>
</a>
</g>
</g>
<!-- Node12&#45;&gt;Node11 -->
<g id="edge12" class="edge">
<title>Node12&#45;&gt;Node11</title>
<path fill="none" stroke="midnightblue" d="M239.2,-32.45C287.16,-45.85 352.17,-64 390.35,-74.66"/>
<polygon fill="midnightblue" stroke="midnightblue" points="240.12,-29.07 229.55,-29.76 238.24,-35.82 240.12,-29.07"/>
</g>
<!-- Node13&#45;&gt;Node1 -->
<g id="edge13" class="edge">
<title>Node13&#45;&gt;Node1</title>
<path fill="none" stroke="midnightblue" d="M982.42,-55.03C987.77,-57.02 993.01,-59.18 998,-61.5 1031.28,-77.01 1065.84,-102.2 1086.37,-118.3"/>
<polygon fill="midnightblue" stroke="midnightblue" points="983.32,-51.64 972.73,-51.63 981,-58.24 983.32,-51.64"/>
</g>
</g>
</svg>
