<?xml version="1.0" encoding="UTF-8" standalone="no"?>
<!DOCTYPE svg PUBLIC "-//W3C//DTD SVG 1.1//EN"
 "http://www.w3.org/Graphics/SVG/1.1/DTD/svg11.dtd">
<!-- Generated by graphviz version 2.43.0 (0)
 -->
<!-- Title: kv::untyped::MapHandle Pages: 1 -->
<svg width="727pt" height="236pt"
 viewBox="0.00 0.00 727.00 235.50" xmlns="http://www.w3.org/2000/svg" xmlns:xlink="http://www.w3.org/1999/xlink">
<g id="graph0" class="graph" transform="scale(1 1) rotate(0) translate(4 231.5)">
<title>kv::untyped::MapHandle</title>
<polygon fill="white" stroke="transparent" points="-4,4 -4,-231.5 723,-231.5 723,4 -4,4"/>
<!-- Node1 -->
<g id="node1" class="node">
<title>Node1</title>
<g id="a_node1"><a xlink:title=" ">
<polygon fill="#bfbfbf" stroke="black" points="584,-126 584,-145 719,-145 719,-126 584,-126"/>
<text text-anchor="middle" x="651.5" y="-133" font-family="Helvetica,sans-Serif" font-size="10.00">kv::untyped::MapHandle</text>
</a>
</g>
</g>
<!-- Node2 -->
<g id="node2" class="node">
<title>Node2</title>
<g id="a_node2"><a xlink:href="classkv_1_1AbstractHandle.html" target="_top" xlink:title=" ">
<polygon fill="white" stroke="black" points="368.5,-164 368.5,-183 477.5,-183 477.5,-164 368.5,-164"/>
<text text-anchor="middle" x="423" y="-171" font-family="Helvetica,sans-Serif" font-size="10.00">kv::AbstractHandle</text>
</a>
</g>
</g>
<!-- Node2&#45;&gt;Node1 -->
<g id="edge1" class="edge">
<title>Node2&#45;&gt;Node1</title>
<path fill="none" stroke="midnightblue" d="M487.55,-163.42C512.07,-159.47 540.36,-154.85 566,-150.5 576.14,-148.78 586.95,-146.9 597.33,-145.06"/>
<polygon fill="midnightblue" stroke="midnightblue" points="486.96,-159.97 477.64,-165.01 488.07,-166.88 486.96,-159.97"/>
</g>
<!-- Node3 -->
<g id="node3" class="node">
<title>Node3</title>
<g id="a_node3"><a xlink:href="structkv_1_1untyped_1_1ChangeSet.html" target="_top" xlink:title=" ">
<polygon fill="white" stroke="black" points="357,-126 357,-145 489,-145 489,-126 357,-126"/>
<text text-anchor="middle" x="423" y="-133" font-family="Helvetica,sans-Serif" font-size="10.00">kv::untyped::ChangeSet</text>
</a>
</g>
</g>
<!-- Node3&#45;&gt;Node1 -->
<g id="edge2" class="edge">
<title>Node3&#45;&gt;Node1</title>
<path fill="none" stroke="#9a32cd" stroke-dasharray="5,2" d="M499.48,-135.5C526.75,-135.5 557.32,-135.5 583.79,-135.5"/>
<polygon fill="#9a32cd" stroke="#9a32cd" points="499.21,-132 489.21,-135.5 499.21,-139 499.21,-132"/>
<text text-anchor="middle" x="536.5" y="-138.5" font-family="Helvetica,sans-Serif" font-size="10.00"> tx_changes</text>
</g>
<!-- Node4 -->
<g id="node4" class="node">
<title>Node4</title>
<g id="a_node4"><a xlink:href="classkv_1_1AbstractChangeSet.html" target="_top" xlink:title=" ">
<polygon fill="white" stroke="black" points="114,-208 114,-227 241,-227 241,-208 114,-208"/>
<text text-anchor="middle" x="177.5" y="-215" font-family="Helvetica,sans-Serif" font-size="10.00">kv::AbstractChangeSet</text>
</a>
</g>
</g>
<!-- Node4&#45;&gt;Node3 -->
<g id="edge3" class="edge">
<title>Node4&#45;&gt;Node3</title>
<path fill="none" stroke="midnightblue" d="M251.46,-215.8C280.89,-212.01 313.78,-203.54 339,-185.5 351.96,-176.23 344.46,-164.33 357,-154.5 362,-150.58 367.78,-147.48 373.79,-145.01"/>
<polygon fill="midnightblue" stroke="midnightblue" points="250.76,-212.35 241.21,-216.95 251.54,-219.31 250.76,-212.35"/>
</g>
<!-- Node5 -->
<g id="node5" class="node">
<title>Node5</title>
<g id="a_node5"><a xlink:href="classchamp_1_1Map.html" target="_top" xlink:title=" ">
<polygon fill="white" stroke="black" points="111.5,-170 111.5,-189 243.5,-189 243.5,-170 111.5,-170"/>
<text text-anchor="middle" x="177.5" y="-177" font-family="Helvetica,sans-Serif" font-size="10.00">champ::Map&lt; K, V, H &gt;</text>
</a>
</g>
</g>
<!-- Node5&#45;&gt;Node3 -->
<g id="edge4" class="edge">
<title>Node5&#45;&gt;Node3</title>
<path fill="none" stroke="#9a32cd" stroke-dasharray="5,2" d="M241.43,-168.13C281.09,-160.96 331.72,-151.81 369.27,-145.03"/>
<polygon fill="#9a32cd" stroke="#9a32cd" points="240.55,-164.73 231.34,-169.95 241.8,-171.62 240.55,-164.73"/>
<text text-anchor="middle" x="310.5" y="-173.5" font-family="Helvetica,sans-Serif" font-size="10.00"> committed</text>
<text text-anchor="middle" x="310.5" y="-162.5" font-family="Helvetica,sans-Serif" font-size="10.00">state</text>
</g>
<!-- Node6 -->
<g id="node6" class="node">
<title>Node6</title>
<g id="a_node6"><a xlink:title=" ">
<polygon fill="white" stroke="black" points="91,-120.5 91,-150.5 264,-150.5 264,-120.5 91,-120.5"/>
<text text-anchor="start" x="99" y="-138.5" font-family="Helvetica,sans-Serif" font-size="10.00">std::map&lt; K, std::tuple</text>
<text text-anchor="middle" x="177.5" y="-127.5" font-family="Helvetica,sans-Serif" font-size="10.00">&lt; Version, LastReadVersion &gt; &gt;</text>
</a>
</g>
</g>
<!-- Node6&#45;&gt;Node3 -->
<g id="edge5" class="edge">
<title>Node6&#45;&gt;Node3</title>
<path fill="none" stroke="#9a32cd" stroke-dasharray="5,2" d="M274.1,-135.5C301.75,-135.5 331.29,-135.5 356.64,-135.5"/>
<polygon fill="#9a32cd" stroke="#9a32cd" points="274.01,-132 264.01,-135.5 274.01,-139 274.01,-132"/>
<text text-anchor="middle" x="310.5" y="-138.5" font-family="Helvetica,sans-Serif" font-size="10.00"> reads</text>
</g>
<!-- Node7 -->
<g id="node7" class="node">
<title>Node7</title>
<g id="a_node7"><a xlink:title=" ">
<polygon fill="white" stroke="black" points="0,-126 0,-145 29,-145 29,-126 0,-126"/>
<text text-anchor="middle" x="14.5" y="-133" font-family="Helvetica,sans-Serif" font-size="10.00">K</text>
</a>
</g>
</g>
<!-- Node7&#45;&gt;Node6 -->
<g id="edge6" class="edge">
<title>Node7&#45;&gt;Node6</title>
<path fill="none" stroke="#9a32cd" stroke-dasharray="5,2" d="M39.32,-135.5C53.23,-135.5 71.72,-135.5 90.62,-135.5"/>
<polygon fill="#9a32cd" stroke="#9a32cd" points="39.23,-132 29.23,-135.5 39.23,-139 39.23,-132"/>
<text text-anchor="middle" x="60" y="-138.5" font-family="Helvetica,sans-Serif" font-size="10.00"> keys</text>
</g>
<!-- Node8 -->
<g id="node8" class="node">
<title>Node8</title>
<g id="a_node8"><a xlink:title=" ">
<polygon fill="white" stroke="black" points="107,-49.5 107,-101.5 248,-101.5 248,-49.5 107,-49.5"/>
<text text-anchor="start" x="115" y="-89.5" font-family="Helvetica,sans-Serif" font-size="10.00">std::map&lt; kv::serialisers</text>
<text text-anchor="start" x="115" y="-78.5" font-family="Helvetica,sans-Serif" font-size="10.00">::SerialisedEntry, std</text>
<text text-anchor="start" x="115" y="-67.5" font-family="Helvetica,sans-Serif" font-size="10.00">::optional&lt; kv::serialisers</text>
<text text-anchor="middle" x="177.5" y="-56.5" font-family="Helvetica,sans-Serif" font-size="10.00">::SerialisedEntry &gt; &gt;</text>
</a>
</g>
</g>
<!-- Node8&#45;&gt;Node3 -->
<g id="edge7" class="edge">
<title>Node8&#45;&gt;Node3</title>
<path fill="none" stroke="#9a32cd" stroke-dasharray="5,2" d="M258.21,-95.14C300.17,-105.48 349.73,-117.69 383.26,-125.95"/>
<polygon fill="#9a32cd" stroke="#9a32cd" points="258.82,-91.69 248.28,-92.69 257.15,-98.48 258.82,-91.69"/>
<text text-anchor="middle" x="310.5" y="-116.5" font-family="Helvetica,sans-Serif" font-size="10.00"> writes</text>
</g>
<!-- Node9 -->
<g id="node9" class="node">
<title>Node9</title>
<g id="a_node9"><a xlink:title=" ">
<polygon fill="white" stroke="black" points="390.5,-47 390.5,-66 455.5,-66 455.5,-47 390.5,-47"/>
<text text-anchor="middle" x="423" y="-54" font-family="Helvetica,sans-Serif" font-size="10.00">std::string</text>
</a>
</g>
</g>
<!-- Node9&#45;&gt;Node1 -->
<g id="edge8" class="edge">
<title>Node9&#45;&gt;Node1</title>
<path fill="none" stroke="#9a32cd" stroke-dasharray="5,2" d="M460.8,-69.33C506.23,-85.18 582.47,-111.77 623.08,-125.94"/>
<polygon fill="#9a32cd" stroke="#9a32cd" points="461.92,-66.02 451.32,-66.03 459.61,-72.63 461.92,-66.02"/>
<text text-anchor="middle" x="536.5" y="-107.5" font-family="Helvetica,sans-Serif" font-size="10.00"> map_name</text>
</g>
<!-- Node10 -->
<g id="node10" class="node">
<title>Node10</title>
<g id="a_node10"><a xlink:title=" ">
<polygon fill="white" stroke="black" points="125.5,-0.5 125.5,-30.5 229.5,-30.5 229.5,-0.5 125.5,-0.5"/>
<text text-anchor="start" x="133.5" y="-18.5" font-family="Helvetica,sans-Serif" font-size="10.00">std::basic_string&lt;</text>
<text text-anchor="middle" x="177.5" y="-7.5" font-family="Helvetica,sans-Serif" font-size="10.00"> Char &gt;</text>
</a>
</g>
</g>
<!-- Node10&#45;&gt;Node9 -->
<g id="edge9" class="edge">
<title>Node10&#45;&gt;Node9</title>
<path fill="none" stroke="midnightblue" d="M239.5,-25.77C287.43,-33.84 352.25,-44.76 390.35,-51.17"/>
<polygon fill="midnightblue" stroke="midnightblue" points="239.99,-22.3 229.55,-24.09 238.83,-29.21 239.99,-22.3"/>
</g>
</g>
</svg>
