<?xml version="1.0" encoding="UTF-8" standalone="no"?>
<!DOCTYPE svg PUBLIC "-//W3C//DTD SVG 1.1//EN"
 "http://www.w3.org/Graphics/SVG/1.1/DTD/svg11.dtd">
<!-- Generated by graphviz version 2.43.0 (0)
 -->
<!-- Title: ccf::indexing::strategies::SeqnosByKey_InMemory_Untyped Pages: 1 -->
<svg width="790pt" height="191pt"
 viewBox="0.00 0.00 790.00 191.00" xmlns="http://www.w3.org/2000/svg" xmlns:xlink="http://www.w3.org/1999/xlink">
<g id="graph0" class="graph" transform="scale(1 1) rotate(0) translate(4 187)">
<title>ccf::indexing::strategies::SeqnosByKey_InMemory_Untyped</title>
<polygon fill="white" stroke="transparent" points="-4,4 -4,-187 786,-187 786,4 -4,4"/>
<!-- Node1 -->
<g id="node1" class="node">
<title>Node1</title>
<g id="a_node1"><a xlink:title=" ">
<polygon fill="#bfbfbf" stroke="black" points="639,-38.5 639,-79.5 782,-79.5 782,-38.5 639,-38.5"/>
<text text-anchor="start" x="647" y="-67.5" font-family="Helvetica,sans-Serif" font-size="10.00">ccf::indexing::strategies</text>
<text text-anchor="start" x="647" y="-56.5" font-family="Helvetica,sans-Serif" font-size="10.00">::SeqnosByKey_InMemory</text>
<text text-anchor="middle" x="710.5" y="-45.5" font-family="Helvetica,sans-Serif" font-size="10.00">_Untyped</text>
</a>
</g>
</g>
<!-- Node2 -->
<g id="node2" class="node">
<title>Node2</title>
<g id="a_node2"><a xlink:href="classccf_1_1indexing_1_1strategies_1_1VisitEachEntryInMap.html" target="_top" xlink:title=" ">
<polygon fill="white" stroke="black" points="378,-112 378,-142 511,-142 511,-112 378,-112"/>
<text text-anchor="start" x="386" y="-130" font-family="Helvetica,sans-Serif" font-size="10.00">ccf::indexing::strategies</text>
<text text-anchor="middle" x="444.5" y="-119" font-family="Helvetica,sans-Serif" font-size="10.00">::VisitEachEntryInMap</text>
</a>
</g>
</g>
<!-- Node2&#45;&gt;Node1 -->
<g id="edge1" class="edge">
<title>Node2&#45;&gt;Node1</title>
<path fill="none" stroke="midnightblue" d="M513.81,-109.41C552.16,-99.53 599.95,-87.22 638.7,-77.24"/>
<polygon fill="midnightblue" stroke="midnightblue" points="512.57,-106.11 503.76,-111.99 514.32,-112.89 512.57,-106.11"/>
</g>
<!-- Node3 -->
<g id="node3" class="node">
<title>Node3</title>
<g id="a_node3"><a xlink:href="classccf_1_1indexing_1_1Strategy.html" target="_top" xlink:title=" ">
<polygon fill="white" stroke="black" points="141,-163.5 141,-182.5 266,-182.5 266,-163.5 141,-163.5"/>
<text text-anchor="middle" x="203.5" y="-170.5" font-family="Helvetica,sans-Serif" font-size="10.00">ccf::indexing::Strategy</text>
</a>
</g>
</g>
<!-- Node3&#45;&gt;Node2 -->
<g id="edge2" class="edge">
<title>Node3&#45;&gt;Node2</title>
<path fill="none" stroke="midnightblue" d="M267.84,-161.65C292.29,-157.19 320.46,-151.96 346,-147 356.35,-144.99 367.3,-142.8 377.98,-140.63"/>
<polygon fill="midnightblue" stroke="midnightblue" points="267.18,-158.21 257.97,-163.44 268.43,-165.1 267.18,-158.21"/>
</g>
<!-- Node4 -->
<g id="node4" class="node">
<title>Node4</title>
<g id="a_node4"><a xlink:title=" ">
<polygon fill="white" stroke="black" points="171,-125.5 171,-144.5 236,-144.5 236,-125.5 171,-125.5"/>
<text text-anchor="middle" x="203.5" y="-132.5" font-family="Helvetica,sans-Serif" font-size="10.00">std::string</text>
</a>
</g>
</g>
<!-- Node4&#45;&gt;Node2 -->
<g id="edge3" class="edge">
<title>Node4&#45;&gt;Node2</title>
<path fill="none" stroke="#9a32cd" stroke-dasharray="5,2" d="M246.47,-133.6C282.76,-132.38 335.84,-130.6 377.77,-129.2"/>
<polygon fill="#9a32cd" stroke="#9a32cd" points="246.11,-130.1 236.24,-133.94 246.35,-137.1 246.11,-130.1"/>
<text text-anchor="middle" x="315" y="-135" font-family="Helvetica,sans-Serif" font-size="10.00"> map_name</text>
</g>
<!-- Node5 -->
<g id="node5" class="node">
<title>Node5</title>
<g id="a_node5"><a xlink:title=" ">
<polygon fill="white" stroke="black" points="0,-120 0,-150 104,-150 104,-120 0,-120"/>
<text text-anchor="start" x="8" y="-138" font-family="Helvetica,sans-Serif" font-size="10.00">std::basic_string&lt;</text>
<text text-anchor="middle" x="52" y="-127" font-family="Helvetica,sans-Serif" font-size="10.00"> Char &gt;</text>
</a>
</g>
</g>
<!-- Node5&#45;&gt;Node4 -->
<g id="edge4" class="edge">
<title>Node5&#45;&gt;Node4</title>
<path fill="none" stroke="midnightblue" d="M114.08,-135C133.56,-135 154.34,-135 170.85,-135"/>
<polygon fill="midnightblue" stroke="midnightblue" points="114.03,-131.5 104.03,-135 114.03,-138.5 114.03,-131.5"/>
</g>
<!-- Node6 -->
<g id="node6" class="node">
<title>Node6</title>
<g id="a_node6"><a xlink:href="structccf_1_1TxID.html" target="_top" xlink:title=" ">
<polygon fill="white" stroke="black" points="174,-87.5 174,-106.5 233,-106.5 233,-87.5 174,-87.5"/>
<text text-anchor="middle" x="203.5" y="-94.5" font-family="Helvetica,sans-Serif" font-size="10.00">ccf::TxID</text>
</a>
</g>
</g>
<!-- Node6&#45;&gt;Node2 -->
<g id="edge5" class="edge">
<title>Node6&#45;&gt;Node2</title>
<path fill="none" stroke="#9a32cd" stroke-dasharray="5,2" d="M243.5,-101.9C279.76,-106.45 334.5,-113.32 377.56,-118.72"/>
<polygon fill="#9a32cd" stroke="#9a32cd" points="243.69,-98.39 233.33,-100.62 242.82,-105.34 243.69,-98.39"/>
<text text-anchor="middle" x="315" y="-117" font-family="Helvetica,sans-Serif" font-size="10.00"> current_txid</text>
</g>
<!-- Node7 -->
<g id="node7" class="node">
<title>Node7</title>
<g id="a_node7"><a xlink:title=" ">
<polygon fill="white" stroke="black" points="364,-38.5 364,-79.5 525,-79.5 525,-38.5 364,-38.5"/>
<text text-anchor="start" x="372" y="-67.5" font-family="Helvetica,sans-Serif" font-size="10.00">std::unordered_map</text>
<text text-anchor="start" x="372" y="-56.5" font-family="Helvetica,sans-Serif" font-size="10.00">&lt; ccf::ByteVector, Contiguous</text>
<text text-anchor="middle" x="444.5" y="-45.5" font-family="Helvetica,sans-Serif" font-size="10.00">Set&lt; ccf::SeqNo &gt; &gt;</text>
</a>
</g>
</g>
<!-- Node7&#45;&gt;Node1 -->
<g id="edge6" class="edge">
<title>Node7&#45;&gt;Node1</title>
<path fill="none" stroke="#9a32cd" stroke-dasharray="5,2" d="M535.38,-59C569.08,-59 606.88,-59 638.62,-59"/>
<polygon fill="#9a32cd" stroke="#9a32cd" points="535.07,-55.5 525.07,-59 535.07,-62.5 535.07,-55.5"/>
<text text-anchor="middle" x="582" y="-62" font-family="Helvetica,sans-Serif" font-size="10.00"> seqnos_by_key</text>
</g>
<!-- Node8 -->
<g id="node8" class="node">
<title>Node8</title>
<g id="a_node8"><a xlink:href="classds_1_1ContiguousSet.html" target="_top" xlink:title=" ">
<polygon fill="white" stroke="black" points="147,-38 147,-68 260,-68 260,-38 147,-38"/>
<text text-anchor="start" x="155" y="-56" font-family="Helvetica,sans-Serif" font-size="10.00">ds::ContiguousSet&lt;</text>
<text text-anchor="middle" x="203.5" y="-45" font-family="Helvetica,sans-Serif" font-size="10.00"> ccf::SeqNo &gt;</text>
</a>
</g>
</g>
<!-- Node8&#45;&gt;Node7 -->
<g id="edge7" class="edge">
<title>Node8&#45;&gt;Node7</title>
<path fill="none" stroke="#9a32cd" stroke-dasharray="5,2" d="M270.6,-54.66C299.41,-55.38 333.43,-56.24 363.65,-57"/>
<polygon fill="#9a32cd" stroke="#9a32cd" points="270.32,-51.15 260.23,-54.4 270.14,-58.15 270.32,-51.15"/>
<text text-anchor="middle" x="315" y="-59" font-family="Helvetica,sans-Serif" font-size="10.00"> elements</text>
</g>
<!-- Node9 -->
<g id="node9" class="node">
<title>Node9</title>
<g id="a_node9"><a xlink:title=" ">
<polygon fill="white" stroke="black" points="410,-0.5 410,-19.5 479,-19.5 479,-0.5 410,-0.5"/>
<text text-anchor="middle" x="444.5" y="-7.5" font-family="Helvetica,sans-Serif" font-size="10.00">std::mutex</text>
</a>
</g>
</g>
<!-- Node9&#45;&gt;Node1 -->
<g id="edge8" class="edge">
<title>Node9&#45;&gt;Node1</title>
<path fill="none" stroke="#9a32cd" stroke-dasharray="5,2" d="M489.08,-18.09C529.74,-25.64 591.14,-37.03 638.82,-45.88"/>
<polygon fill="#9a32cd" stroke="#9a32cd" points="489.67,-14.64 479.2,-16.26 488.4,-21.52 489.67,-14.64"/>
<text text-anchor="middle" x="582" y="-44" font-family="Helvetica,sans-Serif" font-size="10.00"> lock</text>
</g>
</g>
</svg>
