<?xml version="1.0" encoding="UTF-8" standalone="no"?>
<!DOCTYPE svg PUBLIC "-//W3C//DTD SVG 1.1//EN"
 "http://www.w3.org/Graphics/SVG/1.1/DTD/svg11.dtd">
<!-- Generated by graphviz version 2.43.0 (0)
 -->
<!-- Title: ccf::NodeConfigurationSubsystem Pages: 1 -->
<!--zoomable 491 -->
<svg id="main" version="1.1" xmlns="http://www.w3.org/2000/svg" xmlns:xlink="http://www.w3.org/1999/xlink" xml:space="preserve" onload="init(evt)">
<style type="text/css"><![CDATA[
.edge:hover path { stroke: red; }
.edge:hover polygon { stroke: red; fill: red; }
]]></style>
<script type="text/javascript"><![CDATA[
var edges = document.getElementsByTagName('g');
if (edges && edges.length) {
  for (var i=0;i<edges.length;i++) {
    if (edges[i].id.substr(0,4)=='edge') {
      edges[i].setAttribute('class','edge');
    }
  }
}
]]></script>
        <defs>
                <circle id="rim" cx="0" cy="0" r="7"/>
                <circle id="rim2" cx="0" cy="0" r="3.5"/>
                <g id="zoomPlus">
                        <use xlink:href="#rim" fill="#404040">
                                <set attributeName="fill" to="#808080" begin="zoomplus.mouseover" end="zoomplus.mouseout"/>
                        </use>
                        <path d="M-4,0h8M0,-4v8" fill="none" stroke="white" stroke-width="1.5" pointer-events="none"/>
                </g>
                <g id="zoomMin">
                        <use xlink:href="#rim" fill="#404040">
                                <set attributeName="fill" to="#808080" begin="zoomminus.mouseover" end="zoomminus.mouseout"/>
                        </use>
                        <path d="M-4,0h8" fill="none" stroke="white" stroke-width="1.5" pointer-events="none"/>
                </g>
                <g id="dirArrow">
                        <path fill="none" stroke="white" stroke-width="1.5" d="M0,-3.0v7 M-2.5,-0.5L0,-3.0L2.5,-0.5"/>
                </g>
               <g id="resetDef">
                       <use xlink:href="#rim2" fill="#404040">
                               <set attributeName="fill" to="#808080" begin="reset.mouseover" end="reset.mouseout"/>
                       </use>
               </g>
        </defs>

<script type="text/javascript">
var viewWidth = 2809;
var viewHeight = 491;
var sectionId = 'dynsection-0';
</script>
<script xlink:href="svgpan.js"/>
<svg id="graph" class="graph">
<g id="viewport">
<title>ccf::NodeConfigurationSubsystem</title>
<polygon fill="white" stroke="transparent" points="-4,4 -4,-487 2805,-487 2805,4 -4,4"/>
<!-- Node1 -->
<g id="node1" class="node">
<title>Node1</title>
<g id="a_node1"><a xlink:title=" ">
<polygon fill="#bfbfbf" stroke="black" points="2620,-399.5 2620,-418.5 2801,-418.5 2801,-399.5 2620,-399.5"/>
<text text-anchor="middle" x="2710.5" y="-406.5" font-family="Helvetica,sans-Serif" font-size="10.00">ccf::NodeConfigurationSubsystem</text>
</a>
</g>
</g>
<!-- Node2 -->
<g id="node2" class="node">
<title>Node2</title>
<g id="a_node2"><a xlink:href="classccf_1_1NodeConfigurationInterface.html" target="_top" xlink:title=" ">
<polygon fill="white" stroke="black" points="2322,-437.5 2322,-456.5 2492,-456.5 2492,-437.5 2322,-437.5"/>
<text text-anchor="middle" x="2407" y="-444.5" font-family="Helvetica,sans-Serif" font-size="10.00">ccf::NodeConfigurationInterface</text>
</a>
</g>
</g>
<!-- Node2&#45;&gt;Node1 -->
<g id="edge1" class="edge">
<title>Node2&#45;&gt;Node1</title>
<path fill="none" stroke="midnightblue" d="M2501.79,-436.28C2533.62,-432.53 2569.37,-428.21 2602,-424 2615.18,-422.3 2629.25,-420.4 2642.72,-418.54"/>
<polygon fill="midnightblue" stroke="midnightblue" points="2501.12,-432.83 2491.6,-437.47 2501.94,-439.78 2501.12,-432.83"/>
</g>
<!-- Node3 -->
<g id="node3" class="node">
<title>Node3</title>
<g id="a_node3"><a xlink:href="classccf_1_1AbstractNodeSubSystem.html" target="_top" xlink:title=" ">
<polygon fill="white" stroke="black" points="2018,-437.5 2018,-456.5 2175,-456.5 2175,-437.5 2018,-437.5"/>
<text text-anchor="middle" x="2096.5" y="-444.5" font-family="Helvetica,sans-Serif" font-size="10.00">ccf::AbstractNodeSubSystem</text>
</a>
</g>
</g>
<!-- Node3&#45;&gt;Node2 -->
<g id="edge2" class="edge">
<title>Node3&#45;&gt;Node2</title>
<path fill="none" stroke="midnightblue" d="M2185.48,-447C2228.34,-447 2279.63,-447 2321.95,-447"/>
<polygon fill="midnightblue" stroke="midnightblue" points="2185.35,-443.5 2175.35,-447 2185.35,-450.5 2185.35,-443.5"/>
</g>
<!-- Node4 -->
<g id="node4" class="node">
<title>Node4</title>
<g id="a_node4"><a xlink:href="classccf_1_1AbstractNodeState.html" target="_top" xlink:title=" ">
<polygon fill="white" stroke="black" points="2343,-399.5 2343,-418.5 2471,-418.5 2471,-399.5 2343,-399.5"/>
<text text-anchor="middle" x="2407" y="-406.5" font-family="Helvetica,sans-Serif" font-size="10.00">ccf::AbstractNodeState</text>
</a>
</g>
</g>
<!-- Node4&#45;&gt;Node1 -->
<g id="edge3" class="edge">
<title>Node4&#45;&gt;Node1</title>
<path fill="none" stroke="#9a32cd" stroke-dasharray="5,2" d="M2481.29,-409C2523.02,-409 2575.61,-409 2619.79,-409"/>
<polygon fill="#9a32cd" stroke="#9a32cd" points="2481.2,-405.5 2471.2,-409 2481.2,-412.5 2481.2,-405.5"/>
<text text-anchor="middle" x="2556" y="-412" font-family="Helvetica,sans-Serif" font-size="10.00"> node_state</text>
</g>
<!-- Node5 -->
<g id="node5" class="node">
<title>Node5</title>
<g id="a_node5"><a xlink:href="structccf_1_1NodeConfigurationState.html" target="_top" xlink:title=" ">
<polygon fill="white" stroke="black" points="2331,-361.5 2331,-380.5 2483,-380.5 2483,-361.5 2331,-361.5"/>
<text text-anchor="middle" x="2407" y="-368.5" font-family="Helvetica,sans-Serif" font-size="10.00">ccf::NodeConfigurationState</text>
</a>
</g>
</g>
<!-- Node5&#45;&gt;Node1 -->
<g id="edge4" class="edge">
<title>Node5&#45;&gt;Node1</title>
<path fill="none" stroke="#9a32cd" stroke-dasharray="5,2" d="M2493.44,-380.74C2527.27,-384.7 2566.49,-389.42 2602,-394 2615.18,-395.7 2629.25,-397.6 2642.72,-399.46"/>
<polygon fill="#9a32cd" stroke="#9a32cd" points="2493.47,-377.22 2483.13,-379.54 2492.65,-384.18 2493.47,-377.22"/>
<text text-anchor="middle" x="2556" y="-397" font-family="Helvetica,sans-Serif" font-size="10.00"> node_config_state</text>
</g>
<!-- Node6 -->
<g id="node6" class="node">
<title>Node6</title>
<g id="a_node6"><a xlink:href="structStartupConfig.html" target="_top" xlink:title=" ">
<polygon fill="white" stroke="black" points="2055,-221.5 2055,-240.5 2138,-240.5 2138,-221.5 2055,-221.5"/>
<text text-anchor="middle" x="2096.5" y="-228.5" font-family="Helvetica,sans-Serif" font-size="10.00">StartupConfig</text>
</a>
</g>
</g>
<!-- Node6&#45;&gt;Node5 -->
<g id="edge5" class="edge">
<title>Node6&#45;&gt;Node5</title>
<path fill="none" stroke="#9a32cd" stroke-dasharray="5,2" d="M2128.04,-244.86C2190.55,-273.23 2331.71,-337.29 2385.06,-361.5"/>
<polygon fill="#9a32cd" stroke="#9a32cd" points="2129.26,-241.57 2118.7,-240.62 2126.36,-247.94 2129.26,-241.57"/>
<text text-anchor="middle" x="2248.5" y="-325" font-family="Helvetica,sans-Serif" font-size="10.00"> node_config</text>
</g>
<!-- Node7 -->
<g id="node7" class="node">
<title>Node7</title>
<g id="a_node7"><a xlink:href="structCCFConfig.html" target="_top" xlink:title=" ">
<polygon fill="white" stroke="black" points="1829.5,-221.5 1829.5,-240.5 1896.5,-240.5 1896.5,-221.5 1829.5,-221.5"/>
<text text-anchor="middle" x="1863" y="-228.5" font-family="Helvetica,sans-Serif" font-size="10.00">CCFConfig</text>
</a>
</g>
</g>
<!-- Node7&#45;&gt;Node6 -->
<g id="edge6" class="edge">
<title>Node7&#45;&gt;Node6</title>
<path fill="none" stroke="midnightblue" d="M1906.93,-231C1949.21,-231 2013.32,-231 2054.81,-231"/>
<polygon fill="midnightblue" stroke="midnightblue" points="1906.68,-227.5 1896.68,-231 1906.68,-234.5 1906.68,-227.5"/>
</g>
<!-- Node8 -->
<g id="node8" class="node">
<title>Node8</title>
<g id="a_node8"><a xlink:href="structconsensus_1_1Configuration.html" target="_top" xlink:title=" ">
<polygon fill="white" stroke="black" points="1517.5,-165.5 1517.5,-184.5 1656.5,-184.5 1656.5,-165.5 1517.5,-165.5"/>
<text text-anchor="middle" x="1587" y="-172.5" font-family="Helvetica,sans-Serif" font-size="10.00">consensus::Configuration</text>
</a>
</g>
</g>
<!-- Node8&#45;&gt;Node7 -->
<g id="edge7" class="edge">
<title>Node8&#45;&gt;Node7</title>
<path fill="none" stroke="#9a32cd" stroke-dasharray="5,2" d="M1666.95,-179.79C1700.6,-182.99 1740.08,-188.28 1775,-197 1798.6,-202.9 1824.41,-213.56 1841.74,-221.37"/>
<polygon fill="#9a32cd" stroke="#9a32cd" points="1666.98,-176.28 1656.71,-178.86 1666.35,-183.25 1666.98,-176.28"/>
<text text-anchor="middle" x="1729.5" y="-200" font-family="Helvetica,sans-Serif" font-size="10.00"> consensus</text>
</g>
<!-- Node9 -->
<g id="node9" class="node">
<title>Node9</title>
<g id="a_node9"><a xlink:href="structds_1_1TimeString.html" target="_top" xlink:title=" ">
<polygon fill="white" stroke="black" points="1217,-167.5 1217,-186.5 1304,-186.5 1304,-167.5 1217,-167.5"/>
<text text-anchor="middle" x="1260.5" y="-174.5" font-family="Helvetica,sans-Serif" font-size="10.00">ds::TimeString</text>
</a>
</g>
</g>
<!-- Node9&#45;&gt;Node8 -->
<g id="edge8" class="edge">
<title>Node9&#45;&gt;Node8</title>
<path fill="none" stroke="#9a32cd" stroke-dasharray="5,2" d="M1314.63,-172.92C1327.2,-172.12 1340.57,-171.41 1353,-171 1413.86,-169.01 1429.12,-169.73 1490,-171 1498.84,-171.18 1508.13,-171.46 1517.31,-171.79"/>
<polygon fill="#9a32cd" stroke="#9a32cd" points="1314.04,-169.46 1304.3,-173.61 1314.51,-176.44 1314.04,-169.46"/>
<text text-anchor="middle" x="1421.5" y="-185" font-family="Helvetica,sans-Serif" font-size="10.00"> election_timeout</text>
<text text-anchor="middle" x="1421.5" y="-174" font-family="Helvetica,sans-Serif" font-size="10.00">message_timeout</text>
</g>
<!-- Node19 -->
<g id="node19" class="node">
<title>Node19</title>
<g id="a_node19"><a xlink:href="structCCFConfig_1_1LedgerSignatures.html" target="_top" xlink:title=" ">
<polygon fill="white" stroke="black" points="1508,-241.5 1508,-260.5 1666,-260.5 1666,-241.5 1508,-241.5"/>
<text text-anchor="middle" x="1587" y="-248.5" font-family="Helvetica,sans-Serif" font-size="10.00">CCFConfig::LedgerSignatures</text>
</a>
</g>
</g>
<!-- Node9&#45;&gt;Node19 -->
<g id="edge24" class="edge">
<title>Node9&#45;&gt;Node19</title>
<path fill="none" stroke="#9a32cd" stroke-dasharray="5,2" d="M1285.69,-191.68C1303.63,-201.86 1329.02,-214.83 1353,-222 1403.28,-237.03 1461.92,-244.28 1507.8,-247.77"/>
<polygon fill="#9a32cd" stroke="#9a32cd" points="1287.44,-188.65 1277.04,-186.65 1283.93,-194.7 1287.44,-188.65"/>
<text text-anchor="middle" x="1421.5" y="-249" font-family="Helvetica,sans-Serif" font-size="10.00"> delay</text>
</g>
<!-- Node20 -->
<g id="node20" class="node">
<title>Node20</title>
<g id="a_node20"><a xlink:href="structCCFConfig_1_1JWT.html" target="_top" xlink:title=" ">
<polygon fill="white" stroke="black" points="1541,-203.5 1541,-222.5 1633,-222.5 1633,-203.5 1541,-203.5"/>
<text text-anchor="middle" x="1587" y="-210.5" font-family="Helvetica,sans-Serif" font-size="10.00">CCFConfig::JWT</text>
</a>
</g>
</g>
<!-- Node9&#45;&gt;Node20 -->
<g id="edge26" class="edge">
<title>Node9&#45;&gt;Node20</title>
<path fill="none" stroke="#9a32cd" stroke-dasharray="5,2" d="M1314.16,-187.02C1326.85,-189.21 1340.38,-191.36 1353,-193 1418.02,-201.46 1493.73,-207.2 1540.77,-210.29"/>
<polygon fill="#9a32cd" stroke="#9a32cd" points="1314.66,-183.55 1304.21,-185.27 1313.45,-190.45 1314.66,-183.55"/>
<text text-anchor="middle" x="1421.5" y="-210" font-family="Helvetica,sans-Serif" font-size="10.00"> key_refresh_interval</text>
</g>
<!-- Node29 -->
<g id="node29" class="node">
<title>Node29</title>
<g id="a_node29"><a xlink:href="structStartupConfig_1_1Join.html" target="_top" xlink:title=" ">
<polygon fill="white" stroke="black" points="1809.5,-129.5 1809.5,-148.5 1916.5,-148.5 1916.5,-129.5 1809.5,-129.5"/>
<text text-anchor="middle" x="1863" y="-136.5" font-family="Helvetica,sans-Serif" font-size="10.00">StartupConfig::Join</text>
</a>
</g>
</g>
<!-- Node9&#45;&gt;Node29 -->
<g id="edge38" class="edge">
<title>Node9&#45;&gt;Node29</title>
<path fill="none" stroke="#9a32cd" stroke-dasharray="5,2" d="M1313.99,-168.45C1363.78,-160.75 1440.76,-149.92 1508,-145 1614.82,-137.19 1740.23,-137.23 1809.44,-138.05"/>
<polygon fill="#9a32cd" stroke="#9a32cd" points="1313.44,-164.99 1304.1,-169.99 1314.52,-171.91 1313.44,-164.99"/>
<text text-anchor="middle" x="1587" y="-148" font-family="Helvetica,sans-Serif" font-size="10.00"> retry_timeout</text>
</g>
<!-- Node10 -->
<g id="node10" class="node">
<title>Node10</title>
<g id="a_node10"><a xlink:href="structds_1_1UnitString.html" target="_top" xlink:title=" ">
<polygon fill="white" stroke="black" points="803,-167.5 803,-186.5 886,-186.5 886,-167.5 803,-167.5"/>
<text text-anchor="middle" x="844.5" y="-174.5" font-family="Helvetica,sans-Serif" font-size="10.00">ds::UnitString</text>
</a>
</g>
</g>
<!-- Node10&#45;&gt;Node9 -->
<g id="edge9" class="edge">
<title>Node10&#45;&gt;Node9</title>
<path fill="none" stroke="midnightblue" d="M896.46,-177C978.91,-177 1140.02,-177 1216.82,-177"/>
<polygon fill="midnightblue" stroke="midnightblue" points="896.33,-173.5 886.33,-177 896.33,-180.5 896.33,-173.5"/>
</g>
<!-- Node11 -->
<g id="node11" class="node">
<title>Node11</title>
<g id="a_node11"><a xlink:title=" ">
<polygon fill="white" stroke="black" points="376,-252.5 376,-271.5 441,-271.5 441,-252.5 376,-252.5"/>
<text text-anchor="middle" x="408.5" y="-259.5" font-family="Helvetica,sans-Serif" font-size="10.00">std::string</text>
</a>
</g>
</g>
<!-- Node11&#45;&gt;Node6 -->
<g id="edge30" class="edge">
<title>Node11&#45;&gt;Node6</title>
<path fill="none" stroke="#9a32cd" stroke-dasharray="5,2" d="M423.23,-279.42C441.36,-301.15 475.42,-337.79 513,-357 591.78,-397.26 619.53,-397 708,-397 708,-397 708,-397 1864,-397 1971.81,-397 2063.88,-276.62 2088.84,-240.89"/>
<polygon fill="#9a32cd" stroke="#9a32cd" points="425.91,-277.17 416.88,-271.62 420.48,-281.59 425.91,-277.17"/>
<text text-anchor="middle" x="1260.5" y="-400" font-family="Helvetica,sans-Serif" font-size="10.00"> startup_host_time</text>
</g>
<!-- Node11&#45;&gt;Node10 -->
<g id="edge10" class="edge">
<title>Node11&#45;&gt;Node10</title>
<path fill="none" stroke="#9a32cd" stroke-dasharray="5,2" d="M428.56,-246.16C448.3,-230.78 480.74,-208.29 513,-198 613.38,-166 739.4,-169.05 802.92,-173.37"/>
<polygon fill="#9a32cd" stroke="#9a32cd" points="426.3,-243.49 420.67,-252.46 430.67,-248.96 426.3,-243.49"/>
<text text-anchor="middle" x="567" y="-201" font-family="Helvetica,sans-Serif" font-size="10.00"> str</text>
</g>
<!-- Node15 -->
<g id="node15" class="node">
<title>Node15</title>
<g id="a_node15"><a xlink:href="structccf_1_1NodeInfoNetwork__v2_1_1NetInterface.html" target="_top" xlink:title="Network interface description.">
<polygon fill="white" stroke="black" points="648,-291 648,-321 770,-321 770,-291 648,-291"/>
<text text-anchor="start" x="656" y="-309" font-family="Helvetica,sans-Serif" font-size="10.00">ccf::NodeInfoNetwork</text>
<text text-anchor="middle" x="709" y="-298" font-family="Helvetica,sans-Serif" font-size="10.00">_v2::NetInterface</text>
</a>
</g>
</g>
<!-- Node11&#45;&gt;Node15 -->
<g id="edge15" class="edge">
<title>Node11&#45;&gt;Node15</title>
<path fill="none" stroke="#9a32cd" stroke-dasharray="5,2" d="M451.2,-268.15C502.37,-275.69 589.49,-288.53 647.88,-297.14"/>
<polygon fill="#9a32cd" stroke="#9a32cd" points="451.57,-264.66 441.16,-266.67 450.54,-271.59 451.57,-264.66"/>
<text text-anchor="middle" x="567" y="-318" font-family="Helvetica,sans-Serif" font-size="10.00"> bind_address</text>
<text text-anchor="middle" x="567" y="-307" font-family="Helvetica,sans-Serif" font-size="10.00">protocol</text>
<text text-anchor="middle" x="567" y="-296" font-family="Helvetica,sans-Serif" font-size="10.00">published_address</text>
</g>
<!-- Node16 -->
<g id="node16" class="node">
<title>Node16</title>
<g id="a_node16"><a xlink:title=" ">
<polygon fill="white" stroke="black" points="920.5,-334 920.5,-364 1066.5,-364 1066.5,-334 920.5,-334"/>
<text text-anchor="start" x="928.5" y="-352" font-family="Helvetica,sans-Serif" font-size="10.00">std::map&lt; RpcInterfaceID,</text>
<text text-anchor="middle" x="993.5" y="-341" font-family="Helvetica,sans-Serif" font-size="10.00"> NetInterface &gt;</text>
</a>
</g>
</g>
<!-- Node11&#45;&gt;Node16 -->
<g id="edge17" class="edge">
<title>Node11&#45;&gt;Node16</title>
<path fill="none" stroke="#9a32cd" stroke-dasharray="5,2" d="M427.73,-278.35C447.25,-294.75 479.92,-319.08 513,-330 651.45,-375.69 824.68,-367.79 920.45,-358.22"/>
<polygon fill="#9a32cd" stroke="#9a32cd" points="429.83,-275.54 419.97,-271.66 425.26,-280.84 429.83,-275.54"/>
<text text-anchor="middle" x="709" y="-368" font-family="Helvetica,sans-Serif" font-size="10.00"> keys</text>
</g>
<!-- Node17 -->
<g id="node17" class="node">
<title>Node17</title>
<g id="a_node17"><a xlink:href="structCCFConfig_1_1NodeCertificateInfo.html" target="_top" xlink:title=" ">
<polygon fill="white" stroke="black" points="910,-248.5 910,-267.5 1077,-267.5 1077,-248.5 910,-248.5"/>
<text text-anchor="middle" x="993.5" y="-255.5" font-family="Helvetica,sans-Serif" font-size="10.00">CCFConfig::NodeCertificateInfo</text>
</a>
</g>
</g>
<!-- Node11&#45;&gt;Node17 -->
<g id="edge20" class="edge">
<title>Node11&#45;&gt;Node17</title>
<path fill="none" stroke="#9a32cd" stroke-dasharray="5,2" d="M451.17,-254.89C497.04,-247.46 573.02,-236.29 639,-232 701.09,-227.96 716.89,-228.23 779,-232 830.25,-235.11 888.04,-242.38 930.55,-248.44"/>
<polygon fill="#9a32cd" stroke="#9a32cd" points="450.6,-251.44 441.3,-256.51 451.74,-258.35 450.6,-251.44"/>
<text text-anchor="middle" x="709" y="-235" font-family="Helvetica,sans-Serif" font-size="10.00"> subject_name</text>
</g>
<!-- Node18 -->
<g id="node18" class="node">
<title>Node18</title>
<g id="a_node18"><a xlink:title=" ">
<polygon fill="white" stroke="black" points="639,-252.5 639,-271.5 779,-271.5 779,-252.5 639,-252.5"/>
<text text-anchor="middle" x="709" y="-259.5" font-family="Helvetica,sans-Serif" font-size="10.00">std::vector&lt; std::string &gt;</text>
</a>
</g>
</g>
<!-- Node11&#45;&gt;Node18 -->
<g id="edge22" class="edge">
<title>Node11&#45;&gt;Node18</title>
<path fill="none" stroke="#9a32cd" stroke-dasharray="5,2" d="M451.31,-262C499.9,-262 580.79,-262 638.79,-262"/>
<polygon fill="#9a32cd" stroke="#9a32cd" points="451.16,-258.5 441.16,-262 451.16,-265.5 451.16,-258.5"/>
<text text-anchor="middle" x="567" y="-265" font-family="Helvetica,sans-Serif" font-size="10.00"> elements</text>
</g>
<!-- Node24 -->
<g id="node24" class="node">
<title>Node24</title>
<g id="a_node24"><a xlink:href="structStartupConfig_1_1Start.html" target="_top" xlink:title=" ">
<polygon fill="white" stroke="black" points="653,-37.5 653,-56.5 765,-56.5 765,-37.5 653,-37.5"/>
<text text-anchor="middle" x="709" y="-44.5" font-family="Helvetica,sans-Serif" font-size="10.00">StartupConfig::Start</text>
</a>
</g>
</g>
<!-- Node11&#45;&gt;Node24 -->
<g id="edge35" class="edge">
<title>Node11&#45;&gt;Node24</title>
<path fill="none" stroke="#9a32cd" stroke-dasharray="5,2" d="M421.73,-244.11C439.49,-219.15 474.54,-173.61 513,-144 566.93,-102.48 641.42,-71.39 680.9,-56.59"/>
<polygon fill="#9a32cd" stroke="#9a32cd" points="418.86,-242.1 415.99,-252.3 424.59,-246.12 418.86,-242.1"/>
<text text-anchor="middle" x="567" y="-147" font-family="Helvetica,sans-Serif" font-size="10.00"> constitution</text>
</g>
<!-- Node12 -->
<g id="node12" class="node">
<title>Node12</title>
<g id="a_node12"><a xlink:title=" ">
<polygon fill="white" stroke="black" points="133,-247 133,-277 237,-277 237,-247 133,-247"/>
<text text-anchor="start" x="141" y="-265" font-family="Helvetica,sans-Serif" font-size="10.00">std::basic_string&lt;</text>
<text text-anchor="middle" x="185" y="-254" font-family="Helvetica,sans-Serif" font-size="10.00"> Char &gt;</text>
</a>
</g>
</g>
<!-- Node12&#45;&gt;Node11 -->
<g id="edge11" class="edge">
<title>Node12&#45;&gt;Node11</title>
<path fill="none" stroke="midnightblue" d="M247.15,-262C288.86,-262 342.4,-262 375.83,-262"/>
<polygon fill="midnightblue" stroke="midnightblue" points="247.09,-258.5 237.09,-262 247.09,-265.5 247.09,-258.5"/>
</g>
<!-- Node13 -->
<g id="node13" class="node">
<title>Node13</title>
<g id="a_node13"><a xlink:href="structccf_1_1NodeInfoNetwork.html" target="_top" xlink:title=" ">
<polygon fill="white" stroke="black" points="1526,-317.5 1526,-336.5 1648,-336.5 1648,-317.5 1526,-317.5"/>
<text text-anchor="middle" x="1587" y="-324.5" font-family="Helvetica,sans-Serif" font-size="10.00">ccf::NodeInfoNetwork</text>
</a>
</g>
</g>
<!-- Node13&#45;&gt;Node7 -->
<g id="edge12" class="edge">
<title>Node13&#45;&gt;Node7</title>
<path fill="none" stroke="#9a32cd" stroke-dasharray="5,2" d="M1658.81,-327.17C1694.87,-325 1738.65,-318.78 1775,-303 1808.63,-288.4 1839.55,-256.71 1853.78,-240.69"/>
<polygon fill="#9a32cd" stroke="#9a32cd" points="1658.18,-323.7 1648.37,-327.71 1658.53,-330.69 1658.18,-323.7"/>
<text text-anchor="middle" x="1729.5" y="-328" font-family="Helvetica,sans-Serif" font-size="10.00"> network</text>
</g>
<!-- Node14 -->
<g id="node14" class="node">
<title>Node14</title>
<g id="a_node14"><a xlink:href="structccf_1_1NodeInfoNetwork__v2.html" target="_top" xlink:title="Node network information.">
<polygon fill="white" stroke="black" points="1191,-317.5 1191,-336.5 1330,-336.5 1330,-317.5 1191,-317.5"/>
<text text-anchor="middle" x="1260.5" y="-324.5" font-family="Helvetica,sans-Serif" font-size="10.00">ccf::NodeInfoNetwork_v2</text>
</a>
</g>
</g>
<!-- Node14&#45;&gt;Node13 -->
<g id="edge13" class="edge">
<title>Node14&#45;&gt;Node13</title>
<path fill="none" stroke="midnightblue" d="M1340.39,-327C1397.48,-327 1473.48,-327 1525.74,-327"/>
<polygon fill="midnightblue" stroke="midnightblue" points="1340.32,-323.5 1330.32,-327 1340.32,-330.5 1340.32,-323.5"/>
</g>
<!-- Node15&#45;&gt;Node14 -->
<g id="edge14" class="edge">
<title>Node15&#45;&gt;Node14</title>
<path fill="none" stroke="#9a32cd" stroke-dasharray="5,2" d="M780.23,-306.14C854.12,-306.57 973.8,-308.06 1077,-313 1114.61,-314.8 1156.51,-317.93 1190.66,-320.78"/>
<polygon fill="#9a32cd" stroke="#9a32cd" points="780.13,-302.64 770.11,-306.09 780.09,-309.64 780.13,-302.64"/>
<text text-anchor="middle" x="993.5" y="-316" font-family="Helvetica,sans-Serif" font-size="10.00"> node_to_node_interface</text>
</g>
<!-- Node15&#45;&gt;Node16 -->
<g id="edge18" class="edge">
<title>Node15&#45;&gt;Node16</title>
<path fill="none" stroke="#9a32cd" stroke-dasharray="5,2" d="M780.28,-316.7C822.96,-323.19 877.31,-331.47 920.32,-338.01"/>
<polygon fill="#9a32cd" stroke="#9a32cd" points="780.67,-313.22 770.26,-315.17 779.62,-320.14 780.67,-313.22"/>
<text text-anchor="middle" x="844.5" y="-336" font-family="Helvetica,sans-Serif" font-size="10.00"> elements</text>
</g>
<!-- Node16&#45;&gt;Node14 -->
<g id="edge16" class="edge">
<title>Node16&#45;&gt;Node14</title>
<path fill="none" stroke="#9a32cd" stroke-dasharray="5,2" d="M1076.7,-342.18C1113.25,-339.14 1155.8,-335.61 1190.65,-332.72"/>
<polygon fill="#9a32cd" stroke="#9a32cd" points="1076.24,-338.7 1066.56,-343.02 1076.82,-345.68 1076.24,-338.7"/>
<text text-anchor="middle" x="1131.5" y="-344" font-family="Helvetica,sans-Serif" font-size="10.00"> rpc_interfaces</text>
</g>
<!-- Node17&#45;&gt;Node7 -->
<g id="edge19" class="edge">
<title>Node17&#45;&gt;Node7</title>
<path fill="none" stroke="#9a32cd" stroke-dasharray="5,2" d="M1087.55,-263.66C1217.23,-270.64 1459.65,-280.39 1666,-270 1714.63,-267.55 1727.34,-268.96 1775,-259 1796.43,-254.52 1820.04,-246.74 1837.25,-240.51"/>
<polygon fill="#9a32cd" stroke="#9a32cd" points="1087.44,-260.15 1077.26,-263.1 1087.06,-267.14 1087.44,-260.15"/>
<text text-anchor="middle" x="1421.5" y="-278" font-family="Helvetica,sans-Serif" font-size="10.00"> node_certificate</text>
</g>
<!-- Node18&#45;&gt;Node17 -->
<g id="edge21" class="edge">
<title>Node18&#45;&gt;Node17</title>
<path fill="none" stroke="#9a32cd" stroke-dasharray="5,2" d="M789.49,-260.87C827.04,-260.34 871.83,-259.71 909.78,-259.17"/>
<polygon fill="#9a32cd" stroke="#9a32cd" points="789.06,-257.38 779.11,-261.02 789.16,-264.38 789.06,-257.38"/>
<text text-anchor="middle" x="844.5" y="-264" font-family="Helvetica,sans-Serif" font-size="10.00"> subject_alt_names</text>
</g>
<!-- Node19&#45;&gt;Node7 -->
<g id="edge23" class="edge">
<title>Node19&#45;&gt;Node7</title>
<path fill="none" stroke="#9a32cd" stroke-dasharray="5,2" d="M1676.13,-244.57C1728.52,-240.74 1791.88,-236.12 1829.46,-233.38"/>
<polygon fill="#9a32cd" stroke="#9a32cd" points="1675.87,-241.08 1666.15,-245.3 1676.38,-248.06 1675.87,-241.08"/>
<text text-anchor="middle" x="1729.5" y="-247" font-family="Helvetica,sans-Serif" font-size="10.00"> ledger_signatures</text>
</g>
<!-- Node20&#45;&gt;Node7 -->
<g id="edge25" class="edge">
<title>Node20&#45;&gt;Node7</title>
<path fill="none" stroke="#9a32cd" stroke-dasharray="5,2" d="M1643.23,-211.65C1680.53,-211.29 1730.82,-211.86 1775,-216 1793.01,-217.69 1812.9,-221.01 1829.11,-224.09"/>
<polygon fill="#9a32cd" stroke="#9a32cd" points="1643.03,-208.15 1633.07,-211.78 1643.11,-215.15 1643.03,-208.15"/>
<text text-anchor="middle" x="1729.5" y="-219" font-family="Helvetica,sans-Serif" font-size="10.00"> jwt</text>
</g>
<!-- Node21 -->
<g id="node21" class="node">
<title>Node21</title>
<g id="a_node21"><a xlink:href="structCCFConfig_1_1Attestation.html" target="_top" xlink:title=" ">
<polygon fill="white" stroke="black" points="1523.5,-80.5 1523.5,-99.5 1650.5,-99.5 1650.5,-80.5 1523.5,-80.5"/>
<text text-anchor="middle" x="1587" y="-87.5" font-family="Helvetica,sans-Serif" font-size="10.00">CCFConfig::Attestation</text>
</a>
</g>
</g>
<!-- Node21&#45;&gt;Node7 -->
<g id="edge27" class="edge">
<title>Node21&#45;&gt;Node7</title>
<path fill="none" stroke="#9a32cd" stroke-dasharray="5,2" d="M1633.13,-102.53C1644.01,-105.92 1655.52,-109.82 1666,-114 1716.22,-134.01 1728.72,-140.05 1775,-168 1803.09,-184.97 1833.68,-208.38 1850.05,-221.36"/>
<polygon fill="#9a32cd" stroke="#9a32cd" points="1633.95,-99.12 1623.36,-99.57 1631.92,-105.82 1633.95,-99.12"/>
<text text-anchor="middle" x="1729.5" y="-171" font-family="Helvetica,sans-Serif" font-size="10.00"> attestation</text>
</g>
<!-- Node22 -->
<g id="node22" class="node">
<title>Node22</title>
<g id="a_node22"><a xlink:title=" ">
<polygon fill="white" stroke="black" points="1186,-75 1186,-105 1335,-105 1335,-75 1186,-75"/>
<text text-anchor="start" x="1194" y="-93" font-family="Helvetica,sans-Serif" font-size="10.00">std::vector&lt; Endorsements</text>
<text text-anchor="middle" x="1260.5" y="-82" font-family="Helvetica,sans-Serif" font-size="10.00">Server &gt;</text>
</a>
</g>
</g>
<!-- Node22&#45;&gt;Node21 -->
<g id="edge28" class="edge">
<title>Node22&#45;&gt;Node21</title>
<path fill="none" stroke="#9a32cd" stroke-dasharray="5,2" d="M1345.32,-90C1400.9,-90 1472.66,-90 1523.31,-90"/>
<polygon fill="#9a32cd" stroke="#9a32cd" points="1345.13,-86.5 1335.13,-90 1345.13,-93.5 1345.13,-86.5"/>
<text text-anchor="middle" x="1421.5" y="-93" font-family="Helvetica,sans-Serif" font-size="10.00"> snp_endorsements_servers</text>
</g>
<!-- Node23 -->
<g id="node23" class="node">
<title>Node23</title>
<g id="a_node23"><a xlink:title=" ">
<polygon fill="white" stroke="black" points="1524.5,-38.5 1524.5,-57.5 1649.5,-57.5 1649.5,-38.5 1524.5,-38.5"/>
<text text-anchor="middle" x="1587" y="-45.5" font-family="Helvetica,sans-Serif" font-size="10.00">std::vector&lt; uint8_t &gt;</text>
</a>
</g>
</g>
<!-- Node23&#45;&gt;Node6 -->
<g id="edge29" class="edge">
<title>Node23&#45;&gt;Node6</title>
<path fill="none" stroke="#9a32cd" stroke-dasharray="5,2" d="M1659.64,-48.64C1694.67,-49.95 1737.29,-53.04 1775,-60 1847.3,-73.34 1867.53,-75.55 1933,-109 1996.46,-141.42 2060.95,-198.64 2085.33,-221.33"/>
<polygon fill="#9a32cd" stroke="#9a32cd" points="1659.62,-45.13 1649.51,-48.3 1659.39,-52.13 1659.62,-45.13"/>
<text text-anchor="middle" x="1863" y="-112" font-family="Helvetica,sans-Serif" font-size="10.00"> startup_snapshot</text>
</g>
<!-- Node23&#45;&gt;Node29 -->
<g id="edge39" class="edge">
<title>Node23&#45;&gt;Node29</title>
<path fill="none" stroke="#9a32cd" stroke-dasharray="5,2" d="M1659.58,-57.06C1703.16,-63.2 1754.31,-71.67 1775,-80 1805.13,-92.13 1835.42,-115.92 1851.08,-129.28"/>
<polygon fill="#9a32cd" stroke="#9a32cd" points="1659.94,-53.58 1649.55,-55.67 1658.98,-60.51 1659.94,-53.58"/>
<text text-anchor="middle" x="1729.5" y="-83" font-family="Helvetica,sans-Serif" font-size="10.00"> service_cert</text>
</g>
<!-- Node24&#45;&gt;Node6 -->
<g id="edge31" class="edge">
<title>Node24&#45;&gt;Node6</title>
<path fill="none" stroke="#9a32cd" stroke-dasharray="5,2" d="M754.31,-34.98C809.61,-21.05 907.31,0 992.5,0 992.5,0 992.5,0 1864,0 1991.46,0 2073.4,-177.65 2091.64,-221.37"/>
<polygon fill="#9a32cd" stroke="#9a32cd" points="753.31,-31.62 744.49,-37.49 755.04,-38.4 753.31,-31.62"/>
<text text-anchor="middle" x="1421.5" y="-3" font-family="Helvetica,sans-Serif" font-size="10.00"> start</text>
</g>
<!-- Node25 -->
<g id="node25" class="node">
<title>Node25</title>
<g id="a_node25"><a xlink:title=" ">
<polygon fill="white" stroke="black" points="322,-57.5 322,-76.5 495,-76.5 495,-57.5 322,-57.5"/>
<text text-anchor="middle" x="408.5" y="-64.5" font-family="Helvetica,sans-Serif" font-size="10.00">std::vector&lt; ccf::NewMember &gt;</text>
</a>
</g>
</g>
<!-- Node25&#45;&gt;Node24 -->
<g id="edge32" class="edge">
<title>Node25&#45;&gt;Node24</title>
<path fill="none" stroke="#9a32cd" stroke-dasharray="5,2" d="M505.28,-60.58C553.93,-57.32 611.32,-53.48 652.6,-50.71"/>
<polygon fill="#9a32cd" stroke="#9a32cd" points="504.78,-57.11 495.04,-61.27 505.25,-64.09 504.78,-57.11"/>
<text text-anchor="middle" x="567" y="-63" font-family="Helvetica,sans-Serif" font-size="10.00"> members</text>
</g>
<!-- Node26 -->
<g id="node26" class="node">
<title>Node26</title>
<g id="a_node26"><a xlink:href="structccf_1_1NewMember.html" target="_top" xlink:title=" ">
<polygon fill="white" stroke="black" points="136,-57.5 136,-76.5 234,-76.5 234,-57.5 136,-57.5"/>
<text text-anchor="middle" x="185" y="-64.5" font-family="Helvetica,sans-Serif" font-size="10.00">ccf::NewMember</text>
</a>
</g>
</g>
<!-- Node26&#45;&gt;Node25 -->
<g id="edge33" class="edge">
<title>Node26&#45;&gt;Node25</title>
<path fill="none" stroke="#9a32cd" stroke-dasharray="5,2" d="M244.26,-67C267.9,-67 295.69,-67 321.57,-67"/>
<polygon fill="#9a32cd" stroke="#9a32cd" points="244.06,-63.5 234.06,-67 244.06,-70.5 244.06,-63.5"/>
<text text-anchor="middle" x="279.5" y="-70" font-family="Helvetica,sans-Serif" font-size="10.00"> elements</text>
</g>
<!-- Node27 -->
<g id="node27" class="node">
<title>Node27</title>
<g id="a_node27"><a xlink:href="classcrypto_1_1Pem.html" target="_top" xlink:title=" ">
<polygon fill="white" stroke="black" points="0,-57.5 0,-76.5 75,-76.5 75,-57.5 0,-57.5"/>
<text text-anchor="middle" x="37.5" y="-64.5" font-family="Helvetica,sans-Serif" font-size="10.00">crypto::Pem</text>
</a>
</g>
</g>
<!-- Node27&#45;&gt;Node26 -->
<g id="edge34" class="edge">
<title>Node27&#45;&gt;Node26</title>
<path fill="none" stroke="#9a32cd" stroke-dasharray="5,2" d="M85.47,-67C101.55,-67 119.56,-67 135.74,-67"/>
<polygon fill="#9a32cd" stroke="#9a32cd" points="85.22,-63.5 75.22,-67 85.22,-70.5 85.22,-63.5"/>
<text text-anchor="middle" x="104" y="-70" font-family="Helvetica,sans-Serif" font-size="10.00"> cert</text>
</g>
<!-- Node28 -->
<g id="node28" class="node">
<title>Node28</title>
<g id="a_node28"><a xlink:href="structccf_1_1ServiceConfiguration.html" target="_top" xlink:title=" ">
<polygon fill="white" stroke="black" points="340,-19.5 340,-38.5 477,-38.5 477,-19.5 340,-19.5"/>
<text text-anchor="middle" x="408.5" y="-26.5" font-family="Helvetica,sans-Serif" font-size="10.00">ccf::ServiceConfiguration</text>
</a>
</g>
</g>
<!-- Node28&#45;&gt;Node24 -->
<g id="edge36" class="edge">
<title>Node28&#45;&gt;Node24</title>
<path fill="none" stroke="#9a32cd" stroke-dasharray="5,2" d="M487.49,-27.2C527.49,-27.01 576.93,-27.91 621,-32 633.97,-33.2 647.92,-35.26 660.77,-37.47"/>
<polygon fill="#9a32cd" stroke="#9a32cd" points="487.25,-23.7 477.27,-27.27 487.3,-30.7 487.25,-23.7"/>
<text text-anchor="middle" x="567" y="-35" font-family="Helvetica,sans-Serif" font-size="10.00"> service_configuration</text>
</g>
<!-- Node29&#45;&gt;Node6 -->
<g id="edge37" class="edge">
<title>Node29&#45;&gt;Node6</title>
<path fill="none" stroke="#9a32cd" stroke-dasharray="5,2" d="M1897.85,-152.45C1945.21,-171.27 2030.1,-205.01 2071.49,-221.46"/>
<polygon fill="#9a32cd" stroke="#9a32cd" points="1898.92,-149.11 1888.34,-148.67 1896.34,-155.62 1898.92,-149.11"/>
<text text-anchor="middle" x="1975.5" y="-194" font-family="Helvetica,sans-Serif" font-size="10.00"> join</text>
</g>
<!-- Node30 -->
<g id="node30" class="node">
<title>Node30</title>
<g id="a_node30"><a xlink:href="structStartupConfig_1_1Recover.html" target="_top" xlink:title=" ">
<polygon fill="white" stroke="black" points="1799,-425.5 1799,-444.5 1927,-444.5 1927,-425.5 1799,-425.5"/>
<text text-anchor="middle" x="1863" y="-432.5" font-family="Helvetica,sans-Serif" font-size="10.00">StartupConfig::Recover</text>
</a>
</g>
</g>
<!-- Node30&#45;&gt;Node6 -->
<g id="edge40" class="edge">
<title>Node30&#45;&gt;Node6</title>
<path fill="none" stroke="#9a32cd" stroke-dasharray="5,2" d="M1937.38,-436.22C1959.7,-433.13 1982.84,-425.96 2000,-411 2019.7,-393.82 2006.99,-378.71 2018,-355 2038.96,-309.87 2073.25,-261.16 2088.18,-240.8"/>
<polygon fill="#9a32cd" stroke="#9a32cd" points="1936.75,-432.77 1927.2,-437.37 1937.53,-439.73 1936.75,-432.77"/>
<text text-anchor="middle" x="1975.5" y="-436" font-family="Helvetica,sans-Serif" font-size="10.00"> recover</text>
</g>
<!-- Node31 -->
<g id="node31" class="node">
<title>Node31</title>
<g id="a_node31"><a xlink:title=" ">
<polygon fill="white" stroke="black" points="2018.5,-364.5 2018.5,-405.5 2174.5,-405.5 2174.5,-364.5 2018.5,-364.5"/>
<text text-anchor="start" x="2026.5" y="-393.5" font-family="Helvetica,sans-Serif" font-size="10.00">std::map&lt; NodeInfoNetwork</text>
<text text-anchor="start" x="2026.5" y="-382.5" font-family="Helvetica,sans-Serif" font-size="10.00">::RpcInterfaceID, std::</text>
<text text-anchor="middle" x="2096.5" y="-371.5" font-family="Helvetica,sans-Serif" font-size="10.00">vector&lt; std::regex &gt; &gt;</text>
</a>
</g>
</g>
<!-- Node31&#45;&gt;Node5 -->
<g id="edge41" class="edge">
<title>Node31&#45;&gt;Node5</title>
<path fill="none" stroke="#9a32cd" stroke-dasharray="5,2" d="M2184.83,-381.04C2230.92,-378.95 2286.89,-376.41 2330.99,-374.4"/>
<polygon fill="#9a32cd" stroke="#9a32cd" points="2184.38,-377.55 2174.55,-381.5 2184.7,-384.55 2184.38,-377.55"/>
<text text-anchor="middle" x="2248.5" y="-383" font-family="Helvetica,sans-Serif" font-size="10.00"> rpc_interface_regexes</text>
</g>
<!-- Node32 -->
<g id="node32" class="node">
<title>Node32</title>
<g id="a_node32"><a xlink:title=" ">
<polygon fill="white" stroke="black" points="1793,-463.5 1793,-482.5 1933,-482.5 1933,-463.5 1793,-463.5"/>
<text text-anchor="middle" x="1863" y="-470.5" font-family="Helvetica,sans-Serif" font-size="10.00">std::vector&lt; std::regex &gt;</text>
</a>
</g>
</g>
<!-- Node32&#45;&gt;Node31 -->
<g id="edge42" class="edge">
<title>Node32&#45;&gt;Node31</title>
<path fill="none" stroke="#9a32cd" stroke-dasharray="5,2" d="M1943.42,-469.26C1962.88,-465.79 1982.98,-459.89 2000,-450 2010.92,-443.65 2008.3,-436.1 2018,-428 2028.04,-419.62 2039.95,-412.06 2051.4,-405.7"/>
<polygon fill="#9a32cd" stroke="#9a32cd" points="1942.66,-465.84 1933.33,-470.86 1943.75,-472.75 1942.66,-465.84"/>
<text text-anchor="middle" x="1975.5" y="-470" font-family="Helvetica,sans-Serif" font-size="10.00"> elements</text>
</g>
</g>
</svg>
        <g id="navigator" transform="translate(0 0)" fill="#404254">
                <rect fill="#f2f5e9" fill-opacity="0.5" stroke="#606060" stroke-width=".5" x="0" y="0" width="60" height="60"/>
                <use id="zoomplus" xlink:href="#zoomPlus" x="17" y="9" onmousedown="handleZoom(evt,'in')"/>
                <use id="zoomminus" xlink:href="#zoomMin" x="42" y="9" onmousedown="handleZoom(evt,'out')"/>
                <use id="reset" xlink:href="#resetDef" x="30" y="36" onmousedown="handleReset()"/>
                <g id="arrowUp" xlink:href="#dirArrow" transform="translate(30 24)" onmousedown="handlePan(0,-1)">
                  <use xlink:href="#rim" fill="#404040">
                        <set attributeName="fill" to="#808080" begin="arrowUp.mouseover" end="arrowUp.mouseout"/>
                  </use>
                  <path fill="none" stroke="white" stroke-width="1.5" d="M0,-3.0v7 M-2.5,-0.5L0,-3.0L2.5,-0.5"/>
                </g>
                <g id="arrowRight" xlink:href="#dirArrow" transform="rotate(90) translate(36 -43)" onmousedown="handlePan(1,0)">
                  <use xlink:href="#rim" fill="#404040">
                        <set attributeName="fill" to="#808080" begin="arrowRight.mouseover" end="arrowRight.mouseout"/>
                  </use>
                  <path fill="none" stroke="white" stroke-width="1.5" d="M0,-3.0v7 M-2.5,-0.5L0,-3.0L2.5,-0.5"/>
                </g>
                <g id="arrowDown" xlink:href="#dirArrow" transform="rotate(180) translate(-30 -48)" onmousedown="handlePan(0,1)">
                  <use xlink:href="#rim" fill="#404040">
                        <set attributeName="fill" to="#808080" begin="arrowDown.mouseover" end="arrowDown.mouseout"/>
                  </use>
                  <path fill="none" stroke="white" stroke-width="1.5" d="M0,-3.0v7 M-2.5,-0.5L0,-3.0L2.5,-0.5"/>
                </g>
                <g id="arrowLeft" xlink:href="#dirArrow" transform="rotate(270) translate(-36 17)" onmousedown="handlePan(-1,0)">
                  <use xlink:href="#rim" fill="#404040">
                        <set attributeName="fill" to="#808080" begin="arrowLeft.mouseover" end="arrowLeft.mouseout"/>
                  </use>
                  <path fill="none" stroke="white" stroke-width="1.5" d="M0,-3.0v7 M-2.5,-0.5L0,-3.0L2.5,-0.5"/>
                </g>
        </g>
        <svg viewBox="0 0 15 15" width="100%" height="30px" preserveAspectRatio="xMaxYMin meet">
         <g id="arrow_out" transform="scale(0.3 0.3)">
          <a xlink:href="classccf_1_1NodeConfigurationSubsystem__coll__graph_org.svg" target="_base">
           <rect id="button" ry="5" rx="5" y="6" x="6" height="38" width="38"
                fill="#f2f5e9" fill-opacity="0.5" stroke="#606060" stroke-width="1.0"/>
           <path id="arrow"
             d="M 11.500037,31.436501 C 11.940474,20.09759 22.043105,11.32322 32.158766,21.979434 L 37.068811,17.246167 C 37.068811,17.246167 37.088388,32 37.088388,32 L 22.160133,31.978069 C 22.160133,31.978069 26.997745,27.140456 26.997745,27.140456 C 18.528582,18.264221 13.291696,25.230495 11.500037,31.436501 z"
             style="fill:#404040;"/>
          </a>
         </g>
        </svg>
</svg>
