<?xml version="1.0" encoding="UTF-8" standalone="no"?>
<!DOCTYPE svg PUBLIC "-//W3C//DTD SVG 1.1//EN"
 "http://www.w3.org/Graphics/SVG/1.1/DTD/svg11.dtd">
<!-- Generated by graphviz version 2.43.0 (0)
 -->
<!-- Title: src/ds/cli_helper.h Pages: 1 -->
<svg width="1653pt" height="386pt"
 viewBox="0.00 0.00 1652.50 386.00" xmlns="http://www.w3.org/2000/svg" xmlns:xlink="http://www.w3.org/1999/xlink">
<g id="graph0" class="graph" transform="scale(1 1) rotate(0) translate(4 382)">
<title>src/ds/cli_helper.h</title>
<polygon fill="white" stroke="transparent" points="-4,4 -4,-382 1648.5,-382 1648.5,4 -4,4"/>
<!-- Node1 -->
<g id="node1" class="node">
<title>Node1</title>
<g id="a_node1"><a xlink:title=" ">
<polygon fill="#bfbfbf" stroke="black" points="1155.5,-358.5 1155.5,-377.5 1259.5,-377.5 1259.5,-358.5 1155.5,-358.5"/>
<text text-anchor="middle" x="1207.5" y="-365.5" font-family="Helvetica,sans-Serif" font-size="10.00">src/ds/cli_helper.h</text>
</a>
</g>
</g>
<!-- Node2 -->
<g id="node2" class="node">
<title>Node2</title>
<g id="a_node2"><a xlink:href="san_8h.html" target="_top" xlink:title=" ">
<polygon fill="white" stroke="black" points="216.5,-230 216.5,-249 310.5,-249 310.5,-230 216.5,-230"/>
<text text-anchor="middle" x="263.5" y="-237" font-family="Helvetica,sans-Serif" font-size="10.00">ccf/crypto/san.h</text>
</a>
</g>
</g>
<!-- Node1&#45;&gt;Node2 -->
<g id="edge1" class="edge">
<title>Node1&#45;&gt;Node2</title>
<path fill="none" stroke="midnightblue" d="M1155.36,-366.65C1004.23,-365.21 568,-357.98 430.5,-322 375.06,-307.49 316.16,-273.88 285.29,-254.66"/>
<polygon fill="midnightblue" stroke="midnightblue" points="286.96,-251.58 276.64,-249.19 283.22,-257.5 286.96,-251.58"/>
</g>
<!-- Node8 -->
<g id="node8" class="node">
<title>Node8</title>
<g id="a_node8"><a xlink:href="nonstd_8h.html" target="_top" xlink:title=" ">
<polygon fill="white" stroke="black" points="144.5,-56.5 144.5,-75.5 234.5,-75.5 234.5,-56.5 144.5,-56.5"/>
<text text-anchor="middle" x="189.5" y="-63.5" font-family="Helvetica,sans-Serif" font-size="10.00">ccf/ds/nonstd.h</text>
</a>
</g>
</g>
<!-- Node1&#45;&gt;Node8 -->
<g id="edge22" class="edge">
<title>Node1&#45;&gt;Node8</title>
<path fill="none" stroke="midnightblue" d="M1155.35,-366.5C994.11,-364.6 505.18,-356.1 350.5,-322 255.96,-301.16 148.5,-337.31 148.5,-240.5 148.5,-240.5 148.5,-240.5 148.5,-177 148.5,-142.52 166.41,-105.56 178.56,-84.47"/>
<polygon fill="midnightblue" stroke="midnightblue" points="181.66,-86.09 183.8,-75.71 175.66,-82.49 181.66,-86.09"/>
</g>
<!-- Node14 -->
<g id="node14" class="node">
<title>Node14</title>
<g id="a_node14"><a xlink:title=" ">
<polygon fill="white" stroke="#bfbfbf" points="897,-0.5 897,-19.5 976,-19.5 976,-0.5 897,-0.5"/>
<text text-anchor="middle" x="936.5" y="-7.5" font-family="Helvetica,sans-Serif" font-size="10.00">fmt/format.h</text>
</a>
</g>
</g>
<!-- Node1&#45;&gt;Node14 -->
<g id="edge61" class="edge">
<title>Node1&#45;&gt;Node14</title>
<path fill="none" stroke="midnightblue" d="M1241.09,-358.43C1290.63,-343.54 1377.5,-307.82 1377.5,-240.5 1377.5,-240.5 1377.5,-240.5 1377.5,-121 1377.5,-90.9 1381.59,-75.3 1358.5,-56 1330.43,-32.53 1091.85,-18.39 986.34,-13.23"/>
<polygon fill="midnightblue" stroke="midnightblue" points="986.42,-9.73 976.26,-12.75 986.08,-16.72 986.42,-9.73"/>
</g>
<!-- Node17 -->
<g id="node17" class="node">
<title>Node17</title>
<g id="a_node17"><a xlink:href="node__info__network_8h.html" target="_top" xlink:title=" ">
<polygon fill="white" stroke="black" points="439.5,-291.5 439.5,-321.5 559.5,-321.5 559.5,-291.5 439.5,-291.5"/>
<text text-anchor="start" x="447.5" y="-309.5" font-family="Helvetica,sans-Serif" font-size="10.00">ccf/service/node_info</text>
<text text-anchor="middle" x="499.5" y="-298.5" font-family="Helvetica,sans-Serif" font-size="10.00">_network.h</text>
</a>
</g>
</g>
<!-- Node1&#45;&gt;Node17 -->
<g id="edge23" class="edge">
<title>Node1&#45;&gt;Node17</title>
<path fill="none" stroke="midnightblue" d="M1155.44,-362.62C1030.2,-352.1 711.96,-325.35 569.87,-313.41"/>
<polygon fill="midnightblue" stroke="midnightblue" points="569.8,-309.9 559.54,-312.55 569.22,-316.87 569.8,-309.9"/>
</g>
<!-- Node30 -->
<g id="node30" class="node">
<title>Node30</title>
<g id="a_node30"><a xlink:title=" ">
<polygon fill="white" stroke="#bfbfbf" points="1293.5,-56.5 1293.5,-75.5 1349.5,-75.5 1349.5,-56.5 1293.5,-56.5"/>
<text text-anchor="middle" x="1321.5" y="-63.5" font-family="Helvetica,sans-Serif" font-size="10.00">optional</text>
</a>
</g>
</g>
<!-- Node1&#45;&gt;Node30 -->
<g id="edge60" class="edge">
<title>Node1&#45;&gt;Node30</title>
<path fill="none" stroke="midnightblue" d="M1216.11,-358.36C1234.41,-339.03 1275.5,-290.12 1275.5,-240.5 1275.5,-240.5 1275.5,-240.5 1275.5,-177 1275.5,-141.82 1295.78,-104.86 1309.41,-84"/>
<polygon fill="midnightblue" stroke="midnightblue" points="1312.38,-85.85 1315.1,-75.61 1306.59,-81.92 1312.38,-85.85"/>
</g>
<!-- Node31 -->
<g id="node31" class="node">
<title>Node31</title>
<g id="a_node31"><a xlink:title=" ">
<polygon fill="white" stroke="#bfbfbf" points="1042,-112.5 1042,-131.5 1103,-131.5 1103,-112.5 1042,-112.5"/>
<text text-anchor="middle" x="1072.5" y="-119.5" font-family="Helvetica,sans-Serif" font-size="10.00">charconv</text>
</a>
</g>
</g>
<!-- Node1&#45;&gt;Node31 -->
<g id="edge59" class="edge">
<title>Node1&#45;&gt;Node31</title>
<path fill="none" stroke="midnightblue" d="M1202.7,-358.32C1183.09,-322.89 1108.95,-188.88 1082.2,-140.53"/>
<polygon fill="midnightblue" stroke="midnightblue" points="1085.15,-138.64 1077.25,-131.58 1079.03,-142.02 1085.15,-138.64"/>
</g>
<!-- Node34 -->
<g id="node34" class="node">
<title>Node34</title>
<g id="a_node34"><a xlink:title=" ">
<polygon fill="white" stroke="#bfbfbf" points="1406,-297 1406,-316 1501,-316 1501,-297 1406,-297"/>
<text text-anchor="middle" x="1453.5" y="-304" font-family="Helvetica,sans-Serif" font-size="10.00">CLI11/CLI11.hpp</text>
</a>
</g>
</g>
<!-- Node1&#45;&gt;Node34 -->
<g id="edge58" class="edge">
<title>Node1&#45;&gt;Node34</title>
<path fill="none" stroke="midnightblue" d="M1242.75,-358.48C1286.4,-347.92 1360.84,-329.91 1408.56,-318.37"/>
<polygon fill="midnightblue" stroke="midnightblue" points="1409.42,-321.76 1418.32,-316.01 1407.78,-314.96 1409.42,-321.76"/>
</g>
<!-- Node3 -->
<g id="node3" class="node">
<title>Node3</title>
<g id="a_node3"><a xlink:href="json_8h.html" target="_top" xlink:title=" ">
<polygon fill="white" stroke="black" points="503,-168.5 503,-187.5 580,-187.5 580,-168.5 503,-168.5"/>
<text text-anchor="middle" x="541.5" y="-175.5" font-family="Helvetica,sans-Serif" font-size="10.00">ccf/ds/json.h</text>
</a>
</g>
</g>
<!-- Node2&#45;&gt;Node3 -->
<g id="edge2" class="edge">
<title>Node2&#45;&gt;Node3</title>
<path fill="none" stroke="midnightblue" d="M303.33,-229.98C353.26,-219.29 438.81,-200.98 492.64,-189.46"/>
<polygon fill="midnightblue" stroke="midnightblue" points="493.59,-192.83 502.64,-187.32 492.13,-185.99 493.59,-192.83"/>
</g>
<!-- Node5 -->
<g id="node5" class="node">
<title>Node5</title>
<g id="a_node5"><a xlink:title=" ">
<polygon fill="white" stroke="#bfbfbf" points="311.5,-0.5 311.5,-19.5 355.5,-19.5 355.5,-0.5 311.5,-0.5"/>
<text text-anchor="middle" x="333.5" y="-7.5" font-family="Helvetica,sans-Serif" font-size="10.00">string</text>
</a>
</g>
</g>
<!-- Node2&#45;&gt;Node5 -->
<g id="edge21" class="edge">
<title>Node2&#45;&gt;Node5</title>
<path fill="none" stroke="midnightblue" d="M262.64,-229.93C260.31,-202.75 255.92,-116.76 286.5,-56 292.47,-44.14 302.87,-33.68 312.37,-25.84"/>
<polygon fill="midnightblue" stroke="midnightblue" points="314.59,-28.54 320.35,-19.65 310.31,-23.01 314.59,-28.54"/>
</g>
<!-- Node2&#45;&gt;Node8 -->
<g id="edge19" class="edge">
<title>Node2&#45;&gt;Node8</title>
<path fill="none" stroke="midnightblue" d="M259.73,-229.76C248.15,-202.92 212.94,-121.32 197.22,-84.89"/>
<polygon fill="midnightblue" stroke="midnightblue" points="200.35,-83.31 193.18,-75.52 193.92,-86.09 200.35,-83.31"/>
</g>
<!-- Node2&#45;&gt;Node14 -->
<g id="edge20" class="edge">
<title>Node2&#45;&gt;Node14</title>
<path fill="none" stroke="midnightblue" d="M276.63,-229.87C322.48,-200.21 480.51,-101.7 625.5,-56 714.77,-27.86 824.08,-17.23 886.46,-13.27"/>
<polygon fill="midnightblue" stroke="midnightblue" points="887.04,-16.75 896.81,-12.65 886.62,-9.76 887.04,-16.75"/>
</g>
<!-- Node4 -->
<g id="node4" class="node">
<title>Node4</title>
<g id="a_node4"><a xlink:href="include_2ccf_2crypto_2base64_8h.html" target="_top" xlink:title=" ">
<polygon fill="white" stroke="black" points="442.5,-56.5 442.5,-75.5 554.5,-75.5 554.5,-56.5 442.5,-56.5"/>
<text text-anchor="middle" x="498.5" y="-63.5" font-family="Helvetica,sans-Serif" font-size="10.00">ccf/crypto/base64.h</text>
</a>
</g>
</g>
<!-- Node3&#45;&gt;Node4 -->
<g id="edge3" class="edge">
<title>Node3&#45;&gt;Node4</title>
<path fill="none" stroke="midnightblue" d="M537.74,-168.42C533.82,-159.4 527.55,-144.78 522.5,-132 516.35,-116.44 509.8,-98.61 505.1,-85.56"/>
<polygon fill="midnightblue" stroke="midnightblue" points="508.3,-84.12 501.63,-75.88 501.71,-86.47 508.3,-84.12"/>
</g>
<!-- Node7 -->
<g id="node7" class="node">
<title>Node7</title>
<g id="a_node7"><a xlink:href="include_2ccf_2ds_2json__schema_8h.html" target="_top" xlink:title=" ">
<polygon fill="white" stroke="black" points="603,-112.5 603,-131.5 724,-131.5 724,-112.5 603,-112.5"/>
<text text-anchor="middle" x="663.5" y="-119.5" font-family="Helvetica,sans-Serif" font-size="10.00">ccf/ds/json_schema.h</text>
</a>
</g>
</g>
<!-- Node3&#45;&gt;Node7 -->
<g id="edge6" class="edge">
<title>Node3&#45;&gt;Node7</title>
<path fill="none" stroke="midnightblue" d="M560.83,-168.44C580.82,-159.6 612.24,-145.69 635.06,-135.59"/>
<polygon fill="midnightblue" stroke="midnightblue" points="636.53,-138.76 644.26,-131.52 633.7,-132.36 636.53,-138.76"/>
</g>
<!-- Node3&#45;&gt;Node14 -->
<g id="edge17" class="edge">
<title>Node3&#45;&gt;Node14</title>
<path fill="none" stroke="midnightblue" d="M546.89,-168.2C561.72,-144.87 605.81,-81.49 661.5,-56 735.01,-22.36 829.72,-13.46 886.64,-11.34"/>
<polygon fill="midnightblue" stroke="midnightblue" points="886.93,-14.83 896.81,-11.02 886.7,-7.84 886.93,-14.83"/>
</g>
<!-- Node16 -->
<g id="node16" class="node">
<title>Node16</title>
<g id="a_node16"><a xlink:title=" ">
<polygon fill="white" stroke="#bfbfbf" points="814.5,-56.5 814.5,-75.5 870.5,-75.5 870.5,-56.5 814.5,-56.5"/>
<text text-anchor="middle" x="842.5" y="-63.5" font-family="Helvetica,sans-Serif" font-size="10.00">sstream</text>
</a>
</g>
</g>
<!-- Node3&#45;&gt;Node16 -->
<g id="edge18" class="edge">
<title>Node3&#45;&gt;Node16</title>
<path fill="none" stroke="midnightblue" d="M580.08,-171.54C619.63,-165.12 682.39,-152.65 733.5,-132 766.57,-118.64 801.4,-96.19 822.54,-81.48"/>
<polygon fill="midnightblue" stroke="midnightblue" points="824.57,-84.33 830.72,-75.7 820.53,-78.62 824.57,-84.33"/>
</g>
<!-- Node4&#45;&gt;Node5 -->
<g id="edge4" class="edge">
<title>Node4&#45;&gt;Node5</title>
<path fill="none" stroke="midnightblue" d="M472.36,-56.44C443.25,-46.92 396.21,-31.52 365.07,-21.33"/>
<polygon fill="midnightblue" stroke="midnightblue" points="366.15,-18 355.56,-18.22 363.98,-24.66 366.15,-18"/>
</g>
<!-- Node6 -->
<g id="node6" class="node">
<title>Node6</title>
<g id="a_node6"><a xlink:title=" ">
<polygon fill="white" stroke="#bfbfbf" points="391,-0.5 391,-19.5 438,-19.5 438,-0.5 391,-0.5"/>
<text text-anchor="middle" x="414.5" y="-7.5" font-family="Helvetica,sans-Serif" font-size="10.00">vector</text>
</a>
</g>
</g>
<!-- Node4&#45;&gt;Node6 -->
<g id="edge5" class="edge">
<title>Node4&#45;&gt;Node6</title>
<path fill="none" stroke="midnightblue" d="M485,-56.32C471.9,-47.9 451.79,-34.97 436.39,-25.07"/>
<polygon fill="midnightblue" stroke="midnightblue" points="438.27,-22.12 427.96,-19.65 434.48,-28.01 438.27,-22.12"/>
</g>
<!-- Node7&#45;&gt;Node8 -->
<g id="edge7" class="edge">
<title>Node7&#45;&gt;Node8</title>
<path fill="none" stroke="midnightblue" d="M602.99,-114.11C510.22,-103.54 334.24,-83.49 244.75,-73.29"/>
<polygon fill="midnightblue" stroke="midnightblue" points="245.13,-69.81 234.8,-72.16 244.34,-76.77 245.13,-69.81"/>
</g>
<!-- Node7&#45;&gt;Node14 -->
<g id="edge15" class="edge">
<title>Node7&#45;&gt;Node14</title>
<path fill="none" stroke="midnightblue" d="M662.59,-112.41C661.64,-98.45 662.02,-70.87 677.5,-56 706.71,-27.94 819.93,-17.16 886.62,-13.18"/>
<polygon fill="midnightblue" stroke="midnightblue" points="887.12,-16.66 896.9,-12.6 886.72,-9.67 887.12,-16.66"/>
</g>
<!-- Node15 -->
<g id="node15" class="node">
<title>Node15</title>
<g id="a_node15"><a xlink:title=" ">
<polygon fill="white" stroke="#bfbfbf" points="686.5,-56.5 686.5,-75.5 796.5,-75.5 796.5,-56.5 686.5,-56.5"/>
<text text-anchor="middle" x="741.5" y="-63.5" font-family="Helvetica,sans-Serif" font-size="10.00">nlohmann/json.hpp</text>
</a>
</g>
</g>
<!-- Node7&#45;&gt;Node15 -->
<g id="edge16" class="edge">
<title>Node7&#45;&gt;Node15</title>
<path fill="none" stroke="midnightblue" d="M676.03,-112.32C688.09,-103.98 706.53,-91.21 720.77,-81.35"/>
<polygon fill="midnightblue" stroke="midnightblue" points="722.77,-84.22 729,-75.65 718.78,-78.47 722.77,-84.22"/>
</g>
<!-- Node8&#45;&gt;Node5 -->
<g id="edge11" class="edge">
<title>Node8&#45;&gt;Node5</title>
<path fill="none" stroke="midnightblue" d="M212.32,-56.44C236.47,-47.39 274.78,-33.02 301.85,-22.87"/>
<polygon fill="midnightblue" stroke="midnightblue" points="303.13,-26.13 311.26,-19.34 300.67,-19.57 303.13,-26.13"/>
</g>
<!-- Node8&#45;&gt;Node6 -->
<g id="edge14" class="edge">
<title>Node8&#45;&gt;Node6</title>
<path fill="none" stroke="midnightblue" d="M225.15,-56.44C267.88,-46.19 338.92,-29.14 380.77,-19.09"/>
<polygon fill="midnightblue" stroke="midnightblue" points="381.84,-22.44 390.75,-16.7 380.21,-15.63 381.84,-22.44"/>
</g>
<!-- Node9 -->
<g id="node9" class="node">
<title>Node9</title>
<g id="a_node9"><a xlink:title=" ">
<polygon fill="white" stroke="#bfbfbf" points="91.5,-0.5 91.5,-19.5 155.5,-19.5 155.5,-0.5 91.5,-0.5"/>
<text text-anchor="middle" x="123.5" y="-7.5" font-family="Helvetica,sans-Serif" font-size="10.00">algorithm</text>
</a>
</g>
</g>
<!-- Node8&#45;&gt;Node9 -->
<g id="edge8" class="edge">
<title>Node8&#45;&gt;Node9</title>
<path fill="none" stroke="midnightblue" d="M178.9,-56.32C169.04,-48.26 154.15,-36.08 142.28,-26.37"/>
<polygon fill="midnightblue" stroke="midnightblue" points="144.25,-23.46 134.3,-19.83 139.82,-28.88 144.25,-23.46"/>
</g>
<!-- Node10 -->
<g id="node10" class="node">
<title>Node10</title>
<g id="a_node10"><a xlink:title=" ">
<polygon fill="white" stroke="#bfbfbf" points="173.5,-0.5 173.5,-19.5 215.5,-19.5 215.5,-0.5 173.5,-0.5"/>
<text text-anchor="middle" x="194.5" y="-7.5" font-family="Helvetica,sans-Serif" font-size="10.00">array</text>
</a>
</g>
</g>
<!-- Node8&#45;&gt;Node10 -->
<g id="edge9" class="edge">
<title>Node8&#45;&gt;Node10</title>
<path fill="none" stroke="midnightblue" d="M190.33,-56.08C190.98,-49.01 191.92,-38.86 192.74,-29.99"/>
<polygon fill="midnightblue" stroke="midnightblue" points="196.25,-30.03 193.69,-19.75 189.28,-29.39 196.25,-30.03"/>
</g>
<!-- Node11 -->
<g id="node11" class="node">
<title>Node11</title>
<g id="a_node11"><a xlink:title=" ">
<polygon fill="white" stroke="#bfbfbf" points="234,-0.5 234,-19.5 283,-19.5 283,-0.5 234,-0.5"/>
<text text-anchor="middle" x="258.5" y="-7.5" font-family="Helvetica,sans-Serif" font-size="10.00">cctype</text>
</a>
</g>
</g>
<!-- Node8&#45;&gt;Node11 -->
<g id="edge10" class="edge">
<title>Node8&#45;&gt;Node11</title>
<path fill="none" stroke="midnightblue" d="M200.59,-56.32C210.99,-48.18 226.76,-35.84 239.22,-26.09"/>
<polygon fill="midnightblue" stroke="midnightblue" points="241.49,-28.75 247.21,-19.83 237.18,-23.24 241.49,-28.75"/>
</g>
<!-- Node12 -->
<g id="node12" class="node">
<title>Node12</title>
<g id="a_node12"><a xlink:title=" ">
<polygon fill="white" stroke="#bfbfbf" points="0,-0.5 0,-19.5 73,-19.5 73,-0.5 0,-0.5"/>
<text text-anchor="middle" x="36.5" y="-7.5" font-family="Helvetica,sans-Serif" font-size="10.00">string_view</text>
</a>
</g>
</g>
<!-- Node8&#45;&gt;Node12 -->
<g id="edge12" class="edge">
<title>Node8&#45;&gt;Node12</title>
<path fill="none" stroke="midnightblue" d="M165.26,-56.44C139.63,-47.4 99.01,-33.06 70.26,-22.92"/>
<polygon fill="midnightblue" stroke="midnightblue" points="71.22,-19.54 60.63,-19.52 68.89,-26.15 71.22,-19.54"/>
</g>
<!-- Node13 -->
<g id="node13" class="node">
<title>Node13</title>
<g id="a_node13"><a xlink:title=" ">
<polygon fill="white" stroke="#bfbfbf" points="633,-0.5 633,-19.5 702,-19.5 702,-0.5 633,-0.5"/>
<text text-anchor="middle" x="667.5" y="-7.5" font-family="Helvetica,sans-Serif" font-size="10.00">type_traits</text>
</a>
</g>
</g>
<!-- Node8&#45;&gt;Node13 -->
<g id="edge13" class="edge">
<title>Node8&#45;&gt;Node13</title>
<path fill="none" stroke="midnightblue" d="M234.9,-59.87C326.45,-49.53 532.2,-26.28 623,-16.03"/>
<polygon fill="midnightblue" stroke="midnightblue" points="623.43,-19.5 632.97,-14.9 622.64,-12.55 623.43,-19.5"/>
</g>
<!-- Node17&#45;&gt;Node3 -->
<g id="edge24" class="edge">
<title>Node17&#45;&gt;Node3</title>
<path fill="none" stroke="midnightblue" d="M509.16,-291.07C515.28,-281.28 522.9,-267.83 527.5,-255 534.28,-236.1 537.91,-213.32 539.77,-197.66"/>
<polygon fill="midnightblue" stroke="midnightblue" points="543.25,-197.98 540.82,-187.67 536.29,-197.25 543.25,-197.98"/>
</g>
<!-- Node17&#45;&gt;Node5 -->
<g id="edge57" class="edge">
<title>Node17&#45;&gt;Node5</title>
<path fill="none" stroke="midnightblue" d="M439.47,-293.25C417.22,-285.78 393.72,-273.87 378.5,-255 323.76,-187.15 327.45,-74.08 331.39,-29.7"/>
<polygon fill="midnightblue" stroke="midnightblue" points="334.87,-30.04 332.39,-19.74 327.91,-29.34 334.87,-30.04"/>
</g>
<!-- Node17&#45;&gt;Node8 -->
<g id="edge25" class="edge">
<title>Node17&#45;&gt;Node8</title>
<path fill="none" stroke="midnightblue" d="M439.49,-303.45C363.32,-299.49 238.1,-288.01 207.5,-255 163.87,-207.93 176.44,-122.92 184.77,-85.52"/>
<polygon fill="midnightblue" stroke="midnightblue" points="188.24,-86.07 187.15,-75.53 181.43,-84.45 188.24,-86.07"/>
</g>
<!-- Node18 -->
<g id="node18" class="node">
<title>Node18</title>
<g id="a_node18"><a xlink:href="http__configuration_8h.html" target="_top" xlink:title=" ">
<polygon fill="white" stroke="black" points="631,-230 631,-249 762,-249 762,-230 631,-230"/>
<text text-anchor="middle" x="696.5" y="-237" font-family="Helvetica,sans-Serif" font-size="10.00">ccf/http_configuration.h</text>
</a>
</g>
</g>
<!-- Node17&#45;&gt;Node18 -->
<g id="edge26" class="edge">
<title>Node17&#45;&gt;Node18</title>
<path fill="none" stroke="midnightblue" d="M542.25,-291.4C577.73,-279.69 627.61,-263.23 660.94,-252.23"/>
<polygon fill="midnightblue" stroke="midnightblue" points="662.32,-255.46 670.72,-249.01 660.12,-248.82 662.32,-255.46"/>
</g>
<!-- Node33 -->
<g id="node33" class="node">
<title>Node33</title>
<g id="a_node33"><a xlink:href="acme__client__config_8h.html" target="_top" xlink:title=" ">
<polygon fill="white" stroke="black" points="387,-224.5 387,-254.5 518,-254.5 518,-224.5 387,-224.5"/>
<text text-anchor="start" x="395" y="-242.5" font-family="Helvetica,sans-Serif" font-size="10.00">ccf/service/acme_client</text>
<text text-anchor="middle" x="452.5" y="-231.5" font-family="Helvetica,sans-Serif" font-size="10.00">_config.h</text>
</a>
</g>
</g>
<!-- Node17&#45;&gt;Node33 -->
<g id="edge52" class="edge">
<title>Node17&#45;&gt;Node33</title>
<path fill="none" stroke="midnightblue" d="M489.3,-291.4C483.27,-283.05 475.48,-272.29 468.63,-262.81"/>
<polygon fill="midnightblue" stroke="midnightblue" points="471.37,-260.63 462.68,-254.58 465.7,-264.73 471.37,-260.63"/>
</g>
<!-- Node18&#45;&gt;Node3 -->
<g id="edge27" class="edge">
<title>Node18&#45;&gt;Node3</title>
<path fill="none" stroke="midnightblue" d="M674.29,-229.98C647.82,-219.81 603.39,-202.76 573.28,-191.2"/>
<polygon fill="midnightblue" stroke="midnightblue" points="574.26,-187.83 563.67,-187.51 571.75,-194.36 574.26,-187.83"/>
</g>
<!-- Node19 -->
<g id="node19" class="node">
<title>Node19</title>
<g id="a_node19"><a xlink:href="unit__strings_8h.html" target="_top" xlink:title=" ">
<polygon fill="white" stroke="black" points="695.5,-168.5 695.5,-187.5 809.5,-187.5 809.5,-168.5 695.5,-168.5"/>
<text text-anchor="middle" x="752.5" y="-175.5" font-family="Helvetica,sans-Serif" font-size="10.00">ccf/ds/unit_strings.h</text>
</a>
</g>
</g>
<!-- Node18&#45;&gt;Node19 -->
<g id="edge28" class="edge">
<title>Node18&#45;&gt;Node19</title>
<path fill="none" stroke="midnightblue" d="M704.52,-229.98C713.09,-220.87 726.86,-206.24 737.46,-194.98"/>
<polygon fill="midnightblue" stroke="midnightblue" points="740.19,-197.19 744.49,-187.51 735.09,-192.39 740.19,-197.19"/>
</g>
<!-- Node18&#45;&gt;Node30 -->
<g id="edge51" class="edge">
<title>Node18&#45;&gt;Node30</title>
<path fill="none" stroke="midnightblue" d="M762.23,-235.03C869.43,-228.73 1076.88,-213.61 1145.5,-188 1162.77,-181.56 1259.41,-112.11 1301.69,-81.43"/>
<polygon fill="midnightblue" stroke="midnightblue" points="1303.81,-84.22 1309.84,-75.51 1299.69,-78.56 1303.81,-84.22"/>
</g>
<!-- Node19&#45;&gt;Node5 -->
<g id="edge50" class="edge">
<title>Node19&#45;&gt;Node5</title>
<path fill="none" stroke="midnightblue" d="M712.76,-168.46C650.95,-154.29 528.97,-122.77 433.5,-76 403.83,-61.46 372.3,-39.8 352.75,-25.53"/>
<polygon fill="midnightblue" stroke="midnightblue" points="354.78,-22.69 344.66,-19.55 350.62,-28.31 354.78,-22.69"/>
</g>
<!-- Node19&#45;&gt;Node8 -->
<g id="edge46" class="edge">
<title>Node19&#45;&gt;Node8</title>
<path fill="none" stroke="midnightblue" d="M708.79,-168.46C606.95,-148.56 354.11,-99.16 243.15,-77.48"/>
<polygon fill="midnightblue" stroke="midnightblue" points="243.67,-74.02 233.18,-75.53 242.32,-80.89 243.67,-74.02"/>
</g>
<!-- Node19&#45;&gt;Node15 -->
<g id="edge49" class="edge">
<title>Node19&#45;&gt;Node15</title>
<path fill="none" stroke="midnightblue" d="M751.64,-168.37C749.86,-150.62 745.77,-109.67 743.36,-85.6"/>
<polygon fill="midnightblue" stroke="midnightblue" points="746.84,-85.19 742.36,-75.59 739.87,-85.89 746.84,-85.19"/>
</g>
<!-- Node20 -->
<g id="node20" class="node">
<title>Node20</title>
<g id="a_node20"><a xlink:href="logger_8h.html" target="_top" xlink:title=" ">
<polygon fill="white" stroke="black" points="872,-112.5 872,-131.5 959,-131.5 959,-112.5 872,-112.5"/>
<text text-anchor="middle" x="915.5" y="-119.5" font-family="Helvetica,sans-Serif" font-size="10.00">ccf/ds/logger.h</text>
</a>
</g>
</g>
<!-- Node19&#45;&gt;Node20 -->
<g id="edge29" class="edge">
<title>Node19&#45;&gt;Node20</title>
<path fill="none" stroke="midnightblue" d="M778.33,-168.44C805.75,-159.36 849.28,-144.94 879.93,-134.78"/>
<polygon fill="midnightblue" stroke="midnightblue" points="881.4,-137.98 889.79,-131.52 879.2,-131.34 881.4,-137.98"/>
</g>
<!-- Node19&#45;&gt;Node31 -->
<g id="edge47" class="edge">
<title>Node19&#45;&gt;Node31</title>
<path fill="none" stroke="midnightblue" d="M809.75,-169C864.45,-161.09 949.44,-148.11 1031.85,-132.22"/>
<polygon fill="midnightblue" stroke="midnightblue" points="1032.74,-135.62 1041.89,-130.27 1031.4,-128.75 1032.74,-135.62"/>
</g>
<!-- Node32 -->
<g id="node32" class="node">
<title>Node32</title>
<g id="a_node32"><a xlink:title=" ">
<polygon fill="white" stroke="#bfbfbf" points="977,-112.5 977,-131.5 1024,-131.5 1024,-112.5 977,-112.5"/>
<text text-anchor="middle" x="1000.5" y="-119.5" font-family="Helvetica,sans-Serif" font-size="10.00">cmath</text>
</a>
</g>
</g>
<!-- Node19&#45;&gt;Node32 -->
<g id="edge48" class="edge">
<title>Node19&#45;&gt;Node32</title>
<path fill="none" stroke="midnightblue" d="M798.22,-168.42C839.93,-160.38 903.5,-147.61 967.01,-132.25"/>
<polygon fill="midnightblue" stroke="midnightblue" points="967.9,-135.64 976.78,-129.87 966.24,-128.84 967.9,-135.64"/>
</g>
<!-- Node20&#45;&gt;Node13 -->
<g id="edge45" class="edge">
<title>Node20&#45;&gt;Node13</title>
<path fill="none" stroke="midnightblue" d="M913.22,-112.28C909.05,-98.12 898.79,-70.27 879.5,-56 853.43,-36.71 766.34,-22.99 712.23,-16.09"/>
<polygon fill="midnightblue" stroke="midnightblue" points="712.56,-12.61 702.2,-14.84 711.69,-19.55 712.56,-12.61"/>
</g>
<!-- Node20&#45;&gt;Node14 -->
<g id="edge40" class="edge">
<title>Node20&#45;&gt;Node14</title>
<path fill="none" stroke="midnightblue" d="M917.15,-112.37C920.54,-94.62 928.35,-53.67 932.95,-29.6"/>
<polygon fill="midnightblue" stroke="midnightblue" points="936.42,-30.07 934.86,-19.59 929.55,-28.76 936.42,-30.07"/>
</g>
<!-- Node20&#45;&gt;Node15 -->
<g id="edge42" class="edge">
<title>Node20&#45;&gt;Node15</title>
<path fill="none" stroke="midnightblue" d="M887.93,-112.44C858.4,-103.28 811.38,-88.69 778.62,-78.52"/>
<polygon fill="midnightblue" stroke="midnightblue" points="779.53,-75.14 768.94,-75.52 777.46,-81.82 779.53,-75.14"/>
</g>
<!-- Node20&#45;&gt;Node16 -->
<g id="edge44" class="edge">
<title>Node20&#45;&gt;Node16</title>
<path fill="none" stroke="midnightblue" d="M903.77,-112.32C892.66,-104.11 875.76,-91.6 862.52,-81.81"/>
<polygon fill="midnightblue" stroke="midnightblue" points="864.56,-78.97 854.44,-75.83 860.4,-84.59 864.56,-78.97"/>
</g>
<!-- Node21 -->
<g id="node21" class="node">
<title>Node21</title>
<g id="a_node21"><a xlink:href="enum__formatter_8h.html" target="_top" xlink:title=" ">
<polygon fill="white" stroke="black" points="964.5,-56.5 964.5,-75.5 1100.5,-75.5 1100.5,-56.5 964.5,-56.5"/>
<text text-anchor="middle" x="1032.5" y="-63.5" font-family="Helvetica,sans-Serif" font-size="10.00">ccf/ds/enum_formatter.h</text>
</a>
</g>
</g>
<!-- Node20&#45;&gt;Node21 -->
<g id="edge30" class="edge">
<title>Node20&#45;&gt;Node21</title>
<path fill="none" stroke="midnightblue" d="M934.04,-112.44C953.12,-103.64 983.07,-89.81 1004.94,-79.72"/>
<polygon fill="midnightblue" stroke="midnightblue" points="1006.43,-82.88 1014.05,-75.52 1003.5,-76.53 1006.43,-82.88"/>
</g>
<!-- Node22 -->
<g id="node22" class="node">
<title>Node22</title>
<g id="a_node22"><a xlink:href="thread__ids_8h.html" target="_top" xlink:title=" ">
<polygon fill="white" stroke="black" points="1405.5,-56.5 1405.5,-75.5 1513.5,-75.5 1513.5,-56.5 1405.5,-56.5"/>
<text text-anchor="middle" x="1459.5" y="-63.5" font-family="Helvetica,sans-Serif" font-size="10.00">ccf/ds/thread_ids.h</text>
</a>
</g>
</g>
<!-- Node20&#45;&gt;Node22 -->
<g id="edge32" class="edge">
<title>Node20&#45;&gt;Node22</title>
<path fill="none" stroke="midnightblue" d="M959.13,-113.32C962.3,-112.84 965.45,-112.4 968.5,-112 989.32,-109.28 1266.59,-84.3 1395.02,-72.78"/>
<polygon fill="midnightblue" stroke="midnightblue" points="1395.47,-76.25 1405.12,-71.87 1394.85,-69.28 1395.47,-76.25"/>
</g>
<!-- Node28 -->
<g id="node28" class="node">
<title>Node28</title>
<g id="a_node28"><a xlink:title=" ">
<polygon fill="white" stroke="#bfbfbf" points="1119,-56.5 1119,-75.5 1198,-75.5 1198,-56.5 1119,-56.5"/>
<text text-anchor="middle" x="1158.5" y="-63.5" font-family="Helvetica,sans-Serif" font-size="10.00">fmt/chrono.h</text>
</a>
</g>
</g>
<!-- Node20&#45;&gt;Node28 -->
<g id="edge39" class="edge">
<title>Node20&#45;&gt;Node28</title>
<path fill="none" stroke="midnightblue" d="M954,-112.44C996.31,-103.04 1064.32,-87.93 1110.17,-77.74"/>
<polygon fill="midnightblue" stroke="midnightblue" points="1111.17,-81.1 1120.18,-75.52 1109.65,-74.27 1111.17,-81.1"/>
</g>
<!-- Node29 -->
<g id="node29" class="node">
<title>Node29</title>
<g id="a_node29"><a xlink:title=" ">
<polygon fill="white" stroke="#bfbfbf" points="1215.5,-56.5 1215.5,-75.5 1275.5,-75.5 1275.5,-56.5 1215.5,-56.5"/>
<text text-anchor="middle" x="1245.5" y="-63.5" font-family="Helvetica,sans-Serif" font-size="10.00">iostream</text>
</a>
</g>
</g>
<!-- Node20&#45;&gt;Node29 -->
<g id="edge41" class="edge">
<title>Node20&#45;&gt;Node29</title>
<path fill="none" stroke="midnightblue" d="M959.16,-113.52C962.32,-113 965.46,-112.49 968.5,-112 1071.36,-95.52 1100.3,-96.33 1205.21,-76.33"/>
<polygon fill="midnightblue" stroke="midnightblue" points="1206.11,-79.73 1215.27,-74.4 1204.78,-72.85 1206.11,-79.73"/>
</g>
<!-- Node20&#45;&gt;Node30 -->
<g id="edge43" class="edge">
<title>Node20&#45;&gt;Node30</title>
<path fill="none" stroke="midnightblue" d="M959.14,-113.39C962.31,-112.9 965.45,-112.43 968.5,-112 1105.17,-92.63 1143.55,-100.37 1283.07,-76.05"/>
<polygon fill="midnightblue" stroke="midnightblue" points="1284.06,-79.43 1293.3,-74.25 1282.84,-72.54 1284.06,-79.43"/>
</g>
<!-- Node21&#45;&gt;Node14 -->
<g id="edge31" class="edge">
<title>Node21&#45;&gt;Node14</title>
<path fill="none" stroke="midnightblue" d="M1017.08,-56.32C1001.96,-47.82 978.68,-34.73 961.03,-24.8"/>
<polygon fill="midnightblue" stroke="midnightblue" points="962.32,-21.51 951.89,-19.65 958.89,-27.61 962.32,-21.51"/>
</g>
<!-- Node22&#45;&gt;Node14 -->
<g id="edge33" class="edge">
<title>Node22&#45;&gt;Node14</title>
<path fill="none" stroke="midnightblue" d="M1405.33,-57.67C1400.65,-57.08 1396,-56.52 1391.5,-56 1244.27,-38.98 1069.77,-22.85 986.09,-15.36"/>
<polygon fill="midnightblue" stroke="midnightblue" points="986.38,-11.88 976.11,-14.47 985.76,-18.85 986.38,-11.88"/>
</g>
<!-- Node23 -->
<g id="node23" class="node">
<title>Node23</title>
<g id="a_node23"><a xlink:title=" ">
<polygon fill="white" stroke="#bfbfbf" points="1416.5,-0.5 1416.5,-19.5 1502.5,-19.5 1502.5,-0.5 1416.5,-0.5"/>
<text text-anchor="middle" x="1459.5" y="-7.5" font-family="Helvetica,sans-Serif" font-size="10.00">fmt/ostream.h</text>
</a>
</g>
</g>
<!-- Node22&#45;&gt;Node23 -->
<g id="edge34" class="edge">
<title>Node22&#45;&gt;Node23</title>
<path fill="none" stroke="midnightblue" d="M1459.5,-56.08C1459.5,-49.01 1459.5,-38.86 1459.5,-29.99"/>
<polygon fill="midnightblue" stroke="midnightblue" points="1463,-29.75 1459.5,-19.75 1456,-29.75 1463,-29.75"/>
</g>
<!-- Node24 -->
<g id="node24" class="node">
<title>Node24</title>
<g id="a_node24"><a xlink:title=" ">
<polygon fill="white" stroke="#bfbfbf" points="1521,-0.5 1521,-19.5 1582,-19.5 1582,-0.5 1521,-0.5"/>
<text text-anchor="middle" x="1551.5" y="-7.5" font-family="Helvetica,sans-Serif" font-size="10.00">fmt/std.h</text>
</a>
</g>
</g>
<!-- Node22&#45;&gt;Node24 -->
<g id="edge35" class="edge">
<title>Node22&#45;&gt;Node24</title>
<path fill="none" stroke="midnightblue" d="M1474.28,-56.32C1488.77,-47.82 1511.07,-34.73 1527.99,-24.8"/>
<polygon fill="midnightblue" stroke="midnightblue" points="1529.9,-27.74 1536.76,-19.65 1526.36,-21.7 1529.9,-27.74"/>
</g>
<!-- Node25 -->
<g id="node25" class="node">
<title>Node25</title>
<g id="a_node25"><a xlink:title=" ">
<polygon fill="white" stroke="#bfbfbf" points="1600.5,-0.5 1600.5,-19.5 1644.5,-19.5 1644.5,-0.5 1600.5,-0.5"/>
<text text-anchor="middle" x="1622.5" y="-7.5" font-family="Helvetica,sans-Serif" font-size="10.00">limits</text>
</a>
</g>
</g>
<!-- Node22&#45;&gt;Node25 -->
<g id="edge36" class="edge">
<title>Node22&#45;&gt;Node25</title>
<path fill="none" stroke="midnightblue" d="M1485.33,-56.44C1513.88,-46.99 1559.89,-31.74 1590.65,-21.55"/>
<polygon fill="midnightblue" stroke="midnightblue" points="1592.06,-24.77 1600.45,-18.3 1589.86,-18.13 1592.06,-24.77"/>
</g>
<!-- Node26 -->
<g id="node26" class="node">
<title>Node26</title>
<g id="a_node26"><a xlink:title=" ">
<polygon fill="white" stroke="#bfbfbf" points="1294.5,-0.5 1294.5,-19.5 1332.5,-19.5 1332.5,-0.5 1294.5,-0.5"/>
<text text-anchor="middle" x="1313.5" y="-7.5" font-family="Helvetica,sans-Serif" font-size="10.00">map</text>
</a>
</g>
</g>
<!-- Node22&#45;&gt;Node26 -->
<g id="edge37" class="edge">
<title>Node22&#45;&gt;Node26</title>
<path fill="none" stroke="midnightblue" d="M1436.37,-56.44C1410.87,-47.01 1369.84,-31.84 1342.28,-21.65"/>
<polygon fill="midnightblue" stroke="midnightblue" points="1343.39,-18.32 1332.8,-18.14 1340.96,-24.89 1343.39,-18.32"/>
</g>
<!-- Node27 -->
<g id="node27" class="node">
<title>Node27</title>
<g id="a_node27"><a xlink:title=" ">
<polygon fill="white" stroke="#bfbfbf" points="1350.5,-0.5 1350.5,-19.5 1398.5,-19.5 1398.5,-0.5 1350.5,-0.5"/>
<text text-anchor="middle" x="1374.5" y="-7.5" font-family="Helvetica,sans-Serif" font-size="10.00">thread</text>
</a>
</g>
</g>
<!-- Node22&#45;&gt;Node27 -->
<g id="edge38" class="edge">
<title>Node22&#45;&gt;Node27</title>
<path fill="none" stroke="midnightblue" d="M1445.84,-56.32C1432.58,-47.9 1412.23,-34.97 1396.65,-25.07"/>
<polygon fill="midnightblue" stroke="midnightblue" points="1398.44,-22.06 1388.12,-19.65 1394.69,-27.97 1398.44,-22.06"/>
</g>
<!-- Node33&#45;&gt;Node3 -->
<g id="edge53" class="edge">
<title>Node33&#45;&gt;Node3</title>
<path fill="none" stroke="midnightblue" d="M473.59,-224.4C487.59,-215.04 505.91,-202.79 519.99,-193.38"/>
<polygon fill="midnightblue" stroke="midnightblue" points="522.18,-196.13 528.55,-187.66 518.29,-190.31 522.18,-196.13"/>
</g>
<!-- Node33&#45;&gt;Node5 -->
<g id="edge55" class="edge">
<title>Node33&#45;&gt;Node5</title>
<path fill="none" stroke="midnightblue" d="M445.06,-224.27C424.29,-184.56 365.72,-72.61 342.83,-28.85"/>
<polygon fill="midnightblue" stroke="midnightblue" points="345.91,-27.17 338.17,-19.93 339.7,-30.41 345.91,-27.17"/>
</g>
<!-- Node33&#45;&gt;Node6 -->
<g id="edge56" class="edge">
<title>Node33&#45;&gt;Node6</title>
<path fill="none" stroke="midnightblue" d="M450.12,-224.27C443.55,-184.89 425.1,-74.49 417.67,-29.97"/>
<polygon fill="midnightblue" stroke="midnightblue" points="421.09,-29.21 415.99,-19.93 414.19,-30.37 421.09,-29.21"/>
</g>
<!-- Node33&#45;&gt;Node30 -->
<g id="edge54" class="edge">
<title>Node33&#45;&gt;Node30</title>
<path fill="none" stroke="midnightblue" d="M518.35,-231.63C637.94,-218.32 898.27,-185.53 1112.5,-132 1175.17,-116.34 1246.76,-92.82 1287.79,-78.78"/>
<polygon fill="midnightblue" stroke="midnightblue" points="1288.98,-82.07 1297.3,-75.51 1286.7,-75.45 1288.98,-82.07"/>
</g>
</g>
</svg>
