<?xml version="1.0" encoding="UTF-8" standalone="no"?>
<!DOCTYPE svg PUBLIC "-//W3C//DTD SVG 1.1//EN"
 "http://www.w3.org/Graphics/SVG/1.1/DTD/svg11.dtd">
<!-- Generated by graphviz version 2.43.0 (0)
 -->
<!-- Title: src/common/configuration.h Pages: 1 -->
<!--zoomable 609 -->
<svg id="main" version="1.1" xmlns="http://www.w3.org/2000/svg" xmlns:xlink="http://www.w3.org/1999/xlink" xml:space="preserve" onload="init(evt)">
<style type="text/css"><![CDATA[
.edge:hover path { stroke: red; }
.edge:hover polygon { stroke: red; fill: red; }
]]></style>
<script type="text/javascript"><![CDATA[
var edges = document.getElementsByTagName('g');
if (edges && edges.length) {
  for (var i=0;i<edges.length;i++) {
    if (edges[i].id.substr(0,4)=='edge') {
      edges[i].setAttribute('class','edge');
    }
  }
}
]]></script>
        <defs>
                <circle id="rim" cx="0" cy="0" r="7"/>
                <circle id="rim2" cx="0" cy="0" r="3.5"/>
                <g id="zoomPlus">
                        <use xlink:href="#rim" fill="#404040">
                                <set attributeName="fill" to="#808080" begin="zoomplus.mouseover" end="zoomplus.mouseout"/>
                        </use>
                        <path d="M-4,0h8M0,-4v8" fill="none" stroke="white" stroke-width="1.5" pointer-events="none"/>
                </g>
                <g id="zoomMin">
                        <use xlink:href="#rim" fill="#404040">
                                <set attributeName="fill" to="#808080" begin="zoomminus.mouseover" end="zoomminus.mouseout"/>
                        </use>
                        <path d="M-4,0h8" fill="none" stroke="white" stroke-width="1.5" pointer-events="none"/>
                </g>
                <g id="dirArrow">
                        <path fill="none" stroke="white" stroke-width="1.5" d="M0,-3.0v7 M-2.5,-0.5L0,-3.0L2.5,-0.5"/>
                </g>
               <g id="resetDef">
                       <use xlink:href="#rim2" fill="#404040">
                               <set attributeName="fill" to="#808080" begin="reset.mouseover" end="reset.mouseout"/>
                       </use>
               </g>
        </defs>

<script type="text/javascript">
var viewWidth = 2204;
var viewHeight = 609;
var sectionId = 'dynsection-1';
</script>
<script xlink:href="svgpan.js"/>
<svg id="graph" class="graph">
<g id="viewport">
<title>src/common/configuration.h</title>
<polygon fill="white" stroke="transparent" points="-4,4 -4,-605 2199.5,-605 2199.5,4 -4,4"/>
<!-- Node1 -->
<g id="node1" class="node">
<title>Node1</title>
<g id="a_node1"><a xlink:title=" ">
<polygon fill="#bfbfbf" stroke="black" points="353,-581.5 353,-600.5 505,-600.5 505,-581.5 353,-581.5"/>
<text text-anchor="middle" x="429" y="-588.5" font-family="Helvetica,sans-Serif" font-size="10.00">src/common/configuration.h</text>
</a>
</g>
</g>
<!-- Node2 -->
<g id="node2" class="node">
<title>Node2</title>
<g id="a_node2"><a xlink:href="host_2configuration_8h.html" target="_top" xlink:title=" ">
<polygon fill="white" stroke="black" points="172.5,-520 172.5,-539 303.5,-539 303.5,-520 172.5,-520"/>
<text text-anchor="middle" x="238" y="-527" font-family="Helvetica,sans-Serif" font-size="10.00">src/host/configuration.h</text>
</a>
</g>
</g>
<!-- Node1&#45;&gt;Node2 -->
<g id="edge1" class="edge">
<title>Node1&#45;&gt;Node2</title>
<path fill="none" stroke="midnightblue" d="M391.7,-578.38C354.57,-566.82 298.48,-549.34 265.31,-539.01"/>
<polygon fill="midnightblue" stroke="midnightblue" points="391.05,-581.84 401.63,-581.48 393.13,-575.16 391.05,-581.84"/>
</g>
<!-- Node4 -->
<g id="node4" class="node">
<title>Node4</title>
<g id="a_node4"><a xlink:href="frontend_8h.html" target="_top" xlink:title=" ">
<polygon fill="white" stroke="black" points="541.5,-386 541.5,-405 670.5,-405 670.5,-386 541.5,-386"/>
<text text-anchor="middle" x="606" y="-393" font-family="Helvetica,sans-Serif" font-size="10.00">src/node/rpc/frontend.h</text>
</a>
</g>
</g>
<!-- Node1&#45;&gt;Node4 -->
<g id="edge3" class="edge">
<title>Node1&#45;&gt;Node4</title>
<path fill="none" stroke="midnightblue" d="M440.73,-573.19C460.46,-545.46 502.24,-489.03 544,-447 560.05,-430.85 580.98,-414.67 593.95,-405.12"/>
<polygon fill="midnightblue" stroke="midnightblue" points="437.82,-571.24 434.92,-581.43 443.54,-575.28 437.82,-571.24"/>
</g>
<!-- Node15 -->
<g id="node15" class="node">
<title>Node15</title>
<g id="a_node15"><a xlink:href="node__call__types_8h.html" target="_top" xlink:title=" ">
<polygon fill="white" stroke="black" points="321.5,-514.5 321.5,-544.5 446.5,-544.5 446.5,-514.5 321.5,-514.5"/>
<text text-anchor="start" x="329.5" y="-532.5" font-family="Helvetica,sans-Serif" font-size="10.00">src/node/rpc/node_call</text>
<text text-anchor="middle" x="384" y="-521.5" font-family="Helvetica,sans-Serif" font-size="10.00">_types.h</text>
</a>
</g>
</g>
<!-- Node1&#45;&gt;Node15 -->
<g id="edge21" class="edge">
<title>Node1&#45;&gt;Node15</title>
<path fill="none" stroke="midnightblue" d="M416.33,-573.25C409.48,-564.19 401.11,-553.12 394.61,-544.52"/>
<polygon fill="midnightblue" stroke="midnightblue" points="413.73,-575.61 422.55,-581.48 419.31,-571.39 413.73,-575.61"/>
</g>
<!-- Node21 -->
<g id="node21" class="node">
<title>Node21</title>
<g id="a_node21"><a xlink:href="node__interface_8h.html" target="_top" xlink:title=" ">
<polygon fill="white" stroke="black" points="1423.5,-520 1423.5,-539 1584.5,-539 1584.5,-520 1423.5,-520"/>
<text text-anchor="middle" x="1504" y="-527" font-family="Helvetica,sans-Serif" font-size="10.00">src/node/rpc/node_interface.h</text>
</a>
</g>
</g>
<!-- Node1&#45;&gt;Node21 -->
<g id="edge34" class="edge">
<title>Node1&#45;&gt;Node21</title>
<path fill="none" stroke="midnightblue" d="M515.05,-585.24C718.31,-573.99 1225.89,-545.89 1423.49,-534.96"/>
<polygon fill="midnightblue" stroke="midnightblue" points="514.81,-581.74 505.02,-585.79 515.2,-588.73 514.81,-581.74"/>
</g>
<!-- Node3 -->
<g id="node3" class="node">
<title>Node3</title>
<g id="a_node3"><a xlink:href="host_2main_8cpp.html" target="_top" xlink:title=" ">
<polygon fill="white" stroke="black" points="186.5,-453 186.5,-472 289.5,-472 289.5,-453 186.5,-453"/>
<text text-anchor="middle" x="238" y="-460" font-family="Helvetica,sans-Serif" font-size="10.00">src/host/main.cpp</text>
</a>
</g>
</g>
<!-- Node2&#45;&gt;Node3 -->
<g id="edge2" class="edge">
<title>Node2&#45;&gt;Node3</title>
<path fill="none" stroke="midnightblue" d="M238,-509.54C238,-497.17 238,-481.62 238,-472.13"/>
<polygon fill="midnightblue" stroke="midnightblue" points="234.5,-509.73 238,-519.73 241.5,-509.73 234.5,-509.73"/>
</g>
<!-- Node5 -->
<g id="node5" class="node">
<title>Node5</title>
<g id="a_node5"><a xlink:href="acme__challenge__frontend_8h.html" target="_top" xlink:title=" ">
<polygon fill="white" stroke="black" points="532,-313.5 532,-343.5 672,-343.5 672,-313.5 532,-313.5"/>
<text text-anchor="start" x="540" y="-331.5" font-family="Helvetica,sans-Serif" font-size="10.00">src/node/acme_challenge</text>
<text text-anchor="middle" x="602" y="-320.5" font-family="Helvetica,sans-Serif" font-size="10.00">_frontend.h</text>
</a>
</g>
</g>
<!-- Node4&#45;&gt;Node5 -->
<g id="edge4" class="edge">
<title>Node4&#45;&gt;Node5</title>
<path fill="none" stroke="midnightblue" d="M604.85,-375.74C604.21,-365.49 603.45,-353 602.87,-343.59"/>
<polygon fill="midnightblue" stroke="midnightblue" points="601.35,-375.97 605.46,-385.73 608.34,-375.54 601.35,-375.97"/>
</g>
<!-- Node9 -->
<g id="node9" class="node">
<title>Node9</title>
<g id="a_node9"><a xlink:href="node__state_8h.html" target="_top" xlink:title=" ">
<polygon fill="white" stroke="black" points="313,-185 313,-204 437,-204 437,-185 313,-185"/>
<text text-anchor="middle" x="375" y="-192" font-family="Helvetica,sans-Serif" font-size="10.00">src/node/node_state.h</text>
</a>
</g>
</g>
<!-- Node4&#45;&gt;Node9 -->
<g id="edge12" class="edge">
<title>Node4&#45;&gt;Node9</title>
<path fill="none" stroke="midnightblue" d="M578.96,-381.31C561.86,-372.22 539.88,-359.07 523,-344 481.89,-307.29 486.9,-284.03 447,-246 429.1,-228.93 405.02,-213.24 389.75,-204.02"/>
<polygon fill="midnightblue" stroke="midnightblue" points="577.41,-384.45 587.9,-385.94 580.63,-378.23 577.41,-384.45"/>
</g>
<!-- Node11 -->
<g id="node11" class="node">
<title>Node11</title>
<g id="a_node11"><a xlink:href="member__frontend_8h.html" target="_top" xlink:title=" ">
<polygon fill="white" stroke="black" points="728,-313.5 728,-343.5 848,-343.5 848,-313.5 728,-313.5"/>
<text text-anchor="start" x="736" y="-331.5" font-family="Helvetica,sans-Serif" font-size="10.00">src/node/rpc/member</text>
<text text-anchor="middle" x="788" y="-320.5" font-family="Helvetica,sans-Serif" font-size="10.00">_frontend.h</text>
</a>
</g>
</g>
<!-- Node4&#45;&gt;Node11 -->
<g id="edge13" class="edge">
<title>Node4&#45;&gt;Node11</title>
<path fill="none" stroke="midnightblue" d="M639.63,-382.49C670.48,-371.47 716.2,-355.14 748.72,-343.53"/>
<polygon fill="midnightblue" stroke="midnightblue" points="638.41,-379.21 630.17,-385.87 640.76,-385.8 638.41,-379.21"/>
</g>
<!-- Node12 -->
<g id="node12" class="node">
<title>Node12</title>
<g id="a_node12"><a xlink:href="node__frontend_8h.html" target="_top" xlink:title=" ">
<polygon fill="white" stroke="black" points="318,-319 318,-338 476,-338 476,-319 318,-319"/>
<text text-anchor="middle" x="397" y="-326" font-family="Helvetica,sans-Serif" font-size="10.00">src/node/rpc/node_frontend.h</text>
</a>
</g>
</g>
<!-- Node4&#45;&gt;Node12 -->
<g id="edge15" class="edge">
<title>Node4&#45;&gt;Node12</title>
<path fill="none" stroke="midnightblue" d="M568.53,-382.85C527.13,-369.97 461.45,-349.55 424.54,-338.06"/>
<polygon fill="midnightblue" stroke="midnightblue" points="567.66,-386.24 578.25,-385.87 569.74,-379.56 567.66,-386.24"/>
</g>
<!-- Node14 -->
<g id="node14" class="node">
<title>Node14</title>
<g id="a_node14"><a xlink:href="user__frontend_8h.html" target="_top" xlink:title=" ">
<polygon fill="white" stroke="black" points="717.5,-118 717.5,-137 872.5,-137 872.5,-118 717.5,-118"/>
<text text-anchor="middle" x="795" y="-125" font-family="Helvetica,sans-Serif" font-size="10.00">src/node/rpc/user_frontend.h</text>
</a>
</g>
</g>
<!-- Node4&#45;&gt;Node14 -->
<g id="edge19" class="edge">
<title>Node4&#45;&gt;Node14</title>
<path fill="none" stroke="midnightblue" d="M632.07,-380.73C647.52,-371.7 666.8,-358.84 681,-344 744.52,-277.66 782.26,-168.95 792.29,-137.36"/>
<polygon fill="midnightblue" stroke="midnightblue" points="630,-377.87 623.02,-385.84 633.45,-383.97 630,-377.87"/>
</g>
<!-- Node6 -->
<g id="node6" class="node">
<title>Node6</title>
<g id="a_node6"><a xlink:href="src_2enclave_2enclave_8h.html" target="_top" xlink:title=" ">
<polygon fill="white" stroke="black" points="859,-56.5 859,-75.5 981,-75.5 981,-56.5 859,-56.5"/>
<text text-anchor="middle" x="920" y="-63.5" font-family="Helvetica,sans-Serif" font-size="10.00">src/enclave/enclave.h</text>
</a>
</g>
</g>
<!-- Node5&#45;&gt;Node6 -->
<g id="edge5" class="edge">
<title>Node5&#45;&gt;Node6</title>
<path fill="none" stroke="midnightblue" d="M652.78,-308.72C667.01,-301.02 681.02,-290.64 690,-277 730.59,-215.34 659.35,-166.63 709,-112 728.81,-90.21 803.89,-78.21 858.87,-72.19"/>
<polygon fill="midnightblue" stroke="midnightblue" points="650.82,-305.78 643.45,-313.39 653.96,-312.04 650.82,-305.78"/>
</g>
<!-- Node8 -->
<g id="node8" class="node">
<title>Node8</title>
<g id="a_node8"><a xlink:href="ccf__acme__client_8h.html" target="_top" xlink:title=" ">
<polygon fill="white" stroke="black" points="531.5,-252 531.5,-271 680.5,-271 680.5,-252 531.5,-252"/>
<text text-anchor="middle" x="606" y="-259" font-family="Helvetica,sans-Serif" font-size="10.00">src/node/ccf_acme_client.h</text>
</a>
</g>
</g>
<!-- Node5&#45;&gt;Node8 -->
<g id="edge7" class="edge">
<title>Node5&#45;&gt;Node8</title>
<path fill="none" stroke="midnightblue" d="M603.49,-303.25C604.18,-292.02 604.96,-279.38 605.46,-271.19"/>
<polygon fill="midnightblue" stroke="midnightblue" points="599.99,-303.2 602.87,-313.4 606.98,-303.63 599.99,-303.2"/>
</g>
<!-- Node7 -->
<g id="node7" class="node">
<title>Node7</title>
<g id="a_node7"><a xlink:href="enclave_2main_8cpp.html" target="_top" xlink:title=" ">
<polygon fill="white" stroke="black" points="860,-0.5 860,-19.5 980,-19.5 980,-0.5 860,-0.5"/>
<text text-anchor="middle" x="920" y="-7.5" font-family="Helvetica,sans-Serif" font-size="10.00">src/enclave/main.cpp</text>
</a>
</g>
</g>
<!-- Node6&#45;&gt;Node7 -->
<g id="edge6" class="edge">
<title>Node6&#45;&gt;Node7</title>
<path fill="none" stroke="midnightblue" d="M920,-45.8C920,-36.91 920,-26.78 920,-19.75"/>
<polygon fill="midnightblue" stroke="midnightblue" points="916.5,-46.08 920,-56.08 923.5,-46.08 916.5,-46.08"/>
</g>
<!-- Node8&#45;&gt;Node9 -->
<g id="edge8" class="edge">
<title>Node8&#45;&gt;Node9</title>
<path fill="none" stroke="midnightblue" d="M565.45,-249.09C519.76,-236.23 446.5,-215.62 405.43,-204.06"/>
<polygon fill="midnightblue" stroke="midnightblue" points="564.75,-252.53 575.32,-251.87 566.65,-245.79 564.75,-252.53"/>
</g>
<!-- Node9&#45;&gt;Node6 -->
<g id="edge9" class="edge">
<title>Node9&#45;&gt;Node6</title>
<path fill="none" stroke="midnightblue" d="M345.85,-180.47C314.16,-164.59 270.91,-136.81 294,-112 331.95,-71.22 708.74,-66.88 858.8,-66.78"/>
<polygon fill="midnightblue" stroke="midnightblue" points="344.7,-183.8 355.23,-185 347.75,-177.5 344.7,-183.8"/>
</g>
<!-- Node10 -->
<g id="node10" class="node">
<title>Node10</title>
<g id="a_node10"><a xlink:href="gov__effects_8h.html" target="_top" xlink:title=" ">
<polygon fill="white" stroke="black" points="303,-118 303,-137 447,-137 447,-118 303,-118"/>
<text text-anchor="middle" x="375" y="-125" font-family="Helvetica,sans-Serif" font-size="10.00">src/node/rpc/gov_effects.h</text>
</a>
</g>
</g>
<!-- Node9&#45;&gt;Node10 -->
<g id="edge10" class="edge">
<title>Node9&#45;&gt;Node10</title>
<path fill="none" stroke="midnightblue" d="M375,-174.54C375,-162.17 375,-146.62 375,-137.13"/>
<polygon fill="midnightblue" stroke="midnightblue" points="371.5,-174.73 375,-184.73 378.5,-174.73 371.5,-174.73"/>
</g>
<!-- Node10&#45;&gt;Node6 -->
<g id="edge11" class="edge">
<title>Node10&#45;&gt;Node6</title>
<path fill="none" stroke="midnightblue" d="M432.12,-116.3C441.74,-114.75 451.64,-113.25 461,-112 603.07,-93.08 770.87,-78.62 858.96,-71.63"/>
<polygon fill="midnightblue" stroke="midnightblue" points="431.52,-112.85 422.23,-117.93 432.66,-119.76 431.52,-112.85"/>
</g>
<!-- Node11&#45;&gt;Node6 -->
<g id="edge14" class="edge">
<title>Node11&#45;&gt;Node6</title>
<path fill="none" stroke="midnightblue" d="M799.93,-304.22C817.84,-269.25 852.68,-201.08 882,-143 894.23,-118.77 908.51,-90.11 915.58,-75.9"/>
<polygon fill="midnightblue" stroke="midnightblue" points="796.79,-302.67 795.35,-313.17 803.02,-305.86 796.79,-302.67"/>
</g>
<!-- Node12&#45;&gt;Node6 -->
<g id="edge16" class="edge">
<title>Node12&#45;&gt;Node6</title>
<path fill="none" stroke="midnightblue" d="M412.81,-311.61C454.04,-271.2 569.86,-163.98 688,-112 742.83,-87.88 810.58,-76.63 858.68,-71.42"/>
<polygon fill="midnightblue" stroke="midnightblue" points="410.23,-309.25 405.58,-318.77 415.15,-314.22 410.23,-309.25"/>
</g>
<!-- Node13 -->
<g id="node13" class="node">
<title>Node13</title>
<g id="a_node13"><a xlink:href="jwt__key__auto__refresh_8h.html" target="_top" xlink:title=" ">
<polygon fill="white" stroke="black" points="312.5,-246.5 312.5,-276.5 437.5,-276.5 437.5,-246.5 312.5,-246.5"/>
<text text-anchor="start" x="320.5" y="-264.5" font-family="Helvetica,sans-Serif" font-size="10.00">src/node/jwt_key_auto</text>
<text text-anchor="middle" x="375" y="-253.5" font-family="Helvetica,sans-Serif" font-size="10.00">_refresh.h</text>
</a>
</g>
</g>
<!-- Node12&#45;&gt;Node13 -->
<g id="edge17" class="edge">
<title>Node12&#45;&gt;Node13</title>
<path fill="none" stroke="midnightblue" d="M390.76,-309.06C387.27,-298.75 382.99,-286.1 379.77,-276.59"/>
<polygon fill="midnightblue" stroke="midnightblue" points="387.51,-310.38 394.03,-318.73 394.14,-308.14 387.51,-310.38"/>
</g>
<!-- Node13&#45;&gt;Node9 -->
<g id="edge18" class="edge">
<title>Node13&#45;&gt;Node9</title>
<path fill="none" stroke="midnightblue" d="M375,-236.25C375,-225.02 375,-212.38 375,-204.19"/>
<polygon fill="midnightblue" stroke="midnightblue" points="371.5,-236.4 375,-246.4 378.5,-236.4 371.5,-236.4"/>
</g>
<!-- Node14&#45;&gt;Node6 -->
<g id="edge20" class="edge">
<title>Node14&#45;&gt;Node6</title>
<path fill="none" stroke="midnightblue" d="M821.94,-113.67C846.2,-102.13 881.16,-85.49 902.12,-75.51"/>
<polygon fill="midnightblue" stroke="midnightblue" points="820.43,-110.52 812.91,-117.98 823.44,-116.84 820.43,-110.52"/>
</g>
<!-- Node16 -->
<g id="node16" class="node">
<title>Node16</title>
<g id="a_node16"><a xlink:href="call__types_8h.html" target="_top" xlink:title=" ">
<polygon fill="white" stroke="black" points="308.5,-453 308.5,-472 445.5,-472 445.5,-453 308.5,-453"/>
<text text-anchor="middle" x="377" y="-460" font-family="Helvetica,sans-Serif" font-size="10.00">src/node/rpc/call_types.h</text>
</a>
</g>
</g>
<!-- Node15&#45;&gt;Node16 -->
<g id="edge22" class="edge">
<title>Node15&#45;&gt;Node16</title>
<path fill="none" stroke="midnightblue" d="M381.39,-504.25C380.18,-493.02 378.82,-480.38 377.94,-472.19"/>
<polygon fill="midnightblue" stroke="midnightblue" points="377.93,-504.83 382.48,-514.4 384.89,-504.08 377.93,-504.83"/>
</g>
<!-- Node16&#45;&gt;Node11 -->
<g id="edge27" class="edge">
<title>Node16&#45;&gt;Node11</title>
<path fill="none" stroke="midnightblue" d="M455.56,-452.72C531.51,-443.46 640.67,-427.9 680,-411 717.98,-394.68 754.79,-362.28 774.08,-343.62"/>
<polygon fill="midnightblue" stroke="midnightblue" points="455.05,-449.26 445.55,-453.93 455.89,-456.21 455.05,-449.26"/>
</g>
<!-- Node17 -->
<g id="node17" class="node">
<title>Node17</title>
<g id="a_node17"><a xlink:href="common__endpoint__registry_8cpp.html" target="_top" xlink:title=" ">
<polygon fill="white" stroke="black" points="0,-313.5 0,-343.5 128,-343.5 128,-313.5 0,-313.5"/>
<text text-anchor="start" x="8" y="-331.5" font-family="Helvetica,sans-Serif" font-size="10.00">src/endpoints/common</text>
<text text-anchor="middle" x="64" y="-320.5" font-family="Helvetica,sans-Serif" font-size="10.00">_endpoint_registry.cpp</text>
</a>
</g>
</g>
<!-- Node16&#45;&gt;Node17 -->
<g id="edge23" class="edge">
<title>Node16&#45;&gt;Node17</title>
<path fill="none" stroke="midnightblue" d="M338.78,-449.96C308.59,-440.5 265.6,-426.21 229,-411 178.55,-390.04 121.88,-360.72 89.81,-343.55"/>
<polygon fill="midnightblue" stroke="midnightblue" points="337.91,-453.36 348.5,-452.99 339.99,-446.67 337.91,-453.36"/>
</g>
<!-- Node18 -->
<g id="node18" class="node">
<title>Node18</title>
<g id="a_node18"><a xlink:href="wrap_8cpp.html" target="_top" xlink:title=" ">
<polygon fill="white" stroke="black" points="1391.5,-319 1391.5,-338 1480.5,-338 1480.5,-319 1391.5,-319"/>
<text text-anchor="middle" x="1436" y="-326" font-family="Helvetica,sans-Serif" font-size="10.00">src/js/wrap.cpp</text>
</a>
</g>
</g>
<!-- Node16&#45;&gt;Node18 -->
<g id="edge24" class="edge">
<title>Node16&#45;&gt;Node18</title>
<path fill="none" stroke="midnightblue" d="M445.72,-451.47C514.79,-441.36 624.3,-425.26 719,-411 808.82,-397.48 830.88,-391.33 921,-380 1094.6,-358.18 1302.11,-340.34 1391.48,-333.04"/>
<polygon fill="midnightblue" stroke="midnightblue" points="444.8,-448.07 435.41,-452.98 445.81,-454.99 444.8,-448.07"/>
</g>
<!-- Node19 -->
<g id="node19" class="node">
<title>Node19</title>
<g id="a_node19"><a xlink:href="resharing_8h.html" target="_top" xlink:title=" ">
<polygon fill="white" stroke="black" points="146,-319 146,-338 262,-338 262,-319 146,-319"/>
<text text-anchor="middle" x="204" y="-326" font-family="Helvetica,sans-Serif" font-size="10.00">src/node/resharing.h</text>
</a>
</g>
</g>
<!-- Node16&#45;&gt;Node19 -->
<g id="edge25" class="edge">
<title>Node16&#45;&gt;Node19</title>
<path fill="none" stroke="midnightblue" d="M334.42,-449.86C310.43,-441.77 280.96,-429.16 259,-411 233.74,-390.12 215.43,-354.72 207.86,-338.32"/>
<polygon fill="midnightblue" stroke="midnightblue" points="333.4,-453.21 343.99,-452.94 335.55,-446.54 333.4,-453.21"/>
</g>
<!-- Node20 -->
<g id="node20" class="node">
<title>Node20</title>
<g id="a_node20"><a xlink:href="serialization_8h.html" target="_top" xlink:title=" ">
<polygon fill="white" stroke="black" points="268,-386 268,-405 416,-405 416,-386 268,-386"/>
<text text-anchor="middle" x="342" y="-393" font-family="Helvetica,sans-Serif" font-size="10.00">src/node/rpc/serialization.h</text>
</a>
</g>
</g>
<!-- Node16&#45;&gt;Node20 -->
<g id="edge28" class="edge">
<title>Node16&#45;&gt;Node20</title>
<path fill="none" stroke="midnightblue" d="M367.4,-443.66C360.65,-431.13 351.91,-414.91 346.65,-405.13"/>
<polygon fill="midnightblue" stroke="midnightblue" points="364.46,-445.59 372.28,-452.73 370.62,-442.27 364.46,-445.59"/>
</g>
<!-- Node19&#45;&gt;Node9 -->
<g id="edge26" class="edge">
<title>Node19&#45;&gt;Node9</title>
<path fill="none" stroke="midnightblue" d="M214.8,-310.01C226.58,-292.07 246.87,-264.3 270,-246 294.27,-226.8 327.04,-212.51 349.47,-204.12"/>
<polygon fill="midnightblue" stroke="midnightblue" points="211.6,-308.52 209.17,-318.83 217.5,-312.28 211.6,-308.52"/>
</g>
<!-- Node20&#45;&gt;Node9 -->
<g id="edge30" class="edge">
<title>Node20&#45;&gt;Node9</title>
<path fill="none" stroke="midnightblue" d="M328.1,-377.94C321.08,-368.59 313.18,-356.33 309,-344 295.01,-302.69 284.01,-284.76 304,-246 314.33,-225.97 336.69,-212.15 353.57,-204.09"/>
<polygon fill="midnightblue" stroke="midnightblue" points="325.46,-380.25 334.41,-385.92 330.95,-375.91 325.46,-380.25"/>
</g>
<!-- Node20&#45;&gt;Node11 -->
<g id="edge32" class="edge">
<title>Node20&#45;&gt;Node11</title>
<path fill="none" stroke="midnightblue" d="M410.77,-384.48C497.48,-371.84 645.16,-350.32 727.68,-338.29"/>
<polygon fill="midnightblue" stroke="midnightblue" points="410.16,-381.03 400.77,-385.94 411.17,-387.96 410.16,-381.03"/>
</g>
<!-- Node20&#45;&gt;Node12 -->
<g id="edge33" class="edge">
<title>Node20&#45;&gt;Node12</title>
<path fill="none" stroke="midnightblue" d="M356.16,-377.77C366.88,-365.1 381.18,-348.2 389.7,-338.13"/>
<polygon fill="midnightblue" stroke="midnightblue" points="353.21,-375.84 349.42,-385.73 358.55,-380.36 353.21,-375.84"/>
</g>
<!-- Node20&#45;&gt;Node17 -->
<g id="edge29" class="edge">
<title>Node20&#45;&gt;Node17</title>
<path fill="none" stroke="midnightblue" d="M295.45,-383.62C248.41,-372.62 175.52,-355.58 124.13,-343.56"/>
<polygon fill="midnightblue" stroke="midnightblue" points="294.84,-387.07 305.37,-385.94 296.43,-380.25 294.84,-387.07"/>
</g>
<!-- Node20&#45;&gt;Node19 -->
<g id="edge31" class="edge">
<title>Node20&#45;&gt;Node19</title>
<path fill="none" stroke="midnightblue" d="M314.28,-381.44C286.95,-368.57 245.95,-349.26 222.4,-338.17"/>
<polygon fill="midnightblue" stroke="midnightblue" points="313.14,-384.77 323.67,-385.87 316.12,-378.44 313.14,-384.77"/>
</g>
<!-- Node21&#45;&gt;Node11 -->
<g id="edge59" class="edge">
<title>Node21&#45;&gt;Node11</title>
<path fill="none" stroke="midnightblue" d="M1413.18,-527.46C1239.11,-523.35 868.65,-503.65 789,-411 773.04,-392.44 778.2,-361.74 783.21,-343.79"/>
<polygon fill="midnightblue" stroke="midnightblue" points="1413.27,-530.96 1423.35,-527.69 1413.43,-523.97 1413.27,-530.96"/>
</g>
<!-- Node21&#45;&gt;Node12 -->
<g id="edge63" class="edge">
<title>Node21&#45;&gt;Node12</title>
<path fill="none" stroke="midnightblue" d="M1413.28,-527.44C1189.19,-524.3 621.94,-512.95 544,-478 473.83,-446.53 419.07,-365.34 402.32,-338.36"/>
<polygon fill="midnightblue" stroke="midnightblue" points="1413.32,-530.94 1423.37,-527.58 1413.42,-523.94 1413.32,-530.94"/>
</g>
<!-- Node21&#45;&gt;Node18 -->
<g id="edge35" class="edge">
<title>Node21&#45;&gt;Node18</title>
<path fill="none" stroke="midnightblue" d="M1550.9,-517.43C1630.74,-496.46 1779.22,-446.98 1723,-380 1692.59,-343.77 1553.47,-333.52 1480.68,-330.63"/>
<polygon fill="midnightblue" stroke="midnightblue" points="1549.87,-514.08 1541.05,-519.96 1551.61,-520.86 1549.87,-514.08"/>
</g>
<!-- Node22 -->
<g id="node22" class="node">
<title>Node22</title>
<g id="a_node22"><a xlink:href="wrap_8h.html" target="_top" xlink:title=" ">
<polygon fill="white" stroke="black" points="1228,-453 1228,-472 1306,-472 1306,-453 1228,-453"/>
<text text-anchor="middle" x="1267" y="-460" font-family="Helvetica,sans-Serif" font-size="10.00">src/js/wrap.h</text>
</a>
</g>
</g>
<!-- Node21&#45;&gt;Node22 -->
<g id="edge36" class="edge">
<title>Node21&#45;&gt;Node22</title>
<path fill="none" stroke="midnightblue" d="M1462.7,-517.17C1415.83,-504.32 1340.44,-483.64 1298.22,-472.06"/>
<polygon fill="midnightblue" stroke="midnightblue" points="1461.96,-520.6 1472.53,-519.87 1463.81,-513.85 1461.96,-520.6"/>
</g>
<!-- Node29 -->
<g id="node29" class="node">
<title>Node29</title>
<g id="a_node29"><a xlink:href="historical__queries_8h.html" target="_top" xlink:title=" ">
<polygon fill="white" stroke="black" points="1949,-179.5 1949,-209.5 2055,-209.5 2055,-179.5 1949,-179.5"/>
<text text-anchor="start" x="1957" y="-197.5" font-family="Helvetica,sans-Serif" font-size="10.00">src/node/historical</text>
<text text-anchor="middle" x="2002" y="-186.5" font-family="Helvetica,sans-Serif" font-size="10.00">_queries.h</text>
</a>
</g>
</g>
<!-- Node21&#45;&gt;Node29 -->
<g id="edge51" class="edge">
<title>Node21&#45;&gt;Node29</title>
<path fill="none" stroke="midnightblue" d="M1594.76,-526.66C1704.66,-522.94 1882,-511.74 1938,-478 1975.64,-455.32 1994,-440.45 1994,-396.5 1994,-396.5 1994,-396.5 1994,-327.5 1994,-284.57 1998.27,-233.92 2000.57,-209.74"/>
<polygon fill="midnightblue" stroke="midnightblue" points="1594.55,-523.16 1584.67,-526.98 1594.78,-530.16 1594.55,-523.16"/>
</g>
<!-- Node31 -->
<g id="node31" class="node">
<title>Node31</title>
<g id="a_node31"><a xlink:href="node__configuration__subsystem_8h.html" target="_top" xlink:title=" ">
<polygon fill="white" stroke="black" points="553,-447.5 553,-477.5 707,-477.5 707,-447.5 553,-447.5"/>
<text text-anchor="start" x="561" y="-465.5" font-family="Helvetica,sans-Serif" font-size="10.00">src/node/node_configuration</text>
<text text-anchor="middle" x="630" y="-454.5" font-family="Helvetica,sans-Serif" font-size="10.00">_subsystem.h</text>
</a>
</g>
</g>
<!-- Node21&#45;&gt;Node31 -->
<g id="edge55" class="edge">
<title>Node21&#45;&gt;Node31</title>
<path fill="none" stroke="midnightblue" d="M1413.3,-524.6C1269.45,-517.96 980.24,-502.7 736,-478 726.67,-477.06 716.89,-475.92 707.21,-474.71"/>
<polygon fill="midnightblue" stroke="midnightblue" points="1413.26,-528.11 1423.41,-525.07 1413.58,-521.11 1413.26,-528.11"/>
</g>
<!-- Node32 -->
<g id="node32" class="node">
<title>Node32</title>
<g id="a_node32"><a xlink:href="acme__subsystem_8h.html" target="_top" xlink:title=" ">
<polygon fill="white" stroke="black" points="2022.5,-252 2022.5,-271 2195.5,-271 2195.5,-252 2022.5,-252"/>
<text text-anchor="middle" x="2109" y="-259" font-family="Helvetica,sans-Serif" font-size="10.00">src/node/rpc/acme_subsystem.h</text>
</a>
</g>
</g>
<!-- Node21&#45;&gt;Node32 -->
<g id="edge57" class="edge">
<title>Node21&#45;&gt;Node32</title>
<path fill="none" stroke="midnightblue" d="M1594.65,-524.24C1730.64,-517.14 1975.09,-501.3 2008,-478 2081.85,-425.7 2103.26,-305.17 2107.91,-271.43"/>
<polygon fill="midnightblue" stroke="midnightblue" points="1594.46,-520.75 1584.65,-524.76 1594.82,-527.74 1594.46,-520.75"/>
</g>
<!-- Node33 -->
<g id="node33" class="node">
<title>Node33</title>
<g id="a_node33"><a xlink:href="network__identity__subsystem_8h.html" target="_top" xlink:title=" ">
<polygon fill="white" stroke="black" points="1770.5,-447.5 1770.5,-477.5 1897.5,-477.5 1897.5,-447.5 1770.5,-447.5"/>
<text text-anchor="start" x="1778.5" y="-465.5" font-family="Helvetica,sans-Serif" font-size="10.00">src/node/rpc/network</text>
<text text-anchor="middle" x="1834" y="-454.5" font-family="Helvetica,sans-Serif" font-size="10.00">_identity_subsystem.h</text>
</a>
</g>
</g>
<!-- Node21&#45;&gt;Node33 -->
<g id="edge60" class="edge">
<title>Node21&#45;&gt;Node33</title>
<path fill="none" stroke="midnightblue" d="M1557.56,-517.95C1615.7,-506.5 1708.5,-488.22 1770.32,-476.04"/>
<polygon fill="midnightblue" stroke="midnightblue" points="1556.62,-514.57 1547.48,-519.94 1557.97,-521.44 1556.62,-514.57"/>
</g>
<!-- Node35 -->
<g id="node35" class="node">
<title>Node35</title>
<g id="a_node35"><a xlink:href="node__operation_8h.html" target="_top" xlink:title=" ">
<polygon fill="white" stroke="black" points="1767,-185 1767,-204 1931,-204 1931,-185 1767,-185"/>
<text text-anchor="middle" x="1849" y="-192" font-family="Helvetica,sans-Serif" font-size="10.00">src/node/rpc/node_operation.h</text>
</a>
</g>
</g>
<!-- Node21&#45;&gt;Node35 -->
<g id="edge64" class="edge">
<title>Node21&#45;&gt;Node35</title>
<path fill="none" stroke="midnightblue" d="M1594.92,-526.22C1697.66,-522.09 1857.1,-510.48 1907,-478 1942.42,-454.94 1956,-438.76 1956,-396.5 1956,-396.5 1956,-396.5 1956,-327.5 1956,-269.38 1892.64,-222.54 1863.43,-204.04"/>
<polygon fill="midnightblue" stroke="midnightblue" points="1594.71,-522.73 1584.85,-526.61 1594.98,-529.72 1594.71,-522.73"/>
</g>
<!-- Node22&#45;&gt;Node6 -->
<g id="edge38" class="edge">
<title>Node22&#45;&gt;Node6</title>
<path fill="none" stroke="midnightblue" d="M1217.76,-461.85C1131.56,-461.3 958.84,-454.63 921,-411 876.1,-359.22 910.9,-123.81 918.59,-75.63"/>
<polygon fill="midnightblue" stroke="midnightblue" points="1217.82,-465.35 1227.83,-461.89 1217.84,-458.35 1217.82,-465.35"/>
</g>
<!-- Node22&#45;&gt;Node9 -->
<g id="edge49" class="edge">
<title>Node22&#45;&gt;Node9</title>
<path fill="none" stroke="midnightblue" d="M1217.75,-461.31C1126.73,-459.94 936.95,-452.1 888,-411 853.01,-381.62 888.07,-346.49 857,-313 802.62,-254.37 767.07,-267.35 690,-246 603.93,-222.16 501.31,-208.31 437.14,-201.33"/>
<polygon fill="midnightblue" stroke="midnightblue" points="1217.78,-464.81 1227.83,-461.44 1217.87,-457.81 1217.78,-464.81"/>
</g>
<!-- Node22&#45;&gt;Node11 -->
<g id="edge50" class="edge">
<title>Node22&#45;&gt;Node11</title>
<path fill="none" stroke="midnightblue" d="M1217.69,-459.08C1106.32,-453.2 842.65,-436.68 812,-411 792.1,-394.33 788.22,-362.06 787.74,-343.52"/>
<polygon fill="midnightblue" stroke="midnightblue" points="1217.81,-462.59 1227.98,-459.62 1218.17,-455.6 1217.81,-462.59"/>
</g>
<!-- Node22&#45;&gt;Node18 -->
<g id="edge48" class="edge">
<title>Node22&#45;&gt;Node18</title>
<path fill="none" stroke="midnightblue" d="M1285.97,-446.66C1298.74,-436.64 1315.93,-423.09 1331,-411 1348,-397.36 1351.85,-393.45 1369,-380 1388.03,-365.08 1410.55,-348.27 1424.03,-338.3"/>
<polygon fill="midnightblue" stroke="midnightblue" points="1283.63,-444.05 1277.91,-452.98 1287.94,-449.56 1283.63,-444.05"/>
</g>
<!-- Node23 -->
<g id="node23" class="node">
<title>Node23</title>
<g id="a_node23"><a xlink:href="js__generic__base_8cpp.html" target="_top" xlink:title=" ">
<polygon fill="white" stroke="black" points="930,-380.5 930,-410.5 1048,-410.5 1048,-380.5 930,-380.5"/>
<text text-anchor="start" x="938" y="-398.5" font-family="Helvetica,sans-Serif" font-size="10.00">src/apps/js_generic</text>
<text text-anchor="middle" x="989" y="-387.5" font-family="Helvetica,sans-Serif" font-size="10.00">/js_generic_base.cpp</text>
</a>
</g>
</g>
<!-- Node22&#45;&gt;Node23 -->
<g id="edge37" class="edge">
<title>Node22&#45;&gt;Node23</title>
<path fill="none" stroke="midnightblue" d="M1220.39,-450.6C1173.02,-439.53 1099.5,-422.34 1048.08,-410.31"/>
<polygon fill="midnightblue" stroke="midnightblue" points="1219.84,-454.07 1230.37,-452.94 1221.43,-447.25 1219.84,-454.07"/>
</g>
<!-- Node24 -->
<g id="node24" class="node">
<title>Node24</title>
<g id="a_node24"><a xlink:href="consensus_8cpp.html" target="_top" xlink:title=" ">
<polygon fill="white" stroke="black" points="1378,-386 1378,-405 1494,-405 1494,-386 1378,-386"/>
<text text-anchor="middle" x="1436" y="-393" font-family="Helvetica,sans-Serif" font-size="10.00">src/js/consensus.cpp</text>
</a>
</g>
</g>
<!-- Node22&#45;&gt;Node24 -->
<g id="edge39" class="edge">
<title>Node22&#45;&gt;Node24</title>
<path fill="none" stroke="midnightblue" d="M1298.8,-449.27C1332.34,-436.37 1384.32,-416.38 1413.73,-405.06"/>
<polygon fill="midnightblue" stroke="midnightblue" points="1297.52,-446.01 1289.44,-452.87 1300.03,-452.55 1297.52,-446.01"/>
</g>
<!-- Node25 -->
<g id="node25" class="node">
<title>Node25</title>
<g id="a_node25"><a xlink:href="conv_8cpp.html" target="_top" xlink:title=" ">
<polygon fill="white" stroke="black" points="1512,-386 1512,-405 1600,-405 1600,-386 1512,-386"/>
<text text-anchor="middle" x="1556" y="-393" font-family="Helvetica,sans-Serif" font-size="10.00">src/js/conv.cpp</text>
</a>
</g>
</g>
<!-- Node22&#45;&gt;Node25 -->
<g id="edge41" class="edge">
<title>Node22&#45;&gt;Node25</title>
<path fill="none" stroke="midnightblue" d="M1316.5,-451.75C1364.38,-442.12 1438.9,-426.61 1503,-411 1510.51,-409.17 1518.57,-407.05 1526.09,-405"/>
<polygon fill="midnightblue" stroke="midnightblue" points="1315.52,-448.38 1306.41,-453.77 1316.9,-455.24 1315.52,-448.38"/>
</g>
<!-- Node26 -->
<g id="node26" class="node">
<title>Node26</title>
<g id="a_node26"><a xlink:href="crypto_8cpp.html" target="_top" xlink:title=" ">
<polygon fill="white" stroke="black" points="1618,-386 1618,-405 1714,-405 1714,-386 1618,-386"/>
<text text-anchor="middle" x="1666" y="-393" font-family="Helvetica,sans-Serif" font-size="10.00">src/js/crypto.cpp</text>
</a>
</g>
</g>
<!-- Node22&#45;&gt;Node26 -->
<g id="edge43" class="edge">
<title>Node22&#45;&gt;Node26</title>
<path fill="none" stroke="midnightblue" d="M1316.43,-455.82C1383.17,-447.77 1505.66,-431.72 1609,-411 1617.41,-409.31 1626.44,-407.17 1634.77,-405.06"/>
<polygon fill="midnightblue" stroke="midnightblue" points="1315.72,-452.38 1306.21,-457.04 1316.55,-459.33 1315.72,-452.38"/>
</g>
<!-- Node27 -->
<g id="node27" class="node">
<title>Node27</title>
<g id="a_node27"><a xlink:href="historical_8cpp.html" target="_top" xlink:title=" ">
<polygon fill="white" stroke="black" points="1212,-386 1212,-405 1322,-405 1322,-386 1212,-386"/>
<text text-anchor="middle" x="1267" y="-393" font-family="Helvetica,sans-Serif" font-size="10.00">src/js/historical.cpp</text>
</a>
</g>
</g>
<!-- Node22&#45;&gt;Node27 -->
<g id="edge45" class="edge">
<title>Node22&#45;&gt;Node27</title>
<path fill="none" stroke="midnightblue" d="M1267,-442.54C1267,-430.17 1267,-414.62 1267,-405.13"/>
<polygon fill="midnightblue" stroke="midnightblue" points="1263.5,-442.73 1267,-452.73 1270.5,-442.73 1263.5,-442.73"/>
</g>
<!-- Node28 -->
<g id="node28" class="node">
<title>Node28</title>
<g id="a_node28"><a xlink:href="openenclave_8cpp.html" target="_top" xlink:title=" ">
<polygon fill="white" stroke="black" points="1066,-386 1066,-405 1194,-405 1194,-386 1066,-386"/>
<text text-anchor="middle" x="1130" y="-393" font-family="Helvetica,sans-Serif" font-size="10.00">src/js/openenclave.cpp</text>
</a>
</g>
</g>
<!-- Node22&#45;&gt;Node28 -->
<g id="edge47" class="edge">
<title>Node22&#45;&gt;Node28</title>
<path fill="none" stroke="midnightblue" d="M1239.48,-448.44C1212.35,-435.57 1171.64,-416.26 1148.27,-405.17"/>
<polygon fill="midnightblue" stroke="midnightblue" points="1238.27,-451.74 1248.81,-452.87 1241.27,-445.42 1238.27,-451.74"/>
</g>
<!-- Node24&#45;&gt;Node18 -->
<g id="edge40" class="edge">
<title>Node24&#45;&gt;Node18</title>
<path fill="none" stroke="midnightblue" d="M1436,-375.54C1436,-363.17 1436,-347.62 1436,-338.13"/>
<polygon fill="midnightblue" stroke="midnightblue" points="1432.5,-375.73 1436,-385.73 1439.5,-375.73 1432.5,-375.73"/>
</g>
<!-- Node25&#45;&gt;Node18 -->
<g id="edge42" class="edge">
<title>Node25&#45;&gt;Node18</title>
<path fill="none" stroke="midnightblue" d="M1531,-380.96C1507.21,-368.07 1472.13,-349.07 1451.93,-338.13"/>
<polygon fill="midnightblue" stroke="midnightblue" points="1529.36,-384.05 1539.82,-385.73 1532.69,-377.89 1529.36,-384.05"/>
</g>
<!-- Node26&#45;&gt;Node18 -->
<g id="edge44" class="edge">
<title>Node26&#45;&gt;Node18</title>
<path fill="none" stroke="midnightblue" d="M1625.63,-383.09C1580.13,-370.23 1507.19,-349.62 1466.3,-338.06"/>
<polygon fill="midnightblue" stroke="midnightblue" points="1624.88,-386.52 1635.46,-385.87 1626.79,-379.78 1624.88,-386.52"/>
</g>
<!-- Node27&#45;&gt;Node18 -->
<g id="edge46" class="edge">
<title>Node27&#45;&gt;Node18</title>
<path fill="none" stroke="midnightblue" d="M1298.8,-382.27C1332.34,-369.37 1384.32,-349.38 1413.73,-338.06"/>
<polygon fill="midnightblue" stroke="midnightblue" points="1297.52,-379.01 1289.44,-385.87 1300.03,-385.55 1297.52,-379.01"/>
</g>
<!-- Node29&#45;&gt;Node6 -->
<g id="edge52" class="edge">
<title>Node29&#45;&gt;Node6</title>
<path fill="none" stroke="midnightblue" d="M1998.64,-169.39C1994.6,-150.38 1985.84,-125 1967,-112 1926.29,-83.9 1198.99,-71.07 981.16,-67.84"/>
<polygon fill="midnightblue" stroke="midnightblue" points="1995.23,-170.22 2000.47,-179.43 2002.12,-168.96 1995.23,-170.22"/>
</g>
<!-- Node30 -->
<g id="node30" class="node">
<title>Node30</title>
<g id="a_node30"><a xlink:href="historical__transaction__fetcher_8h.html" target="_top" xlink:title=" ">
<polygon fill="white" stroke="black" points="1832.5,-112.5 1832.5,-142.5 1957.5,-142.5 1957.5,-112.5 1832.5,-112.5"/>
<text text-anchor="start" x="1840.5" y="-130.5" font-family="Helvetica,sans-Serif" font-size="10.00">src/indexing/historical</text>
<text text-anchor="middle" x="1895" y="-119.5" font-family="Helvetica,sans-Serif" font-size="10.00">_transaction_fetcher.h</text>
</a>
</g>
</g>
<!-- Node29&#45;&gt;Node30 -->
<g id="edge53" class="edge">
<title>Node29&#45;&gt;Node30</title>
<path fill="none" stroke="midnightblue" d="M1969.92,-174.02C1953.27,-163.9 1933.31,-151.77 1918.17,-142.58"/>
<polygon fill="midnightblue" stroke="midnightblue" points="1968.42,-177.2 1978.78,-179.4 1972.05,-171.21 1968.42,-177.2"/>
</g>
<!-- Node30&#45;&gt;Node6 -->
<g id="edge54" class="edge">
<title>Node30&#45;&gt;Node6</title>
<path fill="none" stroke="midnightblue" d="M1822.4,-114.97C1813.85,-113.84 1805.24,-112.82 1797,-112 1491.49,-81.63 1123.96,-71.2 981.02,-68.12"/>
<polygon fill="midnightblue" stroke="midnightblue" points="1821.99,-118.44 1832.37,-116.32 1822.94,-111.51 1821.99,-118.44"/>
</g>
<!-- Node31&#45;&gt;Node4 -->
<g id="edge56" class="edge">
<title>Node31&#45;&gt;Node4</title>
<path fill="none" stroke="midnightblue" d="M621.3,-437.94C617.09,-426.54 612.29,-413.55 609.21,-405.19"/>
<polygon fill="midnightblue" stroke="midnightblue" points="618.05,-439.23 624.79,-447.4 624.61,-436.8 618.05,-439.23"/>
</g>
<!-- Node32&#45;&gt;Node6 -->
<g id="edge58" class="edge">
<title>Node32&#45;&gt;Node6</title>
<path fill="none" stroke="midnightblue" d="M2101.67,-241.96C2086.96,-207.82 2050.21,-136.32 1992,-112 1898.86,-73.09 1194.96,-67.81 981.3,-67.11"/>
<polygon fill="midnightblue" stroke="midnightblue" points="2098.61,-243.72 2105.67,-251.62 2105.08,-241.04 2098.61,-243.72"/>
</g>
<!-- Node33&#45;&gt;Node6 -->
<g id="edge61" class="edge">
<title>Node33&#45;&gt;Node6</title>
<path fill="none" stroke="midnightblue" d="M1867.45,-441.72C1890.65,-425.44 1914.78,-401.61 1899,-380 1784.63,-223.37 1158.62,-107.06 972.32,-75.53"/>
<polygon fill="midnightblue" stroke="midnightblue" points="1865.39,-438.89 1859.02,-447.36 1869.28,-444.71 1865.39,-438.89"/>
</g>
<!-- Node34 -->
<g id="node34" class="node">
<title>Node34</title>
<g id="a_node34"><a xlink:href="historical__queries__adapter_8cpp.html" target="_top" xlink:title=" ">
<polygon fill="white" stroke="black" points="1770,-380.5 1770,-410.5 1890,-410.5 1890,-380.5 1770,-380.5"/>
<text text-anchor="start" x="1778" y="-398.5" font-family="Helvetica,sans-Serif" font-size="10.00">src/node/historical</text>
<text text-anchor="middle" x="1830" y="-387.5" font-family="Helvetica,sans-Serif" font-size="10.00">_queries_adapter.cpp</text>
</a>
</g>
</g>
<!-- Node33&#45;&gt;Node34 -->
<g id="edge62" class="edge">
<title>Node33&#45;&gt;Node34</title>
<path fill="none" stroke="midnightblue" d="M1832.52,-437.4C1831.96,-428.37 1831.35,-418.41 1830.87,-410.58"/>
<polygon fill="midnightblue" stroke="midnightblue" points="1829.02,-437.63 1833.13,-447.4 1836.01,-437.2 1829.02,-437.63"/>
</g>
<!-- Node35&#45;&gt;Node6 -->
<g id="edge65" class="edge">
<title>Node35&#45;&gt;Node6</title>
<path fill="none" stroke="midnightblue" d="M1835.69,-176.99C1818.8,-157.45 1787.68,-125.81 1753,-112 1681.98,-83.72 1161.54,-71.48 981.27,-68.06"/>
<polygon fill="midnightblue" stroke="midnightblue" points="1833.11,-179.36 1842.21,-184.78 1838.47,-174.87 1833.11,-179.36"/>
</g>
</g>
</svg>
        <g id="navigator" transform="translate(0 0)" fill="#404254">
                <rect fill="#f2f5e9" fill-opacity="0.5" stroke="#606060" stroke-width=".5" x="0" y="0" width="60" height="60"/>
                <use id="zoomplus" xlink:href="#zoomPlus" x="17" y="9" onmousedown="handleZoom(evt,'in')"/>
                <use id="zoomminus" xlink:href="#zoomMin" x="42" y="9" onmousedown="handleZoom(evt,'out')"/>
                <use id="reset" xlink:href="#resetDef" x="30" y="36" onmousedown="handleReset()"/>
                <g id="arrowUp" xlink:href="#dirArrow" transform="translate(30 24)" onmousedown="handlePan(0,-1)">
                  <use xlink:href="#rim" fill="#404040">
                        <set attributeName="fill" to="#808080" begin="arrowUp.mouseover" end="arrowUp.mouseout"/>
                  </use>
                  <path fill="none" stroke="white" stroke-width="1.5" d="M0,-3.0v7 M-2.5,-0.5L0,-3.0L2.5,-0.5"/>
                </g>
                <g id="arrowRight" xlink:href="#dirArrow" transform="rotate(90) translate(36 -43)" onmousedown="handlePan(1,0)">
                  <use xlink:href="#rim" fill="#404040">
                        <set attributeName="fill" to="#808080" begin="arrowRight.mouseover" end="arrowRight.mouseout"/>
                  </use>
                  <path fill="none" stroke="white" stroke-width="1.5" d="M0,-3.0v7 M-2.5,-0.5L0,-3.0L2.5,-0.5"/>
                </g>
                <g id="arrowDown" xlink:href="#dirArrow" transform="rotate(180) translate(-30 -48)" onmousedown="handlePan(0,1)">
                  <use xlink:href="#rim" fill="#404040">
                        <set attributeName="fill" to="#808080" begin="arrowDown.mouseover" end="arrowDown.mouseout"/>
                  </use>
                  <path fill="none" stroke="white" stroke-width="1.5" d="M0,-3.0v7 M-2.5,-0.5L0,-3.0L2.5,-0.5"/>
                </g>
                <g id="arrowLeft" xlink:href="#dirArrow" transform="rotate(270) translate(-36 17)" onmousedown="handlePan(-1,0)">
                  <use xlink:href="#rim" fill="#404040">
                        <set attributeName="fill" to="#808080" begin="arrowLeft.mouseover" end="arrowLeft.mouseout"/>
                  </use>
                  <path fill="none" stroke="white" stroke-width="1.5" d="M0,-3.0v7 M-2.5,-0.5L0,-3.0L2.5,-0.5"/>
                </g>
        </g>
        <svg viewBox="0 0 15 15" width="100%" height="30px" preserveAspectRatio="xMaxYMin meet">
         <g id="arrow_out" transform="scale(0.3 0.3)">
          <a xlink:href="common_2configuration_8h__dep__incl_org.svg" target="_base">
           <rect id="button" ry="5" rx="5" y="6" x="6" height="38" width="38"
                fill="#f2f5e9" fill-opacity="0.5" stroke="#606060" stroke-width="1.0"/>
           <path id="arrow"
             d="M 11.500037,31.436501 C 11.940474,20.09759 22.043105,11.32322 32.158766,21.979434 L 37.068811,17.246167 C 37.068811,17.246167 37.088388,32 37.088388,32 L 22.160133,31.978069 C 22.160133,31.978069 26.997745,27.140456 26.997745,27.140456 C 18.528582,18.264221 13.291696,25.230495 11.500037,31.436501 z"
             style="fill:#404040;"/>
          </a>
         </g>
        </svg>
</svg>
