<?xml version="1.0" encoding="UTF-8" standalone="no"?>
<!DOCTYPE svg PUBLIC "-//W3C//DTD SVG 1.1//EN"
 "http://www.w3.org/Graphics/SVG/1.1/DTD/svg11.dtd">
<!-- Generated by graphviz version 2.43.0 (0)
 -->
<!-- Title: include/ccf/common_endpoint_registry.h Pages: 1 -->
<svg width="1705pt" height="419pt"
 viewBox="0.00 0.00 1705.00 419.00" xmlns="http://www.w3.org/2000/svg" xmlns:xlink="http://www.w3.org/1999/xlink">
<g id="graph0" class="graph" transform="scale(1 1) rotate(0) translate(4 415)">
<title>include/ccf/common_endpoint_registry.h</title>
<polygon fill="white" stroke="transparent" points="-4,4 -4,-415 1701,-415 1701,4 -4,4"/>
<!-- Node1 -->
<g id="node1" class="node">
<title>Node1</title>
<g id="a_node1"><a xlink:title=" ">
<polygon fill="#bfbfbf" stroke="black" points="1215.5,-380.5 1215.5,-410.5 1330.5,-410.5 1330.5,-380.5 1215.5,-380.5"/>
<text text-anchor="start" x="1223.5" y="-398.5" font-family="Helvetica,sans-Serif" font-size="10.00">include/ccf/common</text>
<text text-anchor="middle" x="1273" y="-387.5" font-family="Helvetica,sans-Serif" font-size="10.00">_endpoint_registry.h</text>
</a>
</g>
</g>
<!-- Node2 -->
<g id="node2" class="node">
<title>Node2</title>
<g id="a_node2"><a xlink:href="app__interface_8h.html" target="_top" xlink:title=" ">
<polygon fill="white" stroke="black" points="679,-190.5 679,-209.5 827,-209.5 827,-190.5 679,-190.5"/>
<text text-anchor="middle" x="753" y="-197.5" font-family="Helvetica,sans-Serif" font-size="10.00">include/ccf/app_interface.h</text>
</a>
</g>
</g>
<!-- Node1&#45;&gt;Node2 -->
<g id="edge1" class="edge">
<title>Node1&#45;&gt;Node2</title>
<path fill="none" stroke="midnightblue" d="M1213.23,-377.55C1181.72,-368.28 1142.53,-356.21 1108,-344 978.02,-298.03 825.52,-232.63 772.4,-209.5"/>
<polygon fill="midnightblue" stroke="midnightblue" points="1212.6,-381.02 1223.18,-380.46 1214.56,-374.3 1212.6,-381.02"/>
</g>
<!-- Node16 -->
<g id="node16" class="node">
<title>Node16</title>
<g id="a_node16"><a xlink:href="common__endpoint__registry_8cpp.html" target="_top" xlink:title=" ">
<polygon fill="white" stroke="black" points="1117,-313.5 1117,-343.5 1245,-343.5 1245,-313.5 1117,-313.5"/>
<text text-anchor="start" x="1125" y="-331.5" font-family="Helvetica,sans-Serif" font-size="10.00">src/endpoints/common</text>
<text text-anchor="middle" x="1181" y="-320.5" font-family="Helvetica,sans-Serif" font-size="10.00">_endpoint_registry.cpp</text>
</a>
</g>
</g>
<!-- Node1&#45;&gt;Node16 -->
<g id="edge18" class="edge">
<title>Node1&#45;&gt;Node16</title>
<path fill="none" stroke="midnightblue" d="M1244.62,-374.45C1230.47,-364.45 1213.69,-352.6 1200.92,-343.58"/>
<polygon fill="midnightblue" stroke="midnightblue" points="1242.85,-377.48 1253.04,-380.4 1246.89,-371.77 1242.85,-377.48"/>
</g>
<!-- Node17 -->
<g id="node17" class="node">
<title>Node17</title>
<g id="a_node17"><a xlink:href="acme__challenge__frontend_8h.html" target="_top" xlink:title=" ">
<polygon fill="white" stroke="black" points="1301,-313.5 1301,-343.5 1441,-343.5 1441,-313.5 1301,-313.5"/>
<text text-anchor="start" x="1309" y="-331.5" font-family="Helvetica,sans-Serif" font-size="10.00">src/node/acme_challenge</text>
<text text-anchor="middle" x="1371" y="-320.5" font-family="Helvetica,sans-Serif" font-size="10.00">_frontend.h</text>
</a>
</g>
</g>
<!-- Node1&#45;&gt;Node17 -->
<g id="edge19" class="edge">
<title>Node1&#45;&gt;Node17</title>
<path fill="none" stroke="midnightblue" d="M1302.8,-374.73C1317.97,-364.68 1336.04,-352.68 1349.78,-343.58"/>
<polygon fill="midnightblue" stroke="midnightblue" points="1300.66,-371.95 1294.26,-380.4 1304.53,-377.79 1300.66,-371.95"/>
</g>
<!-- Node21 -->
<g id="node21" class="node">
<title>Node21</title>
<g id="a_node21"><a xlink:href="member__frontend_8h.html" target="_top" xlink:title=" ">
<polygon fill="white" stroke="black" points="1213,-246.5 1213,-276.5 1333,-276.5 1333,-246.5 1213,-246.5"/>
<text text-anchor="start" x="1221" y="-264.5" font-family="Helvetica,sans-Serif" font-size="10.00">src/node/rpc/member</text>
<text text-anchor="middle" x="1273" y="-253.5" font-family="Helvetica,sans-Serif" font-size="10.00">_frontend.h</text>
</a>
</g>
</g>
<!-- Node1&#45;&gt;Node21 -->
<g id="edge26" class="edge">
<title>Node1&#45;&gt;Node21</title>
<path fill="none" stroke="midnightblue" d="M1273,-370.02C1273,-342.51 1273,-298.79 1273,-276.52"/>
<polygon fill="midnightblue" stroke="midnightblue" points="1269.5,-370.37 1273,-380.37 1276.5,-370.37 1269.5,-370.37"/>
</g>
<!-- Node22 -->
<g id="node22" class="node">
<title>Node22</title>
<g id="a_node22"><a xlink:href="node__frontend_8h.html" target="_top" xlink:title=" ">
<polygon fill="white" stroke="black" points="1539,-319 1539,-338 1697,-338 1697,-319 1539,-319"/>
<text text-anchor="middle" x="1618" y="-326" font-family="Helvetica,sans-Serif" font-size="10.00">src/node/rpc/node_frontend.h</text>
</a>
</g>
</g>
<!-- Node1&#45;&gt;Node22 -->
<g id="edge28" class="edge">
<title>Node1&#45;&gt;Node22</title>
<path fill="none" stroke="midnightblue" d="M1340.6,-381.76C1409.21,-368.84 1513.52,-349.19 1572.74,-338.03"/>
<polygon fill="midnightblue" stroke="midnightblue" points="1339.92,-378.33 1330.75,-383.62 1341.22,-385.21 1339.92,-378.33"/>
</g>
<!-- Node3 -->
<g id="node3" class="node">
<title>Node3</title>
<g id="a_node3"><a xlink:href="logging_8cpp.html" target="_top" xlink:title=" ">
<polygon fill="white" stroke="black" points="768.5,-123.5 768.5,-153.5 891.5,-153.5 891.5,-123.5 768.5,-123.5"/>
<text text-anchor="start" x="776.5" y="-141.5" font-family="Helvetica,sans-Serif" font-size="10.00">samples/apps/logging</text>
<text text-anchor="middle" x="830" y="-130.5" font-family="Helvetica,sans-Serif" font-size="10.00">/logging.cpp</text>
</a>
</g>
</g>
<!-- Node2&#45;&gt;Node3 -->
<g id="edge2" class="edge">
<title>Node2&#45;&gt;Node3</title>
<path fill="none" stroke="midnightblue" d="M772.16,-184.2C784.3,-174.81 799.91,-162.75 811.85,-153.52"/>
<polygon fill="midnightblue" stroke="midnightblue" points="769.81,-181.59 764.03,-190.48 774.09,-187.13 769.81,-181.59"/>
</g>
<!-- Node4 -->
<g id="node4" class="node">
<title>Node4</title>
<g id="a_node4"><a xlink:href="nobuiltins_8cpp.html" target="_top" xlink:title=" ">
<polygon fill="white" stroke="black" points="909.5,-123.5 909.5,-153.5 1044.5,-153.5 1044.5,-123.5 909.5,-123.5"/>
<text text-anchor="start" x="917.5" y="-141.5" font-family="Helvetica,sans-Serif" font-size="10.00">samples/apps/nobuiltins</text>
<text text-anchor="middle" x="977" y="-130.5" font-family="Helvetica,sans-Serif" font-size="10.00">/nobuiltins.cpp</text>
</a>
</g>
</g>
<!-- Node2&#45;&gt;Node4 -->
<g id="edge3" class="edge">
<title>Node2&#45;&gt;Node4</title>
<path fill="none" stroke="midnightblue" d="M794.94,-187.86C831.52,-178.14 884.74,-164.01 924.21,-153.52"/>
<polygon fill="midnightblue" stroke="midnightblue" points="793.86,-184.53 785.09,-190.48 795.66,-191.29 793.86,-184.53"/>
</g>
<!-- Node5 -->
<g id="node5" class="node">
<title>Node5</title>
<g id="a_node5"><a xlink:href="executor__auth__policy_8h.html" target="_top" xlink:title=" ">
<polygon fill="white" stroke="black" points="602,-123.5 602,-153.5 750,-153.5 750,-123.5 602,-123.5"/>
<text text-anchor="start" x="610" y="-141.5" font-family="Helvetica,sans-Serif" font-size="10.00">src/apps/external_executor</text>
<text text-anchor="middle" x="676" y="-130.5" font-family="Helvetica,sans-Serif" font-size="10.00">/executor_auth_policy.h</text>
</a>
</g>
</g>
<!-- Node2&#45;&gt;Node5 -->
<g id="edge4" class="edge">
<title>Node2&#45;&gt;Node5</title>
<path fill="none" stroke="midnightblue" d="M733.84,-184.2C721.7,-174.81 706.09,-162.75 694.15,-153.52"/>
<polygon fill="midnightblue" stroke="midnightblue" points="731.91,-187.13 741.97,-190.48 736.19,-181.59 731.91,-187.13"/>
</g>
<!-- Node6 -->
<g id="node6" class="node">
<title>Node6</title>
<g id="a_node6"><a xlink:href="external__executor_8cpp.html" target="_top" xlink:title=" ">
<polygon fill="white" stroke="black" points="800,-56.5 800,-86.5 948,-86.5 948,-56.5 800,-56.5"/>
<text text-anchor="start" x="808" y="-74.5" font-family="Helvetica,sans-Serif" font-size="10.00">src/apps/external_executor</text>
<text text-anchor="middle" x="874" y="-63.5" font-family="Helvetica,sans-Serif" font-size="10.00">/external_executor.cpp</text>
</a>
</g>
</g>
<!-- Node2&#45;&gt;Node6 -->
<g id="edge6" class="edge">
<title>Node2&#45;&gt;Node6</title>
<path fill="none" stroke="midnightblue" d="M837.57,-198.24C916.63,-195.52 1026.52,-185.89 1054,-154 1089.43,-112.87 1012.28,-91.45 948.19,-81.08"/>
<polygon fill="midnightblue" stroke="midnightblue" points="837,-194.75 827.12,-198.56 837.22,-201.75 837,-194.75"/>
</g>
<!-- Node7 -->
<g id="node7" class="node">
<title>Node7</title>
<g id="a_node7"><a xlink:href="js__generic_8cpp.html" target="_top" xlink:title=" ">
<polygon fill="white" stroke="black" points="477,-56.5 477,-86.5 587,-86.5 587,-56.5 477,-56.5"/>
<text text-anchor="start" x="485" y="-74.5" font-family="Helvetica,sans-Serif" font-size="10.00">src/apps/js_generic</text>
<text text-anchor="middle" x="532" y="-63.5" font-family="Helvetica,sans-Serif" font-size="10.00">/js_generic.cpp</text>
</a>
</g>
</g>
<!-- Node2&#45;&gt;Node7 -->
<g id="edge7" class="edge">
<title>Node2&#45;&gt;Node7</title>
<path fill="none" stroke="midnightblue" d="M677.47,-188.32C649.19,-181.72 617.9,-171.08 593,-154 567.49,-136.51 548.35,-104.84 538.8,-86.56"/>
<polygon fill="midnightblue" stroke="midnightblue" points="676.82,-191.76 687.34,-190.5 678.32,-184.93 676.82,-191.76"/>
</g>
<!-- Node8 -->
<g id="node8" class="node">
<title>Node8</title>
<g id="a_node8"><a xlink:href="js__generic__base_8cpp.html" target="_top" xlink:title=" ">
<polygon fill="white" stroke="black" points="0,-123.5 0,-153.5 118,-153.5 118,-123.5 0,-123.5"/>
<text text-anchor="start" x="8" y="-141.5" font-family="Helvetica,sans-Serif" font-size="10.00">src/apps/js_generic</text>
<text text-anchor="middle" x="59" y="-130.5" font-family="Helvetica,sans-Serif" font-size="10.00">/js_generic_base.cpp</text>
</a>
</g>
</g>
<!-- Node2&#45;&gt;Node8 -->
<g id="edge8" class="edge">
<title>Node2&#45;&gt;Node8</title>
<path fill="none" stroke="midnightblue" d="M668.66,-196.64C548.06,-192.42 319.62,-181.33 127,-154 124.13,-153.59 121.2,-153.14 118.25,-152.64"/>
<polygon fill="midnightblue" stroke="midnightblue" points="668.81,-200.15 678.93,-196.99 669.05,-193.15 668.81,-200.15"/>
</g>
<!-- Node9 -->
<g id="node9" class="node">
<title>Node9</title>
<g id="a_node9"><a xlink:href="js__generic__base_8h.html" target="_top" xlink:title=" ">
<polygon fill="white" stroke="black" points="436,-123.5 436,-153.5 546,-153.5 546,-123.5 436,-123.5"/>
<text text-anchor="start" x="444" y="-141.5" font-family="Helvetica,sans-Serif" font-size="10.00">src/apps/js_generic</text>
<text text-anchor="middle" x="491" y="-130.5" font-family="Helvetica,sans-Serif" font-size="10.00">/js_generic_base.h</text>
</a>
</g>
</g>
<!-- Node2&#45;&gt;Node9 -->
<g id="edge9" class="edge">
<title>Node2&#45;&gt;Node9</title>
<path fill="none" stroke="midnightblue" d="M705.7,-188.26C660.88,-178.08 593.57,-162.79 546.3,-152.06"/>
<polygon fill="midnightblue" stroke="midnightblue" points="704.93,-191.67 715.46,-190.48 706.49,-184.85 704.93,-191.67"/>
</g>
<!-- Node10 -->
<g id="node10" class="node">
<title>Node10</title>
<g id="a_node10"><a xlink:href="tpcc_8cpp.html" target="_top" xlink:title=" ">
<polygon fill="white" stroke="black" points="272.5,-129 272.5,-148 417.5,-148 417.5,-129 272.5,-129"/>
<text text-anchor="middle" x="345" y="-136" font-family="Helvetica,sans-Serif" font-size="10.00">src/apps/tpcc/app/tpcc.cpp</text>
</a>
</g>
</g>
<!-- Node2&#45;&gt;Node10 -->
<g id="edge11" class="edge">
<title>Node2&#45;&gt;Node10</title>
<path fill="none" stroke="midnightblue" d="M675.84,-189.19C609.71,-180.57 511.95,-167.37 427,-154 415.43,-152.18 402.98,-150.06 391.35,-148.01"/>
<polygon fill="midnightblue" stroke="midnightblue" points="675.41,-192.66 685.77,-190.48 676.31,-185.72 675.41,-192.66"/>
</g>
<!-- Node11 -->
<g id="node11" class="node">
<title>Node11</title>
<g id="a_node11"><a xlink:href="src_2enclave_2enclave_8h.html" target="_top" xlink:title=" ">
<polygon fill="white" stroke="black" points="1300,-62 1300,-81 1422,-81 1422,-62 1300,-62"/>
<text text-anchor="middle" x="1361" y="-69" font-family="Helvetica,sans-Serif" font-size="10.00">src/enclave/enclave.h</text>
</a>
</g>
</g>
<!-- Node2&#45;&gt;Node11 -->
<g id="edge12" class="edge">
<title>Node2&#45;&gt;Node11</title>
<path fill="none" stroke="midnightblue" d="M837.39,-194.99C902.73,-190.02 994.82,-178.89 1072,-154 1100.19,-144.91 1103.17,-133.16 1131,-123 1187.26,-102.47 1254.45,-88.9 1301.64,-81.04"/>
<polygon fill="midnightblue" stroke="midnightblue" points="836.86,-191.52 827.14,-195.74 837.36,-198.51 836.86,-191.52"/>
</g>
<!-- Node13 -->
<g id="node13" class="node">
<title>Node13</title>
<g id="a_node13"><a xlink:href="no__plugins_8cpp.html" target="_top" xlink:title=" ">
<polygon fill="white" stroke="black" points="136,-129 136,-148 254,-148 254,-129 136,-129"/>
<text text-anchor="middle" x="195" y="-136" font-family="Helvetica,sans-Serif" font-size="10.00">src/js/no_plugins.cpp</text>
</a>
</g>
</g>
<!-- Node2&#45;&gt;Node13 -->
<g id="edge14" class="edge">
<title>Node2&#45;&gt;Node13</title>
<path fill="none" stroke="midnightblue" d="M668.83,-194.22C571.11,-187.98 405.27,-175.27 264,-154 253.47,-152.41 242.13,-150.23 231.74,-148.04"/>
<polygon fill="midnightblue" stroke="midnightblue" points="668.75,-197.72 678.95,-194.85 669.19,-190.73 668.75,-197.72"/>
</g>
<!-- Node15 -->
<g id="node15" class="node">
<title>Node15</title>
<g id="a_node15"><a xlink:href="user__frontend_8h.html" target="_top" xlink:title=" ">
<polygon fill="white" stroke="black" points="1139.5,-129 1139.5,-148 1294.5,-148 1294.5,-129 1139.5,-129"/>
<text text-anchor="middle" x="1217" y="-136" font-family="Helvetica,sans-Serif" font-size="10.00">src/node/rpc/user_frontend.h</text>
</a>
</g>
</g>
<!-- Node2&#45;&gt;Node15 -->
<g id="edge16" class="edge">
<title>Node2&#45;&gt;Node15</title>
<path fill="none" stroke="midnightblue" d="M837.6,-189.64C913.08,-181.09 1026.54,-167.71 1125,-154 1137.97,-152.19 1151.95,-150.08 1164.99,-148.03"/>
<polygon fill="midnightblue" stroke="midnightblue" points="836.75,-186.22 827.21,-190.82 837.54,-193.17 836.75,-186.22"/>
</g>
<!-- Node5&#45;&gt;Node6 -->
<g id="edge5" class="edge">
<title>Node5&#45;&gt;Node6</title>
<path fill="none" stroke="midnightblue" d="M728.61,-120.23C760.64,-109.71 801.04,-96.45 831.12,-86.58"/>
<polygon fill="midnightblue" stroke="midnightblue" points="727.37,-116.95 718.96,-123.4 729.56,-123.6 727.37,-116.95"/>
</g>
<!-- Node9&#45;&gt;Node7 -->
<g id="edge10" class="edge">
<title>Node9&#45;&gt;Node7</title>
<path fill="none" stroke="midnightblue" d="M505.28,-114.87C511.21,-105.46 517.91,-94.83 523.12,-86.58"/>
<polygon fill="midnightblue" stroke="midnightblue" points="502.27,-113.07 499.9,-123.4 508.19,-116.81 502.27,-113.07"/>
</g>
<!-- Node12 -->
<g id="node12" class="node">
<title>Node12</title>
<g id="a_node12"><a xlink:href="enclave_2main_8cpp.html" target="_top" xlink:title=" ">
<polygon fill="white" stroke="black" points="1301,-0.5 1301,-19.5 1421,-19.5 1421,-0.5 1301,-0.5"/>
<text text-anchor="middle" x="1361" y="-7.5" font-family="Helvetica,sans-Serif" font-size="10.00">src/enclave/main.cpp</text>
</a>
</g>
</g>
<!-- Node11&#45;&gt;Node12 -->
<g id="edge13" class="edge">
<title>Node11&#45;&gt;Node12</title>
<path fill="none" stroke="midnightblue" d="M1361,-51.82C1361,-41 1361,-27.9 1361,-19.51"/>
<polygon fill="midnightblue" stroke="midnightblue" points="1357.5,-51.98 1361,-61.98 1364.5,-51.98 1357.5,-51.98"/>
</g>
<!-- Node14 -->
<g id="node14" class="node">
<title>Node14</title>
<g id="a_node14"><a xlink:href="wrap_8cpp.html" target="_top" xlink:title=" ">
<polygon fill="white" stroke="black" points="150.5,-62 150.5,-81 239.5,-81 239.5,-62 150.5,-62"/>
<text text-anchor="middle" x="195" y="-69" font-family="Helvetica,sans-Serif" font-size="10.00">src/js/wrap.cpp</text>
</a>
</g>
</g>
<!-- Node13&#45;&gt;Node14 -->
<g id="edge15" class="edge">
<title>Node13&#45;&gt;Node14</title>
<path fill="none" stroke="midnightblue" d="M195,-118.54C195,-106.17 195,-90.62 195,-81.13"/>
<polygon fill="midnightblue" stroke="midnightblue" points="191.5,-118.73 195,-128.73 198.5,-118.73 191.5,-118.73"/>
</g>
<!-- Node15&#45;&gt;Node11 -->
<g id="edge17" class="edge">
<title>Node15&#45;&gt;Node11</title>
<path fill="none" stroke="midnightblue" d="M1245.55,-124.61C1274.07,-111.74 1317.12,-92.31 1341.8,-81.17"/>
<polygon fill="midnightblue" stroke="midnightblue" points="1243.8,-121.56 1236.12,-128.87 1246.68,-127.94 1243.8,-121.56"/>
</g>
<!-- Node17&#45;&gt;Node11 -->
<g id="edge20" class="edge">
<title>Node17&#45;&gt;Node11</title>
<path fill="none" stroke="midnightblue" d="M1370.05,-303.21C1367.89,-248.21 1362.71,-116.19 1361.34,-81.16"/>
<polygon fill="midnightblue" stroke="midnightblue" points="1366.56,-303.57 1370.45,-313.43 1373.55,-303.3 1366.56,-303.57"/>
</g>
<!-- Node18 -->
<g id="node18" class="node">
<title>Node18</title>
<g id="a_node18"><a xlink:href="ccf__acme__client_8h.html" target="_top" xlink:title=" ">
<polygon fill="white" stroke="black" points="1388.5,-252 1388.5,-271 1537.5,-271 1537.5,-252 1388.5,-252"/>
<text text-anchor="middle" x="1463" y="-259" font-family="Helvetica,sans-Serif" font-size="10.00">src/node/ccf_acme_client.h</text>
</a>
</g>
</g>
<!-- Node17&#45;&gt;Node18 -->
<g id="edge21" class="edge">
<title>Node17&#45;&gt;Node18</title>
<path fill="none" stroke="midnightblue" d="M1399.58,-307.31C1416.86,-295.1 1437.98,-280.18 1450.96,-271.01"/>
<polygon fill="midnightblue" stroke="midnightblue" points="1397.11,-304.77 1390.96,-313.4 1401.15,-310.48 1397.11,-304.77"/>
</g>
<!-- Node19 -->
<g id="node19" class="node">
<title>Node19</title>
<g id="a_node19"><a xlink:href="node__state_8h.html" target="_top" xlink:title=" ">
<polygon fill="white" stroke="black" points="1419,-190.5 1419,-209.5 1543,-209.5 1543,-190.5 1419,-190.5"/>
<text text-anchor="middle" x="1481" y="-197.5" font-family="Helvetica,sans-Serif" font-size="10.00">src/node/node_state.h</text>
</a>
</g>
</g>
<!-- Node18&#45;&gt;Node19 -->
<g id="edge22" class="edge">
<title>Node18&#45;&gt;Node19</title>
<path fill="none" stroke="midnightblue" d="M1468.55,-242.16C1471.84,-231.27 1475.86,-217.99 1478.43,-209.51"/>
<polygon fill="midnightblue" stroke="midnightblue" points="1465.12,-241.39 1465.58,-251.98 1471.82,-243.42 1465.12,-241.39"/>
</g>
<!-- Node19&#45;&gt;Node11 -->
<g id="edge23" class="edge">
<title>Node19&#45;&gt;Node11</title>
<path fill="none" stroke="midnightblue" d="M1457.6,-185.03C1445.05,-176.9 1429.8,-165.91 1418,-154 1394.8,-130.56 1374.49,-96.73 1365.67,-81.06"/>
<polygon fill="midnightblue" stroke="midnightblue" points="1455.84,-188.06 1466.16,-190.43 1459.56,-182.14 1455.84,-188.06"/>
</g>
<!-- Node20 -->
<g id="node20" class="node">
<title>Node20</title>
<g id="a_node20"><a xlink:href="gov__effects_8h.html" target="_top" xlink:title=" ">
<polygon fill="white" stroke="black" points="1427,-129 1427,-148 1571,-148 1571,-129 1427,-129"/>
<text text-anchor="middle" x="1499" y="-136" font-family="Helvetica,sans-Serif" font-size="10.00">src/node/rpc/gov_effects.h</text>
</a>
</g>
</g>
<!-- Node19&#45;&gt;Node20 -->
<g id="edge24" class="edge">
<title>Node19&#45;&gt;Node20</title>
<path fill="none" stroke="midnightblue" d="M1486.55,-180.66C1489.84,-169.77 1493.86,-156.49 1496.43,-148.01"/>
<polygon fill="midnightblue" stroke="midnightblue" points="1483.12,-179.89 1483.58,-190.48 1489.82,-181.92 1483.12,-179.89"/>
</g>
<!-- Node20&#45;&gt;Node11 -->
<g id="edge25" class="edge">
<title>Node20&#45;&gt;Node11</title>
<path fill="none" stroke="midnightblue" d="M1471.28,-124.44C1443.95,-111.57 1402.95,-92.26 1379.4,-81.17"/>
<polygon fill="midnightblue" stroke="midnightblue" points="1470.14,-127.77 1480.67,-128.87 1473.12,-121.44 1470.14,-127.77"/>
</g>
<!-- Node21&#45;&gt;Node11 -->
<g id="edge27" class="edge">
<title>Node21&#45;&gt;Node11</title>
<path fill="none" stroke="midnightblue" d="M1283.91,-237.19C1303.54,-195.25 1343.99,-108.85 1356.92,-81.21"/>
<polygon fill="midnightblue" stroke="midnightblue" points="1280.68,-235.83 1279.61,-246.37 1287.02,-238.8 1280.68,-235.83"/>
</g>
<!-- Node22&#45;&gt;Node11 -->
<g id="edge29" class="edge">
<title>Node22&#45;&gt;Node11</title>
<path fill="none" stroke="midnightblue" d="M1648.95,-314.34C1664.27,-306.05 1681.31,-293.71 1690,-277 1696.36,-264.78 1694.92,-258.87 1690,-246 1663.83,-177.49 1643.13,-160.32 1580,-123 1531.63,-94.41 1468.39,-82 1422.3,-76.62"/>
<polygon fill="midnightblue" stroke="midnightblue" points="1647.08,-311.36 1639.72,-318.99 1650.22,-317.62 1647.08,-311.36"/>
</g>
<!-- Node23 -->
<g id="node23" class="node">
<title>Node23</title>
<g id="a_node23"><a xlink:href="jwt__key__auto__refresh_8h.html" target="_top" xlink:title=" ">
<polygon fill="white" stroke="black" points="1555.5,-246.5 1555.5,-276.5 1680.5,-276.5 1680.5,-246.5 1555.5,-246.5"/>
<text text-anchor="start" x="1563.5" y="-264.5" font-family="Helvetica,sans-Serif" font-size="10.00">src/node/jwt_key_auto</text>
<text text-anchor="middle" x="1618" y="-253.5" font-family="Helvetica,sans-Serif" font-size="10.00">_refresh.h</text>
</a>
</g>
</g>
<!-- Node22&#45;&gt;Node23 -->
<g id="edge30" class="edge">
<title>Node22&#45;&gt;Node23</title>
<path fill="none" stroke="midnightblue" d="M1618,-308.41C1618,-298.22 1618,-285.9 1618,-276.59"/>
<polygon fill="midnightblue" stroke="midnightblue" points="1614.5,-308.73 1618,-318.73 1621.5,-308.73 1614.5,-308.73"/>
</g>
<!-- Node23&#45;&gt;Node19 -->
<g id="edge31" class="edge">
<title>Node23&#45;&gt;Node19</title>
<path fill="none" stroke="midnightblue" d="M1576.26,-242.37C1551.25,-231.51 1520.6,-218.2 1500.93,-209.66"/>
<polygon fill="midnightblue" stroke="midnightblue" points="1574.97,-245.63 1585.53,-246.4 1577.75,-239.21 1574.97,-245.63"/>
</g>
</g>
</svg>
