<?xml version="1.0" encoding="UTF-8" standalone="no"?>
<!DOCTYPE svg PUBLIC "-//W3C//DTD SVG 1.1//EN"
 "http://www.w3.org/Graphics/SVG/1.1/DTD/svg11.dtd">
<!-- Generated by graphviz version 2.43.0 (0)
 -->
<!-- Title: include/ccf Pages: 1 -->
<!--zoomable 471 -->
<svg id="main" version="1.1" xmlns="http://www.w3.org/2000/svg" xmlns:xlink="http://www.w3.org/1999/xlink" xml:space="preserve" onload="init(evt)">
<style type="text/css"><![CDATA[
.edge:hover path { stroke: red; }
.edge:hover polygon { stroke: red; fill: red; }
]]></style>
<script type="text/javascript"><![CDATA[
var edges = document.getElementsByTagName('g');
if (edges && edges.length) {
  for (var i=0;i<edges.length;i++) {
    if (edges[i].id.substr(0,4)=='edge') {
      edges[i].setAttribute('class','edge');
    }
  }
}
]]></script>
        <defs>
                <circle id="rim" cx="0" cy="0" r="7"/>
                <circle id="rim2" cx="0" cy="0" r="3.5"/>
                <g id="zoomPlus">
                        <use xlink:href="#rim" fill="#404040">
                                <set attributeName="fill" to="#808080" begin="zoomplus.mouseover" end="zoomplus.mouseout"/>
                        </use>
                        <path d="M-4,0h8M0,-4v8" fill="none" stroke="white" stroke-width="1.5" pointer-events="none"/>
                </g>
                <g id="zoomMin">
                        <use xlink:href="#rim" fill="#404040">
                                <set attributeName="fill" to="#808080" begin="zoomminus.mouseover" end="zoomminus.mouseout"/>
                        </use>
                        <path d="M-4,0h8" fill="none" stroke="white" stroke-width="1.5" pointer-events="none"/>
                </g>
                <g id="dirArrow">
                        <path fill="none" stroke="white" stroke-width="1.5" d="M0,-3.0v7 M-2.5,-0.5L0,-3.0L2.5,-0.5"/>
                </g>
               <g id="resetDef">
                       <use xlink:href="#rim2" fill="#404040">
                               <set attributeName="fill" to="#808080" begin="reset.mouseover" end="reset.mouseout"/>
                       </use>
               </g>
        </defs>

<script type="text/javascript">
var viewWidth = 382;
var viewHeight = 471;
var sectionId = 'dynsection-0';
</script>
<script xlink:href="svgpan.js"/>
<svg id="graph" class="graph">
<g id="viewport">
<title>include/ccf</title>
<polygon fill="white" stroke="transparent" points="-4,4 -4,-467 378,-467 378,4 -4,4"/>
<g id="clust1" class="cluster">
<title>clusterdir_d44c64559bbebec7f509842c48db8b23</title>
<g id="a_clust1"><a xlink:href="dir_d44c64559bbebec7f509842c48db8b23.html" target="_top" xlink:title="include">
<polygon fill="#edf0f7" stroke="#404040" stroke-dasharray="5,2" points="8,-8 8,-455 312,-455 312,-8 8,-8"/>
<text text-anchor="middle" x="160" y="-443" font-family="Helvetica,sans-Serif" font-size="10.00">include</text>
</a>
</g>
</g>
<g id="clust2" class="cluster">
<title>clusterdir_c3d33925c9fc81f340cd5350e8f8562d</title>
<g id="a_clust2"><a xlink:href="dir_c3d33925c9fc81f340cd5350e8f8562d.html" target="_top">
<polygon fill="#edf0f7" stroke="#404040" stroke-width="2" points="16,-16 16,-428 304,-428 304,-16 16,-16"/>
</a>
</g>
</g>
<!-- dir_c3d33925c9fc81f340cd5350e8f8562d -->
<g id="node1" class="node">
<title>dir_c3d33925c9fc81f340cd5350e8f8562d</title>
<text text-anchor="middle" x="221" y="-399.5" font-family="Helvetica,sans-Serif" font-size="10.00">ccf</text>
</g>
<!-- dir_718cb05e94fb01aeb88649f9185845a8 -->
<g id="node2" class="node">
<title>dir_718cb05e94fb01aeb88649f9185845a8</title>
<g id="a_node2"><a xlink:href="dir_718cb05e94fb01aeb88649f9185845a8.html" target="_top" xlink:title="crypto">
<polygon fill="#a2b4d6" stroke="#404040" points="184,-276 130,-276 130,-240 184,-240 184,-276"/>
<text text-anchor="middle" x="157" y="-255.5" font-family="Helvetica,sans-Serif" font-size="10.00">crypto</text>
</a>
</g>
</g>
<!-- dir_c3d33925c9fc81f340cd5350e8f8562d&#45;&gt;dir_718cb05e94fb01aeb88649f9185845a8 -->
<g id="edge3" class="edge">
<title>dir_c3d33925c9fc81f340cd5350e8f8562d&#45;&gt;dir_718cb05e94fb01aeb88649f9185845a8</title>
<path fill="none" stroke="black" d="M216.55,-383.78C211.52,-365.49 202.51,-335.96 191,-312 186.5,-302.64 180.66,-292.93 175.09,-284.41"/>
<polygon fill="black" stroke="black" points="177.94,-282.38 169.46,-276.04 172.14,-286.29 177.94,-282.38"/>
<g id="a_edge3&#45;headlabel"><a xlink:href="dir_000006_000011.html" target="_top" xlink:title="25">
<text text-anchor="middle" x="182.31" y="-281.28" font-family="Helvetica,sans-Serif" font-size="10.00">25</text>
</a>
</g>
</g>
<!-- dir_cabae42bbc2bbaf21b45af6b92ef62e9 -->
<g id="node3" class="node">
<title>dir_cabae42bbc2bbaf21b45af6b92ef62e9</title>
<g id="a_node3"><a xlink:href="dir_cabae42bbc2bbaf21b45af6b92ef62e9.html" target="_top" xlink:title="ds">
<polygon fill="#a2b4d6" stroke="#404040" points="158,-60 104,-60 104,-24 158,-24 158,-60"/>
<text text-anchor="middle" x="131" y="-39.5" font-family="Helvetica,sans-Serif" font-size="10.00">ds</text>
</a>
</g>
</g>
<!-- dir_c3d33925c9fc81f340cd5350e8f8562d&#45;&gt;dir_cabae42bbc2bbaf21b45af6b92ef62e9 -->
<g id="edge7" class="edge">
<title>dir_c3d33925c9fc81f340cd5350e8f8562d&#45;&gt;dir_cabae42bbc2bbaf21b45af6b92ef62e9</title>
<path fill="none" stroke="black" d="M237.06,-383.69C258.82,-358.36 295,-308.76 295,-259 295,-259 295,-259 295,-185 295,-145.2 309.89,-127.06 285,-96 256.84,-60.86 204.1,-48.93 168.28,-44.93"/>
<polygon fill="black" stroke="black" points="168.49,-41.43 158.2,-43.96 167.82,-48.4 168.49,-41.43"/>
<g id="a_edge7&#45;headlabel"><a xlink:href="dir_000006_000013.html" target="_top" xlink:title="48">
<text text-anchor="middle" x="172.34" y="-36.45" font-family="Helvetica,sans-Serif" font-size="10.00">48</text>
</a>
</g>
</g>
<!-- dir_4a0fc6681dca2b862f3992ee55641a58 -->
<g id="node4" class="node">
<title>dir_4a0fc6681dca2b862f3992ee55641a58</title>
<g id="a_node4"><a xlink:href="dir_4a0fc6681dca2b862f3992ee55641a58.html" target="_top" xlink:title="endpoints">
<polygon fill="#a2b4d6" stroke="#404040" points="181.5,-348 116.5,-348 116.5,-312 181.5,-312 181.5,-348"/>
<text text-anchor="middle" x="149" y="-327.5" font-family="Helvetica,sans-Serif" font-size="10.00">endpoints</text>
</a>
</g>
</g>
<!-- dir_c3d33925c9fc81f340cd5350e8f8562d&#45;&gt;dir_4a0fc6681dca2b862f3992ee55641a58 -->
<g id="edge2" class="edge">
<title>dir_c3d33925c9fc81f340cd5350e8f8562d&#45;&gt;dir_4a0fc6681dca2b862f3992ee55641a58</title>
<path fill="none" stroke="black" d="M203.2,-383.7C194.4,-375.14 183.62,-364.66 174,-355.3"/>
<polygon fill="black" stroke="black" points="176.2,-352.57 166.59,-348.1 171.32,-357.58 176.2,-352.57"/>
<g id="a_edge2&#45;headlabel"><a xlink:href="dir_000006_000016.html" target="_top" xlink:title="6">
<text text-anchor="middle" x="180.76" y="-350.54" font-family="Helvetica,sans-Serif" font-size="10.00">6</text>
</a>
</g>
</g>
<!-- dir_819655030cf20c915c390b67ba1c0d03 -->
<g id="node5" class="node">
<title>dir_819655030cf20c915c390b67ba1c0d03</title>
<g id="a_node5"><a xlink:href="dir_819655030cf20c915c390b67ba1c0d03.html" target="_top" xlink:title="indexing">
<polygon fill="#a2b4d6" stroke="#404040" points="255.5,-204 196.5,-204 196.5,-168 255.5,-168 255.5,-204"/>
<text text-anchor="middle" x="226" y="-183.5" font-family="Helvetica,sans-Serif" font-size="10.00">indexing</text>
</a>
</g>
</g>
<!-- dir_c3d33925c9fc81f340cd5350e8f8562d&#45;&gt;dir_819655030cf20c915c390b67ba1c0d03 -->
<g id="edge4" class="edge">
<title>dir_c3d33925c9fc81f340cd5350e8f8562d&#45;&gt;dir_819655030cf20c915c390b67ba1c0d03</title>
<path fill="none" stroke="black" d="M223.03,-383.84C224.15,-373.48 225.44,-360 226,-348 228.2,-301.3 227.52,-246.89 226.79,-214.78"/>
<polygon fill="black" stroke="black" points="230.28,-214.31 226.54,-204.4 223.28,-214.49 230.28,-214.31"/>
<g id="a_edge4&#45;headlabel"><a xlink:href="dir_000006_000023.html" target="_top" xlink:title="1">
<text text-anchor="middle" x="233.21" y="-215.34" font-family="Helvetica,sans-Serif" font-size="10.00">1</text>
</a>
</g>
</g>
<!-- dir_9101985d24c2f692df501a09f2c284d0 -->
<g id="node6" class="node">
<title>dir_9101985d24c2f692df501a09f2c284d0</title>
<g id="a_node6"><a xlink:href="dir_9101985d24c2f692df501a09f2c284d0.html" target="_top" xlink:title="kv">
<polygon fill="#a2b4d6" stroke="#404040" points="276,-132 222,-132 222,-96 276,-96 276,-132"/>
<text text-anchor="middle" x="249" y="-111.5" font-family="Helvetica,sans-Serif" font-size="10.00">kv</text>
</a>
</g>
</g>
<!-- dir_c3d33925c9fc81f340cd5350e8f8562d&#45;&gt;dir_9101985d24c2f692df501a09f2c284d0 -->
<g id="edge5" class="edge">
<title>dir_c3d33925c9fc81f340cd5350e8f8562d&#45;&gt;dir_9101985d24c2f692df501a09f2c284d0</title>
<path fill="none" stroke="black" d="M228.24,-383.83C243.57,-345.36 277,-249.25 265,-168 263.72,-159.35 261.33,-150.15 258.78,-141.89"/>
<polygon fill="black" stroke="black" points="262.1,-140.78 255.65,-132.37 255.45,-142.96 262.1,-140.78"/>
<g id="a_edge5&#45;headlabel"><a xlink:href="dir_000006_000027.html" target="_top" xlink:title="19">
<text text-anchor="middle" x="265.92" y="-140.81" font-family="Helvetica,sans-Serif" font-size="10.00">19</text>
</a>
</g>
</g>
<!-- dir_36f22bdf0117f38e86252516d12afdac -->
<g id="node8" class="node">
<title>dir_36f22bdf0117f38e86252516d12afdac</title>
<g id="a_node8"><a xlink:href="dir_36f22bdf0117f38e86252516d12afdac.html" target="_top" xlink:title="pal">
<polygon fill="#a2b4d6" stroke="#404040" points="204,-132 150,-132 150,-96 204,-96 204,-132"/>
<text text-anchor="middle" x="177" y="-111.5" font-family="Helvetica,sans-Serif" font-size="10.00">pal</text>
</a>
</g>
</g>
<!-- dir_c3d33925c9fc81f340cd5350e8f8562d&#45;&gt;dir_36f22bdf0117f38e86252516d12afdac -->
<g id="edge1" class="edge">
<title>dir_c3d33925c9fc81f340cd5350e8f8562d&#45;&gt;dir_36f22bdf0117f38e86252516d12afdac</title>
<path fill="none" stroke="black" d="M217.88,-383.91C211.71,-349.79 197.71,-270.75 188,-204 184.99,-183.33 182.12,-159.88 180.06,-142.25"/>
<polygon fill="black" stroke="black" points="183.51,-141.63 178.89,-132.09 176.56,-142.43 183.51,-141.63"/>
<g id="a_edge1&#45;headlabel"><a xlink:href="dir_000006_000034.html" target="_top" xlink:title="5">
<text text-anchor="middle" x="186.74" y="-142.37" font-family="Helvetica,sans-Serif" font-size="10.00">5</text>
</a>
</g>
</g>
<!-- dir_a0bd5b61e2f393f7cb26e530f5604320 -->
<g id="node9" class="node">
<title>dir_a0bd5b61e2f393f7cb26e530f5604320</title>
<g id="a_node9"><a xlink:href="dir_a0bd5b61e2f393f7cb26e530f5604320.html" target="_top" xlink:title="service">
<polygon fill="#a2b4d6" stroke="#404040" points="118,-204 64,-204 64,-168 118,-168 118,-204"/>
<text text-anchor="middle" x="91" y="-183.5" font-family="Helvetica,sans-Serif" font-size="10.00">service</text>
</a>
</g>
</g>
<!-- dir_c3d33925c9fc81f340cd5350e8f8562d&#45;&gt;dir_a0bd5b61e2f393f7cb26e530f5604320 -->
<g id="edge6" class="edge">
<title>dir_c3d33925c9fc81f340cd5350e8f8562d&#45;&gt;dir_a0bd5b61e2f393f7cb26e530f5604320</title>
<path fill="none" stroke="black" d="M193.73,-396.15C167.22,-389.89 128.11,-376.24 108,-348 79.83,-308.44 81.94,-248.93 86.29,-214.43"/>
<polygon fill="black" stroke="black" points="89.81,-214.55 87.75,-204.16 82.88,-213.57 89.81,-214.55"/>
<g id="a_edge6&#45;headlabel"><a xlink:href="dir_000006_000040.html" target="_top" xlink:title="15">
<text text-anchor="middle" x="92.12" y="-216.01" font-family="Helvetica,sans-Serif" font-size="10.00">15</text>
</a>
</g>
</g>
<!-- dir_718cb05e94fb01aeb88649f9185845a8&#45;&gt;dir_cabae42bbc2bbaf21b45af6b92ef62e9 -->
<g id="edge10" class="edge">
<title>dir_718cb05e94fb01aeb88649f9185845a8&#45;&gt;dir_cabae42bbc2bbaf21b45af6b92ef62e9</title>
<path fill="none" stroke="black" d="M148.66,-239.62C142.5,-215.49 136.62,-170.45 132,-132 129.51,-111.29 126.88,-87.84 126.24,-70.22"/>
<polygon fill="black" stroke="black" points="129.74,-70.03 126.12,-60.07 122.74,-70.11 129.74,-70.03"/>
<g id="a_edge10&#45;headlabel"><a xlink:href="dir_000011_000013.html" target="_top" xlink:title="7">
<text text-anchor="middle" x="132.62" y="-71.09" font-family="Helvetica,sans-Serif" font-size="10.00">7</text>
</a>
</g>
</g>
<!-- dir_718cb05e94fb01aeb88649f9185845a8&#45;&gt;dir_36f22bdf0117f38e86252516d12afdac -->
<g id="edge8" class="edge">
<title>dir_718cb05e94fb01aeb88649f9185845a8&#45;&gt;dir_36f22bdf0117f38e86252516d12afdac</title>
<path fill="none" stroke="black" d="M154.83,-239.87C155.68,-215.56 161.7,-170.82 167.76,-142.01"/>
<polygon fill="black" stroke="black" points="171.19,-142.72 169.99,-132.19 164.37,-141.17 171.19,-142.72"/>
<g id="a_edge8&#45;headlabel"><a xlink:href="dir_000011_000034.html" target="_top" xlink:title="1">
<text text-anchor="middle" x="173.17" y="-144.35" font-family="Helvetica,sans-Serif" font-size="10.00">1</text>
</a>
</g>
</g>
<!-- dir_718cb05e94fb01aeb88649f9185845a8&#45;&gt;dir_a0bd5b61e2f393f7cb26e530f5604320 -->
<g id="edge9" class="edge">
<title>dir_718cb05e94fb01aeb88649f9185845a8&#45;&gt;dir_a0bd5b61e2f393f7cb26e530f5604320</title>
<path fill="none" stroke="black" d="M134.77,-239.7C125.99,-231.3 116.15,-221.07 107.95,-211.86"/>
<polygon fill="black" stroke="black" points="110.42,-209.37 101.23,-204.1 105.13,-213.96 110.42,-209.37"/>
<g id="a_edge9&#45;headlabel"><a xlink:href="dir_000011_000040.html" target="_top" xlink:title="1">
<text text-anchor="middle" x="114.92" y="-207.73" font-family="Helvetica,sans-Serif" font-size="10.00">1</text>
</a>
</g>
</g>
<!-- dir_cabae42bbc2bbaf21b45af6b92ef62e9&#45;&gt;dir_718cb05e94fb01aeb88649f9185845a8 -->
<g id="edge11" class="edge">
<title>dir_cabae42bbc2bbaf21b45af6b92ef62e9&#45;&gt;dir_718cb05e94fb01aeb88649f9185845a8</title>
<path fill="none" stroke="black" d="M139.56,-60.07C143.79,-77.99 146.99,-106.99 150,-132 154.02,-165.49 159.01,-203.98 160.36,-229.3"/>
<polygon fill="black" stroke="black" points="156.88,-229.74 160.71,-239.62 163.87,-229.51 156.88,-229.74"/>
<g id="a_edge11&#45;headlabel"><a xlink:href="dir_000013_000011.html" target="_top" xlink:title="1">
<text text-anchor="middle" x="153.92" y="-223.75" font-family="Helvetica,sans-Serif" font-size="10.00">1</text>
</a>
</g>
</g>
<!-- dir_4a0fc6681dca2b862f3992ee55641a58&#45;&gt;dir_718cb05e94fb01aeb88649f9185845a8 -->
<g id="edge12" class="edge">
<title>dir_4a0fc6681dca2b862f3992ee55641a58&#45;&gt;dir_718cb05e94fb01aeb88649f9185845a8</title>
<path fill="none" stroke="black" d="M150.98,-311.7C151.86,-303.98 152.92,-294.71 153.9,-286.11"/>
<polygon fill="black" stroke="black" points="157.39,-286.44 155.05,-276.1 150.43,-285.64 157.39,-286.44"/>
<g id="a_edge12&#45;headlabel"><a xlink:href="dir_000016_000011.html" target="_top" xlink:title="2">
<text text-anchor="middle" x="159.8" y="-287.83" font-family="Helvetica,sans-Serif" font-size="10.00">2</text>
</a>
</g>
</g>
<!-- dir_4a0fc6681dca2b862f3992ee55641a58&#45;&gt;dir_a0bd5b61e2f393f7cb26e530f5604320 -->
<g id="edge13" class="edge">
<title>dir_4a0fc6681dca2b862f3992ee55641a58&#45;&gt;dir_a0bd5b61e2f393f7cb26e530f5604320</title>
<path fill="none" stroke="black" d="M138.94,-311.68C133.26,-301.49 126.26,-288.24 121,-276 112.23,-255.58 104.3,-231.69 98.8,-213.8"/>
<polygon fill="black" stroke="black" points="102.09,-212.6 95.85,-204.03 95.39,-214.62 102.09,-212.6"/>
<g id="a_edge13&#45;headlabel"><a xlink:href="dir_000016_000040.html" target="_top" xlink:title="2">
<text text-anchor="middle" x="105.85" y="-212.72" font-family="Helvetica,sans-Serif" font-size="10.00">2</text>
</a>
</g>
</g>
<!-- dir_819655030cf20c915c390b67ba1c0d03&#45;&gt;dir_9101985d24c2f692df501a09f2c284d0 -->
<g id="edge14" class="edge">
<title>dir_819655030cf20c915c390b67ba1c0d03&#45;&gt;dir_9101985d24c2f692df501a09f2c284d0</title>
<path fill="none" stroke="black" d="M231.69,-167.7C234.25,-159.9 237.33,-150.51 240.18,-141.83"/>
<polygon fill="black" stroke="black" points="243.58,-142.7 243.38,-132.1 236.93,-140.51 243.58,-142.7"/>
<g id="a_edge14&#45;headlabel"><a xlink:href="dir_000023_000027.html" target="_top" xlink:title="1">
<text text-anchor="middle" x="245.16" y="-144.5" font-family="Helvetica,sans-Serif" font-size="10.00">1</text>
</a>
</g>
</g>
<!-- dir_819655030cf20c915c390b67ba1c0d03&#45;&gt;dir_36f22bdf0117f38e86252516d12afdac -->
<g id="edge15" class="edge">
<title>dir_819655030cf20c915c390b67ba1c0d03&#45;&gt;dir_36f22bdf0117f38e86252516d12afdac</title>
<path fill="none" stroke="black" d="M213.89,-167.7C208.13,-159.47 201.14,-149.48 194.79,-140.42"/>
<polygon fill="black" stroke="black" points="197.58,-138.29 188.97,-132.1 191.84,-142.3 197.58,-138.29"/>
<g id="a_edge15&#45;headlabel"><a xlink:href="dir_000023_000034.html" target="_top" xlink:title="1">
<text text-anchor="middle" x="201.96" y="-137.11" font-family="Helvetica,sans-Serif" font-size="10.00">1</text>
</a>
</g>
</g>
<!-- dir_9101985d24c2f692df501a09f2c284d0&#45;&gt;dir_cabae42bbc2bbaf21b45af6b92ef62e9 -->
<g id="edge16" class="edge">
<title>dir_9101985d24c2f692df501a09f2c284d0&#45;&gt;dir_cabae42bbc2bbaf21b45af6b92ef62e9</title>
<path fill="none" stroke="black" d="M221.93,-96.94C205.7,-87.32 184.87,-74.96 167.24,-64.5"/>
<polygon fill="black" stroke="black" points="168.74,-61.32 158.35,-59.23 165.17,-67.34 168.74,-61.32"/>
<g id="a_edge16&#45;headlabel"><a xlink:href="dir_000027_000013.html" target="_top" xlink:title="1">
<text text-anchor="middle" x="173.28" y="-58.21" font-family="Helvetica,sans-Serif" font-size="10.00">1</text>
</a>
</g>
</g>
<!-- dir_e4d7f7a88037af12eae8bd997a8823fc -->
<g id="node7" class="node">
<title>dir_e4d7f7a88037af12eae8bd997a8823fc</title>
<g id="a_node7"><a xlink:href="dir_e4d7f7a88037af12eae8bd997a8823fc.html" target="_top" xlink:title="node">
<polygon fill="#a2b4d6" stroke="#404040" points="78,-348 24,-348 24,-312 78,-312 78,-348"/>
<text text-anchor="middle" x="51" y="-327.5" font-family="Helvetica,sans-Serif" font-size="10.00">node</text>
</a>
</g>
</g>
<!-- dir_e4d7f7a88037af12eae8bd997a8823fc&#45;&gt;dir_718cb05e94fb01aeb88649f9185845a8 -->
<g id="edge18" class="edge">
<title>dir_e4d7f7a88037af12eae8bd997a8823fc&#45;&gt;dir_718cb05e94fb01aeb88649f9185845a8</title>
<path fill="none" stroke="black" d="M76.93,-311.88C90.66,-302.81 107.71,-291.55 122.54,-281.76"/>
<polygon fill="black" stroke="black" points="124.55,-284.62 130.97,-276.19 120.7,-278.78 124.55,-284.62"/>
<g id="a_edge18&#45;headlabel"><a xlink:href="dir_000031_000011.html" target="_top" xlink:title="2">
<text text-anchor="middle" x="123.12" y="-286.47" font-family="Helvetica,sans-Serif" font-size="10.00">2</text>
</a>
</g>
</g>
<!-- dir_e4d7f7a88037af12eae8bd997a8823fc&#45;&gt;dir_cabae42bbc2bbaf21b45af6b92ef62e9 -->
<g id="edge20" class="edge">
<title>dir_e4d7f7a88037af12eae8bd997a8823fc&#45;&gt;dir_cabae42bbc2bbaf21b45af6b92ef62e9</title>
<path fill="none" stroke="black" d="M43.52,-311.7C39.53,-301.52 35.03,-288.27 33,-276 29.29,-253.52 35.78,-171.34 37,-168 51.39,-128.59 82.66,-91.21 105.19,-67.77"/>
<polygon fill="black" stroke="black" points="107.94,-69.96 112.45,-60.37 102.95,-65.05 107.94,-69.96"/>
<g id="a_edge20&#45;headlabel"><a xlink:href="dir_000031_000013.html" target="_top" xlink:title="2">
<text text-anchor="middle" x="107.45" y="-72.01" font-family="Helvetica,sans-Serif" font-size="10.00">2</text>
</a>
</g>
</g>
<!-- dir_e4d7f7a88037af12eae8bd997a8823fc&#45;&gt;dir_36f22bdf0117f38e86252516d12afdac -->
<g id="edge17" class="edge">
<title>dir_e4d7f7a88037af12eae8bd997a8823fc&#45;&gt;dir_36f22bdf0117f38e86252516d12afdac</title>
<path fill="none" stroke="black" d="M45.87,-311.7C37.62,-280.11 25.16,-212.29 55,-168 73.96,-139.86 111.36,-126.56 139.77,-120.34"/>
<polygon fill="black" stroke="black" points="140.66,-123.73 149.78,-118.35 139.29,-116.86 140.66,-123.73"/>
<g id="a_edge17&#45;headlabel"><a xlink:href="dir_000031_000034.html" target="_top" xlink:title="1">
<text text-anchor="middle" x="137.68" y="-124.71" font-family="Helvetica,sans-Serif" font-size="10.00">1</text>
</a>
</g>
</g>
<!-- dir_e4d7f7a88037af12eae8bd997a8823fc&#45;&gt;dir_a0bd5b61e2f393f7cb26e530f5604320 -->
<g id="edge19" class="edge">
<title>dir_e4d7f7a88037af12eae8bd997a8823fc&#45;&gt;dir_a0bd5b61e2f393f7cb26e530f5604320</title>
<path fill="none" stroke="black" d="M55.82,-311.87C62.67,-287.56 75.28,-242.82 83.39,-214.01"/>
<polygon fill="black" stroke="black" points="86.82,-214.76 86.16,-204.19 80.08,-212.87 86.82,-214.76"/>
<g id="a_edge19&#45;headlabel"><a xlink:href="dir_000031_000040.html" target="_top" xlink:title="10">
<text text-anchor="middle" x="88.57" y="-216.49" font-family="Helvetica,sans-Serif" font-size="10.00">10</text>
</a>
</g>
</g>
<!-- dir_36f22bdf0117f38e86252516d12afdac&#45;&gt;dir_718cb05e94fb01aeb88649f9185845a8 -->
<g id="edge22" class="edge">
<title>dir_36f22bdf0117f38e86252516d12afdac&#45;&gt;dir_718cb05e94fb01aeb88649f9185845a8</title>
<path fill="none" stroke="black" d="M179.17,-132.19C178.31,-156.53 172.28,-201.28 166.22,-230.06"/>
<polygon fill="black" stroke="black" points="162.8,-229.35 164,-239.87 169.62,-230.89 162.8,-229.35"/>
<g id="a_edge22&#45;headlabel"><a xlink:href="dir_000034_000011.html" target="_top" xlink:title="2">
<text text-anchor="middle" x="160.82" y="-222.71" font-family="Helvetica,sans-Serif" font-size="10.00">2</text>
</a>
</g>
</g>
<!-- dir_36f22bdf0117f38e86252516d12afdac&#45;&gt;dir_cabae42bbc2bbaf21b45af6b92ef62e9 -->
<g id="edge23" class="edge">
<title>dir_36f22bdf0117f38e86252516d12afdac&#45;&gt;dir_cabae42bbc2bbaf21b45af6b92ef62e9</title>
<path fill="none" stroke="black" d="M165.63,-95.7C160.28,-87.56 153.8,-77.69 147.89,-68.7"/>
<polygon fill="black" stroke="black" points="150.66,-66.54 142.24,-60.1 144.81,-70.38 150.66,-66.54"/>
<g id="a_edge23&#45;headlabel"><a xlink:href="dir_000034_000013.html" target="_top" xlink:title="3">
<text text-anchor="middle" x="155" y="-65.48" font-family="Helvetica,sans-Serif" font-size="10.00">3</text>
</a>
</g>
</g>
<!-- dir_68267d1309a1af8e8297ef4c3efbcdba -->
<g id="node10" class="node">
<title>dir_68267d1309a1af8e8297ef4c3efbcdba</title>
<g id="a_node10"><a xlink:href="dir_68267d1309a1af8e8297ef4c3efbcdba.html" target="_top" xlink:title="src">
<polygon fill="none" stroke="red" points="374,-60 320,-60 320,-24 374,-24 374,-60"/>
<text text-anchor="middle" x="347" y="-39.5" font-family="Helvetica,sans-Serif" font-size="10.00">src</text>
</a>
</g>
</g>
<!-- dir_36f22bdf0117f38e86252516d12afdac&#45;&gt;dir_68267d1309a1af8e8297ef4c3efbcdba -->
<g id="edge21" class="edge">
<title>dir_36f22bdf0117f38e86252516d12afdac&#45;&gt;dir_68267d1309a1af8e8297ef4c3efbcdba</title>
<path fill="none" stroke="black" d="M204.02,-99.96C207.04,-98.59 210.07,-97.24 213,-96 254.56,-78.35 266.18,-77.03 308,-60 308.84,-59.66 309.69,-59.31 310.54,-58.96"/>
<polygon fill="black" stroke="black" points="311.94,-62.17 319.8,-55.06 309.22,-55.72 311.94,-62.17"/>
<g id="a_edge21&#45;headlabel"><a xlink:href="dir_000034_000042.html" target="_top" xlink:title="1">
<text text-anchor="middle" x="309.73" y="-63.68" font-family="Helvetica,sans-Serif" font-size="10.00">1</text>
</a>
</g>
</g>
<!-- dir_a0bd5b61e2f393f7cb26e530f5604320&#45;&gt;dir_718cb05e94fb01aeb88649f9185845a8 -->
<g id="edge25" class="edge">
<title>dir_a0bd5b61e2f393f7cb26e530f5604320&#45;&gt;dir_718cb05e94fb01aeb88649f9185845a8</title>
<path fill="none" stroke="black" d="M113.02,-204.1C121.78,-212.47 131.63,-222.69 139.86,-231.92"/>
<polygon fill="black" stroke="black" points="137.4,-234.44 146.6,-239.7 142.69,-229.85 137.4,-234.44"/>
<g id="a_edge25&#45;headlabel"><a xlink:href="dir_000040_000011.html" target="_top" xlink:title="13">
<text text-anchor="middle" x="132.9" y="-231.08" font-family="Helvetica,sans-Serif" font-size="10.00">13</text>
</a>
</g>
</g>
<!-- dir_a0bd5b61e2f393f7cb26e530f5604320&#45;&gt;dir_cabae42bbc2bbaf21b45af6b92ef62e9 -->
<g id="edge27" class="edge">
<title>dir_a0bd5b61e2f393f7cb26e530f5604320&#45;&gt;dir_cabae42bbc2bbaf21b45af6b92ef62e9</title>
<path fill="none" stroke="black" d="M95.82,-167.87C102.67,-143.56 115.28,-98.82 123.39,-70.01"/>
<polygon fill="black" stroke="black" points="126.82,-70.76 126.16,-60.19 120.08,-68.87 126.82,-70.76"/>
<g id="a_edge27&#45;headlabel"><a xlink:href="dir_000040_000013.html" target="_top" xlink:title="15">
<text text-anchor="middle" x="128.57" y="-72.49" font-family="Helvetica,sans-Serif" font-size="10.00">15</text>
</a>
</g>
</g>
<!-- dir_a0bd5b61e2f393f7cb26e530f5604320&#45;&gt;dir_9101985d24c2f692df501a09f2c284d0 -->
<g id="edge26" class="edge">
<title>dir_a0bd5b61e2f393f7cb26e530f5604320&#45;&gt;dir_9101985d24c2f692df501a09f2c284d0</title>
<path fill="none" stroke="black" d="M118.24,-173.45C141.2,-163.66 175.1,-149.05 212.78,-132.04"/>
<polygon fill="black" stroke="black" points="214.25,-135.22 221.92,-127.9 211.36,-128.84 214.25,-135.22"/>
<g id="a_edge26&#45;headlabel"><a xlink:href="dir_000040_000027.html" target="_top" xlink:title="7">
<text text-anchor="middle" x="212.15" y="-136.79" font-family="Helvetica,sans-Serif" font-size="10.00">7</text>
</a>
</g>
</g>
<!-- dir_a0bd5b61e2f393f7cb26e530f5604320&#45;&gt;dir_36f22bdf0117f38e86252516d12afdac -->
<g id="edge24" class="edge">
<title>dir_a0bd5b61e2f393f7cb26e530f5604320&#45;&gt;dir_36f22bdf0117f38e86252516d12afdac</title>
<path fill="none" stroke="black" d="M112.26,-167.7C123.09,-158.88 136.42,-148.03 148.16,-138.47"/>
<polygon fill="black" stroke="black" points="150.44,-141.13 155.99,-132.1 146.02,-135.7 150.44,-141.13"/>
<g id="a_edge24&#45;headlabel"><a xlink:href="dir_000040_000034.html" target="_top" xlink:title="1">
<text text-anchor="middle" x="149.44" y="-143.1" font-family="Helvetica,sans-Serif" font-size="10.00">1</text>
</a>
</g>
</g>
</g>
</svg>
        <g id="navigator" transform="translate(0 0)" fill="#404254">
                <rect fill="#f2f5e9" fill-opacity="0.5" stroke="#606060" stroke-width=".5" x="0" y="0" width="60" height="60"/>
                <use id="zoomplus" xlink:href="#zoomPlus" x="17" y="9" onmousedown="handleZoom(evt,'in')"/>
                <use id="zoomminus" xlink:href="#zoomMin" x="42" y="9" onmousedown="handleZoom(evt,'out')"/>
                <use id="reset" xlink:href="#resetDef" x="30" y="36" onmousedown="handleReset()"/>
                <g id="arrowUp" xlink:href="#dirArrow" transform="translate(30 24)" onmousedown="handlePan(0,-1)">
                  <use xlink:href="#rim" fill="#404040">
                        <set attributeName="fill" to="#808080" begin="arrowUp.mouseover" end="arrowUp.mouseout"/>
                  </use>
                  <path fill="none" stroke="white" stroke-width="1.5" d="M0,-3.0v7 M-2.5,-0.5L0,-3.0L2.5,-0.5"/>
                </g>
                <g id="arrowRight" xlink:href="#dirArrow" transform="rotate(90) translate(36 -43)" onmousedown="handlePan(1,0)">
                  <use xlink:href="#rim" fill="#404040">
                        <set attributeName="fill" to="#808080" begin="arrowRight.mouseover" end="arrowRight.mouseout"/>
                  </use>
                  <path fill="none" stroke="white" stroke-width="1.5" d="M0,-3.0v7 M-2.5,-0.5L0,-3.0L2.5,-0.5"/>
                </g>
                <g id="arrowDown" xlink:href="#dirArrow" transform="rotate(180) translate(-30 -48)" onmousedown="handlePan(0,1)">
                  <use xlink:href="#rim" fill="#404040">
                        <set attributeName="fill" to="#808080" begin="arrowDown.mouseover" end="arrowDown.mouseout"/>
                  </use>
                  <path fill="none" stroke="white" stroke-width="1.5" d="M0,-3.0v7 M-2.5,-0.5L0,-3.0L2.5,-0.5"/>
                </g>
                <g id="arrowLeft" xlink:href="#dirArrow" transform="rotate(270) translate(-36 17)" onmousedown="handlePan(-1,0)">
                  <use xlink:href="#rim" fill="#404040">
                        <set attributeName="fill" to="#808080" begin="arrowLeft.mouseover" end="arrowLeft.mouseout"/>
                  </use>
                  <path fill="none" stroke="white" stroke-width="1.5" d="M0,-3.0v7 M-2.5,-0.5L0,-3.0L2.5,-0.5"/>
                </g>
        </g>
        <svg viewBox="0 0 15 15" width="100%" height="30px" preserveAspectRatio="xMaxYMin meet">
         <g id="arrow_out" transform="scale(0.3 0.3)">
          <a xlink:href="dir_c3d33925c9fc81f340cd5350e8f8562d_dep_org.svg" target="_base">
           <rect id="button" ry="5" rx="5" y="6" x="6" height="38" width="38"
                fill="#f2f5e9" fill-opacity="0.5" stroke="#606060" stroke-width="1.0"/>
           <path id="arrow"
             d="M 11.500037,31.436501 C 11.940474,20.09759 22.043105,11.32322 32.158766,21.979434 L 37.068811,17.246167 C 37.068811,17.246167 37.088388,32 37.088388,32 L 22.160133,31.978069 C 22.160133,31.978069 26.997745,27.140456 26.997745,27.140456 C 18.528582,18.264221 13.291696,25.230495 11.500037,31.436501 z"
             style="fill:#404040;"/>
          </a>
         </g>
        </svg>
</svg>
