<?xml version="1.0" encoding="UTF-8" standalone="no"?>
<!DOCTYPE svg PUBLIC "-//W3C//DTD SVG 1.1//EN"
 "http://www.w3.org/Graphics/SVG/1.1/DTD/svg11.dtd">
<!-- Generated by graphviz version 2.43.0 (0)
 -->
<!-- Title: src/node Pages: 1 -->
<svg width="747pt" height="247pt"
 viewBox="0.00 0.00 747.00 247.00" xmlns="http://www.w3.org/2000/svg" xmlns:xlink="http://www.w3.org/1999/xlink">
<g id="graph0" class="graph" transform="scale(1 1) rotate(0) translate(4 243)">
<title>src/node</title>
<polygon fill="white" stroke="transparent" points="-4,4 -4,-243 743,-243 743,4 -4,4"/>
<g id="clust1" class="cluster">
<title>clusterdir_68267d1309a1af8e8297ef4c3efbcdba</title>
<g id="a_clust1"><a xlink:href="dir_68267d1309a1af8e8297ef4c3efbcdba.html" target="_top" xlink:title="src">
<polygon fill="#edf0f7" stroke="#404040" stroke-dasharray="5,2" points="8,-8 8,-231 675,-231 675,-8 8,-8"/>
<text text-anchor="middle" x="341.5" y="-219" font-family="Helvetica,sans-Serif" font-size="10.00">src</text>
</a>
</g>
</g>
<g id="clust2" class="cluster">
<title>clusterdir_18ae7af74d885898b85cbb543ae51b63</title>
<g id="a_clust2"><a xlink:href="dir_18ae7af74d885898b85cbb543ae51b63.html" target="_top">
<polygon fill="#edf0f7" stroke="#404040" stroke-width="2" points="328,-80 328,-204 398,-204 398,-80 328,-80"/>
</a>
</g>
</g>
<!-- dir_122f4add68bb94b3fee614989bbbd8f9 -->
<g id="node1" class="node">
<title>dir_122f4add68bb94b3fee614989bbbd8f9</title>
<g id="a_node1"><a xlink:href="dir_122f4add68bb94b3fee614989bbbd8f9.html" target="_top" xlink:title="ds">
<polygon fill="#a2b4d6" stroke="#404040" points="214,-52 160,-52 160,-16 214,-16 214,-52"/>
<text text-anchor="middle" x="187" y="-31.5" font-family="Helvetica,sans-Serif" font-size="10.00">ds</text>
</a>
</g>
</g>
<!-- dir_1af0ddd77af1c20f0c9558f89bd86ab0 -->
<g id="node2" class="node">
<title>dir_1af0ddd77af1c20f0c9558f89bd86ab0</title>
<g id="a_node2"><a xlink:href="dir_1af0ddd77af1c20f0c9558f89bd86ab0.html" target="_top" xlink:title="indexing">
<polygon fill="#a2b4d6" stroke="red" points="237.5,-124 178.5,-124 178.5,-88 237.5,-88 237.5,-124"/>
<text text-anchor="middle" x="208" y="-103.5" font-family="Helvetica,sans-Serif" font-size="10.00">indexing</text>
</a>
</g>
</g>
<!-- dir_2d29d7dff7c7baf1180920f6796c23ae -->
<g id="node3" class="node">
<title>dir_2d29d7dff7c7baf1180920f6796c23ae</title>
<g id="a_node3"><a xlink:href="dir_2d29d7dff7c7baf1180920f6796c23ae.html" target="_top" xlink:title="http">
<polygon fill="#a2b4d6" stroke="#404040" points="286,-52 232,-52 232,-16 286,-16 286,-52"/>
<text text-anchor="middle" x="259" y="-31.5" font-family="Helvetica,sans-Serif" font-size="10.00">http</text>
</a>
</g>
</g>
<!-- dir_3dcea8250b5ce8d5bc595fbbad3e8f21 -->
<g id="node4" class="node">
<title>dir_3dcea8250b5ce8d5bc595fbbad3e8f21</title>
<g id="a_node4"><a xlink:href="dir_3dcea8250b5ce8d5bc595fbbad3e8f21.html" target="_top" xlink:title="js">
<polygon fill="#a2b4d6" stroke="#404040" points="70,-52 16,-52 16,-16 70,-16 70,-52"/>
<text text-anchor="middle" x="43" y="-31.5" font-family="Helvetica,sans-Serif" font-size="10.00">js</text>
</a>
</g>
</g>
<!-- dir_4261af1259721e3e39e0d2dd7354b511 -->
<g id="node5" class="node">
<title>dir_4261af1259721e3e39e0d2dd7354b511</title>
<g id="a_node5"><a xlink:href="dir_4261af1259721e3e39e0d2dd7354b511.html" target="_top" xlink:title="crypto">
<polygon fill="#a2b4d6" stroke="red" points="142,-52 88,-52 88,-16 142,-16 142,-52"/>
<text text-anchor="middle" x="115" y="-31.5" font-family="Helvetica,sans-Serif" font-size="10.00">crypto</text>
</a>
</g>
</g>
<!-- dir_4c8befd6991d7a2e9d66c427274b8c22 -->
<g id="node6" class="node">
<title>dir_4c8befd6991d7a2e9d66c427274b8c22</title>
<g id="a_node6"><a xlink:href="dir_4c8befd6991d7a2e9d66c427274b8c22.html" target="_top" xlink:title="kv">
<polygon fill="#a2b4d6" stroke="#404040" points="595,-52 541,-52 541,-16 595,-16 595,-52"/>
<text text-anchor="middle" x="568" y="-31.5" font-family="Helvetica,sans-Serif" font-size="10.00">kv</text>
</a>
</g>
</g>
<!-- dir_4f691f982165d1317925cee58b4b4f56 -->
<g id="node7" class="node">
<title>dir_4f691f982165d1317925cee58b4b4f56</title>
<g id="a_node7"><a xlink:href="dir_4f691f982165d1317925cee58b4b4f56.html" target="_top" xlink:title="service">
<polygon fill="#a2b4d6" stroke="red" points="667,-52 613,-52 613,-16 667,-16 667,-52"/>
<text text-anchor="middle" x="640" y="-31.5" font-family="Helvetica,sans-Serif" font-size="10.00">service</text>
</a>
</g>
</g>
<!-- dir_5427940bb9029915fc0c11c1284afde6 -->
<g id="node8" class="node">
<title>dir_5427940bb9029915fc0c11c1284afde6</title>
<g id="a_node8"><a xlink:href="dir_5427940bb9029915fc0c11c1284afde6.html" target="_top" xlink:title="enclave">
<polygon fill="#a2b4d6" stroke="#404040" points="436.5,-52 381.5,-52 381.5,-16 436.5,-16 436.5,-52"/>
<text text-anchor="middle" x="409" y="-31.5" font-family="Helvetica,sans-Serif" font-size="10.00">enclave</text>
</a>
</g>
</g>
<!-- dir_dee301ab18d354d094fb7852349ef839 -->
<g id="node9" class="node">
<title>dir_dee301ab18d354d094fb7852349ef839</title>
<g id="a_node9"><a xlink:href="dir_dee301ab18d354d094fb7852349ef839.html" target="_top" xlink:title="consensus">
<polygon fill="#a2b4d6" stroke="red" points="523,-52 455,-52 455,-16 523,-16 523,-52"/>
<text text-anchor="middle" x="489" y="-31.5" font-family="Helvetica,sans-Serif" font-size="10.00">consensus</text>
</a>
</g>
</g>
<!-- dir_fdedb0aba14d44ce9d99bc100e026e6a -->
<g id="node10" class="node">
<title>dir_fdedb0aba14d44ce9d99bc100e026e6a</title>
<g id="a_node10"><a xlink:href="dir_fdedb0aba14d44ce9d99bc100e026e6a.html" target="_top" xlink:title="common">
<polygon fill="#a2b4d6" stroke="#404040" points="363.5,-52 304.5,-52 304.5,-16 363.5,-16 363.5,-52"/>
<text text-anchor="middle" x="334" y="-31.5" font-family="Helvetica,sans-Serif" font-size="10.00">common</text>
</a>
</g>
</g>
<!-- dir_18ae7af74d885898b85cbb543ae51b63 -->
<g id="node11" class="node">
<title>dir_18ae7af74d885898b85cbb543ae51b63</title>
<text text-anchor="middle" x="363" y="-175.5" font-family="Helvetica,sans-Serif" font-size="10.00">node</text>
</g>
<!-- dir_18ae7af74d885898b85cbb543ae51b63&#45;&gt;dir_122f4add68bb94b3fee614989bbbd8f9 -->
<g id="edge1" class="edge">
<title>dir_18ae7af74d885898b85cbb543ae51b63&#45;&gt;dir_122f4add68bb94b3fee614989bbbd8f9</title>
<path fill="none" stroke="black" d="M338.77,-159.91C326.57,-150.4 312.24,-137.72 302,-124 289.15,-106.78 297.07,-95.31 282,-80 281.85,-79.85 250.1,-64.82 223.35,-52.18"/>
<polygon fill="black" stroke="black" points="224.7,-48.94 214.16,-47.83 221.71,-55.27 224.7,-48.94"/>
<g id="a_edge1&#45;headlabel"><a xlink:href="dir_000032_000014.html" target="_top" xlink:title="16">
<text text-anchor="middle" x="229.16" y="-45.41" font-family="Helvetica,sans-Serif" font-size="10.00">16</text>
</a>
</g>
</g>
<!-- dir_18ae7af74d885898b85cbb543ae51b63&#45;&gt;dir_1af0ddd77af1c20f0c9558f89bd86ab0 -->
<g id="edge3" class="edge">
<title>dir_18ae7af74d885898b85cbb543ae51b63&#45;&gt;dir_1af0ddd77af1c20f0c9558f89bd86ab0</title>
<path fill="none" stroke="black" d="M335.65,-164.65C311.08,-153.55 274.73,-137.14 247.1,-124.66"/>
<polygon fill="black" stroke="black" points="248.28,-121.35 237.72,-120.42 245.4,-127.73 248.28,-121.35"/>
<g id="a_edge3&#45;headlabel"><a xlink:href="dir_000032_000024.html" target="_top" xlink:title="1">
<text text-anchor="middle" x="252.72" y="-117.74" font-family="Helvetica,sans-Serif" font-size="10.00">1</text>
</a>
</g>
</g>
<!-- dir_18ae7af74d885898b85cbb543ae51b63&#45;&gt;dir_2d29d7dff7c7baf1180920f6796c23ae -->
<g id="edge4" class="edge">
<title>dir_18ae7af74d885898b85cbb543ae51b63&#45;&gt;dir_2d29d7dff7c7baf1180920f6796c23ae</title>
<path fill="none" stroke="black" d="M350.64,-159.57C343.52,-149.34 334.52,-136.09 327,-124 315.12,-104.9 315.43,-98.04 302,-80 296.71,-72.9 290.41,-65.73 284.27,-59.27"/>
<polygon fill="black" stroke="black" points="286.72,-56.76 277.23,-52.05 281.71,-61.65 286.72,-56.76"/>
<g id="a_edge4&#45;headlabel"><a xlink:href="dir_000032_000020.html" target="_top" xlink:title="10">
<text text-anchor="middle" x="291.26" y="-54.85" font-family="Helvetica,sans-Serif" font-size="10.00">10</text>
</a>
</g>
</g>
<!-- dir_18ae7af74d885898b85cbb543ae51b63&#45;&gt;dir_3dcea8250b5ce8d5bc595fbbad3e8f21 -->
<g id="edge5" class="edge">
<title>dir_18ae7af74d885898b85cbb543ae51b63&#45;&gt;dir_3dcea8250b5ce8d5bc595fbbad3e8f21</title>
<path fill="none" stroke="black" d="M335.89,-168.93C313.28,-160.91 281.68,-146.52 262,-124 248.31,-108.33 261.99,-93.31 246,-80 190.53,-33.83 153.91,-71.16 79.91,-51.62"/>
<polygon fill="black" stroke="black" points="80.78,-48.23 70.2,-48.8 78.83,-54.95 80.78,-48.23"/>
<g id="a_edge5&#45;headlabel"><a xlink:href="dir_000032_000025.html" target="_top" xlink:title="2">
<text text-anchor="middle" x="85.03" y="-44.01" font-family="Helvetica,sans-Serif" font-size="10.00">2</text>
</a>
</g>
</g>
<!-- dir_18ae7af74d885898b85cbb543ae51b63&#45;&gt;dir_4261af1259721e3e39e0d2dd7354b511 -->
<g id="edge6" class="edge">
<title>dir_18ae7af74d885898b85cbb543ae51b63&#45;&gt;dir_4261af1259721e3e39e0d2dd7354b511</title>
<path fill="none" stroke="black" d="M335.72,-164.21C318.49,-155.02 296.77,-141.22 282,-124 268.01,-107.7 278.49,-93.77 262,-80 225.23,-49.3 201.77,-66.8 151.91,-51.76"/>
<polygon fill="black" stroke="black" points="152.88,-48.39 142.29,-48.56 150.67,-55.04 152.88,-48.39"/>
<g id="a_edge6&#45;headlabel"><a xlink:href="dir_000032_000012.html" target="_top" xlink:title="6">
<text text-anchor="middle" x="157.19" y="-44.34" font-family="Helvetica,sans-Serif" font-size="10.00">6</text>
</a>
</g>
</g>
<!-- dir_18ae7af74d885898b85cbb543ae51b63&#45;&gt;dir_4c8befd6991d7a2e9d66c427274b8c22 -->
<g id="edge7" class="edge">
<title>dir_18ae7af74d885898b85cbb543ae51b63&#45;&gt;dir_4c8befd6991d7a2e9d66c427274b8c22</title>
<path fill="none" stroke="black" d="M387.73,-159.87C424.51,-134.39 493.72,-86.45 534.85,-57.96"/>
<polygon fill="black" stroke="black" points="536.96,-60.76 543.18,-52.19 532.97,-55.01 536.96,-60.76"/>
<g id="a_edge7&#45;headlabel"><a xlink:href="dir_000032_000028.html" target="_top" xlink:title="19">
<text text-anchor="middle" x="535.62" y="-62.64" font-family="Helvetica,sans-Serif" font-size="10.00">19</text>
</a>
</g>
</g>
<!-- dir_18ae7af74d885898b85cbb543ae51b63&#45;&gt;dir_4f691f982165d1317925cee58b4b4f56 -->
<g id="edge8" class="edge">
<title>dir_18ae7af74d885898b85cbb543ae51b63&#45;&gt;dir_4f691f982165d1317925cee58b4b4f56</title>
<path fill="none" stroke="black" d="M390.16,-164.8C413.18,-154.34 446.99,-138.66 476,-124 520.66,-101.43 571.14,-73.69 604.15,-55.24"/>
<polygon fill="black" stroke="black" points="605.97,-58.24 612.98,-50.3 602.55,-52.13 605.97,-58.24"/>
<g id="a_edge8&#45;headlabel"><a xlink:href="dir_000032_000041.html" target="_top" xlink:title="18">
<text text-anchor="middle" x="604.22" y="-59.97" font-family="Helvetica,sans-Serif" font-size="10.00">18</text>
</a>
</g>
</g>
<!-- dir_18ae7af74d885898b85cbb543ae51b63&#45;&gt;dir_5427940bb9029915fc0c11c1284afde6 -->
<g id="edge9" class="edge">
<title>dir_18ae7af74d885898b85cbb543ae51b63&#45;&gt;dir_5427940bb9029915fc0c11c1284afde6</title>
<path fill="none" stroke="black" d="M378.03,-159.58C385.62,-149.78 394.22,-136.94 399,-124 406.32,-104.22 408.69,-80.42 409.3,-62.41"/>
<polygon fill="black" stroke="black" points="412.8,-62.35 409.48,-52.29 405.8,-62.23 412.8,-62.35"/>
<g id="a_edge9&#45;headlabel"><a xlink:href="dir_000032_000015.html" target="_top" xlink:title="16">
<text text-anchor="middle" x="415.57" y="-63.5" font-family="Helvetica,sans-Serif" font-size="10.00">16</text>
</a>
</g>
</g>
<!-- dir_18ae7af74d885898b85cbb543ae51b63&#45;&gt;dir_dee301ab18d354d094fb7852349ef839 -->
<g id="edge11" class="edge">
<title>dir_18ae7af74d885898b85cbb543ae51b63&#45;&gt;dir_dee301ab18d354d094fb7852349ef839</title>
<path fill="none" stroke="black" d="M378.2,-159.87C400.34,-134.92 441.57,-88.45 467.02,-59.77"/>
<polygon fill="black" stroke="black" points="469.73,-61.99 473.75,-52.19 464.49,-57.35 469.73,-61.99"/>
<g id="a_edge11&#45;headlabel"><a xlink:href="dir_000032_000010.html" target="_top" xlink:title="9">
<text text-anchor="middle" x="469.47" y="-64.07" font-family="Helvetica,sans-Serif" font-size="10.00">9</text>
</a>
</g>
</g>
<!-- dir_188b878fa4ae0872503cd2ce8b484e62 -->
<g id="node12" class="node">
<title>dir_188b878fa4ae0872503cd2ce8b484e62</title>
<g id="a_node12"><a xlink:href="dir_188b878fa4ae0872503cd2ce8b484e62.html" target="_top" xlink:title="rpc">
<polygon fill="#a2b4d6" stroke="#404040" points="390,-124 336,-124 336,-88 390,-88 390,-124"/>
<text text-anchor="middle" x="363" y="-103.5" font-family="Helvetica,sans-Serif" font-size="10.00">rpc</text>
</a>
</g>
</g>
<!-- dir_18ae7af74d885898b85cbb543ae51b63&#45;&gt;dir_188b878fa4ae0872503cd2ce8b484e62 -->
<g id="edge2" class="edge">
<title>dir_18ae7af74d885898b85cbb543ae51b63&#45;&gt;dir_188b878fa4ae0872503cd2ce8b484e62</title>
<path fill="none" stroke="black" d="M363,-159.7C363,-151.98 363,-142.71 363,-134.11"/>
<polygon fill="black" stroke="black" points="366.5,-134.1 363,-124.1 359.5,-134.1 366.5,-134.1"/>
<g id="a_edge2&#45;headlabel"><a xlink:href="dir_000032_000037.html" target="_top" xlink:title="9">
<text text-anchor="middle" x="369.34" y="-135.2" font-family="Helvetica,sans-Serif" font-size="10.00">9</text>
</a>
</g>
</g>
<!-- dir_d44c64559bbebec7f509842c48db8b23 -->
<g id="node13" class="node">
<title>dir_d44c64559bbebec7f509842c48db8b23</title>
<g id="a_node13"><a xlink:href="dir_d44c64559bbebec7f509842c48db8b23.html" target="_top" xlink:title="include">
<polygon fill="none" stroke="red" points="739,-52 685,-52 685,-16 739,-16 739,-52"/>
<text text-anchor="middle" x="712" y="-31.5" font-family="Helvetica,sans-Serif" font-size="10.00">include</text>
</a>
</g>
</g>
<!-- dir_18ae7af74d885898b85cbb543ae51b63&#45;&gt;dir_d44c64559bbebec7f509842c48db8b23 -->
<g id="edge10" class="edge">
<title>dir_18ae7af74d885898b85cbb543ae51b63&#45;&gt;dir_d44c64559bbebec7f509842c48db8b23</title>
<path fill="none" stroke="black" d="M390.4,-174.69C453.88,-168.9 608.89,-152.21 652,-124 675.02,-108.94 691.44,-81.65 701.22,-61.25"/>
<polygon fill="black" stroke="black" points="704.41,-62.7 705.37,-52.15 698.04,-59.8 704.41,-62.7"/>
<g id="a_edge10&#45;headlabel"><a xlink:href="dir_000032_000022.html" target="_top" xlink:title="170">
<text text-anchor="middle" x="705.5" y="-64.65" font-family="Helvetica,sans-Serif" font-size="10.00">170</text>
</a>
</g>
</g>
<!-- dir_188b878fa4ae0872503cd2ce8b484e62&#45;&gt;dir_122f4add68bb94b3fee614989bbbd8f9 -->
<g id="edge12" class="edge">
<title>dir_188b878fa4ae0872503cd2ce8b484e62&#45;&gt;dir_122f4add68bb94b3fee614989bbbd8f9</title>
<path fill="none" stroke="black" d="M344.2,-87.77C340.36,-84.86 336.2,-82.11 332,-80 290,-58.93 272.24,-67.72 224.01,-51.92"/>
<polygon fill="black" stroke="black" points="224.88,-48.52 214.29,-48.54 222.59,-55.13 224.88,-48.52"/>
<g id="a_edge12&#45;headlabel"><a xlink:href="dir_000037_000014.html" target="_top" xlink:title="1">
<text text-anchor="middle" x="229.21" y="-44.52" font-family="Helvetica,sans-Serif" font-size="10.00">1</text>
</a>
</g>
</g>
<!-- dir_188b878fa4ae0872503cd2ce8b484e62&#45;&gt;dir_2d29d7dff7c7baf1180920f6796c23ae -->
<g id="edge13" class="edge">
<title>dir_188b878fa4ae0872503cd2ce8b484e62&#45;&gt;dir_2d29d7dff7c7baf1180920f6796c23ae</title>
<path fill="none" stroke="black" d="M342.6,-87.95C339.12,-85.22 335.5,-82.48 332,-80 320.28,-71.71 307.03,-63.28 295.07,-56"/>
<polygon fill="black" stroke="black" points="296.59,-52.83 286.22,-50.67 292.98,-58.82 296.59,-52.83"/>
<g id="a_edge13&#45;headlabel"><a xlink:href="dir_000037_000020.html" target="_top" xlink:title="5">
<text text-anchor="middle" x="301.14" y="-49.75" font-family="Helvetica,sans-Serif" font-size="10.00">5</text>
</a>
</g>
</g>
<!-- dir_188b878fa4ae0872503cd2ce8b484e62&#45;&gt;dir_3dcea8250b5ce8d5bc595fbbad3e8f21 -->
<g id="edge14" class="edge">
<title>dir_188b878fa4ae0872503cd2ce8b484e62&#45;&gt;dir_3dcea8250b5ce8d5bc595fbbad3e8f21</title>
<path fill="none" stroke="black" d="M345.1,-87.79C341.06,-84.73 336.6,-81.91 332,-80 230.51,-37.76 190.16,-80.25 79.97,-51.65"/>
<polygon fill="black" stroke="black" points="80.72,-48.23 70.15,-48.96 78.88,-54.98 80.72,-48.23"/>
<g id="a_edge14&#45;headlabel"><a xlink:href="dir_000037_000025.html" target="_top" xlink:title="1">
<text text-anchor="middle" x="84.94" y="-43.94" font-family="Helvetica,sans-Serif" font-size="10.00">1</text>
</a>
</g>
</g>
<!-- dir_188b878fa4ae0872503cd2ce8b484e62&#45;&gt;dir_4261af1259721e3e39e0d2dd7354b511 -->
<g id="edge15" class="edge">
<title>dir_188b878fa4ae0872503cd2ce8b484e62&#45;&gt;dir_4261af1259721e3e39e0d2dd7354b511</title>
<path fill="none" stroke="black" d="M345.03,-87.94C341,-84.87 336.55,-82.01 332,-80 260.45,-48.39 231.14,-73.7 152.09,-51.75"/>
<polygon fill="black" stroke="black" points="152.77,-48.3 142.19,-48.83 150.79,-55.02 152.77,-48.3"/>
<g id="a_edge15&#45;headlabel"><a xlink:href="dir_000037_000012.html" target="_top" xlink:title="2">
<text text-anchor="middle" x="157.03" y="-44.1" font-family="Helvetica,sans-Serif" font-size="10.00">2</text>
</a>
</g>
</g>
<!-- dir_188b878fa4ae0872503cd2ce8b484e62&#45;&gt;dir_4c8befd6991d7a2e9d66c427274b8c22 -->
<g id="edge16" class="edge">
<title>dir_188b878fa4ae0872503cd2ce8b484e62&#45;&gt;dir_4c8befd6991d7a2e9d66c427274b8c22</title>
<path fill="none" stroke="black" d="M381.38,-87.85C385.32,-84.86 389.62,-82.06 394,-80 447.87,-54.68 470.38,-70.04 531.1,-51.78"/>
<polygon fill="black" stroke="black" points="532.3,-55.07 540.76,-48.69 530.17,-48.4 532.3,-55.07"/>
<g id="a_edge16&#45;headlabel"><a xlink:href="dir_000037_000028.html" target="_top" xlink:title="4">
<text text-anchor="middle" x="529.74" y="-56.37" font-family="Helvetica,sans-Serif" font-size="10.00">4</text>
</a>
</g>
</g>
<!-- dir_188b878fa4ae0872503cd2ce8b484e62&#45;&gt;dir_4f691f982165d1317925cee58b4b4f56 -->
<g id="edge17" class="edge">
<title>dir_188b878fa4ae0872503cd2ce8b484e62&#45;&gt;dir_4f691f982165d1317925cee58b4b4f56</title>
<path fill="none" stroke="black" d="M380.93,-87.86C384.97,-84.8 389.43,-81.96 394,-80 477.65,-44.08 511.43,-76.35 603.16,-51.65"/>
<polygon fill="black" stroke="black" points="604.17,-55 612.83,-48.9 602.25,-48.27 604.17,-55"/>
<g id="a_edge17&#45;headlabel"><a xlink:href="dir_000037_000041.html" target="_top" xlink:title="4">
<text text-anchor="middle" x="601.49" y="-56.22" font-family="Helvetica,sans-Serif" font-size="10.00">4</text>
</a>
</g>
</g>
<!-- dir_188b878fa4ae0872503cd2ce8b484e62&#45;&gt;dir_5427940bb9029915fc0c11c1284afde6 -->
<g id="edge18" class="edge">
<title>dir_188b878fa4ae0872503cd2ce8b484e62&#45;&gt;dir_5427940bb9029915fc0c11c1284afde6</title>
<path fill="none" stroke="black" d="M374.37,-87.7C379.72,-79.56 386.2,-69.69 392.11,-60.7"/>
<polygon fill="black" stroke="black" points="395.19,-62.38 397.76,-52.1 389.34,-58.54 395.19,-62.38"/>
<g id="a_edge18&#45;headlabel"><a xlink:href="dir_000037_000015.html" target="_top" xlink:title="7">
<text text-anchor="middle" x="395.59" y="-64.45" font-family="Helvetica,sans-Serif" font-size="10.00">7</text>
</a>
</g>
</g>
<!-- dir_188b878fa4ae0872503cd2ce8b484e62&#45;&gt;dir_dee301ab18d354d094fb7852349ef839 -->
<g id="edge20" class="edge">
<title>dir_188b878fa4ae0872503cd2ce8b484e62&#45;&gt;dir_dee301ab18d354d094fb7852349ef839</title>
<path fill="none" stroke="black" d="M382.83,-87.88C386.44,-85.09 390.25,-82.35 394,-80 410.02,-69.94 428.64,-60.65 445.13,-53.16"/>
<polygon fill="black" stroke="black" points="446.85,-56.22 454.56,-48.96 444,-49.83 446.85,-56.22"/>
<g id="a_edge20&#45;headlabel"><a xlink:href="dir_000037_000010.html" target="_top" xlink:title="2">
<text text-anchor="middle" x="444.72" y="-57.78" font-family="Helvetica,sans-Serif" font-size="10.00">2</text>
</a>
</g>
</g>
<!-- dir_188b878fa4ae0872503cd2ce8b484e62&#45;&gt;dir_fdedb0aba14d44ce9d99bc100e026e6a -->
<g id="edge21" class="edge">
<title>dir_188b878fa4ae0872503cd2ce8b484e62&#45;&gt;dir_fdedb0aba14d44ce9d99bc100e026e6a</title>
<path fill="none" stroke="black" d="M355.83,-87.7C352.57,-79.81 348.63,-70.3 345,-61.55"/>
<polygon fill="black" stroke="black" points="348.15,-60 341.09,-52.1 341.68,-62.68 348.15,-60"/>
<g id="a_edge21&#45;headlabel"><a xlink:href="dir_000037_000009.html" target="_top" xlink:title="3">
<text text-anchor="middle" x="352.15" y="-59.74" font-family="Helvetica,sans-Serif" font-size="10.00">3</text>
</a>
</g>
</g>
<!-- dir_188b878fa4ae0872503cd2ce8b484e62&#45;&gt;dir_d44c64559bbebec7f509842c48db8b23 -->
<g id="edge19" class="edge">
<title>dir_188b878fa4ae0872503cd2ce8b484e62&#45;&gt;dir_d44c64559bbebec7f509842c48db8b23</title>
<path fill="none" stroke="black" d="M390.31,-103.27C444.3,-99.25 568.26,-87.05 675.27,-52.93"/>
<polygon fill="black" stroke="black" points="676.49,-56.21 684.91,-49.78 674.32,-49.55 676.49,-56.21"/>
<g id="a_edge19&#45;headlabel"><a xlink:href="dir_000037_000022.html" target="_top" xlink:title="75">
<text text-anchor="middle" x="673.96" y="-57.52" font-family="Helvetica,sans-Serif" font-size="10.00">75</text>
</a>
</g>
</g>
</g>
</svg>
