<?xml version="1.0" encoding="UTF-8" standalone="no"?>
<!DOCTYPE svg PUBLIC "-//W3C//DTD SVG 1.1//EN"
 "http://www.w3.org/Graphics/SVG/1.1/DTD/svg11.dtd">
<!-- Generated by graphviz version 2.43.0 (0)
 -->
<!-- Title: src/kv Pages: 1 -->
<svg width="454pt" height="167pt"
 viewBox="0.00 0.00 454.00 167.00" xmlns="http://www.w3.org/2000/svg" xmlns:xlink="http://www.w3.org/1999/xlink">
<g id="graph0" class="graph" transform="scale(1 1) rotate(0) translate(4 163)">
<title>src/kv</title>
<polygon fill="white" stroke="transparent" points="-4,4 -4,-163 450,-163 450,4 -4,4"/>
<g id="clust1" class="cluster">
<title>clusterdir_68267d1309a1af8e8297ef4c3efbcdba</title>
<g id="a_clust1"><a xlink:href="dir_68267d1309a1af8e8297ef4c3efbcdba.html" target="_top" xlink:title="src">
<polygon fill="#edf0f7" stroke="#404040" stroke-dasharray="5,2" points="8,-8 8,-151 382,-151 382,-8 8,-8"/>
<text text-anchor="middle" x="195" y="-139" font-family="Helvetica,sans-Serif" font-size="10.00">src</text>
</a>
</g>
</g>
<!-- dir_122f4add68bb94b3fee614989bbbd8f9 -->
<g id="node1" class="node">
<title>dir_122f4add68bb94b3fee614989bbbd8f9</title>
<g id="a_node1"><a xlink:href="dir_122f4add68bb94b3fee614989bbbd8f9.html" target="_top" xlink:title="ds">
<polygon fill="#a2b4d6" stroke="#404040" points="70,-52 16,-52 16,-16 70,-16 70,-52"/>
<text text-anchor="middle" x="43" y="-31.5" font-family="Helvetica,sans-Serif" font-size="10.00">ds</text>
</a>
</g>
</g>
<!-- dir_18ae7af74d885898b85cbb543ae51b63 -->
<g id="node2" class="node">
<title>dir_18ae7af74d885898b85cbb543ae51b63</title>
<g id="a_node2"><a xlink:href="dir_18ae7af74d885898b85cbb543ae51b63.html" target="_top" xlink:title="node">
<polygon fill="#a2b4d6" stroke="red" points="142,-52 88,-52 88,-16 142,-16 142,-52"/>
<text text-anchor="middle" x="115" y="-31.5" font-family="Helvetica,sans-Serif" font-size="10.00">node</text>
</a>
</g>
</g>
<!-- dir_4f691f982165d1317925cee58b4b4f56 -->
<g id="node3" class="node">
<title>dir_4f691f982165d1317925cee58b4b4f56</title>
<g id="a_node3"><a xlink:href="dir_4f691f982165d1317925cee58b4b4f56.html" target="_top" xlink:title="service">
<polygon fill="#a2b4d6" stroke="red" points="214,-52 160,-52 160,-16 214,-16 214,-52"/>
<text text-anchor="middle" x="187" y="-31.5" font-family="Helvetica,sans-Serif" font-size="10.00">service</text>
</a>
</g>
</g>
<!-- dir_5427940bb9029915fc0c11c1284afde6 -->
<g id="node4" class="node">
<title>dir_5427940bb9029915fc0c11c1284afde6</title>
<g id="a_node4"><a xlink:href="dir_5427940bb9029915fc0c11c1284afde6.html" target="_top" xlink:title="enclave">
<polygon fill="#a2b4d6" stroke="#404040" points="287.5,-52 232.5,-52 232.5,-16 287.5,-16 287.5,-52"/>
<text text-anchor="middle" x="260" y="-31.5" font-family="Helvetica,sans-Serif" font-size="10.00">enclave</text>
</a>
</g>
</g>
<!-- dir_dee301ab18d354d094fb7852349ef839 -->
<g id="node5" class="node">
<title>dir_dee301ab18d354d094fb7852349ef839</title>
<g id="a_node5"><a xlink:href="dir_dee301ab18d354d094fb7852349ef839.html" target="_top" xlink:title="consensus">
<polygon fill="#a2b4d6" stroke="red" points="374,-52 306,-52 306,-16 374,-16 374,-52"/>
<text text-anchor="middle" x="340" y="-31.5" font-family="Helvetica,sans-Serif" font-size="10.00">consensus</text>
</a>
</g>
</g>
<!-- dir_4c8befd6991d7a2e9d66c427274b8c22 -->
<g id="node6" class="node">
<title>dir_4c8befd6991d7a2e9d66c427274b8c22</title>
<g id="a_node6"><a xlink:href="dir_4c8befd6991d7a2e9d66c427274b8c22.html" target="_top" xlink:title="kv">
<polygon fill="#edf0f7" stroke="#404040" stroke-width="2" points="250,-124 196,-124 196,-88 250,-88 250,-124"/>
<text text-anchor="middle" x="223" y="-103.5" font-family="Helvetica,sans-Serif" font-size="10.00">kv</text>
</a>
</g>
</g>
<!-- dir_4c8befd6991d7a2e9d66c427274b8c22&#45;&gt;dir_122f4add68bb94b3fee614989bbbd8f9 -->
<g id="edge1" class="edge">
<title>dir_4c8befd6991d7a2e9d66c427274b8c22&#45;&gt;dir_122f4add68bb94b3fee614989bbbd8f9</title>
<path fill="none" stroke="black" d="M195.92,-95.84C168.65,-86.43 125.23,-70.99 79.49,-52.04"/>
<polygon fill="black" stroke="black" points="80.59,-48.7 70.01,-48.07 77.89,-55.16 80.59,-48.7"/>
<g id="a_edge1&#45;headlabel"><a xlink:href="dir_000028_000014.html" target="_top" xlink:title="3">
<text text-anchor="middle" x="85" y="-44.97" font-family="Helvetica,sans-Serif" font-size="10.00">3</text>
</a>
</g>
</g>
<!-- dir_4c8befd6991d7a2e9d66c427274b8c22&#45;&gt;dir_18ae7af74d885898b85cbb543ae51b63 -->
<g id="edge2" class="edge">
<title>dir_4c8befd6991d7a2e9d66c427274b8c22&#45;&gt;dir_18ae7af74d885898b85cbb543ae51b63</title>
<path fill="none" stroke="black" d="M196.58,-87.88C182.59,-78.81 165.22,-67.55 150.11,-57.76"/>
<polygon fill="black" stroke="black" points="151.82,-54.69 141.52,-52.19 148.01,-60.57 151.82,-54.69"/>
<g id="a_edge2&#45;headlabel"><a xlink:href="dir_000028_000032.html" target="_top" xlink:title="3">
<text text-anchor="middle" x="156.38" y="-51.76" font-family="Helvetica,sans-Serif" font-size="10.00">3</text>
</a>
</g>
</g>
<!-- dir_4c8befd6991d7a2e9d66c427274b8c22&#45;&gt;dir_4f691f982165d1317925cee58b4b4f56 -->
<g id="edge3" class="edge">
<title>dir_4c8befd6991d7a2e9d66c427274b8c22&#45;&gt;dir_4f691f982165d1317925cee58b4b4f56</title>
<path fill="none" stroke="black" d="M214.1,-87.7C210,-79.73 205.05,-70.1 200.51,-61.26"/>
<polygon fill="black" stroke="black" points="203.48,-59.4 195.8,-52.1 197.26,-62.6 203.48,-59.4"/>
<g id="a_edge3&#45;headlabel"><a xlink:href="dir_000028_000041.html" target="_top" xlink:title="4">
<text text-anchor="middle" x="207.65" y="-58.79" font-family="Helvetica,sans-Serif" font-size="10.00">4</text>
</a>
</g>
</g>
<!-- dir_4c8befd6991d7a2e9d66c427274b8c22&#45;&gt;dir_5427940bb9029915fc0c11c1284afde6 -->
<g id="edge4" class="edge">
<title>dir_4c8befd6991d7a2e9d66c427274b8c22&#45;&gt;dir_5427940bb9029915fc0c11c1284afde6</title>
<path fill="none" stroke="black" d="M232.15,-87.7C236.4,-79.64 241.56,-69.89 246.27,-60.98"/>
<polygon fill="black" stroke="black" points="249.38,-62.58 250.96,-52.1 243.19,-59.31 249.38,-62.58"/>
<g id="a_edge4&#45;headlabel"><a xlink:href="dir_000028_000015.html" target="_top" xlink:title="2">
<text text-anchor="middle" x="250.21" y="-64.59" font-family="Helvetica,sans-Serif" font-size="10.00">2</text>
</a>
</g>
</g>
<!-- dir_4c8befd6991d7a2e9d66c427274b8c22&#45;&gt;dir_dee301ab18d354d094fb7852349ef839 -->
<g id="edge6" class="edge">
<title>dir_4c8befd6991d7a2e9d66c427274b8c22&#45;&gt;dir_dee301ab18d354d094fb7852349ef839</title>
<path fill="none" stroke="black" d="M250.14,-88.76C265.77,-79.41 285.65,-67.52 302.74,-57.29"/>
<polygon fill="black" stroke="black" points="304.59,-60.26 311.38,-52.12 301,-54.25 304.59,-60.26"/>
<g id="a_edge6&#45;headlabel"><a xlink:href="dir_000028_000010.html" target="_top" xlink:title="2">
<text text-anchor="middle" x="302.97" y="-62.04" font-family="Helvetica,sans-Serif" font-size="10.00">2</text>
</a>
</g>
</g>
<!-- dir_d44c64559bbebec7f509842c48db8b23 -->
<g id="node7" class="node">
<title>dir_d44c64559bbebec7f509842c48db8b23</title>
<g id="a_node7"><a xlink:href="dir_d44c64559bbebec7f509842c48db8b23.html" target="_top" xlink:title="include">
<polygon fill="none" stroke="red" points="446,-52 392,-52 392,-16 446,-16 446,-52"/>
<text text-anchor="middle" x="419" y="-31.5" font-family="Helvetica,sans-Serif" font-size="10.00">include</text>
</a>
</g>
</g>
<!-- dir_4c8befd6991d7a2e9d66c427274b8c22&#45;&gt;dir_d44c64559bbebec7f509842c48db8b23 -->
<g id="edge5" class="edge">
<title>dir_4c8befd6991d7a2e9d66c427274b8c22&#45;&gt;dir_d44c64559bbebec7f509842c48db8b23</title>
<path fill="none" stroke="black" d="M250.02,-97.67C280.83,-88.99 332.76,-73.43 382.53,-53.27"/>
<polygon fill="black" stroke="black" points="383.88,-56.49 391.79,-49.45 381.21,-50.02 383.88,-56.49"/>
<g id="a_edge5&#45;headlabel"><a xlink:href="dir_000028_000022.html" target="_top" xlink:title="28">
<text text-anchor="middle" x="381.64" y="-57.99" font-family="Helvetica,sans-Serif" font-size="10.00">28</text>
</a>
</g>
</g>
</g>
</svg>
