<?xml version="1.0" encoding="UTF-8" standalone="no"?>
<!DOCTYPE svg PUBLIC "-//W3C//DTD SVG 1.1//EN"
 "http://www.w3.org/Graphics/SVG/1.1/DTD/svg11.dtd">
<!-- Generated by graphviz version 2.43.0 (0)
 -->
<!-- Title: src/ds/dl_list.h Pages: 1 -->
<svg width="2421pt" height="643pt"
 viewBox="0.00 0.00 2420.50 643.00" xmlns="http://www.w3.org/2000/svg" xmlns:xlink="http://www.w3.org/1999/xlink">
<g id="graph0" class="graph" transform="scale(1 1) rotate(0) translate(4 639)">
<title>src/ds/dl_list.h</title>
<polygon fill="white" stroke="transparent" points="-4,4 -4,-639 2416.5,-639 2416.5,4 -4,4"/>
<!-- Node1 -->
<g id="node1" class="node">
<title>Node1</title>
<g id="a_node1"><a xlink:title=" ">
<polygon fill="#bfbfbf" stroke="black" points="1896.5,-615.5 1896.5,-634.5 1982.5,-634.5 1982.5,-615.5 1896.5,-615.5"/>
<text text-anchor="middle" x="1939.5" y="-622.5" font-family="Helvetica,sans-Serif" font-size="10.00">src/ds/dl_list.h</text>
</a>
</g>
</g>
<!-- Node2 -->
<g id="node2" class="node">
<title>Node2</title>
<g id="a_node2"><a xlink:href="untyped__map_8h.html" target="_top" xlink:title=" ">
<polygon fill="white" stroke="black" points="924,-559.5 924,-578.5 1049,-578.5 1049,-559.5 924,-559.5"/>
<text text-anchor="middle" x="986.5" y="-566.5" font-family="Helvetica,sans-Serif" font-size="10.00">src/kv/untyped_map.h</text>
</a>
</g>
</g>
<!-- Node1&#45;&gt;Node2 -->
<g id="edge1" class="edge">
<title>Node1&#45;&gt;Node2</title>
<path fill="none" stroke="midnightblue" d="M1886.06,-620.97C1721.91,-611.67 1225.43,-583.54 1049.3,-573.56"/>
<polygon fill="midnightblue" stroke="midnightblue" points="1886.21,-624.49 1896.39,-621.56 1886.6,-617.5 1886.21,-624.49"/>
</g>
<!-- Node14 -->
<g id="node14" class="node">
<title>Node14</title>
<g id="a_node14"><a xlink:href="history_8h.html" target="_top" xlink:title=" ">
<polygon fill="white" stroke="black" points="2070.5,-442 2070.5,-461 2172.5,-461 2172.5,-442 2070.5,-442"/>
<text text-anchor="middle" x="2121.5" y="-449" font-family="Helvetica,sans-Serif" font-size="10.00">src/node/history.h</text>
</a>
</g>
</g>
<!-- Node1&#45;&gt;Node14 -->
<g id="edge77" class="edge">
<title>Node1&#45;&gt;Node14</title>
<path fill="none" stroke="midnightblue" d="M1941.79,-605.26C1944.27,-591.36 1949.32,-572.56 1959.5,-559 1996.88,-509.2 2064.84,-475.76 2099.65,-461.04"/>
<polygon fill="midnightblue" stroke="midnightblue" points="1938.33,-604.75 1940.31,-615.15 1945.25,-605.78 1938.33,-604.75"/>
</g>
<!-- Node38 -->
<g id="node38" class="node">
<title>Node38</title>
<g id="a_node38"><a xlink:href="request__tracker_8h.html" target="_top" xlink:title=" ">
<polygon fill="white" stroke="black" points="1968,-559.5 1968,-578.5 2113,-578.5 2113,-559.5 1968,-559.5"/>
<text text-anchor="middle" x="2040.5" y="-566.5" font-family="Helvetica,sans-Serif" font-size="10.00">src/node/request_tracker.h</text>
</a>
</g>
</g>
<!-- Node1&#45;&gt;Node38 -->
<g id="edge78" class="edge">
<title>Node1&#45;&gt;Node38</title>
<path fill="none" stroke="midnightblue" d="M1964.58,-610.59C1983.26,-600.61 2008.2,-587.27 2024.31,-578.65"/>
<polygon fill="midnightblue" stroke="midnightblue" points="1962.9,-607.52 1955.73,-615.32 1966.2,-613.7 1962.9,-607.52"/>
</g>
<!-- Node3 -->
<g id="node3" class="node">
<title>Node3</title>
<g id="a_node3"><a xlink:href="js__generic__base_8cpp.html" target="_top" xlink:title=" ">
<polygon fill="white" stroke="black" points="1053.5,-235.5 1053.5,-265.5 1171.5,-265.5 1171.5,-235.5 1053.5,-235.5"/>
<text text-anchor="start" x="1061.5" y="-253.5" font-family="Helvetica,sans-Serif" font-size="10.00">src/apps/js_generic</text>
<text text-anchor="middle" x="1112.5" y="-242.5" font-family="Helvetica,sans-Serif" font-size="10.00">/js_generic_base.cpp</text>
</a>
</g>
</g>
<!-- Node2&#45;&gt;Node3 -->
<g id="edge2" class="edge">
<title>Node2&#45;&gt;Node3</title>
<path fill="none" stroke="midnightblue" d="M986.5,-549.29C986.5,-526.45 986.5,-486.64 986.5,-452.5 986.5,-452.5 986.5,-452.5 986.5,-383.5 986.5,-327.58 1046.39,-286.02 1083.59,-265.61"/>
<polygon fill="midnightblue" stroke="midnightblue" points="983,-549.31 986.5,-559.31 990,-549.31 983,-549.31"/>
</g>
<!-- Node4 -->
<g id="node4" class="node">
<title>Node4</title>
<g id="a_node4"><a xlink:href="wrap_8cpp.html" target="_top" xlink:title=" ">
<polygon fill="white" stroke="black" points="519,-179.5 519,-198.5 608,-198.5 608,-179.5 519,-179.5"/>
<text text-anchor="middle" x="563.5" y="-186.5" font-family="Helvetica,sans-Serif" font-size="10.00">src/js/wrap.cpp</text>
</a>
</g>
</g>
<!-- Node2&#45;&gt;Node4 -->
<g id="edge3" class="edge">
<title>Node2&#45;&gt;Node4</title>
<path fill="none" stroke="midnightblue" d="M913.96,-566.06C703.49,-559.46 107.5,-533.61 107.5,-452.5 107.5,-452.5 107.5,-452.5 107.5,-316.5 107.5,-279.31 98.59,-259.59 126.5,-235 155.54,-209.41 413.31,-196.11 518.8,-191.7"/>
<polygon fill="midnightblue" stroke="midnightblue" points="913.89,-569.55 923.99,-566.36 914.1,-562.56 913.89,-569.55"/>
</g>
<!-- Node5 -->
<g id="node5" class="node">
<title>Node5</title>
<g id="a_node5"><a xlink:href="store_8h.html" target="_top" xlink:title=" ">
<polygon fill="white" stroke="black" points="1592,-503.5 1592,-522.5 1675,-522.5 1675,-503.5 1592,-503.5"/>
<text text-anchor="middle" x="1633.5" y="-510.5" font-family="Helvetica,sans-Serif" font-size="10.00">src/kv/store.h</text>
</a>
</g>
</g>
<!-- Node2&#45;&gt;Node5 -->
<g id="edge4" class="edge">
<title>Node2&#45;&gt;Node5</title>
<path fill="none" stroke="midnightblue" d="M1059.45,-561.91C1195.58,-550.55 1484.27,-526.46 1591.9,-517.47"/>
<polygon fill="midnightblue" stroke="midnightblue" points="1058.8,-558.45 1049.12,-562.77 1059.38,-565.43 1058.8,-558.45"/>
</g>
<!-- Node37 -->
<g id="node37" class="node">
<title>Node37</title>
<g id="a_node37"><a xlink:href="tx_8cpp.html" target="_top" xlink:title=" ">
<polygon fill="white" stroke="black" points="0,-503.5 0,-522.5 79,-522.5 79,-503.5 0,-503.5"/>
<text text-anchor="middle" x="39.5" y="-510.5" font-family="Helvetica,sans-Serif" font-size="10.00">src/kv/tx.cpp</text>
</a>
</g>
</g>
<!-- Node2&#45;&gt;Node37 -->
<g id="edge76" class="edge">
<title>Node2&#45;&gt;Node37</title>
<path fill="none" stroke="midnightblue" d="M913.6,-567.16C761,-564.77 396.93,-555.82 93.5,-523 88.87,-522.5 84.03,-521.86 79.24,-521.15"/>
<polygon fill="midnightblue" stroke="midnightblue" points="913.73,-570.66 923.78,-567.31 913.84,-563.66 913.73,-570.66"/>
</g>
<!-- Node6 -->
<g id="node6" class="node">
<title>Node6</title>
<g id="a_node6"><a xlink:href="indexer_8h.html" target="_top" xlink:title=" ">
<polygon fill="white" stroke="black" points="1084,-442 1084,-461 1207,-461 1207,-442 1084,-442"/>
<text text-anchor="middle" x="1145.5" y="-449" font-family="Helvetica,sans-Serif" font-size="10.00">src/indexing/indexer.h</text>
</a>
</g>
</g>
<!-- Node5&#45;&gt;Node6 -->
<g id="edge5" class="edge">
<title>Node5&#45;&gt;Node6</title>
<path fill="none" stroke="midnightblue" d="M1581.87,-505.71C1491.39,-494.67 1304.55,-471.89 1207.33,-460.04"/>
<polygon fill="midnightblue" stroke="midnightblue" points="1581.54,-509.19 1591.89,-506.93 1582.39,-502.24 1581.54,-509.19"/>
</g>
<!-- Node11 -->
<g id="node11" class="node">
<title>Node11</title>
<g id="a_node11"><a xlink:href="visit__each__entry__in__map_8cpp.html" target="_top" xlink:title=" ">
<polygon fill="white" stroke="black" points="1608,-436.5 1608,-466.5 1769,-466.5 1769,-436.5 1608,-436.5"/>
<text text-anchor="start" x="1616" y="-454.5" font-family="Helvetica,sans-Serif" font-size="10.00">src/indexing/strategies</text>
<text text-anchor="middle" x="1688.5" y="-443.5" font-family="Helvetica,sans-Serif" font-size="10.00">/visit_each_entry_in_map.cpp</text>
</a>
</g>
</g>
<!-- Node5&#45;&gt;Node11 -->
<g id="edge11" class="edge">
<title>Node5&#45;&gt;Node11</title>
<path fill="none" stroke="midnightblue" d="M1648.21,-496.09C1656.72,-486.88 1667.34,-475.39 1675.54,-466.52"/>
<polygon fill="midnightblue" stroke="midnightblue" points="1645.6,-493.76 1641.38,-503.48 1650.74,-498.51 1645.6,-493.76"/>
</g>
<!-- Node12 -->
<g id="node12" class="node">
<title>Node12</title>
<g id="a_node12"><a xlink:href="historical__queries_8h.html" target="_top" xlink:title=" ">
<polygon fill="white" stroke="black" points="2306.5,-302.5 2306.5,-332.5 2412.5,-332.5 2412.5,-302.5 2306.5,-302.5"/>
<text text-anchor="start" x="2314.5" y="-320.5" font-family="Helvetica,sans-Serif" font-size="10.00">src/node/historical</text>
<text text-anchor="middle" x="2359.5" y="-309.5" font-family="Helvetica,sans-Serif" font-size="10.00">_queries.h</text>
</a>
</g>
</g>
<!-- Node5&#45;&gt;Node12 -->
<g id="edge12" class="edge">
<title>Node5&#45;&gt;Node12</title>
<path fill="none" stroke="midnightblue" d="M1685.39,-510.18C1803.41,-505.64 2088.88,-492.33 2181.5,-467 2247.26,-449.01 2271.19,-448.11 2319.5,-400 2338.82,-380.76 2350.3,-350.3 2355.71,-332.58"/>
<polygon fill="midnightblue" stroke="midnightblue" points="1685.03,-506.69 1675.17,-510.56 1685.29,-513.68 1685.03,-506.69"/>
</g>
<!-- Node5&#45;&gt;Node14 -->
<g id="edge16" class="edge">
<title>Node5&#45;&gt;Node14</title>
<path fill="none" stroke="midnightblue" d="M1685.22,-505.69C1779.15,-494.24 1976.66,-470.16 2070.24,-458.75"/>
<polygon fill="midnightblue" stroke="midnightblue" points="1684.61,-502.24 1675.11,-506.93 1685.46,-509.19 1684.61,-502.24"/>
</g>
<!-- Node16 -->
<g id="node16" class="node">
<title>Node16</title>
<g id="a_node16"><a xlink:href="snapshotter_8h.html" target="_top" xlink:title=" ">
<polygon fill="white" stroke="black" points="1837,-241 1837,-260 1964,-260 1964,-241 1837,-241"/>
<text text-anchor="middle" x="1900.5" y="-248" font-family="Helvetica,sans-Serif" font-size="10.00">src/node/snapshotter.h</text>
</a>
</g>
</g>
<!-- Node5&#45;&gt;Node16 -->
<g id="edge40" class="edge">
<title>Node5&#45;&gt;Node16</title>
<path fill="none" stroke="midnightblue" d="M1684.98,-502.38C1713.89,-495.46 1749.81,-484.25 1778.5,-467 1850.95,-423.44 1881,-411.04 1913.5,-333 1923.85,-308.13 1911.99,-275.84 1904.96,-260.43"/>
<polygon fill="midnightblue" stroke="midnightblue" points="1684.04,-499 1675.07,-504.65 1685.6,-505.83 1684.04,-499"/>
</g>
<!-- Node19 -->
<g id="node19" class="node">
<title>Node19</title>
<g id="a_node19"><a xlink:href="frontend_8h.html" target="_top" xlink:title=" ">
<polygon fill="white" stroke="black" points="1515,-375 1515,-394 1644,-394 1644,-375 1515,-375"/>
<text text-anchor="middle" x="1579.5" y="-382" font-family="Helvetica,sans-Serif" font-size="10.00">src/node/rpc/frontend.h</text>
</a>
</g>
</g>
<!-- Node5&#45;&gt;Node19 -->
<g id="edge26" class="edge">
<title>Node5&#45;&gt;Node19</title>
<path fill="none" stroke="midnightblue" d="M1618.71,-495.81C1611.98,-487.68 1604.43,-477.37 1599.5,-467 1587.74,-442.26 1582.47,-409.91 1580.49,-394.46"/>
<polygon fill="midnightblue" stroke="midnightblue" points="1616.1,-498.14 1625.29,-503.41 1621.39,-493.56 1616.1,-498.14"/>
</g>
<!-- Node26 -->
<g id="node26" class="node">
<title>Node26</title>
<g id="a_node26"><a xlink:href="network__tables_8h.html" target="_top" xlink:title=" ">
<polygon fill="white" stroke="black" points="1362.5,-436.5 1362.5,-466.5 1474.5,-466.5 1474.5,-436.5 1362.5,-436.5"/>
<text text-anchor="start" x="1370.5" y="-454.5" font-family="Helvetica,sans-Serif" font-size="10.00">src/service/network</text>
<text text-anchor="middle" x="1418.5" y="-443.5" font-family="Helvetica,sans-Serif" font-size="10.00">_tables.h</text>
</a>
</g>
</g>
<!-- Node5&#45;&gt;Node26 -->
<g id="edge41" class="edge">
<title>Node5&#45;&gt;Node26</title>
<path fill="none" stroke="midnightblue" d="M1592.79,-500.73C1557.7,-491.02 1506.89,-476.96 1469.17,-466.52"/>
<polygon fill="midnightblue" stroke="midnightblue" points="1592.12,-504.18 1602.7,-503.48 1593.99,-497.43 1592.12,-504.18"/>
</g>
<!-- Node7 -->
<g id="node7" class="node">
<title>Node7</title>
<g id="a_node7"><a xlink:href="node__state_8h.html" target="_top" xlink:title=" ">
<polygon fill="white" stroke="black" points="1271.5,-179.5 1271.5,-198.5 1395.5,-198.5 1395.5,-179.5 1271.5,-179.5"/>
<text text-anchor="middle" x="1333.5" y="-186.5" font-family="Helvetica,sans-Serif" font-size="10.00">src/node/node_state.h</text>
</a>
</g>
</g>
<!-- Node6&#45;&gt;Node7 -->
<g id="edge6" class="edge">
<title>Node6&#45;&gt;Node7</title>
<path fill="none" stroke="midnightblue" d="M1114.65,-437.29C1099.36,-428.98 1082.32,-416.65 1073.5,-400 1053.11,-361.51 1047.03,-337.34 1072.5,-302 1102.08,-260.95 1137.05,-291.92 1180.5,-266 1197.78,-255.69 1196.41,-245.63 1213.5,-235 1240.8,-218.02 1275.51,-205.87 1300.57,-198.51"/>
<polygon fill="midnightblue" stroke="midnightblue" points="1113.36,-440.55 1123.86,-441.94 1116.52,-434.31 1113.36,-440.55"/>
</g>
<!-- Node8 -->
<g id="node8" class="node">
<title>Node8</title>
<g id="a_node8"><a xlink:href="src_2enclave_2enclave_8h.html" target="_top" xlink:title=" ">
<polygon fill="white" stroke="black" points="1422.5,-56.5 1422.5,-75.5 1544.5,-75.5 1544.5,-56.5 1422.5,-56.5"/>
<text text-anchor="middle" x="1483.5" y="-63.5" font-family="Helvetica,sans-Serif" font-size="10.00">src/enclave/enclave.h</text>
</a>
</g>
</g>
<!-- Node7&#45;&gt;Node8 -->
<g id="edge7" class="edge">
<title>Node7&#45;&gt;Node8</title>
<path fill="none" stroke="midnightblue" d="M1333.39,-168.89C1334.32,-151.92 1338.3,-127.47 1352.5,-112 1370.55,-92.33 1397.57,-81.26 1422.4,-75.03"/>
<polygon fill="midnightblue" stroke="midnightblue" points="1329.89,-169.17 1333.15,-179.25 1336.89,-169.33 1329.89,-169.17"/>
</g>
<!-- Node10 -->
<g id="node10" class="node">
<title>Node10</title>
<g id="a_node10"><a xlink:href="gov__effects_8h.html" target="_top" xlink:title=" ">
<polygon fill="white" stroke="black" points="1361.5,-118 1361.5,-137 1505.5,-137 1505.5,-118 1361.5,-118"/>
<text text-anchor="middle" x="1433.5" y="-125" font-family="Helvetica,sans-Serif" font-size="10.00">src/node/rpc/gov_effects.h</text>
</a>
</g>
</g>
<!-- Node7&#45;&gt;Node10 -->
<g id="edge9" class="edge">
<title>Node7&#45;&gt;Node10</title>
<path fill="none" stroke="midnightblue" d="M1356.62,-174.24C1375.94,-162.75 1402.87,-146.72 1419.2,-137.01"/>
<polygon fill="midnightblue" stroke="midnightblue" points="1354.63,-171.35 1347.83,-179.48 1358.21,-177.37 1354.63,-171.35"/>
</g>
<!-- Node9 -->
<g id="node9" class="node">
<title>Node9</title>
<g id="a_node9"><a xlink:href="enclave_2main_8cpp.html" target="_top" xlink:title=" ">
<polygon fill="white" stroke="black" points="1423.5,-0.5 1423.5,-19.5 1543.5,-19.5 1543.5,-0.5 1423.5,-0.5"/>
<text text-anchor="middle" x="1483.5" y="-7.5" font-family="Helvetica,sans-Serif" font-size="10.00">src/enclave/main.cpp</text>
</a>
</g>
</g>
<!-- Node8&#45;&gt;Node9 -->
<g id="edge8" class="edge">
<title>Node8&#45;&gt;Node9</title>
<path fill="none" stroke="midnightblue" d="M1483.5,-45.8C1483.5,-36.91 1483.5,-26.78 1483.5,-19.75"/>
<polygon fill="midnightblue" stroke="midnightblue" points="1480,-46.08 1483.5,-56.08 1487,-46.08 1480,-46.08"/>
</g>
<!-- Node10&#45;&gt;Node8 -->
<g id="edge10" class="edge">
<title>Node10&#45;&gt;Node8</title>
<path fill="none" stroke="midnightblue" d="M1447.22,-110.17C1456.65,-98.95 1468.78,-84.52 1476.35,-75.51"/>
<polygon fill="midnightblue" stroke="midnightblue" points="1444.42,-108.07 1440.66,-117.98 1449.78,-112.57 1444.42,-108.07"/>
</g>
<!-- Node12&#45;&gt;Node8 -->
<g id="edge13" class="edge">
<title>Node12&#45;&gt;Node8</title>
<path fill="none" stroke="midnightblue" d="M2303.8,-299.53C2185.5,-263.64 1900.31,-177.94 1659.5,-112 1610.68,-98.63 1553.89,-84.34 1518.32,-75.53"/>
<polygon fill="midnightblue" stroke="midnightblue" points="2302.79,-302.88 2313.38,-302.44 2304.82,-296.18 2302.79,-302.88"/>
</g>
<!-- Node13 -->
<g id="node13" class="node">
<title>Node13</title>
<g id="a_node13"><a xlink:href="historical__transaction__fetcher_8h.html" target="_top" xlink:title=" ">
<polygon fill="white" stroke="black" points="2274,-112.5 2274,-142.5 2399,-142.5 2399,-112.5 2274,-112.5"/>
<text text-anchor="start" x="2282" y="-130.5" font-family="Helvetica,sans-Serif" font-size="10.00">src/indexing/historical</text>
<text text-anchor="middle" x="2336.5" y="-119.5" font-family="Helvetica,sans-Serif" font-size="10.00">_transaction_fetcher.h</text>
</a>
</g>
</g>
<!-- Node12&#45;&gt;Node13 -->
<g id="edge14" class="edge">
<title>Node12&#45;&gt;Node13</title>
<path fill="none" stroke="midnightblue" d="M2356.53,-292.21C2351.65,-252.37 2342.11,-174.37 2338.22,-142.54"/>
<polygon fill="midnightblue" stroke="midnightblue" points="2353.08,-292.87 2357.77,-302.37 2360.03,-292.02 2353.08,-292.87"/>
</g>
<!-- Node13&#45;&gt;Node8 -->
<g id="edge15" class="edge">
<title>Node13&#45;&gt;Node8</title>
<path fill="none" stroke="midnightblue" d="M2263.82,-115.13C2254.97,-113.96 2246.04,-112.88 2237.5,-112 1980.85,-85.59 1673.33,-73.2 1544.73,-68.87"/>
<polygon fill="midnightblue" stroke="midnightblue" points="2263.37,-118.6 2273.76,-116.48 2264.32,-111.66 2263.37,-118.6"/>
</g>
<!-- Node14&#45;&gt;Node7 -->
<g id="edge18" class="edge">
<title>Node14&#45;&gt;Node7</title>
<path fill="none" stroke="midnightblue" d="M2127.42,-431.98C2135.8,-401.99 2147.4,-342.15 2121.5,-302 2082.36,-241.32 2043.5,-252.7 1973.5,-235 1865.31,-207.65 1534.39,-195.54 1395.69,-191.58"/>
<polygon fill="midnightblue" stroke="midnightblue" points="2123.97,-431.32 2124.45,-441.9 2130.67,-433.32 2123.97,-431.32"/>
</g>
<!-- Node14&#45;&gt;Node12 -->
<g id="edge17" class="edge">
<title>Node14&#45;&gt;Node12</title>
<path fill="none" stroke="midnightblue" d="M2182.97,-440.76C2216.45,-433.38 2257.45,-420.84 2289.5,-400 2316.71,-382.31 2339.27,-351.01 2350.93,-332.78"/>
<polygon fill="midnightblue" stroke="midnightblue" points="2181.91,-437.4 2172.84,-442.88 2183.34,-444.25 2181.91,-437.4"/>
</g>
<!-- Node15 -->
<g id="node15" class="node">
<title>Node15</title>
<g id="a_node15"><a xlink:href="snapshot__serdes_8h.html" target="_top" xlink:title=" ">
<polygon fill="white" stroke="black" points="1960.5,-308 1960.5,-327 2112.5,-327 2112.5,-308 1960.5,-308"/>
<text text-anchor="middle" x="2036.5" y="-315" font-family="Helvetica,sans-Serif" font-size="10.00">src/node/snapshot_serdes.h</text>
</a>
</g>
</g>
<!-- Node14&#45;&gt;Node15 -->
<g id="edge19" class="edge">
<title>Node14&#45;&gt;Node15</title>
<path fill="none" stroke="midnightblue" d="M2110.42,-433.29C2092,-404.69 2055.76,-348.41 2041.99,-327.02"/>
<polygon fill="midnightblue" stroke="midnightblue" points="2107.57,-435.33 2115.92,-441.84 2113.45,-431.54 2107.57,-435.33"/>
</g>
<!-- Node17 -->
<g id="node17" class="node">
<title>Node17</title>
<g id="a_node17"><a xlink:href="tx__receipt__impl_8h.html" target="_top" xlink:title=" ">
<polygon fill="white" stroke="black" points="2170.5,-369.5 2170.5,-399.5 2280.5,-399.5 2280.5,-369.5 2170.5,-369.5"/>
<text text-anchor="start" x="2178.5" y="-387.5" font-family="Helvetica,sans-Serif" font-size="10.00">src/node/tx_receipt</text>
<text text-anchor="middle" x="2225.5" y="-376.5" font-family="Helvetica,sans-Serif" font-size="10.00">_impl.h</text>
</a>
</g>
</g>
<!-- Node14&#45;&gt;Node17 -->
<g id="edge22" class="edge">
<title>Node14&#45;&gt;Node17</title>
<path fill="none" stroke="midnightblue" d="M2144.46,-436.15C2161.86,-425.27 2185.66,-410.4 2202.96,-399.59"/>
<polygon fill="midnightblue" stroke="midnightblue" points="2142.15,-433.47 2135.53,-441.73 2145.86,-439.4 2142.15,-433.47"/>
</g>
<!-- Node15&#45;&gt;Node16 -->
<g id="edge20" class="edge">
<title>Node15&#45;&gt;Node16</title>
<path fill="none" stroke="midnightblue" d="M2009.18,-303.44C1982.24,-290.57 1941.84,-271.26 1918.63,-260.17"/>
<polygon fill="midnightblue" stroke="midnightblue" points="2007.91,-306.71 2018.44,-307.87 2010.93,-300.4 2007.91,-306.71"/>
</g>
<!-- Node16&#45;&gt;Node7 -->
<g id="edge21" class="edge">
<title>Node16&#45;&gt;Node7</title>
<path fill="none" stroke="midnightblue" d="M1826.57,-241.74C1713.79,-229.91 1500.78,-207.55 1395.55,-196.51"/>
<polygon fill="midnightblue" stroke="midnightblue" points="1826.52,-245.26 1836.83,-242.82 1827.25,-238.29 1826.52,-245.26"/>
</g>
<!-- Node17&#45;&gt;Node12 -->
<g id="edge23" class="edge">
<title>Node17&#45;&gt;Node12</title>
<path fill="none" stroke="midnightblue" d="M2263.65,-364.99C2284.89,-354.69 2310.91,-342.07 2330.48,-332.58"/>
<polygon fill="midnightblue" stroke="midnightblue" points="2262.05,-361.88 2254.58,-369.4 2265.1,-368.18 2262.05,-361.88"/>
</g>
<!-- Node17&#45;&gt;Node15 -->
<g id="edge25" class="edge">
<title>Node17&#45;&gt;Node15</title>
<path fill="none" stroke="midnightblue" d="M2174.93,-366.11C2138.16,-353.46 2089.98,-336.89 2061.24,-327.01"/>
<polygon fill="midnightblue" stroke="midnightblue" points="2173.9,-369.45 2184.49,-369.4 2176.17,-362.83 2173.9,-369.45"/>
</g>
<!-- Node18 -->
<g id="node18" class="node">
<title>Node18</title>
<g id="a_node18"><a xlink:href="historical__queries__adapter_8cpp.html" target="_top" xlink:title=" ">
<polygon fill="white" stroke="black" points="2168.5,-302.5 2168.5,-332.5 2288.5,-332.5 2288.5,-302.5 2168.5,-302.5"/>
<text text-anchor="start" x="2176.5" y="-320.5" font-family="Helvetica,sans-Serif" font-size="10.00">src/node/historical</text>
<text text-anchor="middle" x="2228.5" y="-309.5" font-family="Helvetica,sans-Serif" font-size="10.00">_queries_adapter.cpp</text>
</a>
</g>
</g>
<!-- Node17&#45;&gt;Node18 -->
<g id="edge24" class="edge">
<title>Node17&#45;&gt;Node18</title>
<path fill="none" stroke="midnightblue" d="M2226.61,-359.4C2227.03,-350.37 2227.49,-340.41 2227.85,-332.58"/>
<polygon fill="midnightblue" stroke="midnightblue" points="2223.12,-359.25 2226.15,-369.4 2230.11,-359.57 2223.12,-359.25"/>
</g>
<!-- Node19&#45;&gt;Node7 -->
<g id="edge31" class="edge">
<title>Node19&#45;&gt;Node7</title>
<path fill="none" stroke="midnightblue" d="M1571.97,-365.81C1557.84,-334.73 1524.4,-270.26 1476.5,-235 1450.83,-216.1 1416.98,-204.98 1388.66,-198.53"/>
<polygon fill="midnightblue" stroke="midnightblue" points="1568.78,-367.25 1576.01,-374.99 1575.18,-364.42 1568.78,-367.25"/>
</g>
<!-- Node20 -->
<g id="node20" class="node">
<title>Node20</title>
<g id="a_node20"><a xlink:href="acme__challenge__frontend_8h.html" target="_top" xlink:title=" ">
<polygon fill="white" stroke="black" points="1590.5,-302.5 1590.5,-332.5 1730.5,-332.5 1730.5,-302.5 1590.5,-302.5"/>
<text text-anchor="start" x="1598.5" y="-320.5" font-family="Helvetica,sans-Serif" font-size="10.00">src/node/acme_challenge</text>
<text text-anchor="middle" x="1660.5" y="-309.5" font-family="Helvetica,sans-Serif" font-size="10.00">_frontend.h</text>
</a>
</g>
</g>
<!-- Node19&#45;&gt;Node20 -->
<g id="edge27" class="edge">
<title>Node19&#45;&gt;Node20</title>
<path fill="none" stroke="midnightblue" d="M1598.52,-368.24C1611.96,-357.45 1629.84,-343.1 1642.94,-332.59"/>
<polygon fill="midnightblue" stroke="midnightblue" points="1596.03,-365.75 1590.42,-374.73 1600.41,-371.2 1596.03,-365.75"/>
</g>
<!-- Node22 -->
<g id="node22" class="node">
<title>Node22</title>
<g id="a_node22"><a xlink:href="member__frontend_8h.html" target="_top" xlink:title=" ">
<polygon fill="white" stroke="black" points="135.5,-235.5 135.5,-265.5 255.5,-265.5 255.5,-235.5 135.5,-235.5"/>
<text text-anchor="start" x="143.5" y="-253.5" font-family="Helvetica,sans-Serif" font-size="10.00">src/node/rpc/member</text>
<text text-anchor="middle" x="195.5" y="-242.5" font-family="Helvetica,sans-Serif" font-size="10.00">_frontend.h</text>
</a>
</g>
</g>
<!-- Node19&#45;&gt;Node22 -->
<g id="edge32" class="edge">
<title>Node19&#45;&gt;Node22</title>
<path fill="none" stroke="midnightblue" d="M1504.67,-377.23C1470.74,-374.51 1430.11,-371.39 1393.5,-369 1241.83,-359.09 857.05,-373.28 710.5,-333 681.94,-325.15 679.89,-310.44 651.5,-302 488.04,-253.42 438.27,-290.43 269.5,-266 264.97,-265.34 260.29,-264.6 255.59,-263.79"/>
<polygon fill="midnightblue" stroke="midnightblue" points="1504.72,-380.75 1514.97,-378.07 1505.28,-373.77 1504.72,-380.75"/>
</g>
<!-- Node23 -->
<g id="node23" class="node">
<title>Node23</title>
<g id="a_node23"><a xlink:href="node__frontend_8h.html" target="_top" xlink:title=" ">
<polygon fill="white" stroke="black" points="1300.5,-308 1300.5,-327 1458.5,-327 1458.5,-308 1300.5,-308"/>
<text text-anchor="middle" x="1379.5" y="-315" font-family="Helvetica,sans-Serif" font-size="10.00">src/node/rpc/node_frontend.h</text>
</a>
</g>
</g>
<!-- Node19&#45;&gt;Node23 -->
<g id="edge34" class="edge">
<title>Node19&#45;&gt;Node23</title>
<path fill="none" stroke="midnightblue" d="M1543.39,-371.77C1503.77,-358.89 1441.1,-338.52 1405.85,-327.06"/>
<polygon fill="midnightblue" stroke="midnightblue" points="1542.35,-375.11 1552.94,-374.87 1544.51,-368.45 1542.35,-375.11"/>
</g>
<!-- Node25 -->
<g id="node25" class="node">
<title>Node25</title>
<g id="a_node25"><a xlink:href="user__frontend_8h.html" target="_top" xlink:title=" ">
<polygon fill="white" stroke="black" points="1749,-308 1749,-327 1904,-327 1904,-308 1749,-308"/>
<text text-anchor="middle" x="1826.5" y="-315" font-family="Helvetica,sans-Serif" font-size="10.00">src/node/rpc/user_frontend.h</text>
</a>
</g>
</g>
<!-- Node19&#45;&gt;Node25 -->
<g id="edge38" class="edge">
<title>Node19&#45;&gt;Node25</title>
<path fill="none" stroke="midnightblue" d="M1621.97,-372.32C1670.74,-359.49 1749.7,-338.71 1793.88,-327.08"/>
<polygon fill="midnightblue" stroke="midnightblue" points="1620.82,-369.01 1612.04,-374.94 1622.61,-375.78 1620.82,-369.01"/>
</g>
<!-- Node20&#45;&gt;Node8 -->
<g id="edge28" class="edge">
<title>Node20&#45;&gt;Node8</title>
<path fill="none" stroke="midnightblue" d="M1693.67,-296.41C1703.9,-288.35 1713.94,-278.08 1719.5,-266 1725.26,-253.48 1725.81,-247.25 1719.5,-235 1674.09,-146.94 1558.82,-94.92 1508.09,-75.63"/>
<polygon fill="midnightblue" stroke="midnightblue" points="1691.5,-293.66 1685.5,-302.39 1695.64,-299.3 1691.5,-293.66"/>
</g>
<!-- Node21 -->
<g id="node21" class="node">
<title>Node21</title>
<g id="a_node21"><a xlink:href="ccf__acme__client_8h.html" target="_top" xlink:title=" ">
<polygon fill="white" stroke="black" points="1561,-241 1561,-260 1710,-260 1710,-241 1561,-241"/>
<text text-anchor="middle" x="1635.5" y="-248" font-family="Helvetica,sans-Serif" font-size="10.00">src/node/ccf_acme_client.h</text>
</a>
</g>
</g>
<!-- Node20&#45;&gt;Node21 -->
<g id="edge29" class="edge">
<title>Node20&#45;&gt;Node21</title>
<path fill="none" stroke="midnightblue" d="M1651.44,-292.94C1647.05,-281.54 1642.06,-268.55 1638.84,-260.19"/>
<polygon fill="midnightblue" stroke="midnightblue" points="1648.22,-294.32 1655.08,-302.4 1654.75,-291.81 1648.22,-294.32"/>
</g>
<!-- Node21&#45;&gt;Node7 -->
<g id="edge30" class="edge">
<title>Node21&#45;&gt;Node7</title>
<path fill="none" stroke="midnightblue" d="M1582.07,-238.97C1523.55,-227.44 1430.81,-209.17 1376.69,-198.51"/>
<polygon fill="midnightblue" stroke="midnightblue" points="1581.74,-242.48 1592.23,-240.98 1583.1,-235.61 1581.74,-242.48"/>
</g>
<!-- Node22&#45;&gt;Node8 -->
<g id="edge33" class="edge">
<title>Node22&#45;&gt;Node8</title>
<path fill="none" stroke="midnightblue" d="M200.66,-225.54C208.99,-193.38 228.77,-137.37 269.5,-112 318.81,-81.28 1182.85,-70.1 1422.38,-67.59"/>
<polygon fill="midnightblue" stroke="midnightblue" points="197.21,-224.91 198.26,-235.46 204.01,-226.56 197.21,-224.91"/>
</g>
<!-- Node23&#45;&gt;Node8 -->
<g id="edge35" class="edge">
<title>Node23&#45;&gt;Node8</title>
<path fill="none" stroke="midnightblue" d="M1418.78,-304.27C1438.61,-296.27 1461.55,-283.92 1476.5,-266 1521.66,-211.86 1535.44,-179.31 1514.5,-112 1510.1,-97.87 1499.55,-84.25 1491.98,-75.77"/>
<polygon fill="midnightblue" stroke="midnightblue" points="1417.45,-301.03 1409.35,-307.85 1419.94,-307.57 1417.45,-301.03"/>
</g>
<!-- Node24 -->
<g id="node24" class="node">
<title>Node24</title>
<g id="a_node24"><a xlink:href="jwt__key__auto__refresh_8h.html" target="_top" xlink:title=" ">
<polygon fill="white" stroke="black" points="1342,-235.5 1342,-265.5 1467,-265.5 1467,-235.5 1342,-235.5"/>
<text text-anchor="start" x="1350" y="-253.5" font-family="Helvetica,sans-Serif" font-size="10.00">src/node/jwt_key_auto</text>
<text text-anchor="middle" x="1404.5" y="-242.5" font-family="Helvetica,sans-Serif" font-size="10.00">_refresh.h</text>
</a>
</g>
</g>
<!-- Node23&#45;&gt;Node24 -->
<g id="edge36" class="edge">
<title>Node23&#45;&gt;Node24</title>
<path fill="none" stroke="midnightblue" d="M1386.47,-298.39C1390.45,-288.02 1395.38,-275.2 1399.08,-265.59"/>
<polygon fill="midnightblue" stroke="midnightblue" points="1383.19,-297.14 1382.87,-307.73 1389.73,-299.66 1383.19,-297.14"/>
</g>
<!-- Node24&#45;&gt;Node7 -->
<g id="edge37" class="edge">
<title>Node24&#45;&gt;Node7</title>
<path fill="none" stroke="midnightblue" d="M1379.91,-228.89C1367.56,-218.54 1353.26,-206.56 1343.83,-198.66"/>
<polygon fill="midnightblue" stroke="midnightblue" points="1377.76,-231.66 1387.67,-235.4 1382.26,-226.29 1377.76,-231.66"/>
</g>
<!-- Node25&#45;&gt;Node8 -->
<g id="edge39" class="edge">
<title>Node25&#45;&gt;Node8</title>
<path fill="none" stroke="midnightblue" d="M1814.94,-299.61C1787.06,-260.25 1711.95,-161.96 1624.5,-112 1593.49,-94.28 1554.58,-82.54 1525.5,-75.5"/>
<polygon fill="midnightblue" stroke="midnightblue" points="1812.12,-301.69 1820.71,-307.89 1817.86,-297.68 1812.12,-301.69"/>
</g>
<!-- Node26&#45;&gt;Node21 -->
<g id="edge42" class="edge">
<title>Node26&#45;&gt;Node21</title>
<path fill="none" stroke="midnightblue" d="M1441.31,-429.28C1459.05,-412.8 1484.29,-389.4 1506.5,-369 1551.12,-328.02 1604.76,-279.35 1626.09,-260.02"/>
<polygon fill="midnightblue" stroke="midnightblue" points="1438.67,-426.96 1433.73,-436.33 1443.43,-432.08 1438.67,-426.96"/>
</g>
<!-- Node27 -->
<g id="node27" class="node">
<title>Node27</title>
<g id="a_node27"><a xlink:href="network__state_8h.html" target="_top" xlink:title=" ">
<polygon fill="white" stroke="black" points="1244.5,-375 1244.5,-394 1384.5,-394 1384.5,-375 1244.5,-375"/>
<text text-anchor="middle" x="1314.5" y="-382" font-family="Helvetica,sans-Serif" font-size="10.00">src/node/network_state.h</text>
</a>
</g>
</g>
<!-- Node26&#45;&gt;Node27 -->
<g id="edge43" class="edge">
<title>Node26&#45;&gt;Node27</title>
<path fill="none" stroke="midnightblue" d="M1387.26,-430.97C1367.54,-418.65 1343.05,-403.35 1328.11,-394.01"/>
<polygon fill="midnightblue" stroke="midnightblue" points="1385.6,-434.06 1395.93,-436.4 1389.31,-428.13 1385.6,-434.06"/>
</g>
<!-- Node36 -->
<g id="node36" class="node">
<title>Node36</title>
<g id="a_node36"><a xlink:href="genesis__gen_8h.html" target="_top" xlink:title=" ">
<polygon fill="white" stroke="black" points="1082.5,-369.5 1082.5,-399.5 1192.5,-399.5 1192.5,-369.5 1082.5,-369.5"/>
<text text-anchor="start" x="1090.5" y="-387.5" font-family="Helvetica,sans-Serif" font-size="10.00">src/service/genesis</text>
<text text-anchor="middle" x="1137.5" y="-376.5" font-family="Helvetica,sans-Serif" font-size="10.00">_gen.h</text>
</a>
</g>
</g>
<!-- Node26&#45;&gt;Node36 -->
<g id="edge70" class="edge">
<title>Node26&#45;&gt;Node36</title>
<path fill="none" stroke="midnightblue" d="M1352.51,-435.24C1303.88,-423.99 1238.49,-408.86 1192.63,-398.25"/>
<polygon fill="midnightblue" stroke="midnightblue" points="1351.78,-438.66 1362.31,-437.5 1353.36,-431.84 1351.78,-438.66"/>
</g>
<!-- Node27&#45;&gt;Node7 -->
<g id="edge61" class="edge">
<title>Node27&#45;&gt;Node7</title>
<path fill="none" stroke="midnightblue" d="M1304.39,-366.19C1299.44,-356.73 1294.02,-344.6 1291.5,-333 1288.58,-319.54 1289.04,-315.56 1291.5,-302 1298.8,-261.75 1319.74,-217.12 1329,-198.69"/>
<polygon fill="midnightblue" stroke="midnightblue" points="1301.33,-367.9 1309.23,-374.96 1307.46,-364.51 1301.33,-367.9"/>
</g>
<!-- Node27&#45;&gt;Node8 -->
<g id="edge44" class="edge">
<title>Node27&#45;&gt;Node8</title>
<path fill="none" stroke="midnightblue" d="M1244.8,-373.7C1230.5,-371.93 1215.53,-370.25 1201.5,-369 885.46,-340.79 803.63,-369.95 488.5,-333 300.08,-310.91 69.5,-441.21 69.5,-251.5 69.5,-251.5 69.5,-251.5 69.5,-188 69.5,-107.66 155.37,-130.7 233.5,-112 349.52,-84.23 1187.42,-70.98 1422.39,-67.78"/>
<polygon fill="midnightblue" stroke="midnightblue" points="1244.71,-377.22 1255.07,-375 1245.59,-370.27 1244.71,-377.22"/>
</g>
<!-- Node27&#45;&gt;Node16 -->
<g id="edge69" class="edge">
<title>Node27&#45;&gt;Node16</title>
<path fill="none" stroke="midnightblue" d="M1350.64,-371.78C1412.64,-351.8 1536.88,-312.29 1581.5,-302 1669.06,-281.81 1772,-267.11 1836.75,-258.94"/>
<polygon fill="midnightblue" stroke="midnightblue" points="1349.33,-368.53 1340.89,-374.93 1351.48,-375.19 1349.33,-368.53"/>
</g>
<!-- Node27&#45;&gt;Node20 -->
<g id="edge60" class="edge">
<title>Node27&#45;&gt;Node20</title>
<path fill="none" stroke="midnightblue" d="M1370.1,-373.05C1429.94,-361.81 1525.24,-343.91 1590.22,-331.7"/>
<polygon fill="midnightblue" stroke="midnightblue" points="1369.27,-369.65 1360.09,-374.94 1370.56,-376.53 1369.27,-369.65"/>
</g>
<!-- Node27&#45;&gt;Node23 -->
<g id="edge62" class="edge">
<title>Node27&#45;&gt;Node23</title>
<path fill="none" stroke="midnightblue" d="M1330.5,-367.5C1343.25,-354.75 1360.61,-337.39 1370.87,-327.13"/>
<polygon fill="midnightblue" stroke="midnightblue" points="1327.86,-365.19 1323.27,-374.73 1332.81,-370.14 1327.86,-365.19"/>
</g>
<!-- Node27&#45;&gt;Node25 -->
<g id="edge63" class="edge">
<title>Node27&#45;&gt;Node25</title>
<path fill="none" stroke="midnightblue" d="M1394.73,-375.1C1480.29,-365.88 1619.69,-350.09 1739.5,-333 1751.93,-331.23 1765.32,-329.1 1777.79,-327.03"/>
<polygon fill="midnightblue" stroke="midnightblue" points="1394.14,-371.64 1384.57,-376.19 1394.89,-378.6 1394.14,-371.64"/>
</g>
<!-- Node28 -->
<g id="node28" class="node">
<title>Node28</title>
<g id="a_node28"><a xlink:href="wrap_8h.html" target="_top" xlink:title=" ">
<polygon fill="white" stroke="black" points="719.5,-308 719.5,-327 797.5,-327 797.5,-308 719.5,-308"/>
<text text-anchor="middle" x="758.5" y="-315" font-family="Helvetica,sans-Serif" font-size="10.00">src/js/wrap.h</text>
</a>
</g>
</g>
<!-- Node27&#45;&gt;Node28 -->
<g id="edge45" class="edge">
<title>Node27&#45;&gt;Node28</title>
<path fill="none" stroke="midnightblue" d="M1239.35,-373.71C1226.72,-372.1 1213.74,-370.48 1201.5,-369 1052.42,-350.94 874.88,-331.25 797.63,-322.77"/>
<polygon fill="midnightblue" stroke="midnightblue" points="1239.03,-377.19 1249.39,-374.99 1239.91,-370.25 1239.03,-377.19"/>
</g>
<!-- Node34 -->
<g id="node34" class="node">
<title>Node34</title>
<g id="a_node34"><a xlink:href="secret__broadcast_8h.html" target="_top" xlink:title=" ">
<polygon fill="white" stroke="black" points="1091,-308 1091,-327 1244,-327 1244,-308 1091,-308"/>
<text text-anchor="middle" x="1167.5" y="-315" font-family="Helvetica,sans-Serif" font-size="10.00">src/node/secret_broadcast.h</text>
</a>
</g>
</g>
<!-- Node27&#45;&gt;Node34 -->
<g id="edge64" class="edge">
<title>Node27&#45;&gt;Node34</title>
<path fill="none" stroke="midnightblue" d="M1285.74,-370.78C1256.62,-357.91 1212.4,-338.35 1187.1,-327.17"/>
<polygon fill="midnightblue" stroke="midnightblue" points="1284.42,-374.03 1294.98,-374.87 1287.25,-367.62 1284.42,-374.03"/>
</g>
<!-- Node35 -->
<g id="node35" class="node">
<title>Node35</title>
<g id="a_node35"><a xlink:href="share__manager_8h.html" target="_top" xlink:title=" ">
<polygon fill="white" stroke="black" points="497,-308 497,-327 642,-327 642,-308 497,-308"/>
<text text-anchor="middle" x="569.5" y="-315" font-family="Helvetica,sans-Serif" font-size="10.00">src/node/share_manager.h</text>
</a>
</g>
</g>
<!-- Node27&#45;&gt;Node35 -->
<g id="edge66" class="edge">
<title>Node27&#45;&gt;Node35</title>
<path fill="none" stroke="midnightblue" d="M1243.32,-373.71C1229.47,-371.99 1215.04,-370.33 1201.5,-369 966.09,-345.94 905.74,-357.82 670.5,-333 655.26,-331.39 638.79,-329.22 623.66,-327.04"/>
<polygon fill="midnightblue" stroke="midnightblue" points="1242.93,-377.19 1253.29,-374.97 1243.81,-370.24 1242.93,-377.19"/>
</g>
<!-- Node28&#45;&gt;Node3 -->
<g id="edge46" class="edge">
<title>Node28&#45;&gt;Node3</title>
<path fill="none" stroke="midnightblue" d="M807.66,-307.95C863.79,-298.11 958.35,-281.35 1039.5,-266 1043.94,-265.16 1048.54,-264.28 1053.16,-263.38"/>
<polygon fill="midnightblue" stroke="midnightblue" points="806.88,-304.53 797.64,-309.7 808.09,-311.42 806.88,-304.53"/>
</g>
<!-- Node28&#45;&gt;Node4 -->
<g id="edge57" class="edge">
<title>Node28&#45;&gt;Node4</title>
<path fill="none" stroke="midnightblue" d="M782.81,-302.48C808.25,-286.06 841.98,-258.15 822.5,-235 795.62,-203.04 674.82,-193.78 608.11,-191.1"/>
<polygon fill="midnightblue" stroke="midnightblue" points="780.91,-299.54 774.26,-307.78 784.6,-305.49 780.91,-299.54"/>
</g>
<!-- Node28&#45;&gt;Node7 -->
<g id="edge58" class="edge">
<title>Node28&#45;&gt;Node7</title>
<path fill="none" stroke="midnightblue" d="M807.93,-313.43C859.63,-308.66 942.05,-296.55 1006.5,-266 1026.2,-256.67 1024.59,-243.88 1044.5,-235 1117.89,-202.28 1210.98,-192.82 1271.37,-190.36"/>
<polygon fill="midnightblue" stroke="midnightblue" points="807.36,-309.97 797.7,-314.32 807.97,-316.94 807.36,-309.97"/>
</g>
<!-- Node28&#45;&gt;Node8 -->
<g id="edge47" class="edge">
<title>Node28&#45;&gt;Node8</title>
<path fill="none" stroke="midnightblue" d="M714.97,-305.83C708.15,-304.4 701.15,-303.05 694.5,-302 651.3,-295.15 331.98,-298.31 302.5,-266 293.21,-255.82 294.12,-245.94 302.5,-235 371.59,-144.85 1189.52,-85.84 1422.14,-70.8"/>
<polygon fill="midnightblue" stroke="midnightblue" points="714.26,-309.26 724.78,-307.99 715.77,-302.43 714.26,-309.26"/>
</g>
<!-- Node28&#45;&gt;Node22 -->
<g id="edge59" class="edge">
<title>Node28&#45;&gt;Node22</title>
<path fill="none" stroke="midnightblue" d="M717.49,-305.71C711.16,-304.3 704.68,-303 698.5,-302 509.62,-271.44 459,-292.44 269.5,-266 264.96,-265.37 260.28,-264.64 255.58,-263.85"/>
<polygon fill="midnightblue" stroke="midnightblue" points="716.7,-309.12 727.23,-307.98 718.29,-302.3 716.7,-309.12"/>
</g>
<!-- Node29 -->
<g id="node29" class="node">
<title>Node29</title>
<g id="a_node29"><a xlink:href="consensus_8cpp.html" target="_top" xlink:title=" ">
<polygon fill="white" stroke="black" points="311.5,-241 311.5,-260 427.5,-260 427.5,-241 311.5,-241"/>
<text text-anchor="middle" x="369.5" y="-248" font-family="Helvetica,sans-Serif" font-size="10.00">src/js/consensus.cpp</text>
</a>
</g>
</g>
<!-- Node28&#45;&gt;Node29 -->
<g id="edge48" class="edge">
<title>Node28&#45;&gt;Node29</title>
<path fill="none" stroke="midnightblue" d="M716.15,-305.7C710.24,-304.36 704.23,-303.08 698.5,-302 583.01,-280.17 552.25,-286.45 436.5,-266 426.77,-264.28 416.31,-262.15 406.61,-260.06"/>
<polygon fill="midnightblue" stroke="midnightblue" points="715.4,-309.12 725.93,-308 717,-302.31 715.4,-309.12"/>
</g>
<!-- Node30 -->
<g id="node30" class="node">
<title>Node30</title>
<g id="a_node30"><a xlink:href="conv_8cpp.html" target="_top" xlink:title=" ">
<polygon fill="white" stroke="black" points="445.5,-241 445.5,-260 533.5,-260 533.5,-241 445.5,-241"/>
<text text-anchor="middle" x="489.5" y="-248" font-family="Helvetica,sans-Serif" font-size="10.00">src/js/conv.cpp</text>
</a>
</g>
</g>
<!-- Node28&#45;&gt;Node30 -->
<g id="edge50" class="edge">
<title>Node28&#45;&gt;Node30</title>
<path fill="none" stroke="midnightblue" d="M713.24,-305.56C660.21,-292.75 573.45,-271.78 525.02,-260.08"/>
<polygon fill="midnightblue" stroke="midnightblue" points="712.51,-308.99 723.06,-307.94 714.16,-302.18 712.51,-308.99"/>
</g>
<!-- Node31 -->
<g id="node31" class="node">
<title>Node31</title>
<g id="a_node31"><a xlink:href="crypto_8cpp.html" target="_top" xlink:title=" ">
<polygon fill="white" stroke="black" points="589.5,-241 589.5,-260 685.5,-260 685.5,-241 589.5,-241"/>
<text text-anchor="middle" x="637.5" y="-248" font-family="Helvetica,sans-Serif" font-size="10.00">src/js/crypto.cpp</text>
</a>
</g>
</g>
<!-- Node28&#45;&gt;Node31 -->
<g id="edge52" class="edge">
<title>Node28&#45;&gt;Node31</title>
<path fill="none" stroke="midnightblue" d="M733.29,-302.96C709.3,-290.07 673.94,-271.07 653.56,-260.13"/>
<polygon fill="midnightblue" stroke="midnightblue" points="731.72,-306.08 742.18,-307.73 735.03,-299.92 731.72,-306.08"/>
</g>
<!-- Node32 -->
<g id="node32" class="node">
<title>Node32</title>
<g id="a_node32"><a xlink:href="historical_8cpp.html" target="_top" xlink:title=" ">
<polygon fill="white" stroke="black" points="703.5,-241 703.5,-260 813.5,-260 813.5,-241 703.5,-241"/>
<text text-anchor="middle" x="758.5" y="-248" font-family="Helvetica,sans-Serif" font-size="10.00">src/js/historical.cpp</text>
</a>
</g>
</g>
<!-- Node28&#45;&gt;Node32 -->
<g id="edge54" class="edge">
<title>Node28&#45;&gt;Node32</title>
<path fill="none" stroke="midnightblue" d="M758.5,-297.54C758.5,-285.17 758.5,-269.62 758.5,-260.13"/>
<polygon fill="midnightblue" stroke="midnightblue" points="755,-297.73 758.5,-307.73 762,-297.73 755,-297.73"/>
</g>
<!-- Node33 -->
<g id="node33" class="node">
<title>Node33</title>
<g id="a_node33"><a xlink:href="openenclave_8cpp.html" target="_top" xlink:title=" ">
<polygon fill="white" stroke="black" points="869.5,-241 869.5,-260 997.5,-260 997.5,-241 869.5,-241"/>
<text text-anchor="middle" x="933.5" y="-248" font-family="Helvetica,sans-Serif" font-size="10.00">src/js/openenclave.cpp</text>
</a>
</g>
</g>
<!-- Node28&#45;&gt;Node33 -->
<g id="edge56" class="edge">
<title>Node28&#45;&gt;Node33</title>
<path fill="none" stroke="midnightblue" d="M791.43,-304.27C826.16,-291.37 879.99,-271.38 910.44,-260.06"/>
<polygon fill="midnightblue" stroke="midnightblue" points="789.89,-301.11 781.74,-307.87 792.33,-307.67 789.89,-301.11"/>
</g>
<!-- Node29&#45;&gt;Node4 -->
<g id="edge49" class="edge">
<title>Node29&#45;&gt;Node4</title>
<path fill="none" stroke="midnightblue" d="M406.9,-238.03C444.61,-226.46 501.93,-208.88 535.76,-198.51"/>
<polygon fill="midnightblue" stroke="midnightblue" points="405.83,-234.7 397.3,-240.98 407.88,-241.39 405.83,-234.7"/>
</g>
<!-- Node30&#45;&gt;Node4 -->
<g id="edge51" class="edge">
<title>Node30&#45;&gt;Node4</title>
<path fill="none" stroke="midnightblue" d="M508.19,-234.47C522.34,-223.09 541.28,-207.87 552.92,-198.51"/>
<polygon fill="midnightblue" stroke="midnightblue" points="505.7,-231.98 500.1,-240.98 510.09,-237.44 505.7,-231.98"/>
</g>
<!-- Node31&#45;&gt;Node4 -->
<g id="edge53" class="edge">
<title>Node31&#45;&gt;Node4</title>
<path fill="none" stroke="midnightblue" d="M618.81,-234.47C604.66,-223.09 585.72,-207.87 574.08,-198.51"/>
<polygon fill="midnightblue" stroke="midnightblue" points="616.91,-237.44 626.9,-240.98 621.3,-231.98 616.91,-237.44"/>
</g>
<!-- Node32&#45;&gt;Node4 -->
<g id="edge55" class="edge">
<title>Node32&#45;&gt;Node4</title>
<path fill="none" stroke="midnightblue" d="M720.9,-238.03C683.01,-226.46 625.39,-208.88 591.39,-198.51"/>
<polygon fill="midnightblue" stroke="midnightblue" points="719.98,-241.4 730.56,-240.98 722.02,-234.71 719.98,-241.4"/>
</g>
<!-- Node34&#45;&gt;Node7 -->
<g id="edge65" class="edge">
<title>Node34&#45;&gt;Node7</title>
<path fill="none" stroke="midnightblue" d="M1192.8,-303.1C1209.94,-293.59 1232.79,-280.06 1251.5,-266 1280.67,-244.08 1311.22,-213.37 1325.39,-198.6"/>
<polygon fill="midnightblue" stroke="midnightblue" points="1191.02,-300.08 1183.92,-307.94 1194.38,-306.22 1191.02,-300.08"/>
</g>
<!-- Node35&#45;&gt;Node7 -->
<g id="edge67" class="edge">
<title>Node35&#45;&gt;Node7</title>
<path fill="none" stroke="midnightblue" d="M565.98,-297.76C563.64,-278.99 563.61,-250.68 580.5,-235 605.68,-211.63 1095.67,-196.33 1271.43,-191.58"/>
<polygon fill="midnightblue" stroke="midnightblue" points="562.54,-298.45 567.55,-307.79 569.46,-297.37 562.54,-298.45"/>
</g>
<!-- Node35&#45;&gt;Node22 -->
<g id="edge68" class="edge">
<title>Node35&#45;&gt;Node22</title>
<path fill="none" stroke="midnightblue" d="M506.11,-306.33C445.34,-296.47 351.04,-280.85 269.5,-266 264.99,-265.18 260.33,-264.31 255.65,-263.43"/>
<polygon fill="midnightblue" stroke="midnightblue" points="505.89,-309.84 516.32,-307.99 507.01,-302.93 505.89,-309.84"/>
</g>
<!-- Node36&#45;&gt;Node7 -->
<g id="edge71" class="edge">
<title>Node36&#45;&gt;Node7</title>
<path fill="none" stroke="midnightblue" d="M1108.34,-363.06C1088.05,-346.29 1067.15,-322.13 1082.5,-302 1119.1,-253.98 1159.84,-293.68 1213.5,-266 1232.87,-256.01 1233.43,-247.18 1251.5,-235 1272.64,-220.75 1298.69,-207.05 1315.68,-198.59"/>
<polygon fill="midnightblue" stroke="midnightblue" points="1106.28,-365.89 1116.31,-369.31 1110.61,-360.38 1106.28,-365.89"/>
</g>
<!-- Node36&#45;&gt;Node22 -->
<g id="edge72" class="edge">
<title>Node36&#45;&gt;Node22</title>
<path fill="none" stroke="midnightblue" d="M1072.08,-382.58C954.42,-380.01 699.71,-370.23 488.5,-333 396.72,-316.82 292.22,-284.21 236.17,-265.52"/>
<polygon fill="midnightblue" stroke="midnightblue" points="1072.28,-386.09 1082.35,-382.8 1072.42,-379.09 1072.28,-386.09"/>
</g>
<!-- Node36&#45;&gt;Node23 -->
<g id="edge73" class="edge">
<title>Node36&#45;&gt;Node23</title>
<path fill="none" stroke="midnightblue" d="M1199.56,-366.83C1246.92,-354.11 1310.23,-337.11 1347.75,-327.03"/>
<polygon fill="midnightblue" stroke="midnightblue" points="1198.46,-363.5 1189.71,-369.48 1200.28,-370.26 1198.46,-363.5"/>
</g>
<!-- Node36&#45;&gt;Node34 -->
<g id="edge74" class="edge">
<title>Node36&#45;&gt;Node34</title>
<path fill="none" stroke="midnightblue" d="M1148.21,-360.29C1153.51,-348.8 1159.59,-335.63 1163.49,-327.19"/>
<polygon fill="midnightblue" stroke="midnightblue" points="1145.02,-358.85 1144.01,-369.4 1151.38,-361.78 1145.02,-358.85"/>
</g>
<!-- Node36&#45;&gt;Node35 -->
<g id="edge75" class="edge">
<title>Node36&#45;&gt;Node35</title>
<path fill="none" stroke="midnightblue" d="M1072.34,-377.18C982,-368.25 813.66,-351.01 670.5,-333 656.18,-331.2 640.74,-329.07 626.34,-327.01"/>
<polygon fill="midnightblue" stroke="midnightblue" points="1072.14,-380.67 1082.43,-378.17 1072.82,-373.71 1072.14,-380.67"/>
</g>
</g>
</svg>
