<?xml version="1.0" encoding="UTF-8" standalone="no"?>
<!DOCTYPE svg PUBLIC "-//W3C//DTD SVG 1.1//EN"
 "http://www.w3.org/Graphics/SVG/1.1/DTD/svg11.dtd">
<!-- Generated by graphviz version 2.43.0 (0)
 -->
<!-- Title: src/host/dns.h Pages: 1 -->
<svg width="965pt" height="196pt"
 viewBox="0.00 0.00 964.50 196.00" xmlns="http://www.w3.org/2000/svg" xmlns:xlink="http://www.w3.org/1999/xlink">
<g id="graph0" class="graph" transform="scale(1 1) rotate(0) translate(4 192)">
<title>src/host/dns.h</title>
<polygon fill="white" stroke="transparent" points="-4,4 -4,-192 960.5,-192 960.5,4 -4,4"/>
<!-- Node1 -->
<g id="node1" class="node">
<title>Node1</title>
<g id="a_node1"><a xlink:title=" ">
<polygon fill="#bfbfbf" stroke="black" points="761,-168.5 761,-187.5 845,-187.5 845,-168.5 761,-168.5"/>
<text text-anchor="middle" x="803" y="-175.5" font-family="Helvetica,sans-Serif" font-size="10.00">src/host/dns.h</text>
</a>
</g>
</g>
<!-- Node2 -->
<g id="node2" class="node">
<title>Node2</title>
<g id="a_node2"><a xlink:href="logger_8h.html" target="_top" xlink:title=" ">
<polygon fill="white" stroke="black" points="458.5,-112.5 458.5,-131.5 545.5,-131.5 545.5,-112.5 458.5,-112.5"/>
<text text-anchor="middle" x="502" y="-119.5" font-family="Helvetica,sans-Serif" font-size="10.00">ccf/ds/logger.h</text>
</a>
</g>
</g>
<!-- Node1&#45;&gt;Node2 -->
<g id="edge1" class="edge">
<title>Node1&#45;&gt;Node2</title>
<path fill="none" stroke="midnightblue" d="M760.83,-169.43C707.26,-159.82 614.72,-143.22 556.03,-132.69"/>
<polygon fill="midnightblue" stroke="midnightblue" points="556.3,-129.19 545.84,-130.86 555.06,-136.08 556.3,-129.19"/>
</g>
<!-- Node17 -->
<g id="node17" class="node">
<title>Node17</title>
<g id="a_node17"><a xlink:href="locking_8h.html" target="_top" xlink:title=" ">
<polygon fill="white" stroke="black" points="701,-112.5 701,-131.5 797,-131.5 797,-112.5 701,-112.5"/>
<text text-anchor="middle" x="749" y="-119.5" font-family="Helvetica,sans-Serif" font-size="10.00">ccf/pal/locking.h</text>
</a>
</g>
</g>
<!-- Node1&#45;&gt;Node17 -->
<g id="edge18" class="edge">
<title>Node1&#45;&gt;Node17</title>
<path fill="none" stroke="midnightblue" d="M794.08,-168.08C786.22,-160.22 774.57,-148.57 765.08,-139.08"/>
<polygon fill="midnightblue" stroke="midnightblue" points="767.3,-136.35 757.75,-131.75 762.35,-141.3 767.3,-136.35"/>
</g>
<!-- Node19 -->
<g id="node19" class="node">
<title>Node19</title>
<g id="a_node19"><a xlink:title=" ">
<polygon fill="white" stroke="#bfbfbf" points="815,-112.5 815,-131.5 901,-131.5 901,-112.5 815,-112.5"/>
<text text-anchor="middle" x="858" y="-119.5" font-family="Helvetica,sans-Serif" font-size="10.00">unordered_set</text>
</a>
</g>
</g>
<!-- Node1&#45;&gt;Node19 -->
<g id="edge20" class="edge">
<title>Node1&#45;&gt;Node19</title>
<path fill="none" stroke="midnightblue" d="M812.08,-168.08C820.17,-160.14 832.2,-148.34 841.91,-138.8"/>
<polygon fill="midnightblue" stroke="midnightblue" points="844.4,-141.25 849.09,-131.75 839.5,-136.26 844.4,-141.25"/>
</g>
<!-- Node20 -->
<g id="node20" class="node">
<title>Node20</title>
<g id="a_node20"><a xlink:title=" ">
<polygon fill="white" stroke="#bfbfbf" points="919.5,-112.5 919.5,-131.5 956.5,-131.5 956.5,-112.5 919.5,-112.5"/>
<text text-anchor="middle" x="938" y="-119.5" font-family="Helvetica,sans-Serif" font-size="10.00">uv.h</text>
</a>
</g>
</g>
<!-- Node1&#45;&gt;Node20 -->
<g id="edge21" class="edge">
<title>Node1&#45;&gt;Node20</title>
<path fill="none" stroke="midnightblue" d="M824.39,-168.44C847.49,-159.2 884.4,-144.44 909.85,-134.26"/>
<polygon fill="midnightblue" stroke="midnightblue" points="911.33,-137.44 919.32,-130.47 908.73,-130.94 911.33,-137.44"/>
</g>
<!-- Node3 -->
<g id="node3" class="node">
<title>Node3</title>
<g id="a_node3"><a xlink:href="enum__formatter_8h.html" target="_top" xlink:title=" ">
<polygon fill="white" stroke="black" points="0,-56.5 0,-75.5 136,-75.5 136,-56.5 0,-56.5"/>
<text text-anchor="middle" x="68" y="-63.5" font-family="Helvetica,sans-Serif" font-size="10.00">ccf/ds/enum_formatter.h</text>
</a>
</g>
</g>
<!-- Node2&#45;&gt;Node3 -->
<g id="edge2" class="edge">
<title>Node2&#45;&gt;Node3</title>
<path fill="none" stroke="midnightblue" d="M458.4,-115.58C385.47,-106.5 237.76,-88.12 146.41,-76.76"/>
<polygon fill="midnightblue" stroke="midnightblue" points="146.74,-73.27 136.38,-75.51 145.87,-80.22 146.74,-73.27"/>
</g>
<!-- Node4 -->
<g id="node4" class="node">
<title>Node4</title>
<g id="a_node4"><a xlink:title=" ">
<polygon fill="white" stroke="#bfbfbf" points="21.5,-0.5 21.5,-19.5 100.5,-19.5 100.5,-0.5 21.5,-0.5"/>
<text text-anchor="middle" x="61" y="-7.5" font-family="Helvetica,sans-Serif" font-size="10.00">fmt/format.h</text>
</a>
</g>
</g>
<!-- Node2&#45;&gt;Node4 -->
<g id="edge12" class="edge">
<title>Node2&#45;&gt;Node4</title>
<path fill="none" stroke="midnightblue" d="M458.48,-119.22C397.1,-115.71 282.17,-105.47 189,-76 178.41,-72.65 120.52,-42.45 86.32,-24.42"/>
<polygon fill="midnightblue" stroke="midnightblue" points="87.84,-21.27 77.37,-19.69 84.57,-27.45 87.84,-21.27"/>
</g>
<!-- Node5 -->
<g id="node5" class="node">
<title>Node5</title>
<g id="a_node5"><a xlink:href="thread__ids_8h.html" target="_top" xlink:title=" ">
<polygon fill="white" stroke="black" points="198,-56.5 198,-75.5 306,-75.5 306,-56.5 198,-56.5"/>
<text text-anchor="middle" x="252" y="-63.5" font-family="Helvetica,sans-Serif" font-size="10.00">ccf/ds/thread_ids.h</text>
</a>
</g>
</g>
<!-- Node2&#45;&gt;Node5 -->
<g id="edge4" class="edge">
<title>Node2&#45;&gt;Node5</title>
<path fill="none" stroke="midnightblue" d="M462.39,-112.44C418.77,-103.02 348.6,-87.87 301.42,-77.68"/>
<polygon fill="midnightblue" stroke="midnightblue" points="301.94,-74.21 291.43,-75.52 300.46,-81.05 301.94,-74.21"/>
</g>
<!-- Node11 -->
<g id="node11" class="node">
<title>Node11</title>
<g id="a_node11"><a xlink:title=" ">
<polygon fill="white" stroke="#bfbfbf" points="324.5,-56.5 324.5,-75.5 403.5,-75.5 403.5,-56.5 324.5,-56.5"/>
<text text-anchor="middle" x="364" y="-63.5" font-family="Helvetica,sans-Serif" font-size="10.00">fmt/chrono.h</text>
</a>
</g>
</g>
<!-- Node2&#45;&gt;Node11 -->
<g id="edge11" class="edge">
<title>Node2&#45;&gt;Node11</title>
<path fill="none" stroke="midnightblue" d="M480.13,-112.44C457.22,-103.48 421.02,-89.31 395.13,-79.18"/>
<polygon fill="midnightblue" stroke="midnightblue" points="396.35,-75.9 385.76,-75.52 393.8,-82.42 396.35,-75.9"/>
</g>
<!-- Node12 -->
<g id="node12" class="node">
<title>Node12</title>
<g id="a_node12"><a xlink:title=" ">
<polygon fill="white" stroke="#bfbfbf" points="421,-56.5 421,-75.5 481,-75.5 481,-56.5 421,-56.5"/>
<text text-anchor="middle" x="451" y="-63.5" font-family="Helvetica,sans-Serif" font-size="10.00">iostream</text>
</a>
</g>
</g>
<!-- Node2&#45;&gt;Node12 -->
<g id="edge13" class="edge">
<title>Node2&#45;&gt;Node12</title>
<path fill="none" stroke="midnightblue" d="M493.58,-112.08C486.15,-104.22 475.15,-92.57 466.19,-83.08"/>
<polygon fill="midnightblue" stroke="midnightblue" points="468.68,-80.62 459.26,-75.75 463.59,-85.42 468.68,-80.62"/>
</g>
<!-- Node13 -->
<g id="node13" class="node">
<title>Node13</title>
<g id="a_node13"><a xlink:title=" ">
<polygon fill="white" stroke="#bfbfbf" points="499,-56.5 499,-75.5 609,-75.5 609,-56.5 499,-56.5"/>
<text text-anchor="middle" x="554" y="-63.5" font-family="Helvetica,sans-Serif" font-size="10.00">nlohmann/json.hpp</text>
</a>
</g>
</g>
<!-- Node2&#45;&gt;Node13 -->
<g id="edge14" class="edge">
<title>Node2&#45;&gt;Node13</title>
<path fill="none" stroke="midnightblue" d="M510.59,-112.08C518.16,-104.22 529.38,-92.57 538.51,-83.08"/>
<polygon fill="midnightblue" stroke="midnightblue" points="541.16,-85.38 545.57,-75.75 536.12,-80.53 541.16,-85.38"/>
</g>
<!-- Node14 -->
<g id="node14" class="node">
<title>Node14</title>
<g id="a_node14"><a xlink:title=" ">
<polygon fill="white" stroke="#bfbfbf" points="627,-56.5 627,-75.5 683,-75.5 683,-56.5 627,-56.5"/>
<text text-anchor="middle" x="655" y="-63.5" font-family="Helvetica,sans-Serif" font-size="10.00">optional</text>
</a>
</g>
</g>
<!-- Node2&#45;&gt;Node14 -->
<g id="edge15" class="edge">
<title>Node2&#45;&gt;Node14</title>
<path fill="none" stroke="midnightblue" d="M526.24,-112.44C551.87,-103.4 592.49,-89.06 621.24,-78.92"/>
<polygon fill="midnightblue" stroke="midnightblue" points="622.61,-82.15 630.87,-75.52 620.28,-75.54 622.61,-82.15"/>
</g>
<!-- Node15 -->
<g id="node15" class="node">
<title>Node15</title>
<g id="a_node15"><a xlink:title=" ">
<polygon fill="white" stroke="#bfbfbf" points="701,-56.5 701,-75.5 757,-75.5 757,-56.5 701,-56.5"/>
<text text-anchor="middle" x="729" y="-63.5" font-family="Helvetica,sans-Serif" font-size="10.00">sstream</text>
</a>
</g>
</g>
<!-- Node2&#45;&gt;Node15 -->
<g id="edge16" class="edge">
<title>Node2&#45;&gt;Node15</title>
<path fill="none" stroke="midnightblue" d="M538.44,-112.44C574.68,-103.91 632.14,-90.34 690.9,-76.25"/>
<polygon fill="midnightblue" stroke="midnightblue" points="691.82,-79.63 700.72,-73.9 690.18,-72.83 691.82,-79.63"/>
</g>
<!-- Node16 -->
<g id="node16" class="node">
<title>Node16</title>
<g id="a_node16"><a xlink:title=" ">
<polygon fill="white" stroke="#bfbfbf" points="775.5,-56.5 775.5,-75.5 844.5,-75.5 844.5,-56.5 775.5,-56.5"/>
<text text-anchor="middle" x="810" y="-63.5" font-family="Helvetica,sans-Serif" font-size="10.00">type_traits</text>
</a>
</g>
</g>
<!-- Node2&#45;&gt;Node16 -->
<g id="edge17" class="edge">
<title>Node2&#45;&gt;Node16</title>
<path fill="none" stroke="midnightblue" d="M545.52,-114.03C595.92,-105.86 681.69,-91.65 765.49,-76.04"/>
<polygon fill="midnightblue" stroke="midnightblue" points="766.25,-79.46 775.43,-74.18 764.96,-72.58 766.25,-79.46"/>
</g>
<!-- Node3&#45;&gt;Node4 -->
<g id="edge3" class="edge">
<title>Node3&#45;&gt;Node4</title>
<path fill="none" stroke="midnightblue" d="M66.84,-56.08C65.92,-48.93 64.58,-38.64 63.42,-29.69"/>
<polygon fill="midnightblue" stroke="midnightblue" points="66.89,-29.22 62.13,-19.75 59.95,-30.12 66.89,-29.22"/>
</g>
<!-- Node5&#45;&gt;Node4 -->
<g id="edge5" class="edge">
<title>Node5&#45;&gt;Node4</title>
<path fill="none" stroke="midnightblue" d="M221.74,-56.44C189.04,-47.2 136.82,-32.44 100.82,-22.26"/>
<polygon fill="midnightblue" stroke="midnightblue" points="101.7,-18.87 91.12,-19.52 99.79,-25.61 101.7,-18.87"/>
</g>
<!-- Node6 -->
<g id="node6" class="node">
<title>Node6</title>
<g id="a_node6"><a xlink:title=" ">
<polygon fill="white" stroke="#bfbfbf" points="119,-0.5 119,-19.5 205,-19.5 205,-0.5 119,-0.5"/>
<text text-anchor="middle" x="162" y="-7.5" font-family="Helvetica,sans-Serif" font-size="10.00">fmt/ostream.h</text>
</a>
</g>
</g>
<!-- Node5&#45;&gt;Node6 -->
<g id="edge6" class="edge">
<title>Node5&#45;&gt;Node6</title>
<path fill="none" stroke="midnightblue" d="M237.54,-56.32C223.5,-47.9 201.95,-34.97 185.46,-25.07"/>
<polygon fill="midnightblue" stroke="midnightblue" points="186.8,-21.8 176.42,-19.65 183.2,-27.8 186.8,-21.8"/>
</g>
<!-- Node7 -->
<g id="node7" class="node">
<title>Node7</title>
<g id="a_node7"><a xlink:title=" ">
<polygon fill="white" stroke="#bfbfbf" points="223.5,-0.5 223.5,-19.5 284.5,-19.5 284.5,-0.5 223.5,-0.5"/>
<text text-anchor="middle" x="254" y="-7.5" font-family="Helvetica,sans-Serif" font-size="10.00">fmt/std.h</text>
</a>
</g>
</g>
<!-- Node5&#45;&gt;Node7 -->
<g id="edge7" class="edge">
<title>Node5&#45;&gt;Node7</title>
<path fill="none" stroke="midnightblue" d="M252.33,-56.08C252.59,-49.01 252.97,-38.86 253.3,-29.99"/>
<polygon fill="midnightblue" stroke="midnightblue" points="256.8,-29.87 253.68,-19.75 249.81,-29.61 256.8,-29.87"/>
</g>
<!-- Node8 -->
<g id="node8" class="node">
<title>Node8</title>
<g id="a_node8"><a xlink:title=" ">
<polygon fill="white" stroke="#bfbfbf" points="303,-0.5 303,-19.5 347,-19.5 347,-0.5 303,-0.5"/>
<text text-anchor="middle" x="325" y="-7.5" font-family="Helvetica,sans-Serif" font-size="10.00">limits</text>
</a>
</g>
</g>
<!-- Node5&#45;&gt;Node8 -->
<g id="edge8" class="edge">
<title>Node5&#45;&gt;Node8</title>
<path fill="none" stroke="midnightblue" d="M263.73,-56.32C274.84,-48.11 291.74,-35.6 304.98,-25.81"/>
<polygon fill="midnightblue" stroke="midnightblue" points="307.1,-28.59 313.06,-19.83 302.94,-22.97 307.1,-28.59"/>
</g>
<!-- Node9 -->
<g id="node9" class="node">
<title>Node9</title>
<g id="a_node9"><a xlink:title=" ">
<polygon fill="white" stroke="#bfbfbf" points="365,-0.5 365,-19.5 403,-19.5 403,-0.5 365,-0.5"/>
<text text-anchor="middle" x="384" y="-7.5" font-family="Helvetica,sans-Serif" font-size="10.00">map</text>
</a>
</g>
</g>
<!-- Node5&#45;&gt;Node9 -->
<g id="edge9" class="edge">
<title>Node5&#45;&gt;Node9</title>
<path fill="none" stroke="midnightblue" d="M272.92,-56.44C295.25,-47.31 330.78,-32.77 355.62,-22.61"/>
<polygon fill="midnightblue" stroke="midnightblue" points="356.97,-25.84 364.9,-18.82 354.32,-19.36 356.97,-25.84"/>
</g>
<!-- Node10 -->
<g id="node10" class="node">
<title>Node10</title>
<g id="a_node10"><a xlink:title=" ">
<polygon fill="white" stroke="#bfbfbf" points="421,-0.5 421,-19.5 469,-19.5 469,-0.5 421,-0.5"/>
<text text-anchor="middle" x="445" y="-7.5" font-family="Helvetica,sans-Serif" font-size="10.00">thread</text>
</a>
</g>
</g>
<!-- Node5&#45;&gt;Node10 -->
<g id="edge10" class="edge">
<title>Node5&#45;&gt;Node10</title>
<path fill="none" stroke="midnightblue" d="M282.58,-56.44C317.65,-46.63 374.98,-30.59 411.31,-20.43"/>
<polygon fill="midnightblue" stroke="midnightblue" points="412.28,-23.79 420.96,-17.73 410.39,-17.05 412.28,-23.79"/>
</g>
<!-- Node18 -->
<g id="node18" class="node">
<title>Node18</title>
<g id="a_node18"><a xlink:title=" ">
<polygon fill="white" stroke="#bfbfbf" points="863,-56.5 863,-75.5 911,-75.5 911,-56.5 863,-56.5"/>
<text text-anchor="middle" x="887" y="-63.5" font-family="Helvetica,sans-Serif" font-size="10.00">mutex</text>
</a>
</g>
</g>
<!-- Node17&#45;&gt;Node18 -->
<g id="edge19" class="edge">
<title>Node17&#45;&gt;Node18</title>
<path fill="none" stroke="midnightblue" d="M770.87,-112.44C793.78,-103.48 829.98,-89.31 855.87,-79.18"/>
<polygon fill="midnightblue" stroke="midnightblue" points="857.2,-82.42 865.24,-75.52 854.65,-75.9 857.2,-82.42"/>
</g>
</g>
</svg>
