<?xml version="1.0" encoding="UTF-8" standalone="no"?>
<!DOCTYPE svg PUBLIC "-//W3C//DTD SVG 1.1//EN"
 "http://www.w3.org/Graphics/SVG/1.1/DTD/svg11.dtd">
<!-- Generated by graphviz version 2.43.0 (0)
 -->
<!-- Title: src/ds/files.h Pages: 1 -->
<svg width="880pt" height="84pt"
 viewBox="0.00 0.00 880.00 84.00" xmlns="http://www.w3.org/2000/svg" xmlns:xlink="http://www.w3.org/1999/xlink">
<g id="graph0" class="graph" transform="scale(1 1) rotate(0) translate(4 80)">
<title>src/ds/files.h</title>
<polygon fill="white" stroke="transparent" points="-4,4 -4,-80 876,-80 876,4 -4,4"/>
<!-- Node1 -->
<g id="node1" class="node">
<title>Node1</title>
<g id="a_node1"><a xlink:title=" ">
<polygon fill="#bfbfbf" stroke="black" points="402.5,-56.5 402.5,-75.5 479.5,-75.5 479.5,-56.5 402.5,-56.5"/>
<text text-anchor="middle" x="441" y="-63.5" font-family="Helvetica,sans-Serif" font-size="10.00">src/ds/files.h</text>
</a>
</g>
</g>
<!-- Node2 -->
<g id="node2" class="node">
<title>Node2</title>
<g id="a_node2"><a xlink:title=" ">
<polygon fill="white" stroke="#bfbfbf" points="0,-0.5 0,-19.5 50,-19.5 50,-0.5 0,-0.5"/>
<text text-anchor="middle" x="25" y="-7.5" font-family="Helvetica,sans-Serif" font-size="10.00">cstring</text>
</a>
</g>
</g>
<!-- Node1&#45;&gt;Node2 -->
<g id="edge1" class="edge">
<title>Node1&#45;&gt;Node2</title>
<path fill="none" stroke="midnightblue" d="M402.23,-62.26C334.66,-57.08 190.86,-44.32 60.33,-20.01"/>
<polygon fill="midnightblue" stroke="midnightblue" points="60.64,-16.5 50.16,-18.08 59.34,-23.38 60.64,-16.5"/>
</g>
<!-- Node3 -->
<g id="node3" class="node">
<title>Node3</title>
<g id="a_node3"><a xlink:title=" ">
<polygon fill="white" stroke="#bfbfbf" points="68.5,-0.5 68.5,-19.5 123.5,-19.5 123.5,-0.5 68.5,-0.5"/>
<text text-anchor="middle" x="96" y="-7.5" font-family="Helvetica,sans-Serif" font-size="10.00">fstream</text>
</a>
</g>
</g>
<!-- Node1&#45;&gt;Node3 -->
<g id="edge2" class="edge">
<title>Node1&#45;&gt;Node3</title>
<path fill="none" stroke="midnightblue" d="M402.25,-60.62C345.34,-53.92 235.66,-39.95 133.69,-20.19"/>
<polygon fill="midnightblue" stroke="midnightblue" points="134.33,-16.75 123.85,-18.25 132.98,-23.61 134.33,-16.75"/>
</g>
<!-- Node4 -->
<g id="node4" class="node">
<title>Node4</title>
<g id="a_node4"><a xlink:title=" ">
<polygon fill="white" stroke="#bfbfbf" points="141.5,-0.5 141.5,-19.5 188.5,-19.5 188.5,-0.5 141.5,-0.5"/>
<text text-anchor="middle" x="165" y="-7.5" font-family="Helvetica,sans-Serif" font-size="10.00">glob.h</text>
</a>
</g>
</g>
<!-- Node1&#45;&gt;Node4 -->
<g id="edge3" class="edge">
<title>Node1&#45;&gt;Node4</title>
<path fill="none" stroke="midnightblue" d="M402.5,-58.89C356.38,-51.34 276.62,-37.58 198.72,-20"/>
<polygon fill="midnightblue" stroke="midnightblue" points="199.26,-16.54 188.73,-17.73 197.71,-23.36 199.26,-16.54"/>
</g>
<!-- Node5 -->
<g id="node5" class="node">
<title>Node5</title>
<g id="a_node5"><a xlink:title=" ">
<polygon fill="white" stroke="#bfbfbf" points="207,-0.5 207,-19.5 267,-19.5 267,-0.5 207,-0.5"/>
<text text-anchor="middle" x="237" y="-7.5" font-family="Helvetica,sans-Serif" font-size="10.00">iostream</text>
</a>
</g>
</g>
<!-- Node1&#45;&gt;Node5 -->
<g id="edge4" class="edge">
<title>Node1&#45;&gt;Node5</title>
<path fill="none" stroke="midnightblue" d="M408.68,-56.44C372.99,-47 315.51,-31.78 277.02,-21.59"/>
<polygon fill="midnightblue" stroke="midnightblue" points="277.74,-18.16 267.18,-18.99 275.95,-24.93 277.74,-18.16"/>
</g>
<!-- Node6 -->
<g id="node6" class="node">
<title>Node6</title>
<g id="a_node6"><a xlink:title=" ">
<polygon fill="white" stroke="#bfbfbf" points="285,-0.5 285,-19.5 395,-19.5 395,-0.5 285,-0.5"/>
<text text-anchor="middle" x="340" y="-7.5" font-family="Helvetica,sans-Serif" font-size="10.00">nlohmann/json.hpp</text>
</a>
</g>
</g>
<!-- Node1&#45;&gt;Node6 -->
<g id="edge5" class="edge">
<title>Node1&#45;&gt;Node6</title>
<path fill="none" stroke="midnightblue" d="M424.77,-56.32C408.65,-47.7 383.7,-34.36 365.04,-24.39"/>
<polygon fill="midnightblue" stroke="midnightblue" points="366.66,-21.28 356.19,-19.65 363.36,-27.46 366.66,-21.28"/>
</g>
<!-- Node7 -->
<g id="node7" class="node">
<title>Node7</title>
<g id="a_node7"><a xlink:title=" ">
<polygon fill="white" stroke="#bfbfbf" points="413,-0.5 413,-19.5 469,-19.5 469,-0.5 413,-0.5"/>
<text text-anchor="middle" x="441" y="-7.5" font-family="Helvetica,sans-Serif" font-size="10.00">optional</text>
</a>
</g>
</g>
<!-- Node1&#45;&gt;Node7 -->
<g id="edge6" class="edge">
<title>Node1&#45;&gt;Node7</title>
<path fill="none" stroke="midnightblue" d="M441,-56.08C441,-49.01 441,-38.86 441,-29.99"/>
<polygon fill="midnightblue" stroke="midnightblue" points="444.5,-29.75 441,-19.75 437.5,-29.75 444.5,-29.75"/>
</g>
<!-- Node8 -->
<g id="node8" class="node">
<title>Node8</title>
<g id="a_node8"><a xlink:title=" ">
<polygon fill="white" stroke="#bfbfbf" points="487,-0.5 487,-19.5 543,-19.5 543,-0.5 487,-0.5"/>
<text text-anchor="middle" x="515" y="-7.5" font-family="Helvetica,sans-Serif" font-size="10.00">sstream</text>
</a>
</g>
</g>
<!-- Node1&#45;&gt;Node8 -->
<g id="edge7" class="edge">
<title>Node1&#45;&gt;Node8</title>
<path fill="none" stroke="midnightblue" d="M452.89,-56.32C464.15,-48.11 481.29,-35.6 494.71,-25.81"/>
<polygon fill="midnightblue" stroke="midnightblue" points="496.88,-28.56 502.89,-19.83 492.75,-22.9 496.88,-28.56"/>
</g>
<!-- Node9 -->
<g id="node9" class="node">
<title>Node9</title>
<g id="a_node9"><a xlink:title=" ">
<polygon fill="white" stroke="#bfbfbf" points="561,-0.5 561,-19.5 605,-19.5 605,-0.5 561,-0.5"/>
<text text-anchor="middle" x="583" y="-7.5" font-family="Helvetica,sans-Serif" font-size="10.00">string</text>
</a>
</g>
</g>
<!-- Node1&#45;&gt;Node9 -->
<g id="edge8" class="edge">
<title>Node1&#45;&gt;Node9</title>
<path fill="none" stroke="midnightblue" d="M463.5,-56.44C487.08,-47.48 524.32,-33.31 550.96,-23.18"/>
<polygon fill="midnightblue" stroke="midnightblue" points="552.5,-26.34 560.6,-19.52 550.01,-19.8 552.5,-26.34"/>
</g>
<!-- Node10 -->
<g id="node10" class="node">
<title>Node10</title>
<g id="a_node10"><a xlink:title=" ">
<polygon fill="white" stroke="#bfbfbf" points="623.5,-0.5 623.5,-19.5 670.5,-19.5 670.5,-0.5 623.5,-0.5"/>
<text text-anchor="middle" x="647" y="-7.5" font-family="Helvetica,sans-Serif" font-size="10.00">vector</text>
</a>
</g>
</g>
<!-- Node1&#45;&gt;Node10 -->
<g id="edge9" class="edge">
<title>Node1&#45;&gt;Node10</title>
<path fill="none" stroke="midnightblue" d="M474.2,-56.49C507.07,-48.03 559.1,-34.58 613.41,-20.13"/>
<polygon fill="midnightblue" stroke="midnightblue" points="614.45,-23.48 623.22,-17.52 612.65,-16.71 614.45,-23.48"/>
</g>
<!-- Node11 -->
<g id="node11" class="node">
<title>Node11</title>
<g id="a_node11"><a xlink:title=" ">
<polygon fill="white" stroke="#bfbfbf" points="688.5,-0.5 688.5,-19.5 767.5,-19.5 767.5,-0.5 688.5,-0.5"/>
<text text-anchor="middle" x="728" y="-7.5" font-family="Helvetica,sans-Serif" font-size="10.00">fmt/format.h</text>
</a>
</g>
</g>
<!-- Node1&#45;&gt;Node11 -->
<g id="edge10" class="edge">
<title>Node1&#45;&gt;Node11</title>
<path fill="none" stroke="midnightblue" d="M479.71,-57.72C530.98,-48.07 621.52,-31.04 677.94,-20.42"/>
<polygon fill="midnightblue" stroke="midnightblue" points="678.89,-23.8 688.07,-18.51 677.59,-16.92 678.89,-23.8"/>
</g>
<!-- Node12 -->
<g id="node12" class="node">
<title>Node12</title>
<g id="a_node12"><a xlink:title=" ">
<polygon fill="white" stroke="#bfbfbf" points="786,-0.5 786,-19.5 872,-19.5 872,-0.5 786,-0.5"/>
<text text-anchor="middle" x="829" y="-7.5" font-family="Helvetica,sans-Serif" font-size="10.00">fmt/ostream.h</text>
</a>
</g>
</g>
<!-- Node1&#45;&gt;Node12 -->
<g id="edge11" class="edge">
<title>Node1&#45;&gt;Node12</title>
<path fill="none" stroke="midnightblue" d="M479.62,-60.32C540.41,-52.83 662.36,-37.4 775.98,-20.11"/>
<polygon fill="midnightblue" stroke="midnightblue" points="776.53,-23.56 785.89,-18.59 775.48,-16.64 776.53,-23.56"/>
</g>
</g>
</svg>
