<?xml version="1.0" encoding="UTF-8" standalone="no"?>
<!DOCTYPE svg PUBLIC "-//W3C//DTD SVG 1.1//EN"
 "http://www.w3.org/Graphics/SVG/1.1/DTD/svg11.dtd">
<!-- Generated by graphviz version 2.43.0 (0)
 -->
<!-- Title: src/node/rpc/gov_effects_interface.h Pages: 1 -->
<svg width="1888pt" height="609pt"
 viewBox="0.00 0.00 1888.00 609.00" xmlns="http://www.w3.org/2000/svg" xmlns:xlink="http://www.w3.org/1999/xlink">
<g id="graph0" class="graph" transform="scale(1 1) rotate(0) translate(4 605)">
<title>src/node/rpc/gov_effects_interface.h</title>
<polygon fill="white" stroke="transparent" points="-4,4 -4,-605 1884,-605 1884,4 -4,4"/>
<!-- Node1 -->
<g id="node1" class="node">
<title>Node1</title>
<g id="a_node1"><a xlink:title=" ">
<polygon fill="#bfbfbf" stroke="black" points="886.5,-570.5 886.5,-600.5 1021.5,-600.5 1021.5,-570.5 886.5,-570.5"/>
<text text-anchor="start" x="894.5" y="-588.5" font-family="Helvetica,sans-Serif" font-size="10.00">src/node/rpc/gov_effects</text>
<text text-anchor="middle" x="954" y="-577.5" font-family="Helvetica,sans-Serif" font-size="10.00">_interface.h</text>
</a>
</g>
</g>
<!-- Node2 -->
<g id="node2" class="node">
<title>Node2</title>
<g id="a_node2"><a xlink:href="wrap_8cpp.html" target="_top" xlink:title=" ">
<polygon fill="white" stroke="black" points="309.5,-319 309.5,-338 398.5,-338 398.5,-319 309.5,-319"/>
<text text-anchor="middle" x="354" y="-326" font-family="Helvetica,sans-Serif" font-size="10.00">src/js/wrap.cpp</text>
</a>
</g>
</g>
<!-- Node1&#45;&gt;Node2 -->
<g id="edge1" class="edge">
<title>Node1&#45;&gt;Node2</title>
<path fill="none" stroke="midnightblue" d="M876.38,-581.64C678.04,-572.54 160.94,-536.97 57,-411 48.23,-400.37 48.11,-390.53 57,-380 88.76,-342.38 234.41,-332.78 309.28,-330.34"/>
<polygon fill="midnightblue" stroke="midnightblue" points="876.29,-585.14 886.43,-582.09 876.6,-578.15 876.29,-585.14"/>
</g>
<!-- Node3 -->
<g id="node3" class="node">
<title>Node3</title>
<g id="a_node3"><a xlink:href="wrap_8h.html" target="_top" xlink:title=" ">
<polygon fill="white" stroke="black" points="613,-453 613,-472 691,-472 691,-453 613,-453"/>
<text text-anchor="middle" x="652" y="-460" font-family="Helvetica,sans-Serif" font-size="10.00">src/js/wrap.h</text>
</a>
</g>
</g>
<!-- Node1&#45;&gt;Node3 -->
<g id="edge2" class="edge">
<title>Node1&#45;&gt;Node3</title>
<path fill="none" stroke="midnightblue" d="M909.45,-566.65C843.51,-540.23 722.46,-491.73 673.44,-472.09"/>
<polygon fill="midnightblue" stroke="midnightblue" points="908.18,-569.91 918.77,-570.38 910.78,-563.41 908.18,-569.91"/>
</g>
<!-- Node13 -->
<g id="node13" class="node">
<title>Node13</title>
<g id="a_node13"><a xlink:href="gov__effects_8h.html" target="_top" xlink:title=" ">
<polygon fill="white" stroke="black" points="1286,-118 1286,-137 1430,-137 1430,-118 1286,-118"/>
<text text-anchor="middle" x="1358" y="-125" font-family="Helvetica,sans-Serif" font-size="10.00">src/node/rpc/gov_effects.h</text>
</a>
</g>
</g>
<!-- Node1&#45;&gt;Node13 -->
<g id="edge22" class="edge">
<title>Node1&#45;&gt;Node13</title>
<path fill="none" stroke="midnightblue" d="M1031.98,-579.73C1127.65,-572.94 1283.59,-558.49 1336,-534 1431.89,-489.2 1458,-435.33 1458,-329.5 1458,-329.5 1458,-329.5 1458,-260.5 1458,-203.86 1398.78,-156.23 1371.49,-137.28"/>
<polygon fill="midnightblue" stroke="midnightblue" points="1031.5,-576.26 1021.77,-580.45 1031.99,-583.24 1031.5,-576.26"/>
</g>
<!-- Node14 -->
<g id="node14" class="node">
<title>Node14</title>
<g id="a_node14"><a xlink:href="member__frontend_8h.html" target="_top" xlink:title=" ">
<polygon fill="white" stroke="black" points="856,-313.5 856,-343.5 976,-343.5 976,-313.5 856,-313.5"/>
<text text-anchor="start" x="864" y="-331.5" font-family="Helvetica,sans-Serif" font-size="10.00">src/node/rpc/member</text>
<text text-anchor="middle" x="916" y="-320.5" font-family="Helvetica,sans-Serif" font-size="10.00">_frontend.h</text>
</a>
</g>
</g>
<!-- Node1&#45;&gt;Node14 -->
<g id="edge23" class="edge">
<title>Node1&#45;&gt;Node14</title>
<path fill="none" stroke="midnightblue" d="M950.4,-560.37C942.59,-507.95 924.28,-385.1 918.09,-343.53"/>
<polygon fill="midnightblue" stroke="midnightblue" points="946.97,-561.05 951.9,-570.43 953.89,-560.02 946.97,-561.05"/>
</g>
<!-- Node15 -->
<g id="node15" class="node">
<title>Node15</title>
<g id="a_node15"><a xlink:href="node__interface_8h.html" target="_top" xlink:title=" ">
<polygon fill="white" stroke="black" points="1165.5,-514.5 1165.5,-533.5 1326.5,-533.5 1326.5,-514.5 1165.5,-514.5"/>
<text text-anchor="middle" x="1246" y="-521.5" font-family="Helvetica,sans-Serif" font-size="10.00">src/node/rpc/node_interface.h</text>
</a>
</g>
</g>
<!-- Node1&#45;&gt;Node15 -->
<g id="edge24" class="edge">
<title>Node1&#45;&gt;Node15</title>
<path fill="none" stroke="midnightblue" d="M1031.83,-568.64C1087.07,-557.39 1159.08,-542.71 1203.93,-533.57"/>
<polygon fill="midnightblue" stroke="midnightblue" points="1030.82,-565.27 1021.72,-570.7 1032.22,-572.13 1030.82,-565.27"/>
</g>
<!-- Node3&#45;&gt;Node2 -->
<g id="edge15" class="edge">
<title>Node3&#45;&gt;Node2</title>
<path fill="none" stroke="midnightblue" d="M664.96,-444.42C676.91,-426.45 690.62,-398.27 675,-380 639.99,-339.05 478.53,-331.09 398.8,-329.69"/>
<polygon fill="midnightblue" stroke="midnightblue" points="661.96,-442.6 659.03,-452.79 667.67,-446.65 661.96,-442.6"/>
</g>
<!-- Node4 -->
<g id="node4" class="node">
<title>Node4</title>
<g id="a_node4"><a xlink:href="js__generic__base_8cpp.html" target="_top" xlink:title=" ">
<polygon fill="white" stroke="black" points="420,-380.5 420,-410.5 538,-410.5 538,-380.5 420,-380.5"/>
<text text-anchor="start" x="428" y="-398.5" font-family="Helvetica,sans-Serif" font-size="10.00">src/apps/js_generic</text>
<text text-anchor="middle" x="479" y="-387.5" font-family="Helvetica,sans-Serif" font-size="10.00">/js_generic_base.cpp</text>
</a>
</g>
</g>
<!-- Node3&#45;&gt;Node4 -->
<g id="edge3" class="edge">
<title>Node3&#45;&gt;Node4</title>
<path fill="none" stroke="midnightblue" d="M619.65,-449.35C590.33,-438.33 547.12,-422.09 516.34,-410.53"/>
<polygon fill="midnightblue" stroke="midnightblue" points="618.43,-452.63 629.03,-452.87 620.9,-446.07 618.43,-452.63"/>
</g>
<!-- Node5 -->
<g id="node5" class="node">
<title>Node5</title>
<g id="a_node5"><a xlink:href="src_2enclave_2enclave_8h.html" target="_top" xlink:title=" ">
<polygon fill="white" stroke="black" points="1247,-56.5 1247,-75.5 1369,-75.5 1369,-56.5 1247,-56.5"/>
<text text-anchor="middle" x="1308" y="-63.5" font-family="Helvetica,sans-Serif" font-size="10.00">src/enclave/enclave.h</text>
</a>
</g>
</g>
<!-- Node3&#45;&gt;Node5 -->
<g id="edge4" class="edge">
<title>Node3&#45;&gt;Node5</title>
<path fill="none" stroke="midnightblue" d="M602.64,-459.7C468.44,-454.48 103.79,-437.95 57,-411 18.7,-388.94 0,-373.7 0,-329.5 0,-329.5 0,-329.5 0,-193.5 0,-66.6 988.07,-64.73 1246.67,-66.41"/>
<polygon fill="midnightblue" stroke="midnightblue" points="602.53,-463.2 612.65,-460.09 602.79,-456.2 602.53,-463.2"/>
</g>
<!-- Node7 -->
<g id="node7" class="node">
<title>Node7</title>
<g id="a_node7"><a xlink:href="consensus_8cpp.html" target="_top" xlink:title=" ">
<polygon fill="white" stroke="black" points="66,-386 66,-405 182,-405 182,-386 66,-386"/>
<text text-anchor="middle" x="124" y="-393" font-family="Helvetica,sans-Serif" font-size="10.00">src/js/consensus.cpp</text>
</a>
</g>
</g>
<!-- Node3&#45;&gt;Node7 -->
<g id="edge6" class="edge">
<title>Node3&#45;&gt;Node7</title>
<path fill="none" stroke="midnightblue" d="M602.88,-457.81C518.37,-451.08 340.14,-435.24 191,-411 180.9,-409.36 170.02,-407.18 160.03,-405.02"/>
<polygon fill="midnightblue" stroke="midnightblue" points="602.72,-461.31 612.96,-458.6 603.27,-454.33 602.72,-461.31"/>
</g>
<!-- Node8 -->
<g id="node8" class="node">
<title>Node8</title>
<g id="a_node8"><a xlink:href="conv_8cpp.html" target="_top" xlink:title=" ">
<polygon fill="white" stroke="black" points="200,-386 200,-405 288,-405 288,-386 200,-386"/>
<text text-anchor="middle" x="244" y="-393" font-family="Helvetica,sans-Serif" font-size="10.00">src/js/conv.cpp</text>
</a>
</g>
</g>
<!-- Node3&#45;&gt;Node8 -->
<g id="edge8" class="edge">
<title>Node3&#45;&gt;Node8</title>
<path fill="none" stroke="midnightblue" d="M602.73,-456.47C533.87,-449 405.14,-433.39 297,-411 289.06,-409.36 280.55,-407.21 272.72,-405.07"/>
<polygon fill="midnightblue" stroke="midnightblue" points="602.53,-459.97 612.85,-457.56 603.28,-453.01 602.53,-459.97"/>
</g>
<!-- Node9 -->
<g id="node9" class="node">
<title>Node9</title>
<g id="a_node9"><a xlink:href="crypto_8cpp.html" target="_top" xlink:title=" ">
<polygon fill="white" stroke="black" points="306,-386 306,-405 402,-405 402,-386 306,-386"/>
<text text-anchor="middle" x="354" y="-393" font-family="Helvetica,sans-Serif" font-size="10.00">src/js/crypto.cpp</text>
</a>
</g>
</g>
<!-- Node3&#45;&gt;Node9 -->
<g id="edge10" class="edge">
<title>Node3&#45;&gt;Node9</title>
<path fill="none" stroke="midnightblue" d="M602.67,-451.8C553.87,-442.06 477.09,-426.32 411,-411 403.04,-409.15 394.49,-407.05 386.5,-405.02"/>
<polygon fill="midnightblue" stroke="midnightblue" points="602.16,-455.27 612.65,-453.79 603.52,-448.4 602.16,-455.27"/>
</g>
<!-- Node10 -->
<g id="node10" class="node">
<title>Node10</title>
<g id="a_node10"><a xlink:href="historical_8cpp.html" target="_top" xlink:title=" ">
<polygon fill="white" stroke="black" points="556,-386 556,-405 666,-405 666,-386 556,-386"/>
<text text-anchor="middle" x="611" y="-393" font-family="Helvetica,sans-Serif" font-size="10.00">src/js/historical.cpp</text>
</a>
</g>
</g>
<!-- Node3&#45;&gt;Node10 -->
<g id="edge12" class="edge">
<title>Node3&#45;&gt;Node10</title>
<path fill="none" stroke="midnightblue" d="M640.98,-444.03C633.05,-431.45 622.67,-415.01 616.44,-405.13"/>
<polygon fill="midnightblue" stroke="midnightblue" points="638.18,-446.14 646.47,-452.73 644.1,-442.41 638.18,-446.14"/>
</g>
<!-- Node11 -->
<g id="node11" class="node">
<title>Node11</title>
<g id="a_node11"><a xlink:href="openenclave_8cpp.html" target="_top" xlink:title=" ">
<polygon fill="white" stroke="black" points="722,-386 722,-405 850,-405 850,-386 722,-386"/>
<text text-anchor="middle" x="786" y="-393" font-family="Helvetica,sans-Serif" font-size="10.00">src/js/openenclave.cpp</text>
</a>
</g>
</g>
<!-- Node3&#45;&gt;Node11 -->
<g id="edge14" class="edge">
<title>Node3&#45;&gt;Node11</title>
<path fill="none" stroke="midnightblue" d="M678.92,-448.44C705.46,-435.57 745.27,-416.26 768.13,-405.17"/>
<polygon fill="midnightblue" stroke="midnightblue" points="677.26,-445.35 669.79,-452.87 680.32,-451.65 677.26,-445.35"/>
</g>
<!-- Node12 -->
<g id="node12" class="node">
<title>Node12</title>
<g id="a_node12"><a xlink:href="node__state_8h.html" target="_top" xlink:title=" ">
<polygon fill="white" stroke="black" points="1148,-185 1148,-204 1272,-204 1272,-185 1148,-185"/>
<text text-anchor="middle" x="1210" y="-192" font-family="Helvetica,sans-Serif" font-size="10.00">src/node/node_state.h</text>
</a>
</g>
</g>
<!-- Node3&#45;&gt;Node12 -->
<g id="edge16" class="edge">
<title>Node3&#45;&gt;Node12</title>
<path fill="none" stroke="midnightblue" d="M701.6,-456.38C756.5,-449.58 839.79,-435.46 859,-411 886.1,-376.49 822.38,-349.32 847,-313 882.63,-260.43 1068.54,-220.69 1159.62,-204.05"/>
<polygon fill="midnightblue" stroke="midnightblue" points="700.88,-452.94 691.37,-457.61 701.71,-459.89 700.88,-452.94"/>
</g>
<!-- Node3&#45;&gt;Node14 -->
<g id="edge20" class="edge">
<title>Node3&#45;&gt;Node14</title>
<path fill="none" stroke="midnightblue" d="M701.41,-457.05C763.35,-450.48 864.75,-436.18 892,-411 910.96,-393.48 915.21,-361.83 916.01,-343.55"/>
<polygon fill="midnightblue" stroke="midnightblue" points="701.04,-453.57 691.45,-458.07 701.75,-460.53 701.04,-453.57"/>
</g>
<!-- Node6 -->
<g id="node6" class="node">
<title>Node6</title>
<g id="a_node6"><a xlink:href="enclave_2main_8cpp.html" target="_top" xlink:title=" ">
<polygon fill="white" stroke="black" points="1248,-0.5 1248,-19.5 1368,-19.5 1368,-0.5 1248,-0.5"/>
<text text-anchor="middle" x="1308" y="-7.5" font-family="Helvetica,sans-Serif" font-size="10.00">src/enclave/main.cpp</text>
</a>
</g>
</g>
<!-- Node5&#45;&gt;Node6 -->
<g id="edge5" class="edge">
<title>Node5&#45;&gt;Node6</title>
<path fill="none" stroke="midnightblue" d="M1308,-45.8C1308,-36.91 1308,-26.78 1308,-19.75"/>
<polygon fill="midnightblue" stroke="midnightblue" points="1304.5,-46.08 1308,-56.08 1311.5,-46.08 1304.5,-46.08"/>
</g>
<!-- Node7&#45;&gt;Node2 -->
<g id="edge7" class="edge">
<title>Node7&#45;&gt;Node2</title>
<path fill="none" stroke="midnightblue" d="M164.37,-383.09C209.87,-370.23 282.81,-349.62 323.7,-338.06"/>
<polygon fill="midnightblue" stroke="midnightblue" points="163.21,-379.78 154.54,-385.87 165.12,-386.52 163.21,-379.78"/>
</g>
<!-- Node8&#45;&gt;Node2 -->
<g id="edge9" class="edge">
<title>Node8&#45;&gt;Node2</title>
<path fill="none" stroke="midnightblue" d="M267.5,-380.62C289.29,-367.74 321.04,-348.98 339.4,-338.13"/>
<polygon fill="midnightblue" stroke="midnightblue" points="265.66,-377.63 258.84,-385.73 269.22,-383.66 265.66,-377.63"/>
</g>
<!-- Node9&#45;&gt;Node2 -->
<g id="edge11" class="edge">
<title>Node9&#45;&gt;Node2</title>
<path fill="none" stroke="midnightblue" d="M354,-375.54C354,-363.17 354,-347.62 354,-338.13"/>
<polygon fill="midnightblue" stroke="midnightblue" points="350.5,-375.73 354,-385.73 357.5,-375.73 350.5,-375.73"/>
</g>
<!-- Node10&#45;&gt;Node2 -->
<g id="edge13" class="edge">
<title>Node10&#45;&gt;Node2</title>
<path fill="none" stroke="midnightblue" d="M567.13,-383.4C516.41,-370.58 434.01,-349.74 387.94,-338.08"/>
<polygon fill="midnightblue" stroke="midnightblue" points="566.58,-386.88 577.14,-385.94 568.3,-380.09 566.58,-386.88"/>
</g>
<!-- Node12&#45;&gt;Node5 -->
<g id="edge17" class="edge">
<title>Node12&#45;&gt;Node5</title>
<path fill="none" stroke="midnightblue" d="M1214.52,-174.92C1219.5,-157.31 1228.89,-130.82 1244,-112 1256.76,-96.11 1276.54,-83.4 1290.73,-75.59"/>
<polygon fill="midnightblue" stroke="midnightblue" points="1211.08,-174.26 1211.92,-184.82 1217.84,-176.04 1211.08,-174.26"/>
</g>
<!-- Node12&#45;&gt;Node13 -->
<g id="edge18" class="edge">
<title>Node12&#45;&gt;Node13</title>
<path fill="none" stroke="midnightblue" d="M1238.96,-180.78C1268.27,-167.91 1312.79,-148.35 1338.27,-137.17"/>
<polygon fill="midnightblue" stroke="midnightblue" points="1237.4,-177.64 1229.65,-184.87 1240.22,-184.05 1237.4,-177.64"/>
</g>
<!-- Node13&#45;&gt;Node5 -->
<g id="edge19" class="edge">
<title>Node13&#45;&gt;Node5</title>
<path fill="none" stroke="midnightblue" d="M1344.28,-110.17C1334.85,-98.95 1322.72,-84.52 1315.15,-75.51"/>
<polygon fill="midnightblue" stroke="midnightblue" points="1341.72,-112.57 1350.84,-117.98 1347.08,-108.07 1341.72,-112.57"/>
</g>
<!-- Node14&#45;&gt;Node5 -->
<g id="edge21" class="edge">
<title>Node14&#45;&gt;Node5</title>
<path fill="none" stroke="midnightblue" d="M894.7,-305.81C855.78,-263.58 781.75,-169.45 834,-112 861.25,-82.04 1124.63,-71.58 1246.58,-68.32"/>
<polygon fill="midnightblue" stroke="midnightblue" points="892.35,-308.42 901.75,-313.3 897.45,-303.62 892.35,-308.42"/>
</g>
<!-- Node15&#45;&gt;Node2 -->
<g id="edge25" class="edge">
<title>Node15&#45;&gt;Node2</title>
<path fill="none" stroke="midnightblue" d="M1195.55,-512.21C1160.9,-504.22 1114.1,-492.27 1074,-478 975.06,-442.8 960.38,-407.37 859,-380 693.55,-335.33 488,-329.39 398.79,-329.11"/>
<polygon fill="midnightblue" stroke="midnightblue" points="1194.91,-515.66 1205.44,-514.46 1196.47,-508.83 1194.91,-515.66"/>
</g>
<!-- Node15&#45;&gt;Node3 -->
<g id="edge26" class="edge">
<title>Node15&#45;&gt;Node3</title>
<path fill="none" stroke="midnightblue" d="M1155.2,-513.9C1023.48,-500.71 784.93,-476.82 691.26,-467.43"/>
<polygon fill="midnightblue" stroke="midnightblue" points="1154.97,-517.4 1165.27,-514.91 1155.67,-510.43 1154.97,-517.4"/>
</g>
<!-- Node15&#45;&gt;Node14 -->
<g id="edge47" class="edge">
<title>Node15&#45;&gt;Node14</title>
<path fill="none" stroke="midnightblue" d="M1180.33,-511.99C1154.67,-505.3 1126.15,-494.7 1104,-478 1062.27,-446.54 1079.4,-413.16 1039,-380 1018.75,-363.38 992.28,-351.57 969.08,-343.57"/>
<polygon fill="midnightblue" stroke="midnightblue" points="1179.83,-515.47 1190.37,-514.45 1181.49,-508.67 1179.83,-515.47"/>
</g>
<!-- Node16 -->
<g id="node16" class="node">
<title>Node16</title>
<g id="a_node16"><a xlink:href="historical__queries_8h.html" target="_top" xlink:title=" ">
<polygon fill="white" stroke="black" points="1486,-179.5 1486,-209.5 1592,-209.5 1592,-179.5 1486,-179.5"/>
<text text-anchor="start" x="1494" y="-197.5" font-family="Helvetica,sans-Serif" font-size="10.00">src/node/historical</text>
<text text-anchor="middle" x="1539" y="-186.5" font-family="Helvetica,sans-Serif" font-size="10.00">_queries.h</text>
</a>
</g>
</g>
<!-- Node15&#45;&gt;Node16 -->
<g id="edge27" class="edge">
<title>Node15&#45;&gt;Node16</title>
<path fill="none" stroke="midnightblue" d="M1290.83,-511.54C1342.38,-495.34 1420,-460.36 1420,-396.5 1420,-396.5 1420,-396.5 1420,-327.5 1420,-272.73 1477.21,-230.45 1512.29,-209.67"/>
<polygon fill="midnightblue" stroke="midnightblue" points="1289.77,-508.2 1281.21,-514.44 1291.8,-514.9 1289.77,-508.2"/>
</g>
<!-- Node18 -->
<g id="node18" class="node">
<title>Node18</title>
<g id="a_node18"><a xlink:href="node__configuration__subsystem_8h.html" target="_top" xlink:title=" ">
<polygon fill="white" stroke="black" points="1113,-447.5 1113,-477.5 1267,-477.5 1267,-447.5 1113,-447.5"/>
<text text-anchor="start" x="1121" y="-465.5" font-family="Helvetica,sans-Serif" font-size="10.00">src/node/node_configuration</text>
<text text-anchor="middle" x="1190" y="-454.5" font-family="Helvetica,sans-Serif" font-size="10.00">_subsystem.h</text>
</a>
</g>
</g>
<!-- Node15&#45;&gt;Node18 -->
<g id="edge31" class="edge">
<title>Node15&#45;&gt;Node18</title>
<path fill="none" stroke="midnightblue" d="M1231.03,-507.09C1222.36,-497.88 1211.55,-486.39 1203.2,-477.52"/>
<polygon fill="midnightblue" stroke="midnightblue" points="1228.57,-509.59 1237.98,-514.48 1233.67,-504.79 1228.57,-509.59"/>
</g>
<!-- Node22 -->
<g id="node22" class="node">
<title>Node22</title>
<g id="a_node22"><a xlink:href="node__frontend_8h.html" target="_top" xlink:title=" ">
<polygon fill="white" stroke="black" points="1228,-319 1228,-338 1386,-338 1386,-319 1228,-319"/>
<text text-anchor="middle" x="1307" y="-326" font-family="Helvetica,sans-Serif" font-size="10.00">src/node/rpc/node_frontend.h</text>
</a>
</g>
</g>
<!-- Node15&#45;&gt;Node22 -->
<g id="edge51" class="edge">
<title>Node15&#45;&gt;Node22</title>
<path fill="none" stroke="midnightblue" d="M1259.51,-506.1C1265.37,-498.02 1271.83,-487.94 1276,-478 1297.07,-427.72 1304.34,-361.66 1306.34,-338.21"/>
<polygon fill="midnightblue" stroke="midnightblue" points="1256.56,-504.2 1253.3,-514.28 1262.14,-508.43 1256.56,-504.2"/>
</g>
<!-- Node25 -->
<g id="node25" class="node">
<title>Node25</title>
<g id="a_node25"><a xlink:href="acme__subsystem_8h.html" target="_top" xlink:title=" ">
<polygon fill="white" stroke="black" points="1486.5,-252 1486.5,-271 1659.5,-271 1659.5,-252 1486.5,-252"/>
<text text-anchor="middle" x="1573" y="-259" font-family="Helvetica,sans-Serif" font-size="10.00">src/node/rpc/acme_subsystem.h</text>
</a>
</g>
</g>
<!-- Node15&#45;&gt;Node25 -->
<g id="edge45" class="edge">
<title>Node15&#45;&gt;Node25</title>
<path fill="none" stroke="midnightblue" d="M1336.67,-515.46C1369.63,-509.24 1405.71,-498.05 1434,-478 1513.55,-421.63 1558.72,-304 1570.11,-271.17"/>
<polygon fill="midnightblue" stroke="midnightblue" points="1335.79,-512.06 1326.55,-517.24 1337,-518.96 1335.79,-512.06"/>
</g>
<!-- Node26 -->
<g id="node26" class="node">
<title>Node26</title>
<g id="a_node26"><a xlink:href="network__identity__subsystem_8h.html" target="_top" xlink:title=" ">
<polygon fill="white" stroke="black" points="1530.5,-447.5 1530.5,-477.5 1657.5,-477.5 1657.5,-447.5 1530.5,-447.5"/>
<text text-anchor="start" x="1538.5" y="-465.5" font-family="Helvetica,sans-Serif" font-size="10.00">src/node/rpc/network</text>
<text text-anchor="middle" x="1594" y="-454.5" font-family="Helvetica,sans-Serif" font-size="10.00">_identity_subsystem.h</text>
</a>
</g>
</g>
<!-- Node15&#45;&gt;Node26 -->
<g id="edge48" class="edge">
<title>Node15&#45;&gt;Node26</title>
<path fill="none" stroke="midnightblue" d="M1305.98,-512.75C1368.59,-502.04 1466.4,-485.32 1530.35,-474.38"/>
<polygon fill="midnightblue" stroke="midnightblue" points="1305.13,-509.34 1295.86,-514.48 1306.31,-516.24 1305.13,-509.34"/>
</g>
<!-- Node28 -->
<g id="node28" class="node">
<title>Node28</title>
<g id="a_node28"><a xlink:href="node__operation_8h.html" target="_top" xlink:title=" ">
<polygon fill="white" stroke="black" points="1716,-185 1716,-204 1880,-204 1880,-185 1716,-185"/>
<text text-anchor="middle" x="1798" y="-192" font-family="Helvetica,sans-Serif" font-size="10.00">src/node/rpc/node_operation.h</text>
</a>
</g>
</g>
<!-- Node15&#45;&gt;Node28 -->
<g id="edge52" class="edge">
<title>Node15&#45;&gt;Node28</title>
<path fill="none" stroke="midnightblue" d="M1336.71,-519.59C1442.3,-514.53 1609.56,-502.82 1667,-478 1718.07,-455.94 1762,-452.13 1762,-396.5 1762,-396.5 1762,-396.5 1762,-327.5 1762,-279.52 1784.41,-225.07 1793.87,-204.24"/>
<polygon fill="midnightblue" stroke="midnightblue" points="1336.52,-516.09 1326.69,-520.06 1336.85,-523.09 1336.52,-516.09"/>
</g>
<!-- Node16&#45;&gt;Node5 -->
<g id="edge28" class="edge">
<title>Node16&#45;&gt;Node5</title>
<path fill="none" stroke="midnightblue" d="M1514.23,-172.95C1485.99,-149.58 1443.16,-114.32 1439,-112 1408.63,-95.12 1370.81,-82.96 1343.62,-75.57"/>
<polygon fill="midnightblue" stroke="midnightblue" points="1512.19,-175.8 1522.12,-179.48 1516.65,-170.41 1512.19,-175.8"/>
</g>
<!-- Node17 -->
<g id="node17" class="node">
<title>Node17</title>
<g id="a_node17"><a xlink:href="historical__transaction__fetcher_8h.html" target="_top" xlink:title=" ">
<polygon fill="white" stroke="black" points="1486.5,-112.5 1486.5,-142.5 1611.5,-142.5 1611.5,-112.5 1486.5,-112.5"/>
<text text-anchor="start" x="1494.5" y="-130.5" font-family="Helvetica,sans-Serif" font-size="10.00">src/indexing/historical</text>
<text text-anchor="middle" x="1549" y="-119.5" font-family="Helvetica,sans-Serif" font-size="10.00">_transaction_fetcher.h</text>
</a>
</g>
</g>
<!-- Node16&#45;&gt;Node17 -->
<g id="edge29" class="edge">
<title>Node16&#45;&gt;Node17</title>
<path fill="none" stroke="midnightblue" d="M1542.71,-169.4C1544.1,-160.37 1545.63,-150.41 1546.83,-142.58"/>
<polygon fill="midnightblue" stroke="midnightblue" points="1539.23,-168.98 1541.17,-179.4 1546.15,-170.04 1539.23,-168.98"/>
</g>
<!-- Node17&#45;&gt;Node5 -->
<g id="edge30" class="edge">
<title>Node17&#45;&gt;Node5</title>
<path fill="none" stroke="midnightblue" d="M1482.42,-110.06C1437.05,-98.86 1378.82,-84.49 1342.45,-75.51"/>
<polygon fill="midnightblue" stroke="midnightblue" points="1481.64,-113.48 1492.19,-112.47 1483.32,-106.68 1481.64,-113.48"/>
</g>
<!-- Node19 -->
<g id="node19" class="node">
<title>Node19</title>
<g id="a_node19"><a xlink:href="frontend_8h.html" target="_top" xlink:title=" ">
<polygon fill="white" stroke="black" points="1101.5,-386 1101.5,-405 1230.5,-405 1230.5,-386 1101.5,-386"/>
<text text-anchor="middle" x="1166" y="-393" font-family="Helvetica,sans-Serif" font-size="10.00">src/node/rpc/frontend.h</text>
</a>
</g>
</g>
<!-- Node18&#45;&gt;Node19 -->
<g id="edge32" class="edge">
<title>Node18&#45;&gt;Node19</title>
<path fill="none" stroke="midnightblue" d="M1181.3,-437.94C1177.09,-426.54 1172.29,-413.55 1169.21,-405.19"/>
<polygon fill="midnightblue" stroke="midnightblue" points="1178.05,-439.23 1184.79,-447.4 1184.61,-436.8 1178.05,-439.23"/>
</g>
<!-- Node19&#45;&gt;Node12 -->
<g id="edge37" class="edge">
<title>Node19&#45;&gt;Node12</title>
<path fill="none" stroke="midnightblue" d="M1171.84,-376.4C1174.8,-366.83 1178.34,-354.84 1181,-344 1193.9,-291.45 1204.82,-227.32 1208.59,-204.27"/>
<polygon fill="midnightblue" stroke="midnightblue" points="1168.48,-375.4 1168.8,-385.99 1175.15,-377.51 1168.48,-375.4"/>
</g>
<!-- Node19&#45;&gt;Node14 -->
<g id="edge38" class="edge">
<title>Node19&#45;&gt;Node14</title>
<path fill="none" stroke="midnightblue" d="M1123.34,-383.41C1081.01,-372.4 1016,-355.5 970.07,-343.56"/>
<polygon fill="midnightblue" stroke="midnightblue" points="1122.5,-386.81 1133.06,-385.94 1124.26,-380.03 1122.5,-386.81"/>
</g>
<!-- Node20 -->
<g id="node20" class="node">
<title>Node20</title>
<g id="a_node20"><a xlink:href="acme__challenge__frontend_8h.html" target="_top" xlink:title=" ">
<polygon fill="white" stroke="black" points="1032,-313.5 1032,-343.5 1172,-343.5 1172,-313.5 1032,-313.5"/>
<text text-anchor="start" x="1040" y="-331.5" font-family="Helvetica,sans-Serif" font-size="10.00">src/node/acme_challenge</text>
<text text-anchor="middle" x="1102" y="-320.5" font-family="Helvetica,sans-Serif" font-size="10.00">_frontend.h</text>
</a>
</g>
</g>
<!-- Node19&#45;&gt;Node20 -->
<g id="edge33" class="edge">
<title>Node19&#45;&gt;Node20</title>
<path fill="none" stroke="midnightblue" d="M1150.05,-378.3C1139.55,-367.63 1125.93,-353.8 1115.87,-343.59"/>
<polygon fill="midnightblue" stroke="midnightblue" points="1147.86,-381.06 1157.37,-385.73 1152.85,-376.15 1147.86,-381.06"/>
</g>
<!-- Node19&#45;&gt;Node22 -->
<g id="edge39" class="edge">
<title>Node19&#45;&gt;Node22</title>
<path fill="none" stroke="midnightblue" d="M1193.96,-381.61C1221.88,-368.74 1264.04,-349.31 1288.2,-338.17"/>
<polygon fill="midnightblue" stroke="midnightblue" points="1192.34,-378.5 1184.72,-385.87 1195.27,-384.86 1192.34,-378.5"/>
</g>
<!-- Node24 -->
<g id="node24" class="node">
<title>Node24</title>
<g id="a_node24"><a xlink:href="user__frontend_8h.html" target="_top" xlink:title=" ">
<polygon fill="white" stroke="black" points="842.5,-118 842.5,-137 997.5,-137 997.5,-118 842.5,-118"/>
<text text-anchor="middle" x="920" y="-125" font-family="Helvetica,sans-Serif" font-size="10.00">src/node/rpc/user_frontend.h</text>
</a>
</g>
</g>
<!-- Node19&#45;&gt;Node24 -->
<g id="edge43" class="edge">
<title>Node19&#45;&gt;Node24</title>
<path fill="none" stroke="midnightblue" d="M1102.78,-383.47C1075.64,-376.08 1045.15,-363.91 1023,-344 955.77,-283.57 928.35,-169.79 921.69,-137.34"/>
<polygon fill="midnightblue" stroke="midnightblue" points="1102.05,-386.9 1112.61,-385.98 1103.78,-380.12 1102.05,-386.9"/>
</g>
<!-- Node20&#45;&gt;Node5 -->
<g id="edge34" class="edge">
<title>Node20&#45;&gt;Node5</title>
<path fill="none" stroke="midnightblue" d="M1050.07,-308.78C1036.23,-301.15 1022.93,-290.78 1015,-277 1008.13,-265.06 1008.42,-258.1 1015,-246 1070.25,-144.41 1210.03,-94 1274.49,-75.54"/>
<polygon fill="midnightblue" stroke="midnightblue" points="1048.69,-312.01 1059.19,-313.42 1051.86,-305.77 1048.69,-312.01"/>
</g>
<!-- Node21 -->
<g id="node21" class="node">
<title>Node21</title>
<g id="a_node21"><a xlink:href="ccf__acme__client_8h.html" target="_top" xlink:title=" ">
<polygon fill="white" stroke="black" points="1023.5,-252 1023.5,-271 1172.5,-271 1172.5,-252 1023.5,-252"/>
<text text-anchor="middle" x="1098" y="-259" font-family="Helvetica,sans-Serif" font-size="10.00">src/node/ccf_acme_client.h</text>
</a>
</g>
</g>
<!-- Node20&#45;&gt;Node21 -->
<g id="edge35" class="edge">
<title>Node20&#45;&gt;Node21</title>
<path fill="none" stroke="midnightblue" d="M1100.51,-303.25C1099.82,-292.02 1099.04,-279.38 1098.54,-271.19"/>
<polygon fill="midnightblue" stroke="midnightblue" points="1097.02,-303.63 1101.13,-313.4 1104.01,-303.2 1097.02,-303.63"/>
</g>
<!-- Node21&#45;&gt;Node12 -->
<g id="edge36" class="edge">
<title>Node21&#45;&gt;Node12</title>
<path fill="none" stroke="midnightblue" d="M1121.92,-246.62C1144.11,-233.74 1176.44,-214.98 1195.13,-204.13"/>
<polygon fill="midnightblue" stroke="midnightblue" points="1120,-243.69 1113.1,-251.73 1123.51,-249.74 1120,-243.69"/>
</g>
<!-- Node22&#45;&gt;Node5 -->
<g id="edge40" class="edge">
<title>Node22&#45;&gt;Node5</title>
<path fill="none" stroke="midnightblue" d="M1330.61,-313.22C1342.73,-304.45 1356.32,-292.02 1363,-277 1368.6,-264.41 1367.7,-258.95 1363,-246 1342.67,-189.93 1297.33,-199.07 1277,-143 1272.3,-130.05 1272.91,-125.16 1277,-112 1281.4,-97.87 1291.95,-84.25 1299.52,-75.77"/>
<polygon fill="midnightblue" stroke="midnightblue" points="1328.47,-310.44 1322.16,-318.95 1332.4,-316.23 1328.47,-310.44"/>
</g>
<!-- Node23 -->
<g id="node23" class="node">
<title>Node23</title>
<g id="a_node23"><a xlink:href="jwt__key__auto__refresh_8h.html" target="_top" xlink:title=" ">
<polygon fill="white" stroke="black" points="1228.5,-246.5 1228.5,-276.5 1353.5,-276.5 1353.5,-246.5 1228.5,-246.5"/>
<text text-anchor="start" x="1236.5" y="-264.5" font-family="Helvetica,sans-Serif" font-size="10.00">src/node/jwt_key_auto</text>
<text text-anchor="middle" x="1291" y="-253.5" font-family="Helvetica,sans-Serif" font-size="10.00">_refresh.h</text>
</a>
</g>
</g>
<!-- Node22&#45;&gt;Node23 -->
<g id="edge41" class="edge">
<title>Node22&#45;&gt;Node23</title>
<path fill="none" stroke="midnightblue" d="M1302.38,-308.74C1299.86,-298.49 1296.78,-286 1294.47,-276.59"/>
<polygon fill="midnightblue" stroke="midnightblue" points="1299.05,-309.86 1304.84,-318.73 1305.85,-308.19 1299.05,-309.86"/>
</g>
<!-- Node23&#45;&gt;Node12 -->
<g id="edge42" class="edge">
<title>Node23&#45;&gt;Node12</title>
<path fill="none" stroke="midnightblue" d="M1265.46,-240.01C1250.43,-227.94 1232.19,-213.3 1220.83,-204.19"/>
<polygon fill="midnightblue" stroke="midnightblue" points="1263.43,-242.87 1273.42,-246.4 1267.82,-237.41 1263.43,-242.87"/>
</g>
<!-- Node24&#45;&gt;Node5 -->
<g id="edge44" class="edge">
<title>Node24&#45;&gt;Node5</title>
<path fill="none" stroke="midnightblue" d="M984.06,-116.36C993.43,-114.89 1002.96,-113.4 1012,-112 1095.22,-99.12 1191.64,-84.52 1251.24,-75.54"/>
<polygon fill="midnightblue" stroke="midnightblue" points="983.33,-112.93 973.99,-117.94 984.41,-119.85 983.33,-112.93"/>
</g>
<!-- Node25&#45;&gt;Node5 -->
<g id="edge46" class="edge">
<title>Node25&#45;&gt;Node5</title>
<path fill="none" stroke="midnightblue" d="M1587.56,-243.84C1611.84,-214.01 1654.75,-150.95 1621,-112 1589.09,-75.18 1450.96,-67.78 1369.24,-66.71"/>
<polygon fill="midnightblue" stroke="midnightblue" points="1584.76,-241.74 1581.01,-251.65 1590.12,-246.24 1584.76,-241.74"/>
</g>
<!-- Node26&#45;&gt;Node5 -->
<g id="edge49" class="edge">
<title>Node26&#45;&gt;Node5</title>
<path fill="none" stroke="midnightblue" d="M1629.56,-441.91C1641.64,-433.74 1654.28,-423.26 1663,-411 1684.96,-380.13 1688,-367.39 1688,-329.5 1688,-329.5 1688,-329.5 1688,-193.5 1688,-151.69 1675.72,-135.3 1641,-112 1597.76,-82.99 1452.92,-72.56 1369.19,-68.9"/>
<polygon fill="midnightblue" stroke="midnightblue" points="1627.45,-439.1 1620.92,-447.45 1631.23,-445 1627.45,-439.1"/>
</g>
<!-- Node27 -->
<g id="node27" class="node">
<title>Node27</title>
<g id="a_node27"><a xlink:href="historical__queries__adapter_8cpp.html" target="_top" xlink:title=" ">
<polygon fill="white" stroke="black" points="1534,-380.5 1534,-410.5 1654,-410.5 1654,-380.5 1534,-380.5"/>
<text text-anchor="start" x="1542" y="-398.5" font-family="Helvetica,sans-Serif" font-size="10.00">src/node/historical</text>
<text text-anchor="middle" x="1594" y="-387.5" font-family="Helvetica,sans-Serif" font-size="10.00">_queries_adapter.cpp</text>
</a>
</g>
</g>
<!-- Node26&#45;&gt;Node27 -->
<g id="edge50" class="edge">
<title>Node26&#45;&gt;Node27</title>
<path fill="none" stroke="midnightblue" d="M1594,-437.11C1594,-428.15 1594,-418.32 1594,-410.58"/>
<polygon fill="midnightblue" stroke="midnightblue" points="1590.5,-437.4 1594,-447.4 1597.5,-437.4 1590.5,-437.4"/>
</g>
<!-- Node28&#45;&gt;Node5 -->
<g id="edge53" class="edge">
<title>Node28&#45;&gt;Node5</title>
<path fill="none" stroke="midnightblue" d="M1784.54,-177.34C1767.52,-158.14 1736.25,-126.84 1702,-112 1643.64,-86.72 1464.31,-74.49 1369.01,-69.64"/>
<polygon fill="midnightblue" stroke="midnightblue" points="1781.95,-179.69 1791.13,-184.97 1787.25,-175.12 1781.95,-179.69"/>
</g>
</g>
</svg>
