<?xml version="1.0" encoding="UTF-8" standalone="no"?>
<!DOCTYPE svg PUBLIC "-//W3C//DTD SVG 1.1//EN"
 "http://www.w3.org/Graphics/SVG/1.1/DTD/svg11.dtd">
<!-- Generated by graphviz version 2.43.0 (0)
 -->
<!-- Title: src/node/history.h Pages: 1 -->
<svg width="460pt" height="453pt"
 viewBox="0.00 0.00 460.00 453.00" xmlns="http://www.w3.org/2000/svg" xmlns:xlink="http://www.w3.org/1999/xlink">
<g id="graph0" class="graph" transform="scale(1 1) rotate(0) translate(4 449)">
<title>src/node/history.h</title>
<polygon fill="white" stroke="transparent" points="-4,4 -4,-449 456,-449 456,4 -4,4"/>
<!-- Node1 -->
<g id="node1" class="node">
<title>Node1</title>
<g id="a_node1"><a xlink:title=" ">
<polygon fill="#bfbfbf" stroke="black" points="124,-425.5 124,-444.5 226,-444.5 226,-425.5 124,-425.5"/>
<text text-anchor="middle" x="175" y="-432.5" font-family="Helvetica,sans-Serif" font-size="10.00">src/node/history.h</text>
</a>
</g>
</g>
<!-- Node2 -->
<g id="node2" class="node">
<title>Node2</title>
<g id="a_node2"><a xlink:href="historical__queries_8h.html" target="_top" xlink:title=" ">
<polygon fill="white" stroke="black" points="0,-291.5 0,-321.5 106,-321.5 106,-291.5 0,-291.5"/>
<text text-anchor="start" x="8" y="-309.5" font-family="Helvetica,sans-Serif" font-size="10.00">src/node/historical</text>
<text text-anchor="middle" x="53" y="-298.5" font-family="Helvetica,sans-Serif" font-size="10.00">_queries.h</text>
</a>
</g>
</g>
<!-- Node1&#45;&gt;Node2 -->
<g id="edge1" class="edge">
<title>Node1&#45;&gt;Node2</title>
<path fill="none" stroke="midnightblue" d="M155.02,-419.2C144.22,-410.82 130.89,-399.86 120,-389 98.09,-367.14 75.91,-338.62 63.36,-321.77"/>
<polygon fill="midnightblue" stroke="midnightblue" points="152.98,-422.04 163.06,-425.32 157.22,-416.47 152.98,-422.04"/>
</g>
<!-- Node6 -->
<g id="node6" class="node">
<title>Node6</title>
<g id="a_node6"><a xlink:href="node__state_8h.html" target="_top" xlink:title=" ">
<polygon fill="white" stroke="black" points="164,-174 164,-193 288,-193 288,-174 164,-174"/>
<text text-anchor="middle" x="226" y="-181" font-family="Helvetica,sans-Serif" font-size="10.00">src/node/node_state.h</text>
</a>
</g>
</g>
<!-- Node1&#45;&gt;Node6 -->
<g id="edge6" class="edge">
<title>Node1&#45;&gt;Node6</title>
<path fill="none" stroke="midnightblue" d="M165.21,-416.27C161.26,-408.2 157.14,-398.38 155,-389 145.32,-346.52 147.68,-334.24 153,-291 156.13,-265.54 153.5,-256.82 167,-235 178.21,-216.88 198.05,-201.89 211.61,-193.07"/>
<polygon fill="midnightblue" stroke="midnightblue" points="162.23,-418.14 169.95,-425.39 168.44,-414.9 162.23,-418.14"/>
</g>
<!-- Node8 -->
<g id="node8" class="node">
<title>Node8</title>
<g id="a_node8"><a xlink:href="snapshot__serdes_8h.html" target="_top" xlink:title=" ">
<polygon fill="white" stroke="black" points="300,-297 300,-316 452,-316 452,-297 300,-297"/>
<text text-anchor="middle" x="376" y="-304" font-family="Helvetica,sans-Serif" font-size="10.00">src/node/snapshot_serdes.h</text>
</a>
</g>
</g>
<!-- Node1&#45;&gt;Node8 -->
<g id="edge10" class="edge">
<title>Node1&#45;&gt;Node8</title>
<path fill="none" stroke="midnightblue" d="M211.84,-422.03C233.42,-414.21 260.72,-402.88 283,-389 317.98,-367.2 352.8,-332.26 368.03,-316.15"/>
<polygon fill="midnightblue" stroke="midnightblue" points="210.63,-418.75 202.37,-425.38 212.96,-425.35 210.63,-418.75"/>
</g>
<!-- Node10 -->
<g id="node10" class="node">
<title>Node10</title>
<g id="a_node10"><a xlink:href="tx__receipt__impl_8h.html" target="_top" xlink:title=" ">
<polygon fill="white" stroke="black" points="164,-358.5 164,-388.5 274,-388.5 274,-358.5 164,-358.5"/>
<text text-anchor="start" x="172" y="-376.5" font-family="Helvetica,sans-Serif" font-size="10.00">src/node/tx_receipt</text>
<text text-anchor="middle" x="219" y="-365.5" font-family="Helvetica,sans-Serif" font-size="10.00">_impl.h</text>
</a>
</g>
</g>
<!-- Node1&#45;&gt;Node10 -->
<g id="edge13" class="edge">
<title>Node1&#45;&gt;Node10</title>
<path fill="none" stroke="midnightblue" d="M187.39,-417.25C194.09,-408.19 202.27,-397.12 208.63,-388.52"/>
<polygon fill="midnightblue" stroke="midnightblue" points="184.44,-415.35 181.3,-425.48 190.06,-419.52 184.44,-415.35"/>
</g>
<!-- Node3 -->
<g id="node3" class="node">
<title>Node3</title>
<g id="a_node3"><a xlink:href="src_2enclave_2enclave_8h.html" target="_top" xlink:title=" ">
<polygon fill="white" stroke="black" points="42,-56.5 42,-75.5 164,-75.5 164,-56.5 42,-56.5"/>
<text text-anchor="middle" x="103" y="-63.5" font-family="Helvetica,sans-Serif" font-size="10.00">src/enclave/enclave.h</text>
</a>
</g>
</g>
<!-- Node2&#45;&gt;Node3 -->
<g id="edge2" class="edge">
<title>Node2&#45;&gt;Node3</title>
<path fill="none" stroke="midnightblue" d="M36.72,-282.68C19.17,-255.11 -4.3,-207.52 11,-168 27.19,-126.2 69.62,-91.07 90.72,-75.54"/>
<polygon fill="midnightblue" stroke="midnightblue" points="33.93,-284.81 42.38,-291.22 39.77,-280.95 33.93,-284.81"/>
</g>
<!-- Node5 -->
<g id="node5" class="node">
<title>Node5</title>
<g id="a_node5"><a xlink:href="historical__transaction__fetcher_8h.html" target="_top" xlink:title=" ">
<polygon fill="white" stroke="black" points="20.5,-168.5 20.5,-198.5 145.5,-198.5 145.5,-168.5 20.5,-168.5"/>
<text text-anchor="start" x="28.5" y="-186.5" font-family="Helvetica,sans-Serif" font-size="10.00">src/indexing/historical</text>
<text text-anchor="middle" x="83" y="-175.5" font-family="Helvetica,sans-Serif" font-size="10.00">_transaction_fetcher.h</text>
</a>
</g>
</g>
<!-- Node2&#45;&gt;Node5 -->
<g id="edge4" class="edge">
<title>Node2&#45;&gt;Node5</title>
<path fill="none" stroke="midnightblue" d="M59.05,-281.12C65.16,-256.44 74.42,-219.11 79.45,-198.84"/>
<polygon fill="midnightblue" stroke="midnightblue" points="55.57,-280.6 56.56,-291.14 62.36,-282.28 55.57,-280.6"/>
</g>
<!-- Node4 -->
<g id="node4" class="node">
<title>Node4</title>
<g id="a_node4"><a xlink:href="enclave_2main_8cpp.html" target="_top" xlink:title=" ">
<polygon fill="white" stroke="black" points="43,-0.5 43,-19.5 163,-19.5 163,-0.5 43,-0.5"/>
<text text-anchor="middle" x="103" y="-7.5" font-family="Helvetica,sans-Serif" font-size="10.00">src/enclave/main.cpp</text>
</a>
</g>
</g>
<!-- Node3&#45;&gt;Node4 -->
<g id="edge3" class="edge">
<title>Node3&#45;&gt;Node4</title>
<path fill="none" stroke="midnightblue" d="M103,-45.8C103,-36.91 103,-26.78 103,-19.75"/>
<polygon fill="midnightblue" stroke="midnightblue" points="99.5,-46.08 103,-56.08 106.5,-46.08 99.5,-46.08"/>
</g>
<!-- Node5&#45;&gt;Node3 -->
<g id="edge5" class="edge">
<title>Node5&#45;&gt;Node3</title>
<path fill="none" stroke="midnightblue" d="M87.21,-158.21C91.67,-132.41 98.5,-92.99 101.5,-75.67"/>
<polygon fill="midnightblue" stroke="midnightblue" points="83.71,-157.89 85.45,-168.34 90.61,-159.08 83.71,-157.89"/>
</g>
<!-- Node6&#45;&gt;Node3 -->
<g id="edge7" class="edge">
<title>Node6&#45;&gt;Node3</title>
<path fill="none" stroke="midnightblue" d="M197.67,-169.2C180.76,-160.31 159.6,-147.43 144,-132 126.74,-114.92 113.3,-89.27 106.97,-75.87"/>
<polygon fill="midnightblue" stroke="midnightblue" points="196.57,-172.57 207.07,-173.97 199.73,-166.32 196.57,-172.57"/>
</g>
<!-- Node7 -->
<g id="node7" class="node">
<title>Node7</title>
<g id="a_node7"><a xlink:href="gov__effects_8h.html" target="_top" xlink:title=" ">
<polygon fill="white" stroke="black" points="153,-112.5 153,-131.5 297,-131.5 297,-112.5 153,-112.5"/>
<text text-anchor="middle" x="225" y="-119.5" font-family="Helvetica,sans-Serif" font-size="10.00">src/node/rpc/gov_effects.h</text>
</a>
</g>
</g>
<!-- Node6&#45;&gt;Node7 -->
<g id="edge8" class="edge">
<title>Node6&#45;&gt;Node7</title>
<path fill="none" stroke="midnightblue" d="M225.69,-163.82C225.5,-153 225.28,-139.9 225.14,-131.51"/>
<polygon fill="midnightblue" stroke="midnightblue" points="222.19,-164.04 225.86,-173.98 229.19,-163.92 222.19,-164.04"/>
</g>
<!-- Node7&#45;&gt;Node3 -->
<g id="edge9" class="edge">
<title>Node7&#45;&gt;Node3</title>
<path fill="none" stroke="midnightblue" d="M196.46,-108.37C173.61,-98.26 142.19,-84.35 122.24,-75.52"/>
<polygon fill="midnightblue" stroke="midnightblue" points="195.11,-111.6 205.67,-112.44 197.94,-105.2 195.11,-111.6"/>
</g>
<!-- Node9 -->
<g id="node9" class="node">
<title>Node9</title>
<g id="a_node9"><a xlink:href="snapshotter_8h.html" target="_top" xlink:title=" ">
<polygon fill="white" stroke="black" points="176.5,-235.5 176.5,-254.5 303.5,-254.5 303.5,-235.5 176.5,-235.5"/>
<text text-anchor="middle" x="240" y="-242.5" font-family="Helvetica,sans-Serif" font-size="10.00">src/node/snapshotter.h</text>
</a>
</g>
</g>
<!-- Node8&#45;&gt;Node9 -->
<g id="edge11" class="edge">
<title>Node8&#45;&gt;Node9</title>
<path fill="none" stroke="midnightblue" d="M347.03,-292.83C320.63,-281.28 282.36,-264.53 259.45,-254.51"/>
<polygon fill="midnightblue" stroke="midnightblue" points="345.95,-296.17 356.51,-296.98 348.76,-289.76 345.95,-296.17"/>
</g>
<!-- Node9&#45;&gt;Node6 -->
<g id="edge12" class="edge">
<title>Node9&#45;&gt;Node6</title>
<path fill="none" stroke="midnightblue" d="M235.68,-225.66C233.12,-214.77 230,-201.49 228,-193.01"/>
<polygon fill="midnightblue" stroke="midnightblue" points="232.3,-226.54 237.99,-235.48 239.11,-224.94 232.3,-226.54"/>
</g>
<!-- Node10&#45;&gt;Node2 -->
<g id="edge14" class="edge">
<title>Node10&#45;&gt;Node2</title>
<path fill="none" stroke="midnightblue" d="M173.49,-354.68C146.87,-344.26 113.73,-331.28 88.95,-321.58"/>
<polygon fill="midnightblue" stroke="midnightblue" points="172.39,-358.01 182.98,-358.4 174.95,-351.49 172.39,-358.01"/>
</g>
<!-- Node10&#45;&gt;Node8 -->
<g id="edge16" class="edge">
<title>Node10&#45;&gt;Node8</title>
<path fill="none" stroke="midnightblue" d="M262.58,-354.46C292.91,-341.9 331.98,-325.72 355.45,-316.01"/>
<polygon fill="midnightblue" stroke="midnightblue" points="260.97,-351.34 253.07,-358.4 263.64,-357.8 260.97,-351.34"/>
</g>
<!-- Node11 -->
<g id="node11" class="node">
<title>Node11</title>
<g id="a_node11"><a xlink:href="historical__queries__adapter_8cpp.html" target="_top" xlink:title=" ">
<polygon fill="white" stroke="black" points="162,-291.5 162,-321.5 282,-321.5 282,-291.5 162,-291.5"/>
<text text-anchor="start" x="170" y="-309.5" font-family="Helvetica,sans-Serif" font-size="10.00">src/node/historical</text>
<text text-anchor="middle" x="222" y="-298.5" font-family="Helvetica,sans-Serif" font-size="10.00">_queries_adapter.cpp</text>
</a>
</g>
</g>
<!-- Node10&#45;&gt;Node11 -->
<g id="edge15" class="edge">
<title>Node10&#45;&gt;Node11</title>
<path fill="none" stroke="midnightblue" d="M220.11,-348.4C220.53,-339.37 220.99,-329.41 221.35,-321.58"/>
<polygon fill="midnightblue" stroke="midnightblue" points="216.62,-348.25 219.65,-358.4 223.61,-348.57 216.62,-348.25"/>
</g>
</g>
</svg>
