<?xml version="1.0" encoding="UTF-8" standalone="no"?>
<!DOCTYPE svg PUBLIC "-//W3C//DTD SVG 1.1//EN"
 "http://www.w3.org/Graphics/SVG/1.1/DTD/svg11.dtd">
<!-- Generated by graphviz version 2.43.0 (0)
 -->
<!-- Title: src/http/http2_types.h Pages: 1 -->
<!--zoomable 252 -->
<svg id="main" version="1.1" xmlns="http://www.w3.org/2000/svg" xmlns:xlink="http://www.w3.org/1999/xlink" xml:space="preserve" onload="init(evt)">
<style type="text/css"><![CDATA[
.edge:hover path { stroke: red; }
.edge:hover polygon { stroke: red; fill: red; }
]]></style>
<script type="text/javascript"><![CDATA[
var edges = document.getElementsByTagName('g');
if (edges && edges.length) {
  for (var i=0;i<edges.length;i++) {
    if (edges[i].id.substr(0,4)=='edge') {
      edges[i].setAttribute('class','edge');
    }
  }
}
]]></script>
        <defs>
                <circle id="rim" cx="0" cy="0" r="7"/>
                <circle id="rim2" cx="0" cy="0" r="3.5"/>
                <g id="zoomPlus">
                        <use xlink:href="#rim" fill="#404040">
                                <set attributeName="fill" to="#808080" begin="zoomplus.mouseover" end="zoomplus.mouseout"/>
                        </use>
                        <path d="M-4,0h8M0,-4v8" fill="none" stroke="white" stroke-width="1.5" pointer-events="none"/>
                </g>
                <g id="zoomMin">
                        <use xlink:href="#rim" fill="#404040">
                                <set attributeName="fill" to="#808080" begin="zoomminus.mouseover" end="zoomminus.mouseout"/>
                        </use>
                        <path d="M-4,0h8" fill="none" stroke="white" stroke-width="1.5" pointer-events="none"/>
                </g>
                <g id="dirArrow">
                        <path fill="none" stroke="white" stroke-width="1.5" d="M0,-3.0v7 M-2.5,-0.5L0,-3.0L2.5,-0.5"/>
                </g>
               <g id="resetDef">
                       <use xlink:href="#rim2" fill="#404040">
                               <set attributeName="fill" to="#808080" begin="reset.mouseover" end="reset.mouseout"/>
                       </use>
               </g>
        </defs>

<script type="text/javascript">
var viewWidth = 1560;
var viewHeight = 252;
var sectionId = 'dynsection-0';
</script>
<script xlink:href="svgpan.js"/>
<svg id="graph" class="graph">
<g id="viewport">
<title>src/http/http2_types.h</title>
<polygon fill="white" stroke="transparent" points="-4,4 -4,-248 1555.5,-248 1555.5,4 -4,4"/>
<!-- Node1 -->
<g id="node1" class="node">
<title>Node1</title>
<g id="a_node1"><a xlink:title=" ">
<polygon fill="#bfbfbf" stroke="black" points="1175,-224.5 1175,-243.5 1298,-243.5 1298,-224.5 1175,-224.5"/>
<text text-anchor="middle" x="1236.5" y="-231.5" font-family="Helvetica,sans-Serif" font-size="10.00">src/http/http2_types.h</text>
</a>
</g>
</g>
<!-- Node2 -->
<g id="node2" class="node">
<title>Node2</title>
<g id="a_node2"><a xlink:href="http__header__map_8h.html" target="_top" xlink:title=" ">
<polygon fill="white" stroke="black" points="750.5,-112.5 750.5,-131.5 878.5,-131.5 878.5,-112.5 750.5,-112.5"/>
<text text-anchor="middle" x="814.5" y="-119.5" font-family="Helvetica,sans-Serif" font-size="10.00">ccf/http_header_map.h</text>
</a>
</g>
</g>
<!-- Node1&#45;&gt;Node2 -->
<g id="edge1" class="edge">
<title>Node1&#45;&gt;Node2</title>
<path fill="none" stroke="midnightblue" d="M1174.94,-228.94C1090.5,-222.68 943.59,-209.14 894.5,-188 868.43,-176.77 843.95,-154.5 829.1,-139.19"/>
<polygon fill="midnightblue" stroke="midnightblue" points="831.29,-136.4 821.89,-131.51 826.19,-141.19 831.29,-136.4"/>
</g>
<!-- Node4 -->
<g id="node4" class="node">
<title>Node4</title>
<g id="a_node4"><a xlink:title=" ">
<polygon fill="white" stroke="#bfbfbf" points="784.5,-56.5 784.5,-75.5 828.5,-75.5 828.5,-56.5 784.5,-56.5"/>
<text text-anchor="middle" x="806.5" y="-63.5" font-family="Helvetica,sans-Serif" font-size="10.00">string</text>
</a>
</g>
</g>
<!-- Node1&#45;&gt;Node4 -->
<g id="edge38" class="edge">
<title>Node1&#45;&gt;Node4</title>
<path fill="none" stroke="midnightblue" d="M1174.87,-231.04C1051.33,-225.56 781.13,-205.28 733.5,-132 719.09,-109.82 749.28,-90.56 775.11,-78.88"/>
<polygon fill="midnightblue" stroke="midnightblue" points="776.52,-82.08 784.34,-74.93 773.77,-75.64 776.52,-82.08"/>
</g>
<!-- Node5 -->
<g id="node5" class="node">
<title>Node5</title>
<g id="a_node5"><a xlink:href="http__status_8h.html" target="_top" xlink:title=" ">
<polygon fill="white" stroke="black" points="1187.5,-112.5 1187.5,-131.5 1285.5,-131.5 1285.5,-112.5 1187.5,-112.5"/>
<text text-anchor="middle" x="1236.5" y="-119.5" font-family="Helvetica,sans-Serif" font-size="10.00">ccf/http_status.h</text>
</a>
</g>
</g>
<!-- Node1&#45;&gt;Node5 -->
<g id="edge4" class="edge">
<title>Node1&#45;&gt;Node5</title>
<path fill="none" stroke="midnightblue" d="M1236.5,-224.37C1236.5,-206.62 1236.5,-165.67 1236.5,-141.6"/>
<polygon fill="midnightblue" stroke="midnightblue" points="1240,-141.59 1236.5,-131.59 1233,-141.59 1240,-141.59"/>
</g>
<!-- Node6 -->
<g id="node6" class="node">
<title>Node6</title>
<g id="a_node6"><a xlink:href="rest__verb_8h.html" target="_top" xlink:title=" ">
<polygon fill="white" stroke="black" points="497,-168.5 497,-187.5 586,-187.5 586,-168.5 497,-168.5"/>
<text text-anchor="middle" x="541.5" y="-175.5" font-family="Helvetica,sans-Serif" font-size="10.00">ccf/rest_verb.h</text>
</a>
</g>
</g>
<!-- Node1&#45;&gt;Node6 -->
<g id="edge5" class="edge">
<title>Node1&#45;&gt;Node6</title>
<path fill="none" stroke="midnightblue" d="M1174.82,-228.21C1040.73,-217.79 724.43,-193.21 596.56,-183.28"/>
<polygon fill="midnightblue" stroke="midnightblue" points="596.48,-179.76 586.24,-182.48 595.94,-186.74 596.48,-179.76"/>
</g>
<!-- Node11 -->
<g id="node11" class="node">
<title>Node11</title>
<g id="a_node11"><a xlink:title=" ">
<polygon fill="white" stroke="#bfbfbf" points="495,-0.5 495,-19.5 542,-19.5 542,-0.5 495,-0.5"/>
<text text-anchor="middle" x="518.5" y="-7.5" font-family="Helvetica,sans-Serif" font-size="10.00">vector</text>
</a>
</g>
</g>
<!-- Node1&#45;&gt;Node11 -->
<g id="edge39" class="edge">
<title>Node1&#45;&gt;Node11</title>
<path fill="none" stroke="midnightblue" d="M1246.66,-224.39C1270.06,-203.54 1323.54,-149.32 1294.5,-112 1248.1,-52.37 696.38,-20.11 552.59,-12.68"/>
<polygon fill="midnightblue" stroke="midnightblue" points="552.36,-9.16 542.2,-12.15 552.01,-16.15 552.36,-9.16"/>
</g>
<!-- Node16 -->
<g id="node16" class="node">
<title>Node16</title>
<g id="a_node16"><a xlink:href="http__builder_8h.html" target="_top" xlink:title=" ">
<polygon fill="white" stroke="black" points="904,-168.5 904,-187.5 987,-187.5 987,-168.5 904,-168.5"/>
<text text-anchor="middle" x="945.5" y="-175.5" font-family="Helvetica,sans-Serif" font-size="10.00">http_builder.h</text>
</a>
</g>
</g>
<!-- Node1&#45;&gt;Node16 -->
<g id="edge18" class="edge">
<title>Node1&#45;&gt;Node16</title>
<path fill="none" stroke="midnightblue" d="M1190.39,-224.44C1137.74,-214.67 1051.82,-198.73 997.01,-188.56"/>
<polygon fill="midnightblue" stroke="midnightblue" points="997.62,-185.11 987.15,-186.73 996.34,-191.99 997.62,-185.11"/>
</g>
<!-- Node23 -->
<g id="node23" class="node">
<title>Node23</title>
<g id="a_node23"><a xlink:title=" ">
<polygon fill="white" stroke="#bfbfbf" points="1321.5,-168.5 1321.5,-187.5 1353.5,-187.5 1353.5,-168.5 1321.5,-168.5"/>
<text text-anchor="middle" x="1337.5" y="-175.5" font-family="Helvetica,sans-Serif" font-size="10.00">list</text>
</a>
</g>
</g>
<!-- Node1&#45;&gt;Node23 -->
<g id="edge35" class="edge">
<title>Node1&#45;&gt;Node23</title>
<path fill="none" stroke="midnightblue" d="M1252.73,-224.32C1268.85,-215.7 1293.8,-202.36 1312.46,-192.39"/>
<polygon fill="midnightblue" stroke="midnightblue" points="1314.14,-195.46 1321.31,-187.65 1310.84,-189.28 1314.14,-195.46"/>
</g>
<!-- Node24 -->
<g id="node24" class="node">
<title>Node24</title>
<g id="a_node24"><a xlink:title=" ">
<polygon fill="white" stroke="#bfbfbf" points="1371.5,-168.5 1371.5,-187.5 1429.5,-187.5 1429.5,-168.5 1371.5,-168.5"/>
<text text-anchor="middle" x="1400.5" y="-175.5" font-family="Helvetica,sans-Serif" font-size="10.00">memory</text>
</a>
</g>
</g>
<!-- Node1&#45;&gt;Node24 -->
<g id="edge36" class="edge">
<title>Node1&#45;&gt;Node24</title>
<path fill="none" stroke="midnightblue" d="M1262.49,-224.44C1290.2,-215.32 1334.25,-200.81 1365.12,-190.65"/>
<polygon fill="midnightblue" stroke="midnightblue" points="1366.23,-193.97 1374.64,-187.52 1364.04,-187.32 1366.23,-193.97"/>
</g>
<!-- Node25 -->
<g id="node25" class="node">
<title>Node25</title>
<g id="a_node25"><a xlink:title=" ">
<polygon fill="white" stroke="#bfbfbf" points="1447.5,-168.5 1447.5,-187.5 1551.5,-187.5 1551.5,-168.5 1447.5,-168.5"/>
<text text-anchor="middle" x="1499.5" y="-175.5" font-family="Helvetica,sans-Serif" font-size="10.00">nghttp2/nghttp2.h</text>
</a>
</g>
</g>
<!-- Node1&#45;&gt;Node25 -->
<g id="edge37" class="edge">
<title>Node1&#45;&gt;Node25</title>
<path fill="none" stroke="midnightblue" d="M1278.17,-224.44C1324.25,-214.98 1398.5,-199.74 1448.13,-189.55"/>
<polygon fill="midnightblue" stroke="midnightblue" points="1448.93,-192.96 1458.02,-187.52 1447.52,-186.1 1448.93,-192.96"/>
</g>
<!-- Node3 -->
<g id="node3" class="node">
<title>Node3</title>
<g id="a_node3"><a xlink:title=" ">
<polygon fill="white" stroke="#bfbfbf" points="867.5,-56.5 867.5,-75.5 905.5,-75.5 905.5,-56.5 867.5,-56.5"/>
<text text-anchor="middle" x="886.5" y="-63.5" font-family="Helvetica,sans-Serif" font-size="10.00">map</text>
</a>
</g>
</g>
<!-- Node2&#45;&gt;Node3 -->
<g id="edge2" class="edge">
<title>Node2&#45;&gt;Node3</title>
<path fill="none" stroke="midnightblue" d="M826.07,-112.32C836.92,-104.18 853.38,-91.84 866.38,-82.09"/>
<polygon fill="midnightblue" stroke="midnightblue" points="868.82,-84.63 874.72,-75.83 864.62,-79.03 868.82,-84.63"/>
</g>
<!-- Node2&#45;&gt;Node4 -->
<g id="edge3" class="edge">
<title>Node2&#45;&gt;Node4</title>
<path fill="none" stroke="midnightblue" d="M813.18,-112.08C812.12,-104.93 810.59,-94.64 809.27,-85.69"/>
<polygon fill="midnightblue" stroke="midnightblue" points="812.72,-85.13 807.8,-75.75 805.8,-86.16 812.72,-85.13"/>
</g>
<!-- Node6&#45;&gt;Node4 -->
<g id="edge17" class="edge">
<title>Node6&#45;&gt;Node4</title>
<path fill="none" stroke="midnightblue" d="M557.95,-168.33C587.46,-152.84 648.38,-121.17 670.5,-112 705.49,-97.49 746.98,-84.32 774.85,-76.03"/>
<polygon fill="midnightblue" stroke="midnightblue" points="775.86,-79.38 784.47,-73.2 773.89,-72.66 775.86,-79.38"/>
</g>
<!-- Node7 -->
<g id="node7" class="node">
<title>Node7</title>
<g id="a_node7"><a xlink:href="include_2ccf_2ds_2hash_8h.html" target="_top" xlink:title=" ">
<polygon fill="white" stroke="black" points="288.5,-112.5 288.5,-131.5 368.5,-131.5 368.5,-112.5 288.5,-112.5"/>
<text text-anchor="middle" x="328.5" y="-119.5" font-family="Helvetica,sans-Serif" font-size="10.00">ccf/ds/hash.h</text>
</a>
</g>
</g>
<!-- Node6&#45;&gt;Node7 -->
<g id="edge6" class="edge">
<title>Node6&#45;&gt;Node7</title>
<path fill="none" stroke="midnightblue" d="M507.75,-168.44C470.98,-159.12 412.05,-144.18 371.88,-134"/>
<polygon fill="midnightblue" stroke="midnightblue" points="372.65,-130.58 362.09,-131.52 370.93,-137.37 372.65,-130.58"/>
</g>
<!-- Node15 -->
<g id="node15" class="node">
<title>Node15</title>
<g id="a_node15"><a xlink:title=" ">
<polygon fill="white" stroke="#bfbfbf" points="430.5,-112.5 430.5,-131.5 510.5,-131.5 510.5,-112.5 430.5,-112.5"/>
<text text-anchor="middle" x="470.5" y="-119.5" font-family="Helvetica,sans-Serif" font-size="10.00">llhttp/llhttp.h</text>
</a>
</g>
</g>
<!-- Node6&#45;&gt;Node15 -->
<g id="edge16" class="edge">
<title>Node6&#45;&gt;Node15</title>
<path fill="none" stroke="midnightblue" d="M530.09,-168.32C519.39,-160.18 503.16,-147.84 490.34,-138.09"/>
<polygon fill="midnightblue" stroke="midnightblue" points="492.19,-135.1 482.11,-131.83 487.96,-140.67 492.19,-135.1"/>
</g>
<!-- Node8 -->
<g id="node8" class="node">
<title>Node8</title>
<g id="a_node8"><a xlink:href="siphash_8h.html" target="_top" xlink:title=" ">
<polygon fill="white" stroke="black" points="205,-56.5 205,-75.5 300,-75.5 300,-56.5 205,-56.5"/>
<text text-anchor="middle" x="252.5" y="-63.5" font-family="Helvetica,sans-Serif" font-size="10.00">ccf/ds/siphash.h</text>
</a>
</g>
</g>
<!-- Node7&#45;&gt;Node8 -->
<g id="edge7" class="edge">
<title>Node7&#45;&gt;Node8</title>
<path fill="none" stroke="midnightblue" d="M316.29,-112.32C304.72,-104.11 287.12,-91.6 273.34,-81.81"/>
<polygon fill="midnightblue" stroke="midnightblue" points="275.11,-78.77 264.93,-75.83 271.06,-84.48 275.11,-78.77"/>
</g>
<!-- Node10 -->
<g id="node10" class="node">
<title>Node10</title>
<g id="a_node10"><a xlink:title=" ">
<polygon fill="white" stroke="#bfbfbf" points="154.5,-0.5 154.5,-19.5 204.5,-19.5 204.5,-0.5 154.5,-0.5"/>
<text text-anchor="middle" x="179.5" y="-7.5" font-family="Helvetica,sans-Serif" font-size="10.00">cstdint</text>
</a>
</g>
</g>
<!-- Node7&#45;&gt;Node10 -->
<g id="edge12" class="edge">
<title>Node7&#45;&gt;Node10</title>
<path fill="none" stroke="midnightblue" d="M288.35,-117.59C258.63,-112.93 219.33,-101.94 195.5,-76 184.09,-63.57 180.47,-44.33 179.48,-30.01"/>
<polygon fill="midnightblue" stroke="midnightblue" points="182.97,-29.68 179.15,-19.8 175.98,-29.9 182.97,-29.68"/>
</g>
<!-- Node7&#45;&gt;Node11 -->
<g id="edge15" class="edge">
<title>Node7&#45;&gt;Node11</title>
<path fill="none" stroke="midnightblue" d="M328.47,-112.5C328.9,-98.65 331.83,-71.25 347.5,-56 384.4,-20.09 446.35,-11.92 484.69,-10.55"/>
<polygon fill="midnightblue" stroke="midnightblue" points="484.92,-14.05 494.84,-10.33 484.76,-7.05 484.92,-14.05"/>
</g>
<!-- Node12 -->
<g id="node12" class="node">
<title>Node12</title>
<g id="a_node12"><a xlink:title=" ">
<polygon fill="white" stroke="#bfbfbf" points="448.5,-56.5 448.5,-75.5 490.5,-75.5 490.5,-56.5 448.5,-56.5"/>
<text text-anchor="middle" x="469.5" y="-63.5" font-family="Helvetica,sans-Serif" font-size="10.00">array</text>
</a>
</g>
</g>
<!-- Node7&#45;&gt;Node12 -->
<g id="edge11" class="edge">
<title>Node7&#45;&gt;Node12</title>
<path fill="none" stroke="midnightblue" d="M350.84,-112.44C374.53,-103.37 412.11,-88.98 438.62,-78.83"/>
<polygon fill="midnightblue" stroke="midnightblue" points="440.1,-82.01 448.19,-75.16 437.6,-75.47 440.1,-82.01"/>
</g>
<!-- Node13 -->
<g id="node13" class="node">
<title>Node13</title>
<g id="a_node13"><a xlink:title=" ">
<polygon fill="white" stroke="#bfbfbf" points="0,-56.5 0,-75.5 149,-75.5 149,-56.5 0,-56.5"/>
<text text-anchor="middle" x="74.5" y="-63.5" font-family="Helvetica,sans-Serif" font-size="10.00">small_vector/SmallVector.h</text>
</a>
</g>
</g>
<!-- Node7&#45;&gt;Node13 -->
<g id="edge13" class="edge">
<title>Node7&#45;&gt;Node13</title>
<path fill="none" stroke="midnightblue" d="M288.25,-112.44C243.85,-103 172.35,-87.8 124.41,-77.61"/>
<polygon fill="midnightblue" stroke="midnightblue" points="125.07,-74.17 114.56,-75.52 123.61,-81.02 125.07,-74.17"/>
</g>
<!-- Node14 -->
<g id="node14" class="node">
<title>Node14</title>
<g id="a_node14"><a xlink:title=" ">
<polygon fill="white" stroke="#bfbfbf" points="357,-56.5 357,-75.5 430,-75.5 430,-56.5 357,-56.5"/>
<text text-anchor="middle" x="393.5" y="-63.5" font-family="Helvetica,sans-Serif" font-size="10.00">string_view</text>
</a>
</g>
</g>
<!-- Node7&#45;&gt;Node14 -->
<g id="edge14" class="edge">
<title>Node7&#45;&gt;Node14</title>
<path fill="none" stroke="midnightblue" d="M338.94,-112.32C348.65,-104.26 363.32,-92.08 375,-82.37"/>
<polygon fill="midnightblue" stroke="midnightblue" points="377.41,-84.92 382.87,-75.83 372.94,-79.53 377.41,-84.92"/>
</g>
<!-- Node9 -->
<g id="node9" class="node">
<title>Node9</title>
<g id="a_node9"><a xlink:title=" ">
<polygon fill="white" stroke="#bfbfbf" points="226,-0.5 226,-19.5 279,-19.5 279,-0.5 226,-0.5"/>
<text text-anchor="middle" x="252.5" y="-7.5" font-family="Helvetica,sans-Serif" font-size="10.00">cstddef</text>
</a>
</g>
</g>
<!-- Node8&#45;&gt;Node9 -->
<g id="edge8" class="edge">
<title>Node8&#45;&gt;Node9</title>
<path fill="none" stroke="midnightblue" d="M252.5,-56.08C252.5,-49.01 252.5,-38.86 252.5,-29.99"/>
<polygon fill="midnightblue" stroke="midnightblue" points="256,-29.75 252.5,-19.75 249,-29.75 256,-29.75"/>
</g>
<!-- Node8&#45;&gt;Node10 -->
<g id="edge9" class="edge">
<title>Node8&#45;&gt;Node10</title>
<path fill="none" stroke="midnightblue" d="M240.77,-56.32C229.66,-48.11 212.76,-35.6 199.52,-25.81"/>
<polygon fill="midnightblue" stroke="midnightblue" points="201.56,-22.97 191.44,-19.83 197.4,-28.59 201.56,-22.97"/>
</g>
<!-- Node8&#45;&gt;Node11 -->
<g id="edge10" class="edge">
<title>Node8&#45;&gt;Node11</title>
<path fill="none" stroke="midnightblue" d="M294.65,-56.44C347.33,-45.75 436.44,-27.66 484.82,-17.84"/>
<polygon fill="midnightblue" stroke="midnightblue" points="485.67,-21.24 494.78,-15.82 484.28,-14.38 485.67,-21.24"/>
</g>
<!-- Node16&#45;&gt;Node2 -->
<g id="edge28" class="edge">
<title>Node16&#45;&gt;Node2</title>
<path fill="none" stroke="midnightblue" d="M924.74,-168.44C903.18,-159.56 869.24,-145.56 844.71,-135.45"/>
<polygon fill="midnightblue" stroke="midnightblue" points="845.74,-132.09 835.16,-131.52 843.07,-138.56 845.74,-132.09"/>
</g>
<!-- Node16&#45;&gt;Node3 -->
<g id="edge32" class="edge">
<title>Node16&#45;&gt;Node3</title>
<path fill="none" stroke="midnightblue" d="M940.87,-168.37C931.22,-150.38 908.79,-108.55 895.95,-84.63"/>
<polygon fill="midnightblue" stroke="midnightblue" points="898.92,-82.75 891.11,-75.59 892.75,-86.06 898.92,-82.75"/>
</g>
<!-- Node16&#45;&gt;Node4 -->
<g id="edge33" class="edge">
<title>Node16&#45;&gt;Node4</title>
<path fill="none" stroke="midnightblue" d="M903.58,-173.81C849.91,-168.75 761.43,-156.81 741.5,-132 725.97,-112.67 753.23,-92.86 777.07,-80.27"/>
<polygon fill="midnightblue" stroke="midnightblue" points="778.9,-83.27 786.27,-75.66 775.76,-77.01 778.9,-83.27"/>
</g>
<!-- Node16&#45;&gt;Node5 -->
<g id="edge29" class="edge">
<title>Node16&#45;&gt;Node5</title>
<path fill="none" stroke="midnightblue" d="M987.19,-169.26C1038.04,-159.83 1124.19,-143.84 1180.72,-133.35"/>
<polygon fill="midnightblue" stroke="midnightblue" points="1181.37,-136.79 1190.56,-131.52 1180.09,-129.91 1181.37,-136.79"/>
</g>
<!-- Node16&#45;&gt;Node11 -->
<g id="edge34" class="edge">
<title>Node16&#45;&gt;Node11</title>
<path fill="none" stroke="midnightblue" d="M987.18,-176.84C1055.73,-175.09 1180.79,-164.82 1139.5,-112 1066.52,-18.64 671.15,-10.98 552.3,-10.82"/>
<polygon fill="midnightblue" stroke="midnightblue" points="552,-7.32 542,-10.82 552,-14.32 552,-7.32"/>
</g>
<!-- Node16&#45;&gt;Node15 -->
<g id="edge31" class="edge">
<title>Node16&#45;&gt;Node15</title>
<path fill="none" stroke="midnightblue" d="M903.95,-173.67C829.3,-167.46 667.39,-152.95 520.66,-132.07"/>
<polygon fill="midnightblue" stroke="midnightblue" points="520.97,-128.58 510.57,-130.62 519.97,-135.5 520.97,-128.58"/>
</g>
<!-- Node17 -->
<g id="node17" class="node">
<title>Node17</title>
<g id="a_node17"><a xlink:href="nonstd_8h.html" target="_top" xlink:title=" ">
<polygon fill="white" stroke="black" points="528.5,-112.5 528.5,-131.5 618.5,-131.5 618.5,-112.5 528.5,-112.5"/>
<text text-anchor="middle" x="573.5" y="-119.5" font-family="Helvetica,sans-Serif" font-size="10.00">ccf/ds/nonstd.h</text>
</a>
</g>
</g>
<!-- Node16&#45;&gt;Node17 -->
<g id="edge19" class="edge">
<title>Node16&#45;&gt;Node17</title>
<path fill="none" stroke="midnightblue" d="M903.91,-170.96C836.64,-161.2 703.93,-141.93 628.78,-131.03"/>
<polygon fill="midnightblue" stroke="midnightblue" points="628.97,-127.52 618.58,-129.54 627.97,-134.44 628.97,-127.52"/>
</g>
<!-- Node21 -->
<g id="node21" class="node">
<title>Node21</title>
<g id="a_node21"><a xlink:href="http__consts_8h.html" target="_top" xlink:title=" ">
<polygon fill="white" stroke="black" points="935,-112.5 935,-131.5 1034,-131.5 1034,-112.5 935,-112.5"/>
<text text-anchor="middle" x="984.5" y="-119.5" font-family="Helvetica,sans-Serif" font-size="10.00">ccf/http_consts.h</text>
</a>
</g>
</g>
<!-- Node16&#45;&gt;Node21 -->
<g id="edge27" class="edge">
<title>Node16&#45;&gt;Node21</title>
<path fill="none" stroke="midnightblue" d="M951.94,-168.08C957.45,-160.46 965.53,-149.26 972.26,-139.94"/>
<polygon fill="midnightblue" stroke="midnightblue" points="975.16,-141.91 978.18,-131.75 969.49,-137.81 975.16,-141.91"/>
</g>
<!-- Node22 -->
<g id="node22" class="node">
<title>Node22</title>
<g id="a_node22"><a xlink:title=" ">
<polygon fill="white" stroke="#bfbfbf" points="1052,-112.5 1052,-131.5 1131,-131.5 1131,-112.5 1052,-112.5"/>
<text text-anchor="middle" x="1091.5" y="-119.5" font-family="Helvetica,sans-Serif" font-size="10.00">fmt/format.h</text>
</a>
</g>
</g>
<!-- Node16&#45;&gt;Node22 -->
<g id="edge30" class="edge">
<title>Node16&#45;&gt;Node22</title>
<path fill="none" stroke="midnightblue" d="M968.63,-168.44C992.98,-159.44 1031.51,-145.19 1058.92,-135.05"/>
<polygon fill="midnightblue" stroke="midnightblue" points="1060.31,-138.27 1068.47,-131.52 1057.88,-131.7 1060.31,-138.27"/>
</g>
<!-- Node17&#45;&gt;Node4 -->
<g id="edge23" class="edge">
<title>Node17&#45;&gt;Node4</title>
<path fill="none" stroke="midnightblue" d="M614.84,-112.43C653.52,-104.25 713.11,-91.27 774.33,-75.93"/>
<polygon fill="midnightblue" stroke="midnightblue" points="775.32,-79.29 784.16,-73.45 773.61,-72.5 775.32,-79.29"/>
</g>
<!-- Node17&#45;&gt;Node11 -->
<g id="edge26" class="edge">
<title>Node17&#45;&gt;Node11</title>
<path fill="none" stroke="midnightblue" d="M564.92,-112.43C556.8,-103.88 544.79,-90.02 537.5,-76 529.87,-61.33 524.89,-43.16 521.95,-29.77"/>
<polygon fill="midnightblue" stroke="midnightblue" points="525.35,-28.93 519.95,-19.82 518.49,-30.31 525.35,-28.93"/>
</g>
<!-- Node17&#45;&gt;Node12 -->
<g id="edge21" class="edge">
<title>Node17&#45;&gt;Node12</title>
<path fill="none" stroke="midnightblue" d="M556.79,-112.32C540.19,-103.7 514.5,-90.36 495.28,-80.39"/>
<polygon fill="midnightblue" stroke="midnightblue" points="496.66,-77.16 486.17,-75.65 493.43,-83.37 496.66,-77.16"/>
</g>
<!-- Node17&#45;&gt;Node14 -->
<g id="edge24" class="edge">
<title>Node17&#45;&gt;Node14</title>
<path fill="none" stroke="midnightblue" d="M544.98,-112.44C514.43,-103.28 465.79,-88.69 431.9,-78.52"/>
<polygon fill="midnightblue" stroke="midnightblue" points="432.47,-75.04 421.89,-75.52 430.46,-81.74 432.47,-75.04"/>
</g>
<!-- Node18 -->
<g id="node18" class="node">
<title>Node18</title>
<g id="a_node18"><a xlink:title=" ">
<polygon fill="white" stroke="#bfbfbf" points="634.5,-56.5 634.5,-75.5 698.5,-75.5 698.5,-56.5 634.5,-56.5"/>
<text text-anchor="middle" x="666.5" y="-63.5" font-family="Helvetica,sans-Serif" font-size="10.00">algorithm</text>
</a>
</g>
</g>
<!-- Node17&#45;&gt;Node18 -->
<g id="edge20" class="edge">
<title>Node17&#45;&gt;Node18</title>
<path fill="none" stroke="midnightblue" d="M588.44,-112.32C603.09,-103.82 625.63,-90.73 642.74,-80.8"/>
<polygon fill="midnightblue" stroke="midnightblue" points="644.7,-83.7 651.6,-75.65 641.19,-77.65 644.7,-83.7"/>
</g>
<!-- Node19 -->
<g id="node19" class="node">
<title>Node19</title>
<g id="a_node19"><a xlink:title=" ">
<polygon fill="white" stroke="#bfbfbf" points="717,-56.5 717,-75.5 766,-75.5 766,-56.5 717,-56.5"/>
<text text-anchor="middle" x="741.5" y="-63.5" font-family="Helvetica,sans-Serif" font-size="10.00">cctype</text>
</a>
</g>
</g>
<!-- Node17&#45;&gt;Node19 -->
<g id="edge22" class="edge">
<title>Node17&#45;&gt;Node19</title>
<path fill="none" stroke="midnightblue" d="M600.12,-112.44C629.09,-103.13 675.5,-88.21 707.19,-78.03"/>
<polygon fill="midnightblue" stroke="midnightblue" points="708.47,-81.29 716.92,-74.9 706.33,-74.63 708.47,-81.29"/>
</g>
<!-- Node20 -->
<g id="node20" class="node">
<title>Node20</title>
<g id="a_node20"><a xlink:title=" ">
<polygon fill="white" stroke="#bfbfbf" points="547,-56.5 547,-75.5 616,-75.5 616,-56.5 547,-56.5"/>
<text text-anchor="middle" x="581.5" y="-63.5" font-family="Helvetica,sans-Serif" font-size="10.00">type_traits</text>
</a>
</g>
</g>
<!-- Node17&#45;&gt;Node20 -->
<g id="edge25" class="edge">
<title>Node17&#45;&gt;Node20</title>
<path fill="none" stroke="midnightblue" d="M574.82,-112.08C575.88,-104.93 577.41,-94.64 578.73,-85.69"/>
<polygon fill="midnightblue" stroke="midnightblue" points="582.2,-86.16 580.2,-75.75 575.28,-85.13 582.2,-86.16"/>
</g>
</g>
</svg>
        <g id="navigator" transform="translate(0 0)" fill="#404254">
                <rect fill="#f2f5e9" fill-opacity="0.5" stroke="#606060" stroke-width=".5" x="0" y="0" width="60" height="60"/>
                <use id="zoomplus" xlink:href="#zoomPlus" x="17" y="9" onmousedown="handleZoom(evt,'in')"/>
                <use id="zoomminus" xlink:href="#zoomMin" x="42" y="9" onmousedown="handleZoom(evt,'out')"/>
                <use id="reset" xlink:href="#resetDef" x="30" y="36" onmousedown="handleReset()"/>
                <g id="arrowUp" xlink:href="#dirArrow" transform="translate(30 24)" onmousedown="handlePan(0,-1)">
                  <use xlink:href="#rim" fill="#404040">
                        <set attributeName="fill" to="#808080" begin="arrowUp.mouseover" end="arrowUp.mouseout"/>
                  </use>
                  <path fill="none" stroke="white" stroke-width="1.5" d="M0,-3.0v7 M-2.5,-0.5L0,-3.0L2.5,-0.5"/>
                </g>
                <g id="arrowRight" xlink:href="#dirArrow" transform="rotate(90) translate(36 -43)" onmousedown="handlePan(1,0)">
                  <use xlink:href="#rim" fill="#404040">
                        <set attributeName="fill" to="#808080" begin="arrowRight.mouseover" end="arrowRight.mouseout"/>
                  </use>
                  <path fill="none" stroke="white" stroke-width="1.5" d="M0,-3.0v7 M-2.5,-0.5L0,-3.0L2.5,-0.5"/>
                </g>
                <g id="arrowDown" xlink:href="#dirArrow" transform="rotate(180) translate(-30 -48)" onmousedown="handlePan(0,1)">
                  <use xlink:href="#rim" fill="#404040">
                        <set attributeName="fill" to="#808080" begin="arrowDown.mouseover" end="arrowDown.mouseout"/>
                  </use>
                  <path fill="none" stroke="white" stroke-width="1.5" d="M0,-3.0v7 M-2.5,-0.5L0,-3.0L2.5,-0.5"/>
                </g>
                <g id="arrowLeft" xlink:href="#dirArrow" transform="rotate(270) translate(-36 17)" onmousedown="handlePan(-1,0)">
                  <use xlink:href="#rim" fill="#404040">
                        <set attributeName="fill" to="#808080" begin="arrowLeft.mouseover" end="arrowLeft.mouseout"/>
                  </use>
                  <path fill="none" stroke="white" stroke-width="1.5" d="M0,-3.0v7 M-2.5,-0.5L0,-3.0L2.5,-0.5"/>
                </g>
        </g>
        <svg viewBox="0 0 15 15" width="100%" height="30px" preserveAspectRatio="xMaxYMin meet">
         <g id="arrow_out" transform="scale(0.3 0.3)">
          <a xlink:href="http2__types_8h__incl_org.svg" target="_base">
           <rect id="button" ry="5" rx="5" y="6" x="6" height="38" width="38"
                fill="#f2f5e9" fill-opacity="0.5" stroke="#606060" stroke-width="1.0"/>
           <path id="arrow"
             d="M 11.500037,31.436501 C 11.940474,20.09759 22.043105,11.32322 32.158766,21.979434 L 37.068811,17.246167 C 37.068811,17.246167 37.088388,32 37.088388,32 L 22.160133,31.978069 C 22.160133,31.978069 26.997745,27.140456 26.997745,27.140456 C 18.528582,18.264221 13.291696,25.230495 11.500037,31.436501 z"
             style="fill:#404040;"/>
          </a>
         </g>
        </svg>
</svg>
