<?xml version="1.0" encoding="UTF-8" standalone="no"?>
<!DOCTYPE svg PUBLIC "-//W3C//DTD SVG 1.1//EN"
 "http://www.w3.org/Graphics/SVG/1.1/DTD/svg11.dtd">
<!-- Generated by graphviz version 2.43.0 (0)
 -->
<!-- Title: include/ccf/crypto/rsa_key_pair.h Pages: 1 -->
<svg width="1348pt" height="408pt"
 viewBox="0.00 0.00 1347.50 408.00" xmlns="http://www.w3.org/2000/svg" xmlns:xlink="http://www.w3.org/1999/xlink">
<g id="graph0" class="graph" transform="scale(1 1) rotate(0) translate(4 404)">
<title>include/ccf/crypto/rsa_key_pair.h</title>
<polygon fill="white" stroke="transparent" points="-4,4 -4,-404 1343.5,-404 1343.5,4 -4,4"/>
<!-- Node1 -->
<g id="node1" class="node">
<title>Node1</title>
<g id="a_node1"><a xlink:title=" ">
<polygon fill="#bfbfbf" stroke="black" points="407.5,-369.5 407.5,-399.5 510.5,-399.5 510.5,-369.5 407.5,-369.5"/>
<text text-anchor="start" x="415.5" y="-387.5" font-family="Helvetica,sans-Serif" font-size="10.00">include/ccf/crypto</text>
<text text-anchor="middle" x="459" y="-376.5" font-family="Helvetica,sans-Serif" font-size="10.00">/rsa_key_pair.h</text>
</a>
</g>
</g>
<!-- Node2 -->
<g id="node2" class="node">
<title>Node2</title>
<g id="a_node2"><a xlink:href="key__wrap_8h.html" target="_top" xlink:title=" ">
<polygon fill="white" stroke="black" points="284.5,-302.5 284.5,-332.5 387.5,-332.5 387.5,-302.5 284.5,-302.5"/>
<text text-anchor="start" x="292.5" y="-320.5" font-family="Helvetica,sans-Serif" font-size="10.00">include/ccf/crypto</text>
<text text-anchor="middle" x="336" y="-309.5" font-family="Helvetica,sans-Serif" font-size="10.00">/key_wrap.h</text>
</a>
</g>
</g>
<!-- Node1&#45;&gt;Node2 -->
<g id="edge1" class="edge">
<title>Node1&#45;&gt;Node2</title>
<path fill="none" stroke="midnightblue" d="M423.45,-364.71C404.05,-354.46 380.44,-341.98 362.64,-332.58"/>
<polygon fill="midnightblue" stroke="midnightblue" points="421.83,-367.82 432.31,-369.4 425.1,-361.63 421.83,-367.82"/>
</g>
<!-- Node3 -->
<g id="node3" class="node">
<title>Node3</title>
<g id="a_node3"><a xlink:href="js__generic__base_8cpp.html" target="_top" xlink:title=" ">
<polygon fill="white" stroke="black" points="0,-235.5 0,-265.5 118,-265.5 118,-235.5 0,-235.5"/>
<text text-anchor="start" x="8" y="-253.5" font-family="Helvetica,sans-Serif" font-size="10.00">src/apps/js_generic</text>
<text text-anchor="middle" x="59" y="-242.5" font-family="Helvetica,sans-Serif" font-size="10.00">/js_generic_base.cpp</text>
</a>
</g>
</g>
<!-- Node1&#45;&gt;Node3 -->
<g id="edge12" class="edge">
<title>Node1&#45;&gt;Node3</title>
<path fill="none" stroke="midnightblue" d="M397.4,-372.9C352.55,-364.34 290.69,-350.81 238,-333 181.88,-314.03 119.61,-283.34 85.3,-265.53"/>
<polygon fill="midnightblue" stroke="midnightblue" points="396.8,-376.35 407.27,-374.75 398.09,-369.47 396.8,-376.35"/>
</g>
<!-- Node4 -->
<g id="node4" class="node">
<title>Node4</title>
<g id="a_node4"><a xlink:href="key__wrap_8cpp.html" target="_top" xlink:title=" ">
<polygon fill="white" stroke="black" points="136,-241 136,-260 270,-260 270,-241 136,-241"/>
<text text-anchor="middle" x="203" y="-248" font-family="Helvetica,sans-Serif" font-size="10.00">src/crypto/key_wrap.cpp</text>
</a>
</g>
</g>
<!-- Node1&#45;&gt;Node4 -->
<g id="edge13" class="edge">
<title>Node1&#45;&gt;Node4</title>
<path fill="none" stroke="midnightblue" d="M397.11,-375.66C359.59,-368.77 312,-356.07 275,-333 243.92,-313.62 218.6,-276.81 208.15,-260.12"/>
<polygon fill="midnightblue" stroke="midnightblue" points="396.95,-379.18 407.4,-377.45 398.15,-372.29 396.95,-379.18"/>
</g>
<!-- Node5 -->
<g id="node5" class="node">
<title>Node5</title>
<g id="a_node5"><a xlink:href="crypto_8cpp.html" target="_top" xlink:title=" ">
<polygon fill="white" stroke="black" points="288,-241 288,-260 384,-260 384,-241 288,-241"/>
<text text-anchor="middle" x="336" y="-248" font-family="Helvetica,sans-Serif" font-size="10.00">src/js/crypto.cpp</text>
</a>
</g>
</g>
<!-- Node1&#45;&gt;Node5 -->
<g id="edge21" class="edge">
<title>Node1&#45;&gt;Node5</title>
<path fill="none" stroke="midnightblue" d="M443.59,-360.99C431.51,-344.02 413.82,-320.57 396,-302 380.54,-285.89 360.27,-269.69 347.69,-260.14"/>
<polygon fill="midnightblue" stroke="midnightblue" points="440.76,-363.04 449.37,-369.22 446.48,-359.02 440.76,-363.04"/>
</g>
<!-- Node7 -->
<g id="node7" class="node">
<title>Node7</title>
<g id="a_node7"><a xlink:href="secret__broadcast_8h.html" target="_top" xlink:title=" ">
<polygon fill="white" stroke="black" points="402.5,-241 402.5,-260 555.5,-260 555.5,-241 402.5,-241"/>
<text text-anchor="middle" x="479" y="-248" font-family="Helvetica,sans-Serif" font-size="10.00">src/node/secret_broadcast.h</text>
</a>
</g>
</g>
<!-- Node1&#45;&gt;Node7 -->
<g id="edge22" class="edge">
<title>Node1&#45;&gt;Node7</title>
<path fill="none" stroke="midnightblue" d="M462.66,-359.32C467.2,-329.38 474.7,-279.91 477.7,-260.1"/>
<polygon fill="midnightblue" stroke="midnightblue" points="459.18,-358.96 461.14,-369.37 466.1,-360.01 459.18,-358.96"/>
</g>
<!-- Node12 -->
<g id="node12" class="node">
<title>Node12</title>
<g id="a_node12"><a xlink:href="src_2crypto_2openssl_2rsa__key__pair_8h.html" target="_top" xlink:title=" ">
<polygon fill="white" stroke="black" points="859.5,-302.5 859.5,-332.5 964.5,-332.5 964.5,-302.5 859.5,-302.5"/>
<text text-anchor="start" x="867.5" y="-320.5" font-family="Helvetica,sans-Serif" font-size="10.00">src/crypto/openssl</text>
<text text-anchor="middle" x="912" y="-309.5" font-family="Helvetica,sans-Serif" font-size="10.00">/rsa_key_pair.h</text>
</a>
</g>
</g>
<!-- Node1&#45;&gt;Node12 -->
<g id="edge14" class="edge">
<title>Node1&#45;&gt;Node12</title>
<path fill="none" stroke="midnightblue" d="M520.55,-374.67C610.21,-361.8 775.21,-338.13 859.48,-326.04"/>
<polygon fill="midnightblue" stroke="midnightblue" points="519.93,-371.22 510.52,-376.11 520.92,-378.15 519.93,-371.22"/>
</g>
<!-- Node18 -->
<g id="node18" class="node">
<title>Node18</title>
<g id="a_node18"><a xlink:href="symmetric__key_8cpp.html" target="_top" xlink:title=" ">
<polygon fill="white" stroke="black" points="983,-302.5 983,-332.5 1103,-332.5 1103,-302.5 983,-302.5"/>
<text text-anchor="start" x="991" y="-320.5" font-family="Helvetica,sans-Serif" font-size="10.00">src/crypto/symmetric</text>
<text text-anchor="middle" x="1043" y="-309.5" font-family="Helvetica,sans-Serif" font-size="10.00">_key.cpp</text>
</a>
</g>
</g>
<!-- Node1&#45;&gt;Node18 -->
<g id="edge20" class="edge">
<title>Node1&#45;&gt;Node18</title>
<path fill="none" stroke="midnightblue" d="M520.98,-379.62C617.99,-373.06 811.43,-357.98 974,-333 976.9,-332.55 979.87,-332.06 982.86,-331.54"/>
<polygon fill="midnightblue" stroke="midnightblue" points="520.51,-376.14 510.77,-380.31 520.98,-383.13 520.51,-376.14"/>
</g>
<!-- Node19 -->
<g id="node19" class="node">
<title>Node19</title>
<g id="a_node19"><a xlink:href="share__manager_8h.html" target="_top" xlink:title=" ">
<polygon fill="white" stroke="black" points="573.5,-241 573.5,-260 718.5,-260 718.5,-241 573.5,-241"/>
<text text-anchor="middle" x="646" y="-248" font-family="Helvetica,sans-Serif" font-size="10.00">src/node/share_manager.h</text>
</a>
</g>
</g>
<!-- Node1&#45;&gt;Node19 -->
<g id="edge23" class="edge">
<title>Node1&#45;&gt;Node19</title>
<path fill="none" stroke="midnightblue" d="M487.32,-363.51C528.82,-334.22 604.4,-280.87 633.82,-260.1"/>
<polygon fill="midnightblue" stroke="midnightblue" points="485.16,-360.75 479.01,-369.37 489.2,-366.47 485.16,-360.75"/>
</g>
<!-- Node2&#45;&gt;Node3 -->
<g id="edge2" class="edge">
<title>Node2&#45;&gt;Node3</title>
<path fill="none" stroke="midnightblue" d="M274.26,-302.01C227.67,-291.08 164.16,-276.18 118.21,-265.39"/>
<polygon fill="midnightblue" stroke="midnightblue" points="273.69,-305.47 284.22,-304.35 275.29,-298.66 273.69,-305.47"/>
</g>
<!-- Node2&#45;&gt;Node4 -->
<g id="edge3" class="edge">
<title>Node2&#45;&gt;Node4</title>
<path fill="none" stroke="midnightblue" d="M298.08,-297.97C272.53,-285.48 240.03,-269.6 220.41,-260.01"/>
<polygon fill="midnightblue" stroke="midnightblue" points="296.62,-301.15 307.14,-302.4 299.69,-294.86 296.62,-301.15"/>
</g>
<!-- Node2&#45;&gt;Node5 -->
<g id="edge4" class="edge">
<title>Node2&#45;&gt;Node5</title>
<path fill="none" stroke="midnightblue" d="M336,-292.25C336,-281.02 336,-268.38 336,-260.19"/>
<polygon fill="midnightblue" stroke="midnightblue" points="332.5,-292.4 336,-302.4 339.5,-292.4 332.5,-292.4"/>
</g>
<!-- Node2&#45;&gt;Node7 -->
<g id="edge6" class="edge">
<title>Node2&#45;&gt;Node7</title>
<path fill="none" stroke="midnightblue" d="M376.41,-298.13C403.93,-285.62 439.09,-269.64 460.28,-260.01"/>
<polygon fill="midnightblue" stroke="midnightblue" points="374.68,-295.07 367.03,-302.4 377.58,-301.44 374.68,-295.07"/>
</g>
<!-- Node6 -->
<g id="node6" class="node">
<title>Node6</title>
<g id="a_node6"><a xlink:href="wrap_8cpp.html" target="_top" xlink:title=" ">
<polygon fill="white" stroke="black" points="291.5,-179.5 291.5,-198.5 380.5,-198.5 380.5,-179.5 291.5,-179.5"/>
<text text-anchor="middle" x="336" y="-186.5" font-family="Helvetica,sans-Serif" font-size="10.00">src/js/wrap.cpp</text>
</a>
</g>
</g>
<!-- Node5&#45;&gt;Node6 -->
<g id="edge5" class="edge">
<title>Node5&#45;&gt;Node6</title>
<path fill="none" stroke="midnightblue" d="M336,-230.82C336,-220 336,-206.9 336,-198.51"/>
<polygon fill="midnightblue" stroke="midnightblue" points="332.5,-230.98 336,-240.98 339.5,-230.98 332.5,-230.98"/>
</g>
<!-- Node8 -->
<g id="node8" class="node">
<title>Node8</title>
<g id="a_node8"><a xlink:href="node__state_8h.html" target="_top" xlink:title=" ">
<polygon fill="white" stroke="black" points="456,-179.5 456,-198.5 580,-198.5 580,-179.5 456,-179.5"/>
<text text-anchor="middle" x="518" y="-186.5" font-family="Helvetica,sans-Serif" font-size="10.00">src/node/node_state.h</text>
</a>
</g>
</g>
<!-- Node7&#45;&gt;Node8 -->
<g id="edge7" class="edge">
<title>Node7&#45;&gt;Node8</title>
<path fill="none" stroke="midnightblue" d="M490.14,-232.51C497.43,-221.39 506.63,-207.34 512.42,-198.51"/>
<polygon fill="midnightblue" stroke="midnightblue" points="487.14,-230.69 484.59,-240.98 493,-234.53 487.14,-230.69"/>
</g>
<!-- Node9 -->
<g id="node9" class="node">
<title>Node9</title>
<g id="a_node9"><a xlink:href="src_2enclave_2enclave_8h.html" target="_top" xlink:title=" ">
<polygon fill="white" stroke="black" points="497,-56.5 497,-75.5 619,-75.5 619,-56.5 497,-56.5"/>
<text text-anchor="middle" x="558" y="-63.5" font-family="Helvetica,sans-Serif" font-size="10.00">src/enclave/enclave.h</text>
</a>
</g>
</g>
<!-- Node8&#45;&gt;Node9 -->
<g id="edge8" class="edge">
<title>Node8&#45;&gt;Node9</title>
<path fill="none" stroke="midnightblue" d="M527.21,-170.32C531.21,-162.16 535.72,-152.24 539,-143 547.46,-119.16 553.65,-89.84 556.41,-75.59"/>
<polygon fill="midnightblue" stroke="midnightblue" points="524.09,-168.74 522.7,-179.25 530.33,-171.9 524.09,-168.74"/>
</g>
<!-- Node11 -->
<g id="node11" class="node">
<title>Node11</title>
<g id="a_node11"><a xlink:href="gov__effects_8h.html" target="_top" xlink:title=" ">
<polygon fill="white" stroke="black" points="386,-118 386,-137 530,-137 530,-118 386,-118"/>
<text text-anchor="middle" x="458" y="-125" font-family="Helvetica,sans-Serif" font-size="10.00">src/node/rpc/gov_effects.h</text>
</a>
</g>
</g>
<!-- Node8&#45;&gt;Node11 -->
<g id="edge10" class="edge">
<title>Node8&#45;&gt;Node11</title>
<path fill="none" stroke="midnightblue" d="M502.19,-172.32C490.79,-161.02 475.84,-146.19 466.58,-137.01"/>
<polygon fill="midnightblue" stroke="midnightblue" points="499.84,-174.92 509.4,-179.48 504.77,-169.95 499.84,-174.92"/>
</g>
<!-- Node10 -->
<g id="node10" class="node">
<title>Node10</title>
<g id="a_node10"><a xlink:href="enclave_2main_8cpp.html" target="_top" xlink:title=" ">
<polygon fill="white" stroke="black" points="498,-0.5 498,-19.5 618,-19.5 618,-0.5 498,-0.5"/>
<text text-anchor="middle" x="558" y="-7.5" font-family="Helvetica,sans-Serif" font-size="10.00">src/enclave/main.cpp</text>
</a>
</g>
</g>
<!-- Node9&#45;&gt;Node10 -->
<g id="edge9" class="edge">
<title>Node9&#45;&gt;Node10</title>
<path fill="none" stroke="midnightblue" d="M558,-45.8C558,-36.91 558,-26.78 558,-19.75"/>
<polygon fill="midnightblue" stroke="midnightblue" points="554.5,-46.08 558,-56.08 561.5,-46.08 554.5,-46.08"/>
</g>
<!-- Node11&#45;&gt;Node9 -->
<g id="edge11" class="edge">
<title>Node11&#45;&gt;Node9</title>
<path fill="none" stroke="midnightblue" d="M481.12,-112.74C500.44,-101.25 527.37,-85.22 543.7,-75.51"/>
<polygon fill="midnightblue" stroke="midnightblue" points="479.13,-109.85 472.33,-117.98 482.71,-115.87 479.13,-109.85"/>
</g>
<!-- Node13 -->
<g id="node13" class="node">
<title>Node13</title>
<g id="a_node13"><a xlink:href="cose__verifier_8cpp.html" target="_top" xlink:title=" ">
<polygon fill="white" stroke="black" points="736.5,-235.5 736.5,-265.5 841.5,-265.5 841.5,-235.5 736.5,-235.5"/>
<text text-anchor="start" x="744.5" y="-253.5" font-family="Helvetica,sans-Serif" font-size="10.00">src/crypto/openssl</text>
<text text-anchor="middle" x="789" y="-242.5" font-family="Helvetica,sans-Serif" font-size="10.00">/cose_verifier.cpp</text>
</a>
</g>
</g>
<!-- Node12&#45;&gt;Node13 -->
<g id="edge15" class="edge">
<title>Node12&#45;&gt;Node13</title>
<path fill="none" stroke="midnightblue" d="M876.45,-297.71C857.05,-287.46 833.44,-274.98 815.64,-265.58"/>
<polygon fill="midnightblue" stroke="midnightblue" points="874.83,-300.82 885.31,-302.4 878.1,-294.63 874.83,-300.82"/>
</g>
<!-- Node14 -->
<g id="node14" class="node">
<title>Node14</title>
<g id="a_node14"><a xlink:href="openssl_2rsa__key__pair_8cpp.html" target="_top" xlink:title=" ">
<polygon fill="white" stroke="black" points="859.5,-235.5 859.5,-265.5 964.5,-265.5 964.5,-235.5 859.5,-235.5"/>
<text text-anchor="start" x="867.5" y="-253.5" font-family="Helvetica,sans-Serif" font-size="10.00">src/crypto/openssl</text>
<text text-anchor="middle" x="912" y="-242.5" font-family="Helvetica,sans-Serif" font-size="10.00">/rsa_key_pair.cpp</text>
</a>
</g>
</g>
<!-- Node12&#45;&gt;Node14 -->
<g id="edge16" class="edge">
<title>Node12&#45;&gt;Node14</title>
<path fill="none" stroke="midnightblue" d="M912,-292.11C912,-283.15 912,-273.32 912,-265.58"/>
<polygon fill="midnightblue" stroke="midnightblue" points="908.5,-292.4 912,-302.4 915.5,-292.4 908.5,-292.4"/>
</g>
<!-- Node15 -->
<g id="node15" class="node">
<title>Node15</title>
<g id="a_node15"><a xlink:href="rsa__public__key_8cpp.html" target="_top" xlink:title=" ">
<polygon fill="white" stroke="black" points="983,-235.5 983,-265.5 1093,-265.5 1093,-235.5 983,-235.5"/>
<text text-anchor="start" x="991" y="-253.5" font-family="Helvetica,sans-Serif" font-size="10.00">src/crypto/openssl</text>
<text text-anchor="middle" x="1038" y="-242.5" font-family="Helvetica,sans-Serif" font-size="10.00">/rsa_public_key.cpp</text>
</a>
</g>
</g>
<!-- Node12&#45;&gt;Node15 -->
<g id="edge17" class="edge">
<title>Node12&#45;&gt;Node15</title>
<path fill="none" stroke="midnightblue" d="M948.42,-297.71C968.29,-287.46 992.48,-274.98 1010.71,-265.58"/>
<polygon fill="midnightblue" stroke="midnightblue" points="946.62,-294.7 939.34,-302.4 949.83,-300.92 946.62,-294.7"/>
</g>
<!-- Node16 -->
<g id="node16" class="node">
<title>Node16</title>
<g id="a_node16"><a xlink:href="openssl_2verifier_8cpp.html" target="_top" xlink:title=" ">
<polygon fill="white" stroke="black" points="1111.5,-235.5 1111.5,-265.5 1216.5,-265.5 1216.5,-235.5 1111.5,-235.5"/>
<text text-anchor="start" x="1119.5" y="-253.5" font-family="Helvetica,sans-Serif" font-size="10.00">src/crypto/openssl</text>
<text text-anchor="middle" x="1164" y="-242.5" font-family="Helvetica,sans-Serif" font-size="10.00">/verifier.cpp</text>
</a>
</g>
</g>
<!-- Node12&#45;&gt;Node16 -->
<g id="edge18" class="edge">
<title>Node12&#45;&gt;Node16</title>
<path fill="none" stroke="midnightblue" d="M974.37,-300.41C1016.39,-289.57 1071.23,-275.43 1111.11,-265.14"/>
<polygon fill="midnightblue" stroke="midnightblue" points="973.33,-297.07 964.52,-302.95 975.08,-303.84 973.33,-297.07"/>
</g>
<!-- Node17 -->
<g id="node17" class="node">
<title>Node17</title>
<g id="a_node17"><a xlink:href="rsa__key__pair_8cpp.html" target="_top" xlink:title=" ">
<polygon fill="white" stroke="black" points="1234.5,-235.5 1234.5,-265.5 1339.5,-265.5 1339.5,-235.5 1234.5,-235.5"/>
<text text-anchor="start" x="1242.5" y="-253.5" font-family="Helvetica,sans-Serif" font-size="10.00">src/crypto/rsa_key</text>
<text text-anchor="middle" x="1287" y="-242.5" font-family="Helvetica,sans-Serif" font-size="10.00">_pair.cpp</text>
</a>
</g>
</g>
<!-- Node12&#45;&gt;Node17 -->
<g id="edge19" class="edge">
<title>Node12&#45;&gt;Node17</title>
<path fill="none" stroke="midnightblue" d="M974.72,-301.98C1086.93,-281.42 1118,-286.51 1226,-266 1228.78,-265.47 1231.63,-264.9 1234.49,-264.3"/>
<polygon fill="midnightblue" stroke="midnightblue" points="973.89,-298.57 964.7,-303.84 975.17,-305.46 973.89,-298.57"/>
</g>
<!-- Node19&#45;&gt;Node8 -->
<g id="edge24" class="edge">
<title>Node19&#45;&gt;Node8</title>
<path fill="none" stroke="midnightblue" d="M618.41,-236.67C593.57,-225.13 557.77,-208.49 536.31,-198.51"/>
<polygon fill="midnightblue" stroke="midnightblue" points="617.12,-239.93 627.66,-240.98 620.07,-233.59 617.12,-239.93"/>
</g>
<!-- Node20 -->
<g id="node20" class="node">
<title>Node20</title>
<g id="a_node20"><a xlink:href="member__frontend_8h.html" target="_top" xlink:title=" ">
<polygon fill="white" stroke="black" points="586,-112.5 586,-142.5 706,-142.5 706,-112.5 586,-112.5"/>
<text text-anchor="start" x="594" y="-130.5" font-family="Helvetica,sans-Serif" font-size="10.00">src/node/rpc/member</text>
<text text-anchor="middle" x="646" y="-119.5" font-family="Helvetica,sans-Serif" font-size="10.00">_frontend.h</text>
</a>
</g>
</g>
<!-- Node19&#45;&gt;Node20 -->
<g id="edge25" class="edge">
<title>Node19&#45;&gt;Node20</title>
<path fill="none" stroke="midnightblue" d="M646,-230.68C646,-206.3 646,-164.32 646,-142.54"/>
<polygon fill="midnightblue" stroke="midnightblue" points="642.5,-230.8 646,-240.8 649.5,-230.8 642.5,-230.8"/>
</g>
<!-- Node20&#45;&gt;Node9 -->
<g id="edge26" class="edge">
<title>Node20&#45;&gt;Node9</title>
<path fill="none" stroke="midnightblue" d="M616.83,-106.78C601.23,-96.23 582.82,-83.78 570.8,-75.66"/>
<polygon fill="midnightblue" stroke="midnightblue" points="614.9,-109.7 625.15,-112.4 618.82,-103.9 614.9,-109.7"/>
</g>
</g>
</svg>
