<?xml version="1.0" encoding="UTF-8" standalone="no"?>
<!DOCTYPE svg PUBLIC "-//W3C//DTD SVG 1.1//EN"
 "http://www.w3.org/Graphics/SVG/1.1/DTD/svg11.dtd">
<!-- Generated by graphviz version 2.43.0 (0)
 -->
<!-- Title: include/ccf/ds/hash.h Pages: 1 -->
<svg width="510pt" height="140pt"
 viewBox="0.00 0.00 509.50 140.00" xmlns="http://www.w3.org/2000/svg" xmlns:xlink="http://www.w3.org/1999/xlink">
<g id="graph0" class="graph" transform="scale(1 1) rotate(0) translate(4 136)">
<title>include/ccf/ds/hash.h</title>
<polygon fill="white" stroke="transparent" points="-4,4 -4,-136 505.5,-136 505.5,4 -4,4"/>
<!-- Node1 -->
<g id="node1" class="node">
<title>Node1</title>
<g id="a_node1"><a xlink:title=" ">
<polygon fill="#bfbfbf" stroke="black" points="138.5,-112.5 138.5,-131.5 257.5,-131.5 257.5,-112.5 138.5,-112.5"/>
<text text-anchor="middle" x="198" y="-119.5" font-family="Helvetica,sans-Serif" font-size="10.00">include/ccf/ds/hash.h</text>
</a>
</g>
</g>
<!-- Node2 -->
<g id="node2" class="node">
<title>Node2</title>
<g id="a_node2"><a xlink:href="siphash_8h.html" target="_top" xlink:title=" ">
<polygon fill="white" stroke="black" points="50.5,-56.5 50.5,-75.5 145.5,-75.5 145.5,-56.5 50.5,-56.5"/>
<text text-anchor="middle" x="98" y="-63.5" font-family="Helvetica,sans-Serif" font-size="10.00">ccf/ds/siphash.h</text>
</a>
</g>
</g>
<!-- Node1&#45;&gt;Node2 -->
<g id="edge1" class="edge">
<title>Node1&#45;&gt;Node2</title>
<path fill="none" stroke="midnightblue" d="M181.93,-112.32C166.04,-103.74 141.49,-90.49 123.04,-80.52"/>
<polygon fill="midnightblue" stroke="midnightblue" points="124.49,-77.33 114.03,-75.65 121.16,-83.49 124.49,-77.33"/>
</g>
<!-- Node4 -->
<g id="node4" class="node">
<title>Node4</title>
<g id="a_node4"><a xlink:title=" ">
<polygon fill="white" stroke="#bfbfbf" points="0,-0.5 0,-19.5 50,-19.5 50,-0.5 0,-0.5"/>
<text text-anchor="middle" x="25" y="-7.5" font-family="Helvetica,sans-Serif" font-size="10.00">cstdint</text>
</a>
</g>
</g>
<!-- Node1&#45;&gt;Node4 -->
<g id="edge6" class="edge">
<title>Node1&#45;&gt;Node4</title>
<path fill="none" stroke="midnightblue" d="M138.13,-117.76C105.58,-112.9 66.99,-101.63 42,-76 30.18,-63.88 26.3,-44.6 25.15,-30.18"/>
<polygon fill="midnightblue" stroke="midnightblue" points="28.64,-29.73 24.72,-19.89 21.64,-30.02 28.64,-29.73"/>
</g>
<!-- Node5 -->
<g id="node5" class="node">
<title>Node5</title>
<g id="a_node5"><a xlink:title=" ">
<polygon fill="white" stroke="#bfbfbf" points="146.5,-0.5 146.5,-19.5 193.5,-19.5 193.5,-0.5 146.5,-0.5"/>
<text text-anchor="middle" x="170" y="-7.5" font-family="Helvetica,sans-Serif" font-size="10.00">vector</text>
</a>
</g>
</g>
<!-- Node1&#45;&gt;Node5 -->
<g id="edge9" class="edge">
<title>Node1&#45;&gt;Node5</title>
<path fill="none" stroke="midnightblue" d="M195.8,-112.37C191.28,-94.62 180.86,-53.67 174.73,-29.6"/>
<polygon fill="midnightblue" stroke="midnightblue" points="178.05,-28.42 172.19,-19.59 171.26,-30.15 178.05,-28.42"/>
</g>
<!-- Node6 -->
<g id="node6" class="node">
<title>Node6</title>
<g id="a_node6"><a xlink:title=" ">
<polygon fill="white" stroke="#bfbfbf" points="202,-56.5 202,-75.5 244,-75.5 244,-56.5 202,-56.5"/>
<text text-anchor="middle" x="223" y="-63.5" font-family="Helvetica,sans-Serif" font-size="10.00">array</text>
</a>
</g>
</g>
<!-- Node1&#45;&gt;Node6 -->
<g id="edge5" class="edge">
<title>Node1&#45;&gt;Node6</title>
<path fill="none" stroke="midnightblue" d="M202.13,-112.08C205.51,-104.77 210.42,-94.18 214.62,-85.1"/>
<polygon fill="midnightblue" stroke="midnightblue" points="217.92,-86.3 218.95,-75.75 211.57,-83.36 217.92,-86.3"/>
</g>
<!-- Node7 -->
<g id="node7" class="node">
<title>Node7</title>
<g id="a_node7"><a xlink:title=" ">
<polygon fill="white" stroke="#bfbfbf" points="261.5,-56.5 261.5,-75.5 410.5,-75.5 410.5,-56.5 261.5,-56.5"/>
<text text-anchor="middle" x="336" y="-63.5" font-family="Helvetica,sans-Serif" font-size="10.00">small_vector/SmallVector.h</text>
</a>
</g>
</g>
<!-- Node1&#45;&gt;Node7 -->
<g id="edge7" class="edge">
<title>Node1&#45;&gt;Node7</title>
<path fill="none" stroke="midnightblue" d="M219.87,-112.44C242.78,-103.48 278.98,-89.31 304.87,-79.18"/>
<polygon fill="midnightblue" stroke="midnightblue" points="306.2,-82.42 314.24,-75.52 303.65,-75.9 306.2,-82.42"/>
</g>
<!-- Node8 -->
<g id="node8" class="node">
<title>Node8</title>
<g id="a_node8"><a xlink:title=" ">
<polygon fill="white" stroke="#bfbfbf" points="428.5,-56.5 428.5,-75.5 501.5,-75.5 501.5,-56.5 428.5,-56.5"/>
<text text-anchor="middle" x="465" y="-63.5" font-family="Helvetica,sans-Serif" font-size="10.00">string_view</text>
</a>
</g>
</g>
<!-- Node1&#45;&gt;Node8 -->
<g id="edge8" class="edge">
<title>Node1&#45;&gt;Node8</title>
<path fill="none" stroke="midnightblue" d="M240.31,-112.44C288.87,-102.62 368.27,-86.56 418.52,-76.4"/>
<polygon fill="midnightblue" stroke="midnightblue" points="419.36,-79.8 428.47,-74.39 417.97,-72.94 419.36,-79.8"/>
</g>
<!-- Node3 -->
<g id="node3" class="node">
<title>Node3</title>
<g id="a_node3"><a xlink:title=" ">
<polygon fill="white" stroke="#bfbfbf" points="71.5,-0.5 71.5,-19.5 124.5,-19.5 124.5,-0.5 71.5,-0.5"/>
<text text-anchor="middle" x="98" y="-7.5" font-family="Helvetica,sans-Serif" font-size="10.00">cstddef</text>
</a>
</g>
</g>
<!-- Node2&#45;&gt;Node3 -->
<g id="edge2" class="edge">
<title>Node2&#45;&gt;Node3</title>
<path fill="none" stroke="midnightblue" d="M98,-56.08C98,-49.01 98,-38.86 98,-29.99"/>
<polygon fill="midnightblue" stroke="midnightblue" points="101.5,-29.75 98,-19.75 94.5,-29.75 101.5,-29.75"/>
</g>
<!-- Node2&#45;&gt;Node4 -->
<g id="edge3" class="edge">
<title>Node2&#45;&gt;Node4</title>
<path fill="none" stroke="midnightblue" d="M86.27,-56.32C75.16,-48.11 58.26,-35.6 45.02,-25.81"/>
<polygon fill="midnightblue" stroke="midnightblue" points="47.06,-22.97 36.94,-19.83 42.9,-28.59 47.06,-22.97"/>
</g>
<!-- Node2&#45;&gt;Node5 -->
<g id="edge4" class="edge">
<title>Node2&#45;&gt;Node5</title>
<path fill="none" stroke="midnightblue" d="M109.57,-56.32C120.42,-48.18 136.88,-35.84 149.88,-26.09"/>
<polygon fill="midnightblue" stroke="midnightblue" points="152.32,-28.63 158.22,-19.83 148.12,-23.03 152.32,-28.63"/>
</g>
</g>
</svg>
