<?xml version="1.0" encoding="UTF-8" standalone="no"?>
<!DOCTYPE svg PUBLIC "-//W3C//DTD SVG 1.1//EN"
 "http://www.w3.org/Graphics/SVG/1.1/DTD/svg11.dtd">
<!-- Generated by graphviz version 2.43.0 (0)
 -->
<!-- Title: include/ccf/crypto/rsa_public_key.h Pages: 1 -->
<svg width="1348pt" height="475pt"
 viewBox="0.00 0.00 1347.50 475.00" xmlns="http://www.w3.org/2000/svg" xmlns:xlink="http://www.w3.org/1999/xlink">
<g id="graph0" class="graph" transform="scale(1 1) rotate(0) translate(4 471)">
<title>include/ccf/crypto/rsa_public_key.h</title>
<polygon fill="white" stroke="transparent" points="-4,4 -4,-471 1343.5,-471 1343.5,4 -4,4"/>
<!-- Node1 -->
<g id="node1" class="node">
<title>Node1</title>
<g id="a_node1"><a xlink:title=" ">
<polygon fill="#bfbfbf" stroke="black" points="779.5,-436.5 779.5,-466.5 882.5,-466.5 882.5,-436.5 779.5,-436.5"/>
<text text-anchor="start" x="787.5" y="-454.5" font-family="Helvetica,sans-Serif" font-size="10.00">include/ccf/crypto</text>
<text text-anchor="middle" x="831" y="-443.5" font-family="Helvetica,sans-Serif" font-size="10.00">/rsa_public_key.h</text>
</a>
</g>
</g>
<!-- Node2 -->
<g id="node2" class="node">
<title>Node2</title>
<g id="a_node2"><a xlink:href="include_2ccf_2crypto_2rsa__key__pair_8h.html" target="_top" xlink:title=" ">
<polygon fill="white" stroke="black" points="419.5,-369.5 419.5,-399.5 522.5,-399.5 522.5,-369.5 419.5,-369.5"/>
<text text-anchor="start" x="427.5" y="-387.5" font-family="Helvetica,sans-Serif" font-size="10.00">include/ccf/crypto</text>
<text text-anchor="middle" x="471" y="-376.5" font-family="Helvetica,sans-Serif" font-size="10.00">/rsa_key_pair.h</text>
</a>
</g>
</g>
<!-- Node1&#45;&gt;Node2 -->
<g id="edge1" class="edge">
<title>Node1&#45;&gt;Node2</title>
<path fill="none" stroke="midnightblue" d="M769.48,-439.39C699.96,-426.84 588,-406.63 522.78,-394.85"/>
<polygon fill="midnightblue" stroke="midnightblue" points="768.96,-442.85 779.42,-441.19 770.2,-435.97 768.96,-442.85"/>
</g>
<!-- Node13 -->
<g id="node13" class="node">
<title>Node13</title>
<g id="a_node13"><a xlink:href="src_2crypto_2openssl_2rsa__key__pair_8h.html" target="_top" xlink:title=" ">
<polygon fill="white" stroke="black" points="859.5,-302.5 859.5,-332.5 964.5,-332.5 964.5,-302.5 859.5,-302.5"/>
<text text-anchor="start" x="867.5" y="-320.5" font-family="Helvetica,sans-Serif" font-size="10.00">src/crypto/openssl</text>
<text text-anchor="middle" x="912" y="-309.5" font-family="Helvetica,sans-Serif" font-size="10.00">/rsa_key_pair.h</text>
</a>
</g>
</g>
<!-- Node1&#45;&gt;Node13 -->
<g id="edge28" class="edge">
<title>Node1&#45;&gt;Node13</title>
<path fill="none" stroke="midnightblue" d="M862.9,-430.32C873.57,-422.11 884.62,-411.77 892,-400 905.23,-378.89 909.71,-349.62 911.23,-332.51"/>
<polygon fill="midnightblue" stroke="midnightblue" points="860.52,-427.72 854.49,-436.43 864.64,-433.38 860.52,-427.72"/>
</g>
<!-- Node22 -->
<g id="node22" class="node">
<title>Node22</title>
<g id="a_node22"><a xlink:href="src_2crypto_2openssl_2rsa__public__key_8h.html" target="_top" xlink:title=" ">
<polygon fill="white" stroke="black" points="778.5,-369.5 778.5,-399.5 883.5,-399.5 883.5,-369.5 778.5,-369.5"/>
<text text-anchor="start" x="786.5" y="-387.5" font-family="Helvetica,sans-Serif" font-size="10.00">src/crypto/openssl</text>
<text text-anchor="middle" x="831" y="-376.5" font-family="Helvetica,sans-Serif" font-size="10.00">/rsa_public_key.h</text>
</a>
</g>
</g>
<!-- Node1&#45;&gt;Node22 -->
<g id="edge29" class="edge">
<title>Node1&#45;&gt;Node22</title>
<path fill="none" stroke="midnightblue" d="M831,-426.11C831,-417.15 831,-407.32 831,-399.58"/>
<polygon fill="midnightblue" stroke="midnightblue" points="827.5,-426.4 831,-436.4 834.5,-426.4 827.5,-426.4"/>
</g>
<!-- Node3 -->
<g id="node3" class="node">
<title>Node3</title>
<g id="a_node3"><a xlink:href="key__wrap_8h.html" target="_top" xlink:title=" ">
<polygon fill="white" stroke="black" points="201.5,-302.5 201.5,-332.5 304.5,-332.5 304.5,-302.5 201.5,-302.5"/>
<text text-anchor="start" x="209.5" y="-320.5" font-family="Helvetica,sans-Serif" font-size="10.00">include/ccf/crypto</text>
<text text-anchor="middle" x="253" y="-309.5" font-family="Helvetica,sans-Serif" font-size="10.00">/key_wrap.h</text>
</a>
</g>
</g>
<!-- Node2&#45;&gt;Node3 -->
<g id="edge2" class="edge">
<title>Node2&#45;&gt;Node3</title>
<path fill="none" stroke="midnightblue" d="M414.25,-366.58C378.84,-356.02 333.8,-342.59 300.33,-332.61"/>
<polygon fill="midnightblue" stroke="midnightblue" points="413.38,-369.97 423.97,-369.48 415.38,-363.26 413.38,-369.97"/>
</g>
<!-- Node4 -->
<g id="node4" class="node">
<title>Node4</title>
<g id="a_node4"><a xlink:href="js__generic__base_8cpp.html" target="_top" xlink:title=" ">
<polygon fill="white" stroke="black" points="114,-235.5 114,-265.5 232,-265.5 232,-235.5 114,-235.5"/>
<text text-anchor="start" x="122" y="-253.5" font-family="Helvetica,sans-Serif" font-size="10.00">src/apps/js_generic</text>
<text text-anchor="middle" x="173" y="-242.5" font-family="Helvetica,sans-Serif" font-size="10.00">/js_generic_base.cpp</text>
</a>
</g>
</g>
<!-- Node2&#45;&gt;Node4 -->
<g id="edge13" class="edge">
<title>Node2&#45;&gt;Node4</title>
<path fill="none" stroke="midnightblue" d="M409.04,-380.07C336.53,-374.77 222.47,-361.98 192,-333 173.58,-315.48 171.46,-283.83 171.97,-265.55"/>
<polygon fill="midnightblue" stroke="midnightblue" points="409.2,-383.59 419.42,-380.8 409.69,-376.61 409.2,-383.59"/>
</g>
<!-- Node5 -->
<g id="node5" class="node">
<title>Node5</title>
<g id="a_node5"><a xlink:href="key__wrap_8cpp.html" target="_top" xlink:title=" ">
<polygon fill="white" stroke="black" points="250,-241 250,-260 384,-260 384,-241 250,-241"/>
<text text-anchor="middle" x="317" y="-248" font-family="Helvetica,sans-Serif" font-size="10.00">src/crypto/key_wrap.cpp</text>
</a>
</g>
</g>
<!-- Node2&#45;&gt;Node5 -->
<g id="edge14" class="edge">
<title>Node2&#45;&gt;Node5</title>
<path fill="none" stroke="midnightblue" d="M471.18,-359.1C470.05,-341.3 465.74,-317.64 452,-302 438.29,-286.4 385.6,-269.8 350.24,-260.05"/>
<polygon fill="midnightblue" stroke="midnightblue" points="467.69,-359.43 471.54,-369.31 474.69,-359.19 467.69,-359.43"/>
</g>
<!-- Node6 -->
<g id="node6" class="node">
<title>Node6</title>
<g id="a_node6"><a xlink:href="crypto_8cpp.html" target="_top" xlink:title=" ">
<polygon fill="white" stroke="black" points="0,-241 0,-260 96,-260 96,-241 0,-241"/>
<text text-anchor="middle" x="48" y="-248" font-family="Helvetica,sans-Serif" font-size="10.00">src/js/crypto.cpp</text>
</a>
</g>
</g>
<!-- Node2&#45;&gt;Node6 -->
<g id="edge22" class="edge">
<title>Node2&#45;&gt;Node6</title>
<path fill="none" stroke="midnightblue" d="M409.14,-380.38C347.47,-375.59 250.96,-363.49 173,-333 125.95,-314.6 78.05,-276.94 57.9,-260.04"/>
<polygon fill="midnightblue" stroke="midnightblue" points="409.26,-383.9 419.49,-381.14 409.77,-376.92 409.26,-383.9"/>
</g>
<!-- Node8 -->
<g id="node8" class="node">
<title>Node8</title>
<g id="a_node8"><a xlink:href="secret__broadcast_8h.html" target="_top" xlink:title=" ">
<polygon fill="white" stroke="black" points="402.5,-241 402.5,-260 555.5,-260 555.5,-241 402.5,-241"/>
<text text-anchor="middle" x="479" y="-248" font-family="Helvetica,sans-Serif" font-size="10.00">src/node/secret_broadcast.h</text>
</a>
</g>
</g>
<!-- Node2&#45;&gt;Node8 -->
<g id="edge23" class="edge">
<title>Node2&#45;&gt;Node8</title>
<path fill="none" stroke="midnightblue" d="M479.11,-359.38C481.51,-351.12 483.81,-341.75 485,-333 488.6,-306.57 483.67,-275.01 480.81,-260.1"/>
<polygon fill="midnightblue" stroke="midnightblue" points="475.71,-358.54 476.1,-369.13 482.4,-360.61 475.71,-358.54"/>
</g>
<!-- Node2&#45;&gt;Node13 -->
<g id="edge15" class="edge">
<title>Node2&#45;&gt;Node13</title>
<path fill="none" stroke="midnightblue" d="M532.9,-374.38C620.05,-361.53 777.41,-338.34 859.29,-326.27"/>
<polygon fill="midnightblue" stroke="midnightblue" points="532.27,-370.93 522.89,-375.85 533.29,-377.86 532.27,-370.93"/>
</g>
<!-- Node19 -->
<g id="node19" class="node">
<title>Node19</title>
<g id="a_node19"><a xlink:href="symmetric__key_8cpp.html" target="_top" xlink:title=" ">
<polygon fill="white" stroke="black" points="323,-302.5 323,-332.5 443,-332.5 443,-302.5 323,-302.5"/>
<text text-anchor="start" x="331" y="-320.5" font-family="Helvetica,sans-Serif" font-size="10.00">src/crypto/symmetric</text>
<text text-anchor="middle" x="383" y="-309.5" font-family="Helvetica,sans-Serif" font-size="10.00">_key.cpp</text>
</a>
</g>
</g>
<!-- Node2&#45;&gt;Node19 -->
<g id="edge21" class="edge">
<title>Node2&#45;&gt;Node19</title>
<path fill="none" stroke="midnightblue" d="M443.86,-363.45C430.32,-353.45 414.27,-341.6 402.06,-332.58"/>
<polygon fill="midnightblue" stroke="midnightblue" points="441.78,-366.27 451.91,-369.4 445.94,-360.64 441.78,-366.27"/>
</g>
<!-- Node20 -->
<g id="node20" class="node">
<title>Node20</title>
<g id="a_node20"><a xlink:href="share__manager_8h.html" target="_top" xlink:title=" ">
<polygon fill="white" stroke="black" points="573.5,-241 573.5,-260 718.5,-260 718.5,-241 573.5,-241"/>
<text text-anchor="middle" x="646" y="-248" font-family="Helvetica,sans-Serif" font-size="10.00">src/node/share_manager.h</text>
</a>
</g>
</g>
<!-- Node2&#45;&gt;Node20 -->
<g id="edge24" class="edge">
<title>Node2&#45;&gt;Node20</title>
<path fill="none" stroke="midnightblue" d="M497.99,-363.14C536.93,-333.77 607.18,-280.78 634.6,-260.1"/>
<polygon fill="midnightblue" stroke="midnightblue" points="495.6,-360.56 489.73,-369.37 499.82,-366.15 495.6,-360.56"/>
</g>
<!-- Node3&#45;&gt;Node4 -->
<g id="edge3" class="edge">
<title>Node3&#45;&gt;Node4</title>
<path fill="none" stroke="midnightblue" d="M227.63,-295.88C215.47,-286.01 201.22,-274.43 190.32,-265.58"/>
<polygon fill="midnightblue" stroke="midnightblue" points="225.67,-298.81 235.64,-302.4 230.09,-293.37 225.67,-298.81"/>
</g>
<!-- Node3&#45;&gt;Node5 -->
<g id="edge4" class="edge">
<title>Node3&#45;&gt;Node5</title>
<path fill="none" stroke="midnightblue" d="M274.17,-295C285.85,-283.13 299.72,-269.05 308.44,-260.19"/>
<polygon fill="midnightblue" stroke="midnightblue" points="271.41,-292.81 266.89,-302.4 276.4,-297.73 271.41,-292.81"/>
</g>
<!-- Node3&#45;&gt;Node6 -->
<g id="edge5" class="edge">
<title>Node3&#45;&gt;Node6</title>
<path fill="none" stroke="midnightblue" d="M199.16,-299.43C159.19,-286.75 106.35,-270 74.9,-260.03"/>
<polygon fill="midnightblue" stroke="midnightblue" points="198.18,-302.79 208.77,-302.48 200.3,-296.12 198.18,-302.79"/>
</g>
<!-- Node3&#45;&gt;Node8 -->
<g id="edge7" class="edge">
<title>Node3&#45;&gt;Node8</title>
<path fill="none" stroke="midnightblue" d="M311.51,-299.67C355.68,-286.97 414.45,-270.06 449.35,-260.03"/>
<polygon fill="midnightblue" stroke="midnightblue" points="310.4,-296.35 301.76,-302.48 312.34,-303.08 310.4,-296.35"/>
</g>
<!-- Node7 -->
<g id="node7" class="node">
<title>Node7</title>
<g id="a_node7"><a xlink:href="wrap_8cpp.html" target="_top" xlink:title=" ">
<polygon fill="white" stroke="black" points="3.5,-179.5 3.5,-198.5 92.5,-198.5 92.5,-179.5 3.5,-179.5"/>
<text text-anchor="middle" x="48" y="-186.5" font-family="Helvetica,sans-Serif" font-size="10.00">src/js/wrap.cpp</text>
</a>
</g>
</g>
<!-- Node6&#45;&gt;Node7 -->
<g id="edge6" class="edge">
<title>Node6&#45;&gt;Node7</title>
<path fill="none" stroke="midnightblue" d="M48,-230.82C48,-220 48,-206.9 48,-198.51"/>
<polygon fill="midnightblue" stroke="midnightblue" points="44.5,-230.98 48,-240.98 51.5,-230.98 44.5,-230.98"/>
</g>
<!-- Node9 -->
<g id="node9" class="node">
<title>Node9</title>
<g id="a_node9"><a xlink:href="node__state_8h.html" target="_top" xlink:title=" ">
<polygon fill="white" stroke="black" points="455,-179.5 455,-198.5 579,-198.5 579,-179.5 455,-179.5"/>
<text text-anchor="middle" x="517" y="-186.5" font-family="Helvetica,sans-Serif" font-size="10.00">src/node/node_state.h</text>
</a>
</g>
</g>
<!-- Node8&#45;&gt;Node9 -->
<g id="edge8" class="edge">
<title>Node8&#45;&gt;Node9</title>
<path fill="none" stroke="midnightblue" d="M489.85,-232.51C496.95,-221.39 505.93,-207.34 511.57,-198.51"/>
<polygon fill="midnightblue" stroke="midnightblue" points="486.88,-230.66 484.44,-240.98 492.78,-234.43 486.88,-230.66"/>
</g>
<!-- Node10 -->
<g id="node10" class="node">
<title>Node10</title>
<g id="a_node10"><a xlink:href="src_2enclave_2enclave_8h.html" target="_top" xlink:title=" ">
<polygon fill="white" stroke="black" points="497,-56.5 497,-75.5 619,-75.5 619,-56.5 497,-56.5"/>
<text text-anchor="middle" x="558" y="-63.5" font-family="Helvetica,sans-Serif" font-size="10.00">src/enclave/enclave.h</text>
</a>
</g>
</g>
<!-- Node9&#45;&gt;Node10 -->
<g id="edge9" class="edge">
<title>Node9&#45;&gt;Node10</title>
<path fill="none" stroke="midnightblue" d="M526.69,-170.37C530.89,-162.21 535.61,-152.29 539,-143 547.67,-119.24 553.77,-89.88 556.46,-75.61"/>
<polygon fill="midnightblue" stroke="midnightblue" points="523.56,-168.8 521.95,-179.28 529.74,-172.09 523.56,-168.8"/>
</g>
<!-- Node12 -->
<g id="node12" class="node">
<title>Node12</title>
<g id="a_node12"><a xlink:href="gov__effects_8h.html" target="_top" xlink:title=" ">
<polygon fill="white" stroke="black" points="386,-118 386,-137 530,-137 530,-118 386,-118"/>
<text text-anchor="middle" x="458" y="-125" font-family="Helvetica,sans-Serif" font-size="10.00">src/node/rpc/gov_effects.h</text>
</a>
</g>
</g>
<!-- Node9&#45;&gt;Node12 -->
<g id="edge11" class="edge">
<title>Node9&#45;&gt;Node12</title>
<path fill="none" stroke="midnightblue" d="M501.46,-172.32C490.25,-161.02 475.54,-146.19 466.44,-137.01"/>
<polygon fill="midnightblue" stroke="midnightblue" points="499.02,-174.84 508.55,-179.48 503.99,-169.91 499.02,-174.84"/>
</g>
<!-- Node11 -->
<g id="node11" class="node">
<title>Node11</title>
<g id="a_node11"><a xlink:href="enclave_2main_8cpp.html" target="_top" xlink:title=" ">
<polygon fill="white" stroke="black" points="498,-0.5 498,-19.5 618,-19.5 618,-0.5 498,-0.5"/>
<text text-anchor="middle" x="558" y="-7.5" font-family="Helvetica,sans-Serif" font-size="10.00">src/enclave/main.cpp</text>
</a>
</g>
</g>
<!-- Node10&#45;&gt;Node11 -->
<g id="edge10" class="edge">
<title>Node10&#45;&gt;Node11</title>
<path fill="none" stroke="midnightblue" d="M558,-45.8C558,-36.91 558,-26.78 558,-19.75"/>
<polygon fill="midnightblue" stroke="midnightblue" points="554.5,-46.08 558,-56.08 561.5,-46.08 554.5,-46.08"/>
</g>
<!-- Node12&#45;&gt;Node10 -->
<g id="edge12" class="edge">
<title>Node12&#45;&gt;Node10</title>
<path fill="none" stroke="midnightblue" d="M481.12,-112.74C500.44,-101.25 527.37,-85.22 543.7,-75.51"/>
<polygon fill="midnightblue" stroke="midnightblue" points="479.13,-109.85 472.33,-117.98 482.71,-115.87 479.13,-109.85"/>
</g>
<!-- Node14 -->
<g id="node14" class="node">
<title>Node14</title>
<g id="a_node14"><a xlink:href="cose__verifier_8cpp.html" target="_top" xlink:title=" ">
<polygon fill="white" stroke="black" points="736.5,-235.5 736.5,-265.5 841.5,-265.5 841.5,-235.5 736.5,-235.5"/>
<text text-anchor="start" x="744.5" y="-253.5" font-family="Helvetica,sans-Serif" font-size="10.00">src/crypto/openssl</text>
<text text-anchor="middle" x="789" y="-242.5" font-family="Helvetica,sans-Serif" font-size="10.00">/cose_verifier.cpp</text>
</a>
</g>
</g>
<!-- Node13&#45;&gt;Node14 -->
<g id="edge16" class="edge">
<title>Node13&#45;&gt;Node14</title>
<path fill="none" stroke="midnightblue" d="M876.45,-297.71C857.05,-287.46 833.44,-274.98 815.64,-265.58"/>
<polygon fill="midnightblue" stroke="midnightblue" points="874.83,-300.82 885.31,-302.4 878.1,-294.63 874.83,-300.82"/>
</g>
<!-- Node15 -->
<g id="node15" class="node">
<title>Node15</title>
<g id="a_node15"><a xlink:href="openssl_2rsa__key__pair_8cpp.html" target="_top" xlink:title=" ">
<polygon fill="white" stroke="black" points="859.5,-235.5 859.5,-265.5 964.5,-265.5 964.5,-235.5 859.5,-235.5"/>
<text text-anchor="start" x="867.5" y="-253.5" font-family="Helvetica,sans-Serif" font-size="10.00">src/crypto/openssl</text>
<text text-anchor="middle" x="912" y="-242.5" font-family="Helvetica,sans-Serif" font-size="10.00">/rsa_key_pair.cpp</text>
</a>
</g>
</g>
<!-- Node13&#45;&gt;Node15 -->
<g id="edge17" class="edge">
<title>Node13&#45;&gt;Node15</title>
<path fill="none" stroke="midnightblue" d="M912,-292.11C912,-283.15 912,-273.32 912,-265.58"/>
<polygon fill="midnightblue" stroke="midnightblue" points="908.5,-292.4 912,-302.4 915.5,-292.4 908.5,-292.4"/>
</g>
<!-- Node16 -->
<g id="node16" class="node">
<title>Node16</title>
<g id="a_node16"><a xlink:href="rsa__public__key_8cpp.html" target="_top" xlink:title=" ">
<polygon fill="white" stroke="black" points="983,-235.5 983,-265.5 1093,-265.5 1093,-235.5 983,-235.5"/>
<text text-anchor="start" x="991" y="-253.5" font-family="Helvetica,sans-Serif" font-size="10.00">src/crypto/openssl</text>
<text text-anchor="middle" x="1038" y="-242.5" font-family="Helvetica,sans-Serif" font-size="10.00">/rsa_public_key.cpp</text>
</a>
</g>
</g>
<!-- Node13&#45;&gt;Node16 -->
<g id="edge18" class="edge">
<title>Node13&#45;&gt;Node16</title>
<path fill="none" stroke="midnightblue" d="M948.42,-297.71C968.29,-287.46 992.48,-274.98 1010.71,-265.58"/>
<polygon fill="midnightblue" stroke="midnightblue" points="946.62,-294.7 939.34,-302.4 949.83,-300.92 946.62,-294.7"/>
</g>
<!-- Node17 -->
<g id="node17" class="node">
<title>Node17</title>
<g id="a_node17"><a xlink:href="openssl_2verifier_8cpp.html" target="_top" xlink:title=" ">
<polygon fill="white" stroke="black" points="1111.5,-235.5 1111.5,-265.5 1216.5,-265.5 1216.5,-235.5 1111.5,-235.5"/>
<text text-anchor="start" x="1119.5" y="-253.5" font-family="Helvetica,sans-Serif" font-size="10.00">src/crypto/openssl</text>
<text text-anchor="middle" x="1164" y="-242.5" font-family="Helvetica,sans-Serif" font-size="10.00">/verifier.cpp</text>
</a>
</g>
</g>
<!-- Node13&#45;&gt;Node17 -->
<g id="edge19" class="edge">
<title>Node13&#45;&gt;Node17</title>
<path fill="none" stroke="midnightblue" d="M974.37,-300.41C1016.39,-289.57 1071.23,-275.43 1111.11,-265.14"/>
<polygon fill="midnightblue" stroke="midnightblue" points="973.33,-297.07 964.52,-302.95 975.08,-303.84 973.33,-297.07"/>
</g>
<!-- Node18 -->
<g id="node18" class="node">
<title>Node18</title>
<g id="a_node18"><a xlink:href="rsa__key__pair_8cpp.html" target="_top" xlink:title=" ">
<polygon fill="white" stroke="black" points="1234.5,-235.5 1234.5,-265.5 1339.5,-265.5 1339.5,-235.5 1234.5,-235.5"/>
<text text-anchor="start" x="1242.5" y="-253.5" font-family="Helvetica,sans-Serif" font-size="10.00">src/crypto/rsa_key</text>
<text text-anchor="middle" x="1287" y="-242.5" font-family="Helvetica,sans-Serif" font-size="10.00">_pair.cpp</text>
</a>
</g>
</g>
<!-- Node13&#45;&gt;Node18 -->
<g id="edge20" class="edge">
<title>Node13&#45;&gt;Node18</title>
<path fill="none" stroke="midnightblue" d="M974.98,-307.77C1038.55,-298.63 1139.44,-283.22 1226,-266 1228.78,-265.45 1231.62,-264.86 1234.48,-264.24"/>
<polygon fill="midnightblue" stroke="midnightblue" points="974.12,-304.36 964.71,-309.24 975.11,-311.29 974.12,-304.36"/>
</g>
<!-- Node20&#45;&gt;Node9 -->
<g id="edge25" class="edge">
<title>Node20&#45;&gt;Node9</title>
<path fill="none" stroke="midnightblue" d="M618.19,-236.67C593.16,-225.13 557.08,-208.49 535.45,-198.51"/>
<polygon fill="midnightblue" stroke="midnightblue" points="616.97,-239.96 627.52,-240.98 619.9,-233.61 616.97,-239.96"/>
</g>
<!-- Node21 -->
<g id="node21" class="node">
<title>Node21</title>
<g id="a_node21"><a xlink:href="member__frontend_8h.html" target="_top" xlink:title=" ">
<polygon fill="white" stroke="black" points="586,-112.5 586,-142.5 706,-142.5 706,-112.5 586,-112.5"/>
<text text-anchor="start" x="594" y="-130.5" font-family="Helvetica,sans-Serif" font-size="10.00">src/node/rpc/member</text>
<text text-anchor="middle" x="646" y="-119.5" font-family="Helvetica,sans-Serif" font-size="10.00">_frontend.h</text>
</a>
</g>
</g>
<!-- Node20&#45;&gt;Node21 -->
<g id="edge26" class="edge">
<title>Node20&#45;&gt;Node21</title>
<path fill="none" stroke="midnightblue" d="M646,-230.68C646,-206.3 646,-164.32 646,-142.54"/>
<polygon fill="midnightblue" stroke="midnightblue" points="642.5,-230.8 646,-240.8 649.5,-230.8 642.5,-230.8"/>
</g>
<!-- Node21&#45;&gt;Node10 -->
<g id="edge27" class="edge">
<title>Node21&#45;&gt;Node10</title>
<path fill="none" stroke="midnightblue" d="M616.83,-106.78C601.23,-96.23 582.82,-83.78 570.8,-75.66"/>
<polygon fill="midnightblue" stroke="midnightblue" points="614.9,-109.7 625.15,-112.4 618.82,-103.9 614.9,-109.7"/>
</g>
<!-- Node22&#45;&gt;Node13 -->
<g id="edge30" class="edge">
<title>Node22&#45;&gt;Node13</title>
<path fill="none" stroke="midnightblue" d="M856.69,-362.88C869,-353.01 883.43,-341.43 894.46,-332.58"/>
<polygon fill="midnightblue" stroke="midnightblue" points="854.18,-360.41 848.58,-369.4 858.57,-365.87 854.18,-360.41"/>
</g>
</g>
</svg>
