<?xml version="1.0" encoding="UTF-8" standalone="no"?>
<!DOCTYPE svg PUBLIC "-//W3C//DTD SVG 1.1//EN"
 "http://www.w3.org/Graphics/SVG/1.1/DTD/svg11.dtd">
<!-- Generated by graphviz version 2.43.0 (0)
 -->
<!-- Title: include/ccf/crypto/verifier.h Pages: 1 -->
<!--zoomable 487 -->
<svg id="main" version="1.1" xmlns="http://www.w3.org/2000/svg" xmlns:xlink="http://www.w3.org/1999/xlink" xml:space="preserve" onload="init(evt)">
<style type="text/css"><![CDATA[
.edge:hover path { stroke: red; }
.edge:hover polygon { stroke: red; fill: red; }
]]></style>
<script type="text/javascript"><![CDATA[
var edges = document.getElementsByTagName('g');
if (edges && edges.length) {
  for (var i=0;i<edges.length;i++) {
    if (edges[i].id.substr(0,4)=='edge') {
      edges[i].setAttribute('class','edge');
    }
  }
}
]]></script>
        <defs>
                <circle id="rim" cx="0" cy="0" r="7"/>
                <circle id="rim2" cx="0" cy="0" r="3.5"/>
                <g id="zoomPlus">
                        <use xlink:href="#rim" fill="#404040">
                                <set attributeName="fill" to="#808080" begin="zoomplus.mouseover" end="zoomplus.mouseout"/>
                        </use>
                        <path d="M-4,0h8M0,-4v8" fill="none" stroke="white" stroke-width="1.5" pointer-events="none"/>
                </g>
                <g id="zoomMin">
                        <use xlink:href="#rim" fill="#404040">
                                <set attributeName="fill" to="#808080" begin="zoomminus.mouseover" end="zoomminus.mouseout"/>
                        </use>
                        <path d="M-4,0h8" fill="none" stroke="white" stroke-width="1.5" pointer-events="none"/>
                </g>
                <g id="dirArrow">
                        <path fill="none" stroke="white" stroke-width="1.5" d="M0,-3.0v7 M-2.5,-0.5L0,-3.0L2.5,-0.5"/>
                </g>
               <g id="resetDef">
                       <use xlink:href="#rim2" fill="#404040">
                               <set attributeName="fill" to="#808080" begin="reset.mouseover" end="reset.mouseout"/>
                       </use>
               </g>
        </defs>

<script type="text/javascript">
var viewWidth = 1217;
var viewHeight = 487;
var sectionId = 'dynsection-0';
</script>
<script xlink:href="svgpan.js"/>
<svg id="graph" class="graph">
<g id="viewport">
<title>include/ccf/crypto/verifier.h</title>
<polygon fill="white" stroke="transparent" points="-4,4 -4,-483 1213,-483 1213,4 -4,4"/>
<!-- Node1 -->
<g id="node1" class="node">
<title>Node1</title>
<g id="a_node1"><a xlink:title=" ">
<polygon fill="#bfbfbf" stroke="black" points="653.5,-448.5 653.5,-478.5 756.5,-478.5 756.5,-448.5 653.5,-448.5"/>
<text text-anchor="start" x="661.5" y="-466.5" font-family="Helvetica,sans-Serif" font-size="10.00">include/ccf/crypto</text>
<text text-anchor="middle" x="705" y="-455.5" font-family="Helvetica,sans-Serif" font-size="10.00">/verifier.h</text>
</a>
</g>
</g>
<!-- Node2 -->
<g id="node2" class="node">
<title>Node2</title>
<g id="a_node2"><a xlink:href="include_2ccf_2crypto_2key__pair_8h.html" target="_top" xlink:title=" ">
<polygon fill="white" stroke="black" points="537.5,-392.5 537.5,-411.5 654.5,-411.5 654.5,-392.5 537.5,-392.5"/>
<text text-anchor="middle" x="596" y="-399.5" font-family="Helvetica,sans-Serif" font-size="10.00">ccf/crypto/key_pair.h</text>
</a>
</g>
</g>
<!-- Node1&#45;&gt;Node2 -->
<g id="edge1" class="edge">
<title>Node1&#45;&gt;Node2</title>
<path fill="none" stroke="midnightblue" d="M679.17,-448.4C661.53,-438.77 638.3,-426.09 620.87,-416.58"/>
<polygon fill="midnightblue" stroke="midnightblue" points="622.31,-413.38 611.86,-411.66 618.96,-419.52 622.31,-413.38"/>
</g>
<!-- Node21 -->
<g id="node21" class="node">
<title>Node21</title>
<g id="a_node21"><a xlink:href="pem_8h.html" target="_top" xlink:title=" ">
<polygon fill="white" stroke="black" points="660,-280.5 660,-299.5 758,-299.5 758,-280.5 660,-280.5"/>
<text text-anchor="middle" x="709" y="-287.5" font-family="Helvetica,sans-Serif" font-size="10.00">ccf/crypto/pem.h</text>
</a>
</g>
</g>
<!-- Node1&#45;&gt;Node21 -->
<g id="edge55" class="edge">
<title>Node1&#45;&gt;Node21</title>
<path fill="none" stroke="midnightblue" d="M705.33,-448.47C706.04,-417.7 707.76,-344.33 708.56,-309.7"/>
<polygon fill="midnightblue" stroke="midnightblue" points="712.07,-309.64 708.8,-299.56 705.07,-309.48 712.07,-309.64"/>
</g>
<!-- Node26 -->
<g id="node26" class="node">
<title>Node26</title>
<g id="a_node26"><a xlink:href="include_2ccf_2crypto_2public__key_8h.html" target="_top" xlink:title=" ">
<polygon fill="white" stroke="black" points="532.5,-336.5 532.5,-355.5 659.5,-355.5 659.5,-336.5 532.5,-336.5"/>
<text text-anchor="middle" x="596" y="-343.5" font-family="Helvetica,sans-Serif" font-size="10.00">ccf/crypto/public_key.h</text>
</a>
</g>
</g>
<!-- Node1&#45;&gt;Node26 -->
<g id="edge56" class="edge">
<title>Node1&#45;&gt;Node26</title>
<path fill="none" stroke="midnightblue" d="M699.1,-448.27C692.28,-433.07 679.94,-408.89 664,-392 652.08,-379.37 635.97,-368.51 622.42,-360.62"/>
<polygon fill="midnightblue" stroke="midnightblue" points="623.97,-357.48 613.53,-355.65 620.55,-363.59 623.97,-357.48"/>
</g>
<!-- Node31 -->
<g id="node31" class="node">
<title>Node31</title>
<g id="a_node31"><a xlink:title=" ">
<polygon fill="white" stroke="#bfbfbf" points="754,-392.5 754,-411.5 804,-411.5 804,-392.5 754,-392.5"/>
<text text-anchor="middle" x="779" y="-399.5" font-family="Helvetica,sans-Serif" font-size="10.00">chrono</text>
</a>
</g>
</g>
<!-- Node1&#45;&gt;Node31 -->
<g id="edge57" class="edge">
<title>Node1&#45;&gt;Node31</title>
<path fill="none" stroke="midnightblue" d="M722.54,-448.4C733.84,-439.31 748.54,-427.49 760.11,-418.19"/>
<polygon fill="midnightblue" stroke="midnightblue" points="762.63,-420.65 768.23,-411.66 758.25,-415.2 762.63,-420.65"/>
</g>
<!-- Node3 -->
<g id="node3" class="node">
<title>Node3</title>
<g id="a_node3"><a xlink:href="curve_8h.html" target="_top" xlink:title=" ">
<polygon fill="white" stroke="black" points="187,-280.5 187,-299.5 291,-299.5 291,-280.5 187,-280.5"/>
<text text-anchor="middle" x="239" y="-287.5" font-family="Helvetica,sans-Serif" font-size="10.00">ccf/crypto/curve.h</text>
</a>
</g>
</g>
<!-- Node2&#45;&gt;Node3 -->
<g id="edge2" class="edge">
<title>Node2&#45;&gt;Node3</title>
<path fill="none" stroke="midnightblue" d="M562.86,-392.5C529.62,-383.84 477.04,-369.75 432,-356 375.66,-338.8 310.91,-316.46 272.55,-302.95"/>
<polygon fill="midnightblue" stroke="midnightblue" points="273.52,-299.58 262.93,-299.55 271.19,-306.18 273.52,-299.58"/>
</g>
<!-- Node7 -->
<g id="node7" class="node">
<title>Node7</title>
<g id="a_node7"><a xlink:title=" ">
<polygon fill="white" stroke="#bfbfbf" points="541,-0.5 541,-19.5 585,-19.5 585,-0.5 541,-0.5"/>
<text text-anchor="middle" x="563" y="-7.5" font-family="Helvetica,sans-Serif" font-size="10.00">string</text>
</a>
</g>
</g>
<!-- Node2&#45;&gt;Node7 -->
<g id="edge53" class="edge">
<title>Node2&#45;&gt;Node7</title>
<path fill="none" stroke="midnightblue" d="M537.5,-396.32C387.33,-383.53 0,-345.29 0,-291 0,-291 0,-291 0,-121 0,-12.11 410.79,-8.99 530.58,-10.39"/>
<polygon fill="midnightblue" stroke="midnightblue" points="530.88,-13.89 540.93,-10.53 530.98,-6.89 530.88,-13.89"/>
</g>
<!-- Node8 -->
<g id="node8" class="node">
<title>Node8</title>
<g id="a_node8"><a xlink:title=" ">
<polygon fill="white" stroke="#bfbfbf" points="926.5,-0.5 926.5,-19.5 973.5,-19.5 973.5,-0.5 926.5,-0.5"/>
<text text-anchor="middle" x="950" y="-7.5" font-family="Helvetica,sans-Serif" font-size="10.00">vector</text>
</a>
</g>
</g>
<!-- Node2&#45;&gt;Node8 -->
<g id="edge54" class="edge">
<title>Node2&#45;&gt;Node8</title>
<path fill="none" stroke="midnightblue" d="M654.56,-395.41C757.02,-384.01 958,-353.65 958,-291 958,-291 958,-291 958,-121 958,-88.86 954.56,-51.58 952.19,-29.72"/>
<polygon fill="midnightblue" stroke="midnightblue" points="955.64,-29.09 951.05,-19.54 948.69,-29.87 955.64,-29.09"/>
</g>
<!-- Node2&#45;&gt;Node21 -->
<g id="edge27" class="edge">
<title>Node2&#45;&gt;Node21</title>
<path fill="none" stroke="midnightblue" d="M615.06,-392.37C630.87,-384.53 653.21,-371.8 669,-356 682.72,-342.27 693.83,-322.98 700.83,-308.98"/>
<polygon fill="midnightblue" stroke="midnightblue" points="704.03,-310.41 705.18,-299.88 697.71,-307.39 704.03,-310.41"/>
</g>
<!-- Node2&#45;&gt;Node26 -->
<g id="edge35" class="edge">
<title>Node2&#45;&gt;Node26</title>
<path fill="none" stroke="midnightblue" d="M596,-392.08C596,-385.01 596,-374.86 596,-365.99"/>
<polygon fill="midnightblue" stroke="midnightblue" points="599.5,-365.75 596,-355.75 592.5,-365.75 599.5,-365.75"/>
</g>
<!-- Node28 -->
<g id="node28" class="node">
<title>Node28</title>
<g id="a_node28"><a xlink:title=" ">
<polygon fill="white" stroke="#bfbfbf" points="1159,-224.5 1159,-243.5 1209,-243.5 1209,-224.5 1159,-224.5"/>
<text text-anchor="middle" x="1184" y="-231.5" font-family="Helvetica,sans-Serif" font-size="10.00">cstdint</text>
</a>
</g>
</g>
<!-- Node2&#45;&gt;Node28 -->
<g id="edge51" class="edge">
<title>Node2&#45;&gt;Node28</title>
<path fill="none" stroke="midnightblue" d="M654.51,-395.43C796.98,-381.25 1152.65,-341.95 1185,-300 1195.1,-286.9 1193.31,-267.48 1189.93,-253.28"/>
<polygon fill="midnightblue" stroke="midnightblue" points="1193.29,-252.3 1187.2,-243.63 1186.55,-254.2 1193.29,-252.3"/>
</g>
<!-- Node29 -->
<g id="node29" class="node">
<title>Node29</title>
<g id="a_node29"><a xlink:href="san_8h.html" target="_top" xlink:title=" ">
<polygon fill="white" stroke="black" points="474,-224.5 474,-243.5 568,-243.5 568,-224.5 474,-224.5"/>
<text text-anchor="middle" x="521" y="-231.5" font-family="Helvetica,sans-Serif" font-size="10.00">ccf/crypto/san.h</text>
</a>
</g>
</g>
<!-- Node2&#45;&gt;Node29 -->
<g id="edge50" class="edge">
<title>Node2&#45;&gt;Node29</title>
<path fill="none" stroke="midnightblue" d="M572.34,-392.41C539.31,-378.83 481.58,-348.81 465,-300 462.14,-291.58 461.16,-288.02 465,-280 471.25,-266.95 483.34,-256.49 494.68,-248.95"/>
<polygon fill="midnightblue" stroke="midnightblue" points="496.81,-251.75 503.5,-243.54 493.15,-245.79 496.81,-251.75"/>
</g>
<!-- Node30 -->
<g id="node30" class="node">
<title>Node30</title>
<g id="a_node30"><a xlink:title=" ">
<polygon fill="white" stroke="#bfbfbf" points="474,-280.5 474,-299.5 530,-299.5 530,-280.5 474,-280.5"/>
<text text-anchor="middle" x="502" y="-287.5" font-family="Helvetica,sans-Serif" font-size="10.00">optional</text>
</a>
</g>
</g>
<!-- Node2&#45;&gt;Node30 -->
<g id="edge52" class="edge">
<title>Node2&#45;&gt;Node30</title>
<path fill="none" stroke="midnightblue" d="M574.61,-392.41C558.6,-384.97 537.26,-372.76 524,-356 513.39,-342.58 507.76,-323.76 504.86,-309.83"/>
<polygon fill="midnightblue" stroke="midnightblue" points="508.29,-309.12 503.08,-299.89 501.4,-310.35 508.29,-309.12"/>
</g>
<!-- Node4 -->
<g id="node4" class="node">
<title>Node4</title>
<g id="a_node4"><a xlink:href="md__type_8h.html" target="_top" xlink:title=" ">
<polygon fill="white" stroke="black" points="298.5,-224.5 298.5,-243.5 417.5,-243.5 417.5,-224.5 298.5,-224.5"/>
<text text-anchor="middle" x="358" y="-231.5" font-family="Helvetica,sans-Serif" font-size="10.00">ccf/crypto/md_type.h</text>
</a>
</g>
</g>
<!-- Node3&#45;&gt;Node4 -->
<g id="edge3" class="edge">
<title>Node3&#45;&gt;Node4</title>
<path fill="none" stroke="midnightblue" d="M257.86,-280.44C277.27,-271.64 307.73,-257.81 329.96,-247.72"/>
<polygon fill="midnightblue" stroke="midnightblue" points="331.57,-250.84 339.23,-243.52 328.68,-244.46 331.57,-250.84"/>
</g>
<!-- Node5 -->
<g id="node5" class="node">
<title>Node5</title>
<g id="a_node5"><a xlink:href="json_8h.html" target="_top" xlink:title=" ">
<polygon fill="white" stroke="black" points="285.5,-168.5 285.5,-187.5 362.5,-187.5 362.5,-168.5 285.5,-168.5"/>
<text text-anchor="middle" x="324" y="-175.5" font-family="Helvetica,sans-Serif" font-size="10.00">ccf/ds/json.h</text>
</a>
</g>
</g>
<!-- Node3&#45;&gt;Node5 -->
<g id="edge23" class="edge">
<title>Node3&#45;&gt;Node5</title>
<path fill="none" stroke="midnightblue" d="M245.67,-280.37C259.76,-262.14 292.76,-219.43 311.11,-195.68"/>
<polygon fill="midnightblue" stroke="midnightblue" points="314.02,-197.64 317.36,-187.59 308.48,-193.36 314.02,-197.64"/>
</g>
<!-- Node3&#45;&gt;Node7 -->
<g id="edge26" class="edge">
<title>Node3&#45;&gt;Node7</title>
<path fill="none" stroke="midnightblue" d="M186.98,-283.13C127.42,-273.17 38,-246.92 38,-179 38,-179 38,-179 38,-121 38,-19.85 416.07,-11.16 530.54,-10.84"/>
<polygon fill="midnightblue" stroke="midnightblue" points="530.78,-14.34 540.78,-10.84 530.77,-7.34 530.78,-14.34"/>
</g>
<!-- Node16 -->
<g id="node16" class="node">
<title>Node16</title>
<g id="a_node16"><a xlink:title=" ">
<polygon fill="white" stroke="#bfbfbf" points="228.5,-56.5 228.5,-75.5 307.5,-75.5 307.5,-56.5 228.5,-56.5"/>
<text text-anchor="middle" x="268" y="-63.5" font-family="Helvetica,sans-Serif" font-size="10.00">fmt/format.h</text>
</a>
</g>
</g>
<!-- Node3&#45;&gt;Node16 -->
<g id="edge24" class="edge">
<title>Node3&#45;&gt;Node16</title>
<path fill="none" stroke="midnightblue" d="M215.83,-280.45C190.82,-269.72 156.05,-249.59 168,-224 178.55,-201.42 195.78,-207.74 211,-188 236.08,-155.49 253.71,-110.16 262.21,-85.23"/>
<polygon fill="midnightblue" stroke="midnightblue" points="265.58,-86.2 265.38,-75.61 258.93,-84.01 265.58,-86.2"/>
</g>
<!-- Node19 -->
<g id="node19" class="node">
<title>Node19</title>
<g id="a_node19"><a xlink:href="enum__formatter_8h.html" target="_top" xlink:title=" ">
<polygon fill="white" stroke="black" points="66,-168.5 66,-187.5 202,-187.5 202,-168.5 66,-168.5"/>
<text text-anchor="middle" x="134" y="-175.5" font-family="Helvetica,sans-Serif" font-size="10.00">ccf/ds/enum_formatter.h</text>
</a>
</g>
</g>
<!-- Node3&#45;&gt;Node19 -->
<g id="edge21" class="edge">
<title>Node3&#45;&gt;Node19</title>
<path fill="none" stroke="midnightblue" d="M190.23,-280.5C169.21,-274.15 146.61,-263.12 134,-244 125.08,-230.47 126.17,-211.67 128.84,-197.76"/>
<polygon fill="midnightblue" stroke="midnightblue" points="132.29,-198.39 131.17,-187.86 125.47,-196.79 132.29,-198.39"/>
</g>
<!-- Node20 -->
<g id="node20" class="node">
<title>Node20</title>
<g id="a_node20"><a xlink:title=" ">
<polygon fill="white" stroke="#bfbfbf" points="176.5,-224.5 176.5,-243.5 241.5,-243.5 241.5,-224.5 176.5,-224.5"/>
<text text-anchor="middle" x="209" y="-231.5" font-family="Helvetica,sans-Serif" font-size="10.00">stdexcept</text>
</a>
</g>
</g>
<!-- Node3&#45;&gt;Node20 -->
<g id="edge25" class="edge">
<title>Node3&#45;&gt;Node20</title>
<path fill="none" stroke="midnightblue" d="M234.05,-280.08C229.9,-272.61 223.85,-261.72 218.73,-252.52"/>
<polygon fill="midnightblue" stroke="midnightblue" points="221.78,-250.79 213.86,-243.75 215.66,-254.19 221.78,-250.79"/>
</g>
<!-- Node4&#45;&gt;Node5 -->
<g id="edge4" class="edge">
<title>Node4&#45;&gt;Node5</title>
<path fill="none" stroke="midnightblue" d="M352.39,-224.08C347.63,-216.53 340.68,-205.49 334.85,-196.23"/>
<polygon fill="midnightblue" stroke="midnightblue" points="337.8,-194.35 329.51,-187.75 331.88,-198.08 337.8,-194.35"/>
</g>
<!-- Node6 -->
<g id="node6" class="node">
<title>Node6</title>
<g id="a_node6"><a xlink:href="include_2ccf_2crypto_2base64_8h.html" target="_top" xlink:title=" ">
<polygon fill="white" stroke="black" points="624,-56.5 624,-75.5 736,-75.5 736,-56.5 624,-56.5"/>
<text text-anchor="middle" x="680" y="-63.5" font-family="Helvetica,sans-Serif" font-size="10.00">ccf/crypto/base64.h</text>
</a>
</g>
</g>
<!-- Node5&#45;&gt;Node6 -->
<g id="edge5" class="edge">
<title>Node5&#45;&gt;Node6</title>
<path fill="none" stroke="midnightblue" d="M362.75,-171.59C406.34,-164.89 478.89,-151.86 539,-132 581.36,-118 627.87,-94.94 655.47,-80.38"/>
<polygon fill="midnightblue" stroke="midnightblue" points="657.23,-83.41 664.41,-75.62 653.93,-77.23 657.23,-83.41"/>
</g>
<!-- Node9 -->
<g id="node9" class="node">
<title>Node9</title>
<g id="a_node9"><a xlink:href="include_2ccf_2ds_2json__schema_8h.html" target="_top" xlink:title=" ">
<polygon fill="white" stroke="black" points="408.5,-112.5 408.5,-131.5 529.5,-131.5 529.5,-112.5 408.5,-112.5"/>
<text text-anchor="middle" x="469" y="-119.5" font-family="Helvetica,sans-Serif" font-size="10.00">ccf/ds/json_schema.h</text>
</a>
</g>
</g>
<!-- Node5&#45;&gt;Node9 -->
<g id="edge8" class="edge">
<title>Node5&#45;&gt;Node9</title>
<path fill="none" stroke="midnightblue" d="M346.98,-168.44C371.16,-159.44 409.42,-145.19 436.65,-135.05"/>
<polygon fill="midnightblue" stroke="midnightblue" points="437.98,-138.29 446.13,-131.52 435.54,-131.73 437.98,-138.29"/>
</g>
<!-- Node5&#45;&gt;Node16 -->
<g id="edge19" class="edge">
<title>Node5&#45;&gt;Node16</title>
<path fill="none" stroke="midnightblue" d="M315.17,-168.48C306.81,-159.96 294.47,-146.13 287,-132 279.27,-117.38 274.3,-99.21 271.39,-85.8"/>
<polygon fill="midnightblue" stroke="midnightblue" points="274.79,-84.97 269.41,-75.84 267.93,-86.33 274.79,-84.97"/>
</g>
<!-- Node18 -->
<g id="node18" class="node">
<title>Node18</title>
<g id="a_node18"><a xlink:title=" ">
<polygon fill="white" stroke="#bfbfbf" points="296,-112.5 296,-131.5 352,-131.5 352,-112.5 296,-112.5"/>
<text text-anchor="middle" x="324" y="-119.5" font-family="Helvetica,sans-Serif" font-size="10.00">sstream</text>
</a>
</g>
</g>
<!-- Node5&#45;&gt;Node18 -->
<g id="edge20" class="edge">
<title>Node5&#45;&gt;Node18</title>
<path fill="none" stroke="midnightblue" d="M324,-168.08C324,-161.01 324,-150.86 324,-141.99"/>
<polygon fill="midnightblue" stroke="midnightblue" points="327.5,-141.75 324,-131.75 320.5,-141.75 327.5,-141.75"/>
</g>
<!-- Node6&#45;&gt;Node7 -->
<g id="edge6" class="edge">
<title>Node6&#45;&gt;Node7</title>
<path fill="none" stroke="midnightblue" d="M661.46,-56.44C642.38,-47.64 612.43,-33.81 590.56,-23.72"/>
<polygon fill="midnightblue" stroke="midnightblue" points="592,-20.53 581.45,-19.52 589.07,-26.88 592,-20.53"/>
</g>
<!-- Node6&#45;&gt;Node8 -->
<g id="edge7" class="edge">
<title>Node6&#45;&gt;Node8</title>
<path fill="none" stroke="midnightblue" d="M722.78,-56.44C776.39,-45.72 867.17,-27.57 916.19,-17.76"/>
<polygon fill="midnightblue" stroke="midnightblue" points="917.15,-21.14 926.27,-15.75 915.78,-14.27 917.15,-21.14"/>
</g>
<!-- Node10 -->
<g id="node10" class="node">
<title>Node10</title>
<g id="a_node10"><a xlink:href="nonstd_8h.html" target="_top" xlink:title=" ">
<polygon fill="white" stroke="black" points="754,-56.5 754,-75.5 844,-75.5 844,-56.5 754,-56.5"/>
<text text-anchor="middle" x="799" y="-63.5" font-family="Helvetica,sans-Serif" font-size="10.00">ccf/ds/nonstd.h</text>
</a>
</g>
</g>
<!-- Node9&#45;&gt;Node10 -->
<g id="edge9" class="edge">
<title>Node9&#45;&gt;Node10</title>
<path fill="none" stroke="midnightblue" d="M521.66,-112.47C575.09,-103.8 660.47,-89.92 744.01,-76.16"/>
<polygon fill="midnightblue" stroke="midnightblue" points="744.62,-79.61 753.92,-74.53 743.48,-72.7 744.62,-79.61"/>
</g>
<!-- Node9&#45;&gt;Node16 -->
<g id="edge17" class="edge">
<title>Node9&#45;&gt;Node16</title>
<path fill="none" stroke="midnightblue" d="M437.15,-112.44C402.6,-103.16 347.32,-88.31 309.42,-78.13"/>
<polygon fill="midnightblue" stroke="midnightblue" points="310.27,-74.73 299.7,-75.52 308.45,-81.49 310.27,-74.73"/>
</g>
<!-- Node17 -->
<g id="node17" class="node">
<title>Node17</title>
<g id="a_node17"><a xlink:title=" ">
<polygon fill="white" stroke="#bfbfbf" points="414,-56.5 414,-75.5 524,-75.5 524,-56.5 414,-56.5"/>
<text text-anchor="middle" x="469" y="-63.5" font-family="Helvetica,sans-Serif" font-size="10.00">nlohmann/json.hpp</text>
</a>
</g>
</g>
<!-- Node9&#45;&gt;Node17 -->
<g id="edge18" class="edge">
<title>Node9&#45;&gt;Node17</title>
<path fill="none" stroke="midnightblue" d="M469,-112.08C469,-105.01 469,-94.86 469,-85.99"/>
<polygon fill="midnightblue" stroke="midnightblue" points="472.5,-85.75 469,-75.75 465.5,-85.75 472.5,-85.75"/>
</g>
<!-- Node10&#45;&gt;Node7 -->
<g id="edge13" class="edge">
<title>Node10&#45;&gt;Node7</title>
<path fill="none" stroke="midnightblue" d="M761.61,-56.44C715.74,-45.95 638.75,-28.33 595.33,-18.4"/>
<polygon fill="midnightblue" stroke="midnightblue" points="595.84,-14.92 585.31,-16.1 594.27,-21.75 595.84,-14.92"/>
</g>
<!-- Node10&#45;&gt;Node8 -->
<g id="edge16" class="edge">
<title>Node10&#45;&gt;Node8</title>
<path fill="none" stroke="midnightblue" d="M822.93,-56.44C848.22,-47.4 888.3,-33.06 916.68,-22.92"/>
<polygon fill="midnightblue" stroke="midnightblue" points="917.95,-26.18 926.19,-19.52 915.59,-19.59 917.95,-26.18"/>
</g>
<!-- Node11 -->
<g id="node11" class="node">
<title>Node11</title>
<g id="a_node11"><a xlink:title=" ">
<polygon fill="white" stroke="#bfbfbf" points="703,-0.5 703,-19.5 767,-19.5 767,-0.5 703,-0.5"/>
<text text-anchor="middle" x="735" y="-7.5" font-family="Helvetica,sans-Serif" font-size="10.00">algorithm</text>
</a>
</g>
</g>
<!-- Node10&#45;&gt;Node11 -->
<g id="edge10" class="edge">
<title>Node10&#45;&gt;Node11</title>
<path fill="none" stroke="midnightblue" d="M788.72,-56.32C779.16,-48.26 764.72,-36.08 753.22,-26.37"/>
<polygon fill="midnightblue" stroke="midnightblue" points="755.37,-23.61 745.47,-19.83 750.86,-28.96 755.37,-23.61"/>
</g>
<!-- Node12 -->
<g id="node12" class="node">
<title>Node12</title>
<g id="a_node12"><a xlink:title=" ">
<polygon fill="white" stroke="#bfbfbf" points="785,-0.5 785,-19.5 827,-19.5 827,-0.5 785,-0.5"/>
<text text-anchor="middle" x="806" y="-7.5" font-family="Helvetica,sans-Serif" font-size="10.00">array</text>
</a>
</g>
</g>
<!-- Node10&#45;&gt;Node12 -->
<g id="edge11" class="edge">
<title>Node10&#45;&gt;Node12</title>
<path fill="none" stroke="midnightblue" d="M800.16,-56.08C801.08,-48.93 802.42,-38.64 803.58,-29.69"/>
<polygon fill="midnightblue" stroke="midnightblue" points="807.05,-30.12 804.87,-19.75 800.11,-29.22 807.05,-30.12"/>
</g>
<!-- Node13 -->
<g id="node13" class="node">
<title>Node13</title>
<g id="a_node13"><a xlink:title=" ">
<polygon fill="white" stroke="#bfbfbf" points="845.5,-0.5 845.5,-19.5 894.5,-19.5 894.5,-0.5 845.5,-0.5"/>
<text text-anchor="middle" x="870" y="-7.5" font-family="Helvetica,sans-Serif" font-size="10.00">cctype</text>
</a>
</g>
</g>
<!-- Node10&#45;&gt;Node13 -->
<g id="edge12" class="edge">
<title>Node10&#45;&gt;Node13</title>
<path fill="none" stroke="midnightblue" d="M810.41,-56.32C821.11,-48.18 837.34,-35.84 850.16,-26.09"/>
<polygon fill="midnightblue" stroke="midnightblue" points="852.54,-28.67 858.39,-19.83 848.31,-23.1 852.54,-28.67"/>
</g>
<!-- Node14 -->
<g id="node14" class="node">
<title>Node14</title>
<g id="a_node14"><a xlink:title=" ">
<polygon fill="white" stroke="#bfbfbf" points="1016.5,-0.5 1016.5,-19.5 1089.5,-19.5 1089.5,-0.5 1016.5,-0.5"/>
<text text-anchor="middle" x="1053" y="-7.5" font-family="Helvetica,sans-Serif" font-size="10.00">string_view</text>
</a>
</g>
</g>
<!-- Node10&#45;&gt;Node14 -->
<g id="edge14" class="edge">
<title>Node10&#45;&gt;Node14</title>
<path fill="none" stroke="midnightblue" d="M839.25,-56.44C884.69,-46.78 958.53,-31.08 1006.43,-20.9"/>
<polygon fill="midnightblue" stroke="midnightblue" points="1007.19,-24.32 1016.24,-18.82 1005.73,-17.47 1007.19,-24.32"/>
</g>
<!-- Node15 -->
<g id="node15" class="node">
<title>Node15</title>
<g id="a_node15"><a xlink:title=" ">
<polygon fill="white" stroke="#bfbfbf" points="615.5,-0.5 615.5,-19.5 684.5,-19.5 684.5,-0.5 615.5,-0.5"/>
<text text-anchor="middle" x="650" y="-7.5" font-family="Helvetica,sans-Serif" font-size="10.00">type_traits</text>
</a>
</g>
</g>
<!-- Node10&#45;&gt;Node15 -->
<g id="edge15" class="edge">
<title>Node10&#45;&gt;Node15</title>
<path fill="none" stroke="midnightblue" d="M775.39,-56.44C750.54,-47.44 711.23,-33.19 683.25,-23.05"/>
<polygon fill="midnightblue" stroke="midnightblue" points="684.09,-19.63 673.5,-19.52 681.71,-26.21 684.09,-19.63"/>
</g>
<!-- Node19&#45;&gt;Node16 -->
<g id="edge22" class="edge">
<title>Node19&#45;&gt;Node16</title>
<path fill="none" stroke="midnightblue" d="M144.51,-168.37C167.22,-149.73 221.06,-105.53 249.56,-82.13"/>
<polygon fill="midnightblue" stroke="midnightblue" points="252.03,-84.64 257.53,-75.59 247.58,-79.23 252.03,-84.64"/>
</g>
<!-- Node21&#45;&gt;Node5 -->
<g id="edge28" class="edge">
<title>Node21&#45;&gt;Node5</title>
<path fill="none" stroke="midnightblue" d="M659.74,-284.33C609.65,-278.57 530.33,-266.63 465,-244 446.97,-237.75 444.2,-232.27 427,-224 402.71,-212.32 374.64,-200.14 353.95,-191.41"/>
<polygon fill="midnightblue" stroke="midnightblue" points="355.29,-188.17 344.72,-187.53 352.58,-194.63 355.29,-188.17"/>
</g>
<!-- Node21&#45;&gt;Node8 -->
<g id="edge34" class="edge">
<title>Node21&#45;&gt;Node8</title>
<path fill="none" stroke="midnightblue" d="M707.15,-280.08C704.91,-267.07 702.4,-242.41 711,-224 735.34,-171.87 876.61,-64.76 929.78,-25.68"/>
<polygon fill="midnightblue" stroke="midnightblue" points="932.08,-28.34 938.08,-19.61 927.94,-22.69 932.08,-28.34"/>
</g>
<!-- Node21&#45;&gt;Node14 -->
<g id="edge33" class="edge">
<title>Node21&#45;&gt;Node14</title>
<path fill="none" stroke="midnightblue" d="M758.33,-284.46C857.58,-273.96 1072,-243.78 1072,-179 1072,-179 1072,-179 1072,-121 1072,-88.49 1063.84,-51.35 1058.22,-29.61"/>
<polygon fill="midnightblue" stroke="midnightblue" points="1061.54,-28.5 1055.56,-19.75 1054.78,-30.32 1061.54,-28.5"/>
</g>
<!-- Node22 -->
<g id="node22" class="node">
<title>Node22</title>
<g id="a_node22"><a xlink:title=" ">
<polygon fill="white" stroke="#bfbfbf" points="720,-224.5 720,-243.5 770,-243.5 770,-224.5 720,-224.5"/>
<text text-anchor="middle" x="745" y="-231.5" font-family="Helvetica,sans-Serif" font-size="10.00">cstring</text>
</a>
</g>
</g>
<!-- Node21&#45;&gt;Node22 -->
<g id="edge29" class="edge">
<title>Node21&#45;&gt;Node22</title>
<path fill="none" stroke="midnightblue" d="M714.94,-280.08C719.98,-272.53 727.34,-261.49 733.51,-252.23"/>
<polygon fill="midnightblue" stroke="midnightblue" points="736.53,-254.01 739.17,-243.75 730.71,-250.13 736.53,-254.01"/>
</g>
<!-- Node23 -->
<g id="node23" class="node">
<title>Node23</title>
<g id="a_node23"><a xlink:title=" ">
<polygon fill="white" stroke="#bfbfbf" points="788.5,-224.5 788.5,-243.5 853.5,-243.5 853.5,-224.5 788.5,-224.5"/>
<text text-anchor="middle" x="821" y="-231.5" font-family="Helvetica,sans-Serif" font-size="10.00">exception</text>
</a>
</g>
</g>
<!-- Node21&#45;&gt;Node23 -->
<g id="edge30" class="edge">
<title>Node21&#45;&gt;Node23</title>
<path fill="none" stroke="midnightblue" d="M726.99,-280.32C745.04,-271.62 773.05,-258.12 793.8,-248.11"/>
<polygon fill="midnightblue" stroke="midnightblue" points="795.56,-251.15 803.05,-243.65 792.52,-244.84 795.56,-251.15"/>
</g>
<!-- Node24 -->
<g id="node24" class="node">
<title>Node24</title>
<g id="a_node24"><a xlink:title=" ">
<polygon fill="white" stroke="#bfbfbf" points="872,-224.5 872,-243.5 930,-243.5 930,-224.5 872,-224.5"/>
<text text-anchor="middle" x="901" y="-231.5" font-family="Helvetica,sans-Serif" font-size="10.00">memory</text>
</a>
</g>
</g>
<!-- Node21&#45;&gt;Node24 -->
<g id="edge31" class="edge">
<title>Node21&#45;&gt;Node24</title>
<path fill="none" stroke="midnightblue" d="M739.42,-280.44C772.67,-271.09 826.02,-256.09 862.24,-245.9"/>
<polygon fill="midnightblue" stroke="midnightblue" points="863.3,-249.24 871.98,-243.16 861.4,-242.5 863.3,-249.24"/>
</g>
<!-- Node25 -->
<g id="node25" class="node">
<title>Node25</title>
<g id="a_node25"><a xlink:title=" ">
<polygon fill="white" stroke="#bfbfbf" points="624,-224.5 624,-243.5 664,-243.5 664,-224.5 624,-224.5"/>
<text text-anchor="middle" x="644" y="-231.5" font-family="Helvetica,sans-Serif" font-size="10.00">span</text>
</a>
</g>
</g>
<!-- Node21&#45;&gt;Node25 -->
<g id="edge32" class="edge">
<title>Node21&#45;&gt;Node25</title>
<path fill="none" stroke="midnightblue" d="M698.56,-280.32C688.85,-272.26 674.18,-260.08 662.5,-250.37"/>
<polygon fill="midnightblue" stroke="midnightblue" points="664.56,-247.53 654.63,-243.83 660.09,-252.92 664.56,-247.53"/>
</g>
<!-- Node26&#45;&gt;Node3 -->
<g id="edge36" class="edge">
<title>Node26&#45;&gt;Node3</title>
<path fill="none" stroke="midnightblue" d="M539.43,-336.44C474.54,-326.63 368.46,-310.58 301.27,-300.42"/>
<polygon fill="midnightblue" stroke="midnightblue" points="301.65,-296.94 291.24,-298.9 300.6,-303.86 301.65,-296.94"/>
</g>
<!-- Node26&#45;&gt;Node7 -->
<g id="edge48" class="edge">
<title>Node26&#45;&gt;Node7</title>
<path fill="none" stroke="midnightblue" d="M596,-336.44C596,-317.94 596,-272.81 596,-235 596,-235 596,-235 596,-121 596,-87.25 581.57,-50.03 571.79,-28.69"/>
<polygon fill="midnightblue" stroke="midnightblue" points="574.91,-27.1 567.45,-19.58 568.59,-30.11 574.91,-27.1"/>
</g>
<!-- Node26&#45;&gt;Node8 -->
<g id="edge49" class="edge">
<title>Node26&#45;&gt;Node8</title>
<path fill="none" stroke="midnightblue" d="M659.82,-340.67C772.75,-331.23 996,-303.87 996,-235 996,-235 996,-235 996,-121 996,-85.82 975.72,-48.86 962.09,-28"/>
<polygon fill="midnightblue" stroke="midnightblue" points="964.91,-25.92 956.4,-19.61 959.12,-29.85 964.91,-25.92"/>
</g>
<!-- Node26&#45;&gt;Node21 -->
<g id="edge40" class="edge">
<title>Node26&#45;&gt;Node21</title>
<path fill="none" stroke="midnightblue" d="M613.91,-336.44C632.25,-327.68 661.01,-313.94 682.09,-303.86"/>
<polygon fill="midnightblue" stroke="midnightblue" points="683.67,-306.99 691.18,-299.52 680.65,-300.67 683.67,-306.99"/>
</g>
<!-- Node27 -->
<g id="node27" class="node">
<title>Node27</title>
<g id="a_node27"><a xlink:href="hash__bytes_8h.html" target="_top" xlink:title=" ">
<polygon fill="white" stroke="black" points="1024,-280.5 1024,-299.5 1156,-299.5 1156,-280.5 1024,-280.5"/>
<text text-anchor="middle" x="1090" y="-287.5" font-family="Helvetica,sans-Serif" font-size="10.00">ccf/crypto/hash_bytes.h</text>
</a>
</g>
</g>
<!-- Node26&#45;&gt;Node27 -->
<g id="edge37" class="edge">
<title>Node26&#45;&gt;Node27</title>
<path fill="none" stroke="midnightblue" d="M659.84,-338.14C741.16,-329.38 886.04,-313.71 1010,-300 1011.11,-299.88 1012.23,-299.75 1013.36,-299.63"/>
<polygon fill="midnightblue" stroke="midnightblue" points="1014.1,-303.07 1023.65,-298.48 1013.32,-296.11 1014.1,-303.07"/>
</g>
<!-- Node26&#45;&gt;Node28 -->
<g id="edge46" class="edge">
<title>Node26&#45;&gt;Node28</title>
<path fill="none" stroke="midnightblue" d="M659.73,-343.98C800.08,-341.17 1126.51,-331.3 1165,-300 1178.52,-289.01 1182.75,-268.95 1183.92,-254.02"/>
<polygon fill="midnightblue" stroke="midnightblue" points="1187.43,-253.96 1184.32,-243.83 1180.43,-253.68 1187.43,-253.96"/>
</g>
<!-- Node26&#45;&gt;Node29 -->
<g id="edge41" class="edge">
<title>Node26&#45;&gt;Node29</title>
<path fill="none" stroke="midnightblue" d="M590.11,-336.37C577.74,-318.22 548.82,-275.8 532.58,-251.99"/>
<polygon fill="midnightblue" stroke="midnightblue" points="535.38,-249.88 526.86,-243.59 529.6,-253.83 535.38,-249.88"/>
</g>
<!-- Node26&#45;&gt;Node30 -->
<g id="edge47" class="edge">
<title>Node26&#45;&gt;Node30</title>
<path fill="none" stroke="midnightblue" d="M580.9,-336.32C566.1,-327.82 543.31,-314.73 526.02,-304.8"/>
<polygon fill="midnightblue" stroke="midnightblue" points="527.48,-301.6 517.07,-299.65 523.99,-307.67 527.48,-301.6"/>
</g>
<!-- Node27&#45;&gt;Node8 -->
<g id="edge39" class="edge">
<title>Node27&#45;&gt;Node8</title>
<path fill="none" stroke="midnightblue" d="M1081.98,-280.36C1066.49,-262.74 1034,-220.79 1034,-179 1034,-179 1034,-179 1034,-121 1034,-90.2 1028.4,-80.69 1010,-56 1000.64,-43.44 986.82,-32.74 974.8,-24.94"/>
<polygon fill="midnightblue" stroke="midnightblue" points="976.42,-21.82 966.07,-19.54 972.74,-27.78 976.42,-21.82"/>
</g>
<!-- Node27&#45;&gt;Node28 -->
<g id="edge38" class="edge">
<title>Node27&#45;&gt;Node28</title>
<path fill="none" stroke="midnightblue" d="M1105.1,-280.32C1119.9,-271.82 1142.69,-258.73 1159.98,-248.8"/>
<polygon fill="midnightblue" stroke="midnightblue" points="1162.01,-251.67 1168.93,-243.65 1158.52,-245.6 1162.01,-251.67"/>
</g>
<!-- Node29&#45;&gt;Node5 -->
<g id="edge42" class="edge">
<title>Node29&#45;&gt;Node5</title>
<path fill="none" stroke="midnightblue" d="M489.78,-224.44C456.07,-215.2 402.2,-200.44 365.07,-190.26"/>
<polygon fill="midnightblue" stroke="midnightblue" points="365.64,-186.78 355.07,-187.52 363.79,-193.54 365.64,-186.78"/>
</g>
<!-- Node29&#45;&gt;Node7 -->
<g id="edge45" class="edge">
<title>Node29&#45;&gt;Node7</title>
<path fill="none" stroke="midnightblue" d="M522.65,-224.3C528.83,-191.63 550.73,-75.87 559.41,-29.96"/>
<polygon fill="midnightblue" stroke="midnightblue" points="562.9,-30.36 561.32,-19.88 556.02,-29.06 562.9,-30.36"/>
</g>
<!-- Node29&#45;&gt;Node10 -->
<g id="edge43" class="edge">
<title>Node29&#45;&gt;Node10</title>
<path fill="none" stroke="midnightblue" d="M535.56,-224.31C580.97,-197.19 720.32,-113.98 775.83,-80.83"/>
<polygon fill="midnightblue" stroke="midnightblue" points="777.8,-83.74 784.59,-75.61 774.21,-77.73 777.8,-83.74"/>
</g>
<!-- Node29&#45;&gt;Node16 -->
<g id="edge44" class="edge">
<title>Node29&#45;&gt;Node16</title>
<path fill="none" stroke="midnightblue" d="M511.02,-224.33C486.58,-203.36 421.31,-148.9 361,-112 340.67,-99.56 316.4,-87.92 297.75,-79.59"/>
<polygon fill="midnightblue" stroke="midnightblue" points="299.12,-76.37 288.56,-75.55 296.31,-82.78 299.12,-76.37"/>
</g>
</g>
</svg>
        <g id="navigator" transform="translate(0 0)" fill="#404254">
                <rect fill="#f2f5e9" fill-opacity="0.5" stroke="#606060" stroke-width=".5" x="0" y="0" width="60" height="60"/>
                <use id="zoomplus" xlink:href="#zoomPlus" x="17" y="9" onmousedown="handleZoom(evt,'in')"/>
                <use id="zoomminus" xlink:href="#zoomMin" x="42" y="9" onmousedown="handleZoom(evt,'out')"/>
                <use id="reset" xlink:href="#resetDef" x="30" y="36" onmousedown="handleReset()"/>
                <g id="arrowUp" xlink:href="#dirArrow" transform="translate(30 24)" onmousedown="handlePan(0,-1)">
                  <use xlink:href="#rim" fill="#404040">
                        <set attributeName="fill" to="#808080" begin="arrowUp.mouseover" end="arrowUp.mouseout"/>
                  </use>
                  <path fill="none" stroke="white" stroke-width="1.5" d="M0,-3.0v7 M-2.5,-0.5L0,-3.0L2.5,-0.5"/>
                </g>
                <g id="arrowRight" xlink:href="#dirArrow" transform="rotate(90) translate(36 -43)" onmousedown="handlePan(1,0)">
                  <use xlink:href="#rim" fill="#404040">
                        <set attributeName="fill" to="#808080" begin="arrowRight.mouseover" end="arrowRight.mouseout"/>
                  </use>
                  <path fill="none" stroke="white" stroke-width="1.5" d="M0,-3.0v7 M-2.5,-0.5L0,-3.0L2.5,-0.5"/>
                </g>
                <g id="arrowDown" xlink:href="#dirArrow" transform="rotate(180) translate(-30 -48)" onmousedown="handlePan(0,1)">
                  <use xlink:href="#rim" fill="#404040">
                        <set attributeName="fill" to="#808080" begin="arrowDown.mouseover" end="arrowDown.mouseout"/>
                  </use>
                  <path fill="none" stroke="white" stroke-width="1.5" d="M0,-3.0v7 M-2.5,-0.5L0,-3.0L2.5,-0.5"/>
                </g>
                <g id="arrowLeft" xlink:href="#dirArrow" transform="rotate(270) translate(-36 17)" onmousedown="handlePan(-1,0)">
                  <use xlink:href="#rim" fill="#404040">
                        <set attributeName="fill" to="#808080" begin="arrowLeft.mouseover" end="arrowLeft.mouseout"/>
                  </use>
                  <path fill="none" stroke="white" stroke-width="1.5" d="M0,-3.0v7 M-2.5,-0.5L0,-3.0L2.5,-0.5"/>
                </g>
        </g>
        <svg viewBox="0 0 15 15" width="100%" height="30px" preserveAspectRatio="xMaxYMin meet">
         <g id="arrow_out" transform="scale(0.3 0.3)">
          <a xlink:href="include_2ccf_2crypto_2verifier_8h__incl_org.svg" target="_base">
           <rect id="button" ry="5" rx="5" y="6" x="6" height="38" width="38"
                fill="#f2f5e9" fill-opacity="0.5" stroke="#606060" stroke-width="1.0"/>
           <path id="arrow"
             d="M 11.500037,31.436501 C 11.940474,20.09759 22.043105,11.32322 32.158766,21.979434 L 37.068811,17.246167 C 37.068811,17.246167 37.088388,32 37.088388,32 L 22.160133,31.978069 C 22.160133,31.978069 26.997745,27.140456 26.997745,27.140456 C 18.528582,18.264221 13.291696,25.230495 11.500037,31.436501 z"
             style="fill:#404040;"/>
          </a>
         </g>
        </svg>
</svg>
