<?xml version="1.0" encoding="UTF-8" standalone="no"?>
<!DOCTYPE svg PUBLIC "-//W3C//DTD SVG 1.1//EN"
 "http://www.w3.org/Graphics/SVG/1.1/DTD/svg11.dtd">
<!-- Generated by graphviz version 2.43.0 (0)
 -->
<!-- Title: Graphical Class Hierarchy Pages: 1 -->
<svg width="597pt" height="477pt"
 viewBox="0.00 0.00 597.00 476.50" xmlns="http://www.w3.org/2000/svg" xmlns:xlink="http://www.w3.org/1999/xlink">
<g id="graph0" class="graph" transform="scale(1 1) rotate(0) translate(4 472.5)">
<title>Graphical Class Hierarchy</title>
<polygon fill="white" stroke="transparent" points="-4,4 -4,-472.5 593,-472.5 593,4 -4,4"/>
<!-- Node0 -->
<g id="node1" class="node">
<title>Node0</title>
<g id="a_node1"><a xlink:title=" ">
<polygon fill="white" stroke="#bfbfbf" points="0,-326.5 0,-345.5 86,-345.5 86,-326.5 0,-326.5"/>
<text text-anchor="middle" x="43" y="-333.5" font-family="Helvetica,sans-Serif" font-size="10.00">std::exception</text>
</a>
</g>
</g>
<!-- Node1 -->
<g id="node2" class="node">
<title>Node1</title>
<g id="a_node2"><a xlink:href="classccf_1_1NodeToNode_1_1DroppedMessageException.html" target="_top" xlink:title=" ">
<polygon fill="white" stroke="black" points="122,-422 122,-452 267,-452 267,-422 122,-422"/>
<text text-anchor="start" x="130" y="-440" font-family="Helvetica,sans-Serif" font-size="10.00">ccf::NodeToNode::Dropped</text>
<text text-anchor="middle" x="194.5" y="-429" font-family="Helvetica,sans-Serif" font-size="10.00">MessageException</text>
</a>
</g>
</g>
<!-- Node0&#45;&gt;Node1 -->
<g id="edge1" class="edge">
<title>Node0&#45;&gt;Node1</title>
<path fill="none" stroke="midnightblue" d="M58.03,-353.57C72.47,-370.61 96.4,-396.15 122,-412 128.04,-415.74 134.71,-419.01 141.48,-421.85"/>
<polygon fill="midnightblue" stroke="midnightblue" points="60.46,-351.01 51.39,-345.53 55.06,-355.47 60.46,-351.01"/>
</g>
<!-- Node2 -->
<g id="node3" class="node">
<title>Node2</title>
<g id="a_node3"><a xlink:href="structccf_1_1RpcException.html" target="_top" xlink:title=" ">
<polygon fill="white" stroke="black" points="143.5,-383.5 143.5,-402.5 245.5,-402.5 245.5,-383.5 143.5,-383.5"/>
<text text-anchor="middle" x="194.5" y="-390.5" font-family="Helvetica,sans-Serif" font-size="10.00">ccf::RpcException</text>
</a>
</g>
</g>
<!-- Node0&#45;&gt;Node2 -->
<g id="edge2" class="edge">
<title>Node0&#45;&gt;Node2</title>
<path fill="none" stroke="midnightblue" d="M70.33,-350.41C85.19,-358.14 104.28,-367.4 122,-374 131.63,-377.59 142.22,-380.79 152.24,-383.49"/>
<polygon fill="midnightblue" stroke="midnightblue" points="71.71,-347.18 61.23,-345.6 68.43,-353.37 71.71,-347.18"/>
</g>
<!-- Node3 -->
<g id="node4" class="node">
<title>Node3</title>
<g id="a_node4"><a xlink:href="classccf_1_1ccf__logic__error.html" target="_top" xlink:title=" ">
<polygon fill="white" stroke="black" points="141,-345.5 141,-364.5 248,-364.5 248,-345.5 141,-345.5"/>
<text text-anchor="middle" x="194.5" y="-352.5" font-family="Helvetica,sans-Serif" font-size="10.00">ccf::ccf_logic_error</text>
</a>
</g>
</g>
<!-- Node0&#45;&gt;Node3 -->
<g id="edge3" class="edge">
<title>Node0&#45;&gt;Node3</title>
<path fill="none" stroke="midnightblue" d="M96.3,-342.65C110.73,-344.48 126.39,-346.47 140.85,-348.31"/>
<polygon fill="midnightblue" stroke="midnightblue" points="96.4,-339.13 86.04,-341.34 95.52,-346.08 96.4,-339.13"/>
</g>
<!-- Node7 -->
<g id="node8" class="node">
<title>Node7</title>
<g id="a_node8"><a xlink:href="classkv_1_1KvSerialiserException.html" target="_top" xlink:title=" ">
<polygon fill="white" stroke="black" points="124.5,-307.5 124.5,-326.5 264.5,-326.5 264.5,-307.5 124.5,-307.5"/>
<text text-anchor="middle" x="194.5" y="-314.5" font-family="Helvetica,sans-Serif" font-size="10.00">kv::KvSerialiserException</text>
</a>
</g>
</g>
<!-- Node0&#45;&gt;Node7 -->
<g id="edge7" class="edge">
<title>Node0&#45;&gt;Node7</title>
<path fill="none" stroke="midnightblue" d="M96.1,-329.38C105.22,-328.22 114.83,-327 124.33,-325.79"/>
<polygon fill="midnightblue" stroke="midnightblue" points="95.52,-325.92 86.04,-330.66 96.4,-332.87 95.52,-325.92"/>
</g>
<!-- Node8 -->
<g id="node9" class="node">
<title>Node8</title>
<g id="a_node9"><a xlink:title=" ">
<polygon fill="white" stroke="#bfbfbf" points="150,-252.5 150,-271.5 239,-271.5 239,-252.5 150,-252.5"/>
<text text-anchor="middle" x="194.5" y="-259.5" font-family="Helvetica,sans-Serif" font-size="10.00">std::logic_error</text>
</a>
</g>
</g>
<!-- Node0&#45;&gt;Node8 -->
<g id="edge8" class="edge">
<title>Node0&#45;&gt;Node8</title>
<path fill="none" stroke="midnightblue" d="M72.26,-322.01C101.96,-307.31 147.89,-284.57 173.86,-271.72"/>
<polygon fill="midnightblue" stroke="midnightblue" points="70.65,-318.9 63.24,-326.48 73.75,-325.18 70.65,-318.9"/>
</g>
<!-- Node14 -->
<g id="node15" class="node">
<title>Node14</title>
<g id="a_node15"><a xlink:title=" ">
<polygon fill="white" stroke="#bfbfbf" points="142.5,-82.5 142.5,-101.5 246.5,-101.5 246.5,-82.5 142.5,-82.5"/>
<text text-anchor="middle" x="194.5" y="-89.5" font-family="Helvetica,sans-Serif" font-size="10.00">std::runtime_error</text>
</a>
</g>
</g>
<!-- Node0&#45;&gt;Node14 -->
<g id="edge14" class="edge">
<title>Node0&#45;&gt;Node14</title>
<path fill="none" stroke="midnightblue" d="M55.26,-317.62C85.01,-269.06 164.99,-138.54 187.52,-101.76"/>
<polygon fill="midnightblue" stroke="midnightblue" points="52.1,-316.08 49.86,-326.43 58.07,-319.74 52.1,-316.08"/>
</g>
<!-- Node4 -->
<g id="node5" class="node">
<title>Node4</title>
<g id="a_node5"><a xlink:href="classccf_1_1ccf__oe__attester__init__error.html" target="_top" xlink:title=" ">
<polygon fill="white" stroke="black" points="329.5,-438 329.5,-468 440.5,-468 440.5,-438 329.5,-438"/>
<text text-anchor="start" x="337.5" y="-456" font-family="Helvetica,sans-Serif" font-size="10.00">ccf::ccf_oe_attester</text>
<text text-anchor="middle" x="385" y="-445" font-family="Helvetica,sans-Serif" font-size="10.00">_init_error</text>
</a>
</g>
</g>
<!-- Node3&#45;&gt;Node4 -->
<g id="edge4" class="edge">
<title>Node3&#45;&gt;Node4</title>
<path fill="none" stroke="midnightblue" d="M257.74,-368.39C260.99,-370.04 264.1,-371.91 267,-374 290.68,-391.11 279.56,-411.56 303,-429 310.77,-434.78 319.91,-439.17 329.21,-442.51"/>
<polygon fill="midnightblue" stroke="midnightblue" points="258.86,-365.05 248.3,-364.24 256.04,-371.46 258.86,-365.05"/>
</g>
<!-- Node5 -->
<g id="node6" class="node">
<title>Node5</title>
<g id="a_node6"><a xlink:href="classccf_1_1ccf__oe__verifier__init__error.html" target="_top" xlink:title=" ">
<polygon fill="white" stroke="black" points="331.5,-389 331.5,-419 438.5,-419 438.5,-389 331.5,-389"/>
<text text-anchor="start" x="339.5" y="-407" font-family="Helvetica,sans-Serif" font-size="10.00">ccf::ccf_oe_verifier</text>
<text text-anchor="middle" x="385" y="-396" font-family="Helvetica,sans-Serif" font-size="10.00">_init_error</text>
</a>
</g>
</g>
<!-- Node3&#45;&gt;Node5 -->
<g id="edge5" class="edge">
<title>Node3&#45;&gt;Node5</title>
<path fill="none" stroke="midnightblue" d="M242.27,-367.16C269.27,-374.18 303.3,-383.02 331.25,-390.29"/>
<polygon fill="midnightblue" stroke="midnightblue" points="242.85,-363.69 232.29,-364.56 241.09,-370.47 242.85,-363.69"/>
</g>
<!-- Node6 -->
<g id="node7" class="node">
<title>Node6</title>
<g id="a_node7"><a xlink:href="classccf_1_1ccf__openssl__rdrand__init__error.html" target="_top" xlink:title=" ">
<polygon fill="white" stroke="black" points="320,-340 320,-370 450,-370 450,-340 320,-340"/>
<text text-anchor="start" x="328" y="-358" font-family="Helvetica,sans-Serif" font-size="10.00">ccf::ccf_openssl_rdrand</text>
<text text-anchor="middle" x="385" y="-347" font-family="Helvetica,sans-Serif" font-size="10.00">_init_error</text>
</a>
</g>
</g>
<!-- Node3&#45;&gt;Node6 -->
<g id="edge6" class="edge">
<title>Node3&#45;&gt;Node6</title>
<path fill="none" stroke="midnightblue" d="M258.14,-355C277.92,-355 299.8,-355 319.7,-355"/>
<polygon fill="midnightblue" stroke="midnightblue" points="258.01,-351.5 248.01,-355 258.01,-358.5 258.01,-351.5"/>
</g>
<!-- Node9 -->
<g id="node10" class="node">
<title>Node9</title>
<g id="a_node10"><a xlink:href="classmessaging_1_1already__handled.html" target="_top" xlink:title=" ">
<polygon fill="white" stroke="black" points="328.5,-291 328.5,-321 441.5,-321 441.5,-291 328.5,-291"/>
<text text-anchor="start" x="336.5" y="-309" font-family="Helvetica,sans-Serif" font-size="10.00">messaging::already</text>
<text text-anchor="middle" x="385" y="-298" font-family="Helvetica,sans-Serif" font-size="10.00">_handled</text>
</a>
</g>
</g>
<!-- Node8&#45;&gt;Node9 -->
<g id="edge9" class="edge">
<title>Node8&#45;&gt;Node9</title>
<path fill="none" stroke="midnightblue" d="M246.17,-273.83C271.49,-279.74 302.17,-286.9 328.16,-292.97"/>
<polygon fill="midnightblue" stroke="midnightblue" points="246.94,-270.41 236.4,-271.55 245.34,-277.23 246.94,-270.41"/>
</g>
<!-- Node10 -->
<g id="node11" class="node">
<title>Node10</title>
<g id="a_node11"><a xlink:href="classmessaging_1_1no__handler.html" target="_top" xlink:title=" ">
<polygon fill="white" stroke="black" points="320,-252.5 320,-271.5 450,-271.5 450,-252.5 320,-252.5"/>
<text text-anchor="middle" x="385" y="-259.5" font-family="Helvetica,sans-Serif" font-size="10.00">messaging::no_handler</text>
</a>
</g>
</g>
<!-- Node8&#45;&gt;Node10 -->
<g id="edge10" class="edge">
<title>Node8&#45;&gt;Node10</title>
<path fill="none" stroke="midnightblue" d="M249.35,-262C271.31,-262 296.87,-262 319.79,-262"/>
<polygon fill="midnightblue" stroke="midnightblue" points="249.22,-258.5 239.22,-262 249.22,-265.5 249.22,-258.5"/>
</g>
<!-- Node11 -->
<g id="node12" class="node">
<title>Node11</title>
<g id="a_node12"><a xlink:href="classringbuffer_1_1message__error.html" target="_top" xlink:title=" ">
<polygon fill="white" stroke="black" points="328,-203 328,-233 442,-233 442,-203 328,-203"/>
<text text-anchor="start" x="336" y="-221" font-family="Helvetica,sans-Serif" font-size="10.00">ringbuffer::message</text>
<text text-anchor="middle" x="385" y="-210" font-family="Helvetica,sans-Serif" font-size="10.00">_error</text>
</a>
</g>
</g>
<!-- Node8&#45;&gt;Node11 -->
<g id="edge11" class="edge">
<title>Node8&#45;&gt;Node11</title>
<path fill="none" stroke="midnightblue" d="M246.47,-250.1C271.61,-244.23 301.99,-237.14 327.8,-231.12"/>
<polygon fill="midnightblue" stroke="midnightblue" points="245.34,-246.77 236.4,-252.45 246.94,-253.59 245.34,-246.77"/>
</g>
<!-- Node12 -->
<g id="node13" class="node">
<title>Node12</title>
<g id="a_node13"><a xlink:title=" ">
<polygon fill="white" stroke="#bfbfbf" points="323.5,-164.5 323.5,-183.5 446.5,-183.5 446.5,-164.5 323.5,-164.5"/>
<text text-anchor="middle" x="385" y="-171.5" font-family="Helvetica,sans-Serif" font-size="10.00">std::invalid_argument</text>
</a>
</g>
</g>
<!-- Node8&#45;&gt;Node12 -->
<g id="edge12" class="edge">
<title>Node8&#45;&gt;Node12</title>
<path fill="none" stroke="midnightblue" d="M215.75,-246.37C236.58,-230.99 270.47,-207.87 303,-194 312.86,-189.8 323.79,-186.35 334.34,-183.58"/>
<polygon fill="midnightblue" stroke="midnightblue" points="213.57,-243.63 207.67,-252.43 217.77,-249.23 213.57,-243.63"/>
</g>
<!-- Node13 -->
<g id="node14" class="node">
<title>Node13</title>
<g id="a_node14"><a xlink:href="classJsonParseError.html" target="_top" xlink:title=" ">
<polygon fill="white" stroke="black" points="503,-164.5 503,-183.5 589,-183.5 589,-164.5 503,-164.5"/>
<text text-anchor="middle" x="546" y="-171.5" font-family="Helvetica,sans-Serif" font-size="10.00">JsonParseError</text>
</a>
</g>
</g>
<!-- Node12&#45;&gt;Node13 -->
<g id="edge13" class="edge">
<title>Node12&#45;&gt;Node13</title>
<path fill="none" stroke="midnightblue" d="M456.81,-174C472.53,-174 488.72,-174 502.87,-174"/>
<polygon fill="midnightblue" stroke="midnightblue" points="456.56,-170.5 446.56,-174 456.56,-177.5 456.56,-170.5"/>
</g>
<!-- Node15 -->
<g id="node16" class="node">
<title>Node15</title>
<g id="a_node16"><a xlink:href="structccf_1_1cose_1_1COSEDecodeError.html" target="_top" xlink:title=" ">
<polygon fill="white" stroke="black" points="309.5,-126.5 309.5,-145.5 460.5,-145.5 460.5,-126.5 309.5,-126.5"/>
<text text-anchor="middle" x="385" y="-133.5" font-family="Helvetica,sans-Serif" font-size="10.00">ccf::cose::COSEDecodeError</text>
</a>
</g>
</g>
<!-- Node14&#45;&gt;Node15 -->
<g id="edge15" class="edge">
<title>Node14&#45;&gt;Node15</title>
<path fill="none" stroke="midnightblue" d="M246.38,-103.88C276.74,-110.96 314.79,-119.84 343.18,-126.47"/>
<polygon fill="midnightblue" stroke="midnightblue" points="246.94,-100.41 236.4,-101.55 245.34,-107.23 246.94,-100.41"/>
</g>
<!-- Node16 -->
<g id="node17" class="node">
<title>Node16</title>
<g id="a_node17"><a xlink:href="structccf_1_1cose_1_1COSESignatureValidationError.html" target="_top" xlink:title=" ">
<polygon fill="white" stroke="black" points="316.5,-77 316.5,-107 453.5,-107 453.5,-77 316.5,-77"/>
<text text-anchor="start" x="324.5" y="-95" font-family="Helvetica,sans-Serif" font-size="10.00">ccf::cose::COSESignature</text>
<text text-anchor="middle" x="385" y="-84" font-family="Helvetica,sans-Serif" font-size="10.00">ValidationError</text>
</a>
</g>
</g>
<!-- Node14&#45;&gt;Node16 -->
<g id="edge16" class="edge">
<title>Node14&#45;&gt;Node16</title>
<path fill="none" stroke="midnightblue" d="M256.57,-92C275.65,-92 296.8,-92 316.3,-92"/>
<polygon fill="midnightblue" stroke="midnightblue" points="256.51,-88.5 246.51,-92 256.51,-95.5 256.51,-88.5"/>
</g>
<!-- Node17 -->
<g id="node18" class="node">
<title>Node17</title>
<g id="a_node18"><a xlink:href="classhttp_1_1RequestHeaderTooLarge.html" target="_top" xlink:title=" ">
<polygon fill="white" stroke="black" points="304.5,-38.5 304.5,-57.5 465.5,-57.5 465.5,-38.5 304.5,-38.5"/>
<text text-anchor="middle" x="385" y="-45.5" font-family="Helvetica,sans-Serif" font-size="10.00">http::RequestHeaderTooLarge</text>
</a>
</g>
</g>
<!-- Node14&#45;&gt;Node17 -->
<g id="edge17" class="edge">
<title>Node14&#45;&gt;Node17</title>
<path fill="none" stroke="midnightblue" d="M246.38,-80.12C276.74,-73.04 314.79,-64.16 343.18,-57.53"/>
<polygon fill="midnightblue" stroke="midnightblue" points="245.34,-76.77 236.4,-82.45 246.94,-83.59 245.34,-76.77"/>
</g>
<!-- Node18 -->
<g id="node19" class="node">
<title>Node18</title>
<g id="a_node19"><a xlink:href="classhttp_1_1RequestPayloadTooLarge.html" target="_top" xlink:title=" ">
<polygon fill="white" stroke="black" points="303,-0.5 303,-19.5 467,-19.5 467,-0.5 303,-0.5"/>
<text text-anchor="middle" x="385" y="-7.5" font-family="Helvetica,sans-Serif" font-size="10.00">http::RequestPayloadTooLarge</text>
</a>
</g>
</g>
<!-- Node14&#45;&gt;Node18 -->
<g id="edge18" class="edge">
<title>Node14&#45;&gt;Node18</title>
<path fill="none" stroke="midnightblue" d="M217.23,-76.62C238.26,-62.39 271.5,-41.59 303,-29 312.39,-25.25 322.7,-22.13 332.73,-19.57"/>
<polygon fill="midnightblue" stroke="midnightblue" points="214.99,-73.91 208.74,-82.46 218.96,-79.68 214.99,-73.91"/>
</g>
</g>
</svg>
