<?xml version="1.0" encoding="UTF-8" standalone="no"?>
<!DOCTYPE svg PUBLIC "-//W3C//DTD SVG 1.1//EN"
 "http://www.w3.org/Graphics/SVG/1.1/DTD/svg11.dtd">
<!-- Generated by graphviz version 2.43.0 (0)
 -->
<!-- Title: Graphical Class Hierarchy Pages: 1 -->
<svg width="304pt" height="394pt"
 viewBox="0.00 0.00 304.00 394.00" xmlns="http://www.w3.org/2000/svg" xmlns:xlink="http://www.w3.org/1999/xlink">
<g id="graph0" class="graph" transform="scale(1 1) rotate(0) translate(4 390)">
<title>Graphical Class Hierarchy</title>
<polygon fill="white" stroke="transparent" points="-4,4 -4,-390 300,-390 300,4 -4,4"/>
<!-- Node0 -->
<g id="node1" class="node">
<title>Node0</title>
<g id="a_node1"><a xlink:href="classccf_1_1AuthnPolicy.html" target="_top" xlink:title=" ">
<polygon fill="white" stroke="black" points="0,-180.5 0,-199.5 94,-199.5 94,-180.5 0,-180.5"/>
<text text-anchor="middle" x="47" y="-187.5" font-family="Helvetica,sans-Serif" font-size="10.00">ccf::AuthnPolicy</text>
</a>
</g>
</g>
<!-- Node1 -->
<g id="node2" class="node">
<title>Node1</title>
<g id="a_node2"><a xlink:href="classExecutorAuthPolicy.html" target="_top" xlink:title=" ">
<polygon fill="white" stroke="black" points="158,-366.5 158,-385.5 268,-385.5 268,-366.5 158,-366.5"/>
<text text-anchor="middle" x="213" y="-373.5" font-family="Helvetica,sans-Serif" font-size="10.00">ExecutorAuthPolicy</text>
</a>
</g>
</g>
<!-- Node0&#45;&gt;Node1 -->
<g id="edge1" class="edge">
<title>Node0&#45;&gt;Node1</title>
<path fill="none" stroke="midnightblue" d="M51.91,-209.75C59.96,-245.03 81.84,-318.76 130,-357 138.01,-363.36 147.77,-367.66 157.73,-370.56"/>
<polygon fill="midnightblue" stroke="midnightblue" points="55.28,-208.78 49.76,-199.74 48.43,-210.25 55.28,-208.78"/>
</g>
<!-- Node2 -->
<g id="node3" class="node">
<title>Node2</title>
<g id="a_node3"><a xlink:href="classccf_1_1EmptyAuthnPolicy.html" target="_top" xlink:title=" ">
<polygon fill="white" stroke="black" points="150.5,-328.5 150.5,-347.5 275.5,-347.5 275.5,-328.5 150.5,-328.5"/>
<text text-anchor="middle" x="213" y="-335.5" font-family="Helvetica,sans-Serif" font-size="10.00">ccf::EmptyAuthnPolicy</text>
</a>
</g>
</g>
<!-- Node0&#45;&gt;Node2 -->
<g id="edge2" class="edge">
<title>Node0&#45;&gt;Node2</title>
<path fill="none" stroke="midnightblue" d="M54.75,-209.21C65.83,-237.79 90.63,-291.12 130,-319 136.08,-323.31 143,-326.65 150.17,-329.25"/>
<polygon fill="midnightblue" stroke="midnightblue" points="57.94,-207.74 51.18,-199.58 51.38,-210.17 57.94,-207.74"/>
</g>
<!-- Node3 -->
<g id="node4" class="node">
<title>Node3</title>
<g id="a_node4"><a xlink:href="classccf_1_1JwtAuthnPolicy.html" target="_top" xlink:title=" ">
<polygon fill="white" stroke="black" points="158.5,-290.5 158.5,-309.5 267.5,-309.5 267.5,-290.5 158.5,-290.5"/>
<text text-anchor="middle" x="213" y="-297.5" font-family="Helvetica,sans-Serif" font-size="10.00">ccf::JwtAuthnPolicy</text>
</a>
</g>
</g>
<!-- Node0&#45;&gt;Node3 -->
<g id="edge3" class="edge">
<title>Node0&#45;&gt;Node3</title>
<path fill="none" stroke="midnightblue" d="M59.44,-208.35C73.45,-229.25 99.18,-262.84 130,-281 138.56,-286.05 148.36,-289.75 158.13,-292.47"/>
<polygon fill="midnightblue" stroke="midnightblue" points="62.23,-206.22 53.84,-199.74 56.36,-210.03 62.23,-206.22"/>
</g>
<!-- Node4 -->
<g id="node5" class="node">
<title>Node4</title>
<g id="a_node5"><a xlink:href="classccf_1_1MemberCOSESign1AuthnPolicy.html" target="_top" xlink:title=" ">
<polygon fill="white" stroke="black" points="134,-241 134,-271 292,-271 292,-241 134,-241"/>
<text text-anchor="start" x="142" y="-259" font-family="Helvetica,sans-Serif" font-size="10.00">ccf::MemberCOSESign1Authn</text>
<text text-anchor="middle" x="213" y="-248" font-family="Helvetica,sans-Serif" font-size="10.00">Policy</text>
</a>
</g>
</g>
<!-- Node0&#45;&gt;Node4 -->
<g id="edge4" class="edge">
<title>Node0&#45;&gt;Node4</title>
<path fill="none" stroke="midnightblue" d="M74.37,-204.6C90.2,-213.01 110.9,-223.38 130,-231 138.85,-234.53 148.39,-237.86 157.74,-240.87"/>
<polygon fill="midnightblue" stroke="midnightblue" points="75.67,-201.33 65.21,-199.67 72.35,-207.49 75.67,-201.33"/>
</g>
<!-- Node5 -->
<g id="node6" class="node">
<title>Node5</title>
<g id="a_node6"><a xlink:href="classccf_1_1MemberCertAuthnPolicy.html" target="_top" xlink:title=" ">
<polygon fill="white" stroke="black" points="135.5,-202.5 135.5,-221.5 290.5,-221.5 290.5,-202.5 135.5,-202.5"/>
<text text-anchor="middle" x="213" y="-209.5" font-family="Helvetica,sans-Serif" font-size="10.00">ccf::MemberCertAuthnPolicy</text>
</a>
</g>
</g>
<!-- Node0&#45;&gt;Node5 -->
<g id="edge5" class="edge">
<title>Node0&#45;&gt;Node5</title>
<path fill="none" stroke="midnightblue" d="M104.3,-197.55C116.15,-199.14 128.79,-200.84 141.1,-202.49"/>
<polygon fill="midnightblue" stroke="midnightblue" points="104.5,-194.05 94.12,-196.19 103.57,-200.99 104.5,-194.05"/>
</g>
<!-- Node6 -->
<g id="node7" class="node">
<title>Node6</title>
<g id="a_node7"><a xlink:href="classccf_1_1MemberSignatureAuthnPolicy.html" target="_top" xlink:title=" ">
<polygon fill="white" stroke="black" points="137,-153 137,-183 289,-183 289,-153 137,-153"/>
<text text-anchor="start" x="145" y="-171" font-family="Helvetica,sans-Serif" font-size="10.00">ccf::MemberSignatureAuthn</text>
<text text-anchor="middle" x="213" y="-160" font-family="Helvetica,sans-Serif" font-size="10.00">Policy</text>
</a>
</g>
</g>
<!-- Node0&#45;&gt;Node6 -->
<g id="edge6" class="edge">
<title>Node0&#45;&gt;Node6</title>
<path fill="none" stroke="midnightblue" d="M104.33,-182.44C114.78,-181.04 125.84,-179.56 136.75,-178.1"/>
<polygon fill="midnightblue" stroke="midnightblue" points="103.57,-179.01 94.12,-183.81 104.5,-185.95 103.57,-179.01"/>
</g>
<!-- Node7 -->
<g id="node8" class="node">
<title>Node7</title>
<g id="a_node8"><a xlink:href="classccf_1_1NodeCertAuthnPolicy.html" target="_top" xlink:title=" ">
<polygon fill="white" stroke="black" points="143,-114.5 143,-133.5 283,-133.5 283,-114.5 143,-114.5"/>
<text text-anchor="middle" x="213" y="-121.5" font-family="Helvetica,sans-Serif" font-size="10.00">ccf::NodeCertAuthnPolicy</text>
</a>
</g>
</g>
<!-- Node0&#45;&gt;Node7 -->
<g id="edge7" class="edge">
<title>Node0&#45;&gt;Node7</title>
<path fill="none" stroke="midnightblue" d="M70.87,-174.94C86.87,-164.96 109.05,-152.25 130,-144 140.5,-139.86 152.1,-136.41 163.19,-133.6"/>
<polygon fill="midnightblue" stroke="midnightblue" points="68.78,-172.12 62.22,-180.44 72.54,-178.03 68.78,-172.12"/>
</g>
<!-- Node8 -->
<g id="node9" class="node">
<title>Node8</title>
<g id="a_node9"><a xlink:href="classccf_1_1UserCertAuthnPolicy.html" target="_top" xlink:title=" ">
<polygon fill="white" stroke="black" points="144.5,-76.5 144.5,-95.5 281.5,-95.5 281.5,-76.5 144.5,-76.5"/>
<text text-anchor="middle" x="213" y="-83.5" font-family="Helvetica,sans-Serif" font-size="10.00">ccf::UserCertAuthnPolicy</text>
</a>
</g>
</g>
<!-- Node0&#45;&gt;Node8 -->
<g id="edge8" class="edge">
<title>Node0&#45;&gt;Node8</title>
<path fill="none" stroke="midnightblue" d="M60.36,-172C74.78,-152.45 100.43,-121.75 130,-105 136.87,-101.11 144.48,-98.02 152.23,-95.55"/>
<polygon fill="midnightblue" stroke="midnightblue" points="57.36,-170.19 54.39,-180.36 63.05,-174.26 57.36,-170.19"/>
</g>
<!-- Node9 -->
<g id="node10" class="node">
<title>Node9</title>
<g id="a_node10"><a xlink:href="classccf_1_1UserSignatureAuthnPolicy.html" target="_top" xlink:title=" ">
<polygon fill="white" stroke="black" points="131.5,-38.5 131.5,-57.5 294.5,-57.5 294.5,-38.5 131.5,-38.5"/>
<text text-anchor="middle" x="213" y="-45.5" font-family="Helvetica,sans-Serif" font-size="10.00">ccf::UserSignatureAuthnPolicy</text>
</a>
</g>
</g>
<!-- Node0&#45;&gt;Node9 -->
<g id="edge9" class="edge">
<title>Node0&#45;&gt;Node9</title>
<path fill="none" stroke="midnightblue" d="M55.34,-170.87C66.9,-143.42 92.01,-93.28 130,-67 135.65,-63.09 141.99,-59.98 148.57,-57.5"/>
<polygon fill="midnightblue" stroke="midnightblue" points="52.08,-169.6 51.58,-180.18 58.57,-172.22 52.08,-169.6"/>
</g>
<!-- Node10 -->
<g id="node11" class="node">
<title>Node10</title>
<g id="a_node11"><a xlink:href="classloggingapp_1_1CustomAuthPolicy.html" target="_top" xlink:title=" ">
<polygon fill="white" stroke="black" points="130,-0.5 130,-19.5 296,-19.5 296,-0.5 130,-0.5"/>
<text text-anchor="middle" x="213" y="-7.5" font-family="Helvetica,sans-Serif" font-size="10.00">loggingapp::CustomAuthPolicy</text>
</a>
</g>
</g>
<!-- Node0&#45;&gt;Node10 -->
<g id="edge10" class="edge">
<title>Node0&#45;&gt;Node10</title>
<path fill="none" stroke="midnightblue" d="M52.25,-170.46C60.74,-136.24 83.18,-65.62 130,-29 134.95,-25.13 140.55,-22.02 146.44,-19.53"/>
<polygon fill="midnightblue" stroke="midnightblue" points="48.84,-169.67 49.97,-180.2 55.65,-171.27 48.84,-169.67"/>
</g>
</g>
</svg>
