<?xml version="1.0" encoding="UTF-8" standalone="no"?>
<!DOCTYPE svg PUBLIC "-//W3C//DTD SVG 1.1//EN"
 "http://www.w3.org/Graphics/SVG/1.1/DTD/svg11.dtd">
<!-- Generated by graphviz version 2.43.0 (0)
 -->
<!-- Title: Graphical Class Hierarchy Pages: 1 -->
<svg width="1056pt" height="208pt"
 viewBox="0.00 0.00 1056.00 208.00" xmlns="http://www.w3.org/2000/svg" xmlns:xlink="http://www.w3.org/1999/xlink">
<g id="graph0" class="graph" transform="scale(1 1) rotate(0) translate(4 204)">
<title>Graphical Class Hierarchy</title>
<polygon fill="white" stroke="transparent" points="-4,4 -4,-204 1052,-204 1052,4 -4,4"/>
<!-- Node0 -->
<g id="node1" class="node">
<title>Node0</title>
<g id="a_node1"><a xlink:href="structccf_1_1endpoints_1_1Endpoint_1_1Installer.html" target="_top" xlink:title=" ">
<polygon fill="white" stroke="black" points="0,-99 0,-129 133,-129 133,-99 0,-99"/>
<text text-anchor="start" x="8" y="-117" font-family="Helvetica,sans-Serif" font-size="10.00">ccf::endpoints::Endpoint</text>
<text text-anchor="middle" x="66.5" y="-106" font-family="Helvetica,sans-Serif" font-size="10.00">::Installer</text>
</a>
</g>
</g>
<!-- Node1 -->
<g id="node2" class="node">
<title>Node1</title>
<g id="a_node2"><a xlink:href="classccf_1_1endpoints_1_1EndpointRegistry.html" target="_top" xlink:title=" ">
<polygon fill="white" stroke="black" points="169,-99 169,-129 302,-129 302,-99 169,-99"/>
<text text-anchor="start" x="177" y="-117" font-family="Helvetica,sans-Serif" font-size="10.00">ccf::endpoints::Endpoint</text>
<text text-anchor="middle" x="235.5" y="-106" font-family="Helvetica,sans-Serif" font-size="10.00">Registry</text>
</a>
</g>
</g>
<!-- Node0&#45;&gt;Node1 -->
<g id="edge1" class="edge">
<title>Node0&#45;&gt;Node1</title>
<path fill="none" stroke="midnightblue" d="M143.07,-114C151.68,-114 160.42,-114 168.89,-114"/>
<polygon fill="midnightblue" stroke="midnightblue" points="143.02,-110.5 133.02,-114 143.02,-117.5 143.02,-110.5"/>
</g>
<!-- Node2 -->
<g id="node3" class="node">
<title>Node2</title>
<g id="a_node3"><a xlink:href="classccf_1_1BaseEndpointRegistry.html" target="_top" xlink:title=" ">
<polygon fill="white" stroke="black" points="338,-104.5 338,-123.5 481,-123.5 481,-104.5 338,-104.5"/>
<text text-anchor="middle" x="409.5" y="-111.5" font-family="Helvetica,sans-Serif" font-size="10.00">ccf::BaseEndpointRegistry</text>
</a>
</g>
</g>
<!-- Node1&#45;&gt;Node2 -->
<g id="edge2" class="edge">
<title>Node1&#45;&gt;Node2</title>
<path fill="none" stroke="midnightblue" d="M312.25,-114C320.72,-114 329.32,-114 337.72,-114"/>
<polygon fill="midnightblue" stroke="midnightblue" points="312.02,-110.5 302.02,-114 312.02,-117.5 312.02,-110.5"/>
</g>
<!-- Node3 -->
<g id="node4" class="node">
<title>Node3</title>
<g id="a_node4"><a xlink:href="classccf_1_1CommonEndpointRegistry.html" target="_top" xlink:title=" ">
<polygon fill="white" stroke="black" points="517,-123.5 517,-142.5 681,-142.5 681,-123.5 517,-123.5"/>
<text text-anchor="middle" x="599" y="-130.5" font-family="Helvetica,sans-Serif" font-size="10.00">ccf::CommonEndpointRegistry</text>
</a>
</g>
</g>
<!-- Node2&#45;&gt;Node3 -->
<g id="edge3" class="edge">
<title>Node2&#45;&gt;Node3</title>
<path fill="none" stroke="midnightblue" d="M491.31,-122.19C499.74,-123.04 508.31,-123.91 516.74,-124.77"/>
<polygon fill="midnightblue" stroke="midnightblue" points="491.42,-118.68 481.12,-121.16 490.71,-125.65 491.42,-118.68"/>
</g>
<!-- Node12 -->
<g id="node13" class="node">
<title>Node12</title>
<g id="a_node13"><a xlink:href="classnobuiltins_1_1NoBuiltinsRegistry.html" target="_top" xlink:title=" ">
<polygon fill="white" stroke="black" points="518.5,-85.5 518.5,-104.5 679.5,-104.5 679.5,-85.5 518.5,-85.5"/>
<text text-anchor="middle" x="599" y="-92.5" font-family="Helvetica,sans-Serif" font-size="10.00">nobuiltins::NoBuiltinsRegistry</text>
</a>
</g>
</g>
<!-- Node2&#45;&gt;Node12 -->
<g id="edge12" class="edge">
<title>Node2&#45;&gt;Node12</title>
<path fill="none" stroke="midnightblue" d="M491.19,-105.82C500.18,-104.91 509.34,-103.98 518.33,-103.07"/>
<polygon fill="midnightblue" stroke="midnightblue" points="490.71,-102.35 481.12,-106.84 491.42,-109.32 490.71,-102.35"/>
</g>
<!-- Node4 -->
<g id="node5" class="node">
<title>Node4</title>
<g id="a_node5"><a xlink:href="classccf_1_1ACMERpcEndpoints.html" target="_top" xlink:title=" ">
<polygon fill="white" stroke="black" points="722.5,-180.5 722.5,-199.5 853.5,-199.5 853.5,-180.5 722.5,-180.5"/>
<text text-anchor="middle" x="788" y="-187.5" font-family="Helvetica,sans-Serif" font-size="10.00">ccf::ACMERpcEndpoints</text>
</a>
</g>
</g>
<!-- Node3&#45;&gt;Node4 -->
<g id="edge4" class="edge">
<title>Node3&#45;&gt;Node4</title>
<path fill="none" stroke="midnightblue" d="M637.9,-145.83C660.73,-153.43 690.43,-163.09 717,-171 727.86,-174.24 739.74,-177.54 750.57,-180.48"/>
<polygon fill="midnightblue" stroke="midnightblue" points="638.84,-142.45 628.25,-142.6 636.62,-149.09 638.84,-142.45"/>
</g>
<!-- Node5 -->
<g id="node6" class="node">
<title>Node5</title>
<g id="a_node6"><a xlink:href="classccf_1_1MemberEndpoints.html" target="_top" xlink:title=" ">
<polygon fill="white" stroke="black" points="725.5,-142.5 725.5,-161.5 850.5,-161.5 850.5,-142.5 725.5,-142.5"/>
<text text-anchor="middle" x="788" y="-149.5" font-family="Helvetica,sans-Serif" font-size="10.00">ccf::MemberEndpoints</text>
</a>
</g>
</g>
<!-- Node3&#45;&gt;Node5 -->
<g id="edge5" class="edge">
<title>Node3&#45;&gt;Node5</title>
<path fill="none" stroke="midnightblue" d="M691.3,-142.28C702.82,-143.45 714.39,-144.62 725.3,-145.73"/>
<polygon fill="midnightblue" stroke="midnightblue" points="691.51,-138.78 681.21,-141.25 690.8,-145.74 691.51,-138.78"/>
</g>
<!-- Node6 -->
<g id="node7" class="node">
<title>Node6</title>
<g id="a_node7"><a xlink:href="classccf_1_1NodeEndpoints.html" target="_top" xlink:title=" ">
<polygon fill="white" stroke="black" points="733,-104.5 733,-123.5 843,-123.5 843,-104.5 733,-104.5"/>
<text text-anchor="middle" x="788" y="-111.5" font-family="Helvetica,sans-Serif" font-size="10.00">ccf::NodeEndpoints</text>
</a>
</g>
</g>
<!-- Node3&#45;&gt;Node6 -->
<g id="edge6" class="edge">
<title>Node3&#45;&gt;Node6</title>
<path fill="none" stroke="midnightblue" d="M691.48,-123.71C705.62,-122.27 719.83,-120.83 732.8,-119.51"/>
<polygon fill="midnightblue" stroke="midnightblue" points="690.8,-120.26 681.21,-124.75 691.51,-127.22 690.8,-120.26"/>
</g>
<!-- Node7 -->
<g id="node8" class="node">
<title>Node7</title>
<g id="a_node8"><a xlink:href="classccf_1_1UserEndpointRegistry.html" target="_top" xlink:title=" ">
<polygon fill="white" stroke="black" points="717,-66.5 717,-85.5 859,-85.5 859,-66.5 717,-66.5"/>
<text text-anchor="middle" x="788" y="-73.5" font-family="Helvetica,sans-Serif" font-size="10.00">ccf::UserEndpointRegistry</text>
</a>
</g>
</g>
<!-- Node3&#45;&gt;Node7 -->
<g id="edge7" class="edge">
<title>Node3&#45;&gt;Node7</title>
<path fill="none" stroke="midnightblue" d="M659.72,-120.83C666.97,-118.81 674.21,-116.54 681,-114 697.94,-107.66 700.17,-101.63 717,-95 726.14,-91.4 736.21,-88.23 745.79,-85.56"/>
<polygon fill="midnightblue" stroke="midnightblue" points="658.64,-117.49 649.86,-123.42 660.42,-124.26 658.64,-117.49"/>
</g>
<!-- Node8 -->
<g id="node9" class="node">
<title>Node8</title>
<g id="a_node9"><a xlink:href="classccfapp_1_1JSHandlers.html" target="_top" xlink:title=" ">
<polygon fill="white" stroke="black" points="918,-126.5 918,-145.5 1025,-145.5 1025,-126.5 918,-126.5"/>
<text text-anchor="middle" x="971.5" y="-133.5" font-family="Helvetica,sans-Serif" font-size="10.00">ccfapp::JSHandlers</text>
</a>
</g>
</g>
<!-- Node7&#45;&gt;Node8 -->
<g id="edge8" class="edge">
<title>Node7&#45;&gt;Node8</title>
<path fill="none" stroke="midnightblue" d="M841.77,-88.58C847.67,-90.5 853.52,-92.64 859,-95 876.22,-102.42 877.71,-109.74 895,-117 903.85,-120.72 913.6,-123.83 923.06,-126.39"/>
<polygon fill="midnightblue" stroke="midnightblue" points="842.44,-85.13 831.86,-85.56 840.4,-91.83 842.44,-85.13"/>
</g>
<!-- Node9 -->
<g id="node10" class="node">
<title>Node9</title>
<g id="a_node10"><a xlink:href="classccfapp_1_1TpccHandlers.html" target="_top" xlink:title=" ">
<polygon fill="white" stroke="black" points="911,-88.5 911,-107.5 1032,-107.5 1032,-88.5 911,-88.5"/>
<text text-anchor="middle" x="971.5" y="-95.5" font-family="Helvetica,sans-Serif" font-size="10.00">ccfapp::TpccHandlers</text>
</a>
</g>
</g>
<!-- Node7&#45;&gt;Node9 -->
<g id="edge9" class="edge">
<title>Node7&#45;&gt;Node9</title>
<path fill="none" stroke="midnightblue" d="M869.27,-85.73C883.23,-87.42 897.54,-89.16 910.83,-90.77"/>
<polygon fill="midnightblue" stroke="midnightblue" points="869.52,-82.23 859.17,-84.51 868.68,-89.18 869.52,-82.23"/>
</g>
<!-- Node10 -->
<g id="node11" class="node">
<title>Node10</title>
<g id="a_node11"><a xlink:href="classexternalexecutor_1_1EndpointRegistry.html" target="_top" xlink:title=" ">
<polygon fill="white" stroke="black" points="897.5,-39 897.5,-69 1045.5,-69 1045.5,-39 897.5,-39"/>
<text text-anchor="start" x="905.5" y="-57" font-family="Helvetica,sans-Serif" font-size="10.00">externalexecutor::Endpoint</text>
<text text-anchor="middle" x="971.5" y="-46" font-family="Helvetica,sans-Serif" font-size="10.00">Registry</text>
</a>
</g>
</g>
<!-- Node7&#45;&gt;Node10 -->
<g id="edge10" class="edge">
<title>Node7&#45;&gt;Node10</title>
<path fill="none" stroke="midnightblue" d="M869.21,-66.28C878.52,-65.15 887.99,-64 897.21,-62.88"/>
<polygon fill="midnightblue" stroke="midnightblue" points="868.68,-62.82 859.17,-67.49 869.52,-69.77 868.68,-62.82"/>
</g>
<!-- Node11 -->
<g id="node12" class="node">
<title>Node11</title>
<g id="a_node12"><a xlink:href="classloggingapp_1_1LoggerHandlers.html" target="_top" xlink:title=" ">
<polygon fill="white" stroke="black" points="895,-0.5 895,-19.5 1048,-19.5 1048,-0.5 895,-0.5"/>
<text text-anchor="middle" x="971.5" y="-7.5" font-family="Helvetica,sans-Serif" font-size="10.00">loggingapp::LoggerHandlers</text>
</a>
</g>
</g>
<!-- Node7&#45;&gt;Node11 -->
<g id="edge11" class="edge">
<title>Node7&#45;&gt;Node11</title>
<path fill="none" stroke="midnightblue" d="M817.16,-61.93C838.23,-51.8 867.93,-38.33 895,-29 905.22,-25.48 916.43,-22.3 927.01,-19.6"/>
<polygon fill="midnightblue" stroke="midnightblue" points="815.6,-58.8 808.14,-66.32 818.66,-65.09 815.6,-58.8"/>
</g>
</g>
</svg>
