<?xml version="1.0" encoding="UTF-8" standalone="no"?>
<!DOCTYPE svg PUBLIC "-//W3C//DTD SVG 1.1//EN"
 "http://www.w3.org/Graphics/SVG/1.1/DTD/svg11.dtd">
<!-- Generated by graphviz version 2.43.0 (0)
 -->
<!-- Title: include/ccf/json_handler.h Pages: 1 -->
<svg width="1047pt" height="386pt"
 viewBox="0.00 0.00 1046.50 386.00" xmlns="http://www.w3.org/2000/svg" xmlns:xlink="http://www.w3.org/1999/xlink">
<g id="graph0" class="graph" transform="scale(1 1) rotate(0) translate(4 382)">
<title>include/ccf/json_handler.h</title>
<polygon fill="white" stroke="transparent" points="-4,4 -4,-382 1042.5,-382 1042.5,4 -4,4"/>
<!-- Node1 -->
<g id="node1" class="node">
<title>Node1</title>
<g id="a_node1"><a xlink:title=" ">
<polygon fill="#bfbfbf" stroke="black" points="453,-358.5 453,-377.5 596,-377.5 596,-358.5 453,-358.5"/>
<text text-anchor="middle" x="524.5" y="-365.5" font-family="Helvetica,sans-Serif" font-size="10.00">include/ccf/json_handler.h</text>
</a>
</g>
</g>
<!-- Node2 -->
<g id="node2" class="node">
<title>Node2</title>
<g id="a_node2"><a xlink:href="logging_8cpp.html" target="_top" xlink:title=" ">
<polygon fill="white" stroke="black" points="0,-291.5 0,-321.5 123,-321.5 123,-291.5 0,-291.5"/>
<text text-anchor="start" x="8" y="-309.5" font-family="Helvetica,sans-Serif" font-size="10.00">samples/apps/logging</text>
<text text-anchor="middle" x="61.5" y="-298.5" font-family="Helvetica,sans-Serif" font-size="10.00">/logging.cpp</text>
</a>
</g>
</g>
<!-- Node1&#45;&gt;Node2 -->
<g id="edge1" class="edge">
<title>Node1&#45;&gt;Node2</title>
<path fill="none" stroke="midnightblue" d="M442.91,-359.82C363.22,-352.3 238.63,-339.19 131.5,-322 128.8,-321.57 126.05,-321.1 123.28,-320.61"/>
<polygon fill="midnightblue" stroke="midnightblue" points="442.6,-363.31 452.88,-360.76 443.25,-356.34 442.6,-363.31"/>
</g>
<!-- Node3 -->
<g id="node3" class="node">
<title>Node3</title>
<g id="a_node3"><a xlink:href="nobuiltins_8cpp.html" target="_top" xlink:title=" ">
<polygon fill="white" stroke="black" points="141,-291.5 141,-321.5 276,-321.5 276,-291.5 141,-291.5"/>
<text text-anchor="start" x="149" y="-309.5" font-family="Helvetica,sans-Serif" font-size="10.00">samples/apps/nobuiltins</text>
<text text-anchor="middle" x="208.5" y="-298.5" font-family="Helvetica,sans-Serif" font-size="10.00">/nobuiltins.cpp</text>
</a>
</g>
</g>
<!-- Node1&#45;&gt;Node3 -->
<g id="edge2" class="edge">
<title>Node1&#45;&gt;Node3</title>
<path fill="none" stroke="midnightblue" d="M469.19,-356.59C415.43,-346.46 333.67,-331.07 276.08,-320.22"/>
<polygon fill="midnightblue" stroke="midnightblue" points="468.75,-360.06 479.22,-358.48 470.05,-353.19 468.75,-360.06"/>
</g>
<!-- Node4 -->
<g id="node4" class="node">
<title>Node4</title>
<g id="a_node4"><a xlink:href="external__executor_8cpp.html" target="_top" xlink:title=" ">
<polygon fill="white" stroke="black" points="294.5,-291.5 294.5,-321.5 442.5,-321.5 442.5,-291.5 294.5,-291.5"/>
<text text-anchor="start" x="302.5" y="-309.5" font-family="Helvetica,sans-Serif" font-size="10.00">src/apps/external_executor</text>
<text text-anchor="middle" x="368.5" y="-298.5" font-family="Helvetica,sans-Serif" font-size="10.00">/external_executor.cpp</text>
</a>
</g>
</g>
<!-- Node1&#45;&gt;Node4 -->
<g id="edge3" class="edge">
<title>Node1&#45;&gt;Node4</title>
<path fill="none" stroke="midnightblue" d="M492.64,-354.85C467.3,-345.18 431.81,-331.65 405.27,-321.52"/>
<polygon fill="midnightblue" stroke="midnightblue" points="491.56,-358.18 502.15,-358.48 494.05,-351.64 491.56,-358.18"/>
</g>
<!-- Node5 -->
<g id="node5" class="node">
<title>Node5</title>
<g id="a_node5"><a xlink:href="common__endpoint__registry_8cpp.html" target="_top" xlink:title=" ">
<polygon fill="white" stroke="black" points="460.5,-291.5 460.5,-321.5 588.5,-321.5 588.5,-291.5 460.5,-291.5"/>
<text text-anchor="start" x="468.5" y="-309.5" font-family="Helvetica,sans-Serif" font-size="10.00">src/endpoints/common</text>
<text text-anchor="middle" x="524.5" y="-298.5" font-family="Helvetica,sans-Serif" font-size="10.00">_endpoint_registry.cpp</text>
</a>
</g>
</g>
<!-- Node1&#45;&gt;Node5 -->
<g id="edge4" class="edge">
<title>Node1&#45;&gt;Node5</title>
<path fill="none" stroke="midnightblue" d="M524.5,-348.23C524.5,-339.59 524.5,-329.5 524.5,-321.52"/>
<polygon fill="midnightblue" stroke="midnightblue" points="521,-348.48 524.5,-358.48 528,-348.48 521,-348.48"/>
</g>
<!-- Node6 -->
<g id="node6" class="node">
<title>Node6</title>
<g id="a_node6"><a xlink:href="json__handler_8cpp.html" target="_top" xlink:title=" ">
<polygon fill="white" stroke="black" points="607,-291.5 607,-321.5 712,-321.5 712,-291.5 607,-291.5"/>
<text text-anchor="start" x="615" y="-309.5" font-family="Helvetica,sans-Serif" font-size="10.00">src/endpoints/json</text>
<text text-anchor="middle" x="659.5" y="-298.5" font-family="Helvetica,sans-Serif" font-size="10.00">_handler.cpp</text>
</a>
</g>
</g>
<!-- Node1&#45;&gt;Node6 -->
<g id="edge5" class="edge">
<title>Node1&#45;&gt;Node6</title>
<path fill="none" stroke="midnightblue" d="M553.25,-354.33C575.09,-344.7 605.12,-331.47 627.68,-321.52"/>
<polygon fill="midnightblue" stroke="midnightblue" points="551.58,-351.24 543.84,-358.48 554.4,-357.64 551.58,-351.24"/>
</g>
<!-- Node7 -->
<g id="node7" class="node">
<title>Node7</title>
<g id="a_node7"><a xlink:href="member__frontend_8h.html" target="_top" xlink:title=" ">
<polygon fill="white" stroke="black" points="680.5,-224.5 680.5,-254.5 800.5,-254.5 800.5,-224.5 680.5,-224.5"/>
<text text-anchor="start" x="688.5" y="-242.5" font-family="Helvetica,sans-Serif" font-size="10.00">src/node/rpc/member</text>
<text text-anchor="middle" x="740.5" y="-231.5" font-family="Helvetica,sans-Serif" font-size="10.00">_frontend.h</text>
</a>
</g>
</g>
<!-- Node1&#45;&gt;Node7 -->
<g id="edge6" class="edge">
<title>Node1&#45;&gt;Node7</title>
<path fill="none" stroke="midnightblue" d="M606.29,-356.95C652.44,-349.64 704.08,-338.18 720.5,-322 738.56,-304.21 741.31,-272.95 741.22,-254.75"/>
<polygon fill="midnightblue" stroke="midnightblue" points="605.59,-353.51 596.24,-358.49 606.65,-360.43 605.59,-353.51"/>
</g>
<!-- Node10 -->
<g id="node10" class="node">
<title>Node10</title>
<g id="a_node10"><a xlink:href="node__frontend_8h.html" target="_top" xlink:title=" ">
<polygon fill="white" stroke="black" points="768.5,-297 768.5,-316 926.5,-316 926.5,-297 768.5,-297"/>
<text text-anchor="middle" x="847.5" y="-304" font-family="Helvetica,sans-Serif" font-size="10.00">src/node/rpc/node_frontend.h</text>
</a>
</g>
</g>
<!-- Node1&#45;&gt;Node10 -->
<g id="edge9" class="edge">
<title>Node1&#45;&gt;Node10</title>
<path fill="none" stroke="midnightblue" d="M580.87,-356.62C643.42,-345.09 743.18,-326.72 801.31,-316.01"/>
<polygon fill="midnightblue" stroke="midnightblue" points="579.98,-353.22 570.78,-358.48 581.25,-360.11 579.98,-353.22"/>
</g>
<!-- Node8 -->
<g id="node8" class="node">
<title>Node8</title>
<g id="a_node8"><a xlink:href="src_2enclave_2enclave_8h.html" target="_top" xlink:title=" ">
<polygon fill="white" stroke="black" points="786.5,-56.5 786.5,-75.5 908.5,-75.5 908.5,-56.5 786.5,-56.5"/>
<text text-anchor="middle" x="847.5" y="-63.5" font-family="Helvetica,sans-Serif" font-size="10.00">src/enclave/enclave.h</text>
</a>
</g>
</g>
<!-- Node7&#45;&gt;Node8 -->
<g id="edge7" class="edge">
<title>Node7&#45;&gt;Node8</title>
<path fill="none" stroke="midnightblue" d="M753.19,-215.18C767.4,-189.46 791.47,-147.08 814.5,-112 823.01,-99.04 833.77,-84.7 840.65,-75.77"/>
<polygon fill="midnightblue" stroke="midnightblue" points="750,-213.72 748.25,-224.17 756.13,-217.09 750,-213.72"/>
</g>
<!-- Node9 -->
<g id="node9" class="node">
<title>Node9</title>
<g id="a_node9"><a xlink:href="enclave_2main_8cpp.html" target="_top" xlink:title=" ">
<polygon fill="white" stroke="black" points="787.5,-0.5 787.5,-19.5 907.5,-19.5 907.5,-0.5 787.5,-0.5"/>
<text text-anchor="middle" x="847.5" y="-7.5" font-family="Helvetica,sans-Serif" font-size="10.00">src/enclave/main.cpp</text>
</a>
</g>
</g>
<!-- Node8&#45;&gt;Node9 -->
<g id="edge8" class="edge">
<title>Node8&#45;&gt;Node9</title>
<path fill="none" stroke="midnightblue" d="M847.5,-45.8C847.5,-36.91 847.5,-26.78 847.5,-19.75"/>
<polygon fill="midnightblue" stroke="midnightblue" points="844,-46.08 847.5,-56.08 851,-46.08 844,-46.08"/>
</g>
<!-- Node10&#45;&gt;Node8 -->
<g id="edge10" class="edge">
<title>Node10&#45;&gt;Node8</title>
<path fill="none" stroke="midnightblue" d="M847.5,-286.67C847.5,-238.1 847.5,-109.99 847.5,-75.6"/>
<polygon fill="midnightblue" stroke="midnightblue" points="844,-286.73 847.5,-296.73 851,-286.73 844,-286.73"/>
</g>
<!-- Node11 -->
<g id="node11" class="node">
<title>Node11</title>
<g id="a_node11"><a xlink:href="jwt__key__auto__refresh_8h.html" target="_top" xlink:title=" ">
<polygon fill="white" stroke="black" points="857,-224.5 857,-254.5 982,-254.5 982,-224.5 857,-224.5"/>
<text text-anchor="start" x="865" y="-242.5" font-family="Helvetica,sans-Serif" font-size="10.00">src/node/jwt_key_auto</text>
<text text-anchor="middle" x="919.5" y="-231.5" font-family="Helvetica,sans-Serif" font-size="10.00">_refresh.h</text>
</a>
</g>
</g>
<!-- Node10&#45;&gt;Node11 -->
<g id="edge11" class="edge">
<title>Node10&#45;&gt;Node11</title>
<path fill="none" stroke="midnightblue" d="M864.75,-289.93C876.66,-279.18 892.36,-265 903.89,-254.59"/>
<polygon fill="midnightblue" stroke="midnightblue" points="862.29,-287.43 857.21,-296.73 866.98,-292.63 862.29,-287.43"/>
</g>
<!-- Node12 -->
<g id="node12" class="node">
<title>Node12</title>
<g id="a_node12"><a xlink:href="node__state_8h.html" target="_top" xlink:title=" ">
<polygon fill="white" stroke="black" points="857.5,-168.5 857.5,-187.5 981.5,-187.5 981.5,-168.5 857.5,-168.5"/>
<text text-anchor="middle" x="919.5" y="-175.5" font-family="Helvetica,sans-Serif" font-size="10.00">src/node/node_state.h</text>
</a>
</g>
</g>
<!-- Node11&#45;&gt;Node12 -->
<g id="edge12" class="edge">
<title>Node11&#45;&gt;Node12</title>
<path fill="none" stroke="midnightblue" d="M919.5,-214.29C919.5,-204.86 919.5,-194.65 919.5,-187.66"/>
<polygon fill="midnightblue" stroke="midnightblue" points="916,-214.4 919.5,-224.4 923,-214.4 916,-214.4"/>
</g>
<!-- Node12&#45;&gt;Node8 -->
<g id="edge13" class="edge">
<title>Node12&#45;&gt;Node8</title>
<path fill="none" stroke="midnightblue" d="M906.02,-160.14C899.57,-151.84 891.88,-141.57 885.5,-132 872.45,-112.42 858.96,-88.24 852.11,-75.61"/>
<polygon fill="midnightblue" stroke="midnightblue" points="903.47,-162.57 912.41,-168.26 908.97,-158.24 903.47,-162.57"/>
</g>
<!-- Node13 -->
<g id="node13" class="node">
<title>Node13</title>
<g id="a_node13"><a xlink:href="gov__effects_8h.html" target="_top" xlink:title=" ">
<polygon fill="white" stroke="black" points="894.5,-112.5 894.5,-131.5 1038.5,-131.5 1038.5,-112.5 894.5,-112.5"/>
<text text-anchor="middle" x="966.5" y="-119.5" font-family="Helvetica,sans-Serif" font-size="10.00">src/node/rpc/gov_effects.h</text>
</a>
</g>
</g>
<!-- Node12&#45;&gt;Node13 -->
<g id="edge14" class="edge">
<title>Node12&#45;&gt;Node13</title>
<path fill="none" stroke="midnightblue" d="M933.92,-160.43C942.16,-150.97 952.15,-139.48 958.88,-131.75"/>
<polygon fill="midnightblue" stroke="midnightblue" points="931.19,-158.24 927.26,-168.08 936.47,-162.84 931.19,-158.24"/>
</g>
<!-- Node13&#45;&gt;Node8 -->
<g id="edge15" class="edge">
<title>Node13&#45;&gt;Node8</title>
<path fill="none" stroke="midnightblue" d="M938.36,-108.23C916.1,-98.13 885.64,-84.31 866.27,-75.52"/>
<polygon fill="midnightblue" stroke="midnightblue" points="937.09,-111.5 947.64,-112.44 939.98,-105.12 937.09,-111.5"/>
</g>
</g>
</svg>
