<?xml version="1.0" encoding="UTF-8" standalone="no"?>
<!DOCTYPE svg PUBLIC "-//W3C//DTD SVG 1.1//EN"
 "http://www.w3.org/Graphics/SVG/1.1/DTD/svg11.dtd">
<!-- Generated by graphviz version 2.43.0 (0)
 -->
<!-- Title: include/ccf/service/tables/jwt.h Pages: 1 -->
<svg width="2094pt" height="531pt"
 viewBox="0.00 0.00 2093.50 531.00" xmlns="http://www.w3.org/2000/svg" xmlns:xlink="http://www.w3.org/1999/xlink">
<g id="graph0" class="graph" transform="scale(1 1) rotate(0) translate(4 527)">
<title>include/ccf/service/tables/jwt.h</title>
<polygon fill="white" stroke="transparent" points="-4,4 -4,-527 2089.5,-527 2089.5,4 -4,4"/>
<!-- Node1 -->
<g id="node1" class="node">
<title>Node1</title>
<g id="a_node1"><a xlink:title=" ">
<polygon fill="#bfbfbf" stroke="black" points="816,-492.5 816,-522.5 923,-522.5 923,-492.5 816,-492.5"/>
<text text-anchor="start" x="824" y="-510.5" font-family="Helvetica,sans-Serif" font-size="10.00">include/ccf/service</text>
<text text-anchor="middle" x="869.5" y="-499.5" font-family="Helvetica,sans-Serif" font-size="10.00">/tables/jwt.h</text>
</a>
</g>
</g>
<!-- Node2 -->
<g id="node2" class="node">
<title>Node2</title>
<g id="a_node2"><a xlink:href="jwt__auth_8cpp.html" target="_top" xlink:title=" ">
<polygon fill="white" stroke="black" points="0,-425.5 0,-455.5 155,-455.5 155,-425.5 0,-425.5"/>
<text text-anchor="start" x="8" y="-443.5" font-family="Helvetica,sans-Serif" font-size="10.00">src/endpoints/authentication</text>
<text text-anchor="middle" x="77.5" y="-432.5" font-family="Helvetica,sans-Serif" font-size="10.00">/jwt_auth.cpp</text>
</a>
</g>
</g>
<!-- Node1&#45;&gt;Node2 -->
<g id="edge1" class="edge">
<title>Node1&#45;&gt;Node2</title>
<path fill="none" stroke="midnightblue" d="M805.77,-503.7C682.56,-497.9 403.21,-482.8 169.5,-456 164.84,-455.47 160.06,-454.87 155.24,-454.22"/>
<polygon fill="midnightblue" stroke="midnightblue" points="805.63,-507.2 815.79,-504.17 805.96,-500.21 805.63,-507.2"/>
</g>
<!-- Node3 -->
<g id="node3" class="node">
<title>Node3</title>
<g id="a_node3"><a xlink:href="wrap_8cpp.html" target="_top" xlink:title=" ">
<polygon fill="white" stroke="black" points="1831,-168.5 1831,-187.5 1920,-187.5 1920,-168.5 1831,-168.5"/>
<text text-anchor="middle" x="1875.5" y="-175.5" font-family="Helvetica,sans-Serif" font-size="10.00">src/js/wrap.cpp</text>
</a>
</g>
</g>
<!-- Node1&#45;&gt;Node3 -->
<g id="edge2" class="edge">
<title>Node1&#45;&gt;Node3</title>
<path fill="none" stroke="midnightblue" d="M933.35,-506.34C1183.82,-504.89 2085.5,-491.53 2085.5,-374.5 2085.5,-374.5 2085.5,-374.5 2085.5,-305.5 2085.5,-265.15 2076.71,-249.58 2045.5,-224 2009.96,-194.87 1957.46,-184.44 1920.21,-180.79"/>
<polygon fill="midnightblue" stroke="midnightblue" points="933.3,-502.84 923.32,-506.39 933.34,-509.84 933.3,-502.84"/>
</g>
<!-- Node4 -->
<g id="node4" class="node">
<title>Node4</title>
<g id="a_node4"><a xlink:href="jwt__key__auto__refresh_8h.html" target="_top" xlink:title=" ">
<polygon fill="white" stroke="black" points="940,-224.5 940,-254.5 1065,-254.5 1065,-224.5 940,-224.5"/>
<text text-anchor="start" x="948" y="-242.5" font-family="Helvetica,sans-Serif" font-size="10.00">src/node/jwt_key_auto</text>
<text text-anchor="middle" x="1002.5" y="-231.5" font-family="Helvetica,sans-Serif" font-size="10.00">_refresh.h</text>
</a>
</g>
</g>
<!-- Node1&#45;&gt;Node4 -->
<g id="edge3" class="edge">
<title>Node1&#45;&gt;Node4</title>
<path fill="none" stroke="midnightblue" d="M933.02,-497.26C1021.47,-480.45 1177.41,-435.44 1235.5,-322 1241.78,-309.74 1244.15,-301.72 1235.5,-291 1224.75,-277.67 1130.52,-260.47 1065.24,-249.97"/>
<polygon fill="midnightblue" stroke="midnightblue" points="932.3,-493.84 923.1,-499.08 933.57,-500.72 932.3,-493.84"/>
</g>
<!-- Node9 -->
<g id="node9" class="node">
<title>Node9</title>
<g id="a_node9"><a xlink:href="frontend_8h.html" target="_top" xlink:title=" ">
<polygon fill="white" stroke="black" points="401,-364 401,-383 530,-383 530,-364 401,-364"/>
<text text-anchor="middle" x="465.5" y="-371" font-family="Helvetica,sans-Serif" font-size="10.00">src/node/rpc/frontend.h</text>
</a>
</g>
</g>
<!-- Node1&#45;&gt;Node9 -->
<g id="edge9" class="edge">
<title>Node1&#45;&gt;Node9</title>
<path fill="none" stroke="midnightblue" d="M816.93,-489.32C729.57,-460.78 557.58,-404.59 491.87,-383.12"/>
<polygon fill="midnightblue" stroke="midnightblue" points="816.05,-492.72 826.65,-492.5 818.23,-486.07 816.05,-492.72"/>
</g>
<!-- Node12 -->
<g id="node12" class="node">
<title>Node12</title>
<g id="a_node12"><a xlink:href="member__frontend_8h.html" target="_top" xlink:title=" ">
<polygon fill="white" stroke="black" points="161.5,-224.5 161.5,-254.5 281.5,-254.5 281.5,-224.5 161.5,-224.5"/>
<text text-anchor="start" x="169.5" y="-242.5" font-family="Helvetica,sans-Serif" font-size="10.00">src/node/rpc/member</text>
<text text-anchor="middle" x="221.5" y="-231.5" font-family="Helvetica,sans-Serif" font-size="10.00">_frontend.h</text>
</a>
</g>
</g>
<!-- Node1&#45;&gt;Node12 -->
<g id="edge25" class="edge">
<title>Node1&#45;&gt;Node12</title>
<path fill="none" stroke="midnightblue" d="M806.08,-494.54C757.1,-485 687.74,-470.82 627.5,-456 444.21,-410.92 333.1,-476.38 224.5,-322 210.49,-302.08 213.95,-272.14 217.73,-254.63"/>
<polygon fill="midnightblue" stroke="midnightblue" points="805.42,-497.98 815.91,-496.45 806.76,-491.11 805.42,-497.98"/>
</g>
<!-- Node15 -->
<g id="node15" class="node">
<title>Node15</title>
<g id="a_node15"><a xlink:href="jwt__management_8h.html" target="_top" xlink:title=" ">
<polygon fill="white" stroke="black" points="1322,-364 1322,-383 1495,-383 1495,-364 1322,-364"/>
<text text-anchor="middle" x="1408.5" y="-371" font-family="Helvetica,sans-Serif" font-size="10.00">src/node/rpc/jwt_management.h</text>
</a>
</g>
</g>
<!-- Node1&#45;&gt;Node15 -->
<g id="edge22" class="edge">
<title>Node1&#45;&gt;Node15</title>
<path fill="none" stroke="midnightblue" d="M933.38,-503.5C1038.16,-497.86 1241.48,-483.67 1307.5,-456 1348.23,-438.93 1385.8,-400.22 1401.17,-383.02"/>
<polygon fill="midnightblue" stroke="midnightblue" points="933.05,-500.02 923.25,-504.04 933.42,-507.01 933.05,-500.02"/>
</g>
<!-- Node16 -->
<g id="node16" class="node">
<title>Node16</title>
<g id="a_node16"><a xlink:href="network__tables_8h.html" target="_top" xlink:title=" ">
<polygon fill="white" stroke="black" points="813.5,-425.5 813.5,-455.5 925.5,-455.5 925.5,-425.5 813.5,-425.5"/>
<text text-anchor="start" x="821.5" y="-443.5" font-family="Helvetica,sans-Serif" font-size="10.00">src/service/network</text>
<text text-anchor="middle" x="869.5" y="-432.5" font-family="Helvetica,sans-Serif" font-size="10.00">_tables.h</text>
</a>
</g>
</g>
<!-- Node1&#45;&gt;Node16 -->
<g id="edge26" class="edge">
<title>Node1&#45;&gt;Node16</title>
<path fill="none" stroke="midnightblue" d="M869.5,-482.11C869.5,-473.15 869.5,-463.32 869.5,-455.58"/>
<polygon fill="midnightblue" stroke="midnightblue" points="866,-482.4 869.5,-492.4 873,-482.4 866,-482.4"/>
</g>
<!-- Node5 -->
<g id="node5" class="node">
<title>Node5</title>
<g id="a_node5"><a xlink:href="node__state_8h.html" target="_top" xlink:title=" ">
<polygon fill="white" stroke="black" points="901.5,-168.5 901.5,-187.5 1025.5,-187.5 1025.5,-168.5 901.5,-168.5"/>
<text text-anchor="middle" x="963.5" y="-175.5" font-family="Helvetica,sans-Serif" font-size="10.00">src/node/node_state.h</text>
</a>
</g>
</g>
<!-- Node4&#45;&gt;Node5 -->
<g id="edge4" class="edge">
<title>Node4&#45;&gt;Node5</title>
<path fill="none" stroke="midnightblue" d="M987.62,-215.8C981.17,-205.96 974.01,-195.03 969.17,-187.66"/>
<polygon fill="midnightblue" stroke="midnightblue" points="984.85,-217.95 993.26,-224.4 990.7,-214.12 984.85,-217.95"/>
</g>
<!-- Node6 -->
<g id="node6" class="node">
<title>Node6</title>
<g id="a_node6"><a xlink:href="src_2enclave_2enclave_8h.html" target="_top" xlink:title=" ">
<polygon fill="white" stroke="black" points="831.5,-56.5 831.5,-75.5 953.5,-75.5 953.5,-56.5 831.5,-56.5"/>
<text text-anchor="middle" x="892.5" y="-63.5" font-family="Helvetica,sans-Serif" font-size="10.00">src/enclave/enclave.h</text>
</a>
</g>
</g>
<!-- Node5&#45;&gt;Node6 -->
<g id="edge5" class="edge">
<title>Node5&#45;&gt;Node6</title>
<path fill="none" stroke="midnightblue" d="M950.46,-160.09C944.21,-151.78 936.75,-141.52 930.5,-132 917.59,-112.33 904.05,-88.19 897.14,-75.58"/>
<polygon fill="midnightblue" stroke="midnightblue" points="947.81,-162.39 956.65,-168.23 953.38,-158.15 947.81,-162.39"/>
</g>
<!-- Node8 -->
<g id="node8" class="node">
<title>Node8</title>
<g id="a_node8"><a xlink:href="gov__effects_8h.html" target="_top" xlink:title=" ">
<polygon fill="white" stroke="black" points="939.5,-112.5 939.5,-131.5 1083.5,-131.5 1083.5,-112.5 939.5,-112.5"/>
<text text-anchor="middle" x="1011.5" y="-119.5" font-family="Helvetica,sans-Serif" font-size="10.00">src/node/rpc/gov_effects.h</text>
</a>
</g>
</g>
<!-- Node5&#45;&gt;Node8 -->
<g id="edge7" class="edge">
<title>Node5&#45;&gt;Node8</title>
<path fill="none" stroke="midnightblue" d="M978.23,-160.43C986.64,-150.97 996.85,-139.48 1003.72,-131.75"/>
<polygon fill="midnightblue" stroke="midnightblue" points="975.45,-158.28 971.43,-168.08 980.69,-162.93 975.45,-158.28"/>
</g>
<!-- Node7 -->
<g id="node7" class="node">
<title>Node7</title>
<g id="a_node7"><a xlink:href="enclave_2main_8cpp.html" target="_top" xlink:title=" ">
<polygon fill="white" stroke="black" points="832.5,-0.5 832.5,-19.5 952.5,-19.5 952.5,-0.5 832.5,-0.5"/>
<text text-anchor="middle" x="892.5" y="-7.5" font-family="Helvetica,sans-Serif" font-size="10.00">src/enclave/main.cpp</text>
</a>
</g>
</g>
<!-- Node6&#45;&gt;Node7 -->
<g id="edge6" class="edge">
<title>Node6&#45;&gt;Node7</title>
<path fill="none" stroke="midnightblue" d="M892.5,-45.8C892.5,-36.91 892.5,-26.78 892.5,-19.75"/>
<polygon fill="midnightblue" stroke="midnightblue" points="889,-46.08 892.5,-56.08 896,-46.08 889,-46.08"/>
</g>
<!-- Node8&#45;&gt;Node6 -->
<g id="edge8" class="edge">
<title>Node8&#45;&gt;Node6</title>
<path fill="none" stroke="midnightblue" d="M983.36,-108.23C961.1,-98.13 930.64,-84.31 911.27,-75.52"/>
<polygon fill="midnightblue" stroke="midnightblue" points="982.09,-111.5 992.64,-112.44 984.98,-105.12 982.09,-111.5"/>
</g>
<!-- Node9&#45;&gt;Node5 -->
<g id="edge14" class="edge">
<title>Node9&#45;&gt;Node5</title>
<path fill="none" stroke="midnightblue" d="M402.74,-361.77C350.42,-349.99 288.6,-327.72 316.5,-291 386.59,-198.76 753.22,-182.39 901.34,-179.56"/>
<polygon fill="midnightblue" stroke="midnightblue" points="402.19,-365.23 412.71,-363.91 403.67,-358.39 402.19,-365.23"/>
</g>
<!-- Node10 -->
<g id="node10" class="node">
<title>Node10</title>
<g id="a_node10"><a xlink:href="acme__challenge__frontend_8h.html" target="_top" xlink:title=" ">
<polygon fill="white" stroke="black" points="701.5,-291.5 701.5,-321.5 841.5,-321.5 841.5,-291.5 701.5,-291.5"/>
<text text-anchor="start" x="709.5" y="-309.5" font-family="Helvetica,sans-Serif" font-size="10.00">src/node/acme_challenge</text>
<text text-anchor="middle" x="771.5" y="-298.5" font-family="Helvetica,sans-Serif" font-size="10.00">_frontend.h</text>
</a>
</g>
</g>
<!-- Node9&#45;&gt;Node10 -->
<g id="edge10" class="edge">
<title>Node9&#45;&gt;Node10</title>
<path fill="none" stroke="midnightblue" d="M515.76,-361.82C567.51,-350.83 648.39,-333.65 705.31,-321.56"/>
<polygon fill="midnightblue" stroke="midnightblue" points="514.87,-358.43 505.82,-363.94 516.33,-365.28 514.87,-358.43"/>
</g>
<!-- Node9&#45;&gt;Node12 -->
<g id="edge15" class="edge">
<title>Node9&#45;&gt;Node12</title>
<path fill="none" stroke="midnightblue" d="M390.8,-363.5C335.55,-355.39 266.42,-341.69 245.5,-322 226.7,-304.31 222.39,-272.72 221.54,-254.5"/>
<polygon fill="midnightblue" stroke="midnightblue" points="390.54,-367 400.94,-364.95 391.53,-360.07 390.54,-367"/>
</g>
<!-- Node13 -->
<g id="node13" class="node">
<title>Node13</title>
<g id="a_node13"><a xlink:href="node__frontend_8h.html" target="_top" xlink:title=" ">
<polygon fill="white" stroke="black" points="897.5,-297 897.5,-316 1055.5,-316 1055.5,-297 897.5,-297"/>
<text text-anchor="middle" x="976.5" y="-304" font-family="Helvetica,sans-Serif" font-size="10.00">src/node/rpc/node_frontend.h</text>
</a>
</g>
</g>
<!-- Node9&#45;&gt;Node13 -->
<g id="edge17" class="edge">
<title>Node9&#45;&gt;Node13</title>
<path fill="none" stroke="midnightblue" d="M540.19,-363C639.64,-350.35 814.06,-328.16 909.47,-316.03"/>
<polygon fill="midnightblue" stroke="midnightblue" points="539.7,-359.53 530.22,-364.27 540.58,-366.48 539.7,-359.53"/>
</g>
<!-- Node14 -->
<g id="node14" class="node">
<title>Node14</title>
<g id="a_node14"><a xlink:href="user__frontend_8h.html" target="_top" xlink:title=" ">
<polygon fill="white" stroke="black" points="326,-297 326,-316 481,-316 481,-297 326,-297"/>
<text text-anchor="middle" x="403.5" y="-304" font-family="Helvetica,sans-Serif" font-size="10.00">src/node/rpc/user_frontend.h</text>
</a>
</g>
</g>
<!-- Node9&#45;&gt;Node14 -->
<g id="edge20" class="edge">
<title>Node9&#45;&gt;Node14</title>
<path fill="none" stroke="midnightblue" d="M450.24,-356.5C438.08,-343.75 421.52,-326.39 411.73,-316.13"/>
<polygon fill="midnightblue" stroke="midnightblue" points="447.7,-358.91 457.14,-363.73 452.77,-354.08 447.7,-358.91"/>
</g>
<!-- Node10&#45;&gt;Node6 -->
<g id="edge11" class="edge">
<title>Node10&#45;&gt;Node6</title>
<path fill="none" stroke="midnightblue" d="M722.04,-286.83C708.42,-279.14 695.27,-268.73 687.5,-255 680.72,-243.01 681.4,-236.35 687.5,-224 726.6,-144.81 826.92,-94.53 871.08,-75.56"/>
<polygon fill="midnightblue" stroke="midnightblue" points="720.53,-289.98 731.01,-291.5 723.76,-283.78 720.53,-289.98"/>
</g>
<!-- Node11 -->
<g id="node11" class="node">
<title>Node11</title>
<g id="a_node11"><a xlink:href="ccf__acme__client_8h.html" target="_top" xlink:title=" ">
<polygon fill="white" stroke="black" points="697,-230 697,-249 846,-249 846,-230 697,-230"/>
<text text-anchor="middle" x="771.5" y="-237" font-family="Helvetica,sans-Serif" font-size="10.00">src/node/ccf_acme_client.h</text>
</a>
</g>
</g>
<!-- Node10&#45;&gt;Node11 -->
<g id="edge12" class="edge">
<title>Node10&#45;&gt;Node11</title>
<path fill="none" stroke="midnightblue" d="M771.5,-281.25C771.5,-270.02 771.5,-257.38 771.5,-249.19"/>
<polygon fill="midnightblue" stroke="midnightblue" points="768,-281.4 771.5,-291.4 775,-281.4 768,-281.4"/>
</g>
<!-- Node11&#45;&gt;Node5 -->
<g id="edge13" class="edge">
<title>Node11&#45;&gt;Node5</title>
<path fill="none" stroke="midnightblue" d="M808.99,-226.88C846.31,-215.32 902.7,-197.84 936.04,-187.51"/>
<polygon fill="midnightblue" stroke="midnightblue" points="807.52,-223.67 799.01,-229.98 809.6,-230.36 807.52,-223.67"/>
</g>
<!-- Node12&#45;&gt;Node6 -->
<g id="edge16" class="edge">
<title>Node12&#45;&gt;Node6</title>
<path fill="none" stroke="midnightblue" d="M245.93,-217.81C282.08,-188.53 353.14,-135.91 423.5,-112 497.46,-86.87 722.13,-74.19 831.45,-69.37"/>
<polygon fill="midnightblue" stroke="midnightblue" points="243.44,-215.33 237.93,-224.38 247.88,-220.74 243.44,-215.33"/>
</g>
<!-- Node13&#45;&gt;Node4 -->
<g id="edge19" class="edge">
<title>Node13&#45;&gt;Node4</title>
<path fill="none" stroke="midnightblue" d="M983.74,-287.39C987.89,-277.02 993.02,-264.2 996.86,-254.59"/>
<polygon fill="midnightblue" stroke="midnightblue" points="980.47,-286.15 980.01,-296.73 986.97,-288.75 980.47,-286.15"/>
</g>
<!-- Node13&#45;&gt;Node6 -->
<g id="edge18" class="edge">
<title>Node13&#45;&gt;Node6</title>
<path fill="none" stroke="midnightblue" d="M956.5,-290.63C945.1,-281.36 931.2,-268.64 921.5,-255 902.69,-228.56 899.08,-219.77 892.5,-188 883.94,-146.65 888.82,-95.64 891.31,-75.63"/>
<polygon fill="midnightblue" stroke="midnightblue" points="954.59,-293.58 964.62,-297 958.91,-288.07 954.59,-293.58"/>
</g>
<!-- Node14&#45;&gt;Node6 -->
<g id="edge21" class="edge">
<title>Node14&#45;&gt;Node6</title>
<path fill="none" stroke="midnightblue" d="M427.04,-291.53C484.23,-257.94 635.58,-171.01 768.5,-112 801.15,-97.5 840.06,-83.96 865.47,-75.6"/>
<polygon fill="midnightblue" stroke="midnightblue" points="424.92,-288.72 418.08,-296.81 428.47,-294.75 424.92,-288.72"/>
</g>
<!-- Node15&#45;&gt;Node3 -->
<g id="edge23" class="edge">
<title>Node15&#45;&gt;Node3</title>
<path fill="none" stroke="midnightblue" d="M1505.36,-368.67C1662.79,-360.19 1963.2,-333.84 2028.5,-255 2061.89,-214.69 1976.51,-193.83 1920.26,-184.77"/>
<polygon fill="midnightblue" stroke="midnightblue" points="1505.01,-365.19 1495.21,-369.21 1505.38,-372.18 1505.01,-365.19"/>
</g>
<!-- Node15&#45;&gt;Node13 -->
<g id="edge24" class="edge">
<title>Node15&#45;&gt;Node13</title>
<path fill="none" stroke="midnightblue" d="M1338.21,-362.55C1268.65,-352.61 1159.15,-336.74 1064.5,-322 1052.41,-320.12 1039.41,-318.02 1027.2,-316.01"/>
<polygon fill="midnightblue" stroke="midnightblue" points="1337.78,-366.02 1348.17,-363.97 1338.77,-359.09 1337.78,-366.02"/>
</g>
<!-- Node16&#45;&gt;Node11 -->
<g id="edge27" class="edge">
<title>Node16&#45;&gt;Node11</title>
<path fill="none" stroke="midnightblue" d="M872.37,-415.06C874.78,-383.79 874.64,-329.1 850.5,-291 837.61,-270.65 813.22,-256.95 794.93,-249.01"/>
<polygon fill="midnightblue" stroke="midnightblue" points="868.88,-414.8 871.44,-425.08 875.85,-415.45 868.88,-414.8"/>
</g>
<!-- Node17 -->
<g id="node17" class="node">
<title>Node17</title>
<g id="a_node17"><a xlink:href="network__state_8h.html" target="_top" xlink:title=" ">
<polygon fill="white" stroke="black" points="993.5,-364 993.5,-383 1133.5,-383 1133.5,-364 993.5,-364"/>
<text text-anchor="middle" x="1063.5" y="-371" font-family="Helvetica,sans-Serif" font-size="10.00">src/node/network_state.h</text>
</a>
</g>
</g>
<!-- Node16&#45;&gt;Node17 -->
<g id="edge28" class="edge">
<title>Node16&#45;&gt;Node17</title>
<path fill="none" stroke="midnightblue" d="M921.41,-422.11C959.15,-409.46 1008.61,-392.89 1038.11,-383.01"/>
<polygon fill="midnightblue" stroke="midnightblue" points="919.97,-418.9 911.6,-425.4 922.19,-425.54 919.97,-418.9"/>
</g>
<!-- Node28 -->
<g id="node28" class="node">
<title>Node28</title>
<g id="a_node28"><a xlink:href="genesis__gen_8h.html" target="_top" xlink:title=" ">
<polygon fill="white" stroke="black" points="670.5,-358.5 670.5,-388.5 780.5,-388.5 780.5,-358.5 670.5,-358.5"/>
<text text-anchor="start" x="678.5" y="-376.5" font-family="Helvetica,sans-Serif" font-size="10.00">src/service/genesis</text>
<text text-anchor="middle" x="725.5" y="-365.5" font-family="Helvetica,sans-Serif" font-size="10.00">_gen.h</text>
</a>
</g>
</g>
<!-- Node16&#45;&gt;Node28 -->
<g id="edge56" class="edge">
<title>Node16&#45;&gt;Node28</title>
<path fill="none" stroke="midnightblue" d="M829.11,-421.27C806.18,-410.92 777.9,-398.15 756.68,-388.58"/>
<polygon fill="midnightblue" stroke="midnightblue" points="827.7,-424.47 838.25,-425.4 830.58,-418.09 827.7,-424.47"/>
</g>
<!-- Node17&#45;&gt;Node5 -->
<g id="edge46" class="edge">
<title>Node17&#45;&gt;Node5</title>
<path fill="none" stroke="midnightblue" d="M1143.69,-362.33C1201.78,-351.52 1265.3,-330.34 1235.5,-291 1199.82,-243.89 1159.17,-283.68 1107.5,-255 1089.62,-245.08 1090.78,-234.93 1073.5,-224 1047.69,-207.68 1014.96,-195.19 991.93,-187.56"/>
<polygon fill="midnightblue" stroke="midnightblue" points="1142.91,-358.92 1133.68,-364.11 1144.14,-365.81 1142.91,-358.92"/>
</g>
<!-- Node17&#45;&gt;Node6 -->
<g id="edge29" class="edge">
<title>Node17&#45;&gt;Node6</title>
<path fill="none" stroke="midnightblue" d="M1143.69,-365.66C1370.04,-345.96 1999.48,-288.41 2028.5,-255 2037.53,-244.6 2035.44,-235.9 2028.5,-224 2003.03,-180.33 1977.7,-183.23 1929.5,-168 1745.37,-109.84 1147.1,-78.44 953.53,-69.62"/>
<polygon fill="midnightblue" stroke="midnightblue" points="1143.2,-362.19 1133.54,-366.54 1143.8,-369.16 1143.2,-362.19"/>
</g>
<!-- Node17&#45;&gt;Node10 -->
<g id="edge45" class="edge">
<title>Node17&#45;&gt;Node10</title>
<path fill="none" stroke="midnightblue" d="M1015.23,-361.75C965.84,-350.76 888.86,-333.63 834.66,-321.56"/>
<polygon fill="midnightblue" stroke="midnightblue" points="1014.5,-365.18 1025.03,-363.94 1016.03,-358.35 1014.5,-365.18"/>
</g>
<!-- Node17&#45;&gt;Node13 -->
<g id="edge47" class="edge">
<title>Node17&#45;&gt;Node13</title>
<path fill="none" stroke="midnightblue" d="M1043.51,-357.57C1026.34,-344.74 1002.18,-326.69 988.05,-316.13"/>
<polygon fill="midnightblue" stroke="midnightblue" points="1041.66,-360.55 1051.77,-363.73 1045.85,-354.94 1041.66,-360.55"/>
</g>
<!-- Node17&#45;&gt;Node14 -->
<g id="edge48" class="edge">
<title>Node17&#45;&gt;Node14</title>
<path fill="none" stroke="midnightblue" d="M983.17,-365.46C878.46,-356.15 689.68,-338.95 528.5,-322 511.01,-320.16 492.16,-318.04 474.53,-316.01"/>
<polygon fill="midnightblue" stroke="midnightblue" points="983.08,-368.96 993.35,-366.36 983.69,-361.99 983.08,-368.96"/>
</g>
<!-- Node18 -->
<g id="node18" class="node">
<title>Node18</title>
<g id="a_node18"><a xlink:href="wrap_8h.html" target="_top" xlink:title=" ">
<polygon fill="white" stroke="black" points="1467.5,-297 1467.5,-316 1545.5,-316 1545.5,-297 1467.5,-297"/>
<text text-anchor="middle" x="1506.5" y="-304" font-family="Helvetica,sans-Serif" font-size="10.00">src/js/wrap.h</text>
</a>
</g>
</g>
<!-- Node17&#45;&gt;Node18 -->
<g id="edge30" class="edge">
<title>Node17&#45;&gt;Node18</title>
<path fill="none" stroke="midnightblue" d="M1143.7,-366.18C1223.97,-358.94 1350.71,-345.01 1458.5,-322 1465.91,-320.42 1473.82,-318.24 1481.05,-316.05"/>
<polygon fill="midnightblue" stroke="midnightblue" points="1143.31,-362.7 1133.66,-367.08 1143.93,-369.68 1143.31,-362.7"/>
</g>
<!-- Node25 -->
<g id="node25" class="node">
<title>Node25</title>
<g id="a_node25"><a xlink:href="secret__broadcast_8h.html" target="_top" xlink:title=" ">
<polygon fill="white" stroke="black" points="1074,-297 1074,-316 1227,-316 1227,-297 1074,-297"/>
<text text-anchor="middle" x="1150.5" y="-304" font-family="Helvetica,sans-Serif" font-size="10.00">src/node/secret_broadcast.h</text>
</a>
</g>
</g>
<!-- Node17&#45;&gt;Node25 -->
<g id="edge49" class="edge">
<title>Node17&#45;&gt;Node25</title>
<path fill="none" stroke="midnightblue" d="M1083.49,-357.57C1100.66,-344.74 1124.82,-326.69 1138.95,-316.13"/>
<polygon fill="midnightblue" stroke="midnightblue" points="1081.15,-354.94 1075.23,-363.73 1085.34,-360.55 1081.15,-354.94"/>
</g>
<!-- Node26 -->
<g id="node26" class="node">
<title>Node26</title>
<g id="a_node26"><a xlink:href="share__manager_8h.html" target="_top" xlink:title=" ">
<polygon fill="white" stroke="black" points="538,-297 538,-316 683,-316 683,-297 538,-297"/>
<text text-anchor="middle" x="610.5" y="-304" font-family="Helvetica,sans-Serif" font-size="10.00">src/node/share_manager.h</text>
</a>
</g>
</g>
<!-- Node17&#45;&gt;Node26 -->
<g id="edge51" class="edge">
<title>Node17&#45;&gt;Node26</title>
<path fill="none" stroke="midnightblue" d="M984.33,-362.65C909.12,-353.07 792.94,-337.71 692.5,-322 680.93,-320.19 668.47,-318.07 656.85,-316.03"/>
<polygon fill="midnightblue" stroke="midnightblue" points="984.3,-366.17 994.66,-363.96 985.18,-359.23 984.3,-366.17"/>
</g>
<!-- Node27 -->
<g id="node27" class="node">
<title>Node27</title>
<g id="a_node27"><a xlink:href="snapshotter_8h.html" target="_top" xlink:title=" ">
<polygon fill="white" stroke="black" points="1322,-297 1322,-316 1449,-316 1449,-297 1322,-297"/>
<text text-anchor="middle" x="1385.5" y="-304" font-family="Helvetica,sans-Serif" font-size="10.00">src/node/snapshotter.h</text>
</a>
</g>
</g>
<!-- Node17&#45;&gt;Node27 -->
<g id="edge54" class="edge">
<title>Node17&#45;&gt;Node27</title>
<path fill="none" stroke="midnightblue" d="M1116.11,-361.88C1179.53,-349.08 1284.84,-327.82 1343.24,-316.03"/>
<polygon fill="midnightblue" stroke="midnightblue" points="1115.04,-358.53 1105.93,-363.94 1116.42,-365.39 1115.04,-358.53"/>
</g>
<!-- Node18&#45;&gt;Node3 -->
<g id="edge42" class="edge">
<title>Node18&#45;&gt;Node3</title>
<path fill="none" stroke="midnightblue" d="M1555.63,-304.96C1641.34,-302.98 1813.21,-294.1 1856.5,-255 1875.88,-237.5 1876.88,-203.5 1876.16,-187.59"/>
<polygon fill="midnightblue" stroke="midnightblue" points="1555.54,-301.46 1545.62,-305.17 1555.69,-308.46 1555.54,-301.46"/>
</g>
<!-- Node18&#45;&gt;Node5 -->
<g id="edge43" class="edge">
<title>Node18&#45;&gt;Node5</title>
<path fill="none" stroke="midnightblue" d="M1471.26,-294.16C1466.99,-292.99 1462.66,-291.91 1458.5,-291 1342.36,-265.74 1304.98,-296.23 1193.5,-255 1169.68,-246.19 1168.81,-234.07 1145.5,-224 1104.27,-206.18 1054.6,-194.5 1017.58,-187.51"/>
<polygon fill="midnightblue" stroke="midnightblue" points="1470.46,-297.58 1481.04,-296.99 1472.4,-290.85 1470.46,-297.58"/>
</g>
<!-- Node18&#45;&gt;Node6 -->
<g id="edge32" class="edge">
<title>Node18&#45;&gt;Node6</title>
<path fill="none" stroke="midnightblue" d="M1470.6,-294.06C1466.54,-292.95 1462.45,-291.9 1458.5,-291 1356.75,-267.86 1318.77,-303.73 1226.5,-255 1149.48,-214.32 1168.1,-155.25 1092.5,-112 1049.87,-87.61 995.08,-76.44 953.63,-71.32"/>
<polygon fill="midnightblue" stroke="midnightblue" points="1469.94,-297.52 1480.52,-296.93 1471.88,-290.79 1469.94,-297.52"/>
</g>
<!-- Node18&#45;&gt;Node12 -->
<g id="edge44" class="edge">
<title>Node18&#45;&gt;Node12</title>
<path fill="none" stroke="midnightblue" d="M1472.45,-294.07C1467.81,-292.85 1463.07,-291.77 1458.5,-291 1399.98,-281.13 521.61,-250.7 281.67,-242.53"/>
<polygon fill="midnightblue" stroke="midnightblue" points="1471.79,-297.52 1482.37,-296.91 1473.72,-290.79 1471.79,-297.52"/>
</g>
<!-- Node19 -->
<g id="node19" class="node">
<title>Node19</title>
<g id="a_node19"><a xlink:href="js__generic__base_8cpp.html" target="_top" xlink:title=" ">
<polygon fill="white" stroke="black" points="1729.5,-224.5 1729.5,-254.5 1847.5,-254.5 1847.5,-224.5 1729.5,-224.5"/>
<text text-anchor="start" x="1737.5" y="-242.5" font-family="Helvetica,sans-Serif" font-size="10.00">src/apps/js_generic</text>
<text text-anchor="middle" x="1788.5" y="-231.5" font-family="Helvetica,sans-Serif" font-size="10.00">/js_generic_base.cpp</text>
</a>
</g>
</g>
<!-- Node18&#45;&gt;Node19 -->
<g id="edge31" class="edge">
<title>Node18&#45;&gt;Node19</title>
<path fill="none" stroke="midnightblue" d="M1553.53,-294.66C1601.82,-283.53 1677.09,-266.18 1729.37,-254.13"/>
<polygon fill="midnightblue" stroke="midnightblue" points="1552.61,-291.28 1543.66,-296.94 1554.19,-298.1 1552.61,-291.28"/>
</g>
<!-- Node20 -->
<g id="node20" class="node">
<title>Node20</title>
<g id="a_node20"><a xlink:href="consensus_8cpp.html" target="_top" xlink:title=" ">
<polygon fill="white" stroke="black" points="1903.5,-230 1903.5,-249 2019.5,-249 2019.5,-230 1903.5,-230"/>
<text text-anchor="middle" x="1961.5" y="-237" font-family="Helvetica,sans-Serif" font-size="10.00">src/js/consensus.cpp</text>
</a>
</g>
</g>
<!-- Node18&#45;&gt;Node20 -->
<g id="edge33" class="edge">
<title>Node18&#45;&gt;Node20</title>
<path fill="none" stroke="midnightblue" d="M1555.78,-300.08C1628.85,-291.81 1770.16,-274.86 1889.5,-255 1899.94,-253.26 1911.18,-251.13 1921.6,-249.04"/>
<polygon fill="midnightblue" stroke="midnightblue" points="1555.05,-296.64 1545.5,-301.24 1555.83,-303.6 1555.05,-296.64"/>
</g>
<!-- Node21 -->
<g id="node21" class="node">
<title>Node21</title>
<g id="a_node21"><a xlink:href="conv_8cpp.html" target="_top" xlink:title=" ">
<polygon fill="white" stroke="black" points="1235.5,-230 1235.5,-249 1323.5,-249 1323.5,-230 1235.5,-230"/>
<text text-anchor="middle" x="1279.5" y="-237" font-family="Helvetica,sans-Serif" font-size="10.00">src/js/conv.cpp</text>
</a>
</g>
</g>
<!-- Node18&#45;&gt;Node21 -->
<g id="edge35" class="edge">
<title>Node18&#45;&gt;Node21</title>
<path fill="none" stroke="midnightblue" d="M1468.85,-294.05C1465.35,-293.01 1461.86,-291.98 1458.5,-291 1406.74,-275.88 1346.34,-259 1310.59,-249.09"/>
<polygon fill="midnightblue" stroke="midnightblue" points="1468.02,-297.46 1478.61,-296.98 1470.03,-290.76 1468.02,-297.46"/>
</g>
<!-- Node22 -->
<g id="node22" class="node">
<title>Node22</title>
<g id="a_node22"><a xlink:href="crypto_8cpp.html" target="_top" xlink:title=" ">
<polygon fill="white" stroke="black" points="1341.5,-230 1341.5,-249 1437.5,-249 1437.5,-230 1341.5,-230"/>
<text text-anchor="middle" x="1389.5" y="-237" font-family="Helvetica,sans-Serif" font-size="10.00">src/js/crypto.cpp</text>
</a>
</g>
</g>
<!-- Node18&#45;&gt;Node22 -->
<g id="edge37" class="edge">
<title>Node18&#45;&gt;Node22</title>
<path fill="none" stroke="midnightblue" d="M1481.82,-291.79C1458.63,-278.9 1424.64,-260.02 1405.03,-249.13"/>
<polygon fill="midnightblue" stroke="midnightblue" points="1480.28,-294.94 1490.72,-296.73 1483.68,-288.82 1480.28,-294.94"/>
</g>
<!-- Node23 -->
<g id="node23" class="node">
<title>Node23</title>
<g id="a_node23"><a xlink:href="historical_8cpp.html" target="_top" xlink:title=" ">
<polygon fill="white" stroke="black" points="1455.5,-230 1455.5,-249 1565.5,-249 1565.5,-230 1455.5,-230"/>
<text text-anchor="middle" x="1510.5" y="-237" font-family="Helvetica,sans-Serif" font-size="10.00">src/js/historical.cpp</text>
</a>
</g>
</g>
<!-- Node18&#45;&gt;Node23 -->
<g id="edge39" class="edge">
<title>Node18&#45;&gt;Node23</title>
<path fill="none" stroke="midnightblue" d="M1507.67,-286.54C1508.43,-274.17 1509.38,-258.62 1509.97,-249.13"/>
<polygon fill="midnightblue" stroke="midnightblue" points="1504.16,-286.54 1507.04,-296.73 1511.15,-286.97 1504.16,-286.54"/>
</g>
<!-- Node24 -->
<g id="node24" class="node">
<title>Node24</title>
<g id="a_node24"><a xlink:href="openenclave_8cpp.html" target="_top" xlink:title=" ">
<polygon fill="white" stroke="black" points="1583.5,-230 1583.5,-249 1711.5,-249 1711.5,-230 1583.5,-230"/>
<text text-anchor="middle" x="1647.5" y="-237" font-family="Helvetica,sans-Serif" font-size="10.00">src/js/openenclave.cpp</text>
</a>
</g>
</g>
<!-- Node18&#45;&gt;Node24 -->
<g id="edge41" class="edge">
<title>Node18&#45;&gt;Node24</title>
<path fill="none" stroke="midnightblue" d="M1534.46,-292.61C1562.38,-279.74 1604.54,-260.31 1628.7,-249.17"/>
<polygon fill="midnightblue" stroke="midnightblue" points="1532.84,-289.5 1525.22,-296.87 1535.77,-295.86 1532.84,-289.5"/>
</g>
<!-- Node20&#45;&gt;Node3 -->
<g id="edge34" class="edge">
<title>Node20&#45;&gt;Node3</title>
<path fill="none" stroke="midnightblue" d="M1940.7,-224.11C1924.16,-212.67 1901.58,-197.05 1887.8,-187.51"/>
<polygon fill="midnightblue" stroke="midnightblue" points="1938.96,-227.16 1949.18,-229.98 1942.95,-221.41 1938.96,-227.16"/>
</g>
<!-- Node21&#45;&gt;Node3 -->
<g id="edge36" class="edge">
<title>Node21&#45;&gt;Node3</title>
<path fill="none" stroke="midnightblue" d="M1316.88,-227.35C1322.09,-226.07 1327.41,-224.9 1332.5,-224 1515.54,-191.66 1737.51,-182.45 1830.8,-179.92"/>
<polygon fill="midnightblue" stroke="midnightblue" points="1315.85,-224.01 1307.06,-229.92 1317.62,-230.78 1315.85,-224.01"/>
</g>
<!-- Node22&#45;&gt;Node3 -->
<g id="edge38" class="edge">
<title>Node22&#45;&gt;Node3</title>
<path fill="none" stroke="midnightblue" d="M1429.71,-227.5C1435.32,-226.19 1441.03,-224.98 1446.5,-224 1585.46,-199.17 1752.38,-186.51 1830.74,-181.56"/>
<polygon fill="midnightblue" stroke="midnightblue" points="1428.67,-224.15 1419.79,-229.93 1430.34,-230.95 1428.67,-224.15"/>
</g>
<!-- Node23&#45;&gt;Node3 -->
<g id="edge40" class="edge">
<title>Node23&#45;&gt;Node3</title>
<path fill="none" stroke="midnightblue" d="M1556.15,-227.72C1562.3,-226.4 1568.55,-225.12 1574.5,-224 1665.12,-206.99 1772.05,-192.26 1830.96,-184.61"/>
<polygon fill="midnightblue" stroke="midnightblue" points="1554.96,-224.4 1545.95,-229.97 1556.47,-231.24 1554.96,-224.4"/>
</g>
<!-- Node25&#45;&gt;Node5 -->
<g id="edge50" class="edge">
<title>Node25&#45;&gt;Node5</title>
<path fill="none" stroke="midnightblue" d="M1097.26,-295C1033.85,-282.25 935.76,-261.61 930.5,-255 913.65,-233.85 939.35,-202.77 954.19,-187.76"/>
<polygon fill="midnightblue" stroke="midnightblue" points="1096.62,-298.44 1107.11,-296.98 1098,-291.58 1096.62,-298.44"/>
</g>
<!-- Node26&#45;&gt;Node5 -->
<g id="edge52" class="edge">
<title>Node26&#45;&gt;Node5</title>
<path fill="none" stroke="midnightblue" d="M621.4,-288.52C634.6,-269.48 658.68,-239.29 687.5,-224 723.63,-204.83 831.77,-191.4 901.47,-184.46"/>
<polygon fill="midnightblue" stroke="midnightblue" points="618.47,-286.6 615.82,-296.85 624.29,-290.49 618.47,-286.6"/>
</g>
<!-- Node26&#45;&gt;Node12 -->
<g id="edge53" class="edge">
<title>Node26&#45;&gt;Node12</title>
<path fill="none" stroke="midnightblue" d="M549.26,-295.27C476.11,-283.04 354.55,-262.73 281.82,-250.58"/>
<polygon fill="midnightblue" stroke="midnightblue" points="548.8,-298.74 559.25,-296.94 549.96,-291.84 548.8,-298.74"/>
</g>
<!-- Node27&#45;&gt;Node5 -->
<g id="edge55" class="edge">
<title>Node27&#45;&gt;Node5</title>
<path fill="none" stroke="midnightblue" d="M1332.62,-294.92C1269.89,-282.22 1171.72,-261.76 1155.5,-255 1132.06,-245.23 1130.5,-234.77 1107.5,-224 1072.52,-207.61 1030.04,-195.17 1000.32,-187.57"/>
<polygon fill="midnightblue" stroke="midnightblue" points="1332.26,-298.42 1342.75,-296.97 1333.64,-291.56 1332.26,-298.42"/>
</g>
<!-- Node28&#45;&gt;Node5 -->
<g id="edge57" class="edge">
<title>Node28&#45;&gt;Node5</title>
<path fill="none" stroke="midnightblue" d="M659.88,-369.23C591.23,-362.95 497.42,-344.61 528.5,-291 558.55,-239.16 588.82,-243.44 645.5,-224 731.08,-194.66 835.92,-184.43 901.22,-180.88"/>
<polygon fill="midnightblue" stroke="midnightblue" points="659.98,-372.75 670.24,-370.11 660.57,-365.78 659.98,-372.75"/>
</g>
<!-- Node28&#45;&gt;Node12 -->
<g id="edge58" class="edge">
<title>Node28&#45;&gt;Node12</title>
<path fill="none" stroke="midnightblue" d="M660.25,-366.53C552.75,-356.39 347.21,-335.57 316.5,-322 281.32,-306.46 249.37,-273.45 233.01,-254.55"/>
<polygon fill="midnightblue" stroke="midnightblue" points="660.05,-370.03 670.33,-367.48 660.7,-363.06 660.05,-370.03"/>
</g>
<!-- Node28&#45;&gt;Node13 -->
<g id="edge59" class="edge">
<title>Node28&#45;&gt;Node13</title>
<path fill="none" stroke="midnightblue" d="M789.56,-355.91C838.72,-343.18 904.57,-326.13 943.57,-316.03"/>
<polygon fill="midnightblue" stroke="midnightblue" points="788.46,-352.58 779.65,-358.48 790.21,-359.36 788.46,-352.58"/>
</g>
<!-- Node28&#45;&gt;Node25 -->
<g id="edge60" class="edge">
<title>Node28&#45;&gt;Node25</title>
<path fill="none" stroke="midnightblue" d="M790.93,-363.13C859.24,-353.26 969.47,-337.09 1064.5,-322 1076.31,-320.12 1089.03,-318.03 1100.96,-316.02"/>
<polygon fill="midnightblue" stroke="midnightblue" points="790.14,-359.71 780.74,-364.6 791.14,-366.64 790.14,-359.71"/>
</g>
<!-- Node28&#45;&gt;Node26 -->
<g id="edge61" class="edge">
<title>Node28&#45;&gt;Node26</title>
<path fill="none" stroke="midnightblue" d="M691.84,-353.47C669.88,-341.06 642.3,-325.47 625.55,-316.01"/>
<polygon fill="midnightblue" stroke="midnightblue" points="690.12,-356.52 700.55,-358.4 693.56,-350.43 690.12,-356.52"/>
</g>
</g>
</svg>
