<?xml version="1.0" encoding="UTF-8" standalone="no"?>
<!DOCTYPE svg PUBLIC "-//W3C//DTD SVG 1.1//EN"
 "http://www.w3.org/Graphics/SVG/1.1/DTD/svg11.dtd">
<!-- Generated by graphviz version 2.43.0 (0)
 -->
<!-- Title: include/ccf/service/node_info.h Pages: 1 -->
<!--zoomable 397 -->
<svg id="main" version="1.1" xmlns="http://www.w3.org/2000/svg" xmlns:xlink="http://www.w3.org/1999/xlink" xml:space="preserve" onload="init(evt)">
<style type="text/css"><![CDATA[
.edge:hover path { stroke: red; }
.edge:hover polygon { stroke: red; fill: red; }
]]></style>
<script type="text/javascript"><![CDATA[
var edges = document.getElementsByTagName('g');
if (edges && edges.length) {
  for (var i=0;i<edges.length;i++) {
    if (edges[i].id.substr(0,4)=='edge') {
      edges[i].setAttribute('class','edge');
    }
  }
}
]]></script>
        <defs>
                <circle id="rim" cx="0" cy="0" r="7"/>
                <circle id="rim2" cx="0" cy="0" r="3.5"/>
                <g id="zoomPlus">
                        <use xlink:href="#rim" fill="#404040">
                                <set attributeName="fill" to="#808080" begin="zoomplus.mouseover" end="zoomplus.mouseout"/>
                        </use>
                        <path d="M-4,0h8M0,-4v8" fill="none" stroke="white" stroke-width="1.5" pointer-events="none"/>
                </g>
                <g id="zoomMin">
                        <use xlink:href="#rim" fill="#404040">
                                <set attributeName="fill" to="#808080" begin="zoomminus.mouseover" end="zoomminus.mouseout"/>
                        </use>
                        <path d="M-4,0h8" fill="none" stroke="white" stroke-width="1.5" pointer-events="none"/>
                </g>
                <g id="dirArrow">
                        <path fill="none" stroke="white" stroke-width="1.5" d="M0,-3.0v7 M-2.5,-0.5L0,-3.0L2.5,-0.5"/>
                </g>
               <g id="resetDef">
                       <use xlink:href="#rim2" fill="#404040">
                               <set attributeName="fill" to="#808080" begin="reset.mouseover" end="reset.mouseout"/>
                       </use>
               </g>
        </defs>

<script type="text/javascript">
var viewWidth = 1833;
var viewHeight = 397;
var sectionId = 'dynsection-0';
</script>
<script xlink:href="svgpan.js"/>
<svg id="graph" class="graph">
<g id="viewport">
<title>include/ccf/service/node_info.h</title>
<polygon fill="white" stroke="transparent" points="-4,4 -4,-393 1829,-393 1829,4 -4,4"/>
<!-- Node1 -->
<g id="node1" class="node">
<title>Node1</title>
<g id="a_node1"><a xlink:title=" ">
<polygon fill="#bfbfbf" stroke="black" points="820.5,-358.5 820.5,-388.5 927.5,-388.5 927.5,-358.5 820.5,-358.5"/>
<text text-anchor="start" x="828.5" y="-376.5" font-family="Helvetica,sans-Serif" font-size="10.00">include/ccf/service</text>
<text text-anchor="middle" x="874" y="-365.5" font-family="Helvetica,sans-Serif" font-size="10.00">/node_info.h</text>
</a>
</g>
</g>
<!-- Node2 -->
<g id="node2" class="node">
<title>Node2</title>
<g id="a_node2"><a xlink:href="pem_8h.html" target="_top" xlink:title=" ">
<polygon fill="white" stroke="black" points="186,-230 186,-249 284,-249 284,-230 186,-230"/>
<text text-anchor="middle" x="235" y="-237" font-family="Helvetica,sans-Serif" font-size="10.00">ccf/crypto/pem.h</text>
</a>
</g>
</g>
<!-- Node1&#45;&gt;Node2 -->
<g id="edge1" class="edge">
<title>Node1&#45;&gt;Node2</title>
<path fill="none" stroke="midnightblue" d="M820.33,-363.22C765.01,-353.51 676.31,-337.55 600,-322 485.02,-298.58 350.48,-267.61 281.29,-251.42"/>
<polygon fill="midnightblue" stroke="midnightblue" points="281.7,-247.92 271.17,-249.05 280.11,-254.74 281.7,-247.92"/>
</g>
<!-- Node3 -->
<g id="node3" class="node">
<title>Node3</title>
<g id="a_node3"><a xlink:href="json_8h.html" target="_top" xlink:title=" ">
<polygon fill="white" stroke="black" points="775.5,-168.5 775.5,-187.5 852.5,-187.5 852.5,-168.5 775.5,-168.5"/>
<text text-anchor="middle" x="814" y="-175.5" font-family="Helvetica,sans-Serif" font-size="10.00">ccf/ds/json.h</text>
</a>
</g>
</g>
<!-- Node1&#45;&gt;Node3 -->
<g id="edge25" class="edge">
<title>Node1&#45;&gt;Node3</title>
<path fill="none" stroke="midnightblue" d="M870.75,-358.39C864.49,-331.78 849.86,-272.51 833,-224 829.87,-214.99 825.82,-205.21 822.27,-197.07"/>
<polygon fill="midnightblue" stroke="midnightblue" points="825.41,-195.53 818.13,-187.83 819.02,-198.39 825.41,-195.53"/>
</g>
<!-- Node14 -->
<g id="node14" class="node">
<title>Node14</title>
<g id="a_node14"><a xlink:title=" ">
<polygon fill="white" stroke="#bfbfbf" points="1300.5,-0.5 1300.5,-19.5 1379.5,-19.5 1379.5,-0.5 1300.5,-0.5"/>
<text text-anchor="middle" x="1340" y="-7.5" font-family="Helvetica,sans-Serif" font-size="10.00">fmt/format.h</text>
</a>
</g>
</g>
<!-- Node1&#45;&gt;Node14 -->
<g id="edge65" class="edge">
<title>Node1&#45;&gt;Node14</title>
<path fill="none" stroke="midnightblue" d="M927.61,-370.98C1048.98,-367.02 1341.37,-354.32 1434,-322 1496.27,-300.27 1558,-306.45 1558,-240.5 1558,-240.5 1558,-240.5 1558,-121 1558,-90.9 1560.93,-76.61 1539,-56 1517.71,-35.99 1441.19,-23.08 1389.49,-16.43"/>
<polygon fill="midnightblue" stroke="midnightblue" points="1389.86,-12.95 1379.5,-15.18 1388.99,-19.89 1389.86,-12.95"/>
</g>
<!-- Node21 -->
<g id="node21" class="node">
<title>Node21</title>
<g id="a_node21"><a xlink:href="quote__info_8h.html" target="_top" xlink:title=" ">
<polygon fill="white" stroke="black" points="403.5,-230 403.5,-249 512.5,-249 512.5,-230 403.5,-230"/>
<text text-anchor="middle" x="458" y="-237" font-family="Helvetica,sans-Serif" font-size="10.00">ccf/ds/quote_info.h</text>
</a>
</g>
</g>
<!-- Node1&#45;&gt;Node21 -->
<g id="edge26" class="edge">
<title>Node1&#45;&gt;Node21</title>
<path fill="none" stroke="midnightblue" d="M821.29,-358.47C785.52,-348.74 737.22,-335.2 695,-322 621.65,-299.06 536.68,-268.97 491.06,-252.53"/>
<polygon fill="midnightblue" stroke="midnightblue" points="492,-249.14 481.4,-249.04 489.62,-255.73 492,-249.14"/>
</g>
<!-- Node22 -->
<g id="node22" class="node">
<title>Node22</title>
<g id="a_node22"><a xlink:href="version_8h.html" target="_top" xlink:title=" ">
<polygon fill="white" stroke="black" points="902,-297 902,-316 996,-316 996,-297 902,-297"/>
<text text-anchor="middle" x="949" y="-304" font-family="Helvetica,sans-Serif" font-size="10.00">ccf/kv/version.h</text>
</a>
</g>
</g>
<!-- Node1&#45;&gt;Node22 -->
<g id="edge29" class="edge">
<title>Node1&#45;&gt;Node22</title>
<path fill="none" stroke="midnightblue" d="M890.27,-358.4C902.32,-347.96 918.71,-333.75 931.12,-323"/>
<polygon fill="midnightblue" stroke="midnightblue" points="933.7,-325.39 938.97,-316.19 929.12,-320.1 933.7,-325.39"/>
</g>
<!-- Node23 -->
<g id="node23" class="node">
<title>Node23</title>
<g id="a_node23"><a xlink:href="node__info__network_8h.html" target="_top" xlink:title=" ">
<polygon fill="white" stroke="black" points="704,-291.5 704,-321.5 824,-321.5 824,-291.5 704,-291.5"/>
<text text-anchor="start" x="712" y="-309.5" font-family="Helvetica,sans-Serif" font-size="10.00">ccf/service/node_info</text>
<text text-anchor="middle" x="764" y="-298.5" font-family="Helvetica,sans-Serif" font-size="10.00">_network.h</text>
</a>
</g>
</g>
<!-- Node1&#45;&gt;Node23 -->
<g id="edge30" class="edge">
<title>Node1&#45;&gt;Node23</title>
<path fill="none" stroke="midnightblue" d="M850.13,-358.4C834.42,-349.11 813.65,-336.84 796.45,-326.67"/>
<polygon fill="midnightblue" stroke="midnightblue" points="798.21,-323.65 787.82,-321.58 794.65,-329.68 798.21,-323.65"/>
</g>
<!-- Node36 -->
<g id="node36" class="node">
<title>Node36</title>
<g id="a_node36"><a xlink:title=" ">
<polygon fill="white" stroke="#bfbfbf" points="1474,-56.5 1474,-75.5 1530,-75.5 1530,-56.5 1474,-56.5"/>
<text text-anchor="middle" x="1502" y="-63.5" font-family="Helvetica,sans-Serif" font-size="10.00">optional</text>
</a>
</g>
</g>
<!-- Node1&#45;&gt;Node36 -->
<g id="edge66" class="edge">
<title>Node1&#45;&gt;Node36</title>
<path fill="none" stroke="midnightblue" d="M927.51,-372.28C1076.63,-370.24 1486,-354.29 1486,-240.5 1486,-240.5 1486,-240.5 1486,-177 1486,-144.63 1492.87,-107.44 1497.61,-85.66"/>
<polygon fill="midnightblue" stroke="midnightblue" points="1501.05,-86.3 1499.84,-75.78 1494.22,-84.76 1501.05,-86.3"/>
</g>
<!-- Node2&#45;&gt;Node3 -->
<g id="edge2" class="edge">
<title>Node2&#45;&gt;Node3</title>
<path fill="none" stroke="midnightblue" d="M284.37,-233.43C393.91,-222.17 656.24,-195.21 765.23,-184.01"/>
<polygon fill="midnightblue" stroke="midnightblue" points="765.7,-187.48 775.29,-182.98 764.99,-180.52 765.7,-187.48"/>
</g>
<!-- Node6 -->
<g id="node6" class="node">
<title>Node6</title>
<g id="a_node6"><a xlink:title=" ">
<polygon fill="white" stroke="#bfbfbf" points="386.5,-0.5 386.5,-19.5 433.5,-19.5 433.5,-0.5 386.5,-0.5"/>
<text text-anchor="middle" x="410" y="-7.5" font-family="Helvetica,sans-Serif" font-size="10.00">vector</text>
</a>
</g>
</g>
<!-- Node2&#45;&gt;Node6 -->
<g id="edge24" class="edge">
<title>Node2&#45;&gt;Node6</title>
<path fill="none" stroke="midnightblue" d="M253.83,-229.91C271.15,-221.28 296.7,-206.59 314,-188 337.83,-162.39 383.07,-68.66 401.68,-28.96"/>
<polygon fill="midnightblue" stroke="midnightblue" points="404.94,-30.24 406,-19.7 398.6,-27.28 404.94,-30.24"/>
</g>
<!-- Node12 -->
<g id="node12" class="node">
<title>Node12</title>
<g id="a_node12"><a xlink:title=" ">
<polygon fill="white" stroke="#bfbfbf" points="201.5,-0.5 201.5,-19.5 274.5,-19.5 274.5,-0.5 201.5,-0.5"/>
<text text-anchor="middle" x="238" y="-7.5" font-family="Helvetica,sans-Serif" font-size="10.00">string_view</text>
</a>
</g>
</g>
<!-- Node2&#45;&gt;Node12 -->
<g id="edge23" class="edge">
<title>Node2&#45;&gt;Node12</title>
<path fill="none" stroke="midnightblue" d="M213.28,-229.99C196.17,-221.98 173.5,-208.18 163,-188 158.9,-180.11 161.04,-176.67 163,-168 175.3,-113.71 208.75,-56.23 226.53,-28.28"/>
<polygon fill="midnightblue" stroke="midnightblue" points="229.61,-29.98 232.11,-19.68 223.73,-26.17 229.61,-29.98"/>
</g>
<!-- Node17 -->
<g id="node17" class="node">
<title>Node17</title>
<g id="a_node17"><a xlink:title=" ">
<polygon fill="white" stroke="#bfbfbf" points="172,-168.5 172,-187.5 222,-187.5 222,-168.5 172,-168.5"/>
<text text-anchor="middle" x="197" y="-175.5" font-family="Helvetica,sans-Serif" font-size="10.00">cstring</text>
</a>
</g>
</g>
<!-- Node2&#45;&gt;Node17 -->
<g id="edge19" class="edge">
<title>Node2&#45;&gt;Node17</title>
<path fill="none" stroke="midnightblue" d="M229.56,-229.98C223.91,-221.14 214.94,-207.09 207.84,-195.98"/>
<polygon fill="midnightblue" stroke="midnightblue" points="210.77,-194.05 202.43,-187.51 204.87,-197.82 210.77,-194.05"/>
</g>
<!-- Node18 -->
<g id="node18" class="node">
<title>Node18</title>
<g id="a_node18"><a xlink:title=" ">
<polygon fill="white" stroke="#bfbfbf" points="240.5,-168.5 240.5,-187.5 305.5,-187.5 305.5,-168.5 240.5,-168.5"/>
<text text-anchor="middle" x="273" y="-175.5" font-family="Helvetica,sans-Serif" font-size="10.00">exception</text>
</a>
</g>
</g>
<!-- Node2&#45;&gt;Node18 -->
<g id="edge20" class="edge">
<title>Node2&#45;&gt;Node18</title>
<path fill="none" stroke="midnightblue" d="M240.44,-229.98C246.09,-221.14 255.06,-207.09 262.16,-195.98"/>
<polygon fill="midnightblue" stroke="midnightblue" points="265.13,-197.82 267.57,-187.51 259.23,-194.05 265.13,-197.82"/>
</g>
<!-- Node19 -->
<g id="node19" class="node">
<title>Node19</title>
<g id="a_node19"><a xlink:title=" ">
<polygon fill="white" stroke="#bfbfbf" points="0,-168.5 0,-187.5 58,-187.5 58,-168.5 0,-168.5"/>
<text text-anchor="middle" x="29" y="-175.5" font-family="Helvetica,sans-Serif" font-size="10.00">memory</text>
</a>
</g>
</g>
<!-- Node2&#45;&gt;Node19 -->
<g id="edge21" class="edge">
<title>Node2&#45;&gt;Node19</title>
<path fill="none" stroke="midnightblue" d="M205.49,-229.98C169.28,-219.52 107.8,-201.76 67.81,-190.21"/>
<polygon fill="midnightblue" stroke="midnightblue" points="68.71,-186.83 58.13,-187.41 66.76,-193.55 68.71,-186.83"/>
</g>
<!-- Node20 -->
<g id="node20" class="node">
<title>Node20</title>
<g id="a_node20"><a xlink:title=" ">
<polygon fill="white" stroke="#bfbfbf" points="76,-168.5 76,-187.5 116,-187.5 116,-168.5 76,-168.5"/>
<text text-anchor="middle" x="96" y="-175.5" font-family="Helvetica,sans-Serif" font-size="10.00">span</text>
</a>
</g>
</g>
<!-- Node2&#45;&gt;Node20 -->
<g id="edge22" class="edge">
<title>Node2&#45;&gt;Node20</title>
<path fill="none" stroke="midnightblue" d="M215.08,-229.98C191.55,-219.9 152.19,-203.05 125.21,-191.5"/>
<polygon fill="midnightblue" stroke="midnightblue" points="126.45,-188.23 115.88,-187.51 123.69,-194.66 126.45,-188.23"/>
</g>
<!-- Node4 -->
<g id="node4" class="node">
<title>Node4</title>
<g id="a_node4"><a xlink:href="include_2ccf_2crypto_2base64_8h.html" target="_top" xlink:title=" ">
<polygon fill="white" stroke="black" points="438,-56.5 438,-75.5 550,-75.5 550,-56.5 438,-56.5"/>
<text text-anchor="middle" x="494" y="-63.5" font-family="Helvetica,sans-Serif" font-size="10.00">ccf/crypto/base64.h</text>
</a>
</g>
</g>
<!-- Node3&#45;&gt;Node4 -->
<g id="edge3" class="edge">
<title>Node3&#45;&gt;Node4</title>
<path fill="none" stroke="midnightblue" d="M785.86,-168.48C757.13,-159.68 711.29,-145.39 672,-132 620.7,-114.51 561.71,-92.62 526.18,-79.23"/>
<polygon fill="midnightblue" stroke="midnightblue" points="526.96,-75.78 516.37,-75.52 524.49,-82.33 526.96,-75.78"/>
</g>
<!-- Node7 -->
<g id="node7" class="node">
<title>Node7</title>
<g id="a_node7"><a xlink:href="include_2ccf_2ds_2json__schema_8h.html" target="_top" xlink:title=" ">
<polygon fill="white" stroke="black" points="790.5,-112.5 790.5,-131.5 911.5,-131.5 911.5,-112.5 790.5,-112.5"/>
<text text-anchor="middle" x="851" y="-119.5" font-family="Helvetica,sans-Serif" font-size="10.00">ccf/ds/json_schema.h</text>
</a>
</g>
</g>
<!-- Node3&#45;&gt;Node7 -->
<g id="edge6" class="edge">
<title>Node3&#45;&gt;Node7</title>
<path fill="none" stroke="midnightblue" d="M820.11,-168.08C825.28,-160.53 832.85,-149.49 839.19,-140.23"/>
<polygon fill="midnightblue" stroke="midnightblue" points="842.24,-141.98 845,-131.75 836.46,-138.02 842.24,-141.98"/>
</g>
<!-- Node3&#45;&gt;Node14 -->
<g id="edge17" class="edge">
<title>Node3&#45;&gt;Node14</title>
<path fill="none" stroke="midnightblue" d="M804.11,-168.3C791.33,-155.95 771.77,-132.55 781,-112 796.35,-77.82 809.62,-70.88 844,-56 923.27,-21.68 1180.95,-13.52 1290.25,-11.59"/>
<polygon fill="midnightblue" stroke="midnightblue" points="1290.41,-15.09 1300.36,-11.42 1290.3,-8.09 1290.41,-15.09"/>
</g>
<!-- Node16 -->
<g id="node16" class="node">
<title>Node16</title>
<g id="a_node16"><a xlink:title=" ">
<polygon fill="white" stroke="#bfbfbf" points="994,-56.5 994,-75.5 1050,-75.5 1050,-56.5 994,-56.5"/>
<text text-anchor="middle" x="1022" y="-63.5" font-family="Helvetica,sans-Serif" font-size="10.00">sstream</text>
</a>
</g>
</g>
<!-- Node3&#45;&gt;Node16 -->
<g id="edge18" class="edge">
<title>Node3&#45;&gt;Node16</title>
<path fill="none" stroke="midnightblue" d="M837.25,-168.41C859.08,-160.06 892.4,-146.52 920,-132 949.33,-116.57 981.26,-95.46 1001.44,-81.54"/>
<polygon fill="midnightblue" stroke="midnightblue" points="1003.63,-84.28 1009.84,-75.69 999.63,-78.53 1003.63,-84.28"/>
</g>
<!-- Node5 -->
<g id="node5" class="node">
<title>Node5</title>
<g id="a_node5"><a xlink:title=" ">
<polygon fill="white" stroke="#bfbfbf" points="683,-0.5 683,-19.5 727,-19.5 727,-0.5 683,-0.5"/>
<text text-anchor="middle" x="705" y="-7.5" font-family="Helvetica,sans-Serif" font-size="10.00">string</text>
</a>
</g>
</g>
<!-- Node4&#45;&gt;Node5 -->
<g id="edge4" class="edge">
<title>Node4&#45;&gt;Node5</title>
<path fill="none" stroke="midnightblue" d="M529.96,-56.43C564.31,-48.15 617.76,-35.03 672.76,-20.27"/>
<polygon fill="midnightblue" stroke="midnightblue" points="673.93,-23.57 682.68,-17.59 672.11,-16.82 673.93,-23.57"/>
</g>
<!-- Node4&#45;&gt;Node6 -->
<g id="edge5" class="edge">
<title>Node4&#45;&gt;Node6</title>
<path fill="none" stroke="midnightblue" d="M480.5,-56.32C467.4,-47.9 447.29,-34.97 431.89,-25.07"/>
<polygon fill="midnightblue" stroke="midnightblue" points="433.77,-22.12 423.46,-19.65 429.98,-28.01 433.77,-22.12"/>
</g>
<!-- Node8 -->
<g id="node8" class="node">
<title>Node8</title>
<g id="a_node8"><a xlink:href="nonstd_8h.html" target="_top" xlink:title=" ">
<polygon fill="white" stroke="black" points="568,-56.5 568,-75.5 658,-75.5 658,-56.5 568,-56.5"/>
<text text-anchor="middle" x="613" y="-63.5" font-family="Helvetica,sans-Serif" font-size="10.00">ccf/ds/nonstd.h</text>
</a>
</g>
</g>
<!-- Node7&#45;&gt;Node8 -->
<g id="edge7" class="edge">
<title>Node7&#45;&gt;Node8</title>
<path fill="none" stroke="midnightblue" d="M813.29,-112.44C771.86,-103.04 705.24,-87.93 660.33,-77.74"/>
<polygon fill="midnightblue" stroke="midnightblue" points="661.06,-74.32 650.54,-75.52 659.51,-81.14 661.06,-74.32"/>
</g>
<!-- Node7&#45;&gt;Node14 -->
<g id="edge15" class="edge">
<title>Node7&#45;&gt;Node14</title>
<path fill="none" stroke="midnightblue" d="M848.76,-112.42C845.68,-98.47 842.1,-70.91 857,-56 887.19,-25.78 1172.87,-15.2 1290.14,-12.11"/>
<polygon fill="midnightblue" stroke="midnightblue" points="1290.37,-15.6 1300.28,-11.85 1290.2,-8.6 1290.37,-15.6"/>
</g>
<!-- Node15 -->
<g id="node15" class="node">
<title>Node15</title>
<g id="a_node15"><a xlink:title=" ">
<polygon fill="white" stroke="#bfbfbf" points="866,-56.5 866,-75.5 976,-75.5 976,-56.5 866,-56.5"/>
<text text-anchor="middle" x="921" y="-63.5" font-family="Helvetica,sans-Serif" font-size="10.00">nlohmann/json.hpp</text>
</a>
</g>
</g>
<!-- Node7&#45;&gt;Node15 -->
<g id="edge16" class="edge">
<title>Node7&#45;&gt;Node15</title>
<path fill="none" stroke="midnightblue" d="M862.25,-112.32C872.8,-104.18 888.8,-91.84 901.44,-82.09"/>
<polygon fill="midnightblue" stroke="midnightblue" points="903.77,-84.71 909.55,-75.83 899.49,-79.17 903.77,-84.71"/>
</g>
<!-- Node8&#45;&gt;Node5 -->
<g id="edge11" class="edge">
<title>Node8&#45;&gt;Node5</title>
<path fill="none" stroke="midnightblue" d="M627.78,-56.32C642.27,-47.82 664.57,-34.73 681.49,-24.8"/>
<polygon fill="midnightblue" stroke="midnightblue" points="683.4,-27.74 690.26,-19.65 679.86,-21.7 683.4,-27.74"/>
</g>
<!-- Node8&#45;&gt;Node6 -->
<g id="edge14" class="edge">
<title>Node8&#45;&gt;Node6</title>
<path fill="none" stroke="midnightblue" d="M580.83,-56.44C543.43,-46.49 481.97,-30.15 443.86,-20.01"/>
<polygon fill="midnightblue" stroke="midnightblue" points="444.33,-16.51 433.77,-17.32 442.53,-23.28 444.33,-16.51"/>
</g>
<!-- Node9 -->
<g id="node9" class="node">
<title>Node9</title>
<g id="a_node9"><a xlink:title=" ">
<polygon fill="white" stroke="#bfbfbf" points="601,-0.5 601,-19.5 665,-19.5 665,-0.5 601,-0.5"/>
<text text-anchor="middle" x="633" y="-7.5" font-family="Helvetica,sans-Serif" font-size="10.00">algorithm</text>
</a>
</g>
</g>
<!-- Node8&#45;&gt;Node9 -->
<g id="edge8" class="edge">
<title>Node8&#45;&gt;Node9</title>
<path fill="none" stroke="midnightblue" d="M616.3,-56.08C618.98,-48.85 622.85,-38.41 626.19,-29.4"/>
<polygon fill="midnightblue" stroke="midnightblue" points="629.57,-30.34 629.76,-19.75 623,-27.91 629.57,-30.34"/>
</g>
<!-- Node10 -->
<g id="node10" class="node">
<title>Node10</title>
<g id="a_node10"><a xlink:title=" ">
<polygon fill="white" stroke="#bfbfbf" points="473,-0.5 473,-19.5 515,-19.5 515,-0.5 473,-0.5"/>
<text text-anchor="middle" x="494" y="-7.5" font-family="Helvetica,sans-Serif" font-size="10.00">array</text>
</a>
</g>
</g>
<!-- Node8&#45;&gt;Node10 -->
<g id="edge9" class="edge">
<title>Node8&#45;&gt;Node10</title>
<path fill="none" stroke="midnightblue" d="M594.14,-56.44C574.73,-47.64 544.27,-33.81 522.04,-23.72"/>
<polygon fill="midnightblue" stroke="midnightblue" points="523.32,-20.46 512.77,-19.52 520.43,-26.84 523.32,-20.46"/>
</g>
<!-- Node11 -->
<g id="node11" class="node">
<title>Node11</title>
<g id="a_node11"><a xlink:title=" ">
<polygon fill="white" stroke="#bfbfbf" points="533.5,-0.5 533.5,-19.5 582.5,-19.5 582.5,-0.5 533.5,-0.5"/>
<text text-anchor="middle" x="558" y="-7.5" font-family="Helvetica,sans-Serif" font-size="10.00">cctype</text>
</a>
</g>
</g>
<!-- Node8&#45;&gt;Node11 -->
<g id="edge10" class="edge">
<title>Node8&#45;&gt;Node11</title>
<path fill="none" stroke="midnightblue" d="M603.92,-56.08C595.83,-48.14 583.8,-36.34 574.09,-26.8"/>
<polygon fill="midnightblue" stroke="midnightblue" points="576.5,-24.26 566.91,-19.75 571.6,-29.25 576.5,-24.26"/>
</g>
<!-- Node8&#45;&gt;Node12 -->
<g id="edge12" class="edge">
<title>Node8&#45;&gt;Node12</title>
<path fill="none" stroke="midnightblue" d="M567.93,-57.4C564.91,-56.92 561.91,-56.45 559,-56 461.52,-41.05 347.08,-25.48 284.58,-17.14"/>
<polygon fill="midnightblue" stroke="midnightblue" points="285.01,-13.67 274.63,-15.82 284.08,-20.61 285.01,-13.67"/>
</g>
<!-- Node13 -->
<g id="node13" class="node">
<title>Node13</title>
<g id="a_node13"><a xlink:title=" ">
<polygon fill="white" stroke="#bfbfbf" points="904.5,-0.5 904.5,-19.5 973.5,-19.5 973.5,-0.5 904.5,-0.5"/>
<text text-anchor="middle" x="939" y="-7.5" font-family="Helvetica,sans-Serif" font-size="10.00">type_traits</text>
</a>
</g>
</g>
<!-- Node8&#45;&gt;Node13 -->
<g id="edge13" class="edge">
<title>Node8&#45;&gt;Node13</title>
<path fill="none" stroke="midnightblue" d="M658.33,-57.49C720.64,-47.17 832.08,-28.71 894.15,-18.43"/>
<polygon fill="midnightblue" stroke="midnightblue" points="894.74,-21.88 904.03,-16.79 893.6,-14.97 894.74,-21.88"/>
</g>
<!-- Node21&#45;&gt;Node3 -->
<g id="edge27" class="edge">
<title>Node21&#45;&gt;Node3</title>
<path fill="none" stroke="midnightblue" d="M509.01,-229.98C577.49,-218.53 698.31,-198.34 765.5,-187.11"/>
<polygon fill="midnightblue" stroke="midnightblue" points="766.12,-190.55 775.4,-185.45 764.96,-183.65 766.12,-190.55"/>
</g>
<!-- Node21&#45;&gt;Node6 -->
<g id="edge28" class="edge">
<title>Node21&#45;&gt;Node6</title>
<path fill="none" stroke="midnightblue" d="M453.3,-229.67C440.87,-205.78 407.33,-137.47 396,-76 393.09,-60.21 397.47,-42.4 402.08,-29.42"/>
<polygon fill="midnightblue" stroke="midnightblue" points="405.46,-30.39 405.86,-19.8 398.95,-27.83 405.46,-30.39"/>
</g>
<!-- Node23&#45;&gt;Node3 -->
<g id="edge31" class="edge">
<title>Node23&#45;&gt;Node3</title>
<path fill="none" stroke="midnightblue" d="M785.3,-291.38C796.73,-282.46 809.73,-269.84 816,-255 823.69,-236.8 821.71,-213.91 818.73,-198.02"/>
<polygon fill="midnightblue" stroke="midnightblue" points="822.06,-196.89 816.51,-187.87 815.23,-198.38 822.06,-196.89"/>
</g>
<!-- Node23&#45;&gt;Node5 -->
<g id="edge64" class="edge">
<title>Node23&#45;&gt;Node5</title>
<path fill="none" stroke="midnightblue" d="M713.62,-291.42C695.69,-283.71 677.39,-272.12 667,-255 621.91,-180.69 672.07,-71.04 694.9,-28.64"/>
<polygon fill="midnightblue" stroke="midnightblue" points="698.01,-30.23 699.8,-19.79 691.89,-26.84 698.01,-30.23"/>
</g>
<!-- Node23&#45;&gt;Node8 -->
<g id="edge32" class="edge">
<title>Node23&#45;&gt;Node8</title>
<path fill="none" stroke="midnightblue" d="M703.91,-296.32C678.45,-289.28 650.83,-276.88 634,-255 595.15,-204.5 603.12,-122.57 609.26,-85.85"/>
<polygon fill="midnightblue" stroke="midnightblue" points="612.78,-86.08 611.13,-75.62 605.89,-84.82 612.78,-86.08"/>
</g>
<!-- Node24 -->
<g id="node24" class="node">
<title>Node24</title>
<g id="a_node24"><a xlink:href="http__configuration_8h.html" target="_top" xlink:title=" ">
<polygon fill="white" stroke="black" points="926.5,-230 926.5,-249 1057.5,-249 1057.5,-230 926.5,-230"/>
<text text-anchor="middle" x="992" y="-237" font-family="Helvetica,sans-Serif" font-size="10.00">ccf/http_configuration.h</text>
</a>
</g>
</g>
<!-- Node23&#45;&gt;Node24 -->
<g id="edge33" class="edge">
<title>Node23&#45;&gt;Node24</title>
<path fill="none" stroke="midnightblue" d="M813.19,-291.48C854.77,-279.62 913.57,-262.86 952.23,-251.84"/>
<polygon fill="midnightblue" stroke="midnightblue" points="953.43,-255.14 962.08,-249.03 951.51,-248.4 953.43,-255.14"/>
</g>
<!-- Node39 -->
<g id="node39" class="node">
<title>Node39</title>
<g id="a_node39"><a xlink:href="acme__client__config_8h.html" target="_top" xlink:title=" ">
<polygon fill="white" stroke="black" points="676.5,-224.5 676.5,-254.5 807.5,-254.5 807.5,-224.5 676.5,-224.5"/>
<text text-anchor="start" x="684.5" y="-242.5" font-family="Helvetica,sans-Serif" font-size="10.00">ccf/service/acme_client</text>
<text text-anchor="middle" x="742" y="-231.5" font-family="Helvetica,sans-Serif" font-size="10.00">_config.h</text>
</a>
</g>
</g>
<!-- Node23&#45;&gt;Node39 -->
<g id="edge59" class="edge">
<title>Node23&#45;&gt;Node39</title>
<path fill="none" stroke="midnightblue" d="M759.23,-291.4C756.55,-283.47 753.13,-273.38 750.05,-264.27"/>
<polygon fill="midnightblue" stroke="midnightblue" points="753.29,-262.93 746.76,-254.58 746.66,-265.17 753.29,-262.93"/>
</g>
<!-- Node24&#45;&gt;Node3 -->
<g id="edge34" class="edge">
<title>Node24&#45;&gt;Node3</title>
<path fill="none" stroke="midnightblue" d="M966.5,-229.98C935.7,-219.68 883.73,-202.31 849.15,-190.75"/>
<polygon fill="midnightblue" stroke="midnightblue" points="850.05,-187.36 839.46,-187.51 847.83,-194 850.05,-187.36"/>
</g>
<!-- Node25 -->
<g id="node25" class="node">
<title>Node25</title>
<g id="a_node25"><a xlink:href="unit__strings_8h.html" target="_top" xlink:title=" ">
<polygon fill="white" stroke="black" points="959,-168.5 959,-187.5 1073,-187.5 1073,-168.5 959,-168.5"/>
<text text-anchor="middle" x="1016" y="-175.5" font-family="Helvetica,sans-Serif" font-size="10.00">ccf/ds/unit_strings.h</text>
</a>
</g>
</g>
<!-- Node24&#45;&gt;Node25 -->
<g id="edge35" class="edge">
<title>Node24&#45;&gt;Node25</title>
<path fill="none" stroke="midnightblue" d="M995.44,-229.98C998.9,-221.4 1004.33,-207.93 1008.75,-196.98"/>
<polygon fill="midnightblue" stroke="midnightblue" points="1012.07,-198.09 1012.57,-187.51 1005.58,-195.47 1012.07,-198.09"/>
</g>
<!-- Node24&#45;&gt;Node36 -->
<g id="edge58" class="edge">
<title>Node24&#45;&gt;Node36</title>
<path fill="none" stroke="midnightblue" d="M1057.6,-234.98C1152.77,-229.02 1323.8,-214.9 1379,-188 1428.86,-163.7 1470.94,-111.25 1490.41,-84.08"/>
<polygon fill="midnightblue" stroke="midnightblue" points="1493.47,-85.82 1496.33,-75.62 1487.73,-81.81 1493.47,-85.82"/>
</g>
<!-- Node25&#45;&gt;Node5 -->
<g id="edge57" class="edge">
<title>Node25&#45;&gt;Node5</title>
<path fill="none" stroke="midnightblue" d="M1004.55,-168.39C986.93,-155.32 951.84,-130.11 920,-112 856.45,-75.85 777.81,-41.33 735.45,-23.52"/>
<polygon fill="midnightblue" stroke="midnightblue" points="736.57,-20.19 725.99,-19.57 733.87,-26.65 736.57,-20.19"/>
</g>
<!-- Node25&#45;&gt;Node8 -->
<g id="edge53" class="edge">
<title>Node25&#45;&gt;Node8</title>
<path fill="none" stroke="midnightblue" d="M958.82,-169C910.81,-161.59 840.7,-149.11 781,-132 730.6,-117.55 674.16,-94.15 641.21,-79.72"/>
<polygon fill="midnightblue" stroke="midnightblue" points="642.33,-76.39 631.77,-75.55 639.5,-82.79 642.33,-76.39"/>
</g>
<!-- Node25&#45;&gt;Node15 -->
<g id="edge56" class="edge">
<title>Node25&#45;&gt;Node15</title>
<path fill="none" stroke="midnightblue" d="M1008.55,-168.37C992.73,-150.05 955.59,-107.05 935.13,-83.36"/>
<polygon fill="midnightblue" stroke="midnightblue" points="937.6,-80.87 928.42,-75.59 932.31,-85.45 937.6,-80.87"/>
</g>
<!-- Node26 -->
<g id="node26" class="node">
<title>Node26</title>
<g id="a_node26"><a xlink:href="logger_8h.html" target="_top" xlink:title=" ">
<polygon fill="white" stroke="black" points="1188.5,-112.5 1188.5,-131.5 1275.5,-131.5 1275.5,-112.5 1188.5,-112.5"/>
<text text-anchor="middle" x="1232" y="-119.5" font-family="Helvetica,sans-Serif" font-size="10.00">ccf/ds/logger.h</text>
</a>
</g>
</g>
<!-- Node25&#45;&gt;Node26 -->
<g id="edge36" class="edge">
<title>Node25&#45;&gt;Node26</title>
<path fill="none" stroke="midnightblue" d="M1050.23,-168.44C1087.51,-159.12 1147.27,-144.18 1188.01,-134"/>
<polygon fill="midnightblue" stroke="midnightblue" points="1189.08,-137.34 1197.93,-131.52 1187.38,-130.55 1189.08,-137.34"/>
</g>
<!-- Node37 -->
<g id="node37" class="node">
<title>Node37</title>
<g id="a_node37"><a xlink:title=" ">
<polygon fill="white" stroke="#bfbfbf" points="1044.5,-112.5 1044.5,-131.5 1105.5,-131.5 1105.5,-112.5 1044.5,-112.5"/>
<text text-anchor="middle" x="1075" y="-119.5" font-family="Helvetica,sans-Serif" font-size="10.00">charconv</text>
</a>
</g>
</g>
<!-- Node25&#45;&gt;Node37 -->
<g id="edge54" class="edge">
<title>Node25&#45;&gt;Node37</title>
<path fill="none" stroke="midnightblue" d="M1025.48,-168.32C1034.2,-160.34 1047.34,-148.31 1057.9,-138.65"/>
<polygon fill="midnightblue" stroke="midnightblue" points="1060.33,-141.17 1065.35,-131.83 1055.61,-136 1060.33,-141.17"/>
</g>
<!-- Node38 -->
<g id="node38" class="node">
<title>Node38</title>
<g id="a_node38"><a xlink:title=" ">
<polygon fill="white" stroke="#bfbfbf" points="1123.5,-112.5 1123.5,-131.5 1170.5,-131.5 1170.5,-112.5 1123.5,-112.5"/>
<text text-anchor="middle" x="1147" y="-119.5" font-family="Helvetica,sans-Serif" font-size="10.00">cmath</text>
</a>
</g>
</g>
<!-- Node25&#45;&gt;Node38 -->
<g id="edge55" class="edge">
<title>Node25&#45;&gt;Node38</title>
<path fill="none" stroke="midnightblue" d="M1036.76,-168.44C1058.32,-159.56 1092.26,-145.56 1116.79,-135.45"/>
<polygon fill="midnightblue" stroke="midnightblue" points="1118.43,-138.56 1126.34,-131.52 1115.76,-132.09 1118.43,-138.56"/>
</g>
<!-- Node26&#45;&gt;Node13 -->
<g id="edge52" class="edge">
<title>Node26&#45;&gt;Node13</title>
<path fill="none" stroke="midnightblue" d="M1201.72,-112.45C1174.01,-104.26 1132.11,-90.97 1097,-76 1079.44,-68.51 1076.41,-63.81 1059,-56 1030.99,-43.44 998.31,-31.34 974.13,-22.86"/>
<polygon fill="midnightblue" stroke="midnightblue" points="975.25,-19.55 964.66,-19.57 972.96,-26.16 975.25,-19.55"/>
</g>
<!-- Node26&#45;&gt;Node14 -->
<g id="edge47" class="edge">
<title>Node26&#45;&gt;Node14</title>
<path fill="none" stroke="midnightblue" d="M1240.47,-112.37C1258.61,-93.89 1301.42,-50.29 1324.54,-26.74"/>
<polygon fill="midnightblue" stroke="midnightblue" points="1327.06,-29.18 1331.56,-19.59 1322.06,-24.28 1327.06,-29.18"/>
</g>
<!-- Node26&#45;&gt;Node15 -->
<g id="edge49" class="edge">
<title>Node26&#45;&gt;Node15</title>
<path fill="none" stroke="midnightblue" d="M1188.43,-113.43C1134.15,-104.01 1041.15,-87.86 980.38,-77.31"/>
<polygon fill="midnightblue" stroke="midnightblue" points="980.62,-73.8 970.17,-75.54 979.43,-80.7 980.62,-73.8"/>
</g>
<!-- Node26&#45;&gt;Node16 -->
<g id="edge51" class="edge">
<title>Node26&#45;&gt;Node16</title>
<path fill="none" stroke="midnightblue" d="M1198.72,-112.44C1160.96,-102.73 1099.47,-86.92 1059.89,-76.74"/>
<polygon fill="midnightblue" stroke="midnightblue" points="1060.64,-73.32 1050.08,-74.22 1058.89,-80.1 1060.64,-73.32"/>
</g>
<!-- Node27 -->
<g id="node27" class="node">
<title>Node27</title>
<g id="a_node27"><a xlink:href="enum__formatter_8h.html" target="_top" xlink:title=" ">
<polygon fill="white" stroke="black" points="1320,-56.5 1320,-75.5 1456,-75.5 1456,-56.5 1320,-56.5"/>
<text text-anchor="middle" x="1388" y="-63.5" font-family="Helvetica,sans-Serif" font-size="10.00">ccf/ds/enum_formatter.h</text>
</a>
</g>
</g>
<!-- Node26&#45;&gt;Node27 -->
<g id="edge37" class="edge">
<title>Node26&#45;&gt;Node27</title>
<path fill="none" stroke="midnightblue" d="M1256.72,-112.44C1282.85,-103.4 1324.26,-89.06 1353.58,-78.92"/>
<polygon fill="midnightblue" stroke="midnightblue" points="1355.09,-82.1 1363.4,-75.52 1352.8,-75.48 1355.09,-82.1"/>
</g>
<!-- Node28 -->
<g id="node28" class="node">
<title>Node28</title>
<g id="a_node28"><a xlink:href="thread__ids_8h.html" target="_top" xlink:title=" ">
<polygon fill="white" stroke="black" points="1586,-56.5 1586,-75.5 1694,-75.5 1694,-56.5 1586,-56.5"/>
<text text-anchor="middle" x="1640" y="-63.5" font-family="Helvetica,sans-Serif" font-size="10.00">ccf/ds/thread_ids.h</text>
</a>
</g>
</g>
<!-- Node26&#45;&gt;Node28 -->
<g id="edge39" class="edge">
<title>Node26&#45;&gt;Node28</title>
<path fill="none" stroke="midnightblue" d="M1275.66,-115.22C1347.69,-105.69 1491.77,-86.62 1575.54,-75.53"/>
<polygon fill="midnightblue" stroke="midnightblue" points="1576.25,-78.97 1585.7,-74.19 1575.33,-72.03 1576.25,-78.97"/>
</g>
<!-- Node34 -->
<g id="node34" class="node">
<title>Node34</title>
<g id="a_node34"><a xlink:title=" ">
<polygon fill="white" stroke="#bfbfbf" points="1184.5,-56.5 1184.5,-75.5 1263.5,-75.5 1263.5,-56.5 1184.5,-56.5"/>
<text text-anchor="middle" x="1224" y="-63.5" font-family="Helvetica,sans-Serif" font-size="10.00">fmt/chrono.h</text>
</a>
</g>
</g>
<!-- Node26&#45;&gt;Node34 -->
<g id="edge46" class="edge">
<title>Node26&#45;&gt;Node34</title>
<path fill="none" stroke="midnightblue" d="M1230.68,-112.08C1229.62,-104.93 1228.09,-94.64 1226.77,-85.69"/>
<polygon fill="midnightblue" stroke="midnightblue" points="1230.22,-85.13 1225.3,-75.75 1223.3,-86.16 1230.22,-85.13"/>
</g>
<!-- Node35 -->
<g id="node35" class="node">
<title>Node35</title>
<g id="a_node35"><a xlink:title=" ">
<polygon fill="white" stroke="#bfbfbf" points="1106,-56.5 1106,-75.5 1166,-75.5 1166,-56.5 1106,-56.5"/>
<text text-anchor="middle" x="1136" y="-63.5" font-family="Helvetica,sans-Serif" font-size="10.00">iostream</text>
</a>
</g>
</g>
<!-- Node26&#45;&gt;Node35 -->
<g id="edge48" class="edge">
<title>Node26&#45;&gt;Node35</title>
<path fill="none" stroke="midnightblue" d="M1216.58,-112.32C1201.46,-103.82 1178.18,-90.73 1160.53,-80.8"/>
<polygon fill="midnightblue" stroke="midnightblue" points="1161.82,-77.51 1151.39,-75.65 1158.39,-83.61 1161.82,-77.51"/>
</g>
<!-- Node26&#45;&gt;Node36 -->
<g id="edge50" class="edge">
<title>Node26&#45;&gt;Node36</title>
<path fill="none" stroke="midnightblue" d="M1275.93,-113.16C1320.76,-105.02 1392.57,-91.58 1463.72,-76.2"/>
<polygon fill="midnightblue" stroke="midnightblue" points="1464.72,-79.57 1473.75,-74.02 1463.23,-72.73 1464.72,-79.57"/>
</g>
<!-- Node27&#45;&gt;Node14 -->
<g id="edge38" class="edge">
<title>Node27&#45;&gt;Node14</title>
<path fill="none" stroke="midnightblue" d="M1380.07,-56.08C1373.15,-48.3 1362.93,-36.8 1354.55,-27.37"/>
<polygon fill="midnightblue" stroke="midnightblue" points="1357.04,-24.9 1347.78,-19.75 1351.81,-29.55 1357.04,-24.9"/>
</g>
<!-- Node28&#45;&gt;Node14 -->
<g id="edge40" class="edge">
<title>Node28&#45;&gt;Node14</title>
<path fill="none" stroke="midnightblue" d="M1592.46,-56.44C1537.09,-46.48 1446.04,-30.09 1389.74,-19.95"/>
<polygon fill="midnightblue" stroke="midnightblue" points="1390.11,-16.46 1379.65,-18.14 1388.87,-23.35 1390.11,-16.46"/>
</g>
<!-- Node29 -->
<g id="node29" class="node">
<title>Node29</title>
<g id="a_node29"><a xlink:title=" ">
<polygon fill="white" stroke="#bfbfbf" points="1597,-0.5 1597,-19.5 1683,-19.5 1683,-0.5 1597,-0.5"/>
<text text-anchor="middle" x="1640" y="-7.5" font-family="Helvetica,sans-Serif" font-size="10.00">fmt/ostream.h</text>
</a>
</g>
</g>
<!-- Node28&#45;&gt;Node29 -->
<g id="edge41" class="edge">
<title>Node28&#45;&gt;Node29</title>
<path fill="none" stroke="midnightblue" d="M1640,-56.08C1640,-49.01 1640,-38.86 1640,-29.99"/>
<polygon fill="midnightblue" stroke="midnightblue" points="1643.5,-29.75 1640,-19.75 1636.5,-29.75 1643.5,-29.75"/>
</g>
<!-- Node30 -->
<g id="node30" class="node">
<title>Node30</title>
<g id="a_node30"><a xlink:title=" ">
<polygon fill="white" stroke="#bfbfbf" points="1701.5,-0.5 1701.5,-19.5 1762.5,-19.5 1762.5,-0.5 1701.5,-0.5"/>
<text text-anchor="middle" x="1732" y="-7.5" font-family="Helvetica,sans-Serif" font-size="10.00">fmt/std.h</text>
</a>
</g>
</g>
<!-- Node28&#45;&gt;Node30 -->
<g id="edge42" class="edge">
<title>Node28&#45;&gt;Node30</title>
<path fill="none" stroke="midnightblue" d="M1654.78,-56.32C1669.27,-47.82 1691.57,-34.73 1708.49,-24.8"/>
<polygon fill="midnightblue" stroke="midnightblue" points="1710.4,-27.74 1717.26,-19.65 1706.86,-21.7 1710.4,-27.74"/>
</g>
<!-- Node31 -->
<g id="node31" class="node">
<title>Node31</title>
<g id="a_node31"><a xlink:title=" ">
<polygon fill="white" stroke="#bfbfbf" points="1781,-0.5 1781,-19.5 1825,-19.5 1825,-0.5 1781,-0.5"/>
<text text-anchor="middle" x="1803" y="-7.5" font-family="Helvetica,sans-Serif" font-size="10.00">limits</text>
</a>
</g>
</g>
<!-- Node28&#45;&gt;Node31 -->
<g id="edge43" class="edge">
<title>Node28&#45;&gt;Node31</title>
<path fill="none" stroke="midnightblue" d="M1665.83,-56.44C1694.38,-46.99 1740.39,-31.74 1771.15,-21.55"/>
<polygon fill="midnightblue" stroke="midnightblue" points="1772.56,-24.77 1780.95,-18.3 1770.36,-18.13 1772.56,-24.77"/>
</g>
<!-- Node32 -->
<g id="node32" class="node">
<title>Node32</title>
<g id="a_node32"><a xlink:title=" ">
<polygon fill="white" stroke="#bfbfbf" points="1475,-0.5 1475,-19.5 1513,-19.5 1513,-0.5 1475,-0.5"/>
<text text-anchor="middle" x="1494" y="-7.5" font-family="Helvetica,sans-Serif" font-size="10.00">map</text>
</a>
</g>
</g>
<!-- Node28&#45;&gt;Node32 -->
<g id="edge44" class="edge">
<title>Node28&#45;&gt;Node32</title>
<path fill="none" stroke="midnightblue" d="M1616.87,-56.44C1591.37,-47.01 1550.34,-31.84 1522.78,-21.65"/>
<polygon fill="midnightblue" stroke="midnightblue" points="1523.89,-18.32 1513.3,-18.14 1521.46,-24.89 1523.89,-18.32"/>
</g>
<!-- Node33 -->
<g id="node33" class="node">
<title>Node33</title>
<g id="a_node33"><a xlink:title=" ">
<polygon fill="white" stroke="#bfbfbf" points="1531,-0.5 1531,-19.5 1579,-19.5 1579,-0.5 1531,-0.5"/>
<text text-anchor="middle" x="1555" y="-7.5" font-family="Helvetica,sans-Serif" font-size="10.00">thread</text>
</a>
</g>
</g>
<!-- Node28&#45;&gt;Node33 -->
<g id="edge45" class="edge">
<title>Node28&#45;&gt;Node33</title>
<path fill="none" stroke="midnightblue" d="M1626.34,-56.32C1613.08,-47.9 1592.73,-34.97 1577.15,-25.07"/>
<polygon fill="midnightblue" stroke="midnightblue" points="1578.94,-22.06 1568.62,-19.65 1575.19,-27.97 1578.94,-22.06"/>
</g>
<!-- Node39&#45;&gt;Node3 -->
<g id="edge60" class="edge">
<title>Node39&#45;&gt;Node3</title>
<path fill="none" stroke="midnightblue" d="M759.06,-224.4C770.06,-215.31 784.37,-203.49 795.62,-194.19"/>
<polygon fill="midnightblue" stroke="midnightblue" points="798.04,-196.73 803.52,-187.66 793.59,-191.33 798.04,-196.73"/>
</g>
<!-- Node39&#45;&gt;Node5 -->
<g id="edge62" class="edge">
<title>Node39&#45;&gt;Node5</title>
<path fill="none" stroke="midnightblue" d="M739.69,-224.27C733.28,-184.89 715.33,-74.49 708.08,-29.97"/>
<polygon fill="midnightblue" stroke="midnightblue" points="711.51,-29.24 706.45,-19.93 704.6,-30.36 711.51,-29.24"/>
</g>
<!-- Node39&#45;&gt;Node6 -->
<g id="edge63" class="edge">
<title>Node39&#45;&gt;Node6</title>
<path fill="none" stroke="midnightblue" d="M687.06,-224.49C616.94,-203.79 496.66,-158.29 429,-76 418.16,-62.82 413.5,-43.68 411.5,-29.58"/>
<polygon fill="midnightblue" stroke="midnightblue" points="414.98,-29.12 410.4,-19.57 408.02,-29.89 414.98,-29.12"/>
</g>
<!-- Node39&#45;&gt;Node36 -->
<g id="edge61" class="edge">
<title>Node39&#45;&gt;Node36</title>
<path fill="none" stroke="midnightblue" d="M807.6,-231.16C876.39,-222.91 987.42,-207.99 1082,-188 1173.57,-168.64 1195.06,-157.87 1285,-132 1348.16,-113.83 1421.32,-91.69 1464.52,-78.5"/>
<polygon fill="midnightblue" stroke="midnightblue" points="1465.77,-81.78 1474.31,-75.51 1463.72,-75.08 1465.77,-81.78"/>
</g>
</g>
</svg>
        <g id="navigator" transform="translate(0 0)" fill="#404254">
                <rect fill="#f2f5e9" fill-opacity="0.5" stroke="#606060" stroke-width=".5" x="0" y="0" width="60" height="60"/>
                <use id="zoomplus" xlink:href="#zoomPlus" x="17" y="9" onmousedown="handleZoom(evt,'in')"/>
                <use id="zoomminus" xlink:href="#zoomMin" x="42" y="9" onmousedown="handleZoom(evt,'out')"/>
                <use id="reset" xlink:href="#resetDef" x="30" y="36" onmousedown="handleReset()"/>
                <g id="arrowUp" xlink:href="#dirArrow" transform="translate(30 24)" onmousedown="handlePan(0,-1)">
                  <use xlink:href="#rim" fill="#404040">
                        <set attributeName="fill" to="#808080" begin="arrowUp.mouseover" end="arrowUp.mouseout"/>
                  </use>
                  <path fill="none" stroke="white" stroke-width="1.5" d="M0,-3.0v7 M-2.5,-0.5L0,-3.0L2.5,-0.5"/>
                </g>
                <g id="arrowRight" xlink:href="#dirArrow" transform="rotate(90) translate(36 -43)" onmousedown="handlePan(1,0)">
                  <use xlink:href="#rim" fill="#404040">
                        <set attributeName="fill" to="#808080" begin="arrowRight.mouseover" end="arrowRight.mouseout"/>
                  </use>
                  <path fill="none" stroke="white" stroke-width="1.5" d="M0,-3.0v7 M-2.5,-0.5L0,-3.0L2.5,-0.5"/>
                </g>
                <g id="arrowDown" xlink:href="#dirArrow" transform="rotate(180) translate(-30 -48)" onmousedown="handlePan(0,1)">
                  <use xlink:href="#rim" fill="#404040">
                        <set attributeName="fill" to="#808080" begin="arrowDown.mouseover" end="arrowDown.mouseout"/>
                  </use>
                  <path fill="none" stroke="white" stroke-width="1.5" d="M0,-3.0v7 M-2.5,-0.5L0,-3.0L2.5,-0.5"/>
                </g>
                <g id="arrowLeft" xlink:href="#dirArrow" transform="rotate(270) translate(-36 17)" onmousedown="handlePan(-1,0)">
                  <use xlink:href="#rim" fill="#404040">
                        <set attributeName="fill" to="#808080" begin="arrowLeft.mouseover" end="arrowLeft.mouseout"/>
                  </use>
                  <path fill="none" stroke="white" stroke-width="1.5" d="M0,-3.0v7 M-2.5,-0.5L0,-3.0L2.5,-0.5"/>
                </g>
        </g>
        <svg viewBox="0 0 15 15" width="100%" height="30px" preserveAspectRatio="xMaxYMin meet">
         <g id="arrow_out" transform="scale(0.3 0.3)">
          <a xlink:href="node__info_8h__incl_org.svg" target="_base">
           <rect id="button" ry="5" rx="5" y="6" x="6" height="38" width="38"
                fill="#f2f5e9" fill-opacity="0.5" stroke="#606060" stroke-width="1.0"/>
           <path id="arrow"
             d="M 11.500037,31.436501 C 11.940474,20.09759 22.043105,11.32322 32.158766,21.979434 L 37.068811,17.246167 C 37.068811,17.246167 37.088388,32 37.088388,32 L 22.160133,31.978069 C 22.160133,31.978069 26.997745,27.140456 26.997745,27.140456 C 18.528582,18.264221 13.291696,25.230495 11.500037,31.436501 z"
             style="fill:#404040;"/>
          </a>
         </g>
        </svg>
</svg>
