<?xml version="1.0" encoding="UTF-8" standalone="no"?>
<!DOCTYPE svg PUBLIC "-//W3C//DTD SVG 1.1//EN"
 "http://www.w3.org/Graphics/SVG/1.1/DTD/svg11.dtd">
<!-- Generated by graphviz version 2.43.0 (0)
 -->
<!-- Title: include/ccf/node_context.h Pages: 1 -->
<svg width="2752pt" height="542pt"
 viewBox="0.00 0.00 2752.00 542.00" xmlns="http://www.w3.org/2000/svg" xmlns:xlink="http://www.w3.org/1999/xlink">
<g id="graph0" class="graph" transform="scale(1 1) rotate(0) translate(4 538)">
<title>include/ccf/node_context.h</title>
<polygon fill="white" stroke="transparent" points="-4,4 -4,-538 2748,-538 2748,4 -4,4"/>
<!-- Node1 -->
<g id="node1" class="node">
<title>Node1</title>
<g id="a_node1"><a xlink:title=" ">
<polygon fill="#bfbfbf" stroke="black" points="1404,-514.5 1404,-533.5 1551,-533.5 1551,-514.5 1404,-514.5"/>
<text text-anchor="middle" x="1477.5" y="-521.5" font-family="Helvetica,sans-Serif" font-size="10.00">include/ccf/node_context.h</text>
</a>
</g>
</g>
<!-- Node2 -->
<g id="node2" class="node">
<title>Node2</title>
<g id="a_node2"><a xlink:href="app__interface_8h.html" target="_top" xlink:title=" ">
<polygon fill="white" stroke="black" points="623.5,-308 623.5,-327 771.5,-327 771.5,-308 623.5,-308"/>
<text text-anchor="middle" x="697.5" y="-315" font-family="Helvetica,sans-Serif" font-size="10.00">include/ccf/app_interface.h</text>
</a>
</g>
</g>
<!-- Node1&#45;&gt;Node2 -->
<g id="edge1" class="edge">
<title>Node1&#45;&gt;Node2</title>
<path fill="none" stroke="midnightblue" d="M1418.02,-512.72C1371.83,-504.38 1306.3,-491.78 1249.5,-478 1045.2,-428.42 803.17,-352.38 723.99,-327.04"/>
<polygon fill="midnightblue" stroke="midnightblue" points="1417.4,-516.16 1427.86,-514.48 1418.64,-509.27 1417.4,-516.16"/>
</g>
<!-- Node4 -->
<g id="node4" class="node">
<title>Node4</title>
<g id="a_node4"><a xlink:href="nobuiltins_8cpp.html" target="_top" xlink:title=" ">
<polygon fill="white" stroke="black" points="2011,-235.5 2011,-265.5 2146,-265.5 2146,-235.5 2011,-235.5"/>
<text text-anchor="start" x="2019" y="-253.5" font-family="Helvetica,sans-Serif" font-size="10.00">samples/apps/nobuiltins</text>
<text text-anchor="middle" x="2078.5" y="-242.5" font-family="Helvetica,sans-Serif" font-size="10.00">/nobuiltins.cpp</text>
</a>
</g>
</g>
<!-- Node1&#45;&gt;Node4 -->
<g id="edge63" class="edge">
<title>Node1&#45;&gt;Node4</title>
<path fill="none" stroke="midnightblue" d="M1525.81,-512.22C1605.59,-493.7 1769.2,-452.71 1901.5,-400 1961.88,-375.94 1984.47,-377.86 2031.5,-333 2051.83,-313.61 2066.06,-283.48 2073.21,-265.8"/>
<polygon fill="midnightblue" stroke="midnightblue" points="1525.01,-508.81 1516.05,-514.47 1526.58,-515.63 1525.01,-508.81"/>
</g>
<!-- Node15 -->
<g id="node15" class="node">
<title>Node15</title>
<g id="a_node15"><a xlink:href="user__frontend_8h.html" target="_top" xlink:title=" ">
<polygon fill="white" stroke="black" points="2589,-241 2589,-260 2744,-260 2744,-241 2589,-241"/>
<text text-anchor="middle" x="2666.5" y="-248" font-family="Helvetica,sans-Serif" font-size="10.00">src/node/rpc/user_frontend.h</text>
</a>
</g>
</g>
<!-- Node1&#45;&gt;Node15 -->
<g id="edge71" class="edge">
<title>Node1&#45;&gt;Node15</title>
<path fill="none" stroke="midnightblue" d="M1561.04,-520.07C1717.24,-514.17 2047.93,-499.54 2160.5,-478 2366.47,-438.59 2440.85,-457.63 2609.5,-333 2636.44,-313.09 2655.28,-276.55 2662.83,-260.02"/>
<polygon fill="midnightblue" stroke="midnightblue" points="1560.87,-516.58 1551,-520.45 1561.13,-523.57 1560.87,-516.58"/>
</g>
<!-- Node16 -->
<g id="node16" class="node">
<title>Node16</title>
<g id="a_node16"><a xlink:href="base__endpoint__registry_8h.html" target="_top" xlink:title=" ">
<polygon fill="white" stroke="black" points="1479,-442 1479,-472 1622,-472 1622,-442 1479,-442"/>
<text text-anchor="start" x="1487" y="-460" font-family="Helvetica,sans-Serif" font-size="10.00">include/ccf/base_endpoint</text>
<text text-anchor="middle" x="1550.5" y="-449" font-family="Helvetica,sans-Serif" font-size="10.00">_registry.h</text>
</a>
</g>
</g>
<!-- Node1&#45;&gt;Node16 -->
<g id="edge18" class="edge">
<title>Node1&#45;&gt;Node16</title>
<path fill="none" stroke="midnightblue" d="M1494.99,-507.43C1507.06,-496.68 1522.98,-482.5 1534.68,-472.09"/>
<polygon fill="midnightblue" stroke="midnightblue" points="1492.49,-504.97 1487.35,-514.23 1497.14,-510.2 1492.49,-504.97"/>
</g>
<!-- Node18 -->
<g id="node18" class="node">
<title>Node18</title>
<g id="a_node18"><a xlink:href="common__endpoint__registry_8cpp.html" target="_top" xlink:title=" ">
<polygon fill="white" stroke="black" points="1225.5,-302.5 1225.5,-332.5 1353.5,-332.5 1353.5,-302.5 1225.5,-302.5"/>
<text text-anchor="start" x="1233.5" y="-320.5" font-family="Helvetica,sans-Serif" font-size="10.00">src/endpoints/common</text>
<text text-anchor="middle" x="1289.5" y="-309.5" font-family="Helvetica,sans-Serif" font-size="10.00">_endpoint_registry.cpp</text>
</a>
</g>
</g>
<!-- Node1&#45;&gt;Node18 -->
<g id="edge64" class="edge">
<title>Node1&#45;&gt;Node18</title>
<path fill="none" stroke="midnightblue" d="M1462.5,-506.69C1426.63,-467.67 1336.36,-369.47 1302.55,-332.7"/>
<polygon fill="midnightblue" stroke="midnightblue" points="1460.32,-509.48 1469.66,-514.47 1465.47,-504.74 1460.32,-509.48"/>
</g>
<!-- Node33 -->
<g id="node33" class="node">
<title>Node33</title>
<g id="a_node33"><a xlink:href="historical__queries__adapter_8h.html" target="_top" xlink:title=" ">
<polygon fill="white" stroke="black" points="1117,-369.5 1117,-399.5 1234,-399.5 1234,-369.5 1117,-369.5"/>
<text text-anchor="start" x="1125" y="-387.5" font-family="Helvetica,sans-Serif" font-size="10.00">include/ccf/historical</text>
<text text-anchor="middle" x="1175.5" y="-376.5" font-family="Helvetica,sans-Serif" font-size="10.00">_queries_adapter.h</text>
</a>
</g>
</g>
<!-- Node1&#45;&gt;Node33 -->
<g id="edge52" class="edge">
<title>Node1&#45;&gt;Node33</title>
<path fill="none" stroke="midnightblue" d="M1432.83,-511.86C1403.91,-503.96 1365.75,-492.26 1333.5,-478 1281.75,-455.12 1225.58,-419.34 1196.15,-399.66"/>
<polygon fill="midnightblue" stroke="midnightblue" points="1432.09,-515.29 1442.66,-514.49 1433.9,-508.52 1432.09,-515.29"/>
</g>
<!-- Node37 -->
<g id="node37" class="node">
<title>Node37</title>
<g id="a_node37"><a xlink:href="seqnos__by__key__bucketed_8h.html" target="_top" xlink:title=" ">
<polygon fill="white" stroke="black" points="410,-436.5 410,-477.5 533,-477.5 533,-436.5 410,-436.5"/>
<text text-anchor="start" x="418" y="-465.5" font-family="Helvetica,sans-Serif" font-size="10.00">include/ccf/indexing</text>
<text text-anchor="start" x="418" y="-454.5" font-family="Helvetica,sans-Serif" font-size="10.00">/strategies/seqnos_by</text>
<text text-anchor="middle" x="471.5" y="-443.5" font-family="Helvetica,sans-Serif" font-size="10.00">_key_bucketed.h</text>
</a>
</g>
</g>
<!-- Node1&#45;&gt;Node37 -->
<g id="edge60" class="edge">
<title>Node1&#45;&gt;Node37</title>
<path fill="none" stroke="midnightblue" d="M1393.92,-517.6C1196.77,-504.86 706.31,-473.17 533.2,-461.99"/>
<polygon fill="midnightblue" stroke="midnightblue" points="1393.73,-521.09 1403.93,-518.25 1394.18,-514.11 1393.73,-521.09"/>
</g>
<!-- Node39 -->
<g id="node39" class="node">
<title>Node39</title>
<g id="a_node39"><a xlink:href="frontend_8h.html" target="_top" xlink:title=" ">
<polygon fill="white" stroke="black" points="2251,-375 2251,-394 2380,-394 2380,-375 2251,-375"/>
<text text-anchor="middle" x="2315.5" y="-382" font-family="Helvetica,sans-Serif" font-size="10.00">src/node/rpc/frontend.h</text>
</a>
</g>
</g>
<!-- Node1&#45;&gt;Node39 -->
<g id="edge65" class="edge">
<title>Node1&#45;&gt;Node39</title>
<path fill="none" stroke="midnightblue" d="M1561.11,-520.02C1703.96,-514.4 1989.01,-500.71 2086.5,-478 2170.02,-458.55 2262.81,-413.03 2299.41,-394.05"/>
<polygon fill="midnightblue" stroke="midnightblue" points="1560.94,-516.53 1551.08,-520.41 1561.21,-523.52 1560.94,-516.53"/>
</g>
<!-- Node3 -->
<g id="node3" class="node">
<title>Node3</title>
<g id="a_node3"><a xlink:href="logging_8cpp.html" target="_top" xlink:title=" ">
<polygon fill="white" stroke="black" points="0,-235.5 0,-265.5 123,-265.5 123,-235.5 0,-235.5"/>
<text text-anchor="start" x="8" y="-253.5" font-family="Helvetica,sans-Serif" font-size="10.00">samples/apps/logging</text>
<text text-anchor="middle" x="61.5" y="-242.5" font-family="Helvetica,sans-Serif" font-size="10.00">/logging.cpp</text>
</a>
</g>
</g>
<!-- Node2&#45;&gt;Node3 -->
<g id="edge2" class="edge">
<title>Node2&#45;&gt;Node3</title>
<path fill="none" stroke="midnightblue" d="M640.44,-306.35C630.17,-304.73 619.53,-303.2 609.5,-302 398.41,-276.69 343.07,-295.33 132.5,-266 129.51,-265.58 126.46,-265.12 123.38,-264.62"/>
<polygon fill="midnightblue" stroke="midnightblue" points="640.14,-309.84 650.57,-307.98 641.25,-302.93 640.14,-309.84"/>
</g>
<!-- Node2&#45;&gt;Node4 -->
<g id="edge3" class="edge">
<title>Node2&#45;&gt;Node4</title>
<path fill="none" stroke="midnightblue" d="M781.63,-313.98C1051.04,-305.8 1881.98,-279.75 2002.5,-266 2005.17,-265.7 2007.89,-265.35 2010.62,-264.97"/>
<polygon fill="midnightblue" stroke="midnightblue" points="781.4,-310.48 771.52,-314.28 781.62,-317.48 781.4,-310.48"/>
</g>
<!-- Node5 -->
<g id="node5" class="node">
<title>Node5</title>
<g id="a_node5"><a xlink:href="executor__auth__policy_8h.html" target="_top" xlink:title=" ">
<polygon fill="white" stroke="black" points="141.5,-235.5 141.5,-265.5 289.5,-265.5 289.5,-235.5 141.5,-235.5"/>
<text text-anchor="start" x="149.5" y="-253.5" font-family="Helvetica,sans-Serif" font-size="10.00">src/apps/external_executor</text>
<text text-anchor="middle" x="215.5" y="-242.5" font-family="Helvetica,sans-Serif" font-size="10.00">/executor_auth_policy.h</text>
</a>
</g>
</g>
<!-- Node2&#45;&gt;Node5 -->
<g id="edge4" class="edge">
<title>Node2&#45;&gt;Node5</title>
<path fill="none" stroke="midnightblue" d="M638.32,-306.36C628.7,-304.83 618.83,-303.32 609.5,-302 473.91,-282.86 439.09,-285.14 303.5,-266 299.05,-265.37 294.49,-264.7 289.88,-264"/>
<polygon fill="midnightblue" stroke="midnightblue" points="637.8,-309.82 648.23,-307.97 638.91,-302.91 637.8,-309.82"/>
</g>
<!-- Node6 -->
<g id="node6" class="node">
<title>Node6</title>
<g id="a_node6"><a xlink:href="external__executor_8cpp.html" target="_top" xlink:title=" ">
<polygon fill="white" stroke="black" points="160.5,-168.5 160.5,-198.5 308.5,-198.5 308.5,-168.5 160.5,-168.5"/>
<text text-anchor="start" x="168.5" y="-186.5" font-family="Helvetica,sans-Serif" font-size="10.00">src/apps/external_executor</text>
<text text-anchor="middle" x="234.5" y="-175.5" font-family="Helvetica,sans-Serif" font-size="10.00">/external_executor.cpp</text>
</a>
</g>
</g>
<!-- Node2&#45;&gt;Node6 -->
<g id="edge6" class="edge">
<title>Node2&#45;&gt;Node6</title>
<path fill="none" stroke="midnightblue" d="M637.3,-306.32C628,-304.82 618.5,-303.33 609.5,-302 488.44,-284.05 448.85,-314.53 336.5,-266 316.49,-257.36 315.5,-248.64 298.5,-235 283.04,-222.6 265.35,-208.66 252.49,-198.57"/>
<polygon fill="midnightblue" stroke="midnightblue" points="636.85,-309.79 647.28,-307.94 637.98,-302.88 636.85,-309.79"/>
</g>
<!-- Node7 -->
<g id="node7" class="node">
<title>Node7</title>
<g id="a_node7"><a xlink:href="js__generic_8cpp.html" target="_top" xlink:title=" ">
<polygon fill="white" stroke="black" points="364.5,-168.5 364.5,-198.5 474.5,-198.5 474.5,-168.5 364.5,-168.5"/>
<text text-anchor="start" x="372.5" y="-186.5" font-family="Helvetica,sans-Serif" font-size="10.00">src/apps/js_generic</text>
<text text-anchor="middle" x="419.5" y="-175.5" font-family="Helvetica,sans-Serif" font-size="10.00">/js_generic.cpp</text>
</a>
</g>
</g>
<!-- Node2&#45;&gt;Node7 -->
<g id="edge7" class="edge">
<title>Node2&#45;&gt;Node7</title>
<path fill="none" stroke="midnightblue" d="M646.31,-305.82C598.56,-295.34 531.22,-279.07 507.5,-266 475.58,-248.42 446.18,-216.79 430.77,-198.53"/>
<polygon fill="midnightblue" stroke="midnightblue" points="645.67,-309.27 656.18,-307.97 647.16,-302.43 645.67,-309.27"/>
</g>
<!-- Node8 -->
<g id="node8" class="node">
<title>Node8</title>
<g id="a_node8"><a xlink:href="js__generic__base_8cpp.html" target="_top" xlink:title=" ">
<polygon fill="white" stroke="black" points="849.5,-235.5 849.5,-265.5 967.5,-265.5 967.5,-235.5 849.5,-235.5"/>
<text text-anchor="start" x="857.5" y="-253.5" font-family="Helvetica,sans-Serif" font-size="10.00">src/apps/js_generic</text>
<text text-anchor="middle" x="908.5" y="-242.5" font-family="Helvetica,sans-Serif" font-size="10.00">/js_generic_base.cpp</text>
</a>
</g>
</g>
<!-- Node2&#45;&gt;Node8 -->
<g id="edge8" class="edge">
<title>Node2&#45;&gt;Node8</title>
<path fill="none" stroke="midnightblue" d="M735.1,-304.92C770.88,-293.9 824.77,-277.29 862.96,-265.53"/>
<polygon fill="midnightblue" stroke="midnightblue" points="734.05,-301.58 725.52,-307.87 736.11,-308.27 734.05,-301.58"/>
</g>
<!-- Node9 -->
<g id="node9" class="node">
<title>Node9</title>
<g id="a_node9"><a xlink:href="js__generic__base_8h.html" target="_top" xlink:title=" ">
<polygon fill="white" stroke="black" points="345.5,-235.5 345.5,-265.5 455.5,-265.5 455.5,-235.5 345.5,-235.5"/>
<text text-anchor="start" x="353.5" y="-253.5" font-family="Helvetica,sans-Serif" font-size="10.00">src/apps/js_generic</text>
<text text-anchor="middle" x="400.5" y="-242.5" font-family="Helvetica,sans-Serif" font-size="10.00">/js_generic_base.h</text>
</a>
</g>
</g>
<!-- Node2&#45;&gt;Node9 -->
<g id="edge9" class="edge">
<title>Node2&#45;&gt;Node9</title>
<path fill="none" stroke="midnightblue" d="M648.52,-305.78C595.46,-294.17 511,-275.68 455.65,-263.57"/>
<polygon fill="midnightblue" stroke="midnightblue" points="647.85,-309.22 658.37,-307.94 649.35,-302.38 647.85,-309.22"/>
</g>
<!-- Node10 -->
<g id="node10" class="node">
<title>Node10</title>
<g id="a_node10"><a xlink:href="tpcc_8cpp.html" target="_top" xlink:title=" ">
<polygon fill="white" stroke="black" points="550,-241 550,-260 695,-260 695,-241 550,-241"/>
<text text-anchor="middle" x="622.5" y="-248" font-family="Helvetica,sans-Serif" font-size="10.00">src/apps/tpcc/app/tpcc.cpp</text>
</a>
</g>
</g>
<!-- Node2&#45;&gt;Node10 -->
<g id="edge11" class="edge">
<title>Node2&#45;&gt;Node10</title>
<path fill="none" stroke="midnightblue" d="M679.45,-300.86C664.71,-288.08 644.41,-270.49 632.45,-260.13"/>
<polygon fill="midnightblue" stroke="midnightblue" points="677.54,-303.83 687.39,-307.73 682.12,-298.54 677.54,-303.83"/>
</g>
<!-- Node11 -->
<g id="node11" class="node">
<title>Node11</title>
<g id="a_node11"><a xlink:href="src_2enclave_2enclave_8h.html" target="_top" xlink:title=" ">
<polygon fill="white" stroke="black" points="2177.5,-56.5 2177.5,-75.5 2299.5,-75.5 2299.5,-56.5 2177.5,-56.5"/>
<text text-anchor="middle" x="2238.5" y="-63.5" font-family="Helvetica,sans-Serif" font-size="10.00">src/enclave/enclave.h</text>
</a>
</g>
</g>
<!-- Node2&#45;&gt;Node11 -->
<g id="edge12" class="edge">
<title>Node2&#45;&gt;Node11</title>
<path fill="none" stroke="midnightblue" d="M632.48,-305.97C576.87,-294.21 510.37,-271.81 541.5,-235 649.33,-107.48 1885.27,-74.24 2177.05,-68.15"/>
<polygon fill="midnightblue" stroke="midnightblue" points="631.86,-309.42 642.35,-307.98 633.25,-302.56 631.86,-309.42"/>
</g>
<!-- Node13 -->
<g id="node13" class="node">
<title>Node13</title>
<g id="a_node13"><a xlink:href="no__plugins_8cpp.html" target="_top" xlink:title=" ">
<polygon fill="white" stroke="black" points="713.5,-241 713.5,-260 831.5,-260 831.5,-241 713.5,-241"/>
<text text-anchor="middle" x="772.5" y="-248" font-family="Helvetica,sans-Serif" font-size="10.00">src/js/no_plugins.cpp</text>
</a>
</g>
</g>
<!-- Node2&#45;&gt;Node13 -->
<g id="edge14" class="edge">
<title>Node2&#45;&gt;Node13</title>
<path fill="none" stroke="midnightblue" d="M715.55,-300.86C730.29,-288.08 750.59,-270.49 762.55,-260.13"/>
<polygon fill="midnightblue" stroke="midnightblue" points="712.88,-298.54 707.61,-307.73 717.46,-303.83 712.88,-298.54"/>
</g>
<!-- Node2&#45;&gt;Node15 -->
<g id="edge16" class="edge">
<title>Node2&#45;&gt;Node15</title>
<path fill="none" stroke="midnightblue" d="M781.94,-314.14C1128.19,-304.45 2423.01,-268.14 2465.5,-266 2506.21,-263.95 2551.49,-260.76 2588.76,-257.9"/>
<polygon fill="midnightblue" stroke="midnightblue" points="781.63,-310.65 771.73,-314.42 781.83,-317.64 781.63,-310.65"/>
</g>
<!-- Node5&#45;&gt;Node6 -->
<g id="edge5" class="edge">
<title>Node5&#45;&gt;Node6</title>
<path fill="none" stroke="midnightblue" d="M222.46,-225.7C225.12,-216.59 228.07,-206.49 230.39,-198.58"/>
<polygon fill="midnightblue" stroke="midnightblue" points="219.07,-224.82 219.62,-235.4 225.79,-226.78 219.07,-224.82"/>
</g>
<!-- Node9&#45;&gt;Node7 -->
<g id="edge10" class="edge">
<title>Node9&#45;&gt;Node7</title>
<path fill="none" stroke="midnightblue" d="M407.46,-225.7C410.12,-216.59 413.07,-206.49 415.39,-198.58"/>
<polygon fill="midnightblue" stroke="midnightblue" points="404.07,-224.82 404.62,-235.4 410.79,-226.78 404.07,-224.82"/>
</g>
<!-- Node12 -->
<g id="node12" class="node">
<title>Node12</title>
<g id="a_node12"><a xlink:href="enclave_2main_8cpp.html" target="_top" xlink:title=" ">
<polygon fill="white" stroke="black" points="2178.5,-0.5 2178.5,-19.5 2298.5,-19.5 2298.5,-0.5 2178.5,-0.5"/>
<text text-anchor="middle" x="2238.5" y="-7.5" font-family="Helvetica,sans-Serif" font-size="10.00">src/enclave/main.cpp</text>
</a>
</g>
</g>
<!-- Node11&#45;&gt;Node12 -->
<g id="edge13" class="edge">
<title>Node11&#45;&gt;Node12</title>
<path fill="none" stroke="midnightblue" d="M2238.5,-45.8C2238.5,-36.91 2238.5,-26.78 2238.5,-19.75"/>
<polygon fill="midnightblue" stroke="midnightblue" points="2235,-46.08 2238.5,-56.08 2242,-46.08 2235,-46.08"/>
</g>
<!-- Node14 -->
<g id="node14" class="node">
<title>Node14</title>
<g id="a_node14"><a xlink:href="wrap_8cpp.html" target="_top" xlink:title=" ">
<polygon fill="white" stroke="black" points="1135,-174 1135,-193 1224,-193 1224,-174 1135,-174"/>
<text text-anchor="middle" x="1179.5" y="-181" font-family="Helvetica,sans-Serif" font-size="10.00">src/js/wrap.cpp</text>
</a>
</g>
</g>
<!-- Node13&#45;&gt;Node14 -->
<g id="edge15" class="edge">
<title>Node13&#45;&gt;Node14</title>
<path fill="none" stroke="midnightblue" d="M820.79,-238.82C827.4,-237.47 834.11,-236.16 840.5,-235 945.6,-215.98 1069.98,-198.81 1134.93,-190.24"/>
<polygon fill="midnightblue" stroke="midnightblue" points="819.62,-235.49 810.54,-240.95 821.04,-242.34 819.62,-235.49"/>
</g>
<!-- Node15&#45;&gt;Node11 -->
<g id="edge17" class="edge">
<title>Node15&#45;&gt;Node11</title>
<path fill="none" stroke="midnightblue" d="M2655.91,-232.32C2636.39,-202.32 2591.67,-140.84 2536.5,-112 2496.39,-91.03 2374.4,-77.85 2299.51,-71.51"/>
<polygon fill="midnightblue" stroke="midnightblue" points="2653.02,-234.31 2661.34,-240.87 2658.93,-230.55 2653.02,-234.31"/>
</g>
<!-- Node16&#45;&gt;Node4 -->
<g id="edge35" class="edge">
<title>Node16&#45;&gt;Node4</title>
<path fill="none" stroke="midnightblue" d="M1632.21,-446.82C1726.12,-433.39 1882.23,-402.01 1998.5,-333 2028.17,-315.39 2054.46,-284.07 2068.27,-265.81"/>
<polygon fill="midnightblue" stroke="midnightblue" points="1631.62,-443.37 1622.2,-448.22 1632.59,-450.3 1631.62,-443.37"/>
</g>
<!-- Node17 -->
<g id="node17" class="node">
<title>Node17</title>
<g id="a_node17"><a xlink:href="common__endpoint__registry_8h.html" target="_top" xlink:title=" ">
<polygon fill="white" stroke="black" points="1638,-369.5 1638,-399.5 1753,-399.5 1753,-369.5 1638,-369.5"/>
<text text-anchor="start" x="1646" y="-387.5" font-family="Helvetica,sans-Serif" font-size="10.00">include/ccf/common</text>
<text text-anchor="middle" x="1695.5" y="-376.5" font-family="Helvetica,sans-Serif" font-size="10.00">_endpoint_registry.h</text>
</a>
</g>
</g>
<!-- Node16&#45;&gt;Node17 -->
<g id="edge19" class="edge">
<title>Node16&#45;&gt;Node17</title>
<path fill="none" stroke="midnightblue" d="M1588.49,-437.53C1612.91,-425.66 1644.14,-410.47 1666.56,-399.57"/>
<polygon fill="midnightblue" stroke="midnightblue" points="1586.96,-434.38 1579.49,-441.9 1590.02,-440.68 1586.96,-434.38"/>
</g>
<!-- Node26 -->
<g id="node26" class="node">
<title>Node26</title>
<g id="a_node26"><a xlink:href="base__endpoint__registry_8cpp.html" target="_top" xlink:title=" ">
<polygon fill="white" stroke="black" points="1487.5,-369.5 1487.5,-399.5 1613.5,-399.5 1613.5,-369.5 1487.5,-369.5"/>
<text text-anchor="start" x="1495.5" y="-387.5" font-family="Helvetica,sans-Serif" font-size="10.00">src/endpoints/base</text>
<text text-anchor="middle" x="1550.5" y="-376.5" font-family="Helvetica,sans-Serif" font-size="10.00">_endpoint_registry.cpp</text>
</a>
</g>
</g>
<!-- Node16&#45;&gt;Node26 -->
<g id="edge36" class="edge">
<title>Node16&#45;&gt;Node26</title>
<path fill="none" stroke="midnightblue" d="M1550.5,-431.73C1550.5,-421.07 1550.5,-408.91 1550.5,-399.75"/>
<polygon fill="midnightblue" stroke="midnightblue" points="1547,-431.73 1550.5,-441.73 1554,-431.73 1547,-431.73"/>
</g>
<!-- Node27 -->
<g id="node27" class="node">
<title>Node27</title>
<g id="a_node27"><a xlink:href="wrap_8h.html" target="_top" xlink:title=" ">
<polygon fill="white" stroke="black" points="1371.5,-308 1371.5,-327 1449.5,-327 1449.5,-308 1371.5,-308"/>
<text text-anchor="middle" x="1410.5" y="-315" font-family="Helvetica,sans-Serif" font-size="10.00">src/js/wrap.h</text>
</a>
</g>
</g>
<!-- Node16&#45;&gt;Node27 -->
<g id="edge37" class="edge">
<title>Node16&#45;&gt;Node27</title>
<path fill="none" stroke="midnightblue" d="M1521.86,-435.94C1508.17,-425.81 1491.89,-412.94 1478.5,-400 1453.32,-375.67 1428.06,-342.56 1416.71,-327.11"/>
<polygon fill="midnightblue" stroke="midnightblue" points="1519.86,-438.81 1530,-441.87 1523.98,-433.15 1519.86,-438.81"/>
</g>
<!-- Node17&#45;&gt;Node2 -->
<g id="edge20" class="edge">
<title>Node17&#45;&gt;Node2</title>
<path fill="none" stroke="midnightblue" d="M1627.71,-369.7C1625.96,-369.45 1624.22,-369.22 1622.5,-369 1307.75,-329.35 928.88,-320.82 771.56,-318.99"/>
<polygon fill="midnightblue" stroke="midnightblue" points="1627.43,-373.2 1637.84,-371.26 1628.5,-366.28 1627.43,-373.2"/>
</g>
<!-- Node17&#45;&gt;Node18 -->
<g id="edge21" class="edge">
<title>Node17&#45;&gt;Node18</title>
<path fill="none" stroke="midnightblue" d="M1627.68,-369.89C1625.94,-369.58 1624.21,-369.29 1622.5,-369 1507.46,-349.63 1477.54,-352.37 1362.5,-333 1359.57,-332.51 1356.58,-331.98 1353.56,-331.44"/>
<polygon fill="midnightblue" stroke="midnightblue" points="1627.32,-373.38 1637.78,-371.71 1628.56,-366.49 1627.32,-373.38"/>
</g>
<!-- Node19 -->
<g id="node19" class="node">
<title>Node19</title>
<g id="a_node19"><a xlink:href="acme__challenge__frontend_8h.html" target="_top" xlink:title=" ">
<polygon fill="white" stroke="black" points="2162.5,-302.5 2162.5,-332.5 2302.5,-332.5 2302.5,-302.5 2162.5,-302.5"/>
<text text-anchor="start" x="2170.5" y="-320.5" font-family="Helvetica,sans-Serif" font-size="10.00">src/node/acme_challenge</text>
<text text-anchor="middle" x="2232.5" y="-309.5" font-family="Helvetica,sans-Serif" font-size="10.00">_frontend.h</text>
</a>
</g>
</g>
<!-- Node17&#45;&gt;Node19 -->
<g id="edge22" class="edge">
<title>Node17&#45;&gt;Node19</title>
<path fill="none" stroke="midnightblue" d="M1763.45,-375.28C1865.86,-362.88 2058.79,-339.53 2162.44,-326.98"/>
<polygon fill="midnightblue" stroke="midnightblue" points="1762.73,-371.84 1753.22,-376.51 1763.57,-378.79 1762.73,-371.84"/>
</g>
<!-- Node23 -->
<g id="node23" class="node">
<title>Node23</title>
<g id="a_node23"><a xlink:href="member__frontend_8h.html" target="_top" xlink:title=" ">
<polygon fill="white" stroke="black" points="1727.5,-235.5 1727.5,-265.5 1847.5,-265.5 1847.5,-235.5 1727.5,-235.5"/>
<text text-anchor="start" x="1735.5" y="-253.5" font-family="Helvetica,sans-Serif" font-size="10.00">src/node/rpc/member</text>
<text text-anchor="middle" x="1787.5" y="-242.5" font-family="Helvetica,sans-Serif" font-size="10.00">_frontend.h</text>
</a>
</g>
</g>
<!-- Node17&#45;&gt;Node23 -->
<g id="edge29" class="edge">
<title>Node17&#45;&gt;Node23</title>
<path fill="none" stroke="midnightblue" d="M1711.3,-360.83C1730.37,-333.47 1761.86,-288.28 1777.73,-265.52"/>
<polygon fill="midnightblue" stroke="midnightblue" points="1708.19,-359.17 1705.35,-369.37 1713.93,-363.17 1708.19,-359.17"/>
</g>
<!-- Node24 -->
<g id="node24" class="node">
<title>Node24</title>
<g id="a_node24"><a xlink:href="node__frontend_8h.html" target="_top" xlink:title=" ">
<polygon fill="white" stroke="black" points="2320.5,-308 2320.5,-327 2478.5,-327 2478.5,-308 2320.5,-308"/>
<text text-anchor="middle" x="2399.5" y="-315" font-family="Helvetica,sans-Serif" font-size="10.00">src/node/rpc/node_frontend.h</text>
</a>
</g>
</g>
<!-- Node17&#45;&gt;Node24 -->
<g id="edge31" class="edge">
<title>Node17&#45;&gt;Node24</title>
<path fill="none" stroke="midnightblue" d="M1763.71,-379.73C1877.51,-373.03 2113.21,-357.42 2311.5,-333 2324.72,-331.37 2338.98,-329.2 2352.11,-327.04"/>
<polygon fill="midnightblue" stroke="midnightblue" points="1763.19,-376.25 1753.41,-380.33 1763.6,-383.24 1763.19,-376.25"/>
</g>
<!-- Node19&#45;&gt;Node11 -->
<g id="edge23" class="edge">
<title>Node19&#45;&gt;Node11</title>
<path fill="none" stroke="midnightblue" d="M2312.71,-301.58C2378.13,-289.03 2460.53,-272.17 2465.5,-266 2514.28,-205.51 2478.55,-189.77 2369.5,-112 2343.75,-93.64 2309.89,-82.27 2283.05,-75.55"/>
<polygon fill="midnightblue" stroke="midnightblue" points="2311.95,-298.16 2302.79,-303.48 2313.26,-305.04 2311.95,-298.16"/>
</g>
<!-- Node20 -->
<g id="node20" class="node">
<title>Node20</title>
<g id="a_node20"><a xlink:href="ccf__acme__client_8h.html" target="_top" xlink:title=" ">
<polygon fill="white" stroke="black" points="2164,-241 2164,-260 2313,-260 2313,-241 2164,-241"/>
<text text-anchor="middle" x="2238.5" y="-248" font-family="Helvetica,sans-Serif" font-size="10.00">src/node/ccf_acme_client.h</text>
</a>
</g>
</g>
<!-- Node19&#45;&gt;Node20 -->
<g id="edge24" class="edge">
<title>Node19&#45;&gt;Node20</title>
<path fill="none" stroke="midnightblue" d="M2234.74,-292.25C2235.78,-281.02 2236.94,-268.38 2237.7,-260.19"/>
<polygon fill="midnightblue" stroke="midnightblue" points="2231.24,-292.12 2233.8,-302.4 2238.21,-292.76 2231.24,-292.12"/>
</g>
<!-- Node21 -->
<g id="node21" class="node">
<title>Node21</title>
<g id="a_node21"><a xlink:href="node__state_8h.html" target="_top" xlink:title=" ">
<polygon fill="white" stroke="black" points="2176.5,-174 2176.5,-193 2300.5,-193 2300.5,-174 2176.5,-174"/>
<text text-anchor="middle" x="2238.5" y="-181" font-family="Helvetica,sans-Serif" font-size="10.00">src/node/node_state.h</text>
</a>
</g>
</g>
<!-- Node20&#45;&gt;Node21 -->
<g id="edge25" class="edge">
<title>Node20&#45;&gt;Node21</title>
<path fill="none" stroke="midnightblue" d="M2238.5,-230.54C2238.5,-218.17 2238.5,-202.62 2238.5,-193.13"/>
<polygon fill="midnightblue" stroke="midnightblue" points="2235,-230.73 2238.5,-240.73 2242,-230.73 2235,-230.73"/>
</g>
<!-- Node21&#45;&gt;Node11 -->
<g id="edge26" class="edge">
<title>Node21&#45;&gt;Node11</title>
<path fill="none" stroke="midnightblue" d="M2223.69,-165.83C2213.06,-151.8 2201.58,-131.03 2207.5,-112 2211.9,-97.87 2222.45,-84.25 2230.02,-75.77"/>
<polygon fill="midnightblue" stroke="midnightblue" points="2221.01,-168.08 2230.04,-173.62 2226.44,-163.66 2221.01,-168.08"/>
</g>
<!-- Node22 -->
<g id="node22" class="node">
<title>Node22</title>
<g id="a_node22"><a xlink:href="gov__effects_8h.html" target="_top" xlink:title=" ">
<polygon fill="white" stroke="black" points="2216.5,-112.5 2216.5,-131.5 2360.5,-131.5 2360.5,-112.5 2216.5,-112.5"/>
<text text-anchor="middle" x="2288.5" y="-119.5" font-family="Helvetica,sans-Serif" font-size="10.00">src/node/rpc/gov_effects.h</text>
</a>
</g>
</g>
<!-- Node21&#45;&gt;Node22 -->
<g id="edge27" class="edge">
<title>Node21&#45;&gt;Node22</title>
<path fill="none" stroke="midnightblue" d="M2252.22,-166.17C2261.65,-154.95 2273.78,-140.52 2281.35,-131.51"/>
<polygon fill="midnightblue" stroke="midnightblue" points="2249.42,-164.07 2245.66,-173.98 2254.78,-168.57 2249.42,-164.07"/>
</g>
<!-- Node22&#45;&gt;Node11 -->
<g id="edge28" class="edge">
<title>Node22&#45;&gt;Node11</title>
<path fill="none" stroke="midnightblue" d="M2273.42,-104.72C2264.61,-95.2 2253.83,-83.56 2246.6,-75.75"/>
<polygon fill="midnightblue" stroke="midnightblue" points="2270.88,-107.12 2280.24,-112.08 2276.02,-102.37 2270.88,-107.12"/>
</g>
<!-- Node23&#45;&gt;Node11 -->
<g id="edge30" class="edge">
<title>Node23&#45;&gt;Node11</title>
<path fill="none" stroke="midnightblue" d="M1831.48,-231.7C1926.55,-193.23 2148.23,-103.53 2217.46,-75.51"/>
<polygon fill="midnightblue" stroke="midnightblue" points="1830.1,-228.49 1822.14,-235.48 1832.72,-234.98 1830.1,-228.49"/>
</g>
<!-- Node24&#45;&gt;Node11 -->
<g id="edge32" class="edge">
<title>Node24&#45;&gt;Node11</title>
<path fill="none" stroke="midnightblue" d="M2439.84,-304.16C2458.09,-296.34 2477.92,-284.17 2488.5,-266 2500.03,-246.19 2483.4,-178.79 2476.5,-168 2438.31,-108.24 2356.6,-83.77 2299.64,-73.8"/>
<polygon fill="midnightblue" stroke="midnightblue" points="2438.5,-300.93 2430.49,-307.87 2441.08,-307.44 2438.5,-300.93"/>
</g>
<!-- Node25 -->
<g id="node25" class="node">
<title>Node25</title>
<g id="a_node25"><a xlink:href="jwt__key__auto__refresh_8h.html" target="_top" xlink:title=" ">
<polygon fill="white" stroke="black" points="2331,-235.5 2331,-265.5 2456,-265.5 2456,-235.5 2331,-235.5"/>
<text text-anchor="start" x="2339" y="-253.5" font-family="Helvetica,sans-Serif" font-size="10.00">src/node/jwt_key_auto</text>
<text text-anchor="middle" x="2393.5" y="-242.5" font-family="Helvetica,sans-Serif" font-size="10.00">_refresh.h</text>
</a>
</g>
</g>
<!-- Node24&#45;&gt;Node25 -->
<g id="edge33" class="edge">
<title>Node24&#45;&gt;Node25</title>
<path fill="none" stroke="midnightblue" d="M2397.77,-297.74C2396.82,-287.49 2395.67,-275 2394.8,-265.59"/>
<polygon fill="midnightblue" stroke="midnightblue" points="2394.29,-298.1 2398.69,-307.73 2401.26,-297.45 2394.29,-298.1"/>
</g>
<!-- Node25&#45;&gt;Node21 -->
<g id="edge34" class="edge">
<title>Node25&#45;&gt;Node21</title>
<path fill="none" stroke="midnightblue" d="M2350.48,-231.46C2320.53,-218.9 2281.96,-202.72 2258.79,-193.01"/>
<polygon fill="midnightblue" stroke="midnightblue" points="2349.29,-234.76 2359.87,-235.4 2352,-228.3 2349.29,-234.76"/>
</g>
<!-- Node27&#45;&gt;Node8 -->
<g id="edge38" class="edge">
<title>Node27&#45;&gt;Node8</title>
<path fill="none" stroke="midnightblue" d="M1375.44,-305.04C1371.12,-303.88 1366.73,-302.83 1362.5,-302 1195.6,-269.25 1149.8,-290.6 981.5,-266 977.03,-265.35 972.41,-264.6 967.77,-263.8"/>
<polygon fill="midnightblue" stroke="midnightblue" points="1374.75,-308.48 1385.33,-307.87 1376.68,-301.75 1374.75,-308.48"/>
</g>
<!-- Node27&#45;&gt;Node11 -->
<g id="edge39" class="edge">
<title>Node27&#45;&gt;Node11</title>
<path fill="none" stroke="midnightblue" d="M1375.43,-305.11C1371.1,-303.94 1366.72,-302.87 1362.5,-302 1291.97,-287.53 1088.5,-319.67 1040.5,-266 1031.31,-255.73 1034.45,-247.38 1040.5,-235 1061.77,-191.47 1081.44,-185.8 1126.5,-168 1320.43,-91.39 1973.68,-72.21 2177.34,-68.04"/>
<polygon fill="midnightblue" stroke="midnightblue" points="1374.73,-308.55 1385.31,-307.95 1376.67,-301.82 1374.73,-308.55"/>
</g>
<!-- Node27&#45;&gt;Node14 -->
<g id="edge49" class="edge">
<title>Node27&#45;&gt;Node14</title>
<path fill="none" stroke="midnightblue" d="M1375.43,-305.12C1371.1,-303.95 1366.72,-302.88 1362.5,-302 1294.59,-287.92 1098.62,-317.79 1052.5,-266 1021.66,-231.37 1094.18,-205.67 1141.87,-193.1"/>
<polygon fill="midnightblue" stroke="midnightblue" points="1374.73,-308.57 1385.31,-307.97 1376.67,-301.84 1374.73,-308.57"/>
</g>
<!-- Node27&#45;&gt;Node21 -->
<g id="edge50" class="edge">
<title>Node27&#45;&gt;Node21</title>
<path fill="none" stroke="midnightblue" d="M1459.89,-314.57C1515.79,-310.76 1608.43,-299.46 1680.5,-266 1700.27,-256.82 1698.35,-243.3 1718.5,-235 1799.86,-201.51 2056.53,-189.77 2176.09,-186.06"/>
<polygon fill="midnightblue" stroke="midnightblue" points="1459.66,-311.07 1449.89,-315.19 1460.09,-318.06 1459.66,-311.07"/>
</g>
<!-- Node27&#45;&gt;Node23 -->
<g id="edge51" class="edge">
<title>Node27&#45;&gt;Node23</title>
<path fill="none" stroke="midnightblue" d="M1459.74,-308.73C1519.76,-299.17 1624.21,-282.19 1713.5,-266 1718.01,-265.18 1722.67,-264.32 1727.35,-263.43"/>
<polygon fill="midnightblue" stroke="midnightblue" points="1459.11,-305.29 1449.78,-310.32 1460.21,-312.2 1459.11,-305.29"/>
</g>
<!-- Node28 -->
<g id="node28" class="node">
<title>Node28</title>
<g id="a_node28"><a xlink:href="consensus_8cpp.html" target="_top" xlink:title=" ">
<polygon fill="white" stroke="black" points="1061.5,-241 1061.5,-260 1177.5,-260 1177.5,-241 1061.5,-241"/>
<text text-anchor="middle" x="1119.5" y="-248" font-family="Helvetica,sans-Serif" font-size="10.00">src/js/consensus.cpp</text>
</a>
</g>
</g>
<!-- Node27&#45;&gt;Node28 -->
<g id="edge40" class="edge">
<title>Node27&#45;&gt;Node28</title>
<path fill="none" stroke="midnightblue" d="M1373.79,-305.04C1369.99,-303.96 1366.18,-302.93 1362.5,-302 1285.09,-282.44 1264.63,-282.44 1186.5,-266 1177.42,-264.09 1167.65,-262 1158.46,-260.01"/>
<polygon fill="midnightblue" stroke="midnightblue" points="1373.13,-308.49 1383.71,-307.93 1375.09,-301.77 1373.13,-308.49"/>
</g>
<!-- Node29 -->
<g id="node29" class="node">
<title>Node29</title>
<g id="a_node29"><a xlink:href="conv_8cpp.html" target="_top" xlink:title=" ">
<polygon fill="white" stroke="black" points="1195.5,-241 1195.5,-260 1283.5,-260 1283.5,-241 1195.5,-241"/>
<text text-anchor="middle" x="1239.5" y="-248" font-family="Helvetica,sans-Serif" font-size="10.00">src/js/conv.cpp</text>
</a>
</g>
</g>
<!-- Node27&#45;&gt;Node29 -->
<g id="edge42" class="edge">
<title>Node27&#45;&gt;Node29</title>
<path fill="none" stroke="midnightblue" d="M1378.33,-304.27C1344.39,-291.37 1291.79,-271.38 1262.03,-260.06"/>
<polygon fill="midnightblue" stroke="midnightblue" points="1377.2,-307.59 1387.79,-307.87 1379.69,-301.04 1377.2,-307.59"/>
</g>
<!-- Node30 -->
<g id="node30" class="node">
<title>Node30</title>
<g id="a_node30"><a xlink:href="crypto_8cpp.html" target="_top" xlink:title=" ">
<polygon fill="white" stroke="black" points="1301.5,-241 1301.5,-260 1397.5,-260 1397.5,-241 1301.5,-241"/>
<text text-anchor="middle" x="1349.5" y="-248" font-family="Helvetica,sans-Serif" font-size="10.00">src/js/crypto.cpp</text>
</a>
</g>
</g>
<!-- Node27&#45;&gt;Node30 -->
<g id="edge44" class="edge">
<title>Node27&#45;&gt;Node30</title>
<path fill="none" stroke="midnightblue" d="M1395.14,-300.13C1383.21,-287.42 1367.14,-270.3 1357.6,-260.13"/>
<polygon fill="midnightblue" stroke="midnightblue" points="1392.88,-302.84 1402.27,-307.73 1397.98,-298.05 1392.88,-302.84"/>
</g>
<!-- Node31 -->
<g id="node31" class="node">
<title>Node31</title>
<g id="a_node31"><a xlink:href="historical_8cpp.html" target="_top" xlink:title=" ">
<polygon fill="white" stroke="black" points="1415.5,-241 1415.5,-260 1525.5,-260 1525.5,-241 1415.5,-241"/>
<text text-anchor="middle" x="1470.5" y="-248" font-family="Helvetica,sans-Serif" font-size="10.00">src/js/historical.cpp</text>
</a>
</g>
</g>
<!-- Node27&#45;&gt;Node31 -->
<g id="edge46" class="edge">
<title>Node27&#45;&gt;Node31</title>
<path fill="none" stroke="midnightblue" d="M1425.61,-300.13C1437.34,-287.42 1453.15,-270.3 1462.54,-260.13"/>
<polygon fill="midnightblue" stroke="midnightblue" points="1422.8,-298.01 1418.59,-307.73 1427.95,-302.76 1422.8,-298.01"/>
</g>
<!-- Node32 -->
<g id="node32" class="node">
<title>Node32</title>
<g id="a_node32"><a xlink:href="openenclave_8cpp.html" target="_top" xlink:title=" ">
<polygon fill="white" stroke="black" points="1543.5,-241 1543.5,-260 1671.5,-260 1671.5,-241 1543.5,-241"/>
<text text-anchor="middle" x="1607.5" y="-248" font-family="Helvetica,sans-Serif" font-size="10.00">src/js/openenclave.cpp</text>
</a>
</g>
</g>
<!-- Node27&#45;&gt;Node32 -->
<g id="edge48" class="edge">
<title>Node27&#45;&gt;Node32</title>
<path fill="none" stroke="midnightblue" d="M1446.56,-304.6C1485.62,-291.71 1546.97,-271.47 1581.55,-260.06"/>
<polygon fill="midnightblue" stroke="midnightblue" points="1445.06,-301.41 1436.66,-307.87 1447.25,-308.06 1445.06,-301.41"/>
</g>
<!-- Node28&#45;&gt;Node14 -->
<g id="edge41" class="edge">
<title>Node28&#45;&gt;Node14</title>
<path fill="none" stroke="midnightblue" d="M1134.61,-233.13C1146.34,-220.42 1162.15,-203.3 1171.54,-193.13"/>
<polygon fill="midnightblue" stroke="midnightblue" points="1131.8,-231.01 1127.59,-240.73 1136.95,-235.76 1131.8,-231.01"/>
</g>
<!-- Node29&#45;&gt;Node14 -->
<g id="edge43" class="edge">
<title>Node29&#45;&gt;Node14</title>
<path fill="none" stroke="midnightblue" d="M1224.39,-233.13C1212.66,-220.42 1196.85,-203.3 1187.46,-193.13"/>
<polygon fill="midnightblue" stroke="midnightblue" points="1222.05,-235.76 1231.41,-240.73 1227.2,-231.01 1222.05,-235.76"/>
</g>
<!-- Node30&#45;&gt;Node14 -->
<g id="edge45" class="edge">
<title>Node30&#45;&gt;Node14</title>
<path fill="none" stroke="midnightblue" d="M1317.52,-237.27C1283.78,-224.37 1231.48,-204.38 1201.9,-193.06"/>
<polygon fill="midnightblue" stroke="midnightblue" points="1316.33,-240.57 1326.93,-240.87 1318.83,-234.03 1316.33,-240.57"/>
</g>
<!-- Node31&#45;&gt;Node14 -->
<g id="edge47" class="edge">
<title>Node31&#45;&gt;Node14</title>
<path fill="none" stroke="midnightblue" d="M1423.02,-238.72C1417.45,-237.46 1411.85,-236.2 1406.5,-235 1340.32,-220.14 1263.24,-203.04 1218.07,-193.03"/>
<polygon fill="midnightblue" stroke="midnightblue" points="1422.42,-242.17 1432.94,-240.96 1423.96,-235.35 1422.42,-242.17"/>
</g>
<!-- Node33&#45;&gt;Node3 -->
<g id="edge53" class="edge">
<title>Node33&#45;&gt;Node3</title>
<path fill="none" stroke="midnightblue" d="M1106.71,-382.31C977.13,-379.26 702.01,-368.67 614.5,-333 594.32,-324.77 596.72,-310.14 576.5,-302 484.67,-265.04 230.51,-279.93 132.5,-266 129.51,-265.58 126.46,-265.1 123.38,-264.59"/>
<polygon fill="midnightblue" stroke="midnightblue" points="1106.83,-385.82 1116.91,-382.55 1106.99,-378.82 1106.83,-385.82"/>
</g>
<!-- Node33&#45;&gt;Node8 -->
<g id="edge54" class="edge">
<title>Node33&#45;&gt;Node8</title>
<path fill="none" stroke="midnightblue" d="M1137.95,-364.93C1083.9,-338.21 985.37,-289.51 936.93,-265.56"/>
<polygon fill="midnightblue" stroke="midnightblue" points="1136.66,-368.2 1147.18,-369.5 1139.77,-361.93 1136.66,-368.2"/>
</g>
<!-- Node33&#45;&gt;Node18 -->
<g id="edge55" class="edge">
<title>Node33&#45;&gt;Node18</title>
<path fill="none" stroke="midnightblue" d="M1209.18,-364.3C1227.02,-354.12 1248.54,-341.85 1264.81,-332.58"/>
<polygon fill="midnightblue" stroke="midnightblue" points="1207.19,-361.4 1200.24,-369.4 1210.66,-367.48 1207.19,-361.4"/>
</g>
<!-- Node34 -->
<g id="node34" class="node">
<title>Node34</title>
<g id="a_node34"><a xlink:href="historical__queries__adapter_8cpp.html" target="_top" xlink:title=" ">
<polygon fill="white" stroke="black" points="447.5,-302.5 447.5,-332.5 567.5,-332.5 567.5,-302.5 447.5,-302.5"/>
<text text-anchor="start" x="455.5" y="-320.5" font-family="Helvetica,sans-Serif" font-size="10.00">src/node/historical</text>
<text text-anchor="middle" x="507.5" y="-309.5" font-family="Helvetica,sans-Serif" font-size="10.00">_queries_adapter.cpp</text>
</a>
</g>
</g>
<!-- Node33&#45;&gt;Node34 -->
<g id="edge56" class="edge">
<title>Node33&#45;&gt;Node34</title>
<path fill="none" stroke="midnightblue" d="M1106.61,-380.08C995.64,-374.02 770.6,-359.48 581.5,-333 576.96,-332.36 572.28,-331.63 567.58,-330.84"/>
<polygon fill="midnightblue" stroke="midnightblue" points="1106.49,-383.58 1116.67,-380.62 1106.87,-376.59 1106.49,-383.58"/>
</g>
<!-- Node35 -->
<g id="node35" class="node">
<title>Node35</title>
<g id="a_node35"><a xlink:href="snapshot__serdes_8h.html" target="_top" xlink:title=" ">
<polygon fill="white" stroke="black" points="1837.5,-308 1837.5,-327 1989.5,-327 1989.5,-308 1837.5,-308"/>
<text text-anchor="middle" x="1913.5" y="-315" font-family="Helvetica,sans-Serif" font-size="10.00">src/node/snapshot_serdes.h</text>
</a>
</g>
</g>
<!-- Node33&#45;&gt;Node35 -->
<g id="edge57" class="edge">
<title>Node33&#45;&gt;Node35</title>
<path fill="none" stroke="midnightblue" d="M1244.07,-377.46C1382.23,-365.29 1693.16,-337.91 1837.38,-325.2"/>
<polygon fill="midnightblue" stroke="midnightblue" points="1243.68,-373.98 1234.03,-378.35 1244.3,-380.95 1243.68,-373.98"/>
</g>
<!-- Node36 -->
<g id="node36" class="node">
<title>Node36</title>
<g id="a_node36"><a xlink:href="snapshotter_8h.html" target="_top" xlink:title=" ">
<polygon fill="white" stroke="black" points="1866,-241 1866,-260 1993,-260 1993,-241 1866,-241"/>
<text text-anchor="middle" x="1929.5" y="-248" font-family="Helvetica,sans-Serif" font-size="10.00">src/node/snapshotter.h</text>
</a>
</g>
</g>
<!-- Node35&#45;&gt;Node36 -->
<g id="edge58" class="edge">
<title>Node35&#45;&gt;Node36</title>
<path fill="none" stroke="midnightblue" d="M1918.07,-297.91C1921.13,-285.49 1925.02,-269.72 1927.38,-260.13"/>
<polygon fill="midnightblue" stroke="midnightblue" points="1914.65,-297.19 1915.66,-307.73 1921.45,-298.86 1914.65,-297.19"/>
</g>
<!-- Node36&#45;&gt;Node21 -->
<g id="edge59" class="edge">
<title>Node36&#45;&gt;Node21</title>
<path fill="none" stroke="midnightblue" d="M1980.35,-238.8C2041.16,-226.01 2141.72,-204.86 2197.7,-193.08"/>
<polygon fill="midnightblue" stroke="midnightblue" points="1979.28,-235.45 1970.21,-240.94 1980.72,-242.3 1979.28,-235.45"/>
</g>
<!-- Node37&#45;&gt;Node3 -->
<g id="edge61" class="edge">
<title>Node37&#45;&gt;Node3</title>
<path fill="none" stroke="midnightblue" d="M423.13,-431.87C336.79,-388.81 158.77,-300.01 89.73,-265.58"/>
<polygon fill="midnightblue" stroke="midnightblue" points="421.68,-435.06 432.19,-436.39 424.8,-428.8 421.68,-435.06"/>
</g>
<!-- Node38 -->
<g id="node38" class="node">
<title>Node38</title>
<g id="a_node38"><a xlink:href="seqnos__by__key__bucketed_8cpp.html" target="_top" xlink:title=" ">
<polygon fill="white" stroke="black" points="389.5,-369.5 389.5,-399.5 553.5,-399.5 553.5,-369.5 389.5,-369.5"/>
<text text-anchor="start" x="397.5" y="-387.5" font-family="Helvetica,sans-Serif" font-size="10.00">src/indexing/strategies</text>
<text text-anchor="middle" x="471.5" y="-376.5" font-family="Helvetica,sans-Serif" font-size="10.00">/seqnos_by_key_bucketed.cpp</text>
</a>
</g>
</g>
<!-- Node37&#45;&gt;Node38 -->
<g id="edge62" class="edge">
<title>Node37&#45;&gt;Node38</title>
<path fill="none" stroke="midnightblue" d="M471.5,-426.08C471.5,-417.01 471.5,-407.45 471.5,-399.89"/>
<polygon fill="midnightblue" stroke="midnightblue" points="468,-426.36 471.5,-436.36 475,-426.36 468,-426.36"/>
</g>
<!-- Node39&#45;&gt;Node15 -->
<g id="edge70" class="edge">
<title>Node39&#45;&gt;Node15</title>
<path fill="none" stroke="midnightblue" d="M2390.37,-379.39C2443.98,-374 2516.62,-361.59 2574.5,-333 2611.81,-314.57 2645.66,-276.93 2659.67,-260.04"/>
<polygon fill="midnightblue" stroke="midnightblue" points="2389.88,-375.92 2380.25,-380.35 2390.54,-382.89 2389.88,-375.92"/>
</g>
<!-- Node39&#45;&gt;Node19 -->
<g id="edge66" class="edge">
<title>Node39&#45;&gt;Node19</title>
<path fill="none" stroke="midnightblue" d="M2296.4,-368.54C2282.59,-357.73 2264.04,-343.2 2250.49,-332.59"/>
<polygon fill="midnightblue" stroke="midnightblue" points="2294.28,-371.32 2304.31,-374.73 2298.59,-365.81 2294.28,-371.32"/>
</g>
<!-- Node39&#45;&gt;Node21 -->
<g id="edge67" class="edge">
<title>Node39&#45;&gt;Node21</title>
<path fill="none" stroke="midnightblue" d="M2378.77,-373.06C2422.15,-364.46 2474.18,-350.8 2487.5,-333 2495.76,-321.97 2489.68,-315.6 2487.5,-302 2482.55,-271.05 2488.72,-256.05 2465.5,-235 2441.6,-213.35 2359.14,-199.05 2300.5,-191.36"/>
<polygon fill="midnightblue" stroke="midnightblue" points="2377.98,-369.65 2368.82,-374.97 2379.3,-376.52 2377.98,-369.65"/>
</g>
<!-- Node39&#45;&gt;Node23 -->
<g id="edge68" class="edge">
<title>Node39&#45;&gt;Node23</title>
<path fill="none" stroke="midnightblue" d="M2240.45,-384.31C2120.76,-384.2 1893.51,-377.86 1828.5,-333 1805.56,-317.17 1794.78,-284.58 1790.29,-265.76"/>
<polygon fill="midnightblue" stroke="midnightblue" points="2240.64,-387.81 2250.63,-384.3 2240.63,-380.81 2240.64,-387.81"/>
</g>
<!-- Node39&#45;&gt;Node24 -->
<g id="edge69" class="edge">
<title>Node39&#45;&gt;Node24</title>
<path fill="none" stroke="midnightblue" d="M2334.8,-368.57C2351.38,-355.74 2374.71,-337.69 2388.35,-327.13"/>
<polygon fill="midnightblue" stroke="midnightblue" points="2332.6,-365.85 2326.83,-374.73 2336.88,-371.38 2332.6,-365.85"/>
</g>
</g>
</svg>
