<?xml version="1.0" encoding="UTF-8" standalone="no"?>
<!DOCTYPE svg PUBLIC "-//W3C//DTD SVG 1.1//EN"
 "http://www.w3.org/Graphics/SVG/1.1/DTD/svg11.dtd">
<!-- Generated by graphviz version 2.43.0 (0)
 -->
<!-- Title: src/consensus/aft/revealed_nonces.h Pages: 1 -->
<svg width="1655pt" height="531pt"
 viewBox="0.00 0.00 1655.13 531.00" xmlns="http://www.w3.org/2000/svg" xmlns:xlink="http://www.w3.org/1999/xlink">
<g id="graph0" class="graph" transform="scale(1 1) rotate(0) translate(4 527)">
<title>src/consensus/aft/revealed_nonces.h</title>
<polygon fill="white" stroke="transparent" points="-4,4 -4,-527 1651.13,-527 1651.13,4 -4,4"/>
<!-- Node1 -->
<g id="node1" class="node">
<title>Node1</title>
<g id="a_node1"><a xlink:title=" ">
<polygon fill="#bfbfbf" stroke="black" points="1021,-492.5 1021,-522.5 1167,-522.5 1167,-492.5 1021,-492.5"/>
<text text-anchor="start" x="1029" y="-510.5" font-family="Helvetica,sans-Serif" font-size="10.00">src/consensus/aft/revealed</text>
<text text-anchor="middle" x="1094" y="-499.5" font-family="Helvetica,sans-Serif" font-size="10.00">_nonces.h</text>
</a>
</g>
</g>
<!-- Node2 -->
<g id="node2" class="node">
<title>Node2</title>
<g id="a_node2"><a xlink:href="network__tables_8h.html" target="_top" xlink:title=" ">
<polygon fill="white" stroke="black" points="1038,-425.5 1038,-455.5 1150,-455.5 1150,-425.5 1038,-425.5"/>
<text text-anchor="start" x="1046" y="-443.5" font-family="Helvetica,sans-Serif" font-size="10.00">src/service/network</text>
<text text-anchor="middle" x="1094" y="-432.5" font-family="Helvetica,sans-Serif" font-size="10.00">_tables.h</text>
</a>
</g>
</g>
<!-- Node1&#45;&gt;Node2 -->
<g id="edge1" class="edge">
<title>Node1&#45;&gt;Node2</title>
<path fill="none" stroke="midnightblue" d="M1094,-482.11C1094,-473.15 1094,-463.32 1094,-455.58"/>
<polygon fill="midnightblue" stroke="midnightblue" points="1090.5,-482.4 1094,-492.4 1097.5,-482.4 1090.5,-482.4"/>
</g>
<!-- Node3 -->
<g id="node3" class="node">
<title>Node3</title>
<g id="a_node3"><a xlink:href="ccf__acme__client_8h.html" target="_top" xlink:title=" ">
<polygon fill="white" stroke="black" points="1019.5,-230 1019.5,-249 1168.5,-249 1168.5,-230 1019.5,-230"/>
<text text-anchor="middle" x="1094" y="-237" font-family="Helvetica,sans-Serif" font-size="10.00">src/node/ccf_acme_client.h</text>
</a>
</g>
</g>
<!-- Node2&#45;&gt;Node3 -->
<g id="edge2" class="edge">
<title>Node2&#45;&gt;Node3</title>
<path fill="none" stroke="midnightblue" d="M1094,-414.96C1094,-370.43 1094,-278.25 1094,-249.36"/>
<polygon fill="midnightblue" stroke="midnightblue" points="1090.5,-415.19 1094,-425.19 1097.5,-415.19 1090.5,-415.19"/>
</g>
<!-- Node8 -->
<g id="node8" class="node">
<title>Node8</title>
<g id="a_node8"><a xlink:href="network__state_8h.html" target="_top" xlink:title=" ">
<polygon fill="white" stroke="black" points="907,-364 907,-383 1047,-383 1047,-364 907,-364"/>
<text text-anchor="middle" x="977" y="-371" font-family="Helvetica,sans-Serif" font-size="10.00">src/node/network_state.h</text>
</a>
</g>
</g>
<!-- Node2&#45;&gt;Node8 -->
<g id="edge8" class="edge">
<title>Node2&#45;&gt;Node8</title>
<path fill="none" stroke="midnightblue" d="M1059.75,-420.47C1037.42,-408.06 1009.35,-392.47 992.31,-383.01"/>
<polygon fill="midnightblue" stroke="midnightblue" points="1058.17,-423.6 1068.61,-425.4 1061.57,-417.48 1058.17,-423.6"/>
</g>
<!-- Node25 -->
<g id="node25" class="node">
<title>Node25</title>
<g id="a_node25"><a xlink:href="genesis__gen_8h.html" target="_top" xlink:title=" ">
<polygon fill="white" stroke="black" points="1403,-358.5 1403,-388.5 1513,-388.5 1513,-358.5 1403,-358.5"/>
<text text-anchor="start" x="1411" y="-376.5" font-family="Helvetica,sans-Serif" font-size="10.00">src/service/genesis</text>
<text text-anchor="middle" x="1458" y="-365.5" font-family="Helvetica,sans-Serif" font-size="10.00">_gen.h</text>
</a>
</g>
</g>
<!-- Node2&#45;&gt;Node25 -->
<g id="edge43" class="edge">
<title>Node2&#45;&gt;Node25</title>
<path fill="none" stroke="midnightblue" d="M1160.04,-427.71C1229.52,-415.3 1337.64,-395.99 1402.75,-384.37"/>
<polygon fill="midnightblue" stroke="midnightblue" points="1159.31,-424.28 1150.08,-429.49 1160.54,-431.17 1159.31,-424.28"/>
</g>
<!-- Node4 -->
<g id="node4" class="node">
<title>Node4</title>
<g id="a_node4"><a xlink:href="node__state_8h.html" target="_top" xlink:title=" ">
<polygon fill="white" stroke="black" points="1083,-168.5 1083,-187.5 1207,-187.5 1207,-168.5 1083,-168.5"/>
<text text-anchor="middle" x="1145" y="-175.5" font-family="Helvetica,sans-Serif" font-size="10.00">src/node/node_state.h</text>
</a>
</g>
</g>
<!-- Node3&#45;&gt;Node4 -->
<g id="edge3" class="edge">
<title>Node3&#45;&gt;Node4</title>
<path fill="none" stroke="midnightblue" d="M1108,-222.17C1117.61,-210.95 1129.99,-196.52 1137.71,-187.51"/>
<polygon fill="midnightblue" stroke="midnightblue" points="1105.16,-220.1 1101.31,-229.98 1110.47,-224.66 1105.16,-220.1"/>
</g>
<!-- Node5 -->
<g id="node5" class="node">
<title>Node5</title>
<g id="a_node5"><a xlink:href="src_2enclave_2enclave_8h.html" target="_top" xlink:title=" ">
<polygon fill="white" stroke="black" points="879,-56.5 879,-75.5 1001,-75.5 1001,-56.5 879,-56.5"/>
<text text-anchor="middle" x="940" y="-63.5" font-family="Helvetica,sans-Serif" font-size="10.00">src/enclave/enclave.h</text>
</a>
</g>
</g>
<!-- Node4&#45;&gt;Node5 -->
<g id="edge4" class="edge">
<title>Node4&#45;&gt;Node5</title>
<path fill="none" stroke="midnightblue" d="M1113.94,-164.49C1093.68,-156.01 1066.87,-144.16 1044,-132 1009.79,-113.8 971.66,-88.63 952.47,-75.59"/>
<polygon fill="midnightblue" stroke="midnightblue" points="1112.73,-167.77 1123.31,-168.37 1115.41,-161.31 1112.73,-167.77"/>
</g>
<!-- Node7 -->
<g id="node7" class="node">
<title>Node7</title>
<g id="a_node7"><a xlink:href="gov__effects_8h.html" target="_top" xlink:title=" ">
<polygon fill="white" stroke="black" points="1053,-112.5 1053,-131.5 1197,-131.5 1197,-112.5 1053,-112.5"/>
<text text-anchor="middle" x="1125" y="-119.5" font-family="Helvetica,sans-Serif" font-size="10.00">src/node/rpc/gov_effects.h</text>
</a>
</g>
</g>
<!-- Node4&#45;&gt;Node7 -->
<g id="edge6" class="edge">
<title>Node4&#45;&gt;Node7</title>
<path fill="none" stroke="midnightblue" d="M1138.22,-158.69C1134.85,-149.59 1130.93,-139.01 1128.24,-131.75"/>
<polygon fill="midnightblue" stroke="midnightblue" points="1134.94,-159.92 1141.7,-168.08 1141.51,-157.49 1134.94,-159.92"/>
</g>
<!-- Node6 -->
<g id="node6" class="node">
<title>Node6</title>
<g id="a_node6"><a xlink:href="enclave_2main_8cpp.html" target="_top" xlink:title=" ">
<polygon fill="white" stroke="black" points="880,-0.5 880,-19.5 1000,-19.5 1000,-0.5 880,-0.5"/>
<text text-anchor="middle" x="940" y="-7.5" font-family="Helvetica,sans-Serif" font-size="10.00">src/enclave/main.cpp</text>
</a>
</g>
</g>
<!-- Node5&#45;&gt;Node6 -->
<g id="edge5" class="edge">
<title>Node5&#45;&gt;Node6</title>
<path fill="none" stroke="midnightblue" d="M940,-45.8C940,-36.91 940,-26.78 940,-19.75"/>
<polygon fill="midnightblue" stroke="midnightblue" points="936.5,-46.08 940,-56.08 943.5,-46.08 936.5,-46.08"/>
</g>
<!-- Node7&#45;&gt;Node5 -->
<g id="edge7" class="edge">
<title>Node7&#45;&gt;Node5</title>
<path fill="none" stroke="midnightblue" d="M1085.83,-109.57C1050.93,-99.38 1000.65,-84.7 969.18,-75.52"/>
<polygon fill="midnightblue" stroke="midnightblue" points="1085.11,-113 1095.69,-112.44 1087.07,-106.28 1085.11,-113"/>
</g>
<!-- Node8&#45;&gt;Node4 -->
<g id="edge29" class="edge">
<title>Node8&#45;&gt;Node4</title>
<path fill="none" stroke="midnightblue" d="M1000.09,-358.53C1027.24,-342.16 1073.72,-314.31 1114,-291 1142.25,-274.66 1161.52,-283.17 1178,-255 1191.51,-231.9 1167.97,-202.25 1154.08,-187.76"/>
<polygon fill="midnightblue" stroke="midnightblue" points="998.08,-355.65 991.33,-363.82 1001.7,-361.65 998.08,-355.65"/>
</g>
<!-- Node8&#45;&gt;Node5 -->
<g id="edge9" class="edge">
<title>Node8&#45;&gt;Node5</title>
<path fill="none" stroke="midnightblue" d="M896.61,-371.84C717.96,-369.69 292.86,-360.56 155,-322 80.05,-301.04 0,-318.33 0,-240.5 0,-240.5 0,-240.5 0,-177 0,-88.22 669.97,-70.94 878.69,-67.71"/>
<polygon fill="midnightblue" stroke="midnightblue" points="896.69,-375.34 906.73,-371.96 896.77,-368.35 896.69,-375.34"/>
</g>
<!-- Node9 -->
<g id="node9" class="node">
<title>Node9</title>
<g id="a_node9"><a xlink:href="wrap_8h.html" target="_top" xlink:title=" ">
<polygon fill="white" stroke="black" points="646,-297 646,-316 724,-316 724,-297 646,-297"/>
<text text-anchor="middle" x="685" y="-304" font-family="Helvetica,sans-Serif" font-size="10.00">src/js/wrap.h</text>
</a>
</g>
</g>
<!-- Node8&#45;&gt;Node9 -->
<g id="edge10" class="edge">
<title>Node8&#45;&gt;Node9</title>
<path fill="none" stroke="midnightblue" d="M919.57,-362.11C869.91,-352.78 796.35,-338.09 733,-322 726.08,-320.24 718.67,-318.12 711.79,-316.05"/>
<polygon fill="midnightblue" stroke="midnightblue" points="919.01,-365.57 929.48,-363.97 920.29,-358.69 919.01,-365.57"/>
</g>
<!-- Node18 -->
<g id="node18" class="node">
<title>Node18</title>
<g id="a_node18"><a xlink:href="acme__challenge__frontend_8h.html" target="_top" xlink:title=" ">
<polygon fill="white" stroke="black" points="888,-291.5 888,-321.5 1028,-321.5 1028,-291.5 888,-291.5"/>
<text text-anchor="start" x="896" y="-309.5" font-family="Helvetica,sans-Serif" font-size="10.00">src/node/acme_challenge</text>
<text text-anchor="middle" x="958" y="-298.5" font-family="Helvetica,sans-Serif" font-size="10.00">_frontend.h</text>
</a>
</g>
</g>
<!-- Node8&#45;&gt;Node18 -->
<g id="edge26" class="edge">
<title>Node8&#45;&gt;Node18</title>
<path fill="none" stroke="midnightblue" d="M971.61,-354.06C968.6,-343.75 964.9,-331.1 962.12,-321.59"/>
<polygon fill="midnightblue" stroke="midnightblue" points="968.27,-355.12 974.44,-363.73 974.99,-353.15 968.27,-355.12"/>
</g>
<!-- Node19 -->
<g id="node19" class="node">
<title>Node19</title>
<g id="a_node19"><a xlink:href="node__frontend_8h.html" target="_top" xlink:title=" ">
<polygon fill="white" stroke="black" points="1294,-297 1294,-316 1452,-316 1452,-297 1294,-297"/>
<text text-anchor="middle" x="1373" y="-304" font-family="Helvetica,sans-Serif" font-size="10.00">src/node/rpc/node_frontend.h</text>
</a>
</g>
</g>
<!-- Node8&#45;&gt;Node19 -->
<g id="edge30" class="edge">
<title>Node8&#45;&gt;Node19</title>
<path fill="none" stroke="midnightblue" d="M1039.09,-362.33C1101.29,-352.15 1199.78,-336.01 1285,-322 1296.76,-320.07 1309.41,-317.98 1321.35,-316.02"/>
<polygon fill="midnightblue" stroke="midnightblue" points="1038.35,-358.91 1029.05,-363.98 1039.48,-365.82 1038.35,-358.91"/>
</g>
<!-- Node21 -->
<g id="node21" class="node">
<title>Node21</title>
<g id="a_node21"><a xlink:href="user__frontend_8h.html" target="_top" xlink:title=" ">
<polygon fill="white" stroke="black" points="361.5,-112.5 361.5,-131.5 516.5,-131.5 516.5,-112.5 361.5,-112.5"/>
<text text-anchor="middle" x="439" y="-119.5" font-family="Helvetica,sans-Serif" font-size="10.00">src/node/rpc/user_frontend.h</text>
</a>
</g>
</g>
<!-- Node8&#45;&gt;Node21 -->
<g id="edge34" class="edge">
<title>Node8&#45;&gt;Node21</title>
<path fill="none" stroke="midnightblue" d="M896.7,-368.21C682.89,-355.99 112.22,-317.72 57,-255 -31.73,-154.21 225.68,-130.35 361.3,-124.72"/>
<polygon fill="midnightblue" stroke="midnightblue" points="896.73,-371.72 906.92,-368.79 897.13,-364.73 896.73,-371.72"/>
</g>
<!-- Node22 -->
<g id="node22" class="node">
<title>Node22</title>
<g id="a_node22"><a xlink:href="secret__broadcast_8h.html" target="_top" xlink:title=" ">
<polygon fill="white" stroke="black" points="1122.5,-297 1122.5,-316 1275.5,-316 1275.5,-297 1122.5,-297"/>
<text text-anchor="middle" x="1199" y="-304" font-family="Helvetica,sans-Serif" font-size="10.00">src/node/secret_broadcast.h</text>
</a>
</g>
</g>
<!-- Node8&#45;&gt;Node22 -->
<g id="edge36" class="edge">
<title>Node8&#45;&gt;Node22</title>
<path fill="none" stroke="midnightblue" d="M1016.24,-361.01C1060.18,-348.15 1130.37,-327.59 1169.75,-316.06"/>
<polygon fill="midnightblue" stroke="midnightblue" points="1015.09,-357.7 1006.48,-363.87 1017.06,-364.42 1015.09,-357.7"/>
</g>
<!-- Node23 -->
<g id="node23" class="node">
<title>Node23</title>
<g id="a_node23"><a xlink:href="share__manager_8h.html" target="_top" xlink:title=" ">
<polygon fill="white" stroke="black" points="1470.5,-297 1470.5,-316 1615.5,-316 1615.5,-297 1470.5,-297"/>
<text text-anchor="middle" x="1543" y="-304" font-family="Helvetica,sans-Serif" font-size="10.00">src/node/share_manager.h</text>
</a>
</g>
</g>
<!-- Node8&#45;&gt;Node23 -->
<g id="edge38" class="edge">
<title>Node8&#45;&gt;Node23</title>
<path fill="none" stroke="midnightblue" d="M1057.56,-365.86C1153.79,-357.52 1319.53,-341.86 1461,-322 1473.03,-320.31 1485.99,-318.17 1497.98,-316.05"/>
<polygon fill="midnightblue" stroke="midnightblue" points="1056.99,-362.39 1047.32,-366.74 1057.59,-369.37 1056.99,-362.39"/>
</g>
<!-- Node24 -->
<g id="node24" class="node">
<title>Node24</title>
<g id="a_node24"><a xlink:href="snapshotter_8h.html" target="_top" xlink:title=" ">
<polygon fill="white" stroke="black" points="742.5,-297 742.5,-316 869.5,-316 869.5,-297 742.5,-297"/>
<text text-anchor="middle" x="806" y="-304" font-family="Helvetica,sans-Serif" font-size="10.00">src/node/snapshotter.h</text>
</a>
</g>
</g>
<!-- Node8&#45;&gt;Node24 -->
<g id="edge41" class="edge">
<title>Node8&#45;&gt;Node24</title>
<path fill="none" stroke="midnightblue" d="M944.83,-360.27C910.89,-347.37 858.29,-327.38 828.53,-316.06"/>
<polygon fill="midnightblue" stroke="midnightblue" points="943.7,-363.59 954.29,-363.87 946.19,-357.04 943.7,-363.59"/>
</g>
<!-- Node9&#45;&gt;Node4 -->
<g id="edge23" class="edge">
<title>Node9&#45;&gt;Node4</title>
<path fill="none" stroke="midnightblue" d="M721.87,-294.08C725.62,-293 729.38,-291.96 733,-291 803.06,-272.51 822.89,-276.76 892,-255 926.8,-244.05 933.35,-235.41 968,-224 1014.23,-208.78 1068.66,-195.63 1104.83,-187.54"/>
<polygon fill="midnightblue" stroke="midnightblue" points="720.67,-290.78 712.07,-296.96 722.65,-297.49 720.67,-290.78"/>
</g>
<!-- Node9&#45;&gt;Node5 -->
<g id="edge12" class="edge">
<title>Node9&#45;&gt;Node5</title>
<path fill="none" stroke="midnightblue" d="M722.66,-294.07C726.15,-293.02 729.64,-291.99 733,-291 788.88,-274.58 815.26,-293.45 859,-255 916.65,-204.32 934.68,-105.32 938.91,-75.62"/>
<polygon fill="midnightblue" stroke="midnightblue" points="721.47,-290.77 712.9,-296.99 723.48,-297.47 721.47,-290.77"/>
</g>
<!-- Node10 -->
<g id="node10" class="node">
<title>Node10</title>
<g id="a_node10"><a xlink:href="js__generic__base_8cpp.html" target="_top" xlink:title=" ">
<polygon fill="white" stroke="black" points="212,-224.5 212,-254.5 330,-254.5 330,-224.5 212,-224.5"/>
<text text-anchor="start" x="220" y="-242.5" font-family="Helvetica,sans-Serif" font-size="10.00">src/apps/js_generic</text>
<text text-anchor="middle" x="271" y="-231.5" font-family="Helvetica,sans-Serif" font-size="10.00">/js_generic_base.cpp</text>
</a>
</g>
</g>
<!-- Node9&#45;&gt;Node10 -->
<g id="edge11" class="edge">
<title>Node9&#45;&gt;Node10</title>
<path fill="none" stroke="midnightblue" d="M635.6,-298.96C569.16,-289.98 447.41,-272.92 344,-255 339.54,-254.23 334.94,-253.4 330.32,-252.53"/>
<polygon fill="midnightblue" stroke="midnightblue" points="635.4,-302.46 645.78,-300.33 636.33,-295.53 635.4,-302.46"/>
</g>
<!-- Node11 -->
<g id="node11" class="node">
<title>Node11</title>
<g id="a_node11"><a xlink:href="consensus_8cpp.html" target="_top" xlink:title=" ">
<polygon fill="white" stroke="black" points="386,-230 386,-249 502,-249 502,-230 386,-230"/>
<text text-anchor="middle" x="444" y="-237" font-family="Helvetica,sans-Serif" font-size="10.00">src/js/consensus.cpp</text>
</a>
</g>
</g>
<!-- Node9&#45;&gt;Node11 -->
<g id="edge13" class="edge">
<title>Node9&#45;&gt;Node11</title>
<path fill="none" stroke="midnightblue" d="M643.3,-294.25C595.66,-281.41 518.77,-260.67 475.75,-249.06"/>
<polygon fill="midnightblue" stroke="midnightblue" points="642.43,-297.64 653,-296.87 644.25,-290.89 642.43,-297.64"/>
</g>
<!-- Node12 -->
<g id="node12" class="node">
<title>Node12</title>
<g id="a_node12"><a xlink:href="wrap_8cpp.html" target="_top" xlink:title=" ">
<polygon fill="white" stroke="black" points="530.5,-168.5 530.5,-187.5 619.5,-187.5 619.5,-168.5 530.5,-168.5"/>
<text text-anchor="middle" x="575" y="-175.5" font-family="Helvetica,sans-Serif" font-size="10.00">src/js/wrap.cpp</text>
</a>
</g>
</g>
<!-- Node9&#45;&gt;Node12 -->
<g id="edge22" class="edge">
<title>Node9&#45;&gt;Node12</title>
<path fill="none" stroke="midnightblue" d="M635.7,-304.85C557.28,-302.65 409.61,-293.39 377,-255 332.31,-202.38 459.3,-186.07 530.46,-181.11"/>
<polygon fill="midnightblue" stroke="midnightblue" points="635.75,-308.35 645.83,-305.1 635.92,-301.35 635.75,-308.35"/>
</g>
<!-- Node13 -->
<g id="node13" class="node">
<title>Node13</title>
<g id="a_node13"><a xlink:href="conv_8cpp.html" target="_top" xlink:title=" ">
<polygon fill="white" stroke="black" points="648,-230 648,-249 736,-249 736,-230 648,-230"/>
<text text-anchor="middle" x="692" y="-237" font-family="Helvetica,sans-Serif" font-size="10.00">src/js/conv.cpp</text>
</a>
</g>
</g>
<!-- Node9&#45;&gt;Node13 -->
<g id="edge15" class="edge">
<title>Node9&#45;&gt;Node13</title>
<path fill="none" stroke="midnightblue" d="M687.04,-286.54C688.37,-274.17 690.05,-258.62 691.07,-249.13"/>
<polygon fill="midnightblue" stroke="midnightblue" points="683.53,-286.42 685.94,-296.73 690.49,-287.17 683.53,-286.42"/>
</g>
<!-- Node14 -->
<g id="node14" class="node">
<title>Node14</title>
<g id="a_node14"><a xlink:href="crypto_8cpp.html" target="_top" xlink:title=" ">
<polygon fill="white" stroke="black" points="754,-230 754,-249 850,-249 850,-230 754,-230"/>
<text text-anchor="middle" x="802" y="-237" font-family="Helvetica,sans-Serif" font-size="10.00">src/js/crypto.cpp</text>
</a>
</g>
</g>
<!-- Node9&#45;&gt;Node14 -->
<g id="edge17" class="edge">
<title>Node9&#45;&gt;Node14</title>
<path fill="none" stroke="midnightblue" d="M709.68,-291.79C732.87,-278.9 766.86,-260.02 786.47,-249.13"/>
<polygon fill="midnightblue" stroke="midnightblue" points="707.82,-288.82 700.78,-296.73 711.22,-294.94 707.82,-288.82"/>
</g>
<!-- Node15 -->
<g id="node15" class="node">
<title>Node15</title>
<g id="a_node15"><a xlink:href="historical_8cpp.html" target="_top" xlink:title=" ">
<polygon fill="white" stroke="black" points="520,-230 520,-249 630,-249 630,-230 520,-230"/>
<text text-anchor="middle" x="575" y="-237" font-family="Helvetica,sans-Serif" font-size="10.00">src/js/historical.cpp</text>
</a>
</g>
</g>
<!-- Node9&#45;&gt;Node15 -->
<g id="edge19" class="edge">
<title>Node9&#45;&gt;Node15</title>
<path fill="none" stroke="midnightblue" d="M661.5,-291.62C639.71,-278.74 607.96,-259.98 589.6,-249.13"/>
<polygon fill="midnightblue" stroke="midnightblue" points="659.78,-294.66 670.16,-296.73 663.34,-288.63 659.78,-294.66"/>
</g>
<!-- Node16 -->
<g id="node16" class="node">
<title>Node16</title>
<g id="a_node16"><a xlink:href="openenclave_8cpp.html" target="_top" xlink:title=" ">
<polygon fill="white" stroke="black" points="66,-230 66,-249 194,-249 194,-230 66,-230"/>
<text text-anchor="middle" x="130" y="-237" font-family="Helvetica,sans-Serif" font-size="10.00">src/js/openenclave.cpp</text>
</a>
</g>
</g>
<!-- Node9&#45;&gt;Node16 -->
<g id="edge21" class="edge">
<title>Node9&#45;&gt;Node16</title>
<path fill="none" stroke="midnightblue" d="M635.63,-301.83C548.15,-294.99 360.28,-278.81 203,-255 192.14,-253.36 180.44,-251.21 169.66,-249.07"/>
<polygon fill="midnightblue" stroke="midnightblue" points="635.56,-305.34 645.8,-302.62 636.1,-298.36 635.56,-305.34"/>
</g>
<!-- Node17 -->
<g id="node17" class="node">
<title>Node17</title>
<g id="a_node17"><a xlink:href="member__frontend_8h.html" target="_top" xlink:title=" ">
<polygon fill="white" stroke="black" points="1483,-224.5 1483,-254.5 1603,-254.5 1603,-224.5 1483,-224.5"/>
<text text-anchor="start" x="1491" y="-242.5" font-family="Helvetica,sans-Serif" font-size="10.00">src/node/rpc/member</text>
<text text-anchor="middle" x="1543" y="-231.5" font-family="Helvetica,sans-Serif" font-size="10.00">_frontend.h</text>
</a>
</g>
</g>
<!-- Node9&#45;&gt;Node17 -->
<g id="edge24" class="edge">
<title>Node9&#45;&gt;Node17</title>
<path fill="none" stroke="midnightblue" d="M719.06,-294.12C723.7,-292.89 728.44,-291.8 733,-291 1024.09,-239.9 1102.32,-277.61 1397,-255 1425.19,-252.84 1456.38,-249.82 1482.67,-247.1"/>
<polygon fill="midnightblue" stroke="midnightblue" points="717.79,-290.85 709.15,-296.98 719.72,-297.58 717.79,-290.85"/>
</g>
<!-- Node11&#45;&gt;Node12 -->
<g id="edge14" class="edge">
<title>Node11&#45;&gt;Node12</title>
<path fill="none" stroke="midnightblue" d="M471.9,-225.83C497.33,-214.28 534.2,-197.53 556.27,-187.51"/>
<polygon fill="midnightblue" stroke="midnightblue" points="470.43,-222.65 462.77,-229.98 473.32,-229.03 470.43,-222.65"/>
</g>
<!-- Node13&#45;&gt;Node12 -->
<g id="edge16" class="edge">
<title>Node13&#45;&gt;Node12</title>
<path fill="none" stroke="midnightblue" d="M666.17,-225.37C643.5,-213.83 611.18,-197.4 591.73,-187.51"/>
<polygon fill="midnightblue" stroke="midnightblue" points="664.74,-228.56 675.24,-229.98 667.91,-222.32 664.74,-228.56"/>
</g>
<!-- Node14&#45;&gt;Node12 -->
<g id="edge18" class="edge">
<title>Node14&#45;&gt;Node12</title>
<path fill="none" stroke="midnightblue" d="M759.64,-227.4C715.55,-215.84 647.47,-198 607.46,-187.51"/>
<polygon fill="midnightblue" stroke="midnightblue" points="758.92,-230.83 769.48,-229.98 760.69,-224.05 758.92,-230.83"/>
</g>
<!-- Node15&#45;&gt;Node12 -->
<g id="edge20" class="edge">
<title>Node15&#45;&gt;Node12</title>
<path fill="none" stroke="midnightblue" d="M575,-219.82C575,-209 575,-195.9 575,-187.51"/>
<polygon fill="midnightblue" stroke="midnightblue" points="571.5,-219.98 575,-229.98 578.5,-219.98 571.5,-219.98"/>
</g>
<!-- Node17&#45;&gt;Node5 -->
<g id="edge25" class="edge">
<title>Node17&#45;&gt;Node5</title>
<path fill="none" stroke="midnightblue" d="M1536.35,-214.91C1526.64,-185.3 1505.53,-135.55 1468,-112 1429.23,-87.68 1131.68,-73.98 1001.11,-69.08"/>
<polygon fill="midnightblue" stroke="midnightblue" points="1533.01,-215.95 1539.32,-224.47 1539.7,-213.88 1533.01,-215.95"/>
</g>
<!-- Node18&#45;&gt;Node3 -->
<g id="edge28" class="edge">
<title>Node18&#45;&gt;Node3</title>
<path fill="none" stroke="midnightblue" d="M996.78,-286.97C1022.9,-274.48 1056.13,-258.6 1076.2,-249.01"/>
<polygon fill="midnightblue" stroke="midnightblue" points="995.02,-283.93 987.51,-291.4 998.04,-290.24 995.02,-283.93"/>
</g>
<!-- Node18&#45;&gt;Node5 -->
<g id="edge27" class="edge">
<title>Node18&#45;&gt;Node5</title>
<path fill="none" stroke="midnightblue" d="M956.18,-281.32C952.26,-229.48 943.22,-109.62 940.68,-75.95"/>
<polygon fill="midnightblue" stroke="midnightblue" points="952.69,-281.59 956.93,-291.29 959.67,-281.06 952.69,-281.59"/>
</g>
<!-- Node19&#45;&gt;Node5 -->
<g id="edge31" class="edge">
<title>Node19&#45;&gt;Node5</title>
<path fill="none" stroke="midnightblue" d="M1385.48,-288.45C1396.38,-271.3 1408.75,-244.52 1397,-224 1348.08,-138.61 1298.48,-145.65 1206,-112 1138.33,-87.38 1056,-76.1 1001.02,-71.02"/>
<polygon fill="midnightblue" stroke="midnightblue" points="1382.47,-286.65 1379.74,-296.89 1388.26,-290.59 1382.47,-286.65"/>
</g>
<!-- Node20 -->
<g id="node20" class="node">
<title>Node20</title>
<g id="a_node20"><a xlink:href="jwt__key__auto__refresh_8h.html" target="_top" xlink:title=" ">
<polygon fill="white" stroke="black" points="1262.5,-224.5 1262.5,-254.5 1387.5,-254.5 1387.5,-224.5 1262.5,-224.5"/>
<text text-anchor="start" x="1270.5" y="-242.5" font-family="Helvetica,sans-Serif" font-size="10.00">src/node/jwt_key_auto</text>
<text text-anchor="middle" x="1325" y="-231.5" font-family="Helvetica,sans-Serif" font-size="10.00">_refresh.h</text>
</a>
</g>
</g>
<!-- Node19&#45;&gt;Node20 -->
<g id="edge32" class="edge">
<title>Node19&#45;&gt;Node20</title>
<path fill="none" stroke="midnightblue" d="M1360.57,-288.67C1352.76,-278.09 1342.8,-264.6 1335.4,-254.59"/>
<polygon fill="midnightblue" stroke="midnightblue" points="1357.77,-290.77 1366.53,-296.73 1363.4,-286.61 1357.77,-290.77"/>
</g>
<!-- Node20&#45;&gt;Node4 -->
<g id="edge33" class="edge">
<title>Node20&#45;&gt;Node4</title>
<path fill="none" stroke="midnightblue" d="M1272.72,-221.22C1239.3,-210.17 1197.42,-196.33 1170.93,-187.57"/>
<polygon fill="midnightblue" stroke="midnightblue" points="1271.75,-224.58 1282.34,-224.4 1273.95,-217.94 1271.75,-224.58"/>
</g>
<!-- Node21&#45;&gt;Node5 -->
<g id="edge35" class="edge">
<title>Node21&#45;&gt;Node5</title>
<path fill="none" stroke="midnightblue" d="M526.9,-111.53C627.77,-100.65 790.59,-83.1 878.67,-73.61"/>
<polygon fill="midnightblue" stroke="midnightblue" points="526.3,-108.07 516.73,-112.62 527.05,-115.03 526.3,-108.07"/>
</g>
<!-- Node22&#45;&gt;Node4 -->
<g id="edge37" class="edge">
<title>Node22&#45;&gt;Node4</title>
<path fill="none" stroke="midnightblue" d="M1207.29,-287.38C1213.88,-270.12 1220.43,-243.9 1210,-224 1200.95,-206.74 1181.94,-194.78 1166.81,-187.55"/>
<polygon fill="midnightblue" stroke="midnightblue" points="1203.96,-286.26 1203.33,-296.83 1210.42,-288.96 1203.96,-286.26"/>
</g>
<!-- Node23&#45;&gt;Node4 -->
<g id="edge39" class="edge">
<title>Node23&#45;&gt;Node4</title>
<path fill="none" stroke="midnightblue" d="M1522.44,-291.09C1495.09,-272.64 1444.65,-241.01 1397,-224 1334.43,-201.66 1259,-190.07 1207.06,-184.29"/>
<polygon fill="midnightblue" stroke="midnightblue" points="1520.56,-294.05 1530.79,-296.81 1524.51,-288.27 1520.56,-294.05"/>
</g>
<!-- Node23&#45;&gt;Node17 -->
<g id="edge40" class="edge">
<title>Node23&#45;&gt;Node17</title>
<path fill="none" stroke="midnightblue" d="M1543,-286.41C1543,-276.22 1543,-263.9 1543,-254.59"/>
<polygon fill="midnightblue" stroke="midnightblue" points="1539.5,-286.73 1543,-296.73 1546.5,-286.73 1539.5,-286.73"/>
</g>
<!-- Node24&#45;&gt;Node4 -->
<g id="edge42" class="edge">
<title>Node24&#45;&gt;Node4</title>
<path fill="none" stroke="midnightblue" d="M855.51,-294.49C888.43,-286.12 932.06,-272.96 968,-255 989.07,-244.47 990.04,-234.76 1011,-224 1043.09,-207.52 1082.51,-195.13 1110.26,-187.57"/>
<polygon fill="midnightblue" stroke="midnightblue" points="854.52,-291.13 845.66,-296.94 856.2,-297.93 854.52,-291.13"/>
</g>
<!-- Node25&#45;&gt;Node4 -->
<g id="edge44" class="edge">
<title>Node25&#45;&gt;Node4</title>
<path fill="none" stroke="midnightblue" d="M1523.34,-362.95C1569.84,-354.66 1626.54,-340.99 1641,-322 1662.62,-293.61 1618.77,-228.92 1612,-224 1579.98,-200.69 1327.04,-186.83 1207.36,-181.51"/>
<polygon fill="midnightblue" stroke="midnightblue" points="1522.55,-359.54 1513.29,-364.69 1523.74,-366.43 1522.55,-359.54"/>
</g>
<!-- Node25&#45;&gt;Node17 -->
<g id="edge45" class="edge">
<title>Node25&#45;&gt;Node17</title>
<path fill="none" stroke="midnightblue" d="M1523.04,-370.75C1559.26,-366.02 1601.65,-353.46 1625,-322 1633.21,-310.94 1631.72,-303.03 1625,-291 1615.71,-274.36 1598.43,-262.53 1582.12,-254.52"/>
<polygon fill="midnightblue" stroke="midnightblue" points="1522.55,-367.28 1513.01,-371.88 1523.34,-374.24 1522.55,-367.28"/>
</g>
<!-- Node25&#45;&gt;Node19 -->
<g id="edge46" class="edge">
<title>Node25&#45;&gt;Node19</title>
<path fill="none" stroke="midnightblue" d="M1431.2,-352.01C1415.42,-339.94 1396.28,-325.3 1384.37,-316.19"/>
<polygon fill="midnightblue" stroke="midnightblue" points="1429.49,-355.1 1439.56,-358.4 1433.74,-349.54 1429.49,-355.1"/>
</g>
<!-- Node25&#45;&gt;Node22 -->
<g id="edge47" class="edge">
<title>Node25&#45;&gt;Node22</title>
<path fill="none" stroke="midnightblue" d="M1392.85,-356.15C1342.1,-343.41 1273.67,-326.24 1233.16,-316.07"/>
<polygon fill="midnightblue" stroke="midnightblue" points="1392.2,-359.6 1402.76,-358.64 1393.91,-352.81 1392.2,-359.6"/>
</g>
<!-- Node25&#45;&gt;Node23 -->
<g id="edge48" class="edge">
<title>Node25&#45;&gt;Node23</title>
<path fill="none" stroke="midnightblue" d="M1484.8,-352.01C1500.58,-339.94 1519.72,-325.3 1531.63,-316.19"/>
<polygon fill="midnightblue" stroke="midnightblue" points="1482.26,-349.54 1476.44,-358.4 1486.51,-355.1 1482.26,-349.54"/>
</g>
</g>
</svg>
