<?xml version="1.0" encoding="UTF-8" standalone="no"?>
<!DOCTYPE svg PUBLIC "-//W3C//DTD SVG 1.1//EN"
 "http://www.w3.org/Graphics/SVG/1.1/DTD/svg11.dtd">
<!-- Generated by graphviz version 2.43.0 (0)
 -->
<!-- Title: src/ds/ring_buffer.h Pages: 1 -->
<!--zoomable 252 -->
<svg id="main" version="1.1" xmlns="http://www.w3.org/2000/svg" xmlns:xlink="http://www.w3.org/1999/xlink" xml:space="preserve" onload="init(evt)">
<style type="text/css"><![CDATA[
.edge:hover path { stroke: red; }
.edge:hover polygon { stroke: red; fill: red; }
]]></style>
<script type="text/javascript"><![CDATA[
var edges = document.getElementsByTagName('g');
if (edges && edges.length) {
  for (var i=0;i<edges.length;i++) {
    if (edges[i].id.substr(0,4)=='edge') {
      edges[i].setAttribute('class','edge');
    }
  }
}
]]></script>
        <defs>
                <circle id="rim" cx="0" cy="0" r="7"/>
                <circle id="rim2" cx="0" cy="0" r="3.5"/>
                <g id="zoomPlus">
                        <use xlink:href="#rim" fill="#404040">
                                <set attributeName="fill" to="#808080" begin="zoomplus.mouseover" end="zoomplus.mouseout"/>
                        </use>
                        <path d="M-4,0h8M0,-4v8" fill="none" stroke="white" stroke-width="1.5" pointer-events="none"/>
                </g>
                <g id="zoomMin">
                        <use xlink:href="#rim" fill="#404040">
                                <set attributeName="fill" to="#808080" begin="zoomminus.mouseover" end="zoomminus.mouseout"/>
                        </use>
                        <path d="M-4,0h8" fill="none" stroke="white" stroke-width="1.5" pointer-events="none"/>
                </g>
                <g id="dirArrow">
                        <path fill="none" stroke="white" stroke-width="1.5" d="M0,-3.0v7 M-2.5,-0.5L0,-3.0L2.5,-0.5"/>
                </g>
               <g id="resetDef">
                       <use xlink:href="#rim2" fill="#404040">
                               <set attributeName="fill" to="#808080" begin="reset.mouseover" end="reset.mouseout"/>
                       </use>
               </g>
        </defs>

<script type="text/javascript">
var viewWidth = 968;
var viewHeight = 252;
var sectionId = 'dynsection-0';
</script>
<script xlink:href="svgpan.js"/>
<svg id="graph" class="graph">
<g id="viewport">
<title>src/ds/ring_buffer.h</title>
<polygon fill="white" stroke="transparent" points="-4,4 -4,-248 963.5,-248 963.5,4 -4,4"/>
<!-- Node1 -->
<g id="node1" class="node">
<title>Node1</title>
<g id="a_node1"><a xlink:title=" ">
<polygon fill="#bfbfbf" stroke="black" points="242.5,-224.5 242.5,-243.5 351.5,-243.5 351.5,-224.5 242.5,-224.5"/>
<text text-anchor="middle" x="297" y="-231.5" font-family="Helvetica,sans-Serif" font-size="10.00">src/ds/ring_buffer.h</text>
</a>
</g>
</g>
<!-- Node2 -->
<g id="node2" class="node">
<title>Node2</title>
<g id="a_node2"><a xlink:href="mem_8h.html" target="_top" xlink:title=" ">
<polygon fill="white" stroke="black" points="74,-168.5 74,-187.5 160,-187.5 160,-168.5 74,-168.5"/>
<text text-anchor="middle" x="117" y="-175.5" font-family="Helvetica,sans-Serif" font-size="10.00">ccf/pal/mem.h</text>
</a>
</g>
</g>
<!-- Node1&#45;&gt;Node2 -->
<g id="edge1" class="edge">
<title>Node1&#45;&gt;Node2</title>
<path fill="none" stroke="midnightblue" d="M268.48,-224.44C237.93,-215.28 189.29,-200.69 155.4,-190.52"/>
<polygon fill="midnightblue" stroke="midnightblue" points="155.97,-187.04 145.39,-187.52 153.96,-193.74 155.97,-187.04"/>
</g>
<!-- Node4 -->
<g id="node4" class="node">
<title>Node4</title>
<g id="a_node4"><a xlink:title=" ">
<polygon fill="white" stroke="#bfbfbf" points="0,-0.5 0,-19.5 50,-19.5 50,-0.5 0,-0.5"/>
<text text-anchor="middle" x="25" y="-7.5" font-family="Helvetica,sans-Serif" font-size="10.00">cstring</text>
</a>
</g>
</g>
<!-- Node1&#45;&gt;Node4 -->
<g id="edge42" class="edge">
<title>Node1&#45;&gt;Node4</title>
<path fill="none" stroke="midnightblue" d="M242.43,-228.15C182.76,-221.87 92.02,-209.14 65,-188 16.43,-150 18.75,-66.62 22.53,-29.48"/>
<polygon fill="midnightblue" stroke="midnightblue" points="26.01,-29.88 23.7,-19.54 19.06,-29.07 26.01,-29.88"/>
</g>
<!-- Node6 -->
<g id="node6" class="node">
<title>Node6</title>
<g id="a_node6"><a xlink:href="ring__buffer__types_8h.html" target="_top" xlink:title=" ">
<polygon fill="white" stroke="black" points="381,-168.5 381,-187.5 491,-187.5 491,-168.5 381,-168.5"/>
<text text-anchor="middle" x="436" y="-175.5" font-family="Helvetica,sans-Serif" font-size="10.00">ring_buffer_types.h</text>
</a>
</g>
</g>
<!-- Node1&#45;&gt;Node6 -->
<g id="edge5" class="edge">
<title>Node1&#45;&gt;Node6</title>
<path fill="none" stroke="midnightblue" d="M319.02,-224.44C342.1,-215.48 378.56,-201.31 404.64,-191.18"/>
<polygon fill="midnightblue" stroke="midnightblue" points="406.02,-194.4 414.08,-187.52 403.49,-187.88 406.02,-194.4"/>
</g>
<!-- Node29 -->
<g id="node29" class="node">
<title>Node29</title>
<g id="a_node29"><a xlink:title=" ">
<polygon fill="white" stroke="#bfbfbf" points="509.5,-168.5 509.5,-187.5 574.5,-187.5 574.5,-168.5 509.5,-168.5"/>
<text text-anchor="middle" x="542" y="-175.5" font-family="Helvetica,sans-Serif" font-size="10.00">functional</text>
</a>
</g>
</g>
<!-- Node1&#45;&gt;Node29 -->
<g id="edge43" class="edge">
<title>Node1&#45;&gt;Node29</title>
<path fill="none" stroke="midnightblue" d="M335.82,-224.44C380.35,-214.63 453.14,-198.58 499.26,-188.42"/>
<polygon fill="midnightblue" stroke="midnightblue" points="500.23,-191.79 509.24,-186.22 498.72,-184.95 500.23,-191.79"/>
</g>
<!-- Node3 -->
<g id="node3" class="node">
<title>Node3</title>
<g id="a_node3"><a xlink:title=" ">
<polygon fill="white" stroke="#bfbfbf" points="124.5,-112.5 124.5,-131.5 177.5,-131.5 177.5,-112.5 124.5,-112.5"/>
<text text-anchor="middle" x="151" y="-119.5" font-family="Helvetica,sans-Serif" font-size="10.00">stdlib.h</text>
</a>
</g>
</g>
<!-- Node2&#45;&gt;Node3 -->
<g id="edge2" class="edge">
<title>Node2&#45;&gt;Node3</title>
<path fill="none" stroke="midnightblue" d="M122.61,-168.08C127.37,-160.53 134.32,-149.49 140.15,-140.23"/>
<polygon fill="midnightblue" stroke="midnightblue" points="143.12,-142.08 145.49,-131.75 137.2,-138.35 143.12,-142.08"/>
</g>
<!-- Node2&#45;&gt;Node4 -->
<g id="edge3" class="edge">
<title>Node2&#45;&gt;Node4</title>
<path fill="none" stroke="midnightblue" d="M98.14,-168.48C83.6,-160.94 64.15,-148.56 53,-132 31.8,-100.52 26.51,-55.12 25.28,-29.83"/>
<polygon fill="midnightblue" stroke="midnightblue" points="28.78,-29.63 24.96,-19.74 21.78,-29.85 28.78,-29.63"/>
</g>
<!-- Node5 -->
<g id="node5" class="node">
<title>Node5</title>
<g id="a_node5"><a xlink:title=" ">
<polygon fill="white" stroke="#bfbfbf" points="62,-112.5 62,-131.5 106,-131.5 106,-112.5 62,-112.5"/>
<text text-anchor="middle" x="84" y="-119.5" font-family="Helvetica,sans-Serif" font-size="10.00">limits</text>
</a>
</g>
</g>
<!-- Node2&#45;&gt;Node5 -->
<g id="edge4" class="edge">
<title>Node2&#45;&gt;Node5</title>
<path fill="none" stroke="midnightblue" d="M111.55,-168.08C106.99,-160.61 100.33,-149.72 94.71,-140.52"/>
<polygon fill="midnightblue" stroke="midnightblue" points="97.55,-138.46 89.35,-131.75 91.58,-142.11 97.55,-138.46"/>
</g>
<!-- Node7 -->
<g id="node7" class="node">
<title>Node7</title>
<g id="a_node7"><a xlink:href="include_2ccf_2ds_2hash_8h.html" target="_top" xlink:title=" ">
<polygon fill="white" stroke="black" points="540,-112.5 540,-131.5 620,-131.5 620,-112.5 540,-112.5"/>
<text text-anchor="middle" x="580" y="-119.5" font-family="Helvetica,sans-Serif" font-size="10.00">ccf/ds/hash.h</text>
</a>
</g>
</g>
<!-- Node6&#45;&gt;Node7 -->
<g id="edge6" class="edge">
<title>Node6&#45;&gt;Node7</title>
<path fill="none" stroke="midnightblue" d="M458.82,-168.44C482.83,-159.44 520.83,-145.19 547.87,-135.05"/>
<polygon fill="midnightblue" stroke="midnightblue" points="549.16,-138.3 557.29,-131.52 546.7,-131.75 549.16,-138.3"/>
</g>
<!-- Node11 -->
<g id="node11" class="node">
<title>Node11</title>
<g id="a_node11"><a xlink:title=" ">
<polygon fill="white" stroke="#bfbfbf" points="246.5,-0.5 246.5,-19.5 293.5,-19.5 293.5,-0.5 246.5,-0.5"/>
<text text-anchor="middle" x="270" y="-7.5" font-family="Helvetica,sans-Serif" font-size="10.00">vector</text>
</a>
</g>
</g>
<!-- Node6&#45;&gt;Node11 -->
<g id="edge41" class="edge">
<title>Node6&#45;&gt;Node11</title>
<path fill="none" stroke="midnightblue" d="M380.67,-172.33C327.32,-166.55 252.09,-154.57 234,-132 209.09,-100.93 237.67,-53.02 256.36,-27.81"/>
<polygon fill="midnightblue" stroke="midnightblue" points="259.34,-29.68 262.69,-19.63 253.8,-25.41 259.34,-29.68"/>
</g>
<!-- Node15 -->
<g id="node15" class="node">
<title>Node15</title>
<g id="a_node15"><a xlink:href="nonstd_8h.html" target="_top" xlink:title=" ">
<polygon fill="white" stroke="black" points="653,-56.5 653,-75.5 743,-75.5 743,-56.5 653,-56.5"/>
<text text-anchor="middle" x="698" y="-63.5" font-family="Helvetica,sans-Serif" font-size="10.00">ccf/ds/nonstd.h</text>
</a>
</g>
</g>
<!-- Node6&#45;&gt;Node15 -->
<g id="edge16" class="edge">
<title>Node6&#45;&gt;Node15</title>
<path fill="none" stroke="midnightblue" d="M485.47,-168.5C534.11,-159.6 604.52,-145.13 629,-132 651.55,-119.91 672.16,-98.52 684.87,-83.6"/>
<polygon fill="midnightblue" stroke="midnightblue" points="687.74,-85.62 691.4,-75.68 682.34,-81.17 687.74,-85.62"/>
</g>
<!-- Node18 -->
<g id="node18" class="node">
<title>Node18</title>
<g id="a_node18"><a xlink:title=" ">
<polygon fill="white" stroke="#bfbfbf" points="678,-0.5 678,-19.5 722,-19.5 722,-0.5 678,-0.5"/>
<text text-anchor="middle" x="700" y="-7.5" font-family="Helvetica,sans-Serif" font-size="10.00">string</text>
</a>
</g>
</g>
<!-- Node6&#45;&gt;Node18 -->
<g id="edge40" class="edge">
<title>Node6&#45;&gt;Node18</title>
<path fill="none" stroke="midnightblue" d="M491.26,-169.3C581.73,-156.67 751.84,-132.87 755,-132 816.82,-114.93 852.52,-129.43 888,-76 943.14,7.05 962.33,-76.71 732.06,-19.88"/>
<polygon fill="midnightblue" stroke="midnightblue" points="732.89,-16.48 722.34,-17.43 731.19,-23.26 732.89,-16.48"/>
</g>
<!-- Node20 -->
<g id="node20" class="node">
<title>Node20</title>
<g id="a_node20"><a xlink:href="serializer_8h.html" target="_top" xlink:title=" ">
<polygon fill="white" stroke="black" points="676,-112.5 676,-131.5 746,-131.5 746,-112.5 676,-112.5"/>
<text text-anchor="middle" x="711" y="-119.5" font-family="Helvetica,sans-Serif" font-size="10.00">serializer.h</text>
</a>
</g>
</g>
<!-- Node6&#45;&gt;Node20 -->
<g id="edge24" class="edge">
<title>Node6&#45;&gt;Node20</title>
<path fill="none" stroke="midnightblue" d="M479.57,-168.44C530.55,-158.43 614.51,-141.95 666.06,-131.82"/>
<polygon fill="midnightblue" stroke="midnightblue" points="666.78,-135.25 675.92,-129.89 665.43,-128.38 666.78,-135.25"/>
</g>
<!-- Node25 -->
<g id="node25" class="node">
<title>Node25</title>
<g id="a_node25"><a xlink:title=" ">
<polygon fill="white" stroke="#bfbfbf" points="243,-112.5 243,-131.5 293,-131.5 293,-112.5 243,-112.5"/>
<text text-anchor="middle" x="268" y="-119.5" font-family="Helvetica,sans-Serif" font-size="10.00">atomic</text>
</a>
</g>
</g>
<!-- Node6&#45;&gt;Node25 -->
<g id="edge36" class="edge">
<title>Node6&#45;&gt;Node25</title>
<path fill="none" stroke="midnightblue" d="M409.38,-168.44C380.58,-159.19 334.53,-144.39 302.86,-134.21"/>
<polygon fill="midnightblue" stroke="midnightblue" points="303.71,-130.8 293.12,-131.08 301.57,-137.47 303.71,-130.8"/>
</g>
<!-- Node26 -->
<g id="node26" class="node">
<title>Node26</title>
<g id="a_node26"><a xlink:title=" ">
<polygon fill="white" stroke="#bfbfbf" points="311.5,-112.5 311.5,-131.5 390.5,-131.5 390.5,-112.5 311.5,-112.5"/>
<text text-anchor="middle" x="351" y="-119.5" font-family="Helvetica,sans-Serif" font-size="10.00">fmt/format.h</text>
</a>
</g>
</g>
<!-- Node6&#45;&gt;Node26 -->
<g id="edge37" class="edge">
<title>Node6&#45;&gt;Node26</title>
<path fill="none" stroke="midnightblue" d="M422.34,-168.32C409.08,-159.9 388.73,-146.97 373.15,-137.07"/>
<polygon fill="midnightblue" stroke="midnightblue" points="374.94,-134.06 364.62,-131.65 371.19,-139.97 374.94,-134.06"/>
</g>
<!-- Node27 -->
<g id="node27" class="node">
<title>Node27</title>
<g id="a_node27"><a xlink:title=" ">
<polygon fill="white" stroke="#bfbfbf" points="408,-112.5 408,-131.5 464,-131.5 464,-112.5 408,-112.5"/>
<text text-anchor="middle" x="436" y="-119.5" font-family="Helvetica,sans-Serif" font-size="10.00">optional</text>
</a>
</g>
</g>
<!-- Node6&#45;&gt;Node27 -->
<g id="edge38" class="edge">
<title>Node6&#45;&gt;Node27</title>
<path fill="none" stroke="midnightblue" d="M436,-168.08C436,-161.01 436,-150.86 436,-141.99"/>
<polygon fill="midnightblue" stroke="midnightblue" points="439.5,-141.75 436,-131.75 432.5,-141.75 439.5,-141.75"/>
</g>
<!-- Node28 -->
<g id="node28" class="node">
<title>Node28</title>
<g id="a_node28"><a xlink:title=" ">
<polygon fill="white" stroke="#bfbfbf" points="482,-112.5 482,-131.5 522,-131.5 522,-112.5 482,-112.5"/>
<text text-anchor="middle" x="502" y="-119.5" font-family="Helvetica,sans-Serif" font-size="10.00">span</text>
</a>
</g>
</g>
<!-- Node6&#45;&gt;Node28 -->
<g id="edge39" class="edge">
<title>Node6&#45;&gt;Node28</title>
<path fill="none" stroke="midnightblue" d="M446.6,-168.32C456.46,-160.26 471.35,-148.08 483.22,-138.37"/>
<polygon fill="midnightblue" stroke="midnightblue" points="485.68,-140.88 491.2,-131.83 481.25,-135.46 485.68,-140.88"/>
</g>
<!-- Node8 -->
<g id="node8" class="node">
<title>Node8</title>
<g id="a_node8"><a xlink:href="siphash_8h.html" target="_top" xlink:title=" ">
<polygon fill="white" stroke="black" points="91.5,-56.5 91.5,-75.5 186.5,-75.5 186.5,-56.5 91.5,-56.5"/>
<text text-anchor="middle" x="139" y="-63.5" font-family="Helvetica,sans-Serif" font-size="10.00">ccf/ds/siphash.h</text>
</a>
</g>
</g>
<!-- Node7&#45;&gt;Node8 -->
<g id="edge7" class="edge">
<title>Node7&#45;&gt;Node8</title>
<path fill="none" stroke="midnightblue" d="M539.93,-113.41C536.91,-112.91 533.91,-112.43 531,-112 412.74,-94.37 273.52,-79.86 196.89,-72.41"/>
<polygon fill="midnightblue" stroke="midnightblue" points="196.79,-68.89 186.5,-71.41 196.12,-75.86 196.79,-68.89"/>
</g>
<!-- Node10 -->
<g id="node10" class="node">
<title>Node10</title>
<g id="a_node10"><a xlink:title=" ">
<polygon fill="white" stroke="#bfbfbf" points="96,-0.5 96,-19.5 146,-19.5 146,-0.5 96,-0.5"/>
<text text-anchor="middle" x="121" y="-7.5" font-family="Helvetica,sans-Serif" font-size="10.00">cstdint</text>
</a>
</g>
</g>
<!-- Node7&#45;&gt;Node10 -->
<g id="edge12" class="edge">
<title>Node7&#45;&gt;Node10</title>
<path fill="none" stroke="midnightblue" d="M539.94,-113.3C536.92,-112.82 533.92,-112.38 531,-112 481.38,-105.47 115.95,-112.78 82,-76 68.09,-60.93 85.57,-40.12 101.37,-26.14"/>
<polygon fill="midnightblue" stroke="midnightblue" points="103.87,-28.62 109.31,-19.52 99.39,-23.24 103.87,-28.62"/>
</g>
<!-- Node7&#45;&gt;Node11 -->
<g id="edge15" class="edge">
<title>Node7&#45;&gt;Node11</title>
<path fill="none" stroke="midnightblue" d="M539.91,-113.49C536.9,-112.97 533.9,-112.47 531,-112 473.63,-102.75 310.83,-119.23 272,-76 260.94,-63.68 261.89,-44.15 264.73,-29.71"/>
<polygon fill="midnightblue" stroke="midnightblue" points="268.16,-30.41 267.09,-19.86 261.35,-28.77 268.16,-30.41"/>
</g>
<!-- Node12 -->
<g id="node12" class="node">
<title>Node12</title>
<g id="a_node12"><a xlink:title=" ">
<polygon fill="white" stroke="#bfbfbf" points="526,-0.5 526,-19.5 568,-19.5 568,-0.5 526,-0.5"/>
<text text-anchor="middle" x="547" y="-7.5" font-family="Helvetica,sans-Serif" font-size="10.00">array</text>
</a>
</g>
</g>
<!-- Node7&#45;&gt;Node12 -->
<g id="edge11" class="edge">
<title>Node7&#45;&gt;Node12</title>
<path fill="none" stroke="midnightblue" d="M579.12,-112.42C577.67,-99.82 574.29,-75.67 568,-56 565.01,-46.66 560.53,-36.74 556.48,-28.59"/>
<polygon fill="midnightblue" stroke="midnightblue" points="559.58,-26.97 551.87,-19.7 553.36,-30.18 559.58,-26.97"/>
</g>
<!-- Node13 -->
<g id="node13" class="node">
<title>Node13</title>
<g id="a_node13"><a xlink:title=" ">
<polygon fill="white" stroke="#bfbfbf" points="280.5,-56.5 280.5,-75.5 429.5,-75.5 429.5,-56.5 280.5,-56.5"/>
<text text-anchor="middle" x="355" y="-63.5" font-family="Helvetica,sans-Serif" font-size="10.00">small_vector/SmallVector.h</text>
</a>
</g>
</g>
<!-- Node7&#45;&gt;Node13 -->
<g id="edge13" class="edge">
<title>Node7&#45;&gt;Node13</title>
<path fill="none" stroke="midnightblue" d="M544.35,-112.44C505.34,-103.08 442.73,-88.06 400.28,-77.87"/>
<polygon fill="midnightblue" stroke="midnightblue" points="401.03,-74.45 390.49,-75.52 399.39,-81.25 401.03,-74.45"/>
</g>
<!-- Node14 -->
<g id="node14" class="node">
<title>Node14</title>
<g id="a_node14"><a xlink:title=" ">
<polygon fill="white" stroke="#bfbfbf" points="586.5,-0.5 586.5,-19.5 659.5,-19.5 659.5,-0.5 586.5,-0.5"/>
<text text-anchor="middle" x="623" y="-7.5" font-family="Helvetica,sans-Serif" font-size="10.00">string_view</text>
</a>
</g>
</g>
<!-- Node7&#45;&gt;Node14 -->
<g id="edge14" class="edge">
<title>Node7&#45;&gt;Node14</title>
<path fill="none" stroke="midnightblue" d="M583.37,-112.37C590.38,-94.46 606.61,-52.92 615.98,-28.95"/>
<polygon fill="midnightblue" stroke="midnightblue" points="619.26,-30.18 619.64,-19.59 612.74,-27.63 619.26,-30.18"/>
</g>
<!-- Node9 -->
<g id="node9" class="node">
<title>Node9</title>
<g id="a_node9"><a xlink:title=" ">
<polygon fill="white" stroke="#bfbfbf" points="164.5,-0.5 164.5,-19.5 217.5,-19.5 217.5,-0.5 164.5,-0.5"/>
<text text-anchor="middle" x="191" y="-7.5" font-family="Helvetica,sans-Serif" font-size="10.00">cstddef</text>
</a>
</g>
</g>
<!-- Node8&#45;&gt;Node9 -->
<g id="edge8" class="edge">
<title>Node8&#45;&gt;Node9</title>
<path fill="none" stroke="midnightblue" d="M147.59,-56.08C155.16,-48.22 166.38,-36.57 175.51,-27.08"/>
<polygon fill="midnightblue" stroke="midnightblue" points="178.16,-29.38 182.57,-19.75 173.12,-24.53 178.16,-29.38"/>
</g>
<!-- Node8&#45;&gt;Node10 -->
<g id="edge9" class="edge">
<title>Node8&#45;&gt;Node10</title>
<path fill="none" stroke="midnightblue" d="M136.03,-56.08C133.62,-48.85 130.14,-38.41 127.13,-29.4"/>
<polygon fill="midnightblue" stroke="midnightblue" points="130.4,-28.13 123.92,-19.75 123.76,-30.34 130.4,-28.13"/>
</g>
<!-- Node8&#45;&gt;Node11 -->
<g id="edge10" class="edge">
<title>Node8&#45;&gt;Node11</title>
<path fill="none" stroke="midnightblue" d="M159.76,-56.44C181.32,-47.56 215.26,-33.56 239.79,-23.45"/>
<polygon fill="midnightblue" stroke="midnightblue" points="241.43,-26.56 249.34,-19.52 238.76,-20.09 241.43,-26.56"/>
</g>
<!-- Node15&#45;&gt;Node11 -->
<g id="edge23" class="edge">
<title>Node15&#45;&gt;Node11</title>
<path fill="none" stroke="midnightblue" d="M652.6,-59.27C566.3,-48.38 380.38,-24.93 303.91,-15.28"/>
<polygon fill="midnightblue" stroke="midnightblue" points="304.23,-11.79 293.87,-14.01 303.35,-18.74 304.23,-11.79"/>
</g>
<!-- Node15&#45;&gt;Node12 -->
<g id="edge18" class="edge">
<title>Node15&#45;&gt;Node12</title>
<path fill="none" stroke="midnightblue" d="M674.07,-56.44C648.04,-47.13 606.33,-32.22 577.85,-22.03"/>
<polygon fill="midnightblue" stroke="midnightblue" points="578.97,-18.72 568.37,-18.64 576.61,-25.31 578.97,-18.72"/>
</g>
<!-- Node15&#45;&gt;Node14 -->
<g id="edge21" class="edge">
<title>Node15&#45;&gt;Node14</title>
<path fill="none" stroke="midnightblue" d="M685.95,-56.32C674.54,-48.11 657.17,-35.6 643.57,-25.81"/>
<polygon fill="midnightblue" stroke="midnightblue" points="645.43,-22.84 635.27,-19.83 641.34,-28.52 645.43,-22.84"/>
</g>
<!-- Node16 -->
<g id="node16" class="node">
<title>Node16</title>
<g id="a_node16"><a xlink:title=" ">
<polygon fill="white" stroke="#bfbfbf" points="808,-0.5 808,-19.5 872,-19.5 872,-0.5 808,-0.5"/>
<text text-anchor="middle" x="840" y="-7.5" font-family="Helvetica,sans-Serif" font-size="10.00">algorithm</text>
</a>
</g>
</g>
<!-- Node15&#45;&gt;Node16 -->
<g id="edge17" class="edge">
<title>Node15&#45;&gt;Node16</title>
<path fill="none" stroke="midnightblue" d="M720.5,-56.44C744.08,-47.48 781.32,-33.31 807.96,-23.18"/>
<polygon fill="midnightblue" stroke="midnightblue" points="809.5,-26.34 817.6,-19.52 807.01,-19.8 809.5,-26.34"/>
</g>
<!-- Node17 -->
<g id="node17" class="node">
<title>Node17</title>
<g id="a_node17"><a xlink:title=" ">
<polygon fill="white" stroke="#bfbfbf" points="740.5,-0.5 740.5,-19.5 789.5,-19.5 789.5,-0.5 740.5,-0.5"/>
<text text-anchor="middle" x="765" y="-7.5" font-family="Helvetica,sans-Serif" font-size="10.00">cctype</text>
</a>
</g>
</g>
<!-- Node15&#45;&gt;Node17 -->
<g id="edge19" class="edge">
<title>Node15&#45;&gt;Node17</title>
<path fill="none" stroke="midnightblue" d="M708.76,-56.32C718.77,-48.26 733.89,-36.08 745.93,-26.37"/>
<polygon fill="midnightblue" stroke="midnightblue" points="748.45,-28.83 754.04,-19.83 744.06,-23.38 748.45,-28.83"/>
</g>
<!-- Node15&#45;&gt;Node18 -->
<g id="edge20" class="edge">
<title>Node15&#45;&gt;Node18</title>
<path fill="none" stroke="midnightblue" d="M698.33,-56.08C698.59,-49.01 698.97,-38.86 699.3,-29.99"/>
<polygon fill="midnightblue" stroke="midnightblue" points="702.8,-29.87 699.68,-19.75 695.81,-29.61 702.8,-29.87"/>
</g>
<!-- Node19 -->
<g id="node19" class="node">
<title>Node19</title>
<g id="a_node19"><a xlink:title=" ">
<polygon fill="white" stroke="#bfbfbf" points="890.5,-0.5 890.5,-19.5 959.5,-19.5 959.5,-0.5 890.5,-0.5"/>
<text text-anchor="middle" x="925" y="-7.5" font-family="Helvetica,sans-Serif" font-size="10.00">type_traits</text>
</a>
</g>
</g>
<!-- Node15&#45;&gt;Node19 -->
<g id="edge22" class="edge">
<title>Node15&#45;&gt;Node19</title>
<path fill="none" stroke="midnightblue" d="M733.97,-56.44C773.67,-47 837.6,-31.79 880.44,-21.6"/>
<polygon fill="midnightblue" stroke="midnightblue" points="881.4,-24.97 890.32,-19.25 879.78,-18.16 881.4,-24.97"/>
</g>
<!-- Node20&#45;&gt;Node11 -->
<g id="edge35" class="edge">
<title>Node20&#45;&gt;Node11</title>
<path fill="none" stroke="midnightblue" d="M675.66,-117.48C629.1,-112.12 545.12,-99.89 477,-76 458.99,-69.69 456.78,-62.94 439,-56 393.51,-38.23 338.46,-25.03 303.83,-17.66"/>
<polygon fill="midnightblue" stroke="midnightblue" points="304.27,-14.18 293.77,-15.57 302.84,-21.03 304.27,-14.18"/>
</g>
<!-- Node20&#45;&gt;Node15 -->
<g id="edge25" class="edge">
<title>Node20&#45;&gt;Node15</title>
<path fill="none" stroke="midnightblue" d="M708.85,-112.08C707.13,-104.93 704.65,-94.64 702.5,-85.69"/>
<polygon fill="midnightblue" stroke="midnightblue" points="705.85,-84.65 700.11,-75.75 699.04,-86.29 705.85,-84.65"/>
</g>
<!-- Node20&#45;&gt;Node19 -->
<g id="edge34" class="edge">
<title>Node20&#45;&gt;Node19</title>
<path fill="none" stroke="midnightblue" d="M746.07,-120.03C784.51,-117.29 846.26,-107.8 888,-76 903.46,-64.22 913.49,-44 919.15,-29.23"/>
<polygon fill="midnightblue" stroke="midnightblue" points="922.51,-30.23 922.52,-19.64 915.91,-27.91 922.51,-30.23"/>
</g>
<!-- Node21 -->
<g id="node21" class="node">
<title>Node21</title>
<g id="a_node21"><a xlink:href="serialized_8h.html" target="_top" xlink:title=" ">
<polygon fill="white" stroke="black" points="485.5,-56.5 485.5,-75.5 558.5,-75.5 558.5,-56.5 485.5,-56.5"/>
<text text-anchor="middle" x="522" y="-63.5" font-family="Helvetica,sans-Serif" font-size="10.00">serialized.h</text>
</a>
</g>
</g>
<!-- Node20&#45;&gt;Node21 -->
<g id="edge26" class="edge">
<title>Node20&#45;&gt;Node21</title>
<path fill="none" stroke="midnightblue" d="M681.05,-112.44C648.84,-103.24 597.47,-88.56 561.86,-78.39"/>
<polygon fill="midnightblue" stroke="midnightblue" points="562.38,-74.9 551.81,-75.52 560.46,-81.63 562.38,-74.9"/>
</g>
<!-- Node23 -->
<g id="node23" class="node">
<title>Node23</title>
<g id="a_node23"><a xlink:title=" ">
<polygon fill="white" stroke="#bfbfbf" points="761,-56.5 761,-75.5 819,-75.5 819,-56.5 761,-56.5"/>
<text text-anchor="middle" x="790" y="-63.5" font-family="Helvetica,sans-Serif" font-size="10.00">memory</text>
</a>
</g>
</g>
<!-- Node20&#45;&gt;Node23 -->
<g id="edge32" class="edge">
<title>Node20&#45;&gt;Node23</title>
<path fill="none" stroke="midnightblue" d="M723.69,-112.32C735.9,-103.98 754.58,-91.21 769,-81.35"/>
<polygon fill="midnightblue" stroke="midnightblue" points="771.06,-84.19 777.34,-75.65 767.11,-78.41 771.06,-84.19"/>
</g>
<!-- Node24 -->
<g id="node24" class="node">
<title>Node24</title>
<g id="a_node24"><a xlink:title=" ">
<polygon fill="white" stroke="#bfbfbf" points="837.5,-56.5 837.5,-75.5 878.5,-75.5 878.5,-56.5 837.5,-56.5"/>
<text text-anchor="middle" x="858" y="-63.5" font-family="Helvetica,sans-Serif" font-size="10.00">tuple</text>
</a>
</g>
</g>
<!-- Node20&#45;&gt;Node24 -->
<g id="edge33" class="edge">
<title>Node20&#45;&gt;Node24</title>
<path fill="none" stroke="midnightblue" d="M734.29,-112.44C759.53,-103.17 799.89,-88.35 827.61,-78.17"/>
<polygon fill="midnightblue" stroke="midnightblue" points="829.01,-81.38 837.19,-74.64 826.6,-74.81 829.01,-81.38"/>
</g>
<!-- Node21&#45;&gt;Node4 -->
<g id="edge28" class="edge">
<title>Node21&#45;&gt;Node4</title>
<path fill="none" stroke="midnightblue" d="M485.23,-60.96C470.82,-59.4 454.14,-57.59 439,-56 282.61,-39.52 243.07,-39.3 87,-20 78.23,-18.92 68.79,-17.61 59.98,-16.34"/>
<polygon fill="midnightblue" stroke="midnightblue" points="60.41,-12.87 50.01,-14.88 59.39,-19.79 60.41,-12.87"/>
</g>
<!-- Node21&#45;&gt;Node10 -->
<g id="edge27" class="edge">
<title>Node21&#45;&gt;Node10</title>
<path fill="none" stroke="midnightblue" d="M485.44,-60.81C404.58,-51.49 213.8,-29.29 156.11,-19.83"/>
<polygon fill="midnightblue" stroke="midnightblue" points="156.62,-16.37 146.16,-18.07 155.4,-23.26 156.62,-16.37"/>
</g>
<!-- Node21&#45;&gt;Node11 -->
<g id="edge31" class="edge">
<title>Node21&#45;&gt;Node11</title>
<path fill="none" stroke="midnightblue" d="M485.36,-57.15C436.62,-46.71 351.15,-28.39 303.86,-18.26"/>
<polygon fill="midnightblue" stroke="midnightblue" points="304.33,-14.78 293.82,-16.1 302.87,-21.62 304.33,-14.78"/>
</g>
<!-- Node21&#45;&gt;Node18 -->
<g id="edge30" class="edge">
<title>Node21&#45;&gt;Node18</title>
<path fill="none" stroke="midnightblue" d="M550.2,-56.44C582.28,-46.71 634.52,-30.86 668.07,-20.69"/>
<polygon fill="midnightblue" stroke="midnightblue" points="669.28,-23.98 677.83,-17.73 667.25,-17.28 669.28,-23.98"/>
</g>
<!-- Node22 -->
<g id="node22" class="node">
<title>Node22</title>
<g id="a_node22"><a xlink:title=" ">
<polygon fill="white" stroke="#bfbfbf" points="442.5,-0.5 442.5,-19.5 507.5,-19.5 507.5,-0.5 442.5,-0.5"/>
<text text-anchor="middle" x="475" y="-7.5" font-family="Helvetica,sans-Serif" font-size="10.00">stdexcept</text>
</a>
</g>
</g>
<!-- Node21&#45;&gt;Node22 -->
<g id="edge29" class="edge">
<title>Node21&#45;&gt;Node22</title>
<path fill="none" stroke="midnightblue" d="M514.24,-56.08C507.46,-48.3 497.46,-36.8 489.24,-27.37"/>
<polygon fill="midnightblue" stroke="midnightblue" points="491.82,-25 482.62,-19.75 486.54,-29.59 491.82,-25"/>
</g>
</g>
</svg>
        <g id="navigator" transform="translate(0 0)" fill="#404254">
                <rect fill="#f2f5e9" fill-opacity="0.5" stroke="#606060" stroke-width=".5" x="0" y="0" width="60" height="60"/>
                <use id="zoomplus" xlink:href="#zoomPlus" x="17" y="9" onmousedown="handleZoom(evt,'in')"/>
                <use id="zoomminus" xlink:href="#zoomMin" x="42" y="9" onmousedown="handleZoom(evt,'out')"/>
                <use id="reset" xlink:href="#resetDef" x="30" y="36" onmousedown="handleReset()"/>
                <g id="arrowUp" xlink:href="#dirArrow" transform="translate(30 24)" onmousedown="handlePan(0,-1)">
                  <use xlink:href="#rim" fill="#404040">
                        <set attributeName="fill" to="#808080" begin="arrowUp.mouseover" end="arrowUp.mouseout"/>
                  </use>
                  <path fill="none" stroke="white" stroke-width="1.5" d="M0,-3.0v7 M-2.5,-0.5L0,-3.0L2.5,-0.5"/>
                </g>
                <g id="arrowRight" xlink:href="#dirArrow" transform="rotate(90) translate(36 -43)" onmousedown="handlePan(1,0)">
                  <use xlink:href="#rim" fill="#404040">
                        <set attributeName="fill" to="#808080" begin="arrowRight.mouseover" end="arrowRight.mouseout"/>
                  </use>
                  <path fill="none" stroke="white" stroke-width="1.5" d="M0,-3.0v7 M-2.5,-0.5L0,-3.0L2.5,-0.5"/>
                </g>
                <g id="arrowDown" xlink:href="#dirArrow" transform="rotate(180) translate(-30 -48)" onmousedown="handlePan(0,1)">
                  <use xlink:href="#rim" fill="#404040">
                        <set attributeName="fill" to="#808080" begin="arrowDown.mouseover" end="arrowDown.mouseout"/>
                  </use>
                  <path fill="none" stroke="white" stroke-width="1.5" d="M0,-3.0v7 M-2.5,-0.5L0,-3.0L2.5,-0.5"/>
                </g>
                <g id="arrowLeft" xlink:href="#dirArrow" transform="rotate(270) translate(-36 17)" onmousedown="handlePan(-1,0)">
                  <use xlink:href="#rim" fill="#404040">
                        <set attributeName="fill" to="#808080" begin="arrowLeft.mouseover" end="arrowLeft.mouseout"/>
                  </use>
                  <path fill="none" stroke="white" stroke-width="1.5" d="M0,-3.0v7 M-2.5,-0.5L0,-3.0L2.5,-0.5"/>
                </g>
        </g>
        <svg viewBox="0 0 15 15" width="100%" height="30px" preserveAspectRatio="xMaxYMin meet">
         <g id="arrow_out" transform="scale(0.3 0.3)">
          <a xlink:href="ring__buffer_8h__incl_org.svg" target="_base">
           <rect id="button" ry="5" rx="5" y="6" x="6" height="38" width="38"
                fill="#f2f5e9" fill-opacity="0.5" stroke="#606060" stroke-width="1.0"/>
           <path id="arrow"
             d="M 11.500037,31.436501 C 11.940474,20.09759 22.043105,11.32322 32.158766,21.979434 L 37.068811,17.246167 C 37.068811,17.246167 37.088388,32 37.088388,32 L 22.160133,31.978069 C 22.160133,31.978069 26.997745,27.140456 26.997745,27.140456 C 18.528582,18.264221 13.291696,25.230495 11.500037,31.436501 z"
             style="fill:#404040;"/>
          </a>
         </g>
        </svg>
</svg>
