<?xml version="1.0" encoding="UTF-8" standalone="no"?>
<!DOCTYPE svg PUBLIC "-//W3C//DTD SVG 1.1//EN"
 "http://www.w3.org/Graphics/SVG/1.1/DTD/svg11.dtd">
<!-- Generated by graphviz version 2.43.0 (0)
 -->
<!-- Title: src/enclave/rpc_handler.h Pages: 1 -->
<svg width="1555pt" height="598pt"
 viewBox="0.00 0.00 1554.89 598.00" xmlns="http://www.w3.org/2000/svg" xmlns:xlink="http://www.w3.org/1999/xlink">
<g id="graph0" class="graph" transform="scale(1 1) rotate(0) translate(4 594)">
<title>src/enclave/rpc_handler.h</title>
<polygon fill="white" stroke="transparent" points="-4,4 -4,-594 1550.89,-594 1550.89,4 -4,4"/>
<!-- Node1 -->
<g id="node1" class="node">
<title>Node1</title>
<g id="a_node1"><a xlink:title=" ">
<polygon fill="#bfbfbf" stroke="black" points="1076.5,-570.5 1076.5,-589.5 1216.5,-589.5 1216.5,-570.5 1076.5,-570.5"/>
<text text-anchor="middle" x="1146.5" y="-577.5" font-family="Helvetica,sans-Serif" font-size="10.00">src/enclave/rpc_handler.h</text>
</a>
</g>
</g>
<!-- Node2 -->
<g id="node2" class="node">
<title>Node2</title>
<g id="a_node2"><a xlink:href="raft__types_8h.html" target="_top" xlink:title=" ">
<polygon fill="white" stroke="black" points="578.5,-503.5 578.5,-533.5 698.5,-533.5 698.5,-503.5 578.5,-503.5"/>
<text text-anchor="start" x="586.5" y="-521.5" font-family="Helvetica,sans-Serif" font-size="10.00">src/consensus/aft/raft</text>
<text text-anchor="middle" x="638.5" y="-510.5" font-family="Helvetica,sans-Serif" font-size="10.00">_types.h</text>
</a>
</g>
</g>
<!-- Node1&#45;&gt;Node2 -->
<g id="edge1" class="edge">
<title>Node1&#45;&gt;Node2</title>
<path fill="none" stroke="midnightblue" d="M1066.45,-569.62C964.41,-557.67 790.29,-537.28 698.78,-526.56"/>
<polygon fill="midnightblue" stroke="midnightblue" points="1066.06,-573.1 1076.4,-570.79 1066.87,-566.15 1066.06,-573.1"/>
</g>
<!-- Node20 -->
<g id="node20" class="node">
<title>Node20</title>
<g id="a_node20"><a xlink:href="rpc__map_8h.html" target="_top" xlink:title=" ">
<polygon fill="white" stroke="black" points="1158.5,-509 1158.5,-528 1284.5,-528 1284.5,-509 1158.5,-509"/>
<text text-anchor="middle" x="1221.5" y="-516" font-family="Helvetica,sans-Serif" font-size="10.00">src/enclave/rpc_map.h</text>
</a>
</g>
</g>
<!-- Node1&#45;&gt;Node20 -->
<g id="edge30" class="edge">
<title>Node1&#45;&gt;Node20</title>
<path fill="none" stroke="midnightblue" d="M1165.44,-563.97C1179.79,-552.59 1198.98,-537.37 1210.77,-528.01"/>
<polygon fill="midnightblue" stroke="midnightblue" points="1162.9,-561.52 1157.25,-570.48 1167.26,-567 1162.9,-561.52"/>
</g>
<!-- Node22 -->
<g id="node22" class="node">
<title>Node22</title>
<g id="a_node22"><a xlink:href="rpc__sessions_8h.html" target="_top" xlink:title=" ">
<polygon fill="white" stroke="black" points="1179.5,-375 1179.5,-394 1325.5,-394 1325.5,-375 1179.5,-375"/>
<text text-anchor="middle" x="1252.5" y="-382" font-family="Helvetica,sans-Serif" font-size="10.00">src/enclave/rpc_sessions.h</text>
</a>
</g>
</g>
<!-- Node1&#45;&gt;Node22 -->
<g id="edge56" class="edge">
<title>Node1&#45;&gt;Node22</title>
<path fill="none" stroke="midnightblue" d="M1220.16,-568.98C1323.5,-553.22 1503.12,-518.95 1540.5,-467 1548.55,-455.82 1549.36,-446.55 1540.5,-436 1513.57,-403.93 1401.71,-392.22 1325.59,-387.95"/>
<polygon fill="midnightblue" stroke="midnightblue" points="1219.47,-565.55 1210.1,-570.5 1220.51,-572.47 1219.47,-565.55"/>
</g>
<!-- Node25 -->
<g id="node25" class="node">
<title>Node25</title>
<g id="a_node25"><a xlink:href="http__endpoint_8h.html" target="_top" xlink:title=" ">
<polygon fill="white" stroke="black" points="1398,-442 1398,-461 1531,-461 1531,-442 1398,-442"/>
<text text-anchor="middle" x="1464.5" y="-449" font-family="Helvetica,sans-Serif" font-size="10.00">src/http/http_endpoint.h</text>
</a>
</g>
</g>
<!-- Node1&#45;&gt;Node25 -->
<g id="edge57" class="edge">
<title>Node1&#45;&gt;Node25</title>
<path fill="none" stroke="midnightblue" d="M1189.39,-567.68C1219.02,-559.42 1259.12,-547.37 1293.5,-534 1352.04,-511.23 1418.42,-477.07 1448.35,-461.19"/>
<polygon fill="midnightblue" stroke="midnightblue" points="1188.09,-564.41 1179.38,-570.44 1189.95,-571.16 1188.09,-564.41"/>
</g>
<!-- Node27 -->
<g id="node27" class="node">
<title>Node27</title>
<g id="a_node27"><a xlink:href="frontend_8h.html" target="_top" xlink:title=" ">
<polygon fill="white" stroke="black" points="121,-375 121,-394 250,-394 250,-375 121,-375"/>
<text text-anchor="middle" x="185.5" y="-382" font-family="Helvetica,sans-Serif" font-size="10.00">src/node/rpc/frontend.h</text>
</a>
</g>
</g>
<!-- Node1&#45;&gt;Node27 -->
<g id="edge64" class="edge">
<title>Node1&#45;&gt;Node27</title>
<path fill="none" stroke="midnightblue" d="M1065.97,-577.15C820.08,-570.67 91.53,-545 22.5,-467 13.37,-456.68 14.33,-447.09 22.5,-436 30.26,-425.48 104.8,-405.46 150.35,-394.04"/>
<polygon fill="midnightblue" stroke="midnightblue" points="1066.18,-580.66 1076.26,-577.42 1066.36,-573.66 1066.18,-580.66"/>
</g>
<!-- Node31 -->
<g id="node31" class="node">
<title>Node31</title>
<g id="a_node31"><a xlink:href="node__to__node_8h.html" target="_top" xlink:title=" ">
<polygon fill="white" stroke="black" points="952.5,-509 952.5,-528 1090.5,-528 1090.5,-509 952.5,-509"/>
<text text-anchor="middle" x="1021.5" y="-516" font-family="Helvetica,sans-Serif" font-size="10.00">src/node/node_to_node.h</text>
</a>
</g>
</g>
<!-- Node1&#45;&gt;Node31 -->
<g id="edge58" class="edge">
<title>Node1&#45;&gt;Node31</title>
<path fill="none" stroke="midnightblue" d="M1119.56,-566.17C1095.3,-554.63 1060.34,-537.99 1039.38,-528.01"/>
<polygon fill="midnightblue" stroke="midnightblue" points="1118.06,-569.34 1128.59,-570.48 1121.07,-563.02 1118.06,-569.34"/>
</g>
<!-- Node3 -->
<g id="node3" class="node">
<title>Node3</title>
<g id="a_node3"><a xlink:href="request__message_8h.html" target="_top" xlink:title=" ">
<polygon fill="white" stroke="black" points="205,-436.5 205,-466.5 330,-466.5 330,-436.5 205,-436.5"/>
<text text-anchor="start" x="213" y="-454.5" font-family="Helvetica,sans-Serif" font-size="10.00">src/consensus/aft/impl</text>
<text text-anchor="middle" x="267.5" y="-443.5" font-family="Helvetica,sans-Serif" font-size="10.00">/request_message.h</text>
</a>
</g>
</g>
<!-- Node2&#45;&gt;Node3 -->
<g id="edge2" class="edge">
<title>Node2&#45;&gt;Node3</title>
<path fill="none" stroke="midnightblue" d="M568.43,-505.79C508.83,-495.75 420.99,-480.77 344.5,-467 339.81,-466.16 334.97,-465.27 330.1,-464.37"/>
<polygon fill="midnightblue" stroke="midnightblue" points="568.04,-509.27 578.48,-507.48 569.2,-502.37 568.04,-509.27"/>
</g>
<!-- Node4 -->
<g id="node4" class="node">
<title>Node4</title>
<g id="a_node4"><a xlink:href="state_8h.html" target="_top" xlink:title=" ">
<polygon fill="white" stroke="black" points="667,-369.5 667,-399.5 792,-399.5 792,-369.5 667,-369.5"/>
<text text-anchor="start" x="675" y="-387.5" font-family="Helvetica,sans-Serif" font-size="10.00">src/consensus/aft/impl</text>
<text text-anchor="middle" x="729.5" y="-376.5" font-family="Helvetica,sans-Serif" font-size="10.00">/state.h</text>
</a>
</g>
</g>
<!-- Node2&#45;&gt;Node4 -->
<g id="edge3" class="edge">
<title>Node2&#45;&gt;Node4</title>
<path fill="none" stroke="midnightblue" d="M676.99,-497.94C689.36,-489.91 702.04,-479.52 710.5,-467 724.41,-446.41 728.21,-416.96 729.21,-399.68"/>
<polygon fill="midnightblue" stroke="midnightblue" points="674.81,-495.17 668.1,-503.37 678.45,-501.15 674.81,-495.17"/>
</g>
<!-- Node5 -->
<g id="node5" class="node">
<title>Node5</title>
<g id="a_node5"><a xlink:href="raft_8h.html" target="_top" xlink:title=" ">
<polygon fill="white" stroke="black" points="574,-308 574,-327 703,-327 703,-308 574,-308"/>
<text text-anchor="middle" x="638.5" y="-315" font-family="Helvetica,sans-Serif" font-size="10.00">src/consensus/aft/raft.h</text>
</a>
</g>
</g>
<!-- Node2&#45;&gt;Node5 -->
<g id="edge12" class="edge">
<title>Node2&#45;&gt;Node5</title>
<path fill="none" stroke="midnightblue" d="M568.49,-503.9C477.84,-484.61 327.95,-446.46 298.5,-400 291.12,-388.36 289.43,-379.38 298.5,-369 337.75,-324.08 505.65,-342.74 564.5,-333 575.09,-331.25 586.49,-329.13 597.09,-327.06"/>
<polygon fill="midnightblue" stroke="midnightblue" points="567.92,-507.35 578.42,-505.98 569.36,-500.5 567.92,-507.35"/>
</g>
<!-- Node11 -->
<g id="node11" class="node">
<title>Node11</title>
<g id="a_node11"><a xlink:href="node__connections_8h.html" target="_top" xlink:title=" ">
<polygon fill="white" stroke="black" points="32,-442 32,-461 187,-461 187,-442 32,-442"/>
<text text-anchor="middle" x="109.5" y="-449" font-family="Helvetica,sans-Serif" font-size="10.00">src/host/node_connections.h</text>
</a>
</g>
</g>
<!-- Node2&#45;&gt;Node11 -->
<g id="edge13" class="edge">
<title>Node2&#45;&gt;Node11</title>
<path fill="none" stroke="midnightblue" d="M568.1,-510.65C480.59,-501.86 326.74,-485.53 195.5,-467 183.06,-465.24 169.64,-463.1 157.19,-461.01"/>
<polygon fill="midnightblue" stroke="midnightblue" points="567.88,-514.14 578.18,-511.66 568.58,-507.18 567.88,-514.14"/>
</g>
<!-- Node13 -->
<g id="node13" class="node">
<title>Node13</title>
<g id="a_node13"><a xlink:href="node__client_8h.html" target="_top" xlink:title=" ">
<polygon fill="white" stroke="black" points="575.5,-442 575.5,-461 701.5,-461 701.5,-442 575.5,-442"/>
<text text-anchor="middle" x="638.5" y="-449" font-family="Helvetica,sans-Serif" font-size="10.00">src/node/node_client.h</text>
</a>
</g>
</g>
<!-- Node2&#45;&gt;Node13 -->
<g id="edge15" class="edge">
<title>Node2&#45;&gt;Node13</title>
<path fill="none" stroke="midnightblue" d="M638.5,-493.25C638.5,-482.02 638.5,-469.38 638.5,-461.19"/>
<polygon fill="midnightblue" stroke="midnightblue" points="635,-493.4 638.5,-503.4 642,-493.4 635,-493.4"/>
</g>
<!-- Node19 -->
<g id="node19" class="node">
<title>Node19</title>
<g id="a_node19"><a xlink:href="resharing__tracker_8h.html" target="_top" xlink:title=" ">
<polygon fill="white" stroke="black" points="810,-369.5 810,-399.5 917,-399.5 917,-369.5 810,-369.5"/>
<text text-anchor="start" x="818" y="-387.5" font-family="Helvetica,sans-Serif" font-size="10.00">src/node/resharing</text>
<text text-anchor="middle" x="863.5" y="-376.5" font-family="Helvetica,sans-Serif" font-size="10.00">_tracker.h</text>
</a>
</g>
</g>
<!-- Node2&#45;&gt;Node19 -->
<g id="edge27" class="edge">
<title>Node2&#45;&gt;Node19</title>
<path fill="none" stroke="midnightblue" d="M673.98,-498.53C691.16,-489.22 712.02,-477.73 730.5,-467 769.85,-444.16 814.83,-416.2 841.11,-399.67"/>
<polygon fill="midnightblue" stroke="midnightblue" points="671.99,-495.63 664.86,-503.46 675.32,-501.79 671.99,-495.63"/>
</g>
<!-- Node4&#45;&gt;Node5 -->
<g id="edge4" class="edge">
<title>Node4&#45;&gt;Node5</title>
<path fill="none" stroke="midnightblue" d="M701.23,-363.31C684.14,-351.1 663.25,-336.18 650.41,-327.01"/>
<polygon fill="midnightblue" stroke="midnightblue" points="699.58,-366.43 709.75,-369.4 703.65,-360.74 699.58,-366.43"/>
</g>
<!-- Node10 -->
<g id="node10" class="node">
<title>Node10</title>
<g id="a_node10"><a xlink:href="resharing_8h.html" target="_top" xlink:title=" ">
<polygon fill="white" stroke="black" points="742.5,-308 742.5,-327 858.5,-327 858.5,-308 742.5,-308"/>
<text text-anchor="middle" x="800.5" y="-315" font-family="Helvetica,sans-Serif" font-size="10.00">src/node/resharing.h</text>
</a>
</g>
</g>
<!-- Node4&#45;&gt;Node10 -->
<g id="edge10" class="edge">
<title>Node4&#45;&gt;Node10</title>
<path fill="none" stroke="midnightblue" d="M752.62,-362.34C765.65,-350.4 781.24,-336.14 791,-327.19"/>
<polygon fill="midnightblue" stroke="midnightblue" points="749.92,-360.06 744.91,-369.4 754.65,-365.22 749.92,-360.06"/>
</g>
<!-- Node6 -->
<g id="node6" class="node">
<title>Node6</title>
<g id="a_node6"><a xlink:href="node__state_8h.html" target="_top" xlink:title=" ">
<polygon fill="white" stroke="black" points="693.5,-174 693.5,-193 817.5,-193 817.5,-174 693.5,-174"/>
<text text-anchor="middle" x="755.5" y="-181" font-family="Helvetica,sans-Serif" font-size="10.00">src/node/node_state.h</text>
</a>
</g>
</g>
<!-- Node5&#45;&gt;Node6 -->
<g id="edge5" class="edge">
<title>Node5&#45;&gt;Node6</title>
<path fill="none" stroke="midnightblue" d="M659.42,-301.51C671.81,-292.08 687.41,-279.23 699.5,-266 721.51,-241.93 741.7,-208.69 750.64,-193.16"/>
<polygon fill="midnightblue" stroke="midnightblue" points="656.99,-298.95 651.05,-307.72 661.17,-304.57 656.99,-298.95"/>
</g>
<!-- Node7 -->
<g id="node7" class="node">
<title>Node7</title>
<g id="a_node7"><a xlink:href="src_2enclave_2enclave_8h.html" target="_top" xlink:title=" ">
<polygon fill="white" stroke="black" points="594.5,-56.5 594.5,-75.5 716.5,-75.5 716.5,-56.5 594.5,-56.5"/>
<text text-anchor="middle" x="655.5" y="-63.5" font-family="Helvetica,sans-Serif" font-size="10.00">src/enclave/enclave.h</text>
</a>
</g>
</g>
<!-- Node6&#45;&gt;Node7 -->
<g id="edge6" class="edge">
<title>Node6&#45;&gt;Node7</title>
<path fill="none" stroke="midnightblue" d="M723.57,-169.41C706.75,-161.01 687.06,-148.56 674.5,-132 661.57,-114.95 657.42,-89.29 656.1,-75.88"/>
<polygon fill="midnightblue" stroke="midnightblue" points="722.53,-172.79 733.06,-173.88 725.51,-166.45 722.53,-172.79"/>
</g>
<!-- Node9 -->
<g id="node9" class="node">
<title>Node9</title>
<g id="a_node9"><a xlink:href="gov__effects_8h.html" target="_top" xlink:title=" ">
<polygon fill="white" stroke="black" points="683.5,-112.5 683.5,-131.5 827.5,-131.5 827.5,-112.5 683.5,-112.5"/>
<text text-anchor="middle" x="755.5" y="-119.5" font-family="Helvetica,sans-Serif" font-size="10.00">src/node/rpc/gov_effects.h</text>
</a>
</g>
</g>
<!-- Node6&#45;&gt;Node9 -->
<g id="edge8" class="edge">
<title>Node6&#45;&gt;Node9</title>
<path fill="none" stroke="midnightblue" d="M755.5,-163.82C755.5,-153 755.5,-139.9 755.5,-131.51"/>
<polygon fill="midnightblue" stroke="midnightblue" points="752,-163.98 755.5,-173.98 759,-163.98 752,-163.98"/>
</g>
<!-- Node8 -->
<g id="node8" class="node">
<title>Node8</title>
<g id="a_node8"><a xlink:href="enclave_2main_8cpp.html" target="_top" xlink:title=" ">
<polygon fill="white" stroke="black" points="595.5,-0.5 595.5,-19.5 715.5,-19.5 715.5,-0.5 595.5,-0.5"/>
<text text-anchor="middle" x="655.5" y="-7.5" font-family="Helvetica,sans-Serif" font-size="10.00">src/enclave/main.cpp</text>
</a>
</g>
</g>
<!-- Node7&#45;&gt;Node8 -->
<g id="edge7" class="edge">
<title>Node7&#45;&gt;Node8</title>
<path fill="none" stroke="midnightblue" d="M655.5,-45.8C655.5,-36.91 655.5,-26.78 655.5,-19.75"/>
<polygon fill="midnightblue" stroke="midnightblue" points="652,-46.08 655.5,-56.08 659,-46.08 652,-46.08"/>
</g>
<!-- Node9&#45;&gt;Node7 -->
<g id="edge9" class="edge">
<title>Node9&#45;&gt;Node7</title>
<path fill="none" stroke="midnightblue" d="M730.41,-107.45C711.95,-97.48 687.4,-84.23 671.53,-75.65"/>
<polygon fill="midnightblue" stroke="midnightblue" points="728.97,-110.65 739.43,-112.32 732.3,-104.49 728.97,-110.65"/>
</g>
<!-- Node10&#45;&gt;Node6 -->
<g id="edge11" class="edge">
<title>Node10&#45;&gt;Node6</title>
<path fill="none" stroke="midnightblue" d="M790.15,-299.04C784.87,-289.53 778.69,-277.4 774.5,-266 765.08,-240.36 759.25,-208.43 756.81,-193.27"/>
<polygon fill="midnightblue" stroke="midnightblue" points="787.2,-300.93 795.21,-307.86 793.27,-297.44 787.2,-300.93"/>
</g>
<!-- Node12 -->
<g id="node12" class="node">
<title>Node12</title>
<g id="a_node12"><a xlink:href="host_2main_8cpp.html" target="_top" xlink:title=" ">
<polygon fill="white" stroke="black" points="0,-375 0,-394 103,-394 103,-375 0,-375"/>
<text text-anchor="middle" x="51.5" y="-382" font-family="Helvetica,sans-Serif" font-size="10.00">src/host/main.cpp</text>
</a>
</g>
</g>
<!-- Node11&#45;&gt;Node12 -->
<g id="edge14" class="edge">
<title>Node11&#45;&gt;Node12</title>
<path fill="none" stroke="midnightblue" d="M94.9,-434.13C83.55,-421.42 68.27,-404.3 59.2,-394.13"/>
<polygon fill="midnightblue" stroke="midnightblue" points="92.41,-436.6 101.68,-441.73 97.63,-431.94 92.41,-436.6"/>
</g>
<!-- Node13&#45;&gt;Node5 -->
<g id="edge22" class="edge">
<title>Node13&#45;&gt;Node5</title>
<path fill="none" stroke="midnightblue" d="M638.5,-431.78C638.5,-402.75 638.5,-348.04 638.5,-327.02"/>
<polygon fill="midnightblue" stroke="midnightblue" points="635,-431.84 638.5,-441.84 642,-431.84 635,-431.84"/>
</g>
<!-- Node14 -->
<g id="node14" class="node">
<title>Node14</title>
<g id="a_node14"><a xlink:href="orc__requests_8h.html" target="_top" xlink:title=" ">
<polygon fill="white" stroke="black" points="307,-369.5 307,-399.5 426,-399.5 426,-369.5 307,-369.5"/>
<text text-anchor="start" x="315" y="-387.5" font-family="Helvetica,sans-Serif" font-size="10.00">src/consensus/aft/orc</text>
<text text-anchor="middle" x="366.5" y="-376.5" font-family="Helvetica,sans-Serif" font-size="10.00">_requests.h</text>
</a>
</g>
</g>
<!-- Node13&#45;&gt;Node14 -->
<g id="edge16" class="edge">
<title>Node13&#45;&gt;Node14</title>
<path fill="none" stroke="midnightblue" d="M592.67,-439.55C546.63,-428.55 475.51,-411.55 425.33,-399.56"/>
<polygon fill="midnightblue" stroke="midnightblue" points="592.12,-443.02 602.66,-441.94 593.75,-436.21 592.12,-443.02"/>
</g>
<!-- Node17 -->
<g id="node17" class="node">
<title>Node17</title>
<g id="a_node17"><a xlink:href="http__node__client_8h.html" target="_top" xlink:title=" ">
<polygon fill="white" stroke="black" points="783.5,-235.5 783.5,-265.5 893.5,-265.5 893.5,-235.5 783.5,-235.5"/>
<text text-anchor="start" x="791.5" y="-253.5" font-family="Helvetica,sans-Serif" font-size="10.00">src/node/http_node</text>
<text text-anchor="middle" x="838.5" y="-242.5" font-family="Helvetica,sans-Serif" font-size="10.00">_client.h</text>
</a>
</g>
</g>
<!-- Node13&#45;&gt;Node17 -->
<g id="edge23" class="edge">
<title>Node13&#45;&gt;Node17</title>
<path fill="none" stroke="midnightblue" d="M711.8,-448.04C787.92,-443.76 899.59,-432.04 926.5,-400 963.89,-355.48 894.07,-293.16 858.06,-265.58"/>
<polygon fill="midnightblue" stroke="midnightblue" points="711.57,-444.54 701.77,-448.57 711.95,-451.54 711.57,-444.54"/>
</g>
<!-- Node18 -->
<g id="node18" class="node">
<title>Node18</title>
<g id="a_node18"><a xlink:href="retired__nodes__cleanup_8h.html" target="_top" xlink:title=" ">
<polygon fill="white" stroke="black" points="482.5,-369.5 482.5,-399.5 610.5,-399.5 610.5,-369.5 482.5,-369.5"/>
<text text-anchor="start" x="490.5" y="-387.5" font-family="Helvetica,sans-Serif" font-size="10.00">src/node/retired_nodes</text>
<text text-anchor="middle" x="546.5" y="-376.5" font-family="Helvetica,sans-Serif" font-size="10.00">_cleanup.h</text>
</a>
</g>
</g>
<!-- Node13&#45;&gt;Node18 -->
<g id="edge25" class="edge">
<title>Node13&#45;&gt;Node18</title>
<path fill="none" stroke="midnightblue" d="M617.76,-435.85C602.41,-425 581.61,-410.3 566.44,-399.59"/>
<polygon fill="midnightblue" stroke="midnightblue" points="615.91,-438.82 626.09,-441.73 619.94,-433.1 615.91,-438.82"/>
</g>
<!-- Node14&#45;&gt;Node5 -->
<g id="edge17" class="edge">
<title>Node14&#45;&gt;Node5</title>
<path fill="none" stroke="midnightblue" d="M434.92,-367.15C488.3,-354.39 560.29,-337.19 602.81,-327.03"/>
<polygon fill="midnightblue" stroke="midnightblue" points="434.1,-363.75 425.19,-369.48 435.72,-370.56 434.1,-363.75"/>
</g>
<!-- Node15 -->
<g id="node15" class="node">
<title>Node15</title>
<g id="a_node15"><a xlink:href="node__frontend_8h.html" target="_top" xlink:title=" ">
<polygon fill="white" stroke="black" points="397.5,-308 397.5,-327 555.5,-327 555.5,-308 397.5,-308"/>
<text text-anchor="middle" x="476.5" y="-315" font-family="Helvetica,sans-Serif" font-size="10.00">src/node/rpc/node_frontend.h</text>
</a>
</g>
</g>
<!-- Node14&#45;&gt;Node15 -->
<g id="edge18" class="edge">
<title>Node14&#45;&gt;Node15</title>
<path fill="none" stroke="midnightblue" d="M398.98,-364.31C419.93,-351.93 446.16,-336.43 462.1,-327.01"/>
<polygon fill="midnightblue" stroke="midnightblue" points="397.2,-361.3 390.37,-369.4 400.76,-367.32 397.2,-361.3"/>
</g>
<!-- Node15&#45;&gt;Node7 -->
<g id="edge19" class="edge">
<title>Node15&#45;&gt;Node7</title>
<path fill="none" stroke="midnightblue" d="M436.93,-303.89C419.11,-296.01 399.79,-283.88 389.5,-266 382.63,-254.06 382.85,-247.07 389.5,-235 440.52,-142.44 566.38,-93.82 624.8,-75.6"/>
<polygon fill="midnightblue" stroke="midnightblue" points="436.03,-307.3 446.61,-307.84 438.68,-300.82 436.03,-307.3"/>
</g>
<!-- Node16 -->
<g id="node16" class="node">
<title>Node16</title>
<g id="a_node16"><a xlink:href="jwt__key__auto__refresh_8h.html" target="_top" xlink:title=" ">
<polygon fill="white" stroke="black" points="398,-235.5 398,-265.5 523,-265.5 523,-235.5 398,-235.5"/>
<text text-anchor="start" x="406" y="-253.5" font-family="Helvetica,sans-Serif" font-size="10.00">src/node/jwt_key_auto</text>
<text text-anchor="middle" x="460.5" y="-242.5" font-family="Helvetica,sans-Serif" font-size="10.00">_refresh.h</text>
</a>
</g>
</g>
<!-- Node15&#45;&gt;Node16 -->
<g id="edge20" class="edge">
<title>Node15&#45;&gt;Node16</title>
<path fill="none" stroke="midnightblue" d="M471.88,-297.74C469.36,-287.49 466.28,-275 463.97,-265.59"/>
<polygon fill="midnightblue" stroke="midnightblue" points="468.55,-298.86 474.34,-307.73 475.35,-297.19 468.55,-298.86"/>
</g>
<!-- Node16&#45;&gt;Node6 -->
<g id="edge21" class="edge">
<title>Node16&#45;&gt;Node6</title>
<path fill="none" stroke="midnightblue" d="M532.9,-233.55C590.83,-220.78 669.86,-203.37 716.5,-193.09"/>
<polygon fill="midnightblue" stroke="midnightblue" points="532.07,-230.15 523.06,-235.72 533.58,-236.98 532.07,-230.15"/>
</g>
<!-- Node17&#45;&gt;Node6 -->
<g id="edge24" class="edge">
<title>Node17&#45;&gt;Node6</title>
<path fill="none" stroke="midnightblue" d="M812.33,-229.01C796.92,-216.94 778.24,-202.3 766.6,-193.19"/>
<polygon fill="midnightblue" stroke="midnightblue" points="810.46,-231.99 820.49,-235.4 814.78,-226.47 810.46,-231.99"/>
</g>
<!-- Node18&#45;&gt;Node5 -->
<g id="edge26" class="edge">
<title>Node18&#45;&gt;Node5</title>
<path fill="none" stroke="midnightblue" d="M575.08,-363.31C592.36,-351.1 613.48,-336.18 626.46,-327.01"/>
<polygon fill="midnightblue" stroke="midnightblue" points="572.61,-360.77 566.46,-369.4 576.65,-366.48 572.61,-360.77"/>
</g>
<!-- Node19&#45;&gt;Node5 -->
<g id="edge28" class="edge">
<title>Node19&#45;&gt;Node5</title>
<path fill="none" stroke="midnightblue" d="M805.24,-366.67C761.27,-353.97 702.76,-337.06 668.02,-327.03"/>
<polygon fill="midnightblue" stroke="midnightblue" points="804.38,-370.06 814.96,-369.48 806.32,-363.34 804.38,-370.06"/>
</g>
<!-- Node19&#45;&gt;Node10 -->
<g id="edge29" class="edge">
<title>Node19&#45;&gt;Node10</title>
<path fill="none" stroke="midnightblue" d="M842.66,-362C831.16,-350.13 817.51,-336.05 808.93,-327.19"/>
<polygon fill="midnightblue" stroke="midnightblue" points="840.36,-364.65 849.83,-369.4 845.38,-359.78 840.36,-364.65"/>
</g>
<!-- Node20&#45;&gt;Node7 -->
<g id="edge31" class="edge">
<title>Node20&#45;&gt;Node7</title>
<path fill="none" stroke="midnightblue" d="M1278.99,-506.27C1303.8,-498.82 1331.43,-486.66 1350.5,-467 1399.3,-416.7 1403.5,-388.58 1403.5,-318.5 1403.5,-318.5 1403.5,-318.5 1403.5,-182.5 1403.5,-156.68 1511.96,-175.85 1243.5,-112 1144.77,-88.52 846.32,-74.42 716.69,-69.25"/>
<polygon fill="midnightblue" stroke="midnightblue" points="1277.98,-502.92 1269.29,-508.99 1279.87,-509.66 1277.98,-502.92"/>
</g>
<!-- Node20&#45;&gt;Node13 -->
<g id="edge43" class="edge">
<title>Node20&#45;&gt;Node13</title>
<path fill="none" stroke="midnightblue" d="M1147.86,-508.64C1131.91,-506.75 1115.15,-504.79 1099.5,-503 957.31,-486.76 790.33,-468.73 701.53,-459.22"/>
<polygon fill="midnightblue" stroke="midnightblue" points="1147.85,-512.16 1158.19,-509.86 1148.67,-505.21 1147.85,-512.16"/>
</g>
<!-- Node21 -->
<g id="node21" class="node">
<title>Node21</title>
<g id="a_node21"><a xlink:href="http2__endpoint_8h.html" target="_top" xlink:title=" ">
<polygon fill="white" stroke="black" points="1202,-442 1202,-461 1341,-461 1341,-442 1202,-442"/>
<text text-anchor="middle" x="1271.5" y="-449" font-family="Helvetica,sans-Serif" font-size="10.00">src/http/http2_endpoint.h</text>
</a>
</g>
</g>
<!-- Node20&#45;&gt;Node21 -->
<g id="edge32" class="edge">
<title>Node20&#45;&gt;Node21</title>
<path fill="none" stroke="midnightblue" d="M1234.37,-500.77C1244.12,-488.1 1257.11,-471.2 1264.86,-461.13"/>
<polygon fill="midnightblue" stroke="midnightblue" points="1231.57,-498.67 1228.24,-508.73 1237.11,-502.94 1231.57,-498.67"/>
</g>
<!-- Node20&#45;&gt;Node25 -->
<g id="edge41" class="edge">
<title>Node20&#45;&gt;Node25</title>
<path fill="none" stroke="midnightblue" d="M1263.28,-506.32C1311.27,-493.49 1388.94,-472.71 1432.41,-461.08"/>
<polygon fill="midnightblue" stroke="midnightblue" points="1262.27,-502.97 1253.52,-508.94 1264.08,-509.73 1262.27,-502.97"/>
</g>
<!-- Node26 -->
<g id="node26" class="node">
<title>Node26</title>
<g id="a_node26"><a xlink:href="forwarder_8h.html" target="_top" xlink:title=" ">
<polygon fill="white" stroke="black" points="1049.5,-442 1049.5,-461 1183.5,-461 1183.5,-442 1049.5,-442"/>
<text text-anchor="middle" x="1116.5" y="-449" font-family="Helvetica,sans-Serif" font-size="10.00">src/node/rpc/forwarder.h</text>
</a>
</g>
</g>
<!-- Node20&#45;&gt;Node26 -->
<g id="edge44" class="edge">
<title>Node20&#45;&gt;Node26</title>
<path fill="none" stroke="midnightblue" d="M1198.79,-503.44C1178,-490.57 1147.88,-471.93 1130.44,-461.13"/>
<polygon fill="midnightblue" stroke="midnightblue" points="1196.99,-506.45 1207.34,-508.73 1200.68,-500.49 1196.99,-506.45"/>
</g>
<!-- Node21&#45;&gt;Node22 -->
<g id="edge33" class="edge">
<title>Node21&#45;&gt;Node22</title>
<path fill="none" stroke="midnightblue" d="M1266.07,-431.91C1262.44,-419.49 1257.82,-403.72 1255.02,-394.13"/>
<polygon fill="midnightblue" stroke="midnightblue" points="1262.77,-433.12 1268.94,-441.73 1269.49,-431.15 1262.77,-433.12"/>
</g>
<!-- Node22&#45;&gt;Node6 -->
<g id="edge37" class="edge">
<title>Node22&#45;&gt;Node6</title>
<path fill="none" stroke="midnightblue" d="M1236.01,-368.1C1196.19,-330.96 1097.35,-239.2 1088.5,-235 1041.75,-212.81 900.46,-197.16 817.71,-189.62"/>
<polygon fill="midnightblue" stroke="midnightblue" points="1233.66,-370.69 1243.36,-374.95 1238.43,-365.57 1233.66,-370.69"/>
</g>
<!-- Node22&#45;&gt;Node7 -->
<g id="edge34" class="edge">
<title>Node22&#45;&gt;Node7</title>
<path fill="none" stroke="midnightblue" d="M1268.81,-367.63C1290.87,-344.37 1327.5,-298.66 1327.5,-251.5 1327.5,-251.5 1327.5,-251.5 1327.5,-182.5 1327.5,-120.83 882.27,-83.03 716.62,-71.1"/>
<polygon fill="midnightblue" stroke="midnightblue" points="1266.2,-365.29 1261.7,-374.88 1271.2,-370.19 1266.2,-365.29"/>
</g>
<!-- Node22&#45;&gt;Node10 -->
<g id="edge40" class="edge">
<title>Node22&#45;&gt;Node10</title>
<path fill="none" stroke="midnightblue" d="M1182.96,-373.5C1094.09,-360.72 941.83,-338.82 858.75,-326.88"/>
<polygon fill="midnightblue" stroke="midnightblue" points="1182.55,-376.98 1192.94,-374.94 1183.54,-370.05 1182.55,-376.98"/>
</g>
<!-- Node23 -->
<g id="node23" class="node">
<title>Node23</title>
<g id="a_node23"><a xlink:href="ccf__acme__client_8h.html" target="_top" xlink:title=" ">
<polygon fill="white" stroke="black" points="541,-241 541,-260 690,-260 690,-241 541,-241"/>
<text text-anchor="middle" x="615.5" y="-248" font-family="Helvetica,sans-Serif" font-size="10.00">src/node/ccf_acme_client.h</text>
</a>
</g>
</g>
<!-- Node22&#45;&gt;Node23 -->
<g id="edge35" class="edge">
<title>Node22&#45;&gt;Node23</title>
<path fill="none" stroke="midnightblue" d="M1203.03,-372.85C1129.78,-357.12 988.13,-326.85 867.5,-302 794.3,-286.92 709.01,-269.95 658.78,-260.03"/>
<polygon fill="midnightblue" stroke="midnightblue" points="1202.39,-376.29 1212.9,-374.97 1203.86,-369.45 1202.39,-376.29"/>
</g>
<!-- Node24 -->
<g id="node24" class="node">
<title>Node24</title>
<g id="a_node24"><a xlink:href="quote__endorsements__client_8h.html" target="_top" xlink:title=" ">
<polygon fill="white" stroke="black" points="1135.5,-235.5 1135.5,-265.5 1299.5,-265.5 1299.5,-235.5 1135.5,-235.5"/>
<text text-anchor="start" x="1143.5" y="-253.5" font-family="Helvetica,sans-Serif" font-size="10.00">src/node/quote_endorsements</text>
<text text-anchor="middle" x="1217.5" y="-242.5" font-family="Helvetica,sans-Serif" font-size="10.00">_client.h</text>
</a>
</g>
</g>
<!-- Node22&#45;&gt;Node24 -->
<g id="edge38" class="edge">
<title>Node22&#45;&gt;Node24</title>
<path fill="none" stroke="midnightblue" d="M1247.57,-364.89C1240.5,-338.24 1227.65,-289.8 1221.29,-265.78"/>
<polygon fill="midnightblue" stroke="midnightblue" points="1244.26,-366.07 1250.2,-374.84 1251.02,-364.28 1244.26,-366.07"/>
</g>
<!-- Node23&#45;&gt;Node6 -->
<g id="edge36" class="edge">
<title>Node23&#45;&gt;Node6</title>
<path fill="none" stroke="midnightblue" d="M643.26,-236.61C670.99,-223.74 712.84,-204.31 736.83,-193.17"/>
<polygon fill="midnightblue" stroke="midnightblue" points="641.69,-233.48 634.09,-240.87 644.63,-239.83 641.69,-233.48"/>
</g>
<!-- Node24&#45;&gt;Node6 -->
<g id="edge39" class="edge">
<title>Node24&#45;&gt;Node6</title>
<path fill="none" stroke="midnightblue" d="M1125.33,-235.55C1124.04,-235.37 1122.77,-235.18 1121.5,-235 1014.85,-219.59 890.55,-202.66 817.7,-192.84"/>
<polygon fill="midnightblue" stroke="midnightblue" points="1124.89,-239.03 1135.29,-237.01 1125.9,-232.1 1124.89,-239.03"/>
</g>
<!-- Node25&#45;&gt;Node22 -->
<g id="edge42" class="edge">
<title>Node25&#45;&gt;Node22</title>
<path fill="none" stroke="midnightblue" d="M1426.76,-438.93C1384.78,-426.06 1317.96,-405.57 1280.43,-394.06"/>
<polygon fill="midnightblue" stroke="midnightblue" points="1425.76,-442.28 1436.35,-441.87 1427.81,-435.59 1425.76,-442.28"/>
</g>
<!-- Node26&#45;&gt;Node7 -->
<g id="edge45" class="edge">
<title>Node26&#45;&gt;Node7</title>
<path fill="none" stroke="midnightblue" d="M1168.01,-439.84C1230.45,-426.73 1328.16,-405.53 1334.5,-400 1363.7,-374.52 1365.5,-357.25 1365.5,-318.5 1365.5,-318.5 1365.5,-318.5 1365.5,-182.5 1365.5,-151.04 1527.62,-186.59 1185.5,-112 1018.58,-75.61 816.13,-68.31 716.67,-67.07"/>
<polygon fill="midnightblue" stroke="midnightblue" points="1167.01,-436.47 1157.94,-441.95 1168.44,-443.32 1167.01,-436.47"/>
</g>
<!-- Node26&#45;&gt;Node27 -->
<g id="edge46" class="edge">
<title>Node26&#45;&gt;Node27</title>
<path fill="none" stroke="midnightblue" d="M1039.16,-447.43C893.84,-441.28 570.14,-425.78 298.5,-400 281.47,-398.38 263.04,-396.2 246.11,-394.03"/>
<polygon fill="midnightblue" stroke="midnightblue" points="1039.18,-450.93 1049.32,-447.85 1039.47,-443.94 1039.18,-450.93"/>
</g>
<!-- Node27&#45;&gt;Node6 -->
<g id="edge50" class="edge">
<title>Node27&#45;&gt;Node6</title>
<path fill="none" stroke="midnightblue" d="M260.06,-375.1C291.23,-368.22 325.85,-355.71 350.5,-333 384.97,-301.23 352.6,-263.91 389.5,-235 435.51,-198.95 601.51,-188.64 693.33,-185.68"/>
<polygon fill="midnightblue" stroke="midnightblue" points="259.17,-371.71 250.08,-377.14 260.58,-378.57 259.17,-371.71"/>
</g>
<!-- Node27&#45;&gt;Node15 -->
<g id="edge53" class="edge">
<title>Node27&#45;&gt;Node15</title>
<path fill="none" stroke="midnightblue" d="M233.75,-372.72C291.05,-359.92 385.47,-338.83 438.07,-327.08"/>
<polygon fill="midnightblue" stroke="midnightblue" points="232.84,-369.34 223.84,-374.94 234.36,-376.17 232.84,-369.34"/>
</g>
<!-- Node28 -->
<g id="node28" class="node">
<title>Node28</title>
<g id="a_node28"><a xlink:href="acme__challenge__frontend_8h.html" target="_top" xlink:title=" ">
<polygon fill="white" stroke="black" points="201.5,-302.5 201.5,-332.5 341.5,-332.5 341.5,-302.5 201.5,-302.5"/>
<text text-anchor="start" x="209.5" y="-320.5" font-family="Helvetica,sans-Serif" font-size="10.00">src/node/acme_challenge</text>
<text text-anchor="middle" x="271.5" y="-309.5" font-family="Helvetica,sans-Serif" font-size="10.00">_frontend.h</text>
</a>
</g>
</g>
<!-- Node27&#45;&gt;Node28 -->
<g id="edge47" class="edge">
<title>Node27&#45;&gt;Node28</title>
<path fill="none" stroke="midnightblue" d="M205.29,-368.54C219.6,-357.73 238.82,-343.2 252.86,-332.59"/>
<polygon fill="midnightblue" stroke="midnightblue" points="202.97,-365.91 197.1,-374.73 207.19,-371.5 202.97,-365.91"/>
</g>
<!-- Node29 -->
<g id="node29" class="node">
<title>Node29</title>
<g id="a_node29"><a xlink:href="member__frontend_8h.html" target="_top" xlink:title=" ">
<polygon fill="white" stroke="black" points="23.5,-168.5 23.5,-198.5 143.5,-198.5 143.5,-168.5 23.5,-168.5"/>
<text text-anchor="start" x="31.5" y="-186.5" font-family="Helvetica,sans-Serif" font-size="10.00">src/node/rpc/member</text>
<text text-anchor="middle" x="83.5" y="-175.5" font-family="Helvetica,sans-Serif" font-size="10.00">_frontend.h</text>
</a>
</g>
</g>
<!-- Node27&#45;&gt;Node29 -->
<g id="edge51" class="edge">
<title>Node27&#45;&gt;Node29</title>
<path fill="none" stroke="midnightblue" d="M176.43,-365.9C171.43,-356.2 165.11,-343.94 159.5,-333 134.24,-283.79 104.37,-225.35 90.83,-198.84"/>
<polygon fill="midnightblue" stroke="midnightblue" points="173.38,-367.64 181.08,-374.93 179.61,-364.43 173.38,-367.64"/>
</g>
<!-- Node30 -->
<g id="node30" class="node">
<title>Node30</title>
<g id="a_node30"><a xlink:href="user__frontend_8h.html" target="_top" xlink:title=" ">
<polygon fill="white" stroke="black" points="110,-112.5 110,-131.5 265,-131.5 265,-112.5 110,-112.5"/>
<text text-anchor="middle" x="187.5" y="-119.5" font-family="Helvetica,sans-Serif" font-size="10.00">src/node/rpc/user_frontend.h</text>
</a>
</g>
</g>
<!-- Node27&#45;&gt;Node30 -->
<g id="edge54" class="edge">
<title>Node27&#45;&gt;Node30</title>
<path fill="none" stroke="midnightblue" d="M185.64,-364.72C186.04,-312.77 187.15,-168.61 187.43,-131.7"/>
<polygon fill="midnightblue" stroke="midnightblue" points="182.14,-364.81 185.57,-374.83 189.14,-364.86 182.14,-364.81"/>
</g>
<!-- Node28&#45;&gt;Node7 -->
<g id="edge48" class="edge">
<title>Node28&#45;&gt;Node7</title>
<path fill="none" stroke="midnightblue" d="M287.91,-294.24C321.41,-250.7 402.41,-154.82 495.5,-112 532.86,-94.82 578.2,-82.82 611.07,-75.56"/>
<polygon fill="midnightblue" stroke="midnightblue" points="284.93,-292.37 281.68,-302.45 290.51,-296.6 284.93,-292.37"/>
</g>
<!-- Node28&#45;&gt;Node23 -->
<g id="edge49" class="edge">
<title>Node28&#45;&gt;Node23</title>
<path fill="none" stroke="midnightblue" d="M351.36,-301.41C419.36,-288.56 514.63,-270.56 570.22,-260.06"/>
<polygon fill="midnightblue" stroke="midnightblue" points="350.7,-297.97 341.53,-303.27 352,-304.85 350.7,-297.97"/>
</g>
<!-- Node29&#45;&gt;Node7 -->
<g id="edge52" class="edge">
<title>Node29&#45;&gt;Node7</title>
<path fill="none" stroke="midnightblue" d="M82.6,-158.34C83.43,-142.7 87.36,-123.24 100.5,-112 137.37,-80.47 457.71,-70.72 594.26,-67.98"/>
<polygon fill="midnightblue" stroke="midnightblue" points="79.1,-158.35 82.45,-168.4 86.1,-158.45 79.1,-158.35"/>
</g>
<!-- Node30&#45;&gt;Node7 -->
<g id="edge55" class="edge">
<title>Node30&#45;&gt;Node7</title>
<path fill="none" stroke="midnightblue" d="M271.61,-111.3C364.49,-100.58 511.77,-83.58 594.3,-74.06"/>
<polygon fill="midnightblue" stroke="midnightblue" points="270.93,-107.85 261.4,-112.47 271.73,-114.8 270.93,-107.85"/>
</g>
<!-- Node31&#45;&gt;Node5 -->
<g id="edge59" class="edge">
<title>Node31&#45;&gt;Node5</title>
<path fill="none" stroke="midnightblue" d="M941.99,-513.55C830.29,-507.16 633.12,-492.64 566.5,-467 518.96,-448.7 496.72,-445.34 473.5,-400 467.22,-387.74 465.31,-380.08 473.5,-369 481.36,-358.37 556.81,-338.39 602.92,-327.01"/>
<polygon fill="midnightblue" stroke="midnightblue" points="942.01,-517.05 952.19,-514.12 942.41,-510.06 942.01,-517.05"/>
</g>
<!-- Node31&#45;&gt;Node6 -->
<g id="edge60" class="edge">
<title>Node31&#45;&gt;Node6</title>
<path fill="none" stroke="midnightblue" d="M1018.98,-498.93C1011.21,-448.96 983.13,-310.34 902.5,-235 878.45,-212.52 843.93,-200 814.39,-193.05"/>
<polygon fill="midnightblue" stroke="midnightblue" points="1015.53,-499.53 1020.44,-508.92 1022.45,-498.52 1015.53,-499.53"/>
</g>
<!-- Node31&#45;&gt;Node26 -->
<g id="edge63" class="edge">
<title>Node31&#45;&gt;Node26</title>
<path fill="none" stroke="midnightblue" d="M1042.81,-502.92C1061.59,-490.07 1088.32,-471.78 1103.89,-461.13"/>
<polygon fill="midnightblue" stroke="midnightblue" points="1040.59,-500.2 1034.31,-508.73 1044.54,-505.98 1040.59,-500.2"/>
</g>
<!-- Node32 -->
<g id="node32" class="node">
<title>Node32</title>
<g id="a_node32"><a xlink:href="node__to__node__channel__manager_8h.html" target="_top" xlink:title=" ">
<polygon fill="white" stroke="black" points="950,-235.5 950,-265.5 1079,-265.5 1079,-235.5 950,-235.5"/>
<text text-anchor="start" x="958" y="-253.5" font-family="Helvetica,sans-Serif" font-size="10.00">src/node/node_to_node</text>
<text text-anchor="middle" x="1014.5" y="-242.5" font-family="Helvetica,sans-Serif" font-size="10.00">_channel_manager.h</text>
</a>
</g>
</g>
<!-- Node31&#45;&gt;Node32 -->
<g id="edge61" class="edge">
<title>Node31&#45;&gt;Node32</title>
<path fill="none" stroke="midnightblue" d="M1021.01,-498.85C1019.68,-448.43 1016.04,-310.19 1014.87,-265.58"/>
<polygon fill="midnightblue" stroke="midnightblue" points="1017.51,-499.05 1021.28,-508.95 1024.51,-498.86 1017.51,-499.05"/>
</g>
<!-- Node32&#45;&gt;Node6 -->
<g id="edge62" class="edge">
<title>Node32&#45;&gt;Node6</title>
<path fill="none" stroke="midnightblue" d="M948.71,-232.99C897.96,-220.25 829.81,-203.15 789.48,-193.03"/>
<polygon fill="midnightblue" stroke="midnightblue" points="948.07,-236.44 958.62,-235.48 949.77,-229.65 948.07,-236.44"/>
</g>
</g>
</svg>
