<?xml version="1.0" encoding="UTF-8" standalone="no"?>
<!DOCTYPE svg PUBLIC "-//W3C//DTD SVG 1.1//EN"
 "http://www.w3.org/Graphics/SVG/1.1/DTD/svg11.dtd">
<!-- Generated by graphviz version 2.43.0 (0)
 -->
<!-- Title: src/service/tables/secrets.h Pages: 1 -->
<svg width="2536pt" height="732pt"
 viewBox="0.00 0.00 2535.67 732.00" xmlns="http://www.w3.org/2000/svg" xmlns:xlink="http://www.w3.org/1999/xlink">
<g id="graph0" class="graph" transform="scale(1 1) rotate(0) translate(4 728)">
<title>src/service/tables/secrets.h</title>
<polygon fill="white" stroke="transparent" points="-4,4 -4,-728 2531.67,-728 2531.67,4 -4,4"/>
<!-- Node1 -->
<g id="node1" class="node">
<title>Node1</title>
<g id="a_node1"><a xlink:title=" ">
<polygon fill="#bfbfbf" stroke="black" points="1523.73,-693.5 1523.73,-723.5 1625.73,-723.5 1625.73,-693.5 1523.73,-693.5"/>
<text text-anchor="start" x="1531.73" y="-711.5" font-family="Helvetica,sans-Serif" font-size="10.00">src/service/tables</text>
<text text-anchor="middle" x="1574.73" y="-700.5" font-family="Helvetica,sans-Serif" font-size="10.00">/secrets.h</text>
</a>
</g>
</g>
<!-- Node2 -->
<g id="node2" class="node">
<title>Node2</title>
<g id="a_node2"><a xlink:href="ledger__secret_8h.html" target="_top" xlink:title=" ">
<polygon fill="white" stroke="black" points="1602.73,-637.5 1602.73,-656.5 1738.73,-656.5 1738.73,-637.5 1602.73,-637.5"/>
<text text-anchor="middle" x="1670.73" y="-644.5" font-family="Helvetica,sans-Serif" font-size="10.00">src/node/ledger_secret.h</text>
</a>
</g>
</g>
<!-- Node1&#45;&gt;Node2 -->
<g id="edge1" class="edge">
<title>Node1&#45;&gt;Node2</title>
<path fill="none" stroke="midnightblue" d="M1606.08,-688.07C1623.19,-677.46 1643.53,-664.86 1656.76,-656.66"/>
<polygon fill="midnightblue" stroke="midnightblue" points="1604.14,-685.16 1597.48,-693.4 1607.82,-691.11 1604.14,-685.16"/>
</g>
<!-- Node3 -->
<g id="node3" class="node">
<title>Node3</title>
<g id="a_node3"><a xlink:href="ledger__secrets_8h.html" target="_top" xlink:title=" ">
<polygon fill="white" stroke="black" points="1595.23,-581.5 1595.23,-600.5 1736.23,-600.5 1736.23,-581.5 1595.23,-581.5"/>
<text text-anchor="middle" x="1665.73" y="-588.5" font-family="Helvetica,sans-Serif" font-size="10.00">src/node/ledger_secrets.h</text>
</a>
</g>
</g>
<!-- Node1&#45;&gt;Node3 -->
<g id="edge72" class="edge">
<title>Node1&#45;&gt;Node3</title>
<path fill="none" stroke="midnightblue" d="M1576.8,-683.19C1579.06,-668.62 1583.81,-650.39 1593.73,-637 1606.37,-619.95 1627.57,-607.84 1643.7,-600.51"/>
<polygon fill="midnightblue" stroke="midnightblue" points="1573.28,-683.12 1575.5,-693.48 1580.23,-683.99 1573.28,-683.12"/>
</g>
<!-- Node35 -->
<g id="node35" class="node">
<title>Node35</title>
<g id="a_node35"><a xlink:href="network__tables_8h.html" target="_top" xlink:title=" ">
<polygon fill="white" stroke="black" points="1480.73,-447.5 1480.73,-477.5 1592.73,-477.5 1592.73,-447.5 1480.73,-447.5"/>
<text text-anchor="start" x="1488.73" y="-465.5" font-family="Helvetica,sans-Serif" font-size="10.00">src/service/network</text>
<text text-anchor="middle" x="1536.73" y="-454.5" font-family="Helvetica,sans-Serif" font-size="10.00">_tables.h</text>
</a>
</g>
</g>
<!-- Node1&#45;&gt;Node35 -->
<g id="edge73" class="edge">
<title>Node1&#45;&gt;Node35</title>
<path fill="none" stroke="midnightblue" d="M1570.97,-683.33C1563.12,-632.92 1545.21,-517.94 1538.94,-477.71"/>
<polygon fill="midnightblue" stroke="midnightblue" points="1567.53,-683.98 1572.52,-693.33 1574.44,-682.91 1567.53,-683.98"/>
</g>
<!-- Node2&#45;&gt;Node3 -->
<g id="edge2" class="edge">
<title>Node2&#45;&gt;Node3</title>
<path fill="none" stroke="midnightblue" d="M1668.98,-627.1C1668.15,-618.14 1667.2,-607.86 1666.54,-600.75"/>
<polygon fill="midnightblue" stroke="midnightblue" points="1665.5,-627.45 1669.9,-637.08 1672.47,-626.8 1665.5,-627.45"/>
</g>
<!-- Node4 -->
<g id="node4" class="node">
<title>Node4</title>
<g id="a_node4"><a xlink:href="node_2encryptor_8h.html" target="_top" xlink:title=" ">
<polygon fill="white" stroke="black" points="946.73,-252 946.73,-271 1062.73,-271 1062.73,-252 946.73,-252"/>
<text text-anchor="middle" x="1004.73" y="-259" font-family="Helvetica,sans-Serif" font-size="10.00">src/node/encryptor.h</text>
</a>
</g>
</g>
<!-- Node3&#45;&gt;Node4 -->
<g id="edge3" class="edge">
<title>Node3&#45;&gt;Node4</title>
<path fill="none" stroke="midnightblue" d="M1584.89,-590.66C1413.4,-589.89 1028.73,-575.65 1028.73,-463.5 1028.73,-463.5 1028.73,-463.5 1028.73,-394.5 1028.73,-347.22 1013.64,-291.92 1007.39,-271.05"/>
<polygon fill="midnightblue" stroke="midnightblue" points="1585.11,-594.16 1595.13,-590.69 1585.14,-587.16 1585.11,-594.16"/>
</g>
<!-- Node5 -->
<g id="node5" class="node">
<title>Node5</title>
<g id="a_node5"><a xlink:href="historical__queries_8h.html" target="_top" xlink:title=" ">
<polygon fill="white" stroke="black" points="25.73,-179.5 25.73,-209.5 131.73,-209.5 131.73,-179.5 25.73,-179.5"/>
<text text-anchor="start" x="33.73" y="-197.5" font-family="Helvetica,sans-Serif" font-size="10.00">src/node/historical</text>
<text text-anchor="middle" x="78.73" y="-186.5" font-family="Helvetica,sans-Serif" font-size="10.00">_queries.h</text>
</a>
</g>
</g>
<!-- Node3&#45;&gt;Node5 -->
<g id="edge13" class="edge">
<title>Node3&#45;&gt;Node5</title>
<path fill="none" stroke="midnightblue" d="M1584.74,-587.83C1261.19,-578.64 78.73,-539.85 78.73,-463.5 78.73,-463.5 78.73,-463.5 78.73,-327.5 78.73,-284.65 78.73,-233.97 78.73,-209.76"/>
<polygon fill="midnightblue" stroke="midnightblue" points="1584.88,-591.34 1594.97,-588.12 1585.08,-584.34 1584.88,-591.34"/>
</g>
<!-- Node11 -->
<g id="node11" class="node">
<title>Node11</title>
<g id="a_node11"><a xlink:href="network__state_8h.html" target="_top" xlink:title=" ">
<polygon fill="white" stroke="black" points="1466.73,-386 1466.73,-405 1606.73,-405 1606.73,-386 1466.73,-386"/>
<text text-anchor="middle" x="1536.73" y="-393" font-family="Helvetica,sans-Serif" font-size="10.00">src/node/network_state.h</text>
</a>
</g>
</g>
<!-- Node3&#45;&gt;Node11 -->
<g id="edge14" class="edge">
<title>Node3&#45;&gt;Node11</title>
<path fill="none" stroke="midnightblue" d="M1658.32,-572.17C1643.3,-536.21 1609.98,-457.52 1601.73,-447 1587.7,-429.13 1566.02,-413.98 1551.61,-405.06"/>
<polygon fill="midnightblue" stroke="midnightblue" points="1655.12,-573.58 1662.19,-581.46 1661.58,-570.89 1655.12,-573.58"/>
</g>
<!-- Node26 -->
<g id="node26" class="node">
<title>Node26</title>
<g id="a_node26"><a xlink:href="secret__broadcast_8h.html" target="_top" xlink:title=" ">
<polygon fill="white" stroke="black" points="1575.23,-319 1575.23,-338 1728.23,-338 1728.23,-319 1575.23,-319"/>
<text text-anchor="middle" x="1651.73" y="-326" font-family="Helvetica,sans-Serif" font-size="10.00">src/node/secret_broadcast.h</text>
</a>
</g>
</g>
<!-- Node3&#45;&gt;Node26 -->
<g id="edge64" class="edge">
<title>Node3&#45;&gt;Node26</title>
<path fill="none" stroke="midnightblue" d="M1664.72,-571.22C1661.93,-519.27 1654.18,-375.11 1652.2,-338.2"/>
<polygon fill="midnightblue" stroke="midnightblue" points="1661.23,-571.53 1665.26,-581.33 1668.22,-571.16 1661.23,-571.53"/>
</g>
<!-- Node27 -->
<g id="node27" class="node">
<title>Node27</title>
<g id="a_node27"><a xlink:href="share__manager_8h.html" target="_top" xlink:title=" ">
<polygon fill="white" stroke="black" points="1961.23,-319 1961.23,-338 2106.23,-338 2106.23,-319 1961.23,-319"/>
<text text-anchor="middle" x="2033.73" y="-326" font-family="Helvetica,sans-Serif" font-size="10.00">src/node/share_manager.h</text>
</a>
</g>
</g>
<!-- Node3&#45;&gt;Node27 -->
<g id="edge65" class="edge">
<title>Node3&#45;&gt;Node27</title>
<path fill="none" stroke="midnightblue" d="M1686.55,-575.26C1754.4,-527.23 1967.87,-376.12 2021.44,-338.2"/>
<polygon fill="midnightblue" stroke="midnightblue" points="1684.11,-572.7 1677.97,-581.33 1688.16,-578.41 1684.11,-572.7"/>
</g>
<!-- Node29 -->
<g id="node29" class="node">
<title>Node29</title>
<g id="a_node29"><a xlink:href="call__types_8h.html" target="_top" xlink:title=" ">
<polygon fill="white" stroke="black" points="2088.23,-453 2088.23,-472 2225.23,-472 2225.23,-453 2088.23,-453"/>
<text text-anchor="middle" x="2156.73" y="-460" font-family="Helvetica,sans-Serif" font-size="10.00">src/node/rpc/call_types.h</text>
</a>
</g>
</g>
<!-- Node3&#45;&gt;Node29 -->
<g id="edge50" class="edge">
<title>Node3&#45;&gt;Node29</title>
<path fill="none" stroke="midnightblue" d="M1746.38,-585.84C1843.37,-579.94 1999.87,-567.29 2053.73,-545 2095.03,-527.91 2133.46,-489.21 2149.21,-472.02"/>
<polygon fill="midnightblue" stroke="midnightblue" points="1746.08,-582.35 1736.31,-586.44 1746.5,-589.34 1746.08,-582.35"/>
</g>
<!-- Node33 -->
<g id="node33" class="node">
<title>Node33</title>
<g id="a_node33"><a xlink:href="node__call__types_8h.html" target="_top" xlink:title=" ">
<polygon fill="white" stroke="black" points="1919.23,-514.5 1919.23,-544.5 2044.23,-544.5 2044.23,-514.5 1919.23,-514.5"/>
<text text-anchor="start" x="1927.23" y="-532.5" font-family="Helvetica,sans-Serif" font-size="10.00">src/node/rpc/node_call</text>
<text text-anchor="middle" x="1981.73" y="-521.5" font-family="Helvetica,sans-Serif" font-size="10.00">_types.h</text>
</a>
</g>
</g>
<!-- Node3&#45;&gt;Node33 -->
<g id="edge62" class="edge">
<title>Node3&#45;&gt;Node33</title>
<path fill="none" stroke="midnightblue" d="M1720.98,-579.6C1776.3,-569.18 1861.31,-553.17 1919.11,-542.29"/>
<polygon fill="midnightblue" stroke="midnightblue" points="1720.18,-576.19 1711,-581.48 1721.48,-583.06 1720.18,-576.19"/>
</g>
<!-- Node34 -->
<g id="node34" class="node">
<title>Node34</title>
<g id="a_node34"><a xlink:href="genesis__gen_8h.html" target="_top" xlink:title=" ">
<polygon fill="white" stroke="black" points="1701.73,-380.5 1701.73,-410.5 1811.73,-410.5 1811.73,-380.5 1701.73,-380.5"/>
<text text-anchor="start" x="1709.73" y="-398.5" font-family="Helvetica,sans-Serif" font-size="10.00">src/service/genesis</text>
<text text-anchor="middle" x="1756.73" y="-387.5" font-family="Helvetica,sans-Serif" font-size="10.00">_gen.h</text>
</a>
</g>
</g>
<!-- Node3&#45;&gt;Node34 -->
<g id="edge66" class="edge">
<title>Node3&#45;&gt;Node34</title>
<path fill="none" stroke="midnightblue" d="M1674.15,-572.1C1692.1,-533.92 1733.83,-445.19 1750.08,-410.63"/>
<polygon fill="midnightblue" stroke="midnightblue" points="1670.85,-570.9 1669.76,-581.44 1677.18,-573.88 1670.85,-570.9"/>
</g>
<!-- Node4&#45;&gt;Node5 -->
<g id="edge4" class="edge">
<title>Node4&#45;&gt;Node5</title>
<path fill="none" stroke="midnightblue" d="M960.17,-249.85C952.71,-248.36 945.03,-247 937.73,-246 634.68,-204.55 266.9,-197.1 131.79,-195.78"/>
<polygon fill="midnightblue" stroke="midnightblue" points="959.63,-253.32 970.14,-251.95 961.07,-246.47 959.63,-253.32"/>
</g>
<!-- Node9 -->
<g id="node9" class="node">
<title>Node9</title>
<g id="a_node9"><a xlink:href="node__state_8h.html" target="_top" xlink:title=" ">
<polygon fill="white" stroke="black" points="1484.73,-185 1484.73,-204 1608.73,-204 1608.73,-185 1484.73,-185"/>
<text text-anchor="middle" x="1546.73" y="-192" font-family="Helvetica,sans-Serif" font-size="10.00">src/node/node_state.h</text>
</a>
</g>
</g>
<!-- Node4&#45;&gt;Node9 -->
<g id="edge9" class="edge">
<title>Node4&#45;&gt;Node9</title>
<path fill="none" stroke="midnightblue" d="M1072.89,-251.36C1086.73,-249.54 1101.19,-247.68 1114.73,-246 1246.24,-229.65 1400.47,-211.98 1484.46,-202.49"/>
<polygon fill="midnightblue" stroke="midnightblue" points="1072.4,-247.89 1062.94,-252.66 1073.31,-254.83 1072.4,-247.89"/>
</g>
<!-- Node6 -->
<g id="node6" class="node">
<title>Node6</title>
<g id="a_node6"><a xlink:href="src_2enclave_2enclave_8h.html" target="_top" xlink:title=" ">
<polygon fill="white" stroke="black" points="1245.73,-56.5 1245.73,-75.5 1367.73,-75.5 1367.73,-56.5 1245.73,-56.5"/>
<text text-anchor="middle" x="1306.73" y="-63.5" font-family="Helvetica,sans-Serif" font-size="10.00">src/enclave/enclave.h</text>
</a>
</g>
</g>
<!-- Node5&#45;&gt;Node6 -->
<g id="edge5" class="edge">
<title>Node5&#45;&gt;Node6</title>
<path fill="none" stroke="midnightblue" d="M42.89,-174.31C15.93,-157.52 -13.21,-132.65 6.73,-112 50.22,-66.98 993.78,-66.19 1245.48,-66.78"/>
<polygon fill="midnightblue" stroke="midnightblue" points="41.12,-177.33 51.5,-179.46 44.72,-171.33 41.12,-177.33"/>
</g>
<!-- Node8 -->
<g id="node8" class="node">
<title>Node8</title>
<g id="a_node8"><a xlink:href="historical__transaction__fetcher_8h.html" target="_top" xlink:title=" ">
<polygon fill="white" stroke="black" points="16.23,-112.5 16.23,-142.5 141.23,-142.5 141.23,-112.5 16.23,-112.5"/>
<text text-anchor="start" x="24.23" y="-130.5" font-family="Helvetica,sans-Serif" font-size="10.00">src/indexing/historical</text>
<text text-anchor="middle" x="78.73" y="-119.5" font-family="Helvetica,sans-Serif" font-size="10.00">_transaction_fetcher.h</text>
</a>
</g>
</g>
<!-- Node5&#45;&gt;Node8 -->
<g id="edge7" class="edge">
<title>Node5&#45;&gt;Node8</title>
<path fill="none" stroke="midnightblue" d="M78.73,-169.11C78.73,-160.15 78.73,-150.32 78.73,-142.58"/>
<polygon fill="midnightblue" stroke="midnightblue" points="75.23,-169.4 78.73,-179.4 82.23,-169.4 75.23,-169.4"/>
</g>
<!-- Node7 -->
<g id="node7" class="node">
<title>Node7</title>
<g id="a_node7"><a xlink:href="enclave_2main_8cpp.html" target="_top" xlink:title=" ">
<polygon fill="white" stroke="black" points="1246.73,-0.5 1246.73,-19.5 1366.73,-19.5 1366.73,-0.5 1246.73,-0.5"/>
<text text-anchor="middle" x="1306.73" y="-7.5" font-family="Helvetica,sans-Serif" font-size="10.00">src/enclave/main.cpp</text>
</a>
</g>
</g>
<!-- Node6&#45;&gt;Node7 -->
<g id="edge6" class="edge">
<title>Node6&#45;&gt;Node7</title>
<path fill="none" stroke="midnightblue" d="M1306.73,-45.8C1306.73,-36.91 1306.73,-26.78 1306.73,-19.75"/>
<polygon fill="midnightblue" stroke="midnightblue" points="1303.23,-46.08 1306.73,-56.08 1310.23,-46.08 1303.23,-46.08"/>
</g>
<!-- Node8&#45;&gt;Node6 -->
<g id="edge8" class="edge">
<title>Node8&#45;&gt;Node6</title>
<path fill="none" stroke="midnightblue" d="M151.82,-112.47C153.13,-112.3 154.44,-112.15 155.73,-112 369.84,-87.79 1039.1,-72.45 1245.5,-68.2"/>
<polygon fill="midnightblue" stroke="midnightblue" points="151.07,-109.04 141.65,-113.87 152.03,-115.97 151.07,-109.04"/>
</g>
<!-- Node9&#45;&gt;Node6 -->
<g id="edge10" class="edge">
<title>Node9&#45;&gt;Node6</title>
<path fill="none" stroke="midnightblue" d="M1523.34,-179.49C1507.02,-169.57 1484.82,-155.81 1465.73,-143 1446.17,-129.87 1443.44,-123.24 1422.73,-112 1394.06,-96.44 1358.86,-83.58 1334.8,-75.65"/>
<polygon fill="midnightblue" stroke="midnightblue" points="1521.84,-182.67 1532.2,-184.85 1525.46,-176.68 1521.84,-182.67"/>
</g>
<!-- Node10 -->
<g id="node10" class="node">
<title>Node10</title>
<g id="a_node10"><a xlink:href="gov__effects_8h.html" target="_top" xlink:title=" ">
<polygon fill="white" stroke="black" points="1474.73,-118 1474.73,-137 1618.73,-137 1618.73,-118 1474.73,-118"/>
<text text-anchor="middle" x="1546.73" y="-125" font-family="Helvetica,sans-Serif" font-size="10.00">src/node/rpc/gov_effects.h</text>
</a>
</g>
</g>
<!-- Node9&#45;&gt;Node10 -->
<g id="edge11" class="edge">
<title>Node9&#45;&gt;Node10</title>
<path fill="none" stroke="midnightblue" d="M1546.73,-174.54C1546.73,-162.17 1546.73,-146.62 1546.73,-137.13"/>
<polygon fill="midnightblue" stroke="midnightblue" points="1543.23,-174.73 1546.73,-184.73 1550.23,-174.73 1543.23,-174.73"/>
</g>
<!-- Node10&#45;&gt;Node6 -->
<g id="edge12" class="edge">
<title>Node10&#45;&gt;Node6</title>
<path fill="none" stroke="midnightblue" d="M1502.53,-115.54C1455.93,-103.99 1383.53,-86.04 1341.05,-75.51"/>
<polygon fill="midnightblue" stroke="midnightblue" points="1501.8,-118.97 1512.34,-117.98 1503.48,-112.17 1501.8,-118.97"/>
</g>
<!-- Node11&#45;&gt;Node6 -->
<g id="edge15" class="edge">
<title>Node11&#45;&gt;Node6</title>
<path fill="none" stroke="midnightblue" d="M1456.51,-387.55C1428.21,-380.78 1399.13,-367.97 1381.73,-344 1373.64,-332.85 1380.23,-326.7 1381.73,-313 1385,-283.19 1396.19,-275.29 1389.73,-246 1374.31,-176.09 1328.75,-101.02 1312.54,-75.82"/>
<polygon fill="midnightblue" stroke="midnightblue" points="1455.96,-391.01 1466.47,-389.7 1457.43,-384.17 1455.96,-391.01"/>
</g>
<!-- Node11&#45;&gt;Node9 -->
<g id="edge36" class="edge">
<title>Node11&#45;&gt;Node9</title>
<path fill="none" stroke="midnightblue" d="M1537.67,-375.8C1539.77,-334.01 1544.78,-234.33 1546.29,-204.24"/>
<polygon fill="midnightblue" stroke="midnightblue" points="1534.17,-375.79 1537.16,-385.95 1541.16,-376.14 1534.17,-375.79"/>
</g>
<!-- Node12 -->
<g id="node12" class="node">
<title>Node12</title>
<g id="a_node12"><a xlink:href="wrap_8h.html" target="_top" xlink:title=" ">
<polygon fill="white" stroke="black" points="619.73,-319 619.73,-338 697.73,-338 697.73,-319 619.73,-319"/>
<text text-anchor="middle" x="658.73" y="-326" font-family="Helvetica,sans-Serif" font-size="10.00">src/js/wrap.h</text>
</a>
</g>
</g>
<!-- Node11&#45;&gt;Node12 -->
<g id="edge16" class="edge">
<title>Node11&#45;&gt;Node12</title>
<path fill="none" stroke="midnightblue" d="M1456.27,-388.54C1273.36,-375 831.83,-342.31 697.89,-332.4"/>
<polygon fill="midnightblue" stroke="midnightblue" points="1456.13,-392.04 1466.36,-389.29 1456.65,-385.06 1456.13,-392.04"/>
</g>
<!-- Node21 -->
<g id="node21" class="node">
<title>Node21</title>
<g id="a_node21"><a xlink:href="acme__challenge__frontend_8h.html" target="_top" xlink:title=" ">
<polygon fill="white" stroke="black" points="1194.73,-313.5 1194.73,-343.5 1334.73,-343.5 1334.73,-313.5 1194.73,-313.5"/>
<text text-anchor="start" x="1202.73" y="-331.5" font-family="Helvetica,sans-Serif" font-size="10.00">src/node/acme_challenge</text>
<text text-anchor="middle" x="1264.73" y="-320.5" font-family="Helvetica,sans-Serif" font-size="10.00">_frontend.h</text>
</a>
</g>
</g>
<!-- Node11&#45;&gt;Node21 -->
<g id="edge32" class="edge">
<title>Node11&#45;&gt;Node21</title>
<path fill="none" stroke="midnightblue" d="M1490.9,-383.55C1444.86,-372.55 1373.74,-355.55 1323.56,-343.56"/>
<polygon fill="midnightblue" stroke="midnightblue" points="1490.35,-387.02 1500.89,-385.94 1491.98,-380.21 1490.35,-387.02"/>
</g>
<!-- Node23 -->
<g id="node23" class="node">
<title>Node23</title>
<g id="a_node23"><a xlink:href="node__frontend_8h.html" target="_top" xlink:title=" ">
<polygon fill="white" stroke="black" points="1784.73,-319 1784.73,-338 1942.73,-338 1942.73,-319 1784.73,-319"/>
<text text-anchor="middle" x="1863.73" y="-326" font-family="Helvetica,sans-Serif" font-size="10.00">src/node/rpc/node_frontend.h</text>
</a>
</g>
</g>
<!-- Node11&#45;&gt;Node23 -->
<g id="edge37" class="edge">
<title>Node11&#45;&gt;Node23</title>
<path fill="none" stroke="midnightblue" d="M1589.76,-383.96C1654.12,-371.16 1761.39,-349.84 1820.81,-338.03"/>
<polygon fill="midnightblue" stroke="midnightblue" points="1588.94,-380.55 1579.82,-385.94 1590.31,-387.42 1588.94,-380.55"/>
</g>
<!-- Node25 -->
<g id="node25" class="node">
<title>Node25</title>
<g id="a_node25"><a xlink:href="user__frontend_8h.html" target="_top" xlink:title=" ">
<polygon fill="white" stroke="black" points="1021.23,-118 1021.23,-137 1176.23,-137 1176.23,-118 1021.23,-118"/>
<text text-anchor="middle" x="1098.73" y="-125" font-family="Helvetica,sans-Serif" font-size="10.00">src/node/rpc/user_frontend.h</text>
</a>
</g>
</g>
<!-- Node11&#45;&gt;Node25 -->
<g id="edge41" class="edge">
<title>Node11&#45;&gt;Node25</title>
<path fill="none" stroke="midnightblue" d="M1456.45,-392.07C1366.1,-387.79 1226.61,-376.05 1185.73,-344 1116.2,-289.48 1101.96,-170.53 1099.3,-137.29"/>
<polygon fill="midnightblue" stroke="midnightblue" points="1456.52,-395.58 1466.66,-392.53 1456.83,-388.58 1456.52,-395.58"/>
</g>
<!-- Node11&#45;&gt;Node26 -->
<g id="edge43" class="edge">
<title>Node11&#45;&gt;Node26</title>
<path fill="none" stroke="midnightblue" d="M1560.99,-380.79C1583.78,-367.9 1617.19,-349.02 1636.47,-338.13"/>
<polygon fill="midnightblue" stroke="midnightblue" points="1559.22,-377.77 1552.24,-385.73 1562.67,-383.86 1559.22,-377.77"/>
</g>
<!-- Node11&#45;&gt;Node27 -->
<g id="edge45" class="edge">
<title>Node11&#45;&gt;Node27</title>
<path fill="none" stroke="midnightblue" d="M1616.96,-386.04C1700.68,-376.9 1835.67,-361.31 1951.73,-344 1963.45,-342.25 1976.08,-340.14 1987.83,-338.07"/>
<polygon fill="midnightblue" stroke="midnightblue" points="1616.57,-382.56 1607.01,-387.12 1617.33,-389.52 1616.57,-382.56"/>
</g>
<!-- Node28 -->
<g id="node28" class="node">
<title>Node28</title>
<g id="a_node28"><a xlink:href="snapshotter_8h.html" target="_top" xlink:title=" ">
<polygon fill="white" stroke="black" points="1391.23,-319 1391.23,-338 1518.23,-338 1518.23,-319 1391.23,-319"/>
<text text-anchor="middle" x="1454.73" y="-326" font-family="Helvetica,sans-Serif" font-size="10.00">src/node/snapshotter.h</text>
</a>
</g>
</g>
<!-- Node11&#45;&gt;Node28 -->
<g id="edge48" class="edge">
<title>Node11&#45;&gt;Node28</title>
<path fill="none" stroke="midnightblue" d="M1517.44,-379.21C1501.29,-366.41 1478.81,-348.59 1465.61,-338.13"/>
<polygon fill="midnightblue" stroke="midnightblue" points="1515.66,-382.26 1525.67,-385.73 1520.01,-376.78 1515.66,-382.26"/>
</g>
<!-- Node12&#45;&gt;Node6 -->
<g id="edge18" class="edge">
<title>Node12&#45;&gt;Node6</title>
<path fill="none" stroke="midnightblue" d="M609.33,-326.43C485.09,-323.23 167.23,-311.69 135.73,-277 126.47,-266.8 126.76,-256.46 135.73,-246 281.37,-76.09 1025.63,-65.7 1245.5,-66.41"/>
<polygon fill="midnightblue" stroke="midnightblue" points="609.26,-329.93 619.34,-326.68 609.43,-322.93 609.26,-329.93"/>
</g>
<!-- Node12&#45;&gt;Node9 -->
<g id="edge29" class="edge">
<title>Node12&#45;&gt;Node9</title>
<path fill="none" stroke="midnightblue" d="M707.85,-322.79C785.42,-315.06 940.91,-298.39 1071.73,-277 1139.34,-265.94 1155.31,-258.17 1222.73,-246 1314.33,-229.47 1421.08,-213.45 1486.27,-204.04"/>
<polygon fill="midnightblue" stroke="midnightblue" points="707.49,-319.31 697.88,-323.78 708.18,-326.28 707.49,-319.31"/>
</g>
<!-- Node13 -->
<g id="node13" class="node">
<title>Node13</title>
<g id="a_node13"><a xlink:href="js__generic__base_8cpp.html" target="_top" xlink:title=" ">
<polygon fill="white" stroke="black" points="278.73,-246.5 278.73,-276.5 396.73,-276.5 396.73,-246.5 278.73,-246.5"/>
<text text-anchor="start" x="286.73" y="-264.5" font-family="Helvetica,sans-Serif" font-size="10.00">src/apps/js_generic</text>
<text text-anchor="middle" x="337.73" y="-253.5" font-family="Helvetica,sans-Serif" font-size="10.00">/js_generic_base.cpp</text>
</a>
</g>
</g>
<!-- Node12&#45;&gt;Node13 -->
<g id="edge17" class="edge">
<title>Node12&#45;&gt;Node13</title>
<path fill="none" stroke="midnightblue" d="M609.6,-317.89C558.6,-307.87 476.52,-291.61 405.73,-277 402.89,-276.41 399.99,-275.81 397.06,-275.2"/>
<polygon fill="midnightblue" stroke="midnightblue" points="609.2,-321.38 619.69,-319.87 610.55,-314.51 609.2,-321.38"/>
</g>
<!-- Node14 -->
<g id="node14" class="node">
<title>Node14</title>
<g id="a_node14"><a xlink:href="consensus_8cpp.html" target="_top" xlink:title=" ">
<polygon fill="white" stroke="black" points="144.73,-252 144.73,-271 260.73,-271 260.73,-252 144.73,-252"/>
<text text-anchor="middle" x="202.73" y="-259" font-family="Helvetica,sans-Serif" font-size="10.00">src/js/consensus.cpp</text>
</a>
</g>
</g>
<!-- Node12&#45;&gt;Node14 -->
<g id="edge19" class="edge">
<title>Node12&#45;&gt;Node14</title>
<path fill="none" stroke="midnightblue" d="M609.68,-322.47C535.72,-314.58 391.34,-298.02 269.73,-277 259.88,-275.3 249.28,-273.15 239.48,-271.04"/>
<polygon fill="midnightblue" stroke="midnightblue" points="609.33,-325.95 619.64,-323.53 610.07,-318.99 609.33,-325.95"/>
</g>
<!-- Node15 -->
<g id="node15" class="node">
<title>Node15</title>
<g id="a_node15"><a xlink:href="wrap_8cpp.html" target="_top" xlink:title=" ">
<polygon fill="white" stroke="black" points="578.23,-185 578.23,-204 667.23,-204 667.23,-185 578.23,-185"/>
<text text-anchor="middle" x="622.73" y="-192" font-family="Helvetica,sans-Serif" font-size="10.00">src/js/wrap.cpp</text>
</a>
</g>
</g>
<!-- Node12&#45;&gt;Node15 -->
<g id="edge28" class="edge">
<title>Node12&#45;&gt;Node15</title>
<path fill="none" stroke="midnightblue" d="M654.91,-308.84C651.39,-292.24 645.8,-267.35 639.73,-246 635.53,-231.23 629.63,-214.38 626,-204.36"/>
<polygon fill="midnightblue" stroke="midnightblue" points="651.53,-309.79 657,-318.87 658.39,-308.36 651.53,-309.79"/>
</g>
<!-- Node16 -->
<g id="node16" class="node">
<title>Node16</title>
<g id="a_node16"><a xlink:href="conv_8cpp.html" target="_top" xlink:title=" ">
<polygon fill="white" stroke="black" points="542.73,-252 542.73,-271 630.73,-271 630.73,-252 542.73,-252"/>
<text text-anchor="middle" x="586.73" y="-259" font-family="Helvetica,sans-Serif" font-size="10.00">src/js/conv.cpp</text>
</a>
</g>
</g>
<!-- Node12&#45;&gt;Node16 -->
<g id="edge21" class="edge">
<title>Node12&#45;&gt;Node16</title>
<path fill="none" stroke="midnightblue" d="M641.4,-311.86C627.25,-299.08 607.77,-281.49 596.29,-271.13"/>
<polygon fill="midnightblue" stroke="midnightblue" points="639.25,-314.63 649.02,-318.73 643.94,-309.43 639.25,-314.63"/>
</g>
<!-- Node17 -->
<g id="node17" class="node">
<title>Node17</title>
<g id="a_node17"><a xlink:href="crypto_8cpp.html" target="_top" xlink:title=" ">
<polygon fill="white" stroke="black" points="686.73,-252 686.73,-271 782.73,-271 782.73,-252 686.73,-252"/>
<text text-anchor="middle" x="734.73" y="-259" font-family="Helvetica,sans-Serif" font-size="10.00">src/js/crypto.cpp</text>
</a>
</g>
</g>
<!-- Node12&#45;&gt;Node17 -->
<g id="edge23" class="edge">
<title>Node12&#45;&gt;Node17</title>
<path fill="none" stroke="midnightblue" d="M676.6,-312.21C691.58,-299.41 712.41,-281.59 724.64,-271.13"/>
<polygon fill="midnightblue" stroke="midnightblue" points="674.3,-309.57 668.98,-318.73 678.85,-314.89 674.3,-309.57"/>
</g>
<!-- Node18 -->
<g id="node18" class="node">
<title>Node18</title>
<g id="a_node18"><a xlink:href="historical_8cpp.html" target="_top" xlink:title=" ">
<polygon fill="white" stroke="black" points="414.73,-252 414.73,-271 524.73,-271 524.73,-252 414.73,-252"/>
<text text-anchor="middle" x="469.73" y="-259" font-family="Helvetica,sans-Serif" font-size="10.00">src/js/historical.cpp</text>
</a>
</g>
</g>
<!-- Node12&#45;&gt;Node18 -->
<g id="edge25" class="edge">
<title>Node12&#45;&gt;Node18</title>
<path fill="none" stroke="midnightblue" d="M624.13,-315.6C586.66,-302.71 527.8,-282.47 494.63,-271.06"/>
<polygon fill="midnightblue" stroke="midnightblue" points="623.04,-318.93 633.63,-318.87 625.31,-312.31 623.04,-318.93"/>
</g>
<!-- Node19 -->
<g id="node19" class="node">
<title>Node19</title>
<g id="a_node19"><a xlink:href="openenclave_8cpp.html" target="_top" xlink:title=" ">
<polygon fill="white" stroke="black" points="800.73,-252 800.73,-271 928.73,-271 928.73,-252 800.73,-252"/>
<text text-anchor="middle" x="864.73" y="-259" font-family="Helvetica,sans-Serif" font-size="10.00">src/js/openenclave.cpp</text>
</a>
</g>
</g>
<!-- Node12&#45;&gt;Node19 -->
<g id="edge27" class="edge">
<title>Node12&#45;&gt;Node19</title>
<path fill="none" stroke="midnightblue" d="M695.66,-315.85C736.46,-302.97 801.2,-282.55 837.59,-271.06"/>
<polygon fill="midnightblue" stroke="midnightblue" points="694.57,-312.52 686.08,-318.87 696.67,-319.2 694.57,-312.52"/>
</g>
<!-- Node20 -->
<g id="node20" class="node">
<title>Node20</title>
<g id="a_node20"><a xlink:href="member__frontend_8h.html" target="_top" xlink:title=" ">
<polygon fill="white" stroke="black" points="2039.73,-246.5 2039.73,-276.5 2159.73,-276.5 2159.73,-246.5 2039.73,-246.5"/>
<text text-anchor="start" x="2047.73" y="-264.5" font-family="Helvetica,sans-Serif" font-size="10.00">src/node/rpc/member</text>
<text text-anchor="middle" x="2099.73" y="-253.5" font-family="Helvetica,sans-Serif" font-size="10.00">_frontend.h</text>
</a>
</g>
</g>
<!-- Node12&#45;&gt;Node20 -->
<g id="edge30" class="edge">
<title>Node12&#45;&gt;Node20</title>
<path fill="none" stroke="midnightblue" d="M708.07,-326.24C877.1,-321.77 1448.45,-305.41 1919.73,-277 1959.63,-274.59 2004.43,-270.99 2039.36,-267.97"/>
<polygon fill="midnightblue" stroke="midnightblue" points="707.89,-322.74 697.98,-326.51 708.07,-329.74 707.89,-322.74"/>
</g>
<!-- Node14&#45;&gt;Node15 -->
<g id="edge20" class="edge">
<title>Node14&#45;&gt;Node15</title>
<path fill="none" stroke="midnightblue" d="M250.06,-249.82C256.65,-248.46 263.35,-247.15 269.73,-246 380.02,-226.2 510.82,-209.16 577.99,-200.87"/>
<polygon fill="midnightblue" stroke="midnightblue" points="248.91,-246.48 239.85,-251.98 250.35,-253.33 248.91,-246.48"/>
</g>
<!-- Node16&#45;&gt;Node15 -->
<g id="edge22" class="edge">
<title>Node16&#45;&gt;Node15</title>
<path fill="none" stroke="midnightblue" d="M596.61,-242.66C603.55,-230.13 612.53,-213.91 617.95,-204.13"/>
<polygon fill="midnightblue" stroke="midnightblue" points="593.37,-241.29 591.58,-251.73 599.49,-244.68 593.37,-241.29"/>
</g>
<!-- Node17&#45;&gt;Node15 -->
<g id="edge24" class="edge">
<title>Node17&#45;&gt;Node15</title>
<path fill="none" stroke="midnightblue" d="M710.8,-246.62C688.61,-233.74 656.29,-214.98 637.6,-204.13"/>
<polygon fill="midnightblue" stroke="midnightblue" points="709.22,-249.74 719.62,-251.73 712.73,-243.69 709.22,-249.74"/>
</g>
<!-- Node18&#45;&gt;Node15 -->
<g id="edge26" class="edge">
<title>Node18&#45;&gt;Node15</title>
<path fill="none" stroke="midnightblue" d="M499.27,-247.95C529.57,-235.08 575.88,-215.4 602.33,-204.17"/>
<polygon fill="midnightblue" stroke="midnightblue" points="497.88,-244.74 490.05,-251.87 500.62,-251.18 497.88,-244.74"/>
</g>
<!-- Node20&#45;&gt;Node6 -->
<g id="edge31" class="edge">
<title>Node20&#45;&gt;Node6</title>
<path fill="none" stroke="midnightblue" d="M2085.28,-237.73C2062.09,-203.44 2012.96,-139.63 1952.73,-112 1900.42,-88.01 1518.55,-73.61 1367.75,-68.8"/>
<polygon fill="midnightblue" stroke="midnightblue" points="2082.43,-239.76 2090.87,-246.17 2088.27,-235.9 2082.43,-239.76"/>
</g>
<!-- Node21&#45;&gt;Node6 -->
<g id="edge33" class="edge">
<title>Node21&#45;&gt;Node6</title>
<path fill="none" stroke="midnightblue" d="M1241.27,-306.05C1233.87,-297.78 1226.61,-287.73 1222.73,-277 1218.05,-264.04 1219.73,-259.45 1222.73,-246 1238.34,-175.97 1284.45,-100.98 1300.85,-75.8"/>
<polygon fill="midnightblue" stroke="midnightblue" points="1238.87,-308.6 1248.32,-313.4 1243.92,-303.76 1238.87,-308.6"/>
</g>
<!-- Node22 -->
<g id="node22" class="node">
<title>Node22</title>
<g id="a_node22"><a xlink:href="ccf__acme__client_8h.html" target="_top" xlink:title=" ">
<polygon fill="white" stroke="black" points="1232.23,-252 1232.23,-271 1381.23,-271 1381.23,-252 1232.23,-252"/>
<text text-anchor="middle" x="1306.73" y="-259" font-family="Helvetica,sans-Serif" font-size="10.00">src/node/ccf_acme_client.h</text>
</a>
</g>
</g>
<!-- Node21&#45;&gt;Node22 -->
<g id="edge34" class="edge">
<title>Node21&#45;&gt;Node22</title>
<path fill="none" stroke="midnightblue" d="M1279.28,-304.97C1286.81,-293.33 1295.55,-279.8 1301.11,-271.19"/>
<polygon fill="midnightblue" stroke="midnightblue" points="1276.33,-303.1 1273.84,-313.4 1282.21,-306.9 1276.33,-303.1"/>
</g>
<!-- Node22&#45;&gt;Node9 -->
<g id="edge35" class="edge">
<title>Node22&#45;&gt;Node9</title>
<path fill="none" stroke="midnightblue" d="M1348.26,-249.25C1395.69,-236.41 1472.27,-215.67 1515.11,-204.06"/>
<polygon fill="midnightblue" stroke="midnightblue" points="1347.34,-245.88 1338.6,-251.87 1349.17,-252.63 1347.34,-245.88"/>
</g>
<!-- Node23&#45;&gt;Node6 -->
<g id="edge38" class="edge">
<title>Node23&#45;&gt;Node6</title>
<path fill="none" stroke="midnightblue" d="M1885.69,-312.99C1907.31,-296.84 1935.03,-269.86 1919.73,-246 1842.64,-125.81 1764.77,-152.11 1627.73,-112 1539.56,-86.19 1433.31,-75 1367.89,-70.28"/>
<polygon fill="midnightblue" stroke="midnightblue" points="1883.63,-310.16 1877.52,-318.82 1887.69,-315.86 1883.63,-310.16"/>
</g>
<!-- Node24 -->
<g id="node24" class="node">
<title>Node24</title>
<g id="a_node24"><a xlink:href="jwt__key__auto__refresh_8h.html" target="_top" xlink:title=" ">
<polygon fill="white" stroke="black" points="1785.23,-246.5 1785.23,-276.5 1910.23,-276.5 1910.23,-246.5 1785.23,-246.5"/>
<text text-anchor="start" x="1793.23" y="-264.5" font-family="Helvetica,sans-Serif" font-size="10.00">src/node/jwt_key_auto</text>
<text text-anchor="middle" x="1847.73" y="-253.5" font-family="Helvetica,sans-Serif" font-size="10.00">_refresh.h</text>
</a>
</g>
</g>
<!-- Node23&#45;&gt;Node24 -->
<g id="edge39" class="edge">
<title>Node23&#45;&gt;Node24</title>
<path fill="none" stroke="midnightblue" d="M1859.11,-308.74C1856.59,-298.49 1853.51,-286 1851.2,-276.59"/>
<polygon fill="midnightblue" stroke="midnightblue" points="1855.78,-309.86 1861.57,-318.73 1862.58,-308.19 1855.78,-309.86"/>
</g>
<!-- Node24&#45;&gt;Node9 -->
<g id="edge40" class="edge">
<title>Node24&#45;&gt;Node9</title>
<path fill="none" stroke="midnightblue" d="M1774.94,-244.78C1715.68,-231.98 1634.25,-214.4 1586.39,-204.06"/>
<polygon fill="midnightblue" stroke="midnightblue" points="1774.48,-248.26 1785,-246.95 1775.96,-241.42 1774.48,-248.26"/>
</g>
<!-- Node25&#45;&gt;Node6 -->
<g id="edge42" class="edge">
<title>Node25&#45;&gt;Node6</title>
<path fill="none" stroke="midnightblue" d="M1138.32,-115.18C1178.73,-103.61 1240.56,-85.93 1276.98,-75.51"/>
<polygon fill="midnightblue" stroke="midnightblue" points="1137.18,-111.86 1128.53,-117.98 1139.11,-118.59 1137.18,-111.86"/>
</g>
<!-- Node26&#45;&gt;Node9 -->
<g id="edge44" class="edge">
<title>Node26&#45;&gt;Node9</title>
<path fill="none" stroke="midnightblue" d="M1638.34,-310.66C1615.68,-282.18 1570.6,-225.5 1553.51,-204.02"/>
<polygon fill="midnightblue" stroke="midnightblue" points="1635.88,-313.19 1644.84,-318.84 1641.35,-308.83 1635.88,-313.19"/>
</g>
<!-- Node27&#45;&gt;Node9 -->
<g id="edge46" class="edge">
<title>Node27&#45;&gt;Node9</title>
<path fill="none" stroke="midnightblue" d="M2017.58,-311.97C1996.78,-292.97 1958.66,-261.44 1919.73,-246 1816.01,-204.86 1684.71,-196.13 1608.77,-194.88"/>
<polygon fill="midnightblue" stroke="midnightblue" points="2015.21,-314.54 2024.91,-318.8 2019.98,-309.42 2015.21,-314.54"/>
</g>
<!-- Node27&#45;&gt;Node20 -->
<g id="edge47" class="edge">
<title>Node27&#45;&gt;Node20</title>
<path fill="none" stroke="midnightblue" d="M2049.86,-311.62C2060.73,-300.91 2074.95,-286.9 2085.42,-276.59"/>
<polygon fill="midnightblue" stroke="midnightblue" points="2047.3,-309.22 2042.63,-318.73 2052.21,-314.21 2047.3,-309.22"/>
</g>
<!-- Node28&#45;&gt;Node9 -->
<g id="edge49" class="edge">
<title>Node28&#45;&gt;Node9</title>
<path fill="none" stroke="midnightblue" d="M1466.72,-310.29C1486.66,-281.69 1525.88,-225.41 1540.79,-204.02"/>
<polygon fill="midnightblue" stroke="midnightblue" points="1463.61,-308.63 1460.77,-318.84 1469.36,-312.64 1463.61,-308.63"/>
</g>
<!-- Node29&#45;&gt;Node15 -->
<g id="edge52" class="edge">
<title>Node29&#45;&gt;Node15</title>
<path fill="none" stroke="midnightblue" d="M2077.62,-460.58C1868.93,-456.87 1308.86,-438.15 1153.73,-344 1105.18,-314.53 1121.76,-272.88 1071.73,-246 1002.54,-208.83 766.86,-198.91 667.49,-196.35"/>
<polygon fill="midnightblue" stroke="midnightblue" points="2077.83,-464.09 2087.89,-460.76 2077.95,-457.09 2077.83,-464.09"/>
</g>
<!-- Node29&#45;&gt;Node20 -->
<g id="edge55" class="edge">
<title>Node29&#45;&gt;Node20</title>
<path fill="none" stroke="midnightblue" d="M2235.43,-455.48C2362.97,-442.89 2592.6,-406.71 2509.73,-313 2486.95,-287.25 2268.27,-271.74 2159.94,-265.58"/>
<polygon fill="midnightblue" stroke="midnightblue" points="2234.92,-452.02 2225.3,-456.46 2235.59,-458.98 2234.92,-452.02"/>
</g>
<!-- Node30 -->
<g id="node30" class="node">
<title>Node30</title>
<g id="a_node30"><a xlink:href="common__endpoint__registry_8cpp.html" target="_top" xlink:title=" ">
<polygon fill="white" stroke="black" points="2372.73,-313.5 2372.73,-343.5 2500.73,-343.5 2500.73,-313.5 2372.73,-313.5"/>
<text text-anchor="start" x="2380.73" y="-331.5" font-family="Helvetica,sans-Serif" font-size="10.00">src/endpoints/common</text>
<text text-anchor="middle" x="2436.73" y="-320.5" font-family="Helvetica,sans-Serif" font-size="10.00">_endpoint_registry.cpp</text>
</a>
</g>
</g>
<!-- Node29&#45;&gt;Node30 -->
<g id="edge51" class="edge">
<title>Node29&#45;&gt;Node30</title>
<path fill="none" stroke="midnightblue" d="M2222.61,-450.89C2259.18,-443.23 2304.63,-430.68 2341.73,-411 2375.13,-393.28 2407.02,-362 2424.01,-343.77"/>
<polygon fill="midnightblue" stroke="midnightblue" points="2221.65,-447.52 2212.54,-452.93 2223.04,-454.38 2221.65,-447.52"/>
</g>
<!-- Node31 -->
<g id="node31" class="node">
<title>Node31</title>
<g id="a_node31"><a xlink:href="resharing_8h.html" target="_top" xlink:title=" ">
<polygon fill="white" stroke="black" points="2200.73,-319 2200.73,-338 2316.73,-338 2316.73,-319 2200.73,-319"/>
<text text-anchor="middle" x="2258.73" y="-326" font-family="Helvetica,sans-Serif" font-size="10.00">src/node/resharing.h</text>
</a>
</g>
</g>
<!-- Node29&#45;&gt;Node31 -->
<g id="edge53" class="edge">
<title>Node29&#45;&gt;Node31</title>
<path fill="none" stroke="midnightblue" d="M2157.06,-442.54C2158.25,-424.84 2162.38,-398.44 2175.73,-380 2190.37,-359.78 2215.82,-346.06 2234.69,-338.08"/>
<polygon fill="midnightblue" stroke="midnightblue" points="2153.56,-442.62 2156.63,-452.75 2160.55,-442.91 2153.56,-442.62"/>
</g>
<!-- Node32 -->
<g id="node32" class="node">
<title>Node32</title>
<g id="a_node32"><a xlink:href="serialization_8h.html" target="_top" xlink:title=" ">
<polygon fill="white" stroke="black" points="2184.73,-386 2184.73,-405 2332.73,-405 2332.73,-386 2184.73,-386"/>
<text text-anchor="middle" x="2258.73" y="-393" font-family="Helvetica,sans-Serif" font-size="10.00">src/node/rpc/serialization.h</text>
</a>
</g>
</g>
<!-- Node29&#45;&gt;Node32 -->
<g id="edge56" class="edge">
<title>Node29&#45;&gt;Node32</title>
<path fill="none" stroke="midnightblue" d="M2179.06,-447.27C2199.25,-434.4 2228.32,-415.88 2245.19,-405.13"/>
<polygon fill="midnightblue" stroke="midnightblue" points="2177.04,-444.41 2170.49,-452.73 2180.8,-450.31 2177.04,-444.41"/>
</g>
<!-- Node31&#45;&gt;Node9 -->
<g id="edge54" class="edge">
<title>Node31&#45;&gt;Node9</title>
<path fill="none" stroke="midnightblue" d="M2246.21,-310.89C2230.5,-291.49 2201.61,-260.23 2168.73,-246 2069.36,-203 1746,-196.36 1608.98,-195.52"/>
<polygon fill="midnightblue" stroke="midnightblue" points="2243.54,-313.16 2252.46,-318.87 2249.05,-308.84 2243.54,-313.16"/>
</g>
<!-- Node32&#45;&gt;Node9 -->
<g id="edge58" class="edge">
<title>Node32&#45;&gt;Node9</title>
<path fill="none" stroke="midnightblue" d="M2287.42,-380.93C2301.73,-372.49 2317.68,-360.15 2325.73,-344 2331.88,-331.67 2332.75,-324.86 2325.73,-313 2294.23,-259.76 2263.02,-263.66 2203.73,-246 2093.4,-213.14 1750.51,-200.74 1608.89,-196.93"/>
<polygon fill="midnightblue" stroke="midnightblue" points="2285.42,-378.03 2278.35,-385.92 2288.79,-384.17 2285.42,-378.03"/>
</g>
<!-- Node32&#45;&gt;Node20 -->
<g id="edge60" class="edge">
<title>Node32&#45;&gt;Node20</title>
<path fill="none" stroke="midnightblue" d="M2238.53,-379.92C2225.06,-370.04 2207.08,-356.56 2191.73,-344 2163.98,-321.31 2133.03,-293.3 2115.03,-276.73"/>
<polygon fill="midnightblue" stroke="midnightblue" points="2236.51,-382.78 2246.65,-385.84 2240.63,-377.12 2236.51,-382.78"/>
</g>
<!-- Node32&#45;&gt;Node23 -->
<g id="edge61" class="edge">
<title>Node32&#45;&gt;Node23</title>
<path fill="none" stroke="midnightblue" d="M2196.58,-384.27C2119.06,-371.52 1987.95,-349.94 1915.58,-338.03"/>
<polygon fill="midnightblue" stroke="midnightblue" points="2196.25,-387.77 2206.68,-385.94 2197.39,-380.86 2196.25,-387.77"/>
</g>
<!-- Node32&#45;&gt;Node30 -->
<g id="edge57" class="edge">
<title>Node32&#45;&gt;Node30</title>
<path fill="none" stroke="midnightblue" d="M2292.01,-382.35C2322.18,-371.33 2366.64,-355.09 2398.31,-343.53"/>
<polygon fill="midnightblue" stroke="midnightblue" points="2290.56,-379.15 2282.37,-385.87 2292.96,-385.73 2290.56,-379.15"/>
</g>
<!-- Node32&#45;&gt;Node31 -->
<g id="edge59" class="edge">
<title>Node32&#45;&gt;Node31</title>
<path fill="none" stroke="midnightblue" d="M2258.73,-375.54C2258.73,-363.17 2258.73,-347.62 2258.73,-338.13"/>
<polygon fill="midnightblue" stroke="midnightblue" points="2255.23,-375.73 2258.73,-385.73 2262.23,-375.73 2255.23,-375.73"/>
</g>
<!-- Node33&#45;&gt;Node29 -->
<g id="edge63" class="edge">
<title>Node33&#45;&gt;Node29</title>
<path fill="none" stroke="midnightblue" d="M2029.43,-510.78C2063.36,-498.18 2107.44,-481.81 2133.83,-472.01"/>
<polygon fill="midnightblue" stroke="midnightblue" points="2027.86,-507.63 2019.7,-514.4 2030.29,-514.2 2027.86,-507.63"/>
</g>
<!-- Node34&#45;&gt;Node9 -->
<g id="edge67" class="edge">
<title>Node34&#45;&gt;Node9</title>
<path fill="none" stroke="midnightblue" d="M1755.92,-370.03C1754.26,-352.69 1749.71,-329.63 1737.73,-313 1695.64,-254.56 1614.64,-219.22 1572.94,-204.11"/>
<polygon fill="midnightblue" stroke="midnightblue" points="1752.46,-370.75 1756.65,-380.48 1759.45,-370.26 1752.46,-370.75"/>
</g>
<!-- Node34&#45;&gt;Node20 -->
<g id="edge68" class="edge">
<title>Node34&#45;&gt;Node20</title>
<path fill="none" stroke="midnightblue" d="M1821.92,-395.1C1914.87,-394.41 2078.42,-386.93 2115.73,-344 2132.09,-325.17 2119.03,-294.57 2108.85,-276.71"/>
<polygon fill="midnightblue" stroke="midnightblue" points="1821.75,-391.6 1811.77,-395.15 1821.79,-398.6 1821.75,-391.6"/>
</g>
<!-- Node34&#45;&gt;Node23 -->
<g id="edge69" class="edge">
<title>Node34&#45;&gt;Node23</title>
<path fill="none" stroke="midnightblue" d="M1788.6,-375.14C1808.93,-362.79 1834.28,-347.39 1849.73,-338.01"/>
<polygon fill="midnightblue" stroke="midnightblue" points="1786.68,-372.21 1779.95,-380.4 1790.31,-378.2 1786.68,-372.21"/>
</g>
<!-- Node34&#45;&gt;Node26 -->
<g id="edge70" class="edge">
<title>Node34&#45;&gt;Node26</title>
<path fill="none" stroke="midnightblue" d="M1725.19,-374.97C1705.28,-362.65 1680.56,-347.35 1665.47,-338.01"/>
<polygon fill="midnightblue" stroke="midnightblue" points="1723.6,-378.11 1733.95,-380.4 1727.29,-372.16 1723.6,-378.11"/>
</g>
<!-- Node34&#45;&gt;Node27 -->
<g id="edge71" class="edge">
<title>Node34&#45;&gt;Node27</title>
<path fill="none" stroke="midnightblue" d="M1821.74,-379.24C1876.47,-366.4 1952.74,-348.5 1997.31,-338.05"/>
<polygon fill="midnightblue" stroke="midnightblue" points="1820.72,-375.89 1811.79,-381.58 1822.32,-382.7 1820.72,-375.89"/>
</g>
<!-- Node35&#45;&gt;Node11 -->
<g id="edge75" class="edge">
<title>Node35&#45;&gt;Node11</title>
<path fill="none" stroke="midnightblue" d="M1536.73,-437.25C1536.73,-426.02 1536.73,-413.38 1536.73,-405.19"/>
<polygon fill="midnightblue" stroke="midnightblue" points="1533.23,-437.4 1536.73,-447.4 1540.23,-437.4 1533.23,-437.4"/>
</g>
<!-- Node35&#45;&gt;Node22 -->
<g id="edge74" class="edge">
<title>Node35&#45;&gt;Node22</title>
<path fill="none" stroke="midnightblue" d="M1470.49,-460.91C1388.19,-456.18 1250.69,-434.25 1185.73,-344 1159.84,-308.03 1225.89,-283.15 1270.28,-271.01"/>
<polygon fill="midnightblue" stroke="midnightblue" points="1470.33,-464.41 1480.49,-461.42 1470.68,-457.42 1470.33,-464.41"/>
</g>
<!-- Node35&#45;&gt;Node34 -->
<g id="edge76" class="edge">
<title>Node35&#45;&gt;Node34</title>
<path fill="none" stroke="midnightblue" d="M1594,-444.58C1629.73,-434.02 1675.19,-420.59 1708.97,-410.61"/>
<polygon fill="midnightblue" stroke="midnightblue" points="1592.79,-441.29 1584.2,-447.48 1594.78,-448 1592.79,-441.29"/>
</g>
</g>
</svg>
