<?xml version="1.0" encoding="UTF-8" standalone="no"?>
<!DOCTYPE svg PUBLIC "-//W3C//DTD SVG 1.1//EN"
 "http://www.w3.org/Graphics/SVG/1.1/DTD/svg11.dtd">
<!-- Generated by graphviz version 2.43.0 (0)
 -->
<!-- Title: src/service/tables/signatures.h Pages: 1 -->
<svg width="2466pt" height="654pt"
 viewBox="0.00 0.00 2465.50 654.00" xmlns="http://www.w3.org/2000/svg" xmlns:xlink="http://www.w3.org/1999/xlink">
<g id="graph0" class="graph" transform="scale(1 1) rotate(0) translate(4 650)">
<title>src/service/tables/signatures.h</title>
<polygon fill="white" stroke="transparent" points="-4,4 -4,-650 2461.5,-650 2461.5,4 -4,4"/>
<!-- Node1 -->
<g id="node1" class="node">
<title>Node1</title>
<g id="a_node1"><a xlink:title=" ">
<polygon fill="#bfbfbf" stroke="black" points="437.5,-615.5 437.5,-645.5 539.5,-645.5 539.5,-615.5 437.5,-615.5"/>
<text text-anchor="start" x="445.5" y="-633.5" font-family="Helvetica,sans-Serif" font-size="10.00">src/service/tables</text>
<text text-anchor="middle" x="488.5" y="-622.5" font-family="Helvetica,sans-Serif" font-size="10.00">/signatures.h</text>
</a>
</g>
</g>
<!-- Node2 -->
<g id="node2" class="node">
<title>Node2</title>
<g id="a_node2"><a xlink:href="raft_8h.html" target="_top" xlink:title=" ">
<polygon fill="white" stroke="black" points="424,-503.5 424,-522.5 553,-522.5 553,-503.5 424,-503.5"/>
<text text-anchor="middle" x="488.5" y="-510.5" font-family="Helvetica,sans-Serif" font-size="10.00">src/consensus/aft/raft.h</text>
</a>
</g>
</g>
<!-- Node1&#45;&gt;Node2 -->
<g id="edge1" class="edge">
<title>Node1&#45;&gt;Node2</title>
<path fill="none" stroke="midnightblue" d="M488.5,-605.21C488.5,-579.41 488.5,-539.99 488.5,-522.67"/>
<polygon fill="midnightblue" stroke="midnightblue" points="485,-605.34 488.5,-615.34 492,-605.34 485,-605.34"/>
</g>
<!-- Node7 -->
<g id="node7" class="node">
<title>Node7</title>
<g id="a_node7"><a xlink:href="deserialise_8h.html" target="_top" xlink:title=" ">
<polygon fill="white" stroke="black" points="602,-559.5 602,-578.5 713,-578.5 713,-559.5 602,-559.5"/>
<text text-anchor="middle" x="657.5" y="-566.5" font-family="Helvetica,sans-Serif" font-size="10.00">src/kv/deserialise.h</text>
</a>
</g>
</g>
<!-- Node1&#45;&gt;Node7 -->
<g id="edge7" class="edge">
<title>Node1&#45;&gt;Node7</title>
<path fill="none" stroke="midnightblue" d="M538.37,-611.94C569.5,-600.98 608.23,-587.35 632.91,-578.66"/>
<polygon fill="midnightblue" stroke="midnightblue" points="536.82,-608.78 528.55,-615.4 539.15,-615.38 536.82,-608.78"/>
</g>
<!-- Node13 -->
<g id="node13" class="node">
<title>Node13</title>
<g id="a_node13"><a xlink:href="history_8h.html" target="_top" xlink:title=" ">
<polygon fill="white" stroke="black" points="344.5,-442 344.5,-461 446.5,-461 446.5,-442 344.5,-442"/>
<text text-anchor="middle" x="395.5" y="-449" font-family="Helvetica,sans-Serif" font-size="10.00">src/node/history.h</text>
</a>
</g>
</g>
<!-- Node1&#45;&gt;Node13 -->
<g id="edge76" class="edge">
<title>Node1&#45;&gt;Node13</title>
<path fill="none" stroke="midnightblue" d="M470.17,-607.41C453.81,-586.73 430.23,-554.39 415.5,-523 405.56,-501.81 399.58,-474.66 397,-461.06"/>
<polygon fill="midnightblue" stroke="midnightblue" points="467.49,-609.66 476.48,-615.26 472.94,-605.28 467.49,-609.66"/>
</g>
<!-- Node25 -->
<g id="node25" class="node">
<title>Node25</title>
<g id="a_node25"><a xlink:href="network__tables_8h.html" target="_top" xlink:title=" ">
<polygon fill="white" stroke="black" points="906.5,-436.5 906.5,-466.5 1018.5,-466.5 1018.5,-436.5 906.5,-436.5"/>
<text text-anchor="start" x="914.5" y="-454.5" font-family="Helvetica,sans-Serif" font-size="10.00">src/service/network</text>
<text text-anchor="middle" x="962.5" y="-443.5" font-family="Helvetica,sans-Serif" font-size="10.00">_tables.h</text>
</a>
</g>
</g>
<!-- Node1&#45;&gt;Node25 -->
<g id="edge79" class="edge">
<title>Node1&#45;&gt;Node25</title>
<path fill="none" stroke="midnightblue" d="M549.75,-620.97C597.72,-613.18 665.62,-599.69 722.5,-579 807.27,-548.17 899.51,-492.68 940.61,-466.67"/>
<polygon fill="midnightblue" stroke="midnightblue" points="549.16,-617.52 539.83,-622.55 550.26,-624.43 549.16,-617.52"/>
</g>
<!-- Node38 -->
<g id="node38" class="node">
<title>Node38</title>
<g id="a_node38"><a xlink:href="src_2node_2hooks_8h.html" target="_top" xlink:title=" ">
<polygon fill="white" stroke="black" points="205,-559.5 205,-578.5 304,-578.5 304,-559.5 205,-559.5"/>
<text text-anchor="middle" x="254.5" y="-566.5" font-family="Helvetica,sans-Serif" font-size="10.00">src/node/hooks.h</text>
</a>
</g>
</g>
<!-- Node1&#45;&gt;Node38 -->
<g id="edge77" class="edge">
<title>Node1&#45;&gt;Node38</title>
<path fill="none" stroke="midnightblue" d="M427.6,-614.02C383.12,-602.7 324.46,-587.79 288.12,-578.55"/>
<polygon fill="midnightblue" stroke="midnightblue" points="426.88,-617.44 437.44,-616.52 428.61,-610.66 426.88,-617.44"/>
</g>
<!-- Node3 -->
<g id="node3" class="node">
<title>Node3</title>
<g id="a_node3"><a xlink:href="node__state_8h.html" target="_top" xlink:title=" ">
<polygon fill="white" stroke="black" points="997.5,-179.5 997.5,-198.5 1121.5,-198.5 1121.5,-179.5 997.5,-179.5"/>
<text text-anchor="middle" x="1059.5" y="-186.5" font-family="Helvetica,sans-Serif" font-size="10.00">src/node/node_state.h</text>
</a>
</g>
</g>
<!-- Node2&#45;&gt;Node3 -->
<g id="edge2" class="edge">
<title>Node2&#45;&gt;Node3</title>
<path fill="none" stroke="midnightblue" d="M489.37,-493.13C490.64,-477.34 493.78,-454.49 501.5,-436 522.67,-385.3 598.06,-262.72 645.5,-235 703.71,-200.99 896.83,-192.65 997.4,-190.63"/>
<polygon fill="midnightblue" stroke="midnightblue" points="485.87,-493.01 488.73,-503.21 492.86,-493.45 485.87,-493.01"/>
</g>
<!-- Node4 -->
<g id="node4" class="node">
<title>Node4</title>
<g id="a_node4"><a xlink:href="src_2enclave_2enclave_8h.html" target="_top" xlink:title=" ">
<polygon fill="white" stroke="black" points="998.5,-56.5 998.5,-75.5 1120.5,-75.5 1120.5,-56.5 998.5,-56.5"/>
<text text-anchor="middle" x="1059.5" y="-63.5" font-family="Helvetica,sans-Serif" font-size="10.00">src/enclave/enclave.h</text>
</a>
</g>
</g>
<!-- Node3&#45;&gt;Node4 -->
<g id="edge3" class="edge">
<title>Node3&#45;&gt;Node4</title>
<path fill="none" stroke="midnightblue" d="M1044.52,-171.47C1038.28,-163.48 1031.73,-153.38 1028.5,-143 1024.41,-129.84 1024.41,-125.16 1028.5,-112 1032.9,-97.87 1043.45,-84.25 1051.02,-75.77"/>
<polygon fill="midnightblue" stroke="midnightblue" points="1041.92,-173.81 1051.02,-179.23 1047.29,-169.32 1041.92,-173.81"/>
</g>
<!-- Node6 -->
<g id="node6" class="node">
<title>Node6</title>
<g id="a_node6"><a xlink:href="gov__effects_8h.html" target="_top" xlink:title=" ">
<polygon fill="white" stroke="black" points="1037.5,-118 1037.5,-137 1181.5,-137 1181.5,-118 1037.5,-118"/>
<text text-anchor="middle" x="1109.5" y="-125" font-family="Helvetica,sans-Serif" font-size="10.00">src/node/rpc/gov_effects.h</text>
</a>
</g>
</g>
<!-- Node3&#45;&gt;Node6 -->
<g id="edge5" class="edge">
<title>Node3&#45;&gt;Node6</title>
<path fill="none" stroke="midnightblue" d="M1073.22,-171.67C1082.65,-160.45 1094.78,-146.02 1102.35,-137.01"/>
<polygon fill="midnightblue" stroke="midnightblue" points="1070.42,-169.57 1066.66,-179.48 1075.78,-174.07 1070.42,-169.57"/>
</g>
<!-- Node5 -->
<g id="node5" class="node">
<title>Node5</title>
<g id="a_node5"><a xlink:href="enclave_2main_8cpp.html" target="_top" xlink:title=" ">
<polygon fill="white" stroke="black" points="999.5,-0.5 999.5,-19.5 1119.5,-19.5 1119.5,-0.5 999.5,-0.5"/>
<text text-anchor="middle" x="1059.5" y="-7.5" font-family="Helvetica,sans-Serif" font-size="10.00">src/enclave/main.cpp</text>
</a>
</g>
</g>
<!-- Node4&#45;&gt;Node5 -->
<g id="edge4" class="edge">
<title>Node4&#45;&gt;Node5</title>
<path fill="none" stroke="midnightblue" d="M1059.5,-45.8C1059.5,-36.91 1059.5,-26.78 1059.5,-19.75"/>
<polygon fill="midnightblue" stroke="midnightblue" points="1056,-46.08 1059.5,-56.08 1063,-46.08 1056,-46.08"/>
</g>
<!-- Node6&#45;&gt;Node4 -->
<g id="edge6" class="edge">
<title>Node6&#45;&gt;Node4</title>
<path fill="none" stroke="midnightblue" d="M1095.78,-110.17C1086.35,-98.95 1074.22,-84.52 1066.65,-75.51"/>
<polygon fill="midnightblue" stroke="midnightblue" points="1093.22,-112.57 1102.34,-117.98 1098.58,-108.07 1093.22,-112.57"/>
</g>
<!-- Node8 -->
<g id="node8" class="node">
<title>Node8</title>
<g id="a_node8"><a xlink:href="store_8h.html" target="_top" xlink:title=" ">
<polygon fill="white" stroke="black" points="630,-503.5 630,-522.5 713,-522.5 713,-503.5 630,-503.5"/>
<text text-anchor="middle" x="671.5" y="-510.5" font-family="Helvetica,sans-Serif" font-size="10.00">src/kv/store.h</text>
</a>
</g>
</g>
<!-- Node7&#45;&gt;Node8 -->
<g id="edge8" class="edge">
<title>Node7&#45;&gt;Node8</title>
<path fill="none" stroke="midnightblue" d="M662.32,-549.4C664.67,-540.36 667.37,-529.94 669.23,-522.75"/>
<polygon fill="midnightblue" stroke="midnightblue" points="658.93,-548.52 659.81,-559.08 665.71,-550.28 658.93,-548.52"/>
</g>
<!-- Node9 -->
<g id="node9" class="node">
<title>Node9</title>
<g id="a_node9"><a xlink:href="indexer_8h.html" target="_top" xlink:title=" ">
<polygon fill="white" stroke="black" points="510,-442 510,-461 633,-461 633,-442 510,-442"/>
<text text-anchor="middle" x="571.5" y="-449" font-family="Helvetica,sans-Serif" font-size="10.00">src/indexing/indexer.h</text>
</a>
</g>
</g>
<!-- Node8&#45;&gt;Node9 -->
<g id="edge9" class="edge">
<title>Node8&#45;&gt;Node9</title>
<path fill="none" stroke="midnightblue" d="M648.38,-498.24C629.06,-486.75 602.13,-470.72 585.8,-461.01"/>
<polygon fill="midnightblue" stroke="midnightblue" points="646.79,-501.37 657.17,-503.48 650.37,-495.35 646.79,-501.37"/>
</g>
<!-- Node10 -->
<g id="node10" class="node">
<title>Node10</title>
<g id="a_node10"><a xlink:href="visit__each__entry__in__map_8cpp.html" target="_top" xlink:title=" ">
<polygon fill="white" stroke="black" points="651,-436.5 651,-466.5 812,-466.5 812,-436.5 651,-436.5"/>
<text text-anchor="start" x="659" y="-454.5" font-family="Helvetica,sans-Serif" font-size="10.00">src/indexing/strategies</text>
<text text-anchor="middle" x="731.5" y="-443.5" font-family="Helvetica,sans-Serif" font-size="10.00">/visit_each_entry_in_map.cpp</text>
</a>
</g>
</g>
<!-- Node8&#45;&gt;Node10 -->
<g id="edge11" class="edge">
<title>Node8&#45;&gt;Node10</title>
<path fill="none" stroke="midnightblue" d="M687.26,-496.37C696.6,-487.11 708.32,-475.48 717.36,-466.52"/>
<polygon fill="midnightblue" stroke="midnightblue" points="684.73,-493.95 680.1,-503.48 689.66,-498.92 684.73,-493.95"/>
</g>
<!-- Node11 -->
<g id="node11" class="node">
<title>Node11</title>
<g id="a_node11"><a xlink:href="historical__queries_8h.html" target="_top" xlink:title=" ">
<polygon fill="white" stroke="black" points="57.5,-302.5 57.5,-332.5 163.5,-332.5 163.5,-302.5 57.5,-302.5"/>
<text text-anchor="start" x="65.5" y="-320.5" font-family="Helvetica,sans-Serif" font-size="10.00">src/node/historical</text>
<text text-anchor="middle" x="110.5" y="-309.5" font-family="Helvetica,sans-Serif" font-size="10.00">_queries.h</text>
</a>
</g>
</g>
<!-- Node8&#45;&gt;Node11 -->
<g id="edge12" class="edge">
<title>Node8&#45;&gt;Node11</title>
<path fill="none" stroke="midnightblue" d="M619.37,-506.88C538.74,-498.64 387.63,-481.87 335.5,-467 265.68,-447.08 245.53,-442.27 186.5,-400 159.29,-380.51 134.15,-350.14 120.71,-332.5"/>
<polygon fill="midnightblue" stroke="midnightblue" points="619.49,-510.41 629.79,-507.94 620.2,-503.44 619.49,-510.41"/>
</g>
<!-- Node8&#45;&gt;Node13 -->
<g id="edge16" class="edge">
<title>Node8&#45;&gt;Node13</title>
<path fill="none" stroke="midnightblue" d="M622.01,-501.33C568.48,-489.79 484.23,-471.63 434.97,-461.01"/>
<polygon fill="midnightblue" stroke="midnightblue" points="621.44,-504.79 631.96,-503.48 622.92,-497.95 621.44,-504.79"/>
</g>
<!-- Node15 -->
<g id="node15" class="node">
<title>Node15</title>
<g id="a_node15"><a xlink:href="snapshotter_8h.html" target="_top" xlink:title=" ">
<polygon fill="white" stroke="black" points="690,-241 690,-260 817,-260 817,-241 690,-241"/>
<text text-anchor="middle" x="753.5" y="-248" font-family="Helvetica,sans-Serif" font-size="10.00">src/node/snapshotter.h</text>
</a>
</g>
</g>
<!-- Node8&#45;&gt;Node15 -->
<g id="edge40" class="edge">
<title>Node8&#45;&gt;Node15</title>
<path fill="none" stroke="midnightblue" d="M723.3,-511.33C757.14,-507.86 799.07,-497.15 821.5,-467 873.2,-397.51 744.78,-434.64 711.5,-400 680.76,-368.01 673.62,-342.15 692.5,-302 701.51,-282.84 721.76,-268.46 736.46,-260.04"/>
<polygon fill="midnightblue" stroke="midnightblue" points="722.76,-507.87 713.09,-512.19 723.35,-514.84 722.76,-507.87"/>
</g>
<!-- Node18 -->
<g id="node18" class="node">
<title>Node18</title>
<g id="a_node18"><a xlink:href="frontend_8h.html" target="_top" xlink:title=" ">
<polygon fill="white" stroke="black" points="957,-375 957,-394 1086,-394 1086,-375 957,-375"/>
<text text-anchor="middle" x="1021.5" y="-382" font-family="Helvetica,sans-Serif" font-size="10.00">src/node/rpc/frontend.h</text>
</a>
</g>
</g>
<!-- Node8&#45;&gt;Node18 -->
<g id="edge26" class="edge">
<title>Node8&#45;&gt;Node18</title>
<path fill="none" stroke="midnightblue" d="M723.58,-504.66C761.2,-498.07 812.56,-486.38 854.5,-467 875.89,-457.12 876.89,-447.41 897.5,-436 929.83,-418.1 969.84,-402.95 995.51,-394.05"/>
<polygon fill="midnightblue" stroke="midnightblue" points="722.63,-501.27 713.35,-506.39 723.79,-508.18 722.63,-501.27"/>
</g>
<!-- Node8&#45;&gt;Node25 -->
<g id="edge41" class="edge">
<title>Node8&#45;&gt;Node25</title>
<path fill="none" stroke="midnightblue" d="M723.11,-501.54C767.91,-492.45 834.5,-478.91 892.5,-467 897,-466.08 901.66,-465.12 906.34,-464.15"/>
<polygon fill="midnightblue" stroke="midnightblue" points="722.16,-498.16 713.06,-503.58 723.55,-505.02 722.16,-498.16"/>
</g>
<!-- Node9&#45;&gt;Node3 -->
<g id="edge10" class="edge">
<title>Node9&#45;&gt;Node3</title>
<path fill="none" stroke="midnightblue" d="M574.95,-431.64C583.91,-388.63 612.22,-283.28 681.5,-235 731.18,-200.38 903.42,-192.26 997.31,-190.45"/>
<polygon fill="midnightblue" stroke="midnightblue" points="571.49,-431.11 573,-441.59 578.36,-432.45 571.49,-431.11"/>
</g>
<!-- Node11&#45;&gt;Node4 -->
<g id="edge13" class="edge">
<title>Node11&#45;&gt;Node4</title>
<path fill="none" stroke="midnightblue" d="M123.21,-293.65C134.86,-274.91 153.87,-249.23 177.5,-235 411.82,-93.91 511.43,-161.12 780.5,-112 857,-98.03 945.72,-84.11 1002.21,-75.53"/>
<polygon fill="midnightblue" stroke="midnightblue" points="120.07,-292.09 117.95,-302.47 126.08,-295.68 120.07,-292.09"/>
</g>
<!-- Node12 -->
<g id="node12" class="node">
<title>Node12</title>
<g id="a_node12"><a xlink:href="historical__transaction__fetcher_8h.html" target="_top" xlink:title=" ">
<polygon fill="white" stroke="black" points="0,-112.5 0,-142.5 125,-142.5 125,-112.5 0,-112.5"/>
<text text-anchor="start" x="8" y="-130.5" font-family="Helvetica,sans-Serif" font-size="10.00">src/indexing/historical</text>
<text text-anchor="middle" x="62.5" y="-119.5" font-family="Helvetica,sans-Serif" font-size="10.00">_transaction_fetcher.h</text>
</a>
</g>
</g>
<!-- Node11&#45;&gt;Node12 -->
<g id="edge14" class="edge">
<title>Node11&#45;&gt;Node12</title>
<path fill="none" stroke="midnightblue" d="M104.36,-292.47C94.21,-252.7 74.23,-174.44 66.08,-142.54"/>
<polygon fill="midnightblue" stroke="midnightblue" points="101.03,-293.55 106.89,-302.37 107.81,-291.81 101.03,-293.55"/>
</g>
<!-- Node12&#45;&gt;Node4 -->
<g id="edge15" class="edge">
<title>Node12&#45;&gt;Node4</title>
<path fill="none" stroke="midnightblue" d="M135.03,-112.56C136.53,-112.36 138.02,-112.17 139.5,-112 461.49,-73.99 850.52,-67.96 998.44,-67.1"/>
<polygon fill="midnightblue" stroke="midnightblue" points="134.41,-109.11 125,-113.99 135.4,-116.04 134.41,-109.11"/>
</g>
<!-- Node13&#45;&gt;Node3 -->
<g id="edge18" class="edge">
<title>Node13&#45;&gt;Node3</title>
<path fill="none" stroke="midnightblue" d="M391.58,-431.73C384.68,-396.59 372.37,-322.55 386.5,-302 455.18,-202.16 844.05,-190.37 997.36,-189.66"/>
<polygon fill="midnightblue" stroke="midnightblue" points="388.17,-432.55 393.59,-441.66 395.03,-431.16 388.17,-432.55"/>
</g>
<!-- Node13&#45;&gt;Node11 -->
<g id="edge17" class="edge">
<title>Node13&#45;&gt;Node11</title>
<path fill="none" stroke="midnightblue" d="M355.25,-439.09C325.22,-430 283.5,-416.15 248.5,-400 205.04,-379.95 157.69,-350.05 131.29,-332.59"/>
<polygon fill="midnightblue" stroke="midnightblue" points="354.38,-442.48 364.96,-441.98 356.38,-435.77 354.38,-442.48"/>
</g>
<!-- Node14 -->
<g id="node14" class="node">
<title>Node14</title>
<g id="a_node14"><a xlink:href="snapshot__serdes_8h.html" target="_top" xlink:title=" ">
<polygon fill="white" stroke="black" points="395.5,-308 395.5,-327 547.5,-327 547.5,-308 395.5,-308"/>
<text text-anchor="middle" x="471.5" y="-315" font-family="Helvetica,sans-Serif" font-size="10.00">src/node/snapshot_serdes.h</text>
</a>
</g>
</g>
<!-- Node13&#45;&gt;Node14 -->
<g id="edge19" class="edge">
<title>Node13&#45;&gt;Node14</title>
<path fill="none" stroke="midnightblue" d="M405.62,-432.92C422.15,-404.2 454.33,-348.32 466.59,-327.02"/>
<polygon fill="midnightblue" stroke="midnightblue" points="402.44,-431.43 400.49,-441.84 408.51,-434.92 402.44,-431.43"/>
</g>
<!-- Node16 -->
<g id="node16" class="node">
<title>Node16</title>
<g id="a_node16"><a xlink:href="tx__receipt__impl_8h.html" target="_top" xlink:title=" ">
<polygon fill="white" stroke="black" points="257.5,-369.5 257.5,-399.5 367.5,-399.5 367.5,-369.5 257.5,-369.5"/>
<text text-anchor="start" x="265.5" y="-387.5" font-family="Helvetica,sans-Serif" font-size="10.00">src/node/tx_receipt</text>
<text text-anchor="middle" x="312.5" y="-376.5" font-family="Helvetica,sans-Serif" font-size="10.00">_impl.h</text>
</a>
</g>
</g>
<!-- Node13&#45;&gt;Node16 -->
<g id="edge22" class="edge">
<title>Node13&#45;&gt;Node16</title>
<path fill="none" stroke="midnightblue" d="M376.4,-435.54C362.59,-424.73 344.04,-410.2 330.49,-399.59"/>
<polygon fill="midnightblue" stroke="midnightblue" points="374.28,-438.32 384.31,-441.73 378.59,-432.81 374.28,-438.32"/>
</g>
<!-- Node14&#45;&gt;Node15 -->
<g id="edge20" class="edge">
<title>Node14&#45;&gt;Node15</title>
<path fill="none" stroke="midnightblue" d="M518.6,-305.64C574.16,-292.84 665.39,-271.81 716.26,-260.08"/>
<polygon fill="midnightblue" stroke="midnightblue" points="517.61,-302.28 508.66,-307.94 519.19,-309.1 517.61,-302.28"/>
</g>
<!-- Node15&#45;&gt;Node3 -->
<g id="edge21" class="edge">
<title>Node15&#45;&gt;Node3</title>
<path fill="none" stroke="midnightblue" d="M807.27,-239.05C866.55,-227.52 960.79,-209.19 1015.74,-198.51"/>
<polygon fill="midnightblue" stroke="midnightblue" points="806.49,-235.63 797.34,-240.98 807.83,-242.5 806.49,-235.63"/>
</g>
<!-- Node16&#45;&gt;Node11 -->
<g id="edge23" class="edge">
<title>Node16&#45;&gt;Node11</title>
<path fill="none" stroke="midnightblue" d="M258.82,-366.23C226.15,-355.71 184.93,-342.45 154.25,-332.58"/>
<polygon fill="midnightblue" stroke="midnightblue" points="258.08,-369.66 268.67,-369.4 260.22,-363 258.08,-369.66"/>
</g>
<!-- Node16&#45;&gt;Node14 -->
<g id="edge25" class="edge">
<title>Node16&#45;&gt;Node14</title>
<path fill="none" stroke="midnightblue" d="M356.63,-365.46C387.35,-352.9 426.92,-336.72 450.69,-327.01"/>
<polygon fill="midnightblue" stroke="midnightblue" points="354.93,-362.37 347,-369.4 357.58,-368.85 354.93,-362.37"/>
</g>
<!-- Node17 -->
<g id="node17" class="node">
<title>Node17</title>
<g id="a_node17"><a xlink:href="historical__queries__adapter_8cpp.html" target="_top" xlink:title=" ">
<polygon fill="white" stroke="black" points="219.5,-302.5 219.5,-332.5 339.5,-332.5 339.5,-302.5 219.5,-302.5"/>
<text text-anchor="start" x="227.5" y="-320.5" font-family="Helvetica,sans-Serif" font-size="10.00">src/node/historical</text>
<text text-anchor="middle" x="279.5" y="-309.5" font-family="Helvetica,sans-Serif" font-size="10.00">_queries_adapter.cpp</text>
</a>
</g>
</g>
<!-- Node16&#45;&gt;Node17 -->
<g id="edge24" class="edge">
<title>Node16&#45;&gt;Node17</title>
<path fill="none" stroke="midnightblue" d="M300.71,-360.28C296.01,-351.02 290.75,-340.66 286.65,-332.58"/>
<polygon fill="midnightblue" stroke="midnightblue" points="297.69,-362.06 305.34,-369.4 303.93,-358.89 297.69,-362.06"/>
</g>
<!-- Node18&#45;&gt;Node3 -->
<g id="edge31" class="edge">
<title>Node18&#45;&gt;Node3</title>
<path fill="none" stroke="midnightblue" d="M1045.75,-369.14C1058.03,-360.41 1071.73,-348.04 1078.5,-333 1089.45,-308.68 1069.02,-225.83 1061.85,-198.69"/>
<polygon fill="midnightblue" stroke="midnightblue" points="1043.57,-366.39 1037.19,-374.85 1047.45,-372.22 1043.57,-366.39"/>
</g>
<!-- Node19 -->
<g id="node19" class="node">
<title>Node19</title>
<g id="a_node19"><a xlink:href="acme__challenge__frontend_8h.html" target="_top" xlink:title=" ">
<polygon fill="white" stroke="black" points="929.5,-302.5 929.5,-332.5 1069.5,-332.5 1069.5,-302.5 929.5,-302.5"/>
<text text-anchor="start" x="937.5" y="-320.5" font-family="Helvetica,sans-Serif" font-size="10.00">src/node/acme_challenge</text>
<text text-anchor="middle" x="999.5" y="-309.5" font-family="Helvetica,sans-Serif" font-size="10.00">_frontend.h</text>
</a>
</g>
</g>
<!-- Node18&#45;&gt;Node19 -->
<g id="edge27" class="edge">
<title>Node18&#45;&gt;Node19</title>
<path fill="none" stroke="midnightblue" d="M1015.26,-365.06C1011.77,-354.75 1007.49,-342.1 1004.27,-332.59"/>
<polygon fill="midnightblue" stroke="midnightblue" points="1012.01,-366.38 1018.53,-374.73 1018.64,-364.14 1012.01,-366.38"/>
</g>
<!-- Node21 -->
<g id="node21" class="node">
<title>Node21</title>
<g id="a_node21"><a xlink:href="member__frontend_8h.html" target="_top" xlink:title=" ">
<polygon fill="white" stroke="black" points="2337.5,-235.5 2337.5,-265.5 2457.5,-265.5 2457.5,-235.5 2337.5,-235.5"/>
<text text-anchor="start" x="2345.5" y="-253.5" font-family="Helvetica,sans-Serif" font-size="10.00">src/node/rpc/member</text>
<text text-anchor="middle" x="2397.5" y="-242.5" font-family="Helvetica,sans-Serif" font-size="10.00">_frontend.h</text>
</a>
</g>
</g>
<!-- Node18&#45;&gt;Node21 -->
<g id="edge32" class="edge">
<title>Node18&#45;&gt;Node21</title>
<path fill="none" stroke="midnightblue" d="M1081.76,-373.5C1093.9,-371.77 1106.58,-370.15 1118.5,-369 1477.63,-334.28 1570.82,-372.03 1929.5,-333 2077.08,-316.94 2248.5,-283.17 2337.27,-264.54"/>
<polygon fill="midnightblue" stroke="midnightblue" points="1081.11,-370.06 1071.72,-374.98 1082.13,-376.98 1081.11,-370.06"/>
</g>
<!-- Node22 -->
<g id="node22" class="node">
<title>Node22</title>
<g id="a_node22"><a xlink:href="node__frontend_8h.html" target="_top" xlink:title=" ">
<polygon fill="white" stroke="black" points="1163.5,-308 1163.5,-327 1321.5,-327 1321.5,-308 1163.5,-308"/>
<text text-anchor="middle" x="1242.5" y="-315" font-family="Helvetica,sans-Serif" font-size="10.00">src/node/rpc/node_frontend.h</text>
</a>
</g>
</g>
<!-- Node18&#45;&gt;Node22 -->
<g id="edge34" class="edge">
<title>Node18&#45;&gt;Node22</title>
<path fill="none" stroke="midnightblue" d="M1060.57,-372.01C1104.31,-359.15 1174.18,-338.59 1213.38,-327.06"/>
<polygon fill="midnightblue" stroke="midnightblue" points="1059.45,-368.69 1050.85,-374.87 1061.43,-375.4 1059.45,-368.69"/>
</g>
<!-- Node24 -->
<g id="node24" class="node">
<title>Node24</title>
<g id="a_node24"><a xlink:href="user__frontend_8h.html" target="_top" xlink:title=" ">
<polygon fill="white" stroke="black" points="718,-308 718,-327 873,-327 873,-308 718,-308"/>
<text text-anchor="middle" x="795.5" y="-315" font-family="Helvetica,sans-Serif" font-size="10.00">src/node/rpc/user_frontend.h</text>
</a>
</g>
</g>
<!-- Node18&#45;&gt;Node24 -->
<g id="edge38" class="edge">
<title>Node18&#45;&gt;Node24</title>
<path fill="none" stroke="midnightblue" d="M981.83,-372.09C937.12,-359.23 865.45,-338.62 825.28,-327.06"/>
<polygon fill="midnightblue" stroke="midnightblue" points="980.91,-375.47 991.49,-374.87 982.85,-368.74 980.91,-375.47"/>
</g>
<!-- Node19&#45;&gt;Node4 -->
<g id="edge28" class="edge">
<title>Node19&#45;&gt;Node4</title>
<path fill="none" stroke="midnightblue" d="M920.02,-300.44C902.16,-292.97 885.31,-282.03 874.5,-266 866.8,-254.58 868.92,-247.6 874.5,-235 909.98,-154.86 1004.65,-96.59 1043.01,-75.57"/>
<polygon fill="midnightblue" stroke="midnightblue" points="918.84,-303.73 929.43,-304.04 921.34,-297.2 918.84,-303.73"/>
</g>
<!-- Node20 -->
<g id="node20" class="node">
<title>Node20</title>
<g id="a_node20"><a xlink:href="ccf__acme__client_8h.html" target="_top" xlink:title=" ">
<polygon fill="white" stroke="black" points="883,-241 883,-260 1032,-260 1032,-241 883,-241"/>
<text text-anchor="middle" x="957.5" y="-248" font-family="Helvetica,sans-Serif" font-size="10.00">src/node/ccf_acme_client.h</text>
</a>
</g>
</g>
<!-- Node19&#45;&gt;Node20 -->
<g id="edge29" class="edge">
<title>Node19&#45;&gt;Node20</title>
<path fill="none" stroke="midnightblue" d="M984.95,-293.97C977.42,-282.33 968.68,-268.8 963.12,-260.19"/>
<polygon fill="midnightblue" stroke="midnightblue" points="982.02,-295.9 990.39,-302.4 987.9,-292.1 982.02,-295.9"/>
</g>
<!-- Node20&#45;&gt;Node3 -->
<g id="edge30" class="edge">
<title>Node20&#45;&gt;Node3</title>
<path fill="none" stroke="midnightblue" d="M980.81,-235.9C1000.54,-224.4 1028.19,-208.27 1044.91,-198.51"/>
<polygon fill="midnightblue" stroke="midnightblue" points="978.99,-232.91 972.11,-240.98 982.52,-238.96 978.99,-232.91"/>
</g>
<!-- Node21&#45;&gt;Node4 -->
<g id="edge33" class="edge">
<title>Node21&#45;&gt;Node4</title>
<path fill="none" stroke="midnightblue" d="M2392.35,-225.53C2384.02,-193.36 2364.25,-137.34 2323.5,-112 2271.96,-79.95 1366.39,-69.69 1120.61,-67.49"/>
<polygon fill="midnightblue" stroke="midnightblue" points="2388.99,-226.55 2394.75,-235.45 2395.8,-224.91 2388.99,-226.55"/>
</g>
<!-- Node22&#45;&gt;Node4 -->
<g id="edge35" class="edge">
<title>Node22&#45;&gt;Node4</title>
<path fill="none" stroke="midnightblue" d="M1251.48,-298.34C1258.51,-281.75 1266.22,-256.6 1260.5,-235 1244.41,-174.19 1238.93,-152.14 1190.5,-112 1167.73,-93.12 1136.6,-82 1110.4,-75.53"/>
<polygon fill="midnightblue" stroke="midnightblue" points="1248.1,-297.33 1247.11,-307.88 1254.46,-300.25 1248.1,-297.33"/>
</g>
<!-- Node23 -->
<g id="node23" class="node">
<title>Node23</title>
<g id="a_node23"><a xlink:href="jwt__key__auto__refresh_8h.html" target="_top" xlink:title=" ">
<polygon fill="white" stroke="black" points="1126,-235.5 1126,-265.5 1251,-265.5 1251,-235.5 1126,-235.5"/>
<text text-anchor="start" x="1134" y="-253.5" font-family="Helvetica,sans-Serif" font-size="10.00">src/node/jwt_key_auto</text>
<text text-anchor="middle" x="1188.5" y="-242.5" font-family="Helvetica,sans-Serif" font-size="10.00">_refresh.h</text>
</a>
</g>
</g>
<!-- Node22&#45;&gt;Node23 -->
<g id="edge36" class="edge">
<title>Node22&#45;&gt;Node23</title>
<path fill="none" stroke="midnightblue" d="M1228.78,-299.99C1219.96,-289.36 1208.61,-275.7 1200.2,-265.59"/>
<polygon fill="midnightblue" stroke="midnightblue" points="1226.13,-302.28 1235.22,-307.73 1231.52,-297.81 1226.13,-302.28"/>
</g>
<!-- Node23&#45;&gt;Node3 -->
<g id="edge37" class="edge">
<title>Node23&#45;&gt;Node3</title>
<path fill="none" stroke="midnightblue" d="M1148.57,-231.08C1125.14,-220.28 1096.62,-207.12 1078.27,-198.66"/>
<polygon fill="midnightblue" stroke="midnightblue" points="1147.38,-234.39 1157.93,-235.4 1150.31,-228.03 1147.38,-234.39"/>
</g>
<!-- Node24&#45;&gt;Node4 -->
<g id="edge39" class="edge">
<title>Node24&#45;&gt;Node4</title>
<path fill="none" stroke="midnightblue" d="M737.5,-304.84C716.16,-297.44 694.14,-285.43 681.5,-266 673.99,-254.45 674.11,-246.63 681.5,-235 751.01,-125.58 910.41,-86.94 998.4,-73.67"/>
<polygon fill="midnightblue" stroke="midnightblue" points="736.62,-308.24 747.21,-307.93 738.74,-301.56 736.62,-308.24"/>
</g>
<!-- Node25&#45;&gt;Node20 -->
<g id="edge42" class="edge">
<title>Node25&#45;&gt;Node20</title>
<path fill="none" stroke="midnightblue" d="M896.41,-438.4C803.26,-418.5 650.9,-373.74 709.5,-302 721.26,-287.6 825.87,-270.17 895.42,-260.01"/>
<polygon fill="midnightblue" stroke="midnightblue" points="895.84,-441.86 906.34,-440.48 897.27,-435.01 895.84,-441.86"/>
</g>
<!-- Node26 -->
<g id="node26" class="node">
<title>Node26</title>
<g id="a_node26"><a xlink:href="network__state_8h.html" target="_top" xlink:title=" ">
<polygon fill="white" stroke="black" points="1127.5,-375 1127.5,-394 1267.5,-394 1267.5,-375 1127.5,-375"/>
<text text-anchor="middle" x="1197.5" y="-382" font-family="Helvetica,sans-Serif" font-size="10.00">src/node/network_state.h</text>
</a>
</g>
</g>
<!-- Node25&#45;&gt;Node26 -->
<g id="edge43" class="edge">
<title>Node25&#45;&gt;Node26</title>
<path fill="none" stroke="midnightblue" d="M1023.06,-433.75C1069.02,-421.04 1130.31,-404.09 1166.67,-394.03"/>
<polygon fill="midnightblue" stroke="midnightblue" points="1021.91,-430.44 1013.2,-436.48 1023.77,-437.18 1021.91,-430.44"/>
</g>
<!-- Node37 -->
<g id="node37" class="node">
<title>Node37</title>
<g id="a_node37"><a xlink:href="genesis__gen_8h.html" target="_top" xlink:title=" ">
<polygon fill="white" stroke="black" points="1413.5,-369.5 1413.5,-399.5 1523.5,-399.5 1523.5,-369.5 1413.5,-369.5"/>
<text text-anchor="start" x="1421.5" y="-387.5" font-family="Helvetica,sans-Serif" font-size="10.00">src/service/genesis</text>
<text text-anchor="middle" x="1468.5" y="-376.5" font-family="Helvetica,sans-Serif" font-size="10.00">_gen.h</text>
</a>
</g>
</g>
<!-- Node25&#45;&gt;Node37 -->
<g id="edge70" class="edge">
<title>Node25&#45;&gt;Node37</title>
<path fill="none" stroke="midnightblue" d="M1028.64,-442C1129.41,-429.06 1319.53,-404.64 1413.32,-392.59"/>
<polygon fill="midnightblue" stroke="midnightblue" points="1028.06,-438.55 1018.58,-443.3 1028.95,-445.49 1028.06,-438.55"/>
</g>
<!-- Node26&#45;&gt;Node3 -->
<g id="edge61" class="edge">
<title>Node26&#45;&gt;Node3</title>
<path fill="none" stroke="midnightblue" d="M1182.73,-367.17C1174.19,-357.47 1163.4,-344.81 1154.5,-333 1117.54,-283.97 1078.55,-221.25 1064.73,-198.62"/>
<polygon fill="midnightblue" stroke="midnightblue" points="1180.29,-369.69 1189.56,-374.82 1185.52,-365.03 1180.29,-369.69"/>
</g>
<!-- Node26&#45;&gt;Node4 -->
<g id="edge44" class="edge">
<title>Node26&#45;&gt;Node4</title>
<path fill="none" stroke="midnightblue" d="M1277.99,-377.83C1316.3,-375.14 1362.77,-371.89 1404.5,-369 1586.51,-356.38 2308.98,-391.08 2214.5,-235 2186.71,-189.08 2158.22,-196.56 2107.5,-179 1954.12,-125.89 1909.55,-132.21 1748.5,-112 1517.76,-83.04 1241.06,-72.13 1120.56,-68.54"/>
<polygon fill="midnightblue" stroke="midnightblue" points="1277.65,-374.35 1267.92,-378.54 1278.14,-381.33 1277.65,-374.35"/>
</g>
<!-- Node26&#45;&gt;Node15 -->
<g id="edge69" class="edge">
<title>Node26&#45;&gt;Node15</title>
<path fill="none" stroke="midnightblue" d="M1132.53,-373.41C1056.79,-361.36 939.48,-341.76 920.5,-333 900.71,-323.87 901.32,-312.99 882.5,-302 850.21,-283.14 809.55,-268.56 782.6,-260.02"/>
<polygon fill="midnightblue" stroke="midnightblue" points="1132.05,-376.87 1142.47,-374.98 1133.14,-369.96 1132.05,-376.87"/>
</g>
<!-- Node26&#45;&gt;Node19 -->
<g id="edge60" class="edge">
<title>Node26&#45;&gt;Node19</title>
<path fill="none" stroke="midnightblue" d="M1161.35,-371.63C1127.78,-360.61 1077.77,-344.19 1042.23,-332.53"/>
<polygon fill="midnightblue" stroke="midnightblue" points="1160.61,-375.07 1171.21,-374.87 1162.8,-368.42 1160.61,-375.07"/>
</g>
<!-- Node26&#45;&gt;Node22 -->
<g id="edge62" class="edge">
<title>Node26&#45;&gt;Node22</title>
<path fill="none" stroke="midnightblue" d="M1209.34,-366.4C1218.08,-353.77 1229.62,-337.1 1236.53,-327.13"/>
<polygon fill="midnightblue" stroke="midnightblue" points="1206.38,-364.52 1203.57,-374.73 1212.14,-368.5 1206.38,-364.52"/>
</g>
<!-- Node26&#45;&gt;Node24 -->
<g id="edge63" class="edge">
<title>Node26&#45;&gt;Node24</title>
<path fill="none" stroke="midnightblue" d="M1134.25,-373.27C1055.36,-360.52 921.92,-338.94 848.27,-327.03"/>
<polygon fill="midnightblue" stroke="midnightblue" points="1134.1,-376.79 1144.53,-374.94 1135.22,-369.88 1134.1,-376.79"/>
</g>
<!-- Node27 -->
<g id="node27" class="node">
<title>Node27</title>
<g id="a_node27"><a xlink:href="wrap_8h.html" target="_top" xlink:title=" ">
<polygon fill="white" stroke="black" points="1842.5,-308 1842.5,-327 1920.5,-327 1920.5,-308 1842.5,-308"/>
<text text-anchor="middle" x="1881.5" y="-315" font-family="Helvetica,sans-Serif" font-size="10.00">src/js/wrap.h</text>
</a>
</g>
</g>
<!-- Node26&#45;&gt;Node27 -->
<g id="edge45" class="edge">
<title>Node26&#45;&gt;Node27</title>
<path fill="none" stroke="midnightblue" d="M1278.13,-375.84C1425.53,-361.83 1733.31,-332.58 1842.25,-322.23"/>
<polygon fill="midnightblue" stroke="midnightblue" points="1277.43,-372.39 1267.8,-376.82 1278.09,-379.36 1277.43,-372.39"/>
</g>
<!-- Node35 -->
<g id="node35" class="node">
<title>Node35</title>
<g id="a_node35"><a xlink:href="secret__broadcast_8h.html" target="_top" xlink:title=" ">
<polygon fill="white" stroke="black" points="1340,-308 1340,-327 1493,-327 1493,-308 1340,-308"/>
<text text-anchor="middle" x="1416.5" y="-315" font-family="Helvetica,sans-Serif" font-size="10.00">src/node/secret_broadcast.h</text>
</a>
</g>
</g>
<!-- Node26&#45;&gt;Node35 -->
<g id="edge64" class="edge">
<title>Node26&#45;&gt;Node35</title>
<path fill="none" stroke="midnightblue" d="M1236.21,-372.01C1279.56,-359.15 1348.8,-338.59 1387.65,-327.06"/>
<polygon fill="midnightblue" stroke="midnightblue" points="1235.17,-368.67 1226.58,-374.87 1237.16,-375.38 1235.17,-368.67"/>
</g>
<!-- Node36 -->
<g id="node36" class="node">
<title>Node36</title>
<g id="a_node36"><a xlink:href="share__manager_8h.html" target="_top" xlink:title=" ">
<polygon fill="white" stroke="black" points="2224,-308 2224,-327 2369,-327 2369,-308 2224,-308"/>
<text text-anchor="middle" x="2296.5" y="-315" font-family="Helvetica,sans-Serif" font-size="10.00">src/node/share_manager.h</text>
</a>
</g>
</g>
<!-- Node26&#45;&gt;Node36 -->
<g id="edge66" class="edge">
<title>Node26&#45;&gt;Node36</title>
<path fill="none" stroke="midnightblue" d="M1277.96,-377.39C1316.27,-374.6 1362.73,-371.4 1404.5,-369 1762.05,-348.49 1853.33,-370.51 2209.5,-333 2223.21,-331.56 2238.03,-329.34 2251.49,-327.06"/>
<polygon fill="midnightblue" stroke="midnightblue" points="1277.61,-373.91 1267.89,-378.13 1278.12,-380.89 1277.61,-373.91"/>
</g>
<!-- Node27&#45;&gt;Node3 -->
<g id="edge58" class="edge">
<title>Node27&#45;&gt;Node3</title>
<path fill="none" stroke="midnightblue" d="M1832.15,-314.38C1727.83,-309.38 1488.28,-295.04 1412.5,-266 1390.5,-257.57 1391.34,-243.83 1369.5,-235 1288.08,-202.06 1186.01,-192.77 1121.76,-190.4"/>
<polygon fill="midnightblue" stroke="midnightblue" points="1832.25,-317.89 1842.41,-314.86 1832.58,-310.9 1832.25,-317.89"/>
</g>
<!-- Node27&#45;&gt;Node4 -->
<g id="edge47" class="edge">
<title>Node27&#45;&gt;Node4</title>
<path fill="none" stroke="midnightblue" d="M1914.87,-304.79C1918.43,-303.75 1922.02,-302.8 1925.5,-302 2045.58,-274.43 2264.64,-336.29 2194.5,-235 2132.48,-145.44 1347.72,-86.27 1120.66,-70.95"/>
<polygon fill="midnightblue" stroke="midnightblue" points="1913.53,-301.54 1905.02,-307.86 1915.61,-308.23 1913.53,-301.54"/>
</g>
<!-- Node27&#45;&gt;Node21 -->
<g id="edge59" class="edge">
<title>Node27&#45;&gt;Node21</title>
<path fill="none" stroke="midnightblue" d="M1930.74,-310.42C2006.83,-301 2157.59,-282.27 2285.5,-266 2302.32,-263.86 2320.57,-261.51 2337.35,-259.34"/>
<polygon fill="midnightblue" stroke="midnightblue" points="1930,-306.98 1920.51,-311.68 1930.86,-313.93 1930,-306.98"/>
</g>
<!-- Node28 -->
<g id="node28" class="node">
<title>Node28</title>
<g id="a_node28"><a xlink:href="js__generic__base_8cpp.html" target="_top" xlink:title=" ">
<polygon fill="white" stroke="black" points="1567.5,-235.5 1567.5,-265.5 1685.5,-265.5 1685.5,-235.5 1567.5,-235.5"/>
<text text-anchor="start" x="1575.5" y="-253.5" font-family="Helvetica,sans-Serif" font-size="10.00">src/apps/js_generic</text>
<text text-anchor="middle" x="1626.5" y="-242.5" font-family="Helvetica,sans-Serif" font-size="10.00">/js_generic_base.cpp</text>
</a>
</g>
</g>
<!-- Node27&#45;&gt;Node28 -->
<g id="edge46" class="edge">
<title>Node27&#45;&gt;Node28</title>
<path fill="none" stroke="midnightblue" d="M1837.99,-305.41C1794.81,-294.4 1728.5,-277.5 1681.66,-265.56"/>
<polygon fill="midnightblue" stroke="midnightblue" points="1837.35,-308.86 1847.9,-307.94 1839.08,-302.07 1837.35,-308.86"/>
</g>
<!-- Node29 -->
<g id="node29" class="node">
<title>Node29</title>
<g id="a_node29"><a xlink:href="consensus_8cpp.html" target="_top" xlink:title=" ">
<polygon fill="white" stroke="black" points="1703.5,-241 1703.5,-260 1819.5,-260 1819.5,-241 1703.5,-241"/>
<text text-anchor="middle" x="1761.5" y="-248" font-family="Helvetica,sans-Serif" font-size="10.00">src/js/consensus.cpp</text>
</a>
</g>
</g>
<!-- Node27&#45;&gt;Node29 -->
<g id="edge48" class="edge">
<title>Node27&#45;&gt;Node29</title>
<path fill="none" stroke="midnightblue" d="M1856.5,-302.96C1832.71,-290.07 1797.63,-271.07 1777.43,-260.13"/>
<polygon fill="midnightblue" stroke="midnightblue" points="1854.86,-306.05 1865.32,-307.73 1858.19,-299.89 1854.86,-306.05"/>
</g>
<!-- Node30 -->
<g id="node30" class="node">
<title>Node30</title>
<g id="a_node30"><a xlink:href="wrap_8cpp.html" target="_top" xlink:title=" ">
<polygon fill="white" stroke="black" points="1947,-179.5 1947,-198.5 2036,-198.5 2036,-179.5 1947,-179.5"/>
<text text-anchor="middle" x="1991.5" y="-186.5" font-family="Helvetica,sans-Serif" font-size="10.00">src/js/wrap.cpp</text>
</a>
</g>
</g>
<!-- Node27&#45;&gt;Node30 -->
<g id="edge57" class="edge">
<title>Node27&#45;&gt;Node30</title>
<path fill="none" stroke="midnightblue" d="M1931.01,-311.5C2010.87,-302.93 2160.85,-284.56 2176.5,-266 2217.86,-216.96 2103.17,-199.12 2036.13,-192.99"/>
<polygon fill="midnightblue" stroke="midnightblue" points="1930.27,-308.06 1920.69,-312.59 1931,-315.02 1930.27,-308.06"/>
</g>
<!-- Node31 -->
<g id="node31" class="node">
<title>Node31</title>
<g id="a_node31"><a xlink:href="conv_8cpp.html" target="_top" xlink:title=" ">
<polygon fill="white" stroke="black" points="1837.5,-241 1837.5,-260 1925.5,-260 1925.5,-241 1837.5,-241"/>
<text text-anchor="middle" x="1881.5" y="-248" font-family="Helvetica,sans-Serif" font-size="10.00">src/js/conv.cpp</text>
</a>
</g>
</g>
<!-- Node27&#45;&gt;Node31 -->
<g id="edge50" class="edge">
<title>Node27&#45;&gt;Node31</title>
<path fill="none" stroke="midnightblue" d="M1881.5,-297.54C1881.5,-285.17 1881.5,-269.62 1881.5,-260.13"/>
<polygon fill="midnightblue" stroke="midnightblue" points="1878,-297.73 1881.5,-307.73 1885,-297.73 1878,-297.73"/>
</g>
<!-- Node32 -->
<g id="node32" class="node">
<title>Node32</title>
<g id="a_node32"><a xlink:href="crypto_8cpp.html" target="_top" xlink:title=" ">
<polygon fill="white" stroke="black" points="1943.5,-241 1943.5,-260 2039.5,-260 2039.5,-241 1943.5,-241"/>
<text text-anchor="middle" x="1991.5" y="-248" font-family="Helvetica,sans-Serif" font-size="10.00">src/js/crypto.cpp</text>
</a>
</g>
</g>
<!-- Node27&#45;&gt;Node32 -->
<g id="edge52" class="edge">
<title>Node27&#45;&gt;Node32</title>
<path fill="none" stroke="midnightblue" d="M1905,-302.62C1926.79,-289.74 1958.54,-270.98 1976.9,-260.13"/>
<polygon fill="midnightblue" stroke="midnightblue" points="1903.16,-299.63 1896.34,-307.73 1906.72,-305.66 1903.16,-299.63"/>
</g>
<!-- Node33 -->
<g id="node33" class="node">
<title>Node33</title>
<g id="a_node33"><a xlink:href="historical_8cpp.html" target="_top" xlink:title=" ">
<polygon fill="white" stroke="black" points="2057.5,-241 2057.5,-260 2167.5,-260 2167.5,-241 2057.5,-241"/>
<text text-anchor="middle" x="2112.5" y="-248" font-family="Helvetica,sans-Serif" font-size="10.00">src/js/historical.cpp</text>
</a>
</g>
</g>
<!-- Node27&#45;&gt;Node33 -->
<g id="edge54" class="edge">
<title>Node27&#45;&gt;Node33</title>
<path fill="none" stroke="midnightblue" d="M1922.05,-305.09C1967.74,-292.23 2041,-271.62 2082.07,-260.06"/>
<polygon fill="midnightblue" stroke="midnightblue" points="1920.85,-301.79 1912.18,-307.87 1922.75,-308.53 1920.85,-301.79"/>
</g>
<!-- Node34 -->
<g id="node34" class="node">
<title>Node34</title>
<g id="a_node34"><a xlink:href="openenclave_8cpp.html" target="_top" xlink:title=" ">
<polygon fill="white" stroke="black" points="1421.5,-241 1421.5,-260 1549.5,-260 1549.5,-241 1421.5,-241"/>
<text text-anchor="middle" x="1485.5" y="-248" font-family="Helvetica,sans-Serif" font-size="10.00">src/js/openenclave.cpp</text>
</a>
</g>
</g>
<!-- Node27&#45;&gt;Node34 -->
<g id="edge56" class="edge">
<title>Node27&#45;&gt;Node34</title>
<path fill="none" stroke="midnightblue" d="M1832.01,-309.41C1768.54,-300.16 1655.11,-283.14 1558.5,-266 1548.19,-264.17 1537.1,-262.05 1526.75,-260"/>
<polygon fill="midnightblue" stroke="midnightblue" points="1831.73,-312.9 1842.13,-310.88 1832.74,-305.98 1831.73,-312.9"/>
</g>
<!-- Node29&#45;&gt;Node30 -->
<g id="edge49" class="edge">
<title>Node29&#45;&gt;Node30</title>
<path fill="none" stroke="midnightblue" d="M1804.14,-238.47C1848.8,-226.91 1917.99,-209.02 1958.61,-198.51"/>
<polygon fill="midnightblue" stroke="midnightblue" points="1803.26,-235.08 1794.45,-240.98 1805.01,-241.86 1803.26,-235.08"/>
</g>
<!-- Node31&#45;&gt;Node30 -->
<g id="edge51" class="edge">
<title>Node31&#45;&gt;Node30</title>
<path fill="none" stroke="midnightblue" d="M1906.07,-236.21C1927.37,-224.69 1957.57,-208.36 1975.77,-198.51"/>
<polygon fill="midnightblue" stroke="midnightblue" points="1904.39,-233.14 1897.26,-240.98 1907.72,-239.3 1904.39,-233.14"/>
</g>
<!-- Node32&#45;&gt;Node30 -->
<g id="edge53" class="edge">
<title>Node32&#45;&gt;Node30</title>
<path fill="none" stroke="midnightblue" d="M1991.5,-230.82C1991.5,-220 1991.5,-206.9 1991.5,-198.51"/>
<polygon fill="midnightblue" stroke="midnightblue" points="1988,-230.98 1991.5,-240.98 1995,-230.98 1988,-230.98"/>
</g>
<!-- Node33&#45;&gt;Node30 -->
<g id="edge55" class="edge">
<title>Node33&#45;&gt;Node30</title>
<path fill="none" stroke="midnightblue" d="M2086.11,-236.52C2062.64,-224.98 2029.01,-208.44 2008.8,-198.51"/>
<polygon fill="midnightblue" stroke="midnightblue" points="2084.65,-239.7 2095.16,-240.98 2087.73,-233.42 2084.65,-239.7"/>
</g>
<!-- Node35&#45;&gt;Node3 -->
<g id="edge65" class="edge">
<title>Node35&#45;&gt;Node3</title>
<path fill="none" stroke="midnightblue" d="M1394.18,-302.44C1364.65,-284.41 1310.47,-253.29 1260.5,-235 1212.98,-217.61 1156.59,-205.7 1115.64,-198.52"/>
<polygon fill="midnightblue" stroke="midnightblue" points="1392.52,-305.53 1402.87,-307.8 1396.2,-299.57 1392.52,-305.53"/>
</g>
<!-- Node36&#45;&gt;Node3 -->
<g id="edge67" class="edge">
<title>Node36&#45;&gt;Node3</title>
<path fill="none" stroke="midnightblue" d="M2280.23,-300.96C2258.56,-281.41 2218.1,-248.71 2176.5,-235 2076.39,-202 1341.75,-192.6 1121.65,-190.51"/>
<polygon fill="midnightblue" stroke="midnightblue" points="2278.1,-303.77 2287.82,-307.98 2282.86,-298.63 2278.1,-303.77"/>
</g>
<!-- Node36&#45;&gt;Node21 -->
<g id="edge68" class="edge">
<title>Node36&#45;&gt;Node21</title>
<path fill="none" stroke="midnightblue" d="M2318.79,-302.15C2335.7,-291.27 2358.8,-276.4 2375.61,-265.59"/>
<polygon fill="midnightblue" stroke="midnightblue" points="2316.64,-299.38 2310.12,-307.73 2320.42,-305.27 2316.64,-299.38"/>
</g>
<!-- Node37&#45;&gt;Node3 -->
<g id="edge71" class="edge">
<title>Node37&#45;&gt;Node3</title>
<path fill="none" stroke="midnightblue" d="M1489.21,-361.47C1502.96,-344.1 1516.19,-319.89 1502.5,-302 1465.28,-253.37 1426.73,-287.8 1369.5,-266 1340.71,-255.03 1336.73,-244.74 1307.5,-235 1245.95,-214.5 1172.52,-202.65 1121.61,-196.31"/>
<polygon fill="midnightblue" stroke="midnightblue" points="1486.29,-359.5 1482.53,-369.4 1491.65,-364.01 1486.29,-359.5"/>
</g>
<!-- Node37&#45;&gt;Node21 -->
<g id="edge72" class="edge">
<title>Node37&#45;&gt;Node21</title>
<path fill="none" stroke="midnightblue" d="M1534.04,-382C1737.43,-377.07 2346.23,-360.1 2378.5,-333 2398.08,-316.55 2399.72,-284.2 2398.83,-265.58"/>
<polygon fill="midnightblue" stroke="midnightblue" points="1533.71,-378.51 1523.8,-382.25 1533.88,-385.51 1533.71,-378.51"/>
</g>
<!-- Node37&#45;&gt;Node22 -->
<g id="edge73" class="edge">
<title>Node37&#45;&gt;Node22</title>
<path fill="none" stroke="midnightblue" d="M1409.99,-366.67C1365.82,-353.97 1307.05,-337.06 1272.15,-327.03"/>
<polygon fill="midnightblue" stroke="midnightblue" points="1409.16,-370.08 1419.74,-369.48 1411.1,-363.35 1409.16,-370.08"/>
</g>
<!-- Node37&#45;&gt;Node35 -->
<g id="edge74" class="edge">
<title>Node37&#45;&gt;Node35</title>
<path fill="none" stroke="midnightblue" d="M1450.75,-361.32C1441.38,-349.6 1430.41,-335.88 1423.46,-327.19"/>
<polygon fill="midnightblue" stroke="midnightblue" points="1448.24,-363.77 1457.22,-369.4 1453.7,-359.4 1448.24,-363.77"/>
</g>
<!-- Node37&#45;&gt;Node36 -->
<g id="edge75" class="edge">
<title>Node37&#45;&gt;Node36</title>
<path fill="none" stroke="midnightblue" d="M1533.64,-381.19C1662.88,-376.13 1960.74,-362.14 2209.5,-333 2222.88,-331.43 2237.35,-329.23 2250.56,-327.01"/>
<polygon fill="midnightblue" stroke="midnightblue" points="1533.37,-377.7 1523.51,-381.58 1533.64,-384.69 1533.37,-377.7"/>
</g>
<!-- Node38&#45;&gt;Node3 -->
<g id="edge78" class="edge">
<title>Node38&#45;&gt;Node3</title>
<path fill="none" stroke="midnightblue" d="M238.94,-551.92C220.28,-530.88 191.5,-492.02 191.5,-452.5 191.5,-452.5 191.5,-452.5 191.5,-316.5 191.5,-288.02 75.66,-300.94 427.5,-235 633.73,-196.35 883.52,-190.31 997.45,-189.75"/>
<polygon fill="midnightblue" stroke="midnightblue" points="236.39,-554.33 245.74,-559.32 241.55,-549.59 236.39,-554.33"/>
</g>
</g>
</svg>
