<?xml version="1.0" encoding="UTF-8" standalone="no"?>
<!DOCTYPE svg PUBLIC "-//W3C//DTD SVG 1.1//EN"
 "http://www.w3.org/Graphics/SVG/1.1/DTD/svg11.dtd">
<!-- Generated by graphviz version 2.43.0 (0)
 -->
<!-- Title: src/crypto/openssl/key_pair.h Pages: 1 -->
<svg width="2024pt" height="498pt"
 viewBox="0.00 0.00 2023.65 498.00" xmlns="http://www.w3.org/2000/svg" xmlns:xlink="http://www.w3.org/1999/xlink">
<g id="graph0" class="graph" transform="scale(1 1) rotate(0) translate(4 494)">
<title>src/crypto/openssl/key_pair.h</title>
<polygon fill="white" stroke="transparent" points="-4,4 -4,-494 2019.65,-494 2019.65,4 -4,4"/>
<!-- Node1 -->
<g id="node1" class="node">
<title>Node1</title>
<g id="a_node1"><a xlink:title=" ">
<polygon fill="#bfbfbf" stroke="black" points="470.5,-459.5 470.5,-489.5 575.5,-489.5 575.5,-459.5 470.5,-459.5"/>
<text text-anchor="start" x="478.5" y="-477.5" font-family="Helvetica,sans-Serif" font-size="10.00">src/crypto/openssl</text>
<text text-anchor="middle" x="523" y="-466.5" font-family="Helvetica,sans-Serif" font-size="10.00">/key_pair.h</text>
</a>
</g>
</g>
<!-- Node2 -->
<g id="node2" class="node">
<title>Node2</title>
<g id="a_node2"><a xlink:href="include_2ccf_2crypto_2key__pair_8h.html" target="_top" xlink:title=" ">
<polygon fill="white" stroke="black" points="377.5,-398 377.5,-417 494.5,-417 494.5,-398 377.5,-398"/>
<text text-anchor="middle" x="436" y="-405" font-family="Helvetica,sans-Serif" font-size="10.00">ccf/crypto/key_pair.h</text>
</a>
</g>
</g>
<!-- Node1&#45;&gt;Node2 -->
<g id="edge1" class="edge">
<title>Node1&#45;&gt;Node2</title>
<path fill="none" stroke="midnightblue" d="M504.12,-459.4C489.89,-448.76 470.4,-434.2 455.92,-423.38"/>
<polygon fill="midnightblue" stroke="midnightblue" points="457.74,-420.38 447.64,-417.19 453.55,-425.98 457.74,-420.38"/>
</g>
<!-- Node7 -->
<g id="node7" class="node">
<title>Node7</title>
<g id="a_node7"><a xlink:title=" ">
<polygon fill="white" stroke="#bfbfbf" points="127,-0.5 127,-19.5 171,-19.5 171,-0.5 127,-0.5"/>
<text text-anchor="middle" x="149" y="-7.5" font-family="Helvetica,sans-Serif" font-size="10.00">string</text>
</a>
</g>
</g>
<!-- Node1&#45;&gt;Node7 -->
<g id="edge87" class="edge">
<title>Node1&#45;&gt;Node7</title>
<path fill="none" stroke="midnightblue" d="M470.46,-471.9C337.83,-466.44 0,-443.1 0,-347 0,-347 0,-347 0,-121 0,-63.28 73.27,-32.42 117.05,-19.13"/>
<polygon fill="midnightblue" stroke="midnightblue" points="118.06,-22.48 126.69,-16.34 116.11,-15.76 118.06,-22.48"/>
</g>
<!-- Node20 -->
<g id="node20" class="node">
<title>Node20</title>
<g id="a_node20"><a xlink:title=" ">
<polygon fill="white" stroke="#bfbfbf" points="672.5,-224.5 672.5,-243.5 737.5,-243.5 737.5,-224.5 672.5,-224.5"/>
<text text-anchor="middle" x="705" y="-231.5" font-family="Helvetica,sans-Serif" font-size="10.00">stdexcept</text>
</a>
</g>
</g>
<!-- Node1&#45;&gt;Node20 -->
<g id="edge86" class="edge">
<title>Node1&#45;&gt;Node20</title>
<path fill="none" stroke="midnightblue" d="M533.84,-459.29C565.48,-417.83 657.66,-297.04 691.95,-252.1"/>
<polygon fill="midnightblue" stroke="midnightblue" points="694.89,-254.02 698.17,-243.95 689.32,-249.77 694.89,-254.02"/>
</g>
<!-- Node26 -->
<g id="node26" class="node">
<title>Node26</title>
<g id="a_node26"><a xlink:href="include_2ccf_2crypto_2public__key_8h.html" target="_top" xlink:title=" ">
<polygon fill="white" stroke="black" points="416.5,-336.5 416.5,-355.5 543.5,-355.5 543.5,-336.5 416.5,-336.5"/>
<text text-anchor="middle" x="480" y="-343.5" font-family="Helvetica,sans-Serif" font-size="10.00">ccf/crypto/public_key.h</text>
</a>
</g>
</g>
<!-- Node1&#45;&gt;Node26 -->
<g id="edge55" class="edge">
<title>Node1&#45;&gt;Node26</title>
<path fill="none" stroke="midnightblue" d="M520.85,-459.33C518.09,-442.81 512.59,-414.85 504,-392 500.46,-382.57 495.32,-372.64 490.71,-364.51"/>
<polygon fill="midnightblue" stroke="midnightblue" points="493.58,-362.48 485.49,-355.64 487.55,-366.04 493.58,-362.48"/>
</g>
<!-- Node30 -->
<g id="node30" class="node">
<title>Node30</title>
<g id="a_node30"><a xlink:title=" ">
<polygon fill="white" stroke="#bfbfbf" points="68,-280.5 68,-299.5 124,-299.5 124,-280.5 68,-280.5"/>
<text text-anchor="middle" x="96" y="-287.5" font-family="Helvetica,sans-Serif" font-size="10.00">optional</text>
</a>
</g>
</g>
<!-- Node1&#45;&gt;Node30 -->
<g id="edge85" class="edge">
<title>Node1&#45;&gt;Node30</title>
<path fill="none" stroke="midnightblue" d="M470.3,-473.66C383.96,-470.99 212.27,-452.88 115,-356 102.91,-343.95 98.42,-324.66 96.8,-310.22"/>
<polygon fill="midnightblue" stroke="midnightblue" points="100.26,-309.62 96.03,-299.91 93.28,-310.14 100.26,-309.62"/>
</g>
<!-- Node31 -->
<g id="node31" class="node">
<title>Node31</title>
<g id="a_node31"><a xlink:href="src_2crypto_2openssl_2public__key_8h.html" target="_top" xlink:title=" ">
<polygon fill="white" stroke="black" points="852,-392.5 852,-422.5 972,-422.5 972,-392.5 852,-392.5"/>
<text text-anchor="start" x="860" y="-410.5" font-family="Helvetica,sans-Serif" font-size="10.00">crypto/openssl/public</text>
<text text-anchor="middle" x="912" y="-399.5" font-family="Helvetica,sans-Serif" font-size="10.00">_key.h</text>
</a>
</g>
</g>
<!-- Node1&#45;&gt;Node31 -->
<g id="edge56" class="edge">
<title>Node1&#45;&gt;Node31</title>
<path fill="none" stroke="midnightblue" d="M575.87,-464.67C644.75,-453.16 765.41,-432.99 841.88,-420.22"/>
<polygon fill="midnightblue" stroke="midnightblue" points="842.62,-423.64 851.9,-418.54 841.46,-416.74 842.62,-423.64"/>
</g>
<!-- Node32 -->
<g id="node32" class="node">
<title>Node32</title>
<g id="a_node32"><a xlink:href="openssl__wrappers_8h.html" target="_top" xlink:title=" ">
<polygon fill="white" stroke="black" points="1236.5,-280.5 1236.5,-299.5 1349.5,-299.5 1349.5,-280.5 1236.5,-280.5"/>
<text text-anchor="middle" x="1293" y="-287.5" font-family="Helvetica,sans-Serif" font-size="10.00">openssl_wrappers.h</text>
</a>
</g>
</g>
<!-- Node1&#45;&gt;Node32 -->
<g id="edge84" class="edge">
<title>Node1&#45;&gt;Node32</title>
<path fill="none" stroke="midnightblue" d="M575.75,-472.63C661.91,-470.11 837.6,-460.39 981,-423 1092.75,-393.87 1216.61,-331.77 1268.27,-304.42"/>
<polygon fill="midnightblue" stroke="midnightblue" points="1270.17,-307.37 1277.34,-299.58 1266.87,-301.2 1270.17,-307.37"/>
</g>
<!-- Node3 -->
<g id="node3" class="node">
<title>Node3</title>
<g id="a_node3"><a xlink:href="curve_8h.html" target="_top" xlink:title=" ">
<polygon fill="white" stroke="black" points="520,-280.5 520,-299.5 624,-299.5 624,-280.5 520,-280.5"/>
<text text-anchor="middle" x="572" y="-287.5" font-family="Helvetica,sans-Serif" font-size="10.00">ccf/crypto/curve.h</text>
</a>
</g>
</g>
<!-- Node2&#45;&gt;Node3 -->
<g id="edge2" class="edge">
<title>Node2&#45;&gt;Node3</title>
<path fill="none" stroke="midnightblue" d="M477.58,-398C502.69,-390.82 533.51,-378.05 553,-356 564.3,-343.21 568.9,-324.02 570.76,-309.8"/>
<polygon fill="midnightblue" stroke="midnightblue" points="574.26,-309.98 571.74,-299.69 567.29,-309.3 574.26,-309.98"/>
</g>
<!-- Node2&#45;&gt;Node7 -->
<g id="edge53" class="edge">
<title>Node2&#45;&gt;Node7</title>
<path fill="none" stroke="midnightblue" d="M377.22,-401.63C297.46,-394.29 159.75,-378.77 115,-356 58.61,-327.31 40,-298.27 40,-235 40,-235 40,-235 40,-121 40,-75.12 88.44,-41.53 120.73,-24.23"/>
<polygon fill="midnightblue" stroke="midnightblue" points="122.47,-27.27 129.76,-19.58 119.27,-21.04 122.47,-27.27"/>
</g>
<!-- Node8 -->
<g id="node8" class="node">
<title>Node8</title>
<g id="a_node8"><a xlink:title=" ">
<polygon fill="white" stroke="#bfbfbf" points="978.5,-0.5 978.5,-19.5 1025.5,-19.5 1025.5,-0.5 978.5,-0.5"/>
<text text-anchor="middle" x="1002" y="-7.5" font-family="Helvetica,sans-Serif" font-size="10.00">vector</text>
</a>
</g>
</g>
<!-- Node2&#45;&gt;Node8 -->
<g id="edge54" class="edge">
<title>Node2&#45;&gt;Node8</title>
<path fill="none" stroke="midnightblue" d="M494.84,-402.6C773.97,-383.84 1953.28,-301.36 2005,-244 2101.94,-136.5 1495.91,-225.15 1356,-188 1286.53,-169.55 1094.18,-63.05 1026.19,-24.73"/>
<polygon fill="midnightblue" stroke="midnightblue" points="1027.52,-21.46 1017.09,-19.59 1024.08,-27.55 1027.52,-21.46"/>
</g>
<!-- Node21 -->
<g id="node21" class="node">
<title>Node21</title>
<g id="a_node21"><a xlink:href="pem_8h.html" target="_top" xlink:title=" ">
<polygon fill="white" stroke="black" points="794,-224.5 794,-243.5 892,-243.5 892,-224.5 794,-224.5"/>
<text text-anchor="middle" x="843" y="-231.5" font-family="Helvetica,sans-Serif" font-size="10.00">ccf/crypto/pem.h</text>
</a>
</g>
</g>
<!-- Node2&#45;&gt;Node21 -->
<g id="edge27" class="edge">
<title>Node2&#45;&gt;Node21</title>
<path fill="none" stroke="midnightblue" d="M460.75,-397.85C488.15,-388.15 533.53,-371.71 572,-356 662.14,-319.18 766.88,-270.78 815.54,-247.97"/>
<polygon fill="midnightblue" stroke="midnightblue" points="817.21,-251.05 824.77,-243.63 814.24,-244.71 817.21,-251.05"/>
</g>
<!-- Node2&#45;&gt;Node26 -->
<g id="edge35" class="edge">
<title>Node2&#45;&gt;Node26</title>
<path fill="none" stroke="midnightblue" d="M442.3,-397.98C448.9,-389.05 459.44,-374.81 467.69,-363.64"/>
<polygon fill="midnightblue" stroke="midnightblue" points="470.58,-365.63 473.71,-355.51 464.95,-361.47 470.58,-365.63"/>
</g>
<!-- Node28 -->
<g id="node28" class="node">
<title>Node28</title>
<g id="a_node28"><a xlink:title=" ">
<polygon fill="white" stroke="#bfbfbf" points="165,-224.5 165,-243.5 215,-243.5 215,-224.5 165,-224.5"/>
<text text-anchor="middle" x="190" y="-231.5" font-family="Helvetica,sans-Serif" font-size="10.00">cstdint</text>
</a>
</g>
</g>
<!-- Node2&#45;&gt;Node28 -->
<g id="edge51" class="edge">
<title>Node2&#45;&gt;Node28</title>
<path fill="none" stroke="midnightblue" d="M418.76,-397.96C400.11,-388.48 369.71,-372.36 345,-356 292.89,-321.5 236.05,-274.47 207.89,-250.47"/>
<polygon fill="midnightblue" stroke="midnightblue" points="209.98,-247.65 200.1,-243.8 205.42,-252.96 209.98,-247.65"/>
</g>
<!-- Node29 -->
<g id="node29" class="node">
<title>Node29</title>
<g id="a_node29"><a xlink:href="san_8h.html" target="_top" xlink:title=" ">
<polygon fill="white" stroke="black" points="271,-224.5 271,-243.5 365,-243.5 365,-224.5 271,-224.5"/>
<text text-anchor="middle" x="318" y="-231.5" font-family="Helvetica,sans-Serif" font-size="10.00">ccf/crypto/san.h</text>
</a>
</g>
</g>
<!-- Node2&#45;&gt;Node29 -->
<g id="edge50" class="edge">
<title>Node2&#45;&gt;Node29</title>
<path fill="none" stroke="midnightblue" d="M421.35,-397.88C396.09,-382.11 344.97,-345.97 323,-300 316.14,-285.64 315.3,-267.44 315.95,-253.96"/>
<polygon fill="midnightblue" stroke="midnightblue" points="319.44,-254.17 316.74,-243.92 312.46,-253.62 319.44,-254.17"/>
</g>
<!-- Node2&#45;&gt;Node30 -->
<g id="edge52" class="edge">
<title>Node2&#45;&gt;Node30</title>
<path fill="none" stroke="midnightblue" d="M377.22,-402.15C301.88,-395.62 176.4,-381.29 138,-356 121.04,-344.83 109.47,-324.2 102.83,-309.16"/>
<polygon fill="midnightblue" stroke="midnightblue" points="106.05,-307.77 99.02,-299.84 99.57,-310.42 106.05,-307.77"/>
</g>
<!-- Node4 -->
<g id="node4" class="node">
<title>Node4</title>
<g id="a_node4"><a xlink:href="md__type_8h.html" target="_top" xlink:title=" ">
<polygon fill="white" stroke="black" points="535.5,-224.5 535.5,-243.5 654.5,-243.5 654.5,-224.5 535.5,-224.5"/>
<text text-anchor="middle" x="595" y="-231.5" font-family="Helvetica,sans-Serif" font-size="10.00">ccf/crypto/md_type.h</text>
</a>
</g>
</g>
<!-- Node3&#45;&gt;Node4 -->
<g id="edge3" class="edge">
<title>Node3&#45;&gt;Node4</title>
<path fill="none" stroke="midnightblue" d="M575.8,-280.08C578.91,-272.77 583.42,-262.18 587.29,-253.1"/>
<polygon fill="midnightblue" stroke="midnightblue" points="590.57,-254.32 591.27,-243.75 584.13,-251.58 590.57,-254.32"/>
</g>
<!-- Node5 -->
<g id="node5" class="node">
<title>Node5</title>
<g id="a_node5"><a xlink:href="json_8h.html" target="_top" xlink:title=" ">
<polygon fill="white" stroke="black" points="572.5,-168.5 572.5,-187.5 649.5,-187.5 649.5,-168.5 572.5,-168.5"/>
<text text-anchor="middle" x="611" y="-175.5" font-family="Helvetica,sans-Serif" font-size="10.00">ccf/ds/json.h</text>
</a>
</g>
</g>
<!-- Node3&#45;&gt;Node5 -->
<g id="edge23" class="edge">
<title>Node3&#45;&gt;Node5</title>
<path fill="none" stroke="midnightblue" d="M558.52,-280.41C541.11,-268.2 514.45,-244.96 527,-224 536.15,-208.72 552.46,-198.33 568.29,-191.43"/>
<polygon fill="midnightblue" stroke="midnightblue" points="570.01,-194.51 578.01,-187.56 567.43,-188 570.01,-194.51"/>
</g>
<!-- Node3&#45;&gt;Node7 -->
<g id="edge26" class="edge">
<title>Node3&#45;&gt;Node7</title>
<path fill="none" stroke="midnightblue" d="M519.72,-284.1C436.81,-275.92 282.41,-258.93 262,-244 188.24,-190.03 160.37,-74.83 152.02,-29.69"/>
<polygon fill="midnightblue" stroke="midnightblue" points="155.42,-28.84 150.26,-19.58 148.52,-30.04 155.42,-28.84"/>
</g>
<!-- Node16 -->
<g id="node16" class="node">
<title>Node16</title>
<g id="a_node16"><a xlink:title=" ">
<polygon fill="white" stroke="#bfbfbf" points="477.5,-56.5 477.5,-75.5 556.5,-75.5 556.5,-56.5 477.5,-56.5"/>
<text text-anchor="middle" x="517" y="-63.5" font-family="Helvetica,sans-Serif" font-size="10.00">fmt/format.h</text>
</a>
</g>
</g>
<!-- Node3&#45;&gt;Node16 -->
<g id="edge24" class="edge">
<title>Node3&#45;&gt;Node16</title>
<path fill="none" stroke="midnightblue" d="M542.21,-280.46C503.48,-267.57 437.42,-239.05 409,-188 404.68,-180.23 405.19,-176.03 409,-168 419.82,-145.17 434.33,-149.03 453,-132 470.44,-116.09 489.27,-96.67 501.96,-83.22"/>
<polygon fill="midnightblue" stroke="midnightblue" points="504.72,-85.4 509,-75.71 499.61,-80.61 504.72,-85.4"/>
</g>
<!-- Node19 -->
<g id="node19" class="node">
<title>Node19</title>
<g id="a_node19"><a xlink:href="enum__formatter_8h.html" target="_top" xlink:title=" ">
<polygon fill="white" stroke="black" points="418,-168.5 418,-187.5 554,-187.5 554,-168.5 418,-168.5"/>
<text text-anchor="middle" x="486" y="-175.5" font-family="Helvetica,sans-Serif" font-size="10.00">ccf/ds/enum_formatter.h</text>
</a>
</g>
</g>
<!-- Node3&#45;&gt;Node19 -->
<g id="edge21" class="edge">
<title>Node3&#45;&gt;Node19</title>
<path fill="none" stroke="midnightblue" d="M558.95,-280.21C547.36,-271.91 530.52,-258.59 519,-244 507.63,-229.59 498.55,-210.65 492.81,-196.93"/>
<polygon fill="midnightblue" stroke="midnightblue" points="496.06,-195.61 489.1,-187.62 489.56,-198.21 496.06,-195.61"/>
</g>
<!-- Node3&#45;&gt;Node20 -->
<g id="edge25" class="edge">
<title>Node3&#45;&gt;Node20</title>
<path fill="none" stroke="midnightblue" d="M593.07,-280.44C615.06,-271.52 649.73,-257.44 674.66,-247.32"/>
<polygon fill="midnightblue" stroke="midnightblue" points="676.08,-250.52 684.02,-243.52 673.44,-244.04 676.08,-250.52"/>
</g>
<!-- Node4&#45;&gt;Node5 -->
<g id="edge4" class="edge">
<title>Node4&#45;&gt;Node5</title>
<path fill="none" stroke="midnightblue" d="M597.64,-224.08C599.79,-216.85 602.88,-206.41 605.55,-197.4"/>
<polygon fill="midnightblue" stroke="midnightblue" points="608.92,-198.33 608.41,-187.75 602.21,-196.34 608.92,-198.33"/>
</g>
<!-- Node6 -->
<g id="node6" class="node">
<title>Node6</title>
<g id="a_node6"><a xlink:href="include_2ccf_2crypto_2base64_8h.html" target="_top" xlink:title=" ">
<polygon fill="white" stroke="black" points="574,-56.5 574,-75.5 686,-75.5 686,-56.5 574,-56.5"/>
<text text-anchor="middle" x="630" y="-63.5" font-family="Helvetica,sans-Serif" font-size="10.00">ccf/crypto/base64.h</text>
</a>
</g>
</g>
<!-- Node5&#45;&gt;Node6 -->
<g id="edge5" class="edge">
<title>Node5&#45;&gt;Node6</title>
<path fill="none" stroke="midnightblue" d="M612.49,-168.37C615.56,-150.62 622.63,-109.67 626.79,-85.6"/>
<polygon fill="midnightblue" stroke="midnightblue" points="630.26,-86.04 628.52,-75.59 623.36,-84.85 630.26,-86.04"/>
</g>
<!-- Node9 -->
<g id="node9" class="node">
<title>Node9</title>
<g id="a_node9"><a xlink:href="include_2ccf_2ds_2json__schema_8h.html" target="_top" xlink:title=" ">
<polygon fill="white" stroke="black" points="279.5,-112.5 279.5,-131.5 400.5,-131.5 400.5,-112.5 279.5,-112.5"/>
<text text-anchor="middle" x="340" y="-119.5" font-family="Helvetica,sans-Serif" font-size="10.00">ccf/ds/json_schema.h</text>
</a>
</g>
</g>
<!-- Node5&#45;&gt;Node9 -->
<g id="edge8" class="edge">
<title>Node5&#45;&gt;Node9</title>
<path fill="none" stroke="midnightblue" d="M572.46,-169.32C525.37,-159.94 445.48,-144.02 392.72,-133.51"/>
<polygon fill="midnightblue" stroke="midnightblue" points="393.37,-130.07 382.88,-131.54 392,-136.93 393.37,-130.07"/>
</g>
<!-- Node5&#45;&gt;Node16 -->
<g id="edge19" class="edge">
<title>Node5&#45;&gt;Node16</title>
<path fill="none" stroke="midnightblue" d="M603.62,-168.37C587.97,-150.05 551.22,-107.05 530.98,-83.36"/>
<polygon fill="midnightblue" stroke="midnightblue" points="533.5,-80.92 524.34,-75.59 528.18,-85.47 533.5,-80.92"/>
</g>
<!-- Node18 -->
<g id="node18" class="node">
<title>Node18</title>
<g id="a_node18"><a xlink:title=" ">
<polygon fill="white" stroke="#bfbfbf" points="918,-112.5 918,-131.5 974,-131.5 974,-112.5 918,-112.5"/>
<text text-anchor="middle" x="946" y="-119.5" font-family="Helvetica,sans-Serif" font-size="10.00">sstream</text>
</a>
</g>
</g>
<!-- Node5&#45;&gt;Node18 -->
<g id="edge20" class="edge">
<title>Node5&#45;&gt;Node18</title>
<path fill="none" stroke="midnightblue" d="M649.76,-170.75C714.36,-160.34 843.32,-139.55 907.65,-129.18"/>
<polygon fill="midnightblue" stroke="midnightblue" points="908.46,-132.6 917.77,-127.55 907.34,-125.69 908.46,-132.6"/>
</g>
<!-- Node6&#45;&gt;Node7 -->
<g id="edge6" class="edge">
<title>Node6&#45;&gt;Node7</title>
<path fill="none" stroke="midnightblue" d="M573.83,-56.95C571.18,-56.62 568.56,-56.3 566,-56 397.52,-36.18 353.3,-48.12 186,-20 184.49,-19.75 182.96,-19.47 181.41,-19.16"/>
<polygon fill="midnightblue" stroke="midnightblue" points="181.71,-15.65 171.2,-16.95 180.23,-22.49 181.71,-15.65"/>
</g>
<!-- Node6&#45;&gt;Node8 -->
<g id="edge7" class="edge">
<title>Node6&#45;&gt;Node8</title>
<path fill="none" stroke="midnightblue" d="M686.09,-56.86C764.54,-45.47 904.56,-25.14 968.5,-15.86"/>
<polygon fill="midnightblue" stroke="midnightblue" points="969.05,-19.32 978.44,-14.42 968.04,-12.39 969.05,-19.32"/>
</g>
<!-- Node10 -->
<g id="node10" class="node">
<title>Node10</title>
<g id="a_node10"><a xlink:href="nonstd_8h.html" target="_top" xlink:title=" ">
<polygon fill="white" stroke="black" points="241,-56.5 241,-75.5 331,-75.5 331,-56.5 241,-56.5"/>
<text text-anchor="middle" x="286" y="-63.5" font-family="Helvetica,sans-Serif" font-size="10.00">ccf/ds/nonstd.h</text>
</a>
</g>
</g>
<!-- Node9&#45;&gt;Node10 -->
<g id="edge9" class="edge">
<title>Node9&#45;&gt;Node10</title>
<path fill="none" stroke="midnightblue" d="M331.08,-112.08C323.22,-104.22 311.57,-92.57 302.08,-83.08"/>
<polygon fill="midnightblue" stroke="midnightblue" points="304.3,-80.35 294.75,-75.75 299.35,-85.3 304.3,-80.35"/>
</g>
<!-- Node9&#45;&gt;Node16 -->
<g id="edge17" class="edge">
<title>Node9&#45;&gt;Node16</title>
<path fill="none" stroke="midnightblue" d="M368.05,-112.44C398.08,-103.28 445.91,-88.69 479.24,-78.52"/>
<polygon fill="midnightblue" stroke="midnightblue" points="480.54,-81.78 489.09,-75.52 478.5,-75.09 480.54,-81.78"/>
</g>
<!-- Node17 -->
<g id="node17" class="node">
<title>Node17</title>
<g id="a_node17"><a xlink:title=" ">
<polygon fill="white" stroke="#bfbfbf" points="349,-56.5 349,-75.5 459,-75.5 459,-56.5 349,-56.5"/>
<text text-anchor="middle" x="404" y="-63.5" font-family="Helvetica,sans-Serif" font-size="10.00">nlohmann/json.hpp</text>
</a>
</g>
</g>
<!-- Node9&#45;&gt;Node17 -->
<g id="edge18" class="edge">
<title>Node9&#45;&gt;Node17</title>
<path fill="none" stroke="midnightblue" d="M350.28,-112.32C359.84,-104.26 374.28,-92.08 385.78,-82.37"/>
<polygon fill="midnightblue" stroke="midnightblue" points="388.14,-84.96 393.53,-75.83 383.63,-79.61 388.14,-84.96"/>
</g>
<!-- Node10&#45;&gt;Node7 -->
<g id="edge13" class="edge">
<title>Node10&#45;&gt;Node7</title>
<path fill="none" stroke="midnightblue" d="M264.29,-56.44C241.65,-47.52 205.93,-33.44 180.25,-23.32"/>
<polygon fill="midnightblue" stroke="midnightblue" points="181.19,-19.93 170.61,-19.52 178.63,-26.44 181.19,-19.93"/>
</g>
<!-- Node10&#45;&gt;Node8 -->
<g id="edge16" class="edge">
<title>Node10&#45;&gt;Node8</title>
<path fill="none" stroke="midnightblue" d="M331.03,-57.16C334.06,-56.73 337.07,-56.34 340,-56 579.86,-27.93 870.82,-15.65 968.33,-12.13"/>
<polygon fill="midnightblue" stroke="midnightblue" points="968.6,-15.62 978.47,-11.77 968.35,-8.63 968.6,-15.62"/>
</g>
<!-- Node11 -->
<g id="node11" class="node">
<title>Node11</title>
<g id="a_node11"><a xlink:title=" ">
<polygon fill="white" stroke="#bfbfbf" points="410,-0.5 410,-19.5 474,-19.5 474,-0.5 410,-0.5"/>
<text text-anchor="middle" x="442" y="-7.5" font-family="Helvetica,sans-Serif" font-size="10.00">algorithm</text>
</a>
</g>
</g>
<!-- Node10&#45;&gt;Node11 -->
<g id="edge10" class="edge">
<title>Node10&#45;&gt;Node11</title>
<path fill="none" stroke="midnightblue" d="M310.72,-56.44C336.85,-47.4 378.26,-33.06 407.58,-22.92"/>
<polygon fill="midnightblue" stroke="midnightblue" points="409.09,-26.1 417.4,-19.52 406.8,-19.48 409.09,-26.1"/>
</g>
<!-- Node12 -->
<g id="node12" class="node">
<title>Node12</title>
<g id="a_node12"><a xlink:title=" ">
<polygon fill="white" stroke="#bfbfbf" points="195,-0.5 195,-19.5 237,-19.5 237,-0.5 195,-0.5"/>
<text text-anchor="middle" x="216" y="-7.5" font-family="Helvetica,sans-Serif" font-size="10.00">array</text>
</a>
</g>
</g>
<!-- Node10&#45;&gt;Node12 -->
<g id="edge11" class="edge">
<title>Node10&#45;&gt;Node12</title>
<path fill="none" stroke="midnightblue" d="M274.75,-56.32C264.2,-48.18 248.2,-35.84 235.56,-26.09"/>
<polygon fill="midnightblue" stroke="midnightblue" points="237.51,-23.17 227.45,-19.83 233.23,-28.71 237.51,-23.17"/>
</g>
<!-- Node13 -->
<g id="node13" class="node">
<title>Node13</title>
<g id="a_node13"><a xlink:title=" ">
<polygon fill="white" stroke="#bfbfbf" points="255.5,-0.5 255.5,-19.5 304.5,-19.5 304.5,-0.5 255.5,-0.5"/>
<text text-anchor="middle" x="280" y="-7.5" font-family="Helvetica,sans-Serif" font-size="10.00">cctype</text>
</a>
</g>
</g>
<!-- Node10&#45;&gt;Node13 -->
<g id="edge12" class="edge">
<title>Node10&#45;&gt;Node13</title>
<path fill="none" stroke="midnightblue" d="M285.01,-56.08C284.21,-48.93 283.07,-38.64 282.08,-29.69"/>
<polygon fill="midnightblue" stroke="midnightblue" points="285.56,-29.3 280.97,-19.75 278.6,-30.08 285.56,-29.3"/>
</g>
<!-- Node14 -->
<g id="node14" class="node">
<title>Node14</title>
<g id="a_node14"><a xlink:title=" ">
<polygon fill="white" stroke="#bfbfbf" points="673.5,-0.5 673.5,-19.5 746.5,-19.5 746.5,-0.5 673.5,-0.5"/>
<text text-anchor="middle" x="710" y="-7.5" font-family="Helvetica,sans-Serif" font-size="10.00">string_view</text>
</a>
</g>
</g>
<!-- Node10&#45;&gt;Node14 -->
<g id="edge14" class="edge">
<title>Node10&#45;&gt;Node14</title>
<path fill="none" stroke="midnightblue" d="M331.06,-57.34C334.08,-56.87 337.08,-56.42 340,-56 455.9,-39.3 592.83,-23.73 663.14,-16.03"/>
<polygon fill="midnightblue" stroke="midnightblue" points="663.87,-19.47 673.43,-14.91 663.11,-12.51 663.87,-19.47"/>
</g>
<!-- Node15 -->
<g id="node15" class="node">
<title>Node15</title>
<g id="a_node15"><a xlink:title=" ">
<polygon fill="white" stroke="#bfbfbf" points="322.5,-0.5 322.5,-19.5 391.5,-19.5 391.5,-0.5 322.5,-0.5"/>
<text text-anchor="middle" x="357" y="-7.5" font-family="Helvetica,sans-Serif" font-size="10.00">type_traits</text>
</a>
</g>
</g>
<!-- Node10&#45;&gt;Node15 -->
<g id="edge15" class="edge">
<title>Node10&#45;&gt;Node15</title>
<path fill="none" stroke="midnightblue" d="M297.41,-56.32C308.11,-48.18 324.34,-35.84 337.16,-26.09"/>
<polygon fill="midnightblue" stroke="midnightblue" points="339.54,-28.67 345.39,-19.83 335.31,-23.1 339.54,-28.67"/>
</g>
<!-- Node19&#45;&gt;Node16 -->
<g id="edge22" class="edge">
<title>Node19&#45;&gt;Node16</title>
<path fill="none" stroke="midnightblue" d="M488.43,-168.37C493.46,-150.54 505.08,-109.3 511.85,-85.27"/>
<polygon fill="midnightblue" stroke="midnightblue" points="515.23,-86.17 514.58,-75.59 508.5,-84.27 515.23,-86.17"/>
</g>
<!-- Node21&#45;&gt;Node5 -->
<g id="edge28" class="edge">
<title>Node21&#45;&gt;Node5</title>
<path fill="none" stroke="midnightblue" d="M806.24,-224.44C765.94,-215.06 701.19,-199.99 657.42,-189.8"/>
<polygon fill="midnightblue" stroke="midnightblue" points="658.12,-186.37 647.59,-187.52 656.54,-193.19 658.12,-186.37"/>
</g>
<!-- Node21&#45;&gt;Node8 -->
<g id="edge34" class="edge">
<title>Node21&#45;&gt;Node8</title>
<path fill="none" stroke="midnightblue" d="M888.85,-224.49C912.65,-218.01 940.7,-206.87 960,-188 1003.81,-145.17 1005.34,-65.6 1003.51,-29.58"/>
<polygon fill="midnightblue" stroke="midnightblue" points="1007,-29.26 1002.85,-19.51 1000.01,-29.72 1007,-29.26"/>
</g>
<!-- Node21&#45;&gt;Node14 -->
<g id="edge33" class="edge">
<title>Node21&#45;&gt;Node14</title>
<path fill="none" stroke="midnightblue" d="M883.61,-224.49C918.39,-215.05 960.59,-197.17 945,-168 933.17,-145.87 790.13,-58.82 733.18,-24.76"/>
<polygon fill="midnightblue" stroke="midnightblue" points="734.89,-21.71 724.5,-19.59 731.3,-27.72 734.89,-21.71"/>
</g>
<!-- Node22 -->
<g id="node22" class="node">
<title>Node22</title>
<g id="a_node22"><a xlink:title=" ">
<polygon fill="white" stroke="#bfbfbf" points="744,-168.5 744,-187.5 794,-187.5 794,-168.5 744,-168.5"/>
<text text-anchor="middle" x="769" y="-175.5" font-family="Helvetica,sans-Serif" font-size="10.00">cstring</text>
</a>
</g>
</g>
<!-- Node21&#45;&gt;Node22 -->
<g id="edge29" class="edge">
<title>Node21&#45;&gt;Node22</title>
<path fill="none" stroke="midnightblue" d="M831.11,-224.32C819.85,-216.11 802.71,-203.6 789.29,-193.81"/>
<polygon fill="midnightblue" stroke="midnightblue" points="791.25,-190.9 781.11,-187.83 787.12,-196.56 791.25,-190.9"/>
</g>
<!-- Node23 -->
<g id="node23" class="node">
<title>Node23</title>
<g id="a_node23"><a xlink:title=" ">
<polygon fill="white" stroke="#bfbfbf" points="812.5,-168.5 812.5,-187.5 877.5,-187.5 877.5,-168.5 812.5,-168.5"/>
<text text-anchor="middle" x="845" y="-175.5" font-family="Helvetica,sans-Serif" font-size="10.00">exception</text>
</a>
</g>
</g>
<!-- Node21&#45;&gt;Node23 -->
<g id="edge30" class="edge">
<title>Node21&#45;&gt;Node23</title>
<path fill="none" stroke="midnightblue" d="M843.33,-224.08C843.59,-217.01 843.97,-206.86 844.3,-197.99"/>
<polygon fill="midnightblue" stroke="midnightblue" points="847.8,-197.87 844.68,-187.75 840.81,-197.61 847.8,-197.87"/>
</g>
<!-- Node24 -->
<g id="node24" class="node">
<title>Node24</title>
<g id="a_node24"><a xlink:title=" ">
<polygon fill="white" stroke="#bfbfbf" points="1030,-168.5 1030,-187.5 1088,-187.5 1088,-168.5 1030,-168.5"/>
<text text-anchor="middle" x="1059" y="-175.5" font-family="Helvetica,sans-Serif" font-size="10.00">memory</text>
</a>
</g>
</g>
<!-- Node21&#45;&gt;Node24 -->
<g id="edge31" class="edge">
<title>Node21&#45;&gt;Node24</title>
<path fill="none" stroke="midnightblue" d="M877.23,-224.44C916.05,-214.74 979.23,-198.94 1019.94,-188.76"/>
<polygon fill="midnightblue" stroke="midnightblue" points="1020.93,-192.13 1029.78,-186.3 1019.23,-185.33 1020.93,-192.13"/>
</g>
<!-- Node25 -->
<g id="node25" class="node">
<title>Node25</title>
<g id="a_node25"><a xlink:title=" ">
<polygon fill="white" stroke="#bfbfbf" points="896,-168.5 896,-187.5 936,-187.5 936,-168.5 896,-168.5"/>
<text text-anchor="middle" x="916" y="-175.5" font-family="Helvetica,sans-Serif" font-size="10.00">span</text>
</a>
</g>
</g>
<!-- Node21&#45;&gt;Node25 -->
<g id="edge32" class="edge">
<title>Node21&#45;&gt;Node25</title>
<path fill="none" stroke="midnightblue" d="M854.73,-224.32C865.84,-216.11 882.74,-203.6 895.98,-193.81"/>
<polygon fill="midnightblue" stroke="midnightblue" points="898.1,-196.59 904.06,-187.83 893.94,-190.97 898.1,-196.59"/>
</g>
<!-- Node26&#45;&gt;Node3 -->
<g id="edge36" class="edge">
<title>Node26&#45;&gt;Node3</title>
<path fill="none" stroke="midnightblue" d="M494.78,-336.32C509.27,-327.82 531.57,-314.73 548.49,-304.8"/>
<polygon fill="midnightblue" stroke="midnightblue" points="550.4,-307.74 557.26,-299.65 546.86,-301.7 550.4,-307.74"/>
</g>
<!-- Node26&#45;&gt;Node7 -->
<g id="edge48" class="edge">
<title>Node26&#45;&gt;Node7</title>
<path fill="none" stroke="midnightblue" d="M416.26,-344.19C341.91,-339.56 220.92,-319.89 156,-244 136.43,-221.13 137,-209.1 137,-179 137,-179 137,-179 137,-121 137,-88.76 142.16,-51.51 145.71,-29.68"/>
<polygon fill="midnightblue" stroke="midnightblue" points="149.21,-29.97 147.43,-19.52 142.31,-28.8 149.21,-29.97"/>
</g>
<!-- Node26&#45;&gt;Node8 -->
<g id="edge49" class="edge">
<title>Node26&#45;&gt;Node8</title>
<path fill="none" stroke="midnightblue" d="M518.76,-336.46C558.72,-327.6 622.8,-313.2 678,-300 777.39,-276.23 805.36,-279.99 901,-244 919.23,-237.14 921.7,-230.67 940,-224 1007.26,-199.48 1052.39,-243.99 1097,-188 1139.83,-134.24 1060.4,-58.34 1021.58,-26.26"/>
<polygon fill="midnightblue" stroke="midnightblue" points="1023.51,-23.33 1013.54,-19.76 1019.12,-28.77 1023.51,-23.33"/>
</g>
<!-- Node26&#45;&gt;Node21 -->
<g id="edge40" class="edge">
<title>Node26&#45;&gt;Node21</title>
<path fill="none" stroke="midnightblue" d="M509.37,-336.5C540.2,-327.54 590.06,-312.96 633,-300 693.76,-281.66 764.19,-259.72 806.09,-246.6"/>
<polygon fill="midnightblue" stroke="midnightblue" points="807.36,-249.87 815.85,-243.54 805.26,-243.19 807.36,-249.87"/>
</g>
<!-- Node27 -->
<g id="node27" class="node">
<title>Node27</title>
<g id="a_node27"><a xlink:href="hash__bytes_8h.html" target="_top" xlink:title=" ">
<polygon fill="white" stroke="black" points="332,-280.5 332,-299.5 464,-299.5 464,-280.5 332,-280.5"/>
<text text-anchor="middle" x="398" y="-287.5" font-family="Helvetica,sans-Serif" font-size="10.00">ccf/crypto/hash_bytes.h</text>
</a>
</g>
</g>
<!-- Node26&#45;&gt;Node27 -->
<g id="edge37" class="edge">
<title>Node26&#45;&gt;Node27</title>
<path fill="none" stroke="midnightblue" d="M466.83,-336.32C454.15,-327.98 434.77,-315.21 419.79,-305.35"/>
<polygon fill="midnightblue" stroke="midnightblue" points="421.42,-302.23 411.14,-299.65 417.57,-308.08 421.42,-302.23"/>
</g>
<!-- Node26&#45;&gt;Node28 -->
<g id="edge46" class="edge">
<title>Node26&#45;&gt;Node28</title>
<path fill="none" stroke="midnightblue" d="M443.56,-336.49C411.35,-328.51 363.36,-315.51 323,-300 283.69,-284.89 240.2,-262.49 214,-248.33"/>
<polygon fill="midnightblue" stroke="midnightblue" points="215.62,-245.22 205.17,-243.51 212.27,-251.37 215.62,-245.22"/>
</g>
<!-- Node26&#45;&gt;Node29 -->
<g id="edge41" class="edge">
<title>Node26&#45;&gt;Node29</title>
<path fill="none" stroke="midnightblue" d="M481.83,-336.26C484.16,-322.58 486.42,-296 473,-280 460.23,-264.77 414.04,-252.61 375.37,-244.78"/>
<polygon fill="midnightblue" stroke="midnightblue" points="375.7,-241.28 365.22,-242.79 374.36,-248.15 375.7,-241.28"/>
</g>
<!-- Node26&#45;&gt;Node30 -->
<g id="edge47" class="edge">
<title>Node26&#45;&gt;Node30</title>
<path fill="none" stroke="midnightblue" d="M419.15,-336.44C339.26,-325.21 201.33,-305.81 134.5,-296.41"/>
<polygon fill="midnightblue" stroke="midnightblue" points="134.8,-292.92 124.41,-295 133.82,-299.85 134.8,-292.92"/>
</g>
<!-- Node27&#45;&gt;Node8 -->
<g id="edge39" class="edge">
<title>Node27&#45;&gt;Node8</title>
<path fill="none" stroke="midnightblue" d="M412.65,-280.39C436.13,-266.88 483.92,-240.54 527,-224 583.77,-202.21 602.33,-210.06 659,-188 785.06,-138.91 925.6,-57.17 979.39,-24.81"/>
<polygon fill="midnightblue" stroke="midnightblue" points="981.38,-27.7 988.12,-19.53 977.75,-21.71 981.38,-27.7"/>
</g>
<!-- Node27&#45;&gt;Node28 -->
<g id="edge38" class="edge">
<title>Node27&#45;&gt;Node28</title>
<path fill="none" stroke="midnightblue" d="M365.04,-280.44C326.87,-270.53 264.24,-254.27 225.16,-244.13"/>
<polygon fill="midnightblue" stroke="midnightblue" points="225.84,-240.69 215.28,-241.56 224.08,-247.46 225.84,-240.69"/>
</g>
<!-- Node29&#45;&gt;Node5 -->
<g id="edge42" class="edge">
<title>Node29&#45;&gt;Node5</title>
<path fill="none" stroke="midnightblue" d="M364.98,-224.42C412.18,-215.8 487.31,-202.03 562.38,-188.11"/>
<polygon fill="midnightblue" stroke="midnightblue" points="563.3,-191.5 572.49,-186.23 562.02,-184.62 563.3,-191.5"/>
</g>
<!-- Node29&#45;&gt;Node7 -->
<g id="edge45" class="edge">
<title>Node29&#45;&gt;Node7</title>
<path fill="none" stroke="midnightblue" d="M309.92,-224.29C301.8,-215.41 289.09,-201.11 279,-188 235.68,-131.74 232.68,-111.98 189,-56 181.28,-46.11 172.01,-35.6 164.34,-27.23"/>
<polygon fill="midnightblue" stroke="midnightblue" points="166.69,-24.62 157.32,-19.68 161.56,-29.38 166.69,-24.62"/>
</g>
<!-- Node29&#45;&gt;Node10 -->
<g id="edge43" class="edge">
<title>Node29&#45;&gt;Node10</title>
<path fill="none" stroke="midnightblue" d="M312.21,-224.3C301.34,-207.4 278.24,-168.55 270,-132 266.41,-116.08 271.57,-98.06 276.97,-85.04"/>
<polygon fill="midnightblue" stroke="midnightblue" points="280.22,-86.36 281.18,-75.81 273.85,-83.45 280.22,-86.36"/>
</g>
<!-- Node29&#45;&gt;Node16 -->
<g id="edge44" class="edge">
<title>Node29&#45;&gt;Node16</title>
<path fill="none" stroke="midnightblue" d="M324.62,-224.48C334.89,-211.53 355.59,-186.47 376,-168 407.38,-139.61 418.58,-136.61 453,-112 467.4,-101.7 483.73,-90.22 496.29,-81.44"/>
<polygon fill="midnightblue" stroke="midnightblue" points="498.5,-84.16 504.69,-75.57 494.49,-78.43 498.5,-84.16"/>
</g>
<!-- Node31&#45;&gt;Node7 -->
<g id="edge83" class="edge">
<title>Node31&#45;&gt;Node7</title>
<path fill="none" stroke="midnightblue" d="M851.95,-403.13C700.68,-393.78 308.05,-363.86 196,-300 136.12,-265.87 99,-247.92 99,-179 99,-179 99,-179 99,-121 99,-85.18 121.24,-48.21 136.05,-27.56"/>
<polygon fill="midnightblue" stroke="midnightblue" points="138.88,-29.63 142.05,-19.52 133.27,-25.45 138.88,-29.63"/>
</g>
<!-- Node31&#45;&gt;Node20 -->
<g id="edge82" class="edge">
<title>Node31&#45;&gt;Node20</title>
<path fill="none" stroke="midnightblue" d="M904.17,-392.43C889.28,-366.85 854.57,-312.36 812,-280 792.33,-265.05 766.97,-254.1 745.87,-246.75"/>
<polygon fill="midnightblue" stroke="midnightblue" points="746.8,-243.37 736.2,-243.52 744.58,-250.01 746.8,-243.37"/>
</g>
<!-- Node31&#45;&gt;Node26 -->
<g id="edge57" class="edge">
<title>Node31&#45;&gt;Node26</title>
<path fill="none" stroke="midnightblue" d="M851.93,-398.23C773.4,-387.41 635.99,-368.48 551.98,-356.91"/>
<polygon fill="midnightblue" stroke="midnightblue" points="552.39,-353.44 542,-355.54 551.43,-360.37 552.39,-353.44"/>
</g>
<!-- Node31&#45;&gt;Node32 -->
<g id="edge58" class="edge">
<title>Node31&#45;&gt;Node32</title>
<path fill="none" stroke="midnightblue" d="M958.34,-392.45C1034.51,-369.36 1184.75,-323.82 1255.05,-302.51"/>
<polygon fill="midnightblue" stroke="midnightblue" points="1256.27,-305.79 1264.82,-299.54 1254.24,-299.09 1256.27,-305.79"/>
</g>
<!-- Node41 -->
<g id="node41" class="node">
<title>Node41</title>
<g id="a_node41"><a xlink:title=" ">
<polygon fill="white" stroke="#bfbfbf" points="948.5,-224.5 948.5,-243.5 1027.5,-243.5 1027.5,-224.5 948.5,-224.5"/>
<text text-anchor="middle" x="988" y="-231.5" font-family="Helvetica,sans-Serif" font-size="10.00">openssl/err.h</text>
</a>
</g>
</g>
<!-- Node31&#45;&gt;Node41 -->
<g id="edge80" class="edge">
<title>Node31&#45;&gt;Node41</title>
<path fill="none" stroke="midnightblue" d="M919.53,-392.24C930.09,-372.01 949.6,-333.68 964,-300 970.65,-284.45 977.24,-266.37 981.82,-253.23"/>
<polygon fill="midnightblue" stroke="midnightblue" points="985.22,-254.12 985.16,-243.52 978.6,-251.84 985.22,-254.12"/>
</g>
<!-- Node42 -->
<g id="node42" class="node">
<title>Node42</title>
<g id="a_node42"><a xlink:title=" ">
<polygon fill="white" stroke="#bfbfbf" points="1045,-224.5 1045,-243.5 1129,-243.5 1129,-224.5 1045,-224.5"/>
<text text-anchor="middle" x="1087" y="-231.5" font-family="Helvetica,sans-Serif" font-size="10.00">openssl/evp.h</text>
</a>
</g>
</g>
<!-- Node31&#45;&gt;Node42 -->
<g id="edge81" class="edge">
<title>Node31&#45;&gt;Node42</title>
<path fill="none" stroke="midnightblue" d="M926.32,-392.47C958.67,-360.77 1037.18,-283.82 1071.03,-250.65"/>
<polygon fill="midnightblue" stroke="midnightblue" points="1073.57,-253.06 1078.27,-243.56 1068.67,-248.06 1073.57,-253.06"/>
</g>
<!-- Node32&#45;&gt;Node16 -->
<g id="edge69" class="edge">
<title>Node32&#45;&gt;Node16</title>
<path fill="none" stroke="midnightblue" d="M1236.3,-287.47C1121.83,-283.82 867.02,-272.65 785,-244 757.46,-234.38 595.81,-122.17 537.75,-81.56"/>
<polygon fill="midnightblue" stroke="midnightblue" points="539.56,-78.55 529.36,-75.68 535.54,-84.29 539.56,-78.55"/>
</g>
<!-- Node32&#45;&gt;Node21 -->
<g id="edge59" class="edge">
<title>Node32&#45;&gt;Node21</title>
<path fill="none" stroke="midnightblue" d="M1236.46,-282.22C1150.86,-271.94 989.13,-252.54 902.06,-242.09"/>
<polygon fill="midnightblue" stroke="midnightblue" points="902.42,-238.61 892.08,-240.89 901.59,-245.56 902.42,-238.61"/>
</g>
<!-- Node32&#45;&gt;Node24 -->
<g id="edge70" class="edge">
<title>Node32&#45;&gt;Node24</title>
<path fill="none" stroke="midnightblue" d="M1267.47,-280.34C1243.48,-271.94 1206.76,-258.37 1176,-244 1157.94,-235.56 1111.52,-209.23 1082.88,-192.78"/>
<polygon fill="midnightblue" stroke="midnightblue" points="1084.32,-189.58 1073.91,-187.63 1080.83,-195.65 1084.32,-189.58"/>
</g>
<!-- Node33 -->
<g id="node33" class="node">
<title>Node33</title>
<g id="a_node33"><a xlink:title=" ">
<polygon fill="white" stroke="#bfbfbf" points="1549,-112.5 1549,-131.5 1599,-131.5 1599,-112.5 1549,-112.5"/>
<text text-anchor="middle" x="1574" y="-119.5" font-family="Helvetica,sans-Serif" font-size="10.00">chrono</text>
</a>
</g>
</g>
<!-- Node32&#45;&gt;Node33 -->
<g id="edge60" class="edge">
<title>Node32&#45;&gt;Node33</title>
<path fill="none" stroke="midnightblue" d="M1349.57,-283.26C1406.58,-276.49 1489.65,-263.61 1515,-244 1548.32,-218.22 1563.97,-168.76 1570.31,-141.74"/>
<polygon fill="midnightblue" stroke="midnightblue" points="1573.8,-142.19 1572.48,-131.67 1566.95,-140.71 1573.8,-142.19"/>
</g>
<!-- Node34 -->
<g id="node34" class="node">
<title>Node34</title>
<g id="a_node34"><a xlink:href="x509__time__fmt_8h.html" target="_top" xlink:title=" ">
<polygon fill="white" stroke="black" points="1365,-168.5 1365,-187.5 1479,-187.5 1479,-168.5 1365,-168.5"/>
<text text-anchor="middle" x="1422" y="-175.5" font-family="Helvetica,sans-Serif" font-size="10.00">ds/x509_time_fmt.h</text>
</a>
</g>
</g>
<!-- Node32&#45;&gt;Node34 -->
<g id="edge61" class="edge">
<title>Node32&#45;&gt;Node34</title>
<path fill="none" stroke="midnightblue" d="M1349.67,-284.46C1404.04,-278.8 1480.55,-266.92 1499,-244 1516.03,-222.85 1484.11,-203.46 1456.33,-191.46"/>
<polygon fill="midnightblue" stroke="midnightblue" points="1457.35,-188.09 1446.77,-187.53 1454.69,-194.57 1457.35,-188.09"/>
</g>
<!-- Node38 -->
<g id="node38" class="node">
<title>Node38</title>
<g id="a_node38"><a xlink:title=" ">
<polygon fill="white" stroke="#bfbfbf" points="1305.5,-224.5 1305.5,-243.5 1394.5,-243.5 1394.5,-224.5 1305.5,-224.5"/>
<text text-anchor="middle" x="1350" y="-231.5" font-family="Helvetica,sans-Serif" font-size="10.00">openssl/asn1.h</text>
</a>
</g>
</g>
<!-- Node32&#45;&gt;Node38 -->
<g id="edge71" class="edge">
<title>Node32&#45;&gt;Node38</title>
<path fill="none" stroke="midnightblue" d="M1302.16,-280.32C1310.5,-272.42 1323.03,-260.55 1333.18,-250.94"/>
<polygon fill="midnightblue" stroke="midnightblue" points="1335.82,-253.25 1340.68,-243.83 1331.01,-248.17 1335.82,-253.25"/>
</g>
<!-- Node39 -->
<g id="node39" class="node">
<title>Node39</title>
<g id="a_node39"><a xlink:title=" ">
<polygon fill="white" stroke="#bfbfbf" points="1412.5,-224.5 1412.5,-243.5 1489.5,-243.5 1489.5,-224.5 1412.5,-224.5"/>
<text text-anchor="middle" x="1451" y="-231.5" font-family="Helvetica,sans-Serif" font-size="10.00">openssl/ec.h</text>
</a>
</g>
</g>
<!-- Node32&#45;&gt;Node39 -->
<g id="edge72" class="edge">
<title>Node32&#45;&gt;Node39</title>
<path fill="none" stroke="midnightblue" d="M1318.04,-280.44C1344.62,-271.36 1386.81,-256.94 1416.52,-246.78"/>
<polygon fill="midnightblue" stroke="midnightblue" points="1417.75,-250.06 1426.08,-243.52 1415.49,-243.44 1417.75,-250.06"/>
</g>
<!-- Node40 -->
<g id="node40" class="node">
<title>Node40</title>
<g id="a_node40"><a xlink:title=" ">
<polygon fill="white" stroke="#bfbfbf" points="1584.5,-224.5 1584.5,-243.5 1683.5,-243.5 1683.5,-224.5 1584.5,-224.5"/>
<text text-anchor="middle" x="1634" y="-231.5" font-family="Helvetica,sans-Serif" font-size="10.00">openssl/engine.h</text>
</a>
</g>
</g>
<!-- Node32&#45;&gt;Node40 -->
<g id="edge73" class="edge">
<title>Node32&#45;&gt;Node40</title>
<path fill="none" stroke="midnightblue" d="M1347.03,-280.44C1408.98,-270.63 1510.21,-254.6 1574.4,-244.44"/>
<polygon fill="midnightblue" stroke="midnightblue" points="1575.05,-247.88 1584.38,-242.86 1573.95,-240.97 1575.05,-247.88"/>
</g>
<!-- Node32&#45;&gt;Node41 -->
<g id="edge74" class="edge">
<title>Node32&#45;&gt;Node41</title>
<path fill="none" stroke="midnightblue" d="M1243.22,-280.47C1193.55,-271.91 1114.77,-258.23 1037.46,-244.25"/>
<polygon fill="midnightblue" stroke="midnightblue" points="1038.01,-240.79 1027.55,-242.45 1036.76,-247.68 1038.01,-240.79"/>
</g>
<!-- Node32&#45;&gt;Node42 -->
<g id="edge75" class="edge">
<title>Node32&#45;&gt;Node42</title>
<path fill="none" stroke="midnightblue" d="M1260.36,-280.44C1224.95,-271.16 1168.29,-256.31 1129.45,-246.13"/>
<polygon fill="midnightblue" stroke="midnightblue" points="1130.05,-242.67 1119.49,-243.52 1128.27,-249.44 1130.05,-242.67"/>
</g>
<!-- Node43 -->
<g id="node43" class="node">
<title>Node43</title>
<g id="a_node43"><a xlink:title=" ">
<polygon fill="white" stroke="#bfbfbf" points="1702,-224.5 1702,-243.5 1790,-243.5 1790,-224.5 1702,-224.5"/>
<text text-anchor="middle" x="1746" y="-231.5" font-family="Helvetica,sans-Serif" font-size="10.00">openssl/pem.h</text>
</a>
</g>
</g>
<!-- Node32&#45;&gt;Node43 -->
<g id="edge76" class="edge">
<title>Node32&#45;&gt;Node43</title>
<path fill="none" stroke="midnightblue" d="M1349.76,-283.63C1425.44,-276.24 1563.79,-261.95 1691.8,-244.1"/>
<polygon fill="midnightblue" stroke="midnightblue" points="1692.37,-247.56 1701.78,-242.7 1691.39,-240.62 1692.37,-247.56"/>
</g>
<!-- Node44 -->
<g id="node44" class="node">
<title>Node44</title>
<g id="a_node44"><a xlink:title=" ">
<polygon fill="white" stroke="#bfbfbf" points="1808,-224.5 1808,-243.5 1888,-243.5 1888,-224.5 1808,-224.5"/>
<text text-anchor="middle" x="1848" y="-231.5" font-family="Helvetica,sans-Serif" font-size="10.00">openssl/ssl.h</text>
</a>
</g>
</g>
<!-- Node32&#45;&gt;Node44 -->
<g id="edge77" class="edge">
<title>Node32&#45;&gt;Node44</title>
<path fill="none" stroke="midnightblue" d="M1349.73,-285.68C1441.68,-279.92 1629.17,-266.61 1797.88,-244.03"/>
<polygon fill="midnightblue" stroke="midnightblue" points="1798.5,-247.48 1807.94,-242.67 1797.56,-240.54 1798.5,-247.48"/>
</g>
<!-- Node45 -->
<g id="node45" class="node">
<title>Node45</title>
<g id="a_node45"><a xlink:title=" ">
<polygon fill="white" stroke="#bfbfbf" points="1906,-224.5 1906,-243.5 1996,-243.5 1996,-224.5 1906,-224.5"/>
<text text-anchor="middle" x="1951" y="-231.5" font-family="Helvetica,sans-Serif" font-size="10.00">openssl/x509.h</text>
</a>
</g>
</g>
<!-- Node32&#45;&gt;Node45 -->
<g id="edge78" class="edge">
<title>Node32&#45;&gt;Node45</title>
<path fill="none" stroke="midnightblue" d="M1349.79,-286.49C1455.3,-281.46 1688.87,-268.55 1895.82,-244.03"/>
<polygon fill="midnightblue" stroke="midnightblue" points="1896.45,-247.48 1905.96,-242.82 1895.62,-240.53 1896.45,-247.48"/>
</g>
<!-- Node46 -->
<g id="node46" class="node">
<title>Node46</title>
<g id="a_node46"><a xlink:title=" ">
<polygon fill="white" stroke="#bfbfbf" points="1185,-224.5 1185,-243.5 1287,-243.5 1287,-224.5 1185,-224.5"/>
<text text-anchor="middle" x="1236" y="-231.5" font-family="Helvetica,sans-Serif" font-size="10.00">openssl/x509v3.h</text>
</a>
</g>
</g>
<!-- Node32&#45;&gt;Node46 -->
<g id="edge79" class="edge">
<title>Node32&#45;&gt;Node46</title>
<path fill="none" stroke="midnightblue" d="M1283.84,-280.32C1275.5,-272.42 1262.97,-260.55 1252.82,-250.94"/>
<polygon fill="midnightblue" stroke="midnightblue" points="1254.99,-248.17 1245.32,-243.83 1250.18,-253.25 1254.99,-248.17"/>
</g>
<!-- Node34&#45;&gt;Node8 -->
<g id="edge68" class="edge">
<title>Node34&#45;&gt;Node8</title>
<path fill="none" stroke="midnightblue" d="M1448.12,-168.47C1478.22,-157.27 1521.22,-136.16 1502,-112 1443.48,-38.46 1138.32,-17.44 1035.71,-12.4"/>
<polygon fill="midnightblue" stroke="midnightblue" points="1035.75,-8.9 1025.59,-11.92 1035.42,-15.89 1035.75,-8.9"/>
</g>
<!-- Node34&#45;&gt;Node16 -->
<g id="edge64" class="edge">
<title>Node34&#45;&gt;Node16</title>
<path fill="none" stroke="midnightblue" d="M1371.43,-168.49C1289.89,-154.99 1124.19,-128.52 983,-112 801.05,-90.72 751.48,-100.84 566.56,-76.09"/>
<polygon fill="midnightblue" stroke="midnightblue" points="566.88,-72.6 556.5,-74.73 565.94,-79.54 566.88,-72.6"/>
</g>
<!-- Node34&#45;&gt;Node18 -->
<g id="edge66" class="edge">
<title>Node34&#45;&gt;Node18</title>
<path fill="none" stroke="midnightblue" d="M1364.58,-170.49C1266.06,-159.31 1067.37,-136.77 984.09,-127.32"/>
<polygon fill="midnightblue" stroke="midnightblue" points="984.39,-123.83 974.05,-126.18 983.6,-130.79 984.39,-123.83"/>
</g>
<!-- Node34&#45;&gt;Node33 -->
<g id="edge62" class="edge">
<title>Node34&#45;&gt;Node33</title>
<path fill="none" stroke="midnightblue" d="M1446.08,-168.44C1471.54,-159.4 1511.89,-145.06 1540.46,-134.92"/>
<polygon fill="midnightblue" stroke="midnightblue" points="1541.78,-138.16 1550.03,-131.52 1539.43,-131.57 1541.78,-138.16"/>
</g>
<!-- Node35 -->
<g id="node35" class="node">
<title>Node35</title>
<g id="a_node35"><a xlink:title=" ">
<polygon fill="white" stroke="#bfbfbf" points="1413.5,-112.5 1413.5,-131.5 1492.5,-131.5 1492.5,-112.5 1413.5,-112.5"/>
<text text-anchor="middle" x="1453" y="-119.5" font-family="Helvetica,sans-Serif" font-size="10.00">fmt/chrono.h</text>
</a>
</g>
</g>
<!-- Node34&#45;&gt;Node35 -->
<g id="edge63" class="edge">
<title>Node34&#45;&gt;Node35</title>
<path fill="none" stroke="midnightblue" d="M1427.12,-168.08C1431.41,-160.61 1437.66,-149.72 1442.94,-140.52"/>
<polygon fill="midnightblue" stroke="midnightblue" points="1446.03,-142.17 1447.98,-131.75 1439.96,-138.68 1446.03,-142.17"/>
</g>
<!-- Node36 -->
<g id="node36" class="node">
<title>Node36</title>
<g id="a_node36"><a xlink:title=" ">
<polygon fill="white" stroke="#bfbfbf" points="1273,-112.5 1273,-131.5 1329,-131.5 1329,-112.5 1273,-112.5"/>
<text text-anchor="middle" x="1301" y="-119.5" font-family="Helvetica,sans-Serif" font-size="10.00">iomanip</text>
</a>
</g>
</g>
<!-- Node34&#45;&gt;Node36 -->
<g id="edge65" class="edge">
<title>Node34&#45;&gt;Node36</title>
<path fill="none" stroke="midnightblue" d="M1402.83,-168.44C1383.09,-159.64 1352.11,-145.81 1329.51,-135.72"/>
<polygon fill="midnightblue" stroke="midnightblue" points="1330.64,-132.4 1320.08,-131.52 1327.79,-138.79 1330.64,-132.4"/>
</g>
<!-- Node37 -->
<g id="node37" class="node">
<title>Node37</title>
<g id="a_node37"><a xlink:title=" ">
<polygon fill="white" stroke="#bfbfbf" points="1347,-112.5 1347,-131.5 1395,-131.5 1395,-112.5 1347,-112.5"/>
<text text-anchor="middle" x="1371" y="-119.5" font-family="Helvetica,sans-Serif" font-size="10.00">time.h</text>
</a>
</g>
</g>
<!-- Node34&#45;&gt;Node37 -->
<g id="edge67" class="edge">
<title>Node34&#45;&gt;Node37</title>
<path fill="none" stroke="midnightblue" d="M1413.58,-168.08C1406.15,-160.22 1395.15,-148.57 1386.19,-139.08"/>
<polygon fill="midnightblue" stroke="midnightblue" points="1388.68,-136.62 1379.26,-131.75 1383.59,-141.42 1388.68,-136.62"/>
</g>
</g>
</svg>
