<?xml version="1.0" encoding="UTF-8" standalone="no"?>
<!DOCTYPE svg PUBLIC "-//W3C//DTD SVG 1.1//EN"
 "http://www.w3.org/Graphics/SVG/1.1/DTD/svg11.dtd">
<!-- Generated by graphviz version 2.43.0 (0)
 -->
<!-- Title: loggingapp::LoggingPut::Out Pages: 1 -->
<svg width="162pt" height="163pt"
 viewBox="0.00 0.00 162.00 163.00" xmlns="http://www.w3.org/2000/svg" xmlns:xlink="http://www.w3.org/1999/xlink">
<g id="graph0" class="graph" transform="scale(1 1) rotate(0) translate(4 159)">
<title>loggingapp::LoggingPut::Out</title>
<polygon fill="white" stroke="transparent" points="-4,4 -4,-159 158,-159 158,4 -4,4"/>
<!-- Node1 -->
<g id="node1" class="node">
<title>Node1</title>
<g id="a_node1"><a xlink:title=" ">
<polygon fill="#bfbfbf" stroke="black" points="0,-0.5 0,-19.5 154,-19.5 154,-0.5 0,-0.5"/>
<text text-anchor="middle" x="77" y="-7.5" font-family="Helvetica,sans-Serif" font-size="10.00">loggingapp::LoggingPut::Out</text>
</a>
</g>
</g>
<!-- Node2 -->
<g id="node2" class="node">
<title>Node2</title>
<g id="a_node2"><a xlink:title=" ">
<polygon fill="white" stroke="black" points="44.5,-67.5 44.5,-86.5 109.5,-86.5 109.5,-67.5 44.5,-67.5"/>
<text text-anchor="middle" x="77" y="-74.5" font-family="Helvetica,sans-Serif" font-size="10.00">std::string</text>
</a>
</g>
</g>
<!-- Node2&#45;&gt;Node1 -->
<g id="edge1" class="edge">
<title>Node2&#45;&gt;Node1</title>
<path fill="none" stroke="#9a32cd" stroke-dasharray="5,2" d="M77,-57.04C77,-44.67 77,-29.12 77,-19.63"/>
<polygon fill="#9a32cd" stroke="#9a32cd" points="73.5,-57.23 77,-67.23 80.5,-57.23 73.5,-57.23"/>
<text text-anchor="middle" x="91" y="-41" font-family="Helvetica,sans-Serif" font-size="10.00"> tx_id</text>
</g>
<!-- Node3 -->
<g id="node3" class="node">
<title>Node3</title>
<g id="a_node3"><a xlink:title=" ">
<polygon fill="white" stroke="black" points="25,-124.5 25,-154.5 129,-154.5 129,-124.5 25,-124.5"/>
<text text-anchor="start" x="33" y="-142.5" font-family="Helvetica,sans-Serif" font-size="10.00">std::basic_string&lt;</text>
<text text-anchor="middle" x="77" y="-131.5" font-family="Helvetica,sans-Serif" font-size="10.00"> Char &gt;</text>
</a>
</g>
</g>
<!-- Node3&#45;&gt;Node2 -->
<g id="edge2" class="edge">
<title>Node3&#45;&gt;Node2</title>
<path fill="none" stroke="midnightblue" d="M77,-114.35C77,-104.51 77,-93.78 77,-86.54"/>
<polygon fill="midnightblue" stroke="midnightblue" points="73.5,-114.47 77,-124.47 80.5,-114.47 73.5,-114.47"/>
</g>
</g>
</svg>
