<?xml version="1.0" encoding="UTF-8" standalone="no"?>
<!DOCTYPE svg PUBLIC "-//W3C//DTD SVG 1.1//EN"
 "http://www.w3.org/Graphics/SVG/1.1/DTD/svg11.dtd">
<!-- Generated by graphviz version 2.43.0 (0)
 -->
<!-- Title: ccf::ODataError Pages: 1 -->
<svg width="226pt" height="341pt"
 viewBox="0.00 0.00 225.50 341.00" xmlns="http://www.w3.org/2000/svg" xmlns:xlink="http://www.w3.org/1999/xlink">
<g id="graph0" class="graph" transform="scale(1 1) rotate(0) translate(4 337)">
<title>ccf::ODataError</title>
<polygon fill="white" stroke="transparent" points="-4,4 -4,-337 221.5,-337 221.5,4 -4,4"/>
<!-- Node1 -->
<g id="node1" class="node">
<title>Node1</title>
<g id="a_node1"><a xlink:title=" ">
<polygon fill="#bfbfbf" stroke="black" points="7,-0.5 7,-19.5 97,-19.5 97,-0.5 7,-0.5"/>
<text text-anchor="middle" x="52" y="-7.5" font-family="Helvetica,sans-Serif" font-size="10.00">ccf::ODataError</text>
</a>
</g>
</g>
<!-- Node2 -->
<g id="node2" class="node">
<title>Node2</title>
<g id="a_node2"><a xlink:title=" ">
<polygon fill="white" stroke="black" points="19.5,-245.5 19.5,-264.5 84.5,-264.5 84.5,-245.5 19.5,-245.5"/>
<text text-anchor="middle" x="52" y="-252.5" font-family="Helvetica,sans-Serif" font-size="10.00">std::string</text>
</a>
</g>
</g>
<!-- Node2&#45;&gt;Node1 -->
<g id="edge1" class="edge">
<title>Node2&#45;&gt;Node1</title>
<path fill="none" stroke="#9a32cd" stroke-dasharray="5,2" d="M52,-235.17C52,-185.85 52,-54.34 52,-19.54"/>
<polygon fill="#9a32cd" stroke="#9a32cd" points="48.5,-235.35 52,-245.35 55.5,-235.35 48.5,-235.35"/>
<text text-anchor="middle" x="74.5" y="-130" font-family="Helvetica,sans-Serif" font-size="10.00"> code</text>
<text text-anchor="middle" x="74.5" y="-119" font-family="Helvetica,sans-Serif" font-size="10.00">message</text>
</g>
<!-- Node5 -->
<g id="node5" class="node">
<title>Node5</title>
<g id="a_node5"><a xlink:href="structccf_1_1ODataErrorDetails.html" target="_top" xlink:title=" ">
<polygon fill="white" stroke="black" points="71.5,-156.5 71.5,-175.5 196.5,-175.5 196.5,-156.5 71.5,-156.5"/>
<text text-anchor="middle" x="134" y="-163.5" font-family="Helvetica,sans-Serif" font-size="10.00">ccf::ODataErrorDetails</text>
</a>
</g>
</g>
<!-- Node2&#45;&gt;Node5 -->
<g id="edge5" class="edge">
<title>Node2&#45;&gt;Node5</title>
<path fill="none" stroke="#9a32cd" stroke-dasharray="5,2" d="M67.32,-237.74C84.66,-219.35 112.26,-190.06 125.87,-175.62"/>
<polygon fill="#9a32cd" stroke="#9a32cd" points="64.47,-235.66 60.16,-245.34 69.57,-240.46 64.47,-235.66"/>
<text text-anchor="middle" x="137" y="-219" font-family="Helvetica,sans-Serif" font-size="10.00"> auth_policy</text>
<text text-anchor="middle" x="137" y="-208" font-family="Helvetica,sans-Serif" font-size="10.00">code</text>
<text text-anchor="middle" x="137" y="-197" font-family="Helvetica,sans-Serif" font-size="10.00">message</text>
</g>
<!-- Node3 -->
<g id="node3" class="node">
<title>Node3</title>
<g id="a_node3"><a xlink:title=" ">
<polygon fill="white" stroke="black" points="0,-302.5 0,-332.5 104,-332.5 104,-302.5 0,-302.5"/>
<text text-anchor="start" x="8" y="-320.5" font-family="Helvetica,sans-Serif" font-size="10.00">std::basic_string&lt;</text>
<text text-anchor="middle" x="52" y="-309.5" font-family="Helvetica,sans-Serif" font-size="10.00"> Char &gt;</text>
</a>
</g>
</g>
<!-- Node3&#45;&gt;Node2 -->
<g id="edge2" class="edge">
<title>Node3&#45;&gt;Node2</title>
<path fill="none" stroke="midnightblue" d="M52,-292.35C52,-282.51 52,-271.78 52,-264.54"/>
<polygon fill="midnightblue" stroke="midnightblue" points="48.5,-292.47 52,-302.47 55.5,-292.47 48.5,-292.47"/>
</g>
<!-- Node4 -->
<g id="node4" class="node">
<title>Node4</title>
<g id="a_node4"><a xlink:title=" ">
<polygon fill="white" stroke="black" points="64.5,-67.5 64.5,-97.5 217.5,-97.5 217.5,-67.5 64.5,-67.5"/>
<text text-anchor="start" x="72.5" y="-85.5" font-family="Helvetica,sans-Serif" font-size="10.00">std::vector&lt; ccf::ODataError</text>
<text text-anchor="middle" x="141" y="-74.5" font-family="Helvetica,sans-Serif" font-size="10.00">Details &gt;</text>
</a>
</g>
</g>
<!-- Node4&#45;&gt;Node1 -->
<g id="edge3" class="edge">
<title>Node4&#45;&gt;Node1</title>
<path fill="none" stroke="#9a32cd" stroke-dasharray="5,2" d="M114.97,-60.88C97.79,-47.27 76.15,-30.13 63.23,-19.89"/>
<polygon fill="#9a32cd" stroke="#9a32cd" points="112.98,-63.77 122.99,-67.23 117.32,-58.28 112.98,-63.77"/>
<text text-anchor="middle" x="117.5" y="-41" font-family="Helvetica,sans-Serif" font-size="10.00"> details</text>
</g>
<!-- Node5&#45;&gt;Node4 -->
<g id="edge4" class="edge">
<title>Node5&#45;&gt;Node4</title>
<path fill="none" stroke="#9a32cd" stroke-dasharray="5,2" d="M135.61,-146.23C136.89,-131.41 138.63,-111.05 139.79,-97.6"/>
<polygon fill="#9a32cd" stroke="#9a32cd" points="132.12,-146.02 134.75,-156.28 139.09,-146.61 132.12,-146.02"/>
<text text-anchor="middle" x="162.5" y="-124.5" font-family="Helvetica,sans-Serif" font-size="10.00"> elements</text>
</g>
</g>
</svg>
