<?xml version="1.0" encoding="UTF-8" standalone="no"?>
<!DOCTYPE svg PUBLIC "-//W3C//DTD SVG 1.1//EN"
 "http://www.w3.org/Graphics/SVG/1.1/DTD/svg11.dtd">
<!-- Generated by graphviz version 2.43.0 (0)
 -->
<!-- Title: kv::untyped::ChangeSet Pages: 1 -->
<svg width="497pt" height="187pt"
 viewBox="0.00 0.00 497.00 186.50" xmlns="http://www.w3.org/2000/svg" xmlns:xlink="http://www.w3.org/1999/xlink">
<g id="graph0" class="graph" transform="scale(1 1) rotate(0) translate(4 182.5)">
<title>kv::untyped::ChangeSet</title>
<polygon fill="white" stroke="transparent" points="-4,4 -4,-182.5 493,-182.5 493,4 -4,4"/>
<!-- Node1 -->
<g id="node1" class="node">
<title>Node1</title>
<g id="a_node1"><a xlink:title=" ">
<polygon fill="#bfbfbf" stroke="black" points="357,-104 357,-123 489,-123 489,-104 357,-104"/>
<text text-anchor="middle" x="423" y="-111" font-family="Helvetica,sans-Serif" font-size="10.00">kv::untyped::ChangeSet</text>
</a>
</g>
</g>
<!-- Node2 -->
<g id="node2" class="node">
<title>Node2</title>
<g id="a_node2"><a xlink:href="classkv_1_1AbstractChangeSet.html" target="_top" xlink:title=" ">
<polygon fill="white" stroke="black" points="114,-159 114,-178 241,-178 241,-159 114,-159"/>
<text text-anchor="middle" x="177.5" y="-166" font-family="Helvetica,sans-Serif" font-size="10.00">kv::AbstractChangeSet</text>
</a>
</g>
</g>
<!-- Node2&#45;&gt;Node1 -->
<g id="edge1" class="edge">
<title>Node2&#45;&gt;Node1</title>
<path fill="none" stroke="midnightblue" d="M251.41,-163.69C279.16,-160.74 310.86,-156.03 339,-148.5 361.96,-142.35 386.92,-131.17 403.4,-123.09"/>
<polygon fill="midnightblue" stroke="midnightblue" points="250.99,-160.21 241.39,-164.69 251.68,-167.18 250.99,-160.21"/>
</g>
<!-- Node3 -->
<g id="node3" class="node">
<title>Node3</title>
<g id="a_node3"><a xlink:href="classchamp_1_1Map.html" target="_top" xlink:title=" ">
<polygon fill="white" stroke="black" points="111.5,-121 111.5,-140 243.5,-140 243.5,-121 111.5,-121"/>
<text text-anchor="middle" x="177.5" y="-128" font-family="Helvetica,sans-Serif" font-size="10.00">champ::Map&lt; K, V, H &gt;</text>
</a>
</g>
</g>
<!-- Node3&#45;&gt;Node1 -->
<g id="edge2" class="edge">
<title>Node3&#45;&gt;Node1</title>
<path fill="none" stroke="#9a32cd" stroke-dasharray="5,2" d="M253.82,-125.24C286.84,-122.94 325.23,-120.26 356.99,-118.04"/>
<polygon fill="#9a32cd" stroke="#9a32cd" points="253.49,-121.76 243.75,-125.94 253.97,-128.74 253.49,-121.76"/>
<text text-anchor="middle" x="310.5" y="-136.5" font-family="Helvetica,sans-Serif" font-size="10.00"> committed</text>
<text text-anchor="middle" x="310.5" y="-125.5" font-family="Helvetica,sans-Serif" font-size="10.00">state</text>
</g>
<!-- Node4 -->
<g id="node4" class="node">
<title>Node4</title>
<g id="a_node4"><a xlink:title=" ">
<polygon fill="white" stroke="black" points="91,-71.5 91,-101.5 264,-101.5 264,-71.5 91,-71.5"/>
<text text-anchor="start" x="99" y="-89.5" font-family="Helvetica,sans-Serif" font-size="10.00">std::map&lt; K, std::tuple</text>
<text text-anchor="middle" x="177.5" y="-78.5" font-family="Helvetica,sans-Serif" font-size="10.00">&lt; Version, LastReadVersion &gt; &gt;</text>
</a>
</g>
</g>
<!-- Node4&#45;&gt;Node1 -->
<g id="edge3" class="edge">
<title>Node4&#45;&gt;Node1</title>
<path fill="none" stroke="#9a32cd" stroke-dasharray="5,2" d="M274.34,-96.42C295.63,-98.69 318.09,-101.13 339,-103.5 344.77,-104.15 350.76,-104.85 356.77,-105.55"/>
<polygon fill="#9a32cd" stroke="#9a32cd" points="274.63,-92.93 264.32,-95.36 273.89,-99.9 274.63,-92.93"/>
<text text-anchor="middle" x="310.5" y="-106.5" font-family="Helvetica,sans-Serif" font-size="10.00"> reads</text>
</g>
<!-- Node5 -->
<g id="node5" class="node">
<title>Node5</title>
<g id="a_node5"><a xlink:title=" ">
<polygon fill="white" stroke="black" points="0,-77 0,-96 29,-96 29,-77 0,-77"/>
<text text-anchor="middle" x="14.5" y="-84" font-family="Helvetica,sans-Serif" font-size="10.00">K</text>
</a>
</g>
</g>
<!-- Node5&#45;&gt;Node4 -->
<g id="edge4" class="edge">
<title>Node5&#45;&gt;Node4</title>
<path fill="none" stroke="#9a32cd" stroke-dasharray="5,2" d="M39.32,-86.5C53.23,-86.5 71.72,-86.5 90.62,-86.5"/>
<polygon fill="#9a32cd" stroke="#9a32cd" points="39.23,-83 29.23,-86.5 39.23,-90 39.23,-83"/>
<text text-anchor="middle" x="60" y="-89.5" font-family="Helvetica,sans-Serif" font-size="10.00"> keys</text>
</g>
<!-- Node6 -->
<g id="node6" class="node">
<title>Node6</title>
<g id="a_node6"><a xlink:title=" ">
<polygon fill="white" stroke="black" points="107,-0.5 107,-52.5 248,-52.5 248,-0.5 107,-0.5"/>
<text text-anchor="start" x="115" y="-40.5" font-family="Helvetica,sans-Serif" font-size="10.00">std::map&lt; kv::serialisers</text>
<text text-anchor="start" x="115" y="-29.5" font-family="Helvetica,sans-Serif" font-size="10.00">::SerialisedEntry, std</text>
<text text-anchor="start" x="115" y="-18.5" font-family="Helvetica,sans-Serif" font-size="10.00">::optional&lt; kv::serialisers</text>
<text text-anchor="middle" x="177.5" y="-7.5" font-family="Helvetica,sans-Serif" font-size="10.00">::SerialisedEntry &gt; &gt;</text>
</a>
</g>
</g>
<!-- Node6&#45;&gt;Node1 -->
<g id="edge5" class="edge">
<title>Node6&#45;&gt;Node1</title>
<path fill="none" stroke="#9a32cd" stroke-dasharray="5,2" d="M257.91,-53.82C283.8,-62.84 312.66,-72.99 339,-82.5 358.53,-89.55 380.54,-97.79 396.99,-104"/>
<polygon fill="#9a32cd" stroke="#9a32cd" points="258.73,-50.4 248.14,-50.43 256.44,-57.02 258.73,-50.4"/>
<text text-anchor="middle" x="310.5" y="-85.5" font-family="Helvetica,sans-Serif" font-size="10.00"> writes</text>
</g>
</g>
</svg>
