<?xml version="1.0" encoding="UTF-8" standalone="no"?>
<!DOCTYPE svg PUBLIC "-//W3C//DTD SVG 1.1//EN"
 "http://www.w3.org/Graphics/SVG/1.1/DTD/svg11.dtd">
<!-- Generated by graphviz version 2.43.0 (0)
 -->
<!-- Title: src/host/tcp.h Pages: 1 -->
<!--zoomable 252 -->
<svg id="main" version="1.1" xmlns="http://www.w3.org/2000/svg" xmlns:xlink="http://www.w3.org/1999/xlink" xml:space="preserve" onload="init(evt)">
<style type="text/css"><![CDATA[
.edge:hover path { stroke: red; }
.edge:hover polygon { stroke: red; fill: red; }
]]></style>
<script type="text/javascript"><![CDATA[
var edges = document.getElementsByTagName('g');
if (edges && edges.length) {
  for (var i=0;i<edges.length;i++) {
    if (edges[i].id.substr(0,4)=='edge') {
      edges[i].setAttribute('class','edge');
    }
  }
}
]]></script>
        <defs>
                <circle id="rim" cx="0" cy="0" r="7"/>
                <circle id="rim2" cx="0" cy="0" r="3.5"/>
                <g id="zoomPlus">
                        <use xlink:href="#rim" fill="#404040">
                                <set attributeName="fill" to="#808080" begin="zoomplus.mouseover" end="zoomplus.mouseout"/>
                        </use>
                        <path d="M-4,0h8M0,-4v8" fill="none" stroke="white" stroke-width="1.5" pointer-events="none"/>
                </g>
                <g id="zoomMin">
                        <use xlink:href="#rim" fill="#404040">
                                <set attributeName="fill" to="#808080" begin="zoomminus.mouseover" end="zoomminus.mouseout"/>
                        </use>
                        <path d="M-4,0h8" fill="none" stroke="white" stroke-width="1.5" pointer-events="none"/>
                </g>
                <g id="dirArrow">
                        <path fill="none" stroke="white" stroke-width="1.5" d="M0,-3.0v7 M-2.5,-0.5L0,-3.0L2.5,-0.5"/>
                </g>
               <g id="resetDef">
                       <use xlink:href="#rim2" fill="#404040">
                               <set attributeName="fill" to="#808080" begin="reset.mouseover" end="reset.mouseout"/>
                       </use>
               </g>
        </defs>

<script type="text/javascript">
var viewWidth = 1149;
var viewHeight = 252;
var sectionId = 'dynsection-0';
</script>
<script xlink:href="svgpan.js"/>
<svg id="graph" class="graph">
<g id="viewport">
<title>src/host/tcp.h</title>
<polygon fill="white" stroke="transparent" points="-4,4 -4,-248 1144.5,-248 1144.5,4 -4,4"/>
<!-- Node1 -->
<g id="node1" class="node">
<title>Node1</title>
<g id="a_node1"><a xlink:title=" ">
<polygon fill="#bfbfbf" stroke="black" points="738,-224.5 738,-243.5 820,-243.5 820,-224.5 738,-224.5"/>
<text text-anchor="middle" x="779" y="-231.5" font-family="Helvetica,sans-Serif" font-size="10.00">src/host/tcp.h</text>
</a>
</g>
</g>
<!-- Node2 -->
<g id="node2" class="node">
<title>Node2</title>
<g id="a_node2"><a xlink:href="before__io_8h.html" target="_top" xlink:title=" ">
<polygon fill="white" stroke="black" points="622.5,-168.5 622.5,-187.5 693.5,-187.5 693.5,-168.5 622.5,-168.5"/>
<text text-anchor="middle" x="658" y="-175.5" font-family="Helvetica,sans-Serif" font-size="10.00">before_io.h</text>
</a>
</g>
</g>
<!-- Node1&#45;&gt;Node2 -->
<g id="edge1" class="edge">
<title>Node1&#45;&gt;Node2</title>
<path fill="none" stroke="midnightblue" d="M759.83,-224.44C740.09,-215.64 709.11,-201.81 686.51,-191.72"/>
<polygon fill="midnightblue" stroke="midnightblue" points="687.64,-188.4 677.08,-187.52 684.79,-194.79 687.64,-188.4"/>
</g>
<!-- Node3 -->
<g id="node3" class="node">
<title>Node3</title>
<g id="a_node3"><a xlink:href="logger_8h.html" target="_top" xlink:title=" ">
<polygon fill="white" stroke="black" points="504.5,-112.5 504.5,-131.5 591.5,-131.5 591.5,-112.5 504.5,-112.5"/>
<text text-anchor="middle" x="548" y="-119.5" font-family="Helvetica,sans-Serif" font-size="10.00">ccf/ds/logger.h</text>
</a>
</g>
</g>
<!-- Node1&#45;&gt;Node3 -->
<g id="edge22" class="edge">
<title>Node1&#45;&gt;Node3</title>
<path fill="none" stroke="midnightblue" d="M737.82,-227.91C702.76,-222.2 652.01,-210.6 613,-188 591.73,-175.68 572.52,-154.65 560.6,-139.86"/>
<polygon fill="midnightblue" stroke="midnightblue" points="563.06,-137.33 554.16,-131.58 557.54,-141.63 563.06,-137.33"/>
</g>
<!-- Node15 -->
<g id="node15" class="node">
<title>Node15</title>
<g id="a_node15"><a xlink:title=" ">
<polygon fill="white" stroke="#bfbfbf" points="0,-56.5 0,-75.5 56,-75.5 56,-56.5 0,-56.5"/>
<text text-anchor="middle" x="28" y="-63.5" font-family="Helvetica,sans-Serif" font-size="10.00">optional</text>
</a>
</g>
</g>
<!-- Node1&#45;&gt;Node15 -->
<g id="edge37" class="edge">
<title>Node1&#45;&gt;Node15</title>
<path fill="none" stroke="midnightblue" d="M738.67,-224.46C631.19,-201.63 328.76,-136.93 66.37,-76.28"/>
<polygon fill="midnightblue" stroke="midnightblue" points="66.8,-72.79 56.27,-73.94 65.22,-79.61 66.8,-72.79"/>
</g>
<!-- Node18 -->
<g id="node18" class="node">
<title>Node18</title>
<g id="a_node18"><a xlink:href="proxy_8h.html" target="_top" xlink:title=" ">
<polygon fill="white" stroke="black" points="697,-112.5 697,-131.5 749,-131.5 749,-112.5 697,-112.5"/>
<text text-anchor="middle" x="723" y="-119.5" font-family="Helvetica,sans-Serif" font-size="10.00">proxy.h</text>
</a>
</g>
</g>
<!-- Node1&#45;&gt;Node18 -->
<g id="edge32" class="edge">
<title>Node1&#45;&gt;Node18</title>
<path fill="none" stroke="midnightblue" d="M769.54,-224.22C760.93,-215.73 748.45,-202.11 741,-188 733.31,-173.44 728.64,-155.26 725.99,-141.83"/>
<polygon fill="midnightblue" stroke="midnightblue" points="729.41,-141.09 724.22,-131.86 722.52,-142.31 729.41,-141.09"/>
</g>
<!-- Node21 -->
<g id="node21" class="node">
<title>Node21</title>
<g id="a_node21"><a xlink:href="locking_8h.html" target="_top" xlink:title=" ">
<polygon fill="white" stroke="black" points="949,-112.5 949,-131.5 1045,-131.5 1045,-112.5 949,-112.5"/>
<text text-anchor="middle" x="997" y="-119.5" font-family="Helvetica,sans-Serif" font-size="10.00">ccf/pal/locking.h</text>
</a>
</g>
</g>
<!-- Node1&#45;&gt;Node21 -->
<g id="edge23" class="edge">
<title>Node1&#45;&gt;Node21</title>
<path fill="none" stroke="midnightblue" d="M798.7,-224.41C818.62,-215.62 850.2,-201.39 877,-188 910.87,-171.08 949.21,-149.96 973.24,-136.47"/>
<polygon fill="midnightblue" stroke="midnightblue" points="975.02,-139.49 982.01,-131.53 971.58,-133.39 975.02,-139.49"/>
</g>
<!-- Node23 -->
<g id="node23" class="node">
<title>Node23</title>
<g id="a_node23"><a xlink:href="dns_8h.html" target="_top" xlink:title=" ">
<polygon fill="white" stroke="black" points="825.5,-168.5 825.5,-187.5 868.5,-187.5 868.5,-168.5 825.5,-168.5"/>
<text text-anchor="middle" x="847" y="-175.5" font-family="Helvetica,sans-Serif" font-size="10.00">dns.h</text>
</a>
</g>
</g>
<!-- Node1&#45;&gt;Node23 -->
<g id="edge25" class="edge">
<title>Node1&#45;&gt;Node23</title>
<path fill="none" stroke="midnightblue" d="M789.93,-224.32C800.17,-216.18 815.72,-203.84 828,-194.09"/>
<polygon fill="midnightblue" stroke="midnightblue" points="830.22,-196.79 835.88,-187.83 825.87,-191.31 830.22,-196.79"/>
</g>
<!-- Node25 -->
<g id="node25" class="node">
<title>Node25</title>
<g id="a_node25"><a xlink:href="pending__io_8h.html" target="_top" xlink:title=" ">
<polygon fill="white" stroke="black" points="925.5,-168.5 925.5,-187.5 1018.5,-187.5 1018.5,-168.5 925.5,-168.5"/>
<text text-anchor="middle" x="972" y="-175.5" font-family="Helvetica,sans-Serif" font-size="10.00">ds/pending_io.h</text>
</a>
</g>
</g>
<!-- Node1&#45;&gt;Node25 -->
<g id="edge30" class="edge">
<title>Node1&#45;&gt;Node25</title>
<path fill="none" stroke="midnightblue" d="M809.58,-224.44C842.61,-215.2 895.39,-200.44 931.77,-190.26"/>
<polygon fill="midnightblue" stroke="midnightblue" points="932.87,-193.58 941.56,-187.52 930.99,-186.84 932.87,-193.58"/>
</g>
<!-- Node27 -->
<g id="node27" class="node">
<title>Node27</title>
<g id="a_node27"><a xlink:href="socket_8h.html" target="_top" xlink:title=" ">
<polygon fill="white" stroke="black" points="750.5,-168.5 750.5,-187.5 807.5,-187.5 807.5,-168.5 750.5,-168.5"/>
<text text-anchor="middle" x="779" y="-175.5" font-family="Helvetica,sans-Serif" font-size="10.00">socket.h</text>
</a>
</g>
</g>
<!-- Node1&#45;&gt;Node27 -->
<g id="edge33" class="edge">
<title>Node1&#45;&gt;Node27</title>
<path fill="none" stroke="midnightblue" d="M779,-224.08C779,-217.01 779,-206.86 779,-197.99"/>
<polygon fill="midnightblue" stroke="midnightblue" points="782.5,-197.75 779,-187.75 775.5,-197.75 782.5,-197.75"/>
</g>
<!-- Node28 -->
<g id="node28" class="node">
<title>Node28</title>
<g id="a_node28"><a xlink:title=" ">
<polygon fill="white" stroke="#bfbfbf" points="1037,-168.5 1037,-187.5 1109,-187.5 1109,-168.5 1037,-168.5"/>
<text text-anchor="middle" x="1073" y="-175.5" font-family="Helvetica,sans-Serif" font-size="10.00">netinet/in.h</text>
</a>
</g>
</g>
<!-- Node1&#45;&gt;Node28 -->
<g id="edge36" class="edge">
<title>Node1&#45;&gt;Node28</title>
<path fill="none" stroke="midnightblue" d="M820.02,-225.83C867.38,-217.49 947.9,-203.16 1026.58,-188.24"/>
<polygon fill="midnightblue" stroke="midnightblue" points="1027.49,-191.63 1036.66,-186.33 1026.18,-184.76 1027.49,-191.63"/>
</g>
<!-- Node2&#45;&gt;Node3 -->
<g id="edge2" class="edge">
<title>Node2&#45;&gt;Node3</title>
<path fill="none" stroke="midnightblue" d="M640.33,-168.32C622.61,-159.62 595.1,-146.12 574.71,-136.11"/>
<polygon fill="midnightblue" stroke="midnightblue" points="576.15,-132.92 565.63,-131.65 573.06,-139.2 576.15,-132.92"/>
</g>
<!-- Node2&#45;&gt;Node18 -->
<g id="edge19" class="edge">
<title>Node2&#45;&gt;Node18</title>
<path fill="none" stroke="midnightblue" d="M668.44,-168.32C678.15,-160.26 692.82,-148.08 704.5,-138.37"/>
<polygon fill="midnightblue" stroke="midnightblue" points="706.91,-140.92 712.37,-131.83 702.44,-135.53 706.91,-140.92"/>
</g>
<!-- Node4 -->
<g id="node4" class="node">
<title>Node4</title>
<g id="a_node4"><a xlink:href="enum__formatter_8h.html" target="_top" xlink:title=" ">
<polygon fill="white" stroke="black" points="480,-56.5 480,-75.5 616,-75.5 616,-56.5 480,-56.5"/>
<text text-anchor="middle" x="548" y="-63.5" font-family="Helvetica,sans-Serif" font-size="10.00">ccf/ds/enum_formatter.h</text>
</a>
</g>
</g>
<!-- Node3&#45;&gt;Node4 -->
<g id="edge3" class="edge">
<title>Node3&#45;&gt;Node4</title>
<path fill="none" stroke="midnightblue" d="M548,-112.08C548,-105.01 548,-94.86 548,-85.99"/>
<polygon fill="midnightblue" stroke="midnightblue" points="551.5,-85.75 548,-75.75 544.5,-85.75 551.5,-85.75"/>
</g>
<!-- Node5 -->
<g id="node5" class="node">
<title>Node5</title>
<g id="a_node5"><a xlink:title=" ">
<polygon fill="white" stroke="#bfbfbf" points="466.5,-0.5 466.5,-19.5 545.5,-19.5 545.5,-0.5 466.5,-0.5"/>
<text text-anchor="middle" x="506" y="-7.5" font-family="Helvetica,sans-Serif" font-size="10.00">fmt/format.h</text>
</a>
</g>
</g>
<!-- Node3&#45;&gt;Node5 -->
<g id="edge13" class="edge">
<title>Node3&#45;&gt;Node5</title>
<path fill="none" stroke="midnightblue" d="M519.63,-112.49C502.25,-105.65 481.4,-94.13 471,-76 461.51,-59.46 474.87,-40.19 487.73,-26.95"/>
<polygon fill="midnightblue" stroke="midnightblue" points="490.27,-29.36 495.07,-19.91 485.43,-24.31 490.27,-29.36"/>
</g>
<!-- Node6 -->
<g id="node6" class="node">
<title>Node6</title>
<g id="a_node6"><a xlink:href="thread__ids_8h.html" target="_top" xlink:title=" ">
<polygon fill="white" stroke="black" points="634,-56.5 634,-75.5 742,-75.5 742,-56.5 634,-56.5"/>
<text text-anchor="middle" x="688" y="-63.5" font-family="Helvetica,sans-Serif" font-size="10.00">ccf/ds/thread_ids.h</text>
</a>
</g>
</g>
<!-- Node3&#45;&gt;Node6 -->
<g id="edge5" class="edge">
<title>Node3&#45;&gt;Node6</title>
<path fill="none" stroke="midnightblue" d="M570.18,-112.44C593.43,-103.48 630.15,-89.31 656.42,-79.18"/>
<polygon fill="midnightblue" stroke="midnightblue" points="657.85,-82.38 665.92,-75.52 655.33,-75.85 657.85,-82.38"/>
</g>
<!-- Node12 -->
<g id="node12" class="node">
<title>Node12</title>
<g id="a_node12"><a xlink:title=" ">
<polygon fill="white" stroke="#bfbfbf" points="760.5,-56.5 760.5,-75.5 839.5,-75.5 839.5,-56.5 760.5,-56.5"/>
<text text-anchor="middle" x="800" y="-63.5" font-family="Helvetica,sans-Serif" font-size="10.00">fmt/chrono.h</text>
</a>
</g>
</g>
<!-- Node3&#45;&gt;Node12 -->
<g id="edge12" class="edge">
<title>Node3&#45;&gt;Node12</title>
<path fill="none" stroke="midnightblue" d="M587.93,-112.44C631.89,-103.02 702.63,-87.87 750.18,-77.68"/>
<polygon fill="midnightblue" stroke="midnightblue" points="751.21,-81.03 760.26,-75.52 749.75,-74.19 751.21,-81.03"/>
</g>
<!-- Node13 -->
<g id="node13" class="node">
<title>Node13</title>
<g id="a_node13"><a xlink:title=" ">
<polygon fill="white" stroke="#bfbfbf" points="74,-56.5 74,-75.5 134,-75.5 134,-56.5 74,-56.5"/>
<text text-anchor="middle" x="104" y="-63.5" font-family="Helvetica,sans-Serif" font-size="10.00">iostream</text>
</a>
</g>
</g>
<!-- Node3&#45;&gt;Node13 -->
<g id="edge14" class="edge">
<title>Node3&#45;&gt;Node13</title>
<path fill="none" stroke="midnightblue" d="M504.32,-117.82C431.64,-112.17 281.17,-98.91 144.4,-76.06"/>
<polygon fill="midnightblue" stroke="midnightblue" points="144.61,-72.54 134.16,-74.33 143.44,-79.45 144.61,-72.54"/>
</g>
<!-- Node14 -->
<g id="node14" class="node">
<title>Node14</title>
<g id="a_node14"><a xlink:title=" ">
<polygon fill="white" stroke="#bfbfbf" points="152,-56.5 152,-75.5 262,-75.5 262,-56.5 152,-56.5"/>
<text text-anchor="middle" x="207" y="-63.5" font-family="Helvetica,sans-Serif" font-size="10.00">nlohmann/json.hpp</text>
</a>
</g>
</g>
<!-- Node3&#45;&gt;Node14 -->
<g id="edge15" class="edge">
<title>Node3&#45;&gt;Node14</title>
<path fill="none" stroke="midnightblue" d="M504.47,-114.11C445.38,-104.75 339.35,-87.96 271.13,-77.16"/>
<polygon fill="midnightblue" stroke="midnightblue" points="271.36,-73.65 260.94,-75.54 270.27,-80.56 271.36,-73.65"/>
</g>
<!-- Node3&#45;&gt;Node15 -->
<g id="edge16" class="edge">
<title>Node3&#45;&gt;Node15</title>
<path fill="none" stroke="midnightblue" d="M504.43,-119.07C421.09,-114.92 233.25,-103.35 66.15,-75.96"/>
<polygon fill="midnightblue" stroke="midnightblue" points="66.63,-72.49 56.19,-74.31 65.48,-79.4 66.63,-72.49"/>
</g>
<!-- Node16 -->
<g id="node16" class="node">
<title>Node16</title>
<g id="a_node16"><a xlink:title=" ">
<polygon fill="white" stroke="#bfbfbf" points="280,-56.5 280,-75.5 336,-75.5 336,-56.5 280,-56.5"/>
<text text-anchor="middle" x="308" y="-63.5" font-family="Helvetica,sans-Serif" font-size="10.00">sstream</text>
</a>
</g>
</g>
<!-- Node3&#45;&gt;Node16 -->
<g id="edge17" class="edge">
<title>Node3&#45;&gt;Node16</title>
<path fill="none" stroke="midnightblue" d="M508.27,-112.44C469.39,-104.02 408.22,-90.61 346.22,-76.25"/>
<polygon fill="midnightblue" stroke="midnightblue" points="346.8,-72.79 336.27,-73.94 345.22,-79.61 346.8,-72.79"/>
</g>
<!-- Node17 -->
<g id="node17" class="node">
<title>Node17</title>
<g id="a_node17"><a xlink:title=" ">
<polygon fill="white" stroke="#bfbfbf" points="354.5,-56.5 354.5,-75.5 423.5,-75.5 423.5,-56.5 354.5,-56.5"/>
<text text-anchor="middle" x="389" y="-63.5" font-family="Helvetica,sans-Serif" font-size="10.00">type_traits</text>
</a>
</g>
</g>
<!-- Node3&#45;&gt;Node17 -->
<g id="edge18" class="edge">
<title>Node3&#45;&gt;Node17</title>
<path fill="none" stroke="midnightblue" d="M522.81,-112.44C496.06,-103.36 453.6,-88.94 423.69,-78.78"/>
<polygon fill="midnightblue" stroke="midnightblue" points="424.67,-75.42 414.08,-75.52 422.42,-82.05 424.67,-75.42"/>
</g>
<!-- Node4&#45;&gt;Node5 -->
<g id="edge4" class="edge">
<title>Node4&#45;&gt;Node5</title>
<path fill="none" stroke="midnightblue" d="M541.06,-56.08C535.07,-48.38 526.25,-37.03 518.95,-27.65"/>
<polygon fill="midnightblue" stroke="midnightblue" points="521.71,-25.5 512.81,-19.75 516.18,-29.79 521.71,-25.5"/>
</g>
<!-- Node6&#45;&gt;Node5 -->
<g id="edge6" class="edge">
<title>Node6&#45;&gt;Node5</title>
<path fill="none" stroke="midnightblue" d="M659.16,-56.44C628.14,-47.24 578.67,-32.56 544.38,-22.39"/>
<polygon fill="midnightblue" stroke="midnightblue" points="545.29,-19.01 534.7,-19.52 543.29,-25.72 545.29,-19.01"/>
</g>
<!-- Node7 -->
<g id="node7" class="node">
<title>Node7</title>
<g id="a_node7"><a xlink:title=" ">
<polygon fill="white" stroke="#bfbfbf" points="686,-0.5 686,-19.5 772,-19.5 772,-0.5 686,-0.5"/>
<text text-anchor="middle" x="729" y="-7.5" font-family="Helvetica,sans-Serif" font-size="10.00">fmt/ostream.h</text>
</a>
</g>
</g>
<!-- Node6&#45;&gt;Node7 -->
<g id="edge7" class="edge">
<title>Node6&#45;&gt;Node7</title>
<path fill="none" stroke="midnightblue" d="M694.77,-56.08C700.56,-48.46 709.06,-37.26 716.14,-27.94"/>
<polygon fill="midnightblue" stroke="midnightblue" points="719.1,-29.83 722.36,-19.75 713.52,-25.6 719.1,-29.83"/>
</g>
<!-- Node8 -->
<g id="node8" class="node">
<title>Node8</title>
<g id="a_node8"><a xlink:title=" ">
<polygon fill="white" stroke="#bfbfbf" points="790.5,-0.5 790.5,-19.5 851.5,-19.5 851.5,-0.5 790.5,-0.5"/>
<text text-anchor="middle" x="821" y="-7.5" font-family="Helvetica,sans-Serif" font-size="10.00">fmt/std.h</text>
</a>
</g>
</g>
<!-- Node6&#45;&gt;Node8 -->
<g id="edge8" class="edge">
<title>Node6&#45;&gt;Node8</title>
<path fill="none" stroke="midnightblue" d="M709.07,-56.44C731.06,-47.52 765.73,-33.44 790.66,-23.32"/>
<polygon fill="midnightblue" stroke="midnightblue" points="792.08,-26.52 800.02,-19.52 789.44,-20.04 792.08,-26.52"/>
</g>
<!-- Node9 -->
<g id="node9" class="node">
<title>Node9</title>
<g id="a_node9"><a xlink:title=" ">
<polygon fill="white" stroke="#bfbfbf" points="870,-0.5 870,-19.5 914,-19.5 914,-0.5 870,-0.5"/>
<text text-anchor="middle" x="892" y="-7.5" font-family="Helvetica,sans-Serif" font-size="10.00">limits</text>
</a>
</g>
</g>
<!-- Node6&#45;&gt;Node9 -->
<g id="edge9" class="edge">
<title>Node6&#45;&gt;Node9</title>
<path fill="none" stroke="midnightblue" d="M721.34,-56.47C756.03,-47.55 811.89,-33.06 860,-20 860.1,-19.97 860.2,-19.95 860.3,-19.92"/>
<polygon fill="midnightblue" stroke="midnightblue" points="861.27,-23.28 869.98,-17.25 859.41,-16.53 861.27,-23.28"/>
</g>
<!-- Node10 -->
<g id="node10" class="node">
<title>Node10</title>
<g id="a_node10"><a xlink:title=" ">
<polygon fill="white" stroke="#bfbfbf" points="564,-0.5 564,-19.5 602,-19.5 602,-0.5 564,-0.5"/>
<text text-anchor="middle" x="583" y="-7.5" font-family="Helvetica,sans-Serif" font-size="10.00">map</text>
</a>
</g>
</g>
<!-- Node6&#45;&gt;Node10 -->
<g id="edge10" class="edge">
<title>Node6&#45;&gt;Node10</title>
<path fill="none" stroke="midnightblue" d="M671.13,-56.32C654.29,-47.66 628.19,-34.24 608.76,-24.25"/>
<polygon fill="midnightblue" stroke="midnightblue" points="610.32,-21.12 599.83,-19.65 607.12,-27.34 610.32,-21.12"/>
</g>
<!-- Node11 -->
<g id="node11" class="node">
<title>Node11</title>
<g id="a_node11"><a xlink:title=" ">
<polygon fill="white" stroke="#bfbfbf" points="620,-0.5 620,-19.5 668,-19.5 668,-0.5 620,-0.5"/>
<text text-anchor="middle" x="644" y="-7.5" font-family="Helvetica,sans-Serif" font-size="10.00">thread</text>
</a>
</g>
</g>
<!-- Node6&#45;&gt;Node11 -->
<g id="edge11" class="edge">
<title>Node6&#45;&gt;Node11</title>
<path fill="none" stroke="midnightblue" d="M680.73,-56.08C674.46,-48.38 665.21,-37.03 657.57,-27.65"/>
<polygon fill="midnightblue" stroke="midnightblue" points="660.16,-25.29 651.13,-19.75 654.73,-29.71 660.16,-25.29"/>
</g>
<!-- Node19 -->
<g id="node19" class="node">
<title>Node19</title>
<g id="a_node19"><a xlink:title=" ">
<polygon fill="white" stroke="#bfbfbf" points="857,-56.5 857,-75.5 915,-75.5 915,-56.5 857,-56.5"/>
<text text-anchor="middle" x="886" y="-63.5" font-family="Helvetica,sans-Serif" font-size="10.00">memory</text>
</a>
</g>
</g>
<!-- Node18&#45;&gt;Node19 -->
<g id="edge20" class="edge">
<title>Node18&#45;&gt;Node19</title>
<path fill="none" stroke="midnightblue" d="M748.83,-112.44C776.25,-103.36 819.78,-88.94 850.43,-78.78"/>
<polygon fill="midnightblue" stroke="midnightblue" points="851.9,-81.98 860.29,-75.52 849.7,-75.34 851.9,-81.98"/>
</g>
<!-- Node20 -->
<g id="node20" class="node">
<title>Node20</title>
<g id="a_node20"><a xlink:title=" ">
<polygon fill="white" stroke="#bfbfbf" points="933.5,-56.5 933.5,-75.5 970.5,-75.5 970.5,-56.5 933.5,-56.5"/>
<text text-anchor="middle" x="952" y="-63.5" font-family="Helvetica,sans-Serif" font-size="10.00">uv.h</text>
</a>
</g>
</g>
<!-- Node18&#45;&gt;Node20 -->
<g id="edge21" class="edge">
<title>Node18&#45;&gt;Node20</title>
<path fill="none" stroke="midnightblue" d="M749.32,-115.25C794.97,-105.25 886.8,-85.06 923.53,-75.83"/>
<polygon fill="midnightblue" stroke="midnightblue" points="924.61,-79.16 933.39,-73.24 922.83,-72.39 924.61,-79.16"/>
</g>
<!-- Node22 -->
<g id="node22" class="node">
<title>Node22</title>
<g id="a_node22"><a xlink:title=" ">
<polygon fill="white" stroke="#bfbfbf" points="989,-56.5 989,-75.5 1037,-75.5 1037,-56.5 989,-56.5"/>
<text text-anchor="middle" x="1013" y="-63.5" font-family="Helvetica,sans-Serif" font-size="10.00">mutex</text>
</a>
</g>
</g>
<!-- Node21&#45;&gt;Node22 -->
<g id="edge24" class="edge">
<title>Node21&#45;&gt;Node22</title>
<path fill="none" stroke="midnightblue" d="M999.64,-112.08C1001.79,-104.85 1004.88,-94.41 1007.55,-85.4"/>
<polygon fill="midnightblue" stroke="midnightblue" points="1010.92,-86.33 1010.41,-75.75 1004.21,-84.34 1010.92,-86.33"/>
</g>
<!-- Node23&#45;&gt;Node3 -->
<g id="edge26" class="edge">
<title>Node23&#45;&gt;Node3</title>
<path fill="none" stroke="midnightblue" d="M825.4,-170.38C822.26,-169.52 819.06,-168.7 816,-168 742.54,-151.23 656.43,-137.87 602.05,-130.19"/>
<polygon fill="midnightblue" stroke="midnightblue" points="602.33,-126.7 591.94,-128.78 601.36,-133.63 602.33,-126.7"/>
</g>
<!-- Node23&#45;&gt;Node20 -->
<g id="edge29" class="edge">
<title>Node23&#45;&gt;Node20</title>
<path fill="none" stroke="midnightblue" d="M841.82,-168.15C834.76,-154.79 824.23,-129.19 836,-112 841.2,-104.41 890.86,-86.99 923.49,-76.19"/>
<polygon fill="midnightblue" stroke="midnightblue" points="924.6,-79.51 933.01,-73.07 922.42,-72.86 924.6,-79.51"/>
</g>
<!-- Node23&#45;&gt;Node21 -->
<g id="edge27" class="edge">
<title>Node23&#45;&gt;Node21</title>
<path fill="none" stroke="midnightblue" d="M868.81,-169.15C893.67,-160.2 934.59,-145.47 963.5,-135.06"/>
<polygon fill="midnightblue" stroke="midnightblue" points="964.96,-138.26 973.18,-131.58 962.58,-131.67 964.96,-138.26"/>
</g>
<!-- Node24 -->
<g id="node24" class="node">
<title>Node24</title>
<g id="a_node24"><a xlink:title=" ">
<polygon fill="white" stroke="#bfbfbf" points="845,-112.5 845,-131.5 931,-131.5 931,-112.5 845,-112.5"/>
<text text-anchor="middle" x="888" y="-119.5" font-family="Helvetica,sans-Serif" font-size="10.00">unordered_set</text>
</a>
</g>
</g>
<!-- Node23&#45;&gt;Node24 -->
<g id="edge28" class="edge">
<title>Node23&#45;&gt;Node24</title>
<path fill="none" stroke="midnightblue" d="M853.77,-168.08C859.56,-160.46 868.06,-149.26 875.14,-139.94"/>
<polygon fill="midnightblue" stroke="midnightblue" points="878.1,-141.83 881.36,-131.75 872.52,-137.6 878.1,-141.83"/>
</g>
<!-- Node26 -->
<g id="node26" class="node">
<title>Node26</title>
<g id="a_node26"><a xlink:title=" ">
<polygon fill="white" stroke="#bfbfbf" points="1063.5,-112.5 1063.5,-131.5 1140.5,-131.5 1140.5,-112.5 1063.5,-112.5"/>
<text text-anchor="middle" x="1102" y="-119.5" font-family="Helvetica,sans-Serif" font-size="10.00">sys/socket.h</text>
</a>
</g>
</g>
<!-- Node25&#45;&gt;Node26 -->
<g id="edge31" class="edge">
<title>Node25&#45;&gt;Node26</title>
<path fill="none" stroke="midnightblue" d="M992.6,-168.44C1013.99,-159.56 1047.68,-145.56 1072.02,-135.45"/>
<polygon fill="midnightblue" stroke="midnightblue" points="1073.61,-138.58 1081.5,-131.52 1070.92,-132.12 1073.61,-138.58"/>
</g>
<!-- Node27&#45;&gt;Node3 -->
<g id="edge34" class="edge">
<title>Node27&#45;&gt;Node3</title>
<path fill="none" stroke="midnightblue" d="M750.21,-170.27C711.11,-161.13 640.77,-144.69 594.23,-133.81"/>
<polygon fill="midnightblue" stroke="midnightblue" points="594.92,-130.38 584.39,-131.51 593.33,-137.19 594.92,-130.38"/>
</g>
<!-- Node27&#45;&gt;Node20 -->
<g id="edge35" class="edge">
<title>Node27&#45;&gt;Node20</title>
<path fill="none" stroke="midnightblue" d="M783.34,-168.13C790.56,-154.25 806.3,-127.42 827,-112 835.02,-106.03 889.51,-87.5 923.85,-76.17"/>
<polygon fill="midnightblue" stroke="midnightblue" points="924.96,-79.49 933.37,-73.04 922.78,-72.84 924.96,-79.49"/>
</g>
</g>
</svg>
        <g id="navigator" transform="translate(0 0)" fill="#404254">
                <rect fill="#f2f5e9" fill-opacity="0.5" stroke="#606060" stroke-width=".5" x="0" y="0" width="60" height="60"/>
                <use id="zoomplus" xlink:href="#zoomPlus" x="17" y="9" onmousedown="handleZoom(evt,'in')"/>
                <use id="zoomminus" xlink:href="#zoomMin" x="42" y="9" onmousedown="handleZoom(evt,'out')"/>
                <use id="reset" xlink:href="#resetDef" x="30" y="36" onmousedown="handleReset()"/>
                <g id="arrowUp" xlink:href="#dirArrow" transform="translate(30 24)" onmousedown="handlePan(0,-1)">
                  <use xlink:href="#rim" fill="#404040">
                        <set attributeName="fill" to="#808080" begin="arrowUp.mouseover" end="arrowUp.mouseout"/>
                  </use>
                  <path fill="none" stroke="white" stroke-width="1.5" d="M0,-3.0v7 M-2.5,-0.5L0,-3.0L2.5,-0.5"/>
                </g>
                <g id="arrowRight" xlink:href="#dirArrow" transform="rotate(90) translate(36 -43)" onmousedown="handlePan(1,0)">
                  <use xlink:href="#rim" fill="#404040">
                        <set attributeName="fill" to="#808080" begin="arrowRight.mouseover" end="arrowRight.mouseout"/>
                  </use>
                  <path fill="none" stroke="white" stroke-width="1.5" d="M0,-3.0v7 M-2.5,-0.5L0,-3.0L2.5,-0.5"/>
                </g>
                <g id="arrowDown" xlink:href="#dirArrow" transform="rotate(180) translate(-30 -48)" onmousedown="handlePan(0,1)">
                  <use xlink:href="#rim" fill="#404040">
                        <set attributeName="fill" to="#808080" begin="arrowDown.mouseover" end="arrowDown.mouseout"/>
                  </use>
                  <path fill="none" stroke="white" stroke-width="1.5" d="M0,-3.0v7 M-2.5,-0.5L0,-3.0L2.5,-0.5"/>
                </g>
                <g id="arrowLeft" xlink:href="#dirArrow" transform="rotate(270) translate(-36 17)" onmousedown="handlePan(-1,0)">
                  <use xlink:href="#rim" fill="#404040">
                        <set attributeName="fill" to="#808080" begin="arrowLeft.mouseover" end="arrowLeft.mouseout"/>
                  </use>
                  <path fill="none" stroke="white" stroke-width="1.5" d="M0,-3.0v7 M-2.5,-0.5L0,-3.0L2.5,-0.5"/>
                </g>
        </g>
        <svg viewBox="0 0 15 15" width="100%" height="30px" preserveAspectRatio="xMaxYMin meet">
         <g id="arrow_out" transform="scale(0.3 0.3)">
          <a xlink:href="tcp_8h__incl_org.svg" target="_base">
           <rect id="button" ry="5" rx="5" y="6" x="6" height="38" width="38"
                fill="#f2f5e9" fill-opacity="0.5" stroke="#606060" stroke-width="1.0"/>
           <path id="arrow"
             d="M 11.500037,31.436501 C 11.940474,20.09759 22.043105,11.32322 32.158766,21.979434 L 37.068811,17.246167 C 37.068811,17.246167 37.088388,32 37.088388,32 L 22.160133,31.978069 C 22.160133,31.978069 26.997745,27.140456 26.997745,27.140456 C 18.528582,18.264221 13.291696,25.230495 11.500037,31.436501 z"
             style="fill:#404040;"/>
          </a>
         </g>
        </svg>
</svg>
