<?xml version="1.0" encoding="UTF-8" standalone="no"?>
<!DOCTYPE svg PUBLIC "-//W3C//DTD SVG 1.1//EN"
 "http://www.w3.org/Graphics/SVG/1.1/DTD/svg11.dtd">
<!-- Generated by graphviz version 2.43.0 (0)
 -->
<!-- Title: src/node/tx_receipt_impl.h Pages: 1 -->
<svg width="395pt" height="408pt"
 viewBox="0.00 0.00 395.00 408.00" xmlns="http://www.w3.org/2000/svg" xmlns:xlink="http://www.w3.org/1999/xlink">
<g id="graph0" class="graph" transform="scale(1 1) rotate(0) translate(4 404)">
<title>src/node/tx_receipt_impl.h</title>
<polygon fill="white" stroke="transparent" points="-4,4 -4,-404 391,-404 391,4 -4,4"/>
<!-- Node1 -->
<g id="node1" class="node">
<title>Node1</title>
<g id="a_node1"><a xlink:title=" ">
<polygon fill="#bfbfbf" stroke="black" points="86,-369.5 86,-399.5 196,-399.5 196,-369.5 86,-369.5"/>
<text text-anchor="start" x="94" y="-387.5" font-family="Helvetica,sans-Serif" font-size="10.00">src/node/tx_receipt</text>
<text text-anchor="middle" x="141" y="-376.5" font-family="Helvetica,sans-Serif" font-size="10.00">_impl.h</text>
</a>
</g>
</g>
<!-- Node2 -->
<g id="node2" class="node">
<title>Node2</title>
<g id="a_node2"><a xlink:href="historical__queries_8h.html" target="_top" xlink:title=" ">
<polygon fill="white" stroke="black" points="0,-179.5 0,-209.5 106,-209.5 106,-179.5 0,-179.5"/>
<text text-anchor="start" x="8" y="-197.5" font-family="Helvetica,sans-Serif" font-size="10.00">src/node/historical</text>
<text text-anchor="middle" x="53" y="-186.5" font-family="Helvetica,sans-Serif" font-size="10.00">_queries.h</text>
</a>
</g>
</g>
<!-- Node1&#45;&gt;Node2 -->
<g id="edge1" class="edge">
<title>Node1&#45;&gt;Node2</title>
<path fill="none" stroke="midnightblue" d="M103.47,-364.05C91.55,-356.03 79.53,-345.62 72,-333 48.28,-293.27 49.45,-235.79 51.52,-209.54"/>
<polygon fill="midnightblue" stroke="midnightblue" points="101.73,-367.09 112.06,-369.47 105.47,-361.17 101.73,-367.09"/>
</g>
<!-- Node6 -->
<g id="node6" class="node">
<title>Node6</title>
<g id="a_node6"><a xlink:href="historical__queries__adapter_8cpp.html" target="_top" xlink:title=" ">
<polygon fill="white" stroke="black" points="81,-302.5 81,-332.5 201,-332.5 201,-302.5 81,-302.5"/>
<text text-anchor="start" x="89" y="-320.5" font-family="Helvetica,sans-Serif" font-size="10.00">src/node/historical</text>
<text text-anchor="middle" x="141" y="-309.5" font-family="Helvetica,sans-Serif" font-size="10.00">_queries_adapter.cpp</text>
</a>
</g>
</g>
<!-- Node1&#45;&gt;Node6 -->
<g id="edge6" class="edge">
<title>Node1&#45;&gt;Node6</title>
<path fill="none" stroke="midnightblue" d="M141,-359.11C141,-350.15 141,-340.32 141,-332.58"/>
<polygon fill="midnightblue" stroke="midnightblue" points="137.5,-359.4 141,-369.4 144.5,-359.4 137.5,-359.4"/>
</g>
<!-- Node7 -->
<g id="node7" class="node">
<title>Node7</title>
<g id="a_node7"><a xlink:href="snapshot__serdes_8h.html" target="_top" xlink:title=" ">
<polygon fill="white" stroke="black" points="219,-308 219,-327 371,-327 371,-308 219,-308"/>
<text text-anchor="middle" x="295" y="-315" font-family="Helvetica,sans-Serif" font-size="10.00">src/node/snapshot_serdes.h</text>
</a>
</g>
</g>
<!-- Node1&#45;&gt;Node7 -->
<g id="edge7" class="edge">
<title>Node1&#45;&gt;Node7</title>
<path fill="none" stroke="midnightblue" d="M183.74,-365.46C213.5,-352.9 251.82,-336.72 274.84,-327.01"/>
<polygon fill="midnightblue" stroke="midnightblue" points="182.27,-362.28 174.42,-369.4 184.99,-368.73 182.27,-362.28"/>
</g>
<!-- Node3 -->
<g id="node3" class="node">
<title>Node3</title>
<g id="a_node3"><a xlink:href="src_2enclave_2enclave_8h.html" target="_top" xlink:title=" ">
<polygon fill="white" stroke="black" points="108,-56.5 108,-75.5 230,-75.5 230,-56.5 108,-56.5"/>
<text text-anchor="middle" x="169" y="-63.5" font-family="Helvetica,sans-Serif" font-size="10.00">src/enclave/enclave.h</text>
</a>
</g>
</g>
<!-- Node2&#45;&gt;Node3 -->
<g id="edge2" class="edge">
<title>Node2&#45;&gt;Node3</title>
<path fill="none" stroke="midnightblue" d="M45.85,-169.42C42.19,-151.97 40.59,-128.61 52,-112 65.12,-92.89 87.57,-81.9 109.32,-75.57"/>
<polygon fill="midnightblue" stroke="midnightblue" points="42.52,-170.54 48.3,-179.41 49.32,-168.87 42.52,-170.54"/>
</g>
<!-- Node5 -->
<g id="node5" class="node">
<title>Node5</title>
<g id="a_node5"><a xlink:href="historical__transaction__fetcher_8h.html" target="_top" xlink:title=" ">
<polygon fill="white" stroke="black" points="61.5,-112.5 61.5,-142.5 186.5,-142.5 186.5,-112.5 61.5,-112.5"/>
<text text-anchor="start" x="69.5" y="-130.5" font-family="Helvetica,sans-Serif" font-size="10.00">src/indexing/historical</text>
<text text-anchor="middle" x="124" y="-119.5" font-family="Helvetica,sans-Serif" font-size="10.00">_transaction_fetcher.h</text>
</a>
</g>
</g>
<!-- Node2&#45;&gt;Node5 -->
<g id="edge4" class="edge">
<title>Node2&#45;&gt;Node5</title>
<path fill="none" stroke="midnightblue" d="M75.83,-172.6C86.55,-162.78 99.05,-151.34 108.62,-142.58"/>
<polygon fill="midnightblue" stroke="midnightblue" points="73.42,-170.06 68.41,-179.4 78.15,-175.22 73.42,-170.06"/>
</g>
<!-- Node4 -->
<g id="node4" class="node">
<title>Node4</title>
<g id="a_node4"><a xlink:href="enclave_2main_8cpp.html" target="_top" xlink:title=" ">
<polygon fill="white" stroke="black" points="109,-0.5 109,-19.5 229,-19.5 229,-0.5 109,-0.5"/>
<text text-anchor="middle" x="169" y="-7.5" font-family="Helvetica,sans-Serif" font-size="10.00">src/enclave/main.cpp</text>
</a>
</g>
</g>
<!-- Node3&#45;&gt;Node4 -->
<g id="edge3" class="edge">
<title>Node3&#45;&gt;Node4</title>
<path fill="none" stroke="midnightblue" d="M169,-45.8C169,-36.91 169,-26.78 169,-19.75"/>
<polygon fill="midnightblue" stroke="midnightblue" points="165.5,-46.08 169,-56.08 172.5,-46.08 165.5,-46.08"/>
</g>
<!-- Node5&#45;&gt;Node3 -->
<g id="edge5" class="edge">
<title>Node5&#45;&gt;Node3</title>
<path fill="none" stroke="midnightblue" d="M140.71,-104.4C148.27,-94.41 156.76,-83.18 162.45,-75.66"/>
<polygon fill="midnightblue" stroke="midnightblue" points="137.9,-102.31 134.66,-112.4 143.49,-106.53 137.9,-102.31"/>
</g>
<!-- Node8 -->
<g id="node8" class="node">
<title>Node8</title>
<g id="a_node8"><a xlink:href="snapshotter_8h.html" target="_top" xlink:title=" ">
<polygon fill="white" stroke="black" points="231.5,-246.5 231.5,-265.5 358.5,-265.5 358.5,-246.5 231.5,-246.5"/>
<text text-anchor="middle" x="295" y="-253.5" font-family="Helvetica,sans-Serif" font-size="10.00">src/node/snapshotter.h</text>
</a>
</g>
</g>
<!-- Node7&#45;&gt;Node8 -->
<g id="edge8" class="edge">
<title>Node7&#45;&gt;Node8</title>
<path fill="none" stroke="midnightblue" d="M295,-297.82C295,-287 295,-273.9 295,-265.51"/>
<polygon fill="midnightblue" stroke="midnightblue" points="291.5,-297.98 295,-307.98 298.5,-297.98 291.5,-297.98"/>
</g>
<!-- Node9 -->
<g id="node9" class="node">
<title>Node9</title>
<g id="a_node9"><a xlink:href="node__state_8h.html" target="_top" xlink:title=" ">
<polygon fill="white" stroke="black" points="233,-185 233,-204 357,-204 357,-185 233,-185"/>
<text text-anchor="middle" x="295" y="-192" font-family="Helvetica,sans-Serif" font-size="10.00">src/node/node_state.h</text>
</a>
</g>
</g>
<!-- Node8&#45;&gt;Node9 -->
<g id="edge9" class="edge">
<title>Node8&#45;&gt;Node9</title>
<path fill="none" stroke="midnightblue" d="M295,-236.32C295,-225.5 295,-212.4 295,-204.01"/>
<polygon fill="midnightblue" stroke="midnightblue" points="291.5,-236.48 295,-246.48 298.5,-236.48 291.5,-236.48"/>
</g>
<!-- Node9&#45;&gt;Node3 -->
<g id="edge10" class="edge">
<title>Node9&#45;&gt;Node3</title>
<path fill="none" stroke="midnightblue" d="M275.02,-178.39C262.74,-168.75 246.93,-155.73 234,-143 210.98,-120.35 187.1,-90.49 175.76,-75.86"/>
<polygon fill="midnightblue" stroke="midnightblue" points="273.2,-181.4 283.25,-184.75 277.48,-175.86 273.2,-181.4"/>
</g>
<!-- Node10 -->
<g id="node10" class="node">
<title>Node10</title>
<g id="a_node10"><a xlink:href="gov__effects_8h.html" target="_top" xlink:title=" ">
<polygon fill="white" stroke="black" points="243,-118 243,-137 387,-137 387,-118 243,-118"/>
<text text-anchor="middle" x="315" y="-125" font-family="Helvetica,sans-Serif" font-size="10.00">src/node/rpc/gov_effects.h</text>
</a>
</g>
</g>
<!-- Node9&#45;&gt;Node10 -->
<g id="edge11" class="edge">
<title>Node9&#45;&gt;Node10</title>
<path fill="none" stroke="midnightblue" d="M300.72,-174.91C304.54,-162.49 309.39,-146.72 312.35,-137.13"/>
<polygon fill="midnightblue" stroke="midnightblue" points="297.29,-174.15 297.7,-184.73 303.98,-176.21 297.29,-174.15"/>
</g>
<!-- Node10&#45;&gt;Node3 -->
<g id="edge12" class="edge">
<title>Node10&#45;&gt;Node3</title>
<path fill="none" stroke="midnightblue" d="M284.65,-114.13C256.29,-102.57 214.69,-85.62 189.88,-75.51"/>
<polygon fill="midnightblue" stroke="midnightblue" points="283.5,-117.44 294.08,-117.98 286.14,-110.96 283.5,-117.44"/>
</g>
</g>
</svg>
