<?xml version="1.0" encoding="UTF-8" standalone="no"?>
<!DOCTYPE svg PUBLIC "-//W3C//DTD SVG 1.1//EN"
 "http://www.w3.org/Graphics/SVG/1.1/DTD/svg11.dtd">
<!-- Generated by graphviz version 2.43.0 (0)
 -->
<!-- Title: src/host/udp.h Pages: 1 -->
<svg width="1286pt" height="252pt"
 viewBox="0.00 0.00 1285.50 252.00" xmlns="http://www.w3.org/2000/svg" xmlns:xlink="http://www.w3.org/1999/xlink">
<g id="graph0" class="graph" transform="scale(1 1) rotate(0) translate(4 248)">
<title>src/host/udp.h</title>
<polygon fill="white" stroke="transparent" points="-4,4 -4,-248 1281.5,-248 1281.5,4 -4,4"/>
<!-- Node1 -->
<g id="node1" class="node">
<title>Node1</title>
<g id="a_node1"><a xlink:title=" ">
<polygon fill="#bfbfbf" stroke="black" points="793.5,-224.5 793.5,-243.5 878.5,-243.5 878.5,-224.5 793.5,-224.5"/>
<text text-anchor="middle" x="836" y="-231.5" font-family="Helvetica,sans-Serif" font-size="10.00">src/host/udp.h</text>
</a>
</g>
</g>
<!-- Node2 -->
<g id="node2" class="node">
<title>Node2</title>
<g id="a_node2"><a xlink:href="before__io_8h.html" target="_top" xlink:title=" ">
<polygon fill="white" stroke="black" points="637.5,-168.5 637.5,-187.5 708.5,-187.5 708.5,-168.5 637.5,-168.5"/>
<text text-anchor="middle" x="673" y="-175.5" font-family="Helvetica,sans-Serif" font-size="10.00">before_io.h</text>
</a>
</g>
</g>
<!-- Node1&#45;&gt;Node2 -->
<g id="edge1" class="edge">
<title>Node1&#45;&gt;Node2</title>
<path fill="none" stroke="midnightblue" d="M810.17,-224.44C782.75,-215.36 739.22,-200.94 708.57,-190.78"/>
<polygon fill="midnightblue" stroke="midnightblue" points="709.3,-187.34 698.71,-187.52 707.1,-193.98 709.3,-187.34"/>
</g>
<!-- Node3 -->
<g id="node3" class="node">
<title>Node3</title>
<g id="a_node3"><a xlink:href="logger_8h.html" target="_top" xlink:title=" ">
<polygon fill="white" stroke="black" points="565.5,-112.5 565.5,-131.5 652.5,-131.5 652.5,-112.5 565.5,-112.5"/>
<text text-anchor="middle" x="609" y="-119.5" font-family="Helvetica,sans-Serif" font-size="10.00">ccf/ds/logger.h</text>
</a>
</g>
</g>
<!-- Node1&#45;&gt;Node3 -->
<g id="edge22" class="edge">
<title>Node1&#45;&gt;Node3</title>
<path fill="none" stroke="midnightblue" d="M793.35,-228.9C739.67,-222.9 651.59,-209.97 628,-188 615.37,-176.24 610.98,-156.6 609.53,-141.98"/>
<polygon fill="midnightblue" stroke="midnightblue" points="613,-141.35 608.9,-131.58 606.01,-141.77 613,-141.35"/>
</g>
<!-- Node15 -->
<g id="node15" class="node">
<title>Node15</title>
<g id="a_node15"><a xlink:title=" ">
<polygon fill="white" stroke="#bfbfbf" points="783,-56.5 783,-75.5 839,-75.5 839,-56.5 783,-56.5"/>
<text text-anchor="middle" x="811" y="-63.5" font-family="Helvetica,sans-Serif" font-size="10.00">optional</text>
</a>
</g>
</g>
<!-- Node1&#45;&gt;Node15 -->
<g id="edge36" class="edge">
<title>Node1&#45;&gt;Node15</title>
<path fill="none" stroke="midnightblue" d="M834.66,-224.08C830.72,-197.95 819.16,-121.21 813.8,-85.58"/>
<polygon fill="midnightblue" stroke="midnightblue" points="817.24,-84.94 812.29,-75.57 810.32,-85.98 817.24,-84.94"/>
</g>
<!-- Node18 -->
<g id="node18" class="node">
<title>Node18</title>
<g id="a_node18"><a xlink:href="proxy_8h.html" target="_top" xlink:title=" ">
<polygon fill="white" stroke="black" points="836,-112.5 836,-131.5 888,-131.5 888,-112.5 836,-112.5"/>
<text text-anchor="middle" x="862" y="-119.5" font-family="Helvetica,sans-Serif" font-size="10.00">proxy.h</text>
</a>
</g>
</g>
<!-- Node1&#45;&gt;Node18 -->
<g id="edge32" class="edge">
<title>Node1&#45;&gt;Node18</title>
<path fill="none" stroke="midnightblue" d="M838.04,-224.37C842.24,-206.62 851.92,-165.67 857.6,-141.6"/>
<polygon fill="midnightblue" stroke="midnightblue" points="861.08,-142.13 859.97,-131.59 854.26,-140.52 861.08,-142.13"/>
</g>
<!-- Node21 -->
<g id="node21" class="node">
<title>Node21</title>
<g id="a_node21"><a xlink:href="locking_8h.html" target="_top" xlink:title=" ">
<polygon fill="white" stroke="black" points="1086,-112.5 1086,-131.5 1182,-131.5 1182,-112.5 1086,-112.5"/>
<text text-anchor="middle" x="1134" y="-119.5" font-family="Helvetica,sans-Serif" font-size="10.00">ccf/pal/locking.h</text>
</a>
</g>
</g>
<!-- Node1&#45;&gt;Node21 -->
<g id="edge23" class="edge">
<title>Node1&#45;&gt;Node21</title>
<path fill="none" stroke="midnightblue" d="M867.81,-224.46C898.02,-216.08 944.55,-202.49 984,-188 1027.56,-172 1076.67,-149.92 1106.47,-136.06"/>
<polygon fill="midnightblue" stroke="midnightblue" points="1108.23,-139.1 1115.8,-131.69 1105.26,-132.76 1108.23,-139.1"/>
</g>
<!-- Node23 -->
<g id="node23" class="node">
<title>Node23</title>
<g id="a_node23"><a xlink:href="dns_8h.html" target="_top" xlink:title=" ">
<polygon fill="white" stroke="black" points="932.5,-168.5 932.5,-187.5 975.5,-187.5 975.5,-168.5 932.5,-168.5"/>
<text text-anchor="middle" x="954" y="-175.5" font-family="Helvetica,sans-Serif" font-size="10.00">dns.h</text>
</a>
</g>
</g>
<!-- Node1&#45;&gt;Node23 -->
<g id="edge25" class="edge">
<title>Node1&#45;&gt;Node23</title>
<path fill="none" stroke="midnightblue" d="M854.7,-224.44C873.94,-215.64 904.15,-201.81 926.2,-191.72"/>
<polygon fill="midnightblue" stroke="midnightblue" points="927.75,-194.86 935.39,-187.52 924.84,-188.5 927.75,-194.86"/>
</g>
<!-- Node25 -->
<g id="node25" class="node">
<title>Node25</title>
<g id="a_node25"><a xlink:href="pending__io_8h.html" target="_top" xlink:title=" ">
<polygon fill="white" stroke="black" points="1144.5,-168.5 1144.5,-187.5 1237.5,-187.5 1237.5,-168.5 1144.5,-168.5"/>
<text text-anchor="middle" x="1191" y="-175.5" font-family="Helvetica,sans-Serif" font-size="10.00">ds/pending_io.h</text>
</a>
</g>
</g>
<!-- Node1&#45;&gt;Node25 -->
<g id="edge30" class="edge">
<title>Node1&#45;&gt;Node25</title>
<path fill="none" stroke="midnightblue" d="M878.82,-226.49C942.71,-216.77 1063.08,-198.46 1134.24,-187.63"/>
<polygon fill="midnightblue" stroke="midnightblue" points="1135.01,-191.06 1144.37,-186.09 1133.95,-184.14 1135.01,-191.06"/>
</g>
<!-- Node27 -->
<g id="node27" class="node">
<title>Node27</title>
<g id="a_node27"><a xlink:href="socket_8h.html" target="_top" xlink:title=" ">
<polygon fill="white" stroke="black" points="726.5,-168.5 726.5,-187.5 783.5,-187.5 783.5,-168.5 726.5,-168.5"/>
<text text-anchor="middle" x="755" y="-175.5" font-family="Helvetica,sans-Serif" font-size="10.00">socket.h</text>
</a>
</g>
</g>
<!-- Node1&#45;&gt;Node27 -->
<g id="edge33" class="edge">
<title>Node1&#45;&gt;Node27</title>
<path fill="none" stroke="midnightblue" d="M822.99,-224.32C810.47,-215.98 791.32,-203.21 776.53,-193.35"/>
<polygon fill="midnightblue" stroke="midnightblue" points="778.24,-190.29 767.98,-187.65 774.36,-196.11 778.24,-190.29"/>
</g>
<!-- Node2&#45;&gt;Node3 -->
<g id="edge2" class="edge">
<title>Node2&#45;&gt;Node3</title>
<path fill="none" stroke="midnightblue" d="M662.72,-168.32C653.16,-160.26 638.72,-148.08 627.22,-138.37"/>
<polygon fill="midnightblue" stroke="midnightblue" points="629.37,-135.61 619.47,-131.83 624.86,-140.96 629.37,-135.61"/>
</g>
<!-- Node2&#45;&gt;Node18 -->
<g id="edge19" class="edge">
<title>Node2&#45;&gt;Node18</title>
<path fill="none" stroke="midnightblue" d="M702.95,-168.44C736.29,-158.92 790.18,-143.52 825.85,-133.33"/>
<polygon fill="midnightblue" stroke="midnightblue" points="827.19,-136.59 835.84,-130.47 825.27,-129.85 827.19,-136.59"/>
</g>
<!-- Node4 -->
<g id="node4" class="node">
<title>Node4</title>
<g id="a_node4"><a xlink:href="enum__formatter_8h.html" target="_top" xlink:title=" ">
<polygon fill="white" stroke="black" points="406,-56.5 406,-75.5 542,-75.5 542,-56.5 406,-56.5"/>
<text text-anchor="middle" x="474" y="-63.5" font-family="Helvetica,sans-Serif" font-size="10.00">ccf/ds/enum_formatter.h</text>
</a>
</g>
</g>
<!-- Node3&#45;&gt;Node4 -->
<g id="edge3" class="edge">
<title>Node3&#45;&gt;Node4</title>
<path fill="none" stroke="midnightblue" d="M587.61,-112.44C565.29,-103.52 530.1,-89.44 504.79,-79.32"/>
<polygon fill="midnightblue" stroke="midnightblue" points="505.88,-75.98 495.29,-75.52 503.28,-82.48 505.88,-75.98"/>
</g>
<!-- Node5 -->
<g id="node5" class="node">
<title>Node5</title>
<g id="a_node5"><a xlink:title=" ">
<polygon fill="white" stroke="#bfbfbf" points="392.5,-0.5 392.5,-19.5 471.5,-19.5 471.5,-0.5 392.5,-0.5"/>
<text text-anchor="middle" x="432" y="-7.5" font-family="Helvetica,sans-Serif" font-size="10.00">fmt/format.h</text>
</a>
</g>
</g>
<!-- Node3&#45;&gt;Node5 -->
<g id="edge13" class="edge">
<title>Node3&#45;&gt;Node5</title>
<path fill="none" stroke="midnightblue" d="M565.46,-118.06C509.7,-113.28 417.78,-101.66 397,-76 384.61,-60.71 399.68,-40.37 413.72,-26.55"/>
<polygon fill="midnightblue" stroke="midnightblue" points="416.26,-28.96 421.24,-19.61 411.51,-23.82 416.26,-28.96"/>
</g>
<!-- Node6 -->
<g id="node6" class="node">
<title>Node6</title>
<g id="a_node6"><a xlink:href="thread__ids_8h.html" target="_top" xlink:title=" ">
<polygon fill="white" stroke="black" points="560,-56.5 560,-75.5 668,-75.5 668,-56.5 560,-56.5"/>
<text text-anchor="middle" x="614" y="-63.5" font-family="Helvetica,sans-Serif" font-size="10.00">ccf/ds/thread_ids.h</text>
</a>
</g>
</g>
<!-- Node3&#45;&gt;Node6 -->
<g id="edge5" class="edge">
<title>Node3&#45;&gt;Node6</title>
<path fill="none" stroke="midnightblue" d="M609.83,-112.08C610.48,-105.01 611.42,-94.86 612.24,-85.99"/>
<polygon fill="midnightblue" stroke="midnightblue" points="615.75,-86.03 613.19,-75.75 608.78,-85.39 615.75,-86.03"/>
</g>
<!-- Node12 -->
<g id="node12" class="node">
<title>Node12</title>
<g id="a_node12"><a xlink:title=" ">
<polygon fill="white" stroke="#bfbfbf" points="686.5,-56.5 686.5,-75.5 765.5,-75.5 765.5,-56.5 686.5,-56.5"/>
<text text-anchor="middle" x="726" y="-63.5" font-family="Helvetica,sans-Serif" font-size="10.00">fmt/chrono.h</text>
</a>
</g>
</g>
<!-- Node3&#45;&gt;Node12 -->
<g id="edge12" class="edge">
<title>Node3&#45;&gt;Node12</title>
<path fill="none" stroke="midnightblue" d="M627.54,-112.44C646.62,-103.64 676.57,-89.81 698.44,-79.72"/>
<polygon fill="midnightblue" stroke="midnightblue" points="699.93,-82.88 707.55,-75.52 697,-76.53 699.93,-82.88"/>
</g>
<!-- Node13 -->
<g id="node13" class="node">
<title>Node13</title>
<g id="a_node13"><a xlink:title=" ">
<polygon fill="white" stroke="#bfbfbf" points="0,-56.5 0,-75.5 60,-75.5 60,-56.5 0,-56.5"/>
<text text-anchor="middle" x="30" y="-63.5" font-family="Helvetica,sans-Serif" font-size="10.00">iostream</text>
</a>
</g>
</g>
<!-- Node3&#45;&gt;Node13 -->
<g id="edge14" class="edge">
<title>Node3&#45;&gt;Node13</title>
<path fill="none" stroke="midnightblue" d="M565.35,-119.49C474.8,-115.9 259.84,-105 70.3,-75.98"/>
<polygon fill="midnightblue" stroke="midnightblue" points="70.57,-72.48 60.15,-74.41 69.5,-79.4 70.57,-72.48"/>
</g>
<!-- Node14 -->
<g id="node14" class="node">
<title>Node14</title>
<g id="a_node14"><a xlink:title=" ">
<polygon fill="white" stroke="#bfbfbf" points="78,-56.5 78,-75.5 188,-75.5 188,-56.5 78,-56.5"/>
<text text-anchor="middle" x="133" y="-63.5" font-family="Helvetica,sans-Serif" font-size="10.00">nlohmann/json.hpp</text>
</a>
</g>
</g>
<!-- Node3&#45;&gt;Node14 -->
<g id="edge15" class="edge">
<title>Node3&#45;&gt;Node14</title>
<path fill="none" stroke="midnightblue" d="M565.35,-116.68C491.84,-109.31 338.46,-93.51 198.22,-76.12"/>
<polygon fill="midnightblue" stroke="midnightblue" points="198.5,-72.63 188.14,-74.86 197.63,-79.57 198.5,-72.63"/>
</g>
<!-- Node3&#45;&gt;Node15 -->
<g id="edge16" class="edge">
<title>Node3&#45;&gt;Node15</title>
<path fill="none" stroke="midnightblue" d="M641.01,-112.44C676.85,-102.86 734.9,-87.34 773.02,-77.15"/>
<polygon fill="midnightblue" stroke="midnightblue" points="773.97,-80.52 782.73,-74.56 772.16,-73.76 773.97,-80.52"/>
</g>
<!-- Node16 -->
<g id="node16" class="node">
<title>Node16</title>
<g id="a_node16"><a xlink:title=" ">
<polygon fill="white" stroke="#bfbfbf" points="206,-56.5 206,-75.5 262,-75.5 262,-56.5 206,-56.5"/>
<text text-anchor="middle" x="234" y="-63.5" font-family="Helvetica,sans-Serif" font-size="10.00">sstream</text>
</a>
</g>
</g>
<!-- Node3&#45;&gt;Node16 -->
<g id="edge17" class="edge">
<title>Node3&#45;&gt;Node16</title>
<path fill="none" stroke="midnightblue" d="M565.28,-116.68C502.53,-110.15 383.13,-96.51 272.23,-76.06"/>
<polygon fill="midnightblue" stroke="midnightblue" points="272.69,-72.58 262.21,-74.19 271.4,-79.47 272.69,-72.58"/>
</g>
<!-- Node17 -->
<g id="node17" class="node">
<title>Node17</title>
<g id="a_node17"><a xlink:title=" ">
<polygon fill="white" stroke="#bfbfbf" points="280.5,-56.5 280.5,-75.5 349.5,-75.5 349.5,-56.5 280.5,-56.5"/>
<text text-anchor="middle" x="315" y="-63.5" font-family="Helvetica,sans-Serif" font-size="10.00">type_traits</text>
</a>
</g>
</g>
<!-- Node3&#45;&gt;Node17 -->
<g id="edge18" class="edge">
<title>Node3&#45;&gt;Node17</title>
<path fill="none" stroke="midnightblue" d="M565.3,-112.97C510.04,-102.82 415.38,-85.44 359.66,-75.2"/>
<polygon fill="midnightblue" stroke="midnightblue" points="360.2,-71.74 349.73,-73.38 358.93,-78.63 360.2,-71.74"/>
</g>
<!-- Node4&#45;&gt;Node5 -->
<g id="edge4" class="edge">
<title>Node4&#45;&gt;Node5</title>
<path fill="none" stroke="midnightblue" d="M467.06,-56.08C461.07,-48.38 452.25,-37.03 444.95,-27.65"/>
<polygon fill="midnightblue" stroke="midnightblue" points="447.71,-25.5 438.81,-19.75 442.18,-29.79 447.71,-25.5"/>
</g>
<!-- Node6&#45;&gt;Node5 -->
<g id="edge6" class="edge">
<title>Node6&#45;&gt;Node5</title>
<path fill="none" stroke="midnightblue" d="M585.16,-56.44C554.14,-47.24 504.67,-32.56 470.38,-22.39"/>
<polygon fill="midnightblue" stroke="midnightblue" points="471.29,-19.01 460.7,-19.52 469.29,-25.72 471.29,-19.01"/>
</g>
<!-- Node7 -->
<g id="node7" class="node">
<title>Node7</title>
<g id="a_node7"><a xlink:title=" ">
<polygon fill="white" stroke="#bfbfbf" points="612,-0.5 612,-19.5 698,-19.5 698,-0.5 612,-0.5"/>
<text text-anchor="middle" x="655" y="-7.5" font-family="Helvetica,sans-Serif" font-size="10.00">fmt/ostream.h</text>
</a>
</g>
</g>
<!-- Node6&#45;&gt;Node7 -->
<g id="edge7" class="edge">
<title>Node6&#45;&gt;Node7</title>
<path fill="none" stroke="midnightblue" d="M620.77,-56.08C626.56,-48.46 635.06,-37.26 642.14,-27.94"/>
<polygon fill="midnightblue" stroke="midnightblue" points="645.1,-29.83 648.36,-19.75 639.52,-25.6 645.1,-29.83"/>
</g>
<!-- Node8 -->
<g id="node8" class="node">
<title>Node8</title>
<g id="a_node8"><a xlink:title=" ">
<polygon fill="white" stroke="#bfbfbf" points="716.5,-0.5 716.5,-19.5 777.5,-19.5 777.5,-0.5 716.5,-0.5"/>
<text text-anchor="middle" x="747" y="-7.5" font-family="Helvetica,sans-Serif" font-size="10.00">fmt/std.h</text>
</a>
</g>
</g>
<!-- Node6&#45;&gt;Node8 -->
<g id="edge8" class="edge">
<title>Node6&#45;&gt;Node8</title>
<path fill="none" stroke="midnightblue" d="M635.07,-56.44C657.06,-47.52 691.73,-33.44 716.66,-23.32"/>
<polygon fill="midnightblue" stroke="midnightblue" points="718.08,-26.52 726.02,-19.52 715.44,-20.04 718.08,-26.52"/>
</g>
<!-- Node9 -->
<g id="node9" class="node">
<title>Node9</title>
<g id="a_node9"><a xlink:title=" ">
<polygon fill="white" stroke="#bfbfbf" points="796,-0.5 796,-19.5 840,-19.5 840,-0.5 796,-0.5"/>
<text text-anchor="middle" x="818" y="-7.5" font-family="Helvetica,sans-Serif" font-size="10.00">limits</text>
</a>
</g>
</g>
<!-- Node6&#45;&gt;Node9 -->
<g id="edge9" class="edge">
<title>Node6&#45;&gt;Node9</title>
<path fill="none" stroke="midnightblue" d="M647.34,-56.47C682.03,-47.55 737.89,-33.06 786,-20 786.1,-19.97 786.2,-19.95 786.3,-19.92"/>
<polygon fill="midnightblue" stroke="midnightblue" points="787.27,-23.28 795.98,-17.25 785.41,-16.53 787.27,-23.28"/>
</g>
<!-- Node10 -->
<g id="node10" class="node">
<title>Node10</title>
<g id="a_node10"><a xlink:title=" ">
<polygon fill="white" stroke="#bfbfbf" points="490,-0.5 490,-19.5 528,-19.5 528,-0.5 490,-0.5"/>
<text text-anchor="middle" x="509" y="-7.5" font-family="Helvetica,sans-Serif" font-size="10.00">map</text>
</a>
</g>
</g>
<!-- Node6&#45;&gt;Node10 -->
<g id="edge10" class="edge">
<title>Node6&#45;&gt;Node10</title>
<path fill="none" stroke="midnightblue" d="M597.13,-56.32C580.29,-47.66 554.19,-34.24 534.76,-24.25"/>
<polygon fill="midnightblue" stroke="midnightblue" points="536.32,-21.12 525.83,-19.65 533.12,-27.34 536.32,-21.12"/>
</g>
<!-- Node11 -->
<g id="node11" class="node">
<title>Node11</title>
<g id="a_node11"><a xlink:title=" ">
<polygon fill="white" stroke="#bfbfbf" points="546,-0.5 546,-19.5 594,-19.5 594,-0.5 546,-0.5"/>
<text text-anchor="middle" x="570" y="-7.5" font-family="Helvetica,sans-Serif" font-size="10.00">thread</text>
</a>
</g>
</g>
<!-- Node6&#45;&gt;Node11 -->
<g id="edge11" class="edge">
<title>Node6&#45;&gt;Node11</title>
<path fill="none" stroke="midnightblue" d="M606.73,-56.08C600.46,-48.38 591.21,-37.03 583.57,-27.65"/>
<polygon fill="midnightblue" stroke="midnightblue" points="586.16,-25.29 577.13,-19.75 580.73,-29.71 586.16,-25.29"/>
</g>
<!-- Node19 -->
<g id="node19" class="node">
<title>Node19</title>
<g id="a_node19"><a xlink:title=" ">
<polygon fill="white" stroke="#bfbfbf" points="857,-56.5 857,-75.5 915,-75.5 915,-56.5 857,-56.5"/>
<text text-anchor="middle" x="886" y="-63.5" font-family="Helvetica,sans-Serif" font-size="10.00">memory</text>
</a>
</g>
</g>
<!-- Node18&#45;&gt;Node19 -->
<g id="edge20" class="edge">
<title>Node18&#45;&gt;Node19</title>
<path fill="none" stroke="midnightblue" d="M865.96,-112.08C869.21,-104.77 873.92,-94.18 877.95,-85.1"/>
<polygon fill="midnightblue" stroke="midnightblue" points="881.25,-86.31 882.11,-75.75 874.85,-83.47 881.25,-86.31"/>
</g>
<!-- Node20 -->
<g id="node20" class="node">
<title>Node20</title>
<g id="a_node20"><a xlink:title=" ">
<polygon fill="white" stroke="#bfbfbf" points="933.5,-56.5 933.5,-75.5 970.5,-75.5 970.5,-56.5 933.5,-56.5"/>
<text text-anchor="middle" x="952" y="-63.5" font-family="Helvetica,sans-Serif" font-size="10.00">uv.h</text>
</a>
</g>
</g>
<!-- Node18&#45;&gt;Node20 -->
<g id="edge21" class="edge">
<title>Node18&#45;&gt;Node20</title>
<path fill="none" stroke="midnightblue" d="M876.46,-112.32C890.5,-103.9 912.05,-90.97 928.54,-81.07"/>
<polygon fill="midnightblue" stroke="midnightblue" points="930.8,-83.8 937.58,-75.65 927.2,-77.8 930.8,-83.8"/>
</g>
<!-- Node22 -->
<g id="node22" class="node">
<title>Node22</title>
<g id="a_node22"><a xlink:title=" ">
<polygon fill="white" stroke="#bfbfbf" points="1110,-56.5 1110,-75.5 1158,-75.5 1158,-56.5 1110,-56.5"/>
<text text-anchor="middle" x="1134" y="-63.5" font-family="Helvetica,sans-Serif" font-size="10.00">mutex</text>
</a>
</g>
</g>
<!-- Node21&#45;&gt;Node22 -->
<g id="edge24" class="edge">
<title>Node21&#45;&gt;Node22</title>
<path fill="none" stroke="midnightblue" d="M1134,-112.08C1134,-105.01 1134,-94.86 1134,-85.99"/>
<polygon fill="midnightblue" stroke="midnightblue" points="1137.5,-85.75 1134,-75.75 1130.5,-85.75 1137.5,-85.75"/>
</g>
<!-- Node23&#45;&gt;Node3 -->
<g id="edge26" class="edge">
<title>Node23&#45;&gt;Node3</title>
<path fill="none" stroke="midnightblue" d="M932.42,-173.62C879.12,-165.28 740.01,-143.51 662.72,-131.41"/>
<polygon fill="midnightblue" stroke="midnightblue" points="663.12,-127.93 652.7,-129.84 662.04,-134.84 663.12,-127.93"/>
</g>
<!-- Node23&#45;&gt;Node20 -->
<g id="edge29" class="edge">
<title>Node23&#45;&gt;Node20</title>
<path fill="none" stroke="midnightblue" d="M953.84,-168.37C953.52,-150.62 952.78,-109.67 952.34,-85.6"/>
<polygon fill="midnightblue" stroke="midnightblue" points="955.84,-85.53 952.16,-75.59 948.84,-85.65 955.84,-85.53"/>
</g>
<!-- Node23&#45;&gt;Node21 -->
<g id="edge27" class="edge">
<title>Node23&#45;&gt;Node21</title>
<path fill="none" stroke="midnightblue" d="M975.71,-170.49C1005.37,-161.59 1059.03,-145.49 1095.57,-134.53"/>
<polygon fill="midnightblue" stroke="midnightblue" points="1096.82,-137.81 1105.39,-131.58 1094.8,-131.1 1096.82,-137.81"/>
</g>
<!-- Node24 -->
<g id="node24" class="node">
<title>Node24</title>
<g id="a_node24"><a xlink:title=" ">
<polygon fill="white" stroke="#bfbfbf" points="982,-112.5 982,-131.5 1068,-131.5 1068,-112.5 982,-112.5"/>
<text text-anchor="middle" x="1025" y="-119.5" font-family="Helvetica,sans-Serif" font-size="10.00">unordered_set</text>
</a>
</g>
</g>
<!-- Node23&#45;&gt;Node24 -->
<g id="edge28" class="edge">
<title>Node23&#45;&gt;Node24</title>
<path fill="none" stroke="midnightblue" d="M965.41,-168.32C976.11,-160.18 992.34,-147.84 1005.16,-138.09"/>
<polygon fill="midnightblue" stroke="midnightblue" points="1007.54,-140.67 1013.39,-131.83 1003.31,-135.1 1007.54,-140.67"/>
</g>
<!-- Node26 -->
<g id="node26" class="node">
<title>Node26</title>
<g id="a_node26"><a xlink:title=" ">
<polygon fill="white" stroke="#bfbfbf" points="1200.5,-112.5 1200.5,-131.5 1277.5,-131.5 1277.5,-112.5 1200.5,-112.5"/>
<text text-anchor="middle" x="1239" y="-119.5" font-family="Helvetica,sans-Serif" font-size="10.00">sys/socket.h</text>
</a>
</g>
</g>
<!-- Node25&#45;&gt;Node26 -->
<g id="edge31" class="edge">
<title>Node25&#45;&gt;Node26</title>
<path fill="none" stroke="midnightblue" d="M1198.93,-168.08C1205.85,-160.3 1216.07,-148.8 1224.45,-139.37"/>
<polygon fill="midnightblue" stroke="midnightblue" points="1227.19,-141.55 1231.22,-131.75 1221.96,-136.9 1227.19,-141.55"/>
</g>
<!-- Node27&#45;&gt;Node3 -->
<g id="edge34" class="edge">
<title>Node27&#45;&gt;Node3</title>
<path fill="none" stroke="midnightblue" d="M731.87,-168.44C707.52,-159.44 668.99,-145.19 641.58,-135.05"/>
<polygon fill="midnightblue" stroke="midnightblue" points="642.62,-131.7 632.03,-131.52 640.19,-138.27 642.62,-131.7"/>
</g>
<!-- Node27&#45;&gt;Node20 -->
<g id="edge35" class="edge">
<title>Node27&#45;&gt;Node20</title>
<path fill="none" stroke="midnightblue" d="M783.72,-172.75C813.94,-167.23 861.92,-155.37 897,-132 915.77,-119.49 931.7,-98.81 941.51,-84.13"/>
<polygon fill="midnightblue" stroke="midnightblue" points="944.59,-85.81 947.04,-75.5 938.7,-82.03 944.59,-85.81"/>
</g>
</g>
</svg>
