<?xml version="1.0" encoding="UTF-8" standalone="no"?>
<!DOCTYPE svg PUBLIC "-//W3C//DTD SVG 1.1//EN"
 "http://www.w3.org/Graphics/SVG/1.1/DTD/svg11.dtd">
<!-- Generated by graphviz version 2.43.0 (0)
 -->
<!-- Title: include/ccf/service/tables/acme_certificates.h Pages: 1 -->
<!--zoomable 531 -->
<svg id="main" version="1.1" xmlns="http://www.w3.org/2000/svg" xmlns:xlink="http://www.w3.org/1999/xlink" xml:space="preserve" onload="init(evt)">
<style type="text/css"><![CDATA[
.edge:hover path { stroke: red; }
.edge:hover polygon { stroke: red; fill: red; }
]]></style>
<script type="text/javascript"><![CDATA[
var edges = document.getElementsByTagName('g');
if (edges && edges.length) {
  for (var i=0;i<edges.length;i++) {
    if (edges[i].id.substr(0,4)=='edge') {
      edges[i].setAttribute('class','edge');
    }
  }
}
]]></script>
        <defs>
                <circle id="rim" cx="0" cy="0" r="7"/>
                <circle id="rim2" cx="0" cy="0" r="3.5"/>
                <g id="zoomPlus">
                        <use xlink:href="#rim" fill="#404040">
                                <set attributeName="fill" to="#808080" begin="zoomplus.mouseover" end="zoomplus.mouseout"/>
                        </use>
                        <path d="M-4,0h8M0,-4v8" fill="none" stroke="white" stroke-width="1.5" pointer-events="none"/>
                </g>
                <g id="zoomMin">
                        <use xlink:href="#rim" fill="#404040">
                                <set attributeName="fill" to="#808080" begin="zoomminus.mouseover" end="zoomminus.mouseout"/>
                        </use>
                        <path d="M-4,0h8" fill="none" stroke="white" stroke-width="1.5" pointer-events="none"/>
                </g>
                <g id="dirArrow">
                        <path fill="none" stroke="white" stroke-width="1.5" d="M0,-3.0v7 M-2.5,-0.5L0,-3.0L2.5,-0.5"/>
                </g>
               <g id="resetDef">
                       <use xlink:href="#rim2" fill="#404040">
                               <set attributeName="fill" to="#808080" begin="reset.mouseover" end="reset.mouseout"/>
                       </use>
               </g>
        </defs>

<script type="text/javascript">
var viewWidth = 1704;
var viewHeight = 531;
var sectionId = 'dynsection-1';
</script>
<script xlink:href="svgpan.js"/>
<svg id="graph" class="graph">
<g id="viewport">
<title>include/ccf/service/tables/acme_certificates.h</title>
<polygon fill="white" stroke="transparent" points="-4,4 -4,-527 1700,-527 1700,4 -4,4"/>
<!-- Node1 -->
<g id="node1" class="node">
<title>Node1</title>
<g id="a_node1"><a xlink:title=" ">
<polygon fill="#bfbfbf" stroke="black" points="1548,-492.5 1548,-522.5 1696,-522.5 1696,-492.5 1548,-492.5"/>
<text text-anchor="start" x="1556" y="-510.5" font-family="Helvetica,sans-Serif" font-size="10.00">include/ccf/service</text>
<text text-anchor="middle" x="1622" y="-499.5" font-family="Helvetica,sans-Serif" font-size="10.00">/tables/acme_certificates.h</text>
</a>
</g>
</g>
<!-- Node2 -->
<g id="node2" class="node">
<title>Node2</title>
<g id="a_node2"><a xlink:href="ccf__acme__client_8h.html" target="_top" xlink:title=" ">
<polygon fill="white" stroke="black" points="1483.5,-230 1483.5,-249 1632.5,-249 1632.5,-230 1483.5,-230"/>
<text text-anchor="middle" x="1558" y="-237" font-family="Helvetica,sans-Serif" font-size="10.00">src/node/ccf_acme_client.h</text>
</a>
</g>
</g>
<!-- Node1&#45;&gt;Node2 -->
<g id="edge1" class="edge">
<title>Node1&#45;&gt;Node2</title>
<path fill="none" stroke="midnightblue" d="M1617.96,-482.59C1610.97,-442.56 1595.46,-359.61 1576,-291 1571.78,-276.14 1565.47,-259.31 1561.55,-249.32"/>
<polygon fill="midnightblue" stroke="midnightblue" points="1614.52,-483.22 1619.67,-492.48 1621.42,-482.03 1614.52,-483.22"/>
</g>
<!-- Node3 -->
<g id="node3" class="node">
<title>Node3</title>
<g id="a_node3"><a xlink:href="node__state_8h.html" target="_top" xlink:title=" ">
<polygon fill="white" stroke="black" points="1203,-168.5 1203,-187.5 1327,-187.5 1327,-168.5 1203,-168.5"/>
<text text-anchor="middle" x="1265" y="-175.5" font-family="Helvetica,sans-Serif" font-size="10.00">src/node/node_state.h</text>
</a>
</g>
</g>
<!-- Node1&#45;&gt;Node3 -->
<g id="edge7" class="edge">
<title>Node1&#45;&gt;Node3</title>
<path fill="none" stroke="midnightblue" d="M1633.15,-482.86C1644.37,-456.89 1660,-413.66 1660,-374.5 1660,-374.5 1660,-374.5 1660,-305.5 1660,-268.31 1668.7,-248.82 1641,-224 1596.01,-183.7 1421.89,-178.07 1327.19,-178.1"/>
<polygon fill="midnightblue" stroke="midnightblue" points="1629.85,-481.68 1628.97,-492.24 1636.24,-484.53 1629.85,-481.68"/>
</g>
<!-- Node7 -->
<g id="node7" class="node">
<title>Node7</title>
<g id="a_node7"><a xlink:href="network__tables_8h.html" target="_top" xlink:title=" ">
<polygon fill="white" stroke="black" points="1433,-425.5 1433,-455.5 1545,-455.5 1545,-425.5 1433,-425.5"/>
<text text-anchor="start" x="1441" y="-443.5" font-family="Helvetica,sans-Serif" font-size="10.00">src/service/network</text>
<text text-anchor="middle" x="1489" y="-432.5" font-family="Helvetica,sans-Serif" font-size="10.00">_tables.h</text>
</a>
</g>
</g>
<!-- Node1&#45;&gt;Node7 -->
<g id="edge8" class="edge">
<title>Node1&#45;&gt;Node7</title>
<path fill="none" stroke="midnightblue" d="M1584.13,-487.99C1563.05,-477.69 1537.22,-465.07 1517.8,-455.58"/>
<polygon fill="midnightblue" stroke="midnightblue" points="1582.62,-491.15 1593.14,-492.4 1585.69,-484.86 1582.62,-491.15"/>
</g>
<!-- Node2&#45;&gt;Node3 -->
<g id="edge2" class="edge">
<title>Node2&#45;&gt;Node3</title>
<path fill="none" stroke="midnightblue" d="M1506.17,-227.97C1449.38,-216.44 1359.41,-198.17 1306.9,-187.51"/>
<polygon fill="midnightblue" stroke="midnightblue" points="1505.52,-231.41 1516.02,-229.98 1506.92,-224.55 1505.52,-231.41"/>
</g>
<!-- Node4 -->
<g id="node4" class="node">
<title>Node4</title>
<g id="a_node4"><a xlink:href="src_2enclave_2enclave_8h.html" target="_top" xlink:title=" ">
<polygon fill="white" stroke="black" points="1009,-56.5 1009,-75.5 1131,-75.5 1131,-56.5 1009,-56.5"/>
<text text-anchor="middle" x="1070" y="-63.5" font-family="Helvetica,sans-Serif" font-size="10.00">src/enclave/enclave.h</text>
</a>
</g>
</g>
<!-- Node3&#45;&gt;Node4 -->
<g id="edge3" class="edge">
<title>Node3&#45;&gt;Node4</title>
<path fill="none" stroke="midnightblue" d="M1273.69,-159.08C1279.21,-144.81 1283.54,-125.13 1273,-112 1255.43,-90.11 1184.31,-78.21 1131.17,-72.24"/>
<polygon fill="midnightblue" stroke="midnightblue" points="1270.44,-157.77 1269.65,-168.34 1276.86,-160.57 1270.44,-157.77"/>
</g>
<!-- Node6 -->
<g id="node6" class="node">
<title>Node6</title>
<g id="a_node6"><a xlink:href="gov__effects_8h.html" target="_top" xlink:title=" ">
<polygon fill="white" stroke="black" points="1120,-112.5 1120,-131.5 1264,-131.5 1264,-112.5 1120,-112.5"/>
<text text-anchor="middle" x="1192" y="-119.5" font-family="Helvetica,sans-Serif" font-size="10.00">src/node/rpc/gov_effects.h</text>
</a>
</g>
</g>
<!-- Node3&#45;&gt;Node6 -->
<g id="edge5" class="edge">
<title>Node3&#45;&gt;Node6</title>
<path fill="none" stroke="midnightblue" d="M1244.86,-162.1C1231.72,-152.38 1215.02,-140.03 1203.94,-131.83"/>
<polygon fill="midnightblue" stroke="midnightblue" points="1243.15,-165.19 1253.27,-168.32 1247.31,-159.56 1243.15,-165.19"/>
</g>
<!-- Node5 -->
<g id="node5" class="node">
<title>Node5</title>
<g id="a_node5"><a xlink:href="enclave_2main_8cpp.html" target="_top" xlink:title=" ">
<polygon fill="white" stroke="black" points="1010,-0.5 1010,-19.5 1130,-19.5 1130,-0.5 1010,-0.5"/>
<text text-anchor="middle" x="1070" y="-7.5" font-family="Helvetica,sans-Serif" font-size="10.00">src/enclave/main.cpp</text>
</a>
</g>
</g>
<!-- Node4&#45;&gt;Node5 -->
<g id="edge4" class="edge">
<title>Node4&#45;&gt;Node5</title>
<path fill="none" stroke="midnightblue" d="M1070,-45.8C1070,-36.91 1070,-26.78 1070,-19.75"/>
<polygon fill="midnightblue" stroke="midnightblue" points="1066.5,-46.08 1070,-56.08 1073.5,-46.08 1066.5,-46.08"/>
</g>
<!-- Node6&#45;&gt;Node4 -->
<g id="edge6" class="edge">
<title>Node6&#45;&gt;Node4</title>
<path fill="none" stroke="midnightblue" d="M1163.46,-108.37C1140.61,-98.26 1109.19,-84.35 1089.24,-75.52"/>
<polygon fill="midnightblue" stroke="midnightblue" points="1162.11,-111.6 1172.67,-112.44 1164.94,-105.2 1162.11,-111.6"/>
</g>
<!-- Node7&#45;&gt;Node2 -->
<g id="edge9" class="edge">
<title>Node7&#45;&gt;Node2</title>
<path fill="none" stroke="midnightblue" d="M1507.57,-417.28C1524.99,-394.86 1549.84,-358.44 1560,-322 1567.14,-296.37 1562.72,-264.43 1559.86,-249.27"/>
<polygon fill="midnightblue" stroke="midnightblue" points="1504.79,-415.15 1501.3,-425.16 1510.26,-419.51 1504.79,-415.15"/>
</g>
<!-- Node8 -->
<g id="node8" class="node">
<title>Node8</title>
<g id="a_node8"><a xlink:href="network__state_8h.html" target="_top" xlink:title=" ">
<polygon fill="white" stroke="black" points="773,-364 773,-383 913,-383 913,-364 773,-364"/>
<text text-anchor="middle" x="843" y="-371" font-family="Helvetica,sans-Serif" font-size="10.00">src/node/network_state.h</text>
</a>
</g>
</g>
<!-- Node7&#45;&gt;Node8 -->
<g id="edge10" class="edge">
<title>Node7&#45;&gt;Node8</title>
<path fill="none" stroke="midnightblue" d="M1422.79,-432.84C1300.11,-420.49 1038.57,-394.18 913.05,-381.55"/>
<polygon fill="midnightblue" stroke="midnightblue" points="1422.5,-436.33 1432.8,-433.85 1423.2,-429.36 1422.5,-436.33"/>
</g>
<!-- Node25 -->
<g id="node25" class="node">
<title>Node25</title>
<g id="a_node25"><a xlink:href="genesis__gen_8h.html" target="_top" xlink:title=" ">
<polygon fill="white" stroke="black" points="1297,-358.5 1297,-388.5 1407,-388.5 1407,-358.5 1297,-358.5"/>
<text text-anchor="start" x="1305" y="-376.5" font-family="Helvetica,sans-Serif" font-size="10.00">src/service/genesis</text>
<text text-anchor="middle" x="1352" y="-365.5" font-family="Helvetica,sans-Serif" font-size="10.00">_gen.h</text>
</a>
</g>
</g>
<!-- Node7&#45;&gt;Node25 -->
<g id="edge45" class="edge">
<title>Node7&#45;&gt;Node25</title>
<path fill="none" stroke="midnightblue" d="M1449.99,-420.99C1428.28,-410.69 1401.67,-398.07 1381.67,-388.58"/>
<polygon fill="midnightblue" stroke="midnightblue" points="1448.74,-424.27 1459.27,-425.4 1451.74,-417.95 1448.74,-424.27"/>
</g>
<!-- Node8&#45;&gt;Node3 -->
<g id="edge31" class="edge">
<title>Node8&#45;&gt;Node3</title>
<path fill="none" stroke="midnightblue" d="M769.75,-362.17C709.27,-350.73 638.54,-328.7 673,-291 733.21,-225.12 986.54,-277.14 1073,-255 1106.36,-246.46 1112.07,-236.89 1144,-224 1177.25,-210.57 1216.2,-196.35 1240.74,-187.57"/>
<polygon fill="midnightblue" stroke="midnightblue" points="769.27,-365.64 779.73,-363.99 770.52,-358.76 769.27,-365.64"/>
</g>
<!-- Node8&#45;&gt;Node4 -->
<g id="edge11" class="edge">
<title>Node8&#45;&gt;Node4</title>
<path fill="none" stroke="midnightblue" d="M762.75,-372.56C598.32,-371.79 228.75,-365.13 111,-322 53.53,-300.95 0,-301.7 0,-240.5 0,-240.5 0,-240.5 0,-177 0,-74.87 781.27,-66.96 1008.63,-66.82"/>
<polygon fill="midnightblue" stroke="midnightblue" points="762.79,-376.06 772.8,-372.61 762.82,-369.06 762.79,-376.06"/>
</g>
<!-- Node9 -->
<g id="node9" class="node">
<title>Node9</title>
<g id="a_node9"><a xlink:href="wrap_8h.html" target="_top" xlink:title=" ">
<polygon fill="white" stroke="black" points="548,-297 548,-316 626,-316 626,-297 548,-297"/>
<text text-anchor="middle" x="587" y="-304" font-family="Helvetica,sans-Serif" font-size="10.00">src/js/wrap.h</text>
</a>
</g>
</g>
<!-- Node8&#45;&gt;Node9 -->
<g id="edge12" class="edge">
<title>Node8&#45;&gt;Node9</title>
<path fill="none" stroke="midnightblue" d="M798,-361.62C756.81,-351.59 694.21,-336.16 640,-322 632.8,-320.12 625.07,-318.04 617.8,-316.06"/>
<polygon fill="midnightblue" stroke="midnightblue" points="797.19,-365.03 807.73,-363.99 798.84,-358.23 797.19,-365.03"/>
</g>
<!-- Node18 -->
<g id="node18" class="node">
<title>Node18</title>
<g id="a_node18"><a xlink:href="acme__challenge__frontend_8h.html" target="_top" xlink:title=" ">
<polygon fill="white" stroke="black" points="1030,-291.5 1030,-321.5 1170,-321.5 1170,-291.5 1030,-291.5"/>
<text text-anchor="start" x="1038" y="-309.5" font-family="Helvetica,sans-Serif" font-size="10.00">src/node/acme_challenge</text>
<text text-anchor="middle" x="1100" y="-298.5" font-family="Helvetica,sans-Serif" font-size="10.00">_frontend.h</text>
</a>
</g>
</g>
<!-- Node8&#45;&gt;Node18 -->
<g id="edge28" class="edge">
<title>Node8&#45;&gt;Node18</title>
<path fill="none" stroke="midnightblue" d="M886.58,-361.48C930.09,-350.47 997.1,-333.52 1044.41,-321.56"/>
<polygon fill="midnightblue" stroke="midnightblue" points="885.7,-358.09 876.86,-363.94 887.42,-364.88 885.7,-358.09"/>
</g>
<!-- Node19 -->
<g id="node19" class="node">
<title>Node19</title>
<g id="a_node19"><a xlink:href="node__frontend_8h.html" target="_top" xlink:title=" ">
<polygon fill="white" stroke="black" points="1360,-297 1360,-316 1518,-316 1518,-297 1360,-297"/>
<text text-anchor="middle" x="1439" y="-304" font-family="Helvetica,sans-Serif" font-size="10.00">src/node/rpc/node_frontend.h</text>
</a>
</g>
</g>
<!-- Node8&#45;&gt;Node19 -->
<g id="edge32" class="edge">
<title>Node8&#45;&gt;Node19</title>
<path fill="none" stroke="midnightblue" d="M923.32,-366.05C1023.44,-357.66 1199.7,-341.71 1350,-322 1363.04,-320.29 1377.1,-318.14 1390.12,-316.03"/>
<polygon fill="midnightblue" stroke="midnightblue" points="922.95,-362.57 913.28,-366.89 923.54,-369.55 922.95,-362.57"/>
</g>
<!-- Node21 -->
<g id="node21" class="node">
<title>Node21</title>
<g id="a_node21"><a xlink:href="user__frontend_8h.html" target="_top" xlink:title=" ">
<polygon fill="white" stroke="black" points="220.5,-112.5 220.5,-131.5 375.5,-131.5 375.5,-112.5 220.5,-112.5"/>
<text text-anchor="middle" x="298" y="-119.5" font-family="Helvetica,sans-Serif" font-size="10.00">src/node/rpc/user_frontend.h</text>
</a>
</g>
</g>
<!-- Node8&#45;&gt;Node21 -->
<g id="edge36" class="edge">
<title>Node8&#45;&gt;Node21</title>
<path fill="none" stroke="midnightblue" d="M762.81,-373.11C581.28,-372.6 147.6,-360.15 57,-255 -1.62,-186.97 156.29,-147.61 243.98,-131.55"/>
<polygon fill="midnightblue" stroke="midnightblue" points="762.83,-376.61 772.84,-373.12 762.84,-369.61 762.83,-376.61"/>
</g>
<!-- Node22 -->
<g id="node22" class="node">
<title>Node22</title>
<g id="a_node22"><a xlink:href="secret__broadcast_8h.html" target="_top" xlink:title=" ">
<polygon fill="white" stroke="black" points="1188.5,-297 1188.5,-316 1341.5,-316 1341.5,-297 1188.5,-297"/>
<text text-anchor="middle" x="1265" y="-304" font-family="Helvetica,sans-Serif" font-size="10.00">src/node/secret_broadcast.h</text>
</a>
</g>
</g>
<!-- Node8&#45;&gt;Node22 -->
<g id="edge38" class="edge">
<title>Node8&#45;&gt;Node22</title>
<path fill="none" stroke="midnightblue" d="M912.08,-362.49C980.04,-352.55 1086.75,-336.71 1179,-322 1190.81,-320.12 1203.52,-318.01 1215.46,-316.01"/>
<polygon fill="midnightblue" stroke="midnightblue" points="911.31,-359.06 901.92,-363.97 912.33,-365.99 911.31,-359.06"/>
</g>
<!-- Node23 -->
<g id="node23" class="node">
<title>Node23</title>
<g id="a_node23"><a xlink:href="share__manager_8h.html" target="_top" xlink:title=" ">
<polygon fill="white" stroke="black" points="866.5,-297 866.5,-316 1011.5,-316 1011.5,-297 866.5,-297"/>
<text text-anchor="middle" x="939" y="-304" font-family="Helvetica,sans-Serif" font-size="10.00">src/node/share_manager.h</text>
</a>
</g>
</g>
<!-- Node8&#45;&gt;Node23 -->
<g id="edge40" class="edge">
<title>Node8&#45;&gt;Node23</title>
<path fill="none" stroke="midnightblue" d="M864.28,-358.09C883.27,-345.24 910.45,-326.83 926.26,-316.13"/>
<polygon fill="midnightblue" stroke="midnightblue" points="862.27,-355.23 855.95,-363.73 866.19,-361.03 862.27,-355.23"/>
</g>
<!-- Node24 -->
<g id="node24" class="node">
<title>Node24</title>
<g id="a_node24"><a xlink:href="snapshotter_8h.html" target="_top" xlink:title=" ">
<polygon fill="white" stroke="black" points="682.5,-297 682.5,-316 809.5,-316 809.5,-297 682.5,-297"/>
<text text-anchor="middle" x="746" y="-304" font-family="Helvetica,sans-Serif" font-size="10.00">src/node/snapshotter.h</text>
</a>
</g>
</g>
<!-- Node8&#45;&gt;Node24 -->
<g id="edge43" class="edge">
<title>Node8&#45;&gt;Node24</title>
<path fill="none" stroke="midnightblue" d="M821.5,-358.09C802.31,-345.24 774.85,-326.83 758.87,-316.13"/>
<polygon fill="midnightblue" stroke="midnightblue" points="819.66,-361.07 829.92,-363.73 823.56,-355.26 819.66,-361.07"/>
</g>
<!-- Node9&#45;&gt;Node3 -->
<g id="edge25" class="edge">
<title>Node9&#45;&gt;Node3</title>
<path fill="none" stroke="midnightblue" d="M625.34,-294.39C630.25,-293.15 635.23,-291.98 640,-291 752.97,-267.73 791.3,-301.16 897,-255 916.97,-246.28 915.01,-232.69 935,-224 981.8,-203.66 1120.93,-189.98 1202.83,-183.44"/>
<polygon fill="midnightblue" stroke="midnightblue" points="624.22,-291.07 615.44,-297 626.01,-297.83 624.22,-291.07"/>
</g>
<!-- Node9&#45;&gt;Node4 -->
<g id="edge14" class="edge">
<title>Node9&#45;&gt;Node4</title>
<path fill="none" stroke="midnightblue" d="M588.77,-286.51C591.46,-268.19 598.19,-240.83 615,-224 723.94,-114.91 912.19,-81.51 1008.84,-71.37"/>
<polygon fill="midnightblue" stroke="midnightblue" points="585.28,-286.23 587.57,-296.58 592.23,-287.06 585.28,-286.23"/>
</g>
<!-- Node10 -->
<g id="node10" class="node">
<title>Node10</title>
<g id="a_node10"><a xlink:href="js__generic__base_8cpp.html" target="_top" xlink:title=" ">
<polygon fill="white" stroke="black" points="770,-224.5 770,-254.5 888,-254.5 888,-224.5 770,-224.5"/>
<text text-anchor="start" x="778" y="-242.5" font-family="Helvetica,sans-Serif" font-size="10.00">src/apps/js_generic</text>
<text text-anchor="middle" x="829" y="-231.5" font-family="Helvetica,sans-Serif" font-size="10.00">/js_generic_base.cpp</text>
</a>
</g>
</g>
<!-- Node9&#45;&gt;Node10 -->
<g id="edge13" class="edge">
<title>Node9&#45;&gt;Node10</title>
<path fill="none" stroke="midnightblue" d="M628.05,-294.24C632.09,-293.14 636.12,-292.05 640,-291 685.9,-278.59 738.12,-264.65 776.02,-254.56"/>
<polygon fill="midnightblue" stroke="midnightblue" points="626.83,-290.95 618.1,-296.96 628.67,-297.7 626.83,-290.95"/>
</g>
<!-- Node11 -->
<g id="node11" class="node">
<title>Node11</title>
<g id="a_node11"><a xlink:href="consensus_8cpp.html" target="_top" xlink:title=" ">
<polygon fill="white" stroke="black" points="346,-230 346,-249 462,-249 462,-230 346,-230"/>
<text text-anchor="middle" x="404" y="-237" font-family="Helvetica,sans-Serif" font-size="10.00">src/js/consensus.cpp</text>
</a>
</g>
</g>
<!-- Node9&#45;&gt;Node11 -->
<g id="edge15" class="edge">
<title>Node9&#45;&gt;Node11</title>
<path fill="none" stroke="midnightblue" d="M553.04,-293.44C516.73,-280.54 460.09,-260.42 428.11,-249.06"/>
<polygon fill="midnightblue" stroke="midnightblue" points="552.1,-296.82 562.7,-296.87 554.45,-290.22 552.1,-296.82"/>
</g>
<!-- Node12 -->
<g id="node12" class="node">
<title>Node12</title>
<g id="a_node12"><a xlink:href="wrap_8cpp.html" target="_top" xlink:title=" ">
<polygon fill="white" stroke="black" points="235.5,-168.5 235.5,-187.5 324.5,-187.5 324.5,-168.5 235.5,-168.5"/>
<text text-anchor="middle" x="280" y="-175.5" font-family="Helvetica,sans-Serif" font-size="10.00">src/js/wrap.cpp</text>
</a>
</g>
</g>
<!-- Node9&#45;&gt;Node12 -->
<g id="edge24" class="edge">
<title>Node9&#45;&gt;Node12</title>
<path fill="none" stroke="midnightblue" d="M537.53,-306.27C447.67,-306.5 263.2,-301.17 223,-255 213.95,-244.61 216.99,-236.4 223,-224 231.03,-207.43 248.44,-195.13 261.92,-187.61"/>
<polygon fill="midnightblue" stroke="midnightblue" points="537.76,-309.77 547.74,-306.22 537.73,-302.77 537.76,-309.77"/>
</g>
<!-- Node13 -->
<g id="node13" class="node">
<title>Node13</title>
<g id="a_node13"><a xlink:href="conv_8cpp.html" target="_top" xlink:title=" ">
<polygon fill="white" stroke="black" points="480,-230 480,-249 568,-249 568,-230 480,-230"/>
<text text-anchor="middle" x="524" y="-237" font-family="Helvetica,sans-Serif" font-size="10.00">src/js/conv.cpp</text>
</a>
</g>
</g>
<!-- Node9&#45;&gt;Node13 -->
<g id="edge17" class="edge">
<title>Node9&#45;&gt;Node13</title>
<path fill="none" stroke="midnightblue" d="M571.49,-289.5C559.13,-276.75 542.31,-259.39 532.36,-249.13"/>
<polygon fill="midnightblue" stroke="midnightblue" points="569.03,-291.99 578.5,-296.73 574.06,-287.12 569.03,-291.99"/>
</g>
<!-- Node14 -->
<g id="node14" class="node">
<title>Node14</title>
<g id="a_node14"><a xlink:href="crypto_8cpp.html" target="_top" xlink:title=" ">
<polygon fill="white" stroke="black" points="232,-230 232,-249 328,-249 328,-230 232,-230"/>
<text text-anchor="middle" x="280" y="-237" font-family="Helvetica,sans-Serif" font-size="10.00">src/js/crypto.cpp</text>
</a>
</g>
</g>
<!-- Node9&#45;&gt;Node14 -->
<g id="edge19" class="edge">
<title>Node9&#45;&gt;Node14</title>
<path fill="none" stroke="midnightblue" d="M537.9,-296.33C487.38,-286.72 406.47,-270.84 337,-255 329.04,-253.18 320.48,-251.09 312.49,-249.06"/>
<polygon fill="midnightblue" stroke="midnightblue" points="537.42,-299.8 547.9,-298.23 538.73,-292.92 537.42,-299.8"/>
</g>
<!-- Node15 -->
<g id="node15" class="node">
<title>Node15</title>
<g id="a_node15"><a xlink:href="historical_8cpp.html" target="_top" xlink:title=" ">
<polygon fill="white" stroke="black" points="66,-230 66,-249 176,-249 176,-230 66,-230"/>
<text text-anchor="middle" x="121" y="-237" font-family="Helvetica,sans-Serif" font-size="10.00">src/js/historical.cpp</text>
</a>
</g>
</g>
<!-- Node9&#45;&gt;Node15 -->
<g id="edge21" class="edge">
<title>Node9&#45;&gt;Node15</title>
<path fill="none" stroke="midnightblue" d="M537.85,-300.54C462.65,-292.65 314.66,-275.99 190,-255 179.86,-253.29 168.95,-251.14 158.86,-249.03"/>
<polygon fill="midnightblue" stroke="midnightblue" points="537.66,-304.04 547.96,-301.59 538.38,-297.07 537.66,-304.04"/>
</g>
<!-- Node16 -->
<g id="node16" class="node">
<title>Node16</title>
<g id="a_node16"><a xlink:href="openenclave_8cpp.html" target="_top" xlink:title=" ">
<polygon fill="white" stroke="black" points="624,-230 624,-249 752,-249 752,-230 624,-230"/>
<text text-anchor="middle" x="688" y="-237" font-family="Helvetica,sans-Serif" font-size="10.00">src/js/openenclave.cpp</text>
</a>
</g>
</g>
<!-- Node9&#45;&gt;Node16 -->
<g id="edge23" class="edge">
<title>Node9&#45;&gt;Node16</title>
<path fill="none" stroke="midnightblue" d="M609.11,-291.27C629.11,-278.4 657.89,-259.88 674.59,-249.13"/>
<polygon fill="midnightblue" stroke="midnightblue" points="607.14,-288.38 600.62,-296.73 610.92,-294.27 607.14,-288.38"/>
</g>
<!-- Node17 -->
<g id="node17" class="node">
<title>Node17</title>
<g id="a_node17"><a xlink:href="member__frontend_8h.html" target="_top" xlink:title=" ">
<polygon fill="white" stroke="black" points="944,-224.5 944,-254.5 1064,-254.5 1064,-224.5 944,-224.5"/>
<text text-anchor="start" x="952" y="-242.5" font-family="Helvetica,sans-Serif" font-size="10.00">src/node/rpc/member</text>
<text text-anchor="middle" x="1004" y="-231.5" font-family="Helvetica,sans-Serif" font-size="10.00">_frontend.h</text>
</a>
</g>
</g>
<!-- Node9&#45;&gt;Node17 -->
<g id="edge26" class="edge">
<title>Node9&#45;&gt;Node17</title>
<path fill="none" stroke="midnightblue" d="M625.16,-294.36C630.12,-293.12 635.17,-291.96 640,-291 767.41,-265.8 801.75,-275.5 930,-255 934.52,-254.28 939.2,-253.48 943.89,-252.64"/>
<polygon fill="midnightblue" stroke="midnightblue" points="623.93,-291.06 615.15,-296.99 625.71,-297.83 623.93,-291.06"/>
</g>
<!-- Node11&#45;&gt;Node12 -->
<g id="edge16" class="edge">
<title>Node11&#45;&gt;Node12</title>
<path fill="none" stroke="midnightblue" d="M376.95,-225.52C352.9,-213.98 318.44,-197.44 297.73,-187.51"/>
<polygon fill="midnightblue" stroke="midnightblue" points="375.7,-228.8 386.23,-229.98 378.73,-222.49 375.7,-228.8"/>
</g>
<!-- Node13&#45;&gt;Node12 -->
<g id="edge18" class="edge">
<title>Node13&#45;&gt;Node12</title>
<path fill="none" stroke="midnightblue" d="M483.65,-227.3C479.39,-226.17 475.11,-225.05 471,-224 418.18,-210.56 356.77,-196.34 318.15,-187.57"/>
<polygon fill="midnightblue" stroke="midnightblue" points="482.93,-230.73 493.5,-229.96 484.76,-223.97 482.93,-230.73"/>
</g>
<!-- Node14&#45;&gt;Node12 -->
<g id="edge20" class="edge">
<title>Node14&#45;&gt;Node12</title>
<path fill="none" stroke="midnightblue" d="M280,-219.82C280,-209 280,-195.9 280,-187.51"/>
<polygon fill="midnightblue" stroke="midnightblue" points="276.5,-219.98 280,-229.98 283.5,-219.98 276.5,-219.98"/>
</g>
<!-- Node15&#45;&gt;Node12 -->
<g id="edge22" class="edge">
<title>Node15&#45;&gt;Node12</title>
<path fill="none" stroke="midnightblue" d="M153.25,-226.43C184.15,-214.87 230.01,-197.71 257.26,-187.51"/>
<polygon fill="midnightblue" stroke="midnightblue" points="151.92,-223.19 143.78,-229.98 154.37,-229.75 151.92,-223.19"/>
</g>
<!-- Node17&#45;&gt;Node4 -->
<g id="edge27" class="edge">
<title>Node17&#45;&gt;Node4</title>
<path fill="none" stroke="midnightblue" d="M1013.03,-215.04C1027.92,-176.35 1056.94,-100.93 1066.71,-75.56"/>
<polygon fill="midnightblue" stroke="midnightblue" points="1009.73,-213.88 1009.4,-224.47 1016.26,-216.39 1009.73,-213.88"/>
</g>
<!-- Node18&#45;&gt;Node2 -->
<g id="edge30" class="edge">
<title>Node18&#45;&gt;Node2</title>
<path fill="none" stroke="midnightblue" d="M1180.34,-290.83C1292.77,-273.21 1411.77,-258.06 1485.9,-249.04"/>
<polygon fill="midnightblue" stroke="midnightblue" points="1179.51,-287.42 1170.18,-292.43 1180.6,-294.33 1179.51,-287.42"/>
</g>
<!-- Node18&#45;&gt;Node4 -->
<g id="edge29" class="edge">
<title>Node18&#45;&gt;Node4</title>
<path fill="none" stroke="midnightblue" d="M1096.96,-281.32C1090.44,-229.48 1075.36,-109.62 1071.13,-75.95"/>
<polygon fill="midnightblue" stroke="midnightblue" points="1093.49,-281.81 1098.21,-291.29 1100.44,-280.94 1093.49,-281.81"/>
</g>
<!-- Node19&#45;&gt;Node4 -->
<g id="edge33" class="edge">
<title>Node19&#45;&gt;Node4</title>
<path fill="none" stroke="midnightblue" d="M1528.35,-299.11C1597.06,-290.52 1674.95,-270.51 1641,-224 1580.35,-140.91 1265.58,-91.78 1131.06,-74.3"/>
<polygon fill="midnightblue" stroke="midnightblue" points="1527.82,-295.65 1518.3,-300.29 1528.64,-302.6 1527.82,-295.65"/>
</g>
<!-- Node20 -->
<g id="node20" class="node">
<title>Node20</title>
<g id="a_node20"><a xlink:href="jwt__key__auto__refresh_8h.html" target="_top" xlink:title=" ">
<polygon fill="white" stroke="black" points="1298.5,-224.5 1298.5,-254.5 1423.5,-254.5 1423.5,-224.5 1298.5,-224.5"/>
<text text-anchor="start" x="1306.5" y="-242.5" font-family="Helvetica,sans-Serif" font-size="10.00">src/node/jwt_key_auto</text>
<text text-anchor="middle" x="1361" y="-231.5" font-family="Helvetica,sans-Serif" font-size="10.00">_refresh.h</text>
</a>
</g>
</g>
<!-- Node19&#45;&gt;Node20 -->
<g id="edge34" class="edge">
<title>Node19&#45;&gt;Node20</title>
<path fill="none" stroke="midnightblue" d="M1420.68,-290.24C1407.74,-279.45 1390.52,-265.1 1377.91,-254.59"/>
<polygon fill="midnightblue" stroke="midnightblue" points="1418.56,-293.02 1428.48,-296.73 1423.04,-287.64 1418.56,-293.02"/>
</g>
<!-- Node20&#45;&gt;Node3 -->
<g id="edge35" class="edge">
<title>Node20&#45;&gt;Node3</title>
<path fill="none" stroke="midnightblue" d="M1329.65,-219.07C1312.54,-208.46 1292.2,-195.86 1278.97,-187.66"/>
<polygon fill="midnightblue" stroke="midnightblue" points="1327.91,-222.11 1338.25,-224.4 1331.59,-216.16 1327.91,-222.11"/>
</g>
<!-- Node21&#45;&gt;Node4 -->
<g id="edge37" class="edge">
<title>Node21&#45;&gt;Node4</title>
<path fill="none" stroke="midnightblue" d="M385.72,-114.86C543.8,-103.81 872.7,-80.8 1008.9,-71.27"/>
<polygon fill="midnightblue" stroke="midnightblue" points="385.29,-111.39 375.56,-115.58 385.78,-118.37 385.29,-111.39"/>
</g>
<!-- Node22&#45;&gt;Node3 -->
<g id="edge39" class="edge">
<title>Node22&#45;&gt;Node3</title>
<path fill="none" stroke="midnightblue" d="M1265,-286.44C1265,-258.62 1265,-208.04 1265,-187.76"/>
<polygon fill="midnightblue" stroke="midnightblue" points="1261.5,-286.81 1265,-296.81 1268.5,-286.81 1261.5,-286.81"/>
</g>
<!-- Node23&#45;&gt;Node3 -->
<g id="edge41" class="edge">
<title>Node23&#45;&gt;Node3</title>
<path fill="none" stroke="midnightblue" d="M995.93,-295.14C1068.4,-281.82 1185.34,-259.82 1194,-255 1224.3,-238.15 1249.09,-203.83 1259.59,-187.72"/>
<polygon fill="midnightblue" stroke="midnightblue" points="995.22,-291.71 986.01,-296.96 996.48,-298.6 995.22,-291.71"/>
</g>
<!-- Node23&#45;&gt;Node17 -->
<g id="edge42" class="edge">
<title>Node23&#45;&gt;Node17</title>
<path fill="none" stroke="midnightblue" d="M954.88,-289.62C965.59,-278.91 979.6,-264.9 989.91,-254.59"/>
<polygon fill="midnightblue" stroke="midnightblue" points="952.36,-287.19 947.77,-296.73 957.31,-292.14 952.36,-287.19"/>
</g>
<!-- Node24&#45;&gt;Node3 -->
<g id="edge44" class="edge">
<title>Node24&#45;&gt;Node3</title>
<path fill="none" stroke="midnightblue" d="M819.97,-295.78C832.33,-294.18 845.03,-292.53 857,-291 984.51,-274.67 1022.92,-298.21 1144,-255 1146.95,-253.95 1220.58,-207.24 1251.51,-187.58"/>
<polygon fill="midnightblue" stroke="midnightblue" points="819.14,-292.36 809.68,-297.12 820.05,-299.3 819.14,-292.36"/>
</g>
<!-- Node25&#45;&gt;Node3 -->
<g id="edge46" class="edge">
<title>Node25&#45;&gt;Node3</title>
<path fill="none" stroke="midnightblue" d="M1417.18,-366.81C1476.81,-358.55 1552.21,-338.6 1527,-291 1513.67,-265.84 1497.24,-271.46 1474,-255 1455.07,-241.59 1452.9,-234.08 1432,-224 1394.95,-206.12 1349.73,-194.49 1315.69,-187.54"/>
<polygon fill="midnightblue" stroke="midnightblue" points="1416.47,-363.38 1407.01,-368.13 1417.37,-370.32 1416.47,-363.38"/>
</g>
<!-- Node25&#45;&gt;Node17 -->
<g id="edge47" class="edge">
<title>Node25&#45;&gt;Node17</title>
<path fill="none" stroke="midnightblue" d="M1286.79,-370.62C1158.94,-366.26 885.29,-353.33 857,-322 825.8,-287.46 890.54,-264.32 943.79,-251.79"/>
<polygon fill="midnightblue" stroke="midnightblue" points="1286.73,-374.12 1296.84,-370.95 1286.97,-367.12 1286.73,-374.12"/>
</g>
<!-- Node25&#45;&gt;Node19 -->
<g id="edge48" class="edge">
<title>Node25&#45;&gt;Node19</title>
<path fill="none" stroke="midnightblue" d="M1378.98,-352.34C1395.22,-340.21 1415.06,-325.39 1427.36,-316.19"/>
<polygon fill="midnightblue" stroke="midnightblue" points="1376.79,-349.61 1370.88,-358.4 1380.98,-355.21 1376.79,-349.61"/>
</g>
<!-- Node25&#45;&gt;Node22 -->
<g id="edge49" class="edge">
<title>Node25&#45;&gt;Node22</title>
<path fill="none" stroke="midnightblue" d="M1325.02,-352.34C1308.78,-340.21 1288.94,-325.39 1276.64,-316.19"/>
<polygon fill="midnightblue" stroke="midnightblue" points="1323.02,-355.21 1333.12,-358.4 1327.21,-349.61 1323.02,-355.21"/>
</g>
<!-- Node25&#45;&gt;Node23 -->
<g id="edge50" class="edge">
<title>Node25&#45;&gt;Node23</title>
<path fill="none" stroke="midnightblue" d="M1286.92,-363.03C1220.12,-353.21 1113.2,-337.18 1021,-322 1009.73,-320.14 997.61,-318.05 986.23,-316.05"/>
<polygon fill="midnightblue" stroke="midnightblue" points="1286.48,-366.51 1296.88,-364.5 1287.5,-359.58 1286.48,-366.51"/>
</g>
</g>
</svg>
        <g id="navigator" transform="translate(0 0)" fill="#404254">
                <rect fill="#f2f5e9" fill-opacity="0.5" stroke="#606060" stroke-width=".5" x="0" y="0" width="60" height="60"/>
                <use id="zoomplus" xlink:href="#zoomPlus" x="17" y="9" onmousedown="handleZoom(evt,'in')"/>
                <use id="zoomminus" xlink:href="#zoomMin" x="42" y="9" onmousedown="handleZoom(evt,'out')"/>
                <use id="reset" xlink:href="#resetDef" x="30" y="36" onmousedown="handleReset()"/>
                <g id="arrowUp" xlink:href="#dirArrow" transform="translate(30 24)" onmousedown="handlePan(0,-1)">
                  <use xlink:href="#rim" fill="#404040">
                        <set attributeName="fill" to="#808080" begin="arrowUp.mouseover" end="arrowUp.mouseout"/>
                  </use>
                  <path fill="none" stroke="white" stroke-width="1.5" d="M0,-3.0v7 M-2.5,-0.5L0,-3.0L2.5,-0.5"/>
                </g>
                <g id="arrowRight" xlink:href="#dirArrow" transform="rotate(90) translate(36 -43)" onmousedown="handlePan(1,0)">
                  <use xlink:href="#rim" fill="#404040">
                        <set attributeName="fill" to="#808080" begin="arrowRight.mouseover" end="arrowRight.mouseout"/>
                  </use>
                  <path fill="none" stroke="white" stroke-width="1.5" d="M0,-3.0v7 M-2.5,-0.5L0,-3.0L2.5,-0.5"/>
                </g>
                <g id="arrowDown" xlink:href="#dirArrow" transform="rotate(180) translate(-30 -48)" onmousedown="handlePan(0,1)">
                  <use xlink:href="#rim" fill="#404040">
                        <set attributeName="fill" to="#808080" begin="arrowDown.mouseover" end="arrowDown.mouseout"/>
                  </use>
                  <path fill="none" stroke="white" stroke-width="1.5" d="M0,-3.0v7 M-2.5,-0.5L0,-3.0L2.5,-0.5"/>
                </g>
                <g id="arrowLeft" xlink:href="#dirArrow" transform="rotate(270) translate(-36 17)" onmousedown="handlePan(-1,0)">
                  <use xlink:href="#rim" fill="#404040">
                        <set attributeName="fill" to="#808080" begin="arrowLeft.mouseover" end="arrowLeft.mouseout"/>
                  </use>
                  <path fill="none" stroke="white" stroke-width="1.5" d="M0,-3.0v7 M-2.5,-0.5L0,-3.0L2.5,-0.5"/>
                </g>
        </g>
        <svg viewBox="0 0 15 15" width="100%" height="30px" preserveAspectRatio="xMaxYMin meet">
         <g id="arrow_out" transform="scale(0.3 0.3)">
          <a xlink:href="acme__certificates_8h__dep__incl_org.svg" target="_base">
           <rect id="button" ry="5" rx="5" y="6" x="6" height="38" width="38"
                fill="#f2f5e9" fill-opacity="0.5" stroke="#606060" stroke-width="1.0"/>
           <path id="arrow"
             d="M 11.500037,31.436501 C 11.940474,20.09759 22.043105,11.32322 32.158766,21.979434 L 37.068811,17.246167 C 37.068811,17.246167 37.088388,32 37.088388,32 L 22.160133,31.978069 C 22.160133,31.978069 26.997745,27.140456 26.997745,27.140456 C 18.528582,18.264221 13.291696,25.230495 11.500037,31.436501 z"
             style="fill:#404040;"/>
          </a>
         </g>
        </svg>
</svg>
