<?xml version="1.0" encoding="UTF-8" standalone="no"?>
<!DOCTYPE svg PUBLIC "-//W3C//DTD SVG 1.1//EN"
 "http://www.w3.org/Graphics/SVG/1.1/DTD/svg11.dtd">
<!-- Generated by graphviz version 2.43.0 (0)
 -->
<!-- Title: include/ccf/node/acme_subsystem_interface.h Pages: 1 -->
<svg width="181pt" height="207pt"
 viewBox="0.00 0.00 181.00 207.00" xmlns="http://www.w3.org/2000/svg" xmlns:xlink="http://www.w3.org/1999/xlink">
<g id="graph0" class="graph" transform="scale(1 1) rotate(0) translate(4 203)">
<title>include/ccf/node/acme_subsystem_interface.h</title>
<polygon fill="white" stroke="transparent" points="-4,4 -4,-203 177,-203 177,4 -4,4"/>
<!-- Node1 -->
<g id="node1" class="node">
<title>Node1</title>
<g id="a_node1"><a xlink:title=" ">
<polygon fill="#bfbfbf" stroke="black" points="20,-168.5 20,-198.5 153,-198.5 153,-168.5 20,-168.5"/>
<text text-anchor="start" x="28" y="-186.5" font-family="Helvetica,sans-Serif" font-size="10.00">include/ccf/node/acme</text>
<text text-anchor="middle" x="86.5" y="-175.5" font-family="Helvetica,sans-Serif" font-size="10.00">_subsystem_interface.h</text>
</a>
</g>
</g>
<!-- Node2 -->
<g id="node2" class="node">
<title>Node2</title>
<g id="a_node2"><a xlink:href="acme__subsystem_8h.html" target="_top" xlink:title=" ">
<polygon fill="white" stroke="black" points="0,-112.5 0,-131.5 173,-131.5 173,-112.5 0,-112.5"/>
<text text-anchor="middle" x="86.5" y="-119.5" font-family="Helvetica,sans-Serif" font-size="10.00">src/node/rpc/acme_subsystem.h</text>
</a>
</g>
</g>
<!-- Node1&#45;&gt;Node2 -->
<g id="edge1" class="edge">
<title>Node1&#45;&gt;Node2</title>
<path fill="none" stroke="midnightblue" d="M86.5,-158.29C86.5,-148.86 86.5,-138.65 86.5,-131.66"/>
<polygon fill="midnightblue" stroke="midnightblue" points="83,-158.4 86.5,-168.4 90,-158.4 83,-158.4"/>
</g>
<!-- Node3 -->
<g id="node3" class="node">
<title>Node3</title>
<g id="a_node3"><a xlink:href="src_2enclave_2enclave_8h.html" target="_top" xlink:title=" ">
<polygon fill="white" stroke="black" points="25.5,-56.5 25.5,-75.5 147.5,-75.5 147.5,-56.5 25.5,-56.5"/>
<text text-anchor="middle" x="86.5" y="-63.5" font-family="Helvetica,sans-Serif" font-size="10.00">src/enclave/enclave.h</text>
</a>
</g>
</g>
<!-- Node2&#45;&gt;Node3 -->
<g id="edge2" class="edge">
<title>Node2&#45;&gt;Node3</title>
<path fill="none" stroke="midnightblue" d="M86.5,-101.8C86.5,-92.91 86.5,-82.78 86.5,-75.75"/>
<polygon fill="midnightblue" stroke="midnightblue" points="83,-102.08 86.5,-112.08 90,-102.08 83,-102.08"/>
</g>
<!-- Node4 -->
<g id="node4" class="node">
<title>Node4</title>
<g id="a_node4"><a xlink:href="enclave_2main_8cpp.html" target="_top" xlink:title=" ">
<polygon fill="white" stroke="black" points="26.5,-0.5 26.5,-19.5 146.5,-19.5 146.5,-0.5 26.5,-0.5"/>
<text text-anchor="middle" x="86.5" y="-7.5" font-family="Helvetica,sans-Serif" font-size="10.00">src/enclave/main.cpp</text>
</a>
</g>
</g>
<!-- Node3&#45;&gt;Node4 -->
<g id="edge3" class="edge">
<title>Node3&#45;&gt;Node4</title>
<path fill="none" stroke="midnightblue" d="M86.5,-45.8C86.5,-36.91 86.5,-26.78 86.5,-19.75"/>
<polygon fill="midnightblue" stroke="midnightblue" points="83,-46.08 86.5,-56.08 90,-46.08 83,-46.08"/>
</g>
</g>
</svg>
