<?xml version="1.0" encoding="UTF-8" standalone="no"?>
<!DOCTYPE svg PUBLIC "-//W3C//DTD SVG 1.1//EN"
 "http://www.w3.org/Graphics/SVG/1.1/DTD/svg11.dtd">
<!-- Generated by graphviz version 2.43.0 (0)
 -->
<!-- Title: include/ccf/base_endpoint_registry.h Pages: 1 -->
<!--zoomable 486 -->
<svg id="main" version="1.1" xmlns="http://www.w3.org/2000/svg" xmlns:xlink="http://www.w3.org/1999/xlink" xml:space="preserve" onload="init(evt)">
<style type="text/css"><![CDATA[
.edge:hover path { stroke: red; }
.edge:hover polygon { stroke: red; fill: red; }
]]></style>
<script type="text/javascript"><![CDATA[
var edges = document.getElementsByTagName('g');
if (edges && edges.length) {
  for (var i=0;i<edges.length;i++) {
    if (edges[i].id.substr(0,4)=='edge') {
      edges[i].setAttribute('class','edge');
    }
  }
}
]]></script>
        <defs>
                <circle id="rim" cx="0" cy="0" r="7"/>
                <circle id="rim2" cx="0" cy="0" r="3.5"/>
                <g id="zoomPlus">
                        <use xlink:href="#rim" fill="#404040">
                                <set attributeName="fill" to="#808080" begin="zoomplus.mouseover" end="zoomplus.mouseout"/>
                        </use>
                        <path d="M-4,0h8M0,-4v8" fill="none" stroke="white" stroke-width="1.5" pointer-events="none"/>
                </g>
                <g id="zoomMin">
                        <use xlink:href="#rim" fill="#404040">
                                <set attributeName="fill" to="#808080" begin="zoomminus.mouseover" end="zoomminus.mouseout"/>
                        </use>
                        <path d="M-4,0h8" fill="none" stroke="white" stroke-width="1.5" pointer-events="none"/>
                </g>
                <g id="dirArrow">
                        <path fill="none" stroke="white" stroke-width="1.5" d="M0,-3.0v7 M-2.5,-0.5L0,-3.0L2.5,-0.5"/>
                </g>
               <g id="resetDef">
                       <use xlink:href="#rim2" fill="#404040">
                               <set attributeName="fill" to="#808080" begin="reset.mouseover" end="reset.mouseout"/>
                       </use>
               </g>
        </defs>

<script type="text/javascript">
var viewWidth = 2247;
var viewHeight = 486;
var sectionId = 'dynsection-1';
</script>
<script xlink:href="svgpan.js"/>
<svg id="graph" class="graph">
<g id="viewport">
<title>include/ccf/base_endpoint_registry.h</title>
<polygon fill="white" stroke="transparent" points="-4,4 -4,-482 2243.27,-482 2243.27,4 -4,4"/>
<!-- Node1 -->
<g id="node1" class="node">
<title>Node1</title>
<g id="a_node1"><a xlink:title=" ">
<polygon fill="#bfbfbf" stroke="black" points="1363,-447.5 1363,-477.5 1506,-477.5 1506,-447.5 1363,-447.5"/>
<text text-anchor="start" x="1371" y="-465.5" font-family="Helvetica,sans-Serif" font-size="10.00">include/ccf/base_endpoint</text>
<text text-anchor="middle" x="1434.5" y="-454.5" font-family="Helvetica,sans-Serif" font-size="10.00">_registry.h</text>
</a>
</g>
</g>
<!-- Node2 -->
<g id="node2" class="node">
<title>Node2</title>
<g id="a_node2"><a xlink:href="common__endpoint__registry_8h.html" target="_top" xlink:title=" ">
<polygon fill="white" stroke="black" points="1216,-380.5 1216,-410.5 1331,-410.5 1331,-380.5 1216,-380.5"/>
<text text-anchor="start" x="1224" y="-398.5" font-family="Helvetica,sans-Serif" font-size="10.00">include/ccf/common</text>
<text text-anchor="middle" x="1273.5" y="-387.5" font-family="Helvetica,sans-Serif" font-size="10.00">_endpoint_registry.h</text>
</a>
</g>
</g>
<!-- Node1&#45;&gt;Node2 -->
<g id="edge1" class="edge">
<title>Node1&#45;&gt;Node2</title>
<path fill="none" stroke="midnightblue" d="M1390.02,-443.54C1364.26,-433.14 1332.3,-420.24 1308.37,-410.58"/>
<polygon fill="midnightblue" stroke="midnightblue" points="1388.98,-446.9 1399.57,-447.4 1391.6,-440.41 1388.98,-446.9"/>
</g>
<!-- Node5 -->
<g id="node5" class="node">
<title>Node5</title>
<g id="a_node5"><a xlink:href="nobuiltins_8cpp.html" target="_top" xlink:title=" ">
<polygon fill="white" stroke="black" points="0,-179.5 0,-209.5 135,-209.5 135,-179.5 0,-179.5"/>
<text text-anchor="start" x="8" y="-197.5" font-family="Helvetica,sans-Serif" font-size="10.00">samples/apps/nobuiltins</text>
<text text-anchor="middle" x="67.5" y="-186.5" font-family="Helvetica,sans-Serif" font-size="10.00">/nobuiltins.cpp</text>
</a>
</g>
</g>
<!-- Node1&#45;&gt;Node5 -->
<g id="edge33" class="edge">
<title>Node1&#45;&gt;Node5</title>
<path fill="none" stroke="midnightblue" d="M1352.91,-445.62C1104.95,-397.37 363.37,-253.07 135.11,-208.66"/>
<polygon fill="midnightblue" stroke="midnightblue" points="1352.44,-449.1 1362.93,-447.57 1353.78,-442.23 1352.44,-449.1"/>
</g>
<!-- Node25 -->
<g id="node25" class="node">
<title>Node25</title>
<g id="a_node25"><a xlink:href="base__endpoint__registry_8cpp.html" target="_top" xlink:title=" ">
<polygon fill="white" stroke="black" points="1543.5,-380.5 1543.5,-410.5 1669.5,-410.5 1669.5,-380.5 1543.5,-380.5"/>
<text text-anchor="start" x="1551.5" y="-398.5" font-family="Helvetica,sans-Serif" font-size="10.00">src/endpoints/base</text>
<text text-anchor="middle" x="1606.5" y="-387.5" font-family="Helvetica,sans-Serif" font-size="10.00">_endpoint_registry.cpp</text>
</a>
</g>
</g>
<!-- Node1&#45;&gt;Node25 -->
<g id="edge34" class="edge">
<title>Node1&#45;&gt;Node25</title>
<path fill="none" stroke="midnightblue" d="M1481.29,-443.82C1508.93,-433.37 1543.46,-420.32 1569.25,-410.58"/>
<polygon fill="midnightblue" stroke="midnightblue" points="1479.94,-440.59 1471.82,-447.4 1482.41,-447.13 1479.94,-440.59"/>
</g>
<!-- Node26 -->
<g id="node26" class="node">
<title>Node26</title>
<g id="a_node26"><a xlink:href="wrap_8h.html" target="_top" xlink:title=" ">
<polygon fill="white" stroke="black" points="1735.5,-252 1735.5,-271 1813.5,-271 1813.5,-252 1735.5,-252"/>
<text text-anchor="middle" x="1774.5" y="-259" font-family="Helvetica,sans-Serif" font-size="10.00">src/js/wrap.h</text>
</a>
</g>
</g>
<!-- Node1&#45;&gt;Node26 -->
<g id="edge35" class="edge">
<title>Node1&#45;&gt;Node26</title>
<path fill="none" stroke="midnightblue" d="M1457.07,-440.57C1476.62,-423.08 1506.15,-398.15 1534.5,-380 1610.68,-331.22 1710.06,-288.58 1753.09,-271.03"/>
<polygon fill="midnightblue" stroke="midnightblue" points="1454.65,-438.04 1449.59,-447.34 1459.35,-443.23 1454.65,-438.04"/>
</g>
<!-- Node3 -->
<g id="node3" class="node">
<title>Node3</title>
<g id="a_node3"><a xlink:href="app__interface_8h.html" target="_top" xlink:title=" ">
<polygon fill="white" stroke="black" points="583.5,-252 583.5,-271 731.5,-271 731.5,-252 583.5,-252"/>
<text text-anchor="middle" x="657.5" y="-259" font-family="Helvetica,sans-Serif" font-size="10.00">include/ccf/app_interface.h</text>
</a>
</g>
</g>
<!-- Node2&#45;&gt;Node3 -->
<g id="edge2" class="edge">
<title>Node2&#45;&gt;Node3</title>
<path fill="none" stroke="midnightblue" d="M1206.14,-379.16C1176.94,-371 1142.99,-359.42 1114.5,-344 1095.33,-333.63 1096.56,-321.53 1076.5,-313 1016.07,-287.3 834.84,-272.83 731.61,-266.47"/>
<polygon fill="midnightblue" stroke="midnightblue" points="1205.28,-382.55 1215.84,-381.8 1207.11,-375.8 1205.28,-382.55"/>
</g>
<!-- Node17 -->
<g id="node17" class="node">
<title>Node17</title>
<g id="a_node17"><a xlink:href="common__endpoint__registry_8cpp.html" target="_top" xlink:title=" ">
<polygon fill="white" stroke="black" points="939.5,-313.5 939.5,-343.5 1067.5,-343.5 1067.5,-313.5 939.5,-313.5"/>
<text text-anchor="start" x="947.5" y="-331.5" font-family="Helvetica,sans-Serif" font-size="10.00">src/endpoints/common</text>
<text text-anchor="middle" x="1003.5" y="-320.5" font-family="Helvetica,sans-Serif" font-size="10.00">_endpoint_registry.cpp</text>
</a>
</g>
</g>
<!-- Node2&#45;&gt;Node17 -->
<g id="edge19" class="edge">
<title>Node2&#45;&gt;Node17</title>
<path fill="none" stroke="midnightblue" d="M1206.09,-378.27C1161.76,-367.6 1104.32,-353.77 1061.93,-343.57"/>
<polygon fill="midnightblue" stroke="midnightblue" points="1205.37,-381.7 1215.91,-380.64 1207.01,-374.89 1205.37,-381.7"/>
</g>
<!-- Node18 -->
<g id="node18" class="node">
<title>Node18</title>
<g id="a_node18"><a xlink:href="acme__challenge__frontend_8h.html" target="_top" xlink:title=" ">
<polygon fill="white" stroke="black" points="1123.5,-313.5 1123.5,-343.5 1263.5,-343.5 1263.5,-313.5 1123.5,-313.5"/>
<text text-anchor="start" x="1131.5" y="-331.5" font-family="Helvetica,sans-Serif" font-size="10.00">src/node/acme_challenge</text>
<text text-anchor="middle" x="1193.5" y="-320.5" font-family="Helvetica,sans-Serif" font-size="10.00">_frontend.h</text>
</a>
</g>
</g>
<!-- Node2&#45;&gt;Node18 -->
<g id="edge20" class="edge">
<title>Node2&#45;&gt;Node18</title>
<path fill="none" stroke="midnightblue" d="M1248.13,-373.88C1235.97,-364.01 1221.72,-352.43 1210.82,-343.58"/>
<polygon fill="midnightblue" stroke="midnightblue" points="1246.17,-376.81 1256.14,-380.4 1250.59,-371.37 1246.17,-376.81"/>
</g>
<!-- Node22 -->
<g id="node22" class="node">
<title>Node22</title>
<g id="a_node22"><a xlink:href="member__frontend_8h.html" target="_top" xlink:title=" ">
<polygon fill="white" stroke="black" points="1458.5,-179.5 1458.5,-209.5 1578.5,-209.5 1578.5,-179.5 1458.5,-179.5"/>
<text text-anchor="start" x="1466.5" y="-197.5" font-family="Helvetica,sans-Serif" font-size="10.00">src/node/rpc/member</text>
<text text-anchor="middle" x="1518.5" y="-186.5" font-family="Helvetica,sans-Serif" font-size="10.00">_frontend.h</text>
</a>
</g>
</g>
<!-- Node2&#45;&gt;Node22 -->
<g id="edge27" class="edge">
<title>Node2&#45;&gt;Node22</title>
<path fill="none" stroke="midnightblue" d="M1341.48,-388.32C1376.81,-382.03 1418.71,-369.38 1448.5,-344 1491.24,-307.59 1509.65,-239.28 1515.87,-209.73"/>
<polygon fill="midnightblue" stroke="midnightblue" points="1340.53,-384.92 1331.23,-390 1341.66,-391.83 1340.53,-384.92"/>
</g>
<!-- Node23 -->
<g id="node23" class="node">
<title>Node23</title>
<g id="a_node23"><a xlink:href="node__frontend_8h.html" target="_top" xlink:title=" ">
<polygon fill="white" stroke="black" points="1281.5,-319 1281.5,-338 1439.5,-338 1439.5,-319 1281.5,-319"/>
<text text-anchor="middle" x="1360.5" y="-326" font-family="Helvetica,sans-Serif" font-size="10.00">src/node/rpc/node_frontend.h</text>
</a>
</g>
</g>
<!-- Node2&#45;&gt;Node23 -->
<g id="edge29" class="edge">
<title>Node2&#45;&gt;Node23</title>
<path fill="none" stroke="midnightblue" d="M1300.48,-374.34C1316.72,-362.21 1336.56,-347.39 1348.86,-338.19"/>
<polygon fill="midnightblue" stroke="midnightblue" points="1298.29,-371.61 1292.38,-380.4 1302.48,-377.21 1298.29,-371.61"/>
</g>
<!-- Node4 -->
<g id="node4" class="node">
<title>Node4</title>
<g id="a_node4"><a xlink:href="logging_8cpp.html" target="_top" xlink:title=" ">
<polygon fill="white" stroke="black" points="153,-179.5 153,-209.5 276,-209.5 276,-179.5 153,-179.5"/>
<text text-anchor="start" x="161" y="-197.5" font-family="Helvetica,sans-Serif" font-size="10.00">samples/apps/logging</text>
<text text-anchor="middle" x="214.5" y="-186.5" font-family="Helvetica,sans-Serif" font-size="10.00">/logging.cpp</text>
</a>
</g>
</g>
<!-- Node3&#45;&gt;Node4 -->
<g id="edge3" class="edge">
<title>Node3&#45;&gt;Node4</title>
<path fill="none" stroke="midnightblue" d="M577.42,-250.69C502.96,-241.29 389,-226.16 290.5,-210 285.86,-209.24 281.07,-208.41 276.25,-207.56"/>
<polygon fill="midnightblue" stroke="midnightblue" points="577.31,-254.21 587.66,-251.98 578.18,-247.26 577.31,-254.21"/>
</g>
<!-- Node3&#45;&gt;Node5 -->
<g id="edge4" class="edge">
<title>Node3&#45;&gt;Node5</title>
<path fill="none" stroke="midnightblue" d="M572.94,-254.55C470.85,-246.83 294.08,-231.72 143.5,-210 140.84,-209.62 138.13,-209.2 135.4,-208.77"/>
<polygon fill="midnightblue" stroke="midnightblue" points="572.96,-258.06 583.19,-255.32 573.48,-251.08 572.96,-258.06"/>
</g>
<!-- Node6 -->
<g id="node6" class="node">
<title>Node6</title>
<g id="a_node6"><a xlink:href="executor__auth__policy_8h.html" target="_top" xlink:title=" ">
<polygon fill="white" stroke="black" points="332.5,-179.5 332.5,-209.5 480.5,-209.5 480.5,-179.5 332.5,-179.5"/>
<text text-anchor="start" x="340.5" y="-197.5" font-family="Helvetica,sans-Serif" font-size="10.00">src/apps/external_executor</text>
<text text-anchor="middle" x="406.5" y="-186.5" font-family="Helvetica,sans-Serif" font-size="10.00">/executor_auth_policy.h</text>
</a>
</g>
</g>
<!-- Node3&#45;&gt;Node6 -->
<g id="edge5" class="edge">
<title>Node3&#45;&gt;Node6</title>
<path fill="none" stroke="midnightblue" d="M614.67,-249.41C572.17,-238.4 506.9,-221.5 460.79,-209.56"/>
<polygon fill="midnightblue" stroke="midnightblue" points="613.87,-252.82 624.43,-251.94 615.62,-246.04 613.87,-252.82"/>
</g>
<!-- Node7 -->
<g id="node7" class="node">
<title>Node7</title>
<g id="a_node7"><a xlink:href="external__executor_8cpp.html" target="_top" xlink:title=" ">
<polygon fill="white" stroke="black" points="295.5,-112.5 295.5,-142.5 443.5,-142.5 443.5,-112.5 295.5,-112.5"/>
<text text-anchor="start" x="303.5" y="-130.5" font-family="Helvetica,sans-Serif" font-size="10.00">src/apps/external_executor</text>
<text text-anchor="middle" x="369.5" y="-119.5" font-family="Helvetica,sans-Serif" font-size="10.00">/external_executor.cpp</text>
</a>
</g>
</g>
<!-- Node3&#45;&gt;Node7 -->
<g id="edge7" class="edge">
<title>Node3&#45;&gt;Node7</title>
<path fill="none" stroke="midnightblue" d="M573.46,-259.82C485.27,-257.1 355.12,-246.76 323.5,-210 305.38,-188.94 331.99,-159.65 351.66,-142.52"/>
<polygon fill="midnightblue" stroke="midnightblue" points="573.36,-263.31 583.46,-260.1 573.56,-256.32 573.36,-263.31"/>
</g>
<!-- Node8 -->
<g id="node8" class="node">
<title>Node8</title>
<g id="a_node8"><a xlink:href="js__generic_8cpp.html" target="_top" xlink:title=" ">
<polygon fill="white" stroke="black" points="489.5,-112.5 489.5,-142.5 599.5,-142.5 599.5,-112.5 489.5,-112.5"/>
<text text-anchor="start" x="497.5" y="-130.5" font-family="Helvetica,sans-Serif" font-size="10.00">src/apps/js_generic</text>
<text text-anchor="middle" x="544.5" y="-119.5" font-family="Helvetica,sans-Serif" font-size="10.00">/js_generic.cpp</text>
</a>
</g>
</g>
<!-- Node3&#45;&gt;Node8 -->
<g id="edge8" class="edge">
<title>Node3&#45;&gt;Node8</title>
<path fill="none" stroke="midnightblue" d="M585.98,-249.11C563.49,-241.79 541.02,-229.76 527.5,-210 513.54,-189.6 525.82,-160.09 535.51,-142.74"/>
<polygon fill="midnightblue" stroke="midnightblue" points="585.01,-252.47 595.59,-251.97 587,-245.76 585.01,-252.47"/>
</g>
<!-- Node9 -->
<g id="node9" class="node">
<title>Node9</title>
<g id="a_node9"><a xlink:href="js__generic__base_8cpp.html" target="_top" xlink:title=" ">
<polygon fill="white" stroke="black" points="1180.5,-179.5 1180.5,-209.5 1298.5,-209.5 1298.5,-179.5 1180.5,-179.5"/>
<text text-anchor="start" x="1188.5" y="-197.5" font-family="Helvetica,sans-Serif" font-size="10.00">src/apps/js_generic</text>
<text text-anchor="middle" x="1239.5" y="-186.5" font-family="Helvetica,sans-Serif" font-size="10.00">/js_generic_base.cpp</text>
</a>
</g>
</g>
<!-- Node3&#45;&gt;Node9 -->
<g id="edge9" class="edge">
<title>Node3&#45;&gt;Node9</title>
<path fill="none" stroke="midnightblue" d="M741.68,-251.1C860.94,-237.78 1076.12,-213.75 1180.08,-202.14"/>
<polygon fill="midnightblue" stroke="midnightblue" points="741.06,-247.65 731.51,-252.23 741.83,-254.6 741.06,-247.65"/>
</g>
<!-- Node10 -->
<g id="node10" class="node">
<title>Node10</title>
<g id="a_node10"><a xlink:href="js__generic__base_8h.html" target="_top" xlink:title=" ">
<polygon fill="white" stroke="black" points="536.5,-179.5 536.5,-209.5 646.5,-209.5 646.5,-179.5 536.5,-179.5"/>
<text text-anchor="start" x="544.5" y="-197.5" font-family="Helvetica,sans-Serif" font-size="10.00">src/apps/js_generic</text>
<text text-anchor="middle" x="591.5" y="-186.5" font-family="Helvetica,sans-Serif" font-size="10.00">/js_generic_base.h</text>
</a>
</g>
</g>
<!-- Node3&#45;&gt;Node10 -->
<g id="edge10" class="edge">
<title>Node3&#45;&gt;Node10</title>
<path fill="none" stroke="midnightblue" d="M641.37,-244.62C630.5,-233.91 616.28,-219.9 605.81,-209.59"/>
<polygon fill="midnightblue" stroke="midnightblue" points="639.02,-247.21 648.6,-251.73 643.93,-242.22 639.02,-247.21"/>
</g>
<!-- Node11 -->
<g id="node11" class="node">
<title>Node11</title>
<g id="a_node11"><a xlink:href="tpcc_8cpp.html" target="_top" xlink:title=" ">
<polygon fill="white" stroke="black" points="801,-185 801,-204 946,-204 946,-185 801,-185"/>
<text text-anchor="middle" x="873.5" y="-192" font-family="Helvetica,sans-Serif" font-size="10.00">src/apps/tpcc/app/tpcc.cpp</text>
</a>
</g>
</g>
<!-- Node3&#45;&gt;Node11 -->
<g id="edge12" class="edge">
<title>Node3&#45;&gt;Node11</title>
<path fill="none" stroke="midnightblue" d="M695.95,-248.93C738.72,-236.06 806.81,-215.57 845.04,-204.06"/>
<polygon fill="midnightblue" stroke="midnightblue" points="694.75,-245.64 686.18,-251.87 696.77,-252.34 694.75,-245.64"/>
</g>
<!-- Node12 -->
<g id="node12" class="node">
<title>Node12</title>
<g id="a_node12"><a xlink:href="src_2enclave_2enclave_8h.html" target="_top" xlink:title=" ">
<polygon fill="white" stroke="black" points="1145.5,-56.5 1145.5,-75.5 1267.5,-75.5 1267.5,-56.5 1145.5,-56.5"/>
<text text-anchor="middle" x="1206.5" y="-63.5" font-family="Helvetica,sans-Serif" font-size="10.00">src/enclave/enclave.h</text>
</a>
</g>
</g>
<!-- Node3&#45;&gt;Node12 -->
<g id="edge13" class="edge">
<title>Node3&#45;&gt;Node12</title>
<path fill="none" stroke="midnightblue" d="M742.1,-257.9C820.11,-253.5 927.74,-241.7 954.5,-210 983.8,-175.29 896.03,-146.56 925.5,-112 953.19,-79.53 1071.46,-70.39 1145.46,-67.88"/>
<polygon fill="midnightblue" stroke="midnightblue" points="741.58,-254.42 731.78,-258.44 741.96,-261.41 741.58,-254.42"/>
</g>
<!-- Node14 -->
<g id="node14" class="node">
<title>Node14</title>
<g id="a_node14"><a xlink:href="no__plugins_8cpp.html" target="_top" xlink:title=" ">
<polygon fill="white" stroke="black" points="664.5,-185 664.5,-204 782.5,-204 782.5,-185 664.5,-185"/>
<text text-anchor="middle" x="723.5" y="-192" font-family="Helvetica,sans-Serif" font-size="10.00">src/js/no_plugins.cpp</text>
</a>
</g>
</g>
<!-- Node3&#45;&gt;Node14 -->
<g id="edge15" class="edge">
<title>Node3&#45;&gt;Node14</title>
<path fill="none" stroke="midnightblue" d="M673.75,-244.5C686.69,-231.75 704.31,-214.39 714.74,-204.13"/>
<polygon fill="midnightblue" stroke="midnightblue" points="671.07,-242.22 666.4,-251.73 675.98,-247.21 671.07,-242.22"/>
</g>
<!-- Node16 -->
<g id="node16" class="node">
<title>Node16</title>
<g id="a_node16"><a xlink:href="user__frontend_8h.html" target="_top" xlink:title=" ">
<polygon fill="white" stroke="black" points="935,-118 935,-137 1090,-137 1090,-118 935,-118"/>
<text text-anchor="middle" x="1012.5" y="-125" font-family="Helvetica,sans-Serif" font-size="10.00">src/node/rpc/user_frontend.h</text>
</a>
</g>
</g>
<!-- Node3&#45;&gt;Node16 -->
<g id="edge17" class="edge">
<title>Node3&#45;&gt;Node16</title>
<path fill="none" stroke="midnightblue" d="M741.86,-257.73C827.58,-253.19 952.7,-241.26 988.5,-210 1010.05,-191.18 1012.72,-154.08 1012.75,-137.21"/>
<polygon fill="midnightblue" stroke="midnightblue" points="741.68,-254.24 731.87,-258.24 742.03,-261.23 741.68,-254.24"/>
</g>
<!-- Node6&#45;&gt;Node7 -->
<g id="edge6" class="edge">
<title>Node6&#45;&gt;Node7</title>
<path fill="none" stroke="midnightblue" d="M393.45,-170.58C388.14,-161.24 382.16,-150.75 377.51,-142.58"/>
<polygon fill="midnightblue" stroke="midnightblue" points="390.48,-172.44 398.47,-179.4 396.57,-168.97 390.48,-172.44"/>
</g>
<!-- Node10&#45;&gt;Node8 -->
<g id="edge11" class="edge">
<title>Node10&#45;&gt;Node8</title>
<path fill="none" stroke="midnightblue" d="M575.34,-171.16C568.49,-161.68 560.71,-150.92 554.68,-142.58"/>
<polygon fill="midnightblue" stroke="midnightblue" points="572.61,-173.34 581.3,-179.4 578.28,-169.24 572.61,-173.34"/>
</g>
<!-- Node13 -->
<g id="node13" class="node">
<title>Node13</title>
<g id="a_node13"><a xlink:href="enclave_2main_8cpp.html" target="_top" xlink:title=" ">
<polygon fill="white" stroke="black" points="1146.5,-0.5 1146.5,-19.5 1266.5,-19.5 1266.5,-0.5 1146.5,-0.5"/>
<text text-anchor="middle" x="1206.5" y="-7.5" font-family="Helvetica,sans-Serif" font-size="10.00">src/enclave/main.cpp</text>
</a>
</g>
</g>
<!-- Node12&#45;&gt;Node13 -->
<g id="edge14" class="edge">
<title>Node12&#45;&gt;Node13</title>
<path fill="none" stroke="midnightblue" d="M1206.5,-45.8C1206.5,-36.91 1206.5,-26.78 1206.5,-19.75"/>
<polygon fill="midnightblue" stroke="midnightblue" points="1203,-46.08 1206.5,-56.08 1210,-46.08 1203,-46.08"/>
</g>
<!-- Node15 -->
<g id="node15" class="node">
<title>Node15</title>
<g id="a_node15"><a xlink:href="wrap_8cpp.html" target="_top" xlink:title=" ">
<polygon fill="white" stroke="black" points="1785,-118 1785,-137 1874,-137 1874,-118 1785,-118"/>
<text text-anchor="middle" x="1829.5" y="-125" font-family="Helvetica,sans-Serif" font-size="10.00">src/js/wrap.cpp</text>
</a>
</g>
</g>
<!-- Node14&#45;&gt;Node15 -->
<g id="edge16" class="edge">
<title>Node14&#45;&gt;Node15</title>
<path fill="none" stroke="midnightblue" d="M768.21,-182.89C775.94,-181.37 783.93,-179.99 791.5,-179 988.08,-153.43 1612.02,-134.55 1784.78,-129.71"/>
<polygon fill="midnightblue" stroke="midnightblue" points="767.34,-179.5 758.26,-184.96 768.76,-186.36 767.34,-179.5"/>
</g>
<!-- Node16&#45;&gt;Node12 -->
<g id="edge18" class="edge">
<title>Node16&#45;&gt;Node12</title>
<path fill="none" stroke="midnightblue" d="M1049.9,-115.03C1087.61,-103.46 1144.93,-85.88 1178.76,-75.51"/>
<polygon fill="midnightblue" stroke="midnightblue" points="1048.83,-111.7 1040.3,-117.98 1050.88,-118.39 1048.83,-111.7"/>
</g>
<!-- Node18&#45;&gt;Node12 -->
<g id="edge21" class="edge">
<title>Node18&#45;&gt;Node12</title>
<path fill="none" stroke="midnightblue" d="M1144.04,-308.83C1130.42,-301.14 1117.27,-290.73 1109.5,-277 1102.72,-265.01 1107.84,-259.68 1109.5,-246 1116.89,-185.11 1107.88,-162.63 1142.5,-112 1153.77,-95.52 1173.2,-83.13 1187.7,-75.56"/>
<polygon fill="midnightblue" stroke="midnightblue" points="1142.53,-311.98 1153.01,-313.5 1145.76,-305.78 1142.53,-311.98"/>
</g>
<!-- Node19 -->
<g id="node19" class="node">
<title>Node19</title>
<g id="a_node19"><a xlink:href="ccf__acme__client_8h.html" target="_top" xlink:title=" ">
<polygon fill="white" stroke="black" points="1119,-252 1119,-271 1268,-271 1268,-252 1119,-252"/>
<text text-anchor="middle" x="1193.5" y="-259" font-family="Helvetica,sans-Serif" font-size="10.00">src/node/ccf_acme_client.h</text>
</a>
</g>
</g>
<!-- Node18&#45;&gt;Node19 -->
<g id="edge22" class="edge">
<title>Node18&#45;&gt;Node19</title>
<path fill="none" stroke="midnightblue" d="M1193.5,-303.25C1193.5,-292.02 1193.5,-279.38 1193.5,-271.19"/>
<polygon fill="midnightblue" stroke="midnightblue" points="1190,-303.4 1193.5,-313.4 1197,-303.4 1190,-303.4"/>
</g>
<!-- Node20 -->
<g id="node20" class="node">
<title>Node20</title>
<g id="a_node20"><a xlink:href="node__state_8h.html" target="_top" xlink:title=" ">
<polygon fill="white" stroke="black" points="1316.5,-185 1316.5,-204 1440.5,-204 1440.5,-185 1316.5,-185"/>
<text text-anchor="middle" x="1378.5" y="-192" font-family="Helvetica,sans-Serif" font-size="10.00">src/node/node_state.h</text>
</a>
</g>
</g>
<!-- Node19&#45;&gt;Node20 -->
<g id="edge23" class="edge">
<title>Node19&#45;&gt;Node20</title>
<path fill="none" stroke="midnightblue" d="M1227.84,-248.44C1264.54,-235.54 1321.79,-215.42 1354.13,-204.06"/>
<polygon fill="midnightblue" stroke="midnightblue" points="1226.34,-245.25 1218.07,-251.87 1228.66,-251.86 1226.34,-245.25"/>
</g>
<!-- Node20&#45;&gt;Node12 -->
<g id="edge24" class="edge">
<title>Node20&#45;&gt;Node12</title>
<path fill="none" stroke="midnightblue" d="M1376.87,-174.69C1374.29,-156.29 1367.64,-128.67 1350.5,-112 1328.34,-90.45 1296.02,-79.21 1267.6,-73.35"/>
<polygon fill="midnightblue" stroke="midnightblue" points="1373.41,-175.23 1378.01,-184.78 1380.37,-174.45 1373.41,-175.23"/>
</g>
<!-- Node21 -->
<g id="node21" class="node">
<title>Node21</title>
<g id="a_node21"><a xlink:href="gov__effects_8h.html" target="_top" xlink:title=" ">
<polygon fill="white" stroke="black" points="1197.5,-118 1197.5,-137 1341.5,-137 1341.5,-118 1197.5,-118"/>
<text text-anchor="middle" x="1269.5" y="-125" font-family="Helvetica,sans-Serif" font-size="10.00">src/node/rpc/gov_effects.h</text>
</a>
</g>
</g>
<!-- Node20&#45;&gt;Node21 -->
<g id="edge25" class="edge">
<title>Node20&#45;&gt;Node21</title>
<path fill="none" stroke="midnightblue" d="M1354.93,-179.44C1333.34,-166.57 1302.08,-147.93 1283.97,-137.13"/>
<polygon fill="midnightblue" stroke="midnightblue" points="1353.42,-182.62 1363.8,-184.73 1357,-176.61 1353.42,-182.62"/>
</g>
<!-- Node21&#45;&gt;Node12 -->
<g id="edge26" class="edge">
<title>Node21&#45;&gt;Node12</title>
<path fill="none" stroke="midnightblue" d="M1252.9,-110.82C1240.93,-99.52 1225.23,-84.69 1215.51,-75.51"/>
<polygon fill="midnightblue" stroke="midnightblue" points="1250.8,-113.65 1260.47,-117.98 1255.61,-108.56 1250.8,-113.65"/>
</g>
<!-- Node22&#45;&gt;Node12 -->
<g id="edge28" class="edge">
<title>Node22&#45;&gt;Node12</title>
<path fill="none" stroke="midnightblue" d="M1488.79,-173.71C1460.44,-155.56 1416,-128.98 1374.5,-112 1333.7,-95.31 1284.79,-83.02 1250.3,-75.54"/>
<polygon fill="midnightblue" stroke="midnightblue" points="1487.11,-176.79 1497.41,-179.29 1490.91,-170.92 1487.11,-176.79"/>
</g>
<!-- Node23&#45;&gt;Node12 -->
<g id="edge30" class="edge">
<title>Node23&#45;&gt;Node12</title>
<path fill="none" stroke="midnightblue" d="M1345.37,-311.22C1325.61,-290.24 1291.71,-255.33 1276.5,-246 1234.45,-220.2 1200.17,-250.14 1171.5,-210 1140.6,-166.74 1183.02,-99.37 1200.01,-75.63"/>
<polygon fill="midnightblue" stroke="midnightblue" points="1343.03,-313.84 1352.42,-318.75 1348.14,-309.06 1343.03,-313.84"/>
</g>
<!-- Node24 -->
<g id="node24" class="node">
<title>Node24</title>
<g id="a_node24"><a xlink:href="jwt__key__auto__refresh_8h.html" target="_top" xlink:title=" ">
<polygon fill="white" stroke="black" points="1324,-246.5 1324,-276.5 1449,-276.5 1449,-246.5 1324,-246.5"/>
<text text-anchor="start" x="1332" y="-264.5" font-family="Helvetica,sans-Serif" font-size="10.00">src/node/jwt_key_auto</text>
<text text-anchor="middle" x="1386.5" y="-253.5" font-family="Helvetica,sans-Serif" font-size="10.00">_refresh.h</text>
</a>
</g>
</g>
<!-- Node23&#45;&gt;Node24 -->
<g id="edge31" class="edge">
<title>Node23&#45;&gt;Node24</title>
<path fill="none" stroke="midnightblue" d="M1367.74,-309.39C1371.89,-299.02 1377.02,-286.2 1380.86,-276.59"/>
<polygon fill="midnightblue" stroke="midnightblue" points="1364.47,-308.15 1364.01,-318.73 1370.97,-310.75 1364.47,-308.15"/>
</g>
<!-- Node24&#45;&gt;Node20 -->
<g id="edge32" class="edge">
<title>Node24&#45;&gt;Node20</title>
<path fill="none" stroke="midnightblue" d="M1383.52,-236.25C1382.13,-225.02 1380.58,-212.38 1379.57,-204.19"/>
<polygon fill="midnightblue" stroke="midnightblue" points="1380.07,-236.9 1384.76,-246.4 1387.02,-236.04 1380.07,-236.9"/>
</g>
<!-- Node26&#45;&gt;Node9 -->
<g id="edge36" class="edge">
<title>Node26&#45;&gt;Node9</title>
<path fill="none" stroke="midnightblue" d="M1725.08,-256.83C1639.61,-250.11 1458.81,-234.25 1307.5,-210 1304.64,-209.54 1301.72,-209.04 1298.77,-208.51"/>
<polygon fill="midnightblue" stroke="midnightblue" points="1725.02,-260.34 1735.27,-257.62 1725.57,-253.36 1725.02,-260.34"/>
</g>
<!-- Node26&#45;&gt;Node12 -->
<g id="edge37" class="edge">
<title>Node26&#45;&gt;Node12</title>
<path fill="none" stroke="midnightblue" d="M1823.94,-258.7C1936.76,-254.1 2205.58,-240.05 2232.5,-210 2241.69,-199.74 2241.28,-189.62 2232.5,-179 2170.7,-104.25 1479.62,-75.83 1267.83,-68.84"/>
<polygon fill="midnightblue" stroke="midnightblue" points="1823.69,-255.21 1813.84,-259.11 1823.97,-262.2 1823.69,-255.21"/>
</g>
<!-- Node26&#45;&gt;Node15 -->
<g id="edge47" class="edge">
<title>Node26&#45;&gt;Node15</title>
<path fill="none" stroke="midnightblue" d="M1824.02,-258.48C1933.76,-253.48 2189.78,-238.83 2215.5,-210 2224.67,-199.72 2224.59,-189.36 2215.5,-179 2193.26,-153.67 1971.27,-137.15 1874.36,-131.09"/>
<polygon fill="midnightblue" stroke="midnightblue" points="1823.7,-254.99 1813.87,-258.93 1824.01,-261.98 1823.7,-254.99"/>
</g>
<!-- Node26&#45;&gt;Node20 -->
<g id="edge48" class="edge">
<title>Node26&#45;&gt;Node20</title>
<path fill="none" stroke="midnightblue" d="M1725.21,-253.58C1661.43,-244.46 1546.92,-227.51 1449.5,-210 1439.47,-208.2 1428.68,-206.08 1418.61,-204.04"/>
<polygon fill="midnightblue" stroke="midnightblue" points="1724.99,-257.09 1735.38,-255.03 1725.97,-250.16 1724.99,-257.09"/>
</g>
<!-- Node26&#45;&gt;Node22 -->
<g id="edge49" class="edge">
<title>Node26&#45;&gt;Node22</title>
<path fill="none" stroke="midnightblue" d="M1730.82,-249.41C1687.47,-238.4 1620.9,-221.5 1573.87,-209.56"/>
<polygon fill="midnightblue" stroke="midnightblue" points="1730.22,-252.87 1740.77,-251.94 1731.94,-246.08 1730.22,-252.87"/>
</g>
<!-- Node27 -->
<g id="node27" class="node">
<title>Node27</title>
<g id="a_node27"><a xlink:href="consensus_8cpp.html" target="_top" xlink:title=" ">
<polygon fill="white" stroke="black" points="1596.5,-185 1596.5,-204 1712.5,-204 1712.5,-185 1596.5,-185"/>
<text text-anchor="middle" x="1654.5" y="-192" font-family="Helvetica,sans-Serif" font-size="10.00">src/js/consensus.cpp</text>
</a>
</g>
</g>
<!-- Node26&#45;&gt;Node27 -->
<g id="edge38" class="edge">
<title>Node26&#45;&gt;Node27</title>
<path fill="none" stroke="midnightblue" d="M1749.5,-246.96C1725.71,-234.07 1690.63,-215.07 1670.43,-204.13"/>
<polygon fill="midnightblue" stroke="midnightblue" points="1747.86,-250.05 1758.32,-251.73 1751.19,-243.89 1747.86,-250.05"/>
</g>
<!-- Node28 -->
<g id="node28" class="node">
<title>Node28</title>
<g id="a_node28"><a xlink:href="conv_8cpp.html" target="_top" xlink:title=" ">
<polygon fill="white" stroke="black" points="1730.5,-185 1730.5,-204 1818.5,-204 1818.5,-185 1730.5,-185"/>
<text text-anchor="middle" x="1774.5" y="-192" font-family="Helvetica,sans-Serif" font-size="10.00">src/js/conv.cpp</text>
</a>
</g>
</g>
<!-- Node26&#45;&gt;Node28 -->
<g id="edge40" class="edge">
<title>Node26&#45;&gt;Node28</title>
<path fill="none" stroke="midnightblue" d="M1774.5,-241.54C1774.5,-229.17 1774.5,-213.62 1774.5,-204.13"/>
<polygon fill="midnightblue" stroke="midnightblue" points="1771,-241.73 1774.5,-251.73 1778,-241.73 1771,-241.73"/>
</g>
<!-- Node29 -->
<g id="node29" class="node">
<title>Node29</title>
<g id="a_node29"><a xlink:href="crypto_8cpp.html" target="_top" xlink:title=" ">
<polygon fill="white" stroke="black" points="1836.5,-185 1836.5,-204 1932.5,-204 1932.5,-185 1836.5,-185"/>
<text text-anchor="middle" x="1884.5" y="-192" font-family="Helvetica,sans-Serif" font-size="10.00">src/js/crypto.cpp</text>
</a>
</g>
</g>
<!-- Node26&#45;&gt;Node29 -->
<g id="edge42" class="edge">
<title>Node26&#45;&gt;Node29</title>
<path fill="none" stroke="midnightblue" d="M1798,-246.62C1819.79,-233.74 1851.54,-214.98 1869.9,-204.13"/>
<polygon fill="midnightblue" stroke="midnightblue" points="1796.16,-243.63 1789.34,-251.73 1799.72,-249.66 1796.16,-243.63"/>
</g>
<!-- Node30 -->
<g id="node30" class="node">
<title>Node30</title>
<g id="a_node30"><a xlink:href="historical_8cpp.html" target="_top" xlink:title=" ">
<polygon fill="white" stroke="black" points="1950.5,-185 1950.5,-204 2060.5,-204 2060.5,-185 1950.5,-185"/>
<text text-anchor="middle" x="2005.5" y="-192" font-family="Helvetica,sans-Serif" font-size="10.00">src/js/historical.cpp</text>
</a>
</g>
</g>
<!-- Node26&#45;&gt;Node30 -->
<g id="edge44" class="edge">
<title>Node26&#45;&gt;Node30</title>
<path fill="none" stroke="midnightblue" d="M1815.05,-249.09C1860.74,-236.23 1934,-215.62 1975.07,-204.06"/>
<polygon fill="midnightblue" stroke="midnightblue" points="1813.85,-245.79 1805.18,-251.87 1815.75,-252.53 1813.85,-245.79"/>
</g>
<!-- Node31 -->
<g id="node31" class="node">
<title>Node31</title>
<g id="a_node31"><a xlink:href="openenclave_8cpp.html" target="_top" xlink:title=" ">
<polygon fill="white" stroke="black" points="2078.5,-185 2078.5,-204 2206.5,-204 2206.5,-185 2078.5,-185"/>
<text text-anchor="middle" x="2142.5" y="-192" font-family="Helvetica,sans-Serif" font-size="10.00">src/js/openenclave.cpp</text>
</a>
</g>
</g>
<!-- Node26&#45;&gt;Node31 -->
<g id="edge46" class="edge">
<title>Node26&#45;&gt;Node31</title>
<path fill="none" stroke="midnightblue" d="M1823.78,-252.47C1882.41,-242.83 1983.22,-225.95 2069.5,-210 2079.54,-208.14 2090.33,-206.05 2100.46,-204.05"/>
<polygon fill="midnightblue" stroke="midnightblue" points="1822.99,-249.06 1813.69,-254.13 1824.12,-255.96 1822.99,-249.06"/>
</g>
<!-- Node27&#45;&gt;Node15 -->
<g id="edge39" class="edge">
<title>Node27&#45;&gt;Node15</title>
<path fill="none" stroke="midnightblue" d="M1687.43,-181.27C1722.16,-168.37 1775.99,-148.38 1806.44,-137.06"/>
<polygon fill="midnightblue" stroke="midnightblue" points="1685.89,-178.11 1677.74,-184.87 1688.33,-184.67 1685.89,-178.11"/>
</g>
<!-- Node28&#45;&gt;Node15 -->
<g id="edge41" class="edge">
<title>Node28&#45;&gt;Node15</title>
<path fill="none" stroke="midnightblue" d="M1788.66,-176.77C1799.38,-164.1 1813.68,-147.2 1822.2,-137.13"/>
<polygon fill="midnightblue" stroke="midnightblue" points="1785.71,-174.84 1781.92,-184.73 1791.05,-179.36 1785.71,-174.84"/>
</g>
<!-- Node29&#45;&gt;Node15 -->
<g id="edge43" class="edge">
<title>Node29&#45;&gt;Node15</title>
<path fill="none" stroke="midnightblue" d="M1870.34,-176.77C1859.62,-164.1 1845.32,-147.2 1836.8,-137.13"/>
<polygon fill="midnightblue" stroke="midnightblue" points="1867.95,-179.36 1877.08,-184.73 1873.29,-174.84 1867.95,-179.36"/>
</g>
<!-- Node30&#45;&gt;Node15 -->
<g id="edge45" class="edge">
<title>Node30&#45;&gt;Node15</title>
<path fill="none" stroke="midnightblue" d="M1972.39,-181.27C1937.46,-168.37 1883.32,-148.38 1852.69,-137.06"/>
<polygon fill="midnightblue" stroke="midnightblue" points="1971.54,-184.69 1982.13,-184.87 1973.96,-178.12 1971.54,-184.69"/>
</g>
</g>
</svg>
        <g id="navigator" transform="translate(0 0)" fill="#404254">
                <rect fill="#f2f5e9" fill-opacity="0.5" stroke="#606060" stroke-width=".5" x="0" y="0" width="60" height="60"/>
                <use id="zoomplus" xlink:href="#zoomPlus" x="17" y="9" onmousedown="handleZoom(evt,'in')"/>
                <use id="zoomminus" xlink:href="#zoomMin" x="42" y="9" onmousedown="handleZoom(evt,'out')"/>
                <use id="reset" xlink:href="#resetDef" x="30" y="36" onmousedown="handleReset()"/>
                <g id="arrowUp" xlink:href="#dirArrow" transform="translate(30 24)" onmousedown="handlePan(0,-1)">
                  <use xlink:href="#rim" fill="#404040">
                        <set attributeName="fill" to="#808080" begin="arrowUp.mouseover" end="arrowUp.mouseout"/>
                  </use>
                  <path fill="none" stroke="white" stroke-width="1.5" d="M0,-3.0v7 M-2.5,-0.5L0,-3.0L2.5,-0.5"/>
                </g>
                <g id="arrowRight" xlink:href="#dirArrow" transform="rotate(90) translate(36 -43)" onmousedown="handlePan(1,0)">
                  <use xlink:href="#rim" fill="#404040">
                        <set attributeName="fill" to="#808080" begin="arrowRight.mouseover" end="arrowRight.mouseout"/>
                  </use>
                  <path fill="none" stroke="white" stroke-width="1.5" d="M0,-3.0v7 M-2.5,-0.5L0,-3.0L2.5,-0.5"/>
                </g>
                <g id="arrowDown" xlink:href="#dirArrow" transform="rotate(180) translate(-30 -48)" onmousedown="handlePan(0,1)">
                  <use xlink:href="#rim" fill="#404040">
                        <set attributeName="fill" to="#808080" begin="arrowDown.mouseover" end="arrowDown.mouseout"/>
                  </use>
                  <path fill="none" stroke="white" stroke-width="1.5" d="M0,-3.0v7 M-2.5,-0.5L0,-3.0L2.5,-0.5"/>
                </g>
                <g id="arrowLeft" xlink:href="#dirArrow" transform="rotate(270) translate(-36 17)" onmousedown="handlePan(-1,0)">
                  <use xlink:href="#rim" fill="#404040">
                        <set attributeName="fill" to="#808080" begin="arrowLeft.mouseover" end="arrowLeft.mouseout"/>
                  </use>
                  <path fill="none" stroke="white" stroke-width="1.5" d="M0,-3.0v7 M-2.5,-0.5L0,-3.0L2.5,-0.5"/>
                </g>
        </g>
        <svg viewBox="0 0 15 15" width="100%" height="30px" preserveAspectRatio="xMaxYMin meet">
         <g id="arrow_out" transform="scale(0.3 0.3)">
          <a xlink:href="base__endpoint__registry_8h__dep__incl_org.svg" target="_base">
           <rect id="button" ry="5" rx="5" y="6" x="6" height="38" width="38"
                fill="#f2f5e9" fill-opacity="0.5" stroke="#606060" stroke-width="1.0"/>
           <path id="arrow"
             d="M 11.500037,31.436501 C 11.940474,20.09759 22.043105,11.32322 32.158766,21.979434 L 37.068811,17.246167 C 37.068811,17.246167 37.088388,32 37.088388,32 L 22.160133,31.978069 C 22.160133,31.978069 26.997745,27.140456 26.997745,27.140456 C 18.528582,18.264221 13.291696,25.230495 11.500037,31.436501 z"
             style="fill:#404040;"/>
          </a>
         </g>
        </svg>
</svg>
