<?xml version="1.0" encoding="UTF-8" standalone="no"?>
<!DOCTYPE svg PUBLIC "-//W3C//DTD SVG 1.1//EN"
 "http://www.w3.org/Graphics/SVG/1.1/DTD/svg11.dtd">
<!-- Generated by graphviz version 2.43.0 (0)
 -->
<!-- Title: src/ds/champ_map.h Pages: 1 -->
<!--zoomable 308 -->
<svg id="main" version="1.1" xmlns="http://www.w3.org/2000/svg" xmlns:xlink="http://www.w3.org/1999/xlink" xml:space="preserve" onload="init(evt)">
<style type="text/css"><![CDATA[
.edge:hover path { stroke: red; }
.edge:hover polygon { stroke: red; fill: red; }
]]></style>
<script type="text/javascript"><![CDATA[
var edges = document.getElementsByTagName('g');
if (edges && edges.length) {
  for (var i=0;i<edges.length;i++) {
    if (edges[i].id.substr(0,4)=='edge') {
      edges[i].setAttribute('class','edge');
    }
  }
}
]]></script>
        <defs>
                <circle id="rim" cx="0" cy="0" r="7"/>
                <circle id="rim2" cx="0" cy="0" r="3.5"/>
                <g id="zoomPlus">
                        <use xlink:href="#rim" fill="#404040">
                                <set attributeName="fill" to="#808080" begin="zoomplus.mouseover" end="zoomplus.mouseout"/>
                        </use>
                        <path d="M-4,0h8M0,-4v8" fill="none" stroke="white" stroke-width="1.5" pointer-events="none"/>
                </g>
                <g id="zoomMin">
                        <use xlink:href="#rim" fill="#404040">
                                <set attributeName="fill" to="#808080" begin="zoomminus.mouseover" end="zoomminus.mouseout"/>
                        </use>
                        <path d="M-4,0h8" fill="none" stroke="white" stroke-width="1.5" pointer-events="none"/>
                </g>
                <g id="dirArrow">
                        <path fill="none" stroke="white" stroke-width="1.5" d="M0,-3.0v7 M-2.5,-0.5L0,-3.0L2.5,-0.5"/>
                </g>
               <g id="resetDef">
                       <use xlink:href="#rim2" fill="#404040">
                               <set attributeName="fill" to="#808080" begin="reset.mouseover" end="reset.mouseout"/>
                       </use>
               </g>
        </defs>

<script type="text/javascript">
var viewWidth = 1118;
var viewHeight = 308;
var sectionId = 'dynsection-0';
</script>
<script xlink:href="svgpan.js"/>
<svg id="graph" class="graph">
<g id="viewport">
<title>src/ds/champ_map.h</title>
<polygon fill="white" stroke="transparent" points="-4,4 -4,-304 1114,-304 1114,4 -4,4"/>
<!-- Node1 -->
<g id="node1" class="node">
<title>Node1</title>
<g id="a_node1"><a xlink:title=" ">
<polygon fill="#bfbfbf" stroke="black" points="648.5,-280.5 648.5,-299.5 765.5,-299.5 765.5,-280.5 648.5,-280.5"/>
<text text-anchor="middle" x="707" y="-287.5" font-family="Helvetica,sans-Serif" font-size="10.00">src/ds/champ_map.h</text>
</a>
</g>
</g>
<!-- Node2 -->
<g id="node2" class="node">
<title>Node2</title>
<g id="a_node2"><a xlink:href="ccf__assert_8h.html" target="_top" xlink:title=" ">
<polygon fill="white" stroke="black" points="308,-168.5 308,-187.5 400,-187.5 400,-168.5 308,-168.5"/>
<text text-anchor="middle" x="354" y="-175.5" font-family="Helvetica,sans-Serif" font-size="10.00">ccf/ccf_assert.h</text>
</a>
</g>
</g>
<!-- Node1&#45;&gt;Node2 -->
<g id="edge1" class="edge">
<title>Node1&#45;&gt;Node2</title>
<path fill="none" stroke="midnightblue" d="M648.47,-284.51C575.19,-278.12 454.48,-264.81 415,-244 393.91,-232.89 376.12,-211.61 365.29,-196.43"/>
<polygon fill="midnightblue" stroke="midnightblue" points="368,-194.2 359.48,-187.91 362.22,-198.15 368,-194.2"/>
</g>
<!-- Node15 -->
<g id="node15" class="node">
<title>Node15</title>
<g id="a_node15"><a xlink:title=" ">
<polygon fill="white" stroke="#bfbfbf" points="0,-56.5 0,-75.5 56,-75.5 56,-56.5 0,-56.5"/>
<text text-anchor="middle" x="28" y="-63.5" font-family="Helvetica,sans-Serif" font-size="10.00">optional</text>
</a>
</g>
</g>
<!-- Node1&#45;&gt;Node15 -->
<g id="edge41" class="edge">
<title>Node1&#45;&gt;Node15</title>
<path fill="none" stroke="midnightblue" d="M648.38,-286.4C583.08,-282.22 475,-271.45 386,-244 251.03,-202.36 104.17,-114.91 49.81,-80.92"/>
<polygon fill="midnightblue" stroke="midnightblue" points="51.65,-77.95 41.32,-75.58 47.92,-83.87 51.65,-77.95"/>
</g>
<!-- Node18 -->
<g id="node18" class="node">
<title>Node18</title>
<g id="a_node18"><a xlink:href="include_2ccf_2ds_2hash_8h.html" target="_top" xlink:title=" ">
<polygon fill="white" stroke="black" points="783,-224.5 783,-243.5 863,-243.5 863,-224.5 783,-224.5"/>
<text text-anchor="middle" x="823" y="-231.5" font-family="Helvetica,sans-Serif" font-size="10.00">ccf/ds/hash.h</text>
</a>
</g>
</g>
<!-- Node1&#45;&gt;Node18 -->
<g id="edge19" class="edge">
<title>Node1&#45;&gt;Node18</title>
<path fill="none" stroke="midnightblue" d="M725.38,-280.44C744.22,-271.68 773.73,-257.94 795.38,-247.86"/>
<polygon fill="midnightblue" stroke="midnightblue" points="797.12,-250.91 804.71,-243.52 794.16,-244.56 797.12,-250.91"/>
</g>
<!-- Node22 -->
<g id="node22" class="node">
<title>Node22</title>
<g id="a_node22"><a xlink:title=" ">
<polygon fill="white" stroke="#bfbfbf" points="752.5,-112.5 752.5,-131.5 799.5,-131.5 799.5,-112.5 752.5,-112.5"/>
<text text-anchor="middle" x="776" y="-119.5" font-family="Helvetica,sans-Serif" font-size="10.00">vector</text>
</a>
</g>
</g>
<!-- Node1&#45;&gt;Node22 -->
<g id="edge42" class="edge">
<title>Node1&#45;&gt;Node22</title>
<path fill="none" stroke="midnightblue" d="M690.67,-280.45C655.28,-260.81 577.2,-210.87 610,-168 626,-147.09 698.74,-133.63 742.45,-127.28"/>
<polygon fill="midnightblue" stroke="midnightblue" points="742.94,-130.75 752.35,-125.89 741.96,-123.82 742.94,-130.75"/>
</g>
<!-- Node23 -->
<g id="node23" class="node">
<title>Node23</title>
<g id="a_node23"><a xlink:title=" ">
<polygon fill="white" stroke="#bfbfbf" points="1068,-168.5 1068,-187.5 1110,-187.5 1110,-168.5 1068,-168.5"/>
<text text-anchor="middle" x="1089" y="-175.5" font-family="Helvetica,sans-Serif" font-size="10.00">array</text>
</a>
</g>
</g>
<!-- Node1&#45;&gt;Node23 -->
<g id="edge39" class="edge">
<title>Node1&#45;&gt;Node23</title>
<path fill="none" stroke="midnightblue" d="M747.81,-280.49C781.7,-272.8 830.84,-260.22 872,-244 889.76,-237 892.17,-230.82 910,-224 960.26,-204.77 1021.6,-191.41 1057.86,-184.49"/>
<polygon fill="midnightblue" stroke="midnightblue" points="1058.64,-187.9 1067.83,-182.63 1057.36,-181.02 1058.64,-187.9"/>
</g>
<!-- Node26 -->
<g id="node26" class="node">
<title>Node26</title>
<g id="a_node26"><a xlink:href="map__serializers_8h.html" target="_top" xlink:title=" ">
<polygon fill="white" stroke="black" points="424.5,-224.5 424.5,-243.5 541.5,-243.5 541.5,-224.5 424.5,-224.5"/>
<text text-anchor="middle" x="483" y="-231.5" font-family="Helvetica,sans-Serif" font-size="10.00">ds/map_serializers.h</text>
</a>
</g>
</g>
<!-- Node1&#45;&gt;Node26 -->
<g id="edge29" class="edge">
<title>Node1&#45;&gt;Node26</title>
<path fill="none" stroke="midnightblue" d="M671.51,-280.44C632.68,-271.08 570.34,-256.06 528.08,-245.87"/>
<polygon fill="midnightblue" stroke="midnightblue" points="528.87,-242.46 518.33,-243.52 527.23,-249.26 528.87,-242.46"/>
</g>
<!-- Node32 -->
<g id="node32" class="node">
<title>Node32</title>
<g id="a_node32"><a xlink:title=" ">
<polygon fill="white" stroke="#bfbfbf" points="919,-224.5 919,-243.5 983,-243.5 983,-224.5 919,-224.5"/>
<text text-anchor="middle" x="951" y="-231.5" font-family="Helvetica,sans-Serif" font-size="10.00">algorithm</text>
</a>
</g>
</g>
<!-- Node1&#45;&gt;Node32 -->
<g id="edge38" class="edge">
<title>Node1&#45;&gt;Node32</title>
<path fill="none" stroke="midnightblue" d="M745.66,-280.44C790.14,-270.6 862.92,-254.49 908.82,-244.33"/>
<polygon fill="midnightblue" stroke="midnightblue" points="909.74,-247.72 918.75,-242.14 908.23,-240.88 909.74,-247.72"/>
</g>
<!-- Node33 -->
<g id="node33" class="node">
<title>Node33</title>
<g id="a_node33"><a xlink:title=" ">
<polygon fill="white" stroke="#bfbfbf" points="1001,-224.5 1001,-243.5 1059,-243.5 1059,-224.5 1001,-224.5"/>
<text text-anchor="middle" x="1030" y="-231.5" font-family="Helvetica,sans-Serif" font-size="10.00">memory</text>
</a>
</g>
</g>
<!-- Node1&#45;&gt;Node33 -->
<g id="edge40" class="edge">
<title>Node1&#45;&gt;Node33</title>
<path fill="none" stroke="midnightblue" d="M765.63,-281.07C821.21,-273.25 907.24,-260.38 990.69,-244.14"/>
<polygon fill="midnightblue" stroke="midnightblue" points="991.45,-247.56 1000.59,-242.2 990.1,-240.69 991.45,-247.56"/>
</g>
<!-- Node3 -->
<g id="node3" class="node">
<title>Node3</title>
<g id="a_node3"><a xlink:href="logger_8h.html" target="_top" xlink:title=" ">
<polygon fill="white" stroke="black" points="310.5,-112.5 310.5,-131.5 397.5,-131.5 397.5,-112.5 310.5,-112.5"/>
<text text-anchor="middle" x="354" y="-119.5" font-family="Helvetica,sans-Serif" font-size="10.00">ccf/ds/logger.h</text>
</a>
</g>
</g>
<!-- Node2&#45;&gt;Node3 -->
<g id="edge2" class="edge">
<title>Node2&#45;&gt;Node3</title>
<path fill="none" stroke="midnightblue" d="M354,-168.08C354,-161.01 354,-150.86 354,-141.99"/>
<polygon fill="midnightblue" stroke="midnightblue" points="357.5,-141.75 354,-131.75 350.5,-141.75 357.5,-141.75"/>
</g>
<!-- Node4 -->
<g id="node4" class="node">
<title>Node4</title>
<g id="a_node4"><a xlink:href="enum__formatter_8h.html" target="_top" xlink:title=" ">
<polygon fill="white" stroke="black" points="539,-56.5 539,-75.5 675,-75.5 675,-56.5 539,-56.5"/>
<text text-anchor="middle" x="607" y="-63.5" font-family="Helvetica,sans-Serif" font-size="10.00">ccf/ds/enum_formatter.h</text>
</a>
</g>
</g>
<!-- Node3&#45;&gt;Node4 -->
<g id="edge3" class="edge">
<title>Node3&#45;&gt;Node4</title>
<path fill="none" stroke="midnightblue" d="M394.09,-112.44C438.32,-103 509.54,-87.8 557.28,-77.61"/>
<polygon fill="midnightblue" stroke="midnightblue" points="558.05,-81.03 567.1,-75.52 556.59,-74.18 558.05,-81.03"/>
</g>
<!-- Node5 -->
<g id="node5" class="node">
<title>Node5</title>
<g id="a_node5"><a xlink:title=" ">
<polygon fill="white" stroke="#bfbfbf" points="567.5,-0.5 567.5,-19.5 646.5,-19.5 646.5,-0.5 567.5,-0.5"/>
<text text-anchor="middle" x="607" y="-7.5" font-family="Helvetica,sans-Serif" font-size="10.00">fmt/format.h</text>
</a>
</g>
</g>
<!-- Node3&#45;&gt;Node5 -->
<g id="edge13" class="edge">
<title>Node3&#45;&gt;Node5</title>
<path fill="none" stroke="midnightblue" d="M397.65,-113.45C400.81,-112.94 403.95,-112.46 407,-112 468.39,-102.8 643.03,-122.64 684,-76 702.1,-55.39 669.15,-35.65 640.89,-23.44"/>
<polygon fill="midnightblue" stroke="midnightblue" points="642.15,-20.17 631.57,-19.6 639.48,-26.64 642.15,-20.17"/>
</g>
<!-- Node6 -->
<g id="node6" class="node">
<title>Node6</title>
<g id="a_node6"><a xlink:href="thread__ids_8h.html" target="_top" xlink:title=" ">
<polygon fill="white" stroke="black" points="746,-56.5 746,-75.5 854,-75.5 854,-56.5 746,-56.5"/>
<text text-anchor="middle" x="800" y="-63.5" font-family="Helvetica,sans-Serif" font-size="10.00">ccf/ds/thread_ids.h</text>
</a>
</g>
</g>
<!-- Node3&#45;&gt;Node6 -->
<g id="edge5" class="edge">
<title>Node3&#45;&gt;Node6</title>
<path fill="none" stroke="midnightblue" d="M397.64,-113.4C400.81,-112.9 403.95,-112.43 407,-112 438.71,-107.5 632.87,-85.66 735.9,-74.15"/>
<polygon fill="midnightblue" stroke="midnightblue" points="736.33,-77.62 745.88,-73.03 735.56,-70.66 736.33,-77.62"/>
</g>
<!-- Node12 -->
<g id="node12" class="node">
<title>Node12</title>
<g id="a_node12"><a xlink:title=" ">
<polygon fill="white" stroke="#bfbfbf" points="74.5,-56.5 74.5,-75.5 153.5,-75.5 153.5,-56.5 74.5,-56.5"/>
<text text-anchor="middle" x="114" y="-63.5" font-family="Helvetica,sans-Serif" font-size="10.00">fmt/chrono.h</text>
</a>
</g>
</g>
<!-- Node3&#45;&gt;Node12 -->
<g id="edge12" class="edge">
<title>Node3&#45;&gt;Node12</title>
<path fill="none" stroke="midnightblue" d="M315.97,-112.44C274.19,-103.04 207.02,-87.93 161.73,-77.74"/>
<polygon fill="midnightblue" stroke="midnightblue" points="162.38,-74.3 151.85,-75.52 160.84,-81.13 162.38,-74.3"/>
</g>
<!-- Node13 -->
<g id="node13" class="node">
<title>Node13</title>
<g id="a_node13"><a xlink:title=" ">
<polygon fill="white" stroke="#bfbfbf" points="171,-56.5 171,-75.5 231,-75.5 231,-56.5 171,-56.5"/>
<text text-anchor="middle" x="201" y="-63.5" font-family="Helvetica,sans-Serif" font-size="10.00">iostream</text>
</a>
</g>
</g>
<!-- Node3&#45;&gt;Node13 -->
<g id="edge14" class="edge">
<title>Node3&#45;&gt;Node13</title>
<path fill="none" stroke="midnightblue" d="M329.76,-112.44C304.13,-103.4 263.51,-89.06 234.76,-78.92"/>
<polygon fill="midnightblue" stroke="midnightblue" points="235.72,-75.54 225.13,-75.52 233.39,-82.15 235.72,-75.54"/>
</g>
<!-- Node14 -->
<g id="node14" class="node">
<title>Node14</title>
<g id="a_node14"><a xlink:title=" ">
<polygon fill="white" stroke="#bfbfbf" points="249,-56.5 249,-75.5 359,-75.5 359,-56.5 249,-56.5"/>
<text text-anchor="middle" x="304" y="-63.5" font-family="Helvetica,sans-Serif" font-size="10.00">nlohmann/json.hpp</text>
</a>
</g>
</g>
<!-- Node3&#45;&gt;Node14 -->
<g id="edge15" class="edge">
<title>Node3&#45;&gt;Node14</title>
<path fill="none" stroke="midnightblue" d="M345.74,-112.08C338.54,-104.3 327.89,-92.8 319.15,-83.37"/>
<polygon fill="midnightblue" stroke="midnightblue" points="321.47,-80.71 312.1,-75.75 316.33,-85.47 321.47,-80.71"/>
</g>
<!-- Node3&#45;&gt;Node15 -->
<g id="edge16" class="edge">
<title>Node3&#45;&gt;Node15</title>
<path fill="none" stroke="midnightblue" d="M310.22,-115.35C255.43,-108.02 158.52,-94.22 66.29,-76.12"/>
<polygon fill="midnightblue" stroke="midnightblue" points="66.72,-72.64 56.23,-74.13 65.36,-79.5 66.72,-72.64"/>
</g>
<!-- Node16 -->
<g id="node16" class="node">
<title>Node16</title>
<g id="a_node16"><a xlink:title=" ">
<polygon fill="white" stroke="#bfbfbf" points="377,-56.5 377,-75.5 433,-75.5 433,-56.5 377,-56.5"/>
<text text-anchor="middle" x="405" y="-63.5" font-family="Helvetica,sans-Serif" font-size="10.00">sstream</text>
</a>
</g>
</g>
<!-- Node3&#45;&gt;Node16 -->
<g id="edge17" class="edge">
<title>Node3&#45;&gt;Node16</title>
<path fill="none" stroke="midnightblue" d="M362.42,-112.08C369.85,-104.22 380.85,-92.57 389.81,-83.08"/>
<polygon fill="midnightblue" stroke="midnightblue" points="392.41,-85.42 396.74,-75.75 387.32,-80.62 392.41,-85.42"/>
</g>
<!-- Node17 -->
<g id="node17" class="node">
<title>Node17</title>
<g id="a_node17"><a xlink:title=" ">
<polygon fill="white" stroke="#bfbfbf" points="451.5,-56.5 451.5,-75.5 520.5,-75.5 520.5,-56.5 451.5,-56.5"/>
<text text-anchor="middle" x="486" y="-63.5" font-family="Helvetica,sans-Serif" font-size="10.00">type_traits</text>
</a>
</g>
</g>
<!-- Node3&#45;&gt;Node17 -->
<g id="edge18" class="edge">
<title>Node3&#45;&gt;Node17</title>
<path fill="none" stroke="midnightblue" d="M374.92,-112.44C396.74,-103.52 431.15,-89.44 455.89,-79.32"/>
<polygon fill="midnightblue" stroke="midnightblue" points="457.25,-82.54 465.18,-75.52 454.6,-76.06 457.25,-82.54"/>
</g>
<!-- Node4&#45;&gt;Node5 -->
<g id="edge4" class="edge">
<title>Node4&#45;&gt;Node5</title>
<path fill="none" stroke="midnightblue" d="M607,-56.08C607,-49.01 607,-38.86 607,-29.99"/>
<polygon fill="midnightblue" stroke="midnightblue" points="610.5,-29.75 607,-19.75 603.5,-29.75 610.5,-29.75"/>
</g>
<!-- Node6&#45;&gt;Node5 -->
<g id="edge6" class="edge">
<title>Node6&#45;&gt;Node5</title>
<path fill="none" stroke="midnightblue" d="M769.42,-56.44C736.39,-47.2 683.61,-32.44 647.23,-22.26"/>
<polygon fill="midnightblue" stroke="midnightblue" points="648.01,-18.84 637.44,-19.52 646.13,-25.58 648.01,-18.84"/>
</g>
<!-- Node7 -->
<g id="node7" class="node">
<title>Node7</title>
<g id="a_node7"><a xlink:title=" ">
<polygon fill="white" stroke="#bfbfbf" points="665,-0.5 665,-19.5 751,-19.5 751,-0.5 665,-0.5"/>
<text text-anchor="middle" x="708" y="-7.5" font-family="Helvetica,sans-Serif" font-size="10.00">fmt/ostream.h</text>
</a>
</g>
</g>
<!-- Node6&#45;&gt;Node7 -->
<g id="edge7" class="edge">
<title>Node6&#45;&gt;Node7</title>
<path fill="none" stroke="midnightblue" d="M785.22,-56.32C770.73,-47.82 748.43,-34.73 731.51,-24.8"/>
<polygon fill="midnightblue" stroke="midnightblue" points="733.14,-21.7 722.74,-19.65 729.6,-27.74 733.14,-21.7"/>
</g>
<!-- Node8 -->
<g id="node8" class="node">
<title>Node8</title>
<g id="a_node8"><a xlink:title=" ">
<polygon fill="white" stroke="#bfbfbf" points="769.5,-0.5 769.5,-19.5 830.5,-19.5 830.5,-0.5 769.5,-0.5"/>
<text text-anchor="middle" x="800" y="-7.5" font-family="Helvetica,sans-Serif" font-size="10.00">fmt/std.h</text>
</a>
</g>
</g>
<!-- Node6&#45;&gt;Node8 -->
<g id="edge8" class="edge">
<title>Node6&#45;&gt;Node8</title>
<path fill="none" stroke="midnightblue" d="M800,-56.08C800,-49.01 800,-38.86 800,-29.99"/>
<polygon fill="midnightblue" stroke="midnightblue" points="803.5,-29.75 800,-19.75 796.5,-29.75 803.5,-29.75"/>
</g>
<!-- Node9 -->
<g id="node9" class="node">
<title>Node9</title>
<g id="a_node9"><a xlink:title=" ">
<polygon fill="white" stroke="#bfbfbf" points="849,-0.5 849,-19.5 893,-19.5 893,-0.5 849,-0.5"/>
<text text-anchor="middle" x="871" y="-7.5" font-family="Helvetica,sans-Serif" font-size="10.00">limits</text>
</a>
</g>
</g>
<!-- Node6&#45;&gt;Node9 -->
<g id="edge9" class="edge">
<title>Node6&#45;&gt;Node9</title>
<path fill="none" stroke="midnightblue" d="M811.41,-56.32C822.11,-48.18 838.34,-35.84 851.16,-26.09"/>
<polygon fill="midnightblue" stroke="midnightblue" points="853.54,-28.67 859.39,-19.83 849.31,-23.1 853.54,-28.67"/>
</g>
<!-- Node10 -->
<g id="node10" class="node">
<title>Node10</title>
<g id="a_node10"><a xlink:title=" ">
<polygon fill="white" stroke="#bfbfbf" points="911,-0.5 911,-19.5 949,-19.5 949,-0.5 911,-0.5"/>
<text text-anchor="middle" x="930" y="-7.5" font-family="Helvetica,sans-Serif" font-size="10.00">map</text>
</a>
</g>
</g>
<!-- Node6&#45;&gt;Node10 -->
<g id="edge10" class="edge">
<title>Node6&#45;&gt;Node10</title>
<path fill="none" stroke="midnightblue" d="M820.6,-56.44C842.37,-47.4 876.87,-33.07 901.3,-22.92"/>
<polygon fill="midnightblue" stroke="midnightblue" points="902.88,-26.06 910.77,-18.99 900.19,-19.59 902.88,-26.06"/>
</g>
<!-- Node11 -->
<g id="node11" class="node">
<title>Node11</title>
<g id="a_node11"><a xlink:title=" ">
<polygon fill="white" stroke="#bfbfbf" points="967,-0.5 967,-19.5 1015,-19.5 1015,-0.5 967,-0.5"/>
<text text-anchor="middle" x="991" y="-7.5" font-family="Helvetica,sans-Serif" font-size="10.00">thread</text>
</a>
</g>
</g>
<!-- Node6&#45;&gt;Node11 -->
<g id="edge11" class="edge">
<title>Node6&#45;&gt;Node11</title>
<path fill="none" stroke="midnightblue" d="M830.26,-56.44C864.73,-46.7 920.91,-30.82 956.9,-20.64"/>
<polygon fill="midnightblue" stroke="midnightblue" points="958.25,-23.9 966.92,-17.81 956.35,-17.16 958.25,-23.9"/>
</g>
<!-- Node19 -->
<g id="node19" class="node">
<title>Node19</title>
<g id="a_node19"><a xlink:href="siphash_8h.html" target="_top" xlink:title=" ">
<polygon fill="white" stroke="black" points="916.5,-168.5 916.5,-187.5 1011.5,-187.5 1011.5,-168.5 916.5,-168.5"/>
<text text-anchor="middle" x="964" y="-175.5" font-family="Helvetica,sans-Serif" font-size="10.00">ccf/ds/siphash.h</text>
</a>
</g>
</g>
<!-- Node18&#45;&gt;Node19 -->
<g id="edge20" class="edge">
<title>Node18&#45;&gt;Node19</title>
<path fill="none" stroke="midnightblue" d="M845.34,-224.44C868.75,-215.48 905.74,-201.31 932.19,-191.18"/>
<polygon fill="midnightblue" stroke="midnightblue" points="933.68,-194.36 941.76,-187.52 931.17,-187.82 933.68,-194.36"/>
</g>
<!-- Node21 -->
<g id="node21" class="node">
<title>Node21</title>
<g id="a_node21"><a xlink:title=" ">
<polygon fill="white" stroke="#bfbfbf" points="904,-112.5 904,-131.5 954,-131.5 954,-112.5 904,-112.5"/>
<text text-anchor="middle" x="929" y="-119.5" font-family="Helvetica,sans-Serif" font-size="10.00">cstdint</text>
</a>
</g>
</g>
<!-- Node18&#45;&gt;Node21 -->
<g id="edge25" class="edge">
<title>Node18&#45;&gt;Node21</title>
<path fill="none" stroke="midnightblue" d="M863.21,-225.19C919.64,-214.04 1016.04,-194.22 1021,-188 1041.04,-162.89 997.47,-143.24 963.68,-132.38"/>
<polygon fill="midnightblue" stroke="midnightblue" points="964.62,-129.01 954.03,-129.43 962.57,-135.7 964.62,-129.01"/>
</g>
<!-- Node18&#45;&gt;Node22 -->
<g id="edge28" class="edge">
<title>Node18&#45;&gt;Node22</title>
<path fill="none" stroke="midnightblue" d="M836.59,-224.35C854.13,-212.05 880.93,-188.73 868,-168 855.22,-147.52 830.11,-136.1 809.35,-129.9"/>
<polygon fill="midnightblue" stroke="midnightblue" points="810.15,-126.49 799.59,-127.26 808.32,-133.25 810.15,-126.49"/>
</g>
<!-- Node18&#45;&gt;Node23 -->
<g id="edge24" class="edge">
<title>Node18&#45;&gt;Node23</title>
<path fill="none" stroke="midnightblue" d="M863.21,-225.91C909.42,-217.6 987.44,-203.03 1054,-188 1055.27,-187.71 1056.57,-187.41 1057.88,-187.1"/>
<polygon fill="midnightblue" stroke="midnightblue" points="1059.07,-190.41 1067.95,-184.63 1057.4,-183.62 1059.07,-190.41"/>
</g>
<!-- Node24 -->
<g id="node24" class="node">
<title>Node24</title>
<g id="a_node24"><a xlink:title=" ">
<polygon fill="white" stroke="#bfbfbf" points="619.5,-168.5 619.5,-187.5 768.5,-187.5 768.5,-168.5 619.5,-168.5"/>
<text text-anchor="middle" x="694" y="-175.5" font-family="Helvetica,sans-Serif" font-size="10.00">small_vector/SmallVector.h</text>
</a>
</g>
</g>
<!-- Node18&#45;&gt;Node24 -->
<g id="edge26" class="edge">
<title>Node18&#45;&gt;Node24</title>
<path fill="none" stroke="midnightblue" d="M802.56,-224.44C781.33,-215.56 747.9,-201.56 723.75,-191.45"/>
<polygon fill="midnightblue" stroke="midnightblue" points="724.92,-188.15 714.34,-187.52 722.22,-194.61 724.92,-188.15"/>
</g>
<!-- Node25 -->
<g id="node25" class="node">
<title>Node25</title>
<g id="a_node25"><a xlink:title=" ">
<polygon fill="white" stroke="#bfbfbf" points="786.5,-168.5 786.5,-187.5 859.5,-187.5 859.5,-168.5 786.5,-168.5"/>
<text text-anchor="middle" x="823" y="-175.5" font-family="Helvetica,sans-Serif" font-size="10.00">string_view</text>
</a>
</g>
</g>
<!-- Node18&#45;&gt;Node25 -->
<g id="edge27" class="edge">
<title>Node18&#45;&gt;Node25</title>
<path fill="none" stroke="midnightblue" d="M823,-224.08C823,-217.01 823,-206.86 823,-197.99"/>
<polygon fill="midnightblue" stroke="midnightblue" points="826.5,-197.75 823,-187.75 819.5,-197.75 826.5,-197.75"/>
</g>
<!-- Node20 -->
<g id="node20" class="node">
<title>Node20</title>
<g id="a_node20"><a xlink:title=" ">
<polygon fill="white" stroke="#bfbfbf" points="972.5,-112.5 972.5,-131.5 1025.5,-131.5 1025.5,-112.5 972.5,-112.5"/>
<text text-anchor="middle" x="999" y="-119.5" font-family="Helvetica,sans-Serif" font-size="10.00">cstddef</text>
</a>
</g>
</g>
<!-- Node19&#45;&gt;Node20 -->
<g id="edge21" class="edge">
<title>Node19&#45;&gt;Node20</title>
<path fill="none" stroke="midnightblue" d="M969.78,-168.08C974.67,-160.53 981.83,-149.49 987.83,-140.23"/>
<polygon fill="midnightblue" stroke="midnightblue" points="990.83,-142.05 993.33,-131.75 984.95,-138.24 990.83,-142.05"/>
</g>
<!-- Node19&#45;&gt;Node21 -->
<g id="edge22" class="edge">
<title>Node19&#45;&gt;Node21</title>
<path fill="none" stroke="midnightblue" d="M958.22,-168.08C953.33,-160.53 946.17,-149.49 940.17,-140.23"/>
<polygon fill="midnightblue" stroke="midnightblue" points="943.05,-138.24 934.67,-131.75 937.17,-142.05 943.05,-138.24"/>
</g>
<!-- Node19&#45;&gt;Node22 -->
<g id="edge23" class="edge">
<title>Node19&#45;&gt;Node22</title>
<path fill="none" stroke="midnightblue" d="M934.21,-168.44C900.29,-158.7 844.99,-142.82 809.57,-132.64"/>
<polygon fill="midnightblue" stroke="midnightblue" points="810.27,-129.2 799.7,-129.81 808.34,-135.93 810.27,-129.2"/>
</g>
<!-- Node26&#45;&gt;Node2 -->
<g id="edge30" class="edge">
<title>Node26&#45;&gt;Node2</title>
<path fill="none" stroke="midnightblue" d="M462.56,-224.44C441.33,-215.56 407.9,-201.56 383.75,-191.45"/>
<polygon fill="midnightblue" stroke="midnightblue" points="384.92,-188.15 374.34,-187.52 382.22,-194.61 384.92,-188.15"/>
</g>
<!-- Node27 -->
<g id="node27" class="node">
<title>Node27</title>
<g id="a_node27"><a xlink:href="serialized_8h.html" target="_top" xlink:title=" ">
<polygon fill="white" stroke="black" points="418.5,-168.5 418.5,-187.5 505.5,-187.5 505.5,-168.5 418.5,-168.5"/>
<text text-anchor="middle" x="462" y="-175.5" font-family="Helvetica,sans-Serif" font-size="10.00">ds/serialized.h</text>
</a>
</g>
</g>
<!-- Node26&#45;&gt;Node27 -->
<g id="edge31" class="edge">
<title>Node26&#45;&gt;Node27</title>
<path fill="none" stroke="midnightblue" d="M479.53,-224.08C476.69,-216.77 472.57,-206.18 469.04,-197.1"/>
<polygon fill="midnightblue" stroke="midnightblue" points="472.29,-195.8 465.4,-187.75 465.77,-198.34 472.29,-195.8"/>
</g>
<!-- Node31 -->
<g id="node31" class="node">
<title>Node31</title>
<g id="a_node31"><a xlink:title=" ">
<polygon fill="white" stroke="#bfbfbf" points="524,-168.5 524,-187.5 564,-187.5 564,-168.5 524,-168.5"/>
<text text-anchor="middle" x="544" y="-175.5" font-family="Helvetica,sans-Serif" font-size="10.00">span</text>
</a>
</g>
</g>
<!-- Node26&#45;&gt;Node31 -->
<g id="edge37" class="edge">
<title>Node26&#45;&gt;Node31</title>
<path fill="none" stroke="midnightblue" d="M492.8,-224.32C501.82,-216.34 515.41,-204.31 526.32,-194.65"/>
<polygon fill="midnightblue" stroke="midnightblue" points="528.85,-197.08 534.02,-187.83 524.21,-191.84 528.85,-197.08"/>
</g>
<!-- Node27&#45;&gt;Node21 -->
<g id="edge32" class="edge">
<title>Node27&#45;&gt;Node21</title>
<path fill="none" stroke="midnightblue" d="M505.64,-169.38C508.8,-168.89 511.95,-168.42 515,-168 654.63,-148.57 821.74,-132.63 893.46,-126.14"/>
<polygon fill="midnightblue" stroke="midnightblue" points="894.09,-129.6 903.73,-125.21 893.46,-122.63 894.09,-129.6"/>
</g>
<!-- Node27&#45;&gt;Node22 -->
<g id="edge36" class="edge">
<title>Node27&#45;&gt;Node22</title>
<path fill="none" stroke="midnightblue" d="M505.66,-169.49C568.96,-158.61 684.88,-138.67 742.15,-128.82"/>
<polygon fill="midnightblue" stroke="midnightblue" points="742.87,-132.25 752.13,-127.1 741.68,-125.35 742.87,-132.25"/>
</g>
<!-- Node28 -->
<g id="node28" class="node">
<title>Node28</title>
<g id="a_node28"><a xlink:title=" ">
<polygon fill="white" stroke="#bfbfbf" points="416,-112.5 416,-131.5 466,-131.5 466,-112.5 416,-112.5"/>
<text text-anchor="middle" x="441" y="-119.5" font-family="Helvetica,sans-Serif" font-size="10.00">cstring</text>
</a>
</g>
</g>
<!-- Node27&#45;&gt;Node28 -->
<g id="edge33" class="edge">
<title>Node27&#45;&gt;Node28</title>
<path fill="none" stroke="midnightblue" d="M458.53,-168.08C455.69,-160.77 451.57,-150.18 448.04,-141.1"/>
<polygon fill="midnightblue" stroke="midnightblue" points="451.29,-139.8 444.4,-131.75 444.77,-142.34 451.29,-139.8"/>
</g>
<!-- Node29 -->
<g id="node29" class="node">
<title>Node29</title>
<g id="a_node29"><a xlink:title=" ">
<polygon fill="white" stroke="#bfbfbf" points="484.5,-112.5 484.5,-131.5 549.5,-131.5 549.5,-112.5 484.5,-112.5"/>
<text text-anchor="middle" x="517" y="-119.5" font-family="Helvetica,sans-Serif" font-size="10.00">stdexcept</text>
</a>
</g>
</g>
<!-- Node27&#45;&gt;Node29 -->
<g id="edge34" class="edge">
<title>Node27&#45;&gt;Node29</title>
<path fill="none" stroke="midnightblue" d="M471.08,-168.08C479.17,-160.14 491.2,-148.34 500.91,-138.8"/>
<polygon fill="midnightblue" stroke="midnightblue" points="503.4,-141.25 508.09,-131.75 498.5,-136.26 503.4,-141.25"/>
</g>
<!-- Node30 -->
<g id="node30" class="node">
<title>Node30</title>
<g id="a_node30"><a xlink:title=" ">
<polygon fill="white" stroke="#bfbfbf" points="568,-112.5 568,-131.5 612,-131.5 612,-112.5 568,-112.5"/>
<text text-anchor="middle" x="590" y="-119.5" font-family="Helvetica,sans-Serif" font-size="10.00">string</text>
</a>
</g>
</g>
<!-- Node27&#45;&gt;Node30 -->
<g id="edge35" class="edge">
<title>Node27&#45;&gt;Node30</title>
<path fill="none" stroke="midnightblue" d="M482.28,-168.44C503.35,-159.56 536.52,-145.56 560.49,-135.45"/>
<polygon fill="midnightblue" stroke="midnightblue" points="561.96,-138.63 569.81,-131.52 559.24,-132.18 561.96,-138.63"/>
</g>
</g>
</svg>
        <g id="navigator" transform="translate(0 0)" fill="#404254">
                <rect fill="#f2f5e9" fill-opacity="0.5" stroke="#606060" stroke-width=".5" x="0" y="0" width="60" height="60"/>
                <use id="zoomplus" xlink:href="#zoomPlus" x="17" y="9" onmousedown="handleZoom(evt,'in')"/>
                <use id="zoomminus" xlink:href="#zoomMin" x="42" y="9" onmousedown="handleZoom(evt,'out')"/>
                <use id="reset" xlink:href="#resetDef" x="30" y="36" onmousedown="handleReset()"/>
                <g id="arrowUp" xlink:href="#dirArrow" transform="translate(30 24)" onmousedown="handlePan(0,-1)">
                  <use xlink:href="#rim" fill="#404040">
                        <set attributeName="fill" to="#808080" begin="arrowUp.mouseover" end="arrowUp.mouseout"/>
                  </use>
                  <path fill="none" stroke="white" stroke-width="1.5" d="M0,-3.0v7 M-2.5,-0.5L0,-3.0L2.5,-0.5"/>
                </g>
                <g id="arrowRight" xlink:href="#dirArrow" transform="rotate(90) translate(36 -43)" onmousedown="handlePan(1,0)">
                  <use xlink:href="#rim" fill="#404040">
                        <set attributeName="fill" to="#808080" begin="arrowRight.mouseover" end="arrowRight.mouseout"/>
                  </use>
                  <path fill="none" stroke="white" stroke-width="1.5" d="M0,-3.0v7 M-2.5,-0.5L0,-3.0L2.5,-0.5"/>
                </g>
                <g id="arrowDown" xlink:href="#dirArrow" transform="rotate(180) translate(-30 -48)" onmousedown="handlePan(0,1)">
                  <use xlink:href="#rim" fill="#404040">
                        <set attributeName="fill" to="#808080" begin="arrowDown.mouseover" end="arrowDown.mouseout"/>
                  </use>
                  <path fill="none" stroke="white" stroke-width="1.5" d="M0,-3.0v7 M-2.5,-0.5L0,-3.0L2.5,-0.5"/>
                </g>
                <g id="arrowLeft" xlink:href="#dirArrow" transform="rotate(270) translate(-36 17)" onmousedown="handlePan(-1,0)">
                  <use xlink:href="#rim" fill="#404040">
                        <set attributeName="fill" to="#808080" begin="arrowLeft.mouseover" end="arrowLeft.mouseout"/>
                  </use>
                  <path fill="none" stroke="white" stroke-width="1.5" d="M0,-3.0v7 M-2.5,-0.5L0,-3.0L2.5,-0.5"/>
                </g>
        </g>
        <svg viewBox="0 0 15 15" width="100%" height="30px" preserveAspectRatio="xMaxYMin meet">
         <g id="arrow_out" transform="scale(0.3 0.3)">
          <a xlink:href="champ__map_8h__incl_org.svg" target="_base">
           <rect id="button" ry="5" rx="5" y="6" x="6" height="38" width="38"
                fill="#f2f5e9" fill-opacity="0.5" stroke="#606060" stroke-width="1.0"/>
           <path id="arrow"
             d="M 11.500037,31.436501 C 11.940474,20.09759 22.043105,11.32322 32.158766,21.979434 L 37.068811,17.246167 C 37.068811,17.246167 37.088388,32 37.088388,32 L 22.160133,31.978069 C 22.160133,31.978069 26.997745,27.140456 26.997745,27.140456 C 18.528582,18.264221 13.291696,25.230495 11.500037,31.436501 z"
             style="fill:#404040;"/>
          </a>
         </g>
        </svg>
</svg>
