<?xml version="1.0" encoding="UTF-8" standalone="no"?>
<!DOCTYPE svg PUBLIC "-//W3C//DTD SVG 1.1//EN"
 "http://www.w3.org/Graphics/SVG/1.1/DTD/svg11.dtd">
<!-- Generated by graphviz version 2.43.0 (0)
 -->
<!-- Title: ccf::ACMESubsystem Pages: 1 -->
<svg width="316pt" height="152pt"
 viewBox="0.00 0.00 316.00 152.00" xmlns="http://www.w3.org/2000/svg" xmlns:xlink="http://www.w3.org/1999/xlink">
<g id="graph0" class="graph" transform="scale(1 1) rotate(0) translate(4 148)">
<title>ccf::ACMESubsystem</title>
<polygon fill="white" stroke="transparent" points="-4,4 -4,-148 312,-148 312,4 -4,4"/>
<!-- Node1 -->
<g id="node1" class="node">
<title>Node1</title>
<g id="a_node1"><a xlink:title=" ">
<polygon fill="#bfbfbf" stroke="black" points="143.5,-0.5 143.5,-19.5 262.5,-19.5 262.5,-0.5 143.5,-0.5"/>
<text text-anchor="middle" x="203" y="-7.5" font-family="Helvetica,sans-Serif" font-size="10.00">ccf::ACMESubsystem</text>
</a>
</g>
</g>
<!-- Node2 -->
<g id="node2" class="node">
<title>Node2</title>
<g id="a_node2"><a xlink:href="classccf_1_1ACMESubsystemInterface.html" target="_top" xlink:title=" ">
<polygon fill="white" stroke="black" points="0,-67.5 0,-86.5 162,-86.5 162,-67.5 0,-67.5"/>
<text text-anchor="middle" x="81" y="-74.5" font-family="Helvetica,sans-Serif" font-size="10.00">ccf::ACMESubsystemInterface</text>
</a>
</g>
</g>
<!-- Node2&#45;&gt;Node1 -->
<g id="edge1" class="edge">
<title>Node2&#45;&gt;Node1</title>
<path fill="none" stroke="midnightblue" d="M106.14,-62.6C130.31,-49.73 166.1,-30.66 186.73,-19.67"/>
<polygon fill="midnightblue" stroke="midnightblue" points="104.38,-59.58 97.2,-67.37 107.67,-65.76 104.38,-59.58"/>
</g>
<!-- Node3 -->
<g id="node3" class="node">
<title>Node3</title>
<g id="a_node3"><a xlink:href="classccf_1_1AbstractNodeSubSystem.html" target="_top" xlink:title=" ">
<polygon fill="white" stroke="black" points="2.5,-124.5 2.5,-143.5 159.5,-143.5 159.5,-124.5 2.5,-124.5"/>
<text text-anchor="middle" x="81" y="-131.5" font-family="Helvetica,sans-Serif" font-size="10.00">ccf::AbstractNodeSubSystem</text>
</a>
</g>
</g>
<!-- Node3&#45;&gt;Node2 -->
<g id="edge2" class="edge">
<title>Node3&#45;&gt;Node2</title>
<path fill="none" stroke="midnightblue" d="M81,-114.12C81,-104.82 81,-94.06 81,-86.71"/>
<polygon fill="midnightblue" stroke="midnightblue" points="77.5,-114.41 81,-124.41 84.5,-114.41 77.5,-114.41"/>
</g>
<!-- Node4 -->
<g id="node4" class="node">
<title>Node4</title>
<g id="a_node4"><a xlink:href="classccf_1_1AbstractNodeState.html" target="_top" xlink:title=" ">
<polygon fill="white" stroke="black" points="180,-67.5 180,-86.5 308,-86.5 308,-67.5 180,-67.5"/>
<text text-anchor="middle" x="244" y="-74.5" font-family="Helvetica,sans-Serif" font-size="10.00">ccf::AbstractNodeState</text>
</a>
</g>
</g>
<!-- Node4&#45;&gt;Node1 -->
<g id="edge3" class="edge">
<title>Node4&#45;&gt;Node1</title>
<path fill="none" stroke="#9a32cd" stroke-dasharray="5,2" d="M232.98,-58.53C225.05,-45.95 214.67,-29.51 208.44,-19.63"/>
<polygon fill="#9a32cd" stroke="#9a32cd" points="230.18,-60.64 238.47,-67.23 236.1,-56.91 230.18,-60.64"/>
<text text-anchor="middle" x="254" y="-41" font-family="Helvetica,sans-Serif" font-size="10.00"> node_state</text>
</g>
</g>
</svg>
