<?xml version="1.0" encoding="UTF-8" standalone="no"?>
<!DOCTYPE svg PUBLIC "-//W3C//DTD SVG 1.1//EN"
 "http://www.w3.org/Graphics/SVG/1.1/DTD/svg11.dtd">
<!-- Generated by graphviz version 2.43.0 (0)
 -->
<!-- Title: kv::SetHandle&lt; K, KSerialiser, Unit &gt; Pages: 1 -->
<!--zoomable 236 -->
<svg id="main" version="1.1" xmlns="http://www.w3.org/2000/svg" xmlns:xlink="http://www.w3.org/1999/xlink" xml:space="preserve" onload="init(evt)">
<style type="text/css"><![CDATA[
.edge:hover path { stroke: red; }
.edge:hover polygon { stroke: red; fill: red; }
]]></style>
<script type="text/javascript"><![CDATA[
var edges = document.getElementsByTagName('g');
if (edges && edges.length) {
  for (var i=0;i<edges.length;i++) {
    if (edges[i].id.substr(0,4)=='edge') {
      edges[i].setAttribute('class','edge');
    }
  }
}
]]></script>
        <defs>
                <circle id="rim" cx="0" cy="0" r="7"/>
                <circle id="rim2" cx="0" cy="0" r="3.5"/>
                <g id="zoomPlus">
                        <use xlink:href="#rim" fill="#404040">
                                <set attributeName="fill" to="#808080" begin="zoomplus.mouseover" end="zoomplus.mouseout"/>
                        </use>
                        <path d="M-4,0h8M0,-4v8" fill="none" stroke="white" stroke-width="1.5" pointer-events="none"/>
                </g>
                <g id="zoomMin">
                        <use xlink:href="#rim" fill="#404040">
                                <set attributeName="fill" to="#808080" begin="zoomminus.mouseover" end="zoomminus.mouseout"/>
                        </use>
                        <path d="M-4,0h8" fill="none" stroke="white" stroke-width="1.5" pointer-events="none"/>
                </g>
                <g id="dirArrow">
                        <path fill="none" stroke="white" stroke-width="1.5" d="M0,-3.0v7 M-2.5,-0.5L0,-3.0L2.5,-0.5"/>
                </g>
               <g id="resetDef">
                       <use xlink:href="#rim2" fill="#404040">
                               <set attributeName="fill" to="#808080" begin="reset.mouseover" end="reset.mouseout"/>
                       </use>
               </g>
        </defs>

<script type="text/javascript">
var viewWidth = 1162;
var viewHeight = 236;
var sectionId = 'dynsection-0';
</script>
<script xlink:href="svgpan.js"/>
<svg id="graph" class="graph">
<g id="viewport">
<title>kv::SetHandle&lt; K, KSerialiser, Unit &gt;</title>
<polygon fill="white" stroke="transparent" points="-4,4 -4,-231.5 1158,-231.5 1158,4 -4,4"/>
<!-- Node1 -->
<g id="node1" class="node">
<title>Node1</title>
<g id="a_node1"><a xlink:title=" ">
<polygon fill="#bfbfbf" stroke="black" points="990,-119.5 990,-149.5 1154,-149.5 1154,-119.5 990,-119.5"/>
<text text-anchor="start" x="998" y="-137.5" font-family="Helvetica,sans-Serif" font-size="10.00">kv::SetHandle&lt; K, KSerialiser,</text>
<text text-anchor="middle" x="1072" y="-126.5" font-family="Helvetica,sans-Serif" font-size="10.00"> Unit &gt;</text>
</a>
</g>
</g>
<!-- Node2 -->
<g id="node2" class="node">
<title>Node2</title>
<g id="a_node2"><a xlink:href="classkv_1_1AbstractHandle.html" target="_top" xlink:title=" ">
<polygon fill="white" stroke="black" points="368.5,-170 368.5,-189 477.5,-189 477.5,-170 368.5,-170"/>
<text text-anchor="middle" x="423" y="-177" font-family="Helvetica,sans-Serif" font-size="10.00">kv::AbstractHandle</text>
</a>
</g>
</g>
<!-- Node2&#45;&gt;Node1 -->
<g id="edge1" class="edge">
<title>Node2&#45;&gt;Node1</title>
<path fill="none" stroke="midnightblue" d="M487.88,-176.19C590.17,-170.71 797.01,-158.92 972,-144.5 977.85,-144.02 983.9,-143.49 989.98,-142.93"/>
<polygon fill="midnightblue" stroke="midnightblue" points="487.52,-172.7 477.72,-176.73 487.89,-179.69 487.52,-172.7"/>
</g>
<!-- Node4 -->
<g id="node4" class="node">
<title>Node4</title>
<g id="a_node4"><a xlink:href="classkv_1_1untyped_1_1MapHandle.html" target="_top" xlink:title=" ">
<polygon fill="white" stroke="black" points="584,-94 584,-113 719,-113 719,-94 584,-94"/>
<text text-anchor="middle" x="651.5" y="-101" font-family="Helvetica,sans-Serif" font-size="10.00">kv::untyped::MapHandle</text>
</a>
</g>
</g>
<!-- Node2&#45;&gt;Node4 -->
<g id="edge4" class="edge">
<title>Node2&#45;&gt;Node4</title>
<path fill="none" stroke="midnightblue" d="M469.52,-167.22C497.55,-159.37 534.11,-148.61 566,-137.5 587.5,-130.01 611.55,-120.19 628.48,-113.03"/>
<polygon fill="midnightblue" stroke="midnightblue" points="468.3,-163.93 459.6,-169.98 470.17,-170.68 468.3,-163.93"/>
</g>
<!-- Node3 -->
<g id="node3" class="node">
<title>Node3</title>
<g id="a_node3"><a xlink:href="classkv_1_1ReadableSetHandle.html" target="_top" xlink:title=" ">
<polygon fill="white" stroke="black" points="822.5,-80.5 822.5,-110.5 952.5,-110.5 952.5,-80.5 822.5,-80.5"/>
<text text-anchor="start" x="830.5" y="-98.5" font-family="Helvetica,sans-Serif" font-size="10.00">kv::ReadableSetHandle</text>
<text text-anchor="middle" x="887.5" y="-87.5" font-family="Helvetica,sans-Serif" font-size="10.00">&lt; K, KSerialiser &gt;</text>
</a>
</g>
</g>
<!-- Node3&#45;&gt;Node1 -->
<g id="edge2" class="edge">
<title>Node3&#45;&gt;Node1</title>
<path fill="none" stroke="midnightblue" d="M962.53,-111.32C975.08,-114 988.08,-116.78 1000.54,-119.44"/>
<polygon fill="midnightblue" stroke="midnightblue" points="963.1,-107.86 952.59,-109.2 961.63,-114.71 963.1,-107.86"/>
</g>
<!-- Node4&#45;&gt;Node1 -->
<g id="edge15" class="edge">
<title>Node4&#45;&gt;Node1</title>
<path fill="none" stroke="#9a32cd" stroke-dasharray="5,2" d="M729.36,-113.7C731.94,-113.98 734.49,-114.25 737,-114.5 823.12,-123.14 922.14,-128.5 989.86,-131.47"/>
<polygon fill="#9a32cd" stroke="#9a32cd" points="729.67,-110.21 719.34,-112.57 728.88,-117.17 729.67,-110.21"/>
<text text-anchor="middle" x="887.5" y="-132.5" font-family="Helvetica,sans-Serif" font-size="10.00"> untyped_handle</text>
</g>
<!-- Node4&#45;&gt;Node3 -->
<g id="edge3" class="edge">
<title>Node4&#45;&gt;Node3</title>
<path fill="none" stroke="#9a32cd" stroke-dasharray="5,2" d="M729.3,-100.87C759.47,-99.84 793.7,-98.67 822.49,-97.69"/>
<polygon fill="#9a32cd" stroke="#9a32cd" points="729.12,-97.38 719.24,-101.22 729.36,-104.37 729.12,-97.38"/>
<text text-anchor="middle" x="770.5" y="-102.5" font-family="Helvetica,sans-Serif" font-size="10.00"> read_handle</text>
</g>
<!-- Node13 -->
<g id="node13" class="node">
<title>Node13</title>
<g id="a_node13"><a xlink:href="classkv_1_1WriteableSetHandle.html" target="_top" xlink:title=" ">
<polygon fill="white" stroke="black" points="822,-31.5 822,-61.5 953,-61.5 953,-31.5 822,-31.5"/>
<text text-anchor="start" x="830" y="-49.5" font-family="Helvetica,sans-Serif" font-size="10.00">kv::WriteableSetHandle</text>
<text text-anchor="middle" x="887.5" y="-38.5" font-family="Helvetica,sans-Serif" font-size="10.00">&lt; K, KSerialiser, Unit &gt;</text>
</a>
</g>
</g>
<!-- Node4&#45;&gt;Node13 -->
<g id="edge14" class="edge">
<title>Node4&#45;&gt;Node13</title>
<path fill="none" stroke="#9a32cd" stroke-dasharray="5,2" d="M701.41,-91.59C737.26,-82.85 786.18,-70.94 824.73,-61.55"/>
<polygon fill="#9a32cd" stroke="#9a32cd" points="700.55,-88.19 691.67,-93.96 702.21,-94.99 700.55,-88.19"/>
<text text-anchor="middle" x="770.5" y="-84.5" font-family="Helvetica,sans-Serif" font-size="10.00"> write_handle</text>
</g>
<!-- Node5 -->
<g id="node5" class="node">
<title>Node5</title>
<g id="a_node5"><a xlink:href="structkv_1_1untyped_1_1ChangeSet.html" target="_top" xlink:title=" ">
<polygon fill="white" stroke="black" points="357,-126 357,-145 489,-145 489,-126 357,-126"/>
<text text-anchor="middle" x="423" y="-133" font-family="Helvetica,sans-Serif" font-size="10.00">kv::untyped::ChangeSet</text>
</a>
</g>
</g>
<!-- Node5&#45;&gt;Node4 -->
<g id="edge5" class="edge">
<title>Node5&#45;&gt;Node4</title>
<path fill="none" stroke="#9a32cd" stroke-dasharray="5,2" d="M499.12,-124.89C526.48,-121.02 557.21,-116.68 583.79,-112.93"/>
<polygon fill="#9a32cd" stroke="#9a32cd" points="498.62,-121.42 489.21,-126.29 499.6,-128.35 498.62,-121.42"/>
<text text-anchor="middle" x="536.5" y="-125.5" font-family="Helvetica,sans-Serif" font-size="10.00"> tx_changes</text>
</g>
<!-- Node6 -->
<g id="node6" class="node">
<title>Node6</title>
<g id="a_node6"><a xlink:href="classkv_1_1AbstractChangeSet.html" target="_top" xlink:title=" ">
<polygon fill="white" stroke="black" points="114,-208 114,-227 241,-227 241,-208 114,-208"/>
<text text-anchor="middle" x="177.5" y="-215" font-family="Helvetica,sans-Serif" font-size="10.00">kv::AbstractChangeSet</text>
</a>
</g>
</g>
<!-- Node6&#45;&gt;Node5 -->
<g id="edge6" class="edge">
<title>Node6&#45;&gt;Node5</title>
<path fill="none" stroke="midnightblue" d="M251.34,-214.46C280.45,-210.43 313.14,-202.14 339,-185.5 350.51,-178.09 346.16,-168.86 357,-160.5 365.62,-153.85 376.21,-148.79 386.32,-145.02"/>
<polygon fill="midnightblue" stroke="midnightblue" points="250.7,-211.01 241.21,-215.71 251.56,-217.96 250.7,-211.01"/>
</g>
<!-- Node7 -->
<g id="node7" class="node">
<title>Node7</title>
<g id="a_node7"><a xlink:href="classchamp_1_1Map.html" target="_top" xlink:title=" ">
<polygon fill="white" stroke="black" points="111.5,-170 111.5,-189 243.5,-189 243.5,-170 111.5,-170"/>
<text text-anchor="middle" x="177.5" y="-177" font-family="Helvetica,sans-Serif" font-size="10.00">champ::Map&lt; K, V, H &gt;</text>
</a>
</g>
</g>
<!-- Node7&#45;&gt;Node5 -->
<g id="edge7" class="edge">
<title>Node7&#45;&gt;Node5</title>
<path fill="none" stroke="#9a32cd" stroke-dasharray="5,2" d="M241.43,-168.13C281.09,-160.96 331.72,-151.81 369.27,-145.03"/>
<polygon fill="#9a32cd" stroke="#9a32cd" points="240.55,-164.73 231.34,-169.95 241.8,-171.62 240.55,-164.73"/>
<text text-anchor="middle" x="310.5" y="-173.5" font-family="Helvetica,sans-Serif" font-size="10.00"> committed</text>
<text text-anchor="middle" x="310.5" y="-162.5" font-family="Helvetica,sans-Serif" font-size="10.00">state</text>
</g>
<!-- Node8 -->
<g id="node8" class="node">
<title>Node8</title>
<g id="a_node8"><a xlink:title=" ">
<polygon fill="white" stroke="black" points="91,-120.5 91,-150.5 264,-150.5 264,-120.5 91,-120.5"/>
<text text-anchor="start" x="99" y="-138.5" font-family="Helvetica,sans-Serif" font-size="10.00">std::map&lt; K, std::tuple</text>
<text text-anchor="middle" x="177.5" y="-127.5" font-family="Helvetica,sans-Serif" font-size="10.00">&lt; Version, LastReadVersion &gt; &gt;</text>
</a>
</g>
</g>
<!-- Node8&#45;&gt;Node5 -->
<g id="edge8" class="edge">
<title>Node8&#45;&gt;Node5</title>
<path fill="none" stroke="#9a32cd" stroke-dasharray="5,2" d="M274.1,-135.5C301.75,-135.5 331.29,-135.5 356.64,-135.5"/>
<polygon fill="#9a32cd" stroke="#9a32cd" points="274.01,-132 264.01,-135.5 274.01,-139 274.01,-132"/>
<text text-anchor="middle" x="310.5" y="-138.5" font-family="Helvetica,sans-Serif" font-size="10.00"> reads</text>
</g>
<!-- Node9 -->
<g id="node9" class="node">
<title>Node9</title>
<g id="a_node9"><a xlink:title=" ">
<polygon fill="white" stroke="black" points="0,-126 0,-145 29,-145 29,-126 0,-126"/>
<text text-anchor="middle" x="14.5" y="-133" font-family="Helvetica,sans-Serif" font-size="10.00">K</text>
</a>
</g>
</g>
<!-- Node9&#45;&gt;Node8 -->
<g id="edge9" class="edge">
<title>Node9&#45;&gt;Node8</title>
<path fill="none" stroke="#9a32cd" stroke-dasharray="5,2" d="M39.32,-135.5C53.23,-135.5 71.72,-135.5 90.62,-135.5"/>
<polygon fill="#9a32cd" stroke="#9a32cd" points="39.23,-132 29.23,-135.5 39.23,-139 39.23,-132"/>
<text text-anchor="middle" x="60" y="-138.5" font-family="Helvetica,sans-Serif" font-size="10.00"> keys</text>
</g>
<!-- Node10 -->
<g id="node10" class="node">
<title>Node10</title>
<g id="a_node10"><a xlink:title=" ">
<polygon fill="white" stroke="black" points="107,-49.5 107,-101.5 248,-101.5 248,-49.5 107,-49.5"/>
<text text-anchor="start" x="115" y="-89.5" font-family="Helvetica,sans-Serif" font-size="10.00">std::map&lt; kv::serialisers</text>
<text text-anchor="start" x="115" y="-78.5" font-family="Helvetica,sans-Serif" font-size="10.00">::SerialisedEntry, std</text>
<text text-anchor="start" x="115" y="-67.5" font-family="Helvetica,sans-Serif" font-size="10.00">::optional&lt; kv::serialisers</text>
<text text-anchor="middle" x="177.5" y="-56.5" font-family="Helvetica,sans-Serif" font-size="10.00">::SerialisedEntry &gt; &gt;</text>
</a>
</g>
</g>
<!-- Node10&#45;&gt;Node5 -->
<g id="edge10" class="edge">
<title>Node10&#45;&gt;Node5</title>
<path fill="none" stroke="#9a32cd" stroke-dasharray="5,2" d="M258.21,-95.14C300.17,-105.48 349.73,-117.69 383.26,-125.95"/>
<polygon fill="#9a32cd" stroke="#9a32cd" points="258.82,-91.69 248.28,-92.69 257.15,-98.48 258.82,-91.69"/>
<text text-anchor="middle" x="310.5" y="-116.5" font-family="Helvetica,sans-Serif" font-size="10.00"> writes</text>
</g>
<!-- Node11 -->
<g id="node11" class="node">
<title>Node11</title>
<g id="a_node11"><a xlink:title=" ">
<polygon fill="white" stroke="black" points="390.5,-75 390.5,-94 455.5,-94 455.5,-75 390.5,-75"/>
<text text-anchor="middle" x="423" y="-82" font-family="Helvetica,sans-Serif" font-size="10.00">std::string</text>
</a>
</g>
</g>
<!-- Node11&#45;&gt;Node4 -->
<g id="edge11" class="edge">
<title>Node11&#45;&gt;Node4</title>
<path fill="none" stroke="#9a32cd" stroke-dasharray="5,2" d="M466.01,-84.06C494.33,-84.16 532.5,-85.07 566,-88.5 578.3,-89.76 591.51,-91.78 603.74,-93.93"/>
<polygon fill="#9a32cd" stroke="#9a32cd" points="465.67,-80.56 455.67,-84.06 465.67,-87.56 465.67,-80.56"/>
<text text-anchor="middle" x="536.5" y="-91.5" font-family="Helvetica,sans-Serif" font-size="10.00"> map_name</text>
</g>
<!-- Node12 -->
<g id="node12" class="node">
<title>Node12</title>
<g id="a_node12"><a xlink:title=" ">
<polygon fill="white" stroke="black" points="125.5,-0.5 125.5,-30.5 229.5,-30.5 229.5,-0.5 125.5,-0.5"/>
<text text-anchor="start" x="133.5" y="-18.5" font-family="Helvetica,sans-Serif" font-size="10.00">std::basic_string&lt;</text>
<text text-anchor="middle" x="177.5" y="-7.5" font-family="Helvetica,sans-Serif" font-size="10.00"> Char &gt;</text>
</a>
</g>
</g>
<!-- Node12&#45;&gt;Node11 -->
<g id="edge12" class="edge">
<title>Node12&#45;&gt;Node11</title>
<path fill="none" stroke="midnightblue" d="M239.2,-32.7C287.16,-46.29 352.17,-64.71 390.35,-75.53"/>
<polygon fill="midnightblue" stroke="midnightblue" points="240.12,-29.32 229.55,-29.96 238.21,-36.06 240.12,-29.32"/>
</g>
<!-- Node13&#45;&gt;Node1 -->
<g id="edge13" class="edge">
<title>Node13&#45;&gt;Node1</title>
<path fill="none" stroke="midnightblue" d="M939.31,-65.53C943.97,-67.47 948.59,-69.48 953,-71.5 985.3,-86.31 1021.14,-105.92 1044.75,-119.31"/>
<polygon fill="midnightblue" stroke="midnightblue" points="940.34,-62.17 929.76,-61.64 937.7,-68.65 940.34,-62.17"/>
</g>
</g>
</svg>
        <g id="navigator" transform="translate(0 0)" fill="#404254">
                <rect fill="#f2f5e9" fill-opacity="0.5" stroke="#606060" stroke-width=".5" x="0" y="0" width="60" height="60"/>
                <use id="zoomplus" xlink:href="#zoomPlus" x="17" y="9" onmousedown="handleZoom(evt,'in')"/>
                <use id="zoomminus" xlink:href="#zoomMin" x="42" y="9" onmousedown="handleZoom(evt,'out')"/>
                <use id="reset" xlink:href="#resetDef" x="30" y="36" onmousedown="handleReset()"/>
                <g id="arrowUp" xlink:href="#dirArrow" transform="translate(30 24)" onmousedown="handlePan(0,-1)">
                  <use xlink:href="#rim" fill="#404040">
                        <set attributeName="fill" to="#808080" begin="arrowUp.mouseover" end="arrowUp.mouseout"/>
                  </use>
                  <path fill="none" stroke="white" stroke-width="1.5" d="M0,-3.0v7 M-2.5,-0.5L0,-3.0L2.5,-0.5"/>
                </g>
                <g id="arrowRight" xlink:href="#dirArrow" transform="rotate(90) translate(36 -43)" onmousedown="handlePan(1,0)">
                  <use xlink:href="#rim" fill="#404040">
                        <set attributeName="fill" to="#808080" begin="arrowRight.mouseover" end="arrowRight.mouseout"/>
                  </use>
                  <path fill="none" stroke="white" stroke-width="1.5" d="M0,-3.0v7 M-2.5,-0.5L0,-3.0L2.5,-0.5"/>
                </g>
                <g id="arrowDown" xlink:href="#dirArrow" transform="rotate(180) translate(-30 -48)" onmousedown="handlePan(0,1)">
                  <use xlink:href="#rim" fill="#404040">
                        <set attributeName="fill" to="#808080" begin="arrowDown.mouseover" end="arrowDown.mouseout"/>
                  </use>
                  <path fill="none" stroke="white" stroke-width="1.5" d="M0,-3.0v7 M-2.5,-0.5L0,-3.0L2.5,-0.5"/>
                </g>
                <g id="arrowLeft" xlink:href="#dirArrow" transform="rotate(270) translate(-36 17)" onmousedown="handlePan(-1,0)">
                  <use xlink:href="#rim" fill="#404040">
                        <set attributeName="fill" to="#808080" begin="arrowLeft.mouseover" end="arrowLeft.mouseout"/>
                  </use>
                  <path fill="none" stroke="white" stroke-width="1.5" d="M0,-3.0v7 M-2.5,-0.5L0,-3.0L2.5,-0.5"/>
                </g>
        </g>
        <svg viewBox="0 0 15 15" width="100%" height="30px" preserveAspectRatio="xMaxYMin meet">
         <g id="arrow_out" transform="scale(0.3 0.3)">
          <a xlink:href="classkv_1_1SetHandle__coll__graph_org.svg" target="_base">
           <rect id="button" ry="5" rx="5" y="6" x="6" height="38" width="38"
                fill="#f2f5e9" fill-opacity="0.5" stroke="#606060" stroke-width="1.0"/>
           <path id="arrow"
             d="M 11.500037,31.436501 C 11.940474,20.09759 22.043105,11.32322 32.158766,21.979434 L 37.068811,17.246167 C 37.068811,17.246167 37.088388,32 37.088388,32 L 22.160133,31.978069 C 22.160133,31.978069 26.997745,27.140456 26.997745,27.140456 C 18.528582,18.264221 13.291696,25.230495 11.500037,31.436501 z"
             style="fill:#404040;"/>
          </a>
         </g>
        </svg>
</svg>
