<?xml version="1.0" encoding="UTF-8" standalone="no"?>
<!DOCTYPE svg PUBLIC "-//W3C//DTD SVG 1.1//EN"
 "http://www.w3.org/Graphics/SVG/1.1/DTD/svg11.dtd">
<!-- Generated by graphviz version 2.43.0 (0)
 -->
<!-- Title: kv::CommittableTx Pages: 1 -->
<!--zoomable 412 -->
<svg id="main" version="1.1" xmlns="http://www.w3.org/2000/svg" xmlns:xlink="http://www.w3.org/1999/xlink" xml:space="preserve" onload="init(evt)">
<style type="text/css"><![CDATA[
.edge:hover path { stroke: red; }
.edge:hover polygon { stroke: red; fill: red; }
]]></style>
<script type="text/javascript"><![CDATA[
var edges = document.getElementsByTagName('g');
if (edges && edges.length) {
  for (var i=0;i<edges.length;i++) {
    if (edges[i].id.substr(0,4)=='edge') {
      edges[i].setAttribute('class','edge');
    }
  }
}
]]></script>
        <defs>
                <circle id="rim" cx="0" cy="0" r="7"/>
                <circle id="rim2" cx="0" cy="0" r="3.5"/>
                <g id="zoomPlus">
                        <use xlink:href="#rim" fill="#404040">
                                <set attributeName="fill" to="#808080" begin="zoomplus.mouseover" end="zoomplus.mouseout"/>
                        </use>
                        <path d="M-4,0h8M0,-4v8" fill="none" stroke="white" stroke-width="1.5" pointer-events="none"/>
                </g>
                <g id="zoomMin">
                        <use xlink:href="#rim" fill="#404040">
                                <set attributeName="fill" to="#808080" begin="zoomminus.mouseover" end="zoomminus.mouseout"/>
                        </use>
                        <path d="M-4,0h8" fill="none" stroke="white" stroke-width="1.5" pointer-events="none"/>
                </g>
                <g id="dirArrow">
                        <path fill="none" stroke="white" stroke-width="1.5" d="M0,-3.0v7 M-2.5,-0.5L0,-3.0L2.5,-0.5"/>
                </g>
               <g id="resetDef">
                       <use xlink:href="#rim2" fill="#404040">
                               <set attributeName="fill" to="#808080" begin="reset.mouseover" end="reset.mouseout"/>
                       </use>
               </g>
        </defs>

<script type="text/javascript">
var viewWidth = 2202;
var viewHeight = 412;
var sectionId = 'dynsection-0';
</script>
<script xlink:href="svgpan.js"/>
<svg id="graph" class="graph">
<g id="viewport">
<title>kv::CommittableTx</title>
<polygon fill="white" stroke="transparent" points="-4,4 -4,-407.5 2198,-407.5 2198,4 -4,4"/>
<!-- Node1 -->
<g id="node1" class="node">
<title>Node1</title>
<g id="a_node1"><a xlink:title=" ">
<polygon fill="#bfbfbf" stroke="black" points="2084,-98.5 2084,-117.5 2194,-117.5 2194,-98.5 2084,-98.5"/>
<text text-anchor="middle" x="2139" y="-105.5" font-family="Helvetica,sans-Serif" font-size="10.00">kv::CommittableTx</text>
</a>
</g>
</g>
<!-- Node2 -->
<g id="node2" class="node">
<title>Node2</title>
<g id="a_node2"><a xlink:href="classkv_1_1Tx.html" target="_top" xlink:title=" ">
<polygon fill="white" stroke="black" points="1945,-124.5 1945,-143.5 1991,-143.5 1991,-124.5 1945,-124.5"/>
<text text-anchor="middle" x="1968" y="-131.5" font-family="Helvetica,sans-Serif" font-size="10.00">kv::Tx</text>
</a>
</g>
</g>
<!-- Node2&#45;&gt;Node1 -->
<g id="edge1" class="edge">
<title>Node2&#45;&gt;Node1</title>
<path fill="none" stroke="midnightblue" d="M2001.15,-129.05C2024.49,-125.46 2056.63,-120.52 2083.9,-116.32"/>
<polygon fill="midnightblue" stroke="midnightblue" points="2000.45,-125.62 1991.09,-130.6 2001.51,-132.54 2000.45,-125.62"/>
</g>
<!-- Node3 -->
<g id="node3" class="node">
<title>Node3</title>
<g id="a_node3"><a xlink:href="classkv_1_1ReadOnlyTx.html" target="_top" xlink:title=" ">
<polygon fill="white" stroke="black" points="1759,-124.5 1759,-143.5 1852,-143.5 1852,-124.5 1759,-124.5"/>
<text text-anchor="middle" x="1805.5" y="-131.5" font-family="Helvetica,sans-Serif" font-size="10.00">kv::ReadOnlyTx</text>
</a>
</g>
</g>
<!-- Node3&#45;&gt;Node2 -->
<g id="edge2" class="edge">
<title>Node3&#45;&gt;Node2</title>
<path fill="none" stroke="midnightblue" d="M1862.3,-134C1890.73,-134 1923.69,-134 1944.91,-134"/>
<polygon fill="midnightblue" stroke="midnightblue" points="1862.06,-130.5 1852.06,-134 1862.06,-137.5 1862.06,-130.5"/>
</g>
<!-- Node4 -->
<g id="node4" class="node">
<title>Node4</title>
<g id="a_node4"><a xlink:href="classkv_1_1BaseTx.html" target="_top" xlink:title=" ">
<polygon fill="white" stroke="black" points="1652,-124.5 1652,-143.5 1722,-143.5 1722,-124.5 1652,-124.5"/>
<text text-anchor="middle" x="1687" y="-131.5" font-family="Helvetica,sans-Serif" font-size="10.00">kv::BaseTx</text>
</a>
</g>
</g>
<!-- Node4&#45;&gt;Node3 -->
<g id="edge3" class="edge">
<title>Node4&#45;&gt;Node3</title>
<path fill="none" stroke="midnightblue" d="M1732.07,-134C1740.87,-134 1750.12,-134 1758.97,-134"/>
<polygon fill="midnightblue" stroke="midnightblue" points="1732.01,-130.5 1722.01,-134 1732.01,-137.5 1732.01,-130.5"/>
</g>
<!-- Node5 -->
<g id="node5" class="node">
<title>Node5</title>
<g id="a_node5"><a xlink:title=" ">
<polygon fill="white" stroke="black" points="1453,-87 1453,-117 1585,-117 1585,-87 1453,-87"/>
<text text-anchor="start" x="1461" y="-105" font-family="Helvetica,sans-Serif" font-size="10.00">std::unique_ptr&lt; kv</text>
<text text-anchor="middle" x="1519" y="-94" font-family="Helvetica,sans-Serif" font-size="10.00">::BaseTx::PrivateImpl &gt;</text>
</a>
</g>
</g>
<!-- Node5&#45;&gt;Node4 -->
<g id="edge4" class="edge">
<title>Node5&#45;&gt;Node4</title>
<path fill="none" stroke="#9a32cd" stroke-dasharray="5,2" d="M1595.07,-116.47C1614.83,-120.28 1635.2,-124.21 1651.63,-127.37"/>
<polygon fill="#9a32cd" stroke="#9a32cd" points="1595.61,-113.01 1585.13,-114.56 1594.29,-119.89 1595.61,-113.01"/>
<text text-anchor="middle" x="1618.5" y="-127" font-family="Helvetica,sans-Serif" font-size="10.00"> pimpl</text>
</g>
<!-- Node6 -->
<g id="node6" class="node">
<title>Node6</title>
<g id="a_node6"><a xlink:href="structkv_1_1BaseTx_1_1PrivateImpl.html" target="_top" xlink:title=" ">
<polygon fill="white" stroke="black" points="1268,-58.5 1268,-77.5 1400,-77.5 1400,-58.5 1268,-58.5"/>
<text text-anchor="middle" x="1334" y="-65.5" font-family="Helvetica,sans-Serif" font-size="10.00">kv::BaseTx::PrivateImpl</text>
</a>
</g>
</g>
<!-- Node6&#45;&gt;Node5 -->
<g id="edge5" class="edge">
<title>Node6&#45;&gt;Node5</title>
<path fill="none" stroke="#9a32cd" stroke-dasharray="5,2" d="M1396.35,-79.4C1414.52,-82.77 1434.48,-86.48 1452.88,-89.9"/>
<polygon fill="#9a32cd" stroke="#9a32cd" points="1396.93,-75.95 1386.46,-77.56 1395.66,-82.83 1396.93,-75.95"/>
<text text-anchor="middle" x="1426.5" y="-90" font-family="Helvetica,sans-Serif" font-size="10.00"> ptr</text>
</g>
<!-- Node7 -->
<g id="node7" class="node">
<title>Node7</title>
<g id="a_node7"><a xlink:href="classkv_1_1AbstractStore.html" target="_top" xlink:title=" ">
<polygon fill="white" stroke="black" points="1048,-55.5 1048,-74.5 1148,-74.5 1148,-55.5 1048,-55.5"/>
<text text-anchor="middle" x="1098" y="-62.5" font-family="Helvetica,sans-Serif" font-size="10.00">kv::AbstractStore</text>
</a>
</g>
</g>
<!-- Node7&#45;&gt;Node6 -->
<g id="edge6" class="edge">
<title>Node7&#45;&gt;Node6</title>
<path fill="none" stroke="#9a32cd" stroke-dasharray="5,2" d="M1158.12,-65.76C1191.48,-66.19 1233.24,-66.72 1267.58,-67.16"/>
<polygon fill="#9a32cd" stroke="#9a32cd" points="1158.1,-62.26 1148.05,-65.63 1158.01,-69.26 1158.1,-62.26"/>
<text text-anchor="middle" x="1213.5" y="-70" font-family="Helvetica,sans-Serif" font-size="10.00"> store</text>
</g>
<!-- Node8 -->
<g id="node8" class="node">
<title>Node8</title>
<g id="a_node8"><a xlink:title=" ">
<polygon fill="white" stroke="black" points="380.5,-9 380.5,-39 502.5,-39 502.5,-9 380.5,-9"/>
<text text-anchor="start" x="388.5" y="-27" font-family="Helvetica,sans-Serif" font-size="10.00">std::map&lt; std::string,</text>
<text text-anchor="middle" x="441.5" y="-16" font-family="Helvetica,sans-Serif" font-size="10.00"> PossibleHandles &gt;</text>
</a>
</g>
</g>
<!-- Node8&#45;&gt;Node6 -->
<g id="edge7" class="edge">
<title>Node8&#45;&gt;Node6</title>
<path fill="none" stroke="#9a32cd" stroke-dasharray="5,2" d="M512.65,-24C561.3,-24 627.59,-24 686,-24 686,-24 686,-24 1099,-24 1172.99,-24 1257.92,-45.51 1302.31,-58.45"/>
<polygon fill="#9a32cd" stroke="#9a32cd" points="512.54,-20.5 502.54,-24 512.54,-27.5 512.54,-20.5"/>
<text text-anchor="middle" x="881" y="-27" font-family="Helvetica,sans-Serif" font-size="10.00"> all_handles</text>
</g>
<!-- Node9 -->
<g id="node9" class="node">
<title>Node9</title>
<g id="a_node9"><a xlink:title=" ">
<polygon fill="white" stroke="black" points="197,-79.5 197,-98.5 262,-98.5 262,-79.5 197,-79.5"/>
<text text-anchor="middle" x="229.5" y="-86.5" font-family="Helvetica,sans-Serif" font-size="10.00">std::string</text>
</a>
</g>
</g>
<!-- Node9&#45;&gt;Node8 -->
<g id="edge8" class="edge">
<title>Node9&#45;&gt;Node8</title>
<path fill="none" stroke="#9a32cd" stroke-dasharray="5,2" d="M247.05,-72.59C257.81,-62.93 272.65,-51.4 288,-45 316.98,-32.92 351.49,-27.5 380.34,-25.18"/>
<polygon fill="#9a32cd" stroke="#9a32cd" points="244.59,-70.1 239.68,-79.49 249.38,-75.21 244.59,-70.1"/>
<text text-anchor="middle" x="312.5" y="-48" font-family="Helvetica,sans-Serif" font-size="10.00"> keys</text>
</g>
<!-- Node13 -->
<g id="node13" class="node">
<title>Node13</title>
<g id="a_node13"><a xlink:title=" ">
<polygon fill="white" stroke="black" points="1037,-93.5 1037,-134.5 1159,-134.5 1159,-93.5 1037,-93.5"/>
<text text-anchor="start" x="1045" y="-122.5" font-family="Helvetica,sans-Serif" font-size="10.00">std::map&lt; std::string,</text>
<text text-anchor="start" x="1045" y="-111.5" font-family="Helvetica,sans-Serif" font-size="10.00"> std::shared_ptr&lt; kv</text>
<text text-anchor="middle" x="1098" y="-100.5" font-family="Helvetica,sans-Serif" font-size="10.00">::AbstractMap &gt; &gt;</text>
</a>
</g>
</g>
<!-- Node9&#45;&gt;Node13 -->
<g id="edge13" class="edge">
<title>Node9&#45;&gt;Node13</title>
<path fill="none" stroke="#9a32cd" stroke-dasharray="5,2" d="M272.01,-83.02C314.3,-77.45 381.82,-70 440.5,-70 440.5,-70 440.5,-70 882,-70 935.15,-70 994.22,-83.07 1036.97,-94.96"/>
<polygon fill="#9a32cd" stroke="#9a32cd" points="271.53,-79.55 262.08,-84.35 272.46,-86.49 271.53,-79.55"/>
<text text-anchor="middle" x="687" y="-73" font-family="Helvetica,sans-Serif" font-size="10.00"> keys</text>
</g>
<!-- Node17 -->
<g id="node17" class="node">
<title>Node17</title>
<g id="a_node17"><a xlink:href="structkv_1_1GetName.html" target="_top" xlink:title=" ">
<polygon fill="white" stroke="black" points="401.5,-98.5 401.5,-117.5 481.5,-117.5 481.5,-98.5 401.5,-98.5"/>
<text text-anchor="middle" x="441.5" y="-105.5" font-family="Helvetica,sans-Serif" font-size="10.00">kv::GetName</text>
</a>
</g>
</g>
<!-- Node9&#45;&gt;Node17 -->
<g id="edge18" class="edge">
<title>Node9&#45;&gt;Node17</title>
<path fill="none" stroke="#9a32cd" stroke-dasharray="5,2" d="M272.49,-92.8C309.97,-96.19 364.47,-101.12 401.13,-104.44"/>
<polygon fill="#9a32cd" stroke="#9a32cd" points="272.67,-89.3 262.39,-91.89 272.04,-96.27 272.67,-89.3"/>
<text text-anchor="middle" x="312.5" y="-102" font-family="Helvetica,sans-Serif" font-size="10.00"> name</text>
</g>
<!-- Node18 -->
<g id="node18" class="node">
<title>Node18</title>
<g id="a_node18"><a xlink:title=" ">
<polygon fill="white" stroke="black" points="1273,-150 1273,-180 1395,-180 1395,-150 1273,-150"/>
<text text-anchor="start" x="1281" y="-168" font-family="Helvetica,sans-Serif" font-size="10.00">std::map&lt; std::string,</text>
<text text-anchor="middle" x="1334" y="-157" font-family="Helvetica,sans-Serif" font-size="10.00"> MapChanges &gt;</text>
</a>
</g>
</g>
<!-- Node9&#45;&gt;Node18 -->
<g id="edge20" class="edge">
<title>Node9&#45;&gt;Node18</title>
<path fill="none" stroke="#9a32cd" stroke-dasharray="5,2" d="M234.8,-108.28C246,-153.75 280.5,-268.13 355,-325 385.94,-348.62 401.57,-344 440.5,-344 440.5,-344 440.5,-344 1099,-344 1206.41,-344 1295.06,-223.55 1323.45,-180.26"/>
<polygon fill="#9a32cd" stroke="#9a32cd" points="238.2,-107.44 232.5,-98.51 231.38,-109.04 238.2,-107.44"/>
<text text-anchor="middle" x="784" y="-347" font-family="Helvetica,sans-Serif" font-size="10.00"> keys</text>
</g>
<!-- Node10 -->
<g id="node10" class="node">
<title>Node10</title>
<g id="a_node10"><a xlink:title=" ">
<polygon fill="white" stroke="black" points="0,-74 0,-104 104,-104 104,-74 0,-74"/>
<text text-anchor="start" x="8" y="-92" font-family="Helvetica,sans-Serif" font-size="10.00">std::basic_string&lt;</text>
<text text-anchor="middle" x="52" y="-81" font-family="Helvetica,sans-Serif" font-size="10.00"> Char &gt;</text>
</a>
</g>
</g>
<!-- Node10&#45;&gt;Node9 -->
<g id="edge9" class="edge">
<title>Node10&#45;&gt;Node9</title>
<path fill="none" stroke="midnightblue" d="M114.28,-89C142.11,-89 173.85,-89 196.8,-89"/>
<polygon fill="midnightblue" stroke="midnightblue" points="114.23,-85.5 104.23,-89 114.23,-92.5 114.23,-85.5"/>
</g>
<!-- Node11 -->
<g id="node11" class="node">
<title>Node11</title>
<g id="a_node11"><a xlink:title=" ">
<polygon fill="white" stroke="black" points="189,-0.5 189,-19.5 270,-19.5 270,-0.5 189,-0.5"/>
<text text-anchor="middle" x="229.5" y="-7.5" font-family="Helvetica,sans-Serif" font-size="10.00">std::list&lt; T &gt;</text>
</a>
</g>
</g>
<!-- Node11&#45;&gt;Node8 -->
<g id="edge10" class="edge">
<title>Node11&#45;&gt;Node8</title>
<path fill="none" stroke="#9a32cd" stroke-dasharray="5,2" d="M280.45,-9.28C298.31,-9.34 318.57,-9.76 337,-11 351.09,-11.95 366.21,-13.53 380.41,-15.26"/>
<polygon fill="#9a32cd" stroke="#9a32cd" points="280.24,-5.78 270.24,-9.28 280.24,-12.78 280.24,-5.78"/>
<text text-anchor="middle" x="312.5" y="-14" font-family="Helvetica,sans-Serif" font-size="10.00"> elements</text>
</g>
<!-- Node12 -->
<g id="node12" class="node">
<title>Node12</title>
<g id="a_node12"><a xlink:title=" ">
<polygon fill="white" stroke="black" points="37.5,-0.5 37.5,-19.5 66.5,-19.5 66.5,-0.5 37.5,-0.5"/>
<text text-anchor="middle" x="52" y="-7.5" font-family="Helvetica,sans-Serif" font-size="10.00">T</text>
</a>
</g>
</g>
<!-- Node12&#45;&gt;Node11 -->
<g id="edge11" class="edge">
<title>Node12&#45;&gt;Node11</title>
<path fill="none" stroke="#9a32cd" stroke-dasharray="5,2" d="M77.13,-10C105.96,-10 154.61,-10 188.96,-10"/>
<polygon fill="#9a32cd" stroke="#9a32cd" points="76.77,-6.5 66.77,-10 76.77,-13.5 76.77,-6.5"/>
<text text-anchor="middle" x="146.5" y="-13" font-family="Helvetica,sans-Serif" font-size="10.00"> elements</text>
</g>
<!-- Node13&#45;&gt;Node6 -->
<g id="edge12" class="edge">
<title>Node13&#45;&gt;Node6</title>
<path fill="none" stroke="#9a32cd" stroke-dasharray="5,2" d="M1169.51,-100.14C1206.6,-92.85 1251.13,-84.09 1284.35,-77.56"/>
<polygon fill="#9a32cd" stroke="#9a32cd" points="1168.4,-96.79 1159.26,-102.15 1169.75,-103.66 1168.4,-96.79"/>
<text text-anchor="middle" x="1213.5" y="-101" font-family="Helvetica,sans-Serif" font-size="10.00"> created_maps</text>
</g>
<!-- Node14 -->
<g id="node14" class="node">
<title>Node14</title>
<g id="a_node14"><a xlink:title=" ">
<polygon fill="white" stroke="black" points="824.5,-126 824.5,-156 937.5,-156 937.5,-126 824.5,-126"/>
<text text-anchor="start" x="832.5" y="-144" font-family="Helvetica,sans-Serif" font-size="10.00">std::shared_ptr&lt; kv</text>
<text text-anchor="middle" x="881" y="-133" font-family="Helvetica,sans-Serif" font-size="10.00">::AbstractMap &gt;</text>
</a>
</g>
</g>
<!-- Node14&#45;&gt;Node13 -->
<g id="edge14" class="edge">
<title>Node14&#45;&gt;Node13</title>
<path fill="none" stroke="#9a32cd" stroke-dasharray="5,2" d="M947.85,-132.73C976.16,-129.18 1009.02,-125.05 1036.68,-121.58"/>
<polygon fill="#9a32cd" stroke="#9a32cd" points="947.13,-129.29 937.65,-134.01 948.01,-136.24 947.13,-129.29"/>
<text text-anchor="middle" x="992" y="-133" font-family="Helvetica,sans-Serif" font-size="10.00"> elements</text>
</g>
<!-- Node19 -->
<g id="node19" class="node">
<title>Node19</title>
<g id="a_node19"><a xlink:href="structkv_1_1MapChanges.html" target="_top" xlink:title=" ">
<polygon fill="white" stroke="black" points="1049.5,-155.5 1049.5,-174.5 1146.5,-174.5 1146.5,-155.5 1049.5,-155.5"/>
<text text-anchor="middle" x="1098" y="-162.5" font-family="Helvetica,sans-Serif" font-size="10.00">kv::MapChanges</text>
</a>
</g>
</g>
<!-- Node14&#45;&gt;Node19 -->
<g id="edge22" class="edge">
<title>Node14&#45;&gt;Node19</title>
<path fill="none" stroke="#9a32cd" stroke-dasharray="5,2" d="M947.61,-148.32C980.39,-151.98 1019.34,-156.33 1049.24,-159.67"/>
<polygon fill="#9a32cd" stroke="#9a32cd" points="947.97,-144.84 937.65,-147.21 947.2,-151.8 947.97,-144.84"/>
<text text-anchor="middle" x="992" y="-158" font-family="Helvetica,sans-Serif" font-size="10.00"> map</text>
</g>
<!-- Node15 -->
<g id="node15" class="node">
<title>Node15</title>
<g id="a_node15"><a xlink:href="classkv_1_1AbstractMap.html" target="_top" xlink:title=" ">
<polygon fill="white" stroke="black" points="639.5,-131.5 639.5,-150.5 734.5,-150.5 734.5,-131.5 639.5,-131.5"/>
<text text-anchor="middle" x="687" y="-138.5" font-family="Helvetica,sans-Serif" font-size="10.00">kv::AbstractMap</text>
</a>
</g>
</g>
<!-- Node15&#45;&gt;Node14 -->
<g id="edge15" class="edge">
<title>Node15&#45;&gt;Node14</title>
<path fill="none" stroke="#9a32cd" stroke-dasharray="5,2" d="M745.06,-141C770.11,-141 799.41,-141 824.31,-141"/>
<polygon fill="#9a32cd" stroke="#9a32cd" points="744.97,-137.5 734.97,-141 744.97,-144.5 744.97,-137.5"/>
<text text-anchor="middle" x="784" y="-144" font-family="Helvetica,sans-Serif" font-size="10.00"> ptr</text>
</g>
<!-- Node16 -->
<g id="node16" class="node">
<title>Node16</title>
<g id="a_node16"><a xlink:title=" ">
<polygon fill="white" stroke="black" points="365.5,-137 365.5,-167 517.5,-167 517.5,-137 365.5,-137"/>
<text text-anchor="start" x="373.5" y="-155" font-family="Helvetica,sans-Serif" font-size="10.00">std::enable_shared</text>
<text text-anchor="middle" x="441.5" y="-144" font-family="Helvetica,sans-Serif" font-size="10.00">_from_this&lt; AbstractMap &gt;</text>
</a>
</g>
</g>
<!-- Node16&#45;&gt;Node15 -->
<g id="edge16" class="edge">
<title>Node16&#45;&gt;Node15</title>
<path fill="none" stroke="midnightblue" d="M527.94,-148.14C565.3,-146.45 607.68,-144.54 639.15,-143.12"/>
<polygon fill="midnightblue" stroke="midnightblue" points="527.38,-144.66 517.54,-148.61 527.69,-151.65 527.38,-144.66"/>
</g>
<!-- Node17&#45;&gt;Node15 -->
<g id="edge17" class="edge">
<title>Node17&#45;&gt;Node15</title>
<path fill="none" stroke="midnightblue" d="M491.61,-114.66C534.77,-120.5 597.12,-128.95 639.48,-134.7"/>
<polygon fill="midnightblue" stroke="midnightblue" points="492,-111.18 481.62,-113.3 491.06,-118.11 492,-111.18"/>
</g>
<!-- Node18&#45;&gt;Node4 -->
<g id="edge19" class="edge">
<title>Node18&#45;&gt;Node4</title>
<path fill="none" stroke="#9a32cd" stroke-dasharray="5,2" d="M1405.36,-159.06C1465.97,-153.91 1555.76,-146.16 1634,-139 1639.78,-138.47 1645.92,-137.89 1651.88,-137.33"/>
<polygon fill="#9a32cd" stroke="#9a32cd" points="1404.82,-155.6 1395.15,-159.93 1405.41,-162.57 1404.82,-155.6"/>
<text text-anchor="middle" x="1519" y="-157" font-family="Helvetica,sans-Serif" font-size="10.00"> all_changes</text>
</g>
<!-- Node19&#45;&gt;Node18 -->
<g id="edge21" class="edge">
<title>Node19&#45;&gt;Node18</title>
<path fill="none" stroke="#9a32cd" stroke-dasharray="5,2" d="M1156.79,-165C1192.11,-165 1237.2,-165 1272.93,-165"/>
<polygon fill="#9a32cd" stroke="#9a32cd" points="1156.64,-161.5 1146.64,-165 1156.64,-168.5 1156.64,-161.5"/>
<text text-anchor="middle" x="1213.5" y="-168" font-family="Helvetica,sans-Serif" font-size="10.00"> elements</text>
</g>
<!-- Node20 -->
<g id="node20" class="node">
<title>Node20</title>
<g id="a_node20"><a xlink:title=" ">
<polygon fill="white" stroke="black" points="815,-191 815,-221 947,-221 947,-191 815,-191"/>
<text text-anchor="start" x="823" y="-209" font-family="Helvetica,sans-Serif" font-size="10.00">std::unique_ptr&lt; kv</text>
<text text-anchor="middle" x="881" y="-198" font-family="Helvetica,sans-Serif" font-size="10.00">::untyped::ChangeSet &gt;</text>
</a>
</g>
</g>
<!-- Node20&#45;&gt;Node19 -->
<g id="edge23" class="edge">
<title>Node20&#45;&gt;Node19</title>
<path fill="none" stroke="#9a32cd" stroke-dasharray="5,2" d="M957.29,-191.64C987.83,-185.82 1022.2,-179.26 1049.2,-174.11"/>
<polygon fill="#9a32cd" stroke="#9a32cd" points="956.26,-188.28 947.09,-193.59 957.57,-195.15 956.26,-188.28"/>
<text text-anchor="middle" x="992" y="-192" font-family="Helvetica,sans-Serif" font-size="10.00"> changeset</text>
</g>
<!-- Node21 -->
<g id="node21" class="node">
<title>Node21</title>
<g id="a_node21"><a xlink:href="structkv_1_1untyped_1_1ChangeSet.html" target="_top" xlink:title=" ">
<polygon fill="white" stroke="black" points="621,-224.5 621,-243.5 753,-243.5 753,-224.5 621,-224.5"/>
<text text-anchor="middle" x="687" y="-231.5" font-family="Helvetica,sans-Serif" font-size="10.00">kv::untyped::ChangeSet</text>
</a>
</g>
</g>
<!-- Node21&#45;&gt;Node20 -->
<g id="edge24" class="edge">
<title>Node21&#45;&gt;Node20</title>
<path fill="none" stroke="#9a32cd" stroke-dasharray="5,2" d="M762.94,-223.07C780.04,-220.58 798.08,-217.95 814.74,-215.52"/>
<polygon fill="#9a32cd" stroke="#9a32cd" points="762.39,-219.61 753,-224.52 763.4,-226.54 762.39,-219.61"/>
<text text-anchor="middle" x="784" y="-224" font-family="Helvetica,sans-Serif" font-size="10.00"> ptr</text>
</g>
<!-- Node22 -->
<g id="node22" class="node">
<title>Node22</title>
<g id="a_node22"><a xlink:href="classkv_1_1AbstractChangeSet.html" target="_top" xlink:title=" ">
<polygon fill="white" stroke="black" points="378,-224.5 378,-243.5 505,-243.5 505,-224.5 378,-224.5"/>
<text text-anchor="middle" x="441.5" y="-231.5" font-family="Helvetica,sans-Serif" font-size="10.00">kv::AbstractChangeSet</text>
</a>
</g>
</g>
<!-- Node22&#45;&gt;Node21 -->
<g id="edge25" class="edge">
<title>Node22&#45;&gt;Node21</title>
<path fill="none" stroke="midnightblue" d="M515.41,-234C548.96,-234 588.43,-234 620.96,-234"/>
<polygon fill="midnightblue" stroke="midnightblue" points="515.21,-230.5 505.21,-234 515.21,-237.5 515.21,-230.5"/>
</g>
<!-- Node23 -->
<g id="node23" class="node">
<title>Node23</title>
<g id="a_node23"><a xlink:href="classchamp_1_1Map.html" target="_top" xlink:title=" ">
<polygon fill="white" stroke="black" points="375.5,-186.5 375.5,-205.5 507.5,-205.5 507.5,-186.5 375.5,-186.5"/>
<text text-anchor="middle" x="441.5" y="-193.5" font-family="Helvetica,sans-Serif" font-size="10.00">champ::Map&lt; K, V, H &gt;</text>
</a>
</g>
</g>
<!-- Node23&#45;&gt;Node21 -->
<g id="edge26" class="edge">
<title>Node23&#45;&gt;Node21</title>
<path fill="none" stroke="#9a32cd" stroke-dasharray="5,2" d="M517.93,-198.08C544.94,-199.76 575.5,-202.74 603,-208 622.73,-211.78 644.36,-218.65 660.59,-224.38"/>
<polygon fill="#9a32cd" stroke="#9a32cd" points="517.95,-194.57 507.76,-197.49 517.55,-201.56 517.95,-194.57"/>
<text text-anchor="middle" x="574.5" y="-222" font-family="Helvetica,sans-Serif" font-size="10.00"> committed</text>
<text text-anchor="middle" x="574.5" y="-211" font-family="Helvetica,sans-Serif" font-size="10.00">state</text>
</g>
<!-- Node24 -->
<g id="node24" class="node">
<title>Node24</title>
<g id="a_node24"><a xlink:title=" ">
<polygon fill="white" stroke="black" points="355,-373 355,-403 528,-403 528,-373 355,-373"/>
<text text-anchor="start" x="363" y="-391" font-family="Helvetica,sans-Serif" font-size="10.00">std::map&lt; K, std::tuple</text>
<text text-anchor="middle" x="441.5" y="-380" font-family="Helvetica,sans-Serif" font-size="10.00">&lt; Version, LastReadVersion &gt; &gt;</text>
</a>
</g>
</g>
<!-- Node24&#45;&gt;Node21 -->
<g id="edge27" class="edge">
<title>Node24&#45;&gt;Node21</title>
<path fill="none" stroke="#9a32cd" stroke-dasharray="5,2" d="M475.01,-367.44C528.32,-333.73 632.24,-268 670.97,-243.5"/>
<polygon fill="#9a32cd" stroke="#9a32cd" points="472.87,-364.65 466.29,-372.95 476.61,-370.57 472.87,-364.65"/>
<text text-anchor="middle" x="574.5" y="-323" font-family="Helvetica,sans-Serif" font-size="10.00"> reads</text>
</g>
<!-- Node25 -->
<g id="node25" class="node">
<title>Node25</title>
<g id="a_node25"><a xlink:title=" ">
<polygon fill="white" stroke="black" points="215,-378.5 215,-397.5 244,-397.5 244,-378.5 215,-378.5"/>
<text text-anchor="middle" x="229.5" y="-385.5" font-family="Helvetica,sans-Serif" font-size="10.00">K</text>
</a>
</g>
</g>
<!-- Node25&#45;&gt;Node24 -->
<g id="edge28" class="edge">
<title>Node25&#45;&gt;Node24</title>
<path fill="none" stroke="#9a32cd" stroke-dasharray="5,2" d="M254.41,-388C278.92,-388 318.47,-388 354.82,-388"/>
<polygon fill="#9a32cd" stroke="#9a32cd" points="254.28,-384.5 244.28,-388 254.28,-391.5 254.28,-384.5"/>
<text text-anchor="middle" x="312.5" y="-391" font-family="Helvetica,sans-Serif" font-size="10.00"> keys</text>
</g>
<!-- Node26 -->
<g id="node26" class="node">
<title>Node26</title>
<g id="a_node26"><a xlink:title=" ">
<polygon fill="white" stroke="black" points="371,-263 371,-315 512,-315 512,-263 371,-263"/>
<text text-anchor="start" x="379" y="-303" font-family="Helvetica,sans-Serif" font-size="10.00">std::map&lt; kv::serialisers</text>
<text text-anchor="start" x="379" y="-292" font-family="Helvetica,sans-Serif" font-size="10.00">::SerialisedEntry, std</text>
<text text-anchor="start" x="379" y="-281" font-family="Helvetica,sans-Serif" font-size="10.00">::optional&lt; kv::serialisers</text>
<text text-anchor="middle" x="441.5" y="-270" font-family="Helvetica,sans-Serif" font-size="10.00">::SerialisedEntry &gt; &gt;</text>
</a>
</g>
</g>
<!-- Node26&#45;&gt;Node21 -->
<g id="edge29" class="edge">
<title>Node26&#45;&gt;Node21</title>
<path fill="none" stroke="#9a32cd" stroke-dasharray="5,2" d="M522.14,-271.01C562.67,-261.86 610.29,-251.1 643.72,-243.55"/>
<polygon fill="#9a32cd" stroke="#9a32cd" points="521.26,-267.62 512.28,-273.24 522.8,-274.45 521.26,-267.62"/>
<text text-anchor="middle" x="574.5" y="-267" font-family="Helvetica,sans-Serif" font-size="10.00"> writes</text>
</g>
<!-- Node27 -->
<g id="node27" class="node">
<title>Node27</title>
<g id="a_node27"><a xlink:href="structkv_1_1AbstractChangeContainer.html" target="_top" xlink:title=" ">
<polygon fill="white" stroke="black" points="1889,-86.5 1889,-105.5 2047,-105.5 2047,-86.5 1889,-86.5"/>
<text text-anchor="middle" x="1968" y="-93.5" font-family="Helvetica,sans-Serif" font-size="10.00">kv::AbstractChangeContainer</text>
</a>
</g>
</g>
<!-- Node27&#45;&gt;Node1 -->
<g id="edge30" class="edge">
<title>Node27&#45;&gt;Node1</title>
<path fill="none" stroke="midnightblue" d="M2057.3,-102.27C2066.37,-102.91 2075.37,-103.55 2083.9,-104.16"/>
<polygon fill="midnightblue" stroke="midnightblue" points="2057.29,-98.76 2047.07,-101.54 2056.8,-105.74 2057.29,-98.76"/>
</g>
</g>
</svg>
        <g id="navigator" transform="translate(0 0)" fill="#404254">
                <rect fill="#f2f5e9" fill-opacity="0.5" stroke="#606060" stroke-width=".5" x="0" y="0" width="60" height="60"/>
                <use id="zoomplus" xlink:href="#zoomPlus" x="17" y="9" onmousedown="handleZoom(evt,'in')"/>
                <use id="zoomminus" xlink:href="#zoomMin" x="42" y="9" onmousedown="handleZoom(evt,'out')"/>
                <use id="reset" xlink:href="#resetDef" x="30" y="36" onmousedown="handleReset()"/>
                <g id="arrowUp" xlink:href="#dirArrow" transform="translate(30 24)" onmousedown="handlePan(0,-1)">
                  <use xlink:href="#rim" fill="#404040">
                        <set attributeName="fill" to="#808080" begin="arrowUp.mouseover" end="arrowUp.mouseout"/>
                  </use>
                  <path fill="none" stroke="white" stroke-width="1.5" d="M0,-3.0v7 M-2.5,-0.5L0,-3.0L2.5,-0.5"/>
                </g>
                <g id="arrowRight" xlink:href="#dirArrow" transform="rotate(90) translate(36 -43)" onmousedown="handlePan(1,0)">
                  <use xlink:href="#rim" fill="#404040">
                        <set attributeName="fill" to="#808080" begin="arrowRight.mouseover" end="arrowRight.mouseout"/>
                  </use>
                  <path fill="none" stroke="white" stroke-width="1.5" d="M0,-3.0v7 M-2.5,-0.5L0,-3.0L2.5,-0.5"/>
                </g>
                <g id="arrowDown" xlink:href="#dirArrow" transform="rotate(180) translate(-30 -48)" onmousedown="handlePan(0,1)">
                  <use xlink:href="#rim" fill="#404040">
                        <set attributeName="fill" to="#808080" begin="arrowDown.mouseover" end="arrowDown.mouseout"/>
                  </use>
                  <path fill="none" stroke="white" stroke-width="1.5" d="M0,-3.0v7 M-2.5,-0.5L0,-3.0L2.5,-0.5"/>
                </g>
                <g id="arrowLeft" xlink:href="#dirArrow" transform="rotate(270) translate(-36 17)" onmousedown="handlePan(-1,0)">
                  <use xlink:href="#rim" fill="#404040">
                        <set attributeName="fill" to="#808080" begin="arrowLeft.mouseover" end="arrowLeft.mouseout"/>
                  </use>
                  <path fill="none" stroke="white" stroke-width="1.5" d="M0,-3.0v7 M-2.5,-0.5L0,-3.0L2.5,-0.5"/>
                </g>
        </g>
        <svg viewBox="0 0 15 15" width="100%" height="30px" preserveAspectRatio="xMaxYMin meet">
         <g id="arrow_out" transform="scale(0.3 0.3)">
          <a xlink:href="classkv_1_1CommittableTx__coll__graph_org.svg" target="_base">
           <rect id="button" ry="5" rx="5" y="6" x="6" height="38" width="38"
                fill="#f2f5e9" fill-opacity="0.5" stroke="#606060" stroke-width="1.0"/>
           <path id="arrow"
             d="M 11.500037,31.436501 C 11.940474,20.09759 22.043105,11.32322 32.158766,21.979434 L 37.068811,17.246167 C 37.068811,17.246167 37.088388,32 37.088388,32 L 22.160133,31.978069 C 22.160133,31.978069 26.997745,27.140456 26.997745,27.140456 C 18.528582,18.264221 13.291696,25.230495 11.500037,31.436501 z"
             style="fill:#404040;"/>
          </a>
         </g>
        </svg>
</svg>
