<?xml version="1.0" encoding="UTF-8" standalone="no"?>
<!DOCTYPE svg PUBLIC "-//W3C//DTD SVG 1.1//EN"
 "http://www.w3.org/Graphics/SVG/1.1/DTD/svg11.dtd">
<!-- Generated by graphviz version 2.43.0 (0)
 -->
<!-- Title: src/kv/deserialise.h Pages: 1 -->
<svg width="2220pt" height="587pt"
 viewBox="0.00 0.00 2219.73 587.00" xmlns="http://www.w3.org/2000/svg" xmlns:xlink="http://www.w3.org/1999/xlink">
<g id="graph0" class="graph" transform="scale(1 1) rotate(0) translate(4 583)">
<title>src/kv/deserialise.h</title>
<polygon fill="white" stroke="transparent" points="-4,4 -4,-583 2215.73,-583 2215.73,4 -4,4"/>
<!-- Node1 -->
<g id="node1" class="node">
<title>Node1</title>
<g id="a_node1"><a xlink:title=" ">
<polygon fill="#bfbfbf" stroke="black" points="358.5,-559.5 358.5,-578.5 469.5,-578.5 469.5,-559.5 358.5,-559.5"/>
<text text-anchor="middle" x="414" y="-566.5" font-family="Helvetica,sans-Serif" font-size="10.00">src/kv/deserialise.h</text>
</a>
</g>
</g>
<!-- Node2 -->
<g id="node2" class="node">
<title>Node2</title>
<g id="a_node2"><a xlink:href="store_8h.html" target="_top" xlink:title=" ">
<polygon fill="white" stroke="black" points="372.5,-503.5 372.5,-522.5 455.5,-522.5 455.5,-503.5 372.5,-503.5"/>
<text text-anchor="middle" x="414" y="-510.5" font-family="Helvetica,sans-Serif" font-size="10.00">src/kv/store.h</text>
</a>
</g>
</g>
<!-- Node1&#45;&gt;Node2 -->
<g id="edge1" class="edge">
<title>Node1&#45;&gt;Node2</title>
<path fill="none" stroke="midnightblue" d="M414,-548.8C414,-539.91 414,-529.78 414,-522.75"/>
<polygon fill="midnightblue" stroke="midnightblue" points="410.5,-549.08 414,-559.08 417.5,-549.08 410.5,-549.08"/>
</g>
<!-- Node3 -->
<g id="node3" class="node">
<title>Node3</title>
<g id="a_node3"><a xlink:href="indexer_8h.html" target="_top" xlink:title=" ">
<polygon fill="white" stroke="black" points="221.5,-442 221.5,-461 344.5,-461 344.5,-442 221.5,-442"/>
<text text-anchor="middle" x="283" y="-449" font-family="Helvetica,sans-Serif" font-size="10.00">src/indexing/indexer.h</text>
</a>
</g>
</g>
<!-- Node2&#45;&gt;Node3 -->
<g id="edge2" class="edge">
<title>Node2&#45;&gt;Node3</title>
<path fill="none" stroke="midnightblue" d="M386.1,-499.33C360.67,-487.78 323.8,-471.03 301.73,-461.01"/>
<polygon fill="midnightblue" stroke="midnightblue" points="384.68,-502.53 395.23,-503.48 387.57,-496.15 384.68,-502.53"/>
</g>
<!-- Node8 -->
<g id="node8" class="node">
<title>Node8</title>
<g id="a_node8"><a xlink:href="visit__each__entry__in__map_8cpp.html" target="_top" xlink:title=" ">
<polygon fill="white" stroke="black" points="42.5,-436.5 42.5,-466.5 203.5,-466.5 203.5,-436.5 42.5,-436.5"/>
<text text-anchor="start" x="50.5" y="-454.5" font-family="Helvetica,sans-Serif" font-size="10.00">src/indexing/strategies</text>
<text text-anchor="middle" x="123" y="-443.5" font-family="Helvetica,sans-Serif" font-size="10.00">/visit_each_entry_in_map.cpp</text>
</a>
</g>
</g>
<!-- Node2&#45;&gt;Node8 -->
<g id="edge8" class="edge">
<title>Node2&#45;&gt;Node8</title>
<path fill="none" stroke="midnightblue" d="M362.23,-501.41C314.67,-491.69 243.84,-477.21 191.58,-466.52"/>
<polygon fill="midnightblue" stroke="midnightblue" points="361.81,-504.9 372.31,-503.48 363.21,-498.04 361.81,-504.9"/>
</g>
<!-- Node9 -->
<g id="node9" class="node">
<title>Node9</title>
<g id="a_node9"><a xlink:href="historical__queries_8h.html" target="_top" xlink:title=" ">
<polygon fill="white" stroke="black" points="0,-302.5 0,-332.5 106,-332.5 106,-302.5 0,-302.5"/>
<text text-anchor="start" x="8" y="-320.5" font-family="Helvetica,sans-Serif" font-size="10.00">src/node/historical</text>
<text text-anchor="middle" x="53" y="-309.5" font-family="Helvetica,sans-Serif" font-size="10.00">_queries.h</text>
</a>
</g>
</g>
<!-- Node2&#45;&gt;Node9 -->
<g id="edge9" class="edge">
<title>Node2&#45;&gt;Node9</title>
<path fill="none" stroke="midnightblue" d="M362.13,-509.64C262.99,-504.59 54.5,-491.19 33,-467 -0.87,-428.89 28.85,-362.09 44.64,-332.87"/>
<polygon fill="midnightblue" stroke="midnightblue" points="362.07,-513.14 372.23,-510.14 362.42,-506.15 362.07,-513.14"/>
</g>
<!-- Node11 -->
<g id="node11" class="node">
<title>Node11</title>
<g id="a_node11"><a xlink:href="history_8h.html" target="_top" xlink:title=" ">
<polygon fill="white" stroke="black" points="363,-442 363,-461 465,-461 465,-442 363,-442"/>
<text text-anchor="middle" x="414" y="-449" font-family="Helvetica,sans-Serif" font-size="10.00">src/node/history.h</text>
</a>
</g>
</g>
<!-- Node2&#45;&gt;Node11 -->
<g id="edge13" class="edge">
<title>Node2&#45;&gt;Node11</title>
<path fill="none" stroke="midnightblue" d="M414,-493.32C414,-482.5 414,-469.4 414,-461.01"/>
<polygon fill="midnightblue" stroke="midnightblue" points="410.5,-493.48 414,-503.48 417.5,-493.48 410.5,-493.48"/>
</g>
<!-- Node13 -->
<g id="node13" class="node">
<title>Node13</title>
<g id="a_node13"><a xlink:href="snapshotter_8h.html" target="_top" xlink:title=" ">
<polygon fill="white" stroke="black" points="438.5,-241 438.5,-260 565.5,-260 565.5,-241 438.5,-241"/>
<text text-anchor="middle" x="502" y="-248" font-family="Helvetica,sans-Serif" font-size="10.00">src/node/snapshotter.h</text>
</a>
</g>
</g>
<!-- Node2&#45;&gt;Node13 -->
<g id="edge37" class="edge">
<title>Node2&#45;&gt;Node13</title>
<path fill="none" stroke="midnightblue" d="M440.46,-498.23C452.53,-490.62 465.9,-480.04 474,-467 517.2,-397.46 507.28,-290.97 503.26,-260.14"/>
<polygon fill="midnightblue" stroke="midnightblue" points="438.43,-495.37 431.6,-503.47 441.99,-501.4 438.43,-495.37"/>
</g>
<!-- Node16 -->
<g id="node16" class="node">
<title>Node16</title>
<g id="a_node16"><a xlink:href="frontend_8h.html" target="_top" xlink:title=" ">
<polygon fill="white" stroke="black" points="1339.5,-375 1339.5,-394 1468.5,-394 1468.5,-375 1339.5,-375"/>
<text text-anchor="middle" x="1404" y="-382" font-family="Helvetica,sans-Serif" font-size="10.00">src/node/rpc/frontend.h</text>
</a>
</g>
</g>
<!-- Node2&#45;&gt;Node16 -->
<g id="edge23" class="edge">
<title>Node2&#45;&gt;Node16</title>
<path fill="none" stroke="midnightblue" d="M465.58,-505.41C632.16,-484.12 1155.6,-417.24 1339.41,-393.75"/>
<polygon fill="midnightblue" stroke="midnightblue" points="465.07,-501.95 455.59,-506.69 465.96,-508.89 465.07,-501.95"/>
</g>
<!-- Node23 -->
<g id="node23" class="node">
<title>Node23</title>
<g id="a_node23"><a xlink:href="network__tables_8h.html" target="_top" xlink:title=" ">
<polygon fill="white" stroke="black" points="632,-436.5 632,-466.5 744,-466.5 744,-436.5 632,-436.5"/>
<text text-anchor="start" x="640" y="-454.5" font-family="Helvetica,sans-Serif" font-size="10.00">src/service/network</text>
<text text-anchor="middle" x="688" y="-443.5" font-family="Helvetica,sans-Serif" font-size="10.00">_tables.h</text>
</a>
</g>
</g>
<!-- Node2&#45;&gt;Node23 -->
<g id="edge38" class="edge">
<title>Node2&#45;&gt;Node23</title>
<path fill="none" stroke="midnightblue" d="M463.29,-501.3C510.72,-491 582.36,-475.44 631.95,-464.67"/>
<polygon fill="midnightblue" stroke="midnightblue" points="462.29,-497.93 453.26,-503.48 463.77,-504.77 462.29,-497.93"/>
</g>
<!-- Node4 -->
<g id="node4" class="node">
<title>Node4</title>
<g id="a_node4"><a xlink:href="node__state_8h.html" target="_top" xlink:title=" ">
<polygon fill="white" stroke="black" points="774,-179.5 774,-198.5 898,-198.5 898,-179.5 774,-179.5"/>
<text text-anchor="middle" x="836" y="-186.5" font-family="Helvetica,sans-Serif" font-size="10.00">src/node/node_state.h</text>
</a>
</g>
</g>
<!-- Node3&#45;&gt;Node4 -->
<g id="edge3" class="edge">
<title>Node3&#45;&gt;Node4</title>
<path fill="none" stroke="midnightblue" d="M250.35,-437.94C231.34,-429.4 207.87,-416.64 191,-400 157.74,-367.2 125.69,-339.9 153,-302 224.97,-202.15 619.19,-190.38 773.77,-189.67"/>
<polygon fill="midnightblue" stroke="midnightblue" points="248.98,-441.16 259.55,-441.9 251.75,-434.73 248.98,-441.16"/>
</g>
<!-- Node5 -->
<g id="node5" class="node">
<title>Node5</title>
<g id="a_node5"><a xlink:href="src_2enclave_2enclave_8h.html" target="_top" xlink:title=" ">
<polygon fill="white" stroke="black" points="1149,-56.5 1149,-75.5 1271,-75.5 1271,-56.5 1149,-56.5"/>
<text text-anchor="middle" x="1210" y="-63.5" font-family="Helvetica,sans-Serif" font-size="10.00">src/enclave/enclave.h</text>
</a>
</g>
</g>
<!-- Node4&#45;&gt;Node5 -->
<g id="edge4" class="edge">
<title>Node4&#45;&gt;Node5</title>
<path fill="none" stroke="midnightblue" d="M874.21,-176.48C903.71,-167.53 945.51,-154.7 982,-143 1056.1,-119.23 1143.24,-89.76 1185.09,-75.51"/>
<polygon fill="midnightblue" stroke="midnightblue" points="872.88,-173.23 864.32,-179.48 874.91,-179.93 872.88,-173.23"/>
</g>
<!-- Node7 -->
<g id="node7" class="node">
<title>Node7</title>
<g id="a_node7"><a xlink:href="gov__effects_8h.html" target="_top" xlink:title=" ">
<polygon fill="white" stroke="black" points="829,-118 829,-137 973,-137 973,-118 829,-118"/>
<text text-anchor="middle" x="901" y="-125" font-family="Helvetica,sans-Serif" font-size="10.00">src/node/rpc/gov_effects.h</text>
</a>
</g>
</g>
<!-- Node4&#45;&gt;Node7 -->
<g id="edge6" class="edge">
<title>Node4&#45;&gt;Node7</title>
<path fill="none" stroke="midnightblue" d="M852.77,-172.65C865.16,-161.31 881.58,-146.28 891.7,-137.01"/>
<polygon fill="midnightblue" stroke="midnightblue" points="850.33,-170.14 845.31,-179.48 855.05,-175.3 850.33,-170.14"/>
</g>
<!-- Node6 -->
<g id="node6" class="node">
<title>Node6</title>
<g id="a_node6"><a xlink:href="enclave_2main_8cpp.html" target="_top" xlink:title=" ">
<polygon fill="white" stroke="black" points="1150,-0.5 1150,-19.5 1270,-19.5 1270,-0.5 1150,-0.5"/>
<text text-anchor="middle" x="1210" y="-7.5" font-family="Helvetica,sans-Serif" font-size="10.00">src/enclave/main.cpp</text>
</a>
</g>
</g>
<!-- Node5&#45;&gt;Node6 -->
<g id="edge5" class="edge">
<title>Node5&#45;&gt;Node6</title>
<path fill="none" stroke="midnightblue" d="M1210,-45.8C1210,-36.91 1210,-26.78 1210,-19.75"/>
<polygon fill="midnightblue" stroke="midnightblue" points="1206.5,-46.08 1210,-56.08 1213.5,-46.08 1206.5,-46.08"/>
</g>
<!-- Node7&#45;&gt;Node5 -->
<g id="edge7" class="edge">
<title>Node7&#45;&gt;Node5</title>
<path fill="none" stroke="midnightblue" d="M955.29,-116.05C1015.16,-104.52 1110.32,-86.19 1165.81,-75.51"/>
<polygon fill="midnightblue" stroke="midnightblue" points="954.43,-112.65 945.27,-117.98 955.75,-119.52 954.43,-112.65"/>
</g>
<!-- Node9&#45;&gt;Node5 -->
<g id="edge10" class="edge">
<title>Node9&#45;&gt;Node5</title>
<path fill="none" stroke="midnightblue" d="M57.99,-292.32C62.59,-274.82 70.91,-251.44 85,-235 162.73,-144.28 208.09,-140.91 324,-112 480.63,-72.93 974.82,-67.67 1148.73,-67.05"/>
<polygon fill="midnightblue" stroke="midnightblue" points="54.51,-291.81 55.58,-302.35 61.32,-293.44 54.51,-291.81"/>
</g>
<!-- Node10 -->
<g id="node10" class="node">
<title>Node10</title>
<g id="a_node10"><a xlink:href="historical__transaction__fetcher_8h.html" target="_top" xlink:title=" ">
<polygon fill="white" stroke="black" points="332.5,-112.5 332.5,-142.5 457.5,-142.5 457.5,-112.5 332.5,-112.5"/>
<text text-anchor="start" x="340.5" y="-130.5" font-family="Helvetica,sans-Serif" font-size="10.00">src/indexing/historical</text>
<text text-anchor="middle" x="395" y="-119.5" font-family="Helvetica,sans-Serif" font-size="10.00">_transaction_fetcher.h</text>
</a>
</g>
</g>
<!-- Node9&#45;&gt;Node10 -->
<g id="edge11" class="edge">
<title>Node9&#45;&gt;Node10</title>
<path fill="none" stroke="midnightblue" d="M67.15,-293.46C79.25,-275.42 98.13,-250.81 120,-235 185.55,-187.6 274.94,-158.14 333.77,-142.53"/>
<polygon fill="midnightblue" stroke="midnightblue" points="63.98,-291.92 61.46,-302.21 69.85,-295.73 63.98,-291.92"/>
</g>
<!-- Node10&#45;&gt;Node5 -->
<g id="edge12" class="edge">
<title>Node10&#45;&gt;Node5</title>
<path fill="none" stroke="midnightblue" d="M467.73,-121.19C626.44,-109.6 1001.35,-82.23 1148.86,-71.46"/>
<polygon fill="midnightblue" stroke="midnightblue" points="467.32,-117.71 457.6,-121.93 467.83,-124.69 467.32,-117.71"/>
</g>
<!-- Node11&#45;&gt;Node4 -->
<g id="edge15" class="edge">
<title>Node11&#45;&gt;Node4</title>
<path fill="none" stroke="midnightblue" d="M394.18,-435.52C361.5,-408.9 302.44,-351.5 329,-302 354.47,-254.54 379.36,-253.37 430,-235 491.67,-212.63 676.23,-199.09 773.86,-193.3"/>
<polygon fill="midnightblue" stroke="midnightblue" points="392.21,-438.43 402.23,-441.89 396.56,-432.94 392.21,-438.43"/>
</g>
<!-- Node11&#45;&gt;Node9 -->
<g id="edge14" class="edge">
<title>Node11&#45;&gt;Node9</title>
<path fill="none" stroke="midnightblue" d="M369.31,-439.6C364.15,-438.37 358.96,-437.15 354,-436 281.72,-419.29 260.02,-427.2 191,-400 145.96,-382.25 98.39,-350.98 72.54,-332.76"/>
<polygon fill="midnightblue" stroke="midnightblue" points="368.59,-443.02 379.13,-441.95 370.22,-436.22 368.59,-443.02"/>
</g>
<!-- Node12 -->
<g id="node12" class="node">
<title>Node12</title>
<g id="a_node12"><a xlink:href="snapshot__serdes_8h.html" target="_top" xlink:title=" ">
<polygon fill="white" stroke="black" points="338,-308 338,-327 490,-327 490,-308 338,-308"/>
<text text-anchor="middle" x="414" y="-315" font-family="Helvetica,sans-Serif" font-size="10.00">src/node/snapshot_serdes.h</text>
</a>
</g>
</g>
<!-- Node11&#45;&gt;Node12 -->
<g id="edge16" class="edge">
<title>Node11&#45;&gt;Node12</title>
<path fill="none" stroke="midnightblue" d="M414,-431.78C414,-402.75 414,-348.04 414,-327.02"/>
<polygon fill="midnightblue" stroke="midnightblue" points="410.5,-431.84 414,-441.84 417.5,-431.84 410.5,-431.84"/>
</g>
<!-- Node14 -->
<g id="node14" class="node">
<title>Node14</title>
<g id="a_node14"><a xlink:href="tx__receipt__impl_8h.html" target="_top" xlink:title=" ">
<polygon fill="white" stroke="black" points="200,-369.5 200,-399.5 310,-399.5 310,-369.5 200,-369.5"/>
<text text-anchor="start" x="208" y="-387.5" font-family="Helvetica,sans-Serif" font-size="10.00">src/node/tx_receipt</text>
<text text-anchor="middle" x="255" y="-376.5" font-family="Helvetica,sans-Serif" font-size="10.00">_impl.h</text>
</a>
</g>
</g>
<!-- Node11&#45;&gt;Node14 -->
<g id="edge19" class="edge">
<title>Node11&#45;&gt;Node14</title>
<path fill="none" stroke="midnightblue" d="M383.56,-438.06C356.63,-427.05 317.36,-410.99 289.31,-399.53"/>
<polygon fill="midnightblue" stroke="midnightblue" points="382.31,-441.32 392.89,-441.87 384.95,-434.84 382.31,-441.32"/>
</g>
<!-- Node12&#45;&gt;Node13 -->
<g id="edge17" class="edge">
<title>Node12&#45;&gt;Node13</title>
<path fill="none" stroke="midnightblue" d="M434.22,-301.57C451.59,-288.74 476.03,-270.69 490.32,-260.13"/>
<polygon fill="midnightblue" stroke="midnightblue" points="431.83,-298.98 425.87,-307.73 435.99,-304.61 431.83,-298.98"/>
</g>
<!-- Node13&#45;&gt;Node4 -->
<g id="edge18" class="edge">
<title>Node13&#45;&gt;Node4</title>
<path fill="none" stroke="midnightblue" d="M557.28,-239.15C564.91,-237.75 572.65,-236.33 580,-235 651.72,-222.03 734.83,-207.52 786.42,-198.57"/>
<polygon fill="midnightblue" stroke="midnightblue" points="556.55,-235.73 547.36,-240.99 557.83,-242.61 556.55,-235.73"/>
</g>
<!-- Node14&#45;&gt;Node9 -->
<g id="edge20" class="edge">
<title>Node14&#45;&gt;Node9</title>
<path fill="none" stroke="midnightblue" d="M201.32,-366.23C168.65,-355.71 127.43,-342.45 96.75,-332.58"/>
<polygon fill="midnightblue" stroke="midnightblue" points="200.58,-369.66 211.17,-369.4 202.72,-363 200.58,-369.66"/>
</g>
<!-- Node14&#45;&gt;Node12 -->
<g id="edge22" class="edge">
<title>Node14&#45;&gt;Node12</title>
<path fill="none" stroke="midnightblue" d="M299.13,-365.46C329.85,-352.9 369.42,-336.72 393.19,-327.01"/>
<polygon fill="midnightblue" stroke="midnightblue" points="297.43,-362.37 289.5,-369.4 300.08,-368.85 297.43,-362.37"/>
</g>
<!-- Node15 -->
<g id="node15" class="node">
<title>Node15</title>
<g id="a_node15"><a xlink:href="historical__queries__adapter_8cpp.html" target="_top" xlink:title=" ">
<polygon fill="white" stroke="black" points="162,-302.5 162,-332.5 282,-332.5 282,-302.5 162,-302.5"/>
<text text-anchor="start" x="170" y="-320.5" font-family="Helvetica,sans-Serif" font-size="10.00">src/node/historical</text>
<text text-anchor="middle" x="222" y="-309.5" font-family="Helvetica,sans-Serif" font-size="10.00">_queries_adapter.cpp</text>
</a>
</g>
</g>
<!-- Node14&#45;&gt;Node15 -->
<g id="edge21" class="edge">
<title>Node14&#45;&gt;Node15</title>
<path fill="none" stroke="midnightblue" d="M243.21,-360.28C238.51,-351.02 233.25,-340.66 229.15,-332.58"/>
<polygon fill="midnightblue" stroke="midnightblue" points="240.19,-362.06 247.84,-369.4 246.43,-358.89 240.19,-362.06"/>
</g>
<!-- Node16&#45;&gt;Node4 -->
<g id="edge28" class="edge">
<title>Node16&#45;&gt;Node4</title>
<path fill="none" stroke="midnightblue" d="M1419,-366.92C1433.4,-348.97 1450.69,-320.45 1434,-302 1380.21,-242.54 1149.09,-296.64 1075,-266 1054.86,-257.67 1056.6,-244.53 1037,-235 993.26,-213.75 939.26,-202.37 898.26,-196.38"/>
<polygon fill="midnightblue" stroke="midnightblue" points="1416.13,-364.9 1412.33,-374.79 1421.47,-369.43 1416.13,-364.9"/>
</g>
<!-- Node17 -->
<g id="node17" class="node">
<title>Node17</title>
<g id="a_node17"><a xlink:href="acme__challenge__frontend_8h.html" target="_top" xlink:title=" ">
<polygon fill="white" stroke="black" points="1285,-302.5 1285,-332.5 1425,-332.5 1425,-302.5 1285,-302.5"/>
<text text-anchor="start" x="1293" y="-320.5" font-family="Helvetica,sans-Serif" font-size="10.00">src/node/acme_challenge</text>
<text text-anchor="middle" x="1355" y="-309.5" font-family="Helvetica,sans-Serif" font-size="10.00">_frontend.h</text>
</a>
</g>
</g>
<!-- Node16&#45;&gt;Node17 -->
<g id="edge24" class="edge">
<title>Node16&#45;&gt;Node17</title>
<path fill="none" stroke="midnightblue" d="M1391.31,-366.67C1383.34,-356.09 1373.17,-342.6 1365.62,-332.59"/>
<polygon fill="midnightblue" stroke="midnightblue" points="1388.58,-368.86 1397.39,-374.73 1394.17,-364.64 1388.58,-368.86"/>
</g>
<!-- Node19 -->
<g id="node19" class="node">
<title>Node19</title>
<g id="a_node19"><a xlink:href="member__frontend_8h.html" target="_top" xlink:title=" ">
<polygon fill="white" stroke="black" points="1084,-235.5 1084,-265.5 1204,-265.5 1204,-235.5 1084,-235.5"/>
<text text-anchor="start" x="1092" y="-253.5" font-family="Helvetica,sans-Serif" font-size="10.00">src/node/rpc/member</text>
<text text-anchor="middle" x="1144" y="-242.5" font-family="Helvetica,sans-Serif" font-size="10.00">_frontend.h</text>
</a>
</g>
</g>
<!-- Node16&#45;&gt;Node19 -->
<g id="edge29" class="edge">
<title>Node16&#45;&gt;Node19</title>
<path fill="none" stroke="midnightblue" d="M1427.99,-369.42C1453.17,-352.9 1486.57,-324.87 1467,-302 1450.14,-282.3 1292.75,-264.99 1204.06,-256.7"/>
<polygon fill="midnightblue" stroke="midnightblue" points="1425.8,-366.66 1419.2,-374.95 1429.53,-372.59 1425.8,-366.66"/>
</g>
<!-- Node20 -->
<g id="node20" class="node">
<title>Node20</title>
<g id="a_node20"><a xlink:href="node__frontend_8h.html" target="_top" xlink:title=" ">
<polygon fill="white" stroke="black" points="1071,-308 1071,-327 1229,-327 1229,-308 1071,-308"/>
<text text-anchor="middle" x="1150" y="-315" font-family="Helvetica,sans-Serif" font-size="10.00">src/node/rpc/node_frontend.h</text>
</a>
</g>
</g>
<!-- Node16&#45;&gt;Node20 -->
<g id="edge31" class="edge">
<title>Node16&#45;&gt;Node20</title>
<path fill="none" stroke="midnightblue" d="M1360.64,-372.4C1310.51,-359.58 1229.08,-338.74 1183.54,-327.08"/>
<polygon fill="midnightblue" stroke="midnightblue" points="1359.98,-375.85 1370.53,-374.94 1361.71,-369.07 1359.98,-375.85"/>
</g>
<!-- Node22 -->
<g id="node22" class="node">
<title>Node22</title>
<g id="a_node22"><a xlink:href="user__frontend_8h.html" target="_top" xlink:title=" ">
<polygon fill="white" stroke="black" points="1680.5,-308 1680.5,-327 1835.5,-327 1835.5,-308 1680.5,-308"/>
<text text-anchor="middle" x="1758" y="-315" font-family="Helvetica,sans-Serif" font-size="10.00">src/node/rpc/user_frontend.h</text>
</a>
</g>
</g>
<!-- Node16&#45;&gt;Node22 -->
<g id="edge35" class="edge">
<title>Node16&#45;&gt;Node22</title>
<path fill="none" stroke="midnightblue" d="M1460.55,-373.12C1530.13,-360.34 1646.94,-338.89 1711.53,-327.03"/>
<polygon fill="midnightblue" stroke="midnightblue" points="1459.85,-369.69 1450.64,-374.94 1461.11,-376.57 1459.85,-369.69"/>
</g>
<!-- Node17&#45;&gt;Node5 -->
<g id="edge25" class="edge">
<title>Node17&#45;&gt;Node5</title>
<path fill="none" stroke="midnightblue" d="M1352,-292.33C1345.82,-251.24 1328.32,-166.89 1284,-112 1270.4,-95.15 1248.68,-83.02 1232.29,-75.63"/>
<polygon fill="midnightblue" stroke="midnightblue" points="1348.54,-292.85 1353.4,-302.26 1355.47,-291.87 1348.54,-292.85"/>
</g>
<!-- Node18 -->
<g id="node18" class="node">
<title>Node18</title>
<g id="a_node18"><a xlink:href="ccf__acme__client_8h.html" target="_top" xlink:title=" ">
<polygon fill="white" stroke="black" points="621.5,-241 621.5,-260 770.5,-260 770.5,-241 621.5,-241"/>
<text text-anchor="middle" x="696" y="-248" font-family="Helvetica,sans-Serif" font-size="10.00">src/node/ccf_acme_client.h</text>
</a>
</g>
</g>
<!-- Node17&#45;&gt;Node18 -->
<g id="edge26" class="edge">
<title>Node17&#45;&gt;Node18</title>
<path fill="none" stroke="midnightblue" d="M1274.6,-306.21C1262.35,-304.74 1249.84,-303.29 1238,-302 1071.23,-283.9 875.16,-266.62 770.59,-257.73"/>
<polygon fill="midnightblue" stroke="midnightblue" points="1274.47,-309.72 1284.82,-307.45 1275.31,-302.77 1274.47,-309.72"/>
</g>
<!-- Node18&#45;&gt;Node4 -->
<g id="edge27" class="edge">
<title>Node18&#45;&gt;Node4</title>
<path fill="none" stroke="midnightblue" d="M725.46,-236.98C752.65,-225.42 792.29,-208.58 815.98,-198.51"/>
<polygon fill="midnightblue" stroke="midnightblue" points="723.89,-233.84 716.06,-240.98 726.63,-240.28 723.89,-233.84"/>
</g>
<!-- Node19&#45;&gt;Node5 -->
<g id="edge30" class="edge">
<title>Node19&#45;&gt;Node5</title>
<path fill="none" stroke="midnightblue" d="M1152.48,-226.06C1167.24,-185.23 1197.03,-102.86 1206.81,-75.82"/>
<polygon fill="midnightblue" stroke="midnightblue" points="1149.18,-224.89 1149.07,-235.48 1155.76,-227.27 1149.18,-224.89"/>
</g>
<!-- Node20&#45;&gt;Node5 -->
<g id="edge32" class="edge">
<title>Node20&#45;&gt;Node5</title>
<path fill="none" stroke="midnightblue" d="M1176.87,-302.63C1190.39,-294.07 1205.46,-281.71 1213,-266 1245.15,-199.03 1221.18,-104.19 1212.68,-75.52"/>
<polygon fill="midnightblue" stroke="midnightblue" points="1174.71,-299.84 1167.88,-307.94 1178.27,-305.87 1174.71,-299.84"/>
</g>
<!-- Node21 -->
<g id="node21" class="node">
<title>Node21</title>
<g id="a_node21"><a xlink:href="jwt__key__auto__refresh_8h.html" target="_top" xlink:title=" ">
<polygon fill="white" stroke="black" points="902.5,-235.5 902.5,-265.5 1027.5,-265.5 1027.5,-235.5 902.5,-235.5"/>
<text text-anchor="start" x="910.5" y="-253.5" font-family="Helvetica,sans-Serif" font-size="10.00">src/node/jwt_key_auto</text>
<text text-anchor="middle" x="965" y="-242.5" font-family="Helvetica,sans-Serif" font-size="10.00">_refresh.h</text>
</a>
</g>
</g>
<!-- Node20&#45;&gt;Node21 -->
<g id="edge33" class="edge">
<title>Node20&#45;&gt;Node21</title>
<path fill="none" stroke="midnightblue" d="M1115.82,-304.49C1084.45,-293.47 1037.98,-277.14 1004.93,-265.53"/>
<polygon fill="midnightblue" stroke="midnightblue" points="1114.84,-307.86 1125.43,-307.87 1117.16,-301.25 1114.84,-307.86"/>
</g>
<!-- Node21&#45;&gt;Node4 -->
<g id="edge34" class="edge">
<title>Node21&#45;&gt;Node4</title>
<path fill="none" stroke="midnightblue" d="M925.07,-231.08C901.64,-220.28 873.12,-207.12 854.77,-198.66"/>
<polygon fill="midnightblue" stroke="midnightblue" points="923.88,-234.39 934.43,-235.4 926.81,-228.03 923.88,-234.39"/>
</g>
<!-- Node22&#45;&gt;Node5 -->
<g id="edge36" class="edge">
<title>Node22&#45;&gt;Node5</title>
<path fill="none" stroke="midnightblue" d="M1845.73,-312.76C1969.1,-306.6 2181.53,-292.27 2205,-266 2214.18,-255.73 2213.68,-245.7 2205,-235 2086.81,-89.22 1469.53,-69.78 1271.33,-67.32"/>
<polygon fill="midnightblue" stroke="midnightblue" points="1845.36,-309.28 1835.54,-313.26 1845.7,-316.27 1845.36,-309.28"/>
</g>
<!-- Node23&#45;&gt;Node18 -->
<g id="edge39" class="edge">
<title>Node23&#45;&gt;Node18</title>
<path fill="none" stroke="midnightblue" d="M671.15,-428.02C665.86,-419.67 660.7,-409.82 658,-400 643.48,-347.14 676.93,-283.19 690.56,-260.23"/>
<polygon fill="midnightblue" stroke="midnightblue" points="668.33,-430.1 676.83,-436.43 674.13,-426.18 668.33,-430.1"/>
</g>
<!-- Node24 -->
<g id="node24" class="node">
<title>Node24</title>
<g id="a_node24"><a xlink:href="network__state_8h.html" target="_top" xlink:title=" ">
<polygon fill="white" stroke="black" points="1026,-375 1026,-394 1166,-394 1166,-375 1026,-375"/>
<text text-anchor="middle" x="1096" y="-382" font-family="Helvetica,sans-Serif" font-size="10.00">src/node/network_state.h</text>
</a>
</g>
</g>
<!-- Node23&#45;&gt;Node24 -->
<g id="edge40" class="edge">
<title>Node23&#45;&gt;Node24</title>
<path fill="none" stroke="midnightblue" d="M754.31,-439.94C834.66,-427.13 968.47,-405.82 1042.54,-394.02"/>
<polygon fill="midnightblue" stroke="midnightblue" points="753.63,-436.5 744.3,-441.53 754.73,-443.41 753.63,-436.5"/>
</g>
<!-- Node35 -->
<g id="node35" class="node">
<title>Node35</title>
<g id="a_node35"><a xlink:href="genesis__gen_8h.html" target="_top" xlink:title=" ">
<polygon fill="white" stroke="black" points="667,-369.5 667,-399.5 777,-399.5 777,-369.5 667,-369.5"/>
<text text-anchor="start" x="675" y="-387.5" font-family="Helvetica,sans-Serif" font-size="10.00">src/service/genesis</text>
<text text-anchor="middle" x="722" y="-376.5" font-family="Helvetica,sans-Serif" font-size="10.00">_gen.h</text>
</a>
</g>
</g>
<!-- Node23&#45;&gt;Node35 -->
<g id="edge67" class="edge">
<title>Node23&#45;&gt;Node35</title>
<path fill="none" stroke="midnightblue" d="M700.14,-427.28C704.99,-418.02 710.41,-407.66 714.64,-399.58"/>
<polygon fill="midnightblue" stroke="midnightblue" points="696.91,-425.91 695.38,-436.4 703.11,-429.16 696.91,-425.91"/>
</g>
<!-- Node24&#45;&gt;Node4 -->
<g id="edge58" class="edge">
<title>Node24&#45;&gt;Node4</title>
<path fill="none" stroke="midnightblue" d="M1085.23,-366.25C1072.74,-347.67 1050.45,-318.53 1024,-302 973.16,-270.22 943.66,-299.58 894,-266 867.6,-248.15 848.18,-214.32 840.11,-198.53"/>
<polygon fill="midnightblue" stroke="midnightblue" points="1082.46,-368.41 1090.84,-374.89 1088.33,-364.6 1082.46,-368.41"/>
</g>
<!-- Node24&#45;&gt;Node5 -->
<g id="edge41" class="edge">
<title>Node24&#45;&gt;Node5</title>
<path fill="none" stroke="midnightblue" d="M1176.13,-372.56C1199.77,-365.25 1223.24,-353.11 1238,-333 1296.12,-253.82 1268.48,-205.37 1238,-112 1233.49,-98.18 1223.88,-84.28 1217.18,-75.66"/>
<polygon fill="midnightblue" stroke="midnightblue" points="1175.04,-369.23 1166.37,-375.32 1176.94,-375.97 1175.04,-369.23"/>
</g>
<!-- Node24&#45;&gt;Node13 -->
<g id="edge66" class="edge">
<title>Node24&#45;&gt;Node13</title>
<path fill="none" stroke="midnightblue" d="M1015.76,-380.26C932.91,-375.36 800.51,-363.16 690,-333 623.08,-314.74 549.03,-277.01 517.54,-260.07"/>
<polygon fill="midnightblue" stroke="midnightblue" points="1015.68,-383.76 1025.87,-380.84 1016.08,-376.77 1015.68,-383.76"/>
</g>
<!-- Node24&#45;&gt;Node17 -->
<g id="edge57" class="edge">
<title>Node24&#45;&gt;Node17</title>
<path fill="none" stroke="midnightblue" d="M1139.92,-372.48C1183.76,-361.47 1251.3,-344.52 1298.98,-332.56"/>
<polygon fill="midnightblue" stroke="midnightblue" points="1138.97,-369.11 1130.13,-374.94 1140.68,-375.9 1138.97,-369.11"/>
</g>
<!-- Node24&#45;&gt;Node20 -->
<g id="edge59" class="edge">
<title>Node24&#45;&gt;Node20</title>
<path fill="none" stroke="midnightblue" d="M1109.9,-366.77C1120.43,-354.1 1134.46,-337.2 1142.83,-327.13"/>
<polygon fill="midnightblue" stroke="midnightblue" points="1106.98,-364.81 1103.28,-374.73 1112.37,-369.28 1106.98,-364.81"/>
</g>
<!-- Node24&#45;&gt;Node22 -->
<g id="edge60" class="edge">
<title>Node24&#45;&gt;Node22</title>
<path fill="none" stroke="midnightblue" d="M1176.25,-378.42C1287.58,-370.93 1495.07,-355.35 1671,-333 1683.91,-331.36 1697.84,-329.21 1710.69,-327.07"/>
<polygon fill="midnightblue" stroke="midnightblue" points="1175.86,-374.94 1166.11,-379.1 1176.32,-381.93 1175.86,-374.94"/>
</g>
<!-- Node25 -->
<g id="node25" class="node">
<title>Node25</title>
<g id="a_node25"><a xlink:href="wrap_8h.html" target="_top" xlink:title=" ">
<polygon fill="white" stroke="black" points="1584,-308 1584,-327 1662,-327 1662,-308 1584,-308"/>
<text text-anchor="middle" x="1623" y="-315" font-family="Helvetica,sans-Serif" font-size="10.00">src/js/wrap.h</text>
</a>
</g>
</g>
<!-- Node24&#45;&gt;Node25 -->
<g id="edge42" class="edge">
<title>Node24&#45;&gt;Node25</title>
<path fill="none" stroke="midnightblue" d="M1175.29,-373.72C1289.94,-359.58 1497.7,-333.95 1583.9,-323.32"/>
<polygon fill="midnightblue" stroke="midnightblue" points="1174.66,-370.27 1165.17,-374.97 1175.52,-377.22 1174.66,-370.27"/>
</g>
<!-- Node33 -->
<g id="node33" class="node">
<title>Node33</title>
<g id="a_node33"><a xlink:href="secret__broadcast_8h.html" target="_top" xlink:title=" ">
<polygon fill="white" stroke="black" points="698.5,-308 698.5,-327 851.5,-327 851.5,-308 698.5,-308"/>
<text text-anchor="middle" x="775" y="-315" font-family="Helvetica,sans-Serif" font-size="10.00">src/node/secret_broadcast.h</text>
</a>
</g>
</g>
<!-- Node24&#45;&gt;Node33 -->
<g id="edge61" class="edge">
<title>Node24&#45;&gt;Node33</title>
<path fill="none" stroke="midnightblue" d="M1043.55,-372.88C980.33,-360.08 875.35,-338.82 817.13,-327.03"/>
<polygon fill="midnightblue" stroke="midnightblue" points="1043.21,-376.38 1053.7,-374.94 1044.6,-369.52 1043.21,-376.38"/>
</g>
<!-- Node34 -->
<g id="node34" class="node">
<title>Node34</title>
<g id="a_node34"><a xlink:href="share__manager_8h.html" target="_top" xlink:title=" ">
<polygon fill="white" stroke="black" points="869.5,-308 869.5,-327 1014.5,-327 1014.5,-308 869.5,-308"/>
<text text-anchor="middle" x="942" y="-315" font-family="Helvetica,sans-Serif" font-size="10.00">src/node/share_manager.h</text>
</a>
</g>
</g>
<!-- Node24&#45;&gt;Node34 -->
<g id="edge63" class="edge">
<title>Node24&#45;&gt;Node34</title>
<path fill="none" stroke="midnightblue" d="M1066.26,-370.95C1035.77,-358.08 989.16,-338.4 962.53,-327.17"/>
<polygon fill="midnightblue" stroke="midnightblue" points="1064.98,-374.2 1075.55,-374.87 1067.7,-367.76 1064.98,-374.2"/>
</g>
<!-- Node25&#45;&gt;Node4 -->
<g id="edge55" class="edge">
<title>Node25&#45;&gt;Node4</title>
<path fill="none" stroke="midnightblue" d="M1573.7,-306.97C1521.76,-296.9 1437.59,-280.51 1365,-266 1297.39,-252.49 1281.07,-245.98 1213,-235 1102.7,-217.2 973.19,-203.24 898.26,-195.84"/>
<polygon fill="midnightblue" stroke="midnightblue" points="1573.16,-310.43 1583.64,-308.9 1574.49,-303.56 1573.16,-310.43"/>
</g>
<!-- Node25&#45;&gt;Node5 -->
<g id="edge44" class="edge">
<title>Node25&#45;&gt;Node5</title>
<path fill="none" stroke="midnightblue" d="M1635.98,-299.3C1647.46,-281.82 1660.46,-254.59 1647,-235 1561.52,-110.55 1370.01,-78.25 1271.35,-69.9"/>
<polygon fill="midnightblue" stroke="midnightblue" points="1632.83,-297.7 1629.94,-307.9 1638.55,-301.73 1632.83,-297.7"/>
</g>
<!-- Node25&#45;&gt;Node19 -->
<g id="edge56" class="edge">
<title>Node25&#45;&gt;Node19</title>
<path fill="none" stroke="midnightblue" d="M1573.76,-309.82C1485.29,-297.81 1299.77,-272.64 1204.02,-259.64"/>
<polygon fill="midnightblue" stroke="midnightblue" points="1573.42,-313.3 1583.8,-311.18 1574.36,-306.37 1573.42,-313.3"/>
</g>
<!-- Node26 -->
<g id="node26" class="node">
<title>Node26</title>
<g id="a_node26"><a xlink:href="js__generic__base_8cpp.html" target="_top" xlink:title=" ">
<polygon fill="white" stroke="black" points="1520,-235.5 1520,-265.5 1638,-265.5 1638,-235.5 1520,-235.5"/>
<text text-anchor="start" x="1528" y="-253.5" font-family="Helvetica,sans-Serif" font-size="10.00">src/apps/js_generic</text>
<text text-anchor="middle" x="1579" y="-242.5" font-family="Helvetica,sans-Serif" font-size="10.00">/js_generic_base.cpp</text>
</a>
</g>
</g>
<!-- Node25&#45;&gt;Node26 -->
<g id="edge43" class="edge">
<title>Node25&#45;&gt;Node26</title>
<path fill="none" stroke="midnightblue" d="M1611.39,-299.35C1604.27,-288.82 1595.25,-275.5 1588.54,-265.59"/>
<polygon fill="midnightblue" stroke="midnightblue" points="1608.56,-301.41 1617.07,-307.73 1614.36,-297.49 1608.56,-301.41"/>
</g>
<!-- Node27 -->
<g id="node27" class="node">
<title>Node27</title>
<g id="a_node27"><a xlink:href="consensus_8cpp.html" target="_top" xlink:title=" ">
<polygon fill="white" stroke="black" points="2080,-241 2080,-260 2196,-260 2196,-241 2080,-241"/>
<text text-anchor="middle" x="2138" y="-248" font-family="Helvetica,sans-Serif" font-size="10.00">src/js/consensus.cpp</text>
</a>
</g>
</g>
<!-- Node25&#45;&gt;Node27 -->
<g id="edge45" class="edge">
<title>Node25&#45;&gt;Node27</title>
<path fill="none" stroke="midnightblue" d="M1658.27,-305.16C1662.86,-303.96 1667.52,-302.86 1672,-302 1846.89,-268.57 1894.99,-292.88 2071,-266 2081.24,-264.44 2092.25,-262.26 2102.34,-260.07"/>
<polygon fill="midnightblue" stroke="midnightblue" points="1657.13,-301.85 1648.45,-307.93 1659.02,-308.59 1657.13,-301.85"/>
</g>
<!-- Node28 -->
<g id="node28" class="node">
<title>Node28</title>
<g id="a_node28"><a xlink:href="wrap_8cpp.html" target="_top" xlink:title=" ">
<polygon fill="white" stroke="black" points="1841.5,-179.5 1841.5,-198.5 1930.5,-198.5 1930.5,-179.5 1841.5,-179.5"/>
<text text-anchor="middle" x="1886" y="-186.5" font-family="Helvetica,sans-Serif" font-size="10.00">src/js/wrap.cpp</text>
</a>
</g>
</g>
<!-- Node25&#45;&gt;Node28 -->
<g id="edge54" class="edge">
<title>Node25&#45;&gt;Node28</title>
<path fill="none" stroke="midnightblue" d="M1639.9,-301.28C1663.44,-280.34 1705.2,-244.19 1723,-235 1760.56,-215.61 1807.44,-203.79 1841.27,-197.17"/>
<polygon fill="midnightblue" stroke="midnightblue" points="1637.53,-298.71 1632.41,-307.98 1642.19,-303.92 1637.53,-298.71"/>
</g>
<!-- Node29 -->
<g id="node29" class="node">
<title>Node29</title>
<g id="a_node29"><a xlink:href="conv_8cpp.html" target="_top" xlink:title=" ">
<polygon fill="white" stroke="black" points="1732,-241 1732,-260 1820,-260 1820,-241 1732,-241"/>
<text text-anchor="middle" x="1776" y="-248" font-family="Helvetica,sans-Serif" font-size="10.00">src/js/conv.cpp</text>
</a>
</g>
</g>
<!-- Node25&#45;&gt;Node29 -->
<g id="edge47" class="edge">
<title>Node25&#45;&gt;Node29</title>
<path fill="none" stroke="midnightblue" d="M1652.54,-303.95C1682.84,-291.08 1729.15,-271.4 1755.6,-260.17"/>
<polygon fill="midnightblue" stroke="midnightblue" points="1651.15,-300.74 1643.32,-307.87 1653.89,-307.18 1651.15,-300.74"/>
</g>
<!-- Node30 -->
<g id="node30" class="node">
<title>Node30</title>
<g id="a_node30"><a xlink:href="crypto_8cpp.html" target="_top" xlink:title=" ">
<polygon fill="white" stroke="black" points="1838,-241 1838,-260 1934,-260 1934,-241 1838,-241"/>
<text text-anchor="middle" x="1886" y="-248" font-family="Helvetica,sans-Serif" font-size="10.00">src/js/crypto.cpp</text>
</a>
</g>
</g>
<!-- Node25&#45;&gt;Node30 -->
<g id="edge49" class="edge">
<title>Node25&#45;&gt;Node30</title>
<path fill="none" stroke="midnightblue" d="M1660.31,-305.2C1664.25,-304.08 1668.2,-303 1672,-302 1741.25,-283.83 1759.42,-282.83 1829,-266 1836.74,-264.13 1845.06,-262.05 1852.88,-260.07"/>
<polygon fill="midnightblue" stroke="midnightblue" points="1659.28,-301.85 1650.64,-307.99 1661.22,-308.58 1659.28,-301.85"/>
</g>
<!-- Node31 -->
<g id="node31" class="node">
<title>Node31</title>
<g id="a_node31"><a xlink:href="historical_8cpp.html" target="_top" xlink:title=" ">
<polygon fill="white" stroke="black" points="1952,-241 1952,-260 2062,-260 2062,-241 1952,-241"/>
<text text-anchor="middle" x="2007" y="-248" font-family="Helvetica,sans-Serif" font-size="10.00">src/js/historical.cpp</text>
</a>
</g>
</g>
<!-- Node25&#45;&gt;Node31 -->
<g id="edge51" class="edge">
<title>Node25&#45;&gt;Node31</title>
<path fill="none" stroke="midnightblue" d="M1658.98,-305.16C1663.34,-303.99 1667.75,-302.9 1672,-302 1790.84,-276.68 1823.41,-287.45 1943,-266 1952.42,-264.31 1962.55,-262.17 1971.91,-260.05"/>
<polygon fill="midnightblue" stroke="midnightblue" points="1657.67,-301.9 1649,-307.99 1659.57,-308.63 1657.67,-301.9"/>
</g>
<!-- Node32 -->
<g id="node32" class="node">
<title>Node32</title>
<g id="a_node32"><a xlink:href="openenclave_8cpp.html" target="_top" xlink:title=" ">
<polygon fill="white" stroke="black" points="1374,-241 1374,-260 1502,-260 1502,-241 1374,-241"/>
<text text-anchor="middle" x="1438" y="-248" font-family="Helvetica,sans-Serif" font-size="10.00">src/js/openenclave.cpp</text>
</a>
</g>
</g>
<!-- Node25&#45;&gt;Node32 -->
<g id="edge53" class="edge">
<title>Node25&#45;&gt;Node32</title>
<path fill="none" stroke="midnightblue" d="M1588.66,-304.44C1551.96,-291.54 1494.71,-271.42 1462.37,-260.06"/>
<polygon fill="midnightblue" stroke="midnightblue" points="1587.84,-307.86 1598.43,-307.87 1590.16,-301.25 1587.84,-307.86"/>
</g>
<!-- Node27&#45;&gt;Node28 -->
<g id="edge46" class="edge">
<title>Node27&#45;&gt;Node28</title>
<path fill="none" stroke="midnightblue" d="M2091.89,-238.61C2042.98,-227.07 1966.73,-209.06 1922.04,-198.51"/>
<polygon fill="midnightblue" stroke="midnightblue" points="2091.36,-242.08 2101.89,-240.98 2092.97,-235.27 2091.36,-242.08"/>
</g>
<!-- Node29&#45;&gt;Node28 -->
<g id="edge48" class="edge">
<title>Node29&#45;&gt;Node28</title>
<path fill="none" stroke="midnightblue" d="M1800.57,-236.21C1821.87,-224.69 1852.07,-208.36 1870.27,-198.51"/>
<polygon fill="midnightblue" stroke="midnightblue" points="1798.89,-233.14 1791.76,-240.98 1802.22,-239.3 1798.89,-233.14"/>
</g>
<!-- Node30&#45;&gt;Node28 -->
<g id="edge50" class="edge">
<title>Node30&#45;&gt;Node28</title>
<path fill="none" stroke="midnightblue" d="M1886,-230.82C1886,-220 1886,-206.9 1886,-198.51"/>
<polygon fill="midnightblue" stroke="midnightblue" points="1882.5,-230.98 1886,-240.98 1889.5,-230.98 1882.5,-230.98"/>
</g>
<!-- Node31&#45;&gt;Node28 -->
<g id="edge52" class="edge">
<title>Node31&#45;&gt;Node28</title>
<path fill="none" stroke="midnightblue" d="M1980.61,-236.52C1957.14,-224.98 1923.51,-208.44 1903.3,-198.51"/>
<polygon fill="midnightblue" stroke="midnightblue" points="1979.15,-239.7 1989.66,-240.98 1982.23,-233.42 1979.15,-239.7"/>
</g>
<!-- Node33&#45;&gt;Node4 -->
<g id="edge62" class="edge">
<title>Node33&#45;&gt;Node4</title>
<path fill="none" stroke="midnightblue" d="M783.66,-298.54C796.95,-270.98 821.87,-219.31 831.78,-198.76"/>
<polygon fill="midnightblue" stroke="midnightblue" points="780.38,-297.28 779.19,-307.81 786.69,-300.32 780.38,-297.28"/>
</g>
<!-- Node34&#45;&gt;Node4 -->
<g id="edge64" class="edge">
<title>Node34&#45;&gt;Node4</title>
<path fill="none" stroke="midnightblue" d="M910.29,-303.62C893.2,-295.22 873.01,-282.69 860,-266 844,-245.49 838.56,-214.12 836.79,-198.9"/>
<polygon fill="midnightblue" stroke="midnightblue" points="908.86,-306.82 919.4,-307.87 911.81,-300.47 908.86,-306.82"/>
</g>
<!-- Node34&#45;&gt;Node19 -->
<g id="edge65" class="edge">
<title>Node34&#45;&gt;Node19</title>
<path fill="none" stroke="midnightblue" d="M978.44,-304.77C1012.69,-293.75 1064,-277.24 1100.41,-265.53"/>
<polygon fill="midnightblue" stroke="midnightblue" points="977.27,-301.47 968.82,-307.87 979.42,-308.14 977.27,-301.47"/>
</g>
<!-- Node35&#45;&gt;Node4 -->
<g id="edge68" class="edge">
<title>Node35&#45;&gt;Node4</title>
<path fill="none" stroke="midnightblue" d="M689.59,-364.01C645.6,-335.16 576.45,-279.67 613,-235 633.01,-210.55 715.12,-199.08 773.88,-193.92"/>
<polygon fill="midnightblue" stroke="midnightblue" points="687.7,-366.96 698.01,-369.42 691.48,-361.07 687.7,-366.96"/>
</g>
<!-- Node35&#45;&gt;Node19 -->
<g id="edge69" class="edge">
<title>Node35&#45;&gt;Node19</title>
<path fill="none" stroke="midnightblue" d="M701.62,-361.08C687.95,-343.28 674.95,-318.69 690,-302 715.96,-273.21 998.51,-270.6 1037,-266 1052.17,-264.19 1068.53,-262.06 1083.77,-260"/>
<polygon fill="midnightblue" stroke="midnightblue" points="699.23,-363.68 708.27,-369.21 704.65,-359.25 699.23,-363.68"/>
</g>
<!-- Node35&#45;&gt;Node20 -->
<g id="edge70" class="edge">
<title>Node35&#45;&gt;Node20</title>
<path fill="none" stroke="midnightblue" d="M786.97,-373.63C870.62,-360.93 1014.61,-339.06 1093.77,-327.04"/>
<polygon fill="midnightblue" stroke="midnightblue" points="786.44,-370.17 777.08,-375.14 787.49,-377.09 786.44,-370.17"/>
</g>
<!-- Node35&#45;&gt;Node33 -->
<g id="edge71" class="edge">
<title>Node35&#45;&gt;Node33</title>
<path fill="none" stroke="midnightblue" d="M740.09,-361.32C749.64,-349.6 760.83,-335.88 767.91,-327.19"/>
<polygon fill="midnightblue" stroke="midnightblue" points="737.11,-359.43 733.5,-369.4 742.53,-363.86 737.11,-359.43"/>
</g>
<!-- Node35&#45;&gt;Node34 -->
<g id="edge72" class="edge">
<title>Node35&#45;&gt;Node34</title>
<path fill="none" stroke="midnightblue" d="M779.23,-366.59C822.2,-353.9 879.24,-337.04 913.13,-327.03"/>
<polygon fill="midnightblue" stroke="midnightblue" points="778.06,-363.29 769.47,-369.48 780.05,-370 778.06,-363.29"/>
</g>
</g>
</svg>
