<?xml version="1.0" encoding="UTF-8" standalone="no"?>
<!DOCTYPE svg PUBLIC "-//W3C//DTD SVG 1.1//EN"
 "http://www.w3.org/Graphics/SVG/1.1/DTD/svg11.dtd">
<!-- Generated by graphviz version 2.43.0 (0)
 -->
<!-- Title: include/ccf/crypto Pages: 1 -->
<svg width="238pt" height="167pt"
 viewBox="0.00 0.00 238.00 167.00" xmlns="http://www.w3.org/2000/svg" xmlns:xlink="http://www.w3.org/1999/xlink">
<g id="graph0" class="graph" transform="scale(1 1) rotate(0) translate(4 163)">
<title>include/ccf/crypto</title>
<polygon fill="white" stroke="transparent" points="-4,4 -4,-163 234,-163 234,4 -4,4"/>
<g id="clust1" class="cluster">
<title>clusterdir_c3d33925c9fc81f340cd5350e8f8562d</title>
<g id="a_clust1"><a xlink:href="dir_c3d33925c9fc81f340cd5350e8f8562d.html" target="_top" xlink:title="ccf">
<polygon fill="#edf0f7" stroke="#7f7f7f" stroke-dasharray="5,2" points="8,-8 8,-151 222,-151 222,-8 8,-8"/>
<text text-anchor="middle" x="115" y="-139" font-family="Helvetica,sans-Serif" font-size="10.00">ccf</text>
</a>
</g>
</g>
<!-- dir_36f22bdf0117f38e86252516d12afdac -->
<g id="node1" class="node">
<title>dir_36f22bdf0117f38e86252516d12afdac</title>
<g id="a_node1"><a xlink:href="dir_36f22bdf0117f38e86252516d12afdac.html" target="_top" xlink:title="pal">
<polygon fill="#a2b4d6" stroke="#404040" points="70,-52 16,-52 16,-16 70,-16 70,-52"/>
<text text-anchor="middle" x="43" y="-31.5" font-family="Helvetica,sans-Serif" font-size="10.00">pal</text>
</a>
</g>
</g>
<!-- dir_a0bd5b61e2f393f7cb26e530f5604320 -->
<g id="node2" class="node">
<title>dir_a0bd5b61e2f393f7cb26e530f5604320</title>
<g id="a_node2"><a xlink:href="dir_a0bd5b61e2f393f7cb26e530f5604320.html" target="_top" xlink:title="service">
<polygon fill="#a2b4d6" stroke="red" points="142,-52 88,-52 88,-16 142,-16 142,-52"/>
<text text-anchor="middle" x="115" y="-31.5" font-family="Helvetica,sans-Serif" font-size="10.00">service</text>
</a>
</g>
</g>
<!-- dir_cabae42bbc2bbaf21b45af6b92ef62e9 -->
<g id="node3" class="node">
<title>dir_cabae42bbc2bbaf21b45af6b92ef62e9</title>
<g id="a_node3"><a xlink:href="dir_cabae42bbc2bbaf21b45af6b92ef62e9.html" target="_top" xlink:title="ds">
<polygon fill="#a2b4d6" stroke="#404040" points="214,-52 160,-52 160,-16 214,-16 214,-52"/>
<text text-anchor="middle" x="187" y="-31.5" font-family="Helvetica,sans-Serif" font-size="10.00">ds</text>
</a>
</g>
</g>
<!-- dir_718cb05e94fb01aeb88649f9185845a8 -->
<g id="node4" class="node">
<title>dir_718cb05e94fb01aeb88649f9185845a8</title>
<g id="a_node4"><a xlink:href="dir_718cb05e94fb01aeb88649f9185845a8.html" target="_top" xlink:title="crypto">
<polygon fill="#edf0f7" stroke="#404040" stroke-width="2" points="142,-124 88,-124 88,-88 142,-88 142,-124"/>
<text text-anchor="middle" x="115" y="-103.5" font-family="Helvetica,sans-Serif" font-size="10.00">crypto</text>
</a>
</g>
</g>
<!-- dir_718cb05e94fb01aeb88649f9185845a8&#45;&gt;dir_36f22bdf0117f38e86252516d12afdac -->
<g id="edge1" class="edge">
<title>dir_718cb05e94fb01aeb88649f9185845a8&#45;&gt;dir_36f22bdf0117f38e86252516d12afdac</title>
<path fill="none" stroke="black" d="M97.2,-87.7C88.4,-79.14 77.62,-68.66 68,-59.3"/>
<polygon fill="black" stroke="black" points="70.2,-56.57 60.59,-52.1 65.32,-61.58 70.2,-56.57"/>
<g id="a_edge1&#45;headlabel"><a xlink:href="dir_000011_000034.html" target="_top" xlink:title="1">
<text text-anchor="middle" x="74.76" y="-54.54" font-family="Helvetica,sans-Serif" font-size="10.00">1</text>
</a>
</g>
</g>
<!-- dir_718cb05e94fb01aeb88649f9185845a8&#45;&gt;dir_a0bd5b61e2f393f7cb26e530f5604320 -->
<g id="edge2" class="edge">
<title>dir_718cb05e94fb01aeb88649f9185845a8&#45;&gt;dir_a0bd5b61e2f393f7cb26e530f5604320</title>
<path fill="none" stroke="black" d="M115,-87.7C115,-79.98 115,-70.71 115,-62.11"/>
<polygon fill="black" stroke="black" points="118.5,-62.1 115,-52.1 111.5,-62.1 118.5,-62.1"/>
<g id="a_edge2&#45;headlabel"><a xlink:href="dir_000011_000040.html" target="_top" xlink:title="1">
<text text-anchor="middle" x="121.34" y="-63.2" font-family="Helvetica,sans-Serif" font-size="10.00">1</text>
</a>
</g>
</g>
<!-- dir_718cb05e94fb01aeb88649f9185845a8&#45;&gt;dir_cabae42bbc2bbaf21b45af6b92ef62e9 -->
<g id="edge3" class="edge">
<title>dir_718cb05e94fb01aeb88649f9185845a8&#45;&gt;dir_cabae42bbc2bbaf21b45af6b92ef62e9</title>
<path fill="none" stroke="black" d="M132.8,-87.7C141.6,-79.14 152.38,-68.66 162,-59.3"/>
<polygon fill="black" stroke="black" points="164.68,-61.58 169.41,-52.1 159.8,-56.57 164.68,-61.58"/>
<g id="a_edge3&#45;headlabel"><a xlink:href="dir_000011_000013.html" target="_top" xlink:title="7">
<text text-anchor="middle" x="164.08" y="-63.63" font-family="Helvetica,sans-Serif" font-size="10.00">7</text>
</a>
</g>
</g>
</g>
</svg>
