<?xml version="1.0" encoding="UTF-8" standalone="no"?>
<!DOCTYPE svg PUBLIC "-//W3C//DTD SVG 1.1//EN"
 "http://www.w3.org/Graphics/SVG/1.1/DTD/svg11.dtd">
<!-- Generated by graphviz version 2.43.0 (0)
 -->
<!-- Title: include/ccf/service Pages: 1 -->
<svg width="310pt" height="175pt"
 viewBox="0.00 0.00 310.00 175.00" xmlns="http://www.w3.org/2000/svg" xmlns:xlink="http://www.w3.org/1999/xlink">
<g id="graph0" class="graph" transform="scale(1 1) rotate(0) translate(4 171)">
<title>include/ccf/service</title>
<polygon fill="white" stroke="transparent" points="-4,4 -4,-171 306,-171 306,4 -4,4"/>
<g id="clust1" class="cluster">
<title>clusterdir_c3d33925c9fc81f340cd5350e8f8562d</title>
<g id="a_clust1"><a xlink:href="dir_c3d33925c9fc81f340cd5350e8f8562d.html" target="_top" xlink:title="ccf">
<polygon fill="#edf0f7" stroke="#7f7f7f" stroke-dasharray="5,2" points="8,-8 8,-159 294,-159 294,-8 8,-8"/>
<text text-anchor="middle" x="151" y="-147" font-family="Helvetica,sans-Serif" font-size="10.00">ccf</text>
</a>
</g>
</g>
<g id="clust2" class="cluster">
<title>clusterdir_a0bd5b61e2f393f7cb26e530f5604320</title>
<g id="a_clust2"><a xlink:href="dir_a0bd5b61e2f393f7cb26e530f5604320.html" target="_top">
<polygon fill="#edf0f7" stroke="#404040" stroke-width="2" points="80,-80 80,-132 222,-132 222,-80 80,-80"/>
</a>
</g>
</g>
<!-- dir_36f22bdf0117f38e86252516d12afdac -->
<g id="node1" class="node">
<title>dir_36f22bdf0117f38e86252516d12afdac</title>
<g id="a_node1"><a xlink:href="dir_36f22bdf0117f38e86252516d12afdac.html" target="_top" xlink:title="pal">
<polygon fill="#a2b4d6" stroke="#404040" points="70,-52 16,-52 16,-16 70,-16 70,-52"/>
<text text-anchor="middle" x="43" y="-31.5" font-family="Helvetica,sans-Serif" font-size="10.00">pal</text>
</a>
</g>
</g>
<!-- dir_718cb05e94fb01aeb88649f9185845a8 -->
<g id="node2" class="node">
<title>dir_718cb05e94fb01aeb88649f9185845a8</title>
<g id="a_node2"><a xlink:href="dir_718cb05e94fb01aeb88649f9185845a8.html" target="_top" xlink:title="crypto">
<polygon fill="#a2b4d6" stroke="#404040" points="142,-52 88,-52 88,-16 142,-16 142,-52"/>
<text text-anchor="middle" x="115" y="-31.5" font-family="Helvetica,sans-Serif" font-size="10.00">crypto</text>
</a>
</g>
</g>
<!-- dir_9101985d24c2f692df501a09f2c284d0 -->
<g id="node3" class="node">
<title>dir_9101985d24c2f692df501a09f2c284d0</title>
<g id="a_node3"><a xlink:href="dir_9101985d24c2f692df501a09f2c284d0.html" target="_top" xlink:title="kv">
<polygon fill="#a2b4d6" stroke="red" points="214,-52 160,-52 160,-16 214,-16 214,-52"/>
<text text-anchor="middle" x="187" y="-31.5" font-family="Helvetica,sans-Serif" font-size="10.00">kv</text>
</a>
</g>
</g>
<!-- dir_cabae42bbc2bbaf21b45af6b92ef62e9 -->
<g id="node4" class="node">
<title>dir_cabae42bbc2bbaf21b45af6b92ef62e9</title>
<g id="a_node4"><a xlink:href="dir_cabae42bbc2bbaf21b45af6b92ef62e9.html" target="_top" xlink:title="ds">
<polygon fill="#a2b4d6" stroke="#404040" points="286,-52 232,-52 232,-16 286,-16 286,-52"/>
<text text-anchor="middle" x="259" y="-31.5" font-family="Helvetica,sans-Serif" font-size="10.00">ds</text>
</a>
</g>
</g>
<!-- dir_a0bd5b61e2f393f7cb26e530f5604320 -->
<g id="node5" class="node">
<title>dir_a0bd5b61e2f393f7cb26e530f5604320</title>
<text text-anchor="middle" x="115" y="-103.5" font-family="Helvetica,sans-Serif" font-size="10.00">service</text>
</g>
<!-- dir_a0bd5b61e2f393f7cb26e530f5604320&#45;&gt;dir_36f22bdf0117f38e86252516d12afdac -->
<g id="edge1" class="edge">
<title>dir_a0bd5b61e2f393f7cb26e530f5604320&#45;&gt;dir_36f22bdf0117f38e86252516d12afdac</title>
<path fill="none" stroke="black" d="M97.2,-87.7C88.4,-79.14 77.62,-68.66 68,-59.3"/>
<polygon fill="black" stroke="black" points="70.2,-56.57 60.59,-52.1 65.32,-61.58 70.2,-56.57"/>
<g id="a_edge1&#45;headlabel"><a xlink:href="dir_000040_000034.html" target="_top" xlink:title="1">
<text text-anchor="middle" x="74.76" y="-54.54" font-family="Helvetica,sans-Serif" font-size="10.00">1</text>
</a>
</g>
</g>
<!-- dir_a0bd5b61e2f393f7cb26e530f5604320&#45;&gt;dir_718cb05e94fb01aeb88649f9185845a8 -->
<g id="edge2" class="edge">
<title>dir_a0bd5b61e2f393f7cb26e530f5604320&#45;&gt;dir_718cb05e94fb01aeb88649f9185845a8</title>
<path fill="none" stroke="black" d="M115,-87.7C115,-79.98 115,-70.71 115,-62.11"/>
<polygon fill="black" stroke="black" points="118.5,-62.1 115,-52.1 111.5,-62.1 118.5,-62.1"/>
<g id="a_edge2&#45;headlabel"><a xlink:href="dir_000040_000011.html" target="_top" xlink:title="13">
<text text-anchor="middle" x="121.34" y="-63.2" font-family="Helvetica,sans-Serif" font-size="10.00">13</text>
</a>
</g>
</g>
<!-- dir_a0bd5b61e2f393f7cb26e530f5604320&#45;&gt;dir_9101985d24c2f692df501a09f2c284d0 -->
<g id="edge3" class="edge">
<title>dir_a0bd5b61e2f393f7cb26e530f5604320&#45;&gt;dir_9101985d24c2f692df501a09f2c284d0</title>
<path fill="none" stroke="black" d="M132.8,-87.7C141.6,-79.14 152.38,-68.66 162,-59.3"/>
<polygon fill="black" stroke="black" points="164.68,-61.58 169.41,-52.1 159.8,-56.57 164.68,-61.58"/>
<g id="a_edge3&#45;headlabel"><a xlink:href="dir_000040_000027.html" target="_top" xlink:title="7">
<text text-anchor="middle" x="164.08" y="-63.63" font-family="Helvetica,sans-Serif" font-size="10.00">7</text>
</a>
</g>
</g>
<!-- dir_a0bd5b61e2f393f7cb26e530f5604320&#45;&gt;dir_cabae42bbc2bbaf21b45af6b92ef62e9 -->
<g id="edge4" class="edge">
<title>dir_a0bd5b61e2f393f7cb26e530f5604320&#45;&gt;dir_cabae42bbc2bbaf21b45af6b92ef62e9</title>
<path fill="none" stroke="black" d="M138.12,-87.77C142.3,-84.99 146.7,-82.29 151,-80 178.83,-65.2 189.66,-65.4 222.58,-51.97"/>
<polygon fill="black" stroke="black" points="224.11,-55.12 231.97,-48.02 221.39,-48.67 224.11,-55.12"/>
<g id="a_edge4&#45;headlabel"><a xlink:href="dir_000040_000013.html" target="_top" xlink:title="15">
<text text-anchor="middle" x="221.9" y="-56.63" font-family="Helvetica,sans-Serif" font-size="10.00">15</text>
</a>
</g>
</g>
<!-- dir_da3d0323a4ef522fcb3697c0bb14a304 -->
<g id="node6" class="node">
<title>dir_da3d0323a4ef522fcb3697c0bb14a304</title>
<g id="a_node6"><a xlink:href="dir_da3d0323a4ef522fcb3697c0bb14a304.html" target="_top" xlink:title="tables">
<polygon fill="#a2b4d6" stroke="#404040" points="214,-124 160,-124 160,-88 214,-88 214,-124"/>
<text text-anchor="middle" x="187" y="-103.5" font-family="Helvetica,sans-Serif" font-size="10.00">tables</text>
</a>
</g>
</g>
<!-- dir_da3d0323a4ef522fcb3697c0bb14a304&#45;&gt;dir_718cb05e94fb01aeb88649f9185845a8 -->
<g id="edge5" class="edge">
<title>dir_da3d0323a4ef522fcb3697c0bb14a304&#45;&gt;dir_718cb05e94fb01aeb88649f9185845a8</title>
<path fill="none" stroke="black" d="M169.2,-87.7C160.4,-79.14 149.62,-68.66 140,-59.3"/>
<polygon fill="black" stroke="black" points="142.2,-56.57 132.59,-52.1 137.32,-61.58 142.2,-56.57"/>
<g id="a_edge5&#45;headlabel"><a xlink:href="dir_000045_000011.html" target="_top" xlink:title="9">
<text text-anchor="middle" x="146.76" y="-54.54" font-family="Helvetica,sans-Serif" font-size="10.00">9</text>
</a>
</g>
</g>
<!-- dir_da3d0323a4ef522fcb3697c0bb14a304&#45;&gt;dir_9101985d24c2f692df501a09f2c284d0 -->
<g id="edge6" class="edge">
<title>dir_da3d0323a4ef522fcb3697c0bb14a304&#45;&gt;dir_9101985d24c2f692df501a09f2c284d0</title>
<path fill="none" stroke="black" d="M187,-87.7C187,-79.98 187,-70.71 187,-62.11"/>
<polygon fill="black" stroke="black" points="190.5,-62.1 187,-52.1 183.5,-62.1 190.5,-62.1"/>
<g id="a_edge6&#45;headlabel"><a xlink:href="dir_000045_000027.html" target="_top" xlink:title="2">
<text text-anchor="middle" x="193.34" y="-63.2" font-family="Helvetica,sans-Serif" font-size="10.00">2</text>
</a>
</g>
</g>
<!-- dir_da3d0323a4ef522fcb3697c0bb14a304&#45;&gt;dir_cabae42bbc2bbaf21b45af6b92ef62e9 -->
<g id="edge7" class="edge">
<title>dir_da3d0323a4ef522fcb3697c0bb14a304&#45;&gt;dir_cabae42bbc2bbaf21b45af6b92ef62e9</title>
<path fill="none" stroke="black" d="M204.8,-87.7C213.6,-79.14 224.38,-68.66 234,-59.3"/>
<polygon fill="black" stroke="black" points="236.68,-61.58 241.41,-52.1 231.8,-56.57 236.68,-61.58"/>
<g id="a_edge7&#45;headlabel"><a xlink:href="dir_000045_000013.html" target="_top" xlink:title="6">
<text text-anchor="middle" x="236.08" y="-63.63" font-family="Helvetica,sans-Serif" font-size="10.00">6</text>
</a>
</g>
</g>
</g>
</svg>
