<?xml version="1.0" encoding="UTF-8" standalone="no"?>
<!DOCTYPE svg PUBLIC "-//W3C//DTD SVG 1.1//EN"
 "http://www.w3.org/Graphics/SVG/1.1/DTD/svg11.dtd">
<!-- Generated by graphviz version 2.43.0 (0)
 -->
<!-- Title: src/endpoints Pages: 1 -->
<svg width="440pt" height="175pt"
 viewBox="0.00 0.00 440.00 175.00" xmlns="http://www.w3.org/2000/svg" xmlns:xlink="http://www.w3.org/1999/xlink">
<g id="graph0" class="graph" transform="scale(1 1) rotate(0) translate(4 171)">
<title>src/endpoints</title>
<polygon fill="white" stroke="transparent" points="-4,4 -4,-171 436,-171 436,4 -4,4"/>
<g id="clust1" class="cluster">
<title>clusterdir_68267d1309a1af8e8297ef4c3efbcdba</title>
<g id="a_clust1"><a xlink:href="dir_68267d1309a1af8e8297ef4c3efbcdba.html" target="_top" xlink:title="src">
<polygon fill="#edf0f7" stroke="#404040" stroke-dasharray="5,2" points="8,-8 8,-159 368,-159 368,-8 8,-8"/>
<text text-anchor="middle" x="188" y="-147" font-family="Helvetica,sans-Serif" font-size="10.00">src</text>
</a>
</g>
</g>
<g id="clust2" class="cluster">
<title>clusterdir_a2b23ad3d4048fef2ffce6bed40d1385</title>
<g id="a_clust2"><a xlink:href="dir_a2b23ad3d4048fef2ffce6bed40d1385.html" target="_top">
<polygon fill="#edf0f7" stroke="#404040" stroke-width="2" points="63,-80 63,-132 250,-132 250,-80 63,-80"/>
</a>
</g>
</g>
<!-- dir_122f4add68bb94b3fee614989bbbd8f9 -->
<g id="node1" class="node">
<title>dir_122f4add68bb94b3fee614989bbbd8f9</title>
<g id="a_node1"><a xlink:href="dir_122f4add68bb94b3fee614989bbbd8f9.html" target="_top" xlink:title="ds">
<polygon fill="#a2b4d6" stroke="#404040" points="142,-52 88,-52 88,-16 142,-16 142,-52"/>
<text text-anchor="middle" x="115" y="-31.5" font-family="Helvetica,sans-Serif" font-size="10.00">ds</text>
</a>
</g>
</g>
<!-- dir_18ae7af74d885898b85cbb543ae51b63 -->
<g id="node2" class="node">
<title>dir_18ae7af74d885898b85cbb543ae51b63</title>
<g id="a_node2"><a xlink:href="dir_18ae7af74d885898b85cbb543ae51b63.html" target="_top" xlink:title="node">
<polygon fill="#a2b4d6" stroke="red" points="214,-52 160,-52 160,-16 214,-16 214,-52"/>
<text text-anchor="middle" x="187" y="-31.5" font-family="Helvetica,sans-Serif" font-size="10.00">node</text>
</a>
</g>
</g>
<!-- dir_2d29d7dff7c7baf1180920f6796c23ae -->
<g id="node3" class="node">
<title>dir_2d29d7dff7c7baf1180920f6796c23ae</title>
<g id="a_node3"><a xlink:href="dir_2d29d7dff7c7baf1180920f6796c23ae.html" target="_top" xlink:title="http">
<polygon fill="#a2b4d6" stroke="#404040" points="70,-52 16,-52 16,-16 70,-16 70,-52"/>
<text text-anchor="middle" x="43" y="-31.5" font-family="Helvetica,sans-Serif" font-size="10.00">http</text>
</a>
</g>
</g>
<!-- dir_4c8befd6991d7a2e9d66c427274b8c22 -->
<g id="node4" class="node">
<title>dir_4c8befd6991d7a2e9d66c427274b8c22</title>
<g id="a_node4"><a xlink:href="dir_4c8befd6991d7a2e9d66c427274b8c22.html" target="_top" xlink:title="kv">
<polygon fill="#a2b4d6" stroke="#404040" points="286,-52 232,-52 232,-16 286,-16 286,-52"/>
<text text-anchor="middle" x="259" y="-31.5" font-family="Helvetica,sans-Serif" font-size="10.00">kv</text>
</a>
</g>
</g>
<!-- dir_5427940bb9029915fc0c11c1284afde6 -->
<g id="node5" class="node">
<title>dir_5427940bb9029915fc0c11c1284afde6</title>
<g id="a_node5"><a xlink:href="dir_5427940bb9029915fc0c11c1284afde6.html" target="_top" xlink:title="enclave">
<polygon fill="#a2b4d6" stroke="#404040" points="359.5,-52 304.5,-52 304.5,-16 359.5,-16 359.5,-52"/>
<text text-anchor="middle" x="332" y="-31.5" font-family="Helvetica,sans-Serif" font-size="10.00">enclave</text>
</a>
</g>
</g>
<!-- dir_a2b23ad3d4048fef2ffce6bed40d1385 -->
<g id="node6" class="node">
<title>dir_a2b23ad3d4048fef2ffce6bed40d1385</title>
<text text-anchor="middle" x="209" y="-103.5" font-family="Helvetica,sans-Serif" font-size="10.00">endpoints</text>
</g>
<!-- dir_a2b23ad3d4048fef2ffce6bed40d1385&#45;&gt;dir_122f4add68bb94b3fee614989bbbd8f9 -->
<g id="edge1" class="edge">
<title>dir_a2b23ad3d4048fef2ffce6bed40d1385&#45;&gt;dir_122f4add68bb94b3fee614989bbbd8f9</title>
<path fill="none" stroke="black" d="M185.76,-87.7C173.81,-78.8 159.08,-67.82 146.15,-58.2"/>
<polygon fill="black" stroke="black" points="148.08,-55.27 137.97,-52.1 143.9,-60.88 148.08,-55.27"/>
<g id="a_edge1&#45;headlabel"><a xlink:href="dir_000017_000014.html" target="_top" xlink:title="3">
<text text-anchor="middle" x="152.66" y="-52.64" font-family="Helvetica,sans-Serif" font-size="10.00">3</text>
</a>
</g>
</g>
<!-- dir_a2b23ad3d4048fef2ffce6bed40d1385&#45;&gt;dir_18ae7af74d885898b85cbb543ae51b63 -->
<g id="edge2" class="edge">
<title>dir_a2b23ad3d4048fef2ffce6bed40d1385&#45;&gt;dir_18ae7af74d885898b85cbb543ae51b63</title>
<path fill="none" stroke="black" d="M203.56,-87.7C201.11,-79.9 198.16,-70.51 195.43,-61.83"/>
<polygon fill="black" stroke="black" points="198.71,-60.59 192.38,-52.1 192.04,-62.69 198.71,-60.59"/>
<g id="a_edge2&#45;headlabel"><a xlink:href="dir_000017_000032.html" target="_top" xlink:title="5">
<text text-anchor="middle" x="202.5" y="-60.67" font-family="Helvetica,sans-Serif" font-size="10.00">5</text>
</a>
</g>
</g>
<!-- dir_a2b23ad3d4048fef2ffce6bed40d1385&#45;&gt;dir_2d29d7dff7c7baf1180920f6796c23ae -->
<g id="edge3" class="edge">
<title>dir_a2b23ad3d4048fef2ffce6bed40d1385&#45;&gt;dir_2d29d7dff7c7baf1180920f6796c23ae</title>
<path fill="none" stroke="black" d="M183.05,-87.89C178.16,-85.04 173.01,-82.27 168,-80 132.9,-64.06 119.52,-66.62 79.83,-52.01"/>
<polygon fill="black" stroke="black" points="80.94,-48.69 70.35,-48.39 78.44,-55.23 80.94,-48.69"/>
<g id="a_edge3&#45;headlabel"><a xlink:href="dir_000017_000020.html" target="_top" xlink:title="5">
<text text-anchor="middle" x="85.31" y="-44.82" font-family="Helvetica,sans-Serif" font-size="10.00">5</text>
</a>
</g>
</g>
<!-- dir_a2b23ad3d4048fef2ffce6bed40d1385&#45;&gt;dir_4c8befd6991d7a2e9d66c427274b8c22 -->
<g id="edge4" class="edge">
<title>dir_a2b23ad3d4048fef2ffce6bed40d1385&#45;&gt;dir_4c8befd6991d7a2e9d66c427274b8c22</title>
<path fill="none" stroke="black" d="M221.36,-87.7C227.23,-79.47 234.37,-69.48 240.84,-60.42"/>
<polygon fill="black" stroke="black" points="243.82,-62.28 246.78,-52.1 238.12,-58.21 243.82,-62.28"/>
<g id="a_edge4&#45;headlabel"><a xlink:href="dir_000017_000028.html" target="_top" xlink:title="1">
<text text-anchor="middle" x="244.04" y="-64.35" font-family="Helvetica,sans-Serif" font-size="10.00">1</text>
</a>
</g>
</g>
<!-- dir_a2b23ad3d4048fef2ffce6bed40d1385&#45;&gt;dir_5427940bb9029915fc0c11c1284afde6 -->
<g id="edge5" class="edge">
<title>dir_a2b23ad3d4048fef2ffce6bed40d1385&#45;&gt;dir_5427940bb9029915fc0c11c1284afde6</title>
<path fill="none" stroke="black" d="M239.09,-87.88C256.05,-78.23 277.36,-66.1 295.29,-55.89"/>
<polygon fill="black" stroke="black" points="297.36,-58.74 304.32,-50.75 293.9,-52.65 297.36,-58.74"/>
<g id="a_edge5&#45;headlabel"><a xlink:href="dir_000017_000015.html" target="_top" xlink:title="1">
<text text-anchor="middle" x="295.64" y="-60.48" font-family="Helvetica,sans-Serif" font-size="10.00">1</text>
</a>
</g>
</g>
<!-- dir_d44c64559bbebec7f509842c48db8b23 -->
<g id="node8" class="node">
<title>dir_d44c64559bbebec7f509842c48db8b23</title>
<g id="a_node8"><a xlink:href="dir_d44c64559bbebec7f509842c48db8b23.html" target="_top" xlink:title="include">
<polygon fill="none" stroke="red" points="432,-52 378,-52 378,-16 432,-16 432,-52"/>
<text text-anchor="middle" x="405" y="-31.5" font-family="Helvetica,sans-Serif" font-size="10.00">include</text>
</a>
</g>
</g>
<!-- dir_a2b23ad3d4048fef2ffce6bed40d1385&#45;&gt;dir_d44c64559bbebec7f509842c48db8b23 -->
<g id="edge6" class="edge">
<title>dir_a2b23ad3d4048fef2ffce6bed40d1385&#45;&gt;dir_d44c64559bbebec7f509842c48db8b23</title>
<path fill="none" stroke="black" d="M241.72,-96.05C272.96,-87.14 321.39,-72.37 368.41,-53.32"/>
<polygon fill="black" stroke="black" points="369.88,-56.49 377.79,-49.45 367.21,-50.02 369.88,-56.49"/>
<g id="a_edge6&#45;headlabel"><a xlink:href="dir_000017_000022.html" target="_top" xlink:title="48">
<text text-anchor="middle" x="367.64" y="-57.99" font-family="Helvetica,sans-Serif" font-size="10.00">48</text>
</a>
</g>
</g>
<!-- dir_100cae52b844ec0b520b7e5b8ea8fe4b -->
<g id="node7" class="node">
<title>dir_100cae52b844ec0b520b7e5b8ea8fe4b</title>
<g id="a_node7"><a xlink:href="dir_100cae52b844ec0b520b7e5b8ea8fe4b.html" target="_top" xlink:title="authentication">
<polygon fill="#a2b4d6" stroke="#404040" points="158.5,-124 71.5,-124 71.5,-88 158.5,-88 158.5,-124"/>
<text text-anchor="middle" x="115" y="-103.5" font-family="Helvetica,sans-Serif" font-size="10.00">authentication</text>
</a>
</g>
</g>
<!-- dir_100cae52b844ec0b520b7e5b8ea8fe4b&#45;&gt;dir_122f4add68bb94b3fee614989bbbd8f9 -->
<g id="edge7" class="edge">
<title>dir_100cae52b844ec0b520b7e5b8ea8fe4b&#45;&gt;dir_122f4add68bb94b3fee614989bbbd8f9</title>
<path fill="none" stroke="black" d="M115,-87.7C115,-79.98 115,-70.71 115,-62.11"/>
<polygon fill="black" stroke="black" points="118.5,-62.1 115,-52.1 111.5,-62.1 118.5,-62.1"/>
<g id="a_edge7&#45;headlabel"><a xlink:href="dir_000005_000014.html" target="_top" xlink:title="2">
<text text-anchor="middle" x="121.34" y="-63.2" font-family="Helvetica,sans-Serif" font-size="10.00">2</text>
</a>
</g>
</g>
<!-- dir_100cae52b844ec0b520b7e5b8ea8fe4b&#45;&gt;dir_2d29d7dff7c7baf1180920f6796c23ae -->
<g id="edge8" class="edge">
<title>dir_100cae52b844ec0b520b7e5b8ea8fe4b&#45;&gt;dir_2d29d7dff7c7baf1180920f6796c23ae</title>
<path fill="none" stroke="black" d="M97.2,-87.7C88.4,-79.14 77.62,-68.66 68,-59.3"/>
<polygon fill="black" stroke="black" points="70.2,-56.57 60.59,-52.1 65.32,-61.58 70.2,-56.57"/>
<g id="a_edge8&#45;headlabel"><a xlink:href="dir_000005_000020.html" target="_top" xlink:title="3">
<text text-anchor="middle" x="74.76" y="-54.54" font-family="Helvetica,sans-Serif" font-size="10.00">3</text>
</a>
</g>
</g>
<!-- dir_100cae52b844ec0b520b7e5b8ea8fe4b&#45;&gt;dir_d44c64559bbebec7f509842c48db8b23 -->
<g id="edge9" class="edge">
<title>dir_100cae52b844ec0b520b7e5b8ea8fe4b&#45;&gt;dir_d44c64559bbebec7f509842c48db8b23</title>
<path fill="none" stroke="black" d="M147.18,-87.92C153.92,-84.89 161.08,-82.06 168,-80 252.65,-54.87 282.62,-77.84 368.34,-52.78"/>
<polygon fill="black" stroke="black" points="369.4,-56.11 377.93,-49.84 367.35,-49.42 369.4,-56.11"/>
<g id="a_edge9&#45;headlabel"><a xlink:href="dir_000005_000022.html" target="_top" xlink:title="24">
<text text-anchor="middle" x="366.79" y="-57.38" font-family="Helvetica,sans-Serif" font-size="10.00">24</text>
</a>
</g>
</g>
</g>
</svg>
