<?xml version="1.0" encoding="UTF-8" standalone="no"?>
<!DOCTYPE svg PUBLIC "-//W3C//DTD SVG 1.1//EN"
 "http://www.w3.org/Graphics/SVG/1.1/DTD/svg11.dtd">
<!-- Generated by graphviz version 2.43.0 (0)
 -->
<!-- Title: src/apps/external_executor Pages: 1 -->
<svg width="290pt" height="151pt"
 viewBox="0.00 0.00 290.00 151.00" xmlns="http://www.w3.org/2000/svg" xmlns:xlink="http://www.w3.org/1999/xlink">
<g id="graph0" class="graph" transform="scale(1 1) rotate(0) translate(4 147)">
<title>src/apps/external_executor</title>
<polygon fill="white" stroke="transparent" points="-4,4 -4,-147 286,-147 286,4 -4,4"/>
<g id="clust1" class="cluster">
<title>clusterdir_53adf0b982dc8545998aae3f283a5a58</title>
<g id="a_clust1"><a xlink:href="dir_53adf0b982dc8545998aae3f283a5a58.html" target="_top" xlink:title="apps">
<polygon fill="#edf0f7" stroke="#7f7f7f" stroke-dasharray="5,2" points="78,-64 78,-135 198,-135 198,-64 78,-64"/>
<text text-anchor="middle" x="138" y="-123" font-family="Helvetica,sans-Serif" font-size="10.00">apps</text>
</a>
</g>
</g>
<!-- dir_88d5bc67d447a911ad6eaf93832c9ab4 -->
<g id="node1" class="node">
<title>dir_88d5bc67d447a911ad6eaf93832c9ab4</title>
<g id="a_node1"><a xlink:href="dir_88d5bc67d447a911ad6eaf93832c9ab4.html" target="_top" xlink:title="external_executor">
<polygon fill="#edf0f7" stroke="#404040" stroke-width="2" points="190,-108 86,-108 86,-72 190,-72 190,-108"/>
<text text-anchor="middle" x="138" y="-87.5" font-family="Helvetica,sans-Serif" font-size="10.00">external_executor</text>
</a>
</g>
</g>
<!-- dir_18ae7af74d885898b85cbb543ae51b63 -->
<g id="node2" class="node">
<title>dir_18ae7af74d885898b85cbb543ae51b63</title>
<g id="a_node2"><a xlink:href="dir_18ae7af74d885898b85cbb543ae51b63.html" target="_top" xlink:title="node">
<polygon fill="none" stroke="red" stroke-dasharray="5,2" points="54,-36 0,-36 0,0 54,0 54,-36"/>
<text text-anchor="middle" x="27" y="-15.5" font-family="Helvetica,sans-Serif" font-size="10.00">node</text>
</a>
</g>
</g>
<!-- dir_88d5bc67d447a911ad6eaf93832c9ab4&#45;&gt;dir_18ae7af74d885898b85cbb543ae51b63 -->
<g id="edge1" class="edge">
<title>dir_88d5bc67d447a911ad6eaf93832c9ab4&#45;&gt;dir_18ae7af74d885898b85cbb543ae51b63</title>
<path fill="none" stroke="black" d="M110.85,-71.88C96.47,-62.81 78.62,-51.55 63.09,-41.76"/>
<polygon fill="black" stroke="black" points="64.58,-38.56 54.26,-36.19 60.85,-44.48 64.58,-38.56"/>
<g id="a_edge1&#45;headlabel"><a xlink:href="dir_000018_000032.html" target="_top" xlink:title="1">
<text text-anchor="middle" x="69.14" y="-35.58" font-family="Helvetica,sans-Serif" font-size="10.00">1</text>
</a>
</g>
</g>
<!-- dir_2d29d7dff7c7baf1180920f6796c23ae -->
<g id="node3" class="node">
<title>dir_2d29d7dff7c7baf1180920f6796c23ae</title>
<g id="a_node3"><a xlink:href="dir_2d29d7dff7c7baf1180920f6796c23ae.html" target="_top" xlink:title="http">
<polygon fill="none" stroke="#7f7f7f" points="126,-36 72,-36 72,0 126,0 126,-36"/>
<text text-anchor="middle" x="99" y="-15.5" font-family="Helvetica,sans-Serif" font-size="10.00">http</text>
</a>
</g>
</g>
<!-- dir_88d5bc67d447a911ad6eaf93832c9ab4&#45;&gt;dir_2d29d7dff7c7baf1180920f6796c23ae -->
<g id="edge2" class="edge">
<title>dir_88d5bc67d447a911ad6eaf93832c9ab4&#45;&gt;dir_2d29d7dff7c7baf1180920f6796c23ae</title>
<path fill="none" stroke="black" d="M128.36,-71.7C123.87,-63.64 118.44,-53.89 113.48,-44.98"/>
<polygon fill="black" stroke="black" points="116.45,-43.14 108.53,-36.1 110.34,-46.54 116.45,-43.14"/>
<g id="a_edge2&#45;headlabel"><a xlink:href="dir_000018_000020.html" target="_top" xlink:title="1">
<text text-anchor="middle" x="120.68" y="-42.39" font-family="Helvetica,sans-Serif" font-size="10.00">1</text>
</a>
</g>
</g>
<!-- dir_a2b23ad3d4048fef2ffce6bed40d1385 -->
<g id="node4" class="node">
<title>dir_a2b23ad3d4048fef2ffce6bed40d1385</title>
<g id="a_node4"><a xlink:href="dir_a2b23ad3d4048fef2ffce6bed40d1385.html" target="_top" xlink:title="endpoints">
<polygon fill="none" stroke="red" stroke-dasharray="5,2" points="209.5,-36 144.5,-36 144.5,0 209.5,0 209.5,-36"/>
<text text-anchor="middle" x="177" y="-15.5" font-family="Helvetica,sans-Serif" font-size="10.00">endpoints</text>
</a>
</g>
</g>
<!-- dir_88d5bc67d447a911ad6eaf93832c9ab4&#45;&gt;dir_a2b23ad3d4048fef2ffce6bed40d1385 -->
<g id="edge3" class="edge">
<title>dir_88d5bc67d447a911ad6eaf93832c9ab4&#45;&gt;dir_a2b23ad3d4048fef2ffce6bed40d1385</title>
<path fill="none" stroke="black" d="M147.64,-71.7C152.13,-63.64 157.56,-53.89 162.52,-44.98"/>
<polygon fill="black" stroke="black" points="165.66,-46.54 167.47,-36.1 159.55,-43.14 165.66,-46.54"/>
<g id="a_edge3&#45;headlabel"><a xlink:href="dir_000018_000017.html" target="_top" xlink:title="2">
<text text-anchor="middle" x="166.39" y="-48.57" font-family="Helvetica,sans-Serif" font-size="10.00">2</text>
</a>
</g>
</g>
<!-- dir_d44c64559bbebec7f509842c48db8b23 -->
<g id="node5" class="node">
<title>dir_d44c64559bbebec7f509842c48db8b23</title>
<g id="a_node5"><a xlink:href="dir_d44c64559bbebec7f509842c48db8b23.html" target="_top" xlink:title="include">
<polygon fill="none" stroke="red" points="282,-36 228,-36 228,0 282,0 282,-36"/>
<text text-anchor="middle" x="255" y="-15.5" font-family="Helvetica,sans-Serif" font-size="10.00">include</text>
</a>
</g>
</g>
<!-- dir_88d5bc67d447a911ad6eaf93832c9ab4&#45;&gt;dir_d44c64559bbebec7f509842c48db8b23 -->
<g id="edge4" class="edge">
<title>dir_88d5bc67d447a911ad6eaf93832c9ab4&#45;&gt;dir_d44c64559bbebec7f509842c48db8b23</title>
<path fill="none" stroke="black" d="M166.62,-71.88C182.38,-62.45 202.08,-50.66 218.89,-40.61"/>
<polygon fill="black" stroke="black" points="221.1,-43.36 227.88,-35.23 217.5,-37.36 221.1,-43.36"/>
<g id="a_edge4&#45;headlabel"><a xlink:href="dir_000018_000022.html" target="_top" xlink:title="15">
<text text-anchor="middle" x="219.47" y="-45.15" font-family="Helvetica,sans-Serif" font-size="10.00">15</text>
</a>
</g>
</g>
</g>
</svg>
