<?xml version="1.0" encoding="UTF-8" standalone="no"?>
<!DOCTYPE svg PUBLIC "-//W3C//DTD SVG 1.1//EN"
 "http://www.w3.org/Graphics/SVG/1.1/DTD/svg11.dtd">
<!-- Generated by graphviz version 2.43.0 (0)
 -->
<!-- Title: src/crypto/ecdsa.h Pages: 1 -->
<!--zoomable 576 -->
<svg id="main" version="1.1" xmlns="http://www.w3.org/2000/svg" xmlns:xlink="http://www.w3.org/1999/xlink" xml:space="preserve" onload="init(evt)">
<style type="text/css"><![CDATA[
.edge:hover path { stroke: red; }
.edge:hover polygon { stroke: red; fill: red; }
]]></style>
<script type="text/javascript"><![CDATA[
var edges = document.getElementsByTagName('g');
if (edges && edges.length) {
  for (var i=0;i<edges.length;i++) {
    if (edges[i].id.substr(0,4)=='edge') {
      edges[i].setAttribute('class','edge');
    }
  }
}
]]></script>
        <defs>
                <circle id="rim" cx="0" cy="0" r="7"/>
                <circle id="rim2" cx="0" cy="0" r="3.5"/>
                <g id="zoomPlus">
                        <use xlink:href="#rim" fill="#404040">
                                <set attributeName="fill" to="#808080" begin="zoomplus.mouseover" end="zoomplus.mouseout"/>
                        </use>
                        <path d="M-4,0h8M0,-4v8" fill="none" stroke="white" stroke-width="1.5" pointer-events="none"/>
                </g>
                <g id="zoomMin">
                        <use xlink:href="#rim" fill="#404040">
                                <set attributeName="fill" to="#808080" begin="zoomminus.mouseover" end="zoomminus.mouseout"/>
                        </use>
                        <path d="M-4,0h8" fill="none" stroke="white" stroke-width="1.5" pointer-events="none"/>
                </g>
                <g id="dirArrow">
                        <path fill="none" stroke="white" stroke-width="1.5" d="M0,-3.0v7 M-2.5,-0.5L0,-3.0L2.5,-0.5"/>
                </g>
               <g id="resetDef">
                       <use xlink:href="#rim2" fill="#404040">
                               <set attributeName="fill" to="#808080" begin="reset.mouseover" end="reset.mouseout"/>
                       </use>
               </g>
        </defs>

<script type="text/javascript">
var viewWidth = 955;
var viewHeight = 576;
var sectionId = 'dynsection-1';
</script>
<script xlink:href="svgpan.js"/>
<svg id="graph" class="graph">
<g id="viewport">
<title>src/crypto/ecdsa.h</title>
<polygon fill="white" stroke="transparent" points="-4,4 -4,-572 951.15,-572 951.15,4 -4,4"/>
<!-- Node1 -->
<g id="node1" class="node">
<title>Node1</title>
<g id="a_node1"><a xlink:title=" ">
<polygon fill="#bfbfbf" stroke="black" points="552.15,-548.5 552.15,-567.5 657.15,-567.5 657.15,-548.5 552.15,-548.5"/>
<text text-anchor="middle" x="604.65" y="-555.5" font-family="Helvetica,sans-Serif" font-size="10.00">src/crypto/ecdsa.h</text>
</a>
</g>
</g>
<!-- Node2 -->
<g id="node2" class="node">
<title>Node2</title>
<g id="a_node2"><a xlink:href="attestation_8h.html" target="_top" xlink:title=" ">
<polygon fill="white" stroke="black" points="83.65,-353 83.65,-372 235.65,-372 235.65,-353 83.65,-353"/>
<text text-anchor="middle" x="159.65" y="-360" font-family="Helvetica,sans-Serif" font-size="10.00">include/ccf/pal/attestation.h</text>
</a>
</g>
</g>
<!-- Node1&#45;&gt;Node2 -->
<g id="edge1" class="edge">
<title>Node1&#45;&gt;Node2</title>
<path fill="none" stroke="midnightblue" d="M541.9,-547.62C438.31,-530.95 237.88,-493.34 186.65,-445 165.62,-425.16 160.96,-388.58 159.93,-372.03"/>
<polygon fill="midnightblue" stroke="midnightblue" points="541.49,-551.1 551.91,-549.21 542.59,-544.18 541.49,-551.1"/>
</g>
<!-- Node12 -->
<g id="node12" class="node">
<title>Node12</title>
<g id="a_node12"><a xlink:href="raft__types_8h.html" target="_top" xlink:title=" ">
<polygon fill="white" stroke="black" points="544.65,-481.5 544.65,-511.5 664.65,-511.5 664.65,-481.5 544.65,-481.5"/>
<text text-anchor="start" x="552.65" y="-499.5" font-family="Helvetica,sans-Serif" font-size="10.00">src/consensus/aft/raft</text>
<text text-anchor="middle" x="604.65" y="-488.5" font-family="Helvetica,sans-Serif" font-size="10.00">_types.h</text>
</a>
</g>
</g>
<!-- Node1&#45;&gt;Node12 -->
<g id="edge15" class="edge">
<title>Node1&#45;&gt;Node12</title>
<path fill="none" stroke="midnightblue" d="M604.65,-538.23C604.65,-529.59 604.65,-519.5 604.65,-511.52"/>
<polygon fill="midnightblue" stroke="midnightblue" points="601.15,-538.48 604.65,-548.48 608.15,-538.48 601.15,-538.48"/>
</g>
<!-- Node23 -->
<g id="node23" class="node">
<title>Node23</title>
<g id="a_node23"><a xlink:href="crypto_8cpp.html" target="_top" xlink:title=" ">
<polygon fill="white" stroke="black" points="740.65,-487 740.65,-506 836.65,-506 836.65,-487 740.65,-487"/>
<text text-anchor="middle" x="788.65" y="-494" font-family="Helvetica,sans-Serif" font-size="10.00">src/js/crypto.cpp</text>
</a>
</g>
</g>
<!-- Node1&#45;&gt;Node23 -->
<g id="edge37" class="edge">
<title>Node1&#45;&gt;Node23</title>
<path fill="none" stroke="midnightblue" d="M640.58,-545.38C676.35,-533.82 730.39,-516.34 762.34,-506.01"/>
<polygon fill="midnightblue" stroke="midnightblue" points="639.45,-542.07 631.01,-548.48 641.61,-548.73 639.45,-542.07"/>
</g>
<!-- Node3 -->
<g id="node3" class="node">
<title>Node3</title>
<g id="a_node3"><a xlink:href="host_2main_8cpp.html" target="_top" xlink:title=" ">
<polygon fill="white" stroke="black" points="179.15,-291.5 179.15,-310.5 282.15,-310.5 282.15,-291.5 179.15,-291.5"/>
<text text-anchor="middle" x="230.65" y="-298.5" font-family="Helvetica,sans-Serif" font-size="10.00">src/host/main.cpp</text>
</a>
</g>
</g>
<!-- Node2&#45;&gt;Node3 -->
<g id="edge2" class="edge">
<title>Node2&#45;&gt;Node3</title>
<path fill="none" stroke="midnightblue" d="M177.58,-346.47C191.16,-335.09 209.33,-319.87 220.5,-310.51"/>
<polygon fill="midnightblue" stroke="midnightblue" points="175.24,-343.87 169.82,-352.98 179.74,-349.23 175.24,-343.87"/>
</g>
<!-- Node4 -->
<g id="node4" class="node">
<title>Node4</title>
<g id="a_node4"><a xlink:href="node__state_8h.html" target="_top" xlink:title=" ">
<polygon fill="white" stroke="black" points="288.65,-168.5 288.65,-187.5 412.65,-187.5 412.65,-168.5 288.65,-168.5"/>
<text text-anchor="middle" x="350.65" y="-175.5" font-family="Helvetica,sans-Serif" font-size="10.00">src/node/node_state.h</text>
</a>
</g>
</g>
<!-- Node2&#45;&gt;Node4 -->
<g id="edge3" class="edge">
<title>Node2&#45;&gt;Node4</title>
<path fill="none" stroke="midnightblue" d="M73.42,-353.01C29.28,-344.3 -12.17,-326.68 3.65,-291 21.64,-250.44 37.69,-243.28 77.65,-224 144.92,-191.54 231.2,-181.91 288.57,-179.35"/>
<polygon fill="midnightblue" stroke="midnightblue" points="72.99,-356.49 83.46,-354.83 74.25,-349.6 72.99,-356.49"/>
</g>
<!-- Node8 -->
<g id="node8" class="node">
<title>Node8</title>
<g id="a_node8"><a xlink:href="quote_8cpp.html" target="_top" xlink:title=" ">
<polygon fill="white" stroke="black" points="13.15,-291.5 13.15,-310.5 122.15,-310.5 122.15,-291.5 13.15,-291.5"/>
<text text-anchor="middle" x="67.65" y="-298.5" font-family="Helvetica,sans-Serif" font-size="10.00">src/node/quote.cpp</text>
</a>
</g>
</g>
<!-- Node2&#45;&gt;Node8 -->
<g id="edge8" class="edge">
<title>Node2&#45;&gt;Node8</title>
<path fill="none" stroke="midnightblue" d="M137.89,-347.43C120.16,-335.96 95.69,-320.13 80.81,-310.51"/>
<polygon fill="midnightblue" stroke="midnightblue" points="136.17,-350.48 146.47,-352.98 139.97,-344.61 136.17,-350.48"/>
</g>
<!-- Node9 -->
<g id="node9" class="node">
<title>Node9</title>
<g id="a_node9"><a xlink:href="quote__endorsements__client_8h.html" target="_top" xlink:title=" ">
<polygon fill="white" stroke="black" points="86.65,-224.5 86.65,-254.5 250.65,-254.5 250.65,-224.5 86.65,-224.5"/>
<text text-anchor="start" x="94.65" y="-242.5" font-family="Helvetica,sans-Serif" font-size="10.00">src/node/quote_endorsements</text>
<text text-anchor="middle" x="168.65" y="-231.5" font-family="Helvetica,sans-Serif" font-size="10.00">_client.h</text>
</a>
</g>
</g>
<!-- Node2&#45;&gt;Node9 -->
<g id="edge9" class="edge">
<title>Node2&#45;&gt;Node9</title>
<path fill="none" stroke="midnightblue" d="M161.05,-342.68C162.86,-318.3 165.99,-276.32 167.61,-254.54"/>
<polygon fill="midnightblue" stroke="midnightblue" points="157.55,-342.57 160.3,-352.8 164.53,-343.09 157.55,-342.57"/>
</g>
<!-- Node10 -->
<g id="node10" class="node">
<title>Node10</title>
<g id="a_node10"><a xlink:href="node__frontend_8h.html" target="_top" xlink:title=" ">
<polygon fill="white" stroke="black" points="300.65,-291.5 300.65,-310.5 458.65,-310.5 458.65,-291.5 300.65,-291.5"/>
<text text-anchor="middle" x="379.65" y="-298.5" font-family="Helvetica,sans-Serif" font-size="10.00">src/node/rpc/node_frontend.h</text>
</a>
</g>
</g>
<!-- Node2&#45;&gt;Node10 -->
<g id="edge11" class="edge">
<title>Node2&#45;&gt;Node10</title>
<path fill="none" stroke="midnightblue" d="M200.98,-350.32C243.71,-338.76 309.5,-320.97 348.19,-310.51"/>
<polygon fill="midnightblue" stroke="midnightblue" points="199.91,-346.99 191.17,-352.98 201.74,-353.74 199.91,-346.99"/>
</g>
<!-- Node5 -->
<g id="node5" class="node">
<title>Node5</title>
<g id="a_node5"><a xlink:href="src_2enclave_2enclave_8h.html" target="_top" xlink:title=" ">
<polygon fill="white" stroke="black" points="189.65,-56.5 189.65,-75.5 311.65,-75.5 311.65,-56.5 189.65,-56.5"/>
<text text-anchor="middle" x="250.65" y="-63.5" font-family="Helvetica,sans-Serif" font-size="10.00">src/enclave/enclave.h</text>
</a>
</g>
</g>
<!-- Node4&#45;&gt;Node5 -->
<g id="edge4" class="edge">
<title>Node4&#45;&gt;Node5</title>
<path fill="none" stroke="midnightblue" d="M349.04,-158.5C346.99,-144.45 342.3,-125.34 331.65,-112 317.59,-94.4 294.69,-82.6 276.81,-75.51"/>
<polygon fill="midnightblue" stroke="midnightblue" points="345.57,-158.94 350.19,-168.48 352.52,-158.14 345.57,-158.94"/>
</g>
<!-- Node7 -->
<g id="node7" class="node">
<title>Node7</title>
<g id="a_node7"><a xlink:href="gov__effects_8h.html" target="_top" xlink:title=" ">
<polygon fill="white" stroke="black" points="178.65,-112.5 178.65,-131.5 322.65,-131.5 322.65,-112.5 178.65,-112.5"/>
<text text-anchor="middle" x="250.65" y="-119.5" font-family="Helvetica,sans-Serif" font-size="10.00">src/node/rpc/gov_effects.h</text>
</a>
</g>
</g>
<!-- Node4&#45;&gt;Node7 -->
<g id="edge6" class="edge">
<title>Node4&#45;&gt;Node7</title>
<path fill="none" stroke="midnightblue" d="M325.56,-163.45C307.1,-153.48 282.55,-140.23 266.68,-131.65"/>
<polygon fill="midnightblue" stroke="midnightblue" points="324.12,-166.65 334.58,-168.32 327.45,-160.49 324.12,-166.65"/>
</g>
<!-- Node6 -->
<g id="node6" class="node">
<title>Node6</title>
<g id="a_node6"><a xlink:href="enclave_2main_8cpp.html" target="_top" xlink:title=" ">
<polygon fill="white" stroke="black" points="190.65,-0.5 190.65,-19.5 310.65,-19.5 310.65,-0.5 190.65,-0.5"/>
<text text-anchor="middle" x="250.65" y="-7.5" font-family="Helvetica,sans-Serif" font-size="10.00">src/enclave/main.cpp</text>
</a>
</g>
</g>
<!-- Node5&#45;&gt;Node6 -->
<g id="edge5" class="edge">
<title>Node5&#45;&gt;Node6</title>
<path fill="none" stroke="midnightblue" d="M250.65,-45.8C250.65,-36.91 250.65,-26.78 250.65,-19.75"/>
<polygon fill="midnightblue" stroke="midnightblue" points="247.15,-46.08 250.65,-56.08 254.15,-46.08 247.15,-46.08"/>
</g>
<!-- Node7&#45;&gt;Node5 -->
<g id="edge7" class="edge">
<title>Node7&#45;&gt;Node5</title>
<path fill="none" stroke="midnightblue" d="M250.65,-101.8C250.65,-92.91 250.65,-82.78 250.65,-75.75"/>
<polygon fill="midnightblue" stroke="midnightblue" points="247.15,-102.08 250.65,-112.08 254.15,-102.08 247.15,-102.08"/>
</g>
<!-- Node9&#45;&gt;Node4 -->
<g id="edge10" class="edge">
<title>Node9&#45;&gt;Node4</title>
<path fill="none" stroke="midnightblue" d="M221.51,-221.22C255.3,-210.17 297.64,-196.33 324.43,-187.57"/>
<polygon fill="midnightblue" stroke="midnightblue" points="220.2,-217.97 211.78,-224.4 222.37,-224.62 220.2,-217.97"/>
</g>
<!-- Node10&#45;&gt;Node5 -->
<g id="edge12" class="edge">
<title>Node10&#45;&gt;Node5</title>
<path fill="none" stroke="midnightblue" d="M296.09,-290.26C209.22,-279.72 84.82,-263.32 77.65,-255 16.4,-183.95 174.44,-101.98 231.23,-75.63"/>
<polygon fill="midnightblue" stroke="midnightblue" points="295.88,-293.75 306.23,-291.48 296.72,-286.81 295.88,-293.75"/>
</g>
<!-- Node11 -->
<g id="node11" class="node">
<title>Node11</title>
<g id="a_node11"><a xlink:href="jwt__key__auto__refresh_8h.html" target="_top" xlink:title=" ">
<polygon fill="white" stroke="black" points="288.15,-224.5 288.15,-254.5 413.15,-254.5 413.15,-224.5 288.15,-224.5"/>
<text text-anchor="start" x="296.15" y="-242.5" font-family="Helvetica,sans-Serif" font-size="10.00">src/node/jwt_key_auto</text>
<text text-anchor="middle" x="350.65" y="-231.5" font-family="Helvetica,sans-Serif" font-size="10.00">_refresh.h</text>
</a>
</g>
</g>
<!-- Node10&#45;&gt;Node11 -->
<g id="edge13" class="edge">
<title>Node10&#45;&gt;Node11</title>
<path fill="none" stroke="midnightblue" d="M371.07,-282.39C366.73,-273.5 361.55,-262.86 357.49,-254.52"/>
<polygon fill="midnightblue" stroke="midnightblue" points="367.97,-284.02 375.5,-291.48 374.26,-280.95 367.97,-284.02"/>
</g>
<!-- Node11&#45;&gt;Node4 -->
<g id="edge14" class="edge">
<title>Node11&#45;&gt;Node4</title>
<path fill="none" stroke="midnightblue" d="M350.65,-214.29C350.65,-204.86 350.65,-194.65 350.65,-187.66"/>
<polygon fill="midnightblue" stroke="midnightblue" points="347.15,-214.4 350.65,-224.4 354.15,-214.4 347.15,-214.4"/>
</g>
<!-- Node13 -->
<g id="node13" class="node">
<title>Node13</title>
<g id="a_node13"><a xlink:href="request__message_8h.html" target="_top" xlink:title=" ">
<polygon fill="white" stroke="black" points="196.15,-414.5 196.15,-444.5 321.15,-444.5 321.15,-414.5 196.15,-414.5"/>
<text text-anchor="start" x="204.15" y="-432.5" font-family="Helvetica,sans-Serif" font-size="10.00">src/consensus/aft/impl</text>
<text text-anchor="middle" x="258.65" y="-421.5" font-family="Helvetica,sans-Serif" font-size="10.00">/request_message.h</text>
</a>
</g>
</g>
<!-- Node12&#45;&gt;Node13 -->
<g id="edge16" class="edge">
<title>Node12&#45;&gt;Node13</title>
<path fill="none" stroke="midnightblue" d="M534.41,-483C478.8,-473 399.19,-458.48 329.65,-445 326.93,-444.47 324.16,-443.93 321.36,-443.38"/>
<polygon fill="midnightblue" stroke="midnightblue" points="534.04,-486.49 544.5,-484.81 535.28,-479.6 534.04,-486.49"/>
</g>
<!-- Node14 -->
<g id="node14" class="node">
<title>Node14</title>
<g id="a_node14"><a xlink:href="state_8h.html" target="_top" xlink:title=" ">
<polygon fill="white" stroke="black" points="822.15,-347.5 822.15,-377.5 947.15,-377.5 947.15,-347.5 822.15,-347.5"/>
<text text-anchor="start" x="830.15" y="-365.5" font-family="Helvetica,sans-Serif" font-size="10.00">src/consensus/aft/impl</text>
<text text-anchor="middle" x="884.65" y="-354.5" font-family="Helvetica,sans-Serif" font-size="10.00">/state.h</text>
</a>
</g>
</g>
<!-- Node12&#45;&gt;Node14 -->
<g id="edge17" class="edge">
<title>Node12&#45;&gt;Node14</title>
<path fill="none" stroke="midnightblue" d="M645.62,-477.29C665.74,-468.06 690.21,-456.42 711.65,-445 735.4,-432.35 739.62,-426.1 763.65,-414 791,-400.23 823.01,-386.99 847.23,-377.52"/>
<polygon fill="midnightblue" stroke="midnightblue" points="644.07,-474.15 636.42,-481.48 646.97,-480.52 644.07,-474.15"/>
</g>
<!-- Node15 -->
<g id="node15" class="node">
<title>Node15</title>
<g id="a_node15"><a xlink:href="raft_8h.html" target="_top" xlink:title=" ">
<polygon fill="white" stroke="black" points="515.15,-291.5 515.15,-310.5 644.15,-310.5 644.15,-291.5 515.15,-291.5"/>
<text text-anchor="middle" x="579.65" y="-298.5" font-family="Helvetica,sans-Serif" font-size="10.00">src/consensus/aft/raft.h</text>
</a>
</g>
</g>
<!-- Node12&#45;&gt;Node15 -->
<g id="edge22" class="edge">
<title>Node12&#45;&gt;Node15</title>
<path fill="none" stroke="midnightblue" d="M628.48,-474.08C636.04,-465.81 643.51,-455.75 647.65,-445 663.31,-404.35 670.53,-385.24 649.65,-347 640.03,-329.37 620.22,-317.62 604.12,-310.56"/>
<polygon fill="midnightblue" stroke="midnightblue" points="625.79,-471.82 621.3,-481.42 630.79,-476.71 625.79,-471.82"/>
</g>
<!-- Node17 -->
<g id="node17" class="node">
<title>Node17</title>
<g id="a_node17"><a xlink:href="node__connections_8h.html" target="_top" xlink:title=" ">
<polygon fill="white" stroke="black" points="339.15,-420 339.15,-439 494.15,-439 494.15,-420 339.15,-420"/>
<text text-anchor="middle" x="416.65" y="-427" font-family="Helvetica,sans-Serif" font-size="10.00">src/host/node_connections.h</text>
</a>
</g>
</g>
<!-- Node12&#45;&gt;Node17 -->
<g id="edge23" class="edge">
<title>Node12&#45;&gt;Node17</title>
<path fill="none" stroke="midnightblue" d="M554.35,-478.11C517.77,-465.46 469.85,-448.89 441.26,-439.01"/>
<polygon fill="midnightblue" stroke="midnightblue" points="553.26,-481.44 563.86,-481.4 555.55,-474.82 553.26,-481.44"/>
</g>
<!-- Node18 -->
<g id="node18" class="node">
<title>Node18</title>
<g id="a_node18"><a xlink:href="node__client_8h.html" target="_top" xlink:title=" ">
<polygon fill="white" stroke="black" points="512.65,-420 512.65,-439 638.65,-439 638.65,-420 512.65,-420"/>
<text text-anchor="middle" x="575.65" y="-427" font-family="Helvetica,sans-Serif" font-size="10.00">src/node/node_client.h</text>
</a>
</g>
</g>
<!-- Node12&#45;&gt;Node18 -->
<g id="edge25" class="edge">
<title>Node12&#45;&gt;Node18</title>
<path fill="none" stroke="midnightblue" d="M594.14,-471.94C589.05,-460.54 583.26,-447.55 579.53,-439.19"/>
<polygon fill="midnightblue" stroke="midnightblue" points="591.09,-473.69 598.36,-481.4 597.48,-470.84 591.09,-473.69"/>
</g>
<!-- Node22 -->
<g id="node22" class="node">
<title>Node22</title>
<g id="a_node22"><a xlink:href="resharing__tracker_8h.html" target="_top" xlink:title=" ">
<polygon fill="white" stroke="black" points="697.15,-347.5 697.15,-377.5 804.15,-377.5 804.15,-347.5 697.15,-347.5"/>
<text text-anchor="start" x="705.15" y="-365.5" font-family="Helvetica,sans-Serif" font-size="10.00">src/node/resharing</text>
<text text-anchor="middle" x="750.65" y="-354.5" font-family="Helvetica,sans-Serif" font-size="10.00">_tracker.h</text>
</a>
</g>
</g>
<!-- Node12&#45;&gt;Node22 -->
<g id="edge34" class="edge">
<title>Node12&#45;&gt;Node22</title>
<path fill="none" stroke="midnightblue" d="M639.53,-476.03C653.61,-467.4 669.58,-456.58 682.65,-445 706.24,-424.1 728.65,-394.76 740.94,-377.58"/>
<polygon fill="midnightblue" stroke="midnightblue" points="637.39,-473.24 630.6,-481.37 640.98,-479.24 637.39,-473.24"/>
</g>
<!-- Node14&#45;&gt;Node15 -->
<g id="edge18" class="edge">
<title>Node14&#45;&gt;Node15</title>
<path fill="none" stroke="midnightblue" d="M811.76,-346.83C740.41,-332.78 669.15,-319.09 624.34,-310.52"/>
<polygon fill="midnightblue" stroke="midnightblue" points="811.34,-350.32 821.83,-348.82 812.69,-343.45 811.34,-350.32"/>
</g>
<!-- Node16 -->
<g id="node16" class="node">
<title>Node16</title>
<g id="a_node16"><a xlink:href="resharing_8h.html" target="_top" xlink:title=" ">
<polygon fill="white" stroke="black" points="692.65,-291.5 692.65,-310.5 808.65,-310.5 808.65,-291.5 692.65,-291.5"/>
<text text-anchor="middle" x="750.65" y="-298.5" font-family="Helvetica,sans-Serif" font-size="10.00">src/node/resharing.h</text>
</a>
</g>
</g>
<!-- Node14&#45;&gt;Node16 -->
<g id="edge20" class="edge">
<title>Node14&#45;&gt;Node16</title>
<path fill="none" stroke="midnightblue" d="M843.5,-343.23C819.1,-332.39 789.3,-319.16 770.15,-310.66"/>
<polygon fill="midnightblue" stroke="midnightblue" points="842.33,-346.54 852.89,-347.4 845.18,-340.14 842.33,-346.54"/>
</g>
<!-- Node15&#45;&gt;Node4 -->
<g id="edge19" class="edge">
<title>Node15&#45;&gt;Node4</title>
<path fill="none" stroke="midnightblue" d="M577.54,-281.37C574.57,-263.97 567.46,-238.56 550.65,-224 530.2,-206.29 463.53,-193.75 412.73,-186.48"/>
<polygon fill="midnightblue" stroke="midnightblue" points="574.1,-282.04 578.96,-291.45 581.03,-281.06 574.1,-282.04"/>
</g>
<!-- Node16&#45;&gt;Node4 -->
<g id="edge21" class="edge">
<title>Node16&#45;&gt;Node4</title>
<path fill="none" stroke="midnightblue" d="M724.97,-286.87C691.26,-270.12 629.87,-241.26 574.65,-224 520.13,-206.96 456.07,-194.85 410.45,-187.52"/>
<polygon fill="midnightblue" stroke="midnightblue" points="723.6,-290.1 734.11,-291.46 726.74,-283.85 723.6,-290.1"/>
</g>
<!-- Node17&#45;&gt;Node3 -->
<g id="edge24" class="edge">
<title>Node17&#45;&gt;Node3</title>
<path fill="none" stroke="midnightblue" d="M375.44,-416.92C350.52,-408.65 318.99,-395.81 294.65,-378 268.2,-358.65 245.76,-326.16 235.94,-310.69"/>
<polygon fill="midnightblue" stroke="midnightblue" points="374.38,-420.26 384.97,-419.98 376.52,-413.59 374.38,-420.26"/>
</g>
<!-- Node18&#45;&gt;Node15 -->
<g id="edge29" class="edge">
<title>Node18&#45;&gt;Node15</title>
<path fill="none" stroke="midnightblue" d="M544.7,-415.34C529.38,-407.05 512.34,-394.71 503.65,-378 497.29,-365.78 496.83,-358.97 503.65,-347 513.9,-329.02 534.48,-317.49 551.64,-310.6"/>
<polygon fill="midnightblue" stroke="midnightblue" points="543.43,-418.62 553.93,-419.99 546.57,-412.36 543.43,-418.62"/>
</g>
<!-- Node19 -->
<g id="node19" class="node">
<title>Node19</title>
<g id="a_node19"><a xlink:href="orc__requests_8h.html" target="_top" xlink:title=" ">
<polygon fill="white" stroke="black" points="337.15,-347.5 337.15,-377.5 456.15,-377.5 456.15,-347.5 337.15,-347.5"/>
<text text-anchor="start" x="345.15" y="-365.5" font-family="Helvetica,sans-Serif" font-size="10.00">src/consensus/aft/orc</text>
<text text-anchor="middle" x="396.65" y="-354.5" font-family="Helvetica,sans-Serif" font-size="10.00">_requests.h</text>
</a>
</g>
</g>
<!-- Node18&#45;&gt;Node19 -->
<g id="edge26" class="edge">
<title>Node18&#45;&gt;Node19</title>
<path fill="none" stroke="midnightblue" d="M542.18,-416.35C511.84,-405.33 467.13,-389.09 435.28,-377.53"/>
<polygon fill="midnightblue" stroke="midnightblue" points="541.29,-419.75 551.88,-419.87 543.68,-413.17 541.29,-419.75"/>
</g>
<!-- Node20 -->
<g id="node20" class="node">
<title>Node20</title>
<g id="a_node20"><a xlink:href="http__node__client_8h.html" target="_top" xlink:title=" ">
<polygon fill="white" stroke="black" points="431.65,-224.5 431.65,-254.5 541.65,-254.5 541.65,-224.5 431.65,-224.5"/>
<text text-anchor="start" x="439.65" y="-242.5" font-family="Helvetica,sans-Serif" font-size="10.00">src/node/http_node</text>
<text text-anchor="middle" x="486.65" y="-231.5" font-family="Helvetica,sans-Serif" font-size="10.00">_client.h</text>
</a>
</g>
</g>
<!-- Node18&#45;&gt;Node20 -->
<g id="edge30" class="edge">
<title>Node18&#45;&gt;Node20</title>
<path fill="none" stroke="midnightblue" d="M523.01,-417.99C450.44,-403.48 328.43,-378.96 327.65,-378 318.93,-367.33 319.21,-357.89 327.65,-347 367.02,-296.23 421.96,-356.17 467.65,-311 482.71,-296.12 486.2,-270.65 486.82,-254.74"/>
<polygon fill="midnightblue" stroke="midnightblue" points="522.42,-421.44 532.91,-419.97 523.79,-414.58 522.42,-421.44"/>
</g>
<!-- Node21 -->
<g id="node21" class="node">
<title>Node21</title>
<g id="a_node21"><a xlink:href="retired__nodes__cleanup_8h.html" target="_top" xlink:title=" ">
<polygon fill="white" stroke="black" points="512.65,-347.5 512.65,-377.5 640.65,-377.5 640.65,-347.5 512.65,-347.5"/>
<text text-anchor="start" x="520.65" y="-365.5" font-family="Helvetica,sans-Serif" font-size="10.00">src/node/retired_nodes</text>
<text text-anchor="middle" x="576.65" y="-354.5" font-family="Helvetica,sans-Serif" font-size="10.00">_cleanup.h</text>
</a>
</g>
</g>
<!-- Node18&#45;&gt;Node21 -->
<g id="edge32" class="edge">
<title>Node18&#45;&gt;Node21</title>
<path fill="none" stroke="midnightblue" d="M575.94,-409.41C576.1,-399.22 576.29,-386.9 576.43,-377.59"/>
<polygon fill="midnightblue" stroke="midnightblue" points="572.44,-409.68 575.79,-419.73 579.44,-409.79 572.44,-409.68"/>
</g>
<!-- Node19&#45;&gt;Node10 -->
<g id="edge28" class="edge">
<title>Node19&#45;&gt;Node10</title>
<path fill="none" stroke="midnightblue" d="M389.82,-337.59C387.1,-328.08 384.14,-317.73 382.12,-310.66"/>
<polygon fill="midnightblue" stroke="midnightblue" points="386.51,-338.75 392.62,-347.4 393.24,-336.82 386.51,-338.75"/>
</g>
<!-- Node19&#45;&gt;Node15 -->
<g id="edge27" class="edge">
<title>Node19&#45;&gt;Node15</title>
<path fill="none" stroke="midnightblue" d="M449.8,-344.22C483.77,-333.17 526.35,-319.33 553.29,-310.57"/>
<polygon fill="midnightblue" stroke="midnightblue" points="448.45,-340.98 440.02,-347.4 450.61,-347.64 448.45,-340.98"/>
</g>
<!-- Node20&#45;&gt;Node4 -->
<g id="edge31" class="edge">
<title>Node20&#45;&gt;Node4</title>
<path fill="none" stroke="midnightblue" d="M445.21,-220.37C420.39,-209.51 389.96,-196.2 370.44,-187.66"/>
<polygon fill="midnightblue" stroke="midnightblue" points="443.86,-223.6 454.42,-224.4 446.66,-217.18 443.86,-223.6"/>
</g>
<!-- Node21&#45;&gt;Node15 -->
<g id="edge33" class="edge">
<title>Node21&#45;&gt;Node15</title>
<path fill="none" stroke="midnightblue" d="M577.87,-337.29C578.35,-327.86 578.86,-317.65 579.21,-310.66"/>
<polygon fill="midnightblue" stroke="midnightblue" points="574.37,-337.24 577.36,-347.4 581.36,-337.59 574.37,-337.24"/>
</g>
<!-- Node22&#45;&gt;Node15 -->
<g id="edge35" class="edge">
<title>Node22&#45;&gt;Node15</title>
<path fill="none" stroke="midnightblue" d="M700.6,-344.09C669.03,-333.1 629.61,-319.39 604.53,-310.66"/>
<polygon fill="midnightblue" stroke="midnightblue" points="699.53,-347.42 710.13,-347.4 701.83,-340.81 699.53,-347.42"/>
</g>
<!-- Node22&#45;&gt;Node16 -->
<g id="edge36" class="edge">
<title>Node22&#45;&gt;Node16</title>
<path fill="none" stroke="midnightblue" d="M750.65,-337.29C750.65,-327.86 750.65,-317.65 750.65,-310.66"/>
<polygon fill="midnightblue" stroke="midnightblue" points="747.15,-337.4 750.65,-347.4 754.15,-337.4 747.15,-337.4"/>
</g>
<!-- Node24 -->
<g id="node24" class="node">
<title>Node24</title>
<g id="a_node24"><a xlink:href="wrap_8cpp.html" target="_top" xlink:title=" ">
<polygon fill="white" stroke="black" points="773.15,-420 773.15,-439 862.15,-439 862.15,-420 773.15,-420"/>
<text text-anchor="middle" x="817.65" y="-427" font-family="Helvetica,sans-Serif" font-size="10.00">src/js/wrap.cpp</text>
</a>
</g>
</g>
<!-- Node23&#45;&gt;Node24 -->
<g id="edge38" class="edge">
<title>Node23&#45;&gt;Node24</title>
<path fill="none" stroke="midnightblue" d="M796.78,-477.29C802.34,-464.81 809.48,-448.81 813.8,-439.13"/>
<polygon fill="midnightblue" stroke="midnightblue" points="793.44,-476.18 792.56,-486.73 799.83,-479.03 793.44,-476.18"/>
</g>
</g>
</svg>
        <g id="navigator" transform="translate(0 0)" fill="#404254">
                <rect fill="#f2f5e9" fill-opacity="0.5" stroke="#606060" stroke-width=".5" x="0" y="0" width="60" height="60"/>
                <use id="zoomplus" xlink:href="#zoomPlus" x="17" y="9" onmousedown="handleZoom(evt,'in')"/>
                <use id="zoomminus" xlink:href="#zoomMin" x="42" y="9" onmousedown="handleZoom(evt,'out')"/>
                <use id="reset" xlink:href="#resetDef" x="30" y="36" onmousedown="handleReset()"/>
                <g id="arrowUp" xlink:href="#dirArrow" transform="translate(30 24)" onmousedown="handlePan(0,-1)">
                  <use xlink:href="#rim" fill="#404040">
                        <set attributeName="fill" to="#808080" begin="arrowUp.mouseover" end="arrowUp.mouseout"/>
                  </use>
                  <path fill="none" stroke="white" stroke-width="1.5" d="M0,-3.0v7 M-2.5,-0.5L0,-3.0L2.5,-0.5"/>
                </g>
                <g id="arrowRight" xlink:href="#dirArrow" transform="rotate(90) translate(36 -43)" onmousedown="handlePan(1,0)">
                  <use xlink:href="#rim" fill="#404040">
                        <set attributeName="fill" to="#808080" begin="arrowRight.mouseover" end="arrowRight.mouseout"/>
                  </use>
                  <path fill="none" stroke="white" stroke-width="1.5" d="M0,-3.0v7 M-2.5,-0.5L0,-3.0L2.5,-0.5"/>
                </g>
                <g id="arrowDown" xlink:href="#dirArrow" transform="rotate(180) translate(-30 -48)" onmousedown="handlePan(0,1)">
                  <use xlink:href="#rim" fill="#404040">
                        <set attributeName="fill" to="#808080" begin="arrowDown.mouseover" end="arrowDown.mouseout"/>
                  </use>
                  <path fill="none" stroke="white" stroke-width="1.5" d="M0,-3.0v7 M-2.5,-0.5L0,-3.0L2.5,-0.5"/>
                </g>
                <g id="arrowLeft" xlink:href="#dirArrow" transform="rotate(270) translate(-36 17)" onmousedown="handlePan(-1,0)">
                  <use xlink:href="#rim" fill="#404040">
                        <set attributeName="fill" to="#808080" begin="arrowLeft.mouseover" end="arrowLeft.mouseout"/>
                  </use>
                  <path fill="none" stroke="white" stroke-width="1.5" d="M0,-3.0v7 M-2.5,-0.5L0,-3.0L2.5,-0.5"/>
                </g>
        </g>
        <svg viewBox="0 0 15 15" width="100%" height="30px" preserveAspectRatio="xMaxYMin meet">
         <g id="arrow_out" transform="scale(0.3 0.3)">
          <a xlink:href="ecdsa_8h__dep__incl_org.svg" target="_base">
           <rect id="button" ry="5" rx="5" y="6" x="6" height="38" width="38"
                fill="#f2f5e9" fill-opacity="0.5" stroke="#606060" stroke-width="1.0"/>
           <path id="arrow"
             d="M 11.500037,31.436501 C 11.940474,20.09759 22.043105,11.32322 32.158766,21.979434 L 37.068811,17.246167 C 37.068811,17.246167 37.088388,32 37.088388,32 L 22.160133,31.978069 C 22.160133,31.978069 26.997745,27.140456 26.997745,27.140456 C 18.528582,18.264221 13.291696,25.230495 11.500037,31.436501 z"
             style="fill:#404040;"/>
          </a>
         </g>
        </svg>
</svg>
