<?xml version="1.0" encoding="UTF-8" standalone="no"?>
<!DOCTYPE svg PUBLIC "-//W3C//DTD SVG 1.1//EN"
 "http://www.w3.org/Graphics/SVG/1.1/DTD/svg11.dtd">
<!-- Generated by graphviz version 2.43.0 (0)
 -->
<!-- Title: src/common/enclave_interface_types.h Pages: 1 -->
<svg width="2272pt" height="687pt"
 viewBox="0.00 0.00 2272.00 687.00" xmlns="http://www.w3.org/2000/svg" xmlns:xlink="http://www.w3.org/1999/xlink">
<g id="graph0" class="graph" transform="scale(1 1) rotate(0) translate(4 683)">
<title>src/common/enclave_interface_types.h</title>
<polygon fill="white" stroke="transparent" points="-4,4 -4,-683 2268,-683 2268,4 -4,4"/>
<!-- Node1 -->
<g id="node1" class="node">
<title>Node1</title>
<g id="a_node1"><a xlink:title=" ">
<polygon fill="#bfbfbf" stroke="black" points="632,-648.5 632,-678.5 750,-678.5 750,-648.5 632,-648.5"/>
<text text-anchor="start" x="640" y="-666.5" font-family="Helvetica,sans-Serif" font-size="10.00">src/common/enclave</text>
<text text-anchor="middle" x="691" y="-655.5" font-family="Helvetica,sans-Serif" font-size="10.00">_interface_types.h</text>
</a>
</g>
</g>
<!-- Node2 -->
<g id="node2" class="node">
<title>Node2</title>
<g id="a_node2"><a xlink:href="common_2configuration_8h.html" target="_top" xlink:title=" ">
<polygon fill="white" stroke="black" points="615,-587 615,-606 767,-606 767,-587 615,-587"/>
<text text-anchor="middle" x="691" y="-594" font-family="Helvetica,sans-Serif" font-size="10.00">src/common/configuration.h</text>
</a>
</g>
</g>
<!-- Node1&#45;&gt;Node2 -->
<g id="edge1" class="edge">
<title>Node1&#45;&gt;Node2</title>
<path fill="none" stroke="midnightblue" d="M691,-638.25C691,-627.02 691,-614.38 691,-606.19"/>
<polygon fill="midnightblue" stroke="midnightblue" points="687.5,-638.4 691,-648.4 694.5,-638.4 687.5,-638.4"/>
</g>
<!-- Node8 -->
<g id="node8" class="node">
<title>Node8</title>
<g id="a_node8"><a xlink:href="enclave_2main_8cpp.html" target="_top" xlink:title=" ">
<polygon fill="white" stroke="black" points="276,-0.5 276,-19.5 396,-19.5 396,-0.5 276,-0.5"/>
<text text-anchor="middle" x="336" y="-7.5" font-family="Helvetica,sans-Serif" font-size="10.00">src/enclave/main.cpp</text>
</a>
</g>
</g>
<!-- Node1&#45;&gt;Node8 -->
<g id="edge67" class="edge">
<title>Node1&#45;&gt;Node8</title>
<path fill="none" stroke="midnightblue" d="M621.65,-656.51C446.46,-640.44 0,-593.33 0,-530.5 0,-530.5 0,-530.5 0,-126.5 0,-68.83 179.28,-33.78 275.93,-19.08"/>
<polygon fill="midnightblue" stroke="midnightblue" points="621.51,-660.01 631.79,-657.43 622.15,-653.04 621.51,-660.01"/>
</g>
<!-- Node37 -->
<g id="node37" class="node">
<title>Node37</title>
<g id="a_node37"><a xlink:href="virtual__enclave_8h.html" target="_top" xlink:title=" ">
<polygon fill="white" stroke="black" points="785.5,-581.5 785.5,-611.5 892.5,-611.5 892.5,-581.5 785.5,-581.5"/>
<text text-anchor="start" x="793.5" y="-599.5" font-family="Helvetica,sans-Serif" font-size="10.00">src/enclave/virtual</text>
<text text-anchor="middle" x="839" y="-588.5" font-family="Helvetica,sans-Serif" font-size="10.00">_enclave.h</text>
</a>
</g>
</g>
<!-- Node1&#45;&gt;Node37 -->
<g id="edge68" class="edge">
<title>Node1&#45;&gt;Node37</title>
<path fill="none" stroke="midnightblue" d="M732.51,-644.27C756.08,-633.92 785.14,-621.15 806.95,-611.58"/>
<polygon fill="midnightblue" stroke="midnightblue" points="730.86,-641.17 723.11,-648.4 733.68,-647.58 730.86,-641.17"/>
</g>
<!-- Node3 -->
<g id="node3" class="node">
<title>Node3</title>
<g id="a_node3"><a xlink:href="host_2configuration_8h.html" target="_top" xlink:title=" ">
<polygon fill="white" stroke="black" points="1582.5,-520 1582.5,-539 1713.5,-539 1713.5,-520 1582.5,-520"/>
<text text-anchor="middle" x="1648" y="-527" font-family="Helvetica,sans-Serif" font-size="10.00">src/host/configuration.h</text>
</a>
</g>
</g>
<!-- Node2&#45;&gt;Node3 -->
<g id="edge2" class="edge">
<title>Node2&#45;&gt;Node3</title>
<path fill="none" stroke="midnightblue" d="M746.04,-585.3C756.3,-583.66 766.96,-582.13 777,-581 1076.52,-547.17 1436.69,-535.42 1582.23,-531.86"/>
<polygon fill="midnightblue" stroke="midnightblue" points="745.25,-581.89 735.95,-586.97 746.39,-588.79 745.25,-581.89"/>
</g>
<!-- Node5 -->
<g id="node5" class="node">
<title>Node5</title>
<g id="a_node5"><a xlink:href="frontend_8h.html" target="_top" xlink:title=" ">
<polygon fill="white" stroke="black" points="626.5,-386 626.5,-405 755.5,-405 755.5,-386 626.5,-386"/>
<text text-anchor="middle" x="691" y="-393" font-family="Helvetica,sans-Serif" font-size="10.00">src/node/rpc/frontend.h</text>
</a>
</g>
</g>
<!-- Node2&#45;&gt;Node5 -->
<g id="edge4" class="edge">
<title>Node2&#45;&gt;Node5</title>
<path fill="none" stroke="midnightblue" d="M691,-576.8C691,-535.01 691,-435.33 691,-405.24"/>
<polygon fill="midnightblue" stroke="midnightblue" points="687.5,-576.95 691,-586.95 694.5,-576.95 687.5,-576.95"/>
</g>
<!-- Node16 -->
<g id="node16" class="node">
<title>Node16</title>
<g id="a_node16"><a xlink:href="node__call__types_8h.html" target="_top" xlink:title=" ">
<polygon fill="white" stroke="black" points="434.5,-514.5 434.5,-544.5 559.5,-544.5 559.5,-514.5 434.5,-514.5"/>
<text text-anchor="start" x="442.5" y="-532.5" font-family="Helvetica,sans-Serif" font-size="10.00">src/node/rpc/node_call</text>
<text text-anchor="middle" x="497" y="-521.5" font-family="Helvetica,sans-Serif" font-size="10.00">_types.h</text>
</a>
</g>
</g>
<!-- Node2&#45;&gt;Node16 -->
<g id="edge22" class="edge">
<title>Node2&#45;&gt;Node16</title>
<path fill="none" stroke="midnightblue" d="M655.58,-583.63C622.69,-572.61 573.68,-556.19 538.87,-544.53"/>
<polygon fill="midnightblue" stroke="midnightblue" points="654.64,-587.01 665.24,-586.87 656.87,-580.37 654.64,-587.01"/>
</g>
<!-- Node22 -->
<g id="node22" class="node">
<title>Node22</title>
<g id="a_node22"><a xlink:href="node__interface_8h.html" target="_top" xlink:title=" ">
<polygon fill="white" stroke="black" points="841.5,-520 841.5,-539 1002.5,-539 1002.5,-520 841.5,-520"/>
<text text-anchor="middle" x="922" y="-527" font-family="Helvetica,sans-Serif" font-size="10.00">src/node/rpc/node_interface.h</text>
</a>
</g>
</g>
<!-- Node2&#45;&gt;Node22 -->
<g id="edge35" class="edge">
<title>Node2&#45;&gt;Node22</title>
<path fill="none" stroke="midnightblue" d="M731.55,-584.09C777.24,-571.23 850.5,-550.62 891.57,-539.06"/>
<polygon fill="midnightblue" stroke="midnightblue" points="730.35,-580.79 721.68,-586.87 732.25,-587.53 730.35,-580.79"/>
</g>
<!-- Node4 -->
<g id="node4" class="node">
<title>Node4</title>
<g id="a_node4"><a xlink:href="host_2main_8cpp.html" target="_top" xlink:title=" ">
<polygon fill="white" stroke="black" points="2138.5,-453 2138.5,-472 2241.5,-472 2241.5,-453 2138.5,-453"/>
<text text-anchor="middle" x="2190" y="-460" font-family="Helvetica,sans-Serif" font-size="10.00">src/host/main.cpp</text>
</a>
</g>
</g>
<!-- Node3&#45;&gt;Node4 -->
<g id="edge3" class="edge">
<title>Node3&#45;&gt;Node4</title>
<path fill="none" stroke="midnightblue" d="M1723.76,-523.06C1817.97,-515.7 1983.52,-500.81 2124,-478 2133.96,-476.38 2144.67,-474.22 2154.52,-472.05"/>
<polygon fill="midnightblue" stroke="midnightblue" points="1723.45,-519.58 1713.75,-523.84 1723.99,-526.55 1723.45,-519.58"/>
</g>
<!-- Node6 -->
<g id="node6" class="node">
<title>Node6</title>
<g id="a_node6"><a xlink:href="acme__challenge__frontend_8h.html" target="_top" xlink:title=" ">
<polygon fill="white" stroke="black" points="522,-313.5 522,-343.5 662,-343.5 662,-313.5 522,-313.5"/>
<text text-anchor="start" x="530" y="-331.5" font-family="Helvetica,sans-Serif" font-size="10.00">src/node/acme_challenge</text>
<text text-anchor="middle" x="592" y="-320.5" font-family="Helvetica,sans-Serif" font-size="10.00">_frontend.h</text>
</a>
</g>
</g>
<!-- Node5&#45;&gt;Node6 -->
<g id="edge5" class="edge">
<title>Node5&#45;&gt;Node6</title>
<path fill="none" stroke="midnightblue" d="M669.15,-380.15C652.58,-369.27 629.93,-354.4 613.46,-343.59"/>
<polygon fill="midnightblue" stroke="midnightblue" points="667.37,-383.17 677.65,-385.73 671.21,-377.32 667.37,-383.17"/>
</g>
<!-- Node10 -->
<g id="node10" class="node">
<title>Node10</title>
<g id="a_node10"><a xlink:href="node__state_8h.html" target="_top" xlink:title=" ">
<polygon fill="white" stroke="black" points="547,-185 547,-204 671,-204 671,-185 547,-185"/>
<text text-anchor="middle" x="609" y="-192" font-family="Helvetica,sans-Serif" font-size="10.00">src/node/node_state.h</text>
</a>
</g>
</g>
<!-- Node5&#45;&gt;Node10 -->
<g id="edge13" class="edge">
<title>Node5&#45;&gt;Node10</title>
<path fill="none" stroke="midnightblue" d="M691.52,-375.69C691.53,-346.18 688.26,-288.06 665,-246 654.99,-227.9 636,-212.9 622.94,-204.08"/>
<polygon fill="midnightblue" stroke="midnightblue" points="688.02,-375.77 691.38,-385.82 695.02,-375.87 688.02,-375.77"/>
</g>
<!-- Node12 -->
<g id="node12" class="node">
<title>Node12</title>
<g id="a_node12"><a xlink:href="member__frontend_8h.html" target="_top" xlink:title=" ">
<polygon fill="white" stroke="black" points="384,-313.5 384,-343.5 504,-343.5 504,-313.5 384,-313.5"/>
<text text-anchor="start" x="392" y="-331.5" font-family="Helvetica,sans-Serif" font-size="10.00">src/node/rpc/member</text>
<text text-anchor="middle" x="444" y="-320.5" font-family="Helvetica,sans-Serif" font-size="10.00">_frontend.h</text>
</a>
</g>
</g>
<!-- Node5&#45;&gt;Node12 -->
<g id="edge14" class="edge">
<title>Node5&#45;&gt;Node12</title>
<path fill="none" stroke="midnightblue" d="M648.59,-383.34C606.76,-372.33 542.7,-355.47 497.42,-343.56"/>
<polygon fill="midnightblue" stroke="midnightblue" points="647.89,-386.78 658.46,-385.94 649.68,-380.01 647.89,-386.78"/>
</g>
<!-- Node13 -->
<g id="node13" class="node">
<title>Node13</title>
<g id="a_node13"><a xlink:href="node__frontend_8h.html" target="_top" xlink:title=" ">
<polygon fill="white" stroke="black" points="718,-319 718,-338 876,-338 876,-319 718,-319"/>
<text text-anchor="middle" x="797" y="-326" font-family="Helvetica,sans-Serif" font-size="10.00">src/node/rpc/node_frontend.h</text>
</a>
</g>
</g>
<!-- Node5&#45;&gt;Node13 -->
<g id="edge16" class="edge">
<title>Node5&#45;&gt;Node13</title>
<path fill="none" stroke="midnightblue" d="M713.92,-380.44C734.92,-367.57 765.32,-348.93 782.93,-338.13"/>
<polygon fill="midnightblue" stroke="midnightblue" points="711.99,-377.52 705.3,-385.73 715.65,-383.49 711.99,-377.52"/>
</g>
<!-- Node15 -->
<g id="node15" class="node">
<title>Node15</title>
<g id="a_node15"><a xlink:href="user__frontend_8h.html" target="_top" xlink:title=" ">
<polygon fill="white" stroke="black" points="704.5,-118 704.5,-137 859.5,-137 859.5,-118 704.5,-118"/>
<text text-anchor="middle" x="782" y="-125" font-family="Helvetica,sans-Serif" font-size="10.00">src/node/rpc/user_frontend.h</text>
</a>
</g>
</g>
<!-- Node5&#45;&gt;Node15 -->
<g id="edge20" class="edge">
<title>Node5&#45;&gt;Node15</title>
<path fill="none" stroke="midnightblue" d="M765.66,-384.59C813.82,-376.49 870.15,-363.22 885,-344 940.03,-272.81 827.76,-167.47 792.27,-137.02"/>
<polygon fill="midnightblue" stroke="midnightblue" points="764.84,-381.18 755.53,-386.24 765.96,-388.09 764.84,-381.18"/>
</g>
<!-- Node7 -->
<g id="node7" class="node">
<title>Node7</title>
<g id="a_node7"><a xlink:href="src_2enclave_2enclave_8h.html" target="_top" xlink:title=" ">
<polygon fill="white" stroke="black" points="615,-56.5 615,-75.5 737,-75.5 737,-56.5 615,-56.5"/>
<text text-anchor="middle" x="676" y="-63.5" font-family="Helvetica,sans-Serif" font-size="10.00">src/enclave/enclave.h</text>
</a>
</g>
</g>
<!-- Node6&#45;&gt;Node7 -->
<g id="edge6" class="edge">
<title>Node6&#45;&gt;Node7</title>
<path fill="none" stroke="midnightblue" d="M541.03,-309.12C525.37,-301.31 509.3,-290.76 498,-277 450.05,-218.6 409.25,-170.56 457,-112 476.62,-87.93 557.26,-76.37 614.99,-71.09"/>
<polygon fill="midnightblue" stroke="midnightblue" points="539.63,-312.33 550.17,-313.4 542.6,-305.99 539.63,-312.33"/>
</g>
<!-- Node9 -->
<g id="node9" class="node">
<title>Node9</title>
<g id="a_node9"><a xlink:href="ccf__acme__client_8h.html" target="_top" xlink:title=" ">
<polygon fill="white" stroke="black" points="506.5,-252 506.5,-271 655.5,-271 655.5,-252 506.5,-252"/>
<text text-anchor="middle" x="581" y="-259" font-family="Helvetica,sans-Serif" font-size="10.00">src/node/ccf_acme_client.h</text>
</a>
</g>
</g>
<!-- Node6&#45;&gt;Node9 -->
<g id="edge8" class="edge">
<title>Node6&#45;&gt;Node9</title>
<path fill="none" stroke="midnightblue" d="M587.9,-303.25C586,-292.02 583.86,-279.38 582.47,-271.19"/>
<polygon fill="midnightblue" stroke="midnightblue" points="584.49,-304.12 589.61,-313.4 591.4,-302.95 584.49,-304.12"/>
</g>
<!-- Node7&#45;&gt;Node8 -->
<g id="edge7" class="edge">
<title>Node7&#45;&gt;Node8</title>
<path fill="none" stroke="midnightblue" d="M612.12,-54.85C547.88,-44.65 449.95,-29.1 389.62,-19.52"/>
<polygon fill="midnightblue" stroke="midnightblue" points="611.7,-58.33 622.13,-56.44 612.8,-51.42 611.7,-58.33"/>
</g>
<!-- Node9&#45;&gt;Node10 -->
<g id="edge9" class="edge">
<title>Node9&#45;&gt;Node10</title>
<path fill="none" stroke="midnightblue" d="M588.84,-242.29C594.22,-229.81 601.11,-213.81 605.28,-204.13"/>
<polygon fill="midnightblue" stroke="midnightblue" points="585.52,-241.16 584.78,-251.73 591.95,-243.93 585.52,-241.16"/>
</g>
<!-- Node10&#45;&gt;Node7 -->
<g id="edge10" class="edge">
<title>Node10&#45;&gt;Node7</title>
<path fill="none" stroke="midnightblue" d="M618.32,-175.9C632.87,-148.44 660.43,-96.4 671.36,-75.76"/>
<polygon fill="midnightblue" stroke="midnightblue" points="615.19,-174.33 613.61,-184.81 621.38,-177.61 615.19,-174.33"/>
</g>
<!-- Node11 -->
<g id="node11" class="node">
<title>Node11</title>
<g id="a_node11"><a xlink:href="gov__effects_8h.html" target="_top" xlink:title=" ">
<polygon fill="white" stroke="black" points="466,-118 466,-137 610,-137 610,-118 466,-118"/>
<text text-anchor="middle" x="538" y="-125" font-family="Helvetica,sans-Serif" font-size="10.00">src/node/rpc/gov_effects.h</text>
</a>
</g>
</g>
<!-- Node10&#45;&gt;Node11 -->
<g id="edge11" class="edge">
<title>Node10&#45;&gt;Node11</title>
<path fill="none" stroke="midnightblue" d="M591.91,-177.86C577.95,-165.08 558.74,-147.49 547.42,-137.13"/>
<polygon fill="midnightblue" stroke="midnightblue" points="589.69,-180.56 599.42,-184.73 594.41,-175.4 589.69,-180.56"/>
</g>
<!-- Node11&#45;&gt;Node7 -->
<g id="edge12" class="edge">
<title>Node11&#45;&gt;Node7</title>
<path fill="none" stroke="midnightblue" d="M567.04,-113.98C593.84,-102.42 632.92,-85.58 656.26,-75.51"/>
<polygon fill="midnightblue" stroke="midnightblue" points="565.57,-110.8 557.77,-117.98 568.34,-117.23 565.57,-110.8"/>
</g>
<!-- Node12&#45;&gt;Node7 -->
<g id="edge15" class="edge">
<title>Node12&#45;&gt;Node7</title>
<path fill="none" stroke="midnightblue" d="M433.89,-303.82C417.03,-260.18 389.36,-166.52 436,-112 458.7,-85.46 551.58,-74.45 614.91,-69.96"/>
<polygon fill="midnightblue" stroke="midnightblue" points="430.73,-305.33 437.7,-313.31 437.22,-302.73 430.73,-305.33"/>
</g>
<!-- Node13&#45;&gt;Node7 -->
<g id="edge17" class="edge">
<title>Node13&#45;&gt;Node7</title>
<path fill="none" stroke="midnightblue" d="M817.94,-312.41C828.51,-303.46 840.28,-291.11 846,-277 851.18,-264.23 852.42,-258.19 846,-246 808.33,-174.44 742.54,-209.14 696,-143 681.24,-122.02 677.37,-90.87 676.36,-75.8"/>
<polygon fill="midnightblue" stroke="midnightblue" points="815.51,-309.87 809.86,-318.83 819.86,-315.35 815.51,-309.87"/>
</g>
<!-- Node14 -->
<g id="node14" class="node">
<title>Node14</title>
<g id="a_node14"><a xlink:href="jwt__key__auto__refresh_8h.html" target="_top" xlink:title=" ">
<polygon fill="white" stroke="black" points="711.5,-246.5 711.5,-276.5 836.5,-276.5 836.5,-246.5 711.5,-246.5"/>
<text text-anchor="start" x="719.5" y="-264.5" font-family="Helvetica,sans-Serif" font-size="10.00">src/node/jwt_key_auto</text>
<text text-anchor="middle" x="774" y="-253.5" font-family="Helvetica,sans-Serif" font-size="10.00">_refresh.h</text>
</a>
</g>
</g>
<!-- Node13&#45;&gt;Node14 -->
<g id="edge18" class="edge">
<title>Node13&#45;&gt;Node14</title>
<path fill="none" stroke="midnightblue" d="M790.48,-309.06C786.83,-298.75 782.35,-286.1 778.99,-276.59"/>
<polygon fill="midnightblue" stroke="midnightblue" points="787.26,-310.47 793.9,-318.73 793.86,-308.14 787.26,-310.47"/>
</g>
<!-- Node14&#45;&gt;Node10 -->
<g id="edge19" class="edge">
<title>Node14&#45;&gt;Node10</title>
<path fill="none" stroke="midnightblue" d="M728.62,-242.62C696.68,-230.04 655.37,-213.77 630.59,-204.01"/>
<polygon fill="midnightblue" stroke="midnightblue" points="727.61,-245.99 738.2,-246.4 730.18,-239.47 727.61,-245.99"/>
</g>
<!-- Node15&#45;&gt;Node7 -->
<g id="edge21" class="edge">
<title>Node15&#45;&gt;Node7</title>
<path fill="none" stroke="midnightblue" d="M758.05,-113.06C737.54,-101.54 708.62,-85.31 691.16,-75.51"/>
<polygon fill="midnightblue" stroke="midnightblue" points="756.38,-116.13 766.81,-117.98 759.81,-110.03 756.38,-116.13"/>
</g>
<!-- Node17 -->
<g id="node17" class="node">
<title>Node17</title>
<g id="a_node17"><a xlink:href="call__types_8h.html" target="_top" xlink:title=" ">
<polygon fill="white" stroke="black" points="331.5,-453 331.5,-472 468.5,-472 468.5,-453 331.5,-453"/>
<text text-anchor="middle" x="400" y="-460" font-family="Helvetica,sans-Serif" font-size="10.00">src/node/rpc/call_types.h</text>
</a>
</g>
</g>
<!-- Node16&#45;&gt;Node17 -->
<g id="edge23" class="edge">
<title>Node16&#45;&gt;Node17</title>
<path fill="none" stroke="midnightblue" d="M467.36,-508.64C449.06,-496.37 426.51,-481.26 412.7,-472.01"/>
<polygon fill="midnightblue" stroke="midnightblue" points="465.7,-511.74 475.95,-514.4 469.59,-505.92 465.7,-511.74"/>
</g>
<!-- Node17&#45;&gt;Node12 -->
<g id="edge28" class="edge">
<title>Node17&#45;&gt;Node12</title>
<path fill="none" stroke="midnightblue" d="M420.1,-446.24C430.25,-437.23 441.53,-424.9 447,-411 455.76,-388.73 451.65,-360.35 447.84,-343.63"/>
<polygon fill="midnightblue" stroke="midnightblue" points="417.78,-443.61 412.34,-452.71 422.27,-448.99 417.78,-443.61"/>
</g>
<!-- Node18 -->
<g id="node18" class="node">
<title>Node18</title>
<g id="a_node18"><a xlink:href="common__endpoint__registry_8cpp.html" target="_top" xlink:title=" ">
<polygon fill="white" stroke="black" points="66,-313.5 66,-343.5 194,-343.5 194,-313.5 66,-313.5"/>
<text text-anchor="start" x="74" y="-331.5" font-family="Helvetica,sans-Serif" font-size="10.00">src/endpoints/common</text>
<text text-anchor="middle" x="130" y="-320.5" font-family="Helvetica,sans-Serif" font-size="10.00">_endpoint_registry.cpp</text>
</a>
</g>
</g>
<!-- Node17&#45;&gt;Node18 -->
<g id="edge24" class="edge">
<title>Node17&#45;&gt;Node18</title>
<path fill="none" stroke="midnightblue" d="M363.11,-449.77C335.53,-440.5 297.2,-426.58 265,-411 222.86,-390.61 176.78,-361.1 150.83,-343.75"/>
<polygon fill="midnightblue" stroke="midnightblue" points="362.16,-453.14 372.75,-452.96 364.36,-446.49 362.16,-453.14"/>
</g>
<!-- Node19 -->
<g id="node19" class="node">
<title>Node19</title>
<g id="a_node19"><a xlink:href="wrap_8cpp.html" target="_top" xlink:title=" ">
<polygon fill="white" stroke="black" points="1437.5,-319 1437.5,-338 1526.5,-338 1526.5,-319 1437.5,-319"/>
<text text-anchor="middle" x="1482" y="-326" font-family="Helvetica,sans-Serif" font-size="10.00">src/js/wrap.cpp</text>
</a>
</g>
</g>
<!-- Node17&#45;&gt;Node19 -->
<g id="edge25" class="edge">
<title>Node17&#45;&gt;Node19</title>
<path fill="none" stroke="midnightblue" d="M478.64,-451.91C691.1,-425.99 1271.74,-355.15 1437.36,-334.95"/>
<polygon fill="midnightblue" stroke="midnightblue" points="478.01,-448.46 468.5,-453.14 478.86,-455.41 478.01,-448.46"/>
</g>
<!-- Node20 -->
<g id="node20" class="node">
<title>Node20</title>
<g id="a_node20"><a xlink:href="resharing_8h.html" target="_top" xlink:title=" ">
<polygon fill="white" stroke="black" points="212,-319 212,-338 328,-338 328,-319 212,-319"/>
<text text-anchor="middle" x="270" y="-326" font-family="Helvetica,sans-Serif" font-size="10.00">src/node/resharing.h</text>
</a>
</g>
</g>
<!-- Node17&#45;&gt;Node20 -->
<g id="edge26" class="edge">
<title>Node17&#45;&gt;Node20</title>
<path fill="none" stroke="midnightblue" d="M342.23,-449.97C319.76,-442.56 295.88,-430.51 281,-411 264.37,-389.21 266.5,-354.26 268.6,-338.15"/>
<polygon fill="midnightblue" stroke="midnightblue" points="341.49,-453.41 352.08,-452.97 343.53,-446.71 341.49,-453.41"/>
</g>
<!-- Node21 -->
<g id="node21" class="node">
<title>Node21</title>
<g id="a_node21"><a xlink:href="serialization_8h.html" target="_top" xlink:title=" ">
<polygon fill="white" stroke="black" points="290,-386 290,-405 438,-405 438,-386 290,-386"/>
<text text-anchor="middle" x="364" y="-393" font-family="Helvetica,sans-Serif" font-size="10.00">src/node/rpc/serialization.h</text>
</a>
</g>
</g>
<!-- Node17&#45;&gt;Node21 -->
<g id="edge29" class="edge">
<title>Node17&#45;&gt;Node21</title>
<path fill="none" stroke="midnightblue" d="M390.12,-443.66C383.18,-431.13 374.2,-414.91 368.78,-405.13"/>
<polygon fill="midnightblue" stroke="midnightblue" points="387.24,-445.68 395.14,-452.73 393.36,-442.29 387.24,-445.68"/>
</g>
<!-- Node20&#45;&gt;Node10 -->
<g id="edge27" class="edge">
<title>Node20&#45;&gt;Node10</title>
<path fill="none" stroke="midnightblue" d="M298.1,-314.83C335.29,-298.24 403.03,-268.61 462,-246 503.57,-230.06 552.62,-213.69 582.24,-204.06"/>
<polygon fill="midnightblue" stroke="midnightblue" points="296.59,-311.67 288.89,-318.95 299.45,-318.06 296.59,-311.67"/>
</g>
<!-- Node21&#45;&gt;Node10 -->
<g id="edge31" class="edge">
<title>Node21&#45;&gt;Node10</title>
<path fill="none" stroke="midnightblue" d="M361.97,-375.81C361.02,-358.1 362.25,-331.52 375,-313 377.21,-309.8 494.52,-247.74 498,-246 529.45,-230.31 566.78,-213.73 589.15,-204.02"/>
<polygon fill="midnightblue" stroke="midnightblue" points="358.5,-376.32 362.8,-386 365.47,-375.75 358.5,-376.32"/>
</g>
<!-- Node21&#45;&gt;Node12 -->
<g id="edge33" class="edge">
<title>Node21&#45;&gt;Node12</title>
<path fill="none" stroke="midnightblue" d="M382.79,-379.24C396.06,-368.45 413.72,-354.1 426.66,-343.59"/>
<polygon fill="midnightblue" stroke="midnightblue" points="380.34,-376.71 374.79,-385.73 384.76,-382.14 380.34,-376.71"/>
</g>
<!-- Node21&#45;&gt;Node13 -->
<g id="edge34" class="edge">
<title>Node21&#45;&gt;Node13</title>
<path fill="none" stroke="midnightblue" d="M431.09,-384.43C515.93,-371.69 660.51,-349.99 740.17,-338.03"/>
<polygon fill="midnightblue" stroke="midnightblue" points="430.42,-380.99 421.05,-385.94 431.46,-387.91 430.42,-380.99"/>
</g>
<!-- Node21&#45;&gt;Node18 -->
<g id="edge30" class="edge">
<title>Node21&#45;&gt;Node18</title>
<path fill="none" stroke="midnightblue" d="M323.06,-383.13C283.39,-372.11 223.13,-355.37 180.5,-343.53"/>
<polygon fill="midnightblue" stroke="midnightblue" points="322.35,-386.56 332.93,-385.87 324.23,-379.82 322.35,-386.56"/>
</g>
<!-- Node21&#45;&gt;Node20 -->
<g id="edge32" class="edge">
<title>Node21&#45;&gt;Node20</title>
<path fill="none" stroke="midnightblue" d="M342.91,-379.92C324.33,-367.07 297.88,-348.78 282.48,-338.13"/>
<polygon fill="midnightblue" stroke="midnightblue" points="341.11,-382.93 351.32,-385.73 345.09,-377.17 341.11,-382.93"/>
</g>
<!-- Node22&#45;&gt;Node12 -->
<g id="edge60" class="edge">
<title>Node22&#45;&gt;Node12</title>
<path fill="none" stroke="midnightblue" d="M860.96,-518.05C783.96,-502.97 649.39,-470.19 548,-411 513.93,-391.11 478.69,-361.16 459.24,-343.64"/>
<polygon fill="midnightblue" stroke="midnightblue" points="860.49,-521.52 870.97,-519.97 861.81,-514.65 860.49,-521.52"/>
</g>
<!-- Node22&#45;&gt;Node13 -->
<g id="edge64" class="edge">
<title>Node22&#45;&gt;Node13</title>
<path fill="none" stroke="midnightblue" d="M914.21,-510.45C906.7,-493.62 894.64,-468.03 882,-447 856.32,-404.27 819.51,-357.35 804.16,-338.28"/>
<polygon fill="midnightblue" stroke="midnightblue" points="911.04,-511.93 918.26,-519.68 917.45,-509.12 911.04,-511.93"/>
</g>
<!-- Node22&#45;&gt;Node19 -->
<g id="edge36" class="edge">
<title>Node22&#45;&gt;Node19</title>
<path fill="none" stroke="midnightblue" d="M1013.12,-524.04C1240.76,-511.98 1820.22,-475.2 1877,-411 1886.13,-400.68 1886.1,-390.34 1877,-380 1854.13,-354.02 1625.35,-337.79 1526.79,-331.95"/>
<polygon fill="midnightblue" stroke="midnightblue" points="1012.67,-520.56 1002.87,-524.58 1013.04,-527.55 1012.67,-520.56"/>
</g>
<!-- Node23 -->
<g id="node23" class="node">
<title>Node23</title>
<g id="a_node23"><a xlink:href="wrap_8h.html" target="_top" xlink:title=" ">
<polygon fill="white" stroke="black" points="1239,-453 1239,-472 1317,-472 1317,-453 1239,-453"/>
<text text-anchor="middle" x="1278" y="-460" font-family="Helvetica,sans-Serif" font-size="10.00">src/js/wrap.h</text>
</a>
</g>
</g>
<!-- Node22&#45;&gt;Node23 -->
<g id="edge37" class="edge">
<title>Node22&#45;&gt;Node23</title>
<path fill="none" stroke="midnightblue" d="M978.83,-518.12C1051.63,-504.83 1175.93,-482.14 1238.92,-470.63"/>
<polygon fill="midnightblue" stroke="midnightblue" points="978.12,-514.7 968.91,-519.94 979.37,-521.58 978.12,-514.7"/>
</g>
<!-- Node30 -->
<g id="node30" class="node">
<title>Node30</title>
<g id="a_node30"><a xlink:href="historical__queries_8h.html" target="_top" xlink:title=" ">
<polygon fill="white" stroke="black" points="932,-179.5 932,-209.5 1038,-209.5 1038,-179.5 932,-179.5"/>
<text text-anchor="start" x="940" y="-197.5" font-family="Helvetica,sans-Serif" font-size="10.00">src/node/historical</text>
<text text-anchor="middle" x="985" y="-186.5" font-family="Helvetica,sans-Serif" font-size="10.00">_queries.h</text>
</a>
</g>
</g>
<!-- Node22&#45;&gt;Node30 -->
<g id="edge52" class="edge">
<title>Node22&#45;&gt;Node30</title>
<path fill="none" stroke="midnightblue" d="M925.5,-510.03C936.82,-450.18 972.34,-262.43 982.35,-209.51"/>
<polygon fill="midnightblue" stroke="midnightblue" points="922.04,-509.46 923.62,-519.93 928.92,-510.76 922.04,-509.46"/>
</g>
<!-- Node32 -->
<g id="node32" class="node">
<title>Node32</title>
<g id="a_node32"><a xlink:href="node__configuration__subsystem_8h.html" target="_top" xlink:title=" ">
<polygon fill="white" stroke="black" points="719,-447.5 719,-477.5 873,-477.5 873,-447.5 719,-447.5"/>
<text text-anchor="start" x="727" y="-465.5" font-family="Helvetica,sans-Serif" font-size="10.00">src/node/node_configuration</text>
<text text-anchor="middle" x="796" y="-454.5" font-family="Helvetica,sans-Serif" font-size="10.00">_subsystem.h</text>
</a>
</g>
</g>
<!-- Node22&#45;&gt;Node32 -->
<g id="edge56" class="edge">
<title>Node22&#45;&gt;Node32</title>
<path fill="none" stroke="midnightblue" d="M896.21,-515.19C875.01,-504.26 845.06,-488.81 823.43,-477.65"/>
<polygon fill="midnightblue" stroke="midnightblue" points="894.78,-518.39 905.27,-519.87 897.99,-512.17 894.78,-518.39"/>
</g>
<!-- Node33 -->
<g id="node33" class="node">
<title>Node33</title>
<g id="a_node33"><a xlink:href="acme__subsystem_8h.html" target="_top" xlink:title=" ">
<polygon fill="white" stroke="black" points="62.5,-252 62.5,-271 235.5,-271 235.5,-252 62.5,-252"/>
<text text-anchor="middle" x="149" y="-259" font-family="Helvetica,sans-Serif" font-size="10.00">src/node/rpc/acme_subsystem.h</text>
</a>
</g>
</g>
<!-- Node22&#45;&gt;Node33 -->
<g id="edge58" class="edge">
<title>Node22&#45;&gt;Node33</title>
<path fill="none" stroke="midnightblue" d="M831.32,-525.11C687.83,-519.04 415.19,-504.4 322,-478 195.02,-442.03 126.13,-456.42 57,-344 49.78,-332.26 49.98,-324.86 57,-313 69.81,-291.36 95.54,-278.38 116.54,-271"/>
<polygon fill="midnightblue" stroke="midnightblue" points="831.28,-528.61 841.42,-525.54 831.58,-521.62 831.28,-528.61"/>
</g>
<!-- Node34 -->
<g id="node34" class="node">
<title>Node34</title>
<g id="a_node34"><a xlink:href="network__identity__subsystem_8h.html" target="_top" xlink:title=" ">
<polygon fill="white" stroke="black" points="1924.5,-447.5 1924.5,-477.5 2051.5,-477.5 2051.5,-447.5 1924.5,-447.5"/>
<text text-anchor="start" x="1932.5" y="-465.5" font-family="Helvetica,sans-Serif" font-size="10.00">src/node/rpc/network</text>
<text text-anchor="middle" x="1988" y="-454.5" font-family="Helvetica,sans-Serif" font-size="10.00">_identity_subsystem.h</text>
</a>
</g>
</g>
<!-- Node22&#45;&gt;Node34 -->
<g id="edge61" class="edge">
<title>Node22&#45;&gt;Node34</title>
<path fill="none" stroke="midnightblue" d="M1012.83,-527.88C1187.3,-525.8 1581.17,-516.79 1910,-478 1914.65,-477.45 1919.44,-476.79 1924.25,-476.06"/>
<polygon fill="midnightblue" stroke="midnightblue" points="1012.63,-524.38 1002.67,-528 1012.71,-531.38 1012.63,-524.38"/>
</g>
<!-- Node36 -->
<g id="node36" class="node">
<title>Node36</title>
<g id="a_node36"><a xlink:href="node__operation_8h.html" target="_top" xlink:title=" ">
<polygon fill="white" stroke="black" points="2100,-185 2100,-204 2264,-204 2264,-185 2100,-185"/>
<text text-anchor="middle" x="2182" y="-192" font-family="Helvetica,sans-Serif" font-size="10.00">src/node/rpc/node_operation.h</text>
</a>
</g>
</g>
<!-- Node22&#45;&gt;Node36 -->
<g id="edge65" class="edge">
<title>Node22&#45;&gt;Node36</title>
<path fill="none" stroke="midnightblue" d="M1013.14,-526.8C1275.42,-521.6 2016.26,-504.63 2061,-478 2097.32,-456.38 2110,-438.76 2110,-396.5 2110,-396.5 2110,-396.5 2110,-327.5 2110,-275.29 2153.95,-224.09 2173.17,-204.19"/>
<polygon fill="midnightblue" stroke="midnightblue" points="1012.82,-523.31 1002.89,-527 1012.95,-530.31 1012.82,-523.31"/>
</g>
<!-- Node23&#45;&gt;Node7 -->
<g id="edge39" class="edge">
<title>Node23&#45;&gt;Node7</title>
<path fill="none" stroke="midnightblue" d="M1228.95,-455.7C1175.56,-448.33 1095.1,-433.76 1075,-411 985.99,-310.23 1130.3,-200.41 1029,-112 986.7,-75.08 826.54,-67.9 737.19,-66.84"/>
<polygon fill="midnightblue" stroke="midnightblue" points="1228.53,-459.18 1238.91,-457.04 1229.46,-452.24 1228.53,-459.18"/>
</g>
<!-- Node23&#45;&gt;Node10 -->
<g id="edge50" class="edge">
<title>Node23&#45;&gt;Node10</title>
<path fill="none" stroke="midnightblue" d="M1228.83,-457.97C1179.45,-452.85 1102.25,-440.5 1042,-411 939.73,-360.93 948.29,-296.02 846,-246 790.45,-218.83 720.55,-206.21 671.09,-200.39"/>
<polygon fill="midnightblue" stroke="midnightblue" points="1228.64,-461.47 1238.93,-458.95 1229.32,-454.5 1228.64,-461.47"/>
</g>
<!-- Node23&#45;&gt;Node12 -->
<g id="edge51" class="edge">
<title>Node23&#45;&gt;Node12</title>
<path fill="none" stroke="midnightblue" d="M1228.57,-460.02C1095.74,-455.69 733.38,-441.35 618,-411 603,-407.05 517.94,-365.82 472.55,-343.56"/>
<polygon fill="midnightblue" stroke="midnightblue" points="1228.74,-463.53 1238.85,-460.35 1228.96,-456.53 1228.74,-463.53"/>
</g>
<!-- Node23&#45;&gt;Node19 -->
<g id="edge49" class="edge">
<title>Node23&#45;&gt;Node19</title>
<path fill="none" stroke="midnightblue" d="M1327.05,-461.34C1368.92,-458.48 1427.79,-447.55 1463,-411 1482.45,-390.8 1483.37,-354.74 1482.65,-338.21"/>
<polygon fill="midnightblue" stroke="midnightblue" points="1326.85,-457.84 1317.06,-461.89 1327.24,-464.83 1326.85,-457.84"/>
</g>
<!-- Node24 -->
<g id="node24" class="node">
<title>Node24</title>
<g id="a_node24"><a xlink:href="js__generic__base_8cpp.html" target="_top" xlink:title=" ">
<polygon fill="white" stroke="black" points="1510,-380.5 1510,-410.5 1628,-410.5 1628,-380.5 1510,-380.5"/>
<text text-anchor="start" x="1518" y="-398.5" font-family="Helvetica,sans-Serif" font-size="10.00">src/apps/js_generic</text>
<text text-anchor="middle" x="1569" y="-387.5" font-family="Helvetica,sans-Serif" font-size="10.00">/js_generic_base.cpp</text>
</a>
</g>
</g>
<!-- Node23&#45;&gt;Node24 -->
<g id="edge38" class="edge">
<title>Node23&#45;&gt;Node24</title>
<path fill="none" stroke="midnightblue" d="M1326.33,-450.7C1376.74,-439.44 1455.8,-421.78 1509.89,-409.7"/>
<polygon fill="midnightblue" stroke="midnightblue" points="1325.34,-447.34 1316.34,-452.94 1326.86,-454.17 1325.34,-447.34"/>
</g>
<!-- Node25 -->
<g id="node25" class="node">
<title>Node25</title>
<g id="a_node25"><a xlink:href="consensus_8cpp.html" target="_top" xlink:title=" ">
<polygon fill="white" stroke="black" points="1646,-386 1646,-405 1762,-405 1762,-386 1646,-386"/>
<text text-anchor="middle" x="1704" y="-393" font-family="Helvetica,sans-Serif" font-size="10.00">src/js/consensus.cpp</text>
</a>
</g>
</g>
<!-- Node23&#45;&gt;Node25 -->
<g id="edge40" class="edge">
<title>Node23&#45;&gt;Node25</title>
<path fill="none" stroke="midnightblue" d="M1327.39,-455.72C1396.77,-447.33 1526.93,-430.62 1637,-411 1646.72,-409.27 1657.19,-407.13 1666.88,-405.04"/>
<polygon fill="midnightblue" stroke="midnightblue" points="1326.71,-452.27 1317.19,-456.94 1327.54,-459.22 1326.71,-452.27"/>
</g>
<!-- Node26 -->
<g id="node26" class="node">
<title>Node26</title>
<g id="a_node26"><a xlink:href="conv_8cpp.html" target="_top" xlink:title=" ">
<polygon fill="white" stroke="black" points="1780,-386 1780,-405 1868,-405 1868,-386 1780,-386"/>
<text text-anchor="middle" x="1824" y="-393" font-family="Helvetica,sans-Serif" font-size="10.00">src/js/conv.cpp</text>
</a>
</g>
</g>
<!-- Node23&#45;&gt;Node26 -->
<g id="edge42" class="edge">
<title>Node23&#45;&gt;Node26</title>
<path fill="none" stroke="midnightblue" d="M1327.4,-459.14C1416.62,-454.28 1610.32,-441 1771,-411 1779.25,-409.46 1788.09,-407.26 1796.14,-405.05"/>
<polygon fill="midnightblue" stroke="midnightblue" points="1327.1,-455.65 1317.3,-459.68 1327.47,-462.64 1327.1,-455.65"/>
</g>
<!-- Node27 -->
<g id="node27" class="node">
<title>Node27</title>
<g id="a_node27"><a xlink:href="crypto_8cpp.html" target="_top" xlink:title=" ">
<polygon fill="white" stroke="black" points="1230,-386 1230,-405 1326,-405 1326,-386 1230,-386"/>
<text text-anchor="middle" x="1278" y="-393" font-family="Helvetica,sans-Serif" font-size="10.00">src/js/crypto.cpp</text>
</a>
</g>
</g>
<!-- Node23&#45;&gt;Node27 -->
<g id="edge44" class="edge">
<title>Node23&#45;&gt;Node27</title>
<path fill="none" stroke="midnightblue" d="M1278,-442.54C1278,-430.17 1278,-414.62 1278,-405.13"/>
<polygon fill="midnightblue" stroke="midnightblue" points="1274.5,-442.73 1278,-452.73 1281.5,-442.73 1274.5,-442.73"/>
</g>
<!-- Node28 -->
<g id="node28" class="node">
<title>Node28</title>
<g id="a_node28"><a xlink:href="historical_8cpp.html" target="_top" xlink:title=" ">
<polygon fill="white" stroke="black" points="1344,-386 1344,-405 1454,-405 1454,-386 1344,-386"/>
<text text-anchor="middle" x="1399" y="-393" font-family="Helvetica,sans-Serif" font-size="10.00">src/js/historical.cpp</text>
</a>
</g>
</g>
<!-- Node23&#45;&gt;Node28 -->
<g id="edge46" class="edge">
<title>Node23&#45;&gt;Node28</title>
<path fill="none" stroke="midnightblue" d="M1303.21,-447.96C1327.2,-435.07 1362.56,-416.07 1382.94,-405.13"/>
<polygon fill="midnightblue" stroke="midnightblue" points="1301.47,-444.92 1294.32,-452.73 1304.78,-451.08 1301.47,-444.92"/>
</g>
<!-- Node29 -->
<g id="node29" class="node">
<title>Node29</title>
<g id="a_node29"><a xlink:href="openenclave_8cpp.html" target="_top" xlink:title=" ">
<polygon fill="white" stroke="black" points="1084,-386 1084,-405 1212,-405 1212,-386 1084,-386"/>
<text text-anchor="middle" x="1148" y="-393" font-family="Helvetica,sans-Serif" font-size="10.00">src/js/openenclave.cpp</text>
</a>
</g>
</g>
<!-- Node23&#45;&gt;Node29 -->
<g id="edge48" class="edge">
<title>Node23&#45;&gt;Node29</title>
<path fill="none" stroke="midnightblue" d="M1251.55,-448.27C1225.8,-435.4 1187.42,-416.21 1165.33,-405.17"/>
<polygon fill="midnightblue" stroke="midnightblue" points="1250.23,-451.53 1260.74,-452.87 1253.36,-445.27 1250.23,-451.53"/>
</g>
<!-- Node25&#45;&gt;Node19 -->
<g id="edge41" class="edge">
<title>Node25&#45;&gt;Node19</title>
<path fill="none" stroke="midnightblue" d="M1664.76,-383.01C1620.82,-370.15 1550.63,-349.59 1511.25,-338.06"/>
<polygon fill="midnightblue" stroke="midnightblue" points="1663.94,-386.42 1674.52,-385.87 1665.91,-379.7 1663.94,-386.42"/>
</g>
<!-- Node26&#45;&gt;Node19 -->
<g id="edge43" class="edge">
<title>Node26&#45;&gt;Node19</title>
<path fill="none" stroke="midnightblue" d="M1784.74,-383.32C1780.12,-382.13 1775.47,-381 1771,-380 1685.26,-360.82 1583.85,-344.56 1526.82,-335.99"/>
<polygon fill="midnightblue" stroke="midnightblue" points="1784.12,-386.77 1794.69,-385.95 1785.92,-380.01 1784.12,-386.77"/>
</g>
<!-- Node27&#45;&gt;Node19 -->
<g id="edge45" class="edge">
<title>Node27&#45;&gt;Node19</title>
<path fill="none" stroke="midnightblue" d="M1314.83,-382.77C1355.25,-369.89 1419.16,-349.52 1455.12,-338.06"/>
<polygon fill="midnightblue" stroke="midnightblue" points="1313.56,-379.5 1305.09,-385.87 1315.68,-386.17 1313.56,-379.5"/>
</g>
<!-- Node28&#45;&gt;Node19 -->
<g id="edge47" class="edge">
<title>Node28&#45;&gt;Node19</title>
<path fill="none" stroke="midnightblue" d="M1418.07,-379.57C1434.45,-366.74 1457.5,-348.69 1470.98,-338.13"/>
<polygon fill="midnightblue" stroke="midnightblue" points="1415.91,-376.81 1410.19,-385.73 1420.22,-382.32 1415.91,-376.81"/>
</g>
<!-- Node30&#45;&gt;Node7 -->
<g id="edge53" class="edge">
<title>Node30&#45;&gt;Node7</title>
<path fill="none" stroke="midnightblue" d="M1002.95,-171.33C1015.13,-153.47 1026.59,-128.68 1012,-112 977.02,-72.03 824.33,-66.05 737.31,-66"/>
<polygon fill="midnightblue" stroke="midnightblue" points="1000.08,-169.33 997.03,-179.47 1005.74,-173.45 1000.08,-169.33"/>
</g>
<!-- Node31 -->
<g id="node31" class="node">
<title>Node31</title>
<g id="a_node31"><a xlink:href="historical__transaction__fetcher_8h.html" target="_top" xlink:title=" ">
<polygon fill="white" stroke="black" points="877.5,-112.5 877.5,-142.5 1002.5,-142.5 1002.5,-112.5 877.5,-112.5"/>
<text text-anchor="start" x="885.5" y="-130.5" font-family="Helvetica,sans-Serif" font-size="10.00">src/indexing/historical</text>
<text text-anchor="middle" x="940" y="-119.5" font-family="Helvetica,sans-Serif" font-size="10.00">_transaction_fetcher.h</text>
</a>
</g>
</g>
<!-- Node30&#45;&gt;Node31 -->
<g id="edge54" class="edge">
<title>Node30&#45;&gt;Node31</title>
<path fill="none" stroke="midnightblue" d="M969.53,-171.16C962.97,-161.68 955.52,-150.92 949.75,-142.58"/>
<polygon fill="midnightblue" stroke="midnightblue" points="966.67,-173.17 975.24,-179.4 972.42,-169.18 966.67,-173.17"/>
</g>
<!-- Node31&#45;&gt;Node7 -->
<g id="edge55" class="edge">
<title>Node31&#45;&gt;Node7</title>
<path fill="none" stroke="midnightblue" d="M868.01,-110.27C818.17,-99.04 753.83,-84.54 713.74,-75.51"/>
<polygon fill="midnightblue" stroke="midnightblue" points="867.25,-113.69 877.77,-112.47 868.78,-106.86 867.25,-113.69"/>
</g>
<!-- Node32&#45;&gt;Node5 -->
<g id="edge57" class="edge">
<title>Node32&#45;&gt;Node5</title>
<path fill="none" stroke="midnightblue" d="M764.46,-441.97C744.55,-429.65 719.83,-414.35 704.74,-405.01"/>
<polygon fill="midnightblue" stroke="midnightblue" points="762.87,-445.11 773.22,-447.4 766.56,-439.16 762.87,-445.11"/>
</g>
<!-- Node33&#45;&gt;Node7 -->
<g id="edge59" class="edge">
<title>Node33&#45;&gt;Node7</title>
<path fill="none" stroke="midnightblue" d="M167.64,-245.02C205.89,-214.16 297.13,-145.13 386,-112 461.67,-83.79 554.81,-73.26 614.77,-69.33"/>
<polygon fill="midnightblue" stroke="midnightblue" points="165.03,-242.63 159.5,-251.67 169.46,-248.06 165.03,-242.63"/>
</g>
<!-- Node34&#45;&gt;Node7 -->
<g id="edge62" class="edge">
<title>Node34&#45;&gt;Node7</title>
<path fill="none" stroke="midnightblue" d="M2022.27,-441.6C2033.59,-433.46 2045.26,-423.08 2053,-411 2073.06,-379.68 2072,-366.69 2072,-329.5 2072,-329.5 2072,-329.5 2072,-193.5 2072,-125.47 1006.76,-79.77 737.33,-69.29"/>
<polygon fill="midnightblue" stroke="midnightblue" points="2020.06,-438.87 2013.75,-447.39 2023.99,-444.67 2020.06,-438.87"/>
</g>
<!-- Node35 -->
<g id="node35" class="node">
<title>Node35</title>
<g id="a_node35"><a xlink:href="historical__queries__adapter_8cpp.html" target="_top" xlink:title=" ">
<polygon fill="white" stroke="black" points="1924,-380.5 1924,-410.5 2044,-410.5 2044,-380.5 1924,-380.5"/>
<text text-anchor="start" x="1932" y="-398.5" font-family="Helvetica,sans-Serif" font-size="10.00">src/node/historical</text>
<text text-anchor="middle" x="1984" y="-387.5" font-family="Helvetica,sans-Serif" font-size="10.00">_queries_adapter.cpp</text>
</a>
</g>
</g>
<!-- Node34&#45;&gt;Node35 -->
<g id="edge63" class="edge">
<title>Node34&#45;&gt;Node35</title>
<path fill="none" stroke="midnightblue" d="M1986.52,-437.4C1985.96,-428.37 1985.35,-418.41 1984.87,-410.58"/>
<polygon fill="midnightblue" stroke="midnightblue" points="1983.02,-437.63 1987.13,-447.4 1990.01,-437.2 1983.02,-437.63"/>
</g>
<!-- Node36&#45;&gt;Node7 -->
<g id="edge66" class="edge">
<title>Node36&#45;&gt;Node7</title>
<path fill="none" stroke="midnightblue" d="M2168.99,-177.17C2152.22,-157.52 2121.01,-125.49 2086,-112 1959.17,-63.11 991.97,-65.17 737.3,-66.58"/>
<polygon fill="midnightblue" stroke="midnightblue" points="2166.38,-179.5 2175.46,-184.98 2171.78,-175.04 2166.38,-179.5"/>
</g>
</g>
</svg>
