<?xml version="1.0" encoding="UTF-8" standalone="no"?>
<!DOCTYPE svg PUBLIC "-//W3C//DTD SVG 1.1//EN"
 "http://www.w3.org/Graphics/SVG/1.1/DTD/svg11.dtd">
<!-- Generated by graphviz version 2.43.0 (0)
 -->
<!-- Title: include/ccf/endpoint_registry.h Pages: 1 -->
<svg width="2622pt" height="542pt"
 viewBox="0.00 0.00 2622.39 542.00" xmlns="http://www.w3.org/2000/svg" xmlns:xlink="http://www.w3.org/1999/xlink">
<g id="graph0" class="graph" transform="scale(1 1) rotate(0) translate(4 538)">
<title>include/ccf/endpoint_registry.h</title>
<polygon fill="white" stroke="transparent" points="-4,4 -4,-538 2618.39,-538 2618.39,4 -4,4"/>
<!-- Node1 -->
<g id="node1" class="node">
<title>Node1</title>
<g id="a_node1"><a xlink:title=" ">
<polygon fill="#bfbfbf" stroke="black" points="1448,-503.5 1448,-533.5 1563,-533.5 1563,-503.5 1448,-503.5"/>
<text text-anchor="start" x="1456" y="-521.5" font-family="Helvetica,sans-Serif" font-size="10.00">include/ccf/endpoint</text>
<text text-anchor="middle" x="1505.5" y="-510.5" font-family="Helvetica,sans-Serif" font-size="10.00">_registry.h</text>
</a>
</g>
</g>
<!-- Node2 -->
<g id="node2" class="node">
<title>Node2</title>
<g id="a_node2"><a xlink:href="base__endpoint__registry_8h.html" target="_top" xlink:title=" ">
<polygon fill="white" stroke="black" points="1231,-436.5 1231,-466.5 1374,-466.5 1374,-436.5 1231,-436.5"/>
<text text-anchor="start" x="1239" y="-454.5" font-family="Helvetica,sans-Serif" font-size="10.00">include/ccf/base_endpoint</text>
<text text-anchor="middle" x="1302.5" y="-443.5" font-family="Helvetica,sans-Serif" font-size="10.00">_registry.h</text>
</a>
</g>
</g>
<!-- Node1&#45;&gt;Node2 -->
<g id="edge1" class="edge">
<title>Node1&#45;&gt;Node2</title>
<path fill="none" stroke="midnightblue" d="M1451.56,-500.23C1418.72,-489.71 1377.3,-476.45 1346.46,-466.58"/>
<polygon fill="midnightblue" stroke="midnightblue" points="1450.86,-503.68 1461.45,-503.4 1453,-497.01 1450.86,-503.68"/>
</g>
<!-- Node19 -->
<g id="node19" class="node">
<title>Node19</title>
<g id="a_node19"><a xlink:href="acme__challenge__frontend_8h.html" target="_top" xlink:title=" ">
<polygon fill="white" stroke="black" points="2450.5,-302.5 2450.5,-332.5 2590.5,-332.5 2590.5,-302.5 2450.5,-302.5"/>
<text text-anchor="start" x="2458.5" y="-320.5" font-family="Helvetica,sans-Serif" font-size="10.00">src/node/acme_challenge</text>
<text text-anchor="middle" x="2520.5" y="-309.5" font-family="Helvetica,sans-Serif" font-size="10.00">_frontend.h</text>
</a>
</g>
</g>
<!-- Node1&#45;&gt;Node19 -->
<g id="edge62" class="edge">
<title>Node1&#45;&gt;Node19</title>
<path fill="none" stroke="midnightblue" d="M1542.44,-498.94C1581.31,-480.2 1644.75,-451.83 1702.5,-436 1973.01,-361.87 2307.41,-332.44 2450.36,-322.67"/>
<polygon fill="midnightblue" stroke="midnightblue" points="1540.56,-495.96 1533.1,-503.48 1543.63,-502.25 1540.56,-495.96"/>
</g>
<!-- Node33 -->
<g id="node33" class="node">
<title>Node33</title>
<g id="a_node33"><a xlink:href="json__handler_8h.html" target="_top" xlink:title=" ">
<polygon fill="white" stroke="black" points="308,-375 308,-394 451,-394 451,-375 308,-375"/>
<text text-anchor="middle" x="379.5" y="-382" font-family="Helvetica,sans-Serif" font-size="10.00">include/ccf/json_handler.h</text>
</a>
</g>
</g>
<!-- Node1&#45;&gt;Node33 -->
<g id="edge51" class="edge">
<title>Node1&#45;&gt;Node33</title>
<path fill="none" stroke="midnightblue" d="M1437.68,-509.55C1238.32,-486.18 655.41,-417.84 451.18,-393.9"/>
<polygon fill="midnightblue" stroke="midnightblue" points="1437.38,-513.04 1447.72,-510.73 1438.2,-506.09 1437.38,-513.04"/>
</g>
<!-- Node35 -->
<g id="node35" class="node">
<title>Node35</title>
<g id="a_node35"><a xlink:href="named__auth__policies_8h.html" target="_top" xlink:title=" ">
<polygon fill="white" stroke="black" points="1392.5,-436.5 1392.5,-466.5 1524.5,-466.5 1524.5,-436.5 1392.5,-436.5"/>
<text text-anchor="start" x="1400.5" y="-454.5" font-family="Helvetica,sans-Serif" font-size="10.00">src/apps/js_generic</text>
<text text-anchor="middle" x="1458.5" y="-443.5" font-family="Helvetica,sans-Serif" font-size="10.00">/named_auth_policies.h</text>
</a>
</g>
</g>
<!-- Node1&#45;&gt;Node35 -->
<g id="edge59" class="edge">
<title>Node1&#45;&gt;Node35</title>
<path fill="none" stroke="midnightblue" d="M1489.34,-495.16C1482.49,-485.68 1474.71,-474.92 1468.68,-466.58"/>
<polygon fill="midnightblue" stroke="midnightblue" points="1486.61,-497.34 1495.3,-503.4 1492.28,-493.24 1486.61,-497.34"/>
</g>
<!-- Node36 -->
<g id="node36" class="node">
<title>Node36</title>
<g id="a_node36"><a xlink:href="endpoint__registry_8cpp.html" target="_top" xlink:title=" ">
<polygon fill="white" stroke="black" points="1711.5,-436.5 1711.5,-466.5 1839.5,-466.5 1839.5,-436.5 1711.5,-436.5"/>
<text text-anchor="start" x="1719.5" y="-454.5" font-family="Helvetica,sans-Serif" font-size="10.00">src/endpoints/endpoint</text>
<text text-anchor="middle" x="1775.5" y="-443.5" font-family="Helvetica,sans-Serif" font-size="10.00">_registry.cpp</text>
</a>
</g>
</g>
<!-- Node1&#45;&gt;Node36 -->
<g id="edge61" class="edge">
<title>Node1&#45;&gt;Node36</title>
<path fill="none" stroke="midnightblue" d="M1572.91,-501.27C1617.24,-490.6 1674.68,-476.77 1717.07,-466.57"/>
<polygon fill="midnightblue" stroke="midnightblue" points="1571.99,-497.89 1563.09,-503.64 1573.63,-504.7 1571.99,-497.89"/>
</g>
<!-- Node37 -->
<g id="node37" class="node">
<title>Node37</title>
<g id="a_node37"><a xlink:href="frontend_8h.html" target="_top" xlink:title=" ">
<polygon fill="white" stroke="black" points="1488,-375 1488,-394 1617,-394 1617,-375 1488,-375"/>
<text text-anchor="middle" x="1552.5" y="-382" font-family="Helvetica,sans-Serif" font-size="10.00">src/node/rpc/frontend.h</text>
</a>
</g>
</g>
<!-- Node1&#45;&gt;Node37 -->
<g id="edge63" class="edge">
<title>Node1&#45;&gt;Node37</title>
<path fill="none" stroke="midnightblue" d="M1519.97,-494.59C1524.81,-486.16 1529.89,-476.38 1533.5,-467 1543.32,-441.51 1548.96,-409.51 1551.27,-394.3"/>
<polygon fill="midnightblue" stroke="midnightblue" points="1516.81,-493.05 1514.69,-503.43 1522.82,-496.64 1516.81,-493.05"/>
</g>
<!-- Node3 -->
<g id="node3" class="node">
<title>Node3</title>
<g id="a_node3"><a xlink:href="common__endpoint__registry_8h.html" target="_top" xlink:title=" ">
<polygon fill="white" stroke="black" points="1250,-369.5 1250,-399.5 1365,-399.5 1365,-369.5 1250,-369.5"/>
<text text-anchor="start" x="1258" y="-387.5" font-family="Helvetica,sans-Serif" font-size="10.00">include/ccf/common</text>
<text text-anchor="middle" x="1307.5" y="-376.5" font-family="Helvetica,sans-Serif" font-size="10.00">_endpoint_registry.h</text>
</a>
</g>
</g>
<!-- Node2&#45;&gt;Node3 -->
<g id="edge2" class="edge">
<title>Node2&#45;&gt;Node3</title>
<path fill="none" stroke="midnightblue" d="M1304.35,-426.4C1305.05,-417.37 1305.81,-407.41 1306.42,-399.58"/>
<polygon fill="midnightblue" stroke="midnightblue" points="1300.86,-426.16 1303.58,-436.4 1307.84,-426.69 1300.86,-426.16"/>
</g>
<!-- Node6 -->
<g id="node6" class="node">
<title>Node6</title>
<g id="a_node6"><a xlink:href="nobuiltins_8cpp.html" target="_top" xlink:title=" ">
<polygon fill="white" stroke="black" points="0,-235.5 0,-265.5 135,-265.5 135,-235.5 0,-235.5"/>
<text text-anchor="start" x="8" y="-253.5" font-family="Helvetica,sans-Serif" font-size="10.00">samples/apps/nobuiltins</text>
<text text-anchor="middle" x="67.5" y="-242.5" font-family="Helvetica,sans-Serif" font-size="10.00">/nobuiltins.cpp</text>
</a>
</g>
</g>
<!-- Node2&#45;&gt;Node6 -->
<g id="edge34" class="edge">
<title>Node2&#45;&gt;Node6</title>
<path fill="none" stroke="midnightblue" d="M1220.76,-448.48C1014.29,-443.04 475.64,-426.66 298.5,-400 178.8,-381.98 108.83,-428.55 34.5,-333 18.47,-312.4 38.58,-282.95 53.7,-265.67"/>
<polygon fill="midnightblue" stroke="midnightblue" points="1220.84,-451.98 1230.93,-448.74 1221.02,-444.98 1220.84,-451.98"/>
</g>
<!-- Node26 -->
<g id="node26" class="node">
<title>Node26</title>
<g id="a_node26"><a xlink:href="base__endpoint__registry_8cpp.html" target="_top" xlink:title=" ">
<polygon fill="white" stroke="black" points="1105.5,-369.5 1105.5,-399.5 1231.5,-399.5 1231.5,-369.5 1105.5,-369.5"/>
<text text-anchor="start" x="1113.5" y="-387.5" font-family="Helvetica,sans-Serif" font-size="10.00">src/endpoints/base</text>
<text text-anchor="middle" x="1168.5" y="-376.5" font-family="Helvetica,sans-Serif" font-size="10.00">_endpoint_registry.cpp</text>
</a>
</g>
</g>
<!-- Node2&#45;&gt;Node26 -->
<g id="edge35" class="edge">
<title>Node2&#45;&gt;Node26</title>
<path fill="none" stroke="midnightblue" d="M1264.35,-431.99C1243.11,-421.69 1217.09,-409.07 1197.52,-399.58"/>
<polygon fill="midnightblue" stroke="midnightblue" points="1262.9,-435.18 1273.42,-436.4 1265.95,-428.88 1262.9,-435.18"/>
</g>
<!-- Node27 -->
<g id="node27" class="node">
<title>Node27</title>
<g id="a_node27"><a xlink:href="wrap_8h.html" target="_top" xlink:title=" ">
<polygon fill="white" stroke="black" points="1813.5,-308 1813.5,-327 1891.5,-327 1891.5,-308 1813.5,-308"/>
<text text-anchor="middle" x="1852.5" y="-315" font-family="Helvetica,sans-Serif" font-size="10.00">src/js/wrap.h</text>
</a>
</g>
</g>
<!-- Node2&#45;&gt;Node27 -->
<g id="edge36" class="edge">
<title>Node2&#45;&gt;Node27</title>
<path fill="none" stroke="midnightblue" d="M1384.13,-435.99C1493.3,-419.65 1528.31,-439.89 1626.5,-400 1648.33,-391.13 1648.25,-379.18 1669.5,-369 1716.46,-346.49 1775.16,-332.53 1813.22,-325.14"/>
<polygon fill="midnightblue" stroke="midnightblue" points="1383.37,-432.57 1374.03,-437.57 1384.46,-439.48 1383.37,-432.57"/>
</g>
<!-- Node4 -->
<g id="node4" class="node">
<title>Node4</title>
<g id="a_node4"><a xlink:href="app__interface_8h.html" target="_top" xlink:title=" ">
<polygon fill="white" stroke="black" points="613.5,-308 613.5,-327 761.5,-327 761.5,-308 613.5,-308"/>
<text text-anchor="middle" x="687.5" y="-315" font-family="Helvetica,sans-Serif" font-size="10.00">include/ccf/app_interface.h</text>
</a>
</g>
</g>
<!-- Node3&#45;&gt;Node4 -->
<g id="edge3" class="edge">
<title>Node3&#45;&gt;Node4</title>
<path fill="none" stroke="midnightblue" d="M1239.82,-369.03C1062.7,-342.36 866.11,-328.51 761.64,-322.39"/>
<polygon fill="midnightblue" stroke="midnightblue" points="1239.43,-372.51 1249.84,-370.55 1240.48,-365.59 1239.43,-372.51"/>
</g>
<!-- Node18 -->
<g id="node18" class="node">
<title>Node18</title>
<g id="a_node18"><a xlink:href="common__endpoint__registry_8cpp.html" target="_top" xlink:title=" ">
<polygon fill="white" stroke="black" points="414.5,-302.5 414.5,-332.5 542.5,-332.5 542.5,-302.5 414.5,-302.5"/>
<text text-anchor="start" x="422.5" y="-320.5" font-family="Helvetica,sans-Serif" font-size="10.00">src/endpoints/common</text>
<text text-anchor="middle" x="478.5" y="-309.5" font-family="Helvetica,sans-Serif" font-size="10.00">_endpoint_registry.cpp</text>
</a>
</g>
</g>
<!-- Node3&#45;&gt;Node18 -->
<g id="edge20" class="edge">
<title>Node3&#45;&gt;Node18</title>
<path fill="none" stroke="midnightblue" d="M1239.75,-369.06C958.2,-331.55 883.28,-356.91 604.5,-333 584.32,-331.27 562.37,-328.91 542.53,-326.6"/>
<polygon fill="midnightblue" stroke="midnightblue" points="1239.48,-372.56 1249.86,-370.43 1240.41,-365.62 1239.48,-372.56"/>
</g>
<!-- Node3&#45;&gt;Node19 -->
<g id="edge21" class="edge">
<title>Node3&#45;&gt;Node19</title>
<path fill="none" stroke="midnightblue" d="M1375.22,-377.23C1406.88,-374.44 1445.1,-371.28 1479.5,-369 1844.65,-344.76 2282.59,-327.3 2450.39,-321.04"/>
<polygon fill="midnightblue" stroke="midnightblue" points="1374.84,-373.75 1365.19,-378.12 1375.46,-380.72 1374.84,-373.75"/>
</g>
<!-- Node23 -->
<g id="node23" class="node">
<title>Node23</title>
<g id="a_node23"><a xlink:href="member__frontend_8h.html" target="_top" xlink:title=" ">
<polygon fill="white" stroke="black" points="1532.5,-235.5 1532.5,-265.5 1652.5,-265.5 1652.5,-235.5 1532.5,-235.5"/>
<text text-anchor="start" x="1540.5" y="-253.5" font-family="Helvetica,sans-Serif" font-size="10.00">src/node/rpc/member</text>
<text text-anchor="middle" x="1592.5" y="-242.5" font-family="Helvetica,sans-Serif" font-size="10.00">_frontend.h</text>
</a>
</g>
</g>
<!-- Node3&#45;&gt;Node23 -->
<g id="edge28" class="edge">
<title>Node3&#45;&gt;Node23</title>
<path fill="none" stroke="midnightblue" d="M1353.18,-365.71C1376.5,-356.39 1405.21,-344.53 1430.5,-333 1479.05,-310.86 1534.33,-282.31 1566.14,-265.54"/>
<polygon fill="midnightblue" stroke="midnightblue" points="1351.87,-362.47 1343.87,-369.41 1354.46,-368.97 1351.87,-362.47"/>
</g>
<!-- Node24 -->
<g id="node24" class="node">
<title>Node24</title>
<g id="a_node24"><a xlink:href="node__frontend_8h.html" target="_top" xlink:title=" ">
<polygon fill="white" stroke="black" points="1228.5,-308 1228.5,-327 1386.5,-327 1386.5,-308 1228.5,-308"/>
<text text-anchor="middle" x="1307.5" y="-315" font-family="Helvetica,sans-Serif" font-size="10.00">src/node/rpc/node_frontend.h</text>
</a>
</g>
</g>
<!-- Node3&#45;&gt;Node24 -->
<g id="edge30" class="edge">
<title>Node3&#45;&gt;Node24</title>
<path fill="none" stroke="midnightblue" d="M1307.5,-359.25C1307.5,-348.02 1307.5,-335.38 1307.5,-327.19"/>
<polygon fill="midnightblue" stroke="midnightblue" points="1304,-359.4 1307.5,-369.4 1311,-359.4 1304,-359.4"/>
</g>
<!-- Node5 -->
<g id="node5" class="node">
<title>Node5</title>
<g id="a_node5"><a xlink:href="logging_8cpp.html" target="_top" xlink:title=" ">
<polygon fill="white" stroke="black" points="192,-235.5 192,-265.5 315,-265.5 315,-235.5 192,-235.5"/>
<text text-anchor="start" x="200" y="-253.5" font-family="Helvetica,sans-Serif" font-size="10.00">samples/apps/logging</text>
<text text-anchor="middle" x="253.5" y="-242.5" font-family="Helvetica,sans-Serif" font-size="10.00">/logging.cpp</text>
</a>
</g>
</g>
<!-- Node4&#45;&gt;Node5 -->
<g id="edge4" class="edge">
<title>Node4&#45;&gt;Node5</title>
<path fill="none" stroke="midnightblue" d="M606.54,-306.73C532.83,-297.47 421.08,-282.56 324.5,-266 321.4,-265.47 318.23,-264.9 315.03,-264.31"/>
<polygon fill="midnightblue" stroke="midnightblue" points="606.33,-310.23 616.69,-307.99 607.2,-303.28 606.33,-310.23"/>
</g>
<!-- Node4&#45;&gt;Node6 -->
<g id="edge5" class="edge">
<title>Node4&#45;&gt;Node6</title>
<path fill="none" stroke="midnightblue" d="M603.4,-307.41C586.23,-305.59 568.28,-303.71 551.5,-302 387.57,-285.27 346.26,-284.31 182.5,-266 167.2,-264.29 150.78,-262.31 135.26,-260.37"/>
<polygon fill="midnightblue" stroke="midnightblue" points="603.09,-310.9 613.4,-308.48 603.83,-303.94 603.09,-310.9"/>
</g>
<!-- Node7 -->
<g id="node7" class="node">
<title>Node7</title>
<g id="a_node7"><a xlink:href="executor__auth__policy_8h.html" target="_top" xlink:title=" ">
<polygon fill="white" stroke="black" points="537.5,-235.5 537.5,-265.5 685.5,-265.5 685.5,-235.5 537.5,-235.5"/>
<text text-anchor="start" x="545.5" y="-253.5" font-family="Helvetica,sans-Serif" font-size="10.00">src/apps/external_executor</text>
<text text-anchor="middle" x="611.5" y="-242.5" font-family="Helvetica,sans-Serif" font-size="10.00">/executor_auth_policy.h</text>
</a>
</g>
</g>
<!-- Node4&#45;&gt;Node7 -->
<g id="edge6" class="edge">
<title>Node4&#45;&gt;Node7</title>
<path fill="none" stroke="midnightblue" d="M669.29,-300.93C656.72,-290.18 640.15,-276 627.97,-265.59"/>
<polygon fill="midnightblue" stroke="midnightblue" points="667.38,-303.89 677.25,-307.73 671.93,-298.57 667.38,-303.89"/>
</g>
<!-- Node8 -->
<g id="node8" class="node">
<title>Node8</title>
<g id="a_node8"><a xlink:href="external__executor_8cpp.html" target="_top" xlink:title=" ">
<polygon fill="white" stroke="black" points="461.5,-168.5 461.5,-198.5 609.5,-198.5 609.5,-168.5 461.5,-168.5"/>
<text text-anchor="start" x="469.5" y="-186.5" font-family="Helvetica,sans-Serif" font-size="10.00">src/apps/external_executor</text>
<text text-anchor="middle" x="535.5" y="-175.5" font-family="Helvetica,sans-Serif" font-size="10.00">/external_executor.cpp</text>
</a>
</g>
</g>
<!-- Node4&#45;&gt;Node8 -->
<g id="edge8" class="edge">
<title>Node4&#45;&gt;Node8</title>
<path fill="none" stroke="midnightblue" d="M603.4,-309.63C574.97,-302.81 546.02,-289.94 528.5,-266 514.08,-246.29 522.19,-216.27 529.08,-198.7"/>
<polygon fill="midnightblue" stroke="midnightblue" points="602.9,-313.1 613.42,-311.8 604.38,-306.26 602.9,-313.1"/>
</g>
<!-- Node9 -->
<g id="node9" class="node">
<title>Node9</title>
<g id="a_node9"><a xlink:href="js__generic_8cpp.html" target="_top" xlink:title=" ">
<polygon fill="white" stroke="black" points="333.5,-168.5 333.5,-198.5 443.5,-198.5 443.5,-168.5 333.5,-168.5"/>
<text text-anchor="start" x="341.5" y="-186.5" font-family="Helvetica,sans-Serif" font-size="10.00">src/apps/js_generic</text>
<text text-anchor="middle" x="388.5" y="-175.5" font-family="Helvetica,sans-Serif" font-size="10.00">/js_generic.cpp</text>
</a>
</g>
</g>
<!-- Node4&#45;&gt;Node9 -->
<g id="edge9" class="edge">
<title>Node4&#45;&gt;Node9</title>
<path fill="none" stroke="midnightblue" d="M637.38,-305.63C602.57,-297.14 555.61,-283.8 516.5,-266 475.02,-247.12 431.15,-216.54 407.06,-198.69"/>
<polygon fill="midnightblue" stroke="midnightblue" points="636.78,-309.08 647.32,-308 638.4,-302.27 636.78,-309.08"/>
</g>
<!-- Node10 -->
<g id="node10" class="node">
<title>Node10</title>
<g id="a_node10"><a xlink:href="js__generic__base_8cpp.html" target="_top" xlink:title=" ">
<polygon fill="white" stroke="black" points="1396.5,-235.5 1396.5,-265.5 1514.5,-265.5 1514.5,-235.5 1396.5,-235.5"/>
<text text-anchor="start" x="1404.5" y="-253.5" font-family="Helvetica,sans-Serif" font-size="10.00">src/apps/js_generic</text>
<text text-anchor="middle" x="1455.5" y="-242.5" font-family="Helvetica,sans-Serif" font-size="10.00">/js_generic_base.cpp</text>
</a>
</g>
</g>
<!-- Node4&#45;&gt;Node10 -->
<g id="edge10" class="edge">
<title>Node4&#45;&gt;Node10</title>
<path fill="none" stroke="midnightblue" d="M771.72,-314.18C903.6,-309.7 1166.61,-297.36 1387.5,-266 1390.37,-265.59 1393.3,-265.13 1396.25,-264.64"/>
<polygon fill="midnightblue" stroke="midnightblue" points="771.56,-310.68 761.68,-314.51 771.79,-317.68 771.56,-310.68"/>
</g>
<!-- Node11 -->
<g id="node11" class="node">
<title>Node11</title>
<g id="a_node11"><a xlink:href="js__generic__base_8h.html" target="_top" xlink:title=" ">
<polygon fill="white" stroke="black" points="333.5,-235.5 333.5,-265.5 443.5,-265.5 443.5,-235.5 333.5,-235.5"/>
<text text-anchor="start" x="341.5" y="-253.5" font-family="Helvetica,sans-Serif" font-size="10.00">src/apps/js_generic</text>
<text text-anchor="middle" x="388.5" y="-242.5" font-family="Helvetica,sans-Serif" font-size="10.00">/js_generic_base.h</text>
</a>
</g>
</g>
<!-- Node4&#45;&gt;Node11 -->
<g id="edge11" class="edge">
<title>Node4&#45;&gt;Node11</title>
<path fill="none" stroke="midnightblue" d="M638.17,-305.78C584.67,-294.15 499.46,-275.62 443.75,-263.51"/>
<polygon fill="midnightblue" stroke="midnightblue" points="637.59,-309.23 648.1,-307.94 639.08,-302.39 637.59,-309.23"/>
</g>
<!-- Node12 -->
<g id="node12" class="node">
<title>Node12</title>
<g id="a_node12"><a xlink:href="tpcc_8cpp.html" target="_top" xlink:title=" ">
<polygon fill="white" stroke="black" points="742,-241 742,-260 887,-260 887,-241 742,-241"/>
<text text-anchor="middle" x="814.5" y="-248" font-family="Helvetica,sans-Serif" font-size="10.00">src/apps/tpcc/app/tpcc.cpp</text>
</a>
</g>
</g>
<!-- Node4&#45;&gt;Node12 -->
<g id="edge13" class="edge">
<title>Node4&#45;&gt;Node12</title>
<path fill="none" stroke="midnightblue" d="M713.34,-303.27C738.5,-290.4 775.99,-271.21 797.57,-260.17"/>
<polygon fill="midnightblue" stroke="midnightblue" points="711.67,-300.2 704.36,-307.87 714.86,-306.43 711.67,-300.2"/>
</g>
<!-- Node13 -->
<g id="node13" class="node">
<title>Node13</title>
<g id="a_node13"><a xlink:href="src_2enclave_2enclave_8h.html" target="_top" xlink:title=" ">
<polygon fill="white" stroke="black" points="1597.5,-56.5 1597.5,-75.5 1719.5,-75.5 1719.5,-56.5 1597.5,-56.5"/>
<text text-anchor="middle" x="1658.5" y="-63.5" font-family="Helvetica,sans-Serif" font-size="10.00">src/enclave/enclave.h</text>
</a>
</g>
</g>
<!-- Node4&#45;&gt;Node13 -->
<g id="edge14" class="edge">
<title>Node4&#45;&gt;Node13</title>
<path fill="none" stroke="midnightblue" d="M693.18,-298.27C699.89,-279.69 712.84,-251.35 733.5,-235 887.71,-112.99 965.24,-148.31 1158.5,-112 1314.82,-82.63 1502.37,-72.26 1597.18,-68.73"/>
<polygon fill="midnightblue" stroke="midnightblue" points="689.81,-297.32 689.94,-307.92 696.44,-299.55 689.81,-297.32"/>
</g>
<!-- Node15 -->
<g id="node15" class="node">
<title>Node15</title>
<g id="a_node15"><a xlink:href="no__plugins_8cpp.html" target="_top" xlink:title=" ">
<polygon fill="white" stroke="black" points="1078.5,-241 1078.5,-260 1196.5,-260 1196.5,-241 1078.5,-241"/>
<text text-anchor="middle" x="1137.5" y="-248" font-family="Helvetica,sans-Serif" font-size="10.00">src/js/no_plugins.cpp</text>
</a>
</g>
</g>
<!-- Node4&#45;&gt;Node15 -->
<g id="edge16" class="edge">
<title>Node4&#45;&gt;Node15</title>
<path fill="none" stroke="midnightblue" d="M771.91,-307.27C849.51,-298.33 967.61,-283.57 1069.5,-266 1079.49,-264.28 1090.25,-262.12 1100.19,-260.01"/>
<polygon fill="midnightblue" stroke="midnightblue" points="771.24,-303.83 761.71,-308.44 772.04,-310.78 771.24,-303.83"/>
</g>
<!-- Node17 -->
<g id="node17" class="node">
<title>Node17</title>
<g id="a_node17"><a xlink:href="user__frontend_8h.html" target="_top" xlink:title=" ">
<polygon fill="white" stroke="black" points="905,-241 905,-260 1060,-260 1060,-241 905,-241"/>
<text text-anchor="middle" x="982.5" y="-248" font-family="Helvetica,sans-Serif" font-size="10.00">src/node/rpc/user_frontend.h</text>
</a>
</g>
</g>
<!-- Node4&#45;&gt;Node17 -->
<g id="edge18" class="edge">
<title>Node4&#45;&gt;Node17</title>
<path fill="none" stroke="midnightblue" d="M736.41,-305.72C794.5,-292.92 890.22,-271.83 943.54,-260.08"/>
<polygon fill="midnightblue" stroke="midnightblue" points="735.38,-302.37 726.37,-307.94 736.89,-309.2 735.38,-302.37"/>
</g>
<!-- Node7&#45;&gt;Node8 -->
<g id="edge7" class="edge">
<title>Node7&#45;&gt;Node8</title>
<path fill="none" stroke="midnightblue" d="M587.39,-228.88C575.84,-219.01 562.31,-207.43 551.96,-198.58"/>
<polygon fill="midnightblue" stroke="midnightblue" points="585.13,-231.56 595.01,-235.4 589.68,-226.24 585.13,-231.56"/>
</g>
<!-- Node11&#45;&gt;Node9 -->
<g id="edge12" class="edge">
<title>Node11&#45;&gt;Node9</title>
<path fill="none" stroke="midnightblue" d="M388.5,-225.11C388.5,-216.15 388.5,-206.32 388.5,-198.58"/>
<polygon fill="midnightblue" stroke="midnightblue" points="385,-225.4 388.5,-235.4 392,-225.4 385,-225.4"/>
</g>
<!-- Node14 -->
<g id="node14" class="node">
<title>Node14</title>
<g id="a_node14"><a xlink:href="enclave_2main_8cpp.html" target="_top" xlink:title=" ">
<polygon fill="white" stroke="black" points="1598.5,-0.5 1598.5,-19.5 1718.5,-19.5 1718.5,-0.5 1598.5,-0.5"/>
<text text-anchor="middle" x="1658.5" y="-7.5" font-family="Helvetica,sans-Serif" font-size="10.00">src/enclave/main.cpp</text>
</a>
</g>
</g>
<!-- Node13&#45;&gt;Node14 -->
<g id="edge15" class="edge">
<title>Node13&#45;&gt;Node14</title>
<path fill="none" stroke="midnightblue" d="M1658.5,-45.8C1658.5,-36.91 1658.5,-26.78 1658.5,-19.75"/>
<polygon fill="midnightblue" stroke="midnightblue" points="1655,-46.08 1658.5,-56.08 1662,-46.08 1655,-46.08"/>
</g>
<!-- Node16 -->
<g id="node16" class="node">
<title>Node16</title>
<g id="a_node16"><a xlink:href="wrap_8cpp.html" target="_top" xlink:title=" ">
<polygon fill="white" stroke="black" points="1846,-174 1846,-193 1935,-193 1935,-174 1846,-174"/>
<text text-anchor="middle" x="1890.5" y="-181" font-family="Helvetica,sans-Serif" font-size="10.00">src/js/wrap.cpp</text>
</a>
</g>
</g>
<!-- Node15&#45;&gt;Node16 -->
<g id="edge17" class="edge">
<title>Node15&#45;&gt;Node16</title>
<path fill="none" stroke="midnightblue" d="M1205.89,-239.65C1218.7,-237.97 1232,-236.33 1244.5,-235 1469.9,-210.94 1740.69,-193.47 1845.78,-187.12"/>
<polygon fill="midnightblue" stroke="midnightblue" points="1205.19,-236.21 1195.74,-241 1206.11,-243.15 1205.19,-236.21"/>
</g>
<!-- Node17&#45;&gt;Node13 -->
<g id="edge19" class="edge">
<title>Node17&#45;&gt;Node13</title>
<path fill="none" stroke="midnightblue" d="M1000.93,-234.38C1037.98,-204.96 1125.23,-140.39 1210.5,-112 1280.68,-88.63 1491.93,-75.22 1597.32,-69.82"/>
<polygon fill="midnightblue" stroke="midnightblue" points="998.62,-231.75 993.02,-240.75 1003,-237.21 998.62,-231.75"/>
</g>
<!-- Node19&#45;&gt;Node13 -->
<g id="edge22" class="edge">
<title>Node19&#45;&gt;Node13</title>
<path fill="none" stroke="midnightblue" d="M2573.39,-297.7C2587.25,-290.09 2600.53,-279.75 2608.5,-266 2615.4,-254.08 2617.02,-245.83 2608.5,-235 2497.98,-94.59 1911.72,-71.53 1719.55,-67.74"/>
<polygon fill="midnightblue" stroke="midnightblue" points="2571.59,-294.69 2564.25,-302.32 2574.75,-300.93 2571.59,-294.69"/>
</g>
<!-- Node20 -->
<g id="node20" class="node">
<title>Node20</title>
<g id="a_node20"><a xlink:href="ccf__acme__client_8h.html" target="_top" xlink:title=" ">
<polygon fill="white" stroke="black" points="2450,-241 2450,-260 2599,-260 2599,-241 2450,-241"/>
<text text-anchor="middle" x="2524.5" y="-248" font-family="Helvetica,sans-Serif" font-size="10.00">src/node/ccf_acme_client.h</text>
</a>
</g>
</g>
<!-- Node19&#45;&gt;Node20 -->
<g id="edge23" class="edge">
<title>Node19&#45;&gt;Node20</title>
<path fill="none" stroke="midnightblue" d="M2521.99,-292.25C2522.68,-281.02 2523.46,-268.38 2523.96,-260.19"/>
<polygon fill="midnightblue" stroke="midnightblue" points="2518.49,-292.2 2521.37,-302.4 2525.48,-292.63 2518.49,-292.2"/>
</g>
<!-- Node21 -->
<g id="node21" class="node">
<title>Node21</title>
<g id="a_node21"><a xlink:href="node__state_8h.html" target="_top" xlink:title=" ">
<polygon fill="white" stroke="black" points="2156.5,-174 2156.5,-193 2280.5,-193 2280.5,-174 2156.5,-174"/>
<text text-anchor="middle" x="2218.5" y="-181" font-family="Helvetica,sans-Serif" font-size="10.00">src/node/node_state.h</text>
</a>
</g>
</g>
<!-- Node20&#45;&gt;Node21 -->
<g id="edge24" class="edge">
<title>Node20&#45;&gt;Node21</title>
<path fill="none" stroke="midnightblue" d="M2474.14,-238.8C2413.92,-226.01 2314.34,-204.86 2258.91,-193.08"/>
<polygon fill="midnightblue" stroke="midnightblue" points="2473.67,-242.28 2484.18,-240.94 2475.13,-235.43 2473.67,-242.28"/>
</g>
<!-- Node21&#45;&gt;Node13 -->
<g id="edge25" class="edge">
<title>Node21&#45;&gt;Node13</title>
<path fill="none" stroke="midnightblue" d="M2156.61,-172.31C2099.56,-162.7 2012.6,-147.49 1937.5,-132 1848.85,-113.72 1745.23,-88.58 1692.74,-75.57"/>
<polygon fill="midnightblue" stroke="midnightblue" points="2156.12,-175.78 2166.56,-173.98 2157.27,-168.87 2156.12,-175.78"/>
</g>
<!-- Node22 -->
<g id="node22" class="node">
<title>Node22</title>
<g id="a_node22"><a xlink:href="gov__effects_8h.html" target="_top" xlink:title=" ">
<polygon fill="white" stroke="black" points="1946.5,-112.5 1946.5,-131.5 2090.5,-131.5 2090.5,-112.5 1946.5,-112.5"/>
<text text-anchor="middle" x="2018.5" y="-119.5" font-family="Helvetica,sans-Serif" font-size="10.00">src/node/rpc/gov_effects.h</text>
</a>
</g>
</g>
<!-- Node21&#45;&gt;Node22 -->
<g id="edge26" class="edge">
<title>Node21&#45;&gt;Node22</title>
<path fill="none" stroke="midnightblue" d="M2179.94,-171.03C2141.07,-159.46 2081.98,-141.88 2047.1,-131.51"/>
<polygon fill="midnightblue" stroke="midnightblue" points="2179.26,-174.48 2189.84,-173.98 2181.26,-167.77 2179.26,-174.48"/>
</g>
<!-- Node22&#45;&gt;Node13 -->
<g id="edge27" class="edge">
<title>Node22&#45;&gt;Node13</title>
<path fill="none" stroke="midnightblue" d="M1951.28,-110.92C1883.27,-100.71 1779.28,-85.12 1715.28,-75.52"/>
<polygon fill="midnightblue" stroke="midnightblue" points="1951.05,-114.42 1961.46,-112.44 1952.09,-107.5 1951.05,-114.42"/>
</g>
<!-- Node23&#45;&gt;Node13 -->
<g id="edge29" class="edge">
<title>Node23&#45;&gt;Node13</title>
<path fill="none" stroke="midnightblue" d="M1600.98,-226.06C1615.74,-185.23 1645.53,-102.86 1655.31,-75.82"/>
<polygon fill="midnightblue" stroke="midnightblue" points="1597.68,-224.89 1597.57,-235.48 1604.26,-227.27 1597.68,-224.89"/>
</g>
<!-- Node24&#45;&gt;Node13 -->
<g id="edge31" class="edge">
<title>Node24&#45;&gt;Node13</title>
<path fill="none" stroke="midnightblue" d="M1280.63,-302.63C1267.11,-294.07 1252.04,-281.71 1244.5,-266 1238.54,-253.58 1236.8,-246.43 1244.5,-235 1324.11,-116.78 1502.73,-81.72 1597.21,-71.34"/>
<polygon fill="midnightblue" stroke="midnightblue" points="1279.23,-305.87 1289.62,-307.94 1282.79,-299.84 1279.23,-305.87"/>
</g>
<!-- Node25 -->
<g id="node25" class="node">
<title>Node25</title>
<g id="a_node25"><a xlink:href="jwt__key__auto__refresh_8h.html" target="_top" xlink:title=" ">
<polygon fill="white" stroke="black" points="1253,-235.5 1253,-265.5 1378,-265.5 1378,-235.5 1253,-235.5"/>
<text text-anchor="start" x="1261" y="-253.5" font-family="Helvetica,sans-Serif" font-size="10.00">src/node/jwt_key_auto</text>
<text text-anchor="middle" x="1315.5" y="-242.5" font-family="Helvetica,sans-Serif" font-size="10.00">_refresh.h</text>
</a>
</g>
</g>
<!-- Node24&#45;&gt;Node25 -->
<g id="edge32" class="edge">
<title>Node24&#45;&gt;Node25</title>
<path fill="none" stroke="midnightblue" d="M1309.81,-297.74C1311.07,-287.49 1312.61,-275 1313.77,-265.59"/>
<polygon fill="midnightblue" stroke="midnightblue" points="1306.33,-297.38 1308.58,-307.73 1313.27,-298.24 1306.33,-297.38"/>
</g>
<!-- Node25&#45;&gt;Node21 -->
<g id="edge33" class="edge">
<title>Node25&#45;&gt;Node21</title>
<path fill="none" stroke="midnightblue" d="M1388.4,-235.13C1497.62,-223.28 1982.32,-197.03 2156.23,-187.79"/>
<polygon fill="midnightblue" stroke="midnightblue" points="1387.76,-231.68 1378.24,-236.33 1388.59,-238.63 1387.76,-231.68"/>
</g>
<!-- Node27&#45;&gt;Node10 -->
<g id="edge37" class="edge">
<title>Node27&#45;&gt;Node10</title>
<path fill="none" stroke="midnightblue" d="M1803.1,-309.83C1738.61,-300.9 1622.3,-284.1 1523.5,-266 1520.65,-265.48 1517.74,-264.93 1514.8,-264.36"/>
<polygon fill="midnightblue" stroke="midnightblue" points="1803,-313.34 1813.38,-311.24 1803.95,-306.41 1803,-313.34"/>
</g>
<!-- Node27&#45;&gt;Node13 -->
<g id="edge38" class="edge">
<title>Node27&#45;&gt;Node13</title>
<path fill="none" stroke="midnightblue" d="M1803.11,-312.86C1769.15,-307.69 1725.63,-295.34 1699.5,-266 1648.83,-209.1 1654.48,-106.55 1657.48,-75.89"/>
<polygon fill="midnightblue" stroke="midnightblue" points="1802.93,-316.36 1813.31,-314.24 1803.87,-309.43 1802.93,-316.36"/>
</g>
<!-- Node27&#45;&gt;Node16 -->
<g id="edge48" class="edge">
<title>Node27&#45;&gt;Node16</title>
<path fill="none" stroke="midnightblue" d="M1856.14,-297.79C1859.54,-281.15 1865.06,-256.24 1871.5,-235 1876.01,-220.12 1882.66,-203.3 1886.78,-193.32"/>
<polygon fill="midnightblue" stroke="midnightblue" points="1852.66,-297.35 1854.13,-307.84 1859.52,-298.71 1852.66,-297.35"/>
</g>
<!-- Node27&#45;&gt;Node21 -->
<g id="edge49" class="edge">
<title>Node27&#45;&gt;Node21</title>
<path fill="none" stroke="midnightblue" d="M1901.76,-315.33C2024.19,-311.93 2334.69,-299.99 2365.5,-266 2399.21,-228.81 2321.26,-204.8 2266.48,-193.05"/>
<polygon fill="midnightblue" stroke="midnightblue" points="1901.44,-311.84 1891.54,-315.61 1901.63,-318.84 1901.44,-311.84"/>
</g>
<!-- Node27&#45;&gt;Node23 -->
<g id="edge50" class="edge">
<title>Node27&#45;&gt;Node23</title>
<path fill="none" stroke="midnightblue" d="M1808.41,-305.48C1764.4,-294.47 1696.6,-277.52 1648.74,-265.56"/>
<polygon fill="midnightblue" stroke="midnightblue" points="1807.69,-308.91 1818.24,-307.94 1809.39,-302.11 1807.69,-308.91"/>
</g>
<!-- Node28 -->
<g id="node28" class="node">
<title>Node28</title>
<g id="a_node28"><a xlink:href="consensus_8cpp.html" target="_top" xlink:title=" ">
<polygon fill="white" stroke="black" points="1708.5,-241 1708.5,-260 1824.5,-260 1824.5,-241 1708.5,-241"/>
<text text-anchor="middle" x="1766.5" y="-248" font-family="Helvetica,sans-Serif" font-size="10.00">src/js/consensus.cpp</text>
</a>
</g>
</g>
<!-- Node27&#45;&gt;Node28 -->
<g id="edge39" class="edge">
<title>Node27&#45;&gt;Node28</title>
<path fill="none" stroke="midnightblue" d="M1832.74,-301.57C1815.77,-288.74 1791.88,-270.69 1777.91,-260.13"/>
<polygon fill="midnightblue" stroke="midnightblue" points="1830.81,-304.5 1840.9,-307.73 1835.03,-298.91 1830.81,-304.5"/>
</g>
<!-- Node29 -->
<g id="node29" class="node">
<title>Node29</title>
<g id="a_node29"><a xlink:href="conv_8cpp.html" target="_top" xlink:title=" ">
<polygon fill="white" stroke="black" points="1994.5,-241 1994.5,-260 2082.5,-260 2082.5,-241 1994.5,-241"/>
<text text-anchor="middle" x="2038.5" y="-248" font-family="Helvetica,sans-Serif" font-size="10.00">src/js/conv.cpp</text>
</a>
</g>
</g>
<!-- Node27&#45;&gt;Node29 -->
<g id="edge41" class="edge">
<title>Node27&#45;&gt;Node29</title>
<path fill="none" stroke="midnightblue" d="M1887.02,-304.44C1923.92,-291.54 1981.49,-271.42 2013.99,-260.06"/>
<polygon fill="midnightblue" stroke="midnightblue" points="1885.48,-301.27 1877.2,-307.87 1887.79,-307.87 1885.48,-301.27"/>
</g>
<!-- Node30 -->
<g id="node30" class="node">
<title>Node30</title>
<g id="a_node30"><a xlink:href="crypto_8cpp.html" target="_top" xlink:title=" ">
<polygon fill="white" stroke="black" points="1880.5,-241 1880.5,-260 1976.5,-260 1976.5,-241 1880.5,-241"/>
<text text-anchor="middle" x="1928.5" y="-248" font-family="Helvetica,sans-Serif" font-size="10.00">src/js/crypto.cpp</text>
</a>
</g>
</g>
<!-- Node27&#45;&gt;Node30 -->
<g id="edge43" class="edge">
<title>Node27&#45;&gt;Node30</title>
<path fill="none" stroke="midnightblue" d="M1870.37,-301.21C1885.35,-288.41 1906.18,-270.59 1918.41,-260.13"/>
<polygon fill="midnightblue" stroke="midnightblue" points="1868.07,-298.57 1862.75,-307.73 1872.62,-303.89 1868.07,-298.57"/>
</g>
<!-- Node31 -->
<g id="node31" class="node">
<title>Node31</title>
<g id="a_node31"><a xlink:href="historical_8cpp.html" target="_top" xlink:title=" ">
<polygon fill="white" stroke="black" points="2100.5,-241 2100.5,-260 2210.5,-260 2210.5,-241 2100.5,-241"/>
<text text-anchor="middle" x="2155.5" y="-248" font-family="Helvetica,sans-Serif" font-size="10.00">src/js/historical.cpp</text>
</a>
</g>
</g>
<!-- Node27&#45;&gt;Node31 -->
<g id="edge45" class="edge">
<title>Node27&#45;&gt;Node31</title>
<path fill="none" stroke="midnightblue" d="M1901.76,-306.31C1950.11,-296.26 2025.94,-280.35 2091.5,-266 2100.18,-264.1 2109.51,-262.01 2118.29,-260.03"/>
<polygon fill="midnightblue" stroke="midnightblue" points="1900.95,-302.9 1891.87,-308.36 1902.37,-309.76 1900.95,-302.9"/>
</g>
<!-- Node32 -->
<g id="node32" class="node">
<title>Node32</title>
<g id="a_node32"><a xlink:href="openenclave_8cpp.html" target="_top" xlink:title=" ">
<polygon fill="white" stroke="black" points="2228.5,-241 2228.5,-260 2356.5,-260 2356.5,-241 2228.5,-241"/>
<text text-anchor="middle" x="2292.5" y="-248" font-family="Helvetica,sans-Serif" font-size="10.00">src/js/openenclave.cpp</text>
</a>
</g>
</g>
<!-- Node27&#45;&gt;Node32 -->
<g id="edge47" class="edge">
<title>Node27&#45;&gt;Node32</title>
<path fill="none" stroke="midnightblue" d="M1901.66,-310.68C1972.21,-302.11 2106.15,-285.04 2219.5,-266 2229.95,-264.24 2241.19,-262.13 2251.65,-260.06"/>
<polygon fill="midnightblue" stroke="midnightblue" points="1901.23,-307.2 1891.72,-311.88 1902.07,-314.15 1901.23,-307.2"/>
</g>
<!-- Node28&#45;&gt;Node16 -->
<g id="edge40" class="edge">
<title>Node28&#45;&gt;Node16</title>
<path fill="none" stroke="midnightblue" d="M1792.06,-236.1C1816.61,-223.23 1852.99,-204.16 1873.97,-193.17"/>
<polygon fill="midnightblue" stroke="midnightblue" points="1790.2,-233.13 1782.97,-240.87 1793.45,-239.33 1790.2,-233.13"/>
</g>
<!-- Node29&#45;&gt;Node16 -->
<g id="edge42" class="edge">
<title>Node29&#45;&gt;Node16</title>
<path fill="none" stroke="midnightblue" d="M2009.54,-236.78C1980.23,-223.91 1935.71,-204.35 1910.23,-193.17"/>
<polygon fill="midnightblue" stroke="midnightblue" points="2008.28,-240.05 2018.85,-240.87 2011.1,-233.64 2008.28,-240.05"/>
</g>
<!-- Node30&#45;&gt;Node16 -->
<g id="edge44" class="edge">
<title>Node30&#45;&gt;Node16</title>
<path fill="none" stroke="midnightblue" d="M1918.29,-232.03C1910.93,-219.45 1901.32,-203.01 1895.54,-193.13"/>
<polygon fill="midnightblue" stroke="midnightblue" points="1915.31,-233.87 1923.38,-240.73 1921.35,-230.33 1915.31,-233.87"/>
</g>
<!-- Node31&#45;&gt;Node16 -->
<g id="edge46" class="edge">
<title>Node31&#45;&gt;Node16</title>
<path fill="none" stroke="midnightblue" d="M2110.59,-238.48C2058.32,-225.66 1973.1,-204.76 1925.49,-193.08"/>
<polygon fill="midnightblue" stroke="midnightblue" points="2110.04,-241.95 2120.58,-240.94 2111.71,-235.15 2110.04,-241.95"/>
</g>
<!-- Node33&#45;&gt;Node5 -->
<g id="edge52" class="edge">
<title>Node33&#45;&gt;Node5</title>
<path fill="none" stroke="midnightblue" d="M364.06,-367.32C339.21,-341.3 290.77,-290.55 267.13,-265.78"/>
<polygon fill="midnightblue" stroke="midnightblue" points="361.8,-370.02 371.23,-374.84 366.86,-365.19 361.8,-370.02"/>
</g>
<!-- Node33&#45;&gt;Node6 -->
<g id="edge53" class="edge">
<title>Node33&#45;&gt;Node6</title>
<path fill="none" stroke="midnightblue" d="M323.88,-372.8C287.88,-364.66 240.59,-351.65 201.5,-333 179.91,-322.7 177.74,-314.76 157.5,-302 136.74,-288.91 112.42,-275.37 94.3,-265.6"/>
<polygon fill="midnightblue" stroke="midnightblue" points="323.21,-376.24 333.73,-374.97 324.71,-369.4 323.21,-376.24"/>
</g>
<!-- Node33&#45;&gt;Node8 -->
<g id="edge54" class="edge">
<title>Node33&#45;&gt;Node8</title>
<path fill="none" stroke="midnightblue" d="M337.03,-371.9C289.68,-356.44 215.46,-324.03 182.5,-266 175.7,-254.02 173.42,-245.37 182.5,-235 222.37,-189.46 392.67,-208.21 452.5,-199 455.39,-198.55 458.34,-198.09 461.31,-197.61"/>
<polygon fill="midnightblue" stroke="midnightblue" points="336.11,-375.28 346.7,-374.95 338.21,-368.6 336.11,-375.28"/>
</g>
<!-- Node33&#45;&gt;Node18 -->
<g id="edge55" class="edge">
<title>Node33&#45;&gt;Node18</title>
<path fill="none" stroke="midnightblue" d="M401.35,-369.15C417.92,-358.27 440.57,-343.4 457.04,-332.59"/>
<polygon fill="midnightblue" stroke="midnightblue" points="399.29,-366.32 392.85,-374.73 403.13,-372.17 399.29,-366.32"/>
</g>
<!-- Node33&#45;&gt;Node23 -->
<g id="edge57" class="edge">
<title>Node33&#45;&gt;Node23</title>
<path fill="none" stroke="midnightblue" d="M461.3,-382.54C687.45,-379.45 1310.09,-367.83 1395.5,-333 1414.74,-325.15 1412.4,-312.21 1430.5,-302 1462.06,-284.2 1500.69,-271.85 1532.31,-263.81"/>
<polygon fill="midnightblue" stroke="midnightblue" points="461.11,-379.04 451.16,-382.68 461.21,-386.04 461.11,-379.04"/>
</g>
<!-- Node33&#45;&gt;Node24 -->
<g id="edge58" class="edge">
<title>Node33&#45;&gt;Node24</title>
<path fill="none" stroke="midnightblue" d="M461.18,-377.78C637.88,-365.4 1053.75,-336.27 1228.24,-324.05"/>
<polygon fill="midnightblue" stroke="midnightblue" points="460.89,-374.29 451.16,-378.48 461.38,-381.27 460.89,-374.29"/>
</g>
<!-- Node34 -->
<g id="node34" class="node">
<title>Node34</title>
<g id="a_node34"><a xlink:href="json__handler_8cpp.html" target="_top" xlink:title=" ">
<polygon fill="white" stroke="black" points="44,-302.5 44,-332.5 149,-332.5 149,-302.5 44,-302.5"/>
<text text-anchor="start" x="52" y="-320.5" font-family="Helvetica,sans-Serif" font-size="10.00">src/endpoints/json</text>
<text text-anchor="middle" x="96.5" y="-309.5" font-family="Helvetica,sans-Serif" font-size="10.00">_handler.cpp</text>
</a>
</g>
</g>
<!-- Node33&#45;&gt;Node34 -->
<g id="edge56" class="edge">
<title>Node33&#45;&gt;Node34</title>
<path fill="none" stroke="midnightblue" d="M332.19,-372.63C281.6,-361.01 201.57,-342.63 149.05,-330.57"/>
<polygon fill="midnightblue" stroke="midnightblue" points="331.68,-376.11 342.21,-374.94 333.25,-369.29 331.68,-376.11"/>
</g>
<!-- Node35&#45;&gt;Node10 -->
<g id="edge60" class="edge">
<title>Node35&#45;&gt;Node10</title>
<path fill="none" stroke="midnightblue" d="M1458.13,-426C1457.5,-383.93 1456.22,-299.26 1455.71,-265.68"/>
<polygon fill="midnightblue" stroke="midnightblue" points="1454.63,-426.24 1458.28,-436.19 1461.63,-426.14 1454.63,-426.24"/>
</g>
<!-- Node37&#45;&gt;Node17 -->
<g id="edge68" class="edge">
<title>Node37&#45;&gt;Node17</title>
<path fill="none" stroke="midnightblue" d="M1531.22,-369.18C1502.01,-350.31 1447.21,-317.68 1395.5,-302 1256,-259.7 1213.89,-285.99 1069.5,-266 1056.91,-264.26 1043.34,-262.12 1030.75,-260.03"/>
<polygon fill="midnightblue" stroke="midnightblue" points="1529.49,-372.23 1539.77,-374.78 1533.32,-366.37 1529.49,-372.23"/>
</g>
<!-- Node37&#45;&gt;Node19 -->
<g id="edge64" class="edge">
<title>Node37&#45;&gt;Node19</title>
<path fill="none" stroke="midnightblue" d="M1624.24,-373.73C1639.18,-371.94 1654.84,-370.25 1669.5,-369 2009.53,-339.99 2097.26,-370.1 2436.5,-333 2441.06,-332.5 2445.75,-331.91 2450.47,-331.26"/>
<polygon fill="midnightblue" stroke="midnightblue" points="1623.54,-370.29 1614.04,-374.98 1624.39,-377.24 1623.54,-370.29"/>
</g>
<!-- Node37&#45;&gt;Node21 -->
<g id="edge65" class="edge">
<title>Node37&#45;&gt;Node21</title>
<path fill="none" stroke="midnightblue" d="M1627.2,-374.25C1829.03,-349.09 2371.07,-280.32 2383.5,-266 2418.02,-226.26 2339.77,-203.92 2279.6,-193.04"/>
<polygon fill="midnightblue" stroke="midnightblue" points="1626.76,-370.78 1617.27,-375.49 1627.62,-377.72 1626.76,-370.78"/>
</g>
<!-- Node37&#45;&gt;Node23 -->
<g id="edge66" class="edge">
<title>Node37&#45;&gt;Node23</title>
<path fill="none" stroke="midnightblue" d="M1558.03,-365.24C1566.08,-338.68 1580.86,-289.91 1588.17,-265.78"/>
<polygon fill="midnightblue" stroke="midnightblue" points="1554.68,-364.25 1555.12,-374.84 1561.37,-366.28 1554.68,-364.25"/>
</g>
<!-- Node37&#45;&gt;Node24 -->
<g id="edge67" class="edge">
<title>Node37&#45;&gt;Node24</title>
<path fill="none" stroke="midnightblue" d="M1510.37,-372.32C1462,-359.49 1383.68,-338.71 1339.85,-327.08"/>
<polygon fill="midnightblue" stroke="midnightblue" points="1509.66,-375.75 1520.22,-374.94 1511.45,-368.99 1509.66,-375.75"/>
</g>
</g>
</svg>
