<?xml version="1.0" encoding="UTF-8" standalone="no"?>
<!DOCTYPE svg PUBLIC "-//W3C//DTD SVG 1.1//EN"
 "http://www.w3.org/Graphics/SVG/1.1/DTD/svg11.dtd">
<!-- Generated by graphviz version 2.43.0 (0)
 -->
<!-- Title: src/http/error_reporter.h Pages: 1 -->
<svg width="534pt" height="431pt"
 viewBox="0.00 0.00 533.81 431.00" xmlns="http://www.w3.org/2000/svg" xmlns:xlink="http://www.w3.org/1999/xlink">
<g id="graph0" class="graph" transform="scale(1 1) rotate(0) translate(4 427)">
<title>src/http/error_reporter.h</title>
<polygon fill="white" stroke="transparent" points="-4,4 -4,-427 529.81,-427 529.81,4 -4,4"/>
<!-- Node1 -->
<g id="node1" class="node">
<title>Node1</title>
<g id="a_node1"><a xlink:title=" ">
<polygon fill="#bfbfbf" stroke="black" points="133.81,-403.5 133.81,-422.5 265.81,-422.5 265.81,-403.5 133.81,-403.5"/>
<text text-anchor="middle" x="199.81" y="-410.5" font-family="Helvetica,sans-Serif" font-size="10.00">src/http/error_reporter.h</text>
</a>
</g>
</g>
<!-- Node2 -->
<g id="node2" class="node">
<title>Node2</title>
<g id="a_node2"><a xlink:href="http2__endpoint_8h.html" target="_top" xlink:title=" ">
<polygon fill="white" stroke="black" points="53.31,-347.5 53.31,-366.5 192.31,-366.5 192.31,-347.5 53.31,-347.5"/>
<text text-anchor="middle" x="122.81" y="-354.5" font-family="Helvetica,sans-Serif" font-size="10.00">src/http/http2_endpoint.h</text>
</a>
</g>
</g>
<!-- Node1&#45;&gt;Node2 -->
<g id="edge1" class="edge">
<title>Node1&#45;&gt;Node2</title>
<path fill="none" stroke="midnightblue" d="M178.91,-397.34C164.9,-387.52 146.93,-374.91 135.15,-366.65"/>
<polygon fill="midnightblue" stroke="midnightblue" points="177.24,-400.45 187.44,-403.32 181.26,-394.72 177.24,-400.45"/>
</g>
<!-- Node11 -->
<g id="node11" class="node">
<title>Node11</title>
<g id="a_node11"><a xlink:href="http__endpoint_8h.html" target="_top" xlink:title=" ">
<polygon fill="white" stroke="black" points="210.31,-347.5 210.31,-366.5 343.31,-366.5 343.31,-347.5 210.31,-347.5"/>
<text text-anchor="middle" x="276.81" y="-354.5" font-family="Helvetica,sans-Serif" font-size="10.00">src/http/http_endpoint.h</text>
</a>
</g>
</g>
<!-- Node1&#45;&gt;Node11 -->
<g id="edge15" class="edge">
<title>Node1&#45;&gt;Node11</title>
<path fill="none" stroke="midnightblue" d="M220.71,-397.34C234.72,-387.52 252.69,-374.91 264.47,-366.65"/>
<polygon fill="midnightblue" stroke="midnightblue" points="218.36,-394.72 212.18,-403.32 222.38,-400.45 218.36,-394.72"/>
</g>
<!-- Node3 -->
<g id="node3" class="node">
<title>Node3</title>
<g id="a_node3"><a xlink:href="rpc__sessions_8h.html" target="_top" xlink:title=" ">
<polygon fill="white" stroke="black" points="126.81,-291.5 126.81,-310.5 272.81,-310.5 272.81,-291.5 126.81,-291.5"/>
<text text-anchor="middle" x="199.81" y="-298.5" font-family="Helvetica,sans-Serif" font-size="10.00">src/enclave/rpc_sessions.h</text>
</a>
</g>
</g>
<!-- Node2&#45;&gt;Node3 -->
<g id="edge2" class="edge">
<title>Node2&#45;&gt;Node3</title>
<path fill="none" stroke="midnightblue" d="M143.71,-341.34C157.72,-331.52 175.69,-318.91 187.47,-310.65"/>
<polygon fill="midnightblue" stroke="midnightblue" points="141.36,-338.72 135.18,-347.32 145.38,-344.45 141.36,-338.72"/>
</g>
<!-- Node4 -->
<g id="node4" class="node">
<title>Node4</title>
<g id="a_node4"><a xlink:href="src_2enclave_2enclave_8h.html" target="_top" xlink:title=" ">
<polygon fill="white" stroke="black" points="38.81,-56.5 38.81,-75.5 160.81,-75.5 160.81,-56.5 38.81,-56.5"/>
<text text-anchor="middle" x="99.81" y="-63.5" font-family="Helvetica,sans-Serif" font-size="10.00">src/enclave/enclave.h</text>
</a>
</g>
</g>
<!-- Node3&#45;&gt;Node4 -->
<g id="edge3" class="edge">
<title>Node3&#45;&gt;Node4</title>
<path fill="none" stroke="midnightblue" d="M116.7,-290.04C73.48,-282.96 26.96,-271.71 13.81,-255 -33.69,-194.64 58.32,-103.82 89.79,-75.65"/>
<polygon fill="midnightblue" stroke="midnightblue" points="116.3,-293.52 126.72,-291.61 117.39,-286.6 116.3,-293.52"/>
</g>
<!-- Node6 -->
<g id="node6" class="node">
<title>Node6</title>
<g id="a_node6"><a xlink:href="ccf__acme__client_8h.html" target="_top" xlink:title=" ">
<polygon fill="white" stroke="black" points="23.31,-230 23.31,-249 172.31,-249 172.31,-230 23.31,-230"/>
<text text-anchor="middle" x="97.81" y="-237" font-family="Helvetica,sans-Serif" font-size="10.00">src/node/ccf_acme_client.h</text>
</a>
</g>
</g>
<!-- Node3&#45;&gt;Node6 -->
<g id="edge5" class="edge">
<title>Node3&#45;&gt;Node6</title>
<path fill="none" stroke="midnightblue" d="M176.5,-286.4C156.78,-274.9 129.13,-258.77 112.4,-249.01"/>
<polygon fill="midnightblue" stroke="midnightblue" points="174.8,-289.46 185.2,-291.48 178.32,-283.41 174.8,-289.46"/>
</g>
<!-- Node7 -->
<g id="node7" class="node">
<title>Node7</title>
<g id="a_node7"><a xlink:href="node__state_8h.html" target="_top" xlink:title=" ">
<polygon fill="white" stroke="black" points="137.81,-168.5 137.81,-187.5 261.81,-187.5 261.81,-168.5 137.81,-168.5"/>
<text text-anchor="middle" x="199.81" y="-175.5" font-family="Helvetica,sans-Serif" font-size="10.00">src/node/node_state.h</text>
</a>
</g>
</g>
<!-- Node3&#45;&gt;Node7 -->
<g id="edge10" class="edge">
<title>Node3&#45;&gt;Node7</title>
<path fill="none" stroke="midnightblue" d="M199.81,-280.99C199.81,-254.35 199.81,-207 199.81,-187.62"/>
<polygon fill="midnightblue" stroke="midnightblue" points="196.31,-281.3 199.81,-291.3 203.31,-281.3 196.31,-281.3"/>
</g>
<!-- Node9 -->
<g id="node9" class="node">
<title>Node9</title>
<g id="a_node9"><a xlink:href="quote__endorsements__client_8h.html" target="_top" xlink:title=" ">
<polygon fill="white" stroke="black" points="227.81,-224.5 227.81,-254.5 391.81,-254.5 391.81,-224.5 227.81,-224.5"/>
<text text-anchor="start" x="235.81" y="-242.5" font-family="Helvetica,sans-Serif" font-size="10.00">src/node/quote_endorsements</text>
<text text-anchor="middle" x="309.81" y="-231.5" font-family="Helvetica,sans-Serif" font-size="10.00">_client.h</text>
</a>
</g>
</g>
<!-- Node3&#45;&gt;Node9 -->
<g id="edge11" class="edge">
<title>Node3&#45;&gt;Node9</title>
<path fill="none" stroke="midnightblue" d="M224.69,-286.54C242.35,-276.99 266,-264.2 283.89,-254.52"/>
<polygon fill="midnightblue" stroke="midnightblue" points="222.7,-283.64 215.57,-291.48 226.03,-289.8 222.7,-283.64"/>
</g>
<!-- Node10 -->
<g id="node10" class="node">
<title>Node10</title>
<g id="a_node10"><a xlink:href="resharing_8h.html" target="_top" xlink:title=" ">
<polygon fill="white" stroke="black" points="409.81,-230 409.81,-249 525.81,-249 525.81,-230 409.81,-230"/>
<text text-anchor="middle" x="467.81" y="-237" font-family="Helvetica,sans-Serif" font-size="10.00">src/node/resharing.h</text>
</a>
</g>
</g>
<!-- Node3&#45;&gt;Node10 -->
<g id="edge13" class="edge">
<title>Node3&#45;&gt;Node10</title>
<path fill="none" stroke="midnightblue" d="M248.19,-289.26C300.18,-277.72 381.76,-259.61 429.48,-249.01"/>
<polygon fill="midnightblue" stroke="midnightblue" points="247.21,-285.89 238.21,-291.48 248.73,-292.72 247.21,-285.89"/>
</g>
<!-- Node5 -->
<g id="node5" class="node">
<title>Node5</title>
<g id="a_node5"><a xlink:href="enclave_2main_8cpp.html" target="_top" xlink:title=" ">
<polygon fill="white" stroke="black" points="39.81,-0.5 39.81,-19.5 159.81,-19.5 159.81,-0.5 39.81,-0.5"/>
<text text-anchor="middle" x="99.81" y="-7.5" font-family="Helvetica,sans-Serif" font-size="10.00">src/enclave/main.cpp</text>
</a>
</g>
</g>
<!-- Node4&#45;&gt;Node5 -->
<g id="edge4" class="edge">
<title>Node4&#45;&gt;Node5</title>
<path fill="none" stroke="midnightblue" d="M99.81,-45.8C99.81,-36.91 99.81,-26.78 99.81,-19.75"/>
<polygon fill="midnightblue" stroke="midnightblue" points="96.31,-46.08 99.81,-56.08 103.31,-46.08 96.31,-46.08"/>
</g>
<!-- Node6&#45;&gt;Node7 -->
<g id="edge6" class="edge">
<title>Node6&#45;&gt;Node7</title>
<path fill="none" stroke="midnightblue" d="M121.12,-224.9C140.85,-213.4 168.5,-197.27 185.22,-187.51"/>
<polygon fill="midnightblue" stroke="midnightblue" points="119.3,-221.91 112.43,-229.98 122.83,-227.96 119.3,-221.91"/>
</g>
<!-- Node7&#45;&gt;Node4 -->
<g id="edge7" class="edge">
<title>Node7&#45;&gt;Node4</title>
<path fill="none" stroke="midnightblue" d="M164.06,-164.41C148.16,-157.17 130.45,-146.57 118.81,-132 105.31,-115.1 101.4,-88.91 100.27,-75.52"/>
<polygon fill="midnightblue" stroke="midnightblue" points="163.08,-167.8 173.65,-168.49 165.82,-161.36 163.08,-167.8"/>
</g>
<!-- Node8 -->
<g id="node8" class="node">
<title>Node8</title>
<g id="a_node8"><a xlink:href="gov__effects_8h.html" target="_top" xlink:title=" ">
<polygon fill="white" stroke="black" points="127.81,-112.5 127.81,-131.5 271.81,-131.5 271.81,-112.5 127.81,-112.5"/>
<text text-anchor="middle" x="199.81" y="-119.5" font-family="Helvetica,sans-Serif" font-size="10.00">src/node/rpc/gov_effects.h</text>
</a>
</g>
</g>
<!-- Node7&#45;&gt;Node8 -->
<g id="edge8" class="edge">
<title>Node7&#45;&gt;Node8</title>
<path fill="none" stroke="midnightblue" d="M199.81,-157.8C199.81,-148.91 199.81,-138.78 199.81,-131.75"/>
<polygon fill="midnightblue" stroke="midnightblue" points="196.31,-158.08 199.81,-168.08 203.31,-158.08 196.31,-158.08"/>
</g>
<!-- Node8&#45;&gt;Node4 -->
<g id="edge9" class="edge">
<title>Node8&#45;&gt;Node4</title>
<path fill="none" stroke="midnightblue" d="M174.72,-107.45C156.26,-97.48 131.71,-84.23 115.84,-75.65"/>
<polygon fill="midnightblue" stroke="midnightblue" points="173.28,-110.65 183.74,-112.32 176.61,-104.49 173.28,-110.65"/>
</g>
<!-- Node9&#45;&gt;Node7 -->
<g id="edge12" class="edge">
<title>Node9&#45;&gt;Node7</title>
<path fill="none" stroke="midnightblue" d="M274.7,-219.51C254.92,-208.81 231.19,-195.97 215.82,-187.66"/>
<polygon fill="midnightblue" stroke="midnightblue" points="273.28,-222.72 283.74,-224.4 276.61,-216.56 273.28,-222.72"/>
</g>
<!-- Node10&#45;&gt;Node7 -->
<g id="edge14" class="edge">
<title>Node10&#45;&gt;Node7</title>
<path fill="none" stroke="midnightblue" d="M419.43,-227.76C367.44,-216.22 285.87,-198.11 238.14,-187.51"/>
<polygon fill="midnightblue" stroke="midnightblue" points="418.89,-231.22 429.41,-229.98 420.41,-224.39 418.89,-231.22"/>
</g>
<!-- Node11&#45;&gt;Node3 -->
<g id="edge16" class="edge">
<title>Node11&#45;&gt;Node3</title>
<path fill="none" stroke="midnightblue" d="M255.91,-341.34C241.9,-331.52 223.93,-318.91 212.15,-310.65"/>
<polygon fill="midnightblue" stroke="midnightblue" points="254.24,-344.45 264.44,-347.32 258.26,-338.72 254.24,-344.45"/>
</g>
</g>
</svg>
