<?xml version="1.0" encoding="UTF-8" standalone="no"?>
<!DOCTYPE svg PUBLIC "-//W3C//DTD SVG 1.1//EN"
 "http://www.w3.org/Graphics/SVG/1.1/DTD/svg11.dtd">
<!-- Generated by graphviz version 2.43.0 (0)
 -->
<!-- Title: src/apps/external_executor/executor_code_id.h Pages: 1 -->
<svg width="207pt" height="173pt"
 viewBox="0.00 0.00 207.00 173.00" xmlns="http://www.w3.org/2000/svg" xmlns:xlink="http://www.w3.org/1999/xlink">
<g id="graph0" class="graph" transform="scale(1 1) rotate(0) translate(4 169)">
<title>src/apps/external_executor/executor_code_id.h</title>
<polygon fill="white" stroke="transparent" points="-4,4 -4,-169 203,-169 203,4 -4,4"/>
<!-- Node1 -->
<g id="node1" class="node">
<title>Node1</title>
<g id="a_node1"><a xlink:title=" ">
<polygon fill="#bfbfbf" stroke="black" points="51,-134.5 51,-164.5 199,-164.5 199,-134.5 51,-134.5"/>
<text text-anchor="start" x="59" y="-152.5" font-family="Helvetica,sans-Serif" font-size="10.00">src/apps/external_executor</text>
<text text-anchor="middle" x="125" y="-141.5" font-family="Helvetica,sans-Serif" font-size="10.00">/executor_code_id.h</text>
</a>
</g>
</g>
<!-- Node2 -->
<g id="node2" class="node">
<title>Node2</title>
<g id="a_node2"><a xlink:href="executor__auth__policy_8h.html" target="_top" xlink:title=" ">
<polygon fill="white" stroke="black" points="0,-67.5 0,-97.5 148,-97.5 148,-67.5 0,-67.5"/>
<text text-anchor="start" x="8" y="-85.5" font-family="Helvetica,sans-Serif" font-size="10.00">src/apps/external_executor</text>
<text text-anchor="middle" x="74" y="-74.5" font-family="Helvetica,sans-Serif" font-size="10.00">/executor_auth_policy.h</text>
</a>
</g>
</g>
<!-- Node1&#45;&gt;Node2 -->
<g id="edge1" class="edge">
<title>Node1&#45;&gt;Node2</title>
<path fill="none" stroke="midnightblue" d="M107.7,-126.45C100.21,-116.9 91.66,-106 85.04,-97.58"/>
<polygon fill="midnightblue" stroke="midnightblue" points="105.01,-128.69 113.93,-134.4 110.51,-124.37 105.01,-128.69"/>
</g>
<!-- Node3 -->
<g id="node3" class="node">
<title>Node3</title>
<g id="a_node3"><a xlink:href="external__executor_8cpp.html" target="_top" xlink:title=" ">
<polygon fill="white" stroke="black" points="51,-0.5 51,-30.5 199,-30.5 199,-0.5 51,-0.5"/>
<text text-anchor="start" x="59" y="-18.5" font-family="Helvetica,sans-Serif" font-size="10.00">src/apps/external_executor</text>
<text text-anchor="middle" x="125" y="-7.5" font-family="Helvetica,sans-Serif" font-size="10.00">/external_executor.cpp</text>
</a>
</g>
</g>
<!-- Node1&#45;&gt;Node3 -->
<g id="edge3" class="edge">
<title>Node1&#45;&gt;Node3</title>
<path fill="none" stroke="midnightblue" d="M143.21,-125.8C148.77,-117.54 154.15,-107.81 157,-98 160.84,-84.77 160.84,-80.23 157,-67 153.12,-53.64 144.54,-40.43 137.24,-30.88"/>
<polygon fill="midnightblue" stroke="midnightblue" points="140.23,-123.96 137.24,-134.12 145.91,-128.05 140.23,-123.96"/>
</g>
<!-- Node2&#45;&gt;Node3 -->
<g id="edge2" class="edge">
<title>Node2&#45;&gt;Node3</title>
<path fill="none" stroke="midnightblue" d="M91.3,-59.45C98.79,-49.9 107.34,-39 113.96,-30.58"/>
<polygon fill="midnightblue" stroke="midnightblue" points="88.49,-57.37 85.07,-67.4 93.99,-61.69 88.49,-57.37"/>
</g>
</g>
</svg>
