<?xml version="1.0" encoding="UTF-8" standalone="no"?>
<!DOCTYPE svg PUBLIC "-//W3C//DTD SVG 1.1//EN"
 "http://www.w3.org/Graphics/SVG/1.1/DTD/svg11.dtd">
<!-- Generated by graphviz version 2.43.0 (0)
 -->
<!-- Title: src/enclave/forwarder_types.h Pages: 1 -->
<!--zoomable 665 -->
<svg id="main" version="1.1" xmlns="http://www.w3.org/2000/svg" xmlns:xlink="http://www.w3.org/1999/xlink" xml:space="preserve" onload="init(evt)">
<style type="text/css"><![CDATA[
.edge:hover path { stroke: red; }
.edge:hover polygon { stroke: red; fill: red; }
]]></style>
<script type="text/javascript"><![CDATA[
var edges = document.getElementsByTagName('g');
if (edges && edges.length) {
  for (var i=0;i<edges.length;i++) {
    if (edges[i].id.substr(0,4)=='edge') {
      edges[i].setAttribute('class','edge');
    }
  }
}
]]></script>
        <defs>
                <circle id="rim" cx="0" cy="0" r="7"/>
                <circle id="rim2" cx="0" cy="0" r="3.5"/>
                <g id="zoomPlus">
                        <use xlink:href="#rim" fill="#404040">
                                <set attributeName="fill" to="#808080" begin="zoomplus.mouseover" end="zoomplus.mouseout"/>
                        </use>
                        <path d="M-4,0h8M0,-4v8" fill="none" stroke="white" stroke-width="1.5" pointer-events="none"/>
                </g>
                <g id="zoomMin">
                        <use xlink:href="#rim" fill="#404040">
                                <set attributeName="fill" to="#808080" begin="zoomminus.mouseover" end="zoomminus.mouseout"/>
                        </use>
                        <path d="M-4,0h8" fill="none" stroke="white" stroke-width="1.5" pointer-events="none"/>
                </g>
                <g id="dirArrow">
                        <path fill="none" stroke="white" stroke-width="1.5" d="M0,-3.0v7 M-2.5,-0.5L0,-3.0L2.5,-0.5"/>
                </g>
               <g id="resetDef">
                       <use xlink:href="#rim2" fill="#404040">
                               <set attributeName="fill" to="#808080" begin="reset.mouseover" end="reset.mouseout"/>
                       </use>
               </g>
        </defs>

<script type="text/javascript">
var viewWidth = 1448;
var viewHeight = 665;
var sectionId = 'dynsection-1';
</script>
<script xlink:href="svgpan.js"/>
<svg id="graph" class="graph">
<g id="viewport">
<title>src/enclave/forwarder_types.h</title>
<polygon fill="white" stroke="transparent" points="-4,4 -4,-661 1444.43,-661 1444.43,4 -4,4"/>
<!-- Node1 -->
<g id="node1" class="node">
<title>Node1</title>
<g id="a_node1"><a xlink:title=" ">
<polygon fill="#bfbfbf" stroke="black" points="392.93,-626.5 392.93,-656.5 514.93,-656.5 514.93,-626.5 392.93,-626.5"/>
<text text-anchor="start" x="400.93" y="-644.5" font-family="Helvetica,sans-Serif" font-size="10.00">src/enclave/forwarder</text>
<text text-anchor="middle" x="453.93" y="-633.5" font-family="Helvetica,sans-Serif" font-size="10.00">_types.h</text>
</a>
</g>
</g>
<!-- Node2 -->
<g id="node2" class="node">
<title>Node2</title>
<g id="a_node2"><a xlink:href="rpc__handler_8h.html" target="_top" xlink:title=" ">
<polygon fill="white" stroke="black" points="383.93,-570.5 383.93,-589.5 523.93,-589.5 523.93,-570.5 383.93,-570.5"/>
<text text-anchor="middle" x="453.93" y="-577.5" font-family="Helvetica,sans-Serif" font-size="10.00">src/enclave/rpc_handler.h</text>
</a>
</g>
</g>
<!-- Node1&#45;&gt;Node2 -->
<g id="edge1" class="edge">
<title>Node1&#45;&gt;Node2</title>
<path fill="none" stroke="midnightblue" d="M453.93,-616.29C453.93,-606.86 453.93,-596.65 453.93,-589.66"/>
<polygon fill="midnightblue" stroke="midnightblue" points="450.43,-616.4 453.93,-626.4 457.43,-616.4 450.43,-616.4"/>
</g>
<!-- Node23 -->
<g id="node23" class="node">
<title>Node23</title>
<g id="a_node23"><a xlink:href="rpc__sessions_8h.html" target="_top" xlink:title=" ">
<polygon fill="white" stroke="black" points="29.93,-375 29.93,-394 175.93,-394 175.93,-375 29.93,-375"/>
<text text-anchor="middle" x="102.93" y="-382" font-family="Helvetica,sans-Serif" font-size="10.00">src/enclave/rpc_sessions.h</text>
</a>
</g>
</g>
<!-- Node1&#45;&gt;Node23 -->
<g id="edge66" class="edge">
<title>Node1&#45;&gt;Node23</title>
<path fill="none" stroke="midnightblue" d="M382.52,-630.59C307.83,-617.66 189.49,-589.77 101.93,-534 58.85,-506.56 20.19,-482.21 41.93,-436 50.94,-416.84 71.18,-402.46 85.89,-394.04"/>
<polygon fill="midnightblue" stroke="midnightblue" points="382.32,-634.1 392.76,-632.31 383.48,-627.2 382.32,-634.1"/>
</g>
<!-- Node27 -->
<g id="node27" class="node">
<title>Node27</title>
<g id="a_node27"><a xlink:href="forwarder_8h.html" target="_top" xlink:title=" ">
<polygon fill="white" stroke="black" points="1095.93,-442 1095.93,-461 1229.93,-461 1229.93,-442 1095.93,-442"/>
<text text-anchor="middle" x="1162.93" y="-449" font-family="Helvetica,sans-Serif" font-size="10.00">src/node/rpc/forwarder.h</text>
</a>
</g>
</g>
<!-- Node1&#45;&gt;Node27 -->
<g id="edge67" class="edge">
<title>Node1&#45;&gt;Node27</title>
<path fill="none" stroke="midnightblue" d="M525.49,-635.97C674.49,-625.41 1012.18,-595.27 1107.93,-534 1135.96,-516.06 1153.2,-478.16 1159.82,-461.12"/>
<polygon fill="midnightblue" stroke="midnightblue" points="524.82,-632.51 515.09,-636.7 525.31,-639.49 524.82,-632.51"/>
</g>
<!-- Node3 -->
<g id="node3" class="node">
<title>Node3</title>
<g id="a_node3"><a xlink:href="raft__types_8h.html" target="_top" xlink:title=" ">
<polygon fill="white" stroke="black" points="485.93,-503.5 485.93,-533.5 605.93,-533.5 605.93,-503.5 485.93,-503.5"/>
<text text-anchor="start" x="493.93" y="-521.5" font-family="Helvetica,sans-Serif" font-size="10.00">src/consensus/aft/raft</text>
<text text-anchor="middle" x="545.93" y="-510.5" font-family="Helvetica,sans-Serif" font-size="10.00">_types.h</text>
</a>
</g>
</g>
<!-- Node2&#45;&gt;Node3 -->
<g id="edge2" class="edge">
<title>Node2&#45;&gt;Node3</title>
<path fill="none" stroke="midnightblue" d="M475.56,-565.01C490.24,-555.52 509.56,-543.02 524.25,-533.52"/>
<polygon fill="midnightblue" stroke="midnightblue" points="473.61,-562.11 467.11,-570.48 477.41,-567.98 473.61,-562.11"/>
</g>
<!-- Node21 -->
<g id="node21" class="node">
<title>Node21</title>
<g id="a_node21"><a xlink:href="rpc__map_8h.html" target="_top" xlink:title=" ">
<polygon fill="white" stroke="black" points="298.93,-509 298.93,-528 424.93,-528 424.93,-509 298.93,-509"/>
<text text-anchor="middle" x="361.93" y="-516" font-family="Helvetica,sans-Serif" font-size="10.00">src/enclave/rpc_map.h</text>
</a>
</g>
</g>
<!-- Node2&#45;&gt;Node21 -->
<g id="edge31" class="edge">
<title>Node2&#45;&gt;Node21</title>
<path fill="none" stroke="midnightblue" d="M432.17,-564.93C414.44,-553.46 389.97,-537.63 375.09,-528.01"/>
<polygon fill="midnightblue" stroke="midnightblue" points="430.45,-567.98 440.75,-570.48 434.25,-562.11 430.45,-567.98"/>
</g>
<!-- Node2&#45;&gt;Node23 -->
<g id="edge57" class="edge">
<title>Node2&#45;&gt;Node23</title>
<path fill="none" stroke="midnightblue" d="M374.4,-569.08C267.41,-553.83 86.27,-520.62 49.93,-467 32.13,-440.73 69.05,-409.09 89.93,-394.14"/>
<polygon fill="midnightblue" stroke="midnightblue" points="374.13,-572.58 384.52,-570.5 375.1,-565.64 374.13,-572.58"/>
</g>
<!-- Node26 -->
<g id="node26" class="node">
<title>Node26</title>
<g id="a_node26"><a xlink:href="http__endpoint_8h.html" target="_top" xlink:title=" ">
<polygon fill="white" stroke="black" points="59.43,-442 59.43,-461 192.43,-461 192.43,-442 59.43,-442"/>
<text text-anchor="middle" x="125.93" y="-449" font-family="Helvetica,sans-Serif" font-size="10.00">src/http/http_endpoint.h</text>
</a>
</g>
</g>
<!-- Node2&#45;&gt;Node26 -->
<g id="edge58" class="edge">
<title>Node2&#45;&gt;Node26</title>
<path fill="none" stroke="midnightblue" d="M404.62,-568.11C371.64,-560.19 327.55,-548.36 289.93,-534 232.89,-512.24 169.16,-477.28 140.86,-461.15"/>
<polygon fill="midnightblue" stroke="midnightblue" points="403.94,-571.55 414.48,-570.44 405.55,-564.73 403.94,-571.55"/>
</g>
<!-- Node28 -->
<g id="node28" class="node">
<title>Node28</title>
<g id="a_node28"><a xlink:href="frontend_8h.html" target="_top" xlink:title=" ">
<polygon fill="white" stroke="black" points="1193.43,-375 1193.43,-394 1322.43,-394 1322.43,-375 1193.43,-375"/>
<text text-anchor="middle" x="1257.93" y="-382" font-family="Helvetica,sans-Serif" font-size="10.00">src/node/rpc/frontend.h</text>
</a>
</g>
</g>
<!-- Node2&#45;&gt;Node28 -->
<g id="edge65" class="edge">
<title>Node2&#45;&gt;Node28</title>
<path fill="none" stroke="midnightblue" d="M534.17,-577.5C684.32,-574.03 1002.13,-563.36 1107.93,-534 1170.94,-516.51 1198.65,-518.52 1238.93,-467 1256.11,-445.02 1258.21,-410.17 1258.18,-394.11"/>
<polygon fill="midnightblue" stroke="midnightblue" points="534,-574 524.09,-577.73 534.16,-581 534,-574"/>
</g>
<!-- Node32 -->
<g id="node32" class="node">
<title>Node32</title>
<g id="a_node32"><a xlink:href="node__to__node_8h.html" target="_top" xlink:title=" ">
<polygon fill="white" stroke="black" points="960.93,-509 960.93,-528 1098.93,-528 1098.93,-509 960.93,-509"/>
<text text-anchor="middle" x="1029.93" y="-516" font-family="Helvetica,sans-Serif" font-size="10.00">src/node/node_to_node.h</text>
</a>
</g>
</g>
<!-- Node2&#45;&gt;Node32 -->
<g id="edge59" class="edge">
<title>Node2&#45;&gt;Node32</title>
<path fill="none" stroke="midnightblue" d="M534.01,-570.73C647.59,-559 853.55,-537.72 960.81,-526.64"/>
<polygon fill="midnightblue" stroke="midnightblue" points="533.57,-567.25 523.98,-571.76 534.29,-574.22 533.57,-567.25"/>
</g>
<!-- Node4 -->
<g id="node4" class="node">
<title>Node4</title>
<g id="a_node4"><a xlink:href="request__message_8h.html" target="_top" xlink:title=" ">
<polygon fill="white" stroke="black" points="665.43,-436.5 665.43,-466.5 790.43,-466.5 790.43,-436.5 665.43,-436.5"/>
<text text-anchor="start" x="673.43" y="-454.5" font-family="Helvetica,sans-Serif" font-size="10.00">src/consensus/aft/impl</text>
<text text-anchor="middle" x="727.93" y="-443.5" font-family="Helvetica,sans-Serif" font-size="10.00">/request_message.h</text>
</a>
</g>
</g>
<!-- Node3&#45;&gt;Node4 -->
<g id="edge3" class="edge">
<title>Node3&#45;&gt;Node4</title>
<path fill="none" stroke="midnightblue" d="M595.05,-499.96C624.37,-489.48 661.1,-476.37 688.51,-466.58"/>
<polygon fill="midnightblue" stroke="midnightblue" points="593.66,-496.74 585.42,-503.4 596.01,-503.33 593.66,-496.74"/>
</g>
<!-- Node5 -->
<g id="node5" class="node">
<title>Node5</title>
<g id="a_node5"><a xlink:href="state_8h.html" target="_top" xlink:title=" ">
<polygon fill="white" stroke="black" points="357.43,-369.5 357.43,-399.5 482.43,-399.5 482.43,-369.5 357.43,-369.5"/>
<text text-anchor="start" x="365.43" y="-387.5" font-family="Helvetica,sans-Serif" font-size="10.00">src/consensus/aft/impl</text>
<text text-anchor="middle" x="419.93" y="-376.5" font-family="Helvetica,sans-Serif" font-size="10.00">/state.h</text>
</a>
</g>
</g>
<!-- Node3&#45;&gt;Node5 -->
<g id="edge4" class="edge">
<title>Node3&#45;&gt;Node5</title>
<path fill="none" stroke="midnightblue" d="M512.53,-497.85C499.62,-489.33 485.27,-478.64 473.93,-467 453.68,-446.21 436.39,-416.83 427.14,-399.61"/>
<polygon fill="midnightblue" stroke="midnightblue" points="510.87,-500.94 521.17,-503.39 514.64,-495.05 510.87,-500.94"/>
</g>
<!-- Node6 -->
<g id="node6" class="node">
<title>Node6</title>
<g id="a_node6"><a xlink:href="raft_8h.html" target="_top" xlink:title=" ">
<polygon fill="white" stroke="black" points="611.43,-308 611.43,-327 740.43,-327 740.43,-308 611.43,-308"/>
<text text-anchor="middle" x="675.93" y="-315" font-family="Helvetica,sans-Serif" font-size="10.00">src/consensus/aft/raft.h</text>
</a>
</g>
</g>
<!-- Node3&#45;&gt;Node6 -->
<g id="edge13" class="edge">
<title>Node3&#45;&gt;Node6</title>
<path fill="none" stroke="midnightblue" d="M579.35,-497.88C592.26,-489.36 606.61,-478.67 617.93,-467 642.73,-441.43 648.86,-433.14 661.93,-400 671.83,-374.89 674.74,-342.71 675.59,-327.38"/>
<polygon fill="midnightblue" stroke="midnightblue" points="577.24,-495.07 570.7,-503.41 581.01,-500.97 577.24,-495.07"/>
</g>
<!-- Node12 -->
<g id="node12" class="node">
<title>Node12</title>
<g id="a_node12"><a xlink:href="node__connections_8h.html" target="_top" xlink:title=" ">
<polygon fill="white" stroke="black" points="808.43,-442 808.43,-461 963.43,-461 963.43,-442 808.43,-442"/>
<text text-anchor="middle" x="885.93" y="-449" font-family="Helvetica,sans-Serif" font-size="10.00">src/host/node_connections.h</text>
</a>
</g>
</g>
<!-- Node3&#45;&gt;Node12 -->
<g id="edge14" class="edge">
<title>Node3&#45;&gt;Node12</title>
<path fill="none" stroke="midnightblue" d="M616.08,-504.09C683.74,-491.15 784.07,-471.97 841.42,-461.01"/>
<polygon fill="midnightblue" stroke="midnightblue" points="615.1,-500.71 605.93,-506.03 616.41,-507.59 615.1,-500.71"/>
</g>
<!-- Node14 -->
<g id="node14" class="node">
<title>Node14</title>
<g id="a_node14"><a xlink:href="node__client_8h.html" target="_top" xlink:title=" ">
<polygon fill="white" stroke="black" points="482.93,-442 482.93,-461 608.93,-461 608.93,-442 482.93,-442"/>
<text text-anchor="middle" x="545.93" y="-449" font-family="Helvetica,sans-Serif" font-size="10.00">src/node/node_client.h</text>
</a>
</g>
</g>
<!-- Node3&#45;&gt;Node14 -->
<g id="edge16" class="edge">
<title>Node3&#45;&gt;Node14</title>
<path fill="none" stroke="midnightblue" d="M545.93,-493.25C545.93,-482.02 545.93,-469.38 545.93,-461.19"/>
<polygon fill="midnightblue" stroke="midnightblue" points="542.43,-493.4 545.93,-503.4 549.43,-493.4 542.43,-493.4"/>
</g>
<!-- Node20 -->
<g id="node20" class="node">
<title>Node20</title>
<g id="a_node20"><a xlink:href="resharing__tracker_8h.html" target="_top" xlink:title=" ">
<polygon fill="white" stroke="black" points="232.43,-369.5 232.43,-399.5 339.43,-399.5 339.43,-369.5 232.43,-369.5"/>
<text text-anchor="start" x="240.43" y="-387.5" font-family="Helvetica,sans-Serif" font-size="10.00">src/node/resharing</text>
<text text-anchor="middle" x="285.93" y="-376.5" font-family="Helvetica,sans-Serif" font-size="10.00">_tracker.h</text>
</a>
</g>
</g>
<!-- Node3&#45;&gt;Node20 -->
<g id="edge28" class="edge">
<title>Node3&#45;&gt;Node20</title>
<path fill="none" stroke="midnightblue" d="M507.55,-498.86C489.04,-489.63 466.63,-478.11 446.93,-467 424.15,-454.16 419.99,-448.33 396.93,-436 371.72,-422.52 342.23,-409.22 319.99,-399.65"/>
<polygon fill="midnightblue" stroke="midnightblue" points="506.05,-502.02 516.57,-503.32 509.16,-495.75 506.05,-502.02"/>
</g>
<!-- Node5&#45;&gt;Node6 -->
<g id="edge5" class="edge">
<title>Node5&#45;&gt;Node6</title>
<path fill="none" stroke="midnightblue" d="M484.95,-366.99C535.12,-354.25 602.48,-337.15 642.34,-327.03"/>
<polygon fill="midnightblue" stroke="midnightblue" points="483.99,-363.62 475.16,-369.48 485.71,-370.41 483.99,-363.62"/>
</g>
<!-- Node11 -->
<g id="node11" class="node">
<title>Node11</title>
<g id="a_node11"><a xlink:href="resharing_8h.html" target="_top" xlink:title=" ">
<polygon fill="white" stroke="black" points="302.93,-308 302.93,-327 418.93,-327 418.93,-308 302.93,-308"/>
<text text-anchor="middle" x="360.93" y="-315" font-family="Helvetica,sans-Serif" font-size="10.00">src/node/resharing.h</text>
</a>
</g>
</g>
<!-- Node5&#45;&gt;Node11 -->
<g id="edge11" class="edge">
<title>Node5&#45;&gt;Node11</title>
<path fill="none" stroke="midnightblue" d="M400.1,-361.66C389.4,-349.86 376.78,-335.97 368.82,-327.19"/>
<polygon fill="midnightblue" stroke="midnightblue" points="397.81,-364.34 407.13,-369.4 403,-359.64 397.81,-364.34"/>
</g>
<!-- Node7 -->
<g id="node7" class="node">
<title>Node7</title>
<g id="a_node7"><a xlink:href="node__state_8h.html" target="_top" xlink:title=" ">
<polygon fill="white" stroke="black" points="657.93,-174 657.93,-193 781.93,-193 781.93,-174 657.93,-174"/>
<text text-anchor="middle" x="719.93" y="-181" font-family="Helvetica,sans-Serif" font-size="10.00">src/node/node_state.h</text>
</a>
</g>
</g>
<!-- Node6&#45;&gt;Node7 -->
<g id="edge6" class="edge">
<title>Node6&#45;&gt;Node7</title>
<path fill="none" stroke="midnightblue" d="M682.04,-298.16C691.68,-269.23 710.05,-214.13 717.09,-193.02"/>
<polygon fill="midnightblue" stroke="midnightblue" points="678.66,-297.25 678.82,-307.84 685.3,-299.46 678.66,-297.25"/>
</g>
<!-- Node8 -->
<g id="node8" class="node">
<title>Node8</title>
<g id="a_node8"><a xlink:href="src_2enclave_2enclave_8h.html" target="_top" xlink:title=" ">
<polygon fill="white" stroke="black" points="1006.93,-56.5 1006.93,-75.5 1128.93,-75.5 1128.93,-56.5 1006.93,-56.5"/>
<text text-anchor="middle" x="1067.93" y="-63.5" font-family="Helvetica,sans-Serif" font-size="10.00">src/enclave/enclave.h</text>
</a>
</g>
</g>
<!-- Node7&#45;&gt;Node8 -->
<g id="edge7" class="edge">
<title>Node7&#45;&gt;Node8</title>
<path fill="none" stroke="midnightblue" d="M755.52,-170.69C825.66,-147.41 980.31,-96.08 1041.89,-75.64"/>
<polygon fill="midnightblue" stroke="midnightblue" points="754.19,-167.44 745.8,-173.91 756.39,-174.08 754.19,-167.44"/>
</g>
<!-- Node10 -->
<g id="node10" class="node">
<title>Node10</title>
<g id="a_node10"><a xlink:href="gov__effects_8h.html" target="_top" xlink:title=" ">
<polygon fill="white" stroke="black" points="695.93,-112.5 695.93,-131.5 839.93,-131.5 839.93,-112.5 695.93,-112.5"/>
<text text-anchor="middle" x="767.93" y="-119.5" font-family="Helvetica,sans-Serif" font-size="10.00">src/node/rpc/gov_effects.h</text>
</a>
</g>
</g>
<!-- Node7&#45;&gt;Node10 -->
<g id="edge9" class="edge">
<title>Node7&#45;&gt;Node10</title>
<path fill="none" stroke="midnightblue" d="M733.1,-166.17C742.15,-154.95 753.8,-140.52 761.06,-131.51"/>
<polygon fill="midnightblue" stroke="midnightblue" points="730.36,-163.99 726.81,-173.98 735.81,-168.39 730.36,-163.99"/>
</g>
<!-- Node9 -->
<g id="node9" class="node">
<title>Node9</title>
<g id="a_node9"><a xlink:href="enclave_2main_8cpp.html" target="_top" xlink:title=" ">
<polygon fill="white" stroke="black" points="1007.93,-0.5 1007.93,-19.5 1127.93,-19.5 1127.93,-0.5 1007.93,-0.5"/>
<text text-anchor="middle" x="1067.93" y="-7.5" font-family="Helvetica,sans-Serif" font-size="10.00">src/enclave/main.cpp</text>
</a>
</g>
</g>
<!-- Node8&#45;&gt;Node9 -->
<g id="edge8" class="edge">
<title>Node8&#45;&gt;Node9</title>
<path fill="none" stroke="midnightblue" d="M1067.93,-45.8C1067.93,-36.91 1067.93,-26.78 1067.93,-19.75"/>
<polygon fill="midnightblue" stroke="midnightblue" points="1064.43,-46.08 1067.93,-56.08 1071.43,-46.08 1064.43,-46.08"/>
</g>
<!-- Node10&#45;&gt;Node8 -->
<g id="edge10" class="edge">
<title>Node10&#45;&gt;Node8</title>
<path fill="none" stroke="midnightblue" d="M825.35,-110.66C882.04,-100.46 967.71,-85.04 1020.61,-75.52"/>
<polygon fill="midnightblue" stroke="midnightblue" points="824.69,-107.23 815.46,-112.44 825.93,-114.12 824.69,-107.23"/>
</g>
<!-- Node11&#45;&gt;Node7 -->
<g id="edge12" class="edge">
<title>Node11&#45;&gt;Node7</title>
<path fill="none" stroke="midnightblue" d="M429.04,-316.28C488.98,-313.4 576.9,-302.48 643.93,-266 677.06,-247.96 703.82,-210.12 714.68,-193.1"/>
<polygon fill="midnightblue" stroke="midnightblue" points="428.77,-312.78 418.93,-316.7 429.07,-319.78 428.77,-312.78"/>
</g>
<!-- Node13 -->
<g id="node13" class="node">
<title>Node13</title>
<g id="a_node13"><a xlink:href="host_2main_8cpp.html" target="_top" xlink:title=" ">
<polygon fill="white" stroke="black" points="860.43,-375 860.43,-394 963.43,-394 963.43,-375 860.43,-375"/>
<text text-anchor="middle" x="911.93" y="-382" font-family="Helvetica,sans-Serif" font-size="10.00">src/host/main.cpp</text>
</a>
</g>
</g>
<!-- Node12&#45;&gt;Node13 -->
<g id="edge15" class="edge">
<title>Node12&#45;&gt;Node13</title>
<path fill="none" stroke="midnightblue" d="M893.21,-432.29C898.21,-419.81 904.6,-403.81 908.48,-394.13"/>
<polygon fill="midnightblue" stroke="midnightblue" points="889.9,-431.15 889.43,-441.73 896.4,-433.75 889.9,-431.15"/>
</g>
<!-- Node14&#45;&gt;Node6 -->
<g id="edge23" class="edge">
<title>Node14&#45;&gt;Node6</title>
<path fill="none" stroke="midnightblue" d="M579.83,-438.08C598.87,-429.71 621.95,-417.07 637.93,-400 658.42,-378.12 669.55,-343.22 673.83,-327.13"/>
<polygon fill="midnightblue" stroke="midnightblue" points="578.45,-434.86 570.58,-441.96 581.15,-441.32 578.45,-434.86"/>
</g>
<!-- Node15 -->
<g id="node15" class="node">
<title>Node15</title>
<g id="a_node15"><a xlink:href="orc__requests_8h.html" target="_top" xlink:title=" ">
<polygon fill="white" stroke="black" points="723.43,-369.5 723.43,-399.5 842.43,-399.5 842.43,-369.5 723.43,-369.5"/>
<text text-anchor="start" x="731.43" y="-387.5" font-family="Helvetica,sans-Serif" font-size="10.00">src/consensus/aft/orc</text>
<text text-anchor="middle" x="782.93" y="-376.5" font-family="Helvetica,sans-Serif" font-size="10.00">_requests.h</text>
</a>
</g>
</g>
<!-- Node14&#45;&gt;Node15 -->
<g id="edge17" class="edge">
<title>Node14&#45;&gt;Node15</title>
<path fill="none" stroke="midnightblue" d="M587.14,-439.2C627.31,-428.18 688.51,-411.39 731.78,-399.53"/>
<polygon fill="midnightblue" stroke="midnightblue" points="586.12,-435.85 577.4,-441.87 587.97,-442.6 586.12,-435.85"/>
</g>
<!-- Node18 -->
<g id="node18" class="node">
<title>Node18</title>
<g id="a_node18"><a xlink:href="http__node__client_8h.html" target="_top" xlink:title=" ">
<polygon fill="white" stroke="black" points="346.93,-235.5 346.93,-265.5 456.93,-265.5 456.93,-235.5 346.93,-235.5"/>
<text text-anchor="start" x="354.93" y="-253.5" font-family="Helvetica,sans-Serif" font-size="10.00">src/node/http_node</text>
<text text-anchor="middle" x="401.93" y="-242.5" font-family="Helvetica,sans-Serif" font-size="10.00">_client.h</text>
</a>
</g>
</g>
<!-- Node14&#45;&gt;Node18 -->
<g id="edge24" class="edge">
<title>Node14&#45;&gt;Node18</title>
<path fill="none" stroke="midnightblue" d="M472.48,-441.45C379.69,-429.67 231.02,-409.46 222.93,-400 173.83,-342.63 291.97,-289.84 359.23,-265.55"/>
<polygon fill="midnightblue" stroke="midnightblue" points="472.31,-444.96 482.67,-442.74 473.19,-438.01 472.31,-444.96"/>
</g>
<!-- Node19 -->
<g id="node19" class="node">
<title>Node19</title>
<g id="a_node19"><a xlink:href="retired__nodes__cleanup_8h.html" target="_top" xlink:title=" ">
<polygon fill="white" stroke="black" points="500.93,-369.5 500.93,-399.5 628.93,-399.5 628.93,-369.5 500.93,-369.5"/>
<text text-anchor="start" x="508.93" y="-387.5" font-family="Helvetica,sans-Serif" font-size="10.00">src/node/retired_nodes</text>
<text text-anchor="middle" x="564.93" y="-376.5" font-family="Helvetica,sans-Serif" font-size="10.00">_cleanup.h</text>
</a>
</g>
</g>
<!-- Node14&#45;&gt;Node19 -->
<g id="edge26" class="edge">
<title>Node14&#45;&gt;Node19</title>
<path fill="none" stroke="midnightblue" d="M551.32,-432.06C554.33,-421.75 558.03,-409.1 560.81,-399.59"/>
<polygon fill="midnightblue" stroke="midnightblue" points="547.94,-431.15 548.49,-441.73 554.66,-433.12 547.94,-431.15"/>
</g>
<!-- Node15&#45;&gt;Node6 -->
<g id="edge18" class="edge">
<title>Node15&#45;&gt;Node6</title>
<path fill="none" stroke="midnightblue" d="M751.06,-364.14C730.72,-351.79 705.37,-336.39 689.93,-327.01"/>
<polygon fill="midnightblue" stroke="midnightblue" points="749.35,-367.2 759.71,-369.4 752.98,-361.21 749.35,-367.2"/>
</g>
<!-- Node16 -->
<g id="node16" class="node">
<title>Node16</title>
<g id="a_node16"><a xlink:href="node__frontend_8h.html" target="_top" xlink:title=" ">
<polygon fill="white" stroke="black" points="919.93,-308 919.93,-327 1077.93,-327 1077.93,-308 919.93,-308"/>
<text text-anchor="middle" x="998.93" y="-315" font-family="Helvetica,sans-Serif" font-size="10.00">src/node/rpc/node_frontend.h</text>
</a>
</g>
</g>
<!-- Node15&#45;&gt;Node16 -->
<g id="edge19" class="edge">
<title>Node15&#45;&gt;Node16</title>
<path fill="none" stroke="midnightblue" d="M839.12,-366.59C881.3,-353.9 937.31,-337.04 970.59,-327.03"/>
<polygon fill="midnightblue" stroke="midnightblue" points="838.1,-363.24 829.53,-369.48 840.12,-369.95 838.1,-363.24"/>
</g>
<!-- Node16&#45;&gt;Node8 -->
<g id="edge20" class="edge">
<title>Node16&#45;&gt;Node8</title>
<path fill="none" stroke="midnightblue" d="M1019.75,-301.26C1030.38,-292.27 1042.41,-279.93 1048.93,-266 1080.42,-198.73 1072.54,-104.87 1069.1,-75.88"/>
<polygon fill="midnightblue" stroke="midnightblue" points="1017.29,-298.75 1011.67,-307.73 1021.66,-304.22 1017.29,-298.75"/>
</g>
<!-- Node17 -->
<g id="node17" class="node">
<title>Node17</title>
<g id="a_node17"><a xlink:href="jwt__key__auto__refresh_8h.html" target="_top" xlink:title=" ">
<polygon fill="white" stroke="black" points="914.43,-235.5 914.43,-265.5 1039.43,-265.5 1039.43,-235.5 914.43,-235.5"/>
<text text-anchor="start" x="922.43" y="-253.5" font-family="Helvetica,sans-Serif" font-size="10.00">src/node/jwt_key_auto</text>
<text text-anchor="middle" x="976.93" y="-242.5" font-family="Helvetica,sans-Serif" font-size="10.00">_refresh.h</text>
</a>
</g>
</g>
<!-- Node16&#45;&gt;Node17 -->
<g id="edge21" class="edge">
<title>Node16&#45;&gt;Node17</title>
<path fill="none" stroke="midnightblue" d="M992.69,-298.06C989.2,-287.75 984.92,-275.1 981.7,-265.59"/>
<polygon fill="midnightblue" stroke="midnightblue" points="989.44,-299.38 995.96,-307.73 996.07,-297.14 989.44,-299.38"/>
</g>
<!-- Node17&#45;&gt;Node7 -->
<g id="edge22" class="edge">
<title>Node17&#45;&gt;Node7</title>
<path fill="none" stroke="midnightblue" d="M911.65,-232.99C861.28,-220.25 793.66,-203.15 753.65,-193.03"/>
<polygon fill="midnightblue" stroke="midnightblue" points="910.93,-236.42 921.48,-235.48 912.64,-229.63 910.93,-236.42"/>
</g>
<!-- Node18&#45;&gt;Node7 -->
<g id="edge25" class="edge">
<title>Node18&#45;&gt;Node7</title>
<path fill="none" stroke="midnightblue" d="M466.83,-236.23C530.09,-223.3 624.39,-204.03 678.23,-193.02"/>
<polygon fill="midnightblue" stroke="midnightblue" points="466.05,-232.82 456.96,-238.25 467.45,-239.68 466.05,-232.82"/>
</g>
<!-- Node19&#45;&gt;Node6 -->
<g id="edge27" class="edge">
<title>Node19&#45;&gt;Node6</title>
<path fill="none" stroke="midnightblue" d="M597.7,-364.31C618.85,-351.93 645.31,-336.43 661.4,-327.01"/>
<polygon fill="midnightblue" stroke="midnightblue" points="595.87,-361.32 589.01,-369.4 599.41,-367.36 595.87,-361.32"/>
</g>
<!-- Node20&#45;&gt;Node6 -->
<g id="edge29" class="edge">
<title>Node20&#45;&gt;Node6</title>
<path fill="none" stroke="midnightblue" d="M349.55,-368.76C445.86,-350.38 547.12,-335.69 611.26,-326.96"/>
<polygon fill="midnightblue" stroke="midnightblue" points="348.8,-365.34 339.64,-370.67 350.12,-372.22 348.8,-365.34"/>
</g>
<!-- Node20&#45;&gt;Node11 -->
<g id="edge30" class="edge">
<title>Node20&#45;&gt;Node11</title>
<path fill="none" stroke="midnightblue" d="M309.96,-362.67C323.81,-350.67 340.48,-336.22 350.9,-327.19"/>
<polygon fill="midnightblue" stroke="midnightblue" points="307.47,-360.2 302.2,-369.4 312.05,-365.49 307.47,-360.2"/>
</g>
<!-- Node21&#45;&gt;Node8 -->
<g id="edge32" class="edge">
<title>Node21&#45;&gt;Node8</title>
<path fill="none" stroke="midnightblue" d="M325.76,-505.55C300.8,-496.59 267.31,-483.12 239.93,-467 220.85,-455.77 221.01,-445.32 200.93,-436 126.92,-401.66 79.52,-456.77 20.93,-400 -5.78,-374.12 1.93,-355.69 1.93,-318.5 1.93,-318.5 1.93,-318.5 1.93,-182.5 1.93,-110.84 77.51,-129.78 146.93,-112 310.25,-70.18 828.27,-66.71 1006.78,-66.8"/>
<polygon fill="midnightblue" stroke="midnightblue" points="324.62,-508.86 335.22,-508.88 326.95,-502.25 324.62,-508.86"/>
</g>
<!-- Node21&#45;&gt;Node14 -->
<g id="edge44" class="edge">
<title>Node21&#45;&gt;Node14</title>
<path fill="none" stroke="midnightblue" d="M396.08,-505.44C432.58,-492.54 489.53,-472.42 521.69,-461.06"/>
<polygon fill="midnightblue" stroke="midnightblue" points="394.63,-502.24 386.36,-508.87 396.96,-508.84 394.63,-502.24"/>
</g>
<!-- Node22 -->
<g id="node22" class="node">
<title>Node22</title>
<g id="a_node22"><a xlink:href="http2__endpoint_8h.html" target="_top" xlink:title=" ">
<polygon fill="white" stroke="black" points="249.43,-442 249.43,-461 388.43,-461 388.43,-442 249.43,-442"/>
<text text-anchor="middle" x="318.93" y="-449" font-family="Helvetica,sans-Serif" font-size="10.00">src/http/http2_endpoint.h</text>
</a>
</g>
</g>
<!-- Node21&#45;&gt;Node22 -->
<g id="edge33" class="edge">
<title>Node21&#45;&gt;Node22</title>
<path fill="none" stroke="midnightblue" d="M350.37,-500.03C342.05,-487.45 331.17,-471.01 324.64,-461.13"/>
<polygon fill="midnightblue" stroke="midnightblue" points="347.69,-502.32 356.13,-508.73 353.53,-498.46 347.69,-502.32"/>
</g>
<!-- Node21&#45;&gt;Node26 -->
<g id="edge42" class="edge">
<title>Node21&#45;&gt;Node26</title>
<path fill="none" stroke="midnightblue" d="M320.8,-506.17C274.13,-493.32 199.06,-472.64 157.02,-461.06"/>
<polygon fill="midnightblue" stroke="midnightblue" points="320.02,-509.59 330.59,-508.87 321.88,-502.84 320.02,-509.59"/>
</g>
<!-- Node21&#45;&gt;Node27 -->
<g id="edge45" class="edge">
<title>Node21&#45;&gt;Node27</title>
<path fill="none" stroke="midnightblue" d="M434.62,-507.74C448.64,-506.03 463.23,-504.36 476.93,-503 696.87,-481.17 752.51,-483.41 972.93,-467 1013.67,-463.97 1059.32,-460.49 1095.66,-457.69"/>
<polygon fill="midnightblue" stroke="midnightblue" points="434.02,-504.29 424.53,-509 434.88,-511.24 434.02,-504.29"/>
</g>
<!-- Node22&#45;&gt;Node23 -->
<g id="edge34" class="edge">
<title>Node22&#45;&gt;Node23</title>
<path fill="none" stroke="midnightblue" d="M280.48,-438.93C237.71,-426.06 169.62,-405.57 131.39,-394.06"/>
<polygon fill="midnightblue" stroke="midnightblue" points="279.66,-442.34 290.25,-441.87 281.68,-435.64 279.66,-442.34"/>
</g>
<!-- Node23&#45;&gt;Node7 -->
<g id="edge38" class="edge">
<title>Node23&#45;&gt;Node7</title>
<path fill="none" stroke="midnightblue" d="M100.48,-364.55C97.53,-332.49 96.9,-267.84 133.93,-235 172.51,-200.79 515.06,-189.12 657.86,-185.73"/>
<polygon fill="midnightblue" stroke="midnightblue" points="97.03,-365.21 101.61,-374.77 103.99,-364.44 97.03,-365.21"/>
</g>
<!-- Node23&#45;&gt;Node8 -->
<g id="edge35" class="edge">
<title>Node23&#45;&gt;Node8</title>
<path fill="none" stroke="midnightblue" d="M94.26,-365.5C83.04,-340.52 64.93,-293.65 64.93,-251.5 64.93,-251.5 64.93,-251.5 64.93,-182.5 64.93,-87.19 788.93,-70.46 1006.7,-67.58"/>
<polygon fill="midnightblue" stroke="midnightblue" points="91.18,-367.19 98.57,-374.79 97.53,-364.24 91.18,-367.19"/>
</g>
<!-- Node23&#45;&gt;Node11 -->
<g id="edge41" class="edge">
<title>Node23&#45;&gt;Node11</title>
<path fill="none" stroke="midnightblue" d="M146.65,-372.48C197.54,-359.66 280.51,-338.76 326.86,-327.08"/>
<polygon fill="midnightblue" stroke="midnightblue" points="145.76,-369.1 136.92,-374.94 147.47,-375.89 145.76,-369.1"/>
</g>
<!-- Node24 -->
<g id="node24" class="node">
<title>Node24</title>
<g id="a_node24"><a xlink:href="ccf__acme__client_8h.html" target="_top" xlink:title=" ">
<polygon fill="white" stroke="black" points="486.43,-241 486.43,-260 635.43,-260 635.43,-241 486.43,-241"/>
<text text-anchor="middle" x="560.93" y="-248" font-family="Helvetica,sans-Serif" font-size="10.00">src/node/ccf_acme_client.h</text>
</a>
</g>
</g>
<!-- Node23&#45;&gt;Node24 -->
<g id="edge36" class="edge">
<title>Node23&#45;&gt;Node24</title>
<path fill="none" stroke="midnightblue" d="M128.91,-370.27C165.04,-352.37 232.92,-320.55 293.93,-302 333.25,-290.05 442.75,-270.97 508.67,-260"/>
<polygon fill="midnightblue" stroke="midnightblue" points="126.97,-367.33 119.59,-374.93 130.1,-373.59 126.97,-367.33"/>
</g>
<!-- Node25 -->
<g id="node25" class="node">
<title>Node25</title>
<g id="a_node25"><a xlink:href="quote__endorsements__client_8h.html" target="_top" xlink:title=" ">
<polygon fill="white" stroke="black" points="142.93,-235.5 142.93,-265.5 306.93,-265.5 306.93,-235.5 142.93,-235.5"/>
<text text-anchor="start" x="150.93" y="-253.5" font-family="Helvetica,sans-Serif" font-size="10.00">src/node/quote_endorsements</text>
<text text-anchor="middle" x="224.93" y="-242.5" font-family="Helvetica,sans-Serif" font-size="10.00">_client.h</text>
</a>
</g>
</g>
<!-- Node23&#45;&gt;Node25 -->
<g id="edge39" class="edge">
<title>Node23&#45;&gt;Node25</title>
<path fill="none" stroke="midnightblue" d="M114.2,-366.51C125.93,-349.39 145.28,-322.64 164.93,-302 177.69,-288.59 193.83,-275.17 206.15,-265.54"/>
<polygon fill="midnightblue" stroke="midnightblue" points="111.22,-364.67 108.52,-374.92 117.02,-368.59 111.22,-364.67"/>
</g>
<!-- Node24&#45;&gt;Node7 -->
<g id="edge37" class="edge">
<title>Node24&#45;&gt;Node7</title>
<path fill="none" stroke="midnightblue" d="M591.66,-236.94C623.24,-224.03 671.55,-204.28 698.98,-193.06"/>
<polygon fill="midnightblue" stroke="midnightblue" points="589.97,-233.84 582.04,-240.87 592.62,-240.32 589.97,-233.84"/>
</g>
<!-- Node25&#45;&gt;Node7 -->
<g id="edge40" class="edge">
<title>Node25&#45;&gt;Node7</title>
<path fill="none" stroke="midnightblue" d="M316.98,-237.41C416.35,-224.36 571.89,-203.94 657.76,-192.66"/>
<polygon fill="midnightblue" stroke="midnightblue" points="316.4,-233.96 306.94,-238.73 317.32,-240.9 316.4,-233.96"/>
</g>
<!-- Node26&#45;&gt;Node23 -->
<g id="edge43" class="edge">
<title>Node26&#45;&gt;Node23</title>
<path fill="none" stroke="midnightblue" d="M119.48,-432.29C115.07,-419.81 109.41,-403.81 105.98,-394.13"/>
<polygon fill="midnightblue" stroke="midnightblue" points="116.19,-433.47 122.83,-441.73 122.79,-431.14 116.19,-433.47"/>
</g>
<!-- Node27&#45;&gt;Node8 -->
<g id="edge46" class="edge">
<title>Node27&#45;&gt;Node8</title>
<path fill="none" stroke="midnightblue" d="M1150.12,-433.35C1133.31,-409.1 1105.93,-362.79 1105.93,-318.5 1105.93,-318.5 1105.93,-318.5 1105.93,-182.5 1105.93,-140.7 1083.2,-94.47 1072.9,-75.66"/>
<polygon fill="midnightblue" stroke="midnightblue" points="1147.5,-435.7 1156.17,-441.79 1153.19,-431.62 1147.5,-435.7"/>
</g>
<!-- Node27&#45;&gt;Node28 -->
<g id="edge47" class="edge">
<title>Node27&#45;&gt;Node28</title>
<path fill="none" stroke="midnightblue" d="M1184.24,-435.92C1203.02,-423.07 1229.75,-404.78 1245.32,-394.13"/>
<polygon fill="midnightblue" stroke="midnightblue" points="1182.02,-433.2 1175.74,-441.73 1185.97,-438.98 1182.02,-433.2"/>
</g>
<!-- Node28&#45;&gt;Node7 -->
<g id="edge51" class="edge">
<title>Node28&#45;&gt;Node7</title>
<path fill="none" stroke="midnightblue" d="M1271.26,-366.56C1283.4,-348.92 1297.42,-321.22 1282.93,-302 1223.08,-222.62 915.71,-195.64 782.09,-187.57"/>
<polygon fill="midnightblue" stroke="midnightblue" points="1268.33,-364.64 1265.24,-374.77 1273.97,-368.78 1268.33,-364.64"/>
</g>
<!-- Node28&#45;&gt;Node16 -->
<g id="edge54" class="edge">
<title>Node28&#45;&gt;Node16</title>
<path fill="none" stroke="midnightblue" d="M1214.03,-372.48C1162.95,-359.66 1079.66,-338.76 1033.13,-327.08"/>
<polygon fill="midnightblue" stroke="midnightblue" points="1213.25,-375.9 1223.8,-374.94 1214.95,-369.11 1213.25,-375.9"/>
</g>
<!-- Node29 -->
<g id="node29" class="node">
<title>Node29</title>
<g id="a_node29"><a xlink:href="acme__challenge__frontend_8h.html" target="_top" xlink:title=" ">
<polygon fill="white" stroke="black" points="1133.93,-302.5 1133.93,-332.5 1273.93,-332.5 1273.93,-302.5 1133.93,-302.5"/>
<text text-anchor="start" x="1141.93" y="-320.5" font-family="Helvetica,sans-Serif" font-size="10.00">src/node/acme_challenge</text>
<text text-anchor="middle" x="1203.93" y="-309.5" font-family="Helvetica,sans-Serif" font-size="10.00">_frontend.h</text>
</a>
</g>
</g>
<!-- Node28&#45;&gt;Node29 -->
<g id="edge48" class="edge">
<title>Node28&#45;&gt;Node29</title>
<path fill="none" stroke="midnightblue" d="M1244.21,-366.99C1235.38,-356.36 1224.03,-342.7 1215.63,-332.59"/>
<polygon fill="midnightblue" stroke="midnightblue" points="1241.56,-369.28 1250.65,-374.73 1246.95,-364.81 1241.56,-369.28"/>
</g>
<!-- Node30 -->
<g id="node30" class="node">
<title>Node30</title>
<g id="a_node30"><a xlink:href="member__frontend_8h.html" target="_top" xlink:title=" ">
<polygon fill="white" stroke="black" points="1220.93,-168.5 1220.93,-198.5 1340.93,-198.5 1340.93,-168.5 1220.93,-168.5"/>
<text text-anchor="start" x="1228.93" y="-186.5" font-family="Helvetica,sans-Serif" font-size="10.00">src/node/rpc/member</text>
<text text-anchor="middle" x="1280.93" y="-175.5" font-family="Helvetica,sans-Serif" font-size="10.00">_frontend.h</text>
</a>
</g>
</g>
<!-- Node28&#45;&gt;Node30 -->
<g id="edge52" class="edge">
<title>Node28&#45;&gt;Node30</title>
<path fill="none" stroke="midnightblue" d="M1282.6,-369.24C1295.08,-360.53 1309.03,-348.16 1315.93,-333 1333.97,-293.36 1328.93,-276.57 1315.93,-235 1311.66,-221.36 1302.27,-208.16 1294.29,-198.68"/>
<polygon fill="midnightblue" stroke="midnightblue" points="1280.35,-366.52 1273.88,-374.92 1284.17,-372.39 1280.35,-366.52"/>
</g>
<!-- Node31 -->
<g id="node31" class="node">
<title>Node31</title>
<g id="a_node31"><a xlink:href="user__frontend_8h.html" target="_top" xlink:title=" ">
<polygon fill="white" stroke="black" points="1285.43,-112.5 1285.43,-131.5 1440.43,-131.5 1440.43,-112.5 1285.43,-112.5"/>
<text text-anchor="middle" x="1362.93" y="-119.5" font-family="Helvetica,sans-Serif" font-size="10.00">src/node/rpc/user_frontend.h</text>
</a>
</g>
</g>
<!-- Node28&#45;&gt;Node31 -->
<g id="edge55" class="edge">
<title>Node28&#45;&gt;Node31</title>
<path fill="none" stroke="midnightblue" d="M1289.6,-370.56C1305.81,-362.26 1324.33,-349.86 1334.93,-333 1377.23,-265.75 1368.08,-162.48 1364.19,-131.85"/>
<polygon fill="midnightblue" stroke="midnightblue" points="1287.9,-367.5 1280.39,-374.98 1290.92,-373.81 1287.9,-367.5"/>
</g>
<!-- Node29&#45;&gt;Node8 -->
<g id="edge49" class="edge">
<title>Node29&#45;&gt;Node8</title>
<path fill="none" stroke="midnightblue" d="M1198.02,-292.55C1187.31,-252.41 1161.81,-170.22 1119.93,-112 1109.19,-97.07 1092.55,-83.82 1081,-75.63"/>
<polygon fill="midnightblue" stroke="midnightblue" points="1194.7,-293.68 1200.6,-302.48 1201.48,-291.92 1194.7,-293.68"/>
</g>
<!-- Node29&#45;&gt;Node24 -->
<g id="edge50" class="edge">
<title>Node29&#45;&gt;Node24</title>
<path fill="none" stroke="midnightblue" d="M1123.53,-306.24C1111.27,-304.76 1098.77,-303.3 1086.93,-302 926.21,-284.33 737.47,-267.05 635.47,-258"/>
<polygon fill="midnightblue" stroke="midnightblue" points="1123.39,-309.75 1133.74,-307.48 1124.24,-302.8 1123.39,-309.75"/>
</g>
<!-- Node30&#45;&gt;Node8 -->
<g id="edge53" class="edge">
<title>Node30&#45;&gt;Node8</title>
<path fill="none" stroke="midnightblue" d="M1257.13,-161.66C1238.86,-146.43 1212.51,-126.06 1186.93,-112 1157.89,-96.04 1122.03,-83.34 1097.31,-75.55"/>
<polygon fill="midnightblue" stroke="midnightblue" points="1255.03,-164.46 1264.92,-168.25 1259.55,-159.12 1255.03,-164.46"/>
</g>
<!-- Node31&#45;&gt;Node8 -->
<g id="edge56" class="edge">
<title>Node31&#45;&gt;Node8</title>
<path fill="none" stroke="midnightblue" d="M1306.12,-110.6C1250.37,-100.4 1166.36,-85.02 1114.45,-75.52"/>
<polygon fill="midnightblue" stroke="midnightblue" points="1305.72,-114.09 1316.18,-112.44 1306.98,-107.2 1305.72,-114.09"/>
</g>
<!-- Node32&#45;&gt;Node6 -->
<g id="edge60" class="edge">
<title>Node32&#45;&gt;Node6</title>
<path fill="none" stroke="midnightblue" d="M1024.01,-499.14C1011.68,-461.34 983.48,-377.64 972.93,-369 955.2,-354.48 822.56,-336.17 740.65,-326.07"/>
<polygon fill="midnightblue" stroke="midnightblue" points="1020.76,-500.44 1027.17,-508.87 1027.41,-498.28 1020.76,-500.44"/>
</g>
<!-- Node32&#45;&gt;Node7 -->
<g id="edge61" class="edge">
<title>Node32&#45;&gt;Node7</title>
<path fill="none" stroke="midnightblue" d="M1031.26,-498.92C1032.42,-467.42 1029.82,-403.6 993.93,-369 952.3,-328.88 921.86,-356.24 868.93,-333 816.51,-309.99 797.32,-308.46 758.93,-266 738.73,-243.66 726.89,-208.99 722.24,-193.05"/>
<polygon fill="midnightblue" stroke="midnightblue" points="1027.76,-498.77 1030.72,-508.95 1034.75,-499.15 1027.76,-498.77"/>
</g>
<!-- Node32&#45;&gt;Node27 -->
<g id="edge64" class="edge">
<title>Node32&#45;&gt;Node27</title>
<path fill="none" stroke="midnightblue" d="M1056.64,-504.44C1082.99,-491.57 1122.5,-472.26 1145.19,-461.17"/>
<polygon fill="midnightblue" stroke="midnightblue" points="1055.04,-501.33 1047.59,-508.87 1058.11,-507.62 1055.04,-501.33"/>
</g>
<!-- Node33 -->
<g id="node33" class="node">
<title>Node33</title>
<g id="a_node33"><a xlink:href="node__to__node__channel__manager_8h.html" target="_top" xlink:title=" ">
<polygon fill="white" stroke="black" points="767.43,-235.5 767.43,-265.5 896.43,-265.5 896.43,-235.5 767.43,-235.5"/>
<text text-anchor="start" x="775.43" y="-253.5" font-family="Helvetica,sans-Serif" font-size="10.00">src/node/node_to_node</text>
<text text-anchor="middle" x="831.93" y="-242.5" font-family="Helvetica,sans-Serif" font-size="10.00">_channel_manager.h</text>
</a>
</g>
</g>
<!-- Node32&#45;&gt;Node33 -->
<g id="edge62" class="edge">
<title>Node32&#45;&gt;Node33</title>
<path fill="none" stroke="midnightblue" d="M1038.85,-499.31C1052.33,-468.94 1073.35,-407.45 1043.93,-369 1006.71,-320.37 963.68,-364.1 910.93,-333 881.22,-315.49 855.21,-283.83 841.73,-265.55"/>
<polygon fill="midnightblue" stroke="midnightblue" points="1035.55,-498.12 1034.5,-508.67 1041.89,-501.08 1035.55,-498.12"/>
</g>
<!-- Node33&#45;&gt;Node7 -->
<g id="edge63" class="edge">
<title>Node33&#45;&gt;Node7</title>
<path fill="none" stroke="midnightblue" d="M798.86,-230.31C777.52,-217.93 750.82,-202.43 734.59,-193.01"/>
<polygon fill="midnightblue" stroke="midnightblue" points="797.22,-233.4 807.63,-235.4 800.73,-227.35 797.22,-233.4"/>
</g>
</g>
</svg>
        <g id="navigator" transform="translate(0 0)" fill="#404254">
                <rect fill="#f2f5e9" fill-opacity="0.5" stroke="#606060" stroke-width=".5" x="0" y="0" width="60" height="60"/>
                <use id="zoomplus" xlink:href="#zoomPlus" x="17" y="9" onmousedown="handleZoom(evt,'in')"/>
                <use id="zoomminus" xlink:href="#zoomMin" x="42" y="9" onmousedown="handleZoom(evt,'out')"/>
                <use id="reset" xlink:href="#resetDef" x="30" y="36" onmousedown="handleReset()"/>
                <g id="arrowUp" xlink:href="#dirArrow" transform="translate(30 24)" onmousedown="handlePan(0,-1)">
                  <use xlink:href="#rim" fill="#404040">
                        <set attributeName="fill" to="#808080" begin="arrowUp.mouseover" end="arrowUp.mouseout"/>
                  </use>
                  <path fill="none" stroke="white" stroke-width="1.5" d="M0,-3.0v7 M-2.5,-0.5L0,-3.0L2.5,-0.5"/>
                </g>
                <g id="arrowRight" xlink:href="#dirArrow" transform="rotate(90) translate(36 -43)" onmousedown="handlePan(1,0)">
                  <use xlink:href="#rim" fill="#404040">
                        <set attributeName="fill" to="#808080" begin="arrowRight.mouseover" end="arrowRight.mouseout"/>
                  </use>
                  <path fill="none" stroke="white" stroke-width="1.5" d="M0,-3.0v7 M-2.5,-0.5L0,-3.0L2.5,-0.5"/>
                </g>
                <g id="arrowDown" xlink:href="#dirArrow" transform="rotate(180) translate(-30 -48)" onmousedown="handlePan(0,1)">
                  <use xlink:href="#rim" fill="#404040">
                        <set attributeName="fill" to="#808080" begin="arrowDown.mouseover" end="arrowDown.mouseout"/>
                  </use>
                  <path fill="none" stroke="white" stroke-width="1.5" d="M0,-3.0v7 M-2.5,-0.5L0,-3.0L2.5,-0.5"/>
                </g>
                <g id="arrowLeft" xlink:href="#dirArrow" transform="rotate(270) translate(-36 17)" onmousedown="handlePan(-1,0)">
                  <use xlink:href="#rim" fill="#404040">
                        <set attributeName="fill" to="#808080" begin="arrowLeft.mouseover" end="arrowLeft.mouseout"/>
                  </use>
                  <path fill="none" stroke="white" stroke-width="1.5" d="M0,-3.0v7 M-2.5,-0.5L0,-3.0L2.5,-0.5"/>
                </g>
        </g>
        <svg viewBox="0 0 15 15" width="100%" height="30px" preserveAspectRatio="xMaxYMin meet">
         <g id="arrow_out" transform="scale(0.3 0.3)">
          <a xlink:href="forwarder__types_8h__dep__incl_org.svg" target="_base">
           <rect id="button" ry="5" rx="5" y="6" x="6" height="38" width="38"
                fill="#f2f5e9" fill-opacity="0.5" stroke="#606060" stroke-width="1.0"/>
           <path id="arrow"
             d="M 11.500037,31.436501 C 11.940474,20.09759 22.043105,11.32322 32.158766,21.979434 L 37.068811,17.246167 C 37.068811,17.246167 37.088388,32 37.088388,32 L 22.160133,31.978069 C 22.160133,31.978069 26.997745,27.140456 26.997745,27.140456 C 18.528582,18.264221 13.291696,25.230495 11.500037,31.436501 z"
             style="fill:#404040;"/>
          </a>
         </g>
        </svg>
</svg>
