<?xml version="1.0" encoding="UTF-8" standalone="no"?>
<!DOCTYPE svg PUBLIC "-//W3C//DTD SVG 1.1//EN"
 "http://www.w3.org/Graphics/SVG/1.1/DTD/svg11.dtd">
<!-- Generated by graphviz version 2.43.0 (0)
 -->
<!-- Title: src/endpoints/grpc.h Pages: 1 -->
<!--zoomable 364 -->
<svg id="main" version="1.1" xmlns="http://www.w3.org/2000/svg" xmlns:xlink="http://www.w3.org/1999/xlink" xml:space="preserve" onload="init(evt)">
<style type="text/css"><![CDATA[
.edge:hover path { stroke: red; }
.edge:hover polygon { stroke: red; fill: red; }
]]></style>
<script type="text/javascript"><![CDATA[
var edges = document.getElementsByTagName('g');
if (edges && edges.length) {
  for (var i=0;i<edges.length;i++) {
    if (edges[i].id.substr(0,4)=='edge') {
      edges[i].setAttribute('class','edge');
    }
  }
}
]]></script>
        <defs>
                <circle id="rim" cx="0" cy="0" r="7"/>
                <circle id="rim2" cx="0" cy="0" r="3.5"/>
                <g id="zoomPlus">
                        <use xlink:href="#rim" fill="#404040">
                                <set attributeName="fill" to="#808080" begin="zoomplus.mouseover" end="zoomplus.mouseout"/>
                        </use>
                        <path d="M-4,0h8M0,-4v8" fill="none" stroke="white" stroke-width="1.5" pointer-events="none"/>
                </g>
                <g id="zoomMin">
                        <use xlink:href="#rim" fill="#404040">
                                <set attributeName="fill" to="#808080" begin="zoomminus.mouseover" end="zoomminus.mouseout"/>
                        </use>
                        <path d="M-4,0h8" fill="none" stroke="white" stroke-width="1.5" pointer-events="none"/>
                </g>
                <g id="dirArrow">
                        <path fill="none" stroke="white" stroke-width="1.5" d="M0,-3.0v7 M-2.5,-0.5L0,-3.0L2.5,-0.5"/>
                </g>
               <g id="resetDef">
                       <use xlink:href="#rim2" fill="#404040">
                               <set attributeName="fill" to="#808080" begin="reset.mouseover" end="reset.mouseout"/>
                       </use>
               </g>
        </defs>

<script type="text/javascript">
var viewWidth = 1235;
var viewHeight = 364;
var sectionId = 'dynsection-0';
</script>
<script xlink:href="svgpan.js"/>
<svg id="graph" class="graph">
<g id="viewport">
<title>src/endpoints/grpc.h</title>
<polygon fill="white" stroke="transparent" points="-4,4 -4,-360 1230.5,-360 1230.5,4 -4,4"/>
<!-- Node1 -->
<g id="node1" class="node">
<title>Node1</title>
<g id="a_node1"><a xlink:title=" ">
<polygon fill="#bfbfbf" stroke="black" points="709.5,-336.5 709.5,-355.5 824.5,-355.5 824.5,-336.5 709.5,-336.5"/>
<text text-anchor="middle" x="767" y="-343.5" font-family="Helvetica,sans-Serif" font-size="10.00">src/endpoints/grpc.h</text>
</a>
</g>
</g>
<!-- Node2 -->
<g id="node2" class="node">
<title>Node2</title>
<g id="a_node2"><a xlink:href="odata__error_8h.html" target="_top" xlink:title=" ">
<polygon fill="white" stroke="black" points="470,-224.5 470,-243.5 568,-243.5 568,-224.5 470,-224.5"/>
<text text-anchor="middle" x="519" y="-231.5" font-family="Helvetica,sans-Serif" font-size="10.00">ccf/odata_error.h</text>
</a>
</g>
</g>
<!-- Node1&#45;&gt;Node2 -->
<g id="edge1" class="edge">
<title>Node1&#45;&gt;Node2</title>
<path fill="none" stroke="midnightblue" d="M709.3,-339.39C671.16,-333.72 621.16,-322.41 582,-300 560.99,-287.98 542.46,-266.89 531.02,-252"/>
<polygon fill="midnightblue" stroke="midnightblue" points="533.62,-249.63 524.86,-243.67 527.99,-253.79 533.62,-249.63"/>
</g>
<!-- Node6 -->
<g id="node6" class="node">
<title>Node6</title>
<g id="a_node6"><a xlink:title=" ">
<polygon fill="white" stroke="#bfbfbf" points="480.5,-0.5 480.5,-19.5 527.5,-19.5 527.5,-0.5 480.5,-0.5"/>
<text text-anchor="middle" x="504" y="-7.5" font-family="Helvetica,sans-Serif" font-size="10.00">vector</text>
</a>
</g>
</g>
<!-- Node1&#45;&gt;Node6 -->
<g id="edge37" class="edge">
<title>Node1&#45;&gt;Node6</title>
<path fill="none" stroke="midnightblue" d="M722.07,-336.42C671.41,-323.83 596,-295.01 596,-235 596,-235 596,-235 596,-121 596,-90.77 594.42,-79.96 576,-56 565.39,-42.19 549.24,-31.55 534.92,-24.09"/>
<polygon fill="midnightblue" stroke="midnightblue" points="536.38,-20.9 525.86,-19.64 533.29,-27.18 536.38,-20.9"/>
</g>
<!-- Node18 -->
<g id="node18" class="node">
<title>Node18</title>
<g id="a_node18"><a xlink:href="serialized_8h.html" target="_top" xlink:title=" ">
<polygon fill="white" stroke="black" points="831.5,-56.5 831.5,-75.5 918.5,-75.5 918.5,-56.5 831.5,-56.5"/>
<text text-anchor="middle" x="875" y="-63.5" font-family="Helvetica,sans-Serif" font-size="10.00">ds/serialized.h</text>
</a>
</g>
</g>
<!-- Node1&#45;&gt;Node18 -->
<g id="edge20" class="edge">
<title>Node1&#45;&gt;Node18</title>
<path fill="none" stroke="midnightblue" d="M719.52,-336.44C696.55,-330.02 670.28,-318.94 653,-300 632.71,-277.77 634,-265.1 634,-235 634,-235 634,-235 634,-177 634,-95.24 750.2,-73.99 821.22,-68.63"/>
<polygon fill="midnightblue" stroke="midnightblue" points="821.61,-72.12 831.36,-67.95 821.14,-65.13 821.61,-72.12"/>
</g>
<!-- Node22 -->
<g id="node22" class="node">
<title>Node22</title>
<g id="a_node22"><a xlink:href="grpc__status_8h.html" target="_top" xlink:title=" ">
<polygon fill="white" stroke="black" points="662,-280.5 662,-299.5 744,-299.5 744,-280.5 662,-280.5"/>
<text text-anchor="middle" x="703" y="-287.5" font-family="Helvetica,sans-Serif" font-size="10.00">grpc_status.h</text>
</a>
</g>
</g>
<!-- Node1&#45;&gt;Node22 -->
<g id="edge26" class="edge">
<title>Node1&#45;&gt;Node22</title>
<path fill="none" stroke="midnightblue" d="M756.72,-336.32C747.16,-328.26 732.72,-316.08 721.22,-306.37"/>
<polygon fill="midnightblue" stroke="midnightblue" points="723.37,-303.61 713.47,-299.83 718.86,-308.96 723.37,-303.61"/>
</g>
<!-- Node25 -->
<g id="node25" class="node">
<title>Node25</title>
<g id="a_node25"><a xlink:href="rpc__exception_8h.html" target="_top" xlink:title=" ">
<polygon fill="white" stroke="black" points="762.5,-280.5 762.5,-299.5 901.5,-299.5 901.5,-280.5 762.5,-280.5"/>
<text text-anchor="middle" x="832" y="-287.5" font-family="Helvetica,sans-Serif" font-size="10.00">node/rpc/rpc_exception.h</text>
</a>
</g>
</g>
<!-- Node1&#45;&gt;Node25 -->
<g id="edge30" class="edge">
<title>Node1&#45;&gt;Node25</title>
<path fill="none" stroke="midnightblue" d="M777.44,-336.32C787.15,-328.26 801.82,-316.08 813.5,-306.37"/>
<polygon fill="midnightblue" stroke="midnightblue" points="815.91,-308.92 821.37,-299.83 811.44,-303.53 815.91,-308.92"/>
</g>
<!-- Node27 -->
<g id="node27" class="node">
<title>Node27</title>
<g id="a_node27"><a xlink:title=" ">
<polygon fill="white" stroke="#bfbfbf" points="919.5,-280.5 919.5,-299.5 988.5,-299.5 988.5,-280.5 919.5,-280.5"/>
<text text-anchor="middle" x="954" y="-287.5" font-family="Helvetica,sans-Serif" font-size="10.00">arpa/inet.h</text>
</a>
</g>
</g>
<!-- Node1&#45;&gt;Node27 -->
<g id="edge34" class="edge">
<title>Node1&#45;&gt;Node27</title>
<path fill="none" stroke="midnightblue" d="M796.63,-336.44C828.5,-327.24 879.33,-312.56 914.56,-302.39"/>
<polygon fill="midnightblue" stroke="midnightblue" points="915.87,-305.65 924.51,-299.52 913.93,-298.93 915.87,-305.65"/>
</g>
<!-- Node28 -->
<g id="node28" class="node">
<title>Node28</title>
<g id="a_node28"><a xlink:title=" ">
<polygon fill="white" stroke="#bfbfbf" points="1006.5,-280.5 1006.5,-299.5 1157.5,-299.5 1157.5,-280.5 1006.5,-280.5"/>
<text text-anchor="middle" x="1082" y="-287.5" font-family="Helvetica,sans-Serif" font-size="10.00">google/protobuf/empty.pb.h</text>
</a>
</g>
</g>
<!-- Node1&#45;&gt;Node28 -->
<g id="edge35" class="edge">
<title>Node1&#45;&gt;Node28</title>
<path fill="none" stroke="midnightblue" d="M816.91,-336.44C872.67,-326.89 962.89,-311.42 1022.33,-301.23"/>
<polygon fill="midnightblue" stroke="midnightblue" points="1023.06,-304.66 1032.32,-299.52 1021.87,-297.76 1023.06,-304.66"/>
</g>
<!-- Node29 -->
<g id="node29" class="node">
<title>Node29</title>
<g id="a_node29"><a xlink:title=" ">
<polygon fill="white" stroke="#bfbfbf" points="1175.5,-280.5 1175.5,-299.5 1226.5,-299.5 1226.5,-280.5 1175.5,-280.5"/>
<text text-anchor="middle" x="1201" y="-287.5" font-family="Helvetica,sans-Serif" font-size="10.00">variant</text>
</a>
</g>
</g>
<!-- Node1&#45;&gt;Node29 -->
<g id="edge36" class="edge">
<title>Node1&#45;&gt;Node29</title>
<path fill="none" stroke="midnightblue" d="M824.69,-341.18C900.81,-335.55 1039.04,-323.28 1165.61,-300.03"/>
<polygon fill="midnightblue" stroke="midnightblue" points="1166.28,-303.46 1175.47,-298.19 1165,-296.58 1166.28,-303.46"/>
</g>
<!-- Node3 -->
<g id="node3" class="node">
<title>Node3</title>
<g id="a_node3"><a xlink:href="json_8h.html" target="_top" xlink:title=" ">
<polygon fill="white" stroke="black" points="374.5,-168.5 374.5,-187.5 451.5,-187.5 451.5,-168.5 374.5,-168.5"/>
<text text-anchor="middle" x="413" y="-175.5" font-family="Helvetica,sans-Serif" font-size="10.00">ccf/ds/json.h</text>
</a>
</g>
</g>
<!-- Node2&#45;&gt;Node3 -->
<g id="edge2" class="edge">
<title>Node2&#45;&gt;Node3</title>
<path fill="none" stroke="midnightblue" d="M501.97,-224.32C484.97,-215.66 458.62,-202.24 439.01,-192.25"/>
<polygon fill="midnightblue" stroke="midnightblue" points="440.49,-189.08 429.99,-187.65 437.31,-195.31 440.49,-189.08"/>
</g>
<!-- Node17 -->
<g id="node17" class="node">
<title>Node17</title>
<g id="a_node17"><a xlink:href="http__status_8h.html" target="_top" xlink:title=" ">
<polygon fill="white" stroke="black" points="470,-168.5 470,-187.5 568,-187.5 568,-168.5 470,-168.5"/>
<text text-anchor="middle" x="519" y="-175.5" font-family="Helvetica,sans-Serif" font-size="10.00">ccf/http_status.h</text>
</a>
</g>
</g>
<!-- Node2&#45;&gt;Node17 -->
<g id="edge19" class="edge">
<title>Node2&#45;&gt;Node17</title>
<path fill="none" stroke="midnightblue" d="M519,-224.08C519,-217.01 519,-206.86 519,-197.99"/>
<polygon fill="midnightblue" stroke="midnightblue" points="522.5,-197.75 519,-187.75 515.5,-197.75 522.5,-197.75"/>
</g>
<!-- Node4 -->
<g id="node4" class="node">
<title>Node4</title>
<g id="a_node4"><a xlink:href="include_2ccf_2crypto_2base64_8h.html" target="_top" xlink:title=" ">
<polygon fill="white" stroke="black" points="230,-56.5 230,-75.5 342,-75.5 342,-56.5 230,-56.5"/>
<text text-anchor="middle" x="286" y="-63.5" font-family="Helvetica,sans-Serif" font-size="10.00">ccf/crypto/base64.h</text>
</a>
</g>
</g>
<!-- Node3&#45;&gt;Node4 -->
<g id="edge3" class="edge">
<title>Node3&#45;&gt;Node4</title>
<path fill="none" stroke="midnightblue" d="M387.57,-168.38C368.64,-161 343.05,-148.87 325,-132 310.76,-118.7 299.95,-99.04 293.36,-84.83"/>
<polygon fill="midnightblue" stroke="midnightblue" points="296.54,-83.36 289.32,-75.61 290.13,-86.17 296.54,-83.36"/>
</g>
<!-- Node7 -->
<g id="node7" class="node">
<title>Node7</title>
<g id="a_node7"><a xlink:href="include_2ccf_2ds_2json__schema_8h.html" target="_top" xlink:title=" ">
<polygon fill="white" stroke="black" points="334.5,-112.5 334.5,-131.5 455.5,-131.5 455.5,-112.5 334.5,-112.5"/>
<text text-anchor="middle" x="395" y="-119.5" font-family="Helvetica,sans-Serif" font-size="10.00">ccf/ds/json_schema.h</text>
</a>
</g>
</g>
<!-- Node3&#45;&gt;Node7 -->
<g id="edge6" class="edge">
<title>Node3&#45;&gt;Node7</title>
<path fill="none" stroke="midnightblue" d="M410.03,-168.08C407.62,-160.85 404.14,-150.41 401.13,-141.4"/>
<polygon fill="midnightblue" stroke="midnightblue" points="404.4,-140.13 397.92,-131.75 397.76,-142.34 404.4,-140.13"/>
</g>
<!-- Node14 -->
<g id="node14" class="node">
<title>Node14</title>
<g id="a_node14"><a xlink:title=" ">
<polygon fill="white" stroke="#bfbfbf" points="488.5,-56.5 488.5,-75.5 567.5,-75.5 567.5,-56.5 488.5,-56.5"/>
<text text-anchor="middle" x="528" y="-63.5" font-family="Helvetica,sans-Serif" font-size="10.00">fmt/format.h</text>
</a>
</g>
</g>
<!-- Node3&#45;&gt;Node14 -->
<g id="edge17" class="edge">
<title>Node3&#45;&gt;Node14</title>
<path fill="none" stroke="midnightblue" d="M423.35,-168.24C433.79,-159.32 450.28,-144.99 464,-132 481.14,-115.77 500.02,-96.4 512.8,-83.05"/>
<polygon fill="midnightblue" stroke="midnightblue" points="515.54,-85.26 519.9,-75.6 510.47,-80.43 515.54,-85.26"/>
</g>
<!-- Node16 -->
<g id="node16" class="node">
<title>Node16</title>
<g id="a_node16"><a xlink:title=" ">
<polygon fill="white" stroke="#bfbfbf" points="512,-112.5 512,-131.5 568,-131.5 568,-112.5 512,-112.5"/>
<text text-anchor="middle" x="540" y="-119.5" font-family="Helvetica,sans-Serif" font-size="10.00">sstream</text>
</a>
</g>
</g>
<!-- Node3&#45;&gt;Node16 -->
<g id="edge18" class="edge">
<title>Node3&#45;&gt;Node16</title>
<path fill="none" stroke="midnightblue" d="M433.12,-168.44C454.02,-159.56 486.93,-145.56 510.72,-135.45"/>
<polygon fill="midnightblue" stroke="midnightblue" points="512.14,-138.65 519.97,-131.52 509.4,-132.21 512.14,-138.65"/>
</g>
<!-- Node5 -->
<g id="node5" class="node">
<title>Node5</title>
<g id="a_node5"><a xlink:title=" ">
<polygon fill="white" stroke="#bfbfbf" points="650,-0.5 650,-19.5 694,-19.5 694,-0.5 650,-0.5"/>
<text text-anchor="middle" x="672" y="-7.5" font-family="Helvetica,sans-Serif" font-size="10.00">string</text>
</a>
</g>
</g>
<!-- Node4&#45;&gt;Node5 -->
<g id="edge4" class="edge">
<title>Node4&#45;&gt;Node5</title>
<path fill="none" stroke="midnightblue" d="M342.13,-57.15C424.13,-45.68 574.04,-24.7 639.72,-15.52"/>
<polygon fill="midnightblue" stroke="midnightblue" points="640.47,-18.95 649.88,-14.09 639.5,-12.01 640.47,-18.95"/>
</g>
<!-- Node4&#45;&gt;Node6 -->
<g id="edge5" class="edge">
<title>Node4&#45;&gt;Node6</title>
<path fill="none" stroke="midnightblue" d="M320.54,-56.44C361.63,-46.27 429.75,-29.39 470.41,-19.32"/>
<polygon fill="midnightblue" stroke="midnightblue" points="471.5,-22.66 480.37,-16.85 469.82,-15.86 471.5,-22.66"/>
</g>
<!-- Node8 -->
<g id="node8" class="node">
<title>Node8</title>
<g id="a_node8"><a xlink:href="nonstd_8h.html" target="_top" xlink:title=" ">
<polygon fill="white" stroke="black" points="122,-56.5 122,-75.5 212,-75.5 212,-56.5 122,-56.5"/>
<text text-anchor="middle" x="167" y="-63.5" font-family="Helvetica,sans-Serif" font-size="10.00">ccf/ds/nonstd.h</text>
</a>
</g>
</g>
<!-- Node7&#45;&gt;Node8 -->
<g id="edge7" class="edge">
<title>Node7&#45;&gt;Node8</title>
<path fill="none" stroke="midnightblue" d="M358.87,-112.44C319.35,-103.08 255.9,-88.06 212.89,-77.87"/>
<polygon fill="midnightblue" stroke="midnightblue" points="213.5,-74.42 202.96,-75.52 211.88,-81.23 213.5,-74.42"/>
</g>
<!-- Node7&#45;&gt;Node14 -->
<g id="edge15" class="edge">
<title>Node7&#45;&gt;Node14</title>
<path fill="none" stroke="midnightblue" d="M416.07,-112.44C438.06,-103.52 472.73,-89.44 497.66,-79.32"/>
<polygon fill="midnightblue" stroke="midnightblue" points="499.08,-82.52 507.02,-75.52 496.44,-76.04 499.08,-82.52"/>
</g>
<!-- Node15 -->
<g id="node15" class="node">
<title>Node15</title>
<g id="a_node15"><a xlink:title=" ">
<polygon fill="white" stroke="#bfbfbf" points="360,-56.5 360,-75.5 470,-75.5 470,-56.5 360,-56.5"/>
<text text-anchor="middle" x="415" y="-63.5" font-family="Helvetica,sans-Serif" font-size="10.00">nlohmann/json.hpp</text>
</a>
</g>
</g>
<!-- Node7&#45;&gt;Node15 -->
<g id="edge16" class="edge">
<title>Node7&#45;&gt;Node15</title>
<path fill="none" stroke="midnightblue" d="M398.3,-112.08C400.98,-104.85 404.85,-94.41 408.19,-85.4"/>
<polygon fill="midnightblue" stroke="midnightblue" points="411.57,-86.34 411.76,-75.75 405,-83.91 411.57,-86.34"/>
</g>
<!-- Node8&#45;&gt;Node5 -->
<g id="edge11" class="edge">
<title>Node8&#45;&gt;Node5</title>
<path fill="none" stroke="midnightblue" d="M212.05,-57.26C215.07,-56.82 218.08,-56.39 221,-56 377.49,-35.17 565.71,-19.35 639.8,-13.48"/>
<polygon fill="midnightblue" stroke="midnightblue" points="640.19,-16.96 649.88,-12.69 639.64,-9.98 640.19,-16.96"/>
</g>
<!-- Node8&#45;&gt;Node6 -->
<g id="edge14" class="edge">
<title>Node8&#45;&gt;Node6</title>
<path fill="none" stroke="midnightblue" d="M212.08,-57.46C215.1,-56.96 218.09,-56.47 221,-56 311,-41.35 417.19,-24.61 470.25,-16.28"/>
<polygon fill="midnightblue" stroke="midnightblue" points="470.8,-19.74 480.14,-14.73 469.72,-12.82 470.8,-19.74"/>
</g>
<!-- Node9 -->
<g id="node9" class="node">
<title>Node9</title>
<g id="a_node9"><a xlink:title=" ">
<polygon fill="white" stroke="#bfbfbf" points="0,-0.5 0,-19.5 64,-19.5 64,-0.5 0,-0.5"/>
<text text-anchor="middle" x="32" y="-7.5" font-family="Helvetica,sans-Serif" font-size="10.00">algorithm</text>
</a>
</g>
</g>
<!-- Node8&#45;&gt;Node9 -->
<g id="edge8" class="edge">
<title>Node8&#45;&gt;Node9</title>
<path fill="none" stroke="midnightblue" d="M145.61,-56.44C123.29,-47.52 88.1,-33.44 62.79,-23.32"/>
<polygon fill="midnightblue" stroke="midnightblue" points="63.88,-19.98 53.29,-19.52 61.28,-26.48 63.88,-19.98"/>
</g>
<!-- Node10 -->
<g id="node10" class="node">
<title>Node10</title>
<g id="a_node10"><a xlink:title=" ">
<polygon fill="white" stroke="#bfbfbf" points="82,-0.5 82,-19.5 124,-19.5 124,-0.5 82,-0.5"/>
<text text-anchor="middle" x="103" y="-7.5" font-family="Helvetica,sans-Serif" font-size="10.00">array</text>
</a>
</g>
</g>
<!-- Node8&#45;&gt;Node10 -->
<g id="edge9" class="edge">
<title>Node8&#45;&gt;Node10</title>
<path fill="none" stroke="midnightblue" d="M156.72,-56.32C147.16,-48.26 132.72,-36.08 121.22,-26.37"/>
<polygon fill="midnightblue" stroke="midnightblue" points="123.37,-23.61 113.47,-19.83 118.86,-28.96 123.37,-23.61"/>
</g>
<!-- Node11 -->
<g id="node11" class="node">
<title>Node11</title>
<g id="a_node11"><a xlink:title=" ">
<polygon fill="white" stroke="#bfbfbf" points="142.5,-0.5 142.5,-19.5 191.5,-19.5 191.5,-0.5 142.5,-0.5"/>
<text text-anchor="middle" x="167" y="-7.5" font-family="Helvetica,sans-Serif" font-size="10.00">cctype</text>
</a>
</g>
</g>
<!-- Node8&#45;&gt;Node11 -->
<g id="edge10" class="edge">
<title>Node8&#45;&gt;Node11</title>
<path fill="none" stroke="midnightblue" d="M167,-56.08C167,-49.01 167,-38.86 167,-29.99"/>
<polygon fill="midnightblue" stroke="midnightblue" points="170.5,-29.75 167,-19.75 163.5,-29.75 170.5,-29.75"/>
</g>
<!-- Node12 -->
<g id="node12" class="node">
<title>Node12</title>
<g id="a_node12"><a xlink:title=" ">
<polygon fill="white" stroke="#bfbfbf" points="209.5,-0.5 209.5,-19.5 282.5,-19.5 282.5,-0.5 209.5,-0.5"/>
<text text-anchor="middle" x="246" y="-7.5" font-family="Helvetica,sans-Serif" font-size="10.00">string_view</text>
</a>
</g>
</g>
<!-- Node8&#45;&gt;Node12 -->
<g id="edge12" class="edge">
<title>Node8&#45;&gt;Node12</title>
<path fill="none" stroke="midnightblue" d="M179.69,-56.32C191.9,-47.98 210.58,-35.21 225,-25.35"/>
<polygon fill="midnightblue" stroke="midnightblue" points="227.06,-28.19 233.34,-19.65 223.11,-22.41 227.06,-28.19"/>
</g>
<!-- Node13 -->
<g id="node13" class="node">
<title>Node13</title>
<g id="a_node13"><a xlink:title=" ">
<polygon fill="white" stroke="#bfbfbf" points="300.5,-0.5 300.5,-19.5 369.5,-19.5 369.5,-0.5 300.5,-0.5"/>
<text text-anchor="middle" x="335" y="-7.5" font-family="Helvetica,sans-Serif" font-size="10.00">type_traits</text>
</a>
</g>
</g>
<!-- Node8&#45;&gt;Node13 -->
<g id="edge13" class="edge">
<title>Node8&#45;&gt;Node13</title>
<path fill="none" stroke="midnightblue" d="M193.62,-56.44C222.01,-47.32 267.14,-32.81 298.75,-22.65"/>
<polygon fill="midnightblue" stroke="midnightblue" points="300.06,-25.91 308.5,-19.52 297.91,-19.24 300.06,-25.91"/>
</g>
<!-- Node18&#45;&gt;Node5 -->
<g id="edge24" class="edge">
<title>Node18&#45;&gt;Node5</title>
<path fill="none" stroke="midnightblue" d="M842.83,-56.44C804.82,-46.33 741.95,-29.61 704.01,-19.51"/>
<polygon fill="midnightblue" stroke="midnightblue" points="704.57,-16.04 694.01,-16.85 702.77,-22.81 704.57,-16.04"/>
</g>
<!-- Node18&#45;&gt;Node6 -->
<g id="edge25" class="edge">
<title>Node18&#45;&gt;Node6</title>
<path fill="none" stroke="midnightblue" d="M831.35,-58.65C756.44,-47.74 604.98,-25.7 537.62,-15.89"/>
<polygon fill="midnightblue" stroke="midnightblue" points="537.95,-12.41 527.55,-14.43 536.94,-19.33 537.95,-12.41"/>
</g>
<!-- Node19 -->
<g id="node19" class="node">
<title>Node19</title>
<g id="a_node19"><a xlink:title=" ">
<polygon fill="white" stroke="#bfbfbf" points="782,-0.5 782,-19.5 832,-19.5 832,-0.5 782,-0.5"/>
<text text-anchor="middle" x="807" y="-7.5" font-family="Helvetica,sans-Serif" font-size="10.00">cstdint</text>
</a>
</g>
</g>
<!-- Node18&#45;&gt;Node19 -->
<g id="edge21" class="edge">
<title>Node18&#45;&gt;Node19</title>
<path fill="none" stroke="midnightblue" d="M864.07,-56.32C853.83,-48.18 838.28,-35.84 826,-26.09"/>
<polygon fill="midnightblue" stroke="midnightblue" points="828.13,-23.31 818.12,-19.83 823.78,-28.79 828.13,-23.31"/>
</g>
<!-- Node20 -->
<g id="node20" class="node">
<title>Node20</title>
<g id="a_node20"><a xlink:title=" ">
<polygon fill="white" stroke="#bfbfbf" points="850,-0.5 850,-19.5 900,-19.5 900,-0.5 850,-0.5"/>
<text text-anchor="middle" x="875" y="-7.5" font-family="Helvetica,sans-Serif" font-size="10.00">cstring</text>
</a>
</g>
</g>
<!-- Node18&#45;&gt;Node20 -->
<g id="edge22" class="edge">
<title>Node18&#45;&gt;Node20</title>
<path fill="none" stroke="midnightblue" d="M875,-56.08C875,-49.01 875,-38.86 875,-29.99"/>
<polygon fill="midnightblue" stroke="midnightblue" points="878.5,-29.75 875,-19.75 871.5,-29.75 878.5,-29.75"/>
</g>
<!-- Node21 -->
<g id="node21" class="node">
<title>Node21</title>
<g id="a_node21"><a xlink:title=" ">
<polygon fill="white" stroke="#bfbfbf" points="918.5,-0.5 918.5,-19.5 983.5,-19.5 983.5,-0.5 918.5,-0.5"/>
<text text-anchor="middle" x="951" y="-7.5" font-family="Helvetica,sans-Serif" font-size="10.00">stdexcept</text>
</a>
</g>
</g>
<!-- Node18&#45;&gt;Node21 -->
<g id="edge23" class="edge">
<title>Node18&#45;&gt;Node21</title>
<path fill="none" stroke="midnightblue" d="M887.21,-56.32C898.78,-48.11 916.38,-35.6 930.16,-25.81"/>
<polygon fill="midnightblue" stroke="midnightblue" points="932.44,-28.48 938.57,-19.83 928.39,-22.77 932.44,-28.48"/>
</g>
<!-- Node22&#45;&gt;Node5 -->
<g id="edge29" class="edge">
<title>Node22&#45;&gt;Node5</title>
<path fill="none" stroke="midnightblue" d="M698.82,-280.39C690.36,-262.16 672,-218.09 672,-179 672,-179 672,-179 672,-121 672,-88.95 672,-51.64 672,-29.75"/>
<polygon fill="midnightblue" stroke="midnightblue" points="675.5,-29.56 672,-19.56 668.5,-29.56 675.5,-29.56"/>
</g>
<!-- Node23 -->
<g id="node23" class="node">
<title>Node23</title>
<g id="a_node23"><a xlink:title=" ">
<polygon fill="white" stroke="#bfbfbf" points="700.5,-224.5 700.5,-243.5 771.5,-243.5 771.5,-224.5 700.5,-224.5"/>
<text text-anchor="middle" x="736" y="-231.5" font-family="Helvetica,sans-Serif" font-size="10.00">status.pb.h</text>
</a>
</g>
</g>
<!-- Node22&#45;&gt;Node23 -->
<g id="edge27" class="edge">
<title>Node22&#45;&gt;Node23</title>
<path fill="none" stroke="midnightblue" d="M708.45,-280.08C713.01,-272.61 719.67,-261.72 725.29,-252.52"/>
<polygon fill="midnightblue" stroke="midnightblue" points="728.42,-254.11 730.65,-243.75 722.45,-250.46 728.42,-254.11"/>
</g>
<!-- Node24 -->
<g id="node24" class="node">
<title>Node24</title>
<g id="a_node24"><a xlink:title=" ">
<polygon fill="white" stroke="#bfbfbf" points="790,-224.5 790,-243.5 846,-243.5 846,-224.5 790,-224.5"/>
<text text-anchor="middle" x="818" y="-231.5" font-family="Helvetica,sans-Serif" font-size="10.00">optional</text>
</a>
</g>
</g>
<!-- Node22&#45;&gt;Node24 -->
<g id="edge28" class="edge">
<title>Node22&#45;&gt;Node24</title>
<path fill="none" stroke="midnightblue" d="M721.22,-280.44C739.9,-271.68 769.16,-257.94 790.62,-247.86"/>
<polygon fill="midnightblue" stroke="midnightblue" points="792.3,-250.93 799.86,-243.52 789.32,-244.6 792.3,-250.93"/>
</g>
<!-- Node25&#45;&gt;Node2 -->
<g id="edge31" class="edge">
<title>Node25&#45;&gt;Node2</title>
<path fill="none" stroke="midnightblue" d="M782.4,-280.44C726.92,-270.87 637.09,-255.37 578.03,-245.18"/>
<polygon fill="midnightblue" stroke="midnightblue" points="578.56,-241.72 568.11,-243.47 577.37,-248.62 578.56,-241.72"/>
</g>
<!-- Node25&#45;&gt;Node5 -->
<g id="edge33" class="edge">
<title>Node25&#45;&gt;Node5</title>
<path fill="none" stroke="midnightblue" d="M839.17,-280.14C848.39,-267.6 862.4,-243.98 855,-224 821.86,-134.56 732.49,-57.42 692.19,-26.02"/>
<polygon fill="midnightblue" stroke="midnightblue" points="694.22,-23.17 684.16,-19.86 689.96,-28.72 694.22,-23.17"/>
</g>
<!-- Node26 -->
<g id="node26" class="node">
<title>Node26</title>
<g id="a_node26"><a xlink:title=" ">
<polygon fill="white" stroke="#bfbfbf" points="902.5,-224.5 902.5,-243.5 967.5,-243.5 967.5,-224.5 902.5,-224.5"/>
<text text-anchor="middle" x="935" y="-231.5" font-family="Helvetica,sans-Serif" font-size="10.00">exception</text>
</a>
</g>
</g>
<!-- Node25&#45;&gt;Node26 -->
<g id="edge32" class="edge">
<title>Node25&#45;&gt;Node26</title>
<path fill="none" stroke="midnightblue" d="M848.55,-280.32C864.99,-271.7 890.43,-258.36 909.47,-248.39"/>
<polygon fill="midnightblue" stroke="midnightblue" points="911.26,-251.4 918.49,-243.65 908.01,-245.2 911.26,-251.4"/>
</g>
</g>
</svg>
        <g id="navigator" transform="translate(0 0)" fill="#404254">
                <rect fill="#f2f5e9" fill-opacity="0.5" stroke="#606060" stroke-width=".5" x="0" y="0" width="60" height="60"/>
                <use id="zoomplus" xlink:href="#zoomPlus" x="17" y="9" onmousedown="handleZoom(evt,'in')"/>
                <use id="zoomminus" xlink:href="#zoomMin" x="42" y="9" onmousedown="handleZoom(evt,'out')"/>
                <use id="reset" xlink:href="#resetDef" x="30" y="36" onmousedown="handleReset()"/>
                <g id="arrowUp" xlink:href="#dirArrow" transform="translate(30 24)" onmousedown="handlePan(0,-1)">
                  <use xlink:href="#rim" fill="#404040">
                        <set attributeName="fill" to="#808080" begin="arrowUp.mouseover" end="arrowUp.mouseout"/>
                  </use>
                  <path fill="none" stroke="white" stroke-width="1.5" d="M0,-3.0v7 M-2.5,-0.5L0,-3.0L2.5,-0.5"/>
                </g>
                <g id="arrowRight" xlink:href="#dirArrow" transform="rotate(90) translate(36 -43)" onmousedown="handlePan(1,0)">
                  <use xlink:href="#rim" fill="#404040">
                        <set attributeName="fill" to="#808080" begin="arrowRight.mouseover" end="arrowRight.mouseout"/>
                  </use>
                  <path fill="none" stroke="white" stroke-width="1.5" d="M0,-3.0v7 M-2.5,-0.5L0,-3.0L2.5,-0.5"/>
                </g>
                <g id="arrowDown" xlink:href="#dirArrow" transform="rotate(180) translate(-30 -48)" onmousedown="handlePan(0,1)">
                  <use xlink:href="#rim" fill="#404040">
                        <set attributeName="fill" to="#808080" begin="arrowDown.mouseover" end="arrowDown.mouseout"/>
                  </use>
                  <path fill="none" stroke="white" stroke-width="1.5" d="M0,-3.0v7 M-2.5,-0.5L0,-3.0L2.5,-0.5"/>
                </g>
                <g id="arrowLeft" xlink:href="#dirArrow" transform="rotate(270) translate(-36 17)" onmousedown="handlePan(-1,0)">
                  <use xlink:href="#rim" fill="#404040">
                        <set attributeName="fill" to="#808080" begin="arrowLeft.mouseover" end="arrowLeft.mouseout"/>
                  </use>
                  <path fill="none" stroke="white" stroke-width="1.5" d="M0,-3.0v7 M-2.5,-0.5L0,-3.0L2.5,-0.5"/>
                </g>
        </g>
        <svg viewBox="0 0 15 15" width="100%" height="30px" preserveAspectRatio="xMaxYMin meet">
         <g id="arrow_out" transform="scale(0.3 0.3)">
          <a xlink:href="grpc_8h__incl_org.svg" target="_base">
           <rect id="button" ry="5" rx="5" y="6" x="6" height="38" width="38"
                fill="#f2f5e9" fill-opacity="0.5" stroke="#606060" stroke-width="1.0"/>
           <path id="arrow"
             d="M 11.500037,31.436501 C 11.940474,20.09759 22.043105,11.32322 32.158766,21.979434 L 37.068811,17.246167 C 37.068811,17.246167 37.088388,32 37.088388,32 L 22.160133,31.978069 C 22.160133,31.978069 26.997745,27.140456 26.997745,27.140456 C 18.528582,18.264221 13.291696,25.230495 11.500037,31.436501 z"
             style="fill:#404040;"/>
          </a>
         </g>
        </svg>
</svg>
