<?xml version="1.0" encoding="UTF-8" standalone="no"?>
<!DOCTYPE svg PUBLIC "-//W3C//DTD SVG 1.1//EN"
 "http://www.w3.org/Graphics/SVG/1.1/DTD/svg11.dtd">
<!-- Generated by graphviz version 2.43.0 (0)
 -->
<!-- Title: include/ccf/crypto/hash_provider.h Pages: 1 -->
<svg width="1112pt" height="307pt"
 viewBox="0.00 0.00 1112.00 307.00" xmlns="http://www.w3.org/2000/svg" xmlns:xlink="http://www.w3.org/1999/xlink">
<g id="graph0" class="graph" transform="scale(1 1) rotate(0) translate(4 303)">
<title>include/ccf/crypto/hash_provider.h</title>
<polygon fill="white" stroke="transparent" points="-4,4 -4,-303 1108,-303 1108,4 -4,4"/>
<!-- Node1 -->
<g id="node1" class="node">
<title>Node1</title>
<g id="a_node1"><a xlink:title=" ">
<polygon fill="#bfbfbf" stroke="black" points="447,-268.5 447,-298.5 550,-298.5 550,-268.5 447,-268.5"/>
<text text-anchor="start" x="455" y="-286.5" font-family="Helvetica,sans-Serif" font-size="10.00">include/ccf/crypto</text>
<text text-anchor="middle" x="498.5" y="-275.5" font-family="Helvetica,sans-Serif" font-size="10.00">/hash_provider.h</text>
</a>
</g>
</g>
<!-- Node2 -->
<g id="node2" class="node">
<title>Node2</title>
<g id="a_node2"><a xlink:href="src_2crypto_2openssl_2hash_8h.html" target="_top" xlink:title=" ">
<polygon fill="white" stroke="black" points="446,-201.5 446,-231.5 551,-231.5 551,-201.5 446,-201.5"/>
<text text-anchor="start" x="454" y="-219.5" font-family="Helvetica,sans-Serif" font-size="10.00">src/crypto/openssl</text>
<text text-anchor="middle" x="498.5" y="-208.5" font-family="Helvetica,sans-Serif" font-size="10.00">/hash.h</text>
</a>
</g>
</g>
<!-- Node1&#45;&gt;Node2 -->
<g id="edge1" class="edge">
<title>Node1&#45;&gt;Node2</title>
<path fill="none" stroke="midnightblue" d="M498.5,-258.11C498.5,-249.15 498.5,-239.32 498.5,-231.58"/>
<polygon fill="midnightblue" stroke="midnightblue" points="495,-258.4 498.5,-268.4 502,-258.4 495,-258.4"/>
</g>
<!-- Node3 -->
<g id="node3" class="node">
<title>Node3</title>
<g id="a_node3"><a xlink:href="hash_8cpp.html" target="_top" xlink:title=" ">
<polygon fill="white" stroke="black" points="0,-140 0,-159 111,-159 111,-140 0,-140"/>
<text text-anchor="middle" x="55.5" y="-147" font-family="Helvetica,sans-Serif" font-size="10.00">src/crypto/hash.cpp</text>
</a>
</g>
</g>
<!-- Node2&#45;&gt;Node3 -->
<g id="edge2" class="edge">
<title>Node2&#45;&gt;Node3</title>
<path fill="none" stroke="midnightblue" d="M435.58,-208.88C360.16,-200.53 230.11,-184.86 119.5,-165 110.08,-163.31 99.95,-161.17 90.59,-159.05"/>
<polygon fill="midnightblue" stroke="midnightblue" points="435.53,-212.39 445.85,-210.01 436.29,-205.43 435.53,-212.39"/>
</g>
<!-- Node4 -->
<g id="node4" class="node">
<title>Node4</title>
<g id="a_node4"><a xlink:href="hmac_8cpp.html" target="_top" xlink:title=" ">
<polygon fill="white" stroke="black" points="129,-140 129,-159 244,-159 244,-140 129,-140"/>
<text text-anchor="middle" x="186.5" y="-147" font-family="Helvetica,sans-Serif" font-size="10.00">src/crypto/hmac.cpp</text>
</a>
</g>
</g>
<!-- Node2&#45;&gt;Node4 -->
<g id="edge3" class="edge">
<title>Node2&#45;&gt;Node4</title>
<path fill="none" stroke="midnightblue" d="M435.71,-202.86C385.97,-192.78 314.74,-178.23 252.5,-165 243.55,-163.1 233.93,-161.01 224.87,-159.02"/>
<polygon fill="midnightblue" stroke="midnightblue" points="435.17,-206.32 445.67,-204.87 436.56,-199.46 435.17,-206.32"/>
</g>
<!-- Node5 -->
<g id="node5" class="node">
<title>Node5</title>
<g id="a_node5"><a xlink:href="openssl_2hash_8cpp.html" target="_top" xlink:title=" ">
<polygon fill="white" stroke="black" points="262,-134.5 262,-164.5 367,-164.5 367,-134.5 262,-134.5"/>
<text text-anchor="start" x="270" y="-152.5" font-family="Helvetica,sans-Serif" font-size="10.00">src/crypto/openssl</text>
<text text-anchor="middle" x="314.5" y="-141.5" font-family="Helvetica,sans-Serif" font-size="10.00">/hash.cpp</text>
</a>
</g>
</g>
<!-- Node2&#45;&gt;Node5 -->
<g id="edge4" class="edge">
<title>Node2&#45;&gt;Node5</title>
<path fill="none" stroke="midnightblue" d="M448.83,-197.96C419.2,-187.48 382.06,-174.37 354.35,-164.58"/>
<polygon fill="midnightblue" stroke="midnightblue" points="447.98,-201.37 458.57,-201.4 450.31,-194.76 447.98,-201.37"/>
</g>
<!-- Node6 -->
<g id="node6" class="node">
<title>Node6</title>
<g id="a_node6"><a xlink:href="openssl_2key__pair_8cpp.html" target="_top" xlink:title=" ">
<polygon fill="white" stroke="black" points="385,-134.5 385,-164.5 490,-164.5 490,-134.5 385,-134.5"/>
<text text-anchor="start" x="393" y="-152.5" font-family="Helvetica,sans-Serif" font-size="10.00">src/crypto/openssl</text>
<text text-anchor="middle" x="437.5" y="-141.5" font-family="Helvetica,sans-Serif" font-size="10.00">/key_pair.cpp</text>
</a>
</g>
</g>
<!-- Node2&#45;&gt;Node6 -->
<g id="edge5" class="edge">
<title>Node2&#45;&gt;Node6</title>
<path fill="none" stroke="midnightblue" d="M478.35,-194.02C469.26,-184.34 458.78,-173.17 450.71,-164.58"/>
<polygon fill="midnightblue" stroke="midnightblue" points="475.87,-196.5 485.26,-201.4 480.97,-191.71 475.87,-196.5"/>
</g>
<!-- Node7 -->
<g id="node7" class="node">
<title>Node7</title>
<g id="a_node7"><a xlink:href="public__key_8cpp.html" target="_top" xlink:title=" ">
<polygon fill="white" stroke="black" points="508,-134.5 508,-164.5 613,-164.5 613,-134.5 508,-134.5"/>
<text text-anchor="start" x="516" y="-152.5" font-family="Helvetica,sans-Serif" font-size="10.00">src/crypto/openssl</text>
<text text-anchor="middle" x="560.5" y="-141.5" font-family="Helvetica,sans-Serif" font-size="10.00">/public_key.cpp</text>
</a>
</g>
</g>
<!-- Node2&#45;&gt;Node7 -->
<g id="edge6" class="edge">
<title>Node2&#45;&gt;Node7</title>
<path fill="none" stroke="midnightblue" d="M518.98,-194.02C528.22,-184.34 538.87,-173.17 547.07,-164.58"/>
<polygon fill="midnightblue" stroke="midnightblue" points="516.32,-191.74 511.95,-201.4 521.39,-196.58 516.32,-191.74"/>
</g>
<!-- Node8 -->
<g id="node8" class="node">
<title>Node8</title>
<g id="a_node8"><a xlink:href="openssl_2rsa__key__pair_8cpp.html" target="_top" xlink:title=" ">
<polygon fill="white" stroke="black" points="501,-0.5 501,-30.5 606,-30.5 606,-0.5 501,-0.5"/>
<text text-anchor="start" x="509" y="-18.5" font-family="Helvetica,sans-Serif" font-size="10.00">src/crypto/openssl</text>
<text text-anchor="middle" x="553.5" y="-7.5" font-family="Helvetica,sans-Serif" font-size="10.00">/rsa_key_pair.cpp</text>
</a>
</g>
</g>
<!-- Node2&#45;&gt;Node8 -->
<g id="edge7" class="edge">
<title>Node2&#45;&gt;Node8</title>
<path fill="none" stroke="midnightblue" d="M560.9,-204.98C583.92,-197.75 607.72,-185.55 621.5,-165 651.98,-119.54 597.85,-58.22 569.36,-30.8"/>
<polygon fill="midnightblue" stroke="midnightblue" points="559.76,-201.66 551.11,-207.79 561.69,-208.39 559.76,-201.66"/>
</g>
<!-- Node9 -->
<g id="node9" class="node">
<title>Node9</title>
<g id="a_node9"><a xlink:href="rsa__public__key_8cpp.html" target="_top" xlink:title=" ">
<polygon fill="white" stroke="black" points="624.5,-0.5 624.5,-30.5 734.5,-30.5 734.5,-0.5 624.5,-0.5"/>
<text text-anchor="start" x="632.5" y="-18.5" font-family="Helvetica,sans-Serif" font-size="10.00">src/crypto/openssl</text>
<text text-anchor="middle" x="679.5" y="-7.5" font-family="Helvetica,sans-Serif" font-size="10.00">/rsa_public_key.cpp</text>
</a>
</g>
</g>
<!-- Node2&#45;&gt;Node9 -->
<g id="edge8" class="edge">
<title>Node2&#45;&gt;Node9</title>
<path fill="none" stroke="midnightblue" d="M561.19,-206.73C589,-199.77 620.01,-187.31 640.5,-165 675.84,-126.52 679.93,-59.92 679.9,-30.81"/>
<polygon fill="midnightblue" stroke="midnightblue" points="560.07,-203.39 551.11,-209.05 561.64,-210.21 560.07,-203.39"/>
</g>
<!-- Node10 -->
<g id="node10" class="node">
<title>Node10</title>
<g id="a_node10"><a xlink:href="src_2crypto_2openssl_2rsa__public__key_8h.html" target="_top" xlink:title=" ">
<polygon fill="white" stroke="black" points="730,-134.5 730,-164.5 835,-164.5 835,-134.5 730,-134.5"/>
<text text-anchor="start" x="738" y="-152.5" font-family="Helvetica,sans-Serif" font-size="10.00">src/crypto/openssl</text>
<text text-anchor="middle" x="782.5" y="-141.5" font-family="Helvetica,sans-Serif" font-size="10.00">/rsa_public_key.h</text>
</a>
</g>
</g>
<!-- Node2&#45;&gt;Node10 -->
<g id="edge9" class="edge">
<title>Node2&#45;&gt;Node10</title>
<path fill="none" stroke="midnightblue" d="M561.08,-201.18C611.57,-189.62 681.81,-173.54 729.55,-162.62"/>
<polygon fill="midnightblue" stroke="midnightblue" points="560.22,-197.78 551.25,-203.43 561.78,-204.61 560.22,-197.78"/>
</g>
<!-- Node11 -->
<g id="node11" class="node">
<title>Node11</title>
<g id="a_node11"><a xlink:href="src_2crypto_2openssl_2rsa__key__pair_8h.html" target="_top" xlink:title=" ">
<polygon fill="white" stroke="black" points="741,-67.5 741,-97.5 846,-97.5 846,-67.5 741,-67.5"/>
<text text-anchor="start" x="749" y="-85.5" font-family="Helvetica,sans-Serif" font-size="10.00">src/crypto/openssl</text>
<text text-anchor="middle" x="793.5" y="-74.5" font-family="Helvetica,sans-Serif" font-size="10.00">/rsa_key_pair.h</text>
</a>
</g>
</g>
<!-- Node10&#45;&gt;Node11 -->
<g id="edge10" class="edge">
<title>Node10&#45;&gt;Node11</title>
<path fill="none" stroke="midnightblue" d="M786.58,-124.4C788.11,-115.37 789.79,-105.41 791.12,-97.58"/>
<polygon fill="midnightblue" stroke="midnightblue" points="783.1,-123.95 784.89,-134.4 790.01,-125.12 783.1,-123.95"/>
</g>
<!-- Node11&#45;&gt;Node8 -->
<g id="edge12" class="edge">
<title>Node11&#45;&gt;Node8</title>
<path fill="none" stroke="midnightblue" d="M732.02,-64.85C692.89,-54.25 642.77,-40.68 605.6,-30.61"/>
<polygon fill="midnightblue" stroke="midnightblue" points="731.15,-68.24 741.72,-67.48 732.98,-61.48 731.15,-68.24"/>
</g>
<!-- Node11&#45;&gt;Node9 -->
<g id="edge13" class="edge">
<title>Node11&#45;&gt;Node9</title>
<path fill="none" stroke="midnightblue" d="M759.82,-62.3C741.98,-52.12 720.46,-39.85 704.19,-30.58"/>
<polygon fill="midnightblue" stroke="midnightblue" points="758.34,-65.48 768.76,-67.4 761.81,-59.4 758.34,-65.48"/>
</g>
<!-- Node12 -->
<g id="node12" class="node">
<title>Node12</title>
<g id="a_node12"><a xlink:href="cose__verifier_8cpp.html" target="_top" xlink:title=" ">
<polygon fill="white" stroke="black" points="753,-0.5 753,-30.5 858,-30.5 858,-0.5 753,-0.5"/>
<text text-anchor="start" x="761" y="-18.5" font-family="Helvetica,sans-Serif" font-size="10.00">src/crypto/openssl</text>
<text text-anchor="middle" x="805.5" y="-7.5" font-family="Helvetica,sans-Serif" font-size="10.00">/cose_verifier.cpp</text>
</a>
</g>
</g>
<!-- Node11&#45;&gt;Node12 -->
<g id="edge11" class="edge">
<title>Node11&#45;&gt;Node12</title>
<path fill="none" stroke="midnightblue" d="M797.95,-57.4C799.62,-48.37 801.46,-38.41 802.9,-30.58"/>
<polygon fill="midnightblue" stroke="midnightblue" points="794.48,-56.93 796.1,-67.4 801.36,-58.2 794.48,-56.93"/>
</g>
<!-- Node13 -->
<g id="node13" class="node">
<title>Node13</title>
<g id="a_node13"><a xlink:href="openssl_2verifier_8cpp.html" target="_top" xlink:title=" ">
<polygon fill="white" stroke="black" points="876,-0.5 876,-30.5 981,-30.5 981,-0.5 876,-0.5"/>
<text text-anchor="start" x="884" y="-18.5" font-family="Helvetica,sans-Serif" font-size="10.00">src/crypto/openssl</text>
<text text-anchor="middle" x="928.5" y="-7.5" font-family="Helvetica,sans-Serif" font-size="10.00">/verifier.cpp</text>
</a>
</g>
</g>
<!-- Node11&#45;&gt;Node13 -->
<g id="edge14" class="edge">
<title>Node11&#45;&gt;Node13</title>
<path fill="none" stroke="midnightblue" d="M831.94,-62.99C853.34,-52.69 879.55,-40.07 899.26,-30.58"/>
<polygon fill="midnightblue" stroke="midnightblue" points="830.28,-59.9 822.79,-67.4 833.32,-66.21 830.28,-59.9"/>
</g>
<!-- Node14 -->
<g id="node14" class="node">
<title>Node14</title>
<g id="a_node14"><a xlink:href="rsa__key__pair_8cpp.html" target="_top" xlink:title=" ">
<polygon fill="white" stroke="black" points="999,-0.5 999,-30.5 1104,-30.5 1104,-0.5 999,-0.5"/>
<text text-anchor="start" x="1007" y="-18.5" font-family="Helvetica,sans-Serif" font-size="10.00">src/crypto/rsa_key</text>
<text text-anchor="middle" x="1051.5" y="-7.5" font-family="Helvetica,sans-Serif" font-size="10.00">_pair.cpp</text>
</a>
</g>
</g>
<!-- Node11&#45;&gt;Node14 -->
<g id="edge15" class="edge">
<title>Node11&#45;&gt;Node14</title>
<path fill="none" stroke="midnightblue" d="M855.95,-65.77C899.59,-54.77 957.23,-40.25 998.61,-29.82"/>
<polygon fill="midnightblue" stroke="midnightblue" points="854.86,-62.43 846.02,-68.27 856.57,-69.22 854.86,-62.43"/>
</g>
</g>
</svg>
