<?xml version="1.0" encoding="UTF-8" standalone="no"?>
<!DOCTYPE svg PUBLIC "-//W3C//DTD SVG 1.1//EN"
 "http://www.w3.org/Graphics/SVG/1.1/DTD/svg11.dtd">
<!-- Generated by graphviz version 2.43.0 (0)
 -->
<!-- Title: src/ds/histogram.h Pages: 1 -->
<svg width="424pt" height="140pt"
 viewBox="0.00 0.00 423.50 140.00" xmlns="http://www.w3.org/2000/svg" xmlns:xlink="http://www.w3.org/1999/xlink">
<g id="graph0" class="graph" transform="scale(1 1) rotate(0) translate(4 136)">
<title>src/ds/histogram.h</title>
<polygon fill="white" stroke="transparent" points="-4,4 -4,-136 419.5,-136 419.5,4 -4,4"/>
<!-- Node1 -->
<g id="node1" class="node">
<title>Node1</title>
<g id="a_node1"><a xlink:title=" ">
<polygon fill="#bfbfbf" stroke="black" points="187.5,-112.5 187.5,-131.5 294.5,-131.5 294.5,-112.5 187.5,-112.5"/>
<text text-anchor="middle" x="241" y="-119.5" font-family="Helvetica,sans-Serif" font-size="10.00">src/ds/histogram.h</text>
</a>
</g>
</g>
<!-- Node2 -->
<g id="node2" class="node">
<title>Node2</title>
<g id="a_node2"><a xlink:href="locking_8h.html" target="_top" xlink:title=" ">
<polygon fill="white" stroke="black" points="0,-56.5 0,-75.5 96,-75.5 96,-56.5 0,-56.5"/>
<text text-anchor="middle" x="48" y="-63.5" font-family="Helvetica,sans-Serif" font-size="10.00">ccf/pal/locking.h</text>
</a>
</g>
</g>
<!-- Node1&#45;&gt;Node2 -->
<g id="edge1" class="edge">
<title>Node1&#45;&gt;Node2</title>
<path fill="none" stroke="midnightblue" d="M210.42,-112.44C177.39,-103.2 124.61,-88.44 88.23,-78.26"/>
<polygon fill="midnightblue" stroke="midnightblue" points="89.01,-74.84 78.44,-75.52 87.13,-81.58 89.01,-74.84"/>
</g>
<!-- Node4 -->
<g id="node4" class="node">
<title>Node4</title>
<g id="a_node4"><a xlink:title=" ">
<polygon fill="white" stroke="#bfbfbf" points="114,-56.5 114,-75.5 166,-75.5 166,-56.5 114,-56.5"/>
<text text-anchor="middle" x="140" y="-63.5" font-family="Helvetica,sans-Serif" font-size="10.00">cassert</text>
</a>
</g>
</g>
<!-- Node1&#45;&gt;Node4 -->
<g id="edge3" class="edge">
<title>Node1&#45;&gt;Node4</title>
<path fill="none" stroke="midnightblue" d="M224.77,-112.32C208.65,-103.7 183.7,-90.36 165.04,-80.39"/>
<polygon fill="midnightblue" stroke="midnightblue" points="166.66,-77.28 156.19,-75.65 163.36,-83.46 166.66,-77.28"/>
</g>
<!-- Node5 -->
<g id="node5" class="node">
<title>Node5</title>
<g id="a_node5"><a xlink:title=" ">
<polygon fill="white" stroke="#bfbfbf" points="184,-56.5 184,-75.5 234,-75.5 234,-56.5 184,-56.5"/>
<text text-anchor="middle" x="209" y="-63.5" font-family="Helvetica,sans-Serif" font-size="10.00">chrono</text>
</a>
</g>
</g>
<!-- Node1&#45;&gt;Node5 -->
<g id="edge4" class="edge">
<title>Node1&#45;&gt;Node5</title>
<path fill="none" stroke="midnightblue" d="M235.72,-112.08C231.29,-104.61 224.84,-93.72 219.38,-84.52"/>
<polygon fill="midnightblue" stroke="midnightblue" points="222.29,-82.57 214.19,-75.75 216.27,-86.14 222.29,-82.57"/>
</g>
<!-- Node6 -->
<g id="node6" class="node">
<title>Node6</title>
<g id="a_node6"><a xlink:title=" ">
<polygon fill="white" stroke="#bfbfbf" points="252,-56.5 252,-75.5 296,-75.5 296,-56.5 252,-56.5"/>
<text text-anchor="middle" x="274" y="-63.5" font-family="Helvetica,sans-Serif" font-size="10.00">limits</text>
</a>
</g>
</g>
<!-- Node1&#45;&gt;Node6 -->
<g id="edge5" class="edge">
<title>Node1&#45;&gt;Node6</title>
<path fill="none" stroke="midnightblue" d="M246.45,-112.08C251.01,-104.61 257.67,-93.72 263.29,-84.52"/>
<polygon fill="midnightblue" stroke="midnightblue" points="266.42,-86.11 268.65,-75.75 260.45,-82.46 266.42,-86.11"/>
</g>
<!-- Node7 -->
<g id="node7" class="node">
<title>Node7</title>
<g id="a_node7"><a xlink:title=" ">
<polygon fill="white" stroke="#bfbfbf" points="314,-56.5 314,-75.5 352,-75.5 352,-56.5 314,-56.5"/>
<text text-anchor="middle" x="333" y="-63.5" font-family="Helvetica,sans-Serif" font-size="10.00">map</text>
</a>
</g>
</g>
<!-- Node1&#45;&gt;Node7 -->
<g id="edge6" class="edge">
<title>Node1&#45;&gt;Node7</title>
<path fill="none" stroke="midnightblue" d="M255.78,-112.32C270.27,-103.82 292.57,-90.73 309.49,-80.8"/>
<polygon fill="midnightblue" stroke="midnightblue" points="311.4,-83.74 318.26,-75.65 307.86,-77.7 311.4,-83.74"/>
</g>
<!-- Node8 -->
<g id="node8" class="node">
<title>Node8</title>
<g id="a_node8"><a xlink:title=" ">
<polygon fill="white" stroke="#bfbfbf" points="370.5,-56.5 370.5,-75.5 415.5,-75.5 415.5,-56.5 370.5,-56.5"/>
<text text-anchor="middle" x="393" y="-63.5" font-family="Helvetica,sans-Serif" font-size="10.00">utility</text>
</a>
</g>
</g>
<!-- Node1&#45;&gt;Node8 -->
<g id="edge7" class="edge">
<title>Node1&#45;&gt;Node8</title>
<path fill="none" stroke="midnightblue" d="M265.08,-112.44C290.84,-103.29 331.85,-88.73 360.46,-78.56"/>
<polygon fill="midnightblue" stroke="midnightblue" points="361.77,-81.81 370.02,-75.16 359.43,-75.21 361.77,-81.81"/>
</g>
<!-- Node3 -->
<g id="node3" class="node">
<title>Node3</title>
<g id="a_node3"><a xlink:title=" ">
<polygon fill="white" stroke="#bfbfbf" points="24,-0.5 24,-19.5 72,-19.5 72,-0.5 24,-0.5"/>
<text text-anchor="middle" x="48" y="-7.5" font-family="Helvetica,sans-Serif" font-size="10.00">mutex</text>
</a>
</g>
</g>
<!-- Node2&#45;&gt;Node3 -->
<g id="edge2" class="edge">
<title>Node2&#45;&gt;Node3</title>
<path fill="none" stroke="midnightblue" d="M48,-56.08C48,-49.01 48,-38.86 48,-29.99"/>
<polygon fill="midnightblue" stroke="midnightblue" points="51.5,-29.75 48,-19.75 44.5,-29.75 51.5,-29.75"/>
</g>
</g>
</svg>
