<?xml version="1.0" encoding="UTF-8" standalone="no"?>
<!DOCTYPE svg PUBLIC "-//W3C//DTD SVG 1.1//EN"
 "http://www.w3.org/Graphics/SVG/1.1/DTD/svg11.dtd">
<!-- Generated by graphviz version 2.43.0 (0)
 -->
<!-- Title: src/http/http_builder.h Pages: 1 -->
<svg width="1049pt" height="140pt"
 viewBox="0.00 0.00 1048.50 140.00" xmlns="http://www.w3.org/2000/svg" xmlns:xlink="http://www.w3.org/1999/xlink">
<g id="graph0" class="graph" transform="scale(1 1) rotate(0) translate(4 136)">
<title>src/http/http_builder.h</title>
<polygon fill="white" stroke="transparent" points="-4,4 -4,-136 1044.5,-136 1044.5,4 -4,4"/>
<!-- Node1 -->
<g id="node1" class="node">
<title>Node1</title>
<g id="a_node1"><a xlink:title=" ">
<polygon fill="#bfbfbf" stroke="black" points="539,-112.5 539,-131.5 662,-131.5 662,-112.5 539,-112.5"/>
<text text-anchor="middle" x="600.5" y="-119.5" font-family="Helvetica,sans-Serif" font-size="10.00">src/http/http_builder.h</text>
</a>
</g>
</g>
<!-- Node2 -->
<g id="node2" class="node">
<title>Node2</title>
<g id="a_node2"><a xlink:href="nonstd_8h.html" target="_top" xlink:title=" ">
<polygon fill="white" stroke="black" points="251.5,-56.5 251.5,-75.5 341.5,-75.5 341.5,-56.5 251.5,-56.5"/>
<text text-anchor="middle" x="296.5" y="-63.5" font-family="Helvetica,sans-Serif" font-size="10.00">ccf/ds/nonstd.h</text>
</a>
</g>
</g>
<!-- Node1&#45;&gt;Node2 -->
<g id="edge1" class="edge">
<title>Node1&#45;&gt;Node2</title>
<path fill="none" stroke="midnightblue" d="M552.33,-112.44C497.84,-102.76 409.25,-87.03 351.93,-76.85"/>
<polygon fill="midnightblue" stroke="midnightblue" points="352.42,-73.38 341.96,-75.08 351.2,-80.27 352.42,-73.38"/>
</g>
<!-- Node6 -->
<g id="node6" class="node">
<title>Node6</title>
<g id="a_node6"><a xlink:title=" ">
<polygon fill="white" stroke="#bfbfbf" points="453.5,-0.5 453.5,-19.5 497.5,-19.5 497.5,-0.5 453.5,-0.5"/>
<text text-anchor="middle" x="475.5" y="-7.5" font-family="Helvetica,sans-Serif" font-size="10.00">string</text>
</a>
</g>
</g>
<!-- Node1&#45;&gt;Node6 -->
<g id="edge17" class="edge">
<title>Node1&#45;&gt;Node6</title>
<path fill="none" stroke="midnightblue" d="M540.84,-112.45C499.06,-105.1 448.48,-92.99 435.5,-76 423.1,-59.77 440.13,-39.52 455.65,-25.98"/>
<polygon fill="midnightblue" stroke="midnightblue" points="457.96,-28.61 463.46,-19.56 453.51,-23.2 457.96,-28.61"/>
</g>
<!-- Node9 -->
<g id="node9" class="node">
<title>Node9</title>
<g id="a_node9"><a xlink:title=" ">
<polygon fill="white" stroke="#bfbfbf" points="388,-0.5 388,-19.5 435,-19.5 435,-0.5 388,-0.5"/>
<text text-anchor="middle" x="411.5" y="-7.5" font-family="Helvetica,sans-Serif" font-size="10.00">vector</text>
</a>
</g>
</g>
<!-- Node1&#45;&gt;Node9 -->
<g id="edge18" class="edge">
<title>Node1&#45;&gt;Node9</title>
<path fill="none" stroke="midnightblue" d="M538.73,-120.12C501.71,-116.29 456.39,-105.27 427.5,-76 415.65,-63.99 412.09,-44.7 411.24,-30.24"/>
<polygon fill="midnightblue" stroke="midnightblue" points="414.73,-29.85 411.02,-19.92 407.73,-29.99 414.73,-29.85"/>
</g>
<!-- Node10 -->
<g id="node10" class="node">
<title>Node10</title>
<g id="a_node10"><a xlink:href="http__consts_8h.html" target="_top" xlink:title=" ">
<polygon fill="white" stroke="black" points="629,-56.5 629,-75.5 728,-75.5 728,-56.5 629,-56.5"/>
<text text-anchor="middle" x="678.5" y="-63.5" font-family="Helvetica,sans-Serif" font-size="10.00">ccf/http_consts.h</text>
</a>
</g>
</g>
<!-- Node1&#45;&gt;Node10 -->
<g id="edge9" class="edge">
<title>Node1&#45;&gt;Node10</title>
<path fill="none" stroke="midnightblue" d="M613.03,-112.32C625.09,-103.98 643.53,-91.21 657.77,-81.35"/>
<polygon fill="midnightblue" stroke="midnightblue" points="659.77,-84.22 666,-75.65 655.78,-78.47 659.77,-84.22"/>
</g>
<!-- Node11 -->
<g id="node11" class="node">
<title>Node11</title>
<g id="a_node11"><a xlink:href="http__header__map_8h.html" target="_top" xlink:title=" ">
<polygon fill="white" stroke="black" points="444.5,-56.5 444.5,-75.5 572.5,-75.5 572.5,-56.5 444.5,-56.5"/>
<text text-anchor="middle" x="508.5" y="-63.5" font-family="Helvetica,sans-Serif" font-size="10.00">ccf/http_header_map.h</text>
</a>
</g>
</g>
<!-- Node1&#45;&gt;Node11 -->
<g id="edge10" class="edge">
<title>Node1&#45;&gt;Node11</title>
<path fill="none" stroke="midnightblue" d="M585.72,-112.32C571.23,-103.82 548.93,-90.73 532.01,-80.8"/>
<polygon fill="midnightblue" stroke="midnightblue" points="533.64,-77.7 523.24,-75.65 530.1,-83.74 533.64,-77.7"/>
</g>
<!-- Node12 -->
<g id="node12" class="node">
<title>Node12</title>
<g id="a_node12"><a xlink:title=" ">
<polygon fill="white" stroke="#bfbfbf" points="548.5,-0.5 548.5,-19.5 586.5,-19.5 586.5,-0.5 548.5,-0.5"/>
<text text-anchor="middle" x="567.5" y="-7.5" font-family="Helvetica,sans-Serif" font-size="10.00">map</text>
</a>
</g>
</g>
<!-- Node1&#45;&gt;Node12 -->
<g id="edge16" class="edge">
<title>Node1&#45;&gt;Node12</title>
<path fill="none" stroke="midnightblue" d="M597.97,-112.15C594.37,-99.63 587.54,-76.04 581.5,-56 578.84,-47.18 575.81,-37.41 573.25,-29.23"/>
<polygon fill="midnightblue" stroke="midnightblue" points="576.56,-28.1 570.23,-19.61 569.89,-30.2 576.56,-28.1"/>
</g>
<!-- Node13 -->
<g id="node13" class="node">
<title>Node13</title>
<g id="a_node13"><a xlink:href="http__status_8h.html" target="_top" xlink:title=" ">
<polygon fill="white" stroke="black" points="746.5,-56.5 746.5,-75.5 844.5,-75.5 844.5,-56.5 746.5,-56.5"/>
<text text-anchor="middle" x="795.5" y="-63.5" font-family="Helvetica,sans-Serif" font-size="10.00">ccf/http_status.h</text>
</a>
</g>
</g>
<!-- Node1&#45;&gt;Node13 -->
<g id="edge13" class="edge">
<title>Node1&#45;&gt;Node13</title>
<path fill="none" stroke="midnightblue" d="M631.4,-112.44C664.77,-103.2 718.09,-88.44 754.85,-78.26"/>
<polygon fill="midnightblue" stroke="midnightblue" points="756.04,-81.56 764.75,-75.52 754.17,-74.81 756.04,-81.56"/>
</g>
<!-- Node14 -->
<g id="node14" class="node">
<title>Node14</title>
<g id="a_node14"><a xlink:title=" ">
<polygon fill="white" stroke="#bfbfbf" points="863,-56.5 863,-75.5 942,-75.5 942,-56.5 863,-56.5"/>
<text text-anchor="middle" x="902.5" y="-63.5" font-family="Helvetica,sans-Serif" font-size="10.00">fmt/format.h</text>
</a>
</g>
</g>
<!-- Node1&#45;&gt;Node14 -->
<g id="edge14" class="edge">
<title>Node1&#45;&gt;Node14</title>
<path fill="none" stroke="midnightblue" d="M649.02,-112.45C697.87,-103.83 775.67,-90.04 853.01,-76.08"/>
<polygon fill="midnightblue" stroke="midnightblue" points="853.7,-79.51 862.92,-74.29 852.46,-72.62 853.7,-79.51"/>
</g>
<!-- Node15 -->
<g id="node15" class="node">
<title>Node15</title>
<g id="a_node15"><a xlink:title=" ">
<polygon fill="white" stroke="#bfbfbf" points="960.5,-56.5 960.5,-75.5 1040.5,-75.5 1040.5,-56.5 960.5,-56.5"/>
<text text-anchor="middle" x="1000.5" y="-63.5" font-family="Helvetica,sans-Serif" font-size="10.00">llhttp/llhttp.h</text>
</a>
</g>
</g>
<!-- Node1&#45;&gt;Node15 -->
<g id="edge15" class="edge">
<title>Node1&#45;&gt;Node15</title>
<path fill="none" stroke="midnightblue" d="M662.15,-114.12C730.23,-106.29 843.32,-92.61 950.41,-76.1"/>
<polygon fill="midnightblue" stroke="midnightblue" points="951.07,-79.54 960.42,-74.54 950,-72.62 951.07,-79.54"/>
</g>
<!-- Node3 -->
<g id="node3" class="node">
<title>Node3</title>
<g id="a_node3"><a xlink:title=" ">
<polygon fill="white" stroke="#bfbfbf" points="87.5,-0.5 87.5,-19.5 151.5,-19.5 151.5,-0.5 87.5,-0.5"/>
<text text-anchor="middle" x="119.5" y="-7.5" font-family="Helvetica,sans-Serif" font-size="10.00">algorithm</text>
</a>
</g>
</g>
<!-- Node2&#45;&gt;Node3 -->
<g id="edge2" class="edge">
<title>Node2&#45;&gt;Node3</title>
<path fill="none" stroke="midnightblue" d="M268.45,-56.44C238.42,-47.28 190.59,-32.69 157.26,-22.52"/>
<polygon fill="midnightblue" stroke="midnightblue" points="158,-19.09 147.41,-19.52 155.96,-25.78 158,-19.09"/>
</g>
<!-- Node4 -->
<g id="node4" class="node">
<title>Node4</title>
<g id="a_node4"><a xlink:title=" ">
<polygon fill="white" stroke="#bfbfbf" points="169.5,-0.5 169.5,-19.5 211.5,-19.5 211.5,-0.5 169.5,-0.5"/>
<text text-anchor="middle" x="190.5" y="-7.5" font-family="Helvetica,sans-Serif" font-size="10.00">array</text>
</a>
</g>
</g>
<!-- Node2&#45;&gt;Node4 -->
<g id="edge3" class="edge">
<title>Node2&#45;&gt;Node4</title>
<path fill="none" stroke="midnightblue" d="M279.47,-56.32C262.47,-47.66 236.12,-34.24 216.51,-24.25"/>
<polygon fill="midnightblue" stroke="midnightblue" points="217.99,-21.08 207.49,-19.65 214.81,-27.31 217.99,-21.08"/>
</g>
<!-- Node5 -->
<g id="node5" class="node">
<title>Node5</title>
<g id="a_node5"><a xlink:title=" ">
<polygon fill="white" stroke="#bfbfbf" points="230,-0.5 230,-19.5 279,-19.5 279,-0.5 230,-0.5"/>
<text text-anchor="middle" x="254.5" y="-7.5" font-family="Helvetica,sans-Serif" font-size="10.00">cctype</text>
</a>
</g>
</g>
<!-- Node2&#45;&gt;Node5 -->
<g id="edge4" class="edge">
<title>Node2&#45;&gt;Node5</title>
<path fill="none" stroke="midnightblue" d="M289.56,-56.08C283.57,-48.38 274.75,-37.03 267.45,-27.65"/>
<polygon fill="midnightblue" stroke="midnightblue" points="270.21,-25.5 261.31,-19.75 264.68,-29.79 270.21,-25.5"/>
</g>
<!-- Node2&#45;&gt;Node6 -->
<g id="edge5" class="edge">
<title>Node2&#45;&gt;Node6</title>
<path fill="none" stroke="midnightblue" d="M324.86,-56.44C357.2,-46.69 409.94,-30.78 443.67,-20.6"/>
<polygon fill="midnightblue" stroke="midnightblue" points="444.91,-23.88 453.48,-17.64 442.89,-17.18 444.91,-23.88"/>
</g>
<!-- Node7 -->
<g id="node7" class="node">
<title>Node7</title>
<g id="a_node7"><a xlink:title=" ">
<polygon fill="white" stroke="#bfbfbf" points="297,-0.5 297,-19.5 370,-19.5 370,-0.5 297,-0.5"/>
<text text-anchor="middle" x="333.5" y="-7.5" font-family="Helvetica,sans-Serif" font-size="10.00">string_view</text>
</a>
</g>
</g>
<!-- Node2&#45;&gt;Node7 -->
<g id="edge6" class="edge">
<title>Node2&#45;&gt;Node7</title>
<path fill="none" stroke="midnightblue" d="M302.61,-56.08C307.78,-48.53 315.35,-37.49 321.69,-28.23"/>
<polygon fill="midnightblue" stroke="midnightblue" points="324.74,-29.98 327.5,-19.75 318.96,-26.02 324.74,-29.98"/>
</g>
<!-- Node8 -->
<g id="node8" class="node">
<title>Node8</title>
<g id="a_node8"><a xlink:title=" ">
<polygon fill="white" stroke="#bfbfbf" points="0,-0.5 0,-19.5 69,-19.5 69,-0.5 0,-0.5"/>
<text text-anchor="middle" x="34.5" y="-7.5" font-family="Helvetica,sans-Serif" font-size="10.00">type_traits</text>
</a>
</g>
</g>
<!-- Node2&#45;&gt;Node8 -->
<g id="edge7" class="edge">
<title>Node2&#45;&gt;Node8</title>
<path fill="none" stroke="midnightblue" d="M254.99,-56.44C207.03,-46.56 128.42,-30.36 79.17,-20.21"/>
<polygon fill="midnightblue" stroke="midnightblue" points="79.63,-16.73 69.13,-18.14 78.21,-23.58 79.63,-16.73"/>
</g>
<!-- Node2&#45;&gt;Node9 -->
<g id="edge8" class="edge">
<title>Node2&#45;&gt;Node9</title>
<path fill="none" stroke="midnightblue" d="M314.72,-56.44C333.4,-47.68 362.66,-33.94 384.12,-23.86"/>
<polygon fill="midnightblue" stroke="midnightblue" points="385.8,-26.93 393.36,-19.52 382.82,-20.6 385.8,-26.93"/>
</g>
<!-- Node11&#45;&gt;Node6 -->
<g id="edge12" class="edge">
<title>Node11&#45;&gt;Node6</title>
<path fill="none" stroke="midnightblue" d="M503.05,-56.08C498.49,-48.61 491.83,-37.72 486.21,-28.52"/>
<polygon fill="midnightblue" stroke="midnightblue" points="489.05,-26.46 480.85,-19.75 483.08,-30.11 489.05,-26.46"/>
</g>
<!-- Node11&#45;&gt;Node12 -->
<g id="edge11" class="edge">
<title>Node11&#45;&gt;Node12</title>
<path fill="none" stroke="midnightblue" d="M517.98,-56.32C526.7,-48.34 539.84,-36.31 550.4,-26.65"/>
<polygon fill="midnightblue" stroke="midnightblue" points="552.83,-29.17 557.85,-19.83 548.11,-24 552.83,-29.17"/>
</g>
</g>
</svg>
