<?xml version="1.0" encoding="UTF-8" standalone="no"?>
<!DOCTYPE svg PUBLIC "-//W3C//DTD SVG 1.1//EN"
 "http://www.w3.org/Graphics/SVG/1.1/DTD/svg11.dtd">
<!-- Generated by graphviz version 2.43.0 (0)
 -->
<!-- Title: include/ccf/http_configuration.h Pages: 1 -->
<svg width="1141pt" height="252pt"
 viewBox="0.00 0.00 1141.00 252.00" xmlns="http://www.w3.org/2000/svg" xmlns:xlink="http://www.w3.org/1999/xlink">
<g id="graph0" class="graph" transform="scale(1 1) rotate(0) translate(4 248)">
<title>include/ccf/http_configuration.h</title>
<polygon fill="white" stroke="transparent" points="-4,4 -4,-248 1137,-248 1137,4 -4,4"/>
<!-- Node1 -->
<g id="node1" class="node">
<title>Node1</title>
<g id="a_node1"><a xlink:title=" ">
<polygon fill="#bfbfbf" stroke="black" points="397,-224.5 397,-243.5 567,-243.5 567,-224.5 397,-224.5"/>
<text text-anchor="middle" x="482" y="-231.5" font-family="Helvetica,sans-Serif" font-size="10.00">include/ccf/http_configuration.h</text>
</a>
</g>
</g>
<!-- Node2 -->
<g id="node2" class="node">
<title>Node2</title>
<g id="a_node2"><a xlink:href="json_8h.html" target="_top" xlink:title=" ">
<polygon fill="white" stroke="black" points="302.5,-168.5 302.5,-187.5 379.5,-187.5 379.5,-168.5 302.5,-168.5"/>
<text text-anchor="middle" x="341" y="-175.5" font-family="Helvetica,sans-Serif" font-size="10.00">ccf/ds/json.h</text>
</a>
</g>
</g>
<!-- Node1&#45;&gt;Node2 -->
<g id="edge1" class="edge">
<title>Node1&#45;&gt;Node2</title>
<path fill="none" stroke="midnightblue" d="M459.66,-224.44C436.25,-215.48 399.26,-201.31 372.81,-191.18"/>
<polygon fill="midnightblue" stroke="midnightblue" points="373.83,-187.82 363.24,-187.52 371.32,-194.36 373.83,-187.82"/>
</g>
<!-- Node16 -->
<g id="node16" class="node">
<title>Node16</title>
<g id="a_node16"><a xlink:href="unit__strings_8h.html" target="_top" xlink:title=" ">
<polygon fill="white" stroke="black" points="425,-168.5 425,-187.5 539,-187.5 539,-168.5 425,-168.5"/>
<text text-anchor="middle" x="482" y="-175.5" font-family="Helvetica,sans-Serif" font-size="10.00">ccf/ds/unit_strings.h</text>
</a>
</g>
</g>
<!-- Node1&#45;&gt;Node16 -->
<g id="edge18" class="edge">
<title>Node1&#45;&gt;Node16</title>
<path fill="none" stroke="midnightblue" d="M482,-224.08C482,-217.01 482,-206.86 482,-197.99"/>
<polygon fill="midnightblue" stroke="midnightblue" points="485.5,-197.75 482,-187.75 478.5,-197.75 485.5,-197.75"/>
</g>
<!-- Node27 -->
<g id="node27" class="node">
<title>Node27</title>
<g id="a_node27"><a xlink:title=" ">
<polygon fill="white" stroke="#bfbfbf" points="1077,-56.5 1077,-75.5 1133,-75.5 1133,-56.5 1077,-56.5"/>
<text text-anchor="middle" x="1105" y="-63.5" font-family="Helvetica,sans-Serif" font-size="10.00">optional</text>
</a>
</g>
</g>
<!-- Node1&#45;&gt;Node27 -->
<g id="edge41" class="edge">
<title>Node1&#45;&gt;Node27</title>
<path fill="none" stroke="midnightblue" d="M514.18,-224.42C619.53,-196.35 953.78,-107.29 1067.04,-77.11"/>
<polygon fill="midnightblue" stroke="midnightblue" points="1068.23,-80.42 1076.99,-74.46 1066.43,-73.66 1068.23,-80.42"/>
</g>
<!-- Node3 -->
<g id="node3" class="node">
<title>Node3</title>
<g id="a_node3"><a xlink:href="include_2ccf_2crypto_2base64_8h.html" target="_top" xlink:title=" ">
<polygon fill="white" stroke="black" points="30,-56.5 30,-75.5 142,-75.5 142,-56.5 30,-56.5"/>
<text text-anchor="middle" x="86" y="-63.5" font-family="Helvetica,sans-Serif" font-size="10.00">ccf/crypto/base64.h</text>
</a>
</g>
</g>
<!-- Node2&#45;&gt;Node3 -->
<g id="edge2" class="edge">
<title>Node2&#45;&gt;Node3</title>
<path fill="none" stroke="midnightblue" d="M302.24,-174.35C261.72,-170.17 197.4,-159.43 149,-132 127.94,-120.06 109.42,-98.96 98,-84.04"/>
<polygon fill="midnightblue" stroke="midnightblue" points="100.6,-81.67 91.85,-75.69 94.96,-85.82 100.6,-81.67"/>
</g>
<!-- Node6 -->
<g id="node6" class="node">
<title>Node6</title>
<g id="a_node6"><a xlink:href="include_2ccf_2ds_2json__schema_8h.html" target="_top" xlink:title=" ">
<polygon fill="white" stroke="black" points="191.5,-112.5 191.5,-131.5 312.5,-131.5 312.5,-112.5 191.5,-112.5"/>
<text text-anchor="middle" x="252" y="-119.5" font-family="Helvetica,sans-Serif" font-size="10.00">ccf/ds/json_schema.h</text>
</a>
</g>
</g>
<!-- Node2&#45;&gt;Node6 -->
<g id="edge5" class="edge">
<title>Node2&#45;&gt;Node6</title>
<path fill="none" stroke="midnightblue" d="M326.7,-168.32C312.82,-159.9 291.51,-146.97 275.2,-137.07"/>
<polygon fill="midnightblue" stroke="midnightblue" points="276.63,-133.85 266.26,-131.65 273,-139.83 276.63,-133.85"/>
</g>
<!-- Node13 -->
<g id="node13" class="node">
<title>Node13</title>
<g id="a_node13"><a xlink:title=" ">
<polygon fill="white" stroke="#bfbfbf" points="592.5,-0.5 592.5,-19.5 671.5,-19.5 671.5,-0.5 592.5,-0.5"/>
<text text-anchor="middle" x="632" y="-7.5" font-family="Helvetica,sans-Serif" font-size="10.00">fmt/format.h</text>
</a>
</g>
</g>
<!-- Node2&#45;&gt;Node13 -->
<g id="edge16" class="edge">
<title>Node2&#45;&gt;Node13</title>
<path fill="none" stroke="midnightblue" d="M337.03,-168.4C327.65,-146.62 306.89,-88.69 335,-56 343,-46.7 499.75,-26.75 582.22,-16.84"/>
<polygon fill="midnightblue" stroke="midnightblue" points="582.87,-20.29 592.38,-15.62 582.03,-13.34 582.87,-20.29"/>
</g>
<!-- Node15 -->
<g id="node15" class="node">
<title>Node15</title>
<g id="a_node15"><a xlink:title=" ">
<polygon fill="white" stroke="#bfbfbf" points="472,-56.5 472,-75.5 528,-75.5 528,-56.5 472,-56.5"/>
<text text-anchor="middle" x="500" y="-63.5" font-family="Helvetica,sans-Serif" font-size="10.00">sstream</text>
</a>
</g>
</g>
<!-- Node2&#45;&gt;Node15 -->
<g id="edge17" class="edge">
<title>Node2&#45;&gt;Node15</title>
<path fill="none" stroke="midnightblue" d="M353.48,-168.37C380.64,-149.57 445.41,-104.77 478.99,-81.53"/>
<polygon fill="midnightblue" stroke="midnightblue" points="481.35,-84.16 487.58,-75.59 477.37,-78.4 481.35,-84.16"/>
</g>
<!-- Node4 -->
<g id="node4" class="node">
<title>Node4</title>
<g id="a_node4"><a xlink:title=" ">
<polygon fill="white" stroke="#bfbfbf" points="0,-0.5 0,-19.5 44,-19.5 44,-0.5 0,-0.5"/>
<text text-anchor="middle" x="22" y="-7.5" font-family="Helvetica,sans-Serif" font-size="10.00">string</text>
</a>
</g>
</g>
<!-- Node3&#45;&gt;Node4 -->
<g id="edge3" class="edge">
<title>Node3&#45;&gt;Node4</title>
<path fill="none" stroke="midnightblue" d="M75.72,-56.32C66.16,-48.26 51.72,-36.08 40.22,-26.37"/>
<polygon fill="midnightblue" stroke="midnightblue" points="42.37,-23.61 32.47,-19.83 37.86,-28.96 42.37,-23.61"/>
</g>
<!-- Node5 -->
<g id="node5" class="node">
<title>Node5</title>
<g id="a_node5"><a xlink:title=" ">
<polygon fill="white" stroke="#bfbfbf" points="62.5,-0.5 62.5,-19.5 109.5,-19.5 109.5,-0.5 62.5,-0.5"/>
<text text-anchor="middle" x="86" y="-7.5" font-family="Helvetica,sans-Serif" font-size="10.00">vector</text>
</a>
</g>
</g>
<!-- Node3&#45;&gt;Node5 -->
<g id="edge4" class="edge">
<title>Node3&#45;&gt;Node5</title>
<path fill="none" stroke="midnightblue" d="M86,-56.08C86,-49.01 86,-38.86 86,-29.99"/>
<polygon fill="midnightblue" stroke="midnightblue" points="89.5,-29.75 86,-19.75 82.5,-29.75 89.5,-29.75"/>
</g>
<!-- Node7 -->
<g id="node7" class="node">
<title>Node7</title>
<g id="a_node7"><a xlink:href="nonstd_8h.html" target="_top" xlink:title=" ">
<polygon fill="white" stroke="black" points="160,-56.5 160,-75.5 250,-75.5 250,-56.5 160,-56.5"/>
<text text-anchor="middle" x="205" y="-63.5" font-family="Helvetica,sans-Serif" font-size="10.00">ccf/ds/nonstd.h</text>
</a>
</g>
</g>
<!-- Node6&#45;&gt;Node7 -->
<g id="edge6" class="edge">
<title>Node6&#45;&gt;Node7</title>
<path fill="none" stroke="midnightblue" d="M244.24,-112.08C237.46,-104.3 227.46,-92.8 219.24,-83.37"/>
<polygon fill="midnightblue" stroke="midnightblue" points="221.82,-81 212.62,-75.75 216.54,-85.59 221.82,-81"/>
</g>
<!-- Node6&#45;&gt;Node13 -->
<g id="edge14" class="edge">
<title>Node6&#45;&gt;Node13</title>
<path fill="none" stroke="midnightblue" d="M256.03,-112.06C263.08,-97.58 279.09,-69.28 302,-56 313.98,-49.05 493,-27.28 582.22,-16.78"/>
<polygon fill="midnightblue" stroke="midnightblue" points="582.85,-20.23 592.38,-15.59 582.04,-13.28 582.85,-20.23"/>
</g>
<!-- Node14 -->
<g id="node14" class="node">
<title>Node14</title>
<g id="a_node14"><a xlink:title=" ">
<polygon fill="white" stroke="#bfbfbf" points="344,-56.5 344,-75.5 454,-75.5 454,-56.5 344,-56.5"/>
<text text-anchor="middle" x="399" y="-63.5" font-family="Helvetica,sans-Serif" font-size="10.00">nlohmann/json.hpp</text>
</a>
</g>
</g>
<!-- Node6&#45;&gt;Node14 -->
<g id="edge15" class="edge">
<title>Node6&#45;&gt;Node14</title>
<path fill="none" stroke="midnightblue" d="M275.29,-112.44C299.81,-103.44 338.6,-89.19 366.2,-79.05"/>
<polygon fill="midnightblue" stroke="midnightblue" points="367.64,-82.25 375.82,-75.52 365.22,-75.68 367.64,-82.25"/>
</g>
<!-- Node7&#45;&gt;Node4 -->
<g id="edge10" class="edge">
<title>Node7&#45;&gt;Node4</title>
<path fill="none" stroke="midnightblue" d="M176,-56.44C142.85,-46.66 88.72,-30.69 54.26,-20.52"/>
<polygon fill="midnightblue" stroke="midnightblue" points="54.82,-17.04 44.24,-17.56 52.84,-23.75 54.82,-17.04"/>
</g>
<!-- Node7&#45;&gt;Node5 -->
<g id="edge13" class="edge">
<title>Node7&#45;&gt;Node5</title>
<path fill="none" stroke="midnightblue" d="M186.14,-56.44C166.73,-47.64 136.27,-33.81 114.04,-23.72"/>
<polygon fill="midnightblue" stroke="midnightblue" points="115.32,-20.46 104.77,-19.52 112.43,-26.84 115.32,-20.46"/>
</g>
<!-- Node8 -->
<g id="node8" class="node">
<title>Node8</title>
<g id="a_node8"><a xlink:title=" ">
<polygon fill="white" stroke="#bfbfbf" points="286,-0.5 286,-19.5 350,-19.5 350,-0.5 286,-0.5"/>
<text text-anchor="middle" x="318" y="-7.5" font-family="Helvetica,sans-Serif" font-size="10.00">algorithm</text>
</a>
</g>
</g>
<!-- Node7&#45;&gt;Node8 -->
<g id="edge7" class="edge">
<title>Node7&#45;&gt;Node8</title>
<path fill="none" stroke="midnightblue" d="M222.91,-56.44C241.25,-47.68 270.01,-33.94 291.09,-23.86"/>
<polygon fill="midnightblue" stroke="midnightblue" points="292.67,-26.99 300.18,-19.52 289.65,-20.67 292.67,-26.99"/>
</g>
<!-- Node9 -->
<g id="node9" class="node">
<title>Node9</title>
<g id="a_node9"><a xlink:title=" ">
<polygon fill="white" stroke="#bfbfbf" points="368,-0.5 368,-19.5 410,-19.5 410,-0.5 368,-0.5"/>
<text text-anchor="middle" x="389" y="-7.5" font-family="Helvetica,sans-Serif" font-size="10.00">array</text>
</a>
</g>
</g>
<!-- Node7&#45;&gt;Node9 -->
<g id="edge8" class="edge">
<title>Node7&#45;&gt;Node9</title>
<path fill="none" stroke="midnightblue" d="M234.54,-56.44C263.62,-47.99 309.54,-34.62 357.98,-20.29"/>
<polygon fill="midnightblue" stroke="midnightblue" points="359.11,-23.61 367.7,-17.41 357.12,-16.89 359.11,-23.61"/>
</g>
<!-- Node10 -->
<g id="node10" class="node">
<title>Node10</title>
<g id="a_node10"><a xlink:title=" ">
<polygon fill="white" stroke="#bfbfbf" points="127.5,-0.5 127.5,-19.5 176.5,-19.5 176.5,-0.5 127.5,-0.5"/>
<text text-anchor="middle" x="152" y="-7.5" font-family="Helvetica,sans-Serif" font-size="10.00">cctype</text>
</a>
</g>
</g>
<!-- Node7&#45;&gt;Node10 -->
<g id="edge9" class="edge">
<title>Node7&#45;&gt;Node10</title>
<path fill="none" stroke="midnightblue" d="M196.25,-56.08C188.53,-48.22 177.1,-36.57 167.78,-27.08"/>
<polygon fill="midnightblue" stroke="midnightblue" points="170.09,-24.44 160.59,-19.75 165.1,-29.34 170.09,-24.44"/>
</g>
<!-- Node11 -->
<g id="node11" class="node">
<title>Node11</title>
<g id="a_node11"><a xlink:title=" ">
<polygon fill="white" stroke="#bfbfbf" points="194.5,-0.5 194.5,-19.5 267.5,-19.5 267.5,-0.5 194.5,-0.5"/>
<text text-anchor="middle" x="231" y="-7.5" font-family="Helvetica,sans-Serif" font-size="10.00">string_view</text>
</a>
</g>
</g>
<!-- Node7&#45;&gt;Node11 -->
<g id="edge11" class="edge">
<title>Node7&#45;&gt;Node11</title>
<path fill="none" stroke="midnightblue" d="M209.29,-56.08C212.85,-48.69 218.02,-37.95 222.42,-28.81"/>
<polygon fill="midnightblue" stroke="midnightblue" points="225.6,-30.28 226.79,-19.75 219.29,-27.24 225.6,-30.28"/>
</g>
<!-- Node12 -->
<g id="node12" class="node">
<title>Node12</title>
<g id="a_node12"><a xlink:title=" ">
<polygon fill="white" stroke="#bfbfbf" points="477.5,-0.5 477.5,-19.5 546.5,-19.5 546.5,-0.5 477.5,-0.5"/>
<text text-anchor="middle" x="512" y="-7.5" font-family="Helvetica,sans-Serif" font-size="10.00">type_traits</text>
</a>
</g>
</g>
<!-- Node7&#45;&gt;Node12 -->
<g id="edge12" class="edge">
<title>Node7&#45;&gt;Node12</title>
<path fill="none" stroke="midnightblue" d="M250.3,-57.03C308.67,-46.76 409.53,-29.02 467.51,-18.83"/>
<polygon fill="midnightblue" stroke="midnightblue" points="468.23,-22.25 477.47,-17.07 467.01,-15.36 468.23,-22.25"/>
</g>
<!-- Node16&#45;&gt;Node4 -->
<g id="edge40" class="edge">
<title>Node16&#45;&gt;Node4</title>
<path fill="none" stroke="midnightblue" d="M424.85,-170.12C349.05,-160.76 219.43,-143.8 173,-132 103.22,-114.27 62.18,-135.06 21,-76 11.73,-62.71 13.17,-43.87 16.23,-29.9"/>
<polygon fill="midnightblue" stroke="midnightblue" points="19.69,-30.49 18.85,-19.93 12.92,-28.71 19.69,-30.49"/>
</g>
<!-- Node16&#45;&gt;Node7 -->
<g id="edge36" class="edge">
<title>Node16&#45;&gt;Node7</title>
<path fill="none" stroke="midnightblue" d="M424.99,-170.38C340.19,-160.25 189.87,-141.14 182,-132 170.1,-118.18 180.51,-97.78 190.89,-83.53"/>
<polygon fill="midnightblue" stroke="midnightblue" points="193.73,-85.6 197.15,-75.57 188.22,-81.27 193.73,-85.6"/>
</g>
<!-- Node16&#45;&gt;Node14 -->
<g id="edge39" class="edge">
<title>Node16&#45;&gt;Node14</title>
<path fill="none" stroke="midnightblue" d="M475.49,-168.37C461.73,-150.14 429.5,-107.43 411.58,-83.68"/>
<polygon fill="midnightblue" stroke="midnightblue" points="414.3,-81.47 405.48,-75.59 408.71,-85.68 414.3,-81.47"/>
</g>
<!-- Node17 -->
<g id="node17" class="node">
<title>Node17</title>
<g id="a_node17"><a xlink:href="logger_8h.html" target="_top" xlink:title=" ">
<polygon fill="white" stroke="black" points="560.5,-112.5 560.5,-131.5 647.5,-131.5 647.5,-112.5 560.5,-112.5"/>
<text text-anchor="middle" x="604" y="-119.5" font-family="Helvetica,sans-Serif" font-size="10.00">ccf/ds/logger.h</text>
</a>
</g>
</g>
<!-- Node16&#45;&gt;Node17 -->
<g id="edge19" class="edge">
<title>Node16&#45;&gt;Node17</title>
<path fill="none" stroke="midnightblue" d="M501.33,-168.44C521.32,-159.6 552.74,-145.69 575.56,-135.59"/>
<polygon fill="midnightblue" stroke="midnightblue" points="577.03,-138.76 584.76,-131.52 574.2,-132.36 577.03,-138.76"/>
</g>
<!-- Node28 -->
<g id="node28" class="node">
<title>Node28</title>
<g id="a_node28"><a xlink:title=" ">
<polygon fill="white" stroke="#bfbfbf" points="665.5,-112.5 665.5,-131.5 726.5,-131.5 726.5,-112.5 665.5,-112.5"/>
<text text-anchor="middle" x="696" y="-119.5" font-family="Helvetica,sans-Serif" font-size="10.00">charconv</text>
</a>
</g>
</g>
<!-- Node16&#45;&gt;Node28 -->
<g id="edge37" class="edge">
<title>Node16&#45;&gt;Node28</title>
<path fill="none" stroke="midnightblue" d="M515.91,-168.44C553.83,-158.88 615.2,-143.39 655.58,-133.2"/>
<polygon fill="midnightblue" stroke="midnightblue" points="656.53,-136.57 665.37,-130.73 654.82,-129.78 656.53,-136.57"/>
</g>
<!-- Node29 -->
<g id="node29" class="node">
<title>Node29</title>
<g id="a_node29"><a xlink:title=" ">
<polygon fill="white" stroke="#bfbfbf" points="744.5,-112.5 744.5,-131.5 791.5,-131.5 791.5,-112.5 744.5,-112.5"/>
<text text-anchor="middle" x="768" y="-119.5" font-family="Helvetica,sans-Serif" font-size="10.00">cmath</text>
</a>
</g>
</g>
<!-- Node16&#45;&gt;Node29 -->
<g id="edge38" class="edge">
<title>Node16&#45;&gt;Node29</title>
<path fill="none" stroke="midnightblue" d="M538.56,-168.44C587.82,-160.64 661.32,-148.2 734.43,-131.96"/>
<polygon fill="midnightblue" stroke="midnightblue" points="735.28,-135.35 744.27,-129.75 733.75,-128.52 735.28,-135.35"/>
</g>
<!-- Node17&#45;&gt;Node12 -->
<g id="edge35" class="edge">
<title>Node17&#45;&gt;Node12</title>
<path fill="none" stroke="midnightblue" d="M596.78,-112.37C581.46,-94.05 545.5,-51.05 525.68,-27.36"/>
<polygon fill="midnightblue" stroke="midnightblue" points="528.29,-25.02 519.19,-19.59 522.92,-29.51 528.29,-25.02"/>
</g>
<!-- Node17&#45;&gt;Node13 -->
<g id="edge30" class="edge">
<title>Node17&#45;&gt;Node13</title>
<path fill="none" stroke="midnightblue" d="M641.9,-112.42C674.78,-104.12 718.69,-90.67 729,-76 746.45,-51.17 710.31,-33.15 677.3,-22.47"/>
<polygon fill="midnightblue" stroke="midnightblue" points="678.25,-19.1 667.67,-19.52 676.2,-25.79 678.25,-19.1"/>
</g>
<!-- Node17&#45;&gt;Node14 -->
<g id="edge32" class="edge">
<title>Node17&#45;&gt;Node14</title>
<path fill="none" stroke="midnightblue" d="M571.52,-112.44C536.28,-103.16 479.9,-88.31 441.24,-78.13"/>
<polygon fill="midnightblue" stroke="midnightblue" points="441.89,-74.68 431.33,-75.52 440.11,-81.45 441.89,-74.68"/>
</g>
<!-- Node17&#45;&gt;Node15 -->
<g id="edge34" class="edge">
<title>Node17&#45;&gt;Node15</title>
<path fill="none" stroke="midnightblue" d="M587.29,-112.32C570.69,-103.7 545,-90.36 525.78,-80.39"/>
<polygon fill="midnightblue" stroke="midnightblue" points="527.16,-77.16 516.67,-75.65 523.93,-83.37 527.16,-77.16"/>
</g>
<!-- Node18 -->
<g id="node18" class="node">
<title>Node18</title>
<g id="a_node18"><a xlink:href="enum__formatter_8h.html" target="_top" xlink:title=" ">
<polygon fill="white" stroke="black" points="584,-56.5 584,-75.5 720,-75.5 720,-56.5 584,-56.5"/>
<text text-anchor="middle" x="652" y="-63.5" font-family="Helvetica,sans-Serif" font-size="10.00">ccf/ds/enum_formatter.h</text>
</a>
</g>
</g>
<!-- Node17&#45;&gt;Node18 -->
<g id="edge20" class="edge">
<title>Node17&#45;&gt;Node18</title>
<path fill="none" stroke="midnightblue" d="M611.93,-112.08C618.85,-104.3 629.07,-92.8 637.45,-83.37"/>
<polygon fill="midnightblue" stroke="midnightblue" points="640.19,-85.55 644.22,-75.75 634.96,-80.9 640.19,-85.55"/>
</g>
<!-- Node19 -->
<g id="node19" class="node">
<title>Node19</title>
<g id="a_node19"><a xlink:href="thread__ids_8h.html" target="_top" xlink:title=" ">
<polygon fill="white" stroke="black" points="776,-56.5 776,-75.5 884,-75.5 884,-56.5 776,-56.5"/>
<text text-anchor="middle" x="830" y="-63.5" font-family="Helvetica,sans-Serif" font-size="10.00">ccf/ds/thread_ids.h</text>
</a>
</g>
</g>
<!-- Node17&#45;&gt;Node19 -->
<g id="edge22" class="edge">
<title>Node17&#45;&gt;Node19</title>
<path fill="none" stroke="midnightblue" d="M639.81,-112.44C678.99,-103.08 741.88,-88.06 784.52,-77.87"/>
<polygon fill="midnightblue" stroke="midnightblue" points="785.44,-81.24 794.36,-75.52 783.82,-74.44 785.44,-81.24"/>
</g>
<!-- Node25 -->
<g id="node25" class="node">
<title>Node25</title>
<g id="a_node25"><a xlink:title=" ">
<polygon fill="white" stroke="#bfbfbf" points="902.5,-56.5 902.5,-75.5 981.5,-75.5 981.5,-56.5 902.5,-56.5"/>
<text text-anchor="middle" x="942" y="-63.5" font-family="Helvetica,sans-Serif" font-size="10.00">fmt/chrono.h</text>
</a>
</g>
</g>
<!-- Node17&#45;&gt;Node25 -->
<g id="edge29" class="edge">
<title>Node17&#45;&gt;Node25</title>
<path fill="none" stroke="midnightblue" d="M647.68,-113.37C650.5,-112.9 653.29,-112.44 656,-112 757.98,-95.43 786.23,-93.72 892.27,-76.07"/>
<polygon fill="midnightblue" stroke="midnightblue" points="893.15,-79.48 902.44,-74.37 892,-72.57 893.15,-79.48"/>
</g>
<!-- Node26 -->
<g id="node26" class="node">
<title>Node26</title>
<g id="a_node26"><a xlink:title=" ">
<polygon fill="white" stroke="#bfbfbf" points="999,-56.5 999,-75.5 1059,-75.5 1059,-56.5 999,-56.5"/>
<text text-anchor="middle" x="1029" y="-63.5" font-family="Helvetica,sans-Serif" font-size="10.00">iostream</text>
</a>
</g>
</g>
<!-- Node17&#45;&gt;Node26 -->
<g id="edge31" class="edge">
<title>Node17&#45;&gt;Node26</title>
<path fill="none" stroke="midnightblue" d="M647.66,-113.23C650.48,-112.8 653.28,-112.38 656,-112 800.68,-91.7 841.05,-100.43 988.94,-75.99"/>
<polygon fill="midnightblue" stroke="midnightblue" points="989.55,-79.44 998.84,-74.34 988.4,-72.54 989.55,-79.44"/>
</g>
<!-- Node17&#45;&gt;Node27 -->
<g id="edge33" class="edge">
<title>Node17&#45;&gt;Node27</title>
<path fill="none" stroke="midnightblue" d="M647.65,-113.17C650.47,-112.75 653.27,-112.35 656,-112 835.07,-88.72 884.88,-105.2 1066.91,-75.94"/>
<polygon fill="midnightblue" stroke="midnightblue" points="1067.5,-79.39 1076.81,-74.32 1066.38,-72.48 1067.5,-79.39"/>
</g>
<!-- Node18&#45;&gt;Node13 -->
<g id="edge21" class="edge">
<title>Node18&#45;&gt;Node13</title>
<path fill="none" stroke="midnightblue" d="M648.7,-56.08C646.02,-48.85 642.15,-38.41 638.81,-29.4"/>
<polygon fill="midnightblue" stroke="midnightblue" points="642,-27.91 635.24,-19.75 635.43,-30.34 642,-27.91"/>
</g>
<!-- Node19&#45;&gt;Node13 -->
<g id="edge23" class="edge">
<title>Node19&#45;&gt;Node13</title>
<path fill="none" stroke="midnightblue" d="M798.63,-56.44C764.74,-47.2 710.6,-32.44 673.28,-22.26"/>
<polygon fill="midnightblue" stroke="midnightblue" points="673.8,-18.77 663.23,-19.52 671.95,-25.52 673.8,-18.77"/>
</g>
<!-- Node20 -->
<g id="node20" class="node">
<title>Node20</title>
<g id="a_node20"><a xlink:title=" ">
<polygon fill="white" stroke="#bfbfbf" points="953,-0.5 953,-19.5 1039,-19.5 1039,-0.5 953,-0.5"/>
<text text-anchor="middle" x="996" y="-7.5" font-family="Helvetica,sans-Serif" font-size="10.00">fmt/ostream.h</text>
</a>
</g>
</g>
<!-- Node19&#45;&gt;Node20 -->
<g id="edge24" class="edge">
<title>Node19&#45;&gt;Node20</title>
<path fill="none" stroke="midnightblue" d="M856.3,-56.44C884.35,-47.32 928.94,-32.81 960.18,-22.65"/>
<polygon fill="midnightblue" stroke="midnightblue" points="961.39,-25.94 969.82,-19.52 959.23,-19.28 961.39,-25.94"/>
</g>
<!-- Node21 -->
<g id="node21" class="node">
<title>Node21</title>
<g id="a_node21"><a xlink:title=" ">
<polygon fill="white" stroke="#bfbfbf" points="689.5,-0.5 689.5,-19.5 750.5,-19.5 750.5,-0.5 689.5,-0.5"/>
<text text-anchor="middle" x="720" y="-7.5" font-family="Helvetica,sans-Serif" font-size="10.00">fmt/std.h</text>
</a>
</g>
</g>
<!-- Node19&#45;&gt;Node21 -->
<g id="edge25" class="edge">
<title>Node19&#45;&gt;Node21</title>
<path fill="none" stroke="midnightblue" d="M812.33,-56.32C794.61,-47.62 767.1,-34.12 746.71,-24.11"/>
<polygon fill="midnightblue" stroke="midnightblue" points="748.15,-20.92 737.63,-19.65 745.06,-27.2 748.15,-20.92"/>
</g>
<!-- Node22 -->
<g id="node22" class="node">
<title>Node22</title>
<g id="a_node22"><a xlink:title=" ">
<polygon fill="white" stroke="#bfbfbf" points="769,-0.5 769,-19.5 813,-19.5 813,-0.5 769,-0.5"/>
<text text-anchor="middle" x="791" y="-7.5" font-family="Helvetica,sans-Serif" font-size="10.00">limits</text>
</a>
</g>
</g>
<!-- Node19&#45;&gt;Node22 -->
<g id="edge26" class="edge">
<title>Node19&#45;&gt;Node22</title>
<path fill="none" stroke="midnightblue" d="M823.56,-56.08C818.05,-48.46 809.97,-37.26 803.24,-27.94"/>
<polygon fill="midnightblue" stroke="midnightblue" points="806.01,-25.81 797.32,-19.75 800.34,-29.91 806.01,-25.81"/>
</g>
<!-- Node23 -->
<g id="node23" class="node">
<title>Node23</title>
<g id="a_node23"><a xlink:title=" ">
<polygon fill="white" stroke="#bfbfbf" points="831,-0.5 831,-19.5 869,-19.5 869,-0.5 831,-0.5"/>
<text text-anchor="middle" x="850" y="-7.5" font-family="Helvetica,sans-Serif" font-size="10.00">map</text>
</a>
</g>
</g>
<!-- Node19&#45;&gt;Node23 -->
<g id="edge27" class="edge">
<title>Node19&#45;&gt;Node23</title>
<path fill="none" stroke="midnightblue" d="M833.3,-56.08C835.98,-48.85 839.85,-38.41 843.19,-29.4"/>
<polygon fill="midnightblue" stroke="midnightblue" points="846.57,-30.34 846.76,-19.75 840,-27.91 846.57,-30.34"/>
</g>
<!-- Node24 -->
<g id="node24" class="node">
<title>Node24</title>
<g id="a_node24"><a xlink:title=" ">
<polygon fill="white" stroke="#bfbfbf" points="887,-0.5 887,-19.5 935,-19.5 935,-0.5 887,-0.5"/>
<text text-anchor="middle" x="911" y="-7.5" font-family="Helvetica,sans-Serif" font-size="10.00">thread</text>
</a>
</g>
</g>
<!-- Node19&#45;&gt;Node24 -->
<g id="edge28" class="edge">
<title>Node19&#45;&gt;Node24</title>
<path fill="none" stroke="midnightblue" d="M843.01,-56.32C855.53,-47.98 874.68,-35.21 889.47,-25.35"/>
<polygon fill="midnightblue" stroke="midnightblue" points="891.64,-28.11 898.02,-19.65 887.76,-22.29 891.64,-28.11"/>
</g>
</g>
</svg>
