<?xml version="1.0" encoding="UTF-8" standalone="no"?>
<!DOCTYPE svg PUBLIC "-//W3C//DTD SVG 1.1//EN"
 "http://www.w3.org/Graphics/SVG/1.1/DTD/svg11.dtd">
<!-- Generated by graphviz version 2.43.0 (0)
 -->
<!-- Title: src/http/http_rpc_context.h Pages: 1 -->
<!--zoomable 509 -->
<svg id="main" version="1.1" xmlns="http://www.w3.org/2000/svg" xmlns:xlink="http://www.w3.org/1999/xlink" xml:space="preserve" onload="init(evt)">
<style type="text/css"><![CDATA[
.edge:hover path { stroke: red; }
.edge:hover polygon { stroke: red; fill: red; }
]]></style>
<script type="text/javascript"><![CDATA[
var edges = document.getElementsByTagName('g');
if (edges && edges.length) {
  for (var i=0;i<edges.length;i++) {
    if (edges[i].id.substr(0,4)=='edge') {
      edges[i].setAttribute('class','edge');
    }
  }
}
]]></script>
        <defs>
                <circle id="rim" cx="0" cy="0" r="7"/>
                <circle id="rim2" cx="0" cy="0" r="3.5"/>
                <g id="zoomPlus">
                        <use xlink:href="#rim" fill="#404040">
                                <set attributeName="fill" to="#808080" begin="zoomplus.mouseover" end="zoomplus.mouseout"/>
                        </use>
                        <path d="M-4,0h8M0,-4v8" fill="none" stroke="white" stroke-width="1.5" pointer-events="none"/>
                </g>
                <g id="zoomMin">
                        <use xlink:href="#rim" fill="#404040">
                                <set attributeName="fill" to="#808080" begin="zoomminus.mouseover" end="zoomminus.mouseout"/>
                        </use>
                        <path d="M-4,0h8" fill="none" stroke="white" stroke-width="1.5" pointer-events="none"/>
                </g>
                <g id="dirArrow">
                        <path fill="none" stroke="white" stroke-width="1.5" d="M0,-3.0v7 M-2.5,-0.5L0,-3.0L2.5,-0.5"/>
                </g>
               <g id="resetDef">
                       <use xlink:href="#rim2" fill="#404040">
                               <set attributeName="fill" to="#808080" begin="reset.mouseover" end="reset.mouseout"/>
                       </use>
               </g>
        </defs>

<script type="text/javascript">
var viewWidth = 1029;
var viewHeight = 509;
var sectionId = 'dynsection-1';
</script>
<script xlink:href="svgpan.js"/>
<svg id="graph" class="graph">
<g id="viewport">
<title>src/http/http_rpc_context.h</title>
<polygon fill="white" stroke="transparent" points="-4,4 -4,-505 1024.85,-505 1024.85,4 -4,4"/>
<!-- Node1 -->
<g id="node1" class="node">
<title>Node1</title>
<g id="a_node1"><a xlink:title=" ">
<polygon fill="#bfbfbf" stroke="black" points="364.13,-481.5 364.13,-500.5 511.13,-500.5 511.13,-481.5 364.13,-481.5"/>
<text text-anchor="middle" x="437.63" y="-488.5" font-family="Helvetica,sans-Serif" font-size="10.00">src/http/http_rpc_context.h</text>
</a>
</g>
</g>
<!-- Node2 -->
<g id="node2" class="node">
<title>Node2</title>
<g id="a_node2"><a xlink:href="http2_8h.html" target="_top" xlink:title=" ">
<polygon fill="white" stroke="black" points="392.13,-425.5 392.13,-444.5 483.13,-444.5 483.13,-425.5 392.13,-425.5"/>
<text text-anchor="middle" x="437.63" y="-432.5" font-family="Helvetica,sans-Serif" font-size="10.00">src/http/http2.h</text>
</a>
</g>
</g>
<!-- Node1&#45;&gt;Node2 -->
<g id="edge1" class="edge">
<title>Node1&#45;&gt;Node2</title>
<path fill="none" stroke="midnightblue" d="M437.63,-470.8C437.63,-461.91 437.63,-451.78 437.63,-444.75"/>
<polygon fill="midnightblue" stroke="midnightblue" points="434.13,-471.08 437.63,-481.08 441.13,-471.08 434.13,-471.08"/>
</g>
<!-- Node3 -->
<g id="node3" class="node">
<title>Node3</title>
<g id="a_node3"><a xlink:href="http2__endpoint_8h.html" target="_top" xlink:title=" ">
<polygon fill="white" stroke="black" points="344.13,-369.5 344.13,-388.5 483.13,-388.5 483.13,-369.5 344.13,-369.5"/>
<text text-anchor="middle" x="413.63" y="-376.5" font-family="Helvetica,sans-Serif" font-size="10.00">src/http/http2_endpoint.h</text>
</a>
</g>
</g>
<!-- Node1&#45;&gt;Node3 -->
<g id="edge16" class="edge">
<title>Node1&#45;&gt;Node3</title>
<path fill="none" stroke="midnightblue" d="M412.45,-476C401.44,-468.4 389.67,-457.91 383.63,-445 374.24,-424.97 392.41,-401.37 404.35,-388.85"/>
<polygon fill="midnightblue" stroke="midnightblue" points="410.68,-479.03 420.99,-481.46 414.45,-473.13 410.68,-479.03"/>
</g>
<!-- Node12 -->
<g id="node12" class="node">
<title>Node12</title>
<g id="a_node12"><a xlink:href="http__endpoint_8h.html" target="_top" xlink:title=" ">
<polygon fill="white" stroke="black" points="193.13,-369.5 193.13,-388.5 326.13,-388.5 326.13,-369.5 193.13,-369.5"/>
<text text-anchor="middle" x="259.63" y="-376.5" font-family="Helvetica,sans-Serif" font-size="10.00">src/http/http_endpoint.h</text>
</a>
</g>
</g>
<!-- Node1&#45;&gt;Node12 -->
<g id="edge17" class="edge">
<title>Node1&#45;&gt;Node12</title>
<path fill="none" stroke="midnightblue" d="M414.99,-476.01C377.62,-452.92 304.14,-407.51 273.53,-388.59"/>
<polygon fill="midnightblue" stroke="midnightblue" points="413.31,-479.09 423.66,-481.37 416.99,-473.13 413.31,-479.09"/>
</g>
<!-- Node13 -->
<g id="node13" class="node">
<title>Node13</title>
<g id="a_node13"><a xlink:href="jwt__key__auto__refresh_8h.html" target="_top" xlink:title=" ">
<polygon fill="white" stroke="black" points="578.13,-235.5 578.13,-265.5 703.13,-265.5 703.13,-235.5 578.13,-235.5"/>
<text text-anchor="start" x="586.13" y="-253.5" font-family="Helvetica,sans-Serif" font-size="10.00">src/node/jwt_key_auto</text>
<text text-anchor="middle" x="640.63" y="-242.5" font-family="Helvetica,sans-Serif" font-size="10.00">_refresh.h</text>
</a>
</g>
</g>
<!-- Node1&#45;&gt;Node13 -->
<g id="edge19" class="edge">
<title>Node1&#45;&gt;Node13</title>
<path fill="none" stroke="midnightblue" d="M459.34,-475.39C470.25,-467.32 483.12,-456.59 492.63,-445 538.26,-389.34 520.96,-355.93 568.63,-302 581.67,-287.24 599.85,-274.53 614.68,-265.56"/>
<polygon fill="midnightblue" stroke="midnightblue" points="457.23,-472.6 451.12,-481.26 461.3,-478.3 457.23,-472.6"/>
</g>
<!-- Node14 -->
<g id="node14" class="node">
<title>Node14</title>
<g id="a_node14"><a xlink:href="forwarder_8h.html" target="_top" xlink:title=" ">
<polygon fill="white" stroke="black" points="747.63,-425.5 747.63,-444.5 881.63,-444.5 881.63,-425.5 747.63,-425.5"/>
<text text-anchor="middle" x="814.63" y="-432.5" font-family="Helvetica,sans-Serif" font-size="10.00">src/node/rpc/forwarder.h</text>
</a>
</g>
</g>
<!-- Node1&#45;&gt;Node14 -->
<g id="edge21" class="edge">
<title>Node1&#45;&gt;Node14</title>
<path fill="none" stroke="midnightblue" d="M507.58,-479.98C578.8,-469.78 688,-454.14 755.17,-444.52"/>
<polygon fill="midnightblue" stroke="midnightblue" points="506.77,-476.56 497.36,-481.44 507.76,-483.49 506.77,-476.56"/>
</g>
<!-- Node2&#45;&gt;Node3 -->
<g id="edge2" class="edge">
<title>Node2&#45;&gt;Node3</title>
<path fill="none" stroke="midnightblue" d="M429.49,-415.69C425.44,-406.59 420.74,-396.01 417.52,-388.75"/>
<polygon fill="midnightblue" stroke="midnightblue" points="426.4,-417.37 433.66,-425.08 432.8,-414.52 426.4,-417.37"/>
</g>
<!-- Node4 -->
<g id="node4" class="node">
<title>Node4</title>
<g id="a_node4"><a xlink:href="rpc__sessions_8h.html" target="_top" xlink:title=" ">
<polygon fill="white" stroke="black" points="186.63,-308 186.63,-327 332.63,-327 332.63,-308 186.63,-308"/>
<text text-anchor="middle" x="259.63" y="-315" font-family="Helvetica,sans-Serif" font-size="10.00">src/enclave/rpc_sessions.h</text>
</a>
</g>
</g>
<!-- Node3&#45;&gt;Node4 -->
<g id="edge3" class="edge">
<title>Node3&#45;&gt;Node4</title>
<path fill="none" stroke="midnightblue" d="M382,-365.78C352.08,-354.22 307.93,-337.16 281.65,-327.01"/>
<polygon fill="midnightblue" stroke="midnightblue" points="380.97,-369.14 391.56,-369.48 383.49,-362.61 380.97,-369.14"/>
</g>
<!-- Node5 -->
<g id="node5" class="node">
<title>Node5</title>
<g id="a_node5"><a xlink:href="src_2enclave_2enclave_8h.html" target="_top" xlink:title=" ">
<polygon fill="white" stroke="black" points="689.63,-56.5 689.63,-75.5 811.63,-75.5 811.63,-56.5 689.63,-56.5"/>
<text text-anchor="middle" x="750.63" y="-63.5" font-family="Helvetica,sans-Serif" font-size="10.00">src/enclave/enclave.h</text>
</a>
</g>
</g>
<!-- Node4&#45;&gt;Node5 -->
<g id="edge4" class="edge">
<title>Node4&#45;&gt;Node5</title>
<path fill="none" stroke="midnightblue" d="M176.09,-315.62C86.59,-311.63 -36.65,-295.47 10.63,-235 94.72,-127.46 527.65,-83.93 689.49,-71.26"/>
<polygon fill="midnightblue" stroke="midnightblue" points="176.14,-319.13 186.28,-316.03 176.42,-312.13 176.14,-319.13"/>
</g>
<!-- Node7 -->
<g id="node7" class="node">
<title>Node7</title>
<g id="a_node7"><a xlink:href="ccf__acme__client_8h.html" target="_top" xlink:title=" ">
<polygon fill="white" stroke="black" points="373.13,-241 373.13,-260 522.13,-260 522.13,-241 373.13,-241"/>
<text text-anchor="middle" x="447.63" y="-248" font-family="Helvetica,sans-Serif" font-size="10.00">src/node/ccf_acme_client.h</text>
</a>
</g>
</g>
<!-- Node4&#45;&gt;Node7 -->
<g id="edge6" class="edge">
<title>Node4&#45;&gt;Node7</title>
<path fill="none" stroke="midnightblue" d="M294.52,-304.44C331.81,-291.54 390,-271.42 422.86,-260.06"/>
<polygon fill="midnightblue" stroke="midnightblue" points="292.9,-301.29 284.59,-307.87 295.19,-307.91 292.9,-301.29"/>
</g>
<!-- Node8 -->
<g id="node8" class="node">
<title>Node8</title>
<g id="a_node8"><a xlink:href="node__state_8h.html" target="_top" xlink:title=" ">
<polygon fill="white" stroke="black" points="395.63,-174 395.63,-193 519.63,-193 519.63,-174 395.63,-174"/>
<text text-anchor="middle" x="457.63" y="-181" font-family="Helvetica,sans-Serif" font-size="10.00">src/node/node_state.h</text>
</a>
</g>
</g>
<!-- Node4&#45;&gt;Node8 -->
<g id="edge11" class="edge">
<title>Node4&#45;&gt;Node8</title>
<path fill="none" stroke="midnightblue" d="M279.66,-301.71C293.06,-291.75 311.02,-278.24 326.63,-266 343.78,-252.55 346.53,-247.14 364.63,-235 389.5,-218.32 420.4,-202.41 439.57,-193.05"/>
<polygon fill="midnightblue" stroke="midnightblue" points="277.54,-298.93 271.59,-307.7 281.71,-304.55 277.54,-298.93"/>
</g>
<!-- Node10 -->
<g id="node10" class="node">
<title>Node10</title>
<g id="a_node10"><a xlink:href="quote__endorsements__client_8h.html" target="_top" xlink:title=" ">
<polygon fill="white" stroke="black" points="19.63,-235.5 19.63,-265.5 183.63,-265.5 183.63,-235.5 19.63,-235.5"/>
<text text-anchor="start" x="27.63" y="-253.5" font-family="Helvetica,sans-Serif" font-size="10.00">src/node/quote_endorsements</text>
<text text-anchor="middle" x="101.63" y="-242.5" font-family="Helvetica,sans-Serif" font-size="10.00">_client.h</text>
</a>
</g>
</g>
<!-- Node4&#45;&gt;Node10 -->
<g id="edge12" class="edge">
<title>Node4&#45;&gt;Node10</title>
<path fill="none" stroke="midnightblue" d="M229.38,-304.06C202.62,-293.05 163.59,-276.99 135.72,-265.53"/>
<polygon fill="midnightblue" stroke="midnightblue" points="228.06,-307.3 238.64,-307.87 230.73,-300.83 228.06,-307.3"/>
</g>
<!-- Node11 -->
<g id="node11" class="node">
<title>Node11</title>
<g id="a_node11"><a xlink:href="resharing_8h.html" target="_top" xlink:title=" ">
<polygon fill="white" stroke="black" points="201.63,-241 201.63,-260 317.63,-260 317.63,-241 201.63,-241"/>
<text text-anchor="middle" x="259.63" y="-248" font-family="Helvetica,sans-Serif" font-size="10.00">src/node/resharing.h</text>
</a>
</g>
</g>
<!-- Node4&#45;&gt;Node11 -->
<g id="edge14" class="edge">
<title>Node4&#45;&gt;Node11</title>
<path fill="none" stroke="midnightblue" d="M259.63,-297.54C259.63,-285.17 259.63,-269.62 259.63,-260.13"/>
<polygon fill="midnightblue" stroke="midnightblue" points="256.13,-297.73 259.63,-307.73 263.13,-297.73 256.13,-297.73"/>
</g>
<!-- Node6 -->
<g id="node6" class="node">
<title>Node6</title>
<g id="a_node6"><a xlink:href="enclave_2main_8cpp.html" target="_top" xlink:title=" ">
<polygon fill="white" stroke="black" points="690.63,-0.5 690.63,-19.5 810.63,-19.5 810.63,-0.5 690.63,-0.5"/>
<text text-anchor="middle" x="750.63" y="-7.5" font-family="Helvetica,sans-Serif" font-size="10.00">src/enclave/main.cpp</text>
</a>
</g>
</g>
<!-- Node5&#45;&gt;Node6 -->
<g id="edge5" class="edge">
<title>Node5&#45;&gt;Node6</title>
<path fill="none" stroke="midnightblue" d="M750.63,-45.8C750.63,-36.91 750.63,-26.78 750.63,-19.75"/>
<polygon fill="midnightblue" stroke="midnightblue" points="747.13,-46.08 750.63,-56.08 754.13,-46.08 747.13,-46.08"/>
</g>
<!-- Node7&#45;&gt;Node8 -->
<g id="edge7" class="edge">
<title>Node7&#45;&gt;Node8</title>
<path fill="none" stroke="midnightblue" d="M450.54,-230.54C452.45,-218.17 454.84,-202.62 456.3,-193.13"/>
<polygon fill="midnightblue" stroke="midnightblue" points="447.04,-230.32 448.97,-240.73 453.95,-231.38 447.04,-230.32"/>
</g>
<!-- Node8&#45;&gt;Node5 -->
<g id="edge8" class="edge">
<title>Node8&#45;&gt;Node5</title>
<path fill="none" stroke="midnightblue" d="M472.19,-165.85C487.38,-149.57 512.7,-125.35 539.63,-112 586.78,-88.63 645.73,-77.36 689.32,-71.94"/>
<polygon fill="midnightblue" stroke="midnightblue" points="469.34,-163.78 465.21,-173.54 474.53,-168.48 469.34,-163.78"/>
</g>
<!-- Node9 -->
<g id="node9" class="node">
<title>Node9</title>
<g id="a_node9"><a xlink:href="gov__effects_8h.html" target="_top" xlink:title=" ">
<polygon fill="white" stroke="black" points="548.63,-112.5 548.63,-131.5 692.63,-131.5 692.63,-112.5 548.63,-112.5"/>
<text text-anchor="middle" x="620.63" y="-119.5" font-family="Helvetica,sans-Serif" font-size="10.00">src/node/rpc/gov_effects.h</text>
</a>
</g>
</g>
<!-- Node8&#45;&gt;Node9 -->
<g id="edge9" class="edge">
<title>Node8&#45;&gt;Node9</title>
<path fill="none" stroke="midnightblue" d="M490.68,-170.43C522.36,-158.87 569.37,-141.71 597.32,-131.51"/>
<polygon fill="midnightblue" stroke="midnightblue" points="489.17,-167.26 480.98,-173.98 491.57,-173.83 489.17,-167.26"/>
</g>
<!-- Node9&#45;&gt;Node5 -->
<g id="edge10" class="edge">
<title>Node9&#45;&gt;Node5</title>
<path fill="none" stroke="midnightblue" d="M650.71,-108.5C675.08,-98.38 708.77,-84.39 730.12,-75.52"/>
<polygon fill="midnightblue" stroke="midnightblue" points="649.12,-105.38 641.22,-112.44 651.8,-111.84 649.12,-105.38"/>
</g>
<!-- Node10&#45;&gt;Node8 -->
<g id="edge13" class="edge">
<title>Node10&#45;&gt;Node8</title>
<path fill="none" stroke="midnightblue" d="M188.58,-233.62C258.68,-220.82 354.57,-203.32 410.91,-193.03"/>
<polygon fill="midnightblue" stroke="midnightblue" points="187.64,-230.24 178.43,-235.48 188.9,-237.12 187.64,-230.24"/>
</g>
<!-- Node11&#45;&gt;Node8 -->
<g id="edge15" class="edge">
<title>Node11&#45;&gt;Node8</title>
<path fill="none" stroke="midnightblue" d="M295.62,-237.68C334.87,-224.8 396.71,-204.5 431.54,-193.06"/>
<polygon fill="midnightblue" stroke="midnightblue" points="294.33,-234.42 285.92,-240.87 296.51,-241.07 294.33,-234.42"/>
</g>
<!-- Node12&#45;&gt;Node4 -->
<g id="edge18" class="edge">
<title>Node12&#45;&gt;Node4</title>
<path fill="none" stroke="midnightblue" d="M259.63,-359.32C259.63,-348.5 259.63,-335.4 259.63,-327.01"/>
<polygon fill="midnightblue" stroke="midnightblue" points="256.13,-359.48 259.63,-369.48 263.13,-359.48 256.13,-359.48"/>
</g>
<!-- Node13&#45;&gt;Node8 -->
<g id="edge20" class="edge">
<title>Node13&#45;&gt;Node8</title>
<path fill="none" stroke="midnightblue" d="M591.2,-231.95C555.66,-219.32 509.29,-202.85 481.58,-193.01"/>
<polygon fill="midnightblue" stroke="midnightblue" points="590.32,-235.35 600.92,-235.4 592.67,-228.75 590.32,-235.35"/>
</g>
<!-- Node14&#45;&gt;Node5 -->
<g id="edge22" class="edge">
<title>Node14&#45;&gt;Node5</title>
<path fill="none" stroke="midnightblue" d="M887.32,-423.34C946.27,-410.1 1019.63,-381.06 1019.63,-318.5 1019.63,-318.5 1019.63,-318.5 1019.63,-182.5 1019.63,-150.05 1024.53,-133.95 1000.63,-112 973.71,-87.28 876.84,-75.71 811.89,-70.62"/>
<polygon fill="midnightblue" stroke="midnightblue" points="886.3,-419.98 877.25,-425.49 887.76,-426.83 886.3,-419.98"/>
</g>
<!-- Node15 -->
<g id="node15" class="node">
<title>Node15</title>
<g id="a_node15"><a xlink:href="frontend_8h.html" target="_top" xlink:title=" ">
<polygon fill="white" stroke="black" points="750.13,-369.5 750.13,-388.5 879.13,-388.5 879.13,-369.5 750.13,-369.5"/>
<text text-anchor="middle" x="814.63" y="-376.5" font-family="Helvetica,sans-Serif" font-size="10.00">src/node/rpc/frontend.h</text>
</a>
</g>
</g>
<!-- Node14&#45;&gt;Node15 -->
<g id="edge23" class="edge">
<title>Node14&#45;&gt;Node15</title>
<path fill="none" stroke="midnightblue" d="M814.63,-414.8C814.63,-405.91 814.63,-395.78 814.63,-388.75"/>
<polygon fill="midnightblue" stroke="midnightblue" points="811.13,-415.08 814.63,-425.08 818.13,-415.08 811.13,-415.08"/>
</g>
<!-- Node15&#45;&gt;Node8 -->
<g id="edge27" class="edge">
<title>Node15&#45;&gt;Node8</title>
<path fill="none" stroke="midnightblue" d="M739.86,-372.37C677.26,-366.23 594.16,-354.31 568.63,-333 532.88,-303.17 560.41,-271.59 531.63,-235 516.72,-216.05 492.74,-201.54 476.13,-193.03"/>
<polygon fill="midnightblue" stroke="midnightblue" points="739.82,-375.88 750.11,-373.34 740.48,-368.91 739.82,-375.88"/>
</g>
<!-- Node16 -->
<g id="node16" class="node">
<title>Node16</title>
<g id="a_node16"><a xlink:href="acme__challenge__frontend_8h.html" target="_top" xlink:title=" ">
<polygon fill="white" stroke="black" points="577.63,-302.5 577.63,-332.5 717.63,-332.5 717.63,-302.5 577.63,-302.5"/>
<text text-anchor="start" x="585.63" y="-320.5" font-family="Helvetica,sans-Serif" font-size="10.00">src/node/acme_challenge</text>
<text text-anchor="middle" x="647.63" y="-309.5" font-family="Helvetica,sans-Serif" font-size="10.00">_frontend.h</text>
</a>
</g>
</g>
<!-- Node15&#45;&gt;Node16 -->
<g id="edge24" class="edge">
<title>Node15&#45;&gt;Node16</title>
<path fill="none" stroke="midnightblue" d="M781.23,-366.1C754.06,-356.42 715.65,-342.74 686.98,-332.52"/>
<polygon fill="midnightblue" stroke="midnightblue" points="780.1,-369.42 790.7,-369.48 782.45,-362.82 780.1,-369.42"/>
</g>
<!-- Node17 -->
<g id="node17" class="node">
<title>Node17</title>
<g id="a_node17"><a xlink:href="member__frontend_8h.html" target="_top" xlink:title=" ">
<polygon fill="white" stroke="black" points="804.63,-168.5 804.63,-198.5 924.63,-198.5 924.63,-168.5 804.63,-168.5"/>
<text text-anchor="start" x="812.63" y="-186.5" font-family="Helvetica,sans-Serif" font-size="10.00">src/node/rpc/member</text>
<text text-anchor="middle" x="864.63" y="-175.5" font-family="Helvetica,sans-Serif" font-size="10.00">_frontend.h</text>
</a>
</g>
</g>
<!-- Node15&#45;&gt;Node17 -->
<g id="edge28" class="edge">
<title>Node15&#45;&gt;Node17</title>
<path fill="none" stroke="midnightblue" d="M860.01,-365.77C876.36,-358.93 893.12,-348.54 902.63,-333 929.57,-288.96 893.85,-226.39 874.97,-198.66"/>
<polygon fill="midnightblue" stroke="midnightblue" points="858.58,-362.57 850.48,-369.4 861.07,-369.11 858.58,-362.57"/>
</g>
<!-- Node18 -->
<g id="node18" class="node">
<title>Node18</title>
<g id="a_node18"><a xlink:href="node__frontend_8h.html" target="_top" xlink:title=" ">
<polygon fill="white" stroke="black" points="735.63,-308 735.63,-327 893.63,-327 893.63,-308 735.63,-308"/>
<text text-anchor="middle" x="814.63" y="-315" font-family="Helvetica,sans-Serif" font-size="10.00">src/node/rpc/node_frontend.h</text>
</a>
</g>
</g>
<!-- Node15&#45;&gt;Node18 -->
<g id="edge30" class="edge">
<title>Node15&#45;&gt;Node18</title>
<path fill="none" stroke="midnightblue" d="M814.63,-359.32C814.63,-348.5 814.63,-335.4 814.63,-327.01"/>
<polygon fill="midnightblue" stroke="midnightblue" points="811.13,-359.48 814.63,-369.48 818.13,-359.48 811.13,-359.48"/>
</g>
<!-- Node19 -->
<g id="node19" class="node">
<title>Node19</title>
<g id="a_node19"><a xlink:href="user__frontend_8h.html" target="_top" xlink:title=" ">
<polygon fill="white" stroke="black" points="836.13,-112.5 836.13,-131.5 991.13,-131.5 991.13,-112.5 836.13,-112.5"/>
<text text-anchor="middle" x="913.63" y="-119.5" font-family="Helvetica,sans-Serif" font-size="10.00">src/node/rpc/user_frontend.h</text>
</a>
</g>
</g>
<!-- Node15&#45;&gt;Node19 -->
<g id="edge33" class="edge">
<title>Node15&#45;&gt;Node19</title>
<path fill="none" stroke="midnightblue" d="M871.29,-366.29C889.86,-359.61 908.74,-349.2 920.63,-333 964.14,-273.69 948.9,-239.96 933.63,-168 930.79,-154.62 923.68,-140.39 918.76,-131.59"/>
<polygon fill="midnightblue" stroke="midnightblue" points="870.07,-363.01 861.66,-369.45 872.25,-369.66 870.07,-363.01"/>
</g>
<!-- Node16&#45;&gt;Node5 -->
<g id="edge25" class="edge">
<title>Node16&#45;&gt;Node5</title>
<path fill="none" stroke="midnightblue" d="M682.44,-296.58C693.7,-288.48 705.19,-278.14 712.63,-266 752.12,-201.51 752.08,-104.98 751.05,-75.72"/>
<polygon fill="midnightblue" stroke="midnightblue" points="680.26,-293.83 673.94,-302.33 684.18,-299.62 680.26,-293.83"/>
</g>
<!-- Node16&#45;&gt;Node7 -->
<g id="edge26" class="edge">
<title>Node16&#45;&gt;Node7</title>
<path fill="none" stroke="midnightblue" d="M594.61,-299.27C555.64,-286.6 504.35,-269.93 473.8,-260.01"/>
<polygon fill="midnightblue" stroke="midnightblue" points="593.64,-302.63 604.23,-302.4 595.8,-295.98 593.64,-302.63"/>
</g>
<!-- Node17&#45;&gt;Node5 -->
<g id="edge29" class="edge">
<title>Node17&#45;&gt;Node5</title>
<path fill="none" stroke="midnightblue" d="M843.33,-160.93C817.99,-135.25 776.89,-93.61 759.18,-75.67"/>
<polygon fill="midnightblue" stroke="midnightblue" points="841.13,-163.68 850.65,-168.34 846.11,-158.76 841.13,-163.68"/>
</g>
<!-- Node18&#45;&gt;Node5 -->
<g id="edge31" class="edge">
<title>Node18&#45;&gt;Node5</title>
<path fill="none" stroke="midnightblue" d="M809.92,-298.16C797.11,-248.21 761.96,-111.17 752.82,-75.55"/>
<polygon fill="midnightblue" stroke="midnightblue" points="806.55,-299.09 812.42,-307.91 813.33,-297.36 806.55,-299.09"/>
</g>
<!-- Node18&#45;&gt;Node13 -->
<g id="edge32" class="edge">
<title>Node18&#45;&gt;Node13</title>
<path fill="none" stroke="midnightblue" d="M782.09,-304.35C752.6,-293.33 709.14,-277.09 678.18,-265.53"/>
<polygon fill="midnightblue" stroke="midnightblue" points="780.93,-307.65 791.52,-307.87 783.38,-301.09 780.93,-307.65"/>
</g>
<!-- Node19&#45;&gt;Node5 -->
<g id="edge34" class="edge">
<title>Node19&#45;&gt;Node5</title>
<path fill="none" stroke="midnightblue" d="M877.92,-109.17C847.23,-99 803.71,-84.59 776.33,-75.52"/>
<polygon fill="midnightblue" stroke="midnightblue" points="877.2,-112.62 887.8,-112.44 879.41,-105.98 877.2,-112.62"/>
</g>
</g>
</svg>
        <g id="navigator" transform="translate(0 0)" fill="#404254">
                <rect fill="#f2f5e9" fill-opacity="0.5" stroke="#606060" stroke-width=".5" x="0" y="0" width="60" height="60"/>
                <use id="zoomplus" xlink:href="#zoomPlus" x="17" y="9" onmousedown="handleZoom(evt,'in')"/>
                <use id="zoomminus" xlink:href="#zoomMin" x="42" y="9" onmousedown="handleZoom(evt,'out')"/>
                <use id="reset" xlink:href="#resetDef" x="30" y="36" onmousedown="handleReset()"/>
                <g id="arrowUp" xlink:href="#dirArrow" transform="translate(30 24)" onmousedown="handlePan(0,-1)">
                  <use xlink:href="#rim" fill="#404040">
                        <set attributeName="fill" to="#808080" begin="arrowUp.mouseover" end="arrowUp.mouseout"/>
                  </use>
                  <path fill="none" stroke="white" stroke-width="1.5" d="M0,-3.0v7 M-2.5,-0.5L0,-3.0L2.5,-0.5"/>
                </g>
                <g id="arrowRight" xlink:href="#dirArrow" transform="rotate(90) translate(36 -43)" onmousedown="handlePan(1,0)">
                  <use xlink:href="#rim" fill="#404040">
                        <set attributeName="fill" to="#808080" begin="arrowRight.mouseover" end="arrowRight.mouseout"/>
                  </use>
                  <path fill="none" stroke="white" stroke-width="1.5" d="M0,-3.0v7 M-2.5,-0.5L0,-3.0L2.5,-0.5"/>
                </g>
                <g id="arrowDown" xlink:href="#dirArrow" transform="rotate(180) translate(-30 -48)" onmousedown="handlePan(0,1)">
                  <use xlink:href="#rim" fill="#404040">
                        <set attributeName="fill" to="#808080" begin="arrowDown.mouseover" end="arrowDown.mouseout"/>
                  </use>
                  <path fill="none" stroke="white" stroke-width="1.5" d="M0,-3.0v7 M-2.5,-0.5L0,-3.0L2.5,-0.5"/>
                </g>
                <g id="arrowLeft" xlink:href="#dirArrow" transform="rotate(270) translate(-36 17)" onmousedown="handlePan(-1,0)">
                  <use xlink:href="#rim" fill="#404040">
                        <set attributeName="fill" to="#808080" begin="arrowLeft.mouseover" end="arrowLeft.mouseout"/>
                  </use>
                  <path fill="none" stroke="white" stroke-width="1.5" d="M0,-3.0v7 M-2.5,-0.5L0,-3.0L2.5,-0.5"/>
                </g>
        </g>
        <svg viewBox="0 0 15 15" width="100%" height="30px" preserveAspectRatio="xMaxYMin meet">
         <g id="arrow_out" transform="scale(0.3 0.3)">
          <a xlink:href="http__rpc__context_8h__dep__incl_org.svg" target="_base">
           <rect id="button" ry="5" rx="5" y="6" x="6" height="38" width="38"
                fill="#f2f5e9" fill-opacity="0.5" stroke="#606060" stroke-width="1.0"/>
           <path id="arrow"
             d="M 11.500037,31.436501 C 11.940474,20.09759 22.043105,11.32322 32.158766,21.979434 L 37.068811,17.246167 C 37.068811,17.246167 37.088388,32 37.088388,32 L 22.160133,31.978069 C 22.160133,31.978069 26.997745,27.140456 26.997745,27.140456 C 18.528582,18.264221 13.291696,25.230495 11.500037,31.436501 z"
             style="fill:#404040;"/>
          </a>
         </g>
        </svg>
</svg>
