<?xml version="1.0" encoding="UTF-8" standalone="no"?>
<!DOCTYPE svg PUBLIC "-//W3C//DTD SVG 1.1//EN"
 "http://www.w3.org/Graphics/SVG/1.1/DTD/svg11.dtd">
<!-- Generated by graphviz version 2.43.0 (0)
 -->
<!-- Title: include/ccf/crypto/entropy.h Pages: 1 -->
<svg width="633pt" height="151pt"
 viewBox="0.00 0.00 633.00 151.00" xmlns="http://www.w3.org/2000/svg" xmlns:xlink="http://www.w3.org/1999/xlink">
<g id="graph0" class="graph" transform="scale(1 1) rotate(0) translate(4 147)">
<title>include/ccf/crypto/entropy.h</title>
<polygon fill="white" stroke="transparent" points="-4,4 -4,-147 629,-147 629,4 -4,4"/>
<!-- Node1 -->
<g id="node1" class="node">
<title>Node1</title>
<g id="a_node1"><a xlink:title=" ">
<polygon fill="#bfbfbf" stroke="black" points="297,-112.5 297,-142.5 400,-142.5 400,-112.5 297,-112.5"/>
<text text-anchor="start" x="305" y="-130.5" font-family="Helvetica,sans-Serif" font-size="10.00">include/ccf/crypto</text>
<text text-anchor="middle" x="348.5" y="-119.5" font-family="Helvetica,sans-Serif" font-size="10.00">/entropy.h</text>
</a>
</g>
</g>
<!-- Node2 -->
<g id="node2" class="node">
<title>Node2</title>
<g id="a_node2"><a xlink:href="hardware__info_8h.html" target="_top" xlink:title=" ">
<polygon fill="white" stroke="black" points="0,-56.5 0,-75.5 131,-75.5 131,-56.5 0,-56.5"/>
<text text-anchor="middle" x="65.5" y="-63.5" font-family="Helvetica,sans-Serif" font-size="10.00">ccf/pal/hardware_info.h</text>
</a>
</g>
</g>
<!-- Node1&#45;&gt;Node2 -->
<g id="edge1" class="edge">
<title>Node1&#45;&gt;Node2</title>
<path fill="none" stroke="midnightblue" d="M296.92,-115.66C245.51,-104.85 167.05,-88.35 116.01,-77.62"/>
<polygon fill="midnightblue" stroke="midnightblue" points="116.69,-74.19 106.18,-75.55 115.25,-81.04 116.69,-74.19"/>
</g>
<!-- Node4 -->
<g id="node4" class="node">
<title>Node4</title>
<g id="a_node4"><a xlink:title=" ">
<polygon fill="white" stroke="#bfbfbf" points="149.5,-56.5 149.5,-75.5 201.5,-75.5 201.5,-56.5 149.5,-56.5"/>
<text text-anchor="middle" x="175.5" y="-63.5" font-family="Helvetica,sans-Serif" font-size="10.00">cassert</text>
</a>
</g>
</g>
<!-- Node1&#45;&gt;Node4 -->
<g id="edge3" class="edge">
<title>Node1&#45;&gt;Node4</title>
<path fill="none" stroke="midnightblue" d="M307.5,-112.4C277.87,-102.21 238.27,-88.59 210.2,-78.93"/>
<polygon fill="midnightblue" stroke="midnightblue" points="211.02,-75.51 200.42,-75.57 208.74,-82.13 211.02,-75.51"/>
</g>
<!-- Node5 -->
<g id="node5" class="node">
<title>Node5</title>
<g id="a_node5"><a xlink:title=" ">
<polygon fill="white" stroke="#bfbfbf" points="219.5,-56.5 219.5,-75.5 269.5,-75.5 269.5,-56.5 219.5,-56.5"/>
<text text-anchor="middle" x="244.5" y="-63.5" font-family="Helvetica,sans-Serif" font-size="10.00">cstdint</text>
</a>
</g>
</g>
<!-- Node1&#45;&gt;Node5 -->
<g id="edge4" class="edge">
<title>Node1&#45;&gt;Node5</title>
<path fill="none" stroke="midnightblue" d="M323.85,-112.4C307.18,-102.86 285.27,-90.32 268.69,-80.84"/>
<polygon fill="midnightblue" stroke="midnightblue" points="270.05,-77.59 259.63,-75.66 266.57,-83.66 270.05,-77.59"/>
</g>
<!-- Node6 -->
<g id="node6" class="node">
<title>Node6</title>
<g id="a_node6"><a xlink:title=" ">
<polygon fill="white" stroke="#bfbfbf" points="287.5,-56.5 287.5,-75.5 337.5,-75.5 337.5,-56.5 287.5,-56.5"/>
<text text-anchor="middle" x="312.5" y="-63.5" font-family="Helvetica,sans-Serif" font-size="10.00">cstring</text>
</a>
</g>
</g>
<!-- Node1&#45;&gt;Node6 -->
<g id="edge5" class="edge">
<title>Node1&#45;&gt;Node6</title>
<path fill="none" stroke="midnightblue" d="M339.97,-112.4C334.9,-104.02 328.43,-93.33 323.04,-84.42"/>
<polygon fill="midnightblue" stroke="midnightblue" points="325.91,-82.4 317.74,-75.66 319.92,-86.03 325.91,-82.4"/>
</g>
<!-- Node7 -->
<g id="node7" class="node">
<title>Node7</title>
<g id="a_node7"><a xlink:title=" ">
<polygon fill="white" stroke="#bfbfbf" points="355.5,-56.5 355.5,-75.5 413.5,-75.5 413.5,-56.5 355.5,-56.5"/>
<text text-anchor="middle" x="384.5" y="-63.5" font-family="Helvetica,sans-Serif" font-size="10.00">memory</text>
</a>
</g>
</g>
<!-- Node1&#45;&gt;Node7 -->
<g id="edge6" class="edge">
<title>Node1&#45;&gt;Node7</title>
<path fill="none" stroke="midnightblue" d="M357.03,-112.4C362.1,-104.02 368.57,-93.33 373.96,-84.42"/>
<polygon fill="midnightblue" stroke="midnightblue" points="377.08,-86.03 379.26,-75.66 371.09,-82.4 377.08,-86.03"/>
</g>
<!-- Node8 -->
<g id="node8" class="node">
<title>Node8</title>
<g id="a_node8"><a xlink:title=" ">
<polygon fill="white" stroke="#bfbfbf" points="432,-56.5 432,-75.5 497,-75.5 497,-56.5 432,-56.5"/>
<text text-anchor="middle" x="464.5" y="-63.5" font-family="Helvetica,sans-Serif" font-size="10.00">stdexcept</text>
</a>
</g>
</g>
<!-- Node1&#45;&gt;Node8 -->
<g id="edge7" class="edge">
<title>Node1&#45;&gt;Node8</title>
<path fill="none" stroke="midnightblue" d="M375.99,-112.4C394.93,-102.68 419.94,-89.86 438.54,-80.31"/>
<polygon fill="midnightblue" stroke="midnightblue" points="440.32,-83.34 447.62,-75.66 437.13,-77.11 440.32,-83.34"/>
</g>
<!-- Node9 -->
<g id="node9" class="node">
<title>Node9</title>
<g id="a_node9"><a xlink:title=" ">
<polygon fill="white" stroke="#bfbfbf" points="515,-56.5 515,-75.5 560,-75.5 560,-56.5 515,-56.5"/>
<text text-anchor="middle" x="537.5" y="-63.5" font-family="Helvetica,sans-Serif" font-size="10.00">utility</text>
</a>
</g>
</g>
<!-- Node1&#45;&gt;Node9 -->
<g id="edge8" class="edge">
<title>Node1&#45;&gt;Node9</title>
<path fill="none" stroke="midnightblue" d="M393.29,-112.4C427.62,-101.59 474.17,-86.94 504.99,-77.23"/>
<polygon fill="midnightblue" stroke="midnightblue" points="506.31,-80.49 514.8,-74.15 504.21,-73.81 506.31,-80.49"/>
</g>
<!-- Node10 -->
<g id="node10" class="node">
<title>Node10</title>
<g id="a_node10"><a xlink:title=" ">
<polygon fill="white" stroke="#bfbfbf" points="578,-56.5 578,-75.5 625,-75.5 625,-56.5 578,-56.5"/>
<text text-anchor="middle" x="601.5" y="-63.5" font-family="Helvetica,sans-Serif" font-size="10.00">vector</text>
</a>
</g>
</g>
<!-- Node1&#45;&gt;Node10 -->
<g id="edge9" class="edge">
<title>Node1&#45;&gt;Node10</title>
<path fill="none" stroke="midnightblue" d="M400.03,-115.48C442.65,-106.2 504.99,-92.23 567.7,-76.37"/>
<polygon fill="midnightblue" stroke="midnightblue" points="568.94,-79.67 577.77,-73.82 567.22,-72.89 568.94,-79.67"/>
</g>
<!-- Node3 -->
<g id="node3" class="node">
<title>Node3</title>
<g id="a_node3"><a xlink:title=" ">
<polygon fill="white" stroke="#bfbfbf" points="49.5,-0.5 49.5,-19.5 81.5,-19.5 81.5,-0.5 49.5,-0.5"/>
<text text-anchor="middle" x="65.5" y="-7.5" font-family="Helvetica,sans-Serif" font-size="10.00">set</text>
</a>
</g>
</g>
<!-- Node2&#45;&gt;Node3 -->
<g id="edge2" class="edge">
<title>Node2&#45;&gt;Node3</title>
<path fill="none" stroke="midnightblue" d="M65.5,-56.08C65.5,-49.01 65.5,-38.86 65.5,-29.99"/>
<polygon fill="midnightblue" stroke="midnightblue" points="69,-29.75 65.5,-19.75 62,-29.75 69,-29.75"/>
</g>
</g>
</svg>
