<?xml version="1.0" encoding="UTF-8" standalone="no"?>
<!DOCTYPE svg PUBLIC "-//W3C//DTD SVG 1.1//EN"
 "http://www.w3.org/Graphics/SVG/1.1/DTD/svg11.dtd">
<!-- Generated by graphviz version 2.43.0 (0)
 -->
<!-- Title: include/ccf/crypto/cose_verifier.h Pages: 1 -->
<svg width="286pt" height="173pt"
 viewBox="0.00 0.00 286.00 173.00" xmlns="http://www.w3.org/2000/svg" xmlns:xlink="http://www.w3.org/1999/xlink">
<g id="graph0" class="graph" transform="scale(1 1) rotate(0) translate(4 169)">
<title>include/ccf/crypto/cose_verifier.h</title>
<polygon fill="white" stroke="transparent" points="-4,4 -4,-169 282,-169 282,4 -4,4"/>
<!-- Node1 -->
<g id="node1" class="node">
<title>Node1</title>
<g id="a_node1"><a xlink:title=" ">
<polygon fill="#bfbfbf" stroke="black" points="75,-134.5 75,-164.5 178,-164.5 178,-134.5 75,-134.5"/>
<text text-anchor="start" x="83" y="-152.5" font-family="Helvetica,sans-Serif" font-size="10.00">include/ccf/crypto</text>
<text text-anchor="middle" x="126.5" y="-141.5" font-family="Helvetica,sans-Serif" font-size="10.00">/cose_verifier.h</text>
</a>
</g>
</g>
<!-- Node2 -->
<g id="node2" class="node">
<title>Node2</title>
<g id="a_node2"><a xlink:href="src_2crypto_2openssl_2cose__verifier_8h.html" target="_top" xlink:title=" ">
<polygon fill="white" stroke="black" points="0,-67.5 0,-97.5 105,-97.5 105,-67.5 0,-67.5"/>
<text text-anchor="start" x="8" y="-85.5" font-family="Helvetica,sans-Serif" font-size="10.00">src/crypto/openssl</text>
<text text-anchor="middle" x="52.5" y="-74.5" font-family="Helvetica,sans-Serif" font-size="10.00">/cose_verifier.h</text>
</a>
</g>
</g>
<!-- Node1&#45;&gt;Node2 -->
<g id="edge1" class="edge">
<title>Node1&#45;&gt;Node2</title>
<path fill="none" stroke="midnightblue" d="M102.7,-127.6C91.53,-117.78 78.51,-106.34 68.53,-97.58"/>
<polygon fill="midnightblue" stroke="midnightblue" points="100.62,-130.43 110.44,-134.4 105.24,-125.17 100.62,-130.43"/>
</g>
<!-- Node4 -->
<g id="node4" class="node">
<title>Node4</title>
<g id="a_node4"><a xlink:href="cose__auth_8cpp.html" target="_top" xlink:title=" ">
<polygon fill="white" stroke="black" points="123,-67.5 123,-97.5 278,-97.5 278,-67.5 123,-67.5"/>
<text text-anchor="start" x="131" y="-85.5" font-family="Helvetica,sans-Serif" font-size="10.00">src/endpoints/authentication</text>
<text text-anchor="middle" x="200.5" y="-74.5" font-family="Helvetica,sans-Serif" font-size="10.00">/cose_auth.cpp</text>
</a>
</g>
</g>
<!-- Node1&#45;&gt;Node4 -->
<g id="edge3" class="edge">
<title>Node1&#45;&gt;Node4</title>
<path fill="none" stroke="midnightblue" d="M150.3,-127.6C161.47,-117.78 174.49,-106.34 184.47,-97.58"/>
<polygon fill="midnightblue" stroke="midnightblue" points="147.76,-125.17 142.56,-134.4 152.38,-130.43 147.76,-125.17"/>
</g>
<!-- Node3 -->
<g id="node3" class="node">
<title>Node3</title>
<g id="a_node3"><a xlink:href="cose__verifier_8cpp.html" target="_top" xlink:title=" ">
<polygon fill="white" stroke="black" points="0,-0.5 0,-30.5 105,-30.5 105,-0.5 0,-0.5"/>
<text text-anchor="start" x="8" y="-18.5" font-family="Helvetica,sans-Serif" font-size="10.00">src/crypto/openssl</text>
<text text-anchor="middle" x="52.5" y="-7.5" font-family="Helvetica,sans-Serif" font-size="10.00">/cose_verifier.cpp</text>
</a>
</g>
</g>
<!-- Node2&#45;&gt;Node3 -->
<g id="edge2" class="edge">
<title>Node2&#45;&gt;Node3</title>
<path fill="none" stroke="midnightblue" d="M52.5,-57.11C52.5,-48.15 52.5,-38.32 52.5,-30.58"/>
<polygon fill="midnightblue" stroke="midnightblue" points="49,-57.4 52.5,-67.4 56,-57.4 49,-57.4"/>
</g>
</g>
</svg>
