<?xml version="1.0" encoding="UTF-8" standalone="no"?>
<!DOCTYPE svg PUBLIC "-//W3C//DTD SVG 1.1//EN"
 "http://www.w3.org/Graphics/SVG/1.1/DTD/svg11.dtd">
<!-- Generated by graphviz version 2.43.0 (0)
 -->
<!-- Title: Graphical Class Hierarchy Pages: 1 -->
<svg width="317pt" height="394pt"
 viewBox="0.00 0.00 317.00 394.00" xmlns="http://www.w3.org/2000/svg" xmlns:xlink="http://www.w3.org/1999/xlink">
<g id="graph0" class="graph" transform="scale(1 1) rotate(0) translate(4 390)">
<title>Graphical Class Hierarchy</title>
<polygon fill="white" stroke="transparent" points="-4,4 -4,-390 313,-390 313,4 -4,4"/>
<!-- Node0 -->
<g id="node1" class="node">
<title>Node0</title>
<g id="a_node1"><a xlink:href="structccf_1_1AuthnIdentity.html" target="_top" xlink:title=" ">
<polygon fill="white" stroke="black" points="0,-180.5 0,-199.5 102,-199.5 102,-180.5 0,-180.5"/>
<text text-anchor="middle" x="51" y="-187.5" font-family="Helvetica,sans-Serif" font-size="10.00">ccf::AuthnIdentity</text>
</a>
</g>
</g>
<!-- Node1 -->
<g id="node2" class="node">
<title>Node1</title>
<g id="a_node2"><a xlink:href="structExecutorIdentity.html" target="_top" xlink:title=" ">
<polygon fill="white" stroke="black" points="175.5,-366.5 175.5,-385.5 271.5,-385.5 271.5,-366.5 175.5,-366.5"/>
<text text-anchor="middle" x="223.5" y="-373.5" font-family="Helvetica,sans-Serif" font-size="10.00">ExecutorIdentity</text>
</a>
</g>
</g>
<!-- Node0&#45;&gt;Node1 -->
<g id="edge1" class="edge">
<title>Node0&#45;&gt;Node1</title>
<path fill="none" stroke="midnightblue" d="M56.37,-209.8C65.25,-245.16 88.88,-319.02 138,-357 148.71,-365.28 162.33,-370.08 175.49,-372.84"/>
<polygon fill="midnightblue" stroke="midnightblue" points="59.71,-208.69 53.99,-199.76 52.89,-210.3 59.71,-208.69"/>
</g>
<!-- Node2 -->
<g id="node3" class="node">
<title>Node2</title>
<g id="a_node3"><a xlink:href="structccf_1_1EmptyAuthnIdentity.html" target="_top" xlink:title=" ">
<polygon fill="white" stroke="black" points="156.5,-328.5 156.5,-347.5 290.5,-347.5 290.5,-328.5 156.5,-328.5"/>
<text text-anchor="middle" x="223.5" y="-335.5" font-family="Helvetica,sans-Serif" font-size="10.00">ccf::EmptyAuthnIdentity</text>
</a>
</g>
</g>
<!-- Node0&#45;&gt;Node2 -->
<g id="edge2" class="edge">
<title>Node0&#45;&gt;Node2</title>
<path fill="none" stroke="midnightblue" d="M59.33,-209.26C71.25,-237.89 97.67,-291.29 138,-319 143.58,-322.83 149.8,-325.9 156.28,-328.36"/>
<polygon fill="midnightblue" stroke="midnightblue" points="62.43,-207.58 55.46,-199.6 55.93,-210.18 62.43,-207.58"/>
</g>
<!-- Node3 -->
<g id="node4" class="node">
<title>Node3</title>
<g id="a_node4"><a xlink:href="structccf_1_1JwtAuthnIdentity.html" target="_top" xlink:title=" ">
<polygon fill="white" stroke="black" points="165,-290.5 165,-309.5 282,-309.5 282,-290.5 165,-290.5"/>
<text text-anchor="middle" x="223.5" y="-297.5" font-family="Helvetica,sans-Serif" font-size="10.00">ccf::JwtAuthnIdentity</text>
</a>
</g>
</g>
<!-- Node0&#45;&gt;Node3 -->
<g id="edge3" class="edge">
<title>Node0&#45;&gt;Node3</title>
<path fill="none" stroke="midnightblue" d="M63.99,-208.09C78.82,-228.99 106.07,-262.83 138,-281 146.23,-285.69 155.53,-289.22 164.87,-291.88"/>
<polygon fill="midnightblue" stroke="midnightblue" points="66.8,-206 58.24,-199.76 61.03,-209.98 66.8,-206"/>
</g>
<!-- Node4 -->
<g id="node5" class="node">
<title>Node4</title>
<g id="a_node5"><a xlink:href="structccf_1_1MemberCOSESign1AuthnIdentity.html" target="_top" xlink:title=" ">
<polygon fill="white" stroke="black" points="144.5,-241 144.5,-271 302.5,-271 302.5,-241 144.5,-241"/>
<text text-anchor="start" x="152.5" y="-259" font-family="Helvetica,sans-Serif" font-size="10.00">ccf::MemberCOSESign1Authn</text>
<text text-anchor="middle" x="223.5" y="-248" font-family="Helvetica,sans-Serif" font-size="10.00">Identity</text>
</a>
</g>
</g>
<!-- Node0&#45;&gt;Node4 -->
<g id="edge4" class="edge">
<title>Node0&#45;&gt;Node4</title>
<path fill="none" stroke="midnightblue" d="M79.25,-204.34C95.92,-212.78 117.86,-223.28 138,-231 147.28,-234.56 157.3,-237.93 167.08,-240.96"/>
<polygon fill="midnightblue" stroke="midnightblue" points="80.58,-201.1 70.09,-199.65 77.39,-207.33 80.58,-201.1"/>
</g>
<!-- Node5 -->
<g id="node6" class="node">
<title>Node5</title>
<g id="a_node6"><a xlink:href="structccf_1_1MemberCertAuthnIdentity.html" target="_top" xlink:title=" ">
<polygon fill="white" stroke="black" points="142,-202.5 142,-221.5 305,-221.5 305,-202.5 142,-202.5"/>
<text text-anchor="middle" x="223.5" y="-209.5" font-family="Helvetica,sans-Serif" font-size="10.00">ccf::MemberCertAuthnIdentity</text>
</a>
</g>
</g>
<!-- Node0&#45;&gt;Node5 -->
<g id="edge5" class="edge">
<title>Node0&#45;&gt;Node5</title>
<path fill="none" stroke="midnightblue" d="M112.34,-197.79C124.08,-199.3 136.5,-200.9 148.61,-202.47"/>
<polygon fill="midnightblue" stroke="midnightblue" points="112.6,-194.29 102.23,-196.48 111.7,-201.23 112.6,-194.29"/>
</g>
<!-- Node6 -->
<g id="node7" class="node">
<title>Node6</title>
<g id="a_node7"><a xlink:href="structccf_1_1MemberSignatureAuthnIdentity.html" target="_top" xlink:title=" ">
<polygon fill="white" stroke="black" points="147.5,-153 147.5,-183 299.5,-183 299.5,-153 147.5,-153"/>
<text text-anchor="start" x="155.5" y="-171" font-family="Helvetica,sans-Serif" font-size="10.00">ccf::MemberSignatureAuthn</text>
<text text-anchor="middle" x="223.5" y="-160" font-family="Helvetica,sans-Serif" font-size="10.00">Identity</text>
</a>
</g>
</g>
<!-- Node0&#45;&gt;Node6 -->
<g id="edge6" class="edge">
<title>Node0&#45;&gt;Node6</title>
<path fill="none" stroke="midnightblue" d="M112.41,-182.21C123.71,-180.75 135.66,-179.21 147.34,-177.7"/>
<polygon fill="midnightblue" stroke="midnightblue" points="111.7,-178.77 102.23,-183.52 112.6,-185.71 111.7,-178.77"/>
</g>
<!-- Node7 -->
<g id="node8" class="node">
<title>Node7</title>
<g id="a_node8"><a xlink:href="structccf_1_1NodeCertAuthnIdentity.html" target="_top" xlink:title=" ">
<polygon fill="white" stroke="black" points="149.5,-114.5 149.5,-133.5 297.5,-133.5 297.5,-114.5 149.5,-114.5"/>
<text text-anchor="middle" x="223.5" y="-121.5" font-family="Helvetica,sans-Serif" font-size="10.00">ccf::NodeCertAuthnIdentity</text>
</a>
</g>
</g>
<!-- Node0&#45;&gt;Node7 -->
<g id="edge7" class="edge">
<title>Node0&#45;&gt;Node7</title>
<path fill="none" stroke="midnightblue" d="M75.6,-175.22C92.45,-165.22 115.95,-152.34 138,-144 149,-139.84 161.14,-136.36 172.7,-133.52"/>
<polygon fill="midnightblue" stroke="midnightblue" points="73.71,-172.27 66.97,-180.44 77.34,-178.26 73.71,-172.27"/>
</g>
<!-- Node8 -->
<g id="node9" class="node">
<title>Node8</title>
<g id="a_node9"><a xlink:href="structccf_1_1UserCertAuthnIdentity.html" target="_top" xlink:title=" ">
<polygon fill="white" stroke="black" points="151,-76.5 151,-95.5 296,-95.5 296,-76.5 151,-76.5"/>
<text text-anchor="middle" x="223.5" y="-83.5" font-family="Helvetica,sans-Serif" font-size="10.00">ccf::UserCertAuthnIdentity</text>
</a>
</g>
</g>
<!-- Node0&#45;&gt;Node8 -->
<g id="edge8" class="edge">
<title>Node0&#45;&gt;Node8</title>
<path fill="none" stroke="midnightblue" d="M64.94,-172.25C80.18,-152.68 107.33,-121.77 138,-105 145.12,-101.1 153,-98.01 161,-95.54"/>
<polygon fill="midnightblue" stroke="midnightblue" points="62.05,-170.26 58.81,-180.34 67.63,-174.48 62.05,-170.26"/>
</g>
<!-- Node9 -->
<g id="node10" class="node">
<title>Node9</title>
<g id="a_node10"><a xlink:href="structccf_1_1UserSignatureAuthnIdentity.html" target="_top" xlink:title=" ">
<polygon fill="white" stroke="black" points="138,-38.5 138,-57.5 309,-57.5 309,-38.5 138,-38.5"/>
<text text-anchor="middle" x="223.5" y="-45.5" font-family="Helvetica,sans-Serif" font-size="10.00">ccf::UserSignatureAuthnIdentity</text>
</a>
</g>
</g>
<!-- Node0&#45;&gt;Node9 -->
<g id="edge9" class="edge">
<title>Node0&#45;&gt;Node9</title>
<path fill="none" stroke="midnightblue" d="M59.94,-170.83C72.36,-143.33 99.05,-93.13 138,-67 143.74,-63.15 150.15,-60.06 156.8,-57.6"/>
<polygon fill="midnightblue" stroke="midnightblue" points="56.66,-169.59 55.88,-180.16 63.08,-172.38 56.66,-169.59"/>
</g>
<!-- Node10 -->
<g id="node11" class="node">
<title>Node10</title>
<g id="a_node11"><a xlink:href="structloggingapp_1_1CustomIdentity.html" target="_top" xlink:title=" ">
<polygon fill="white" stroke="black" points="147.5,-0.5 147.5,-19.5 299.5,-19.5 299.5,-0.5 147.5,-0.5"/>
<text text-anchor="middle" x="223.5" y="-7.5" font-family="Helvetica,sans-Serif" font-size="10.00">loggingapp::CustomIdentity</text>
</a>
</g>
</g>
<!-- Node0&#45;&gt;Node10 -->
<g id="edge10" class="edge">
<title>Node0&#45;&gt;Node10</title>
<path fill="none" stroke="midnightblue" d="M56.72,-170.41C66.05,-136.11 90.22,-65.37 138,-29 143.02,-25.17 148.68,-22.09 154.61,-19.61"/>
<polygon fill="midnightblue" stroke="midnightblue" points="53.31,-169.62 54.2,-180.18 60.09,-171.37 53.31,-169.62"/>
</g>
</g>
</svg>
