<?xml version="1.0" encoding="UTF-8" standalone="no"?>
<!DOCTYPE svg PUBLIC "-//W3C//DTD SVG 1.1//EN"
 "http://www.w3.org/Graphics/SVG/1.1/DTD/svg11.dtd">
<!-- Generated by graphviz version 2.43.0 (0)
 -->
<!-- Title: src/enclave/interface.h Pages: 1 -->
<svg width="1771pt" height="420pt"
 viewBox="0.00 0.00 1770.62 420.00" xmlns="http://www.w3.org/2000/svg" xmlns:xlink="http://www.w3.org/1999/xlink">
<g id="graph0" class="graph" transform="scale(1 1) rotate(0) translate(4 416)">
<title>src/enclave/interface.h</title>
<polygon fill="white" stroke="transparent" points="-4,4 -4,-416 1766.62,-416 1766.62,4 -4,4"/>
<!-- Node1 -->
<g id="node1" class="node">
<title>Node1</title>
<g id="a_node1"><a xlink:title=" ">
<polygon fill="#bfbfbf" stroke="black" points="1239.19,-392.5 1239.19,-411.5 1367.19,-411.5 1367.19,-392.5 1239.19,-392.5"/>
<text text-anchor="middle" x="1303.19" y="-399.5" font-family="Helvetica,sans-Serif" font-size="10.00">src/enclave/interface.h</text>
</a>
</g>
</g>
<!-- Node2 -->
<g id="node2" class="node">
<title>Node2</title>
<g id="a_node2"><a xlink:href="oversized_8h.html" target="_top" xlink:title=" ">
<polygon fill="white" stroke="black" points="911.69,-336.5 911.69,-355.5 998.69,-355.5 998.69,-336.5 911.69,-336.5"/>
<text text-anchor="middle" x="955.19" y="-343.5" font-family="Helvetica,sans-Serif" font-size="10.00">ds/oversized.h</text>
</a>
</g>
</g>
<!-- Node1&#45;&gt;Node2 -->
<g id="edge1" class="edge">
<title>Node1&#45;&gt;Node2</title>
<path fill="none" stroke="midnightblue" d="M1248.04,-392.44C1182.46,-382.27 1073.73,-365.39 1008.82,-355.32"/>
<polygon fill="midnightblue" stroke="midnightblue" points="1009.21,-351.84 998.79,-353.77 1008.13,-358.76 1009.21,-351.84"/>
</g>
<!-- Node23 -->
<g id="node23" class="node">
<title>Node23</title>
<g id="a_node23"><a xlink:href="ring__buffer__types_8h.html" target="_top" xlink:title=" ">
<polygon fill="white" stroke="black" points="1096.19,-168.5 1096.19,-187.5 1206.19,-187.5 1206.19,-168.5 1096.19,-168.5"/>
<text text-anchor="middle" x="1151.19" y="-175.5" font-family="Helvetica,sans-Serif" font-size="10.00">ring_buffer_types.h</text>
</a>
</g>
</g>
<!-- Node1&#45;&gt;Node23 -->
<g id="edge72" class="edge">
<title>Node1&#45;&gt;Node23</title>
<path fill="none" stroke="midnightblue" d="M1297.23,-392.3C1274.58,-359.22 1193.57,-240.91 1162.99,-196.24"/>
<polygon fill="midnightblue" stroke="midnightblue" points="1165.81,-194.16 1157.27,-187.88 1160.03,-198.11 1165.81,-194.16"/>
</g>
<!-- Node28 -->
<g id="node28" class="node">
<title>Node28</title>
<g id="a_node28"><a xlink:title=" ">
<polygon fill="white" stroke="#bfbfbf" points="1305.69,-0.5 1305.69,-19.5 1352.69,-19.5 1352.69,-0.5 1305.69,-0.5"/>
<text text-anchor="middle" x="1329.19" y="-7.5" font-family="Helvetica,sans-Serif" font-size="10.00">vector</text>
</a>
</g>
</g>
<!-- Node1&#45;&gt;Node28 -->
<g id="edge74" class="edge">
<title>Node1&#45;&gt;Node28</title>
<path fill="none" stroke="midnightblue" d="M1311.64,-392.44C1327.95,-374.96 1362.19,-333.26 1362.19,-291 1362.19,-291 1362.19,-291 1362.19,-121 1362.19,-87.25 1347.75,-50.03 1337.98,-28.69"/>
<polygon fill="midnightblue" stroke="midnightblue" points="1341.1,-27.1 1333.64,-19.58 1334.78,-30.11 1341.1,-27.1"/>
</g>
<!-- Node46 -->
<g id="node46" class="node">
<title>Node46</title>
<g id="a_node46"><a xlink:title=" ">
<polygon fill="white" stroke="#bfbfbf" points="1390.19,-336.5 1390.19,-355.5 1440.19,-355.5 1440.19,-336.5 1390.19,-336.5"/>
<text text-anchor="middle" x="1415.19" y="-343.5" font-family="Helvetica,sans-Serif" font-size="10.00">chrono</text>
</a>
</g>
</g>
<!-- Node1&#45;&gt;Node46 -->
<g id="edge73" class="edge">
<title>Node1&#45;&gt;Node46</title>
<path fill="none" stroke="midnightblue" d="M1321.18,-392.32C1339.22,-383.62 1367.23,-370.12 1387.99,-360.11"/>
<polygon fill="midnightblue" stroke="midnightblue" points="1389.75,-363.15 1397.24,-355.65 1386.71,-356.84 1389.75,-363.15"/>
</g>
<!-- Node3 -->
<g id="node3" class="node">
<title>Node3</title>
<g id="a_node3"><a xlink:href="messaging_8h.html" target="_top" xlink:title=" ">
<polygon fill="white" stroke="black" points="686.69,-280.5 686.69,-299.5 765.69,-299.5 765.69,-280.5 686.69,-280.5"/>
<text text-anchor="middle" x="726.19" y="-287.5" font-family="Helvetica,sans-Serif" font-size="10.00">messaging.h</text>
</a>
</g>
</g>
<!-- Node2&#45;&gt;Node3 -->
<g id="edge2" class="edge">
<title>Node2&#45;&gt;Node3</title>
<path fill="none" stroke="midnightblue" d="M918.9,-336.44C879.2,-327.08 815.48,-312.06 772.27,-301.87"/>
<polygon fill="midnightblue" stroke="midnightblue" points="772.84,-298.41 762.3,-299.52 771.23,-305.22 772.84,-298.41"/>
</g>
<!-- Node6 -->
<g id="node6" class="node">
<title>Node6</title>
<g id="a_node6"><a xlink:title=" ">
<polygon fill="white" stroke="#bfbfbf" points="731.69,-112.5 731.69,-131.5 810.69,-131.5 810.69,-112.5 731.69,-112.5"/>
<text text-anchor="middle" x="771.19" y="-119.5" font-family="Helvetica,sans-Serif" font-size="10.00">fmt/format.h</text>
</a>
</g>
</g>
<!-- Node2&#45;&gt;Node6 -->
<g id="edge70" class="edge">
<title>Node2&#45;&gt;Node6</title>
<path fill="none" stroke="midnightblue" d="M959.81,-336.34C964.25,-327.49 970.64,-313.22 973.19,-300 982.06,-253.91 970.79,-188.63 951.19,-168 933.46,-149.35 867.74,-136.45 820.85,-129.39"/>
<polygon fill="midnightblue" stroke="midnightblue" points="821.26,-125.91 810.85,-127.93 820.24,-132.84 821.26,-125.91"/>
</g>
<!-- Node19 -->
<g id="node19" class="node">
<title>Node19</title>
<g id="a_node19"><a xlink:href="ring__buffer_8h.html" target="_top" xlink:title=" ">
<polygon fill="white" stroke="black" points="115.69,-224.5 115.69,-243.5 192.69,-243.5 192.69,-224.5 115.69,-224.5"/>
<text text-anchor="middle" x="154.19" y="-231.5" font-family="Helvetica,sans-Serif" font-size="10.00">ring_buffer.h</text>
</a>
</g>
</g>
<!-- Node2&#45;&gt;Node19 -->
<g id="edge68" class="edge">
<title>Node2&#45;&gt;Node19</title>
<path fill="none" stroke="midnightblue" d="M911.27,-339.6C795.77,-325.28 474.05,-284.66 207.19,-244 205.89,-243.8 204.57,-243.6 203.25,-243.39"/>
<polygon fill="midnightblue" stroke="midnightblue" points="203.38,-239.87 192.95,-241.74 202.27,-246.78 203.38,-239.87"/>
</g>
<!-- Node37 -->
<g id="node37" class="node">
<title>Node37</title>
<g id="a_node37"><a xlink:href="serialized_8h.html" target="_top" xlink:title=" ">
<polygon fill="white" stroke="black" points="1038.69,-56.5 1038.69,-75.5 1111.69,-75.5 1111.69,-56.5 1038.69,-56.5"/>
<text text-anchor="middle" x="1075.19" y="-63.5" font-family="Helvetica,sans-Serif" font-size="10.00">serialized.h</text>
</a>
</g>
</g>
<!-- Node2&#45;&gt;Node37 -->
<g id="edge69" class="edge">
<title>Node2&#45;&gt;Node37</title>
<path fill="none" stroke="midnightblue" d="M998.73,-341.1C1095.35,-331.25 1319.19,-301.26 1319.19,-235 1319.19,-235 1319.19,-235 1319.19,-177 1319.19,-146.9 1322.37,-132.34 1300.19,-112 1299.36,-111.24 1188.03,-89.22 1122.3,-76.27"/>
<polygon fill="midnightblue" stroke="midnightblue" points="1122.65,-72.77 1112.17,-74.27 1121.3,-79.64 1122.65,-72.77"/>
</g>
<!-- Node45 -->
<g id="node45" class="node">
<title>Node45</title>
<g id="a_node45"><a xlink:title=" ">
<polygon fill="white" stroke="#bfbfbf" points="870.69,-280.5 870.69,-299.5 963.69,-299.5 963.69,-280.5 870.69,-280.5"/>
<text text-anchor="middle" x="917.19" y="-287.5" font-family="Helvetica,sans-Serif" font-size="10.00">unordered_map</text>
</a>
</g>
</g>
<!-- Node2&#45;&gt;Node45 -->
<g id="edge71" class="edge">
<title>Node2&#45;&gt;Node45</title>
<path fill="none" stroke="midnightblue" d="M948.91,-336.08C943.54,-328.46 935.67,-317.26 929.11,-307.94"/>
<polygon fill="midnightblue" stroke="midnightblue" points="931.96,-305.91 923.34,-299.75 926.24,-309.94 931.96,-305.91"/>
</g>
<!-- Node4 -->
<g id="node4" class="node">
<title>Node4</title>
<g id="a_node4"><a xlink:href="logger_8h.html" target="_top" xlink:title=" ">
<polygon fill="white" stroke="black" points="682.69,-224.5 682.69,-243.5 769.69,-243.5 769.69,-224.5 682.69,-224.5"/>
<text text-anchor="middle" x="726.19" y="-231.5" font-family="Helvetica,sans-Serif" font-size="10.00">ccf/ds/logger.h</text>
</a>
</g>
</g>
<!-- Node3&#45;&gt;Node4 -->
<g id="edge3" class="edge">
<title>Node3&#45;&gt;Node4</title>
<path fill="none" stroke="midnightblue" d="M726.19,-280.08C726.19,-273.01 726.19,-262.86 726.19,-253.99"/>
<polygon fill="midnightblue" stroke="midnightblue" points="729.69,-253.75 726.19,-243.75 722.69,-253.75 729.69,-253.75"/>
</g>
<!-- Node11 -->
<g id="node11" class="node">
<title>Node11</title>
<g id="a_node11"><a xlink:title=" ">
<polygon fill="white" stroke="#bfbfbf" points="519.19,-112.5 519.19,-131.5 557.19,-131.5 557.19,-112.5 519.19,-112.5"/>
<text text-anchor="middle" x="538.19" y="-119.5" font-family="Helvetica,sans-Serif" font-size="10.00">map</text>
</a>
</g>
</g>
<!-- Node3&#45;&gt;Node11 -->
<g id="edge66" class="edge">
<title>Node3&#45;&gt;Node11</title>
<path fill="none" stroke="midnightblue" d="M686.41,-282.48C608,-268.72 438.08,-234.16 404.19,-188 398.92,-180.84 399,-175.22 404.19,-168 404.99,-166.88 470.46,-145.24 509.58,-132.38"/>
<polygon fill="midnightblue" stroke="midnightblue" points="510.73,-135.69 519.14,-129.24 508.54,-129.04 510.73,-135.69"/>
</g>
<!-- Node3&#45;&gt;Node19 -->
<g id="edge20" class="edge">
<title>Node3&#45;&gt;Node19</title>
<path fill="none" stroke="midnightblue" d="M686.68,-286.68C599.76,-281.33 385.48,-266.83 207.19,-244 205.88,-243.83 204.57,-243.66 203.24,-243.47"/>
<polygon fill="midnightblue" stroke="midnightblue" points="203.32,-239.95 192.92,-241.95 202.3,-246.87 203.32,-239.95"/>
</g>
<!-- Node38 -->
<g id="node38" class="node">
<title>Node38</title>
<g id="a_node38"><a xlink:title=" ">
<polygon fill="white" stroke="#bfbfbf" points="459.69,-0.5 459.69,-19.5 524.69,-19.5 524.69,-0.5 459.69,-0.5"/>
<text text-anchor="middle" x="492.19" y="-7.5" font-family="Helvetica,sans-Serif" font-size="10.00">stdexcept</text>
</a>
</g>
</g>
<!-- Node3&#45;&gt;Node38 -->
<g id="edge67" class="edge">
<title>Node3&#45;&gt;Node38</title>
<path fill="none" stroke="midnightblue" d="M686.64,-284.62C584.39,-272.71 314.14,-237.28 240.19,-188 214.3,-170.75 208.02,-161.51 198.19,-132 163.52,-27.99 359.65,-12.54 449.29,-10.84"/>
<polygon fill="midnightblue" stroke="midnightblue" points="449.47,-14.33 459.42,-10.69 449.37,-7.33 449.47,-14.33"/>
</g>
<!-- Node41 -->
<g id="node41" class="node">
<title>Node41</title>
<g id="a_node41"><a xlink:title=" ">
<polygon fill="white" stroke="#bfbfbf" points="1241.19,-112.5 1241.19,-131.5 1291.19,-131.5 1291.19,-112.5 1241.19,-112.5"/>
<text text-anchor="middle" x="1266.19" y="-119.5" font-family="Helvetica,sans-Serif" font-size="10.00">atomic</text>
</a>
</g>
</g>
<!-- Node3&#45;&gt;Node41 -->
<g id="edge64" class="edge">
<title>Node3&#45;&gt;Node41</title>
<path fill="none" stroke="midnightblue" d="M765.8,-284.37C868.24,-271.86 1139.19,-235.08 1215.19,-188 1233.79,-176.48 1248.33,-155.6 1257.05,-140.61"/>
<polygon fill="midnightblue" stroke="midnightblue" points="1260.16,-142.22 1261.92,-131.77 1254.03,-138.84 1260.16,-142.22"/>
</g>
<!-- Node44 -->
<g id="node44" class="node">
<title>Node44</title>
<g id="a_node44"><a xlink:title=" ">
<polygon fill="white" stroke="#bfbfbf" points="787.69,-224.5 787.69,-243.5 894.69,-243.5 894.69,-224.5 787.69,-224.5"/>
<text text-anchor="middle" x="841.19" y="-231.5" font-family="Helvetica,sans-Serif" font-size="10.00">condition_variable</text>
</a>
</g>
</g>
<!-- Node3&#45;&gt;Node44 -->
<g id="edge65" class="edge">
<title>Node3&#45;&gt;Node44</title>
<path fill="none" stroke="midnightblue" d="M744.41,-280.44C763.08,-271.68 792.34,-257.94 813.8,-247.86"/>
<polygon fill="midnightblue" stroke="midnightblue" points="815.48,-250.93 823.05,-243.52 812.51,-244.6 815.48,-250.93"/>
</g>
<!-- Node5 -->
<g id="node5" class="node">
<title>Node5</title>
<g id="a_node5"><a xlink:href="enum__formatter_8h.html" target="_top" xlink:title=" ">
<polygon fill="white" stroke="black" points="413.19,-168.5 413.19,-187.5 549.19,-187.5 549.19,-168.5 413.19,-168.5"/>
<text text-anchor="middle" x="481.19" y="-175.5" font-family="Helvetica,sans-Serif" font-size="10.00">ccf/ds/enum_formatter.h</text>
</a>
</g>
</g>
<!-- Node4&#45;&gt;Node5 -->
<g id="edge4" class="edge">
<title>Node4&#45;&gt;Node5</title>
<path fill="none" stroke="midnightblue" d="M687.36,-224.44C644.63,-215.02 575.85,-199.87 529.62,-189.68"/>
<polygon fill="midnightblue" stroke="midnightblue" points="530.34,-186.25 519.83,-187.52 528.84,-193.09 530.34,-186.25"/>
</g>
<!-- Node4&#45;&gt;Node6 -->
<g id="edge14" class="edge">
<title>Node4&#45;&gt;Node6</title>
<path fill="none" stroke="midnightblue" d="M770.12,-224.99C829.87,-213.89 929.97,-194.46 935.19,-188 940.77,-181.08 940.58,-175.07 935.19,-168 928.07,-158.67 866.55,-143.57 820.93,-133.47"/>
<polygon fill="midnightblue" stroke="midnightblue" points="821.41,-129.99 810.89,-131.27 819.91,-136.83 821.41,-129.99"/>
</g>
<!-- Node7 -->
<g id="node7" class="node">
<title>Node7</title>
<g id="a_node7"><a xlink:href="thread__ids_8h.html" target="_top" xlink:title=" ">
<polygon fill="white" stroke="black" points="249.19,-168.5 249.19,-187.5 357.19,-187.5 357.19,-168.5 249.19,-168.5"/>
<text text-anchor="middle" x="303.19" y="-175.5" font-family="Helvetica,sans-Serif" font-size="10.00">ccf/ds/thread_ids.h</text>
</a>
</g>
</g>
<!-- Node4&#45;&gt;Node7 -->
<g id="edge6" class="edge">
<title>Node4&#45;&gt;Node7</title>
<path fill="none" stroke="midnightblue" d="M682.51,-227.42C607.59,-217.86 454.24,-198.28 367.22,-187.17"/>
<polygon fill="midnightblue" stroke="midnightblue" points="367.56,-183.69 357.2,-185.9 366.68,-190.63 367.56,-183.69"/>
</g>
<!-- Node13 -->
<g id="node13" class="node">
<title>Node13</title>
<g id="a_node13"><a xlink:title=" ">
<polygon fill="white" stroke="#bfbfbf" points="567.69,-168.5 567.69,-187.5 646.69,-187.5 646.69,-168.5 567.69,-168.5"/>
<text text-anchor="middle" x="607.19" y="-175.5" font-family="Helvetica,sans-Serif" font-size="10.00">fmt/chrono.h</text>
</a>
</g>
</g>
<!-- Node4&#45;&gt;Node13 -->
<g id="edge13" class="edge">
<title>Node4&#45;&gt;Node13</title>
<path fill="none" stroke="midnightblue" d="M707.33,-224.44C687.92,-215.64 657.46,-201.81 635.22,-191.72"/>
<polygon fill="midnightblue" stroke="midnightblue" points="636.51,-188.46 625.95,-187.52 633.61,-194.84 636.51,-188.46"/>
</g>
<!-- Node14 -->
<g id="node14" class="node">
<title>Node14</title>
<g id="a_node14"><a xlink:title=" ">
<polygon fill="white" stroke="#bfbfbf" points="664.19,-168.5 664.19,-187.5 724.19,-187.5 724.19,-168.5 664.19,-168.5"/>
<text text-anchor="middle" x="694.19" y="-175.5" font-family="Helvetica,sans-Serif" font-size="10.00">iostream</text>
</a>
</g>
</g>
<!-- Node4&#45;&gt;Node14 -->
<g id="edge15" class="edge">
<title>Node4&#45;&gt;Node14</title>
<path fill="none" stroke="midnightblue" d="M720.9,-224.08C716.47,-216.61 710.02,-205.72 704.57,-196.52"/>
<polygon fill="midnightblue" stroke="midnightblue" points="707.48,-194.57 699.37,-187.75 701.46,-198.14 707.48,-194.57"/>
</g>
<!-- Node15 -->
<g id="node15" class="node">
<title>Node15</title>
<g id="a_node15"><a xlink:title=" ">
<polygon fill="white" stroke="#bfbfbf" points="742.19,-168.5 742.19,-187.5 852.19,-187.5 852.19,-168.5 742.19,-168.5"/>
<text text-anchor="middle" x="797.19" y="-175.5" font-family="Helvetica,sans-Serif" font-size="10.00">nlohmann/json.hpp</text>
</a>
</g>
</g>
<!-- Node4&#45;&gt;Node15 -->
<g id="edge16" class="edge">
<title>Node4&#45;&gt;Node15</title>
<path fill="none" stroke="midnightblue" d="M737.59,-224.32C748.29,-216.18 764.53,-203.84 777.35,-194.09"/>
<polygon fill="midnightblue" stroke="midnightblue" points="779.73,-196.67 785.57,-187.83 775.49,-191.1 779.73,-196.67"/>
</g>
<!-- Node16 -->
<g id="node16" class="node">
<title>Node16</title>
<g id="a_node16"><a xlink:title=" ">
<polygon fill="white" stroke="#bfbfbf" points="867.19,-112.5 867.19,-131.5 923.19,-131.5 923.19,-112.5 867.19,-112.5"/>
<text text-anchor="middle" x="895.19" y="-119.5" font-family="Helvetica,sans-Serif" font-size="10.00">optional</text>
</a>
</g>
</g>
<!-- Node4&#45;&gt;Node16 -->
<g id="edge17" class="edge">
<title>Node4&#45;&gt;Node16</title>
<path fill="none" stroke="midnightblue" d="M769.84,-225.47C773,-224.96 776.14,-224.47 779.19,-224 837.93,-215.02 1005.09,-232.76 1044.19,-188 1050.03,-181.3 1049.49,-175.14 1044.19,-168 1037.41,-158.88 975.26,-142.33 933.4,-132.04"/>
<polygon fill="midnightblue" stroke="midnightblue" points="934.04,-128.6 923.5,-129.63 932.39,-135.4 934.04,-128.6"/>
</g>
<!-- Node17 -->
<g id="node17" class="node">
<title>Node17</title>
<g id="a_node17"><a xlink:title=" ">
<polygon fill="white" stroke="#bfbfbf" points="870.19,-168.5 870.19,-187.5 926.19,-187.5 926.19,-168.5 870.19,-168.5"/>
<text text-anchor="middle" x="898.19" y="-175.5" font-family="Helvetica,sans-Serif" font-size="10.00">sstream</text>
</a>
</g>
</g>
<!-- Node4&#45;&gt;Node17 -->
<g id="edge18" class="edge">
<title>Node4&#45;&gt;Node17</title>
<path fill="none" stroke="midnightblue" d="M753.44,-224.44C782.63,-215.28 829.11,-200.69 861.5,-190.52"/>
<polygon fill="midnightblue" stroke="midnightblue" points="862.57,-193.85 871.06,-187.52 860.47,-187.17 862.57,-193.85"/>
</g>
<!-- Node18 -->
<g id="node18" class="node">
<title>Node18</title>
<g id="a_node18"><a xlink:title=" ">
<polygon fill="white" stroke="#bfbfbf" points="839.69,-0.5 839.69,-19.5 908.69,-19.5 908.69,-0.5 839.69,-0.5"/>
<text text-anchor="middle" x="874.19" y="-7.5" font-family="Helvetica,sans-Serif" font-size="10.00">type_traits</text>
</a>
</g>
</g>
<!-- Node4&#45;&gt;Node18 -->
<g id="edge19" class="edge">
<title>Node4&#45;&gt;Node18</title>
<path fill="none" stroke="midnightblue" d="M769.93,-224.97C834.56,-213 948.3,-191.52 951.19,-188 956.82,-181.13 956.21,-175.33 951.19,-168 926.13,-131.44 883.24,-168.56 858.19,-132 836.71,-100.66 853.17,-53.87 864.95,-28.64"/>
<polygon fill="midnightblue" stroke="midnightblue" points="868.16,-30.05 869.45,-19.54 861.88,-26.95 868.16,-30.05"/>
</g>
<!-- Node5&#45;&gt;Node6 -->
<g id="edge5" class="edge">
<title>Node5&#45;&gt;Node6</title>
<path fill="none" stroke="midnightblue" d="M527.14,-168.44C580.1,-158.58 666.84,-142.43 721.38,-132.27"/>
<polygon fill="midnightblue" stroke="midnightblue" points="722.32,-135.66 731.51,-130.39 721.04,-128.78 722.32,-135.66"/>
</g>
<!-- Node7&#45;&gt;Node6 -->
<g id="edge7" class="edge">
<title>Node7&#45;&gt;Node6</title>
<path fill="none" stroke="midnightblue" d="M357.33,-170.75C448.87,-160.19 632.87,-138.96 721.38,-128.75"/>
<polygon fill="midnightblue" stroke="midnightblue" points="721.9,-132.21 731.44,-127.59 721.1,-125.26 721.9,-132.21"/>
</g>
<!-- Node8 -->
<g id="node8" class="node">
<title>Node8</title>
<g id="a_node8"><a xlink:title=" ">
<polygon fill="white" stroke="#bfbfbf" points="269.19,-112.5 269.19,-131.5 355.19,-131.5 355.19,-112.5 269.19,-112.5"/>
<text text-anchor="middle" x="312.19" y="-119.5" font-family="Helvetica,sans-Serif" font-size="10.00">fmt/ostream.h</text>
</a>
</g>
</g>
<!-- Node7&#45;&gt;Node8 -->
<g id="edge8" class="edge">
<title>Node7&#45;&gt;Node8</title>
<path fill="none" stroke="midnightblue" d="M304.67,-168.08C305.86,-160.93 307.58,-150.64 309.07,-141.69"/>
<polygon fill="midnightblue" stroke="midnightblue" points="312.54,-142.19 310.73,-131.75 305.63,-141.04 312.54,-142.19"/>
</g>
<!-- Node9 -->
<g id="node9" class="node">
<title>Node9</title>
<g id="a_node9"><a xlink:title=" ">
<polygon fill="white" stroke="#bfbfbf" points="373.69,-112.5 373.69,-131.5 434.69,-131.5 434.69,-112.5 373.69,-112.5"/>
<text text-anchor="middle" x="404.19" y="-119.5" font-family="Helvetica,sans-Serif" font-size="10.00">fmt/std.h</text>
</a>
</g>
</g>
<!-- Node7&#45;&gt;Node9 -->
<g id="edge9" class="edge">
<title>Node7&#45;&gt;Node9</title>
<path fill="none" stroke="midnightblue" d="M319.41,-168.32C335.54,-159.7 360.49,-146.36 379.15,-136.39"/>
<polygon fill="midnightblue" stroke="midnightblue" points="380.83,-139.46 388,-131.65 377.53,-133.28 380.83,-139.46"/>
</g>
<!-- Node10 -->
<g id="node10" class="node">
<title>Node10</title>
<g id="a_node10"><a xlink:title=" ">
<polygon fill="white" stroke="#bfbfbf" points="207.19,-112.5 207.19,-131.5 251.19,-131.5 251.19,-112.5 207.19,-112.5"/>
<text text-anchor="middle" x="229.19" y="-119.5" font-family="Helvetica,sans-Serif" font-size="10.00">limits</text>
</a>
</g>
</g>
<!-- Node7&#45;&gt;Node10 -->
<g id="edge10" class="edge">
<title>Node7&#45;&gt;Node10</title>
<path fill="none" stroke="midnightblue" d="M291.3,-168.32C280.04,-160.11 262.9,-147.6 249.48,-137.81"/>
<polygon fill="midnightblue" stroke="midnightblue" points="251.43,-134.9 241.29,-131.83 247.31,-140.56 251.43,-134.9"/>
</g>
<!-- Node7&#45;&gt;Node11 -->
<g id="edge11" class="edge">
<title>Node7&#45;&gt;Node11</title>
<path fill="none" stroke="midnightblue" d="M348.72,-168.42C388.72,-160.59 448.66,-148.14 509.25,-132.06"/>
<polygon fill="midnightblue" stroke="midnightblue" points="510.23,-135.42 518.98,-129.44 508.41,-128.66 510.23,-135.42"/>
</g>
<!-- Node12 -->
<g id="node12" class="node">
<title>Node12</title>
<g id="a_node12"><a xlink:title=" ">
<polygon fill="white" stroke="#bfbfbf" points="453.19,-112.5 453.19,-131.5 501.19,-131.5 501.19,-112.5 453.19,-112.5"/>
<text text-anchor="middle" x="477.19" y="-119.5" font-family="Helvetica,sans-Serif" font-size="10.00">thread</text>
</a>
</g>
</g>
<!-- Node7&#45;&gt;Node12 -->
<g id="edge12" class="edge">
<title>Node7&#45;&gt;Node12</title>
<path fill="none" stroke="midnightblue" d="M330.76,-168.44C361.33,-158.96 410.64,-143.65 443.48,-133.46"/>
<polygon fill="midnightblue" stroke="midnightblue" points="444.59,-136.78 453.11,-130.47 442.52,-130.09 444.59,-136.78"/>
</g>
<!-- Node20 -->
<g id="node20" class="node">
<title>Node20</title>
<g id="a_node20"><a xlink:href="mem_8h.html" target="_top" xlink:title=" ">
<polygon fill="white" stroke="black" points="23.19,-168.5 23.19,-187.5 109.19,-187.5 109.19,-168.5 23.19,-168.5"/>
<text text-anchor="middle" x="66.19" y="-175.5" font-family="Helvetica,sans-Serif" font-size="10.00">ccf/pal/mem.h</text>
</a>
</g>
</g>
<!-- Node19&#45;&gt;Node20 -->
<g id="edge21" class="edge">
<title>Node19&#45;&gt;Node20</title>
<path fill="none" stroke="midnightblue" d="M140.05,-224.32C126.32,-215.9 105.25,-202.97 89.12,-193.07"/>
<polygon fill="midnightblue" stroke="midnightblue" points="90.64,-189.9 80.29,-187.65 86.98,-195.87 90.64,-189.9"/>
</g>
<!-- Node22 -->
<g id="node22" class="node">
<title>Node22</title>
<g id="a_node22"><a xlink:title=" ">
<polygon fill="white" stroke="#bfbfbf" points="31.19,-0.5 31.19,-19.5 81.19,-19.5 81.19,-0.5 31.19,-0.5"/>
<text text-anchor="middle" x="56.19" y="-7.5" font-family="Helvetica,sans-Serif" font-size="10.00">cstring</text>
</a>
</g>
</g>
<!-- Node19&#45;&gt;Node22 -->
<g id="edge62" class="edge">
<title>Node19&#45;&gt;Node22</title>
<path fill="none" stroke="midnightblue" d="M115.61,-232.34C82.71,-229.47 37.2,-219.56 14.19,-188 -22.04,-138.31 21.13,-61.82 43.88,-28.04"/>
<polygon fill="midnightblue" stroke="midnightblue" points="46.84,-29.91 49.67,-19.7 41.1,-25.92 46.84,-29.91"/>
</g>
<!-- Node19&#45;&gt;Node23 -->
<g id="edge25" class="edge">
<title>Node19&#45;&gt;Node23</title>
<path fill="none" stroke="midnightblue" d="M192.96,-230.9C344.17,-222.71 895.21,-192.86 1085.8,-182.54"/>
<polygon fill="midnightblue" stroke="midnightblue" points="1086.15,-186.03 1095.95,-181.99 1085.77,-179.04 1086.15,-186.03"/>
</g>
<!-- Node43 -->
<g id="node43" class="node">
<title>Node43</title>
<g id="a_node43"><a xlink:title=" ">
<polygon fill="white" stroke="#bfbfbf" points="127.69,-168.5 127.69,-187.5 192.69,-187.5 192.69,-168.5 127.69,-168.5"/>
<text text-anchor="middle" x="160.19" y="-175.5" font-family="Helvetica,sans-Serif" font-size="10.00">functional</text>
</a>
</g>
</g>
<!-- Node19&#45;&gt;Node43 -->
<g id="edge63" class="edge">
<title>Node19&#45;&gt;Node43</title>
<path fill="none" stroke="midnightblue" d="M155.18,-224.08C155.97,-216.93 157.12,-206.64 158.11,-197.69"/>
<polygon fill="midnightblue" stroke="midnightblue" points="161.59,-198.08 159.21,-187.75 154.63,-197.3 161.59,-198.08"/>
</g>
<!-- Node20&#45;&gt;Node10 -->
<g id="edge24" class="edge">
<title>Node20&#45;&gt;Node10</title>
<path fill="none" stroke="midnightblue" d="M92.01,-168.44C120.56,-158.99 166.58,-143.74 197.34,-133.55"/>
<polygon fill="midnightblue" stroke="midnightblue" points="198.75,-136.77 207.14,-130.3 196.54,-130.13 198.75,-136.77"/>
</g>
<!-- Node21 -->
<g id="node21" class="node">
<title>Node21</title>
<g id="a_node21"><a xlink:title=" ">
<polygon fill="white" stroke="#bfbfbf" points="84.69,-112.5 84.69,-131.5 137.69,-131.5 137.69,-112.5 84.69,-112.5"/>
<text text-anchor="middle" x="111.19" y="-119.5" font-family="Helvetica,sans-Serif" font-size="10.00">stdlib.h</text>
</a>
</g>
</g>
<!-- Node20&#45;&gt;Node21 -->
<g id="edge22" class="edge">
<title>Node20&#45;&gt;Node21</title>
<path fill="none" stroke="midnightblue" d="M73.62,-168.08C80.04,-160.38 89.49,-149.03 97.31,-139.65"/>
<polygon fill="midnightblue" stroke="midnightblue" points="100.18,-141.67 103.89,-131.75 94.8,-137.19 100.18,-141.67"/>
</g>
<!-- Node20&#45;&gt;Node22 -->
<g id="edge23" class="edge">
<title>Node20&#45;&gt;Node22</title>
<path fill="none" stroke="midnightblue" d="M65.65,-168.08C64.07,-141.95 59.45,-65.21 57.3,-29.58"/>
<polygon fill="midnightblue" stroke="midnightblue" points="60.8,-29.34 56.7,-19.57 53.81,-29.76 60.8,-29.34"/>
</g>
<!-- Node23&#45;&gt;Node6 -->
<g id="edge57" class="edge">
<title>Node23&#45;&gt;Node6</title>
<path fill="none" stroke="midnightblue" d="M1095.93,-169.15C1021.97,-158.64 891.87,-140.15 820.86,-130.06"/>
<polygon fill="midnightblue" stroke="midnightblue" points="821.22,-126.57 810.83,-128.63 820.23,-133.51 821.22,-126.57"/>
</g>
<!-- Node23&#45;&gt;Node16 -->
<g id="edge58" class="edge">
<title>Node23&#45;&gt;Node16</title>
<path fill="none" stroke="midnightblue" d="M1110.15,-168.42C1067.06,-159.4 997.35,-144.77 937.19,-132 935.91,-131.73 934.62,-131.45 933.31,-131.18"/>
<polygon fill="midnightblue" stroke="midnightblue" points="933.71,-127.68 923.2,-129.02 932.25,-134.53 933.71,-127.68"/>
</g>
<!-- Node24 -->
<g id="node24" class="node">
<title>Node24</title>
<g id="a_node24"><a xlink:href="include_2ccf_2ds_2hash_8h.html" target="_top" xlink:title=" ">
<polygon fill="white" stroke="black" points="1436.19,-112.5 1436.19,-131.5 1516.19,-131.5 1516.19,-112.5 1436.19,-112.5"/>
<text text-anchor="middle" x="1476.19" y="-119.5" font-family="Helvetica,sans-Serif" font-size="10.00">ccf/ds/hash.h</text>
</a>
</g>
</g>
<!-- Node23&#45;&gt;Node24 -->
<g id="edge26" class="edge">
<title>Node23&#45;&gt;Node24</title>
<path fill="none" stroke="midnightblue" d="M1202.68,-168.44C1263.76,-158.29 1364.92,-141.49 1425.6,-131.4"/>
<polygon fill="midnightblue" stroke="midnightblue" points="1426.42,-134.82 1435.71,-129.73 1425.27,-127.91 1426.42,-134.82"/>
</g>
<!-- Node23&#45;&gt;Node28 -->
<g id="edge61" class="edge">
<title>Node23&#45;&gt;Node28</title>
<path fill="none" stroke="midnightblue" d="M1160.54,-168.38C1179.42,-150.97 1223.43,-110.34 1260.19,-76 1278.08,-59.28 1298.48,-40.04 1312.43,-26.85"/>
<polygon fill="midnightblue" stroke="midnightblue" points="1314.97,-29.27 1319.83,-19.86 1310.16,-24.18 1314.97,-29.27"/>
</g>
<!-- Node32 -->
<g id="node32" class="node">
<title>Node32</title>
<g id="a_node32"><a xlink:href="nonstd_8h.html" target="_top" xlink:title=" ">
<polygon fill="white" stroke="black" points="1130.19,-56.5 1130.19,-75.5 1220.19,-75.5 1220.19,-56.5 1130.19,-56.5"/>
<text text-anchor="middle" x="1175.19" y="-63.5" font-family="Helvetica,sans-Serif" font-size="10.00">ccf/ds/nonstd.h</text>
</a>
</g>
</g>
<!-- Node23&#45;&gt;Node32 -->
<g id="edge36" class="edge">
<title>Node23&#45;&gt;Node32</title>
<path fill="none" stroke="midnightblue" d="M1153.07,-168.37C1156.94,-150.62 1165.88,-109.67 1171.13,-85.6"/>
<polygon fill="midnightblue" stroke="midnightblue" points="1174.6,-86.11 1173.31,-75.59 1167.76,-84.62 1174.6,-86.11"/>
</g>
<!-- Node35 -->
<g id="node35" class="node">
<title>Node35</title>
<g id="a_node35"><a xlink:title=" ">
<polygon fill="white" stroke="#bfbfbf" points="1003.19,-0.5 1003.19,-19.5 1047.19,-19.5 1047.19,-0.5 1003.19,-0.5"/>
<text text-anchor="middle" x="1025.19" y="-7.5" font-family="Helvetica,sans-Serif" font-size="10.00">string</text>
</a>
</g>
</g>
<!-- Node23&#45;&gt;Node35 -->
<g id="edge60" class="edge">
<title>Node23&#45;&gt;Node35</title>
<path fill="none" stroke="midnightblue" d="M1115.36,-168.46C1050.64,-152.21 918.62,-114.93 894.19,-76 869.58,-36.8 946.45,-20.47 992.75,-14.31"/>
<polygon fill="midnightblue" stroke="midnightblue" points="993.45,-17.75 1002.95,-13.05 992.59,-10.81 993.45,-17.75"/>
</g>
<!-- Node36 -->
<g id="node36" class="node">
<title>Node36</title>
<g id="a_node36"><a xlink:href="serializer_8h.html" target="_top" xlink:title=" ">
<polygon fill="white" stroke="black" points="1019.19,-112.5 1019.19,-131.5 1089.19,-131.5 1089.19,-112.5 1019.19,-112.5"/>
<text text-anchor="middle" x="1054.19" y="-119.5" font-family="Helvetica,sans-Serif" font-size="10.00">serializer.h</text>
</a>
</g>
</g>
<!-- Node23&#45;&gt;Node36 -->
<g id="edge44" class="edge">
<title>Node23&#45;&gt;Node36</title>
<path fill="none" stroke="midnightblue" d="M1135.6,-168.32C1120.19,-159.74 1096.37,-146.49 1078.48,-136.52"/>
<polygon fill="midnightblue" stroke="midnightblue" points="1080.17,-133.46 1069.73,-131.65 1076.77,-139.58 1080.17,-133.46"/>
</g>
<!-- Node23&#45;&gt;Node41 -->
<g id="edge56" class="edge">
<title>Node23&#45;&gt;Node41</title>
<path fill="none" stroke="midnightblue" d="M1169.41,-168.44C1188.08,-159.68 1217.34,-145.94 1238.8,-135.86"/>
<polygon fill="midnightblue" stroke="midnightblue" points="1240.48,-138.93 1248.05,-131.52 1237.51,-132.6 1240.48,-138.93"/>
</g>
<!-- Node42 -->
<g id="node42" class="node">
<title>Node42</title>
<g id="a_node42"><a xlink:title=" ">
<polygon fill="white" stroke="#bfbfbf" points="1107.19,-112.5 1107.19,-131.5 1147.19,-131.5 1147.19,-112.5 1107.19,-112.5"/>
<text text-anchor="middle" x="1127.19" y="-119.5" font-family="Helvetica,sans-Serif" font-size="10.00">span</text>
</a>
</g>
</g>
<!-- Node23&#45;&gt;Node42 -->
<g id="edge59" class="edge">
<title>Node23&#45;&gt;Node42</title>
<path fill="none" stroke="midnightblue" d="M1147.22,-168.08C1143.97,-160.77 1139.27,-150.18 1135.23,-141.1"/>
<polygon fill="midnightblue" stroke="midnightblue" points="1138.33,-139.47 1131.08,-131.75 1131.94,-142.31 1138.33,-139.47"/>
</g>
<!-- Node25 -->
<g id="node25" class="node">
<title>Node25</title>
<g id="a_node25"><a xlink:href="siphash_8h.html" target="_top" xlink:title=" ">
<polygon fill="white" stroke="black" points="1428.69,-56.5 1428.69,-75.5 1523.69,-75.5 1523.69,-56.5 1428.69,-56.5"/>
<text text-anchor="middle" x="1476.19" y="-63.5" font-family="Helvetica,sans-Serif" font-size="10.00">ccf/ds/siphash.h</text>
</a>
</g>
</g>
<!-- Node24&#45;&gt;Node25 -->
<g id="edge27" class="edge">
<title>Node24&#45;&gt;Node25</title>
<path fill="none" stroke="midnightblue" d="M1476.19,-112.08C1476.19,-105.01 1476.19,-94.86 1476.19,-85.99"/>
<polygon fill="midnightblue" stroke="midnightblue" points="1479.69,-85.75 1476.19,-75.75 1472.69,-85.75 1479.69,-85.75"/>
</g>
<!-- Node27 -->
<g id="node27" class="node">
<title>Node27</title>
<g id="a_node27"><a xlink:title=" ">
<polygon fill="white" stroke="#bfbfbf" points="1412.19,-0.5 1412.19,-19.5 1462.19,-19.5 1462.19,-0.5 1412.19,-0.5"/>
<text text-anchor="middle" x="1437.19" y="-7.5" font-family="Helvetica,sans-Serif" font-size="10.00">cstdint</text>
</a>
</g>
</g>
<!-- Node24&#45;&gt;Node27 -->
<g id="edge32" class="edge">
<title>Node24&#45;&gt;Node27</title>
<path fill="none" stroke="midnightblue" d="M1516.42,-121.91C1593.87,-122.35 1751.63,-116.17 1700.19,-56 1668.47,-18.91 1536.59,-29.3 1472.43,-19.76"/>
<polygon fill="midnightblue" stroke="midnightblue" points="1472.83,-16.28 1462.37,-17.97 1471.6,-23.17 1472.83,-16.28"/>
</g>
<!-- Node24&#45;&gt;Node28 -->
<g id="edge35" class="edge">
<title>Node24&#45;&gt;Node28</title>
<path fill="none" stroke="midnightblue" d="M1464.65,-112.37C1439.64,-93.65 1380.17,-49.15 1349.01,-25.83"/>
<polygon fill="midnightblue" stroke="midnightblue" points="1350.77,-22.78 1340.67,-19.59 1346.58,-28.39 1350.77,-22.78"/>
</g>
<!-- Node29 -->
<g id="node29" class="node">
<title>Node29</title>
<g id="a_node29"><a xlink:title=" ">
<polygon fill="white" stroke="#bfbfbf" points="1480.19,-0.5 1480.19,-19.5 1522.19,-19.5 1522.19,-0.5 1480.19,-0.5"/>
<text text-anchor="middle" x="1501.19" y="-7.5" font-family="Helvetica,sans-Serif" font-size="10.00">array</text>
</a>
</g>
</g>
<!-- Node24&#45;&gt;Node29 -->
<g id="edge31" class="edge">
<title>Node24&#45;&gt;Node29</title>
<path fill="none" stroke="midnightblue" d="M1516.3,-119.99C1581.3,-117.41 1705.09,-108.27 1732.19,-76 1773.73,-26.51 1816.63,-86.7 1532.19,-20 1532.09,-19.98 1531.99,-19.95 1531.89,-19.93"/>
<polygon fill="midnightblue" stroke="midnightblue" points="1533.01,-16.61 1522.45,-17.49 1531.26,-23.38 1533.01,-16.61"/>
</g>
<!-- Node30 -->
<g id="node30" class="node">
<title>Node30</title>
<g id="a_node30"><a xlink:title=" ">
<polygon fill="white" stroke="#bfbfbf" points="1541.69,-56.5 1541.69,-75.5 1690.69,-75.5 1690.69,-56.5 1541.69,-56.5"/>
<text text-anchor="middle" x="1616.19" y="-63.5" font-family="Helvetica,sans-Serif" font-size="10.00">small_vector/SmallVector.h</text>
</a>
</g>
</g>
<!-- Node24&#45;&gt;Node30 -->
<g id="edge33" class="edge">
<title>Node24&#45;&gt;Node30</title>
<path fill="none" stroke="midnightblue" d="M1498.37,-112.44C1521.61,-103.48 1558.33,-89.31 1584.6,-79.18"/>
<polygon fill="midnightblue" stroke="midnightblue" points="1586.04,-82.38 1594.11,-75.52 1583.52,-75.85 1586.04,-82.38"/>
</g>
<!-- Node31 -->
<g id="node31" class="node">
<title>Node31</title>
<g id="a_node31"><a xlink:title=" ">
<polygon fill="white" stroke="#bfbfbf" points="1214.69,-0.5 1214.69,-19.5 1287.69,-19.5 1287.69,-0.5 1214.69,-0.5"/>
<text text-anchor="middle" x="1251.19" y="-7.5" font-family="Helvetica,sans-Serif" font-size="10.00">string_view</text>
</a>
</g>
</g>
<!-- Node24&#45;&gt;Node31 -->
<g id="edge34" class="edge">
<title>Node24&#45;&gt;Node31</title>
<path fill="none" stroke="midnightblue" d="M1458.53,-112.37C1419.26,-93.17 1324.5,-46.84 1277.93,-24.07"/>
<polygon fill="midnightblue" stroke="midnightblue" points="1279.28,-20.84 1268.76,-19.59 1276.21,-27.13 1279.28,-20.84"/>
</g>
<!-- Node26 -->
<g id="node26" class="node">
<title>Node26</title>
<g id="a_node26"><a xlink:title=" ">
<polygon fill="white" stroke="#bfbfbf" points="1540.69,-0.5 1540.69,-19.5 1593.69,-19.5 1593.69,-0.5 1540.69,-0.5"/>
<text text-anchor="middle" x="1567.19" y="-7.5" font-family="Helvetica,sans-Serif" font-size="10.00">cstddef</text>
</a>
</g>
</g>
<!-- Node25&#45;&gt;Node26 -->
<g id="edge28" class="edge">
<title>Node25&#45;&gt;Node26</title>
<path fill="none" stroke="midnightblue" d="M1490.81,-56.32C1505.13,-47.82 1527.2,-34.73 1543.93,-24.8"/>
<polygon fill="midnightblue" stroke="midnightblue" points="1545.79,-27.77 1552.6,-19.65 1542.22,-21.75 1545.79,-27.77"/>
</g>
<!-- Node25&#45;&gt;Node27 -->
<g id="edge29" class="edge">
<title>Node25&#45;&gt;Node27</title>
<path fill="none" stroke="midnightblue" d="M1469.75,-56.08C1464.24,-48.46 1456.15,-37.26 1449.42,-27.94"/>
<polygon fill="midnightblue" stroke="midnightblue" points="1452.2,-25.81 1443.51,-19.75 1446.52,-29.91 1452.2,-25.81"/>
</g>
<!-- Node25&#45;&gt;Node28 -->
<g id="edge30" class="edge">
<title>Node25&#45;&gt;Node28</title>
<path fill="none" stroke="midnightblue" d="M1452.89,-56.44C1428.38,-47.44 1389.59,-33.19 1361.99,-23.05"/>
<polygon fill="midnightblue" stroke="midnightblue" points="1362.96,-19.68 1352.37,-19.52 1360.55,-26.25 1362.96,-19.68"/>
</g>
<!-- Node32&#45;&gt;Node18 -->
<g id="edge42" class="edge">
<title>Node32&#45;&gt;Node18</title>
<path fill="none" stroke="midnightblue" d="M1130.12,-56.92C1073.15,-46.69 975.67,-29.21 918.88,-19.02"/>
<polygon fill="midnightblue" stroke="midnightblue" points="919.23,-15.52 908.77,-17.2 917.99,-22.41 919.23,-15.52"/>
</g>
<!-- Node32&#45;&gt;Node28 -->
<g id="edge43" class="edge">
<title>Node32&#45;&gt;Node28</title>
<path fill="none" stroke="midnightblue" d="M1199.59,-56.44C1225.61,-47.32 1266.98,-32.81 1295.97,-22.65"/>
<polygon fill="midnightblue" stroke="midnightblue" points="1297.38,-25.86 1305.66,-19.25 1295.06,-19.26 1297.38,-25.86"/>
</g>
<!-- Node32&#45;&gt;Node29 -->
<g id="edge38" class="edge">
<title>Node32&#45;&gt;Node29</title>
<path fill="none" stroke="midnightblue" d="M1220.43,-60.13C1276.82,-53.61 1376.23,-40.68 1470.04,-19.99"/>
<polygon fill="midnightblue" stroke="midnightblue" points="1470.99,-23.37 1479.98,-17.76 1469.46,-16.53 1470.99,-23.37"/>
</g>
<!-- Node32&#45;&gt;Node31 -->
<g id="edge41" class="edge">
<title>Node32&#45;&gt;Node31</title>
<path fill="none" stroke="midnightblue" d="M1187.4,-56.32C1198.96,-48.11 1216.56,-35.6 1230.35,-25.81"/>
<polygon fill="midnightblue" stroke="midnightblue" points="1232.63,-28.48 1238.75,-19.83 1228.57,-22.77 1232.63,-28.48"/>
</g>
<!-- Node33 -->
<g id="node33" class="node">
<title>Node33</title>
<g id="a_node33"><a xlink:title=" ">
<polygon fill="white" stroke="#bfbfbf" points="1065.19,-0.5 1065.19,-19.5 1129.19,-19.5 1129.19,-0.5 1065.19,-0.5"/>
<text text-anchor="middle" x="1097.19" y="-7.5" font-family="Helvetica,sans-Serif" font-size="10.00">algorithm</text>
</a>
</g>
</g>
<!-- Node32&#45;&gt;Node33 -->
<g id="edge37" class="edge">
<title>Node32&#45;&gt;Node33</title>
<path fill="none" stroke="midnightblue" d="M1162.65,-56.32C1150.6,-47.98 1132.16,-35.21 1117.92,-25.35"/>
<polygon fill="midnightblue" stroke="midnightblue" points="1119.9,-22.47 1109.69,-19.65 1115.92,-28.22 1119.9,-22.47"/>
</g>
<!-- Node34 -->
<g id="node34" class="node">
<title>Node34</title>
<g id="a_node34"><a xlink:title=" ">
<polygon fill="white" stroke="#bfbfbf" points="1147.69,-0.5 1147.69,-19.5 1196.69,-19.5 1196.69,-0.5 1147.69,-0.5"/>
<text text-anchor="middle" x="1172.19" y="-7.5" font-family="Helvetica,sans-Serif" font-size="10.00">cctype</text>
</a>
</g>
</g>
<!-- Node32&#45;&gt;Node34 -->
<g id="edge39" class="edge">
<title>Node32&#45;&gt;Node34</title>
<path fill="none" stroke="midnightblue" d="M1174.69,-56.08C1174.3,-49.01 1173.73,-38.86 1173.24,-29.99"/>
<polygon fill="midnightblue" stroke="midnightblue" points="1176.72,-29.54 1172.67,-19.75 1169.73,-29.93 1176.72,-29.54"/>
</g>
<!-- Node32&#45;&gt;Node35 -->
<g id="edge40" class="edge">
<title>Node32&#45;&gt;Node35</title>
<path fill="none" stroke="midnightblue" d="M1151.42,-56.44C1125.85,-47.24 1085.06,-32.56 1056.8,-22.38"/>
<polygon fill="midnightblue" stroke="midnightblue" points="1057.97,-19.08 1047.38,-18.99 1055.6,-25.67 1057.97,-19.08"/>
</g>
<!-- Node36&#45;&gt;Node18 -->
<g id="edge54" class="edge">
<title>Node36&#45;&gt;Node18</title>
<path fill="none" stroke="midnightblue" d="M1019.18,-120.48C983.17,-118.05 927.74,-108.75 894.19,-76 881.92,-64.03 877.13,-44.73 875.29,-30.26"/>
<polygon fill="midnightblue" stroke="midnightblue" points="878.74,-29.58 874.35,-19.93 871.77,-30.21 878.74,-29.58"/>
</g>
<!-- Node36&#45;&gt;Node28 -->
<g id="edge55" class="edge">
<title>Node36&#45;&gt;Node28</title>
<path fill="none" stroke="midnightblue" d="M1089.23,-113.4C1132.75,-103.73 1204.27,-86.95 1229.19,-76 1259.6,-62.64 1291.17,-40.49 1310.5,-25.83"/>
<polygon fill="midnightblue" stroke="midnightblue" points="1312.69,-28.55 1318.47,-19.67 1308.42,-23.01 1312.69,-28.55"/>
</g>
<!-- Node36&#45;&gt;Node32 -->
<g id="edge45" class="edge">
<title>Node36&#45;&gt;Node32</title>
<path fill="none" stroke="midnightblue" d="M1073.36,-112.44C1093.09,-103.64 1124.07,-89.81 1146.68,-79.72"/>
<polygon fill="midnightblue" stroke="midnightblue" points="1148.4,-82.79 1156.1,-75.52 1145.54,-76.4 1148.4,-82.79"/>
</g>
<!-- Node36&#45;&gt;Node37 -->
<g id="edge46" class="edge">
<title>Node36&#45;&gt;Node37</title>
<path fill="none" stroke="midnightblue" d="M1057.65,-112.08C1060.5,-104.77 1064.62,-94.18 1068.15,-85.1"/>
<polygon fill="midnightblue" stroke="midnightblue" points="1071.42,-86.34 1071.78,-75.75 1064.9,-83.8 1071.42,-86.34"/>
</g>
<!-- Node39 -->
<g id="node39" class="node">
<title>Node39</title>
<g id="a_node39"><a xlink:title=" ">
<polygon fill="white" stroke="#bfbfbf" points="962.19,-56.5 962.19,-75.5 1020.19,-75.5 1020.19,-56.5 962.19,-56.5"/>
<text text-anchor="middle" x="991.19" y="-63.5" font-family="Helvetica,sans-Serif" font-size="10.00">memory</text>
</a>
</g>
</g>
<!-- Node36&#45;&gt;Node39 -->
<g id="edge52" class="edge">
<title>Node36&#45;&gt;Node39</title>
<path fill="none" stroke="midnightblue" d="M1044.06,-112.32C1034.66,-104.26 1020.44,-92.08 1009.12,-82.37"/>
<polygon fill="midnightblue" stroke="midnightblue" points="1011.36,-79.68 1001.49,-75.83 1006.81,-85 1011.36,-79.68"/>
</g>
<!-- Node40 -->
<g id="node40" class="node">
<title>Node40</title>
<g id="a_node40"><a xlink:title=" ">
<polygon fill="white" stroke="#bfbfbf" points="902.69,-56.5 902.69,-75.5 943.69,-75.5 943.69,-56.5 902.69,-56.5"/>
<text text-anchor="middle" x="923.19" y="-63.5" font-family="Helvetica,sans-Serif" font-size="10.00">tuple</text>
</a>
</g>
</g>
<!-- Node36&#45;&gt;Node40 -->
<g id="edge53" class="edge">
<title>Node36&#45;&gt;Node40</title>
<path fill="none" stroke="midnightblue" d="M1033.43,-112.44C1011.87,-103.56 977.92,-89.56 953.39,-79.45"/>
<polygon fill="midnightblue" stroke="midnightblue" points="954.43,-76.09 943.85,-75.52 951.76,-82.56 954.43,-76.09"/>
</g>
<!-- Node37&#45;&gt;Node22 -->
<g id="edge48" class="edge">
<title>Node37&#45;&gt;Node22</title>
<path fill="none" stroke="midnightblue" d="M1038.6,-57.34C1035.43,-56.83 1032.26,-56.37 1029.19,-56 842.07,-33.49 243.14,-16.06 91.39,-11.93"/>
<polygon fill="midnightblue" stroke="midnightblue" points="91.34,-8.43 81.25,-11.66 91.15,-15.43 91.34,-8.43"/>
</g>
<!-- Node37&#45;&gt;Node27 -->
<g id="edge47" class="edge">
<title>Node37&#45;&gt;Node27</title>
<path fill="none" stroke="midnightblue" d="M1111.81,-57.66C1114.98,-57.08 1118.14,-56.52 1121.19,-56 1222.78,-38.84 1343.49,-22.87 1401.95,-15.41"/>
<polygon fill="midnightblue" stroke="midnightblue" points="1402.65,-18.85 1412.13,-14.12 1401.77,-11.91 1402.65,-18.85"/>
</g>
<!-- Node37&#45;&gt;Node28 -->
<g id="edge51" class="edge">
<title>Node37&#45;&gt;Node28</title>
<path fill="none" stroke="midnightblue" d="M1111.92,-57.71C1164.57,-47.24 1258.58,-28.46 1295.58,-20.18"/>
<polygon fill="midnightblue" stroke="midnightblue" points="1296.52,-23.55 1305.47,-17.88 1294.94,-16.73 1296.52,-23.55"/>
</g>
<!-- Node37&#45;&gt;Node35 -->
<g id="edge50" class="edge">
<title>Node37&#45;&gt;Node35</title>
<path fill="none" stroke="midnightblue" d="M1066.93,-56.08C1059.72,-48.3 1049.08,-36.8 1040.34,-27.37"/>
<polygon fill="midnightblue" stroke="midnightblue" points="1042.65,-24.71 1033.29,-19.75 1037.51,-29.47 1042.65,-24.71"/>
</g>
<!-- Node37&#45;&gt;Node38 -->
<g id="edge49" class="edge">
<title>Node37&#45;&gt;Node38</title>
<path fill="none" stroke="midnightblue" d="M1038.59,-57.46C1035.42,-56.92 1032.25,-56.43 1029.19,-56 846.24,-30.52 626.08,-17.57 534.92,-12.99"/>
<polygon fill="midnightblue" stroke="midnightblue" points="534.87,-9.48 524.71,-12.48 534.52,-16.47 534.87,-9.48"/>
</g>
</g>
</svg>
