<?xml version="1.0" encoding="UTF-8" standalone="no"?>
<!DOCTYPE svg PUBLIC "-//W3C//DTD SVG 1.1//EN"
 "http://www.w3.org/Graphics/SVG/1.1/DTD/svg11.dtd">
<!-- Generated by graphviz version 2.43.0 (0)
 -->
<!-- Title: include/ccf/js_plugin.h Pages: 1 -->
<!--zoomable 341 -->
<svg id="main" version="1.1" xmlns="http://www.w3.org/2000/svg" xmlns:xlink="http://www.w3.org/1999/xlink" xml:space="preserve" onload="init(evt)">
<style type="text/css"><![CDATA[
.edge:hover path { stroke: red; }
.edge:hover polygon { stroke: red; fill: red; }
]]></style>
<script type="text/javascript"><![CDATA[
var edges = document.getElementsByTagName('g');
if (edges && edges.length) {
  for (var i=0;i<edges.length;i++) {
    if (edges[i].id.substr(0,4)=='edge') {
      edges[i].setAttribute('class','edge');
    }
  }
}
]]></script>
        <defs>
                <circle id="rim" cx="0" cy="0" r="7"/>
                <circle id="rim2" cx="0" cy="0" r="3.5"/>
                <g id="zoomPlus">
                        <use xlink:href="#rim" fill="#404040">
                                <set attributeName="fill" to="#808080" begin="zoomplus.mouseover" end="zoomplus.mouseout"/>
                        </use>
                        <path d="M-4,0h8M0,-4v8" fill="none" stroke="white" stroke-width="1.5" pointer-events="none"/>
                </g>
                <g id="zoomMin">
                        <use xlink:href="#rim" fill="#404040">
                                <set attributeName="fill" to="#808080" begin="zoomminus.mouseover" end="zoomminus.mouseout"/>
                        </use>
                        <path d="M-4,0h8" fill="none" stroke="white" stroke-width="1.5" pointer-events="none"/>
                </g>
                <g id="dirArrow">
                        <path fill="none" stroke="white" stroke-width="1.5" d="M0,-3.0v7 M-2.5,-0.5L0,-3.0L2.5,-0.5"/>
                </g>
               <g id="resetDef">
                       <use xlink:href="#rim2" fill="#404040">
                               <set attributeName="fill" to="#808080" begin="reset.mouseover" end="reset.mouseout"/>
                       </use>
               </g>
        </defs>

<script type="text/javascript">
var viewWidth = 2247;
var viewHeight = 341;
var sectionId = 'dynsection-1';
</script>
<script xlink:href="svgpan.js"/>
<svg id="graph" class="graph">
<g id="viewport">
<title>include/ccf/js_plugin.h</title>
<polygon fill="white" stroke="transparent" points="-4,4 -4,-337 2242.5,-337 2242.5,4 -4,4"/>
<!-- Node1 -->
<g id="node1" class="node">
<title>Node1</title>
<g id="a_node1"><a xlink:title=" ">
<polygon fill="#bfbfbf" stroke="black" points="1119,-313.5 1119,-332.5 1244,-332.5 1244,-313.5 1119,-313.5"/>
<text text-anchor="middle" x="1181.5" y="-320.5" font-family="Helvetica,sans-Serif" font-size="10.00">include/ccf/js_plugin.h</text>
</a>
</g>
</g>
<!-- Node2 -->
<g id="node2" class="node">
<title>Node2</title>
<g id="a_node2"><a xlink:href="app__interface_8h.html" target="_top" xlink:title=" ">
<polygon fill="white" stroke="black" points="590.5,-252 590.5,-271 738.5,-271 738.5,-252 590.5,-252"/>
<text text-anchor="middle" x="664.5" y="-259" font-family="Helvetica,sans-Serif" font-size="10.00">include/ccf/app_interface.h</text>
</a>
</g>
</g>
<!-- Node1&#45;&gt;Node2 -->
<g id="edge1" class="edge">
<title>Node1&#45;&gt;Node2</title>
<path fill="none" stroke="midnightblue" d="M1108.77,-313.63C1010.81,-302.36 837.39,-282.4 738.69,-271.04"/>
<polygon fill="midnightblue" stroke="midnightblue" points="1108.55,-317.13 1118.88,-314.79 1109.35,-310.17 1108.55,-317.13"/>
</g>
<!-- Node13 -->
<g id="node13" class="node">
<title>Node13</title>
<g id="a_node13"><a xlink:href="no__plugins_8cpp.html" target="_top" xlink:title=" ">
<polygon fill="white" stroke="black" points="904.5,-185 904.5,-204 1022.5,-204 1022.5,-185 904.5,-185"/>
<text text-anchor="middle" x="963.5" y="-192" font-family="Helvetica,sans-Serif" font-size="10.00">src/js/no_plugins.cpp</text>
</a>
</g>
</g>
<!-- Node1&#45;&gt;Node13 -->
<g id="edge21" class="edge">
<title>Node1&#45;&gt;Node13</title>
<path fill="none" stroke="midnightblue" d="M1156.12,-308.63C1139.6,-299.83 1117.64,-287.96 1098.5,-277 1053.6,-251.29 1001.41,-219.12 977.17,-204.04"/>
<polygon fill="midnightblue" stroke="midnightblue" points="1154.68,-311.83 1165.15,-313.43 1157.96,-305.65 1154.68,-311.83"/>
</g>
<!-- Node16 -->
<g id="node16" class="node">
<title>Node16</title>
<g id="a_node16"><a xlink:href="js__openenclave__plugin_8h.html" target="_top" xlink:title=" ">
<polygon fill="white" stroke="black" points="1107.5,-246.5 1107.5,-276.5 1255.5,-276.5 1255.5,-246.5 1107.5,-246.5"/>
<text text-anchor="start" x="1115.5" y="-264.5" font-family="Helvetica,sans-Serif" font-size="10.00">include/ccf/js_openenclave</text>
<text text-anchor="middle" x="1181.5" y="-253.5" font-family="Helvetica,sans-Serif" font-size="10.00">_plugin.h</text>
</a>
</g>
</g>
<!-- Node1&#45;&gt;Node16 -->
<g id="edge18" class="edge">
<title>Node1&#45;&gt;Node16</title>
<path fill="none" stroke="midnightblue" d="M1181.5,-303.23C1181.5,-294.59 1181.5,-284.5 1181.5,-276.52"/>
<polygon fill="midnightblue" stroke="midnightblue" points="1178,-303.48 1181.5,-313.48 1185,-303.48 1178,-303.48"/>
</g>
<!-- Node17 -->
<g id="node17" class="node">
<title>Node17</title>
<g id="a_node17"><a xlink:href="openenclave_8cpp.html" target="_top" xlink:title=" ">
<polygon fill="white" stroke="black" points="1214.5,-185 1214.5,-204 1342.5,-204 1342.5,-185 1214.5,-185"/>
<text text-anchor="middle" x="1278.5" y="-192" font-family="Helvetica,sans-Serif" font-size="10.00">src/js/openenclave.cpp</text>
</a>
</g>
</g>
<!-- Node1&#45;&gt;Node17 -->
<g id="edge22" class="edge">
<title>Node1&#45;&gt;Node17</title>
<path fill="none" stroke="midnightblue" d="M1220.22,-309.63C1236.32,-302.56 1253.72,-292.03 1264.5,-277 1280.56,-254.6 1280.41,-219.96 1279.32,-204.03"/>
<polygon fill="midnightblue" stroke="midnightblue" points="1218.9,-306.38 1210.96,-313.4 1221.54,-312.87 1218.9,-306.38"/>
</g>
<!-- Node18 -->
<g id="node18" class="node">
<title>Node18</title>
<g id="a_node18"><a xlink:href="wrap_8h.html" target="_top" xlink:title=" ">
<polygon fill="white" stroke="black" points="1537.5,-252 1537.5,-271 1615.5,-271 1615.5,-252 1537.5,-252"/>
<text text-anchor="middle" x="1576.5" y="-259" font-family="Helvetica,sans-Serif" font-size="10.00">src/js/wrap.h</text>
</a>
</g>
</g>
<!-- Node1&#45;&gt;Node18 -->
<g id="edge23" class="edge">
<title>Node1&#45;&gt;Node18</title>
<path fill="none" stroke="midnightblue" d="M1248.17,-311.96C1331.07,-299.47 1469.89,-278.56 1537.34,-268.4"/>
<polygon fill="midnightblue" stroke="midnightblue" points="1247.46,-308.52 1238.09,-313.48 1248.5,-315.45 1247.46,-308.52"/>
</g>
<!-- Node3 -->
<g id="node3" class="node">
<title>Node3</title>
<g id="a_node3"><a xlink:href="logging_8cpp.html" target="_top" xlink:title=" ">
<polygon fill="white" stroke="black" points="0,-179.5 0,-209.5 123,-209.5 123,-179.5 0,-179.5"/>
<text text-anchor="start" x="8" y="-197.5" font-family="Helvetica,sans-Serif" font-size="10.00">samples/apps/logging</text>
<text text-anchor="middle" x="61.5" y="-186.5" font-family="Helvetica,sans-Serif" font-size="10.00">/logging.cpp</text>
</a>
</g>
</g>
<!-- Node2&#45;&gt;Node3 -->
<g id="edge2" class="edge">
<title>Node2&#45;&gt;Node3</title>
<path fill="none" stroke="midnightblue" d="M580.22,-255.38C474.85,-248.33 289.17,-233.73 131.5,-210 128.8,-209.59 126.05,-209.15 123.27,-208.68"/>
<polygon fill="midnightblue" stroke="midnightblue" points="580.26,-258.89 590.47,-256.06 580.72,-251.91 580.26,-258.89"/>
</g>
<!-- Node4 -->
<g id="node4" class="node">
<title>Node4</title>
<g id="a_node4"><a xlink:href="nobuiltins_8cpp.html" target="_top" xlink:title=" ">
<polygon fill="white" stroke="black" points="141,-179.5 141,-209.5 276,-209.5 276,-179.5 141,-179.5"/>
<text text-anchor="start" x="149" y="-197.5" font-family="Helvetica,sans-Serif" font-size="10.00">samples/apps/nobuiltins</text>
<text text-anchor="middle" x="208.5" y="-186.5" font-family="Helvetica,sans-Serif" font-size="10.00">/nobuiltins.cpp</text>
</a>
</g>
</g>
<!-- Node2&#45;&gt;Node4 -->
<g id="edge3" class="edge">
<title>Node2&#45;&gt;Node4</title>
<path fill="none" stroke="midnightblue" d="M581.57,-250.75C504.66,-241.4 387.11,-226.32 285.5,-210 282.41,-209.5 279.26,-208.98 276.07,-208.44"/>
<polygon fill="midnightblue" stroke="midnightblue" points="581.33,-254.25 591.67,-251.97 582.17,-247.3 581.33,-254.25"/>
</g>
<!-- Node5 -->
<g id="node5" class="node">
<title>Node5</title>
<g id="a_node5"><a xlink:href="executor__auth__policy_8h.html" target="_top" xlink:title=" ">
<polygon fill="white" stroke="black" points="294.5,-179.5 294.5,-209.5 442.5,-209.5 442.5,-179.5 294.5,-179.5"/>
<text text-anchor="start" x="302.5" y="-197.5" font-family="Helvetica,sans-Serif" font-size="10.00">src/apps/external_executor</text>
<text text-anchor="middle" x="368.5" y="-186.5" font-family="Helvetica,sans-Serif" font-size="10.00">/executor_auth_policy.h</text>
</a>
</g>
</g>
<!-- Node2&#45;&gt;Node5 -->
<g id="edge4" class="edge">
<title>Node2&#45;&gt;Node5</title>
<path fill="none" stroke="midnightblue" d="M615.57,-249.75C565.5,-238.76 487.47,-221.63 432.52,-209.56"/>
<polygon fill="midnightblue" stroke="midnightblue" points="614.98,-253.21 625.5,-251.94 616.48,-246.37 614.98,-253.21"/>
</g>
<!-- Node6 -->
<g id="node6" class="node">
<title>Node6</title>
<g id="a_node6"><a xlink:href="external__executor_8cpp.html" target="_top" xlink:title=" ">
<polygon fill="white" stroke="black" points="332.5,-112.5 332.5,-142.5 480.5,-142.5 480.5,-112.5 332.5,-112.5"/>
<text text-anchor="start" x="340.5" y="-130.5" font-family="Helvetica,sans-Serif" font-size="10.00">src/apps/external_executor</text>
<text text-anchor="middle" x="406.5" y="-119.5" font-family="Helvetica,sans-Serif" font-size="10.00">/external_executor.cpp</text>
</a>
</g>
</g>
<!-- Node2&#45;&gt;Node6 -->
<g id="edge6" class="edge">
<title>Node2&#45;&gt;Node6</title>
<path fill="none" stroke="midnightblue" d="M621.18,-249.19C591.38,-240.53 551.4,-227.17 518.5,-210 481.62,-190.75 443.44,-160.3 422.55,-142.58"/>
<polygon fill="midnightblue" stroke="midnightblue" points="620.3,-252.57 630.88,-251.94 622.21,-245.84 620.3,-252.57"/>
</g>
<!-- Node7 -->
<g id="node7" class="node">
<title>Node7</title>
<g id="a_node7"><a xlink:href="js__generic_8cpp.html" target="_top" xlink:title=" ">
<polygon fill="white" stroke="black" points="536.5,-112.5 536.5,-142.5 646.5,-142.5 646.5,-112.5 536.5,-112.5"/>
<text text-anchor="start" x="544.5" y="-130.5" font-family="Helvetica,sans-Serif" font-size="10.00">src/apps/js_generic</text>
<text text-anchor="middle" x="591.5" y="-119.5" font-family="Helvetica,sans-Serif" font-size="10.00">/js_generic.cpp</text>
</a>
</g>
</g>
<!-- Node2&#45;&gt;Node7 -->
<g id="edge7" class="edge">
<title>Node2&#45;&gt;Node7</title>
<path fill="none" stroke="midnightblue" d="M586.39,-249.13C563.66,-241.79 541.26,-229.74 527.5,-210 519.62,-198.7 521.49,-191.4 527.5,-179 535.09,-163.33 550.16,-151.06 563.78,-142.54"/>
<polygon fill="midnightblue" stroke="midnightblue" points="585.55,-252.53 596.13,-251.99 587.53,-245.81 585.55,-252.53"/>
</g>
<!-- Node8 -->
<g id="node8" class="node">
<title>Node8</title>
<g id="a_node8"><a xlink:href="js__generic__base_8cpp.html" target="_top" xlink:title=" ">
<polygon fill="white" stroke="black" points="1040.5,-179.5 1040.5,-209.5 1158.5,-209.5 1158.5,-179.5 1040.5,-179.5"/>
<text text-anchor="start" x="1048.5" y="-197.5" font-family="Helvetica,sans-Serif" font-size="10.00">src/apps/js_generic</text>
<text text-anchor="middle" x="1099.5" y="-186.5" font-family="Helvetica,sans-Serif" font-size="10.00">/js_generic_base.cpp</text>
</a>
</g>
</g>
<!-- Node2&#45;&gt;Node8 -->
<g id="edge8" class="edge">
<title>Node2&#45;&gt;Node8</title>
<path fill="none" stroke="midnightblue" d="M748.48,-250.72C823.04,-241.62 934.84,-226.93 1031.5,-210 1034.35,-209.5 1037.27,-208.97 1040.21,-208.41"/>
<polygon fill="midnightblue" stroke="midnightblue" points="747.71,-247.29 738.21,-251.97 748.56,-254.24 747.71,-247.29"/>
</g>
<!-- Node9 -->
<g id="node9" class="node">
<title>Node9</title>
<g id="a_node9"><a xlink:href="js__generic__base_8h.html" target="_top" xlink:title=" ">
<polygon fill="white" stroke="black" points="536.5,-179.5 536.5,-209.5 646.5,-209.5 646.5,-179.5 536.5,-179.5"/>
<text text-anchor="start" x="544.5" y="-197.5" font-family="Helvetica,sans-Serif" font-size="10.00">src/apps/js_generic</text>
<text text-anchor="middle" x="591.5" y="-186.5" font-family="Helvetica,sans-Serif" font-size="10.00">/js_generic_base.h</text>
</a>
</g>
</g>
<!-- Node2&#45;&gt;Node9 -->
<g id="edge9" class="edge">
<title>Node2&#45;&gt;Node9</title>
<path fill="none" stroke="midnightblue" d="M647.01,-244.93C634.94,-234.18 619.02,-220 607.32,-209.59"/>
<polygon fill="midnightblue" stroke="midnightblue" points="644.86,-247.7 654.65,-251.73 649.51,-242.47 644.86,-247.7"/>
</g>
<!-- Node10 -->
<g id="node10" class="node">
<title>Node10</title>
<g id="a_node10"><a xlink:href="tpcc_8cpp.html" target="_top" xlink:title=" ">
<polygon fill="white" stroke="black" points="665,-185 665,-204 810,-204 810,-185 665,-185"/>
<text text-anchor="middle" x="737.5" y="-192" font-family="Helvetica,sans-Serif" font-size="10.00">src/apps/tpcc/app/tpcc.cpp</text>
</a>
</g>
</g>
<!-- Node2&#45;&gt;Node10 -->
<g id="edge11" class="edge">
<title>Node2&#45;&gt;Node10</title>
<path fill="none" stroke="midnightblue" d="M682.07,-244.86C696.42,-232.08 716.17,-214.49 727.81,-204.13"/>
<polygon fill="midnightblue" stroke="midnightblue" points="679.49,-242.47 674.35,-251.73 684.14,-247.7 679.49,-242.47"/>
</g>
<!-- Node11 -->
<g id="node11" class="node">
<title>Node11</title>
<g id="a_node11"><a xlink:href="src_2enclave_2enclave_8h.html" target="_top" xlink:title=" ">
<polygon fill="white" stroke="black" points="1848.5,-56.5 1848.5,-75.5 1970.5,-75.5 1970.5,-56.5 1848.5,-56.5"/>
<text text-anchor="middle" x="1909.5" y="-63.5" font-family="Helvetica,sans-Serif" font-size="10.00">src/enclave/enclave.h</text>
</a>
</g>
</g>
<!-- Node2&#45;&gt;Node11 -->
<g id="edge12" class="edge">
<title>Node2&#45;&gt;Node11</title>
<path fill="none" stroke="midnightblue" d="M715.81,-249.48C746.91,-241.42 786.59,-228.61 818.5,-210 836.16,-199.7 834.94,-189.48 852.5,-179 929.74,-132.88 955.24,-129.4 1043.5,-112 1197.85,-81.57 1677.38,-70.83 1848.26,-67.92"/>
<polygon fill="midnightblue" stroke="midnightblue" points="714.89,-246.1 706.04,-251.93 716.59,-252.89 714.89,-246.1"/>
</g>
<!-- Node2&#45;&gt;Node13 -->
<g id="edge14" class="edge">
<title>Node2&#45;&gt;Node13</title>
<path fill="none" stroke="midnightblue" d="M713.71,-249.8C772.55,-237.01 869.85,-215.86 924.02,-204.08"/>
<polygon fill="midnightblue" stroke="midnightblue" points="712.92,-246.39 703.9,-251.94 714.41,-253.23 712.92,-246.39"/>
</g>
<!-- Node15 -->
<g id="node15" class="node">
<title>Node15</title>
<g id="a_node15"><a xlink:href="user__frontend_8h.html" target="_top" xlink:title=" ">
<polygon fill="white" stroke="black" points="1053,-118 1053,-137 1208,-137 1208,-118 1053,-118"/>
<text text-anchor="middle" x="1130.5" y="-125" font-family="Helvetica,sans-Serif" font-size="10.00">src/node/rpc/user_frontend.h</text>
</a>
</g>
</g>
<!-- Node2&#45;&gt;Node15 -->
<g id="edge16" class="edge">
<title>Node2&#45;&gt;Node15</title>
<path fill="none" stroke="midnightblue" d="M725.57,-249.94C763.34,-242.01 812.15,-229.17 852.5,-210 873.78,-199.89 873.97,-188.57 895.5,-179 945.46,-156.8 1005.82,-144.1 1052.86,-136.98"/>
<polygon fill="midnightblue" stroke="midnightblue" points="724.82,-246.52 715.73,-251.95 726.22,-253.38 724.82,-246.52"/>
</g>
<!-- Node5&#45;&gt;Node6 -->
<g id="edge5" class="edge">
<title>Node5&#45;&gt;Node6</title>
<path fill="none" stroke="midnightblue" d="M381.9,-170.58C387.36,-161.24 393.49,-150.75 398.27,-142.58"/>
<polygon fill="midnightblue" stroke="midnightblue" points="378.77,-169 376.75,-179.4 384.81,-172.53 378.77,-169"/>
</g>
<!-- Node9&#45;&gt;Node7 -->
<g id="edge10" class="edge">
<title>Node9&#45;&gt;Node7</title>
<path fill="none" stroke="midnightblue" d="M591.5,-169.11C591.5,-160.15 591.5,-150.32 591.5,-142.58"/>
<polygon fill="midnightblue" stroke="midnightblue" points="588,-169.4 591.5,-179.4 595,-169.4 588,-169.4"/>
</g>
<!-- Node12 -->
<g id="node12" class="node">
<title>Node12</title>
<g id="a_node12"><a xlink:href="enclave_2main_8cpp.html" target="_top" xlink:title=" ">
<polygon fill="white" stroke="black" points="1849.5,-0.5 1849.5,-19.5 1969.5,-19.5 1969.5,-0.5 1849.5,-0.5"/>
<text text-anchor="middle" x="1909.5" y="-7.5" font-family="Helvetica,sans-Serif" font-size="10.00">src/enclave/main.cpp</text>
</a>
</g>
</g>
<!-- Node11&#45;&gt;Node12 -->
<g id="edge13" class="edge">
<title>Node11&#45;&gt;Node12</title>
<path fill="none" stroke="midnightblue" d="M1909.5,-45.8C1909.5,-36.91 1909.5,-26.78 1909.5,-19.75"/>
<polygon fill="midnightblue" stroke="midnightblue" points="1906,-46.08 1909.5,-56.08 1913,-46.08 1906,-46.08"/>
</g>
<!-- Node14 -->
<g id="node14" class="node">
<title>Node14</title>
<g id="a_node14"><a xlink:href="wrap_8cpp.html" target="_top" xlink:title=" ">
<polygon fill="white" stroke="black" points="1472,-118 1472,-137 1561,-137 1561,-118 1472,-118"/>
<text text-anchor="middle" x="1516.5" y="-125" font-family="Helvetica,sans-Serif" font-size="10.00">src/js/wrap.cpp</text>
</a>
</g>
</g>
<!-- Node13&#45;&gt;Node14 -->
<g id="edge15" class="edge">
<title>Node13&#45;&gt;Node14</title>
<path fill="none" stroke="midnightblue" d="M1010.28,-182.84C1017.37,-181.43 1024.61,-180.09 1031.5,-179 1192.67,-153.5 1386.09,-137.77 1471.83,-131.55"/>
<polygon fill="midnightblue" stroke="midnightblue" points="1009.15,-179.5 1000.07,-184.96 1010.57,-186.36 1009.15,-179.5"/>
</g>
<!-- Node15&#45;&gt;Node11 -->
<g id="edge17" class="edge">
<title>Node15&#45;&gt;Node11</title>
<path fill="none" stroke="midnightblue" d="M1218.29,-119.79C1377.77,-107.61 1711.24,-82.14 1848.49,-71.66"/>
<polygon fill="midnightblue" stroke="midnightblue" points="1217.75,-116.33 1208.04,-120.58 1218.28,-123.31 1217.75,-116.33"/>
</g>
<!-- Node16&#45;&gt;Node7 -->
<g id="edge19" class="edge">
<title>Node16&#45;&gt;Node7</title>
<path fill="none" stroke="midnightblue" d="M1184.5,-236.26C1185.32,-217.81 1182.95,-193.22 1167.5,-179 1129.67,-144.18 783.48,-132.75 646.72,-129.57"/>
<polygon fill="midnightblue" stroke="midnightblue" points="1181.01,-236.06 1183.73,-246.3 1187.99,-236.59 1181.01,-236.06"/>
</g>
<!-- Node16&#45;&gt;Node17 -->
<g id="edge20" class="edge">
<title>Node16&#45;&gt;Node17</title>
<path fill="none" stroke="midnightblue" d="M1211.14,-240.64C1229.44,-228.37 1251.99,-213.26 1265.8,-204.01"/>
<polygon fill="midnightblue" stroke="midnightblue" points="1208.91,-237.92 1202.55,-246.4 1212.8,-243.74 1208.91,-237.92"/>
</g>
<!-- Node18&#45;&gt;Node8 -->
<g id="edge24" class="edge">
<title>Node18&#45;&gt;Node8</title>
<path fill="none" stroke="midnightblue" d="M1527.23,-253.8C1456.16,-244.14 1320.76,-225.73 1205.5,-210 1190.32,-207.93 1173.91,-205.69 1158.65,-203.6"/>
<polygon fill="midnightblue" stroke="midnightblue" points="1526.86,-257.29 1537.24,-255.16 1527.8,-250.35 1526.86,-257.29"/>
</g>
<!-- Node18&#45;&gt;Node11 -->
<g id="edge25" class="edge">
<title>Node18&#45;&gt;Node11</title>
<path fill="none" stroke="midnightblue" d="M1625.76,-258.37C1700.18,-254.14 1836.33,-242.13 1871.5,-210 1911.33,-173.61 1911.38,-100.7 1910.12,-75.67"/>
<polygon fill="midnightblue" stroke="midnightblue" points="1625.48,-254.88 1615.69,-258.92 1625.86,-261.87 1625.48,-254.88"/>
</g>
<!-- Node18&#45;&gt;Node14 -->
<g id="edge35" class="edge">
<title>Node18&#45;&gt;Node14</title>
<path fill="none" stroke="midnightblue" d="M1527.22,-254C1477.64,-246.33 1406.19,-231.79 1389.5,-210 1361.79,-173.81 1430.42,-149.16 1477.23,-137.09"/>
<polygon fill="midnightblue" stroke="midnightblue" points="1526.72,-257.46 1537.13,-255.49 1527.76,-250.54 1526.72,-257.46"/>
</g>
<!-- Node18&#45;&gt;Node17 -->
<g id="edge34" class="edge">
<title>Node18&#45;&gt;Node17</title>
<path fill="none" stroke="midnightblue" d="M1527.46,-249.8C1468.82,-237.01 1371.83,-215.86 1317.85,-204.08"/>
<polygon fill="midnightblue" stroke="midnightblue" points="1526.72,-253.22 1537.24,-251.94 1528.21,-246.38 1526.72,-253.22"/>
</g>
<!-- Node19 -->
<g id="node19" class="node">
<title>Node19</title>
<g id="a_node19"><a xlink:href="consensus_8cpp.html" target="_top" xlink:title=" ">
<polygon fill="white" stroke="black" points="1398.5,-185 1398.5,-204 1514.5,-204 1514.5,-185 1398.5,-185"/>
<text text-anchor="middle" x="1456.5" y="-192" font-family="Helvetica,sans-Serif" font-size="10.00">src/js/consensus.cpp</text>
</a>
</g>
</g>
<!-- Node18&#45;&gt;Node19 -->
<g id="edge26" class="edge">
<title>Node18&#45;&gt;Node19</title>
<path fill="none" stroke="midnightblue" d="M1551.5,-246.96C1527.71,-234.07 1492.63,-215.07 1472.43,-204.13"/>
<polygon fill="midnightblue" stroke="midnightblue" points="1549.86,-250.05 1560.32,-251.73 1553.19,-243.89 1549.86,-250.05"/>
</g>
<!-- Node20 -->
<g id="node20" class="node">
<title>Node20</title>
<g id="a_node20"><a xlink:href="conv_8cpp.html" target="_top" xlink:title=" ">
<polygon fill="white" stroke="black" points="1532.5,-185 1532.5,-204 1620.5,-204 1620.5,-185 1532.5,-185"/>
<text text-anchor="middle" x="1576.5" y="-192" font-family="Helvetica,sans-Serif" font-size="10.00">src/js/conv.cpp</text>
</a>
</g>
</g>
<!-- Node18&#45;&gt;Node20 -->
<g id="edge28" class="edge">
<title>Node18&#45;&gt;Node20</title>
<path fill="none" stroke="midnightblue" d="M1576.5,-241.54C1576.5,-229.17 1576.5,-213.62 1576.5,-204.13"/>
<polygon fill="midnightblue" stroke="midnightblue" points="1573,-241.73 1576.5,-251.73 1580,-241.73 1573,-241.73"/>
</g>
<!-- Node21 -->
<g id="node21" class="node">
<title>Node21</title>
<g id="a_node21"><a xlink:href="crypto_8cpp.html" target="_top" xlink:title=" ">
<polygon fill="white" stroke="black" points="1638.5,-185 1638.5,-204 1734.5,-204 1734.5,-185 1638.5,-185"/>
<text text-anchor="middle" x="1686.5" y="-192" font-family="Helvetica,sans-Serif" font-size="10.00">src/js/crypto.cpp</text>
</a>
</g>
</g>
<!-- Node18&#45;&gt;Node21 -->
<g id="edge30" class="edge">
<title>Node18&#45;&gt;Node21</title>
<path fill="none" stroke="midnightblue" d="M1600,-246.62C1621.79,-233.74 1653.54,-214.98 1671.9,-204.13"/>
<polygon fill="midnightblue" stroke="midnightblue" points="1598.16,-243.63 1591.34,-251.73 1601.72,-249.66 1598.16,-243.63"/>
</g>
<!-- Node22 -->
<g id="node22" class="node">
<title>Node22</title>
<g id="a_node22"><a xlink:href="historical_8cpp.html" target="_top" xlink:title=" ">
<polygon fill="white" stroke="black" points="1752.5,-185 1752.5,-204 1862.5,-204 1862.5,-185 1752.5,-185"/>
<text text-anchor="middle" x="1807.5" y="-192" font-family="Helvetica,sans-Serif" font-size="10.00">src/js/historical.cpp</text>
</a>
</g>
</g>
<!-- Node18&#45;&gt;Node22 -->
<g id="edge32" class="edge">
<title>Node18&#45;&gt;Node22</title>
<path fill="none" stroke="midnightblue" d="M1617.05,-249.09C1662.74,-236.23 1736,-215.62 1777.07,-204.06"/>
<polygon fill="midnightblue" stroke="midnightblue" points="1615.85,-245.79 1607.18,-251.87 1617.75,-252.53 1615.85,-245.79"/>
</g>
<!-- Node23 -->
<g id="node23" class="node">
<title>Node23</title>
<g id="a_node23"><a xlink:href="node__state_8h.html" target="_top" xlink:title=" ">
<polygon fill="white" stroke="black" points="1918.5,-185 1918.5,-204 2042.5,-204 2042.5,-185 1918.5,-185"/>
<text text-anchor="middle" x="1980.5" y="-192" font-family="Helvetica,sans-Serif" font-size="10.00">src/node/node_state.h</text>
</a>
</g>
</g>
<!-- Node18&#45;&gt;Node23 -->
<g id="edge36" class="edge">
<title>Node18&#45;&gt;Node23</title>
<path fill="none" stroke="midnightblue" d="M1625.95,-253.45C1690.23,-244.15 1805.94,-226.98 1904.5,-210 1915.09,-208.18 1926.48,-206.07 1937.14,-204.05"/>
<polygon fill="midnightblue" stroke="midnightblue" points="1625.1,-250.04 1615.7,-254.93 1626.1,-256.96 1625.1,-250.04"/>
</g>
<!-- Node25 -->
<g id="node25" class="node">
<title>Node25</title>
<g id="a_node25"><a xlink:href="member__frontend_8h.html" target="_top" xlink:title=" ">
<polygon fill="white" stroke="black" points="2118.5,-112.5 2118.5,-142.5 2238.5,-142.5 2238.5,-112.5 2118.5,-112.5"/>
<text text-anchor="start" x="2126.5" y="-130.5" font-family="Helvetica,sans-Serif" font-size="10.00">src/node/rpc/member</text>
<text text-anchor="middle" x="2178.5" y="-119.5" font-family="Helvetica,sans-Serif" font-size="10.00">_frontend.h</text>
</a>
</g>
</g>
<!-- Node18&#45;&gt;Node25 -->
<g id="edge40" class="edge">
<title>Node18&#45;&gt;Node25</title>
<path fill="none" stroke="midnightblue" d="M1625.66,-258.15C1730.7,-252.65 1973.8,-237.33 2051.5,-210 2095.24,-194.61 2139.21,-161.54 2162.18,-142.6"/>
<polygon fill="midnightblue" stroke="midnightblue" points="1625.44,-254.65 1615.64,-258.66 1625.8,-261.64 1625.44,-254.65"/>
</g>
<!-- Node19&#45;&gt;Node14 -->
<g id="edge27" class="edge">
<title>Node19&#45;&gt;Node14</title>
<path fill="none" stroke="midnightblue" d="M1471.61,-177.13C1483.34,-164.42 1499.15,-147.3 1508.54,-137.13"/>
<polygon fill="midnightblue" stroke="midnightblue" points="1468.8,-175.01 1464.59,-184.73 1473.95,-179.76 1468.8,-175.01"/>
</g>
<!-- Node20&#45;&gt;Node14 -->
<g id="edge29" class="edge">
<title>Node20&#45;&gt;Node14</title>
<path fill="none" stroke="midnightblue" d="M1561.39,-177.13C1549.66,-164.42 1533.85,-147.3 1524.46,-137.13"/>
<polygon fill="midnightblue" stroke="midnightblue" points="1559.05,-179.76 1568.41,-184.73 1564.2,-175.01 1559.05,-179.76"/>
</g>
<!-- Node21&#45;&gt;Node14 -->
<g id="edge31" class="edge">
<title>Node21&#45;&gt;Node14</title>
<path fill="none" stroke="midnightblue" d="M1654.52,-181.27C1620.78,-168.37 1568.48,-148.38 1538.9,-137.06"/>
<polygon fill="midnightblue" stroke="midnightblue" points="1653.33,-184.57 1663.93,-184.87 1655.83,-178.03 1653.33,-184.57"/>
</g>
<!-- Node22&#45;&gt;Node14 -->
<g id="edge33" class="edge">
<title>Node22&#45;&gt;Node14</title>
<path fill="none" stroke="midnightblue" d="M1760.02,-182.72C1754.45,-181.46 1748.85,-180.2 1743.5,-179 1677.32,-164.14 1600.24,-147.04 1555.07,-137.03"/>
<polygon fill="midnightblue" stroke="midnightblue" points="1759.42,-186.17 1769.94,-184.96 1760.96,-179.35 1759.42,-186.17"/>
</g>
<!-- Node23&#45;&gt;Node11 -->
<g id="edge37" class="edge">
<title>Node23&#45;&gt;Node11</title>
<path fill="none" stroke="midnightblue" d="M1968.67,-176.46C1962.14,-166.82 1954.06,-154.43 1947.5,-143 1933.84,-119.21 1919.97,-89.87 1913.41,-75.6"/>
<polygon fill="midnightblue" stroke="midnightblue" points="1965.8,-178.48 1974.34,-184.75 1971.58,-174.53 1965.8,-178.48"/>
</g>
<!-- Node24 -->
<g id="node24" class="node">
<title>Node24</title>
<g id="a_node24"><a xlink:href="gov__effects_8h.html" target="_top" xlink:title=" ">
<polygon fill="white" stroke="black" points="1956.5,-118 1956.5,-137 2100.5,-137 2100.5,-118 1956.5,-118"/>
<text text-anchor="middle" x="2028.5" y="-125" font-family="Helvetica,sans-Serif" font-size="10.00">src/node/rpc/gov_effects.h</text>
</a>
</g>
</g>
<!-- Node23&#45;&gt;Node24 -->
<g id="edge38" class="edge">
<title>Node23&#45;&gt;Node24</title>
<path fill="none" stroke="midnightblue" d="M1993.12,-176.4C2002.45,-163.77 2014.76,-147.1 2022.13,-137.13"/>
<polygon fill="midnightblue" stroke="midnightblue" points="1990.1,-174.61 1986.97,-184.73 1995.73,-178.77 1990.1,-174.61"/>
</g>
<!-- Node24&#45;&gt;Node11 -->
<g id="edge39" class="edge">
<title>Node24&#45;&gt;Node11</title>
<path fill="none" stroke="midnightblue" d="M2002.23,-113.37C1979.17,-101.83 1946.3,-85.4 1926.52,-75.51"/>
<polygon fill="midnightblue" stroke="midnightblue" points="2000.94,-116.63 2011.45,-117.98 2004.07,-110.37 2000.94,-116.63"/>
</g>
<!-- Node25&#45;&gt;Node11 -->
<g id="edge41" class="edge">
<title>Node25&#45;&gt;Node11</title>
<path fill="none" stroke="midnightblue" d="M2108.47,-111.01C2057.34,-99.7 1989.92,-84.79 1948.16,-75.55"/>
<polygon fill="midnightblue" stroke="midnightblue" points="2107.95,-114.48 2118.47,-113.22 2109.46,-107.64 2107.95,-114.48"/>
</g>
</g>
</svg>
        <g id="navigator" transform="translate(0 0)" fill="#404254">
                <rect fill="#f2f5e9" fill-opacity="0.5" stroke="#606060" stroke-width=".5" x="0" y="0" width="60" height="60"/>
                <use id="zoomplus" xlink:href="#zoomPlus" x="17" y="9" onmousedown="handleZoom(evt,'in')"/>
                <use id="zoomminus" xlink:href="#zoomMin" x="42" y="9" onmousedown="handleZoom(evt,'out')"/>
                <use id="reset" xlink:href="#resetDef" x="30" y="36" onmousedown="handleReset()"/>
                <g id="arrowUp" xlink:href="#dirArrow" transform="translate(30 24)" onmousedown="handlePan(0,-1)">
                  <use xlink:href="#rim" fill="#404040">
                        <set attributeName="fill" to="#808080" begin="arrowUp.mouseover" end="arrowUp.mouseout"/>
                  </use>
                  <path fill="none" stroke="white" stroke-width="1.5" d="M0,-3.0v7 M-2.5,-0.5L0,-3.0L2.5,-0.5"/>
                </g>
                <g id="arrowRight" xlink:href="#dirArrow" transform="rotate(90) translate(36 -43)" onmousedown="handlePan(1,0)">
                  <use xlink:href="#rim" fill="#404040">
                        <set attributeName="fill" to="#808080" begin="arrowRight.mouseover" end="arrowRight.mouseout"/>
                  </use>
                  <path fill="none" stroke="white" stroke-width="1.5" d="M0,-3.0v7 M-2.5,-0.5L0,-3.0L2.5,-0.5"/>
                </g>
                <g id="arrowDown" xlink:href="#dirArrow" transform="rotate(180) translate(-30 -48)" onmousedown="handlePan(0,1)">
                  <use xlink:href="#rim" fill="#404040">
                        <set attributeName="fill" to="#808080" begin="arrowDown.mouseover" end="arrowDown.mouseout"/>
                  </use>
                  <path fill="none" stroke="white" stroke-width="1.5" d="M0,-3.0v7 M-2.5,-0.5L0,-3.0L2.5,-0.5"/>
                </g>
                <g id="arrowLeft" xlink:href="#dirArrow" transform="rotate(270) translate(-36 17)" onmousedown="handlePan(-1,0)">
                  <use xlink:href="#rim" fill="#404040">
                        <set attributeName="fill" to="#808080" begin="arrowLeft.mouseover" end="arrowLeft.mouseout"/>
                  </use>
                  <path fill="none" stroke="white" stroke-width="1.5" d="M0,-3.0v7 M-2.5,-0.5L0,-3.0L2.5,-0.5"/>
                </g>
        </g>
        <svg viewBox="0 0 15 15" width="100%" height="30px" preserveAspectRatio="xMaxYMin meet">
         <g id="arrow_out" transform="scale(0.3 0.3)">
          <a xlink:href="js__plugin_8h__dep__incl_org.svg" target="_base">
           <rect id="button" ry="5" rx="5" y="6" x="6" height="38" width="38"
                fill="#f2f5e9" fill-opacity="0.5" stroke="#606060" stroke-width="1.0"/>
           <path id="arrow"
             d="M 11.500037,31.436501 C 11.940474,20.09759 22.043105,11.32322 32.158766,21.979434 L 37.068811,17.246167 C 37.068811,17.246167 37.088388,32 37.088388,32 L 22.160133,31.978069 C 22.160133,31.978069 26.997745,27.140456 26.997745,27.140456 C 18.528582,18.264221 13.291696,25.230495 11.500037,31.436501 z"
             style="fill:#404040;"/>
          </a>
         </g>
        </svg>
</svg>
