<?xml version="1.0" encoding="UTF-8" standalone="no"?>
<!DOCTYPE svg PUBLIC "-//W3C//DTD SVG 1.1//EN"
 "http://www.w3.org/Graphics/SVG/1.1/DTD/svg11.dtd">
<!-- Generated by graphviz version 2.43.0 (0)
 -->
<!-- Title: include/ccf/crypto/key_wrap.h Pages: 1 -->
<!--zoomable 565 -->
<svg id="main" version="1.1" xmlns="http://www.w3.org/2000/svg" xmlns:xlink="http://www.w3.org/1999/xlink" xml:space="preserve" onload="init(evt)">
<style type="text/css"><![CDATA[
.edge:hover path { stroke: red; }
.edge:hover polygon { stroke: red; fill: red; }
]]></style>
<script type="text/javascript"><![CDATA[
var edges = document.getElementsByTagName('g');
if (edges && edges.length) {
  for (var i=0;i<edges.length;i++) {
    if (edges[i].id.substr(0,4)=='edge') {
      edges[i].setAttribute('class','edge');
    }
  }
}
]]></script>
        <defs>
                <circle id="rim" cx="0" cy="0" r="7"/>
                <circle id="rim2" cx="0" cy="0" r="3.5"/>
                <g id="zoomPlus">
                        <use xlink:href="#rim" fill="#404040">
                                <set attributeName="fill" to="#808080" begin="zoomplus.mouseover" end="zoomplus.mouseout"/>
                        </use>
                        <path d="M-4,0h8M0,-4v8" fill="none" stroke="white" stroke-width="1.5" pointer-events="none"/>
                </g>
                <g id="zoomMin">
                        <use xlink:href="#rim" fill="#404040">
                                <set attributeName="fill" to="#808080" begin="zoomminus.mouseover" end="zoomminus.mouseout"/>
                        </use>
                        <path d="M-4,0h8" fill="none" stroke="white" stroke-width="1.5" pointer-events="none"/>
                </g>
                <g id="dirArrow">
                        <path fill="none" stroke="white" stroke-width="1.5" d="M0,-3.0v7 M-2.5,-0.5L0,-3.0L2.5,-0.5"/>
                </g>
               <g id="resetDef">
                       <use xlink:href="#rim2" fill="#404040">
                               <set attributeName="fill" to="#808080" begin="reset.mouseover" end="reset.mouseout"/>
                       </use>
               </g>
        </defs>

<script type="text/javascript">
var viewWidth = 1919;
var viewHeight = 565;
var sectionId = 'dynsection-0';
</script>
<script xlink:href="svgpan.js"/>
<svg id="graph" class="graph">
<g id="viewport">
<title>include/ccf/crypto/key_wrap.h</title>
<polygon fill="white" stroke="transparent" points="-4,4 -4,-561 1915,-561 1915,4 -4,4"/>
<!-- Node1 -->
<g id="node1" class="node">
<title>Node1</title>
<g id="a_node1"><a xlink:title=" ">
<polygon fill="#bfbfbf" stroke="black" points="1298.5,-526.5 1298.5,-556.5 1401.5,-556.5 1401.5,-526.5 1298.5,-526.5"/>
<text text-anchor="start" x="1306.5" y="-544.5" font-family="Helvetica,sans-Serif" font-size="10.00">include/ccf/crypto</text>
<text text-anchor="middle" x="1350" y="-533.5" font-family="Helvetica,sans-Serif" font-size="10.00">/key_wrap.h</text>
</a>
</g>
</g>
<!-- Node2 -->
<g id="node2" class="node">
<title>Node2</title>
<g id="a_node2"><a xlink:href="include_2ccf_2crypto_2rsa__key__pair_8h.html" target="_top" xlink:title=" ">
<polygon fill="white" stroke="black" points="1063.5,-459.5 1063.5,-489.5 1168.5,-489.5 1168.5,-459.5 1063.5,-459.5"/>
<text text-anchor="start" x="1071.5" y="-477.5" font-family="Helvetica,sans-Serif" font-size="10.00">ccf/crypto/rsa_key</text>
<text text-anchor="middle" x="1116" y="-466.5" font-family="Helvetica,sans-Serif" font-size="10.00">_pair.h</text>
</a>
</g>
</g>
<!-- Node1&#45;&gt;Node2 -->
<g id="edge1" class="edge">
<title>Node1&#45;&gt;Node2</title>
<path fill="none" stroke="midnightblue" d="M1299.51,-526.48C1263.5,-516.47 1214.9,-502.97 1176.76,-492.38"/>
<polygon fill="midnightblue" stroke="midnightblue" points="1177.37,-488.92 1166.8,-489.61 1175.5,-495.66 1177.37,-488.92"/>
</g>
<!-- Node9 -->
<g id="node9" class="node">
<title>Node9</title>
<g id="a_node9"><a xlink:title=" ">
<polygon fill="white" stroke="#bfbfbf" points="1052.5,-0.5 1052.5,-19.5 1099.5,-19.5 1099.5,-0.5 1052.5,-0.5"/>
<text text-anchor="middle" x="1076" y="-7.5" font-family="Helvetica,sans-Serif" font-size="10.00">vector</text>
</a>
</g>
</g>
<!-- Node1&#45;&gt;Node9 -->
<g id="edge82" class="edge">
<title>Node1&#45;&gt;Node9</title>
<path fill="none" stroke="midnightblue" d="M1350,-526.46C1350,-503.12 1350,-454.85 1350,-414 1350,-414 1350,-414 1350,-121 1350,-84.55 1330.94,-75.26 1300,-56 1240.33,-18.86 1155.94,-11.58 1109.64,-10.61"/>
<polygon fill="midnightblue" stroke="midnightblue" points="1109.59,-7.11 1099.55,-10.49 1109.51,-14.11 1109.59,-7.11"/>
</g>
<!-- Node29 -->
<g id="node29" class="node">
<title>Node29</title>
<g id="a_node29"><a xlink:title=" ">
<polygon fill="white" stroke="#bfbfbf" points="998,-224.5 998,-243.5 1048,-243.5 1048,-224.5 998,-224.5"/>
<text text-anchor="middle" x="1023" y="-231.5" font-family="Helvetica,sans-Serif" font-size="10.00">cstdint</text>
</a>
</g>
</g>
<!-- Node1&#45;&gt;Node29 -->
<g id="edge81" class="edge">
<title>Node1&#45;&gt;Node29</title>
<path fill="none" stroke="midnightblue" d="M1298.32,-537.62C1223.95,-532.5 1091.67,-519.44 1055,-490 1026.55,-467.16 1024,-450.48 1024,-414 1024,-414 1024,-414 1024,-350.5 1024,-316.36 1023.56,-276.55 1023.26,-253.71"/>
<polygon fill="midnightblue" stroke="midnightblue" points="1026.76,-253.65 1023.13,-243.69 1019.76,-253.74 1026.76,-253.65"/>
</g>
<!-- Node33 -->
<g id="node33" class="node">
<title>Node33</title>
<g id="a_node33"><a xlink:href="include_2ccf_2crypto_2symmetric__key_8h.html" target="_top" xlink:title=" ">
<polygon fill="white" stroke="black" points="1383,-336.5 1383,-366.5 1503,-366.5 1503,-336.5 1383,-336.5"/>
<text text-anchor="start" x="1391" y="-354.5" font-family="Helvetica,sans-Serif" font-size="10.00">ccf/crypto/symmetric</text>
<text text-anchor="middle" x="1443" y="-343.5" font-family="Helvetica,sans-Serif" font-size="10.00">_key.h</text>
</a>
</g>
</g>
<!-- Node1&#45;&gt;Node33 -->
<g id="edge67" class="edge">
<title>Node1&#45;&gt;Node33</title>
<path fill="none" stroke="midnightblue" d="M1356.99,-526.37C1372.92,-494.17 1412.03,-415.1 1431.54,-375.66"/>
<polygon fill="midnightblue" stroke="midnightblue" points="1434.76,-377.05 1436.06,-366.54 1428.48,-373.95 1434.76,-377.05"/>
</g>
<!-- Node39 -->
<g id="node39" class="node">
<title>Node39</title>
<g id="a_node39"><a xlink:title=" ">
<polygon fill="white" stroke="#bfbfbf" points="1416.5,-465 1416.5,-484 1469.5,-484 1469.5,-465 1416.5,-465"/>
<text text-anchor="middle" x="1443" y="-472" font-family="Helvetica,sans-Serif" font-size="10.00">cstddef</text>
</a>
</g>
</g>
<!-- Node1&#45;&gt;Node39 -->
<g id="edge80" class="edge">
<title>Node1&#45;&gt;Node39</title>
<path fill="none" stroke="midnightblue" d="M1370.18,-526.4C1385.63,-515.6 1406.86,-500.76 1422.42,-489.89"/>
<polygon fill="midnightblue" stroke="midnightblue" points="1424.64,-492.6 1430.83,-484.01 1420.63,-486.87 1424.64,-492.6"/>
</g>
<!-- Node3 -->
<g id="node3" class="node">
<title>Node3</title>
<g id="a_node3"><a xlink:href="include_2ccf_2crypto_2key__pair_8h.html" target="_top" xlink:title=" ">
<polygon fill="white" stroke="black" points="624.5,-403.5 624.5,-422.5 741.5,-422.5 741.5,-403.5 624.5,-403.5"/>
<text text-anchor="middle" x="683" y="-410.5" font-family="Helvetica,sans-Serif" font-size="10.00">ccf/crypto/key_pair.h</text>
</a>
</g>
</g>
<!-- Node2&#45;&gt;Node3 -->
<g id="edge2" class="edge">
<title>Node2&#45;&gt;Node3</title>
<path fill="none" stroke="midnightblue" d="M1063.34,-466.26C985.07,-455.51 838.02,-435.3 751.49,-423.41"/>
<polygon fill="midnightblue" stroke="midnightblue" points="751.88,-419.93 741.5,-422.04 750.93,-426.87 751.88,-419.93"/>
</g>
<!-- Node8 -->
<g id="node8" class="node">
<title>Node8</title>
<g id="a_node8"><a xlink:title=" ">
<polygon fill="white" stroke="#bfbfbf" points="519,-0.5 519,-19.5 563,-19.5 563,-0.5 519,-0.5"/>
<text text-anchor="middle" x="541" y="-7.5" font-family="Helvetica,sans-Serif" font-size="10.00">string</text>
</a>
</g>
</g>
<!-- Node2&#45;&gt;Node8 -->
<g id="edge65" class="edge">
<title>Node2&#45;&gt;Node8</title>
<path fill="none" stroke="midnightblue" d="M1063.3,-473.39C842.09,-472.26 0,-460.84 0,-352.5 0,-352.5 0,-352.5 0,-121 0,-81.08 26.07,-73.41 62,-56 141.16,-17.63 414.33,-11.94 508.66,-11.12"/>
<polygon fill="midnightblue" stroke="midnightblue" points="508.77,-14.62 518.75,-11.05 508.72,-7.62 508.77,-14.62"/>
</g>
<!-- Node2&#45;&gt;Node9 -->
<g id="edge66" class="edge">
<title>Node2&#45;&gt;Node9</title>
<path fill="none" stroke="midnightblue" d="M1168.52,-464.49C1226.58,-451.17 1312,-420.08 1312,-352.5 1312,-352.5 1312,-352.5 1312,-121 1312,-33 1175.54,-15.23 1110.15,-11.76"/>
<polygon fill="midnightblue" stroke="midnightblue" points="1110.07,-8.26 1099.93,-11.31 1109.76,-15.25 1110.07,-8.26"/>
</g>
<!-- Node22 -->
<g id="node22" class="node">
<title>Node22</title>
<g id="a_node22"><a xlink:href="pem_8h.html" target="_top" xlink:title=" ">
<polygon fill="white" stroke="black" points="1186,-280.5 1186,-299.5 1284,-299.5 1284,-280.5 1186,-280.5"/>
<text text-anchor="middle" x="1235" y="-287.5" font-family="Helvetica,sans-Serif" font-size="10.00">ccf/crypto/pem.h</text>
</a>
</g>
</g>
<!-- Node2&#45;&gt;Node22 -->
<g id="edge56" class="edge">
<title>Node2&#45;&gt;Node22</title>
<path fill="none" stroke="midnightblue" d="M1143.15,-459.39C1173.03,-442.15 1219.4,-409.91 1239,-367 1247.3,-348.84 1244.41,-325.63 1240.64,-309.67"/>
<polygon fill="midnightblue" stroke="midnightblue" points="1244,-308.68 1238.02,-299.93 1237.24,-310.49 1244,-308.68"/>
</g>
<!-- Node2&#45;&gt;Node29 -->
<g id="edge63" class="edge">
<title>Node2&#45;&gt;Node29</title>
<path fill="none" stroke="midnightblue" d="M1110.46,-459.29C1094.46,-418.26 1048.17,-299.55 1030.23,-253.53"/>
<polygon fill="midnightblue" stroke="midnightblue" points="1033.38,-251.99 1026.49,-243.95 1026.86,-254.53 1033.38,-251.99"/>
</g>
<!-- Node31 -->
<g id="node31" class="node">
<title>Node31</title>
<g id="a_node31"><a xlink:title=" ">
<polygon fill="white" stroke="#bfbfbf" points="524,-280.5 524,-299.5 580,-299.5 580,-280.5 524,-280.5"/>
<text text-anchor="middle" x="552" y="-287.5" font-family="Helvetica,sans-Serif" font-size="10.00">optional</text>
</a>
</g>
</g>
<!-- Node2&#45;&gt;Node31 -->
<g id="edge64" class="edge">
<title>Node2&#45;&gt;Node31</title>
<path fill="none" stroke="midnightblue" d="M1063.11,-473.94C949.97,-473.96 688.77,-468.88 615,-423 574.85,-398.03 559.77,-339.55 554.54,-309.51"/>
<polygon fill="midnightblue" stroke="midnightblue" points="557.98,-308.87 552.99,-299.53 551.07,-309.95 557.98,-308.87"/>
</g>
<!-- Node32 -->
<g id="node32" class="node">
<title>Node32</title>
<g id="a_node32"><a xlink:href="include_2ccf_2crypto_2rsa__public__key_8h.html" target="_top" xlink:title=" ">
<polygon fill="white" stroke="black" points="1090.5,-336.5 1090.5,-366.5 1207.5,-366.5 1207.5,-336.5 1090.5,-336.5"/>
<text text-anchor="start" x="1098.5" y="-354.5" font-family="Helvetica,sans-Serif" font-size="10.00">ccf/crypto/rsa_public</text>
<text text-anchor="middle" x="1149" y="-343.5" font-family="Helvetica,sans-Serif" font-size="10.00">_key.h</text>
</a>
</g>
</g>
<!-- Node2&#45;&gt;Node32 -->
<g id="edge57" class="edge">
<title>Node2&#45;&gt;Node32</title>
<path fill="none" stroke="midnightblue" d="M1119.92,-459.14C1125.47,-438.77 1135.72,-401.2 1142.45,-376.53"/>
<polygon fill="midnightblue" stroke="midnightblue" points="1145.84,-377.41 1145.09,-366.84 1139.08,-375.56 1145.84,-377.41"/>
</g>
<!-- Node4 -->
<g id="node4" class="node">
<title>Node4</title>
<g id="a_node4"><a xlink:href="curve_8h.html" target="_top" xlink:title=" ">
<polygon fill="white" stroke="black" points="337,-280.5 337,-299.5 441,-299.5 441,-280.5 337,-280.5"/>
<text text-anchor="middle" x="389" y="-287.5" font-family="Helvetica,sans-Serif" font-size="10.00">ccf/crypto/curve.h</text>
</a>
</g>
</g>
<!-- Node3&#45;&gt;Node4 -->
<g id="edge3" class="edge">
<title>Node3&#45;&gt;Node4</title>
<path fill="none" stroke="midnightblue" d="M624.32,-406.14C582.91,-400.3 527.02,-388.9 482,-367 451.06,-351.95 421.37,-324.73 404.17,-307.28"/>
<polygon fill="midnightblue" stroke="midnightblue" points="406.23,-304.37 396.78,-299.59 401.19,-309.23 406.23,-304.37"/>
</g>
<!-- Node3&#45;&gt;Node8 -->
<g id="edge54" class="edge">
<title>Node3&#45;&gt;Node8</title>
<path fill="none" stroke="midnightblue" d="M624.34,-407.16C465.34,-393.25 38,-350.35 38,-291 38,-291 38,-291 38,-121 38,-77.23 71.9,-73.55 112,-56 183.29,-24.79 421.58,-14.6 508.72,-11.87"/>
<polygon fill="midnightblue" stroke="midnightblue" points="508.93,-15.36 518.82,-11.56 508.71,-8.36 508.93,-15.36"/>
</g>
<!-- Node3&#45;&gt;Node9 -->
<g id="edge55" class="edge">
<title>Node3&#45;&gt;Node9</title>
<path fill="none" stroke="midnightblue" d="M712.12,-403.44C784.17,-380.28 965,-309.19 965,-179 965,-179 965,-179 965,-121 965,-74.82 1014.06,-41.43 1046.95,-24.23"/>
<polygon fill="midnightblue" stroke="midnightblue" points="1048.79,-27.22 1056.16,-19.61 1045.65,-20.96 1048.79,-27.22"/>
</g>
<!-- Node3&#45;&gt;Node22 -->
<g id="edge28" class="edge">
<title>Node3&#45;&gt;Node22</title>
<path fill="none" stroke="midnightblue" d="M741.94,-410.88C873.35,-407.83 1181.63,-397.48 1217,-367 1233.18,-353.06 1236.26,-327.51 1236.24,-309.9"/>
<polygon fill="midnightblue" stroke="midnightblue" points="1239.73,-309.56 1235.89,-299.69 1232.74,-309.8 1239.73,-309.56"/>
</g>
<!-- Node27 -->
<g id="node27" class="node">
<title>Node27</title>
<g id="a_node27"><a xlink:href="include_2ccf_2crypto_2public__key_8h.html" target="_top" xlink:title=" ">
<polygon fill="white" stroke="black" points="619.5,-342 619.5,-361 746.5,-361 746.5,-342 619.5,-342"/>
<text text-anchor="middle" x="683" y="-349" font-family="Helvetica,sans-Serif" font-size="10.00">ccf/crypto/public_key.h</text>
</a>
</g>
</g>
<!-- Node3&#45;&gt;Node27 -->
<g id="edge36" class="edge">
<title>Node3&#45;&gt;Node27</title>
<path fill="none" stroke="midnightblue" d="M683,-403.48C683,-395.08 683,-381.98 683,-371.16"/>
<polygon fill="midnightblue" stroke="midnightblue" points="686.5,-371.01 683,-361.01 679.5,-371.01 686.5,-371.01"/>
</g>
<!-- Node3&#45;&gt;Node29 -->
<g id="edge52" class="edge">
<title>Node3&#45;&gt;Node29</title>
<path fill="none" stroke="midnightblue" d="M741.61,-408.94C812.99,-404.15 928.24,-392.61 962,-367 981.25,-352.4 1005.8,-285.87 1016.98,-253.2"/>
<polygon fill="midnightblue" stroke="midnightblue" points="1020.36,-254.14 1020.23,-243.55 1013.72,-251.91 1020.36,-254.14"/>
</g>
<!-- Node30 -->
<g id="node30" class="node">
<title>Node30</title>
<g id="a_node30"><a xlink:href="san_8h.html" target="_top" xlink:title=" ">
<polygon fill="white" stroke="black" points="486,-224.5 486,-243.5 580,-243.5 580,-224.5 486,-224.5"/>
<text text-anchor="middle" x="533" y="-231.5" font-family="Helvetica,sans-Serif" font-size="10.00">ccf/crypto/san.h</text>
</a>
</g>
</g>
<!-- Node3&#45;&gt;Node30 -->
<g id="edge51" class="edge">
<title>Node3&#45;&gt;Node30</title>
<path fill="none" stroke="midnightblue" d="M652.94,-403.48C611.32,-389.74 538.57,-358.15 515,-300 508.69,-284.43 515.1,-265.91 521.96,-252.62"/>
<polygon fill="midnightblue" stroke="midnightblue" points="525.18,-254.04 527.09,-243.62 519.1,-250.58 525.18,-254.04"/>
</g>
<!-- Node3&#45;&gt;Node31 -->
<g id="edge53" class="edge">
<title>Node3&#45;&gt;Node31</title>
<path fill="none" stroke="midnightblue" d="M665.26,-403.43C649.66,-395.37 626.89,-382.29 610,-367 590.66,-349.5 573.21,-324.84 562.61,-308.41"/>
<polygon fill="midnightblue" stroke="midnightblue" points="565.49,-306.41 557.21,-299.81 559.56,-310.14 565.49,-306.41"/>
</g>
<!-- Node5 -->
<g id="node5" class="node">
<title>Node5</title>
<g id="a_node5"><a xlink:href="md__type_8h.html" target="_top" xlink:title=" ">
<polygon fill="white" stroke="black" points="305.5,-224.5 305.5,-243.5 424.5,-243.5 424.5,-224.5 305.5,-224.5"/>
<text text-anchor="middle" x="365" y="-231.5" font-family="Helvetica,sans-Serif" font-size="10.00">ccf/crypto/md_type.h</text>
</a>
</g>
</g>
<!-- Node4&#45;&gt;Node5 -->
<g id="edge4" class="edge">
<title>Node4&#45;&gt;Node5</title>
<path fill="none" stroke="midnightblue" d="M385.04,-280.08C381.79,-272.77 377.08,-262.18 373.05,-253.1"/>
<polygon fill="midnightblue" stroke="midnightblue" points="376.15,-251.47 368.89,-243.75 369.75,-254.31 376.15,-251.47"/>
</g>
<!-- Node6 -->
<g id="node6" class="node">
<title>Node6</title>
<g id="a_node6"><a xlink:href="json_8h.html" target="_top" xlink:title=" ">
<polygon fill="white" stroke="black" points="411.5,-168.5 411.5,-187.5 488.5,-187.5 488.5,-168.5 411.5,-168.5"/>
<text text-anchor="middle" x="450" y="-175.5" font-family="Helvetica,sans-Serif" font-size="10.00">ccf/ds/json.h</text>
</a>
</g>
</g>
<!-- Node4&#45;&gt;Node6 -->
<g id="edge24" class="edge">
<title>Node4&#45;&gt;Node6</title>
<path fill="none" stroke="midnightblue" d="M400.44,-280.24C410.47,-271.95 424.71,-258.64 433,-244 441.17,-229.57 445.51,-211.11 447.75,-197.56"/>
<polygon fill="midnightblue" stroke="midnightblue" points="451.24,-197.92 449.18,-187.52 444.31,-196.93 451.24,-197.92"/>
</g>
<!-- Node4&#45;&gt;Node8 -->
<g id="edge27" class="edge">
<title>Node4&#45;&gt;Node8</title>
<path fill="none" stroke="midnightblue" d="M336.96,-281.69C247.96,-267.72 76,-233.65 76,-179 76,-179 76,-179 76,-121 76,-31.87 403.59,-14.87 508.85,-11.7"/>
<polygon fill="midnightblue" stroke="midnightblue" points="508.99,-15.2 518.88,-11.42 508.79,-8.2 508.99,-15.2"/>
</g>
<!-- Node17 -->
<g id="node17" class="node">
<title>Node17</title>
<g id="a_node17"><a xlink:title=" ">
<polygon fill="white" stroke="#bfbfbf" points="205.5,-56.5 205.5,-75.5 284.5,-75.5 284.5,-56.5 205.5,-56.5"/>
<text text-anchor="middle" x="245" y="-63.5" font-family="Helvetica,sans-Serif" font-size="10.00">fmt/format.h</text>
</a>
</g>
</g>
<!-- Node4&#45;&gt;Node17 -->
<g id="edge25" class="edge">
<title>Node4&#45;&gt;Node17</title>
<path fill="none" stroke="midnightblue" d="M356.61,-280.35C336.65,-273.5 311.91,-262.01 296,-244 255.29,-197.92 246.96,-121.22 245.34,-85.88"/>
<polygon fill="midnightblue" stroke="midnightblue" points="248.83,-85.47 245.01,-75.59 241.83,-85.7 248.83,-85.47"/>
</g>
<!-- Node20 -->
<g id="node20" class="node">
<title>Node20</title>
<g id="a_node20"><a xlink:href="enum__formatter_8h.html" target="_top" xlink:title=" ">
<polygon fill="white" stroke="black" points="104,-168.5 104,-187.5 240,-187.5 240,-168.5 104,-168.5"/>
<text text-anchor="middle" x="172" y="-175.5" font-family="Helvetica,sans-Serif" font-size="10.00">ccf/ds/enum_formatter.h</text>
</a>
</g>
</g>
<!-- Node4&#45;&gt;Node20 -->
<g id="edge22" class="edge">
<title>Node4&#45;&gt;Node20</title>
<path fill="none" stroke="midnightblue" d="M352.35,-280.5C324.36,-273.14 285.4,-260.99 254,-244 228.97,-230.45 203.86,-209.14 188.14,-194.64"/>
<polygon fill="midnightblue" stroke="midnightblue" points="190.51,-192.06 180.83,-187.76 185.72,-197.16 190.51,-192.06"/>
</g>
<!-- Node21 -->
<g id="node21" class="node">
<title>Node21</title>
<g id="a_node21"><a xlink:title=" ">
<polygon fill="white" stroke="#bfbfbf" points="871.5,-224.5 871.5,-243.5 936.5,-243.5 936.5,-224.5 871.5,-224.5"/>
<text text-anchor="middle" x="904" y="-231.5" font-family="Helvetica,sans-Serif" font-size="10.00">stdexcept</text>
</a>
</g>
</g>
<!-- Node4&#45;&gt;Node21 -->
<g id="edge26" class="edge">
<title>Node4&#45;&gt;Node21</title>
<path fill="none" stroke="midnightblue" d="M441.22,-283.53C543.26,-272.83 767.35,-249.33 861.26,-239.48"/>
<polygon fill="midnightblue" stroke="midnightblue" points="861.68,-242.96 871.26,-238.43 860.95,-235.99 861.68,-242.96"/>
</g>
<!-- Node5&#45;&gt;Node6 -->
<g id="edge5" class="edge">
<title>Node5&#45;&gt;Node6</title>
<path fill="none" stroke="midnightblue" d="M378.66,-224.32C391.92,-215.9 412.27,-202.97 427.85,-193.07"/>
<polygon fill="midnightblue" stroke="midnightblue" points="429.81,-195.97 436.38,-187.65 426.06,-190.06 429.81,-195.97"/>
</g>
<!-- Node7 -->
<g id="node7" class="node">
<title>Node7</title>
<g id="a_node7"><a xlink:href="include_2ccf_2crypto_2base64_8h.html" target="_top" xlink:title=" ">
<polygon fill="white" stroke="black" points="747,-56.5 747,-75.5 859,-75.5 859,-56.5 747,-56.5"/>
<text text-anchor="middle" x="803" y="-63.5" font-family="Helvetica,sans-Serif" font-size="10.00">ccf/crypto/base64.h</text>
</a>
</g>
</g>
<!-- Node6&#45;&gt;Node7 -->
<g id="edge6" class="edge">
<title>Node6&#45;&gt;Node7</title>
<path fill="none" stroke="midnightblue" d="M477.41,-168.46C540.09,-148.93 694.01,-100.96 765.45,-78.7"/>
<polygon fill="midnightblue" stroke="midnightblue" points="766.86,-81.93 775.37,-75.61 764.78,-75.24 766.86,-81.93"/>
</g>
<!-- Node10 -->
<g id="node10" class="node">
<title>Node10</title>
<g id="a_node10"><a xlink:href="include_2ccf_2ds_2json__schema_8h.html" target="_top" xlink:title=" ">
<polygon fill="white" stroke="black" points="385.5,-112.5 385.5,-131.5 506.5,-131.5 506.5,-112.5 385.5,-112.5"/>
<text text-anchor="middle" x="446" y="-119.5" font-family="Helvetica,sans-Serif" font-size="10.00">ccf/ds/json_schema.h</text>
</a>
</g>
</g>
<!-- Node6&#45;&gt;Node10 -->
<g id="edge9" class="edge">
<title>Node6&#45;&gt;Node10</title>
<path fill="none" stroke="midnightblue" d="M449.34,-168.08C448.82,-161.01 448.06,-150.86 447.41,-141.99"/>
<polygon fill="midnightblue" stroke="midnightblue" points="450.88,-141.47 446.65,-131.75 443.9,-141.98 450.88,-141.47"/>
</g>
<!-- Node6&#45;&gt;Node17 -->
<g id="edge20" class="edge">
<title>Node6&#45;&gt;Node17</title>
<path fill="none" stroke="midnightblue" d="M411.35,-171.3C379.94,-165.3 335.51,-153.62 302,-132 282.76,-119.58 266.2,-98.88 255.97,-84.17"/>
<polygon fill="midnightblue" stroke="midnightblue" points="258.66,-81.9 250.19,-75.53 252.84,-85.79 258.66,-81.9"/>
</g>
<!-- Node19 -->
<g id="node19" class="node">
<title>Node19</title>
<g id="a_node19"><a xlink:title=" ">
<polygon fill="white" stroke="#bfbfbf" points="311,-112.5 311,-131.5 367,-131.5 367,-112.5 311,-112.5"/>
<text text-anchor="middle" x="339" y="-119.5" font-family="Helvetica,sans-Serif" font-size="10.00">sstream</text>
</a>
</g>
</g>
<!-- Node6&#45;&gt;Node19 -->
<g id="edge21" class="edge">
<title>Node6&#45;&gt;Node19</title>
<path fill="none" stroke="midnightblue" d="M432.17,-168.32C414.28,-159.62 386.52,-146.12 365.95,-136.11"/>
<polygon fill="midnightblue" stroke="midnightblue" points="367.31,-132.88 356.79,-131.65 364.25,-139.18 367.31,-132.88"/>
</g>
<!-- Node7&#45;&gt;Node8 -->
<g id="edge7" class="edge">
<title>Node7&#45;&gt;Node8</title>
<path fill="none" stroke="midnightblue" d="M757.63,-56.5C712.11,-47.83 640.03,-33.74 578,-20 576.51,-19.67 574.98,-19.33 573.44,-18.97"/>
<polygon fill="midnightblue" stroke="midnightblue" points="573.81,-15.46 563.27,-16.57 572.2,-22.28 573.81,-15.46"/>
</g>
<!-- Node7&#45;&gt;Node9 -->
<g id="edge8" class="edge">
<title>Node7&#45;&gt;Node9</title>
<path fill="none" stroke="midnightblue" d="M846.26,-56.44C900.72,-45.67 993.11,-27.39 1042.51,-17.62"/>
<polygon fill="midnightblue" stroke="midnightblue" points="1043.23,-21.05 1052.37,-15.67 1041.88,-14.18 1043.23,-21.05"/>
</g>
<!-- Node11 -->
<g id="node11" class="node">
<title>Node11</title>
<g id="a_node11"><a xlink:href="nonstd_8h.html" target="_top" xlink:title=" ">
<polygon fill="white" stroke="black" points="639,-56.5 639,-75.5 729,-75.5 729,-56.5 639,-56.5"/>
<text text-anchor="middle" x="684" y="-63.5" font-family="Helvetica,sans-Serif" font-size="10.00">ccf/ds/nonstd.h</text>
</a>
</g>
</g>
<!-- Node10&#45;&gt;Node11 -->
<g id="edge10" class="edge">
<title>Node10&#45;&gt;Node11</title>
<path fill="none" stroke="midnightblue" d="M483.71,-112.44C525.14,-103.04 591.76,-87.93 636.67,-77.74"/>
<polygon fill="midnightblue" stroke="midnightblue" points="637.49,-81.14 646.46,-75.52 635.94,-74.32 637.49,-81.14"/>
</g>
<!-- Node10&#45;&gt;Node17 -->
<g id="edge18" class="edge">
<title>Node10&#45;&gt;Node17</title>
<path fill="none" stroke="midnightblue" d="M414.15,-112.44C379.6,-103.16 324.32,-88.31 286.42,-78.13"/>
<polygon fill="midnightblue" stroke="midnightblue" points="287.27,-74.73 276.7,-75.52 285.45,-81.49 287.27,-74.73"/>
</g>
<!-- Node18 -->
<g id="node18" class="node">
<title>Node18</title>
<g id="a_node18"><a xlink:title=" ">
<polygon fill="white" stroke="#bfbfbf" points="391,-56.5 391,-75.5 501,-75.5 501,-56.5 391,-56.5"/>
<text text-anchor="middle" x="446" y="-63.5" font-family="Helvetica,sans-Serif" font-size="10.00">nlohmann/json.hpp</text>
</a>
</g>
</g>
<!-- Node10&#45;&gt;Node18 -->
<g id="edge19" class="edge">
<title>Node10&#45;&gt;Node18</title>
<path fill="none" stroke="midnightblue" d="M446,-112.08C446,-105.01 446,-94.86 446,-85.99"/>
<polygon fill="midnightblue" stroke="midnightblue" points="449.5,-85.75 446,-75.75 442.5,-85.75 449.5,-85.75"/>
</g>
<!-- Node11&#45;&gt;Node8 -->
<g id="edge14" class="edge">
<title>Node11&#45;&gt;Node8</title>
<path fill="none" stroke="midnightblue" d="M661.34,-56.44C637.46,-47.42 599.65,-33.15 572.79,-23"/>
<polygon fill="midnightblue" stroke="midnightblue" points="573.67,-19.6 563.08,-19.34 571.2,-26.15 573.67,-19.6"/>
</g>
<!-- Node11&#45;&gt;Node9 -->
<g id="edge17" class="edge">
<title>Node11&#45;&gt;Node9</title>
<path fill="none" stroke="midnightblue" d="M729.06,-57.38C732.09,-56.9 735.09,-56.44 738,-56 796.31,-47.26 968.53,-24.88 1042.08,-15.37"/>
<polygon fill="midnightblue" stroke="midnightblue" points="1042.72,-18.82 1052.19,-14.07 1041.83,-11.88 1042.72,-18.82"/>
</g>
<!-- Node12 -->
<g id="node12" class="node">
<title>Node12</title>
<g id="a_node12"><a xlink:title=" ">
<polygon fill="white" stroke="#bfbfbf" points="802,-0.5 802,-19.5 866,-19.5 866,-0.5 802,-0.5"/>
<text text-anchor="middle" x="834" y="-7.5" font-family="Helvetica,sans-Serif" font-size="10.00">algorithm</text>
</a>
</g>
</g>
<!-- Node11&#45;&gt;Node12 -->
<g id="edge11" class="edge">
<title>Node11&#45;&gt;Node12</title>
<path fill="none" stroke="midnightblue" d="M707.77,-56.44C732.89,-47.4 772.71,-33.06 800.9,-22.92"/>
<polygon fill="midnightblue" stroke="midnightblue" points="802.12,-26.2 810.34,-19.52 799.75,-19.61 802.12,-26.2"/>
</g>
<!-- Node13 -->
<g id="node13" class="node">
<title>Node13</title>
<g id="a_node13"><a xlink:title=" ">
<polygon fill="white" stroke="#bfbfbf" points="587,-0.5 587,-19.5 629,-19.5 629,-0.5 587,-0.5"/>
<text text-anchor="middle" x="608" y="-7.5" font-family="Helvetica,sans-Serif" font-size="10.00">array</text>
</a>
</g>
</g>
<!-- Node11&#45;&gt;Node13 -->
<g id="edge12" class="edge">
<title>Node11&#45;&gt;Node13</title>
<path fill="none" stroke="midnightblue" d="M671.79,-56.32C660.22,-48.11 642.62,-35.6 628.84,-25.81"/>
<polygon fill="midnightblue" stroke="midnightblue" points="630.61,-22.77 620.43,-19.83 626.56,-28.48 630.61,-22.77"/>
</g>
<!-- Node14 -->
<g id="node14" class="node">
<title>Node14</title>
<g id="a_node14"><a xlink:title=" ">
<polygon fill="white" stroke="#bfbfbf" points="647.5,-0.5 647.5,-19.5 696.5,-19.5 696.5,-0.5 647.5,-0.5"/>
<text text-anchor="middle" x="672" y="-7.5" font-family="Helvetica,sans-Serif" font-size="10.00">cctype</text>
</a>
</g>
</g>
<!-- Node11&#45;&gt;Node14 -->
<g id="edge13" class="edge">
<title>Node11&#45;&gt;Node14</title>
<path fill="none" stroke="midnightblue" d="M682.02,-56.08C680.43,-48.93 678.14,-38.64 676.15,-29.69"/>
<polygon fill="midnightblue" stroke="midnightblue" points="679.53,-28.75 673.94,-19.75 672.7,-30.27 679.53,-28.75"/>
</g>
<!-- Node15 -->
<g id="node15" class="node">
<title>Node15</title>
<g id="a_node15"><a xlink:title=" ">
<polygon fill="white" stroke="#bfbfbf" points="923.5,-0.5 923.5,-19.5 996.5,-19.5 996.5,-0.5 923.5,-0.5"/>
<text text-anchor="middle" x="960" y="-7.5" font-family="Helvetica,sans-Serif" font-size="10.00">string_view</text>
</a>
</g>
</g>
<!-- Node11&#45;&gt;Node15 -->
<g id="edge15" class="edge">
<title>Node11&#45;&gt;Node15</title>
<path fill="none" stroke="midnightblue" d="M727.73,-56.44C778.32,-46.55 861.28,-30.31 913.15,-20.17"/>
<polygon fill="midnightblue" stroke="midnightblue" points="913.95,-23.58 923.1,-18.22 912.61,-16.71 913.95,-23.58"/>
</g>
<!-- Node16 -->
<g id="node16" class="node">
<title>Node16</title>
<g id="a_node16"><a xlink:title=" ">
<polygon fill="white" stroke="#bfbfbf" points="714.5,-0.5 714.5,-19.5 783.5,-19.5 783.5,-0.5 714.5,-0.5"/>
<text text-anchor="middle" x="749" y="-7.5" font-family="Helvetica,sans-Serif" font-size="10.00">type_traits</text>
</a>
</g>
</g>
<!-- Node11&#45;&gt;Node16 -->
<g id="edge16" class="edge">
<title>Node11&#45;&gt;Node16</title>
<path fill="none" stroke="midnightblue" d="M694.44,-56.32C704.15,-48.26 718.82,-36.08 730.5,-26.37"/>
<polygon fill="midnightblue" stroke="midnightblue" points="732.91,-28.92 738.37,-19.83 728.44,-23.53 732.91,-28.92"/>
</g>
<!-- Node20&#45;&gt;Node17 -->
<g id="edge23" class="edge">
<title>Node20&#45;&gt;Node17</title>
<path fill="none" stroke="midnightblue" d="M173.26,-168.36C175.5,-155.26 181.08,-129.99 193,-112 200.83,-100.18 212.58,-89.64 222.94,-81.74"/>
<polygon fill="midnightblue" stroke="midnightblue" points="225.15,-84.46 231.19,-75.76 221.04,-78.8 225.15,-84.46"/>
</g>
<!-- Node22&#45;&gt;Node6 -->
<g id="edge29" class="edge">
<title>Node22&#45;&gt;Node6</title>
<path fill="none" stroke="midnightblue" d="M1216.79,-280.43C1185.12,-265.97 1117.46,-237.02 1057,-224 950.74,-201.12 623.29,-185.95 498.76,-180.88"/>
<polygon fill="midnightblue" stroke="midnightblue" points="498.88,-177.38 488.74,-180.47 498.6,-184.37 498.88,-177.38"/>
</g>
<!-- Node22&#45;&gt;Node9 -->
<g id="edge35" class="edge">
<title>Node22&#45;&gt;Node9</title>
<path fill="none" stroke="midnightblue" d="M1240.42,-280.25C1251.14,-262.1 1274,-218.71 1274,-179 1274,-179 1274,-179 1274,-121 1274,-46.78 1166.36,-22.21 1109.81,-14.42"/>
<polygon fill="midnightblue" stroke="midnightblue" points="1110.25,-10.95 1099.88,-13.15 1109.36,-17.89 1110.25,-10.95"/>
</g>
<!-- Node22&#45;&gt;Node15 -->
<g id="edge34" class="edge">
<title>Node22&#45;&gt;Node15</title>
<path fill="none" stroke="midnightblue" d="M1217.03,-280.35C1202.87,-272.66 1183.63,-260.14 1172,-244 1154.33,-219.48 1152,-209.23 1152,-179 1152,-179 1152,-179 1152,-121 1152,-54.14 1063.25,-27.35 1006.43,-17.04"/>
<polygon fill="midnightblue" stroke="midnightblue" points="1007.01,-13.59 996.57,-15.36 1005.83,-20.49 1007.01,-13.59"/>
</g>
<!-- Node23 -->
<g id="node23" class="node">
<title>Node23</title>
<g id="a_node23"><a xlink:title=" ">
<polygon fill="white" stroke="#bfbfbf" points="1436,-224.5 1436,-243.5 1486,-243.5 1486,-224.5 1436,-224.5"/>
<text text-anchor="middle" x="1461" y="-231.5" font-family="Helvetica,sans-Serif" font-size="10.00">cstring</text>
</a>
</g>
</g>
<!-- Node22&#45;&gt;Node23 -->
<g id="edge30" class="edge">
<title>Node22&#45;&gt;Node23</title>
<path fill="none" stroke="midnightblue" d="M1272.96,-280.44C1309.71,-272.08 1367.22,-258.8 1425.95,-244.21"/>
<polygon fill="midnightblue" stroke="midnightblue" points="1426.91,-247.58 1435.77,-241.76 1425.22,-240.79 1426.91,-247.58"/>
</g>
<!-- Node24 -->
<g id="node24" class="node">
<title>Node24</title>
<g id="a_node24"><a xlink:title=" ">
<polygon fill="white" stroke="#bfbfbf" points="1180.5,-224.5 1180.5,-243.5 1245.5,-243.5 1245.5,-224.5 1180.5,-224.5"/>
<text text-anchor="middle" x="1213" y="-231.5" font-family="Helvetica,sans-Serif" font-size="10.00">exception</text>
</a>
</g>
</g>
<!-- Node22&#45;&gt;Node24 -->
<g id="edge31" class="edge">
<title>Node22&#45;&gt;Node24</title>
<path fill="none" stroke="midnightblue" d="M1231.37,-280.08C1228.39,-272.77 1224.07,-262.18 1220.38,-253.1"/>
<polygon fill="midnightblue" stroke="midnightblue" points="1223.58,-251.69 1216.57,-243.75 1217.1,-254.33 1223.58,-251.69"/>
</g>
<!-- Node25 -->
<g id="node25" class="node">
<title>Node25</title>
<g id="a_node25"><a xlink:title=" ">
<polygon fill="white" stroke="#bfbfbf" points="1504,-224.5 1504,-243.5 1562,-243.5 1562,-224.5 1504,-224.5"/>
<text text-anchor="middle" x="1533" y="-231.5" font-family="Helvetica,sans-Serif" font-size="10.00">memory</text>
</a>
</g>
</g>
<!-- Node22&#45;&gt;Node25 -->
<g id="edge32" class="edge">
<title>Node22&#45;&gt;Node25</title>
<path fill="none" stroke="midnightblue" d="M1284.05,-281.43C1334.29,-273.47 1414.9,-260.13 1493.87,-244.13"/>
<polygon fill="midnightblue" stroke="midnightblue" points="1494.9,-247.49 1503.99,-242.06 1493.5,-240.63 1494.9,-247.49"/>
</g>
<!-- Node26 -->
<g id="node26" class="node">
<title>Node26</title>
<g id="a_node26"><a xlink:title=" ">
<polygon fill="white" stroke="#bfbfbf" points="1378,-224.5 1378,-243.5 1418,-243.5 1418,-224.5 1378,-224.5"/>
<text text-anchor="middle" x="1398" y="-231.5" font-family="Helvetica,sans-Serif" font-size="10.00">span</text>
</a>
</g>
</g>
<!-- Node22&#45;&gt;Node26 -->
<g id="edge33" class="edge">
<title>Node22&#45;&gt;Node26</title>
<path fill="none" stroke="midnightblue" d="M1260.83,-280.44C1290.02,-270.77 1337.48,-255.05 1368.21,-244.87"/>
<polygon fill="midnightblue" stroke="midnightblue" points="1369.55,-248.11 1377.95,-241.64 1367.35,-241.47 1369.55,-248.11"/>
</g>
<!-- Node27&#45;&gt;Node4 -->
<g id="edge37" class="edge">
<title>Node27&#45;&gt;Node4</title>
<path fill="none" stroke="midnightblue" d="M640.88,-341.98C588.15,-331.3 497.87,-313.03 440.93,-301.51"/>
<polygon fill="midnightblue" stroke="midnightblue" points="441.54,-298.06 431.04,-299.51 440.15,-304.92 441.54,-298.06"/>
</g>
<!-- Node27&#45;&gt;Node8 -->
<g id="edge49" class="edge">
<title>Node27&#45;&gt;Node8</title>
<path fill="none" stroke="midnightblue" d="M679.35,-341.77C660.55,-296.83 574.62,-91.37 548.53,-29"/>
<polygon fill="midnightblue" stroke="midnightblue" points="551.72,-27.55 544.63,-19.68 545.26,-30.25 551.72,-27.55"/>
</g>
<!-- Node27&#45;&gt;Node9 -->
<g id="edge50" class="edge">
<title>Node27&#45;&gt;Node9</title>
<path fill="none" stroke="midnightblue" d="M682.96,-341.76C683.26,-320.09 686.48,-262.78 711,-224 775.99,-121.2 818.97,-111.86 927,-56 964.31,-36.71 1011.24,-24.26 1042.35,-17.45"/>
<polygon fill="midnightblue" stroke="midnightblue" points="1043.2,-20.85 1052.26,-15.35 1041.76,-14 1043.2,-20.85"/>
</g>
<!-- Node27&#45;&gt;Node22 -->
<g id="edge41" class="edge">
<title>Node27&#45;&gt;Node22</title>
<path fill="none" stroke="midnightblue" d="M746.59,-343.65C854.28,-332.04 1071,-308.68 1175.71,-297.39"/>
<polygon fill="midnightblue" stroke="midnightblue" points="1176.22,-300.86 1185.79,-296.3 1175.47,-293.9 1176.22,-300.86"/>
</g>
<!-- Node28 -->
<g id="node28" class="node">
<title>Node28</title>
<g id="a_node28"><a xlink:href="hash__bytes_8h.html" target="_top" xlink:title=" ">
<polygon fill="white" stroke="black" points="750,-280.5 750,-299.5 882,-299.5 882,-280.5 750,-280.5"/>
<text text-anchor="middle" x="816" y="-287.5" font-family="Helvetica,sans-Serif" font-size="10.00">ccf/crypto/hash_bytes.h</text>
</a>
</g>
</g>
<!-- Node27&#45;&gt;Node28 -->
<g id="edge38" class="edge">
<title>Node27&#45;&gt;Node28</title>
<path fill="none" stroke="midnightblue" d="M702.06,-341.98C724.47,-331.95 761.91,-315.2 787.71,-303.65"/>
<polygon fill="midnightblue" stroke="midnightblue" points="789.28,-306.79 796.98,-299.51 786.42,-300.4 789.28,-306.79"/>
</g>
<!-- Node27&#45;&gt;Node29 -->
<g id="edge47" class="edge">
<title>Node27&#45;&gt;Node29</title>
<path fill="none" stroke="midnightblue" d="M730.96,-341.97C773.69,-333.63 837.55,-319.38 891,-300 930.39,-285.71 973.5,-263.05 999.39,-248.61"/>
<polygon fill="midnightblue" stroke="midnightblue" points="1001.43,-251.47 1008.42,-243.51 997.99,-245.37 1001.43,-251.47"/>
</g>
<!-- Node27&#45;&gt;Node30 -->
<g id="edge42" class="edge">
<title>Node27&#45;&gt;Node30</title>
<path fill="none" stroke="midnightblue" d="M671.73,-341.82C646.32,-322.25 584.32,-274.52 552.52,-250.03"/>
<polygon fill="midnightblue" stroke="midnightblue" points="554.46,-247.11 544.41,-243.78 550.19,-252.66 554.46,-247.11"/>
</g>
<!-- Node27&#45;&gt;Node31 -->
<g id="edge48" class="edge">
<title>Node27&#45;&gt;Node31</title>
<path fill="none" stroke="midnightblue" d="M664.23,-341.98C642.15,-331.95 605.28,-315.2 579.86,-303.65"/>
<polygon fill="midnightblue" stroke="midnightblue" points="581.29,-300.46 570.73,-299.51 578.39,-306.83 581.29,-300.46"/>
</g>
<!-- Node28&#45;&gt;Node9 -->
<g id="edge40" class="edge">
<title>Node28&#45;&gt;Node9</title>
<path fill="none" stroke="midnightblue" d="M818.57,-280.38C829.09,-246.61 872.04,-121.91 951,-56 977.38,-33.98 1015.38,-22.35 1042.55,-16.47"/>
<polygon fill="midnightblue" stroke="midnightblue" points="1043.28,-19.9 1052.39,-14.49 1041.89,-13.04 1043.28,-19.9"/>
</g>
<!-- Node28&#45;&gt;Node29 -->
<g id="edge39" class="edge">
<title>Node28&#45;&gt;Node29</title>
<path fill="none" stroke="midnightblue" d="M848.8,-280.44C886.79,-270.53 949.12,-254.27 988.01,-244.13"/>
<polygon fill="midnightblue" stroke="midnightblue" points="989.05,-247.47 997.84,-241.56 987.28,-240.7 989.05,-247.47"/>
</g>
<!-- Node30&#45;&gt;Node6 -->
<g id="edge43" class="edge">
<title>Node30&#45;&gt;Node6</title>
<path fill="none" stroke="midnightblue" d="M519.66,-224.32C506.84,-215.98 487.22,-203.21 472.06,-193.35"/>
<polygon fill="midnightblue" stroke="midnightblue" points="473.59,-190.17 463.3,-187.65 469.78,-196.04 473.59,-190.17"/>
</g>
<!-- Node30&#45;&gt;Node8 -->
<g id="edge46" class="edge">
<title>Node30&#45;&gt;Node8</title>
<path fill="none" stroke="midnightblue" d="M533.31,-224.3C534.49,-191.63 538.66,-75.87 540.32,-29.96"/>
<polygon fill="midnightblue" stroke="midnightblue" points="543.82,-30 540.68,-19.88 536.82,-29.75 543.82,-30"/>
</g>
<!-- Node30&#45;&gt;Node11 -->
<g id="edge44" class="edge">
<title>Node30&#45;&gt;Node11</title>
<path fill="none" stroke="midnightblue" d="M541.12,-224.08C565.4,-197.38 637.73,-117.87 669.15,-83.32"/>
<polygon fill="midnightblue" stroke="midnightblue" points="672.07,-85.32 676.21,-75.57 666.89,-80.61 672.07,-85.32"/>
</g>
<!-- Node30&#45;&gt;Node17 -->
<g id="edge45" class="edge">
<title>Node30&#45;&gt;Node17</title>
<path fill="none" stroke="midnightblue" d="M485.96,-226.06C429.07,-215.36 333.66,-189.66 275,-132 262,-119.22 254.05,-99.76 249.63,-85.46"/>
<polygon fill="midnightblue" stroke="midnightblue" points="252.98,-84.42 246.91,-75.73 246.23,-86.3 252.98,-84.42"/>
</g>
<!-- Node32&#45;&gt;Node8 -->
<g id="edge61" class="edge">
<title>Node32&#45;&gt;Node8</title>
<path fill="none" stroke="midnightblue" d="M1090.35,-350.41C990.78,-349.12 794.25,-341.25 741,-300 712.29,-277.76 729.13,-255.46 711,-224 663.45,-141.49 637.8,-130.12 578,-56 570.28,-46.44 561.56,-35.81 554.52,-27.29"/>
<polygon fill="midnightblue" stroke="midnightblue" points="557.21,-25.06 548.14,-19.59 551.82,-29.52 557.21,-25.06"/>
</g>
<!-- Node32&#45;&gt;Node9 -->
<g id="edge62" class="edge">
<title>Node32&#45;&gt;Node9</title>
<path fill="none" stroke="midnightblue" d="M1138.23,-336.24C1117.92,-307.9 1076,-241.78 1076,-179 1076,-179 1076,-179 1076,-121 1076,-88.95 1076,-51.64 1076,-29.75"/>
<polygon fill="midnightblue" stroke="midnightblue" points="1079.5,-29.56 1076,-19.56 1072.5,-29.56 1079.5,-29.56"/>
</g>
<!-- Node32&#45;&gt;Node22 -->
<g id="edge58" class="edge">
<title>Node32&#45;&gt;Node22</title>
<path fill="none" stroke="midnightblue" d="M1169.38,-336.4C1182.91,-327.04 1200.61,-314.79 1214.22,-305.38"/>
<polygon fill="midnightblue" stroke="midnightblue" points="1216.25,-308.23 1222.49,-299.66 1212.27,-302.47 1216.25,-308.23"/>
</g>
<!-- Node32&#45;&gt;Node29 -->
<g id="edge59" class="edge">
<title>Node32&#45;&gt;Node29</title>
<path fill="none" stroke="midnightblue" d="M1134.99,-336.45C1120.48,-322.02 1097.02,-299.04 1076,-280 1064.82,-269.87 1051.92,-258.9 1041.65,-250.33"/>
<polygon fill="midnightblue" stroke="midnightblue" points="1043.66,-247.46 1033.73,-243.77 1039.19,-252.85 1043.66,-247.46"/>
</g>
<!-- Node32&#45;&gt;Node31 -->
<g id="edge60" class="edge">
<title>Node32&#45;&gt;Node31</title>
<path fill="none" stroke="midnightblue" d="M1090.4,-344.66C968.81,-332.54 692.02,-304.95 590.36,-294.82"/>
<polygon fill="midnightblue" stroke="midnightblue" points="590.54,-291.32 580.24,-293.81 589.85,-298.29 590.54,-291.32"/>
</g>
<!-- Node33&#45;&gt;Node9 -->
<g id="edge79" class="edge">
<title>Node33&#45;&gt;Node9</title>
<path fill="none" stroke="midnightblue" d="M1503.22,-348.21C1629.62,-341.75 1911,-318.06 1911,-235 1911,-235 1911,-235 1911,-121 1911,-38.81 1266.82,-16.14 1110.07,-11.84"/>
<polygon fill="midnightblue" stroke="midnightblue" points="1109.73,-8.33 1099.64,-11.56 1109.55,-15.33 1109.73,-8.33"/>
</g>
<!-- Node33&#45;&gt;Node26 -->
<g id="edge78" class="edge">
<title>Node33&#45;&gt;Node26</title>
<path fill="none" stroke="midnightblue" d="M1437.48,-336.34C1429.34,-315.43 1414.09,-276.31 1405.12,-253.27"/>
<polygon fill="midnightblue" stroke="midnightblue" points="1408.27,-251.72 1401.38,-243.67 1401.75,-254.26 1408.27,-251.72"/>
</g>
<!-- Node34 -->
<g id="node34" class="node">
<title>Node34</title>
<g id="a_node34"><a xlink:href="include_2ccf_2crypto_2entropy_8h.html" target="_top" xlink:title=" ">
<polygon fill="white" stroke="black" points="1476.5,-280.5 1476.5,-299.5 1589.5,-299.5 1589.5,-280.5 1476.5,-280.5"/>
<text text-anchor="middle" x="1533" y="-287.5" font-family="Helvetica,sans-Serif" font-size="10.00">ccf/crypto/entropy.h</text>
</a>
</g>
</g>
<!-- Node33&#45;&gt;Node34 -->
<g id="edge68" class="edge">
<title>Node33&#45;&gt;Node34</title>
<path fill="none" stroke="midnightblue" d="M1464.33,-336.4C1478.49,-327.04 1497.01,-314.79 1511.25,-305.38"/>
<polygon fill="midnightblue" stroke="midnightblue" points="1513.49,-308.09 1519.9,-299.66 1509.63,-302.25 1513.49,-308.09"/>
</g>
<!-- Node34&#45;&gt;Node9 -->
<g id="edge77" class="edge">
<title>Node34&#45;&gt;Node9</title>
<path fill="none" stroke="midnightblue" d="M1542.41,-280.2C1550.99,-271.69 1563.45,-258.05 1571,-244 1585.24,-217.48 1590,-209.1 1590,-179 1590,-179 1590,-179 1590,-121 1590,-22.54 1224.79,-11.91 1110.06,-11"/>
<polygon fill="midnightblue" stroke="midnightblue" points="1109.78,-7.5 1099.76,-10.94 1109.74,-14.5 1109.78,-7.5"/>
</g>
<!-- Node34&#45;&gt;Node21 -->
<g id="edge75" class="edge">
<title>Node34&#45;&gt;Node21</title>
<path fill="none" stroke="midnightblue" d="M1476.18,-284.73C1377.17,-277.2 1166.61,-260.75 989,-244 975.23,-242.7 960.21,-241.15 946.68,-239.71"/>
<polygon fill="midnightblue" stroke="midnightblue" points="946.99,-236.23 936.68,-238.64 946.25,-243.19 946.99,-236.23"/>
</g>
<!-- Node34&#45;&gt;Node23 -->
<g id="edge73" class="edge">
<title>Node34&#45;&gt;Node23</title>
<path fill="none" stroke="midnightblue" d="M1521.43,-280.32C1510.58,-272.18 1494.12,-259.84 1481.12,-250.09"/>
<polygon fill="midnightblue" stroke="midnightblue" points="1482.88,-247.03 1472.78,-243.83 1478.68,-252.63 1482.88,-247.03"/>
</g>
<!-- Node34&#45;&gt;Node25 -->
<g id="edge74" class="edge">
<title>Node34&#45;&gt;Node25</title>
<path fill="none" stroke="midnightblue" d="M1533,-280.08C1533,-273.01 1533,-262.86 1533,-253.99"/>
<polygon fill="midnightblue" stroke="midnightblue" points="1536.5,-253.75 1533,-243.75 1529.5,-253.75 1536.5,-253.75"/>
</g>
<!-- Node34&#45;&gt;Node29 -->
<g id="edge72" class="edge">
<title>Node34&#45;&gt;Node29</title>
<path fill="none" stroke="midnightblue" d="M1476.47,-283.01C1370.54,-271.8 1145.02,-247.92 1058.14,-238.72"/>
<polygon fill="midnightblue" stroke="midnightblue" points="1058.32,-235.22 1048.01,-237.65 1057.58,-242.18 1058.32,-235.22"/>
</g>
<!-- Node35 -->
<g id="node35" class="node">
<title>Node35</title>
<g id="a_node35"><a xlink:href="hardware__info_8h.html" target="_top" xlink:title=" ">
<polygon fill="white" stroke="black" points="1681.5,-224.5 1681.5,-243.5 1812.5,-243.5 1812.5,-224.5 1681.5,-224.5"/>
<text text-anchor="middle" x="1747" y="-231.5" font-family="Helvetica,sans-Serif" font-size="10.00">ccf/pal/hardware_info.h</text>
</a>
</g>
</g>
<!-- Node34&#45;&gt;Node35 -->
<g id="edge69" class="edge">
<title>Node34&#45;&gt;Node35</title>
<path fill="none" stroke="midnightblue" d="M1566.91,-280.44C1603.85,-271.12 1663.05,-256.18 1703.42,-246"/>
<polygon fill="midnightblue" stroke="midnightblue" points="1704.41,-249.36 1713.25,-243.52 1702.7,-242.57 1704.41,-249.36"/>
</g>
<!-- Node37 -->
<g id="node37" class="node">
<title>Node37</title>
<g id="a_node37"><a xlink:title=" ">
<polygon fill="white" stroke="#bfbfbf" points="1831,-224.5 1831,-243.5 1883,-243.5 1883,-224.5 1831,-224.5"/>
<text text-anchor="middle" x="1857" y="-231.5" font-family="Helvetica,sans-Serif" font-size="10.00">cassert</text>
</a>
</g>
</g>
<!-- Node34&#45;&gt;Node37 -->
<g id="edge71" class="edge">
<title>Node34&#45;&gt;Node37</title>
<path fill="none" stroke="midnightblue" d="M1589.5,-281.86C1645.8,-274.37 1734.89,-261.51 1820.78,-244.09"/>
<polygon fill="midnightblue" stroke="midnightblue" points="1821.6,-247.5 1830.69,-242.06 1820.19,-240.64 1821.6,-247.5"/>
</g>
<!-- Node38 -->
<g id="node38" class="node">
<title>Node38</title>
<g id="a_node38"><a xlink:title=" ">
<polygon fill="white" stroke="#bfbfbf" points="1618.5,-224.5 1618.5,-243.5 1663.5,-243.5 1663.5,-224.5 1618.5,-224.5"/>
<text text-anchor="middle" x="1641" y="-231.5" font-family="Helvetica,sans-Serif" font-size="10.00">utility</text>
</a>
</g>
</g>
<!-- Node34&#45;&gt;Node38 -->
<g id="edge76" class="edge">
<title>Node34&#45;&gt;Node38</title>
<path fill="none" stroke="midnightblue" d="M1550.35,-280.32C1567.67,-271.66 1594.52,-258.24 1614.5,-248.25"/>
<polygon fill="midnightblue" stroke="midnightblue" points="1616.31,-251.26 1623.69,-243.65 1613.18,-245 1616.31,-251.26"/>
</g>
<!-- Node36 -->
<g id="node36" class="node">
<title>Node36</title>
<g id="a_node36"><a xlink:title=" ">
<polygon fill="white" stroke="#bfbfbf" points="1731,-168.5 1731,-187.5 1763,-187.5 1763,-168.5 1731,-168.5"/>
<text text-anchor="middle" x="1747" y="-175.5" font-family="Helvetica,sans-Serif" font-size="10.00">set</text>
</a>
</g>
</g>
<!-- Node35&#45;&gt;Node36 -->
<g id="edge70" class="edge">
<title>Node35&#45;&gt;Node36</title>
<path fill="none" stroke="midnightblue" d="M1747,-224.08C1747,-217.01 1747,-206.86 1747,-197.99"/>
<polygon fill="midnightblue" stroke="midnightblue" points="1750.5,-197.75 1747,-187.75 1743.5,-197.75 1750.5,-197.75"/>
</g>
</g>
</svg>
        <g id="navigator" transform="translate(0 0)" fill="#404254">
                <rect fill="#f2f5e9" fill-opacity="0.5" stroke="#606060" stroke-width=".5" x="0" y="0" width="60" height="60"/>
                <use id="zoomplus" xlink:href="#zoomPlus" x="17" y="9" onmousedown="handleZoom(evt,'in')"/>
                <use id="zoomminus" xlink:href="#zoomMin" x="42" y="9" onmousedown="handleZoom(evt,'out')"/>
                <use id="reset" xlink:href="#resetDef" x="30" y="36" onmousedown="handleReset()"/>
                <g id="arrowUp" xlink:href="#dirArrow" transform="translate(30 24)" onmousedown="handlePan(0,-1)">
                  <use xlink:href="#rim" fill="#404040">
                        <set attributeName="fill" to="#808080" begin="arrowUp.mouseover" end="arrowUp.mouseout"/>
                  </use>
                  <path fill="none" stroke="white" stroke-width="1.5" d="M0,-3.0v7 M-2.5,-0.5L0,-3.0L2.5,-0.5"/>
                </g>
                <g id="arrowRight" xlink:href="#dirArrow" transform="rotate(90) translate(36 -43)" onmousedown="handlePan(1,0)">
                  <use xlink:href="#rim" fill="#404040">
                        <set attributeName="fill" to="#808080" begin="arrowRight.mouseover" end="arrowRight.mouseout"/>
                  </use>
                  <path fill="none" stroke="white" stroke-width="1.5" d="M0,-3.0v7 M-2.5,-0.5L0,-3.0L2.5,-0.5"/>
                </g>
                <g id="arrowDown" xlink:href="#dirArrow" transform="rotate(180) translate(-30 -48)" onmousedown="handlePan(0,1)">
                  <use xlink:href="#rim" fill="#404040">
                        <set attributeName="fill" to="#808080" begin="arrowDown.mouseover" end="arrowDown.mouseout"/>
                  </use>
                  <path fill="none" stroke="white" stroke-width="1.5" d="M0,-3.0v7 M-2.5,-0.5L0,-3.0L2.5,-0.5"/>
                </g>
                <g id="arrowLeft" xlink:href="#dirArrow" transform="rotate(270) translate(-36 17)" onmousedown="handlePan(-1,0)">
                  <use xlink:href="#rim" fill="#404040">
                        <set attributeName="fill" to="#808080" begin="arrowLeft.mouseover" end="arrowLeft.mouseout"/>
                  </use>
                  <path fill="none" stroke="white" stroke-width="1.5" d="M0,-3.0v7 M-2.5,-0.5L0,-3.0L2.5,-0.5"/>
                </g>
        </g>
        <svg viewBox="0 0 15 15" width="100%" height="30px" preserveAspectRatio="xMaxYMin meet">
         <g id="arrow_out" transform="scale(0.3 0.3)">
          <a xlink:href="key__wrap_8h__incl_org.svg" target="_base">
           <rect id="button" ry="5" rx="5" y="6" x="6" height="38" width="38"
                fill="#f2f5e9" fill-opacity="0.5" stroke="#606060" stroke-width="1.0"/>
           <path id="arrow"
             d="M 11.500037,31.436501 C 11.940474,20.09759 22.043105,11.32322 32.158766,21.979434 L 37.068811,17.246167 C 37.068811,17.246167 37.088388,32 37.088388,32 L 22.160133,31.978069 C 22.160133,31.978069 26.997745,27.140456 26.997745,27.140456 C 18.528582,18.264221 13.291696,25.230495 11.500037,31.436501 z"
             style="fill:#404040;"/>
          </a>
         </g>
        </svg>
</svg>
