<?xml version="1.0" encoding="UTF-8" standalone="no"?>
<!DOCTYPE svg PUBLIC "-//W3C//DTD SVG 1.1//EN"
 "http://www.w3.org/Graphics/SVG/1.1/DTD/svg11.dtd">
<!-- Generated by graphviz version 2.43.0 (0)
 -->
<!-- Title: include/ccf/crypto/key_wrap.h Pages: 1 -->
<svg width="609pt" height="330pt"
 viewBox="0.00 0.00 609.00 330.00" xmlns="http://www.w3.org/2000/svg" xmlns:xlink="http://www.w3.org/1999/xlink">
<g id="graph0" class="graph" transform="scale(1 1) rotate(0) translate(4 326)">
<title>include/ccf/crypto/key_wrap.h</title>
<polygon fill="white" stroke="transparent" points="-4,4 -4,-326 605,-326 605,4 -4,4"/>
<!-- Node1 -->
<g id="node1" class="node">
<title>Node1</title>
<g id="a_node1"><a xlink:title=" ">
<polygon fill="#bfbfbf" stroke="black" points="217.5,-291.5 217.5,-321.5 320.5,-321.5 320.5,-291.5 217.5,-291.5"/>
<text text-anchor="start" x="225.5" y="-309.5" font-family="Helvetica,sans-Serif" font-size="10.00">include/ccf/crypto</text>
<text text-anchor="middle" x="269" y="-298.5" font-family="Helvetica,sans-Serif" font-size="10.00">/key_wrap.h</text>
</a>
</g>
</g>
<!-- Node2 -->
<g id="node2" class="node">
<title>Node2</title>
<g id="a_node2"><a xlink:href="js__generic__base_8cpp.html" target="_top" xlink:title=" ">
<polygon fill="white" stroke="black" points="0,-224.5 0,-254.5 118,-254.5 118,-224.5 0,-224.5"/>
<text text-anchor="start" x="8" y="-242.5" font-family="Helvetica,sans-Serif" font-size="10.00">src/apps/js_generic</text>
<text text-anchor="middle" x="59" y="-231.5" font-family="Helvetica,sans-Serif" font-size="10.00">/js_generic_base.cpp</text>
</a>
</g>
</g>
<!-- Node1&#45;&gt;Node2 -->
<g id="edge1" class="edge">
<title>Node1&#45;&gt;Node2</title>
<path fill="none" stroke="midnightblue" d="M213.9,-288.44C179.86,-277.91 136.7,-264.55 104.59,-254.61"/>
<polygon fill="midnightblue" stroke="midnightblue" points="213.1,-291.86 223.69,-291.48 215.17,-285.18 213.1,-291.86"/>
</g>
<!-- Node3 -->
<g id="node3" class="node">
<title>Node3</title>
<g id="a_node3"><a xlink:href="key__wrap_8cpp.html" target="_top" xlink:title=" ">
<polygon fill="white" stroke="black" points="136,-230 136,-249 270,-249 270,-230 136,-230"/>
<text text-anchor="middle" x="203" y="-237" font-family="Helvetica,sans-Serif" font-size="10.00">src/crypto/key_wrap.cpp</text>
</a>
</g>
</g>
<!-- Node1&#45;&gt;Node3 -->
<g id="edge2" class="edge">
<title>Node1&#45;&gt;Node3</title>
<path fill="none" stroke="midnightblue" d="M247.51,-284.34C235.39,-272.4 220.91,-258.14 211.83,-249.19"/>
<polygon fill="midnightblue" stroke="midnightblue" points="245.1,-286.87 254.68,-291.4 250.01,-281.89 245.1,-286.87"/>
</g>
<!-- Node4 -->
<g id="node4" class="node">
<title>Node4</title>
<g id="a_node4"><a xlink:href="crypto_8cpp.html" target="_top" xlink:title=" ">
<polygon fill="white" stroke="black" points="288,-230 288,-249 384,-249 384,-230 288,-230"/>
<text text-anchor="middle" x="336" y="-237" font-family="Helvetica,sans-Serif" font-size="10.00">src/js/crypto.cpp</text>
</a>
</g>
</g>
<!-- Node1&#45;&gt;Node4 -->
<g id="edge3" class="edge">
<title>Node1&#45;&gt;Node4</title>
<path fill="none" stroke="midnightblue" d="M290.82,-284.34C303.12,-272.4 317.82,-258.14 327.04,-249.19"/>
<polygon fill="midnightblue" stroke="midnightblue" points="288.28,-281.92 283.54,-291.4 293.15,-286.94 288.28,-281.92"/>
</g>
<!-- Node6 -->
<g id="node6" class="node">
<title>Node6</title>
<g id="a_node6"><a xlink:href="secret__broadcast_8h.html" target="_top" xlink:title=" ">
<polygon fill="white" stroke="black" points="402.5,-230 402.5,-249 555.5,-249 555.5,-230 402.5,-230"/>
<text text-anchor="middle" x="479" y="-237" font-family="Helvetica,sans-Serif" font-size="10.00">src/node/secret_broadcast.h</text>
</a>
</g>
</g>
<!-- Node1&#45;&gt;Node6 -->
<g id="edge5" class="edge">
<title>Node1&#45;&gt;Node6</title>
<path fill="none" stroke="midnightblue" d="M323.89,-288.51C364.87,-275.83 419.16,-259.02 451.45,-249.03"/>
<polygon fill="midnightblue" stroke="midnightblue" points="322.83,-285.18 314.31,-291.48 324.9,-291.86 322.83,-285.18"/>
</g>
<!-- Node5 -->
<g id="node5" class="node">
<title>Node5</title>
<g id="a_node5"><a xlink:href="wrap_8cpp.html" target="_top" xlink:title=" ">
<polygon fill="white" stroke="black" points="291.5,-168.5 291.5,-187.5 380.5,-187.5 380.5,-168.5 291.5,-168.5"/>
<text text-anchor="middle" x="336" y="-175.5" font-family="Helvetica,sans-Serif" font-size="10.00">src/js/wrap.cpp</text>
</a>
</g>
</g>
<!-- Node4&#45;&gt;Node5 -->
<g id="edge4" class="edge">
<title>Node4&#45;&gt;Node5</title>
<path fill="none" stroke="midnightblue" d="M336,-219.82C336,-209 336,-195.9 336,-187.51"/>
<polygon fill="midnightblue" stroke="midnightblue" points="332.5,-219.98 336,-229.98 339.5,-219.98 332.5,-219.98"/>
</g>
<!-- Node7 -->
<g id="node7" class="node">
<title>Node7</title>
<g id="a_node7"><a xlink:href="node__state_8h.html" target="_top" xlink:title=" ">
<polygon fill="white" stroke="black" points="417,-168.5 417,-187.5 541,-187.5 541,-168.5 417,-168.5"/>
<text text-anchor="middle" x="479" y="-175.5" font-family="Helvetica,sans-Serif" font-size="10.00">src/node/node_state.h</text>
</a>
</g>
</g>
<!-- Node6&#45;&gt;Node7 -->
<g id="edge6" class="edge">
<title>Node6&#45;&gt;Node7</title>
<path fill="none" stroke="midnightblue" d="M479,-219.82C479,-209 479,-195.9 479,-187.51"/>
<polygon fill="midnightblue" stroke="midnightblue" points="475.5,-219.98 479,-229.98 482.5,-219.98 475.5,-219.98"/>
</g>
<!-- Node8 -->
<g id="node8" class="node">
<title>Node8</title>
<g id="a_node8"><a xlink:href="src_2enclave_2enclave_8h.html" target="_top" xlink:title=" ">
<polygon fill="white" stroke="black" points="418,-56.5 418,-75.5 540,-75.5 540,-56.5 418,-56.5"/>
<text text-anchor="middle" x="479" y="-63.5" font-family="Helvetica,sans-Serif" font-size="10.00">src/enclave/enclave.h</text>
</a>
</g>
</g>
<!-- Node7&#45;&gt;Node8 -->
<g id="edge7" class="edge">
<title>Node7&#45;&gt;Node8</title>
<path fill="none" stroke="midnightblue" d="M463.45,-160.6C453.22,-147.77 442.63,-129.27 448,-112 452.4,-97.87 462.95,-84.25 470.52,-75.77"/>
<polygon fill="midnightblue" stroke="midnightblue" points="461.09,-163.22 470.28,-168.49 466.38,-158.64 461.09,-163.22"/>
</g>
<!-- Node10 -->
<g id="node10" class="node">
<title>Node10</title>
<g id="a_node10"><a xlink:href="gov__effects_8h.html" target="_top" xlink:title=" ">
<polygon fill="white" stroke="black" points="457,-112.5 457,-131.5 601,-131.5 601,-112.5 457,-112.5"/>
<text text-anchor="middle" x="529" y="-119.5" font-family="Helvetica,sans-Serif" font-size="10.00">src/node/rpc/gov_effects.h</text>
</a>
</g>
</g>
<!-- Node7&#45;&gt;Node10 -->
<g id="edge9" class="edge">
<title>Node7&#45;&gt;Node10</title>
<path fill="none" stroke="midnightblue" d="M494.08,-160.72C502.89,-151.2 513.67,-139.56 520.9,-131.75"/>
<polygon fill="midnightblue" stroke="midnightblue" points="491.48,-158.37 487.26,-168.08 496.62,-163.12 491.48,-158.37"/>
</g>
<!-- Node9 -->
<g id="node9" class="node">
<title>Node9</title>
<g id="a_node9"><a xlink:href="enclave_2main_8cpp.html" target="_top" xlink:title=" ">
<polygon fill="white" stroke="black" points="419,-0.5 419,-19.5 539,-19.5 539,-0.5 419,-0.5"/>
<text text-anchor="middle" x="479" y="-7.5" font-family="Helvetica,sans-Serif" font-size="10.00">src/enclave/main.cpp</text>
</a>
</g>
</g>
<!-- Node8&#45;&gt;Node9 -->
<g id="edge8" class="edge">
<title>Node8&#45;&gt;Node9</title>
<path fill="none" stroke="midnightblue" d="M479,-45.8C479,-36.91 479,-26.78 479,-19.75"/>
<polygon fill="midnightblue" stroke="midnightblue" points="475.5,-46.08 479,-56.08 482.5,-46.08 475.5,-46.08"/>
</g>
<!-- Node10&#45;&gt;Node8 -->
<g id="edge10" class="edge">
<title>Node10&#45;&gt;Node8</title>
<path fill="none" stroke="midnightblue" d="M513.92,-104.72C505.11,-95.2 494.33,-83.56 487.1,-75.75"/>
<polygon fill="midnightblue" stroke="midnightblue" points="511.38,-107.12 520.74,-112.08 516.52,-102.37 511.38,-107.12"/>
</g>
</g>
</svg>
