<?xml version="1.0" encoding="UTF-8" standalone="no"?>
<!DOCTYPE svg PUBLIC "-//W3C//DTD SVG 1.1//EN"
 "http://www.w3.org/Graphics/SVG/1.1/DTD/svg11.dtd">
<!-- Generated by graphviz version 2.43.0 (0)
 -->
<!-- Title: src/consensus/ledger_enclave_types.h Pages: 1 -->
<svg width="606pt" height="352pt"
 viewBox="0.00 0.00 606.00 352.00" xmlns="http://www.w3.org/2000/svg" xmlns:xlink="http://www.w3.org/1999/xlink">
<g id="graph0" class="graph" transform="scale(1 1) rotate(0) translate(4 348)">
<title>src/consensus/ledger_enclave_types.h</title>
<polygon fill="white" stroke="transparent" points="-4,4 -4,-348 602,-348 602,4 -4,4"/>
<!-- Node1 -->
<g id="node1" class="node">
<title>Node1</title>
<g id="a_node1"><a xlink:title=" ">
<polygon fill="#bfbfbf" stroke="black" points="271,-313.5 271,-343.5 390,-343.5 390,-313.5 271,-313.5"/>
<text text-anchor="start" x="279" y="-331.5" font-family="Helvetica,sans-Serif" font-size="10.00">src/consensus/ledger</text>
<text text-anchor="middle" x="330.5" y="-320.5" font-family="Helvetica,sans-Serif" font-size="10.00">_enclave_types.h</text>
</a>
</g>
</g>
<!-- Node2 -->
<g id="node2" class="node">
<title>Node2</title>
<g id="a_node2"><a xlink:href="ledger__enclave_8h.html" target="_top" xlink:title=" ">
<polygon fill="white" stroke="black" points="0,-246.5 0,-276.5 119,-276.5 119,-246.5 0,-246.5"/>
<text text-anchor="start" x="8" y="-264.5" font-family="Helvetica,sans-Serif" font-size="10.00">src/consensus/ledger</text>
<text text-anchor="middle" x="59.5" y="-253.5" font-family="Helvetica,sans-Serif" font-size="10.00">_enclave.h</text>
</a>
</g>
</g>
<!-- Node1&#45;&gt;Node2 -->
<g id="edge1" class="edge">
<title>Node1&#45;&gt;Node2</title>
<path fill="none" stroke="midnightblue" d="M262.2,-311.12C217.86,-300.48 160.66,-286.76 118.33,-276.61"/>
<polygon fill="midnightblue" stroke="midnightblue" points="261.49,-314.55 272.03,-313.48 263.12,-307.74 261.49,-314.55"/>
</g>
<!-- Node7 -->
<g id="node7" class="node">
<title>Node7</title>
<g id="a_node7"><a xlink:href="ledger_8h.html" target="_top" xlink:title=" ">
<polygon fill="white" stroke="black" points="282,-252 282,-271 379,-271 379,-252 282,-252"/>
<text text-anchor="middle" x="330.5" y="-259" font-family="Helvetica,sans-Serif" font-size="10.00">src/host/ledger.h</text>
</a>
</g>
</g>
<!-- Node1&#45;&gt;Node7 -->
<g id="edge7" class="edge">
<title>Node1&#45;&gt;Node7</title>
<path fill="none" stroke="midnightblue" d="M330.5,-303.25C330.5,-292.02 330.5,-279.38 330.5,-271.19"/>
<polygon fill="midnightblue" stroke="midnightblue" points="327,-303.4 330.5,-313.4 334,-303.4 327,-303.4"/>
</g>
<!-- Node10 -->
<g id="node10" class="node">
<title>Node10</title>
<g id="a_node10"><a xlink:href="snapshots_8h.html" target="_top" xlink:title=" ">
<polygon fill="white" stroke="black" points="349.5,-185 349.5,-204 465.5,-204 465.5,-185 349.5,-185"/>
<text text-anchor="middle" x="407.5" y="-192" font-family="Helvetica,sans-Serif" font-size="10.00">src/host/snapshots.h</text>
</a>
</g>
</g>
<!-- Node1&#45;&gt;Node10 -->
<g id="edge10" class="edge">
<title>Node1&#45;&gt;Node10</title>
<path fill="none" stroke="midnightblue" d="M360.06,-307.14C370.11,-298.86 380.54,-288.52 387.5,-277 401.81,-253.3 405.89,-219.89 407.05,-204.23"/>
<polygon fill="midnightblue" stroke="midnightblue" points="357.88,-304.41 352.16,-313.33 362.19,-309.92 357.88,-304.41"/>
</g>
<!-- Node11 -->
<g id="node11" class="node">
<title>Node11</title>
<g id="a_node11"><a xlink:href="historical__queries_8h.html" target="_top" xlink:title=" ">
<polygon fill="white" stroke="black" points="483.5,-179.5 483.5,-209.5 589.5,-209.5 589.5,-179.5 483.5,-179.5"/>
<text text-anchor="start" x="491.5" y="-197.5" font-family="Helvetica,sans-Serif" font-size="10.00">src/node/historical</text>
<text text-anchor="middle" x="536.5" y="-186.5" font-family="Helvetica,sans-Serif" font-size="10.00">_queries.h</text>
</a>
</g>
</g>
<!-- Node1&#45;&gt;Node11 -->
<g id="edge12" class="edge">
<title>Node1&#45;&gt;Node11</title>
<path fill="none" stroke="midnightblue" d="M360.99,-307.96C403.01,-281.04 477.7,-233.17 514.61,-209.52"/>
<polygon fill="midnightblue" stroke="midnightblue" points="359.08,-305.03 352.55,-313.37 362.85,-310.93 359.08,-305.03"/>
</g>
<!-- Node13 -->
<g id="node13" class="node">
<title>Node13</title>
<g id="a_node13"><a xlink:href="snapshotter_8h.html" target="_top" xlink:title=" ">
<polygon fill="white" stroke="black" points="137,-252 137,-271 264,-271 264,-252 137,-252"/>
<text text-anchor="middle" x="200.5" y="-259" font-family="Helvetica,sans-Serif" font-size="10.00">src/node/snapshotter.h</text>
</a>
</g>
</g>
<!-- Node1&#45;&gt;Node13 -->
<g id="edge16" class="edge">
<title>Node1&#45;&gt;Node13</title>
<path fill="none" stroke="midnightblue" d="M293.11,-308.8C268.18,-296.34 236.61,-280.56 217.51,-271.01"/>
<polygon fill="midnightblue" stroke="midnightblue" points="291.78,-312.05 302.29,-313.4 294.91,-305.79 291.78,-312.05"/>
</g>
<!-- Node3 -->
<g id="node3" class="node">
<title>Node3</title>
<g id="a_node3"><a xlink:href="node__state_8h.html" target="_top" xlink:title=" ">
<polygon fill="white" stroke="black" points="33.5,-185 33.5,-204 157.5,-204 157.5,-185 33.5,-185"/>
<text text-anchor="middle" x="95.5" y="-192" font-family="Helvetica,sans-Serif" font-size="10.00">src/node/node_state.h</text>
</a>
</g>
</g>
<!-- Node2&#45;&gt;Node3 -->
<g id="edge2" class="edge">
<title>Node2&#45;&gt;Node3</title>
<path fill="none" stroke="midnightblue" d="M72.17,-237.63C78.57,-226.07 85.97,-212.71 90.68,-204.19"/>
<polygon fill="midnightblue" stroke="midnightblue" points="69.09,-235.95 67.31,-246.4 75.22,-239.34 69.09,-235.95"/>
</g>
<!-- Node4 -->
<g id="node4" class="node">
<title>Node4</title>
<g id="a_node4"><a xlink:href="src_2enclave_2enclave_8h.html" target="_top" xlink:title=" ">
<polygon fill="white" stroke="black" points="266.5,-56.5 266.5,-75.5 388.5,-75.5 388.5,-56.5 266.5,-56.5"/>
<text text-anchor="middle" x="327.5" y="-63.5" font-family="Helvetica,sans-Serif" font-size="10.00">src/enclave/enclave.h</text>
</a>
</g>
</g>
<!-- Node3&#45;&gt;Node4 -->
<g id="edge3" class="edge">
<title>Node3&#45;&gt;Node4</title>
<path fill="none" stroke="midnightblue" d="M99.62,-175.1C104.79,-156.38 115.5,-127.92 135.5,-112 172.46,-82.57 225.37,-71.8 266.29,-68.11"/>
<polygon fill="midnightblue" stroke="midnightblue" points="96.22,-174.28 97.19,-184.83 103.01,-175.97 96.22,-174.28"/>
</g>
<!-- Node6 -->
<g id="node6" class="node">
<title>Node6</title>
<g id="a_node6"><a xlink:href="gov__effects_8h.html" target="_top" xlink:title=" ">
<polygon fill="white" stroke="black" points="144.5,-118 144.5,-137 288.5,-137 288.5,-118 144.5,-118"/>
<text text-anchor="middle" x="216.5" y="-125" font-family="Helvetica,sans-Serif" font-size="10.00">src/node/rpc/gov_effects.h</text>
</a>
</g>
</g>
<!-- Node3&#45;&gt;Node6 -->
<g id="edge5" class="edge">
<title>Node3&#45;&gt;Node6</title>
<path fill="none" stroke="midnightblue" d="M120.71,-179.96C144.7,-167.07 180.06,-148.07 200.44,-137.13"/>
<polygon fill="midnightblue" stroke="midnightblue" points="118.97,-176.92 111.82,-184.73 122.28,-183.08 118.97,-176.92"/>
</g>
<!-- Node5 -->
<g id="node5" class="node">
<title>Node5</title>
<g id="a_node5"><a xlink:href="enclave_2main_8cpp.html" target="_top" xlink:title=" ">
<polygon fill="white" stroke="black" points="267.5,-0.5 267.5,-19.5 387.5,-19.5 387.5,-0.5 267.5,-0.5"/>
<text text-anchor="middle" x="327.5" y="-7.5" font-family="Helvetica,sans-Serif" font-size="10.00">src/enclave/main.cpp</text>
</a>
</g>
</g>
<!-- Node4&#45;&gt;Node5 -->
<g id="edge4" class="edge">
<title>Node4&#45;&gt;Node5</title>
<path fill="none" stroke="midnightblue" d="M327.5,-45.8C327.5,-36.91 327.5,-26.78 327.5,-19.75"/>
<polygon fill="midnightblue" stroke="midnightblue" points="324,-46.08 327.5,-56.08 331,-46.08 324,-46.08"/>
</g>
<!-- Node6&#45;&gt;Node4 -->
<g id="edge6" class="edge">
<title>Node6&#45;&gt;Node4</title>
<path fill="none" stroke="midnightblue" d="M241.29,-113.21C262.79,-101.69 293.26,-85.36 311.63,-75.51"/>
<polygon fill="midnightblue" stroke="midnightblue" points="239.56,-110.17 232.4,-117.98 242.87,-116.34 239.56,-110.17"/>
</g>
<!-- Node8 -->
<g id="node8" class="node">
<title>Node8</title>
<g id="a_node8"><a xlink:href="node__connections_8h.html" target="_top" xlink:title=" ">
<polygon fill="white" stroke="black" points="176,-185 176,-204 331,-204 331,-185 176,-185"/>
<text text-anchor="middle" x="253.5" y="-192" font-family="Helvetica,sans-Serif" font-size="10.00">src/host/node_connections.h</text>
</a>
</g>
</g>
<!-- Node7&#45;&gt;Node8 -->
<g id="edge8" class="edge">
<title>Node7&#45;&gt;Node8</title>
<path fill="none" stroke="midnightblue" d="M312.39,-245.21C297.22,-232.41 276.11,-214.59 263.72,-204.13"/>
<polygon fill="midnightblue" stroke="midnightblue" points="310.22,-247.96 320.12,-251.73 314.73,-242.61 310.22,-247.96"/>
</g>
<!-- Node9 -->
<g id="node9" class="node">
<title>Node9</title>
<g id="a_node9"><a xlink:href="host_2main_8cpp.html" target="_top" xlink:title=" ">
<polygon fill="white" stroke="black" points="310,-118 310,-137 413,-137 413,-118 310,-118"/>
<text text-anchor="middle" x="361.5" y="-125" font-family="Helvetica,sans-Serif" font-size="10.00">src/host/main.cpp</text>
</a>
</g>
</g>
<!-- Node8&#45;&gt;Node9 -->
<g id="edge9" class="edge">
<title>Node8&#45;&gt;Node9</title>
<path fill="none" stroke="midnightblue" d="M276.86,-179.44C298.25,-166.57 329.22,-147.93 347.17,-137.13"/>
<polygon fill="midnightblue" stroke="midnightblue" points="274.83,-176.58 268.07,-184.73 278.44,-182.58 274.83,-176.58"/>
</g>
<!-- Node10&#45;&gt;Node9 -->
<g id="edge11" class="edge">
<title>Node10&#45;&gt;Node9</title>
<path fill="none" stroke="midnightblue" d="M395.4,-176.4C386.46,-163.77 374.67,-147.1 367.61,-137.13"/>
<polygon fill="midnightblue" stroke="midnightblue" points="392.66,-178.59 401.3,-184.73 398.38,-174.55 392.66,-178.59"/>
</g>
<!-- Node11&#45;&gt;Node4 -->
<g id="edge13" class="edge">
<title>Node11&#45;&gt;Node4</title>
<path fill="none" stroke="midnightblue" d="M507.95,-173.71C494.69,-164.46 478.73,-153.24 464.5,-143 445.67,-129.45 442.41,-123.91 422.5,-112 398.07,-97.38 368.14,-83.87 348.48,-75.54"/>
<polygon fill="midnightblue" stroke="midnightblue" points="506.03,-176.64 516.23,-179.48 510.03,-170.89 506.03,-176.64"/>
</g>
<!-- Node12 -->
<g id="node12" class="node">
<title>Node12</title>
<g id="a_node12"><a xlink:href="historical__transaction__fetcher_8h.html" target="_top" xlink:title=" ">
<polygon fill="white" stroke="black" points="473,-112.5 473,-142.5 598,-142.5 598,-112.5 473,-112.5"/>
<text text-anchor="start" x="481" y="-130.5" font-family="Helvetica,sans-Serif" font-size="10.00">src/indexing/historical</text>
<text text-anchor="middle" x="535.5" y="-119.5" font-family="Helvetica,sans-Serif" font-size="10.00">_transaction_fetcher.h</text>
</a>
</g>
</g>
<!-- Node11&#45;&gt;Node12 -->
<g id="edge14" class="edge">
<title>Node11&#45;&gt;Node12</title>
<path fill="none" stroke="midnightblue" d="M536.12,-169.11C535.99,-160.15 535.84,-150.32 535.72,-142.58"/>
<polygon fill="midnightblue" stroke="midnightblue" points="532.63,-169.45 536.28,-179.4 539.63,-169.34 532.63,-169.45"/>
</g>
<!-- Node12&#45;&gt;Node4 -->
<g id="edge15" class="edge">
<title>Node12&#45;&gt;Node4</title>
<path fill="none" stroke="midnightblue" d="M476.81,-109.71C437.83,-98.56 388.3,-84.39 357.24,-75.51"/>
<polygon fill="midnightblue" stroke="midnightblue" points="475.89,-113.09 486.47,-112.47 477.82,-106.36 475.89,-113.09"/>
</g>
<!-- Node13&#45;&gt;Node3 -->
<g id="edge17" class="edge">
<title>Node13&#45;&gt;Node3</title>
<path fill="none" stroke="midnightblue" d="M177.79,-246.44C157,-233.57 126.88,-214.93 109.44,-204.13"/>
<polygon fill="midnightblue" stroke="midnightblue" points="175.99,-249.45 186.34,-251.73 179.68,-243.49 175.99,-249.45"/>
</g>
</g>
</svg>
