<?xml version="1.0" encoding="UTF-8" standalone="no"?>
<!DOCTYPE svg PUBLIC "-//W3C//DTD SVG 1.1//EN"
 "http://www.w3.org/Graphics/SVG/1.1/DTD/svg11.dtd">
<!-- Generated by graphviz version 2.43.0 (0)
 -->
<!-- Title: src/indexing/lfs_ringbuffer_types.h Pages: 1 -->
<svg width="1049pt" height="274pt"
 viewBox="0.00 0.00 1048.72 274.00" xmlns="http://www.w3.org/2000/svg" xmlns:xlink="http://www.w3.org/1999/xlink">
<g id="graph0" class="graph" transform="scale(1 1) rotate(0) translate(4 270)">
<title>src/indexing/lfs_ringbuffer_types.h</title>
<polygon fill="white" stroke="transparent" points="-4,4 -4,-270 1044.72,-270 1044.72,4 -4,4"/>
<!-- Node1 -->
<g id="node1" class="node">
<title>Node1</title>
<g id="a_node1"><a xlink:title=" ">
<polygon fill="#bfbfbf" stroke="black" points="191.96,-235.5 191.96,-265.5 334.96,-265.5 334.96,-235.5 191.96,-235.5"/>
<text text-anchor="start" x="199.96" y="-253.5" font-family="Helvetica,sans-Serif" font-size="10.00">src/indexing/lfs_ringbuffer</text>
<text text-anchor="middle" x="263.46" y="-242.5" font-family="Helvetica,sans-Serif" font-size="10.00">_types.h</text>
</a>
</g>
</g>
<!-- Node2 -->
<g id="node2" class="node">
<title>Node2</title>
<g id="a_node2"><a xlink:href="ring__buffer__types_8h.html" target="_top" xlink:title=" ">
<polygon fill="white" stroke="black" points="318.96,-179.5 318.96,-198.5 443.96,-198.5 443.96,-179.5 318.96,-179.5"/>
<text text-anchor="middle" x="381.46" y="-186.5" font-family="Helvetica,sans-Serif" font-size="10.00">ds/ring_buffer_types.h</text>
</a>
</g>
</g>
<!-- Node1&#45;&gt;Node2 -->
<g id="edge1" class="edge">
<title>Node1&#45;&gt;Node2</title>
<path fill="none" stroke="midnightblue" d="M291.43,-235.4C310.78,-225.64 336.37,-212.74 355.32,-203.18"/>
<polygon fill="midnightblue" stroke="midnightblue" points="356.94,-206.29 364.29,-198.66 353.79,-200.04 356.94,-206.29"/>
</g>
<!-- Node26 -->
<g id="node26" class="node">
<title>Node26</title>
<g id="a_node26"><a xlink:href="lfs__interface_8h.html" target="_top" xlink:title=" ">
<polygon fill="white" stroke="black" points="39.96,-123.5 39.96,-142.5 170.96,-142.5 170.96,-123.5 39.96,-123.5"/>
<text text-anchor="middle" x="105.46" y="-130.5" font-family="Helvetica,sans-Serif" font-size="10.00">indexing/lfs_interface.h</text>
</a>
</g>
</g>
<!-- Node1&#45;&gt;Node26 -->
<g id="edge38" class="edge">
<title>Node1&#45;&gt;Node26</title>
<path fill="none" stroke="midnightblue" d="M244.09,-235.34C213.94,-213.3 156.09,-171.01 125.52,-148.66"/>
<polygon fill="midnightblue" stroke="midnightblue" points="127.46,-145.75 117.32,-142.67 123.33,-151.4 127.46,-145.75"/>
</g>
<!-- Node3 -->
<g id="node3" class="node">
<title>Node3</title>
<g id="a_node3"><a xlink:href="include_2ccf_2ds_2hash_8h.html" target="_top" xlink:title=" ">
<polygon fill="white" stroke="black" points="650.46,-123.5 650.46,-142.5 730.46,-142.5 730.46,-123.5 650.46,-123.5"/>
<text text-anchor="middle" x="690.46" y="-130.5" font-family="Helvetica,sans-Serif" font-size="10.00">ccf/ds/hash.h</text>
</a>
</g>
</g>
<!-- Node2&#45;&gt;Node3 -->
<g id="edge2" class="edge">
<title>Node2&#45;&gt;Node3</title>
<path fill="none" stroke="midnightblue" d="M430.42,-179.44C487.73,-169.43 582.16,-152.93 640.08,-142.81"/>
<polygon fill="midnightblue" stroke="midnightblue" points="640.85,-146.22 650.1,-141.05 639.64,-139.33 640.85,-146.22"/>
</g>
<!-- Node7 -->
<g id="node7" class="node">
<title>Node7</title>
<g id="a_node7"><a xlink:title=" ">
<polygon fill="white" stroke="#bfbfbf" points="559.96,-0.5 559.96,-19.5 606.96,-19.5 606.96,-0.5 559.96,-0.5"/>
<text text-anchor="middle" x="583.46" y="-7.5" font-family="Helvetica,sans-Serif" font-size="10.00">vector</text>
</a>
</g>
</g>
<!-- Node2&#45;&gt;Node7 -->
<g id="edge37" class="edge">
<title>Node2&#45;&gt;Node7</title>
<path fill="none" stroke="midnightblue" d="M444.13,-183.96C502.57,-178.74 583.64,-167.24 603.46,-143 630.51,-109.92 608.23,-56.03 593.64,-28.45"/>
<polygon fill="midnightblue" stroke="midnightblue" points="596.63,-26.62 588.72,-19.57 590.5,-30.02 596.63,-26.62"/>
</g>
<!-- Node11 -->
<g id="node11" class="node">
<title>Node11</title>
<g id="a_node11"><a xlink:href="nonstd_8h.html" target="_top" xlink:title=" ">
<polygon fill="white" stroke="black" points="237.46,-62 237.46,-81 327.46,-81 327.46,-62 237.46,-62"/>
<text text-anchor="middle" x="282.46" y="-69" font-family="Helvetica,sans-Serif" font-size="10.00">ccf/ds/nonstd.h</text>
</a>
</g>
</g>
<!-- Node2&#45;&gt;Node11 -->
<g id="edge12" class="edge">
<title>Node2&#45;&gt;Node11</title>
<path fill="none" stroke="midnightblue" d="M322.94,-179.43C281.59,-172.04 231.31,-159.88 218.46,-143 202.48,-122.01 231.3,-99.79 255.28,-86.03"/>
<polygon fill="midnightblue" stroke="midnightblue" points="257.03,-89.06 264.12,-81.19 253.67,-82.92 257.03,-89.06"/>
</g>
<!-- Node14 -->
<g id="node14" class="node">
<title>Node14</title>
<g id="a_node14"><a xlink:title=" ">
<polygon fill="white" stroke="#bfbfbf" points="43.46,-0.5 43.46,-19.5 87.46,-19.5 87.46,-0.5 43.46,-0.5"/>
<text text-anchor="middle" x="65.46" y="-7.5" font-family="Helvetica,sans-Serif" font-size="10.00">string</text>
</a>
</g>
</g>
<!-- Node2&#45;&gt;Node14 -->
<g id="edge36" class="edge">
<title>Node2&#45;&gt;Node14</title>
<path fill="none" stroke="midnightblue" d="M318.73,-187.42C230.31,-185.38 74.95,-176.9 31.46,-143 0.01,-118.48 -7.78,-91.97 9.46,-56 15.71,-42.95 27.8,-32.49 39.14,-24.95"/>
<polygon fill="midnightblue" stroke="midnightblue" points="41.27,-27.75 47.96,-19.54 37.61,-21.79 41.27,-27.75"/>
</g>
<!-- Node16 -->
<g id="node16" class="node">
<title>Node16</title>
<g id="a_node16"><a xlink:href="serializer_8h.html" target="_top" xlink:title=" ">
<polygon fill="white" stroke="black" points="227.46,-123.5 227.46,-142.5 297.46,-142.5 297.46,-123.5 227.46,-123.5"/>
<text text-anchor="middle" x="262.46" y="-130.5" font-family="Helvetica,sans-Serif" font-size="10.00">serializer.h</text>
</a>
</g>
</g>
<!-- Node2&#45;&gt;Node16 -->
<g id="edge20" class="edge">
<title>Node2&#45;&gt;Node16</title>
<path fill="none" stroke="midnightblue" d="M362.61,-179.44C343.2,-170.64 312.73,-156.81 290.5,-146.72"/>
<polygon fill="midnightblue" stroke="midnightblue" points="291.78,-143.46 281.23,-142.52 288.89,-149.84 291.78,-143.46"/>
</g>
<!-- Node22 -->
<g id="node22" class="node">
<title>Node22</title>
<g id="a_node22"><a xlink:title=" ">
<polygon fill="white" stroke="#bfbfbf" points="315.46,-123.5 315.46,-142.5 365.46,-142.5 365.46,-123.5 315.46,-123.5"/>
<text text-anchor="middle" x="340.46" y="-130.5" font-family="Helvetica,sans-Serif" font-size="10.00">atomic</text>
</a>
</g>
</g>
<!-- Node2&#45;&gt;Node22 -->
<g id="edge32" class="edge">
<title>Node2&#45;&gt;Node22</title>
<path fill="none" stroke="midnightblue" d="M374.69,-179.08C368.9,-171.46 360.4,-160.26 353.32,-150.94"/>
<polygon fill="midnightblue" stroke="midnightblue" points="355.94,-148.6 347.11,-142.75 350.37,-152.83 355.94,-148.6"/>
</g>
<!-- Node23 -->
<g id="node23" class="node">
<title>Node23</title>
<g id="a_node23"><a xlink:title=" ">
<polygon fill="white" stroke="#bfbfbf" points="383.96,-123.5 383.96,-142.5 462.96,-142.5 462.96,-123.5 383.96,-123.5"/>
<text text-anchor="middle" x="423.46" y="-130.5" font-family="Helvetica,sans-Serif" font-size="10.00">fmt/format.h</text>
</a>
</g>
</g>
<!-- Node2&#45;&gt;Node23 -->
<g id="edge33" class="edge">
<title>Node2&#45;&gt;Node23</title>
<path fill="none" stroke="midnightblue" d="M388.4,-179.08C394.39,-171.38 403.21,-160.03 410.51,-150.65"/>
<polygon fill="midnightblue" stroke="midnightblue" points="413.28,-152.79 416.65,-142.75 407.75,-148.5 413.28,-152.79"/>
</g>
<!-- Node24 -->
<g id="node24" class="node">
<title>Node24</title>
<g id="a_node24"><a xlink:title=" ">
<polygon fill="white" stroke="#bfbfbf" points="480.46,-123.5 480.46,-142.5 536.46,-142.5 536.46,-123.5 480.46,-123.5"/>
<text text-anchor="middle" x="508.46" y="-130.5" font-family="Helvetica,sans-Serif" font-size="10.00">optional</text>
</a>
</g>
</g>
<!-- Node2&#45;&gt;Node24 -->
<g id="edge34" class="edge">
<title>Node2&#45;&gt;Node24</title>
<path fill="none" stroke="midnightblue" d="M401.58,-179.44C422.49,-170.56 455.4,-156.56 479.18,-146.45"/>
<polygon fill="midnightblue" stroke="midnightblue" points="480.6,-149.65 488.43,-142.52 477.86,-143.21 480.6,-149.65"/>
</g>
<!-- Node25 -->
<g id="node25" class="node">
<title>Node25</title>
<g id="a_node25"><a xlink:title=" ">
<polygon fill="white" stroke="#bfbfbf" points="554.46,-123.5 554.46,-142.5 594.46,-142.5 594.46,-123.5 554.46,-123.5"/>
<text text-anchor="middle" x="574.46" y="-130.5" font-family="Helvetica,sans-Serif" font-size="10.00">span</text>
</a>
</g>
</g>
<!-- Node2&#45;&gt;Node25 -->
<g id="edge35" class="edge">
<title>Node2&#45;&gt;Node25</title>
<path fill="none" stroke="midnightblue" d="M413.91,-179.44C445.06,-171.14 493.64,-158.01 544.37,-143.25"/>
<polygon fill="midnightblue" stroke="midnightblue" points="545.59,-146.54 554.21,-140.38 543.63,-139.82 545.59,-146.54"/>
</g>
<!-- Node4 -->
<g id="node4" class="node">
<title>Node4</title>
<g id="a_node4"><a xlink:href="siphash_8h.html" target="_top" xlink:title=" ">
<polygon fill="white" stroke="black" points="929.96,-62 929.96,-81 1024.96,-81 1024.96,-62 929.96,-62"/>
<text text-anchor="middle" x="977.46" y="-69" font-family="Helvetica,sans-Serif" font-size="10.00">ccf/ds/siphash.h</text>
</a>
</g>
</g>
<!-- Node3&#45;&gt;Node4 -->
<g id="edge3" class="edge">
<title>Node3&#45;&gt;Node4</title>
<path fill="none" stroke="midnightblue" d="M730.68,-124.93C776.89,-116.64 854.92,-102.08 921.46,-87 926.17,-85.93 931.09,-84.75 935.97,-83.54"/>
<polygon fill="midnightblue" stroke="midnightblue" points="937.02,-86.89 945.85,-81.04 935.3,-80.1 937.02,-86.89"/>
</g>
<!-- Node6 -->
<g id="node6" class="node">
<title>Node6</title>
<g id="a_node6"><a xlink:title=" ">
<polygon fill="white" stroke="#bfbfbf" points="917.46,-0.5 917.46,-19.5 967.46,-19.5 967.46,-0.5 917.46,-0.5"/>
<text text-anchor="middle" x="942.46" y="-7.5" font-family="Helvetica,sans-Serif" font-size="10.00">cstdint</text>
</a>
</g>
</g>
<!-- Node3&#45;&gt;Node6 -->
<g id="edge8" class="edge">
<title>Node3&#45;&gt;Node6</title>
<path fill="none" stroke="midnightblue" d="M730.76,-129.67C817.3,-124.26 1014.67,-109.55 1034.46,-87 1043.55,-76.65 1041.76,-67.69 1034.46,-56 1027.75,-45.24 999.96,-32.5 976.66,-23.33"/>
<polygon fill="midnightblue" stroke="midnightblue" points="977.62,-19.95 967.03,-19.63 975.11,-26.48 977.62,-19.95"/>
</g>
<!-- Node3&#45;&gt;Node7 -->
<g id="edge11" class="edge">
<title>Node3&#45;&gt;Node7</title>
<path fill="none" stroke="midnightblue" d="M682.77,-123.3C664.95,-103.15 620.65,-53.06 597.72,-27.12"/>
<polygon fill="midnightblue" stroke="midnightblue" points="600.33,-24.8 591.09,-19.62 595.09,-29.43 600.33,-24.8"/>
</g>
<!-- Node8 -->
<g id="node8" class="node">
<title>Node8</title>
<g id="a_node8"><a xlink:title=" ">
<polygon fill="white" stroke="#bfbfbf" points="499.46,-0.5 499.46,-19.5 541.46,-19.5 541.46,-0.5 499.46,-0.5"/>
<text text-anchor="middle" x="520.46" y="-7.5" font-family="Helvetica,sans-Serif" font-size="10.00">array</text>
</a>
</g>
</g>
<!-- Node3&#45;&gt;Node8 -->
<g id="edge7" class="edge">
<title>Node3&#45;&gt;Node8</title>
<path fill="none" stroke="midnightblue" d="M675.71,-123.36C661.11,-114.64 638.28,-100.57 619.46,-87 601.78,-74.25 598.68,-69.36 581.46,-56 568.21,-45.71 553.02,-34.51 541.12,-25.86"/>
<polygon fill="midnightblue" stroke="midnightblue" points="542.9,-22.82 532.74,-19.79 538.79,-28.49 542.9,-22.82"/>
</g>
<!-- Node9 -->
<g id="node9" class="node">
<title>Node9</title>
<g id="a_node9"><a xlink:title=" ">
<polygon fill="white" stroke="#bfbfbf" points="762.96,-62 762.96,-81 911.96,-81 911.96,-62 762.96,-62"/>
<text text-anchor="middle" x="837.46" y="-69" font-family="Helvetica,sans-Serif" font-size="10.00">small_vector/SmallVector.h</text>
</a>
</g>
</g>
<!-- Node3&#45;&gt;Node9 -->
<g id="edge9" class="edge">
<title>Node3&#45;&gt;Node9</title>
<path fill="none" stroke="midnightblue" d="M711.52,-123.48C736.52,-113.36 778.4,-96.4 806.95,-84.85"/>
<polygon fill="midnightblue" stroke="midnightblue" points="808.48,-88.01 816.44,-81.01 805.86,-81.52 808.48,-88.01"/>
</g>
<!-- Node10 -->
<g id="node10" class="node">
<title>Node10</title>
<g id="a_node10"><a xlink:title=" ">
<polygon fill="white" stroke="#bfbfbf" points="407.96,-0.5 407.96,-19.5 480.96,-19.5 480.96,-0.5 407.96,-0.5"/>
<text text-anchor="middle" x="444.46" y="-7.5" font-family="Helvetica,sans-Serif" font-size="10.00">string_view</text>
</a>
</g>
</g>
<!-- Node3&#45;&gt;Node10 -->
<g id="edge10" class="edge">
<title>Node3&#45;&gt;Node10</title>
<path fill="none" stroke="midnightblue" d="M667.58,-123.44C645.29,-114.89 610.6,-101.04 581.46,-87 540.25,-67.14 494.06,-40.58 467.22,-24.69"/>
<polygon fill="midnightblue" stroke="midnightblue" points="468.96,-21.65 458.57,-19.54 465.38,-27.66 468.96,-21.65"/>
</g>
<!-- Node5 -->
<g id="node5" class="node">
<title>Node5</title>
<g id="a_node5"><a xlink:title=" ">
<polygon fill="white" stroke="#bfbfbf" points="985.96,-0.5 985.96,-19.5 1038.96,-19.5 1038.96,-0.5 985.96,-0.5"/>
<text text-anchor="middle" x="1012.46" y="-7.5" font-family="Helvetica,sans-Serif" font-size="10.00">cstddef</text>
</a>
</g>
</g>
<!-- Node4&#45;&gt;Node5 -->
<g id="edge4" class="edge">
<title>Node4&#45;&gt;Node5</title>
<path fill="none" stroke="midnightblue" d="M982.48,-61.98C987.62,-53.23 995.77,-39.37 1002.28,-28.31"/>
<polygon fill="midnightblue" stroke="midnightblue" points="1005.4,-29.9 1007.46,-19.51 999.37,-26.35 1005.4,-29.9"/>
</g>
<!-- Node4&#45;&gt;Node6 -->
<g id="edge5" class="edge">
<title>Node4&#45;&gt;Node6</title>
<path fill="none" stroke="midnightblue" d="M972.45,-61.98C967.3,-53.23 959.15,-39.37 952.64,-28.31"/>
<polygon fill="midnightblue" stroke="midnightblue" points="955.55,-26.35 947.47,-19.51 949.52,-29.9 955.55,-26.35"/>
</g>
<!-- Node4&#45;&gt;Node7 -->
<g id="edge6" class="edge">
<title>Node4&#45;&gt;Node7</title>
<path fill="none" stroke="midnightblue" d="M947.39,-61.98C939.04,-59.81 929.94,-57.64 921.46,-56 798.7,-32.28 766.27,-37.43 642.46,-20 634.24,-18.84 625.38,-17.53 617.09,-16.27"/>
<polygon fill="midnightblue" stroke="midnightblue" points="617.4,-12.77 606.99,-14.72 616.34,-19.69 617.4,-12.77"/>
</g>
<!-- Node11&#45;&gt;Node7 -->
<g id="edge19" class="edge">
<title>Node11&#45;&gt;Node7</title>
<path fill="none" stroke="midnightblue" d="M327.74,-63.11C379.17,-54.45 465.8,-39.12 549.77,-20.01"/>
<polygon fill="midnightblue" stroke="midnightblue" points="550.76,-23.37 559.73,-17.72 549.2,-16.55 550.76,-23.37"/>
</g>
<!-- Node11&#45;&gt;Node8 -->
<g id="edge14" class="edge">
<title>Node11&#45;&gt;Node8</title>
<path fill="none" stroke="midnightblue" d="M320.19,-61.98C359.94,-52.86 424.58,-37.63 489.24,-20.23"/>
<polygon fill="midnightblue" stroke="midnightblue" points="490.46,-23.52 499.2,-17.53 488.63,-16.77 490.46,-23.52"/>
</g>
<!-- Node11&#45;&gt;Node10 -->
<g id="edge17" class="edge">
<title>Node11&#45;&gt;Node10</title>
<path fill="none" stroke="midnightblue" d="M305.67,-61.98C333.46,-51.77 380.18,-34.61 411.65,-23.05"/>
<polygon fill="midnightblue" stroke="midnightblue" points="413.11,-26.24 421.29,-19.51 410.7,-19.67 413.11,-26.24"/>
</g>
<!-- Node12 -->
<g id="node12" class="node">
<title>Node12</title>
<g id="a_node12"><a xlink:title=" ">
<polygon fill="white" stroke="#bfbfbf" points="171.46,-0.5 171.46,-19.5 235.46,-19.5 235.46,-0.5 171.46,-0.5"/>
<text text-anchor="middle" x="203.46" y="-7.5" font-family="Helvetica,sans-Serif" font-size="10.00">algorithm</text>
</a>
</g>
</g>
<!-- Node11&#45;&gt;Node12 -->
<g id="edge13" class="edge">
<title>Node11&#45;&gt;Node12</title>
<path fill="none" stroke="midnightblue" d="M271.14,-61.98C258.59,-52.52 238.11,-37.1 222.96,-25.69"/>
<polygon fill="midnightblue" stroke="midnightblue" points="224.85,-22.73 214.76,-19.51 220.64,-28.32 224.85,-22.73"/>
</g>
<!-- Node13 -->
<g id="node13" class="node">
<title>Node13</title>
<g id="a_node13"><a xlink:title=" ">
<polygon fill="white" stroke="#bfbfbf" points="253.96,-0.5 253.96,-19.5 302.96,-19.5 302.96,-0.5 253.96,-0.5"/>
<text text-anchor="middle" x="278.46" y="-7.5" font-family="Helvetica,sans-Serif" font-size="10.00">cctype</text>
</a>
</g>
</g>
<!-- Node11&#45;&gt;Node13 -->
<g id="edge15" class="edge">
<title>Node11&#45;&gt;Node13</title>
<path fill="none" stroke="midnightblue" d="M281.89,-61.98C281.32,-53.58 280.44,-40.48 279.72,-29.66"/>
<polygon fill="midnightblue" stroke="midnightblue" points="283.2,-29.25 279.03,-19.51 276.21,-29.72 283.2,-29.25"/>
</g>
<!-- Node11&#45;&gt;Node14 -->
<g id="edge16" class="edge">
<title>Node11&#45;&gt;Node14</title>
<path fill="none" stroke="midnightblue" d="M251.37,-61.98C210.42,-50.75 138.79,-31.11 97.42,-19.76"/>
<polygon fill="midnightblue" stroke="midnightblue" points="98.16,-16.34 87.59,-17.07 96.31,-23.09 98.16,-16.34"/>
</g>
<!-- Node15 -->
<g id="node15" class="node">
<title>Node15</title>
<g id="a_node15"><a xlink:title=" ">
<polygon fill="white" stroke="#bfbfbf" points="320.96,-0.5 320.96,-19.5 389.96,-19.5 389.96,-0.5 320.96,-0.5"/>
<text text-anchor="middle" x="355.46" y="-7.5" font-family="Helvetica,sans-Serif" font-size="10.00">type_traits</text>
</a>
</g>
</g>
<!-- Node11&#45;&gt;Node15 -->
<g id="edge18" class="edge">
<title>Node11&#45;&gt;Node15</title>
<path fill="none" stroke="midnightblue" d="M292.92,-61.98C304.41,-52.61 323.09,-37.38 337.05,-26.01"/>
<polygon fill="midnightblue" stroke="midnightblue" points="339.48,-28.54 345.02,-19.51 335.06,-23.11 339.48,-28.54"/>
</g>
<!-- Node16&#45;&gt;Node7 -->
<g id="edge31" class="edge">
<title>Node16&#45;&gt;Node7</title>
<path fill="none" stroke="midnightblue" d="M297.72,-124.64C356.49,-112.34 468.45,-88.78 472.46,-87 493.99,-77.44 496.08,-69.39 515.46,-56 530.7,-45.47 548.12,-33.95 561.51,-25.21"/>
<polygon fill="midnightblue" stroke="midnightblue" points="563.59,-28.03 570.07,-19.64 559.77,-22.16 563.59,-28.03"/>
</g>
<!-- Node16&#45;&gt;Node11 -->
<g id="edge21" class="edge">
<title>Node16&#45;&gt;Node11</title>
<path fill="none" stroke="midnightblue" d="M265.33,-123.48C268.18,-114.99 272.64,-101.7 276.3,-90.82"/>
<polygon fill="midnightblue" stroke="midnightblue" points="279.73,-91.6 279.6,-81.01 273.1,-89.37 279.73,-91.6"/>
</g>
<!-- Node16&#45;&gt;Node15 -->
<g id="edge30" class="edge">
<title>Node16&#45;&gt;Node15</title>
<path fill="none" stroke="midnightblue" d="M285.88,-123.41C302.42,-116.16 323.8,-104.19 336.46,-87 348.78,-70.27 353.16,-46.45 354.69,-29.95"/>
<polygon fill="midnightblue" stroke="midnightblue" points="358.19,-30.09 355.36,-19.88 351.21,-29.63 358.19,-30.09"/>
</g>
<!-- Node17 -->
<g id="node17" class="node">
<title>Node17</title>
<g id="a_node17"><a xlink:href="serialized_8h.html" target="_top" xlink:title=" ">
<polygon fill="white" stroke="black" points="671.96,-62 671.96,-81 744.96,-81 744.96,-62 671.96,-62"/>
<text text-anchor="middle" x="708.46" y="-69" font-family="Helvetica,sans-Serif" font-size="10.00">serialized.h</text>
</a>
</g>
</g>
<!-- Node16&#45;&gt;Node17 -->
<g id="edge22" class="edge">
<title>Node16&#45;&gt;Node17</title>
<path fill="none" stroke="midnightblue" d="M297.48,-124.58C300.51,-124.02 303.54,-123.48 306.46,-123 434.39,-101.91 586.51,-85.01 661.66,-77.2"/>
<polygon fill="midnightblue" stroke="midnightblue" points="662.16,-80.67 671.74,-76.16 661.44,-73.7 662.16,-80.67"/>
</g>
<!-- Node20 -->
<g id="node20" class="node">
<title>Node20</title>
<g id="a_node20"><a xlink:title=" ">
<polygon fill="white" stroke="#bfbfbf" points="161.46,-62 161.46,-81 219.46,-81 219.46,-62 161.46,-62"/>
<text text-anchor="middle" x="190.46" y="-69" font-family="Helvetica,sans-Serif" font-size="10.00">memory</text>
</a>
</g>
</g>
<!-- Node16&#45;&gt;Node20 -->
<g id="edge28" class="edge">
<title>Node16&#45;&gt;Node20</title>
<path fill="none" stroke="midnightblue" d="M252.15,-123.48C240.81,-114.11 222.39,-98.88 208.62,-87.51"/>
<polygon fill="midnightblue" stroke="midnightblue" points="210.7,-84.68 200.76,-81.01 206.24,-90.08 210.7,-84.68"/>
</g>
<!-- Node21 -->
<g id="node21" class="node">
<title>Node21</title>
<g id="a_node21"><a xlink:title=" ">
<polygon fill="white" stroke="#bfbfbf" points="421.96,-62 421.96,-81 462.96,-81 462.96,-62 421.96,-62"/>
<text text-anchor="middle" x="442.46" y="-69" font-family="Helvetica,sans-Serif" font-size="10.00">tuple</text>
</a>
</g>
</g>
<!-- Node16&#45;&gt;Node21 -->
<g id="edge29" class="edge">
<title>Node16&#45;&gt;Node21</title>
<path fill="none" stroke="midnightblue" d="M292.72,-123.49C322.24,-114.98 368.3,-101.16 407.46,-87 409.32,-86.33 411.22,-85.62 413.13,-84.88"/>
<polygon fill="midnightblue" stroke="midnightblue" points="414.61,-88.06 422.6,-81.1 412.01,-81.56 414.61,-88.06"/>
</g>
<!-- Node17&#45;&gt;Node6 -->
<g id="edge23" class="edge">
<title>Node17&#45;&gt;Node6</title>
<path fill="none" stroke="midnightblue" d="M734.64,-61.9C741.09,-59.87 748.01,-57.79 754.46,-56 807.38,-41.35 869.45,-27.04 907.36,-18.63"/>
<polygon fill="midnightblue" stroke="midnightblue" points="908.37,-21.99 917.38,-16.41 906.86,-15.15 908.37,-21.99"/>
</g>
<!-- Node17&#45;&gt;Node7 -->
<g id="edge27" class="edge">
<title>Node17&#45;&gt;Node7</title>
<path fill="none" stroke="midnightblue" d="M690.55,-61.98C669.57,-51.99 634.61,-35.35 610.37,-23.81"/>
<polygon fill="midnightblue" stroke="midnightblue" points="611.87,-20.65 601.34,-19.51 608.86,-26.97 611.87,-20.65"/>
</g>
<!-- Node17&#45;&gt;Node14 -->
<g id="edge26" class="edge">
<title>Node17&#45;&gt;Node14</title>
<path fill="none" stroke="midnightblue" d="M671.71,-67.1C583.76,-58.98 354.17,-37.76 162.46,-20 140.96,-18.01 116.79,-15.77 97.95,-14.02"/>
<polygon fill="midnightblue" stroke="midnightblue" points="98.09,-10.51 87.81,-13.08 97.44,-17.48 98.09,-10.51"/>
</g>
<!-- Node18 -->
<g id="node18" class="node">
<title>Node18</title>
<g id="a_node18"><a xlink:title=" ">
<polygon fill="white" stroke="#bfbfbf" points="734.46,-0.5 734.46,-19.5 784.46,-19.5 784.46,-0.5 734.46,-0.5"/>
<text text-anchor="middle" x="759.46" y="-7.5" font-family="Helvetica,sans-Serif" font-size="10.00">cstring</text>
</a>
</g>
</g>
<!-- Node17&#45;&gt;Node18 -->
<g id="edge24" class="edge">
<title>Node17&#45;&gt;Node18</title>
<path fill="none" stroke="midnightblue" d="M715.77,-61.98C723.49,-52.96 735.87,-38.52 745.48,-27.31"/>
<polygon fill="midnightblue" stroke="midnightblue" points="748.32,-29.38 752.17,-19.51 743,-24.82 748.32,-29.38"/>
</g>
<!-- Node19 -->
<g id="node19" class="node">
<title>Node19</title>
<g id="a_node19"><a xlink:title=" ">
<polygon fill="white" stroke="#bfbfbf" points="650.96,-0.5 650.96,-19.5 715.96,-19.5 715.96,-0.5 650.96,-0.5"/>
<text text-anchor="middle" x="683.46" y="-7.5" font-family="Helvetica,sans-Serif" font-size="10.00">stdexcept</text>
</a>
</g>
</g>
<!-- Node17&#45;&gt;Node19 -->
<g id="edge25" class="edge">
<title>Node17&#45;&gt;Node19</title>
<path fill="none" stroke="midnightblue" d="M704.88,-61.98C701.28,-53.4 695.62,-39.93 691.02,-28.98"/>
<polygon fill="midnightblue" stroke="midnightblue" points="694.14,-27.37 687.04,-19.51 687.68,-30.08 694.14,-27.37"/>
</g>
<!-- Node26&#45;&gt;Node7 -->
<g id="edge42" class="edge">
<title>Node26&#45;&gt;Node7</title>
<path fill="none" stroke="midnightblue" d="M166.04,-123.43C213.09,-116.01 279.65,-103.8 336.46,-87 371.84,-76.54 378.44,-67.6 413.46,-56 470.31,-37.17 487.94,-36.32 549.79,-20.13"/>
<polygon fill="midnightblue" stroke="midnightblue" points="550.9,-23.46 559.68,-17.52 549.11,-16.69 550.9,-23.46"/>
</g>
<!-- Node26&#45;&gt;Node14 -->
<g id="edge41" class="edge">
<title>Node26&#45;&gt;Node14</title>
<path fill="none" stroke="midnightblue" d="M70.45,-123.45C51.53,-116.84 29.78,-105.59 18.46,-87 11.3,-75.23 13.05,-68.67 18.46,-56 23.61,-43.95 33.74,-33.58 43.29,-25.84"/>
<polygon fill="midnightblue" stroke="midnightblue" points="45.5,-28.55 51.38,-19.74 41.29,-22.96 45.5,-28.55"/>
</g>
<!-- Node26&#45;&gt;Node20 -->
<g id="edge40" class="edge">
<title>Node26&#45;&gt;Node20</title>
<path fill="none" stroke="midnightblue" d="M117.64,-123.48C131.27,-113.93 153.59,-98.31 169.93,-86.87"/>
<polygon fill="midnightblue" stroke="midnightblue" points="172.12,-89.61 178.31,-81.01 168.11,-83.88 172.12,-89.61"/>
</g>
<!-- Node27 -->
<g id="node27" class="node">
<title>Node27</title>
<g id="a_node27"><a xlink:href="node__subsystem__interface_8h.html" target="_top" xlink:title=" ">
<polygon fill="white" stroke="black" points="27.46,-56.5 27.46,-86.5 143.46,-86.5 143.46,-56.5 27.46,-56.5"/>
<text text-anchor="start" x="35.46" y="-74.5" font-family="Helvetica,sans-Serif" font-size="10.00">ccf/node_subsystem</text>
<text text-anchor="middle" x="85.46" y="-63.5" font-family="Helvetica,sans-Serif" font-size="10.00">_interface.h</text>
</a>
</g>
</g>
<!-- Node26&#45;&gt;Node27 -->
<g id="edge39" class="edge">
<title>Node26&#45;&gt;Node27</title>
<path fill="none" stroke="midnightblue" d="M102.6,-123.48C100.19,-116.32 96.64,-105.75 93.39,-96.08"/>
<polygon fill="midnightblue" stroke="midnightblue" points="96.68,-94.89 90.17,-86.52 90.04,-97.12 96.68,-94.89"/>
</g>
</g>
</svg>
