<?xml version="1.0" encoding="UTF-8" standalone="no"?>
<!DOCTYPE svg PUBLIC "-//W3C//DTD SVG 1.1//EN"
 "http://www.w3.org/Graphics/SVG/1.1/DTD/svg11.dtd">
<!-- Generated by graphviz version 2.43.0 (0)
 -->
<!-- Title: src/node/rpc/node_operation_interface.h Pages: 1 -->
<!--zoomable 609 -->
<svg id="main" version="1.1" xmlns="http://www.w3.org/2000/svg" xmlns:xlink="http://www.w3.org/1999/xlink" xml:space="preserve" onload="init(evt)">
<style type="text/css"><![CDATA[
.edge:hover path { stroke: red; }
.edge:hover polygon { stroke: red; fill: red; }
]]></style>
<script type="text/javascript"><![CDATA[
var edges = document.getElementsByTagName('g');
if (edges && edges.length) {
  for (var i=0;i<edges.length;i++) {
    if (edges[i].id.substr(0,4)=='edge') {
      edges[i].setAttribute('class','edge');
    }
  }
}
]]></script>
        <defs>
                <circle id="rim" cx="0" cy="0" r="7"/>
                <circle id="rim2" cx="0" cy="0" r="3.5"/>
                <g id="zoomPlus">
                        <use xlink:href="#rim" fill="#404040">
                                <set attributeName="fill" to="#808080" begin="zoomplus.mouseover" end="zoomplus.mouseout"/>
                        </use>
                        <path d="M-4,0h8M0,-4v8" fill="none" stroke="white" stroke-width="1.5" pointer-events="none"/>
                </g>
                <g id="zoomMin">
                        <use xlink:href="#rim" fill="#404040">
                                <set attributeName="fill" to="#808080" begin="zoomminus.mouseover" end="zoomminus.mouseout"/>
                        </use>
                        <path d="M-4,0h8" fill="none" stroke="white" stroke-width="1.5" pointer-events="none"/>
                </g>
                <g id="dirArrow">
                        <path fill="none" stroke="white" stroke-width="1.5" d="M0,-3.0v7 M-2.5,-0.5L0,-3.0L2.5,-0.5"/>
                </g>
               <g id="resetDef">
                       <use xlink:href="#rim2" fill="#404040">
                               <set attributeName="fill" to="#808080" begin="reset.mouseover" end="reset.mouseout"/>
                       </use>
               </g>
        </defs>

<script type="text/javascript">
var viewWidth = 2024;
var viewHeight = 609;
var sectionId = 'dynsection-1';
</script>
<script xlink:href="svgpan.js"/>
<svg id="graph" class="graph">
<g id="viewport">
<title>src/node/rpc/node_operation_interface.h</title>
<polygon fill="white" stroke="transparent" points="-4,4 -4,-605 2019.5,-605 2019.5,4 -4,4"/>
<!-- Node1 -->
<g id="node1" class="node">
<title>Node1</title>
<g id="a_node1"><a xlink:title=" ">
<polygon fill="#bfbfbf" stroke="black" points="1028,-570.5 1028,-600.5 1183,-600.5 1183,-570.5 1028,-570.5"/>
<text text-anchor="start" x="1036" y="-588.5" font-family="Helvetica,sans-Serif" font-size="10.00">src/node/rpc/node_operation</text>
<text text-anchor="middle" x="1105.5" y="-577.5" font-family="Helvetica,sans-Serif" font-size="10.00">_interface.h</text>
</a>
</g>
</g>
<!-- Node2 -->
<g id="node2" class="node">
<title>Node2</title>
<g id="a_node2"><a xlink:href="member__frontend_8h.html" target="_top" xlink:title=" ">
<polygon fill="white" stroke="black" points="575.5,-313.5 575.5,-343.5 695.5,-343.5 695.5,-313.5 575.5,-313.5"/>
<text text-anchor="start" x="583.5" y="-331.5" font-family="Helvetica,sans-Serif" font-size="10.00">src/node/rpc/member</text>
<text text-anchor="middle" x="635.5" y="-320.5" font-family="Helvetica,sans-Serif" font-size="10.00">_frontend.h</text>
</a>
</g>
</g>
<!-- Node1&#45;&gt;Node2 -->
<g id="edge1" class="edge">
<title>Node1&#45;&gt;Node2</title>
<path fill="none" stroke="midnightblue" d="M1017.51,-576.94C934.72,-566.16 810.51,-540.19 721.5,-478 673.14,-444.21 648.14,-373.86 639.3,-343.71"/>
<polygon fill="midnightblue" stroke="midnightblue" points="1017.29,-580.44 1027.64,-578.21 1018.16,-573.49 1017.29,-580.44"/>
</g>
<!-- Node5 -->
<g id="node5" class="node">
<title>Node5</title>
<g id="a_node5"><a xlink:href="node__interface_8h.html" target="_top" xlink:title=" ">
<polygon fill="white" stroke="black" points="1025,-514.5 1025,-533.5 1186,-533.5 1186,-514.5 1025,-514.5"/>
<text text-anchor="middle" x="1105.5" y="-521.5" font-family="Helvetica,sans-Serif" font-size="10.00">src/node/rpc/node_interface.h</text>
</a>
</g>
</g>
<!-- Node1&#45;&gt;Node5 -->
<g id="edge4" class="edge">
<title>Node1&#45;&gt;Node5</title>
<path fill="none" stroke="midnightblue" d="M1105.5,-560.29C1105.5,-550.86 1105.5,-540.65 1105.5,-533.66"/>
<polygon fill="midnightblue" stroke="midnightblue" points="1102,-560.4 1105.5,-570.4 1109,-560.4 1102,-560.4"/>
</g>
<!-- Node28 -->
<g id="node28" class="node">
<title>Node28</title>
<g id="a_node28"><a xlink:href="node__operation_8h.html" target="_top" xlink:title=" ">
<polygon fill="white" stroke="black" points="1851.5,-453 1851.5,-472 2015.5,-472 2015.5,-453 1851.5,-453"/>
<text text-anchor="middle" x="1933.5" y="-460" font-family="Helvetica,sans-Serif" font-size="10.00">src/node/rpc/node_operation.h</text>
</a>
</g>
</g>
<!-- Node1&#45;&gt;Node28 -->
<g id="edge51" class="edge">
<title>Node1&#45;&gt;Node28</title>
<path fill="none" stroke="midnightblue" d="M1193.12,-572.26C1331.26,-552.86 1608.08,-513.61 1842.5,-478 1854.84,-476.13 1868.1,-474.05 1880.59,-472.06"/>
<polygon fill="midnightblue" stroke="midnightblue" points="1192.43,-568.82 1183.01,-573.68 1193.4,-575.75 1192.43,-568.82"/>
</g>
<!-- Node3 -->
<g id="node3" class="node">
<title>Node3</title>
<g id="a_node3"><a xlink:href="src_2enclave_2enclave_8h.html" target="_top" xlink:title=" ">
<polygon fill="white" stroke="black" points="681.5,-56.5 681.5,-75.5 803.5,-75.5 803.5,-56.5 681.5,-56.5"/>
<text text-anchor="middle" x="742.5" y="-63.5" font-family="Helvetica,sans-Serif" font-size="10.00">src/enclave/enclave.h</text>
</a>
</g>
</g>
<!-- Node2&#45;&gt;Node3 -->
<g id="edge2" class="edge">
<title>Node2&#45;&gt;Node3</title>
<path fill="none" stroke="midnightblue" d="M648.17,-304.19C652.59,-295.72 657.45,-286.02 661.5,-277 695.9,-200.35 729.65,-104.33 739.58,-75.54"/>
<polygon fill="midnightblue" stroke="midnightblue" points="645.02,-302.64 643.43,-313.12 651.21,-305.92 645.02,-302.64"/>
</g>
<!-- Node4 -->
<g id="node4" class="node">
<title>Node4</title>
<g id="a_node4"><a xlink:href="enclave_2main_8cpp.html" target="_top" xlink:title=" ">
<polygon fill="white" stroke="black" points="682.5,-0.5 682.5,-19.5 802.5,-19.5 802.5,-0.5 682.5,-0.5"/>
<text text-anchor="middle" x="742.5" y="-7.5" font-family="Helvetica,sans-Serif" font-size="10.00">src/enclave/main.cpp</text>
</a>
</g>
</g>
<!-- Node3&#45;&gt;Node4 -->
<g id="edge3" class="edge">
<title>Node3&#45;&gt;Node4</title>
<path fill="none" stroke="midnightblue" d="M742.5,-45.8C742.5,-36.91 742.5,-26.78 742.5,-19.75"/>
<polygon fill="midnightblue" stroke="midnightblue" points="739,-46.08 742.5,-56.08 746,-46.08 739,-46.08"/>
</g>
<!-- Node5&#45;&gt;Node2 -->
<g id="edge44" class="edge">
<title>Node5&#45;&gt;Node2</title>
<path fill="none" stroke="midnightblue" d="M1014.6,-519.57C923.78,-514.75 791.52,-503.49 747.5,-478 747.05,-477.74 674.1,-380.81 646.19,-343.71"/>
<polygon fill="midnightblue" stroke="midnightblue" points="1014.46,-523.07 1024.63,-520.09 1014.82,-516.08 1014.46,-523.07"/>
</g>
<!-- Node6 -->
<g id="node6" class="node">
<title>Node6</title>
<g id="a_node6"><a xlink:href="wrap_8cpp.html" target="_top" xlink:title=" ">
<polygon fill="white" stroke="black" points="1061,-252 1061,-271 1150,-271 1150,-252 1061,-252"/>
<text text-anchor="middle" x="1105.5" y="-259" font-family="Helvetica,sans-Serif" font-size="10.00">src/js/wrap.cpp</text>
</a>
</g>
</g>
<!-- Node5&#45;&gt;Node6 -->
<g id="edge5" class="edge">
<title>Node5&#45;&gt;Node6</title>
<path fill="none" stroke="midnightblue" d="M1196.45,-514.99C1365.31,-496.83 1699.93,-443.52 1582.5,-313 1553.85,-281.16 1263.13,-267.88 1150.11,-263.89"/>
<polygon fill="midnightblue" stroke="midnightblue" points="1195.89,-511.53 1186.31,-516.06 1196.62,-518.49 1195.89,-511.53"/>
</g>
<!-- Node7 -->
<g id="node7" class="node">
<title>Node7</title>
<g id="a_node7"><a xlink:href="wrap_8h.html" target="_top" xlink:title=" ">
<polygon fill="white" stroke="black" points="1066.5,-386 1066.5,-405 1144.5,-405 1144.5,-386 1066.5,-386"/>
<text text-anchor="middle" x="1105.5" y="-393" font-family="Helvetica,sans-Serif" font-size="10.00">src/js/wrap.h</text>
</a>
</g>
</g>
<!-- Node5&#45;&gt;Node7 -->
<g id="edge6" class="edge">
<title>Node5&#45;&gt;Node7</title>
<path fill="none" stroke="midnightblue" d="M1105.5,-503.94C1105.5,-476.12 1105.5,-425.54 1105.5,-405.26"/>
<polygon fill="midnightblue" stroke="midnightblue" points="1102,-504.31 1105.5,-514.31 1109,-504.31 1102,-504.31"/>
</g>
<!-- Node16 -->
<g id="node16" class="node">
<title>Node16</title>
<g id="a_node16"><a xlink:href="historical__queries_8h.html" target="_top" xlink:title=" ">
<polygon fill="white" stroke="black" points="751.5,-179.5 751.5,-209.5 857.5,-209.5 857.5,-179.5 751.5,-179.5"/>
<text text-anchor="start" x="759.5" y="-197.5" font-family="Helvetica,sans-Serif" font-size="10.00">src/node/historical</text>
<text text-anchor="middle" x="804.5" y="-186.5" font-family="Helvetica,sans-Serif" font-size="10.00">_queries.h</text>
</a>
</g>
</g>
<!-- Node5&#45;&gt;Node16 -->
<g id="edge24" class="edge">
<title>Node5&#45;&gt;Node16</title>
<path fill="none" stroke="midnightblue" d="M1040.63,-512.76C940.95,-495.17 761.5,-455.33 761.5,-396.5 761.5,-396.5 761.5,-396.5 761.5,-327.5 761.5,-282.67 784.2,-233.3 796.61,-209.66"/>
<polygon fill="midnightblue" stroke="midnightblue" points="1040.16,-516.23 1050.61,-514.49 1041.36,-509.33 1040.16,-516.23"/>
</g>
<!-- Node18 -->
<g id="node18" class="node">
<title>Node18</title>
<g id="a_node18"><a xlink:href="node__configuration__subsystem_8h.html" target="_top" xlink:title=" ">
<polygon fill="white" stroke="black" points="311.5,-447.5 311.5,-477.5 465.5,-477.5 465.5,-447.5 311.5,-447.5"/>
<text text-anchor="start" x="319.5" y="-465.5" font-family="Helvetica,sans-Serif" font-size="10.00">src/node/node_configuration</text>
<text text-anchor="middle" x="388.5" y="-454.5" font-family="Helvetica,sans-Serif" font-size="10.00">_subsystem.h</text>
</a>
</g>
</g>
<!-- Node5&#45;&gt;Node18 -->
<g id="edge28" class="edge">
<title>Node5&#45;&gt;Node18</title>
<path fill="none" stroke="midnightblue" d="M1014.98,-515.49C872.67,-503.68 599.13,-480.98 465.61,-469.9"/>
<polygon fill="midnightblue" stroke="midnightblue" points="1014.74,-518.98 1024.99,-516.32 1015.32,-512 1014.74,-518.98"/>
</g>
<!-- Node22 -->
<g id="node22" class="node">
<title>Node22</title>
<g id="a_node22"><a xlink:href="node__frontend_8h.html" target="_top" xlink:title=" ">
<polygon fill="white" stroke="black" points="399.5,-319 399.5,-338 557.5,-338 557.5,-319 399.5,-319"/>
<text text-anchor="middle" x="478.5" y="-326" font-family="Helvetica,sans-Serif" font-size="10.00">src/node/rpc/node_frontend.h</text>
</a>
</g>
</g>
<!-- Node5&#45;&gt;Node22 -->
<g id="edge48" class="edge">
<title>Node5&#45;&gt;Node22</title>
<path fill="none" stroke="midnightblue" d="M1014.5,-523.24C935.12,-520.92 817.89,-511.3 721.5,-478 622.43,-443.78 520.8,-364.4 488.79,-338.12"/>
<polygon fill="midnightblue" stroke="midnightblue" points="1014.87,-526.75 1024.96,-523.51 1015.05,-519.76 1014.87,-526.75"/>
</g>
<!-- Node25 -->
<g id="node25" class="node">
<title>Node25</title>
<g id="a_node25"><a xlink:href="acme__subsystem_8h.html" target="_top" xlink:title=" ">
<polygon fill="white" stroke="black" points="1562,-185 1562,-204 1735,-204 1735,-185 1562,-185"/>
<text text-anchor="middle" x="1648.5" y="-192" font-family="Helvetica,sans-Serif" font-size="10.00">src/node/rpc/acme_subsystem.h</text>
</a>
</g>
</g>
<!-- Node5&#45;&gt;Node25 -->
<g id="edge42" class="edge">
<title>Node5&#45;&gt;Node25</title>
<path fill="none" stroke="midnightblue" d="M1196.64,-521.49C1358.09,-516.31 1677.5,-493.78 1677.5,-396.5 1677.5,-396.5 1677.5,-396.5 1677.5,-327.5 1677.5,-279.87 1659.26,-224.78 1651.71,-204.01"/>
<polygon fill="midnightblue" stroke="midnightblue" points="1196.13,-518 1186.24,-521.8 1196.34,-525 1196.13,-518"/>
</g>
<!-- Node26 -->
<g id="node26" class="node">
<title>Node26</title>
<g id="a_node26"><a xlink:href="network__identity__subsystem_8h.html" target="_top" xlink:title=" ">
<polygon fill="white" stroke="black" points="1706,-447.5 1706,-477.5 1833,-477.5 1833,-447.5 1706,-447.5"/>
<text text-anchor="start" x="1714" y="-465.5" font-family="Helvetica,sans-Serif" font-size="10.00">src/node/rpc/network</text>
<text text-anchor="middle" x="1769.5" y="-454.5" font-family="Helvetica,sans-Serif" font-size="10.00">_identity_subsystem.h</text>
</a>
</g>
</g>
<!-- Node5&#45;&gt;Node26 -->
<g id="edge45" class="edge">
<title>Node5&#45;&gt;Node26</title>
<path fill="none" stroke="midnightblue" d="M1196.56,-519.04C1312.06,-513.31 1517.18,-500.83 1691.5,-478 1696.14,-477.39 1700.93,-476.69 1705.74,-475.93"/>
<polygon fill="midnightblue" stroke="midnightblue" points="1196.17,-515.55 1186.35,-519.54 1196.51,-522.54 1196.17,-515.55"/>
</g>
<!-- Node5&#45;&gt;Node28 -->
<g id="edge49" class="edge">
<title>Node5&#45;&gt;Node28</title>
<path fill="none" stroke="midnightblue" d="M1196.35,-520.29C1335.72,-515.49 1610.5,-503.5 1842.5,-478 1856.49,-476.46 1871.62,-474.27 1885.45,-472.05"/>
<polygon fill="midnightblue" stroke="midnightblue" points="1196.02,-516.8 1186.15,-520.64 1196.26,-523.8 1196.02,-516.8"/>
</g>
<!-- Node7&#45;&gt;Node2 -->
<g id="edge23" class="edge">
<title>Node7&#45;&gt;Node2</title>
<path fill="none" stroke="midnightblue" d="M1056.21,-389.28C981.16,-381.1 833.82,-364.08 709.5,-344 704.98,-343.27 700.31,-342.47 695.62,-341.63"/>
<polygon fill="midnightblue" stroke="midnightblue" points="1055.99,-392.78 1066.31,-390.38 1056.75,-385.82 1055.99,-392.78"/>
</g>
<!-- Node7&#45;&gt;Node3 -->
<g id="edge8" class="edge">
<title>Node7&#45;&gt;Node3</title>
<path fill="none" stroke="midnightblue" d="M1154.95,-392.93C1271.2,-388.75 1554.25,-375.4 1582.5,-344 1591.72,-333.76 1590.7,-324.07 1582.5,-313 1487.32,-184.47 980.73,-100.98 803.65,-75.37"/>
<polygon fill="midnightblue" stroke="midnightblue" points="1154.76,-389.44 1144.89,-393.29 1155,-396.43 1154.76,-389.44"/>
</g>
<!-- Node7&#45;&gt;Node6 -->
<g id="edge18" class="edge">
<title>Node7&#45;&gt;Node6</title>
<path fill="none" stroke="midnightblue" d="M1115.61,-377.19C1120.56,-367.73 1125.98,-355.6 1128.5,-344 1131.42,-330.54 1131.42,-326.46 1128.5,-313 1125.11,-297.37 1116.44,-280.78 1110.77,-271.04"/>
<polygon fill="midnightblue" stroke="midnightblue" points="1112.54,-375.51 1110.77,-385.96 1118.67,-378.9 1112.54,-375.51"/>
</g>
<!-- Node8 -->
<g id="node8" class="node">
<title>Node8</title>
<g id="a_node8"><a xlink:href="js__generic__base_8cpp.html" target="_top" xlink:title=" ">
<polygon fill="white" stroke="black" points="1309.5,-313.5 1309.5,-343.5 1427.5,-343.5 1427.5,-313.5 1309.5,-313.5"/>
<text text-anchor="start" x="1317.5" y="-331.5" font-family="Helvetica,sans-Serif" font-size="10.00">src/apps/js_generic</text>
<text text-anchor="middle" x="1368.5" y="-320.5" font-family="Helvetica,sans-Serif" font-size="10.00">/js_generic_base.cpp</text>
</a>
</g>
</g>
<!-- Node7&#45;&gt;Node8 -->
<g id="edge7" class="edge">
<title>Node7&#45;&gt;Node8</title>
<path fill="none" stroke="midnightblue" d="M1150.1,-383.48C1194.62,-372.47 1263.2,-355.52 1311.61,-343.56"/>
<polygon fill="midnightblue" stroke="midnightblue" points="1149.02,-380.14 1140.15,-385.94 1150.7,-386.93 1149.02,-380.14"/>
</g>
<!-- Node9 -->
<g id="node9" class="node">
<title>Node9</title>
<g id="a_node9"><a xlink:href="consensus_8cpp.html" target="_top" xlink:title=" ">
<polygon fill="white" stroke="black" points="1175.5,-319 1175.5,-338 1291.5,-338 1291.5,-319 1175.5,-319"/>
<text text-anchor="middle" x="1233.5" y="-326" font-family="Helvetica,sans-Serif" font-size="10.00">src/js/consensus.cpp</text>
</a>
</g>
</g>
<!-- Node7&#45;&gt;Node9 -->
<g id="edge9" class="edge">
<title>Node7&#45;&gt;Node9</title>
<path fill="none" stroke="midnightblue" d="M1131.55,-381.27C1156.9,-368.4 1194.69,-349.21 1216.43,-338.17"/>
<polygon fill="midnightblue" stroke="midnightblue" points="1129.83,-378.22 1122.5,-385.87 1133,-384.46 1129.83,-378.22"/>
</g>
<!-- Node10 -->
<g id="node10" class="node">
<title>Node10</title>
<g id="a_node10"><a xlink:href="conv_8cpp.html" target="_top" xlink:title=" ">
<polygon fill="white" stroke="black" points="789.5,-319 789.5,-338 877.5,-338 877.5,-319 789.5,-319"/>
<text text-anchor="middle" x="833.5" y="-326" font-family="Helvetica,sans-Serif" font-size="10.00">src/js/conv.cpp</text>
</a>
</g>
</g>
<!-- Node7&#45;&gt;Node10 -->
<g id="edge11" class="edge">
<title>Node7&#45;&gt;Node10</title>
<path fill="none" stroke="midnightblue" d="M1056.26,-383.74C1011.78,-373.88 944.59,-358.64 886.5,-344 879.19,-342.16 871.35,-340.07 863.99,-338.07"/>
<polygon fill="midnightblue" stroke="midnightblue" points="1055.7,-387.2 1066.22,-385.94 1057.21,-380.37 1055.7,-387.2"/>
</g>
<!-- Node11 -->
<g id="node11" class="node">
<title>Node11</title>
<g id="a_node11"><a xlink:href="crypto_8cpp.html" target="_top" xlink:title=" ">
<polygon fill="white" stroke="black" points="895.5,-319 895.5,-338 991.5,-338 991.5,-319 895.5,-319"/>
<text text-anchor="middle" x="943.5" y="-326" font-family="Helvetica,sans-Serif" font-size="10.00">src/js/crypto.cpp</text>
</a>
</g>
</g>
<!-- Node7&#45;&gt;Node11 -->
<g id="edge13" class="edge">
<title>Node7&#45;&gt;Node11</title>
<path fill="none" stroke="midnightblue" d="M1074.61,-382.1C1042.44,-369.2 992.92,-349.33 964.84,-338.06"/>
<polygon fill="midnightblue" stroke="midnightblue" points="1073.4,-385.39 1083.99,-385.87 1076.01,-378.9 1073.4,-385.39"/>
</g>
<!-- Node12 -->
<g id="node12" class="node">
<title>Node12</title>
<g id="a_node12"><a xlink:href="historical_8cpp.html" target="_top" xlink:title=" ">
<polygon fill="white" stroke="black" points="1009.5,-319 1009.5,-338 1119.5,-338 1119.5,-319 1009.5,-319"/>
<text text-anchor="middle" x="1064.5" y="-326" font-family="Helvetica,sans-Serif" font-size="10.00">src/js/historical.cpp</text>
</a>
</g>
</g>
<!-- Node7&#45;&gt;Node12 -->
<g id="edge15" class="edge">
<title>Node7&#45;&gt;Node12</title>
<path fill="none" stroke="midnightblue" d="M1094.48,-377.03C1086.55,-364.45 1076.17,-348.01 1069.94,-338.13"/>
<polygon fill="midnightblue" stroke="midnightblue" points="1091.68,-379.14 1099.97,-385.73 1097.6,-375.41 1091.68,-379.14"/>
</g>
<!-- Node13 -->
<g id="node13" class="node">
<title>Node13</title>
<g id="a_node13"><a xlink:href="openenclave_8cpp.html" target="_top" xlink:title=" ">
<polygon fill="white" stroke="black" points="1445.5,-319 1445.5,-338 1573.5,-338 1573.5,-319 1445.5,-319"/>
<text text-anchor="middle" x="1509.5" y="-326" font-family="Helvetica,sans-Serif" font-size="10.00">src/js/openenclave.cpp</text>
</a>
</g>
</g>
<!-- Node7&#45;&gt;Node13 -->
<g id="edge17" class="edge">
<title>Node7&#45;&gt;Node13</title>
<path fill="none" stroke="midnightblue" d="M1154.49,-387.72C1219.2,-378.61 1336.64,-361.53 1436.5,-344 1446.81,-342.19 1457.9,-340.07 1468.25,-338.03"/>
<polygon fill="midnightblue" stroke="midnightblue" points="1153.99,-384.26 1144.57,-389.12 1154.96,-391.19 1153.99,-384.26"/>
</g>
<!-- Node14 -->
<g id="node14" class="node">
<title>Node14</title>
<g id="a_node14"><a xlink:href="node__state_8h.html" target="_top" xlink:title=" ">
<polygon fill="white" stroke="black" points="400.5,-185 400.5,-204 524.5,-204 524.5,-185 400.5,-185"/>
<text text-anchor="middle" x="462.5" y="-192" font-family="Helvetica,sans-Serif" font-size="10.00">src/node/node_state.h</text>
</a>
</g>
</g>
<!-- Node7&#45;&gt;Node14 -->
<g id="edge19" class="edge">
<title>Node7&#45;&gt;Node14</title>
<path fill="none" stroke="midnightblue" d="M1056.15,-391.19C991.61,-385.88 875.58,-372.95 780.5,-344 748.88,-334.37 542.38,-234.37 480.19,-204.12"/>
<polygon fill="midnightblue" stroke="midnightblue" points="1056.19,-394.7 1066.44,-392.01 1056.75,-387.72 1056.19,-394.7"/>
</g>
<!-- Node9&#45;&gt;Node6 -->
<g id="edge10" class="edge">
<title>Node9&#45;&gt;Node6</title>
<path fill="none" stroke="midnightblue" d="M1207.45,-314.27C1182.1,-301.4 1144.31,-282.21 1122.57,-271.17"/>
<polygon fill="midnightblue" stroke="midnightblue" points="1206,-317.46 1216.5,-318.87 1209.17,-311.22 1206,-317.46"/>
</g>
<!-- Node10&#45;&gt;Node6 -->
<g id="edge12" class="edge">
<title>Node10&#45;&gt;Node6</title>
<path fill="none" stroke="midnightblue" d="M873.84,-316.28C878.11,-315.15 882.39,-314.04 886.5,-313 949.12,-297.22 1022.3,-280.74 1066.22,-271.06"/>
<polygon fill="midnightblue" stroke="midnightblue" points="872.74,-312.95 863.99,-318.93 874.56,-319.71 872.74,-312.95"/>
</g>
<!-- Node11&#45;&gt;Node6 -->
<g id="edge14" class="edge">
<title>Node11&#45;&gt;Node6</title>
<path fill="none" stroke="midnightblue" d="M974.39,-315.1C1006.56,-302.2 1056.08,-282.33 1084.16,-271.06"/>
<polygon fill="midnightblue" stroke="midnightblue" points="972.99,-311.9 965.01,-318.87 975.6,-318.39 972.99,-311.9"/>
</g>
<!-- Node12&#45;&gt;Node6 -->
<g id="edge16" class="edge">
<title>Node12&#45;&gt;Node6</title>
<path fill="none" stroke="midnightblue" d="M1075.52,-310.03C1083.45,-297.45 1093.83,-281.01 1100.06,-271.13"/>
<polygon fill="midnightblue" stroke="midnightblue" points="1072.4,-308.41 1070.03,-318.73 1078.32,-312.14 1072.4,-308.41"/>
</g>
<!-- Node14&#45;&gt;Node3 -->
<g id="edge20" class="edge">
<title>Node14&#45;&gt;Node3</title>
<path fill="none" stroke="midnightblue" d="M457.38,-174.76C453.61,-156.43 451.42,-128.88 466.5,-112 494.23,-80.95 608.68,-71.31 681.2,-68.32"/>
<polygon fill="midnightblue" stroke="midnightblue" points="453.99,-175.66 459.73,-184.57 460.8,-174.03 453.99,-175.66"/>
</g>
<!-- Node15 -->
<g id="node15" class="node">
<title>Node15</title>
<g id="a_node15"><a xlink:href="gov__effects_8h.html" target="_top" xlink:title=" ">
<polygon fill="white" stroke="black" points="475.5,-118 475.5,-137 619.5,-137 619.5,-118 475.5,-118"/>
<text text-anchor="middle" x="547.5" y="-125" font-family="Helvetica,sans-Serif" font-size="10.00">src/node/rpc/gov_effects.h</text>
</a>
</g>
</g>
<!-- Node14&#45;&gt;Node15 -->
<g id="edge21" class="edge">
<title>Node14&#45;&gt;Node15</title>
<path fill="none" stroke="midnightblue" d="M482.03,-178.57C498.8,-165.74 522.41,-147.69 536.22,-137.13"/>
<polygon fill="midnightblue" stroke="midnightblue" points="479.78,-175.88 473.96,-184.73 484.03,-181.44 479.78,-175.88"/>
</g>
<!-- Node15&#45;&gt;Node3 -->
<g id="edge22" class="edge">
<title>Node15&#45;&gt;Node3</title>
<path fill="none" stroke="midnightblue" d="M585.1,-115.03C622.99,-103.46 680.61,-85.88 714.61,-75.51"/>
<polygon fill="midnightblue" stroke="midnightblue" points="583.98,-111.71 575.44,-117.98 586.02,-118.4 583.98,-111.71"/>
</g>
<!-- Node16&#45;&gt;Node3 -->
<g id="edge25" class="edge">
<title>Node16&#45;&gt;Node3</title>
<path fill="none" stroke="midnightblue" d="M793.11,-170.26C779.18,-141.83 756.28,-95.11 746.81,-75.79"/>
<polygon fill="midnightblue" stroke="midnightblue" points="790.08,-172.04 797.63,-179.48 796.37,-168.96 790.08,-172.04"/>
</g>
<!-- Node17 -->
<g id="node17" class="node">
<title>Node17</title>
<g id="a_node17"><a xlink:href="historical__transaction__fetcher_8h.html" target="_top" xlink:title=" ">
<polygon fill="white" stroke="black" points="790,-112.5 790,-142.5 915,-142.5 915,-112.5 790,-112.5"/>
<text text-anchor="start" x="798" y="-130.5" font-family="Helvetica,sans-Serif" font-size="10.00">src/indexing/historical</text>
<text text-anchor="middle" x="852.5" y="-119.5" font-family="Helvetica,sans-Serif" font-size="10.00">_transaction_fetcher.h</text>
</a>
</g>
</g>
<!-- Node16&#45;&gt;Node17 -->
<g id="edge26" class="edge">
<title>Node16&#45;&gt;Node17</title>
<path fill="none" stroke="midnightblue" d="M821,-171.16C828,-161.68 835.94,-150.92 842.11,-142.58"/>
<polygon fill="midnightblue" stroke="midnightblue" points="818.04,-169.27 814.92,-179.4 823.67,-173.43 818.04,-169.27"/>
</g>
<!-- Node17&#45;&gt;Node3 -->
<g id="edge27" class="edge">
<title>Node17&#45;&gt;Node3</title>
<path fill="none" stroke="midnightblue" d="M817.38,-107.51C797.61,-96.81 773.88,-83.97 758.51,-75.66"/>
<polygon fill="midnightblue" stroke="midnightblue" points="815.97,-110.72 826.43,-112.4 819.3,-104.56 815.97,-110.72"/>
</g>
<!-- Node19 -->
<g id="node19" class="node">
<title>Node19</title>
<g id="a_node19"><a xlink:href="frontend_8h.html" target="_top" xlink:title=" ">
<polygon fill="white" stroke="black" points="318,-386 318,-405 447,-405 447,-386 318,-386"/>
<text text-anchor="middle" x="382.5" y="-393" font-family="Helvetica,sans-Serif" font-size="10.00">src/node/rpc/frontend.h</text>
</a>
</g>
</g>
<!-- Node18&#45;&gt;Node19 -->
<g id="edge29" class="edge">
<title>Node18&#45;&gt;Node19</title>
<path fill="none" stroke="midnightblue" d="M386.26,-437.25C385.22,-426.02 384.06,-413.38 383.3,-405.19"/>
<polygon fill="midnightblue" stroke="midnightblue" points="382.79,-437.76 387.2,-447.4 389.76,-437.12 382.79,-437.76"/>
</g>
<!-- Node19&#45;&gt;Node2 -->
<g id="edge35" class="edge">
<title>Node19&#45;&gt;Node2</title>
<path fill="none" stroke="midnightblue" d="M425.67,-383.41C468.51,-372.4 534.3,-355.5 580.78,-343.56"/>
<polygon fill="midnightblue" stroke="midnightblue" points="424.65,-380.06 415.84,-385.94 426.39,-386.84 424.65,-380.06"/>
</g>
<!-- Node19&#45;&gt;Node14 -->
<g id="edge34" class="edge">
<title>Node19&#45;&gt;Node14</title>
<path fill="none" stroke="midnightblue" d="M381.3,-375.49C380.31,-345.72 382.02,-287.24 406.5,-246 417.06,-228.21 435.92,-213.15 448.81,-204.22"/>
<polygon fill="midnightblue" stroke="midnightblue" points="377.82,-375.9 381.79,-385.72 384.81,-375.57 377.82,-375.9"/>
</g>
<!-- Node20 -->
<g id="node20" class="node">
<title>Node20</title>
<g id="a_node20"><a xlink:href="acme__challenge__frontend_8h.html" target="_top" xlink:title=" ">
<polygon fill="white" stroke="black" points="203.5,-313.5 203.5,-343.5 343.5,-343.5 343.5,-313.5 203.5,-313.5"/>
<text text-anchor="start" x="211.5" y="-331.5" font-family="Helvetica,sans-Serif" font-size="10.00">src/node/acme_challenge</text>
<text text-anchor="middle" x="273.5" y="-320.5" font-family="Helvetica,sans-Serif" font-size="10.00">_frontend.h</text>
</a>
</g>
</g>
<!-- Node19&#45;&gt;Node20 -->
<g id="edge30" class="edge">
<title>Node19&#45;&gt;Node20</title>
<path fill="none" stroke="midnightblue" d="M359.2,-380.6C340.89,-369.69 315.51,-354.55 297.13,-343.59"/>
<polygon fill="midnightblue" stroke="midnightblue" points="357.42,-383.62 367.8,-385.73 361,-377.61 357.42,-383.62"/>
</g>
<!-- Node19&#45;&gt;Node22 -->
<g id="edge36" class="edge">
<title>Node19&#45;&gt;Node22</title>
<path fill="none" stroke="midnightblue" d="M403.78,-380.09C422.77,-367.24 449.95,-348.83 465.76,-338.13"/>
<polygon fill="midnightblue" stroke="midnightblue" points="401.77,-377.23 395.45,-385.73 405.69,-383.03 401.77,-377.23"/>
</g>
<!-- Node24 -->
<g id="node24" class="node">
<title>Node24</title>
<g id="a_node24"><a xlink:href="user__frontend_8h.html" target="_top" xlink:title=" ">
<polygon fill="white" stroke="black" points="0,-118 0,-137 155,-137 155,-118 0,-118"/>
<text text-anchor="middle" x="77.5" y="-125" font-family="Helvetica,sans-Serif" font-size="10.00">src/node/rpc/user_frontend.h</text>
</a>
</g>
</g>
<!-- Node19&#45;&gt;Node24 -->
<g id="edge40" class="edge">
<title>Node19&#45;&gt;Node24</title>
<path fill="none" stroke="midnightblue" d="M307.26,-388.26C270.11,-381.92 226.51,-369.26 194.5,-344 121.3,-286.26 87.72,-169.6 79.54,-137.09"/>
<polygon fill="midnightblue" stroke="midnightblue" points="307.13,-391.78 317.56,-389.88 308.22,-384.86 307.13,-391.78"/>
</g>
<!-- Node20&#45;&gt;Node3 -->
<g id="edge31" class="edge">
<title>Node20&#45;&gt;Node3</title>
<path fill="none" stroke="midnightblue" d="M232.11,-308.16C220.02,-300.3 208.25,-289.97 201.5,-277 195.14,-264.78 194.42,-257.82 201.5,-246 266.25,-137.83 331.94,-151.98 451.5,-112 528.34,-86.3 621.58,-75.18 681.46,-70.43"/>
<polygon fill="midnightblue" stroke="midnightblue" points="230.54,-311.29 240.91,-313.44 234.14,-305.29 230.54,-311.29"/>
</g>
<!-- Node21 -->
<g id="node21" class="node">
<title>Node21</title>
<g id="a_node21"><a xlink:href="ccf__acme__client_8h.html" target="_top" xlink:title=" ">
<polygon fill="white" stroke="black" points="211,-252 211,-271 360,-271 360,-252 211,-252"/>
<text text-anchor="middle" x="285.5" y="-259" font-family="Helvetica,sans-Serif" font-size="10.00">src/node/ccf_acme_client.h</text>
</a>
</g>
</g>
<!-- Node20&#45;&gt;Node21 -->
<g id="edge32" class="edge">
<title>Node20&#45;&gt;Node21</title>
<path fill="none" stroke="midnightblue" d="M277.98,-303.25C280.05,-292.02 282.38,-279.38 283.89,-271.19"/>
<polygon fill="midnightblue" stroke="midnightblue" points="274.48,-302.93 276.1,-313.4 281.36,-304.2 274.48,-302.93"/>
</g>
<!-- Node21&#45;&gt;Node14 -->
<g id="edge33" class="edge">
<title>Node21&#45;&gt;Node14</title>
<path fill="none" stroke="midnightblue" d="M318.8,-248.27C353.93,-235.37 408.38,-215.38 439.18,-204.06"/>
<polygon fill="midnightblue" stroke="midnightblue" points="317.18,-245.14 309,-251.87 319.6,-251.71 317.18,-245.14"/>
</g>
<!-- Node22&#45;&gt;Node3 -->
<g id="edge37" class="edge">
<title>Node22&#45;&gt;Node3</title>
<path fill="none" stroke="midnightblue" d="M500.98,-313.27C515.41,-303.72 534.24,-290.46 549.5,-277 629.71,-206.24 711.96,-105.39 735.71,-75.6"/>
<polygon fill="midnightblue" stroke="midnightblue" points="498.68,-310.59 492.21,-318.98 502.5,-316.46 498.68,-310.59"/>
</g>
<!-- Node23 -->
<g id="node23" class="node">
<title>Node23</title>
<g id="a_node23"><a xlink:href="jwt__key__auto__refresh_8h.html" target="_top" xlink:title=" ">
<polygon fill="white" stroke="black" points="416,-246.5 416,-276.5 541,-276.5 541,-246.5 416,-246.5"/>
<text text-anchor="start" x="424" y="-264.5" font-family="Helvetica,sans-Serif" font-size="10.00">src/node/jwt_key_auto</text>
<text text-anchor="middle" x="478.5" y="-253.5" font-family="Helvetica,sans-Serif" font-size="10.00">_refresh.h</text>
</a>
</g>
</g>
<!-- Node22&#45;&gt;Node23 -->
<g id="edge38" class="edge">
<title>Node22&#45;&gt;Node23</title>
<path fill="none" stroke="midnightblue" d="M478.5,-308.41C478.5,-298.22 478.5,-285.9 478.5,-276.59"/>
<polygon fill="midnightblue" stroke="midnightblue" points="475,-308.73 478.5,-318.73 482,-308.73 475,-308.73"/>
</g>
<!-- Node23&#45;&gt;Node14 -->
<g id="edge39" class="edge">
<title>Node23&#45;&gt;Node14</title>
<path fill="none" stroke="midnightblue" d="M472.62,-236.6C469.83,-225.28 466.68,-212.46 464.64,-204.19"/>
<polygon fill="midnightblue" stroke="midnightblue" points="469.24,-237.52 475.03,-246.4 476.04,-235.85 469.24,-237.52"/>
</g>
<!-- Node24&#45;&gt;Node3 -->
<g id="edge41" class="edge">
<title>Node24&#45;&gt;Node3</title>
<path fill="none" stroke="midnightblue" d="M137.2,-116.4C147.94,-114.78 159.03,-113.23 169.5,-112 355.31,-90.09 576.32,-76.14 681.29,-70.24"/>
<polygon fill="midnightblue" stroke="midnightblue" points="136.41,-112.98 127.06,-117.96 137.48,-119.9 136.41,-112.98"/>
</g>
<!-- Node25&#45;&gt;Node3 -->
<g id="edge43" class="edge">
<title>Node25&#45;&gt;Node3</title>
<path fill="none" stroke="midnightblue" d="M1634.54,-177.26C1616.64,-157.74 1583.56,-125.88 1547.5,-112 1478.79,-85.56 979.38,-72.19 803.55,-68.26"/>
<polygon fill="midnightblue" stroke="midnightblue" points="1631.98,-179.65 1641.25,-184.78 1637.2,-174.99 1631.98,-179.65"/>
</g>
<!-- Node26&#45;&gt;Node3 -->
<g id="edge46" class="edge">
<title>Node26&#45;&gt;Node3</title>
<path fill="none" stroke="midnightblue" d="M1767.72,-437C1765.95,-410.51 1763.5,-367.04 1763.5,-329.5 1763.5,-329.5 1763.5,-329.5 1763.5,-193.5 1763.5,-153.37 1986.66,-204.27 1585.5,-112 1436.69,-77.77 971.61,-69.45 803.72,-67.54"/>
<polygon fill="midnightblue" stroke="midnightblue" points="1764.25,-437.52 1768.43,-447.25 1771.23,-437.03 1764.25,-437.52"/>
</g>
<!-- Node27 -->
<g id="node27" class="node">
<title>Node27</title>
<g id="a_node27"><a xlink:href="historical__queries__adapter_8cpp.html" target="_top" xlink:title=" ">
<polygon fill="white" stroke="black" points="1791.5,-380.5 1791.5,-410.5 1911.5,-410.5 1911.5,-380.5 1791.5,-380.5"/>
<text text-anchor="start" x="1799.5" y="-398.5" font-family="Helvetica,sans-Serif" font-size="10.00">src/node/historical</text>
<text text-anchor="middle" x="1851.5" y="-387.5" font-family="Helvetica,sans-Serif" font-size="10.00">_queries_adapter.cpp</text>
</a>
</g>
</g>
<!-- Node26&#45;&gt;Node27 -->
<g id="edge47" class="edge">
<title>Node26&#45;&gt;Node27</title>
<path fill="none" stroke="midnightblue" d="M1795.15,-441.17C1807.69,-431.23 1822.47,-419.51 1833.74,-410.58"/>
<polygon fill="midnightblue" stroke="midnightblue" points="1792.96,-438.44 1787.29,-447.4 1797.3,-443.93 1792.96,-438.44"/>
</g>
<!-- Node28&#45;&gt;Node3 -->
<g id="edge50" class="edge">
<title>Node28&#45;&gt;Node3</title>
<path fill="none" stroke="midnightblue" d="M1934.89,-442.73C1936.66,-417.15 1939.5,-369.88 1939.5,-329.5 1939.5,-329.5 1939.5,-329.5 1939.5,-193.5 1939.5,-78.04 1047.43,-67.66 803.51,-66.97"/>
<polygon fill="midnightblue" stroke="midnightblue" points="1931.39,-442.63 1934.17,-452.86 1938.37,-443.13 1931.39,-442.63"/>
</g>
</g>
</svg>
        <g id="navigator" transform="translate(0 0)" fill="#404254">
                <rect fill="#f2f5e9" fill-opacity="0.5" stroke="#606060" stroke-width=".5" x="0" y="0" width="60" height="60"/>
                <use id="zoomplus" xlink:href="#zoomPlus" x="17" y="9" onmousedown="handleZoom(evt,'in')"/>
                <use id="zoomminus" xlink:href="#zoomMin" x="42" y="9" onmousedown="handleZoom(evt,'out')"/>
                <use id="reset" xlink:href="#resetDef" x="30" y="36" onmousedown="handleReset()"/>
                <g id="arrowUp" xlink:href="#dirArrow" transform="translate(30 24)" onmousedown="handlePan(0,-1)">
                  <use xlink:href="#rim" fill="#404040">
                        <set attributeName="fill" to="#808080" begin="arrowUp.mouseover" end="arrowUp.mouseout"/>
                  </use>
                  <path fill="none" stroke="white" stroke-width="1.5" d="M0,-3.0v7 M-2.5,-0.5L0,-3.0L2.5,-0.5"/>
                </g>
                <g id="arrowRight" xlink:href="#dirArrow" transform="rotate(90) translate(36 -43)" onmousedown="handlePan(1,0)">
                  <use xlink:href="#rim" fill="#404040">
                        <set attributeName="fill" to="#808080" begin="arrowRight.mouseover" end="arrowRight.mouseout"/>
                  </use>
                  <path fill="none" stroke="white" stroke-width="1.5" d="M0,-3.0v7 M-2.5,-0.5L0,-3.0L2.5,-0.5"/>
                </g>
                <g id="arrowDown" xlink:href="#dirArrow" transform="rotate(180) translate(-30 -48)" onmousedown="handlePan(0,1)">
                  <use xlink:href="#rim" fill="#404040">
                        <set attributeName="fill" to="#808080" begin="arrowDown.mouseover" end="arrowDown.mouseout"/>
                  </use>
                  <path fill="none" stroke="white" stroke-width="1.5" d="M0,-3.0v7 M-2.5,-0.5L0,-3.0L2.5,-0.5"/>
                </g>
                <g id="arrowLeft" xlink:href="#dirArrow" transform="rotate(270) translate(-36 17)" onmousedown="handlePan(-1,0)">
                  <use xlink:href="#rim" fill="#404040">
                        <set attributeName="fill" to="#808080" begin="arrowLeft.mouseover" end="arrowLeft.mouseout"/>
                  </use>
                  <path fill="none" stroke="white" stroke-width="1.5" d="M0,-3.0v7 M-2.5,-0.5L0,-3.0L2.5,-0.5"/>
                </g>
        </g>
        <svg viewBox="0 0 15 15" width="100%" height="30px" preserveAspectRatio="xMaxYMin meet">
         <g id="arrow_out" transform="scale(0.3 0.3)">
          <a xlink:href="node__operation__interface_8h__dep__incl_org.svg" target="_base">
           <rect id="button" ry="5" rx="5" y="6" x="6" height="38" width="38"
                fill="#f2f5e9" fill-opacity="0.5" stroke="#606060" stroke-width="1.0"/>
           <path id="arrow"
             d="M 11.500037,31.436501 C 11.940474,20.09759 22.043105,11.32322 32.158766,21.979434 L 37.068811,17.246167 C 37.068811,17.246167 37.088388,32 37.088388,32 L 22.160133,31.978069 C 22.160133,31.978069 26.997745,27.140456 26.997745,27.140456 C 18.528582,18.264221 13.291696,25.230495 11.500037,31.436501 z"
             style="fill:#404040;"/>
          </a>
         </g>
        </svg>
</svg>
