<?xml version="1.0" encoding="UTF-8" standalone="no"?>
<!DOCTYPE svg PUBLIC "-//W3C//DTD SVG 1.1//EN"
 "http://www.w3.org/Graphics/SVG/1.1/DTD/svg11.dtd">
<!-- Generated by graphviz version 2.43.0 (0)
 -->
<!-- Title: src/ds/oversized.h Pages: 1 -->
<svg width="2502pt" height="665pt"
 viewBox="0.00 0.00 2501.52 665.00" xmlns="http://www.w3.org/2000/svg" xmlns:xlink="http://www.w3.org/1999/xlink">
<g id="graph0" class="graph" transform="scale(1 1) rotate(0) translate(4 661)">
<title>src/ds/oversized.h</title>
<polygon fill="white" stroke="transparent" points="-4,4 -4,-661 2497.52,-661 2497.52,4 -4,4"/>
<!-- Node1 -->
<g id="node1" class="node">
<title>Node1</title>
<g id="a_node1"><a xlink:title=" ">
<polygon fill="#bfbfbf" stroke="black" points="1944,-637.5 1944,-656.5 2048,-656.5 2048,-637.5 1944,-637.5"/>
<text text-anchor="middle" x="1996" y="-644.5" font-family="Helvetica,sans-Serif" font-size="10.00">src/ds/oversized.h</text>
</a>
</g>
</g>
<!-- Node2 -->
<g id="node2" class="node">
<title>Node2</title>
<g id="a_node2"><a xlink:href="common_2configuration_8h.html" target="_top" xlink:title=" ">
<polygon fill="white" stroke="black" points="1596,-581.5 1596,-600.5 1748,-600.5 1748,-581.5 1596,-581.5"/>
<text text-anchor="middle" x="1672" y="-588.5" font-family="Helvetica,sans-Serif" font-size="10.00">src/common/configuration.h</text>
</a>
</g>
</g>
<!-- Node1&#45;&gt;Node2 -->
<g id="edge1" class="edge">
<title>Node1&#45;&gt;Node2</title>
<path fill="none" stroke="midnightblue" d="M1934.74,-635.79C1873.52,-625.59 1780.47,-610.08 1723.1,-600.52"/>
<polygon fill="midnightblue" stroke="midnightblue" points="1934.22,-639.25 1944.66,-637.44 1935.37,-632.35 1934.22,-639.25"/>
</g>
<!-- Node4 -->
<g id="node4" class="node">
<title>Node4</title>
<g id="a_node4"><a xlink:href="host_2main_8cpp.html" target="_top" xlink:title=" ">
<polygon fill="white" stroke="black" points="2040.5,-386 2040.5,-405 2143.5,-405 2143.5,-386 2040.5,-386"/>
<text text-anchor="middle" x="2092" y="-393" font-family="Helvetica,sans-Serif" font-size="10.00">src/host/main.cpp</text>
</a>
</g>
</g>
<!-- Node1&#45;&gt;Node4 -->
<g id="edge82" class="edge">
<title>Node1&#45;&gt;Node4</title>
<path fill="none" stroke="midnightblue" d="M1982.97,-629.23C1977.51,-621.17 1971.79,-611.08 1969,-601 1964.24,-583.82 1955.52,-547.35 1970,-514 1992.48,-462.21 2049.87,-422.01 2077.15,-405.15"/>
<polygon fill="midnightblue" stroke="midnightblue" points="1980.15,-631.31 1988.85,-637.36 1985.82,-627.21 1980.15,-631.31"/>
</g>
<!-- Node7 -->
<g id="node7" class="node">
<title>Node7</title>
<g id="a_node7"><a xlink:href="src_2enclave_2enclave_8h.html" target="_top" xlink:title=" ">
<polygon fill="white" stroke="black" points="1206,-56.5 1206,-75.5 1328,-75.5 1328,-56.5 1206,-56.5"/>
<text text-anchor="middle" x="1267" y="-63.5" font-family="Helvetica,sans-Serif" font-size="10.00">src/enclave/enclave.h</text>
</a>
</g>
</g>
<!-- Node1&#45;&gt;Node7 -->
<g id="edge67" class="edge">
<title>Node1&#45;&gt;Node7</title>
<path fill="none" stroke="midnightblue" d="M2058.49,-643.18C2183.4,-635.84 2452,-610.73 2452,-530.5 2452,-530.5 2452,-530.5 2452,-193.5 2452,-166.34 2620.25,-192.96 2278,-112 2096.12,-68.98 1518.3,-66.38 1328.25,-66.74"/>
<polygon fill="midnightblue" stroke="midnightblue" points="2058.09,-639.7 2048.31,-643.76 2058.49,-646.69 2058.09,-639.7"/>
</g>
<!-- Node37 -->
<g id="node37" class="node">
<title>Node37</title>
<g id="a_node37"><a xlink:href="interface_8h.html" target="_top" xlink:title=" ">
<polygon fill="white" stroke="black" points="1978,-581.5 1978,-600.5 2106,-600.5 2106,-581.5 1978,-581.5"/>
<text text-anchor="middle" x="2042" y="-588.5" font-family="Helvetica,sans-Serif" font-size="10.00">src/enclave/interface.h</text>
</a>
</g>
</g>
<!-- Node1&#45;&gt;Node37 -->
<g id="edge68" class="edge">
<title>Node1&#45;&gt;Node37</title>
<path fill="none" stroke="midnightblue" d="M2010.11,-629.43C2018.18,-619.97 2027.96,-608.48 2034.55,-600.75"/>
<polygon fill="midnightblue" stroke="midnightblue" points="2007.42,-627.2 2003.6,-637.08 2012.75,-631.74 2007.42,-627.2"/>
</g>
<!-- Node3 -->
<g id="node3" class="node">
<title>Node3</title>
<g id="a_node3"><a xlink:href="host_2configuration_8h.html" target="_top" xlink:title=" ">
<polygon fill="white" stroke="black" points="1752.5,-520 1752.5,-539 1883.5,-539 1883.5,-520 1752.5,-520"/>
<text text-anchor="middle" x="1818" y="-527" font-family="Helvetica,sans-Serif" font-size="10.00">src/host/configuration.h</text>
</a>
</g>
</g>
<!-- Node2&#45;&gt;Node3 -->
<g id="edge2" class="edge">
<title>Node2&#45;&gt;Node3</title>
<path fill="none" stroke="midnightblue" d="M1702.35,-577.63C1730.71,-566.07 1772.31,-549.12 1797.12,-539.01"/>
<polygon fill="midnightblue" stroke="midnightblue" points="1700.86,-574.46 1692.92,-581.48 1703.5,-580.94 1700.86,-574.46"/>
</g>
<!-- Node5 -->
<g id="node5" class="node">
<title>Node5</title>
<g id="a_node5"><a xlink:href="frontend_8h.html" target="_top" xlink:title=" ">
<polygon fill="white" stroke="black" points="1437.5,-386 1437.5,-405 1566.5,-405 1566.5,-386 1437.5,-386"/>
<text text-anchor="middle" x="1502" y="-393" font-family="Helvetica,sans-Serif" font-size="10.00">src/node/rpc/frontend.h</text>
</a>
</g>
</g>
<!-- Node2&#45;&gt;Node5 -->
<g id="edge4" class="edge">
<title>Node2&#45;&gt;Node5</title>
<path fill="none" stroke="midnightblue" d="M1642.09,-576.89C1627.73,-569.33 1611.25,-558.6 1600,-545 1570.23,-509 1589.16,-485.01 1562,-447 1549.33,-429.28 1529.06,-413.98 1515.64,-405"/>
<polygon fill="midnightblue" stroke="midnightblue" points="1640.63,-580.07 1651.14,-581.4 1643.75,-573.81 1640.63,-580.07"/>
</g>
<!-- Node16 -->
<g id="node16" class="node">
<title>Node16</title>
<g id="a_node16"><a xlink:href="node__call__types_8h.html" target="_top" xlink:title=" ">
<polygon fill="white" stroke="black" points="1609.5,-514.5 1609.5,-544.5 1734.5,-544.5 1734.5,-514.5 1609.5,-514.5"/>
<text text-anchor="start" x="1617.5" y="-532.5" font-family="Helvetica,sans-Serif" font-size="10.00">src/node/rpc/node_call</text>
<text text-anchor="middle" x="1672" y="-521.5" font-family="Helvetica,sans-Serif" font-size="10.00">_types.h</text>
</a>
</g>
</g>
<!-- Node2&#45;&gt;Node16 -->
<g id="edge22" class="edge">
<title>Node2&#45;&gt;Node16</title>
<path fill="none" stroke="midnightblue" d="M1672,-571.23C1672,-562.59 1672,-552.5 1672,-544.52"/>
<polygon fill="midnightblue" stroke="midnightblue" points="1668.5,-571.48 1672,-581.48 1675.5,-571.48 1668.5,-571.48"/>
</g>
<!-- Node22 -->
<g id="node22" class="node">
<title>Node22</title>
<g id="a_node22"><a xlink:href="node__interface_8h.html" target="_top" xlink:title=" ">
<polygon fill="white" stroke="black" points="1214.5,-520 1214.5,-539 1375.5,-539 1375.5,-520 1214.5,-520"/>
<text text-anchor="middle" x="1295" y="-527" font-family="Helvetica,sans-Serif" font-size="10.00">src/node/rpc/node_interface.h</text>
</a>
</g>
</g>
<!-- Node2&#45;&gt;Node22 -->
<g id="edge35" class="edge">
<title>Node2&#45;&gt;Node22</title>
<path fill="none" stroke="midnightblue" d="M1608.01,-579.9C1535.13,-568.4 1417.31,-549.8 1348.91,-539.01"/>
<polygon fill="midnightblue" stroke="midnightblue" points="1607.56,-583.37 1617.99,-581.48 1608.65,-576.46 1607.56,-583.37"/>
</g>
<!-- Node3&#45;&gt;Node4 -->
<g id="edge3" class="edge">
<title>Node3&#45;&gt;Node4</title>
<path fill="none" stroke="midnightblue" d="M1836,-513.55C1858.29,-495.67 1897.97,-465.79 1936,-447 1975.05,-427.71 2023.15,-413.44 2055.53,-405.08"/>
<polygon fill="midnightblue" stroke="midnightblue" points="1833.64,-510.96 1828.09,-519.99 1838.06,-516.39 1833.64,-510.96"/>
</g>
<!-- Node6 -->
<g id="node6" class="node">
<title>Node6</title>
<g id="a_node6"><a xlink:href="acme__challenge__frontend_8h.html" target="_top" xlink:title=" ">
<polygon fill="white" stroke="black" points="1530,-313.5 1530,-343.5 1670,-343.5 1670,-313.5 1530,-313.5"/>
<text text-anchor="start" x="1538" y="-331.5" font-family="Helvetica,sans-Serif" font-size="10.00">src/node/acme_challenge</text>
<text text-anchor="middle" x="1600" y="-320.5" font-family="Helvetica,sans-Serif" font-size="10.00">_frontend.h</text>
</a>
</g>
</g>
<!-- Node5&#45;&gt;Node6 -->
<g id="edge5" class="edge">
<title>Node5&#45;&gt;Node6</title>
<path fill="none" stroke="midnightblue" d="M1523.63,-380.15C1540.03,-369.27 1562.45,-354.4 1578.76,-343.59"/>
<polygon fill="midnightblue" stroke="midnightblue" points="1521.62,-377.29 1515.22,-385.73 1525.48,-383.12 1521.62,-377.29"/>
</g>
<!-- Node10 -->
<g id="node10" class="node">
<title>Node10</title>
<g id="a_node10"><a xlink:href="node__state_8h.html" target="_top" xlink:title=" ">
<polygon fill="white" stroke="black" points="1449,-185 1449,-204 1573,-204 1573,-185 1449,-185"/>
<text text-anchor="middle" x="1511" y="-192" font-family="Helvetica,sans-Serif" font-size="10.00">src/node/node_state.h</text>
</a>
</g>
</g>
<!-- Node5&#45;&gt;Node10 -->
<g id="edge13" class="edge">
<title>Node5&#45;&gt;Node10</title>
<path fill="none" stroke="midnightblue" d="M1502.85,-375.8C1504.74,-334.01 1509.24,-234.33 1510.6,-204.24"/>
<polygon fill="midnightblue" stroke="midnightblue" points="1499.34,-375.8 1502.39,-385.95 1506.34,-376.12 1499.34,-375.8"/>
</g>
<!-- Node12 -->
<g id="node12" class="node">
<title>Node12</title>
<g id="a_node12"><a xlink:href="member__frontend_8h.html" target="_top" xlink:title=" ">
<polygon fill="white" stroke="black" points="1140,-313.5 1140,-343.5 1260,-343.5 1260,-313.5 1140,-313.5"/>
<text text-anchor="start" x="1148" y="-331.5" font-family="Helvetica,sans-Serif" font-size="10.00">src/node/rpc/member</text>
<text text-anchor="middle" x="1200" y="-320.5" font-family="Helvetica,sans-Serif" font-size="10.00">_frontend.h</text>
</a>
</g>
</g>
<!-- Node5&#45;&gt;Node12 -->
<g id="edge14" class="edge">
<title>Node5&#45;&gt;Node12</title>
<path fill="none" stroke="midnightblue" d="M1452.43,-383.83C1399.8,-372.5 1316.59,-354.59 1260.22,-342.46"/>
<polygon fill="midnightblue" stroke="midnightblue" points="1451.7,-387.25 1462.21,-385.94 1453.17,-380.41 1451.7,-387.25"/>
</g>
<!-- Node13 -->
<g id="node13" class="node">
<title>Node13</title>
<g id="a_node13"><a xlink:href="node__frontend_8h.html" target="_top" xlink:title=" ">
<polygon fill="white" stroke="black" points="1316,-319 1316,-338 1474,-338 1474,-319 1316,-319"/>
<text text-anchor="middle" x="1395" y="-326" font-family="Helvetica,sans-Serif" font-size="10.00">src/node/rpc/node_frontend.h</text>
</a>
</g>
</g>
<!-- Node5&#45;&gt;Node13 -->
<g id="edge16" class="edge">
<title>Node5&#45;&gt;Node13</title>
<path fill="none" stroke="midnightblue" d="M1478.86,-380.44C1457.67,-367.57 1426.98,-348.93 1409.2,-338.13"/>
<polygon fill="midnightblue" stroke="midnightblue" points="1477.21,-383.53 1487.57,-385.73 1480.84,-377.55 1477.21,-383.53"/>
</g>
<!-- Node15 -->
<g id="node15" class="node">
<title>Node15</title>
<g id="a_node15"><a xlink:href="user__frontend_8h.html" target="_top" xlink:title=" ">
<polygon fill="white" stroke="black" points="1136.5,-118 1136.5,-137 1291.5,-137 1291.5,-118 1136.5,-118"/>
<text text-anchor="middle" x="1214" y="-125" font-family="Helvetica,sans-Serif" font-size="10.00">src/node/rpc/user_frontend.h</text>
</a>
</g>
</g>
<!-- Node5&#45;&gt;Node15 -->
<g id="edge20" class="edge">
<title>Node5&#45;&gt;Node15</title>
<path fill="none" stroke="midnightblue" d="M1437.94,-384.16C1388.99,-375.14 1326.69,-360.87 1307,-344 1239.23,-285.94 1219.35,-169.51 1215.02,-137.07"/>
<polygon fill="midnightblue" stroke="midnightblue" points="1437.38,-387.62 1447.85,-385.95 1438.63,-380.73 1437.38,-387.62"/>
</g>
<!-- Node6&#45;&gt;Node7 -->
<g id="edge6" class="edge">
<title>Node6&#45;&gt;Node7</title>
<path fill="none" stroke="midnightblue" d="M1651.93,-308.78C1665.77,-301.15 1679.07,-290.78 1687,-277 1693.87,-265.06 1692.92,-258.44 1687,-246 1623.28,-112.17 1428.55,-78.35 1328.2,-69.84"/>
<polygon fill="midnightblue" stroke="midnightblue" points="1650.14,-305.77 1642.81,-313.42 1653.31,-312.01 1650.14,-305.77"/>
</g>
<!-- Node9 -->
<g id="node9" class="node">
<title>Node9</title>
<g id="a_node9"><a xlink:href="ccf__acme__client_8h.html" target="_top" xlink:title=" ">
<polygon fill="white" stroke="black" points="1529.5,-252 1529.5,-271 1678.5,-271 1678.5,-252 1529.5,-252"/>
<text text-anchor="middle" x="1604" y="-259" font-family="Helvetica,sans-Serif" font-size="10.00">src/node/ccf_acme_client.h</text>
</a>
</g>
</g>
<!-- Node6&#45;&gt;Node9 -->
<g id="edge8" class="edge">
<title>Node6&#45;&gt;Node9</title>
<path fill="none" stroke="midnightblue" d="M1601.49,-303.25C1602.18,-292.02 1602.96,-279.38 1603.46,-271.19"/>
<polygon fill="midnightblue" stroke="midnightblue" points="1597.99,-303.2 1600.87,-313.4 1604.98,-303.63 1597.99,-303.2"/>
</g>
<!-- Node8 -->
<g id="node8" class="node">
<title>Node8</title>
<g id="a_node8"><a xlink:href="enclave_2main_8cpp.html" target="_top" xlink:title=" ">
<polygon fill="white" stroke="black" points="1207,-0.5 1207,-19.5 1327,-19.5 1327,-0.5 1207,-0.5"/>
<text text-anchor="middle" x="1267" y="-7.5" font-family="Helvetica,sans-Serif" font-size="10.00">src/enclave/main.cpp</text>
</a>
</g>
</g>
<!-- Node7&#45;&gt;Node8 -->
<g id="edge7" class="edge">
<title>Node7&#45;&gt;Node8</title>
<path fill="none" stroke="midnightblue" d="M1267,-45.8C1267,-36.91 1267,-26.78 1267,-19.75"/>
<polygon fill="midnightblue" stroke="midnightblue" points="1263.5,-46.08 1267,-56.08 1270.5,-46.08 1263.5,-46.08"/>
</g>
<!-- Node9&#45;&gt;Node10 -->
<g id="edge9" class="edge">
<title>Node9&#45;&gt;Node10</title>
<path fill="none" stroke="midnightblue" d="M1583.14,-245.92C1564.75,-233.07 1538.59,-214.78 1523.34,-204.13"/>
<polygon fill="midnightblue" stroke="midnightblue" points="1581.26,-248.87 1591.46,-251.73 1585.27,-243.14 1581.26,-248.87"/>
</g>
<!-- Node10&#45;&gt;Node7 -->
<g id="edge10" class="edge">
<title>Node10&#45;&gt;Node7</title>
<path fill="none" stroke="midnightblue" d="M1514.41,-174.68C1516.58,-156.28 1516.55,-128.65 1501,-112 1477.98,-87.36 1389.41,-75.86 1328.09,-70.75"/>
<polygon fill="midnightblue" stroke="midnightblue" points="1510.92,-174.36 1512.89,-184.77 1517.84,-175.41 1510.92,-174.36"/>
</g>
<!-- Node11 -->
<g id="node11" class="node">
<title>Node11</title>
<g id="a_node11"><a xlink:href="gov__effects_8h.html" target="_top" xlink:title=" ">
<polygon fill="white" stroke="black" points="1348,-118 1348,-137 1492,-137 1492,-118 1348,-118"/>
<text text-anchor="middle" x="1420" y="-125" font-family="Helvetica,sans-Serif" font-size="10.00">src/node/rpc/gov_effects.h</text>
</a>
</g>
</g>
<!-- Node10&#45;&gt;Node11 -->
<g id="edge11" class="edge">
<title>Node10&#45;&gt;Node11</title>
<path fill="none" stroke="midnightblue" d="M1490.59,-178.92C1472.6,-166.07 1446.99,-147.78 1432.08,-137.13"/>
<polygon fill="midnightblue" stroke="midnightblue" points="1488.56,-181.77 1498.73,-184.73 1492.62,-176.07 1488.56,-181.77"/>
</g>
<!-- Node11&#45;&gt;Node7 -->
<g id="edge12" class="edge">
<title>Node11&#45;&gt;Node7</title>
<path fill="none" stroke="midnightblue" d="M1388.58,-114.28C1358.85,-102.72 1314.99,-85.66 1288.88,-75.51"/>
<polygon fill="midnightblue" stroke="midnightblue" points="1387.49,-117.61 1398.08,-117.98 1390.03,-111.09 1387.49,-117.61"/>
</g>
<!-- Node12&#45;&gt;Node7 -->
<g id="edge15" class="edge">
<title>Node12&#45;&gt;Node7</title>
<path fill="none" stroke="midnightblue" d="M1180.35,-305.48C1145.89,-264.1 1082.26,-173.37 1127,-112 1145.05,-87.24 1176.94,-75.81 1205.73,-70.65"/>
<polygon fill="midnightblue" stroke="midnightblue" points="1177.87,-307.96 1187.02,-313.31 1183.2,-303.43 1177.87,-307.96"/>
</g>
<!-- Node13&#45;&gt;Node7 -->
<g id="edge17" class="edge">
<title>Node13&#45;&gt;Node7</title>
<path fill="none" stroke="midnightblue" d="M1373.16,-312.88C1361.35,-303.87 1347.48,-291.32 1339,-277 1300.61,-212.16 1331.58,-180.42 1300,-112 1293.59,-98.1 1282.52,-84.22 1274.99,-75.62"/>
<polygon fill="midnightblue" stroke="midnightblue" points="1371.15,-315.74 1381.3,-318.79 1375.26,-310.08 1371.15,-315.74"/>
</g>
<!-- Node14 -->
<g id="node14" class="node">
<title>Node14</title>
<g id="a_node14"><a xlink:href="jwt__key__auto__refresh_8h.html" target="_top" xlink:title=" ">
<polygon fill="white" stroke="black" points="1348.5,-246.5 1348.5,-276.5 1473.5,-276.5 1473.5,-246.5 1348.5,-246.5"/>
<text text-anchor="start" x="1356.5" y="-264.5" font-family="Helvetica,sans-Serif" font-size="10.00">src/node/jwt_key_auto</text>
<text text-anchor="middle" x="1411" y="-253.5" font-family="Helvetica,sans-Serif" font-size="10.00">_refresh.h</text>
</a>
</g>
</g>
<!-- Node13&#45;&gt;Node14 -->
<g id="edge18" class="edge">
<title>Node13&#45;&gt;Node14</title>
<path fill="none" stroke="midnightblue" d="M1399.62,-308.74C1402.14,-298.49 1405.22,-286 1407.53,-276.59"/>
<polygon fill="midnightblue" stroke="midnightblue" points="1396.15,-308.19 1397.16,-318.73 1402.95,-309.86 1396.15,-308.19"/>
</g>
<!-- Node14&#45;&gt;Node10 -->
<g id="edge19" class="edge">
<title>Node14&#45;&gt;Node10</title>
<path fill="none" stroke="midnightblue" d="M1441.3,-240.81C1460.21,-228.51 1483.61,-213.3 1497.91,-204.01"/>
<polygon fill="midnightblue" stroke="midnightblue" points="1439.18,-238.01 1432.7,-246.4 1442.99,-243.88 1439.18,-238.01"/>
</g>
<!-- Node15&#45;&gt;Node7 -->
<g id="edge21" class="edge">
<title>Node15&#45;&gt;Node7</title>
<path fill="none" stroke="midnightblue" d="M1228.25,-110.5C1238.29,-99.24 1251.32,-84.6 1259.42,-75.51"/>
<polygon fill="midnightblue" stroke="midnightblue" points="1225.63,-108.18 1221.59,-117.98 1230.86,-112.84 1225.63,-108.18"/>
</g>
<!-- Node17 -->
<g id="node17" class="node">
<title>Node17</title>
<g id="a_node17"><a xlink:href="call__types_8h.html" target="_top" xlink:title=" ">
<polygon fill="white" stroke="black" points="1609.5,-453 1609.5,-472 1746.5,-472 1746.5,-453 1609.5,-453"/>
<text text-anchor="middle" x="1678" y="-460" font-family="Helvetica,sans-Serif" font-size="10.00">src/node/rpc/call_types.h</text>
</a>
</g>
</g>
<!-- Node16&#45;&gt;Node17 -->
<g id="edge23" class="edge">
<title>Node16&#45;&gt;Node17</title>
<path fill="none" stroke="midnightblue" d="M1674.24,-504.25C1675.28,-493.02 1676.44,-480.38 1677.2,-472.19"/>
<polygon fill="midnightblue" stroke="midnightblue" points="1670.74,-504.12 1673.3,-514.4 1677.71,-504.76 1670.74,-504.12"/>
</g>
<!-- Node17&#45;&gt;Node12 -->
<g id="edge28" class="edge">
<title>Node17&#45;&gt;Node12</title>
<path fill="none" stroke="midnightblue" d="M1612.37,-451.31C1561.52,-442.69 1489.6,-428.87 1428,-411 1390.98,-400.26 1383.23,-393.15 1347,-380 1311.87,-367.25 1271.72,-353.51 1242.27,-343.59"/>
<polygon fill="midnightblue" stroke="midnightblue" points="1611.81,-454.77 1622.25,-452.97 1612.96,-447.87 1611.81,-454.77"/>
</g>
<!-- Node18 -->
<g id="node18" class="node">
<title>Node18</title>
<g id="a_node18"><a xlink:href="common__endpoint__registry_8cpp.html" target="_top" xlink:title=" ">
<polygon fill="white" stroke="black" points="1860,-313.5 1860,-343.5 1988,-343.5 1988,-313.5 1860,-313.5"/>
<text text-anchor="start" x="1868" y="-331.5" font-family="Helvetica,sans-Serif" font-size="10.00">src/endpoints/common</text>
<text text-anchor="middle" x="1924" y="-320.5" font-family="Helvetica,sans-Serif" font-size="10.00">_endpoint_registry.cpp</text>
</a>
</g>
</g>
<!-- Node17&#45;&gt;Node18 -->
<g id="edge24" class="edge">
<title>Node17&#45;&gt;Node18</title>
<path fill="none" stroke="midnightblue" d="M1756.86,-451.79C1791.66,-444.65 1831.68,-432.31 1863,-411 1888.57,-393.6 1907.69,-361.91 1917.22,-343.59"/>
<polygon fill="midnightblue" stroke="midnightblue" points="1755.87,-448.41 1746.72,-453.75 1757.2,-455.28 1755.87,-448.41"/>
</g>
<!-- Node19 -->
<g id="node19" class="node">
<title>Node19</title>
<g id="a_node19"><a xlink:href="wrap_8cpp.html" target="_top" xlink:title=" ">
<polygon fill="white" stroke="black" points="964.5,-319 964.5,-338 1053.5,-338 1053.5,-319 964.5,-319"/>
<text text-anchor="middle" x="1009" y="-326" font-family="Helvetica,sans-Serif" font-size="10.00">src/js/wrap.cpp</text>
</a>
</g>
</g>
<!-- Node17&#45;&gt;Node19 -->
<g id="edge25" class="edge">
<title>Node17&#45;&gt;Node19</title>
<path fill="none" stroke="midnightblue" d="M1605.57,-451.59C1514.7,-439 1367.7,-418.05 1343,-411 1309.5,-401.44 1304.3,-390.25 1271,-380 1196.4,-357.05 1106.49,-342.43 1053.75,-335.12"/>
<polygon fill="midnightblue" stroke="midnightblue" points="1605.16,-455.07 1615.55,-452.97 1606.12,-448.13 1605.16,-455.07"/>
</g>
<!-- Node20 -->
<g id="node20" class="node">
<title>Node20</title>
<g id="a_node20"><a xlink:href="resharing_8h.html" target="_top" xlink:title=" ">
<polygon fill="white" stroke="black" points="1688,-319 1688,-338 1804,-338 1804,-319 1688,-319"/>
<text text-anchor="middle" x="1746" y="-326" font-family="Helvetica,sans-Serif" font-size="10.00">src/node/resharing.h</text>
</a>
</g>
</g>
<!-- Node17&#45;&gt;Node20 -->
<g id="edge26" class="edge">
<title>Node17&#45;&gt;Node20</title>
<path fill="none" stroke="midnightblue" d="M1679.52,-442.47C1681.56,-425.27 1686.25,-399.69 1697,-380 1706.37,-362.84 1723.16,-347.41 1734.45,-338.24"/>
<polygon fill="midnightblue" stroke="midnightblue" points="1676,-442.58 1678.5,-452.87 1682.96,-443.26 1676,-442.58"/>
</g>
<!-- Node21 -->
<g id="node21" class="node">
<title>Node21</title>
<g id="a_node21"><a xlink:href="serialization_8h.html" target="_top" xlink:title=" ">
<polygon fill="white" stroke="black" points="1706,-386 1706,-405 1854,-405 1854,-386 1706,-386"/>
<text text-anchor="middle" x="1780" y="-393" font-family="Helvetica,sans-Serif" font-size="10.00">src/node/rpc/serialization.h</text>
</a>
</g>
</g>
<!-- Node17&#45;&gt;Node21 -->
<g id="edge29" class="edge">
<title>Node17&#45;&gt;Node21</title>
<path fill="none" stroke="midnightblue" d="M1700.33,-447.27C1720.52,-434.4 1749.59,-415.88 1766.46,-405.13"/>
<polygon fill="midnightblue" stroke="midnightblue" points="1698.31,-444.41 1691.76,-452.73 1702.07,-450.31 1698.31,-444.41"/>
</g>
<!-- Node20&#45;&gt;Node10 -->
<g id="edge27" class="edge">
<title>Node20&#45;&gt;Node10</title>
<path fill="none" stroke="midnightblue" d="M1737.65,-309.76C1728,-291.16 1710.41,-262.42 1687,-246 1653.43,-222.45 1609,-209.81 1573.18,-203.06"/>
<polygon fill="midnightblue" stroke="midnightblue" points="1734.6,-311.49 1742.18,-318.9 1740.87,-308.38 1734.6,-311.49"/>
</g>
<!-- Node21&#45;&gt;Node10 -->
<g id="edge31" class="edge">
<title>Node21&#45;&gt;Node10</title>
<path fill="none" stroke="midnightblue" d="M1795.2,-377.87C1808.6,-361.09 1824.35,-334.64 1813,-313 1768.11,-227.44 1647.52,-203.79 1573.01,-197.5"/>
<polygon fill="midnightblue" stroke="midnightblue" points="1792.37,-375.79 1788.57,-385.68 1797.71,-380.32 1792.37,-375.79"/>
</g>
<!-- Node21&#45;&gt;Node12 -->
<g id="edge33" class="edge">
<title>Node21&#45;&gt;Node12</title>
<path fill="none" stroke="midnightblue" d="M1695.69,-386.23C1601.03,-376.77 1442.86,-360.45 1307,-344 1291.83,-342.16 1275.48,-340.03 1260.23,-337.97"/>
<polygon fill="midnightblue" stroke="midnightblue" points="1695.49,-389.72 1705.78,-387.23 1696.18,-382.76 1695.49,-389.72"/>
</g>
<!-- Node21&#45;&gt;Node13 -->
<g id="edge34" class="edge">
<title>Node21&#45;&gt;Node13</title>
<path fill="none" stroke="midnightblue" d="M1718.96,-384.19C1643.35,-371.43 1515.93,-349.92 1445.53,-338.03"/>
<polygon fill="midnightblue" stroke="midnightblue" points="1718.83,-387.72 1729.27,-385.94 1719.99,-380.82 1718.83,-387.72"/>
</g>
<!-- Node21&#45;&gt;Node18 -->
<g id="edge30" class="edge">
<title>Node21&#45;&gt;Node18</title>
<path fill="none" stroke="midnightblue" d="M1808.53,-381.62C1832.89,-370.63 1867.86,-354.84 1892.92,-343.53"/>
<polygon fill="midnightblue" stroke="midnightblue" points="1806.8,-378.56 1799.12,-385.87 1809.68,-384.94 1806.8,-378.56"/>
</g>
<!-- Node21&#45;&gt;Node20 -->
<g id="edge32" class="edge">
<title>Node21&#45;&gt;Node20</title>
<path fill="none" stroke="midnightblue" d="M1770.67,-376.66C1764.11,-364.13 1755.63,-347.91 1750.51,-338.13"/>
<polygon fill="midnightblue" stroke="midnightblue" points="1767.68,-378.5 1775.41,-385.73 1773.88,-375.25 1767.68,-378.5"/>
</g>
<!-- Node22&#45;&gt;Node12 -->
<g id="edge60" class="edge">
<title>Node22&#45;&gt;Node12</title>
<path fill="none" stroke="midnightblue" d="M1296.4,-509.37C1297.67,-479.43 1296.33,-420.72 1271,-380 1261.25,-364.33 1244.67,-352.13 1229.98,-343.64"/>
<polygon fill="midnightblue" stroke="midnightblue" points="1292.89,-509.48 1295.81,-519.66 1299.88,-509.88 1292.89,-509.48"/>
</g>
<!-- Node22&#45;&gt;Node13 -->
<g id="edge64" class="edge">
<title>Node22&#45;&gt;Node13</title>
<path fill="none" stroke="midnightblue" d="M1303.86,-510.86C1324.54,-469.72 1375.36,-368.58 1390.61,-338.24"/>
<polygon fill="midnightblue" stroke="midnightblue" points="1300.66,-509.44 1299.3,-519.95 1306.91,-512.59 1300.66,-509.44"/>
</g>
<!-- Node22&#45;&gt;Node19 -->
<g id="edge36" class="edge">
<title>Node22&#45;&gt;Node19</title>
<path fill="none" stroke="midnightblue" d="M1283.84,-510.91C1263.38,-480.03 1216.87,-415.92 1162,-380 1128.88,-358.32 1085.63,-345.18 1053.57,-337.76"/>
<polygon fill="midnightblue" stroke="midnightblue" points="1281.17,-513.22 1289.55,-519.69 1287.04,-509.4 1281.17,-513.22"/>
</g>
<!-- Node23 -->
<g id="node23" class="node">
<title>Node23</title>
<g id="a_node23"><a xlink:href="wrap_8h.html" target="_top" xlink:title=" ">
<polygon fill="white" stroke="black" points="878,-453 878,-472 956,-472 956,-453 878,-453"/>
<text text-anchor="middle" x="917" y="-460" font-family="Helvetica,sans-Serif" font-size="10.00">src/js/wrap.h</text>
</a>
</g>
</g>
<!-- Node22&#45;&gt;Node23 -->
<g id="edge37" class="edge">
<title>Node22&#45;&gt;Node23</title>
<path fill="none" stroke="midnightblue" d="M1235.01,-518.18C1156.79,-504.73 1022.16,-481.58 956,-470.21"/>
<polygon fill="midnightblue" stroke="midnightblue" points="1234.75,-521.69 1245.19,-519.94 1235.93,-514.79 1234.75,-521.69"/>
</g>
<!-- Node30 -->
<g id="node30" class="node">
<title>Node30</title>
<g id="a_node30"><a xlink:href="historical__queries_8h.html" target="_top" xlink:title=" ">
<polygon fill="white" stroke="black" points="0,-179.5 0,-209.5 106,-209.5 106,-179.5 0,-179.5"/>
<text text-anchor="start" x="8" y="-197.5" font-family="Helvetica,sans-Serif" font-size="10.00">src/node/historical</text>
<text text-anchor="middle" x="53" y="-186.5" font-family="Helvetica,sans-Serif" font-size="10.00">_queries.h</text>
</a>
</g>
</g>
<!-- Node22&#45;&gt;Node30 -->
<g id="edge52" class="edge">
<title>Node22&#45;&gt;Node30</title>
<path fill="none" stroke="midnightblue" d="M1204.09,-527.61C950.57,-524.68 247.86,-513.44 150,-478 93.79,-457.64 43,-456.28 43,-396.5 43,-396.5 43,-396.5 43,-327.5 43,-284.52 48.34,-233.9 51.21,-209.73"/>
<polygon fill="midnightblue" stroke="midnightblue" points="1204.33,-531.11 1214.37,-527.73 1204.41,-524.11 1204.33,-531.11"/>
</g>
<!-- Node32 -->
<g id="node32" class="node">
<title>Node32</title>
<g id="a_node32"><a xlink:href="node__configuration__subsystem_8h.html" target="_top" xlink:title=" ">
<polygon fill="white" stroke="black" points="1399,-447.5 1399,-477.5 1553,-477.5 1553,-447.5 1399,-447.5"/>
<text text-anchor="start" x="1407" y="-465.5" font-family="Helvetica,sans-Serif" font-size="10.00">src/node/node_configuration</text>
<text text-anchor="middle" x="1476" y="-454.5" font-family="Helvetica,sans-Serif" font-size="10.00">_subsystem.h</text>
</a>
</g>
</g>
<!-- Node22&#45;&gt;Node32 -->
<g id="edge56" class="edge">
<title>Node22&#45;&gt;Node32</title>
<path fill="none" stroke="midnightblue" d="M1328.84,-516.35C1359.52,-505.33 1404.73,-489.09 1436.94,-477.53"/>
<polygon fill="midnightblue" stroke="midnightblue" points="1327.26,-513.19 1319.04,-519.87 1329.63,-519.78 1327.26,-513.19"/>
</g>
<!-- Node33 -->
<g id="node33" class="node">
<title>Node33</title>
<g id="a_node33"><a xlink:href="acme__subsystem_8h.html" target="_top" xlink:title=" ">
<polygon fill="white" stroke="black" points="71.5,-252 71.5,-271 244.5,-271 244.5,-252 71.5,-252"/>
<text text-anchor="middle" x="158" y="-259" font-family="Helvetica,sans-Serif" font-size="10.00">src/node/rpc/acme_subsystem.h</text>
</a>
</g>
</g>
<!-- Node22&#45;&gt;Node33 -->
<g id="edge58" class="edge">
<title>Node22&#45;&gt;Node33</title>
<path fill="none" stroke="midnightblue" d="M1204.24,-527C945.82,-522.37 221.89,-506.89 180,-478 111.89,-431.03 144.6,-305.64 155.14,-271.3"/>
<polygon fill="midnightblue" stroke="midnightblue" points="1204.29,-530.5 1214.35,-527.18 1204.41,-523.5 1204.29,-530.5"/>
</g>
<!-- Node34 -->
<g id="node34" class="node">
<title>Node34</title>
<g id="a_node34"><a xlink:href="network__identity__subsystem_8h.html" target="_top" xlink:title=" ">
<polygon fill="white" stroke="black" points="189.5,-447.5 189.5,-477.5 316.5,-477.5 316.5,-447.5 189.5,-447.5"/>
<text text-anchor="start" x="197.5" y="-465.5" font-family="Helvetica,sans-Serif" font-size="10.00">src/node/rpc/network</text>
<text text-anchor="middle" x="253" y="-454.5" font-family="Helvetica,sans-Serif" font-size="10.00">_identity_subsystem.h</text>
</a>
</g>
</g>
<!-- Node22&#45;&gt;Node34 -->
<g id="edge61" class="edge">
<title>Node22&#45;&gt;Node34</title>
<path fill="none" stroke="midnightblue" d="M1203.87,-522.82C996.71,-509.89 494.65,-478.57 316.78,-467.48"/>
<polygon fill="midnightblue" stroke="midnightblue" points="1203.9,-526.32 1214.1,-523.45 1204.34,-519.34 1203.9,-526.32"/>
</g>
<!-- Node36 -->
<g id="node36" class="node">
<title>Node36</title>
<g id="a_node36"><a xlink:href="node__operation_8h.html" target="_top" xlink:title=" ">
<polygon fill="white" stroke="black" points="1834,-185 1834,-204 1998,-204 1998,-185 1834,-185"/>
<text text-anchor="middle" x="1916" y="-192" font-family="Helvetica,sans-Serif" font-size="10.00">src/node/rpc/node_operation.h</text>
</a>
</g>
</g>
<!-- Node22&#45;&gt;Node36 -->
<g id="edge65" class="edge">
<title>Node22&#45;&gt;Node36</title>
<path fill="none" stroke="midnightblue" d="M1385.63,-527.71C1479.71,-524.78 1630.29,-514.14 1755,-478 1873.08,-443.78 1937.9,-451.81 1997,-344 2026.08,-290.95 1955.91,-227.12 1927.39,-204.21"/>
<polygon fill="midnightblue" stroke="midnightblue" points="1385.47,-524.21 1375.57,-528 1385.67,-531.21 1385.47,-524.21"/>
</g>
<!-- Node23&#45;&gt;Node7 -->
<g id="edge39" class="edge">
<title>Node23&#45;&gt;Node7</title>
<path fill="none" stroke="midnightblue" d="M867.57,-460.28C738.35,-456.63 397.89,-443.97 360,-411 331.94,-386.58 341,-366.69 341,-329.5 341,-329.5 341,-329.5 341,-193.5 341,-105.93 999.47,-76.1 1205.88,-68.9"/>
<polygon fill="midnightblue" stroke="midnightblue" points="867.5,-463.78 877.59,-460.55 867.69,-456.78 867.5,-463.78"/>
</g>
<!-- Node23&#45;&gt;Node10 -->
<g id="edge50" class="edge">
<title>Node23&#45;&gt;Node10</title>
<path fill="none" stroke="midnightblue" d="M966.54,-458.48C1030.88,-453.41 1137.83,-440.66 1162,-411 1170.7,-400.32 1166.79,-392.92 1162,-380 1154.65,-360.21 1138.35,-363.79 1131,-344 1126.21,-331.08 1122.89,-324.14 1131,-313 1169.88,-259.63 1362.75,-220.42 1457.83,-204"/>
<polygon fill="midnightblue" stroke="midnightblue" points="965.92,-455.02 956.21,-459.26 966.45,-462 965.92,-455.02"/>
</g>
<!-- Node23&#45;&gt;Node12 -->
<g id="edge51" class="edge">
<title>Node23&#45;&gt;Node12</title>
<path fill="none" stroke="midnightblue" d="M966.33,-459.62C1037.96,-455.77 1165.43,-444.3 1195,-411 1211.38,-392.56 1207.8,-361.53 1203.83,-343.55"/>
<polygon fill="midnightblue" stroke="midnightblue" points="966,-456.13 956.19,-460.14 966.36,-463.12 966,-456.13"/>
</g>
<!-- Node23&#45;&gt;Node19 -->
<g id="edge49" class="edge">
<title>Node23&#45;&gt;Node19</title>
<path fill="none" stroke="midnightblue" d="M945.95,-448.05C961.26,-439.51 979.09,-427.04 990,-411 1005.61,-388.06 1008.5,-353.98 1008.97,-338.16"/>
<polygon fill="midnightblue" stroke="midnightblue" points="944.05,-445.1 936.83,-452.86 947.31,-451.29 944.05,-445.1"/>
</g>
<!-- Node24 -->
<g id="node24" class="node">
<title>Node24</title>
<g id="a_node24"><a xlink:href="js__generic__base_8cpp.html" target="_top" xlink:title=" ">
<polygon fill="white" stroke="black" points="717,-380.5 717,-410.5 835,-410.5 835,-380.5 717,-380.5"/>
<text text-anchor="start" x="725" y="-398.5" font-family="Helvetica,sans-Serif" font-size="10.00">src/apps/js_generic</text>
<text text-anchor="middle" x="776" y="-387.5" font-family="Helvetica,sans-Serif" font-size="10.00">/js_generic_base.cpp</text>
</a>
</g>
</g>
<!-- Node23&#45;&gt;Node24 -->
<g id="edge38" class="edge">
<title>Node23&#45;&gt;Node24</title>
<path fill="none" stroke="midnightblue" d="M889.06,-448.62C865.21,-437.63 830.97,-421.84 806.43,-410.53"/>
<polygon fill="midnightblue" stroke="midnightblue" points="887.73,-451.86 898.28,-452.87 890.66,-445.5 887.73,-451.86"/>
</g>
<!-- Node25 -->
<g id="node25" class="node">
<title>Node25</title>
<g id="a_node25"><a xlink:href="consensus_8cpp.html" target="_top" xlink:title=" ">
<polygon fill="white" stroke="black" points="1037,-386 1037,-405 1153,-405 1153,-386 1037,-386"/>
<text text-anchor="middle" x="1095" y="-393" font-family="Helvetica,sans-Serif" font-size="10.00">src/js/consensus.cpp</text>
</a>
</g>
</g>
<!-- Node23&#45;&gt;Node25 -->
<g id="edge40" class="edge">
<title>Node23&#45;&gt;Node25</title>
<path fill="none" stroke="midnightblue" d="M950.04,-449.44C985.35,-436.54 1040.44,-416.42 1071.55,-405.06"/>
<polygon fill="midnightblue" stroke="midnightblue" points="948.83,-446.15 940.64,-452.87 951.23,-452.73 948.83,-446.15"/>
</g>
<!-- Node26 -->
<g id="node26" class="node">
<title>Node26</title>
<g id="a_node26"><a xlink:href="conv_8cpp.html" target="_top" xlink:title=" ">
<polygon fill="white" stroke="black" points="611,-386 611,-405 699,-405 699,-386 611,-386"/>
<text text-anchor="middle" x="655" y="-393" font-family="Helvetica,sans-Serif" font-size="10.00">src/js/conv.cpp</text>
</a>
</g>
</g>
<!-- Node23&#45;&gt;Node26 -->
<g id="edge42" class="edge">
<title>Node23&#45;&gt;Node26</title>
<path fill="none" stroke="midnightblue" d="M870.53,-450.69C828.11,-440.73 763.72,-425.35 708,-411 700.7,-409.12 692.86,-407.02 685.51,-405.01"/>
<polygon fill="midnightblue" stroke="midnightblue" points="869.76,-454.11 880.3,-452.98 871.36,-447.29 869.76,-454.11"/>
</g>
<!-- Node27 -->
<g id="node27" class="node">
<title>Node27</title>
<g id="a_node27"><a xlink:href="crypto_8cpp.html" target="_top" xlink:title=" ">
<polygon fill="white" stroke="black" points="369,-386 369,-405 465,-405 465,-386 369,-386"/>
<text text-anchor="middle" x="417" y="-393" font-family="Helvetica,sans-Serif" font-size="10.00">src/js/crypto.cpp</text>
</a>
</g>
</g>
<!-- Node23&#45;&gt;Node27 -->
<g id="edge44" class="edge">
<title>Node23&#45;&gt;Node27</title>
<path fill="none" stroke="midnightblue" d="M867.89,-458.09C785.82,-451.9 615.83,-437 474,-411 465.26,-409.4 455.88,-407.21 447.3,-405.02"/>
<polygon fill="midnightblue" stroke="midnightblue" points="867.69,-461.58 877.93,-458.84 868.21,-454.6 867.69,-461.58"/>
</g>
<!-- Node28 -->
<g id="node28" class="node">
<title>Node28</title>
<g id="a_node28"><a xlink:href="historical_8cpp.html" target="_top" xlink:title=" ">
<polygon fill="white" stroke="black" points="483,-386 483,-405 593,-405 593,-386 483,-386"/>
<text text-anchor="middle" x="538" y="-393" font-family="Helvetica,sans-Serif" font-size="10.00">src/js/historical.cpp</text>
</a>
</g>
</g>
<!-- Node23&#45;&gt;Node28 -->
<g id="edge46" class="edge">
<title>Node23&#45;&gt;Node28</title>
<path fill="none" stroke="midnightblue" d="M867.65,-454.58C805.49,-445.64 695.49,-429.07 602,-411 592.83,-409.23 582.96,-407.1 573.8,-405.03"/>
<polygon fill="midnightblue" stroke="midnightblue" points="867.18,-458.05 877.57,-456 868.17,-451.12 867.18,-458.05"/>
</g>
<!-- Node29 -->
<g id="node29" class="node">
<title>Node29</title>
<g id="a_node29"><a xlink:href="openenclave_8cpp.html" target="_top" xlink:title=" ">
<polygon fill="white" stroke="black" points="853,-386 853,-405 981,-405 981,-386 853,-386"/>
<text text-anchor="middle" x="917" y="-393" font-family="Helvetica,sans-Serif" font-size="10.00">src/js/openenclave.cpp</text>
</a>
</g>
</g>
<!-- Node23&#45;&gt;Node29 -->
<g id="edge48" class="edge">
<title>Node23&#45;&gt;Node29</title>
<path fill="none" stroke="midnightblue" d="M917,-442.54C917,-430.17 917,-414.62 917,-405.13"/>
<polygon fill="midnightblue" stroke="midnightblue" points="913.5,-442.73 917,-452.73 920.5,-442.73 913.5,-442.73"/>
</g>
<!-- Node25&#45;&gt;Node19 -->
<g id="edge41" class="edge">
<title>Node25&#45;&gt;Node19</title>
<path fill="none" stroke="midnightblue" d="M1075.24,-379.57C1058.27,-366.74 1034.38,-348.69 1020.41,-338.13"/>
<polygon fill="midnightblue" stroke="midnightblue" points="1073.31,-382.5 1083.4,-385.73 1077.53,-376.91 1073.31,-382.5"/>
</g>
<!-- Node26&#45;&gt;Node19 -->
<g id="edge43" class="edge">
<title>Node26&#45;&gt;Node19</title>
<path fill="none" stroke="midnightblue" d="M693.71,-383.43C698.51,-382.2 703.35,-381.02 708,-380 798.3,-360.13 905.35,-343.88 964.36,-335.55"/>
<polygon fill="midnightblue" stroke="midnightblue" points="692.8,-380.05 684.03,-385.99 694.59,-386.81 692.8,-380.05"/>
</g>
<!-- Node27&#45;&gt;Node19 -->
<g id="edge45" class="edge">
<title>Node27&#45;&gt;Node19</title>
<path fill="none" stroke="midnightblue" d="M457,-383.49C462.68,-382.18 468.47,-380.96 474,-380 654.17,-348.77 872.06,-335.76 964.3,-331.38"/>
<polygon fill="midnightblue" stroke="midnightblue" points="455.87,-380.17 446.99,-385.94 457.53,-386.97 455.87,-380.17"/>
</g>
<!-- Node28&#45;&gt;Node19 -->
<g id="edge47" class="edge">
<title>Node28&#45;&gt;Node19</title>
<path fill="none" stroke="midnightblue" d="M582.72,-383.77C589.17,-382.4 595.74,-381.09 602,-380 732.81,-357.13 889.03,-340.78 964.22,-333.59"/>
<polygon fill="midnightblue" stroke="midnightblue" points="581.76,-380.4 572.75,-385.97 583.27,-387.24 581.76,-380.4"/>
</g>
<!-- Node30&#45;&gt;Node7 -->
<g id="edge53" class="edge">
<title>Node30&#45;&gt;Node7</title>
<path fill="none" stroke="midnightblue" d="M51.44,-169.2C51.7,-150.49 55.51,-125.6 72,-112 116.07,-75.65 967.89,-68.54 1205.77,-67.26"/>
<polygon fill="midnightblue" stroke="midnightblue" points="47.94,-169.43 51.63,-179.36 54.94,-169.3 47.94,-169.43"/>
</g>
<!-- Node31 -->
<g id="node31" class="node">
<title>Node31</title>
<g id="a_node31"><a xlink:href="historical__transaction__fetcher_8h.html" target="_top" xlink:title=" ">
<polygon fill="white" stroke="black" points="81.5,-112.5 81.5,-142.5 206.5,-142.5 206.5,-112.5 81.5,-112.5"/>
<text text-anchor="start" x="89.5" y="-130.5" font-family="Helvetica,sans-Serif" font-size="10.00">src/indexing/historical</text>
<text text-anchor="middle" x="144" y="-119.5" font-family="Helvetica,sans-Serif" font-size="10.00">_transaction_fetcher.h</text>
</a>
</g>
</g>
<!-- Node30&#45;&gt;Node31 -->
<g id="edge54" class="edge">
<title>Node30&#45;&gt;Node31</title>
<path fill="none" stroke="midnightblue" d="M81.07,-173.45C95.07,-163.45 111.66,-151.6 124.29,-142.58"/>
<polygon fill="midnightblue" stroke="midnightblue" points="78.85,-170.74 72.75,-179.4 82.92,-176.43 78.85,-170.74"/>
</g>
<!-- Node31&#45;&gt;Node7 -->
<g id="edge55" class="edge">
<title>Node31&#45;&gt;Node7</title>
<path fill="none" stroke="midnightblue" d="M216.53,-112.54C218.03,-112.35 219.52,-112.17 221,-112 593.21,-69.17 1044.16,-66.14 1205.75,-66.58"/>
<polygon fill="midnightblue" stroke="midnightblue" points="215.92,-109.1 206.5,-113.96 216.89,-116.03 215.92,-109.1"/>
</g>
<!-- Node32&#45;&gt;Node5 -->
<g id="edge57" class="edge">
<title>Node32&#45;&gt;Node5</title>
<path fill="none" stroke="midnightblue" d="M1485.42,-437.94C1489.98,-426.54 1495.18,-413.55 1498.52,-405.19"/>
<polygon fill="midnightblue" stroke="midnightblue" points="1482.11,-436.81 1481.64,-447.4 1488.61,-439.41 1482.11,-436.81"/>
</g>
<!-- Node33&#45;&gt;Node7 -->
<g id="edge59" class="edge">
<title>Node33&#45;&gt;Node7</title>
<path fill="none" stroke="midnightblue" d="M164.27,-241.98C176.54,-209.02 207.14,-140.94 259,-112 341.46,-65.98 1000.13,-65.56 1205.84,-66.57"/>
<polygon fill="midnightblue" stroke="midnightblue" points="160.87,-241.11 160.81,-251.7 167.46,-243.46 160.87,-241.11"/>
</g>
<!-- Node34&#45;&gt;Node7 -->
<g id="edge62" class="edge">
<title>Node34&#45;&gt;Node7</title>
<path fill="none" stroke="midnightblue" d="M213.59,-442.01C201.9,-434.11 190.49,-423.78 184,-411 177.77,-398.71 179.81,-393.12 184,-380 188.17,-366.95 317.03,-188.4 327,-179 367.83,-140.51 380.51,-128.94 434,-112 577.77,-66.47 1038.86,-65.24 1205.87,-66.36"/>
<polygon fill="midnightblue" stroke="midnightblue" points="211.76,-444.99 222.09,-447.34 215.48,-439.06 211.76,-444.99"/>
</g>
<!-- Node35 -->
<g id="node35" class="node">
<title>Node35</title>
<g id="a_node35"><a xlink:href="historical__queries__adapter_8cpp.html" target="_top" xlink:title=" ">
<polygon fill="white" stroke="black" points="193,-380.5 193,-410.5 313,-410.5 313,-380.5 193,-380.5"/>
<text text-anchor="start" x="201" y="-398.5" font-family="Helvetica,sans-Serif" font-size="10.00">src/node/historical</text>
<text text-anchor="middle" x="253" y="-387.5" font-family="Helvetica,sans-Serif" font-size="10.00">_queries_adapter.cpp</text>
</a>
</g>
</g>
<!-- Node34&#45;&gt;Node35 -->
<g id="edge63" class="edge">
<title>Node34&#45;&gt;Node35</title>
<path fill="none" stroke="midnightblue" d="M253,-437.11C253,-428.15 253,-418.32 253,-410.58"/>
<polygon fill="midnightblue" stroke="midnightblue" points="249.5,-437.4 253,-447.4 256.5,-437.4 249.5,-437.4"/>
</g>
<!-- Node36&#45;&gt;Node7 -->
<g id="edge66" class="edge">
<title>Node36&#45;&gt;Node7</title>
<path fill="none" stroke="midnightblue" d="M1891.12,-180.33C1854.67,-161.7 1784.14,-128.14 1720,-112 1582.81,-77.47 1416,-69.23 1328.06,-67.39"/>
<polygon fill="midnightblue" stroke="midnightblue" points="1889.55,-183.46 1900.04,-184.94 1892.76,-177.24 1889.55,-183.46"/>
</g>
<!-- Node37&#45;&gt;Node7 -->
<g id="edge69" class="edge">
<title>Node37&#45;&gt;Node7</title>
<path fill="none" stroke="midnightblue" d="M2116.34,-590.17C2207.63,-588.79 2355.27,-580.86 2395,-545 2422.61,-520.08 2414,-500.69 2414,-463.5 2414,-463.5 2414,-463.5 2414,-193.5 2414,-83.25 1565.95,-69.07 1328.26,-67.26"/>
<polygon fill="midnightblue" stroke="midnightblue" points="2116.28,-586.68 2106.32,-590.3 2116.37,-593.67 2116.28,-586.68"/>
</g>
<!-- Node37&#45;&gt;Node16 -->
<g id="edge80" class="edge">
<title>Node37&#45;&gt;Node16</title>
<path fill="none" stroke="midnightblue" d="M1968.61,-580.04C1907.97,-571.55 1819.71,-558.6 1743,-545 1740.27,-544.52 1737.49,-544.01 1734.69,-543.49"/>
<polygon fill="midnightblue" stroke="midnightblue" points="1968.46,-583.55 1978.85,-581.47 1969.43,-576.62 1968.46,-583.55"/>
</g>
<!-- Node37&#45;&gt;Node21 -->
<g id="edge81" class="edge">
<title>Node37&#45;&gt;Node21</title>
<path fill="none" stroke="midnightblue" d="M2018.66,-576.26C2004.37,-567.65 1985.85,-556.1 1970,-545 1899.02,-495.28 1818.6,-428.87 1790.42,-405.27"/>
<polygon fill="midnightblue" stroke="midnightblue" points="2016.99,-579.34 2027.37,-581.47 2020.58,-573.33 2016.99,-579.34"/>
</g>
<!-- Node38 -->
<g id="node38" class="node">
<title>Node38</title>
<g id="a_node38"><a xlink:href="src_2host_2enclave_8h.html" target="_top" xlink:title=" ">
<polygon fill="white" stroke="black" points="2280.5,-520 2280.5,-539 2385.5,-539 2385.5,-520 2280.5,-520"/>
<text text-anchor="middle" x="2333" y="-527" font-family="Helvetica,sans-Serif" font-size="10.00">src/host/enclave.h</text>
</a>
</g>
</g>
<!-- Node37&#45;&gt;Node38 -->
<g id="edge70" class="edge">
<title>Node37&#45;&gt;Node38</title>
<path fill="none" stroke="midnightblue" d="M2098.28,-579.64C2144.92,-570.9 2212.91,-557.8 2272,-545 2280.51,-543.16 2289.66,-541.05 2298.22,-539.02"/>
<polygon fill="midnightblue" stroke="midnightblue" points="2097.56,-576.22 2088.37,-581.49 2098.84,-583.1 2097.56,-576.22"/>
</g>
<!-- Node41 -->
<g id="node41" class="node">
<title>Node41</title>
<g id="a_node41"><a xlink:href="handle__ring__buffer_8h.html" target="_top" xlink:title=" ">
<polygon fill="white" stroke="black" points="1978.5,-514.5 1978.5,-544.5 2093.5,-544.5 2093.5,-514.5 1978.5,-514.5"/>
<text text-anchor="start" x="1986.5" y="-532.5" font-family="Helvetica,sans-Serif" font-size="10.00">src/host/handle_ring</text>
<text text-anchor="middle" x="2036" y="-521.5" font-family="Helvetica,sans-Serif" font-size="10.00">_buffer.h</text>
</a>
</g>
</g>
<!-- Node37&#45;&gt;Node41 -->
<g id="edge76" class="edge">
<title>Node37&#45;&gt;Node41</title>
<path fill="none" stroke="midnightblue" d="M2040.11,-571.23C2039.24,-562.59 2038.22,-552.5 2037.41,-544.52"/>
<polygon fill="midnightblue" stroke="midnightblue" points="2036.65,-571.88 2041.14,-581.48 2043.62,-571.17 2036.65,-571.88"/>
</g>
<!-- Node42 -->
<g id="node42" class="node">
<title>Node42</title>
<g id="a_node42"><a xlink:href="process__launcher_8h.html" target="_top" xlink:title=" ">
<polygon fill="white" stroke="black" points="2111.5,-520 2111.5,-539 2262.5,-539 2262.5,-520 2111.5,-520"/>
<text text-anchor="middle" x="2187" y="-527" font-family="Helvetica,sans-Serif" font-size="10.00">src/host/process_launcher.h</text>
</a>
</g>
</g>
<!-- Node37&#45;&gt;Node42 -->
<g id="edge78" class="edge">
<title>Node37&#45;&gt;Node42</title>
<path fill="none" stroke="midnightblue" d="M2072.14,-577.63C2100.31,-566.07 2141.62,-549.12 2166.26,-539.01"/>
<polygon fill="midnightblue" stroke="midnightblue" points="2070.7,-574.44 2062.77,-581.48 2073.36,-580.92 2070.7,-574.44"/>
</g>
<!-- Node38&#45;&gt;Node4 -->
<g id="edge71" class="edge">
<title>Node38&#45;&gt;Node4</title>
<path fill="none" stroke="midnightblue" d="M2287.01,-517.6C2236.31,-505.33 2160.39,-486.03 2149,-478 2121.62,-458.7 2103.01,-421.85 2095.59,-405.13"/>
<polygon fill="midnightblue" stroke="midnightblue" points="2286.24,-521.02 2296.78,-519.96 2287.88,-514.21 2286.24,-521.02"/>
</g>
<!-- Node39 -->
<g id="node39" class="node">
<title>Node39</title>
<g id="a_node39"><a xlink:href="sig__term_8h.html" target="_top" xlink:title=" ">
<polygon fill="white" stroke="black" points="2158,-453 2158,-472 2268,-472 2268,-453 2158,-453"/>
<text text-anchor="middle" x="2213" y="-460" font-family="Helvetica,sans-Serif" font-size="10.00">src/host/sig_term.h</text>
</a>
</g>
</g>
<!-- Node38&#45;&gt;Node39 -->
<g id="edge72" class="edge">
<title>Node38&#45;&gt;Node39</title>
<path fill="none" stroke="midnightblue" d="M2308,-514.96C2284.21,-502.07 2249.13,-483.07 2228.93,-472.13"/>
<polygon fill="midnightblue" stroke="midnightblue" points="2306.36,-518.05 2316.82,-519.73 2309.69,-511.89 2306.36,-518.05"/>
</g>
<!-- Node40 -->
<g id="node40" class="node">
<title>Node40</title>
<g id="a_node40"><a xlink:href="ticker_8h.html" target="_top" xlink:title=" ">
<polygon fill="white" stroke="black" points="2286.5,-453 2286.5,-472 2379.5,-472 2379.5,-453 2286.5,-453"/>
<text text-anchor="middle" x="2333" y="-460" font-family="Helvetica,sans-Serif" font-size="10.00">src/host/ticker.h</text>
</a>
</g>
</g>
<!-- Node38&#45;&gt;Node40 -->
<g id="edge74" class="edge">
<title>Node38&#45;&gt;Node40</title>
<path fill="none" stroke="midnightblue" d="M2333,-509.54C2333,-497.17 2333,-481.62 2333,-472.13"/>
<polygon fill="midnightblue" stroke="midnightblue" points="2329.5,-509.73 2333,-519.73 2336.5,-509.73 2329.5,-509.73"/>
</g>
<!-- Node39&#45;&gt;Node4 -->
<g id="edge73" class="edge">
<title>Node39&#45;&gt;Node4</title>
<path fill="none" stroke="midnightblue" d="M2187.79,-447.96C2163.8,-435.07 2128.44,-416.07 2108.06,-405.13"/>
<polygon fill="midnightblue" stroke="midnightblue" points="2186.22,-451.08 2196.68,-452.73 2189.53,-444.92 2186.22,-451.08"/>
</g>
<!-- Node40&#45;&gt;Node4 -->
<g id="edge75" class="edge">
<title>Node40&#45;&gt;Node4</title>
<path fill="none" stroke="midnightblue" d="M2291.3,-450.25C2243.66,-437.41 2166.77,-416.67 2123.75,-405.06"/>
<polygon fill="midnightblue" stroke="midnightblue" points="2290.43,-453.64 2301,-452.87 2292.25,-446.89 2290.43,-453.64"/>
</g>
<!-- Node41&#45;&gt;Node4 -->
<g id="edge77" class="edge">
<title>Node41&#45;&gt;Node4</title>
<path fill="none" stroke="midnightblue" d="M2045.93,-505.1C2058.59,-475.25 2079.87,-425.08 2088.35,-405.1"/>
<polygon fill="midnightblue" stroke="midnightblue" points="2042.68,-503.8 2041.99,-514.37 2049.12,-506.53 2042.68,-503.8"/>
</g>
<!-- Node42&#45;&gt;Node4 -->
<g id="edge79" class="edge">
<title>Node42&#45;&gt;Node4</title>
<path fill="none" stroke="midnightblue" d="M2159.77,-514.98C2144.86,-506.3 2127.2,-493.71 2116,-478 2099.64,-455.06 2094.33,-420.98 2092.69,-405.16"/>
<polygon fill="midnightblue" stroke="midnightblue" points="2158.16,-518.09 2168.61,-519.87 2161.55,-511.97 2158.16,-518.09"/>
</g>
</g>
</svg>
