<?xml version="1.0" encoding="UTF-8" standalone="no"?>
<!DOCTYPE svg PUBLIC "-//W3C//DTD SVG 1.1//EN"
 "http://www.w3.org/Graphics/SVG/1.1/DTD/svg11.dtd">
<!-- Generated by graphviz version 2.43.0 (0)
 -->
<!-- Title: src/quic/quic_endpoint.h Pages: 1 -->
<svg width="1756pt" height="364pt"
 viewBox="0.00 0.00 1755.50 364.00" xmlns="http://www.w3.org/2000/svg" xmlns:xlink="http://www.w3.org/1999/xlink">
<g id="graph0" class="graph" transform="scale(1 1) rotate(0) translate(4 360)">
<title>src/quic/quic_endpoint.h</title>
<polygon fill="white" stroke="transparent" points="-4,4 -4,-360 1751.5,-360 1751.5,4 -4,4"/>
<!-- Node1 -->
<g id="node1" class="node">
<title>Node1</title>
<g id="a_node1"><a xlink:title=" ">
<polygon fill="#bfbfbf" stroke="black" points="1093,-336.5 1093,-355.5 1227,-355.5 1227,-336.5 1093,-336.5"/>
<text text-anchor="middle" x="1160" y="-343.5" font-family="Helvetica,sans-Serif" font-size="10.00">src/quic/quic_endpoint.h</text>
</a>
</g>
</g>
<!-- Node2 -->
<g id="node2" class="node">
<title>Node2</title>
<g id="a_node2"><a xlink:href="logger_8h.html" target="_top" xlink:title=" ">
<polygon fill="white" stroke="black" points="1079.5,-168.5 1079.5,-187.5 1166.5,-187.5 1166.5,-168.5 1079.5,-168.5"/>
<text text-anchor="middle" x="1123" y="-175.5" font-family="Helvetica,sans-Serif" font-size="10.00">ccf/ds/logger.h</text>
</a>
</g>
</g>
<!-- Node1&#45;&gt;Node2 -->
<g id="edge1" class="edge">
<title>Node1&#45;&gt;Node2</title>
<path fill="none" stroke="midnightblue" d="M1153.37,-336.44C1140.94,-319.79 1114.51,-281.34 1105,-244 1100.94,-228.06 1106.75,-210.05 1112.83,-197.03"/>
<polygon fill="midnightblue" stroke="midnightblue" points="1116.12,-198.29 1117.57,-187.8 1109.89,-195.09 1116.12,-198.29"/>
</g>
<!-- Node17 -->
<g id="node17" class="node">
<title>Node17</title>
<g id="a_node17"><a xlink:href="messaging_8h.html" target="_top" xlink:title=" ">
<polygon fill="white" stroke="black" points="333.5,-280.5 333.5,-299.5 426.5,-299.5 426.5,-280.5 333.5,-280.5"/>
<text text-anchor="middle" x="380" y="-287.5" font-family="Helvetica,sans-Serif" font-size="10.00">ds/messaging.h</text>
</a>
</g>
</g>
<!-- Node1&#45;&gt;Node17 -->
<g id="edge18" class="edge">
<title>Node1&#45;&gt;Node17</title>
<path fill="none" stroke="midnightblue" d="M1092.82,-340.35C941.77,-329.89 577.55,-304.68 436.82,-294.93"/>
<polygon fill="midnightblue" stroke="midnightblue" points="436.9,-291.43 426.69,-294.23 436.42,-298.41 436.9,-291.43"/>
</g>
<!-- Node18 -->
<g id="node18" class="node">
<title>Node18</title>
<g id="a_node18"><a xlink:href="ring__buffer_8h.html" target="_top" xlink:title=" ">
<polygon fill="white" stroke="black" points="66.5,-224.5 66.5,-243.5 143.5,-243.5 143.5,-224.5 66.5,-224.5"/>
<text text-anchor="middle" x="105" y="-231.5" font-family="Helvetica,sans-Serif" font-size="10.00">ring_buffer.h</text>
</a>
</g>
</g>
<!-- Node1&#45;&gt;Node18 -->
<g id="edge70" class="edge">
<title>Node1&#45;&gt;Node18</title>
<path fill="none" stroke="midnightblue" d="M1092.81,-343.4C921.6,-339 472.09,-325.33 325,-300 256.51,-288.2 179.16,-262.29 136.86,-246.98"/>
<polygon fill="midnightblue" stroke="midnightblue" points="137.98,-243.66 127.39,-243.52 135.58,-250.24 137.98,-243.66"/>
</g>
<!-- Node44 -->
<g id="node44" class="node">
<title>Node44</title>
<g id="a_node44"><a xlink:href="pending__io_8h.html" target="_top" xlink:title=" ">
<polygon fill="white" stroke="black" points="1571.5,-280.5 1571.5,-299.5 1664.5,-299.5 1664.5,-280.5 1571.5,-280.5"/>
<text text-anchor="middle" x="1618" y="-287.5" font-family="Helvetica,sans-Serif" font-size="10.00">ds/pending_io.h</text>
</a>
</g>
</g>
<!-- Node1&#45;&gt;Node44 -->
<g id="edge68" class="edge">
<title>Node1&#45;&gt;Node44</title>
<path fill="none" stroke="midnightblue" d="M1227.34,-338.46C1305.17,-330.67 1437.38,-316.76 1561.23,-300.04"/>
<polygon fill="midnightblue" stroke="midnightblue" points="1561.84,-303.49 1571.27,-298.68 1560.89,-296.56 1561.84,-303.49"/>
</g>
<!-- Node46 -->
<g id="node46" class="node">
<title>Node46</title>
<g id="a_node46"><a xlink:href="thread__messaging_8h.html" target="_top" xlink:title=" ">
<polygon fill="white" stroke="black" points="1169,-280.5 1169,-299.5 1299,-299.5 1299,-280.5 1169,-280.5"/>
<text text-anchor="middle" x="1234" y="-287.5" font-family="Helvetica,sans-Serif" font-size="10.00">ds/thread_messaging.h</text>
</a>
</g>
</g>
<!-- Node1&#45;&gt;Node46 -->
<g id="edge71" class="edge">
<title>Node1&#45;&gt;Node46</title>
<path fill="none" stroke="midnightblue" d="M1171.89,-336.32C1183.15,-328.11 1200.29,-315.6 1213.71,-305.81"/>
<polygon fill="midnightblue" stroke="midnightblue" points="1215.88,-308.56 1221.89,-299.83 1211.75,-302.9 1215.88,-308.56"/>
</g>
<!-- Node49 -->
<g id="node49" class="node">
<title>Node49</title>
<g id="a_node49"><a xlink:href="src_2enclave_2endpoint_8h.html" target="_top" xlink:title=" ">
<polygon fill="white" stroke="black" points="1443,-280.5 1443,-299.5 1553,-299.5 1553,-280.5 1443,-280.5"/>
<text text-anchor="middle" x="1498" y="-287.5" font-family="Helvetica,sans-Serif" font-size="10.00">enclave/endpoint.h</text>
</a>
</g>
</g>
<!-- Node1&#45;&gt;Node49 -->
<g id="edge79" class="edge">
<title>Node1&#45;&gt;Node49</title>
<path fill="none" stroke="midnightblue" d="M1213.56,-336.44C1273.63,-326.85 1370.99,-311.29 1434.76,-301.1"/>
<polygon fill="midnightblue" stroke="midnightblue" points="1435.37,-304.55 1444.69,-299.52 1434.27,-297.64 1435.37,-304.55"/>
</g>
<!-- Node50 -->
<g id="node50" class="node">
<title>Node50</title>
<g id="a_node50"><a xlink:href="quic_2msg__types_8h.html" target="_top" xlink:title=" ">
<polygon fill="white" stroke="black" points="844,-224.5 844,-243.5 946,-243.5 946,-224.5 844,-224.5"/>
<text text-anchor="middle" x="895" y="-231.5" font-family="Helvetica,sans-Serif" font-size="10.00">quic/msg_types.h</text>
</a>
</g>
</g>
<!-- Node1&#45;&gt;Node50 -->
<g id="edge82" class="edge">
<title>Node1&#45;&gt;Node50</title>
<path fill="none" stroke="midnightblue" d="M1139.21,-336.37C1092.57,-317.01 979.47,-270.06 925.13,-247.51"/>
<polygon fill="midnightblue" stroke="midnightblue" points="926.28,-244.19 915.7,-243.59 923.59,-250.66 926.28,-244.19"/>
</g>
<!-- Node51 -->
<g id="node51" class="node">
<title>Node51</title>
<g id="a_node51"><a xlink:title=" ">
<polygon fill="white" stroke="#bfbfbf" points="1682.5,-280.5 1682.5,-299.5 1747.5,-299.5 1747.5,-280.5 1682.5,-280.5"/>
<text text-anchor="middle" x="1715" y="-287.5" font-family="Helvetica,sans-Serif" font-size="10.00">exception</text>
</a>
</g>
</g>
<!-- Node1&#45;&gt;Node51 -->
<g id="edge84" class="edge">
<title>Node1&#45;&gt;Node51</title>
<path fill="none" stroke="midnightblue" d="M1227.27,-341.88C1323.76,-336.79 1507.12,-324.84 1672.06,-300.12"/>
<polygon fill="midnightblue" stroke="midnightblue" points="1673.04,-303.52 1682.4,-298.55 1671.99,-296.59 1673.04,-303.52"/>
</g>
<!-- Node3 -->
<g id="node3" class="node">
<title>Node3</title>
<g id="a_node3"><a xlink:href="enum__formatter_8h.html" target="_top" xlink:title=" ">
<polygon fill="white" stroke="black" points="1270,-112.5 1270,-131.5 1406,-131.5 1406,-112.5 1270,-112.5"/>
<text text-anchor="middle" x="1338" y="-119.5" font-family="Helvetica,sans-Serif" font-size="10.00">ccf/ds/enum_formatter.h</text>
</a>
</g>
</g>
<!-- Node2&#45;&gt;Node3 -->
<g id="edge2" class="edge">
<title>Node2&#45;&gt;Node3</title>
<path fill="none" stroke="midnightblue" d="M1157.07,-168.44C1194.18,-159.12 1253.66,-144.18 1294.21,-134"/>
<polygon fill="midnightblue" stroke="midnightblue" points="1295.25,-137.35 1304.09,-131.52 1293.54,-130.56 1295.25,-137.35"/>
</g>
<!-- Node4 -->
<g id="node4" class="node">
<title>Node4</title>
<g id="a_node4"><a xlink:title=" ">
<polygon fill="white" stroke="#bfbfbf" points="1220.5,-56.5 1220.5,-75.5 1299.5,-75.5 1299.5,-56.5 1220.5,-56.5"/>
<text text-anchor="middle" x="1260" y="-63.5" font-family="Helvetica,sans-Serif" font-size="10.00">fmt/format.h</text>
</a>
</g>
</g>
<!-- Node2&#45;&gt;Node4 -->
<g id="edge12" class="edge">
<title>Node2&#45;&gt;Node4</title>
<path fill="none" stroke="midnightblue" d="M1166.63,-176.92C1240.09,-175.75 1383.53,-168.7 1415,-132 1420.79,-125.25 1420.34,-119.11 1415,-112 1408.35,-103.14 1350.74,-88.05 1307.68,-77.81"/>
<polygon fill="midnightblue" stroke="midnightblue" points="1308.46,-74.39 1297.92,-75.51 1306.85,-81.21 1308.46,-74.39"/>
</g>
<!-- Node5 -->
<g id="node5" class="node">
<title>Node5</title>
<g id="a_node5"><a xlink:href="thread__ids_8h.html" target="_top" xlink:title=" ">
<polygon fill="white" stroke="black" points="1462,-112.5 1462,-131.5 1570,-131.5 1570,-112.5 1462,-112.5"/>
<text text-anchor="middle" x="1516" y="-119.5" font-family="Helvetica,sans-Serif" font-size="10.00">ccf/ds/thread_ids.h</text>
</a>
</g>
</g>
<!-- Node2&#45;&gt;Node5 -->
<g id="edge4" class="edge">
<title>Node2&#45;&gt;Node5</title>
<path fill="none" stroke="midnightblue" d="M1166.56,-171.01C1235.84,-161.5 1371.51,-142.85 1451.9,-131.81"/>
<polygon fill="midnightblue" stroke="midnightblue" points="1452.47,-135.26 1461.9,-130.43 1451.51,-128.33 1452.47,-135.26"/>
</g>
<!-- Node11 -->
<g id="node11" class="node">
<title>Node11</title>
<g id="a_node11"><a xlink:title=" ">
<polygon fill="white" stroke="#bfbfbf" points="893.5,-112.5 893.5,-131.5 972.5,-131.5 972.5,-112.5 893.5,-112.5"/>
<text text-anchor="middle" x="933" y="-119.5" font-family="Helvetica,sans-Serif" font-size="10.00">fmt/chrono.h</text>
</a>
</g>
</g>
<!-- Node2&#45;&gt;Node11 -->
<g id="edge11" class="edge">
<title>Node2&#45;&gt;Node11</title>
<path fill="none" stroke="midnightblue" d="M1092.89,-168.44C1060.37,-159.2 1008.42,-144.44 972.61,-134.26"/>
<polygon fill="midnightblue" stroke="midnightblue" points="973.54,-130.88 962.97,-131.52 971.63,-137.62 973.54,-130.88"/>
</g>
<!-- Node12 -->
<g id="node12" class="node">
<title>Node12</title>
<g id="a_node12"><a xlink:title=" ">
<polygon fill="white" stroke="#bfbfbf" points="990,-112.5 990,-131.5 1050,-131.5 1050,-112.5 990,-112.5"/>
<text text-anchor="middle" x="1020" y="-119.5" font-family="Helvetica,sans-Serif" font-size="10.00">iostream</text>
</a>
</g>
</g>
<!-- Node2&#45;&gt;Node12 -->
<g id="edge13" class="edge">
<title>Node2&#45;&gt;Node12</title>
<path fill="none" stroke="midnightblue" d="M1106.45,-168.32C1090.01,-159.7 1064.57,-146.36 1045.53,-136.39"/>
<polygon fill="midnightblue" stroke="midnightblue" points="1046.99,-133.2 1036.51,-131.65 1043.74,-139.4 1046.99,-133.2"/>
</g>
<!-- Node13 -->
<g id="node13" class="node">
<title>Node13</title>
<g id="a_node13"><a xlink:title=" ">
<polygon fill="white" stroke="#bfbfbf" points="1068,-112.5 1068,-131.5 1178,-131.5 1178,-112.5 1068,-112.5"/>
<text text-anchor="middle" x="1123" y="-119.5" font-family="Helvetica,sans-Serif" font-size="10.00">nlohmann/json.hpp</text>
</a>
</g>
</g>
<!-- Node2&#45;&gt;Node13 -->
<g id="edge14" class="edge">
<title>Node2&#45;&gt;Node13</title>
<path fill="none" stroke="midnightblue" d="M1123,-168.08C1123,-161.01 1123,-150.86 1123,-141.99"/>
<polygon fill="midnightblue" stroke="midnightblue" points="1126.5,-141.75 1123,-131.75 1119.5,-141.75 1126.5,-141.75"/>
</g>
<!-- Node14 -->
<g id="node14" class="node">
<title>Node14</title>
<g id="a_node14"><a xlink:title=" ">
<polygon fill="white" stroke="#bfbfbf" points="819,-112.5 819,-131.5 875,-131.5 875,-112.5 819,-112.5"/>
<text text-anchor="middle" x="847" y="-119.5" font-family="Helvetica,sans-Serif" font-size="10.00">optional</text>
</a>
</g>
</g>
<!-- Node2&#45;&gt;Node14 -->
<g id="edge15" class="edge">
<title>Node2&#45;&gt;Node14</title>
<path fill="none" stroke="midnightblue" d="M1079.45,-169.38C1031.64,-160.88 952.66,-146.4 885,-132 884.9,-131.98 884.8,-131.96 884.7,-131.94"/>
<polygon fill="midnightblue" stroke="midnightblue" points="885.71,-128.58 875.19,-129.83 884.19,-135.41 885.71,-128.58"/>
</g>
<!-- Node15 -->
<g id="node15" class="node">
<title>Node15</title>
<g id="a_node15"><a xlink:title=" ">
<polygon fill="white" stroke="#bfbfbf" points="1196,-112.5 1196,-131.5 1252,-131.5 1252,-112.5 1196,-112.5"/>
<text text-anchor="middle" x="1224" y="-119.5" font-family="Helvetica,sans-Serif" font-size="10.00">sstream</text>
</a>
</g>
</g>
<!-- Node2&#45;&gt;Node15 -->
<g id="edge16" class="edge">
<title>Node2&#45;&gt;Node15</title>
<path fill="none" stroke="midnightblue" d="M1139.23,-168.32C1155.35,-159.7 1180.3,-146.36 1198.96,-136.39"/>
<polygon fill="midnightblue" stroke="midnightblue" points="1200.64,-139.46 1207.81,-131.65 1197.34,-133.28 1200.64,-139.46"/>
</g>
<!-- Node16 -->
<g id="node16" class="node">
<title>Node16</title>
<g id="a_node16"><a xlink:title=" ">
<polygon fill="white" stroke="#bfbfbf" points="386.5,-0.5 386.5,-19.5 455.5,-19.5 455.5,-0.5 386.5,-0.5"/>
<text text-anchor="middle" x="421" y="-7.5" font-family="Helvetica,sans-Serif" font-size="10.00">type_traits</text>
</a>
</g>
</g>
<!-- Node2&#45;&gt;Node16 -->
<g id="edge17" class="edge">
<title>Node2&#45;&gt;Node16</title>
<path fill="none" stroke="midnightblue" d="M1079.24,-176.29C969.61,-174.04 685.74,-165.08 598,-132 544.77,-111.93 542.24,-87.7 495,-56 478.61,-45 459.58,-33.45 444.92,-24.81"/>
<polygon fill="midnightblue" stroke="midnightblue" points="446.38,-21.61 435.99,-19.58 442.85,-27.65 446.38,-21.61"/>
</g>
<!-- Node3&#45;&gt;Node4 -->
<g id="edge3" class="edge">
<title>Node3&#45;&gt;Node4</title>
<path fill="none" stroke="midnightblue" d="M1325.47,-112.32C1313.41,-103.98 1294.97,-91.21 1280.73,-81.35"/>
<polygon fill="midnightblue" stroke="midnightblue" points="1282.72,-78.47 1272.5,-75.65 1278.73,-84.22 1282.72,-78.47"/>
</g>
<!-- Node5&#45;&gt;Node4 -->
<g id="edge5" class="edge">
<title>Node5&#45;&gt;Node4</title>
<path fill="none" stroke="midnightblue" d="M1475.44,-112.44C1430.42,-102.95 1357.77,-87.62 1309.45,-77.43"/>
<polygon fill="midnightblue" stroke="midnightblue" points="1310.04,-73.98 1299.53,-75.34 1308.6,-80.83 1310.04,-73.98"/>
</g>
<!-- Node6 -->
<g id="node6" class="node">
<title>Node6</title>
<g id="a_node6"><a xlink:title=" ">
<polygon fill="white" stroke="#bfbfbf" points="1374,-56.5 1374,-75.5 1460,-75.5 1460,-56.5 1374,-56.5"/>
<text text-anchor="middle" x="1417" y="-63.5" font-family="Helvetica,sans-Serif" font-size="10.00">fmt/ostream.h</text>
</a>
</g>
</g>
<!-- Node5&#45;&gt;Node6 -->
<g id="edge6" class="edge">
<title>Node5&#45;&gt;Node6</title>
<path fill="none" stroke="midnightblue" d="M1500.09,-112.32C1484.36,-103.74 1460.06,-90.49 1441.79,-80.52"/>
<polygon fill="midnightblue" stroke="midnightblue" points="1443.32,-77.37 1432.87,-75.65 1439.97,-83.52 1443.32,-77.37"/>
</g>
<!-- Node7 -->
<g id="node7" class="node">
<title>Node7</title>
<g id="a_node7"><a xlink:title=" ">
<polygon fill="white" stroke="#bfbfbf" points="1478.5,-56.5 1478.5,-75.5 1539.5,-75.5 1539.5,-56.5 1478.5,-56.5"/>
<text text-anchor="middle" x="1509" y="-63.5" font-family="Helvetica,sans-Serif" font-size="10.00">fmt/std.h</text>
</a>
</g>
</g>
<!-- Node5&#45;&gt;Node7 -->
<g id="edge7" class="edge">
<title>Node5&#45;&gt;Node7</title>
<path fill="none" stroke="midnightblue" d="M1514.84,-112.08C1513.92,-104.93 1512.58,-94.64 1511.42,-85.69"/>
<polygon fill="midnightblue" stroke="midnightblue" points="1514.89,-85.22 1510.13,-75.75 1507.95,-86.12 1514.89,-85.22"/>
</g>
<!-- Node8 -->
<g id="node8" class="node">
<title>Node8</title>
<g id="a_node8"><a xlink:title=" ">
<polygon fill="white" stroke="#bfbfbf" points="726,-56.5 726,-75.5 770,-75.5 770,-56.5 726,-56.5"/>
<text text-anchor="middle" x="748" y="-63.5" font-family="Helvetica,sans-Serif" font-size="10.00">limits</text>
</a>
</g>
</g>
<!-- Node5&#45;&gt;Node8 -->
<g id="edge8" class="edge">
<title>Node5&#45;&gt;Node8</title>
<path fill="none" stroke="midnightblue" d="M1461.77,-115.88C1446.64,-114.53 1430.19,-113.13 1415,-112 1149.48,-92.18 1082.06,-101.23 817,-76 804.94,-74.85 791.74,-73.22 780.14,-71.66"/>
<polygon fill="midnightblue" stroke="midnightblue" points="780.4,-68.17 770.02,-70.27 779.45,-75.1 780.4,-68.17"/>
</g>
<!-- Node9 -->
<g id="node9" class="node">
<title>Node9</title>
<g id="a_node9"><a xlink:title=" ">
<polygon fill="white" stroke="#bfbfbf" points="1318,-56.5 1318,-75.5 1356,-75.5 1356,-56.5 1318,-56.5"/>
<text text-anchor="middle" x="1337" y="-63.5" font-family="Helvetica,sans-Serif" font-size="10.00">map</text>
</a>
</g>
</g>
<!-- Node5&#45;&gt;Node9 -->
<g id="edge9" class="edge">
<title>Node5&#45;&gt;Node9</title>
<path fill="none" stroke="midnightblue" d="M1486.71,-112.47C1458.21,-104.13 1413.45,-90.91 1366.08,-76.29"/>
<polygon fill="midnightblue" stroke="midnightblue" points="1366.85,-72.87 1356.26,-73.25 1364.78,-79.55 1366.85,-72.87"/>
</g>
<!-- Node10 -->
<g id="node10" class="node">
<title>Node10</title>
<g id="a_node10"><a xlink:title=" ">
<polygon fill="white" stroke="#bfbfbf" points="1558,-56.5 1558,-75.5 1606,-75.5 1606,-56.5 1558,-56.5"/>
<text text-anchor="middle" x="1582" y="-63.5" font-family="Helvetica,sans-Serif" font-size="10.00">thread</text>
</a>
</g>
</g>
<!-- Node5&#45;&gt;Node10 -->
<g id="edge10" class="edge">
<title>Node5&#45;&gt;Node10</title>
<path fill="none" stroke="midnightblue" d="M1526.6,-112.32C1536.46,-104.26 1551.35,-92.08 1563.22,-82.37"/>
<polygon fill="midnightblue" stroke="midnightblue" points="1565.68,-84.88 1571.2,-75.83 1561.25,-79.46 1565.68,-84.88"/>
</g>
<!-- Node17&#45;&gt;Node2 -->
<g id="edge19" class="edge">
<title>Node17&#45;&gt;Node2</title>
<path fill="none" stroke="midnightblue" d="M426.59,-287.1C544.9,-282 854.68,-266.82 955,-244 1006.96,-232.18 1064.17,-207.31 1096.63,-191.98"/>
<polygon fill="midnightblue" stroke="midnightblue" points="1098.36,-195.03 1105.87,-187.56 1095.34,-188.72 1098.36,-195.03"/>
</g>
<!-- Node17&#45;&gt;Node9 -->
<g id="edge66" class="edge">
<title>Node17&#45;&gt;Node9</title>
<path fill="none" stroke="midnightblue" d="M403.76,-280.4C450.1,-263.5 555.66,-224.46 643,-188 698.8,-164.71 712.03,-157.2 767,-132 786.16,-123.22 789.6,-117.29 810,-112 1022.08,-57.01 1088.76,-116.53 1308,-75.7"/>
<polygon fill="midnightblue" stroke="midnightblue" points="1308.71,-79.13 1317.88,-73.81 1307.4,-72.25 1308.71,-79.13"/>
</g>
<!-- Node17&#45;&gt;Node18 -->
<g id="edge20" class="edge">
<title>Node17&#45;&gt;Node18</title>
<path fill="none" stroke="midnightblue" d="M336.43,-280.44C286.73,-270.69 205.68,-254.77 153.88,-244.6"/>
<polygon fill="midnightblue" stroke="midnightblue" points="154.41,-241.14 143.92,-242.64 153.06,-248 154.41,-241.14"/>
</g>
<!-- Node37 -->
<g id="node37" class="node">
<title>Node37</title>
<g id="a_node37"><a xlink:title=" ">
<polygon fill="white" stroke="#bfbfbf" points="173.5,-0.5 173.5,-19.5 238.5,-19.5 238.5,-0.5 173.5,-0.5"/>
<text text-anchor="middle" x="206" y="-7.5" font-family="Helvetica,sans-Serif" font-size="10.00">stdexcept</text>
</a>
</g>
</g>
<!-- Node17&#45;&gt;Node37 -->
<g id="edge67" class="edge">
<title>Node17&#45;&gt;Node37</title>
<path fill="none" stroke="midnightblue" d="M333.32,-284.77C272,-276.35 172,-251.51 172,-179 172,-179 172,-179 172,-121 172,-87.16 186.87,-49.97 196.94,-28.66"/>
<polygon fill="midnightblue" stroke="midnightblue" points="200.14,-30.08 201.41,-19.56 193.86,-26.99 200.14,-30.08"/>
</g>
<!-- Node40 -->
<g id="node40" class="node">
<title>Node40</title>
<g id="a_node40"><a xlink:title=" ">
<polygon fill="white" stroke="#bfbfbf" points="228,-112.5 228,-131.5 278,-131.5 278,-112.5 228,-112.5"/>
<text text-anchor="middle" x="253" y="-119.5" font-family="Helvetica,sans-Serif" font-size="10.00">atomic</text>
</a>
</g>
</g>
<!-- Node17&#45;&gt;Node40 -->
<g id="edge64" class="edge">
<title>Node17&#45;&gt;Node40</title>
<path fill="none" stroke="midnightblue" d="M364.47,-280.45C350.92,-272.41 331.39,-259.33 318,-244 290.14,-212.1 269.65,-166.21 259.71,-141.11"/>
<polygon fill="midnightblue" stroke="midnightblue" points="262.96,-139.81 256.11,-131.72 256.43,-142.31 262.96,-139.81"/>
</g>
<!-- Node43 -->
<g id="node43" class="node">
<title>Node43</title>
<g id="a_node43"><a xlink:title=" ">
<polygon fill="white" stroke="#bfbfbf" points="326.5,-224.5 326.5,-243.5 433.5,-243.5 433.5,-224.5 326.5,-224.5"/>
<text text-anchor="middle" x="380" y="-231.5" font-family="Helvetica,sans-Serif" font-size="10.00">condition_variable</text>
</a>
</g>
</g>
<!-- Node17&#45;&gt;Node43 -->
<g id="edge65" class="edge">
<title>Node17&#45;&gt;Node43</title>
<path fill="none" stroke="midnightblue" d="M380,-280.08C380,-273.01 380,-262.86 380,-253.99"/>
<polygon fill="midnightblue" stroke="midnightblue" points="383.5,-253.75 380,-243.75 376.5,-253.75 383.5,-253.75"/>
</g>
<!-- Node19 -->
<g id="node19" class="node">
<title>Node19</title>
<g id="a_node19"><a xlink:href="mem_8h.html" target="_top" xlink:title=" ">
<polygon fill="white" stroke="black" points="0,-112.5 0,-131.5 86,-131.5 86,-112.5 0,-112.5"/>
<text text-anchor="middle" x="43" y="-119.5" font-family="Helvetica,sans-Serif" font-size="10.00">ccf/pal/mem.h</text>
</a>
</g>
</g>
<!-- Node18&#45;&gt;Node19 -->
<g id="edge21" class="edge">
<title>Node18&#45;&gt;Node19</title>
<path fill="none" stroke="midnightblue" d="M78.07,-224.36C61.28,-217.41 41.02,-205.82 31,-188 22.84,-173.49 27.78,-154.56 33.59,-140.87"/>
<polygon fill="midnightblue" stroke="midnightblue" points="36.87,-142.12 38.01,-131.59 30.55,-139.12 36.87,-142.12"/>
</g>
<!-- Node21 -->
<g id="node21" class="node">
<title>Node21</title>
<g id="a_node21"><a xlink:title=" ">
<polygon fill="white" stroke="#bfbfbf" points="105,-0.5 105,-19.5 155,-19.5 155,-0.5 105,-0.5"/>
<text text-anchor="middle" x="130" y="-7.5" font-family="Helvetica,sans-Serif" font-size="10.00">cstring</text>
</a>
</g>
</g>
<!-- Node18&#45;&gt;Node21 -->
<g id="edge62" class="edge">
<title>Node18&#45;&gt;Node21</title>
<path fill="none" stroke="midnightblue" d="M107,-224.42C109.04,-215.4 112.15,-200.77 114,-188 122.31,-130.62 127.04,-62.1 128.97,-29.72"/>
<polygon fill="midnightblue" stroke="midnightblue" points="132.48,-29.7 129.56,-19.51 125.49,-29.3 132.48,-29.7"/>
</g>
<!-- Node22 -->
<g id="node22" class="node">
<title>Node22</title>
<g id="a_node22"><a xlink:href="ring__buffer__types_8h.html" target="_top" xlink:title=" ">
<polygon fill="white" stroke="black" points="524,-168.5 524,-187.5 634,-187.5 634,-168.5 524,-168.5"/>
<text text-anchor="middle" x="579" y="-175.5" font-family="Helvetica,sans-Serif" font-size="10.00">ring_buffer_types.h</text>
</a>
</g>
</g>
<!-- Node18&#45;&gt;Node22 -->
<g id="edge25" class="edge">
<title>Node18&#45;&gt;Node22</title>
<path fill="none" stroke="midnightblue" d="M143.79,-228.58C225.02,-219.33 413.75,-197.83 513.89,-186.42"/>
<polygon fill="midnightblue" stroke="midnightblue" points="514.35,-189.89 523.89,-185.28 513.56,-182.93 514.35,-189.89"/>
</g>
<!-- Node42 -->
<g id="node42" class="node">
<title>Node42</title>
<g id="a_node42"><a xlink:title=" ">
<polygon fill="white" stroke="#bfbfbf" points="40.5,-168.5 40.5,-187.5 105.5,-187.5 105.5,-168.5 40.5,-168.5"/>
<text text-anchor="middle" x="73" y="-175.5" font-family="Helvetica,sans-Serif" font-size="10.00">functional</text>
</a>
</g>
</g>
<!-- Node18&#45;&gt;Node42 -->
<g id="edge63" class="edge">
<title>Node18&#45;&gt;Node42</title>
<path fill="none" stroke="midnightblue" d="M99.72,-224.08C95.29,-216.61 88.84,-205.72 83.38,-196.52"/>
<polygon fill="midnightblue" stroke="midnightblue" points="86.29,-194.57 78.19,-187.75 80.27,-198.14 86.29,-194.57"/>
</g>
<!-- Node19&#45;&gt;Node8 -->
<g id="edge24" class="edge">
<title>Node19&#45;&gt;Node8</title>
<path fill="none" stroke="midnightblue" d="M86.16,-117.88C184.58,-110.75 433.17,-92.56 641,-76 666.12,-74 694.54,-71.6 715.78,-69.78"/>
<polygon fill="midnightblue" stroke="midnightblue" points="716.21,-73.26 725.87,-68.92 715.61,-66.29 716.21,-73.26"/>
</g>
<!-- Node20 -->
<g id="node20" class="node">
<title>Node20</title>
<g id="a_node20"><a xlink:title=" ">
<polygon fill="white" stroke="#bfbfbf" points="52.5,-56.5 52.5,-75.5 105.5,-75.5 105.5,-56.5 52.5,-56.5"/>
<text text-anchor="middle" x="79" y="-63.5" font-family="Helvetica,sans-Serif" font-size="10.00">stdlib.h</text>
</a>
</g>
</g>
<!-- Node19&#45;&gt;Node20 -->
<g id="edge22" class="edge">
<title>Node19&#45;&gt;Node20</title>
<path fill="none" stroke="midnightblue" d="M48.94,-112.08C53.98,-104.53 61.34,-93.49 67.51,-84.23"/>
<polygon fill="midnightblue" stroke="midnightblue" points="70.53,-86.01 73.17,-75.75 64.71,-82.13 70.53,-86.01"/>
</g>
<!-- Node19&#45;&gt;Node21 -->
<g id="edge23" class="edge">
<title>Node19&#45;&gt;Node21</title>
<path fill="none" stroke="midnightblue" d="M40.32,-112.24C36.83,-99 32.32,-73.54 43,-56 54.37,-37.32 76.27,-26.05 95.25,-19.46"/>
<polygon fill="midnightblue" stroke="midnightblue" points="96.36,-22.78 104.84,-16.43 94.25,-16.11 96.36,-22.78"/>
</g>
<!-- Node22&#45;&gt;Node4 -->
<g id="edge57" class="edge">
<title>Node22&#45;&gt;Node4</title>
<path fill="none" stroke="midnightblue" d="M610.91,-168.46C641.49,-160.03 688.8,-146.36 729,-132 750.76,-124.22 754.55,-117.48 777,-112 962.89,-66.66 1016.14,-99.75 1206,-76 1207.3,-75.84 1208.62,-75.67 1209.94,-75.49"/>
<polygon fill="midnightblue" stroke="midnightblue" points="1210.84,-78.89 1220.24,-74 1209.84,-71.97 1210.84,-78.89"/>
</g>
<!-- Node22&#45;&gt;Node14 -->
<g id="edge58" class="edge">
<title>Node22&#45;&gt;Node14</title>
<path fill="none" stroke="midnightblue" d="M621.47,-168.44C673,-158.06 759.14,-140.7 808.71,-130.71"/>
<polygon fill="midnightblue" stroke="midnightblue" points="809.6,-134.11 818.71,-128.7 808.22,-127.24 809.6,-134.11"/>
</g>
<!-- Node23 -->
<g id="node23" class="node">
<title>Node23</title>
<g id="a_node23"><a xlink:href="include_2ccf_2ds_2hash_8h.html" target="_top" xlink:title=" ">
<polygon fill="white" stroke="black" points="607,-112.5 607,-131.5 687,-131.5 687,-112.5 607,-112.5"/>
<text text-anchor="middle" x="647" y="-119.5" font-family="Helvetica,sans-Serif" font-size="10.00">ccf/ds/hash.h</text>
</a>
</g>
</g>
<!-- Node22&#45;&gt;Node23 -->
<g id="edge26" class="edge">
<title>Node22&#45;&gt;Node23</title>
<path fill="none" stroke="midnightblue" d="M589.93,-168.32C600.17,-160.18 615.72,-147.84 628,-138.09"/>
<polygon fill="midnightblue" stroke="midnightblue" points="630.22,-140.79 635.88,-131.83 625.87,-135.31 630.22,-140.79"/>
</g>
<!-- Node27 -->
<g id="node27" class="node">
<title>Node27</title>
<g id="a_node27"><a xlink:title=" ">
<polygon fill="white" stroke="#bfbfbf" points="1030.5,-0.5 1030.5,-19.5 1077.5,-19.5 1077.5,-0.5 1030.5,-0.5"/>
<text text-anchor="middle" x="1054" y="-7.5" font-family="Helvetica,sans-Serif" font-size="10.00">vector</text>
</a>
</g>
</g>
<!-- Node22&#45;&gt;Node27 -->
<g id="edge61" class="edge">
<title>Node22&#45;&gt;Node27</title>
<path fill="none" stroke="midnightblue" d="M605.12,-168.45C629.21,-160.22 665.71,-146.86 696,-132 711.4,-124.45 712.68,-117.28 729,-112 823.18,-81.53 1105.89,-148.77 1173,-76 1201.58,-45.01 1131.96,-25.58 1087.54,-16.69"/>
<polygon fill="midnightblue" stroke="midnightblue" points="1088.15,-13.24 1077.67,-14.8 1086.84,-20.12 1088.15,-13.24"/>
</g>
<!-- Node31 -->
<g id="node31" class="node">
<title>Node31</title>
<g id="a_node31"><a xlink:href="nonstd_8h.html" target="_top" xlink:title=" ">
<polygon fill="white" stroke="black" points="542,-56.5 542,-75.5 632,-75.5 632,-56.5 542,-56.5"/>
<text text-anchor="middle" x="587" y="-63.5" font-family="Helvetica,sans-Serif" font-size="10.00">ccf/ds/nonstd.h</text>
</a>
</g>
</g>
<!-- Node22&#45;&gt;Node31 -->
<g id="edge36" class="edge">
<title>Node22&#45;&gt;Node31</title>
<path fill="none" stroke="midnightblue" d="M579.63,-168.37C580.92,-150.62 583.9,-109.67 585.65,-85.6"/>
<polygon fill="midnightblue" stroke="midnightblue" points="589.14,-85.82 586.38,-75.59 582.16,-85.31 589.14,-85.82"/>
</g>
<!-- Node34 -->
<g id="node34" class="node">
<title>Node34</title>
<g id="a_node34"><a xlink:title=" ">
<polygon fill="white" stroke="#bfbfbf" points="257,-0.5 257,-19.5 301,-19.5 301,-0.5 257,-0.5"/>
<text text-anchor="middle" x="279" y="-7.5" font-family="Helvetica,sans-Serif" font-size="10.00">string</text>
</a>
</g>
</g>
<!-- Node22&#45;&gt;Node34 -->
<g id="edge60" class="edge">
<title>Node22&#45;&gt;Node34</title>
<path fill="none" stroke="midnightblue" d="M523.77,-169.6C477.46,-162.54 409.95,-150.27 353,-132 324.21,-122.77 245.4,-101.4 229,-76 217.25,-57.81 237.12,-38.29 255.18,-25.44"/>
<polygon fill="midnightblue" stroke="midnightblue" points="257.38,-28.17 263.75,-19.7 253.49,-22.35 257.38,-28.17"/>
</g>
<!-- Node35 -->
<g id="node35" class="node">
<title>Node35</title>
<g id="a_node35"><a xlink:href="serializer_8h.html" target="_top" xlink:title=" ">
<polygon fill="white" stroke="black" points="362,-112.5 362,-131.5 432,-131.5 432,-112.5 362,-112.5"/>
<text text-anchor="middle" x="397" y="-119.5" font-family="Helvetica,sans-Serif" font-size="10.00">serializer.h</text>
</a>
</g>
</g>
<!-- Node22&#45;&gt;Node35 -->
<g id="edge44" class="edge">
<title>Node22&#45;&gt;Node35</title>
<path fill="none" stroke="midnightblue" d="M550.16,-168.44C519.14,-159.24 469.67,-144.56 435.38,-134.39"/>
<polygon fill="midnightblue" stroke="midnightblue" points="436.29,-131.01 425.7,-131.52 434.29,-137.72 436.29,-131.01"/>
</g>
<!-- Node22&#45;&gt;Node40 -->
<g id="edge56" class="edge">
<title>Node22&#45;&gt;Node40</title>
<path fill="none" stroke="midnightblue" d="M523.78,-169.53C465.84,-161.42 372.22,-147.52 292,-132 290.73,-131.75 289.45,-131.5 288.15,-131.23"/>
<polygon fill="midnightblue" stroke="midnightblue" points="288.63,-127.76 278.12,-129.07 287.16,-134.6 288.63,-127.76"/>
</g>
<!-- Node41 -->
<g id="node41" class="node">
<title>Node41</title>
<g id="a_node41"><a xlink:title=" ">
<polygon fill="white" stroke="#bfbfbf" points="450,-112.5 450,-131.5 490,-131.5 490,-112.5 450,-112.5"/>
<text text-anchor="middle" x="470" y="-119.5" font-family="Helvetica,sans-Serif" font-size="10.00">span</text>
</a>
</g>
</g>
<!-- Node22&#45;&gt;Node41 -->
<g id="edge59" class="edge">
<title>Node22&#45;&gt;Node41</title>
<path fill="none" stroke="midnightblue" d="M561.49,-168.32C543.93,-159.62 516.67,-146.12 496.47,-136.11"/>
<polygon fill="midnightblue" stroke="midnightblue" points="497.98,-132.96 487.47,-131.65 494.88,-139.23 497.98,-132.96"/>
</g>
<!-- Node24 -->
<g id="node24" class="node">
<title>Node24</title>
<g id="a_node24"><a xlink:href="siphash_8h.html" target="_top" xlink:title=" ">
<polygon fill="white" stroke="black" points="1068.5,-56.5 1068.5,-75.5 1163.5,-75.5 1163.5,-56.5 1068.5,-56.5"/>
<text text-anchor="middle" x="1116" y="-63.5" font-family="Helvetica,sans-Serif" font-size="10.00">ccf/ds/siphash.h</text>
</a>
</g>
</g>
<!-- Node23&#45;&gt;Node24 -->
<g id="edge27" class="edge">
<title>Node23&#45;&gt;Node24</title>
<path fill="none" stroke="midnightblue" d="M687.06,-114.03C691.75,-113.3 696.48,-112.61 701,-112 857.3,-91.03 897.49,-95.33 1054,-76 1055.31,-75.84 1056.63,-75.67 1057.96,-75.5"/>
<polygon fill="midnightblue" stroke="midnightblue" points="1058.85,-78.92 1068.3,-74.13 1057.93,-71.98 1058.85,-78.92"/>
</g>
<!-- Node26 -->
<g id="node26" class="node">
<title>Node26</title>
<g id="a_node26"><a xlink:title=" ">
<polygon fill="white" stroke="#bfbfbf" points="962,-0.5 962,-19.5 1012,-19.5 1012,-0.5 962,-0.5"/>
<text text-anchor="middle" x="987" y="-7.5" font-family="Helvetica,sans-Serif" font-size="10.00">cstdint</text>
</a>
</g>
</g>
<!-- Node23&#45;&gt;Node26 -->
<g id="edge32" class="edge">
<title>Node23&#45;&gt;Node26</title>
<path fill="none" stroke="midnightblue" d="M687.08,-114.14C691.77,-113.39 696.49,-112.66 701,-112 763.72,-102.79 941.01,-122.59 984,-76 995.23,-63.83 994.58,-44.27 991.98,-29.79"/>
<polygon fill="midnightblue" stroke="midnightblue" points="995.36,-28.9 989.77,-19.91 988.53,-30.43 995.36,-28.9"/>
</g>
<!-- Node23&#45;&gt;Node27 -->
<g id="edge35" class="edge">
<title>Node23&#45;&gt;Node27</title>
<path fill="none" stroke="midnightblue" d="M687.07,-114.11C691.76,-113.37 696.48,-112.65 701,-112 834.37,-92.92 884.25,-141.48 1002,-76 1021.48,-65.17 1036.36,-43.8 1045.11,-28.52"/>
<polygon fill="midnightblue" stroke="midnightblue" points="1048.3,-29.99 1049.97,-19.53 1042.14,-26.66 1048.3,-29.99"/>
</g>
<!-- Node28 -->
<g id="node28" class="node">
<title>Node28</title>
<g id="a_node28"><a xlink:title=" ">
<polygon fill="white" stroke="#bfbfbf" points="715,-0.5 715,-19.5 757,-19.5 757,-0.5 715,-0.5"/>
<text text-anchor="middle" x="736" y="-7.5" font-family="Helvetica,sans-Serif" font-size="10.00">array</text>
</a>
</g>
</g>
<!-- Node23&#45;&gt;Node28 -->
<g id="edge31" class="edge">
<title>Node23&#45;&gt;Node28</title>
<path fill="none" stroke="midnightblue" d="M653.98,-112.37C668.74,-94.14 703.29,-51.43 722.51,-27.68"/>
<polygon fill="midnightblue" stroke="midnightblue" points="725.48,-29.57 729.05,-19.59 720.04,-25.16 725.48,-29.57"/>
</g>
<!-- Node29 -->
<g id="node29" class="node">
<title>Node29</title>
<g id="a_node29"><a xlink:title=" ">
<polygon fill="white" stroke="#bfbfbf" points="825.5,-56.5 825.5,-75.5 974.5,-75.5 974.5,-56.5 825.5,-56.5"/>
<text text-anchor="middle" x="900" y="-63.5" font-family="Helvetica,sans-Serif" font-size="10.00">small_vector/SmallVector.h</text>
</a>
</g>
</g>
<!-- Node23&#45;&gt;Node29 -->
<g id="edge33" class="edge">
<title>Node23&#45;&gt;Node29</title>
<path fill="none" stroke="midnightblue" d="M687.09,-112.44C731.32,-103 802.54,-87.8 850.28,-77.61"/>
<polygon fill="midnightblue" stroke="midnightblue" points="851.05,-81.03 860.1,-75.52 849.59,-74.18 851.05,-81.03"/>
</g>
<!-- Node30 -->
<g id="node30" class="node">
<title>Node30</title>
<g id="a_node30"><a xlink:title=" ">
<polygon fill="white" stroke="#bfbfbf" points="623.5,-0.5 623.5,-19.5 696.5,-19.5 696.5,-0.5 623.5,-0.5"/>
<text text-anchor="middle" x="660" y="-7.5" font-family="Helvetica,sans-Serif" font-size="10.00">string_view</text>
</a>
</g>
</g>
<!-- Node23&#45;&gt;Node30 -->
<g id="edge34" class="edge">
<title>Node23&#45;&gt;Node30</title>
<path fill="none" stroke="midnightblue" d="M648.02,-112.37C650.12,-94.62 654.96,-53.67 657.8,-29.6"/>
<polygon fill="midnightblue" stroke="midnightblue" points="661.29,-29.93 658.98,-19.59 654.34,-29.11 661.29,-29.93"/>
</g>
<!-- Node25 -->
<g id="node25" class="node">
<title>Node25</title>
<g id="a_node25"><a xlink:title=" ">
<polygon fill="white" stroke="#bfbfbf" points="1367.5,-0.5 1367.5,-19.5 1420.5,-19.5 1420.5,-0.5 1367.5,-0.5"/>
<text text-anchor="middle" x="1394" y="-7.5" font-family="Helvetica,sans-Serif" font-size="10.00">cstddef</text>
</a>
</g>
</g>
<!-- Node24&#45;&gt;Node25 -->
<g id="edge28" class="edge">
<title>Node24&#45;&gt;Node25</title>
<path fill="none" stroke="midnightblue" d="M1160.05,-56.44C1214.62,-45.84 1306.6,-27.98 1357.45,-18.1"/>
<polygon fill="midnightblue" stroke="midnightblue" points="1358.2,-21.52 1367.35,-16.18 1356.86,-14.65 1358.2,-21.52"/>
</g>
<!-- Node24&#45;&gt;Node26 -->
<g id="edge29" class="edge">
<title>Node24&#45;&gt;Node26</title>
<path fill="none" stroke="midnightblue" d="M1095.56,-56.44C1074.33,-47.56 1040.9,-33.56 1016.75,-23.45"/>
<polygon fill="midnightblue" stroke="midnightblue" points="1017.92,-20.15 1007.34,-19.52 1015.22,-26.61 1017.92,-20.15"/>
</g>
<!-- Node24&#45;&gt;Node27 -->
<g id="edge30" class="edge">
<title>Node24&#45;&gt;Node27</title>
<path fill="none" stroke="midnightblue" d="M1106.04,-56.32C1096.87,-48.34 1083.06,-36.31 1071.97,-26.65"/>
<polygon fill="midnightblue" stroke="midnightblue" points="1073.98,-23.76 1064.14,-19.83 1069.38,-29.04 1073.98,-23.76"/>
</g>
<!-- Node31&#45;&gt;Node16 -->
<g id="edge42" class="edge">
<title>Node31&#45;&gt;Node16</title>
<path fill="none" stroke="midnightblue" d="M560.7,-56.44C532.65,-47.32 488.06,-32.81 456.82,-22.65"/>
<polygon fill="midnightblue" stroke="midnightblue" points="457.77,-19.28 447.18,-19.52 455.61,-25.94 457.77,-19.28"/>
</g>
<!-- Node31&#45;&gt;Node27 -->
<g id="edge43" class="edge">
<title>Node31&#45;&gt;Node27</title>
<path fill="none" stroke="midnightblue" d="M632.02,-61.27C723.79,-53.52 930.63,-35.26 1020.24,-19.78"/>
<polygon fill="midnightblue" stroke="midnightblue" points="1021.1,-23.18 1030.31,-17.96 1019.85,-16.29 1021.1,-23.18"/>
</g>
<!-- Node31&#45;&gt;Node28 -->
<g id="edge38" class="edge">
<title>Node31&#45;&gt;Node28</title>
<path fill="none" stroke="midnightblue" d="M610.61,-56.44C636.19,-47.17 677.1,-32.35 705.19,-22.17"/>
<polygon fill="midnightblue" stroke="midnightblue" points="706.7,-25.34 714.91,-18.64 704.32,-18.76 706.7,-25.34"/>
</g>
<!-- Node31&#45;&gt;Node30 -->
<g id="edge41" class="edge">
<title>Node31&#45;&gt;Node30</title>
<path fill="none" stroke="midnightblue" d="M598.73,-56.32C609.84,-48.11 626.74,-35.6 639.98,-25.81"/>
<polygon fill="midnightblue" stroke="midnightblue" points="642.1,-28.59 648.06,-19.83 637.94,-22.97 642.1,-28.59"/>
</g>
<!-- Node32 -->
<g id="node32" class="node">
<title>Node32</title>
<g id="a_node32"><a xlink:title=" ">
<polygon fill="white" stroke="#bfbfbf" points="474,-0.5 474,-19.5 538,-19.5 538,-0.5 474,-0.5"/>
<text text-anchor="middle" x="506" y="-7.5" font-family="Helvetica,sans-Serif" font-size="10.00">algorithm</text>
</a>
</g>
</g>
<!-- Node31&#45;&gt;Node32 -->
<g id="edge37" class="edge">
<title>Node31&#45;&gt;Node32</title>
<path fill="none" stroke="midnightblue" d="M573.99,-56.32C561.47,-47.98 542.32,-35.21 527.53,-25.35"/>
<polygon fill="midnightblue" stroke="midnightblue" points="529.24,-22.29 518.98,-19.65 525.36,-28.11 529.24,-22.29"/>
</g>
<!-- Node33 -->
<g id="node33" class="node">
<title>Node33</title>
<g id="a_node33"><a xlink:title=" ">
<polygon fill="white" stroke="#bfbfbf" points="556.5,-0.5 556.5,-19.5 605.5,-19.5 605.5,-0.5 556.5,-0.5"/>
<text text-anchor="middle" x="581" y="-7.5" font-family="Helvetica,sans-Serif" font-size="10.00">cctype</text>
</a>
</g>
</g>
<!-- Node31&#45;&gt;Node33 -->
<g id="edge39" class="edge">
<title>Node31&#45;&gt;Node33</title>
<path fill="none" stroke="midnightblue" d="M586.01,-56.08C585.21,-48.93 584.07,-38.64 583.08,-29.69"/>
<polygon fill="midnightblue" stroke="midnightblue" points="586.56,-29.3 581.97,-19.75 579.6,-30.08 586.56,-29.3"/>
</g>
<!-- Node31&#45;&gt;Node34 -->
<g id="edge40" class="edge">
<title>Node31&#45;&gt;Node34</title>
<path fill="none" stroke="midnightblue" d="M541.88,-57.09C478.94,-46.05 366.3,-26.31 311.18,-16.64"/>
<polygon fill="midnightblue" stroke="midnightblue" points="311.72,-13.18 301.26,-14.9 310.51,-20.08 311.72,-13.18"/>
</g>
<!-- Node35&#45;&gt;Node16 -->
<g id="edge54" class="edge">
<title>Node35&#45;&gt;Node16</title>
<path fill="none" stroke="midnightblue" d="M385.62,-112.35C370.93,-100.06 348.43,-76.73 359,-56 366,-42.27 379.37,-31.75 391.9,-24.35"/>
<polygon fill="midnightblue" stroke="midnightblue" points="393.67,-27.37 400.78,-19.51 390.32,-21.22 393.67,-27.37"/>
</g>
<!-- Node35&#45;&gt;Node27 -->
<g id="edge55" class="edge">
<title>Node35&#45;&gt;Node27</title>
<path fill="none" stroke="midnightblue" d="M432.01,-113.52C435.04,-112.97 438.07,-112.45 441,-112 590.29,-88.84 634.47,-119.97 779,-76 797.26,-70.45 798.94,-62.18 817,-56 901.14,-27.22 929.24,-39.23 1020.36,-19.92"/>
<polygon fill="midnightblue" stroke="midnightblue" points="1021.25,-23.31 1030.27,-17.75 1019.75,-16.47 1021.25,-23.31"/>
</g>
<!-- Node35&#45;&gt;Node31 -->
<g id="edge45" class="edge">
<title>Node35&#45;&gt;Node31</title>
<path fill="none" stroke="midnightblue" d="M427.11,-112.44C459.63,-103.2 511.58,-88.44 547.39,-78.26"/>
<polygon fill="midnightblue" stroke="midnightblue" points="548.37,-81.62 557.03,-75.52 546.46,-74.88 548.37,-81.62"/>
</g>
<!-- Node36 -->
<g id="node36" class="node">
<title>Node36</title>
<g id="a_node36"><a xlink:href="serialized_8h.html" target="_top" xlink:title=" ">
<polygon fill="white" stroke="black" points="238.5,-56.5 238.5,-75.5 311.5,-75.5 311.5,-56.5 238.5,-56.5"/>
<text text-anchor="middle" x="275" y="-63.5" font-family="Helvetica,sans-Serif" font-size="10.00">serialized.h</text>
</a>
</g>
</g>
<!-- Node35&#45;&gt;Node36 -->
<g id="edge46" class="edge">
<title>Node35&#45;&gt;Node36</title>
<path fill="none" stroke="midnightblue" d="M377.67,-112.44C357.68,-103.6 326.26,-89.69 303.44,-79.59"/>
<polygon fill="midnightblue" stroke="midnightblue" points="304.8,-76.36 294.24,-75.52 301.97,-82.76 304.8,-76.36"/>
</g>
<!-- Node38 -->
<g id="node38" class="node">
<title>Node38</title>
<g id="a_node38"><a xlink:title=" ">
<polygon fill="white" stroke="#bfbfbf" points="368,-56.5 368,-75.5 426,-75.5 426,-56.5 368,-56.5"/>
<text text-anchor="middle" x="397" y="-63.5" font-family="Helvetica,sans-Serif" font-size="10.00">memory</text>
</a>
</g>
</g>
<!-- Node35&#45;&gt;Node38 -->
<g id="edge52" class="edge">
<title>Node35&#45;&gt;Node38</title>
<path fill="none" stroke="midnightblue" d="M397,-112.08C397,-105.01 397,-94.86 397,-85.99"/>
<polygon fill="midnightblue" stroke="midnightblue" points="400.5,-85.75 397,-75.75 393.5,-85.75 400.5,-85.75"/>
</g>
<!-- Node39 -->
<g id="node39" class="node">
<title>Node39</title>
<g id="a_node39"><a xlink:title=" ">
<polygon fill="white" stroke="#bfbfbf" points="444.5,-56.5 444.5,-75.5 485.5,-75.5 485.5,-56.5 444.5,-56.5"/>
<text text-anchor="middle" x="465" y="-63.5" font-family="Helvetica,sans-Serif" font-size="10.00">tuple</text>
</a>
</g>
</g>
<!-- Node35&#45;&gt;Node39 -->
<g id="edge53" class="edge">
<title>Node35&#45;&gt;Node39</title>
<path fill="none" stroke="midnightblue" d="M407.93,-112.32C418.17,-104.18 433.72,-91.84 446,-82.09"/>
<polygon fill="midnightblue" stroke="midnightblue" points="448.22,-84.79 453.88,-75.83 443.87,-79.31 448.22,-84.79"/>
</g>
<!-- Node36&#45;&gt;Node21 -->
<g id="edge48" class="edge">
<title>Node36&#45;&gt;Node21</title>
<path fill="none" stroke="midnightblue" d="M252.02,-56.44C227.84,-47.44 189.58,-33.19 162.35,-23.05"/>
<polygon fill="midnightblue" stroke="midnightblue" points="163.46,-19.73 152.87,-19.52 161.02,-26.29 163.46,-19.73"/>
</g>
<!-- Node36&#45;&gt;Node26 -->
<g id="edge47" class="edge">
<title>Node36&#45;&gt;Node26</title>
<path fill="none" stroke="midnightblue" d="M311.77,-60.78C326.45,-59.16 343.51,-57.38 359,-56 584.39,-35.86 855.93,-18.86 951.58,-13.1"/>
<polygon fill="midnightblue" stroke="midnightblue" points="952.08,-16.58 961.85,-12.48 951.66,-9.59 952.08,-16.58"/>
</g>
<!-- Node36&#45;&gt;Node27 -->
<g id="edge51" class="edge">
<title>Node36&#45;&gt;Node27</title>
<path fill="none" stroke="midnightblue" d="M311.76,-60.64C326.44,-59.01 343.5,-57.25 359,-56 649.4,-32.56 728.35,-66.26 1020.31,-19.72"/>
<polygon fill="midnightblue" stroke="midnightblue" points="1021.02,-23.14 1030.34,-18.1 1019.91,-16.23 1021.02,-23.14"/>
</g>
<!-- Node36&#45;&gt;Node34 -->
<g id="edge50" class="edge">
<title>Node36&#45;&gt;Node34</title>
<path fill="none" stroke="midnightblue" d="M275.66,-56.08C276.18,-49.01 276.94,-38.86 277.59,-29.99"/>
<polygon fill="midnightblue" stroke="midnightblue" points="281.1,-29.98 278.35,-19.75 274.12,-29.47 281.1,-29.98"/>
</g>
<!-- Node36&#45;&gt;Node37 -->
<g id="edge49" class="edge">
<title>Node36&#45;&gt;Node37</title>
<path fill="none" stroke="midnightblue" d="M263.91,-56.32C253.51,-48.18 237.74,-35.84 225.28,-26.09"/>
<polygon fill="midnightblue" stroke="midnightblue" points="227.32,-23.24 217.29,-19.83 223.01,-28.75 227.32,-23.24"/>
</g>
<!-- Node45 -->
<g id="node45" class="node">
<title>Node45</title>
<g id="a_node45"><a xlink:title=" ">
<polygon fill="white" stroke="#bfbfbf" points="1662.5,-224.5 1662.5,-243.5 1739.5,-243.5 1739.5,-224.5 1662.5,-224.5"/>
<text text-anchor="middle" x="1701" y="-231.5" font-family="Helvetica,sans-Serif" font-size="10.00">sys/socket.h</text>
</a>
</g>
</g>
<!-- Node44&#45;&gt;Node45 -->
<g id="edge69" class="edge">
<title>Node44&#45;&gt;Node45</title>
<path fill="none" stroke="midnightblue" d="M1631.34,-280.32C1644.16,-271.98 1663.78,-259.21 1678.94,-249.35"/>
<polygon fill="midnightblue" stroke="midnightblue" points="1681.22,-252.04 1687.7,-243.65 1677.41,-246.17 1681.22,-252.04"/>
</g>
<!-- Node46&#45;&gt;Node2 -->
<g id="edge74" class="edge">
<title>Node46&#45;&gt;Node2</title>
<path fill="none" stroke="midnightblue" d="M1233.64,-280.39C1232.66,-266.88 1228.94,-240.54 1215,-224 1202.05,-208.63 1182.59,-198.05 1164.9,-191.04"/>
<polygon fill="midnightblue" stroke="midnightblue" points="1165.9,-187.68 1155.31,-187.5 1163.48,-194.25 1165.9,-187.68"/>
</g>
<!-- Node46&#45;&gt;Node5 -->
<g id="edge75" class="edge">
<title>Node46&#45;&gt;Node5</title>
<path fill="none" stroke="midnightblue" d="M1251.55,-280.43C1269.27,-271.65 1297.34,-257.43 1321,-244 1385.25,-207.52 1458.73,-160.41 1494.36,-137.2"/>
<polygon fill="midnightblue" stroke="midnightblue" points="1496.51,-139.97 1502.97,-131.58 1492.69,-134.11 1496.51,-139.97"/>
</g>
<!-- Node46&#45;&gt;Node25 -->
<g id="edge78" class="edge">
<title>Node46&#45;&gt;Node25</title>
<path fill="none" stroke="midnightblue" d="M1295.04,-280.45C1393.59,-262.81 1583.26,-211.92 1648,-76 1651.82,-67.97 1653.71,-62.81 1648,-56 1620.68,-23.41 1494.09,-14.41 1430.57,-11.93"/>
<polygon fill="midnightblue" stroke="midnightblue" points="1430.69,-8.44 1420.57,-11.58 1430.44,-15.43 1430.69,-8.44"/>
</g>
<!-- Node46&#45;&gt;Node40 -->
<g id="edge76" class="edge">
<title>Node46&#45;&gt;Node40</title>
<path fill="none" stroke="midnightblue" d="M1168.88,-282.89C1089.76,-275.17 952.3,-260.86 835,-244 692.09,-223.46 656.28,-217.75 515,-188 433.05,-170.74 337.86,-145.91 287.83,-132.48"/>
<polygon fill="midnightblue" stroke="midnightblue" points="288.72,-129.1 278.15,-129.88 286.9,-135.86 288.72,-129.1"/>
</g>
<!-- Node47 -->
<g id="node47" class="node">
<title>Node47</title>
<g id="a_node47"><a xlink:href="ccf__assert_8h.html" target="_top" xlink:title=" ">
<polygon fill="white" stroke="black" points="1114,-224.5 1114,-243.5 1206,-243.5 1206,-224.5 1114,-224.5"/>
<text text-anchor="middle" x="1160" y="-231.5" font-family="Helvetica,sans-Serif" font-size="10.00">ccf/ccf_assert.h</text>
</a>
</g>
</g>
<!-- Node46&#45;&gt;Node47 -->
<g id="edge72" class="edge">
<title>Node46&#45;&gt;Node47</title>
<path fill="none" stroke="midnightblue" d="M1222.11,-280.32C1210.85,-272.11 1193.71,-259.6 1180.29,-249.81"/>
<polygon fill="midnightblue" stroke="midnightblue" points="1182.25,-246.9 1172.11,-243.83 1178.12,-252.56 1182.25,-246.9"/>
</g>
<!-- Node48 -->
<g id="node48" class="node">
<title>Node48</title>
<g id="a_node48"><a xlink:title=" ">
<polygon fill="white" stroke="#bfbfbf" points="1262,-224.5 1262,-243.5 1312,-243.5 1312,-224.5 1262,-224.5"/>
<text text-anchor="middle" x="1287" y="-231.5" font-family="Helvetica,sans-Serif" font-size="10.00">chrono</text>
</a>
</g>
</g>
<!-- Node46&#45;&gt;Node48 -->
<g id="edge77" class="edge">
<title>Node46&#45;&gt;Node48</title>
<path fill="none" stroke="midnightblue" d="M1242.75,-280.08C1250.47,-272.22 1261.9,-260.57 1271.22,-251.08"/>
<polygon fill="midnightblue" stroke="midnightblue" points="1273.9,-253.34 1278.41,-243.75 1268.91,-248.44 1273.9,-253.34"/>
</g>
<!-- Node47&#45;&gt;Node2 -->
<g id="edge73" class="edge">
<title>Node47&#45;&gt;Node2</title>
<path fill="none" stroke="midnightblue" d="M1153.89,-224.08C1148.72,-216.53 1141.15,-205.49 1134.81,-196.23"/>
<polygon fill="midnightblue" stroke="midnightblue" points="1137.54,-194.02 1129,-187.75 1131.76,-197.98 1137.54,-194.02"/>
</g>
<!-- Node49&#45;&gt;Node27 -->
<g id="edge81" class="edge">
<title>Node49&#45;&gt;Node27</title>
<path fill="none" stroke="midnightblue" d="M1525.85,-280.48C1565.64,-266.37 1634,-234.12 1634,-179 1634,-179 1634,-179 1634,-121 1634,-90.9 1638.34,-75 1615,-56 1574.08,-22.69 1202.81,-13.55 1087.8,-11.51"/>
<polygon fill="midnightblue" stroke="midnightblue" points="1087.86,-8.01 1077.8,-11.34 1087.74,-15.01 1087.86,-8.01"/>
</g>
<!-- Node49&#45;&gt;Node45 -->
<g id="edge80" class="edge">
<title>Node49&#45;&gt;Node45</title>
<path fill="none" stroke="midnightblue" d="M1530.17,-280.44C1565.06,-271.16 1620.89,-256.31 1659.17,-246.13"/>
<polygon fill="midnightblue" stroke="midnightblue" points="1660.22,-249.47 1668.98,-243.52 1658.42,-242.7 1660.22,-249.47"/>
</g>
<!-- Node50&#45;&gt;Node22 -->
<g id="edge83" class="edge">
<title>Node50&#45;&gt;Node22</title>
<path fill="none" stroke="midnightblue" d="M844.93,-224.44C788.99,-214.89 698.49,-199.42 638.86,-189.23"/>
<polygon fill="midnightblue" stroke="midnightblue" points="639.28,-185.75 628.84,-187.52 638.1,-192.65 639.28,-185.75"/>
</g>
</g>
</svg>
