<?xml version="1.0" encoding="UTF-8" standalone="no"?>
<!DOCTYPE svg PUBLIC "-//W3C//DTD SVG 1.1//EN"
 "http://www.w3.org/Graphics/SVG/1.1/DTD/svg11.dtd">
<!-- Generated by graphviz version 2.43.0 (0)
 -->
<!-- Title: include/ccf/node/quote.h Pages: 1 -->
<svg width="1893pt" height="676pt"
 viewBox="0.00 0.00 1893.14 676.00" xmlns="http://www.w3.org/2000/svg" xmlns:xlink="http://www.w3.org/1999/xlink">
<g id="graph0" class="graph" transform="scale(1 1) rotate(0) translate(4 672)">
<title>include/ccf/node/quote.h</title>
<polygon fill="white" stroke="transparent" points="-4,4 -4,-672 1889.14,-672 1889.14,4 -4,4"/>
<!-- Node1 -->
<g id="node1" class="node">
<title>Node1</title>
<g id="a_node1"><a xlink:title=" ">
<polygon fill="#bfbfbf" stroke="black" points="236,-648.5 236,-667.5 372,-667.5 372,-648.5 236,-648.5"/>
<text text-anchor="middle" x="304" y="-655.5" font-family="Helvetica,sans-Serif" font-size="10.00">include/ccf/node/quote.h</text>
</a>
</g>
</g>
<!-- Node2 -->
<g id="node2" class="node">
<title>Node2</title>
<g id="a_node2"><a xlink:href="executor__code__id_8h.html" target="_top" xlink:title=" ">
<polygon fill="white" stroke="black" points="0,-581.5 0,-611.5 148,-611.5 148,-581.5 0,-581.5"/>
<text text-anchor="start" x="8" y="-599.5" font-family="Helvetica,sans-Serif" font-size="10.00">src/apps/external_executor</text>
<text text-anchor="middle" x="74" y="-588.5" font-family="Helvetica,sans-Serif" font-size="10.00">/executor_code_id.h</text>
</a>
</g>
</g>
<!-- Node1&#45;&gt;Node2 -->
<g id="edge1" class="edge">
<title>Node1&#45;&gt;Node2</title>
<path fill="none" stroke="midnightblue" d="M260.93,-645.86C223.38,-636.14 168.73,-622.01 128.21,-611.52"/>
<polygon fill="midnightblue" stroke="midnightblue" points="260.49,-649.36 271.05,-648.48 262.24,-642.58 260.49,-649.36"/>
</g>
<!-- Node5 -->
<g id="node5" class="node">
<title>Node5</title>
<g id="a_node5"><a xlink:href="quote_8cpp.html" target="_top" xlink:title=" ">
<polygon fill="white" stroke="black" points="166.5,-587 166.5,-606 275.5,-606 275.5,-587 166.5,-587"/>
<text text-anchor="middle" x="221" y="-594" font-family="Helvetica,sans-Serif" font-size="10.00">src/node/quote.cpp</text>
</a>
</g>
</g>
<!-- Node1&#45;&gt;Node5 -->
<g id="edge5" class="edge">
<title>Node1&#45;&gt;Node5</title>
<path fill="none" stroke="midnightblue" d="M283.93,-642.61C267.97,-631.17 246.17,-615.55 232.87,-606.01"/>
<polygon fill="midnightblue" stroke="midnightblue" points="281.94,-645.49 292.11,-648.48 286.02,-639.8 281.94,-645.49"/>
</g>
<!-- Node6 -->
<g id="node6" class="node">
<title>Node6</title>
<g id="a_node6"><a xlink:href="member__frontend_8h.html" target="_top" xlink:title=" ">
<polygon fill="white" stroke="black" points="815,-313.5 815,-343.5 935,-343.5 935,-313.5 815,-313.5"/>
<text text-anchor="start" x="823" y="-331.5" font-family="Helvetica,sans-Serif" font-size="10.00">src/node/rpc/member</text>
<text text-anchor="middle" x="875" y="-320.5" font-family="Helvetica,sans-Serif" font-size="10.00">_frontend.h</text>
</a>
</g>
</g>
<!-- Node1&#45;&gt;Node6 -->
<g id="edge6" class="edge">
<title>Node1&#45;&gt;Node6</title>
<path fill="none" stroke="midnightblue" d="M382.45,-654.48C524.45,-649.39 818.59,-636.24 918,-612 1007.27,-590.23 1108,-622.39 1108,-530.5 1108,-530.5 1108,-530.5 1108,-461.5 1108,-417.97 983.34,-367.5 916.39,-343.53"/>
<polygon fill="midnightblue" stroke="midnightblue" points="381.95,-651 372.08,-654.85 382.2,-657.99 381.95,-651"/>
</g>
<!-- Node9 -->
<g id="node9" class="node">
<title>Node9</title>
<g id="a_node9"><a xlink:href="node__frontend_8h.html" target="_top" xlink:title=" ">
<polygon fill="white" stroke="black" points="226,-319 226,-338 384,-338 384,-319 226,-319"/>
<text text-anchor="middle" x="305" y="-326" font-family="Helvetica,sans-Serif" font-size="10.00">src/node/rpc/node_frontend.h</text>
</a>
</g>
</g>
<!-- Node1&#45;&gt;Node9 -->
<g id="edge9" class="edge">
<title>Node1&#45;&gt;Node9</title>
<path fill="none" stroke="midnightblue" d="M304,-638.3C304,-613.62 304,-568.8 304,-530.5 304,-530.5 304,-530.5 304,-461.5 304,-414.98 304.63,-359.24 304.89,-338.15"/>
<polygon fill="midnightblue" stroke="midnightblue" points="300.5,-638.41 304,-648.41 307.5,-638.41 300.5,-638.41"/>
</g>
<!-- Node13 -->
<g id="node13" class="node">
<title>Node13</title>
<g id="a_node13"><a xlink:href="node__operation__interface_8h.html" target="_top" xlink:title=" ">
<polygon fill="white" stroke="black" points="753.5,-581.5 753.5,-611.5 908.5,-611.5 908.5,-581.5 753.5,-581.5"/>
<text text-anchor="start" x="761.5" y="-599.5" font-family="Helvetica,sans-Serif" font-size="10.00">src/node/rpc/node_operation</text>
<text text-anchor="middle" x="831" y="-588.5" font-family="Helvetica,sans-Serif" font-size="10.00">_interface.h</text>
</a>
</g>
</g>
<!-- Node1&#45;&gt;Node13 -->
<g id="edge16" class="edge">
<title>Node1&#45;&gt;Node13</title>
<path fill="none" stroke="midnightblue" d="M382.11,-648.18C481.91,-636.91 653.63,-617.53 753.26,-606.28"/>
<polygon fill="midnightblue" stroke="midnightblue" points="381.63,-644.71 372.09,-649.31 382.42,-651.67 381.63,-644.71"/>
</g>
<!-- Node3 -->
<g id="node3" class="node">
<title>Node3</title>
<g id="a_node3"><a xlink:href="executor__auth__policy_8h.html" target="_top" xlink:title=" ">
<polygon fill="white" stroke="black" points="51,-514.5 51,-544.5 199,-544.5 199,-514.5 51,-514.5"/>
<text text-anchor="start" x="59" y="-532.5" font-family="Helvetica,sans-Serif" font-size="10.00">src/apps/external_executor</text>
<text text-anchor="middle" x="125" y="-521.5" font-family="Helvetica,sans-Serif" font-size="10.00">/executor_auth_policy.h</text>
</a>
</g>
</g>
<!-- Node2&#45;&gt;Node3 -->
<g id="edge2" class="edge">
<title>Node2&#45;&gt;Node3</title>
<path fill="none" stroke="midnightblue" d="M91.3,-573.45C98.79,-563.9 107.34,-553 113.96,-544.58"/>
<polygon fill="midnightblue" stroke="midnightblue" points="88.49,-571.37 85.07,-581.4 93.99,-575.69 88.49,-571.37"/>
</g>
<!-- Node4 -->
<g id="node4" class="node">
<title>Node4</title>
<g id="a_node4"><a xlink:href="external__executor_8cpp.html" target="_top" xlink:title=" ">
<polygon fill="white" stroke="black" points="0,-447.5 0,-477.5 148,-477.5 148,-447.5 0,-447.5"/>
<text text-anchor="start" x="8" y="-465.5" font-family="Helvetica,sans-Serif" font-size="10.00">src/apps/external_executor</text>
<text text-anchor="middle" x="74" y="-454.5" font-family="Helvetica,sans-Serif" font-size="10.00">/external_executor.cpp</text>
</a>
</g>
</g>
<!-- Node2&#45;&gt;Node4 -->
<g id="edge4" class="edge">
<title>Node2&#45;&gt;Node4</title>
<path fill="none" stroke="midnightblue" d="M55.79,-572.8C50.23,-564.54 44.85,-554.81 42,-545 38.16,-531.77 38.16,-527.23 42,-514 45.88,-500.64 54.46,-487.43 61.76,-477.88"/>
<polygon fill="midnightblue" stroke="midnightblue" points="53.09,-575.05 61.76,-581.12 58.77,-570.96 53.09,-575.05"/>
</g>
<!-- Node3&#45;&gt;Node4 -->
<g id="edge3" class="edge">
<title>Node3&#45;&gt;Node4</title>
<path fill="none" stroke="midnightblue" d="M107.7,-506.45C100.21,-496.9 91.66,-486 85.04,-477.58"/>
<polygon fill="midnightblue" stroke="midnightblue" points="105.01,-508.69 113.93,-514.4 110.51,-504.37 105.01,-508.69"/>
</g>
<!-- Node7 -->
<g id="node7" class="node">
<title>Node7</title>
<g id="a_node7"><a xlink:href="src_2enclave_2enclave_8h.html" target="_top" xlink:title=" ">
<polygon fill="white" stroke="black" points="638,-56.5 638,-75.5 760,-75.5 760,-56.5 638,-56.5"/>
<text text-anchor="middle" x="699" y="-63.5" font-family="Helvetica,sans-Serif" font-size="10.00">src/enclave/enclave.h</text>
</a>
</g>
</g>
<!-- Node6&#45;&gt;Node7 -->
<g id="edge7" class="edge">
<title>Node6&#45;&gt;Node7</title>
<path fill="none" stroke="midnightblue" d="M909.17,-308C952.68,-280.53 1018.84,-228.3 989,-179 941.7,-100.85 830.19,-77.08 760.04,-69.95"/>
<polygon fill="midnightblue" stroke="midnightblue" points="907.22,-305.09 900.54,-313.31 910.89,-311.05 907.22,-305.09"/>
</g>
<!-- Node8 -->
<g id="node8" class="node">
<title>Node8</title>
<g id="a_node8"><a xlink:href="enclave_2main_8cpp.html" target="_top" xlink:title=" ">
<polygon fill="white" stroke="black" points="639,-0.5 639,-19.5 759,-19.5 759,-0.5 639,-0.5"/>
<text text-anchor="middle" x="699" y="-7.5" font-family="Helvetica,sans-Serif" font-size="10.00">src/enclave/main.cpp</text>
</a>
</g>
</g>
<!-- Node7&#45;&gt;Node8 -->
<g id="edge8" class="edge">
<title>Node7&#45;&gt;Node8</title>
<path fill="none" stroke="midnightblue" d="M699,-45.8C699,-36.91 699,-26.78 699,-19.75"/>
<polygon fill="midnightblue" stroke="midnightblue" points="695.5,-46.08 699,-56.08 702.5,-46.08 695.5,-46.08"/>
</g>
<!-- Node9&#45;&gt;Node7 -->
<g id="edge10" class="edge">
<title>Node9&#45;&gt;Node7</title>
<path fill="none" stroke="midnightblue" d="M292.74,-310.33C265.69,-270.19 207.26,-169.3 259,-112 283.89,-84.43 522.54,-72.83 637.58,-68.81"/>
<polygon fill="midnightblue" stroke="midnightblue" points="290,-312.52 298.57,-318.76 295.76,-308.54 290,-312.52"/>
</g>
<!-- Node10 -->
<g id="node10" class="node">
<title>Node10</title>
<g id="a_node10"><a xlink:href="jwt__key__auto__refresh_8h.html" target="_top" xlink:title=" ">
<polygon fill="white" stroke="black" points="302.5,-246.5 302.5,-276.5 427.5,-276.5 427.5,-246.5 302.5,-246.5"/>
<text text-anchor="start" x="310.5" y="-264.5" font-family="Helvetica,sans-Serif" font-size="10.00">src/node/jwt_key_auto</text>
<text text-anchor="middle" x="365" y="-253.5" font-family="Helvetica,sans-Serif" font-size="10.00">_refresh.h</text>
</a>
</g>
</g>
<!-- Node9&#45;&gt;Node10 -->
<g id="edge11" class="edge">
<title>Node9&#45;&gt;Node10</title>
<path fill="none" stroke="midnightblue" d="M319.95,-311.3C329.8,-300.63 342.57,-286.8 351.99,-276.59"/>
<polygon fill="midnightblue" stroke="midnightblue" points="317.3,-309.01 313.09,-318.73 322.45,-313.76 317.3,-309.01"/>
</g>
<!-- Node11 -->
<g id="node11" class="node">
<title>Node11</title>
<g id="a_node11"><a xlink:href="node__state_8h.html" target="_top" xlink:title=" ">
<polygon fill="white" stroke="black" points="475,-185 475,-204 599,-204 599,-185 475,-185"/>
<text text-anchor="middle" x="537" y="-192" font-family="Helvetica,sans-Serif" font-size="10.00">src/node/node_state.h</text>
</a>
</g>
</g>
<!-- Node10&#45;&gt;Node11 -->
<g id="edge12" class="edge">
<title>Node10&#45;&gt;Node11</title>
<path fill="none" stroke="midnightblue" d="M411.88,-242.78C445.23,-230.18 488.55,-213.81 514.49,-204.01"/>
<polygon fill="midnightblue" stroke="midnightblue" points="410.44,-239.59 402.32,-246.4 412.91,-246.13 410.44,-239.59"/>
</g>
<!-- Node11&#45;&gt;Node7 -->
<g id="edge13" class="edge">
<title>Node11&#45;&gt;Node7</title>
<path fill="none" stroke="midnightblue" d="M555.72,-178.53C576.3,-162.1 610.38,-135.01 640,-112 656.48,-99.2 675.73,-84.58 687.64,-75.57"/>
<polygon fill="midnightblue" stroke="midnightblue" points="553.4,-175.89 547.78,-184.87 557.77,-181.36 553.4,-175.89"/>
</g>
<!-- Node12 -->
<g id="node12" class="node">
<title>Node12</title>
<g id="a_node12"><a xlink:href="gov__effects_8h.html" target="_top" xlink:title=" ">
<polygon fill="white" stroke="black" points="444,-118 444,-137 588,-137 588,-118 444,-118"/>
<text text-anchor="middle" x="516" y="-125" font-family="Helvetica,sans-Serif" font-size="10.00">src/node/rpc/gov_effects.h</text>
</a>
</g>
</g>
<!-- Node11&#45;&gt;Node12 -->
<g id="edge14" class="edge">
<title>Node11&#45;&gt;Node12</title>
<path fill="none" stroke="midnightblue" d="M531,-174.91C526.98,-162.49 521.89,-146.72 518.79,-137.13"/>
<polygon fill="midnightblue" stroke="midnightblue" points="527.76,-176.29 534.17,-184.73 534.42,-174.14 527.76,-176.29"/>
</g>
<!-- Node12&#45;&gt;Node7 -->
<g id="edge15" class="edge">
<title>Node12&#45;&gt;Node7</title>
<path fill="none" stroke="midnightblue" d="M551.74,-114.88C587.31,-103.32 641.05,-85.84 672.83,-75.51"/>
<polygon fill="midnightblue" stroke="midnightblue" points="550.65,-111.55 542.22,-117.98 552.81,-118.21 550.65,-111.55"/>
</g>
<!-- Node13&#45;&gt;Node6 -->
<g id="edge17" class="edge">
<title>Node13&#45;&gt;Node6</title>
<path fill="none" stroke="midnightblue" d="M838.32,-571.62C840.69,-563.26 843.18,-553.77 845,-545 860.56,-469.91 870.31,-378.4 873.68,-343.73"/>
<polygon fill="midnightblue" stroke="midnightblue" points="834.88,-570.89 835.43,-581.47 841.6,-572.86 834.88,-570.89"/>
</g>
<!-- Node14 -->
<g id="node14" class="node">
<title>Node14</title>
<g id="a_node14"><a xlink:href="node__interface_8h.html" target="_top" xlink:title=" ">
<polygon fill="white" stroke="black" points="674.5,-520 674.5,-539 835.5,-539 835.5,-520 674.5,-520"/>
<text text-anchor="middle" x="755" y="-527" font-family="Helvetica,sans-Serif" font-size="10.00">src/node/rpc/node_interface.h</text>
</a>
</g>
</g>
<!-- Node13&#45;&gt;Node14 -->
<g id="edge18" class="edge">
<title>Node13&#45;&gt;Node14</title>
<path fill="none" stroke="midnightblue" d="M806.65,-574.67C792.61,-562.67 775.72,-548.22 765.17,-539.19"/>
<polygon fill="midnightblue" stroke="midnightblue" points="804.63,-577.56 814.51,-581.4 809.18,-572.24 804.63,-577.56"/>
</g>
<!-- Node33 -->
<g id="node33" class="node">
<title>Node33</title>
<g id="a_node33"><a xlink:href="node__operation_8h.html" target="_top" xlink:title=" ">
<polygon fill="white" stroke="black" points="916,-453 916,-472 1080,-472 1080,-453 916,-453"/>
<text text-anchor="middle" x="998" y="-460" font-family="Helvetica,sans-Serif" font-size="10.00">src/node/rpc/node_operation.h</text>
</a>
</g>
</g>
<!-- Node13&#45;&gt;Node33 -->
<g id="edge59" class="edge">
<title>Node13&#45;&gt;Node33</title>
<path fill="none" stroke="midnightblue" d="M860.38,-575.44C873.33,-566.39 888.61,-555.41 902,-545 934.62,-519.63 971.4,-487.3 988.42,-472.11"/>
<polygon fill="midnightblue" stroke="midnightblue" points="858.06,-572.79 851.85,-581.37 862.06,-578.54 858.06,-572.79"/>
</g>
<!-- Node14&#45;&gt;Node6 -->
<g id="edge52" class="edge">
<title>Node14&#45;&gt;Node6</title>
<path fill="none" stroke="midnightblue" d="M765.34,-511.36C788.68,-472.65 845.1,-379.09 866.54,-343.53"/>
<polygon fill="midnightblue" stroke="midnightblue" points="762.32,-509.58 760.16,-519.95 768.32,-513.19 762.32,-509.58"/>
</g>
<!-- Node14&#45;&gt;Node9 -->
<g id="edge56" class="edge">
<title>Node14&#45;&gt;Node9</title>
<path fill="none" stroke="midnightblue" d="M664.25,-518.91C603.72,-510.88 531,-497.55 507,-478 470.25,-448.08 500.13,-411.81 465,-380 440.06,-357.42 405.06,-344.93 374.15,-338.03"/>
<polygon fill="midnightblue" stroke="midnightblue" points="663.86,-522.39 674.23,-520.2 664.76,-515.45 663.86,-522.39"/>
</g>
<!-- Node15 -->
<g id="node15" class="node">
<title>Node15</title>
<g id="a_node15"><a xlink:href="wrap_8cpp.html" target="_top" xlink:title=" ">
<polygon fill="white" stroke="black" points="1179.5,-252 1179.5,-271 1268.5,-271 1268.5,-252 1179.5,-252"/>
<text text-anchor="middle" x="1224" y="-259" font-family="Helvetica,sans-Serif" font-size="10.00">src/js/wrap.cpp</text>
</a>
</g>
</g>
<!-- Node14&#45;&gt;Node15 -->
<g id="edge19" class="edge">
<title>Node14&#45;&gt;Node15</title>
<path fill="none" stroke="midnightblue" d="M753.05,-509.82C749.8,-467.57 748.49,-364.39 806,-313 860.3,-264.47 1083.29,-260.89 1179.49,-261.69"/>
<polygon fill="midnightblue" stroke="midnightblue" points="749.57,-510.17 753.95,-519.81 756.54,-509.54 749.57,-510.17"/>
</g>
<!-- Node16 -->
<g id="node16" class="node">
<title>Node16</title>
<g id="a_node16"><a xlink:href="wrap_8h.html" target="_top" xlink:title=" ">
<polygon fill="white" stroke="black" points="1240,-386 1240,-405 1318,-405 1318,-386 1240,-386"/>
<text text-anchor="middle" x="1279" y="-393" font-family="Helvetica,sans-Serif" font-size="10.00">src/js/wrap.h</text>
</a>
</g>
</g>
<!-- Node14&#45;&gt;Node16 -->
<g id="edge20" class="edge">
<title>Node14&#45;&gt;Node16</title>
<path fill="none" stroke="midnightblue" d="M775.96,-514.1C804.31,-495.38 857.1,-463.18 907,-447 1024.18,-409.01 1171.1,-399.59 1239.97,-397.26"/>
<polygon fill="midnightblue" stroke="midnightblue" points="773.68,-511.42 767.32,-519.89 777.57,-517.23 773.68,-511.42"/>
</g>
<!-- Node23 -->
<g id="node23" class="node">
<title>Node23</title>
<g id="a_node23"><a xlink:href="historical__queries_8h.html" target="_top" xlink:title=" ">
<polygon fill="white" stroke="black" points="682,-179.5 682,-209.5 788,-209.5 788,-179.5 682,-179.5"/>
<text text-anchor="start" x="690" y="-197.5" font-family="Helvetica,sans-Serif" font-size="10.00">src/node/historical</text>
<text text-anchor="middle" x="735" y="-186.5" font-family="Helvetica,sans-Serif" font-size="10.00">_queries.h</text>
</a>
</g>
</g>
<!-- Node14&#45;&gt;Node23 -->
<g id="edge35" class="edge">
<title>Node14&#45;&gt;Node23</title>
<path fill="none" stroke="midnightblue" d="M742.19,-511.35C725.39,-487.1 698,-440.79 698,-396.5 698,-396.5 698,-396.5 698,-327.5 698,-283.23 717.53,-233.61 728.21,-209.78"/>
<polygon fill="midnightblue" stroke="midnightblue" points="739.57,-513.7 748.24,-519.79 745.26,-509.62 739.57,-513.7"/>
</g>
<!-- Node25 -->
<g id="node25" class="node">
<title>Node25</title>
<g id="a_node25"><a xlink:href="node__configuration__subsystem_8h.html" target="_top" xlink:title=" ">
<polygon fill="white" stroke="black" points="516,-447.5 516,-477.5 670,-477.5 670,-447.5 516,-447.5"/>
<text text-anchor="start" x="524" y="-465.5" font-family="Helvetica,sans-Serif" font-size="10.00">src/node/node_configuration</text>
<text text-anchor="middle" x="593" y="-454.5" font-family="Helvetica,sans-Serif" font-size="10.00">_subsystem.h</text>
</a>
</g>
</g>
<!-- Node14&#45;&gt;Node25 -->
<g id="edge39" class="edge">
<title>Node14&#45;&gt;Node25</title>
<path fill="none" stroke="midnightblue" d="M723.99,-516.06C696.55,-505.05 656.53,-488.99 627.96,-477.53"/>
<polygon fill="midnightblue" stroke="midnightblue" points="722.9,-519.39 733.49,-519.87 725.51,-512.9 722.9,-519.39"/>
</g>
<!-- Node30 -->
<g id="node30" class="node">
<title>Node30</title>
<g id="a_node30"><a xlink:href="acme__subsystem_8h.html" target="_top" xlink:title=" ">
<polygon fill="white" stroke="black" points="806.5,-185 806.5,-204 979.5,-204 979.5,-185 806.5,-185"/>
<text text-anchor="middle" x="893" y="-192" font-family="Helvetica,sans-Serif" font-size="10.00">src/node/rpc/acme_subsystem.h</text>
</a>
</g>
</g>
<!-- Node14&#45;&gt;Node30 -->
<g id="edge50" class="edge">
<title>Node14&#45;&gt;Node30</title>
<path fill="none" stroke="midnightblue" d="M750.6,-509.84C744.98,-484.38 736,-437.26 736,-396.5 736,-396.5 736,-396.5 736,-327.5 736,-260.2 821.57,-220.32 866.37,-204.06"/>
<polygon fill="midnightblue" stroke="midnightblue" points="747.26,-510.94 752.89,-519.91 754.08,-509.39 747.26,-510.94"/>
</g>
<!-- Node31 -->
<g id="node31" class="node">
<title>Node31</title>
<g id="a_node31"><a xlink:href="network__identity__subsystem_8h.html" target="_top" xlink:title=" ">
<polygon fill="white" stroke="black" points="332.5,-447.5 332.5,-477.5 459.5,-477.5 459.5,-447.5 332.5,-447.5"/>
<text text-anchor="start" x="340.5" y="-465.5" font-family="Helvetica,sans-Serif" font-size="10.00">src/node/rpc/network</text>
<text text-anchor="middle" x="396" y="-454.5" font-family="Helvetica,sans-Serif" font-size="10.00">_identity_subsystem.h</text>
</a>
</g>
</g>
<!-- Node14&#45;&gt;Node31 -->
<g id="edge53" class="edge">
<title>Node14&#45;&gt;Node31</title>
<path fill="none" stroke="midnightblue" d="M697.13,-518.2C640.3,-508.07 551.16,-492.11 474,-478 469.39,-477.16 464.63,-476.28 459.84,-475.4"/>
<polygon fill="midnightblue" stroke="midnightblue" points="696.54,-521.65 707,-519.96 697.77,-514.76 696.54,-521.65"/>
</g>
<!-- Node14&#45;&gt;Node33 -->
<g id="edge57" class="edge">
<title>Node14&#45;&gt;Node33</title>
<path fill="none" stroke="midnightblue" d="M796.78,-517.32C844.77,-504.49 922.44,-483.71 965.91,-472.08"/>
<polygon fill="midnightblue" stroke="midnightblue" points="795.77,-513.97 787.02,-519.94 797.58,-520.73 795.77,-513.97"/>
</g>
<!-- Node16&#45;&gt;Node6 -->
<g id="edge34" class="edge">
<title>Node16&#45;&gt;Node6</title>
<path fill="none" stroke="midnightblue" d="M1229.5,-387.58C1164.86,-378.4 1048.25,-361.31 949,-344 944.49,-343.21 939.82,-342.37 935.14,-341.5"/>
<polygon fill="midnightblue" stroke="midnightblue" points="1229.41,-391.1 1239.8,-389.04 1230.39,-384.17 1229.41,-391.1"/>
</g>
<!-- Node16&#45;&gt;Node7 -->
<g id="edge22" class="edge">
<title>Node16&#45;&gt;Node7</title>
<path fill="none" stroke="midnightblue" d="M1328.33,-395.25C1437.16,-395.98 1693.7,-392.36 1763,-344 1796.09,-320.91 1803,-302.85 1803,-262.5 1803,-262.5 1803,-262.5 1803,-193.5 1803,-87.7 992.29,-70.33 760.32,-67.53"/>
<polygon fill="midnightblue" stroke="midnightblue" points="1328.29,-391.75 1318.27,-395.16 1328.24,-398.75 1328.29,-391.75"/>
</g>
<!-- Node16&#45;&gt;Node11 -->
<g id="edge33" class="edge">
<title>Node16&#45;&gt;Node11</title>
<path fill="none" stroke="midnightblue" d="M1229.53,-389.19C1156.89,-380.87 1025.29,-363.66 982,-344 962.16,-334.99 963.31,-323.12 944,-313 826.42,-251.38 672.31,-218.24 591.64,-204.05"/>
<polygon fill="midnightblue" stroke="midnightblue" points="1229.47,-392.7 1239.8,-390.35 1230.26,-385.75 1229.47,-392.7"/>
</g>
<!-- Node16&#45;&gt;Node15 -->
<g id="edge32" class="edge">
<title>Node16&#45;&gt;Node15</title>
<path fill="none" stroke="midnightblue" d="M1328.58,-392.81C1443.12,-388.4 1718.46,-374.67 1746,-344 1755.2,-333.75 1755.26,-323.2 1746,-313 1714.17,-277.95 1389.46,-266.52 1268.82,-263.46"/>
<polygon fill="midnightblue" stroke="midnightblue" points="1328.19,-389.32 1318.33,-393.2 1328.46,-396.32 1328.19,-389.32"/>
</g>
<!-- Node17 -->
<g id="node17" class="node">
<title>Node17</title>
<g id="a_node17"><a xlink:href="js__generic__base_8cpp.html" target="_top" xlink:title=" ">
<polygon fill="white" stroke="black" points="1473,-313.5 1473,-343.5 1591,-343.5 1591,-313.5 1473,-313.5"/>
<text text-anchor="start" x="1481" y="-331.5" font-family="Helvetica,sans-Serif" font-size="10.00">src/apps/js_generic</text>
<text text-anchor="middle" x="1532" y="-320.5" font-family="Helvetica,sans-Serif" font-size="10.00">/js_generic_base.cpp</text>
</a>
</g>
</g>
<!-- Node16&#45;&gt;Node17 -->
<g id="edge21" class="edge">
<title>Node16&#45;&gt;Node17</title>
<path fill="none" stroke="midnightblue" d="M1322.17,-383.41C1365.01,-372.4 1430.8,-355.5 1477.28,-343.56"/>
<polygon fill="midnightblue" stroke="midnightblue" points="1321.15,-380.06 1312.34,-385.94 1322.89,-386.84 1321.15,-380.06"/>
</g>
<!-- Node18 -->
<g id="node18" class="node">
<title>Node18</title>
<g id="a_node18"><a xlink:href="consensus_8cpp.html" target="_top" xlink:title=" ">
<polygon fill="white" stroke="black" points="991,-319 991,-338 1107,-338 1107,-319 991,-319"/>
<text text-anchor="middle" x="1049" y="-326" font-family="Helvetica,sans-Serif" font-size="10.00">src/js/consensus.cpp</text>
</a>
</g>
</g>
<!-- Node16&#45;&gt;Node18 -->
<g id="edge23" class="edge">
<title>Node16&#45;&gt;Node18</title>
<path fill="none" stroke="midnightblue" d="M1238.63,-383.09C1193.13,-370.23 1120.19,-349.62 1079.3,-338.06"/>
<polygon fill="midnightblue" stroke="midnightblue" points="1237.88,-386.52 1248.46,-385.87 1239.79,-379.78 1237.88,-386.52"/>
</g>
<!-- Node19 -->
<g id="node19" class="node">
<title>Node19</title>
<g id="a_node19"><a xlink:href="conv_8cpp.html" target="_top" xlink:title=" ">
<polygon fill="white" stroke="black" points="1125,-319 1125,-338 1213,-338 1213,-319 1125,-319"/>
<text text-anchor="middle" x="1169" y="-326" font-family="Helvetica,sans-Serif" font-size="10.00">src/js/conv.cpp</text>
</a>
</g>
</g>
<!-- Node16&#45;&gt;Node19 -->
<g id="edge25" class="edge">
<title>Node16&#45;&gt;Node19</title>
<path fill="none" stroke="midnightblue" d="M1255.5,-380.62C1233.71,-367.74 1201.96,-348.98 1183.6,-338.13"/>
<polygon fill="midnightblue" stroke="midnightblue" points="1253.78,-383.66 1264.16,-385.73 1257.34,-377.63 1253.78,-383.66"/>
</g>
<!-- Node20 -->
<g id="node20" class="node">
<title>Node20</title>
<g id="a_node20"><a xlink:href="crypto_8cpp.html" target="_top" xlink:title=" ">
<polygon fill="white" stroke="black" points="1231,-319 1231,-338 1327,-338 1327,-319 1231,-319"/>
<text text-anchor="middle" x="1279" y="-326" font-family="Helvetica,sans-Serif" font-size="10.00">src/js/crypto.cpp</text>
</a>
</g>
</g>
<!-- Node16&#45;&gt;Node20 -->
<g id="edge27" class="edge">
<title>Node16&#45;&gt;Node20</title>
<path fill="none" stroke="midnightblue" d="M1279,-375.54C1279,-363.17 1279,-347.62 1279,-338.13"/>
<polygon fill="midnightblue" stroke="midnightblue" points="1275.5,-375.73 1279,-385.73 1282.5,-375.73 1275.5,-375.73"/>
</g>
<!-- Node21 -->
<g id="node21" class="node">
<title>Node21</title>
<g id="a_node21"><a xlink:href="historical_8cpp.html" target="_top" xlink:title=" ">
<polygon fill="white" stroke="black" points="1345,-319 1345,-338 1455,-338 1455,-319 1345,-319"/>
<text text-anchor="middle" x="1400" y="-326" font-family="Helvetica,sans-Serif" font-size="10.00">src/js/historical.cpp</text>
</a>
</g>
</g>
<!-- Node16&#45;&gt;Node21 -->
<g id="edge29" class="edge">
<title>Node16&#45;&gt;Node21</title>
<path fill="none" stroke="midnightblue" d="M1304.21,-380.96C1328.2,-368.07 1363.56,-349.07 1383.94,-338.13"/>
<polygon fill="midnightblue" stroke="midnightblue" points="1302.47,-377.92 1295.32,-385.73 1305.78,-384.08 1302.47,-377.92"/>
</g>
<!-- Node22 -->
<g id="node22" class="node">
<title>Node22</title>
<g id="a_node22"><a xlink:href="openenclave_8cpp.html" target="_top" xlink:title=" ">
<polygon fill="white" stroke="black" points="1609,-319 1609,-338 1737,-338 1737,-319 1609,-319"/>
<text text-anchor="middle" x="1673" y="-326" font-family="Helvetica,sans-Serif" font-size="10.00">src/js/openenclave.cpp</text>
</a>
</g>
</g>
<!-- Node16&#45;&gt;Node22 -->
<g id="edge31" class="edge">
<title>Node16&#45;&gt;Node22</title>
<path fill="none" stroke="midnightblue" d="M1328.18,-387.39C1391.26,-378.12 1503.98,-361.08 1600,-344 1610.18,-342.19 1621.12,-340.09 1631.36,-338.07"/>
<polygon fill="midnightblue" stroke="midnightblue" points="1327.51,-383.95 1318.12,-388.86 1328.52,-390.88 1327.51,-383.95"/>
</g>
<!-- Node18&#45;&gt;Node15 -->
<g id="edge24" class="edge">
<title>Node18&#45;&gt;Node15</title>
<path fill="none" stroke="midnightblue" d="M1081.93,-315.27C1116.66,-302.37 1170.49,-282.38 1200.94,-271.06"/>
<polygon fill="midnightblue" stroke="midnightblue" points="1080.39,-312.11 1072.24,-318.87 1082.83,-318.67 1080.39,-312.11"/>
</g>
<!-- Node19&#45;&gt;Node15 -->
<g id="edge26" class="edge">
<title>Node19&#45;&gt;Node15</title>
<path fill="none" stroke="midnightblue" d="M1183.16,-310.77C1193.88,-298.1 1208.18,-281.2 1216.7,-271.13"/>
<polygon fill="midnightblue" stroke="midnightblue" points="1180.21,-308.84 1176.42,-318.73 1185.55,-313.36 1180.21,-308.84"/>
</g>
<!-- Node20&#45;&gt;Node15 -->
<g id="edge28" class="edge">
<title>Node20&#45;&gt;Node15</title>
<path fill="none" stroke="midnightblue" d="M1264.84,-310.77C1254.12,-298.1 1239.82,-281.2 1231.3,-271.13"/>
<polygon fill="midnightblue" stroke="midnightblue" points="1262.45,-313.36 1271.58,-318.73 1267.79,-308.84 1262.45,-313.36"/>
</g>
<!-- Node21&#45;&gt;Node15 -->
<g id="edge30" class="edge">
<title>Node21&#45;&gt;Node15</title>
<path fill="none" stroke="midnightblue" d="M1366.89,-315.27C1331.96,-302.37 1277.82,-282.38 1247.19,-271.06"/>
<polygon fill="midnightblue" stroke="midnightblue" points="1366.04,-318.69 1376.63,-318.87 1368.46,-312.12 1366.04,-318.69"/>
</g>
<!-- Node23&#45;&gt;Node7 -->
<g id="edge36" class="edge">
<title>Node23&#45;&gt;Node7</title>
<path fill="none" stroke="midnightblue" d="M782.95,-174.79C796.38,-167.07 809.38,-156.65 817,-143 823.72,-130.97 824.82,-123.35 817,-112 803.82,-92.86 781.32,-81.86 759.48,-75.53"/>
<polygon fill="midnightblue" stroke="midnightblue" points="781.31,-171.7 774.12,-179.48 784.59,-177.88 781.31,-171.7"/>
</g>
<!-- Node24 -->
<g id="node24" class="node">
<title>Node24</title>
<g id="a_node24"><a xlink:href="historical__transaction__fetcher_8h.html" target="_top" xlink:title=" ">
<polygon fill="white" stroke="black" points="682.5,-112.5 682.5,-142.5 807.5,-142.5 807.5,-112.5 682.5,-112.5"/>
<text text-anchor="start" x="690.5" y="-130.5" font-family="Helvetica,sans-Serif" font-size="10.00">src/indexing/historical</text>
<text text-anchor="middle" x="745" y="-119.5" font-family="Helvetica,sans-Serif" font-size="10.00">_transaction_fetcher.h</text>
</a>
</g>
</g>
<!-- Node23&#45;&gt;Node24 -->
<g id="edge37" class="edge">
<title>Node23&#45;&gt;Node24</title>
<path fill="none" stroke="midnightblue" d="M738.71,-169.4C740.1,-160.37 741.63,-150.41 742.83,-142.58"/>
<polygon fill="midnightblue" stroke="midnightblue" points="735.23,-168.98 737.17,-179.4 742.15,-170.04 735.23,-168.98"/>
</g>
<!-- Node24&#45;&gt;Node7 -->
<g id="edge38" class="edge">
<title>Node24&#45;&gt;Node7</title>
<path fill="none" stroke="midnightblue" d="M727.92,-104.4C720.19,-94.41 711.51,-83.18 705.69,-75.66"/>
<polygon fill="midnightblue" stroke="midnightblue" points="725.21,-106.63 734.1,-112.4 730.75,-102.35 725.21,-106.63"/>
</g>
<!-- Node26 -->
<g id="node26" class="node">
<title>Node26</title>
<g id="a_node26"><a xlink:href="frontend_8h.html" target="_top" xlink:title=" ">
<polygon fill="white" stroke="black" points="516.5,-386 516.5,-405 645.5,-405 645.5,-386 516.5,-386"/>
<text text-anchor="middle" x="581" y="-393" font-family="Helvetica,sans-Serif" font-size="10.00">src/node/rpc/frontend.h</text>
</a>
</g>
</g>
<!-- Node25&#45;&gt;Node26 -->
<g id="edge40" class="edge">
<title>Node25&#45;&gt;Node26</title>
<path fill="none" stroke="midnightblue" d="M588.52,-437.25C586.45,-426.02 584.12,-413.38 582.61,-405.19"/>
<polygon fill="midnightblue" stroke="midnightblue" points="585.14,-438.2 590.4,-447.4 592.02,-436.93 585.14,-438.2"/>
</g>
<!-- Node26&#45;&gt;Node6 -->
<g id="edge46" class="edge">
<title>Node26&#45;&gt;Node6</title>
<path fill="none" stroke="midnightblue" d="M629.8,-383.71C680.56,-372.49 760.09,-354.9 814.73,-342.82"/>
<polygon fill="midnightblue" stroke="midnightblue" points="628.75,-380.36 619.74,-385.94 630.26,-387.19 628.75,-380.36"/>
</g>
<!-- Node26&#45;&gt;Node9 -->
<g id="edge47" class="edge">
<title>Node26&#45;&gt;Node9</title>
<path fill="none" stroke="midnightblue" d="M534.56,-383.56C480.15,-370.75 391.13,-349.78 341.45,-338.08"/>
<polygon fill="midnightblue" stroke="midnightblue" points="534.1,-387.05 544.63,-385.94 535.7,-380.24 534.1,-387.05"/>
</g>
<!-- Node26&#45;&gt;Node11 -->
<g id="edge45" class="edge">
<title>Node26&#45;&gt;Node11</title>
<path fill="none" stroke="midnightblue" d="M551.44,-381.26C535.02,-372.64 515.29,-360.02 502,-344 481.5,-319.29 481.11,-308.52 475,-277 472.38,-263.47 469.09,-258.44 475,-246 484.12,-226.82 504.48,-212.52 519.39,-204.13"/>
<polygon fill="midnightblue" stroke="midnightblue" points="550.14,-384.52 560.65,-385.86 553.27,-378.26 550.14,-384.52"/>
</g>
<!-- Node27 -->
<g id="node27" class="node">
<title>Node27</title>
<g id="a_node27"><a xlink:href="acme__challenge__frontend_8h.html" target="_top" xlink:title=" ">
<polygon fill="white" stroke="black" points="511,-313.5 511,-343.5 651,-343.5 651,-313.5 511,-313.5"/>
<text text-anchor="start" x="519" y="-331.5" font-family="Helvetica,sans-Serif" font-size="10.00">src/node/acme_challenge</text>
<text text-anchor="middle" x="581" y="-320.5" font-family="Helvetica,sans-Serif" font-size="10.00">_frontend.h</text>
</a>
</g>
</g>
<!-- Node26&#45;&gt;Node27 -->
<g id="edge41" class="edge">
<title>Node26&#45;&gt;Node27</title>
<path fill="none" stroke="midnightblue" d="M581,-375.41C581,-365.22 581,-352.9 581,-343.59"/>
<polygon fill="midnightblue" stroke="midnightblue" points="577.5,-375.73 581,-385.73 584.5,-375.73 577.5,-375.73"/>
</g>
<!-- Node29 -->
<g id="node29" class="node">
<title>Node29</title>
<g id="a_node29"><a xlink:href="user__frontend_8h.html" target="_top" xlink:title=" ">
<polygon fill="white" stroke="black" points="267.5,-118 267.5,-137 422.5,-137 422.5,-118 267.5,-118"/>
<text text-anchor="middle" x="345" y="-125" font-family="Helvetica,sans-Serif" font-size="10.00">src/node/rpc/user_frontend.h</text>
</a>
</g>
</g>
<!-- Node26&#45;&gt;Node29 -->
<g id="edge48" class="edge">
<title>Node26&#45;&gt;Node29</title>
<path fill="none" stroke="midnightblue" d="M552.7,-381.59C516.1,-365.05 450.25,-335.79 393,-313 349.5,-295.68 320.86,-315.35 294,-277 261.47,-230.56 315.47,-161.55 336.86,-137.31"/>
<polygon fill="midnightblue" stroke="midnightblue" points="551.66,-384.97 562.21,-385.91 554.55,-378.59 551.66,-384.97"/>
</g>
<!-- Node27&#45;&gt;Node7 -->
<g id="edge42" class="edge">
<title>Node27&#45;&gt;Node7</title>
<path fill="none" stroke="midnightblue" d="M613.47,-307.32C624.1,-299.16 634.97,-288.85 642,-277 680.11,-212.75 648.43,-182.19 674,-112 678.89,-98.56 687.44,-84.35 693.15,-75.57"/>
<polygon fill="midnightblue" stroke="midnightblue" points="611.12,-304.7 605.07,-313.39 615.23,-310.37 611.12,-304.7"/>
</g>
<!-- Node28 -->
<g id="node28" class="node">
<title>Node28</title>
<g id="a_node28"><a xlink:href="ccf__acme__client_8h.html" target="_top" xlink:title=" ">
<polygon fill="white" stroke="black" points="483.5,-252 483.5,-271 632.5,-271 632.5,-252 483.5,-252"/>
<text text-anchor="middle" x="558" y="-259" font-family="Helvetica,sans-Serif" font-size="10.00">src/node/ccf_acme_client.h</text>
</a>
</g>
</g>
<!-- Node27&#45;&gt;Node28 -->
<g id="edge43" class="edge">
<title>Node27&#45;&gt;Node28</title>
<path fill="none" stroke="midnightblue" d="M572.66,-303.94C568.63,-292.54 564.03,-279.55 561.08,-271.19"/>
<polygon fill="midnightblue" stroke="midnightblue" points="569.37,-305.14 576.01,-313.4 575.97,-302.8 569.37,-305.14"/>
</g>
<!-- Node28&#45;&gt;Node11 -->
<g id="edge44" class="edge">
<title>Node28&#45;&gt;Node11</title>
<path fill="none" stroke="midnightblue" d="M552,-241.91C547.98,-229.49 542.89,-213.72 539.79,-204.13"/>
<polygon fill="midnightblue" stroke="midnightblue" points="548.76,-243.29 555.17,-251.73 555.42,-241.14 548.76,-243.29"/>
</g>
<!-- Node29&#45;&gt;Node7 -->
<g id="edge49" class="edge">
<title>Node29&#45;&gt;Node7</title>
<path fill="none" stroke="midnightblue" d="M405.93,-116.26C474.43,-104.75 584.41,-86.26 648.37,-75.51"/>
<polygon fill="midnightblue" stroke="midnightblue" points="405,-112.87 395.72,-117.98 406.16,-119.77 405,-112.87"/>
</g>
<!-- Node30&#45;&gt;Node7 -->
<g id="edge51" class="edge">
<title>Node30&#45;&gt;Node7</title>
<path fill="none" stroke="midnightblue" d="M884.13,-175.68C874.1,-157.25 856.12,-128.86 833,-112 807.52,-93.42 773.86,-82.15 746.65,-75.54"/>
<polygon fill="midnightblue" stroke="midnightblue" points="881.14,-177.5 888.87,-184.75 887.34,-174.27 881.14,-177.5"/>
</g>
<!-- Node31&#45;&gt;Node7 -->
<g id="edge54" class="edge">
<title>Node31&#45;&gt;Node7</title>
<path fill="none" stroke="midnightblue" d="M323.15,-444.5C266.68,-426.5 198,-391.79 198,-329.5 198,-329.5 198,-329.5 198,-193.5 198,-153.15 204.83,-134.98 238,-112 270.18,-89.7 520.19,-75.29 637.99,-69.67"/>
<polygon fill="midnightblue" stroke="midnightblue" points="322.22,-447.88 332.81,-447.46 324.27,-441.19 322.22,-447.88"/>
</g>
<!-- Node32 -->
<g id="node32" class="node">
<title>Node32</title>
<g id="a_node32"><a xlink:href="historical__queries__adapter_8cpp.html" target="_top" xlink:title=" ">
<polygon fill="white" stroke="black" points="336,-380.5 336,-410.5 456,-410.5 456,-380.5 336,-380.5"/>
<text text-anchor="start" x="344" y="-398.5" font-family="Helvetica,sans-Serif" font-size="10.00">src/node/historical</text>
<text text-anchor="middle" x="396" y="-387.5" font-family="Helvetica,sans-Serif" font-size="10.00">_queries_adapter.cpp</text>
</a>
</g>
</g>
<!-- Node31&#45;&gt;Node32 -->
<g id="edge55" class="edge">
<title>Node31&#45;&gt;Node32</title>
<path fill="none" stroke="midnightblue" d="M396,-437.11C396,-428.15 396,-418.32 396,-410.58"/>
<polygon fill="midnightblue" stroke="midnightblue" points="392.5,-437.4 396,-447.4 399.5,-437.4 392.5,-437.4"/>
</g>
<!-- Node33&#45;&gt;Node7 -->
<g id="edge58" class="edge">
<title>Node33&#45;&gt;Node7</title>
<path fill="none" stroke="midnightblue" d="M1090.55,-456.59C1309.49,-443.74 1841,-404.78 1841,-329.5 1841,-329.5 1841,-329.5 1841,-193.5 1841,-165.5 2017.68,-194.69 1664,-112 1491.09,-71.57 944,-67.24 760.03,-66.95"/>
<polygon fill="midnightblue" stroke="midnightblue" points="1090.15,-453.11 1080.37,-457.18 1090.55,-460.09 1090.15,-453.11"/>
</g>
</g>
</svg>
