<?xml version="1.0" encoding="UTF-8" standalone="no"?>
<!DOCTYPE svg PUBLIC "-//W3C//DTD SVG 1.1//EN"
 "http://www.w3.org/Graphics/SVG/1.1/DTD/svg11.dtd">
<!-- Generated by graphviz version 2.43.0 (0)
 -->
<!-- Title: src/node/quote_endorsements_client.h Pages: 1 -->
<svg width="212pt" height="263pt"
 viewBox="0.00 0.00 212.00 263.00" xmlns="http://www.w3.org/2000/svg" xmlns:xlink="http://www.w3.org/1999/xlink">
<g id="graph0" class="graph" transform="scale(1 1) rotate(0) translate(4 259)">
<title>src/node/quote_endorsements_client.h</title>
<polygon fill="white" stroke="transparent" points="-4,4 -4,-259 208,-259 208,4 -4,4"/>
<!-- Node1 -->
<g id="node1" class="node">
<title>Node1</title>
<g id="a_node1"><a xlink:title=" ">
<polygon fill="#bfbfbf" stroke="black" points="0,-224.5 0,-254.5 164,-254.5 164,-224.5 0,-224.5"/>
<text text-anchor="start" x="8" y="-242.5" font-family="Helvetica,sans-Serif" font-size="10.00">src/node/quote_endorsements</text>
<text text-anchor="middle" x="82" y="-231.5" font-family="Helvetica,sans-Serif" font-size="10.00">_client.h</text>
</a>
</g>
</g>
<!-- Node2 -->
<g id="node2" class="node">
<title>Node2</title>
<g id="a_node2"><a xlink:href="node__state_8h.html" target="_top" xlink:title=" ">
<polygon fill="white" stroke="black" points="20,-168.5 20,-187.5 144,-187.5 144,-168.5 20,-168.5"/>
<text text-anchor="middle" x="82" y="-175.5" font-family="Helvetica,sans-Serif" font-size="10.00">src/node/node_state.h</text>
</a>
</g>
</g>
<!-- Node1&#45;&gt;Node2 -->
<g id="edge1" class="edge">
<title>Node1&#45;&gt;Node2</title>
<path fill="none" stroke="midnightblue" d="M82,-214.29C82,-204.86 82,-194.65 82,-187.66"/>
<polygon fill="midnightblue" stroke="midnightblue" points="78.5,-214.4 82,-224.4 85.5,-214.4 78.5,-214.4"/>
</g>
<!-- Node3 -->
<g id="node3" class="node">
<title>Node3</title>
<g id="a_node3"><a xlink:href="src_2enclave_2enclave_8h.html" target="_top" xlink:title=" ">
<polygon fill="white" stroke="black" points="21,-56.5 21,-75.5 143,-75.5 143,-56.5 21,-56.5"/>
<text text-anchor="middle" x="82" y="-63.5" font-family="Helvetica,sans-Serif" font-size="10.00">src/enclave/enclave.h</text>
</a>
</g>
</g>
<!-- Node2&#45;&gt;Node3 -->
<g id="edge2" class="edge">
<title>Node2&#45;&gt;Node3</title>
<path fill="none" stroke="midnightblue" d="M67.02,-160.47C60.78,-152.48 54.23,-142.38 51,-132 44.39,-110.75 61.96,-87.63 73.28,-75.51"/>
<polygon fill="midnightblue" stroke="midnightblue" points="64.42,-162.81 73.52,-168.23 69.79,-158.32 64.42,-162.81"/>
</g>
<!-- Node5 -->
<g id="node5" class="node">
<title>Node5</title>
<g id="a_node5"><a xlink:href="gov__effects_8h.html" target="_top" xlink:title=" ">
<polygon fill="white" stroke="black" points="60,-112.5 60,-131.5 204,-131.5 204,-112.5 60,-112.5"/>
<text text-anchor="middle" x="132" y="-119.5" font-family="Helvetica,sans-Serif" font-size="10.00">src/node/rpc/gov_effects.h</text>
</a>
</g>
</g>
<!-- Node2&#45;&gt;Node5 -->
<g id="edge4" class="edge">
<title>Node2&#45;&gt;Node5</title>
<path fill="none" stroke="midnightblue" d="M97.08,-160.72C105.89,-151.2 116.67,-139.56 123.9,-131.75"/>
<polygon fill="midnightblue" stroke="midnightblue" points="94.48,-158.37 90.26,-168.08 99.62,-163.12 94.48,-158.37"/>
</g>
<!-- Node4 -->
<g id="node4" class="node">
<title>Node4</title>
<g id="a_node4"><a xlink:href="enclave_2main_8cpp.html" target="_top" xlink:title=" ">
<polygon fill="white" stroke="black" points="22,-0.5 22,-19.5 142,-19.5 142,-0.5 22,-0.5"/>
<text text-anchor="middle" x="82" y="-7.5" font-family="Helvetica,sans-Serif" font-size="10.00">src/enclave/main.cpp</text>
</a>
</g>
</g>
<!-- Node3&#45;&gt;Node4 -->
<g id="edge3" class="edge">
<title>Node3&#45;&gt;Node4</title>
<path fill="none" stroke="midnightblue" d="M82,-45.8C82,-36.91 82,-26.78 82,-19.75"/>
<polygon fill="midnightblue" stroke="midnightblue" points="78.5,-46.08 82,-56.08 85.5,-46.08 78.5,-46.08"/>
</g>
<!-- Node5&#45;&gt;Node3 -->
<g id="edge5" class="edge">
<title>Node5&#45;&gt;Node3</title>
<path fill="none" stroke="midnightblue" d="M116.92,-104.72C108.11,-95.2 97.33,-83.56 90.1,-75.75"/>
<polygon fill="midnightblue" stroke="midnightblue" points="114.38,-107.12 123.74,-112.08 119.52,-102.37 114.38,-107.12"/>
</g>
</g>
</svg>
