<?xml version="1.0" encoding="UTF-8" standalone="no"?>
<!DOCTYPE svg PUBLIC "-//W3C//DTD SVG 1.1//EN"
 "http://www.w3.org/Graphics/SVG/1.1/DTD/svg11.dtd">
<!-- Generated by graphviz version 2.43.0 (0)
 -->
<!-- Title: src/node/rpc/rpc_exception.h Pages: 1 -->
<!--zoomable 453 -->
<svg id="main" version="1.1" xmlns="http://www.w3.org/2000/svg" xmlns:xlink="http://www.w3.org/1999/xlink" xml:space="preserve" onload="init(evt)">
<style type="text/css"><![CDATA[
.edge:hover path { stroke: red; }
.edge:hover polygon { stroke: red; fill: red; }
]]></style>
<script type="text/javascript"><![CDATA[
var edges = document.getElementsByTagName('g');
if (edges && edges.length) {
  for (var i=0;i<edges.length;i++) {
    if (edges[i].id.substr(0,4)=='edge') {
      edges[i].setAttribute('class','edge');
    }
  }
}
]]></script>
        <defs>
                <circle id="rim" cx="0" cy="0" r="7"/>
                <circle id="rim2" cx="0" cy="0" r="3.5"/>
                <g id="zoomPlus">
                        <use xlink:href="#rim" fill="#404040">
                                <set attributeName="fill" to="#808080" begin="zoomplus.mouseover" end="zoomplus.mouseout"/>
                        </use>
                        <path d="M-4,0h8M0,-4v8" fill="none" stroke="white" stroke-width="1.5" pointer-events="none"/>
                </g>
                <g id="zoomMin">
                        <use xlink:href="#rim" fill="#404040">
                                <set attributeName="fill" to="#808080" begin="zoomminus.mouseover" end="zoomminus.mouseout"/>
                        </use>
                        <path d="M-4,0h8" fill="none" stroke="white" stroke-width="1.5" pointer-events="none"/>
                </g>
                <g id="dirArrow">
                        <path fill="none" stroke="white" stroke-width="1.5" d="M0,-3.0v7 M-2.5,-0.5L0,-3.0L2.5,-0.5"/>
                </g>
               <g id="resetDef">
                       <use xlink:href="#rim2" fill="#404040">
                               <set attributeName="fill" to="#808080" begin="reset.mouseover" end="reset.mouseout"/>
                       </use>
               </g>
        </defs>

<script type="text/javascript">
var viewWidth = 791;
var viewHeight = 453;
var sectionId = 'dynsection-1';
</script>
<script xlink:href="svgpan.js"/>
<svg id="graph" class="graph">
<g id="viewport">
<title>src/node/rpc/rpc_exception.h</title>
<polygon fill="white" stroke="transparent" points="-4,4 -4,-449 786.96,-449 786.96,4 -4,4"/>
<!-- Node1 -->
<g id="node1" class="node">
<title>Node1</title>
<g id="a_node1"><a xlink:title=" ">
<polygon fill="#bfbfbf" stroke="black" points="165,-425.5 165,-444.5 321,-444.5 321,-425.5 165,-425.5"/>
<text text-anchor="middle" x="243" y="-432.5" font-family="Helvetica,sans-Serif" font-size="10.00">src/node/rpc/rpc_exception.h</text>
</a>
</g>
</g>
<!-- Node2 -->
<g id="node2" class="node">
<title>Node2</title>
<g id="a_node2"><a xlink:href="grpc_8h.html" target="_top" xlink:title=" ">
<polygon fill="white" stroke="black" points="42.5,-369.5 42.5,-388.5 157.5,-388.5 157.5,-369.5 42.5,-369.5"/>
<text text-anchor="middle" x="100" y="-376.5" font-family="Helvetica,sans-Serif" font-size="10.00">src/endpoints/grpc.h</text>
</a>
</g>
</g>
<!-- Node1&#45;&gt;Node2 -->
<g id="edge1" class="edge">
<title>Node1&#45;&gt;Node2</title>
<path fill="none" stroke="midnightblue" d="M210.97,-421.91C184.09,-411.75 146.36,-397.51 122.55,-388.52"/>
<polygon fill="midnightblue" stroke="midnightblue" points="209.75,-425.19 220.34,-425.44 212.22,-418.64 209.75,-425.19"/>
</g>
<!-- Node4 -->
<g id="node4" class="node">
<title>Node4</title>
<g id="a_node4"><a xlink:href="json__handler_8cpp.html" target="_top" xlink:title=" ">
<polygon fill="white" stroke="black" points="166.5,-302.5 166.5,-332.5 271.5,-332.5 271.5,-302.5 166.5,-302.5"/>
<text text-anchor="start" x="174.5" y="-320.5" font-family="Helvetica,sans-Serif" font-size="10.00">src/endpoints/json</text>
<text text-anchor="middle" x="219" y="-309.5" font-family="Helvetica,sans-Serif" font-size="10.00">_handler.cpp</text>
</a>
</g>
</g>
<!-- Node1&#45;&gt;Node4 -->
<g id="edge3" class="edge">
<title>Node1&#45;&gt;Node4</title>
<path fill="none" stroke="midnightblue" d="M230.76,-416.83C225.75,-408.79 220.55,-398.82 218,-389 213.06,-369.92 214.73,-346.96 216.65,-332.54"/>
<polygon fill="midnightblue" stroke="midnightblue" points="227.92,-418.89 236.37,-425.27 233.75,-415.01 227.92,-418.89"/>
</g>
<!-- Node5 -->
<g id="node5" class="node">
<title>Node5</title>
<g id="a_node5"><a xlink:href="http__accept_8h.html" target="_top" xlink:title=" ">
<polygon fill="white" stroke="black" points="227,-369.5 227,-388.5 349,-388.5 349,-369.5 227,-369.5"/>
<text text-anchor="middle" x="288" y="-376.5" font-family="Helvetica,sans-Serif" font-size="10.00">src/http/http_accept.h</text>
</a>
</g>
</g>
<!-- Node1&#45;&gt;Node5 -->
<g id="edge4" class="edge">
<title>Node1&#45;&gt;Node5</title>
<path fill="none" stroke="midnightblue" d="M257.05,-417.14C264.89,-407.74 274.33,-396.4 280.71,-388.75"/>
<polygon fill="midnightblue" stroke="midnightblue" points="254.14,-415.16 250.43,-425.08 259.52,-419.64 254.14,-415.16"/>
</g>
<!-- Node6 -->
<g id="node6" class="node">
<title>Node6</title>
<g id="a_node6"><a xlink:href="frontend_8h.html" target="_top" xlink:title=" ">
<polygon fill="white" stroke="black" points="373.5,-369.5 373.5,-388.5 502.5,-388.5 502.5,-369.5 373.5,-369.5"/>
<text text-anchor="middle" x="438" y="-376.5" font-family="Helvetica,sans-Serif" font-size="10.00">src/node/rpc/frontend.h</text>
</a>
</g>
</g>
<!-- Node1&#45;&gt;Node6 -->
<g id="edge6" class="edge">
<title>Node1&#45;&gt;Node6</title>
<path fill="none" stroke="midnightblue" d="M283.81,-422.7C320.61,-412.51 373.93,-397.74 407.25,-388.52"/>
<polygon fill="midnightblue" stroke="midnightblue" points="282.6,-419.4 273.9,-425.44 284.47,-426.15 282.6,-419.4"/>
</g>
<!-- Node3 -->
<g id="node3" class="node">
<title>Node3</title>
<g id="a_node3"><a xlink:href="external__executor_8cpp.html" target="_top" xlink:title=" ">
<polygon fill="white" stroke="black" points="0,-302.5 0,-332.5 148,-332.5 148,-302.5 0,-302.5"/>
<text text-anchor="start" x="8" y="-320.5" font-family="Helvetica,sans-Serif" font-size="10.00">src/apps/external_executor</text>
<text text-anchor="middle" x="74" y="-309.5" font-family="Helvetica,sans-Serif" font-size="10.00">/external_executor.cpp</text>
</a>
</g>
</g>
<!-- Node2&#45;&gt;Node3 -->
<g id="edge2" class="edge">
<title>Node2&#45;&gt;Node3</title>
<path fill="none" stroke="midnightblue" d="M92.18,-360.1C88.32,-351.27 83.73,-340.77 80.13,-332.52"/>
<polygon fill="midnightblue" stroke="midnightblue" points="89.06,-361.71 96.27,-369.48 95.48,-358.91 89.06,-361.71"/>
</g>
<!-- Node5&#45;&gt;Node4 -->
<g id="edge5" class="edge">
<title>Node5&#45;&gt;Node4</title>
<path fill="none" stroke="midnightblue" d="M270.51,-362.92C259.68,-353.58 245.86,-341.66 235.26,-332.52"/>
<polygon fill="midnightblue" stroke="midnightblue" points="268.26,-365.6 278.11,-369.48 272.83,-360.29 268.26,-365.6"/>
</g>
<!-- Node7 -->
<g id="node7" class="node">
<title>Node7</title>
<g id="a_node7"><a xlink:href="acme__challenge__frontend_8h.html" target="_top" xlink:title=" ">
<polygon fill="white" stroke="black" points="624,-302.5 624,-332.5 764,-332.5 764,-302.5 624,-302.5"/>
<text text-anchor="start" x="632" y="-320.5" font-family="Helvetica,sans-Serif" font-size="10.00">src/node/acme_challenge</text>
<text text-anchor="middle" x="694" y="-309.5" font-family="Helvetica,sans-Serif" font-size="10.00">_frontend.h</text>
</a>
</g>
</g>
<!-- Node6&#45;&gt;Node7 -->
<g id="edge7" class="edge">
<title>Node6&#45;&gt;Node7</title>
<path fill="none" stroke="midnightblue" d="M484.6,-367.17C526.43,-357.45 588.08,-343.12 633.67,-332.52"/>
<polygon fill="midnightblue" stroke="midnightblue" points="483.63,-363.8 474.68,-369.48 485.21,-370.62 483.63,-363.8"/>
</g>
<!-- Node11 -->
<g id="node11" class="node">
<title>Node11</title>
<g id="a_node11"><a xlink:href="node__state_8h.html" target="_top" xlink:title=" ">
<polygon fill="white" stroke="black" points="530,-174 530,-193 654,-193 654,-174 530,-174"/>
<text text-anchor="middle" x="592" y="-181" font-family="Helvetica,sans-Serif" font-size="10.00">src/node/node_state.h</text>
</a>
</g>
</g>
<!-- Node6&#45;&gt;Node11 -->
<g id="edge15" class="edge">
<title>Node6&#45;&gt;Node11</title>
<path fill="none" stroke="midnightblue" d="M476.19,-365.87C494.88,-358.55 516.78,-347.73 533,-333 576.33,-293.64 588.31,-218.28 591.19,-193"/>
<polygon fill="midnightblue" stroke="midnightblue" points="474.91,-362.62 466.76,-369.39 477.35,-369.18 474.91,-362.62"/>
</g>
<!-- Node13 -->
<g id="node13" class="node">
<title>Node13</title>
<g id="a_node13"><a xlink:href="member__frontend_8h.html" target="_top" xlink:title=" ">
<polygon fill="white" stroke="black" points="181,-168.5 181,-198.5 301,-198.5 301,-168.5 181,-168.5"/>
<text text-anchor="start" x="189" y="-186.5" font-family="Helvetica,sans-Serif" font-size="10.00">src/node/rpc/member</text>
<text text-anchor="middle" x="241" y="-175.5" font-family="Helvetica,sans-Serif" font-size="10.00">_frontend.h</text>
</a>
</g>
</g>
<!-- Node6&#45;&gt;Node13 -->
<g id="edge16" class="edge">
<title>Node6&#45;&gt;Node13</title>
<path fill="none" stroke="midnightblue" d="M388.56,-366.57C366.88,-359.64 342.27,-348.97 324,-333 280.42,-294.89 254.92,-228.09 245.36,-198.87"/>
<polygon fill="midnightblue" stroke="midnightblue" points="387.7,-369.96 398.28,-369.49 389.71,-363.26 387.7,-369.96"/>
</g>
<!-- Node14 -->
<g id="node14" class="node">
<title>Node14</title>
<g id="a_node14"><a xlink:href="node__frontend_8h.html" target="_top" xlink:title=" ">
<polygon fill="white" stroke="black" points="366,-308 366,-327 524,-327 524,-308 366,-308"/>
<text text-anchor="middle" x="445" y="-315" font-family="Helvetica,sans-Serif" font-size="10.00">src/node/rpc/node_frontend.h</text>
</a>
</g>
</g>
<!-- Node6&#45;&gt;Node14 -->
<g id="edge18" class="edge">
<title>Node6&#45;&gt;Node14</title>
<path fill="none" stroke="midnightblue" d="M440.2,-359.32C441.47,-348.5 443.01,-335.4 444,-327.01"/>
<polygon fill="midnightblue" stroke="midnightblue" points="436.7,-359.13 439,-369.48 443.65,-359.95 436.7,-359.13"/>
</g>
<!-- Node16 -->
<g id="node16" class="node">
<title>Node16</title>
<g id="a_node16"><a xlink:href="user__frontend_8h.html" target="_top" xlink:title=" ">
<polygon fill="white" stroke="black" points="226.5,-112.5 226.5,-131.5 381.5,-131.5 381.5,-112.5 226.5,-112.5"/>
<text text-anchor="middle" x="304" y="-119.5" font-family="Helvetica,sans-Serif" font-size="10.00">src/node/rpc/user_frontend.h</text>
</a>
</g>
</g>
<!-- Node6&#45;&gt;Node16 -->
<g id="edge22" class="edge">
<title>Node6&#45;&gt;Node16</title>
<path fill="none" stroke="midnightblue" d="M401.32,-365.3C385.55,-358.1 368.21,-347.57 357,-333 331.67,-300.06 310.58,-167.49 305.28,-131.86"/>
<polygon fill="midnightblue" stroke="midnightblue" points="400.29,-368.66 410.86,-369.35 403.02,-362.22 400.29,-368.66"/>
</g>
<!-- Node8 -->
<g id="node8" class="node">
<title>Node8</title>
<g id="a_node8"><a xlink:href="src_2enclave_2enclave_8h.html" target="_top" xlink:title=" ">
<polygon fill="white" stroke="black" points="399,-56.5 399,-75.5 521,-75.5 521,-56.5 399,-56.5"/>
<text text-anchor="middle" x="460" y="-63.5" font-family="Helvetica,sans-Serif" font-size="10.00">src/enclave/enclave.h</text>
</a>
</g>
</g>
<!-- Node7&#45;&gt;Node8 -->
<g id="edge8" class="edge">
<title>Node7&#45;&gt;Node8</title>
<path fill="none" stroke="midnightblue" d="M743.46,-297.83C757.08,-290.14 770.23,-279.73 778,-266 784.78,-254.01 784.27,-247.27 778,-235 726.24,-133.66 587.01,-91.46 511.08,-75.56"/>
<polygon fill="midnightblue" stroke="midnightblue" points="741.74,-294.78 734.49,-302.5 744.97,-300.98 741.74,-294.78"/>
</g>
<!-- Node10 -->
<g id="node10" class="node">
<title>Node10</title>
<g id="a_node10"><a xlink:href="ccf__acme__client_8h.html" target="_top" xlink:title=" ">
<polygon fill="white" stroke="black" points="619.5,-241 619.5,-260 768.5,-260 768.5,-241 619.5,-241"/>
<text text-anchor="middle" x="694" y="-248" font-family="Helvetica,sans-Serif" font-size="10.00">src/node/ccf_acme_client.h</text>
</a>
</g>
</g>
<!-- Node7&#45;&gt;Node10 -->
<g id="edge10" class="edge">
<title>Node7&#45;&gt;Node10</title>
<path fill="none" stroke="midnightblue" d="M694,-292.25C694,-281.02 694,-268.38 694,-260.19"/>
<polygon fill="midnightblue" stroke="midnightblue" points="690.5,-292.4 694,-302.4 697.5,-292.4 690.5,-292.4"/>
</g>
<!-- Node9 -->
<g id="node9" class="node">
<title>Node9</title>
<g id="a_node9"><a xlink:href="enclave_2main_8cpp.html" target="_top" xlink:title=" ">
<polygon fill="white" stroke="black" points="400,-0.5 400,-19.5 520,-19.5 520,-0.5 400,-0.5"/>
<text text-anchor="middle" x="460" y="-7.5" font-family="Helvetica,sans-Serif" font-size="10.00">src/enclave/main.cpp</text>
</a>
</g>
</g>
<!-- Node8&#45;&gt;Node9 -->
<g id="edge9" class="edge">
<title>Node8&#45;&gt;Node9</title>
<path fill="none" stroke="midnightblue" d="M460,-45.8C460,-36.91 460,-26.78 460,-19.75"/>
<polygon fill="midnightblue" stroke="midnightblue" points="456.5,-46.08 460,-56.08 463.5,-46.08 456.5,-46.08"/>
</g>
<!-- Node10&#45;&gt;Node11 -->
<g id="edge11" class="edge">
<title>Node10&#45;&gt;Node11</title>
<path fill="none" stroke="midnightblue" d="M671.67,-235.27C651.48,-222.4 622.41,-203.88 605.54,-193.13"/>
<polygon fill="midnightblue" stroke="midnightblue" points="669.93,-238.31 680.24,-240.73 673.69,-232.41 669.93,-238.31"/>
</g>
<!-- Node11&#45;&gt;Node8 -->
<g id="edge12" class="edge">
<title>Node11&#45;&gt;Node8</title>
<path fill="none" stroke="midnightblue" d="M597.19,-163.79C600.27,-148.42 601.75,-126.84 591,-112 574.84,-89.7 546.93,-78.35 521.02,-72.61"/>
<polygon fill="midnightblue" stroke="midnightblue" points="593.74,-163.16 594.81,-173.7 600.55,-164.8 593.74,-163.16"/>
</g>
<!-- Node12 -->
<g id="node12" class="node">
<title>Node12</title>
<g id="a_node12"><a xlink:href="gov__effects_8h.html" target="_top" xlink:title=" ">
<polygon fill="white" stroke="black" points="438,-112.5 438,-131.5 582,-131.5 582,-112.5 438,-112.5"/>
<text text-anchor="middle" x="510" y="-119.5" font-family="Helvetica,sans-Serif" font-size="10.00">src/node/rpc/gov_effects.h</text>
</a>
</g>
</g>
<!-- Node11&#45;&gt;Node12 -->
<g id="edge13" class="edge">
<title>Node11&#45;&gt;Node12</title>
<path fill="none" stroke="midnightblue" d="M571.73,-167.79C556,-156.38 534.75,-140.96 521.73,-131.51"/>
<polygon fill="midnightblue" stroke="midnightblue" points="570.1,-170.93 580.25,-173.98 574.21,-165.27 570.1,-170.93"/>
</g>
<!-- Node12&#45;&gt;Node8 -->
<g id="edge14" class="edge">
<title>Node12&#45;&gt;Node8</title>
<path fill="none" stroke="midnightblue" d="M494.92,-104.72C486.11,-95.2 475.33,-83.56 468.1,-75.75"/>
<polygon fill="midnightblue" stroke="midnightblue" points="492.38,-107.12 501.74,-112.08 497.52,-102.37 492.38,-107.12"/>
</g>
<!-- Node13&#45;&gt;Node8 -->
<g id="edge17" class="edge">
<title>Node13&#45;&gt;Node8</title>
<path fill="none" stroke="midnightblue" d="M223.12,-160.09C213.45,-145.11 205.6,-125.71 217,-112 239.7,-84.7 334.61,-73.89 398.88,-69.66"/>
<polygon fill="midnightblue" stroke="midnightblue" points="220.28,-162.15 228.89,-168.33 226.01,-158.13 220.28,-162.15"/>
</g>
<!-- Node14&#45;&gt;Node8 -->
<g id="edge19" class="edge">
<title>Node14&#45;&gt;Node8</title>
<path fill="none" stroke="midnightblue" d="M438.22,-298.22C435.05,-288.75 431.63,-276.91 430,-266 419.9,-198.3 408.67,-177.36 429,-112 433.4,-97.87 443.95,-84.25 451.52,-75.77"/>
<polygon fill="midnightblue" stroke="midnightblue" points="434.94,-299.47 441.57,-307.73 441.55,-297.14 434.94,-299.47"/>
</g>
<!-- Node15 -->
<g id="node15" class="node">
<title>Node15</title>
<g id="a_node15"><a xlink:href="jwt__key__auto__refresh_8h.html" target="_top" xlink:title=" ">
<polygon fill="white" stroke="black" points="438.5,-235.5 438.5,-265.5 563.5,-265.5 563.5,-235.5 438.5,-235.5"/>
<text text-anchor="start" x="446.5" y="-253.5" font-family="Helvetica,sans-Serif" font-size="10.00">src/node/jwt_key_auto</text>
<text text-anchor="middle" x="501" y="-242.5" font-family="Helvetica,sans-Serif" font-size="10.00">_refresh.h</text>
</a>
</g>
</g>
<!-- Node14&#45;&gt;Node15 -->
<g id="edge20" class="edge">
<title>Node14&#45;&gt;Node15</title>
<path fill="none" stroke="midnightblue" d="M459.22,-299.99C468.38,-289.36 480.15,-275.7 488.86,-265.59"/>
<polygon fill="midnightblue" stroke="midnightblue" points="456.43,-297.87 452.55,-307.73 461.73,-302.44 456.43,-297.87"/>
</g>
<!-- Node15&#45;&gt;Node11 -->
<g id="edge21" class="edge">
<title>Node15&#45;&gt;Node11</title>
<path fill="none" stroke="midnightblue" d="M529.27,-229.31C546.36,-217.1 567.25,-202.18 580.09,-193.01"/>
<polygon fill="midnightblue" stroke="midnightblue" points="526.85,-226.74 520.75,-235.4 530.92,-232.43 526.85,-226.74"/>
</g>
<!-- Node16&#45;&gt;Node8 -->
<g id="edge23" class="edge">
<title>Node16&#45;&gt;Node8</title>
<path fill="none" stroke="midnightblue" d="M338.17,-109.17C367.54,-99 409.2,-84.59 435.4,-75.52"/>
<polygon fill="midnightblue" stroke="midnightblue" points="337.02,-105.86 328.72,-112.44 339.31,-112.48 337.02,-105.86"/>
</g>
</g>
</svg>
        <g id="navigator" transform="translate(0 0)" fill="#404254">
                <rect fill="#f2f5e9" fill-opacity="0.5" stroke="#606060" stroke-width=".5" x="0" y="0" width="60" height="60"/>
                <use id="zoomplus" xlink:href="#zoomPlus" x="17" y="9" onmousedown="handleZoom(evt,'in')"/>
                <use id="zoomminus" xlink:href="#zoomMin" x="42" y="9" onmousedown="handleZoom(evt,'out')"/>
                <use id="reset" xlink:href="#resetDef" x="30" y="36" onmousedown="handleReset()"/>
                <g id="arrowUp" xlink:href="#dirArrow" transform="translate(30 24)" onmousedown="handlePan(0,-1)">
                  <use xlink:href="#rim" fill="#404040">
                        <set attributeName="fill" to="#808080" begin="arrowUp.mouseover" end="arrowUp.mouseout"/>
                  </use>
                  <path fill="none" stroke="white" stroke-width="1.5" d="M0,-3.0v7 M-2.5,-0.5L0,-3.0L2.5,-0.5"/>
                </g>
                <g id="arrowRight" xlink:href="#dirArrow" transform="rotate(90) translate(36 -43)" onmousedown="handlePan(1,0)">
                  <use xlink:href="#rim" fill="#404040">
                        <set attributeName="fill" to="#808080" begin="arrowRight.mouseover" end="arrowRight.mouseout"/>
                  </use>
                  <path fill="none" stroke="white" stroke-width="1.5" d="M0,-3.0v7 M-2.5,-0.5L0,-3.0L2.5,-0.5"/>
                </g>
                <g id="arrowDown" xlink:href="#dirArrow" transform="rotate(180) translate(-30 -48)" onmousedown="handlePan(0,1)">
                  <use xlink:href="#rim" fill="#404040">
                        <set attributeName="fill" to="#808080" begin="arrowDown.mouseover" end="arrowDown.mouseout"/>
                  </use>
                  <path fill="none" stroke="white" stroke-width="1.5" d="M0,-3.0v7 M-2.5,-0.5L0,-3.0L2.5,-0.5"/>
                </g>
                <g id="arrowLeft" xlink:href="#dirArrow" transform="rotate(270) translate(-36 17)" onmousedown="handlePan(-1,0)">
                  <use xlink:href="#rim" fill="#404040">
                        <set attributeName="fill" to="#808080" begin="arrowLeft.mouseover" end="arrowLeft.mouseout"/>
                  </use>
                  <path fill="none" stroke="white" stroke-width="1.5" d="M0,-3.0v7 M-2.5,-0.5L0,-3.0L2.5,-0.5"/>
                </g>
        </g>
        <svg viewBox="0 0 15 15" width="100%" height="30px" preserveAspectRatio="xMaxYMin meet">
         <g id="arrow_out" transform="scale(0.3 0.3)">
          <a xlink:href="rpc__exception_8h__dep__incl_org.svg" target="_base">
           <rect id="button" ry="5" rx="5" y="6" x="6" height="38" width="38"
                fill="#f2f5e9" fill-opacity="0.5" stroke="#606060" stroke-width="1.0"/>
           <path id="arrow"
             d="M 11.500037,31.436501 C 11.940474,20.09759 22.043105,11.32322 32.158766,21.979434 L 37.068811,17.246167 C 37.068811,17.246167 37.088388,32 37.088388,32 L 22.160133,31.978069 C 22.160133,31.978069 26.997745,27.140456 26.997745,27.140456 C 18.528582,18.264221 13.291696,25.230495 11.500037,31.436501 z"
             style="fill:#404040;"/>
          </a>
         </g>
        </svg>
</svg>
