<?xml version="1.0" encoding="UTF-8" standalone="no"?>
<!DOCTYPE svg PUBLIC "-//W3C//DTD SVG 1.1//EN"
 "http://www.w3.org/Graphics/SVG/1.1/DTD/svg11.dtd">
<!-- Generated by graphviz version 2.43.0 (0)
 -->
<!-- Title: include/ccf/serdes.h Pages: 1 -->
<!--zoomable 475 -->
<svg id="main" version="1.1" xmlns="http://www.w3.org/2000/svg" xmlns:xlink="http://www.w3.org/1999/xlink" xml:space="preserve" onload="init(evt)">
<style type="text/css"><![CDATA[
.edge:hover path { stroke: red; }
.edge:hover polygon { stroke: red; fill: red; }
]]></style>
<script type="text/javascript"><![CDATA[
var edges = document.getElementsByTagName('g');
if (edges && edges.length) {
  for (var i=0;i<edges.length;i++) {
    if (edges[i].id.substr(0,4)=='edge') {
      edges[i].setAttribute('class','edge');
    }
  }
}
]]></script>
        <defs>
                <circle id="rim" cx="0" cy="0" r="7"/>
                <circle id="rim2" cx="0" cy="0" r="3.5"/>
                <g id="zoomPlus">
                        <use xlink:href="#rim" fill="#404040">
                                <set attributeName="fill" to="#808080" begin="zoomplus.mouseover" end="zoomplus.mouseout"/>
                        </use>
                        <path d="M-4,0h8M0,-4v8" fill="none" stroke="white" stroke-width="1.5" pointer-events="none"/>
                </g>
                <g id="zoomMin">
                        <use xlink:href="#rim" fill="#404040">
                                <set attributeName="fill" to="#808080" begin="zoomminus.mouseover" end="zoomminus.mouseout"/>
                        </use>
                        <path d="M-4,0h8" fill="none" stroke="white" stroke-width="1.5" pointer-events="none"/>
                </g>
                <g id="dirArrow">
                        <path fill="none" stroke="white" stroke-width="1.5" d="M0,-3.0v7 M-2.5,-0.5L0,-3.0L2.5,-0.5"/>
                </g>
               <g id="resetDef">
                       <use xlink:href="#rim2" fill="#404040">
                               <set attributeName="fill" to="#808080" begin="reset.mouseover" end="reset.mouseout"/>
                       </use>
               </g>
        </defs>

<script type="text/javascript">
var viewWidth = 1349;
var viewHeight = 475;
var sectionId = 'dynsection-1';
</script>
<script xlink:href="svgpan.js"/>
<svg id="graph" class="graph">
<g id="viewport">
<title>include/ccf/serdes.h</title>
<polygon fill="white" stroke="transparent" points="-4,4 -4,-471 1344.78,-471 1344.78,4 -4,4"/>
<!-- Node1 -->
<g id="node1" class="node">
<title>Node1</title>
<g id="a_node1"><a xlink:title=" ">
<polygon fill="#bfbfbf" stroke="black" points="944.28,-447.5 944.28,-466.5 1057.28,-466.5 1057.28,-447.5 944.28,-447.5"/>
<text text-anchor="middle" x="1000.78" y="-454.5" font-family="Helvetica,sans-Serif" font-size="10.00">include/ccf/serdes.h</text>
</a>
</g>
</g>
<!-- Node2 -->
<g id="node2" class="node">
<title>Node2</title>
<g id="a_node2"><a xlink:href="json__handler_8h.html" target="_top" xlink:title=" ">
<polygon fill="white" stroke="black" points="402.28,-386 402.28,-405 545.28,-405 545.28,-386 402.28,-386"/>
<text text-anchor="middle" x="473.78" y="-393" font-family="Helvetica,sans-Serif" font-size="10.00">include/ccf/json_handler.h</text>
</a>
</g>
</g>
<!-- Node1&#45;&gt;Node2 -->
<g id="edge1" class="edge">
<title>Node1&#45;&gt;Node2</title>
<path fill="none" stroke="midnightblue" d="M933.89,-448.45C834.33,-437.21 647.92,-416.16 545.58,-404.61"/>
<polygon fill="midnightblue" stroke="midnightblue" points="933.8,-451.96 944.13,-449.6 934.59,-445 933.8,-451.96"/>
</g>
<!-- Node12 -->
<g id="node12" class="node">
<title>Node12</title>
<g id="a_node12"><a xlink:href="jwt__key__auto__refresh_8h.html" target="_top" xlink:title=" ">
<polygon fill="white" stroke="black" points="796.28,-246.5 796.28,-276.5 921.28,-276.5 921.28,-246.5 796.28,-246.5"/>
<text text-anchor="start" x="804.28" y="-264.5" font-family="Helvetica,sans-Serif" font-size="10.00">src/node/jwt_key_auto</text>
<text text-anchor="middle" x="858.78" y="-253.5" font-family="Helvetica,sans-Serif" font-size="10.00">_refresh.h</text>
</a>
</g>
</g>
<!-- Node1&#45;&gt;Node12 -->
<g id="edge27" class="edge">
<title>Node1&#45;&gt;Node12</title>
<path fill="none" stroke="midnightblue" d="M996.99,-437.16C990.26,-407.76 973.84,-350.47 941.78,-313 928.4,-297.36 908.92,-285.16 892.2,-276.67"/>
<polygon fill="midnightblue" stroke="midnightblue" points="993.64,-438.24 999.17,-447.28 1000.48,-436.77 993.64,-438.24"/>
</g>
<!-- Node13 -->
<g id="node13" class="node">
<title>Node13</title>
<g id="a_node13"><a xlink:href="node__state_8h.html" target="_top" xlink:title=" ">
<polygon fill="white" stroke="black" points="783.78,-185 783.78,-204 907.78,-204 907.78,-185 783.78,-185"/>
<text text-anchor="middle" x="845.78" y="-192" font-family="Helvetica,sans-Serif" font-size="10.00">src/node/node_state.h</text>
</a>
</g>
</g>
<!-- Node1&#45;&gt;Node13 -->
<g id="edge28" class="edge">
<title>Node1&#45;&gt;Node13</title>
<path fill="none" stroke="midnightblue" d="M1015.03,-439.33C1045.89,-401.12 1112.45,-305.92 1064.78,-246 1045.47,-221.73 965.66,-208.12 907.96,-201.3"/>
<polygon fill="midnightblue" stroke="midnightblue" points="1012.05,-437.43 1008.37,-447.37 1017.44,-441.9 1012.05,-437.43"/>
</g>
<!-- Node15 -->
<g id="node15" class="node">
<title>Node15</title>
<g id="a_node15"><a xlink:href="rpc__tls__client_8h.html" target="_top" xlink:title=" ">
<polygon fill="white" stroke="black" points="1112.28,-380.5 1112.28,-410.5 1213.28,-410.5 1213.28,-380.5 1112.28,-380.5"/>
<text text-anchor="start" x="1120.28" y="-398.5" font-family="Helvetica,sans-Serif" font-size="10.00">src/clients/rpc_tls</text>
<text text-anchor="middle" x="1162.78" y="-387.5" font-family="Helvetica,sans-Serif" font-size="10.00">_client.h</text>
</a>
</g>
</g>
<!-- Node1&#45;&gt;Node15 -->
<g id="edge17" class="edge">
<title>Node1&#45;&gt;Node15</title>
<path fill="none" stroke="midnightblue" d="M1033.52,-443.98C1059.86,-434.3 1096.91,-420.69 1124.6,-410.52"/>
<polygon fill="midnightblue" stroke="midnightblue" points="1032.17,-440.74 1023.99,-447.48 1034.58,-447.31 1032.17,-440.74"/>
</g>
<!-- Node20 -->
<g id="node20" class="node">
<title>Node20</title>
<g id="a_node20"><a xlink:href="orc__requests_8h.html" target="_top" xlink:title=" ">
<polygon fill="white" stroke="black" points="834.28,-380.5 834.28,-410.5 953.28,-410.5 953.28,-380.5 834.28,-380.5"/>
<text text-anchor="start" x="842.28" y="-398.5" font-family="Helvetica,sans-Serif" font-size="10.00">src/consensus/aft/orc</text>
<text text-anchor="middle" x="893.78" y="-387.5" font-family="Helvetica,sans-Serif" font-size="10.00">_requests.h</text>
</a>
</g>
</g>
<!-- Node1&#45;&gt;Node20 -->
<g id="edge23" class="edge">
<title>Node1&#45;&gt;Node20</title>
<path fill="none" stroke="midnightblue" d="M976.58,-442.54C959.4,-432.99 936.4,-420.2 919,-410.52"/>
<polygon fill="midnightblue" stroke="midnightblue" points="975.01,-445.67 985.45,-447.48 978.41,-439.56 975.01,-445.67"/>
</g>
<!-- Node22 -->
<g id="node22" class="node">
<title>Node22</title>
<g id="a_node22"><a xlink:href="resharing_8h.html" target="_top" xlink:title=" ">
<polygon fill="white" stroke="black" points="939.78,-252 939.78,-271 1055.78,-271 1055.78,-252 939.78,-252"/>
<text text-anchor="middle" x="997.78" y="-259" font-family="Helvetica,sans-Serif" font-size="10.00">src/node/resharing.h</text>
</a>
</g>
</g>
<!-- Node1&#45;&gt;Node22 -->
<g id="edge29" class="edge">
<title>Node1&#45;&gt;Node22</title>
<path fill="none" stroke="midnightblue" d="M1000.49,-437.29C999.86,-396.53 998.38,-301.01 997.92,-271.41"/>
<polygon fill="midnightblue" stroke="midnightblue" points="996.99,-437.49 1000.65,-447.44 1003.99,-437.38 996.99,-437.49"/>
</g>
<!-- Node3 -->
<g id="node3" class="node">
<title>Node3</title>
<g id="a_node3"><a xlink:href="logging_8cpp.html" target="_top" xlink:title=" ">
<polygon fill="white" stroke="black" points="27.28,-313.5 27.28,-343.5 150.28,-343.5 150.28,-313.5 27.28,-313.5"/>
<text text-anchor="start" x="35.28" y="-331.5" font-family="Helvetica,sans-Serif" font-size="10.00">samples/apps/logging</text>
<text text-anchor="middle" x="88.78" y="-320.5" font-family="Helvetica,sans-Serif" font-size="10.00">/logging.cpp</text>
</a>
</g>
</g>
<!-- Node2&#45;&gt;Node3 -->
<g id="edge2" class="edge">
<title>Node2&#45;&gt;Node3</title>
<path fill="none" stroke="midnightblue" d="M405.63,-384.49C341.73,-374.88 243.58,-359.57 158.78,-344 156.09,-343.51 153.35,-342.99 150.59,-342.46"/>
<polygon fill="midnightblue" stroke="midnightblue" points="405.18,-387.96 415.59,-385.98 406.22,-381.03 405.18,-387.96"/>
</g>
<!-- Node4 -->
<g id="node4" class="node">
<title>Node4</title>
<g id="a_node4"><a xlink:href="nobuiltins_8cpp.html" target="_top" xlink:title=" ">
<polygon fill="white" stroke="black" points="168.28,-313.5 168.28,-343.5 303.28,-343.5 303.28,-313.5 168.28,-313.5"/>
<text text-anchor="start" x="176.28" y="-331.5" font-family="Helvetica,sans-Serif" font-size="10.00">samples/apps/nobuiltins</text>
<text text-anchor="middle" x="235.78" y="-320.5" font-family="Helvetica,sans-Serif" font-size="10.00">/nobuiltins.cpp</text>
</a>
</g>
</g>
<!-- Node2&#45;&gt;Node4 -->
<g id="edge3" class="edge">
<title>Node2&#45;&gt;Node4</title>
<path fill="none" stroke="midnightblue" d="M432.4,-383.2C392.05,-372.18 330.59,-355.39 287.14,-343.53"/>
<polygon fill="midnightblue" stroke="midnightblue" points="431.61,-386.61 442.18,-385.87 433.45,-379.86 431.61,-386.61"/>
</g>
<!-- Node5 -->
<g id="node5" class="node">
<title>Node5</title>
<g id="a_node5"><a xlink:href="external__executor_8cpp.html" target="_top" xlink:title=" ">
<polygon fill="white" stroke="black" points="321.78,-313.5 321.78,-343.5 469.78,-343.5 469.78,-313.5 321.78,-313.5"/>
<text text-anchor="start" x="329.78" y="-331.5" font-family="Helvetica,sans-Serif" font-size="10.00">src/apps/external_executor</text>
<text text-anchor="middle" x="395.78" y="-320.5" font-family="Helvetica,sans-Serif" font-size="10.00">/external_executor.cpp</text>
</a>
</g>
</g>
<!-- Node2&#45;&gt;Node5 -->
<g id="edge4" class="edge">
<title>Node2&#45;&gt;Node5</title>
<path fill="none" stroke="midnightblue" d="M455.46,-379.24C442.52,-368.45 425.3,-354.1 412.69,-343.59"/>
<polygon fill="midnightblue" stroke="midnightblue" points="453.34,-382.02 463.26,-385.73 457.82,-376.64 453.34,-382.02"/>
</g>
<!-- Node6 -->
<g id="node6" class="node">
<title>Node6</title>
<g id="a_node6"><a xlink:href="common__endpoint__registry_8cpp.html" target="_top" xlink:title=" ">
<polygon fill="white" stroke="black" points="487.78,-313.5 487.78,-343.5 615.78,-343.5 615.78,-313.5 487.78,-313.5"/>
<text text-anchor="start" x="495.78" y="-331.5" font-family="Helvetica,sans-Serif" font-size="10.00">src/endpoints/common</text>
<text text-anchor="middle" x="551.78" y="-320.5" font-family="Helvetica,sans-Serif" font-size="10.00">_endpoint_registry.cpp</text>
</a>
</g>
</g>
<!-- Node2&#45;&gt;Node6 -->
<g id="edge5" class="edge">
<title>Node2&#45;&gt;Node6</title>
<path fill="none" stroke="midnightblue" d="M492.1,-379.24C505.04,-368.45 522.26,-354.1 534.87,-343.59"/>
<polygon fill="midnightblue" stroke="midnightblue" points="489.74,-376.64 484.3,-385.73 494.22,-382.02 489.74,-376.64"/>
</g>
<!-- Node7 -->
<g id="node7" class="node">
<title>Node7</title>
<g id="a_node7"><a xlink:href="json__handler_8cpp.html" target="_top" xlink:title=" ">
<polygon fill="white" stroke="black" points="634.28,-313.5 634.28,-343.5 739.28,-343.5 739.28,-313.5 634.28,-313.5"/>
<text text-anchor="start" x="642.28" y="-331.5" font-family="Helvetica,sans-Serif" font-size="10.00">src/endpoints/json</text>
<text text-anchor="middle" x="686.78" y="-320.5" font-family="Helvetica,sans-Serif" font-size="10.00">_handler.cpp</text>
</a>
</g>
</g>
<!-- Node2&#45;&gt;Node7 -->
<g id="edge6" class="edge">
<title>Node2&#45;&gt;Node7</title>
<path fill="none" stroke="midnightblue" d="M511.74,-382.92C547.85,-371.9 602.26,-355.29 640.81,-343.53"/>
<polygon fill="midnightblue" stroke="midnightblue" points="510.61,-379.6 502.06,-385.87 512.65,-386.3 510.61,-379.6"/>
</g>
<!-- Node8 -->
<g id="node8" class="node">
<title>Node8</title>
<g id="a_node8"><a xlink:href="member__frontend_8h.html" target="_top" xlink:title=" ">
<polygon fill="white" stroke="black" points="216.78,-112.5 216.78,-142.5 336.78,-142.5 336.78,-112.5 216.78,-112.5"/>
<text text-anchor="start" x="224.78" y="-130.5" font-family="Helvetica,sans-Serif" font-size="10.00">src/node/rpc/member</text>
<text text-anchor="middle" x="276.78" y="-119.5" font-family="Helvetica,sans-Serif" font-size="10.00">_frontend.h</text>
</a>
</g>
</g>
<!-- Node2&#45;&gt;Node8 -->
<g id="edge7" class="edge">
<title>Node2&#45;&gt;Node8</title>
<path fill="none" stroke="midnightblue" d="M391.81,-391.25C267.28,-385.45 42.23,-371.31 17.78,-344 -60.16,-256.95 141.21,-174.54 233.47,-142.53"/>
<polygon fill="midnightblue" stroke="midnightblue" points="391.92,-394.76 402.07,-391.72 392.24,-387.76 391.92,-394.76"/>
</g>
<!-- Node11 -->
<g id="node11" class="node">
<title>Node11</title>
<g id="a_node11"><a xlink:href="node__frontend_8h.html" target="_top" xlink:title=" ">
<polygon fill="white" stroke="black" points="757.78,-319 757.78,-338 915.78,-338 915.78,-319 757.78,-319"/>
<text text-anchor="middle" x="836.78" y="-326" font-family="Helvetica,sans-Serif" font-size="10.00">src/node/rpc/node_frontend.h</text>
</a>
</g>
</g>
<!-- Node2&#45;&gt;Node11 -->
<g id="edge10" class="edge">
<title>Node2&#45;&gt;Node11</title>
<path fill="none" stroke="midnightblue" d="M531.77,-384.12C603.12,-371.34 722.9,-349.89 789.13,-338.03"/>
<polygon fill="midnightblue" stroke="midnightblue" points="530.84,-380.73 521.61,-385.94 532.07,-387.62 530.84,-380.73"/>
</g>
<!-- Node9 -->
<g id="node9" class="node">
<title>Node9</title>
<g id="a_node9"><a xlink:href="src_2enclave_2enclave_8h.html" target="_top" xlink:title=" ">
<polygon fill="white" stroke="black" points="603.78,-56.5 603.78,-75.5 725.78,-75.5 725.78,-56.5 603.78,-56.5"/>
<text text-anchor="middle" x="664.78" y="-63.5" font-family="Helvetica,sans-Serif" font-size="10.00">src/enclave/enclave.h</text>
</a>
</g>
</g>
<!-- Node8&#45;&gt;Node9 -->
<g id="edge8" class="edge">
<title>Node8&#45;&gt;Node9</title>
<path fill="none" stroke="midnightblue" d="M347.31,-115.68C422.55,-104.15 540.19,-86.11 609.16,-75.53"/>
<polygon fill="midnightblue" stroke="midnightblue" points="346.33,-112.29 336.98,-117.27 347.39,-119.21 346.33,-112.29"/>
</g>
<!-- Node10 -->
<g id="node10" class="node">
<title>Node10</title>
<g id="a_node10"><a xlink:href="enclave_2main_8cpp.html" target="_top" xlink:title=" ">
<polygon fill="white" stroke="black" points="604.78,-0.5 604.78,-19.5 724.78,-19.5 724.78,-0.5 604.78,-0.5"/>
<text text-anchor="middle" x="664.78" y="-7.5" font-family="Helvetica,sans-Serif" font-size="10.00">src/enclave/main.cpp</text>
</a>
</g>
</g>
<!-- Node9&#45;&gt;Node10 -->
<g id="edge9" class="edge">
<title>Node9&#45;&gt;Node10</title>
<path fill="none" stroke="midnightblue" d="M664.78,-45.8C664.78,-36.91 664.78,-26.78 664.78,-19.75"/>
<polygon fill="midnightblue" stroke="midnightblue" points="661.28,-46.08 664.78,-56.08 668.28,-46.08 661.28,-46.08"/>
</g>
<!-- Node11&#45;&gt;Node9 -->
<g id="edge11" class="edge">
<title>Node11&#45;&gt;Node9</title>
<path fill="none" stroke="midnightblue" d="M781.5,-316.92C726.37,-305.8 648.62,-288.39 639.78,-277 590.94,-214.06 642.86,-106.93 659.82,-75.75"/>
<polygon fill="midnightblue" stroke="midnightblue" points="781.02,-320.39 791.51,-318.92 782.39,-313.53 781.02,-320.39"/>
</g>
<!-- Node11&#45;&gt;Node12 -->
<g id="edge12" class="edge">
<title>Node11&#45;&gt;Node12</title>
<path fill="none" stroke="midnightblue" d="M843.02,-309.06C846.51,-298.75 850.79,-286.1 854.01,-276.59"/>
<polygon fill="midnightblue" stroke="midnightblue" points="839.64,-308.14 839.75,-318.73 846.27,-310.38 839.64,-308.14"/>
</g>
<!-- Node12&#45;&gt;Node13 -->
<g id="edge13" class="edge">
<title>Node12&#45;&gt;Node13</title>
<path fill="none" stroke="midnightblue" d="M853.93,-236.25C851.68,-225.02 849.16,-212.38 847.52,-204.19"/>
<polygon fill="midnightblue" stroke="midnightblue" points="850.57,-237.28 855.96,-246.4 857.43,-235.9 850.57,-237.28"/>
</g>
<!-- Node13&#45;&gt;Node9 -->
<g id="edge14" class="edge">
<title>Node13&#45;&gt;Node9</title>
<path fill="none" stroke="midnightblue" d="M818.25,-180.51C799.25,-171.08 773.72,-157.48 752.78,-143 721.56,-121.42 688.74,-90.55 673.5,-75.67"/>
<polygon fill="midnightblue" stroke="midnightblue" points="816.75,-183.68 827.27,-184.92 819.83,-177.39 816.75,-183.68"/>
</g>
<!-- Node14 -->
<g id="node14" class="node">
<title>Node14</title>
<g id="a_node14"><a xlink:href="gov__effects_8h.html" target="_top" xlink:title=" ">
<polygon fill="white" stroke="black" points="761.78,-118 761.78,-137 905.78,-137 905.78,-118 761.78,-118"/>
<text text-anchor="middle" x="833.78" y="-125" font-family="Helvetica,sans-Serif" font-size="10.00">src/node/rpc/gov_effects.h</text>
</a>
</g>
</g>
<!-- Node13&#45;&gt;Node14 -->
<g id="edge15" class="edge">
<title>Node13&#45;&gt;Node14</title>
<path fill="none" stroke="midnightblue" d="M842.28,-174.54C840,-162.17 837.13,-146.62 835.37,-137.13"/>
<polygon fill="midnightblue" stroke="midnightblue" points="838.9,-175.54 844.16,-184.73 845.79,-174.26 838.9,-175.54"/>
</g>
<!-- Node14&#45;&gt;Node9 -->
<g id="edge16" class="edge">
<title>Node14&#45;&gt;Node9</title>
<path fill="none" stroke="midnightblue" d="M799.93,-114.58C767.08,-103.02 718.04,-85.75 688.95,-75.51"/>
<polygon fill="midnightblue" stroke="midnightblue" points="798.97,-117.96 809.57,-117.98 801.3,-111.35 798.97,-117.96"/>
</g>
<!-- Node16 -->
<g id="node16" class="node">
<title>Node16</title>
<g id="a_node16"><a xlink:href="perf__client_8h.html" target="_top" xlink:title=" ">
<polygon fill="white" stroke="black" points="1156.28,-246.5 1156.28,-276.5 1267.28,-276.5 1267.28,-246.5 1156.28,-246.5"/>
<text text-anchor="start" x="1164.28" y="-264.5" font-family="Helvetica,sans-Serif" font-size="10.00">src/clients/perf/perf</text>
<text text-anchor="middle" x="1211.78" y="-253.5" font-family="Helvetica,sans-Serif" font-size="10.00">_client.h</text>
</a>
</g>
</g>
<!-- Node15&#45;&gt;Node16 -->
<g id="edge18" class="edge">
<title>Node15&#45;&gt;Node16</title>
<path fill="none" stroke="midnightblue" d="M1157.64,-370.26C1155.23,-353.54 1154.32,-331.14 1161.78,-313 1167.83,-298.28 1180.48,-285.57 1191.54,-276.59"/>
<polygon fill="midnightblue" stroke="midnightblue" points="1154.22,-371.06 1159.36,-380.32 1161.12,-369.88 1154.22,-371.06"/>
</g>
<!-- Node19 -->
<g id="node19" class="node">
<title>Node19</title>
<g id="a_node19"><a xlink:href="timing_8h.html" target="_top" xlink:title=" ">
<polygon fill="white" stroke="black" points="1170.78,-319 1170.78,-338 1302.78,-338 1302.78,-319 1170.78,-319"/>
<text text-anchor="middle" x="1236.78" y="-326" font-family="Helvetica,sans-Serif" font-size="10.00">src/clients/perf/timing.h</text>
</a>
</g>
</g>
<!-- Node15&#45;&gt;Node19 -->
<g id="edge21" class="edge">
<title>Node15&#45;&gt;Node19</title>
<path fill="none" stroke="midnightblue" d="M1186.49,-373.67C1200.15,-361.67 1216.61,-347.22 1226.88,-338.19"/>
<polygon fill="midnightblue" stroke="midnightblue" points="1184.04,-371.17 1178.84,-380.4 1188.66,-376.43 1184.04,-371.17"/>
</g>
<!-- Node17 -->
<g id="node17" class="node">
<title>Node17</title>
<g id="a_node17"><a xlink:href="tpcc__client_8cpp.html" target="_top" xlink:title=" ">
<polygon fill="white" stroke="black" points="1224.78,-179.5 1224.78,-209.5 1340.78,-209.5 1340.78,-179.5 1224.78,-179.5"/>
<text text-anchor="start" x="1232.78" y="-197.5" font-family="Helvetica,sans-Serif" font-size="10.00">src/apps/tpcc/clients</text>
<text text-anchor="middle" x="1282.78" y="-186.5" font-family="Helvetica,sans-Serif" font-size="10.00">/tpcc_client.cpp</text>
</a>
</g>
</g>
<!-- Node16&#45;&gt;Node17 -->
<g id="edge19" class="edge">
<title>Node16&#45;&gt;Node17</title>
<path fill="none" stroke="midnightblue" d="M1234.61,-239.6C1245.33,-229.78 1257.83,-218.34 1267.4,-209.58"/>
<polygon fill="midnightblue" stroke="midnightblue" points="1232.2,-237.06 1227.19,-246.4 1236.93,-242.22 1232.2,-237.06"/>
</g>
<!-- Node18 -->
<g id="node18" class="node">
<title>Node18</title>
<g id="a_node18"><a xlink:href="scenario__perf__client_8cpp.html" target="_top" xlink:title=" ">
<polygon fill="white" stroke="black" points="1073.28,-179.5 1073.28,-209.5 1206.28,-209.5 1206.28,-179.5 1073.28,-179.5"/>
<text text-anchor="start" x="1081.28" y="-197.5" font-family="Helvetica,sans-Serif" font-size="10.00">src/clients/perf/scenario</text>
<text text-anchor="middle" x="1139.78" y="-186.5" font-family="Helvetica,sans-Serif" font-size="10.00">_perf_client.cpp</text>
</a>
</g>
</g>
<!-- Node16&#45;&gt;Node18 -->
<g id="edge20" class="edge">
<title>Node16&#45;&gt;Node18</title>
<path fill="none" stroke="midnightblue" d="M1188.63,-239.6C1177.75,-229.78 1165.08,-218.34 1155.37,-209.58"/>
<polygon fill="midnightblue" stroke="midnightblue" points="1186.39,-242.29 1196.16,-246.4 1191.08,-237.1 1186.39,-242.29"/>
</g>
<!-- Node19&#45;&gt;Node16 -->
<g id="edge22" class="edge">
<title>Node19&#45;&gt;Node16</title>
<path fill="none" stroke="midnightblue" d="M1229.81,-309.39C1225.83,-299.02 1220.9,-286.2 1217.2,-276.59"/>
<polygon fill="midnightblue" stroke="midnightblue" points="1226.55,-310.66 1233.41,-318.73 1233.09,-308.14 1226.55,-310.66"/>
</g>
<!-- Node20&#45;&gt;Node11 -->
<g id="edge26" class="edge">
<title>Node20&#45;&gt;Node11</title>
<path fill="none" stroke="midnightblue" d="M874.63,-372.66C864.28,-360.86 852.1,-346.97 844.4,-338.19"/>
<polygon fill="midnightblue" stroke="midnightblue" points="872.19,-375.18 881.41,-380.4 877.45,-370.57 872.19,-375.18"/>
</g>
<!-- Node21 -->
<g id="node21" class="node">
<title>Node21</title>
<g id="a_node21"><a xlink:href="raft_8h.html" target="_top" xlink:title=" ">
<polygon fill="white" stroke="black" points="649.28,-252 649.28,-271 778.28,-271 778.28,-252 649.28,-252"/>
<text text-anchor="middle" x="713.78" y="-259" font-family="Helvetica,sans-Serif" font-size="10.00">src/consensus/aft/raft.h</text>
</a>
</g>
</g>
<!-- Node20&#45;&gt;Node21 -->
<g id="edge24" class="edge">
<title>Node20&#45;&gt;Node21</title>
<path fill="none" stroke="midnightblue" d="M913.36,-372.24C926.3,-354.73 938.56,-330.47 924.78,-313 919.47,-306.27 815.07,-283.59 755.15,-271.03"/>
<polygon fill="midnightblue" stroke="midnightblue" points="910.51,-370.21 907.07,-380.23 916,-374.54 910.51,-370.21"/>
</g>
<!-- Node21&#45;&gt;Node13 -->
<g id="edge25" class="edge">
<title>Node21&#45;&gt;Node13</title>
<path fill="none" stroke="midnightblue" d="M740.29,-247.44C766.44,-234.57 805.66,-215.26 828.18,-204.17"/>
<polygon fill="midnightblue" stroke="midnightblue" points="738.73,-244.31 731.31,-251.87 741.83,-250.59 738.73,-244.31"/>
</g>
<!-- Node22&#45;&gt;Node13 -->
<g id="edge30" class="edge">
<title>Node22&#45;&gt;Node13</title>
<path fill="none" stroke="midnightblue" d="M968.04,-247.78C937.94,-234.91 892.21,-215.35 866.05,-204.17"/>
<polygon fill="midnightblue" stroke="midnightblue" points="967.02,-251.15 977.6,-251.87 969.78,-244.72 967.02,-251.15"/>
</g>
</g>
</svg>
        <g id="navigator" transform="translate(0 0)" fill="#404254">
                <rect fill="#f2f5e9" fill-opacity="0.5" stroke="#606060" stroke-width=".5" x="0" y="0" width="60" height="60"/>
                <use id="zoomplus" xlink:href="#zoomPlus" x="17" y="9" onmousedown="handleZoom(evt,'in')"/>
                <use id="zoomminus" xlink:href="#zoomMin" x="42" y="9" onmousedown="handleZoom(evt,'out')"/>
                <use id="reset" xlink:href="#resetDef" x="30" y="36" onmousedown="handleReset()"/>
                <g id="arrowUp" xlink:href="#dirArrow" transform="translate(30 24)" onmousedown="handlePan(0,-1)">
                  <use xlink:href="#rim" fill="#404040">
                        <set attributeName="fill" to="#808080" begin="arrowUp.mouseover" end="arrowUp.mouseout"/>
                  </use>
                  <path fill="none" stroke="white" stroke-width="1.5" d="M0,-3.0v7 M-2.5,-0.5L0,-3.0L2.5,-0.5"/>
                </g>
                <g id="arrowRight" xlink:href="#dirArrow" transform="rotate(90) translate(36 -43)" onmousedown="handlePan(1,0)">
                  <use xlink:href="#rim" fill="#404040">
                        <set attributeName="fill" to="#808080" begin="arrowRight.mouseover" end="arrowRight.mouseout"/>
                  </use>
                  <path fill="none" stroke="white" stroke-width="1.5" d="M0,-3.0v7 M-2.5,-0.5L0,-3.0L2.5,-0.5"/>
                </g>
                <g id="arrowDown" xlink:href="#dirArrow" transform="rotate(180) translate(-30 -48)" onmousedown="handlePan(0,1)">
                  <use xlink:href="#rim" fill="#404040">
                        <set attributeName="fill" to="#808080" begin="arrowDown.mouseover" end="arrowDown.mouseout"/>
                  </use>
                  <path fill="none" stroke="white" stroke-width="1.5" d="M0,-3.0v7 M-2.5,-0.5L0,-3.0L2.5,-0.5"/>
                </g>
                <g id="arrowLeft" xlink:href="#dirArrow" transform="rotate(270) translate(-36 17)" onmousedown="handlePan(-1,0)">
                  <use xlink:href="#rim" fill="#404040">
                        <set attributeName="fill" to="#808080" begin="arrowLeft.mouseover" end="arrowLeft.mouseout"/>
                  </use>
                  <path fill="none" stroke="white" stroke-width="1.5" d="M0,-3.0v7 M-2.5,-0.5L0,-3.0L2.5,-0.5"/>
                </g>
        </g>
        <svg viewBox="0 0 15 15" width="100%" height="30px" preserveAspectRatio="xMaxYMin meet">
         <g id="arrow_out" transform="scale(0.3 0.3)">
          <a xlink:href="serdes_8h__dep__incl_org.svg" target="_base">
           <rect id="button" ry="5" rx="5" y="6" x="6" height="38" width="38"
                fill="#f2f5e9" fill-opacity="0.5" stroke="#606060" stroke-width="1.0"/>
           <path id="arrow"
             d="M 11.500037,31.436501 C 11.940474,20.09759 22.043105,11.32322 32.158766,21.979434 L 37.068811,17.246167 C 37.068811,17.246167 37.088388,32 37.088388,32 L 22.160133,31.978069 C 22.160133,31.978069 26.997745,27.140456 26.997745,27.140456 C 18.528582,18.264221 13.291696,25.230495 11.500037,31.436501 z"
             style="fill:#404040;"/>
          </a>
         </g>
        </svg>
</svg>
