<?xml version="1.0" encoding="UTF-8" standalone="no"?>
<!DOCTYPE svg PUBLIC "-//W3C//DTD SVG 1.1//EN"
 "http://www.w3.org/Graphics/SVG/1.1/DTD/svg11.dtd">
<!-- Generated by graphviz version 2.43.0 (0)
 -->
<!-- Title: include/ccf/service/tables/service.h Pages: 1 -->
<svg width="2529pt" height="598pt"
 viewBox="0.00 0.00 2529.40 598.00" xmlns="http://www.w3.org/2000/svg" xmlns:xlink="http://www.w3.org/1999/xlink">
<g id="graph0" class="graph" transform="scale(1 1) rotate(0) translate(4 594)">
<title>include/ccf/service/tables/service.h</title>
<polygon fill="white" stroke="transparent" points="-4,4 -4,-594 2525.4,-594 2525.4,4 -4,4"/>
<!-- Node1 -->
<g id="node1" class="node">
<title>Node1</title>
<g id="a_node1"><a xlink:title=" ">
<polygon fill="#bfbfbf" stroke="black" points="1188.5,-559.5 1188.5,-589.5 1295.5,-589.5 1295.5,-559.5 1188.5,-559.5"/>
<text text-anchor="start" x="1196.5" y="-577.5" font-family="Helvetica,sans-Serif" font-size="10.00">include/ccf/service</text>
<text text-anchor="middle" x="1242" y="-566.5" font-family="Helvetica,sans-Serif" font-size="10.00">/tables/service.h</text>
</a>
</g>
</g>
<!-- Node2 -->
<g id="node2" class="node">
<title>Node2</title>
<g id="a_node2"><a xlink:href="historical__queries__adapter_8cpp.html" target="_top" xlink:title=" ">
<polygon fill="white" stroke="black" points="730,-492.5 730,-522.5 850,-522.5 850,-492.5 730,-492.5"/>
<text text-anchor="start" x="738" y="-510.5" font-family="Helvetica,sans-Serif" font-size="10.00">src/node/historical</text>
<text text-anchor="middle" x="790" y="-499.5" font-family="Helvetica,sans-Serif" font-size="10.00">_queries_adapter.cpp</text>
</a>
</g>
</g>
<!-- Node1&#45;&gt;Node2 -->
<g id="edge1" class="edge">
<title>Node1&#45;&gt;Node2</title>
<path fill="none" stroke="midnightblue" d="M1178.06,-566.16C1102.75,-557.23 973.97,-541.1 864,-523 859.48,-522.26 854.81,-521.44 850.12,-520.6"/>
<polygon fill="midnightblue" stroke="midnightblue" points="1177.99,-569.67 1188.33,-567.37 1178.81,-562.72 1177.99,-569.67"/>
</g>
<!-- Node3 -->
<g id="node3" class="node">
<title>Node3</title>
<g id="a_node3"><a xlink:href="node__state_8h.html" target="_top" xlink:title=" ">
<polygon fill="white" stroke="black" points="1405,-168.5 1405,-187.5 1529,-187.5 1529,-168.5 1405,-168.5"/>
<text text-anchor="middle" x="1467" y="-175.5" font-family="Helvetica,sans-Serif" font-size="10.00">src/node/node_state.h</text>
</a>
</g>
</g>
<!-- Node1&#45;&gt;Node3 -->
<g id="edge2" class="edge">
<title>Node1&#45;&gt;Node3</title>
<path fill="none" stroke="midnightblue" d="M1178.18,-563.81C1073.78,-546.15 878,-504.6 878,-441.5 878,-441.5 878,-441.5 878,-372.5 878,-266.37 966.89,-264.48 1065,-224 1124.97,-199.26 1307.75,-186.79 1404.85,-181.77"/>
<polygon fill="midnightblue" stroke="midnightblue" points="1177.85,-567.31 1188.29,-565.5 1179,-560.4 1177.85,-567.31"/>
</g>
<!-- Node7 -->
<g id="node7" class="node">
<title>Node7</title>
<g id="a_node7"><a xlink:href="frontend_8h.html" target="_top" xlink:title=" ">
<polygon fill="white" stroke="black" points="1762.5,-364 1762.5,-383 1891.5,-383 1891.5,-364 1762.5,-364"/>
<text text-anchor="middle" x="1827" y="-371" font-family="Helvetica,sans-Serif" font-size="10.00">src/node/rpc/frontend.h</text>
</a>
</g>
</g>
<!-- Node1&#45;&gt;Node7 -->
<g id="edge7" class="edge">
<title>Node1&#45;&gt;Node7</title>
<path fill="none" stroke="midnightblue" d="M1293.37,-556.03C1414.26,-514.9 1713.21,-413.21 1801.85,-383.06"/>
<polygon fill="midnightblue" stroke="midnightblue" points="1291.94,-552.81 1283.6,-559.35 1294.2,-559.44 1291.94,-552.81"/>
</g>
<!-- Node14 -->
<g id="node14" class="node">
<title>Node14</title>
<g id="a_node14"><a xlink:href="node__call__types_8h.html" target="_top" xlink:title=" ">
<polygon fill="white" stroke="black" points="1827.5,-492.5 1827.5,-522.5 1952.5,-522.5 1952.5,-492.5 1827.5,-492.5"/>
<text text-anchor="start" x="1835.5" y="-510.5" font-family="Helvetica,sans-Serif" font-size="10.00">src/node/rpc/node_call</text>
<text text-anchor="middle" x="1890" y="-499.5" font-family="Helvetica,sans-Serif" font-size="10.00">_types.h</text>
</a>
</g>
</g>
<!-- Node1&#45;&gt;Node14 -->
<g id="edge21" class="edge">
<title>Node1&#45;&gt;Node14</title>
<path fill="none" stroke="midnightblue" d="M1305.71,-567.11C1430.11,-554.63 1703.94,-527.16 1827.42,-514.78"/>
<polygon fill="midnightblue" stroke="midnightblue" points="1305.18,-563.64 1295.58,-568.13 1305.88,-570.61 1305.18,-563.64"/>
</g>
<!-- Node20 -->
<g id="node20" class="node">
<title>Node20</title>
<g id="a_node20"><a xlink:href="network__tables_8h.html" target="_top" xlink:title=" ">
<polygon fill="white" stroke="black" points="1186,-425.5 1186,-455.5 1298,-455.5 1298,-425.5 1186,-425.5"/>
<text text-anchor="start" x="1194" y="-443.5" font-family="Helvetica,sans-Serif" font-size="10.00">src/service/network</text>
<text text-anchor="middle" x="1242" y="-432.5" font-family="Helvetica,sans-Serif" font-size="10.00">_tables.h</text>
</a>
</g>
</g>
<!-- Node1&#45;&gt;Node20 -->
<g id="edge34" class="edge">
<title>Node1&#45;&gt;Node20</title>
<path fill="none" stroke="midnightblue" d="M1242,-549.02C1242,-521.51 1242,-477.79 1242,-455.52"/>
<polygon fill="midnightblue" stroke="midnightblue" points="1238.5,-549.37 1242,-559.37 1245.5,-549.37 1238.5,-549.37"/>
</g>
<!-- Node4 -->
<g id="node4" class="node">
<title>Node4</title>
<g id="a_node4"><a xlink:href="src_2enclave_2enclave_8h.html" target="_top" xlink:title=" ">
<polygon fill="white" stroke="black" points="1457,-56.5 1457,-75.5 1579,-75.5 1579,-56.5 1457,-56.5"/>
<text text-anchor="middle" x="1518" y="-63.5" font-family="Helvetica,sans-Serif" font-size="10.00">src/enclave/enclave.h</text>
</a>
</g>
</g>
<!-- Node3&#45;&gt;Node4 -->
<g id="edge3" class="edge">
<title>Node3&#45;&gt;Node4</title>
<path fill="none" stroke="midnightblue" d="M1431.19,-164.87C1403.04,-153.31 1371.03,-134.38 1387,-112 1403,-89.59 1430.89,-78.22 1456.84,-72.51"/>
<polygon fill="midnightblue" stroke="midnightblue" points="1429.93,-168.13 1440.52,-168.5 1432.47,-161.61 1429.93,-168.13"/>
</g>
<!-- Node6 -->
<g id="node6" class="node">
<title>Node6</title>
<g id="a_node6"><a xlink:href="gov__effects_8h.html" target="_top" xlink:title=" ">
<polygon fill="white" stroke="black" points="1396,-112.5 1396,-131.5 1540,-131.5 1540,-112.5 1396,-112.5"/>
<text text-anchor="middle" x="1468" y="-119.5" font-family="Helvetica,sans-Serif" font-size="10.00">src/node/rpc/gov_effects.h</text>
</a>
</g>
</g>
<!-- Node3&#45;&gt;Node6 -->
<g id="edge5" class="edge">
<title>Node3&#45;&gt;Node6</title>
<path fill="none" stroke="midnightblue" d="M1467.36,-157.8C1467.52,-148.91 1467.71,-138.78 1467.84,-131.75"/>
<polygon fill="midnightblue" stroke="midnightblue" points="1463.85,-158.02 1467.17,-168.08 1470.85,-158.15 1463.85,-158.02"/>
</g>
<!-- Node5 -->
<g id="node5" class="node">
<title>Node5</title>
<g id="a_node5"><a xlink:href="enclave_2main_8cpp.html" target="_top" xlink:title=" ">
<polygon fill="white" stroke="black" points="1458,-0.5 1458,-19.5 1578,-19.5 1578,-0.5 1458,-0.5"/>
<text text-anchor="middle" x="1518" y="-7.5" font-family="Helvetica,sans-Serif" font-size="10.00">src/enclave/main.cpp</text>
</a>
</g>
</g>
<!-- Node4&#45;&gt;Node5 -->
<g id="edge4" class="edge">
<title>Node4&#45;&gt;Node5</title>
<path fill="none" stroke="midnightblue" d="M1518,-45.8C1518,-36.91 1518,-26.78 1518,-19.75"/>
<polygon fill="midnightblue" stroke="midnightblue" points="1514.5,-46.08 1518,-56.08 1521.5,-46.08 1514.5,-46.08"/>
</g>
<!-- Node6&#45;&gt;Node4 -->
<g id="edge6" class="edge">
<title>Node6&#45;&gt;Node4</title>
<path fill="none" stroke="midnightblue" d="M1483.08,-104.72C1491.89,-95.2 1502.67,-83.56 1509.9,-75.75"/>
<polygon fill="midnightblue" stroke="midnightblue" points="1480.48,-102.37 1476.26,-112.08 1485.62,-107.12 1480.48,-102.37"/>
</g>
<!-- Node7&#45;&gt;Node3 -->
<g id="edge12" class="edge">
<title>Node7&#45;&gt;Node3</title>
<path fill="none" stroke="midnightblue" d="M1842.85,-356.31C1857.91,-338.92 1876.17,-311.08 1861,-291 1839.19,-262.13 1603.09,-208.39 1507.16,-187.56"/>
<polygon fill="midnightblue" stroke="midnightblue" points="1840.05,-354.19 1835.88,-363.92 1845.21,-358.91 1840.05,-354.19"/>
</g>
<!-- Node8 -->
<g id="node8" class="node">
<title>Node8</title>
<g id="a_node8"><a xlink:href="acme__challenge__frontend_8h.html" target="_top" xlink:title=" ">
<polygon fill="white" stroke="black" points="1337,-291.5 1337,-321.5 1477,-321.5 1477,-291.5 1337,-291.5"/>
<text text-anchor="start" x="1345" y="-309.5" font-family="Helvetica,sans-Serif" font-size="10.00">src/node/acme_challenge</text>
<text text-anchor="middle" x="1407" y="-298.5" font-family="Helvetica,sans-Serif" font-size="10.00">_frontend.h</text>
</a>
</g>
</g>
<!-- Node7&#45;&gt;Node8 -->
<g id="edge8" class="edge">
<title>Node7&#45;&gt;Node8</title>
<path fill="none" stroke="midnightblue" d="M1761.57,-362.37C1684.34,-350.42 1556.41,-330.62 1477.17,-318.36"/>
<polygon fill="midnightblue" stroke="midnightblue" points="1761.24,-365.86 1771.66,-363.94 1762.31,-358.95 1761.24,-365.86"/>
</g>
<!-- Node10 -->
<g id="node10" class="node">
<title>Node10</title>
<g id="a_node10"><a xlink:href="member__frontend_8h.html" target="_top" xlink:title=" ">
<polygon fill="white" stroke="black" points="2034,-224.5 2034,-254.5 2154,-254.5 2154,-224.5 2034,-224.5"/>
<text text-anchor="start" x="2042" y="-242.5" font-family="Helvetica,sans-Serif" font-size="10.00">src/node/rpc/member</text>
<text text-anchor="middle" x="2094" y="-231.5" font-family="Helvetica,sans-Serif" font-size="10.00">_frontend.h</text>
</a>
</g>
</g>
<!-- Node7&#45;&gt;Node10 -->
<g id="edge13" class="edge">
<title>Node7&#45;&gt;Node10</title>
<path fill="none" stroke="midnightblue" d="M1901.92,-369.56C1976.08,-364.89 2082.19,-352.87 2108,-322 2123.93,-302.95 2111.94,-272.43 2102.49,-254.64"/>
<polygon fill="midnightblue" stroke="midnightblue" points="1901.45,-366.08 1891.68,-370.17 1901.87,-373.07 1901.45,-366.08"/>
</g>
<!-- Node11 -->
<g id="node11" class="node">
<title>Node11</title>
<g id="a_node11"><a xlink:href="node__frontend_8h.html" target="_top" xlink:title=" ">
<polygon fill="white" stroke="black" points="1908,-297 1908,-316 2066,-316 2066,-297 1908,-297"/>
<text text-anchor="middle" x="1987" y="-304" font-family="Helvetica,sans-Serif" font-size="10.00">src/node/rpc/node_frontend.h</text>
</a>
</g>
</g>
<!-- Node7&#45;&gt;Node11 -->
<g id="edge15" class="edge">
<title>Node7&#45;&gt;Node11</title>
<path fill="none" stroke="midnightblue" d="M1857.51,-360.1C1889.28,-347.2 1938.19,-327.33 1965.92,-316.06"/>
<polygon fill="midnightblue" stroke="midnightblue" points="1856.19,-356.86 1848.25,-363.87 1858.83,-363.35 1856.19,-356.86"/>
</g>
<!-- Node13 -->
<g id="node13" class="node">
<title>Node13</title>
<g id="a_node13"><a xlink:href="user__frontend_8h.html" target="_top" xlink:title=" ">
<polygon fill="white" stroke="black" points="1696.5,-297 1696.5,-316 1851.5,-316 1851.5,-297 1696.5,-297"/>
<text text-anchor="middle" x="1774" y="-304" font-family="Helvetica,sans-Serif" font-size="10.00">src/node/rpc/user_frontend.h</text>
</a>
</g>
</g>
<!-- Node7&#45;&gt;Node13 -->
<g id="edge19" class="edge">
<title>Node7&#45;&gt;Node13</title>
<path fill="none" stroke="midnightblue" d="M1813.36,-355.77C1803.03,-343.1 1789.25,-326.2 1781.03,-316.13"/>
<polygon fill="midnightblue" stroke="midnightblue" points="1810.82,-358.2 1819.85,-363.73 1816.25,-353.77 1810.82,-358.2"/>
</g>
<!-- Node8&#45;&gt;Node4 -->
<g id="edge9" class="edge">
<title>Node8&#45;&gt;Node4</title>
<path fill="none" stroke="midnightblue" d="M1439.36,-285.71C1469.93,-265.22 1514.48,-230.28 1538,-188 1554.59,-158.17 1559.14,-144.59 1549,-112 1544.6,-97.87 1534.05,-84.25 1526.48,-75.77"/>
<polygon fill="midnightblue" stroke="midnightblue" points="1437.2,-282.95 1430.76,-291.36 1441.04,-288.8 1437.2,-282.95"/>
</g>
<!-- Node9 -->
<g id="node9" class="node">
<title>Node9</title>
<g id="a_node9"><a xlink:href="ccf__acme__client_8h.html" target="_top" xlink:title=" ">
<polygon fill="white" stroke="black" points="1252.5,-230 1252.5,-249 1401.5,-249 1401.5,-230 1252.5,-230"/>
<text text-anchor="middle" x="1327" y="-237" font-family="Helvetica,sans-Serif" font-size="10.00">src/node/ccf_acme_client.h</text>
</a>
</g>
</g>
<!-- Node8&#45;&gt;Node9 -->
<g id="edge10" class="edge">
<title>Node8&#45;&gt;Node9</title>
<path fill="none" stroke="midnightblue" d="M1381.78,-285.01C1366.93,-272.94 1348.91,-258.3 1337.7,-249.19"/>
<polygon fill="midnightblue" stroke="midnightblue" points="1379.67,-287.81 1389.64,-291.4 1384.09,-282.37 1379.67,-287.81"/>
</g>
<!-- Node9&#45;&gt;Node3 -->
<g id="edge11" class="edge">
<title>Node9&#45;&gt;Node3</title>
<path fill="none" stroke="midnightblue" d="M1356.46,-225.98C1383.65,-214.42 1423.29,-197.58 1446.98,-187.51"/>
<polygon fill="midnightblue" stroke="midnightblue" points="1354.89,-222.84 1347.06,-229.98 1357.63,-229.28 1354.89,-222.84"/>
</g>
<!-- Node10&#45;&gt;Node4 -->
<g id="edge14" class="edge">
<title>Node10&#45;&gt;Node4</title>
<path fill="none" stroke="midnightblue" d="M2084.26,-215.22C2070.5,-185.57 2042.35,-135.4 2001,-112 1930.45,-72.08 1692.9,-66.75 1579.39,-66.56"/>
<polygon fill="midnightblue" stroke="midnightblue" points="2081.1,-216.72 2088.38,-224.42 2087.49,-213.86 2081.1,-216.72"/>
</g>
<!-- Node11&#45;&gt;Node4 -->
<g id="edge16" class="edge">
<title>Node11&#45;&gt;Node4</title>
<path fill="none" stroke="midnightblue" d="M1979.46,-287.3C1972.12,-270.37 1960.17,-244.7 1947,-224 1904.97,-157.93 1884.5,-139 1811,-112 1734.19,-83.79 1639.77,-73.26 1579.24,-69.33"/>
<polygon fill="midnightblue" stroke="midnightblue" points="1976.27,-288.76 1983.4,-296.6 1982.71,-286.02 1976.27,-288.76"/>
</g>
<!-- Node12 -->
<g id="node12" class="node">
<title>Node12</title>
<g id="a_node12"><a xlink:href="jwt__key__auto__refresh_8h.html" target="_top" xlink:title=" ">
<polygon fill="white" stroke="black" points="1795.5,-224.5 1795.5,-254.5 1920.5,-254.5 1920.5,-224.5 1795.5,-224.5"/>
<text text-anchor="start" x="1803.5" y="-242.5" font-family="Helvetica,sans-Serif" font-size="10.00">src/node/jwt_key_auto</text>
<text text-anchor="middle" x="1858" y="-231.5" font-family="Helvetica,sans-Serif" font-size="10.00">_refresh.h</text>
</a>
</g>
</g>
<!-- Node11&#45;&gt;Node12 -->
<g id="edge17" class="edge">
<title>Node11&#45;&gt;Node12</title>
<path fill="none" stroke="midnightblue" d="M1960.89,-292.34C1939.17,-281.4 1908.33,-265.86 1886.09,-254.65"/>
<polygon fill="midnightblue" stroke="midnightblue" points="1959.36,-295.49 1969.87,-296.87 1962.51,-289.24 1959.36,-295.49"/>
</g>
<!-- Node12&#45;&gt;Node3 -->
<g id="edge18" class="edge">
<title>Node12&#45;&gt;Node3</title>
<path fill="none" stroke="midnightblue" d="M1785.44,-224.75C1783.95,-224.49 1782.47,-224.24 1781,-224 1693.8,-209.55 1592.52,-195.53 1529.09,-187.08"/>
<polygon fill="midnightblue" stroke="midnightblue" points="1784.97,-228.22 1795.43,-226.48 1786.17,-221.32 1784.97,-228.22"/>
</g>
<!-- Node13&#45;&gt;Node4 -->
<g id="edge20" class="edge">
<title>Node13&#45;&gt;Node4</title>
<path fill="none" stroke="midnightblue" d="M1843.33,-295.02C1896.39,-283.82 1956.36,-262.25 1930,-224 1850.3,-108.34 1673.17,-77.82 1579.24,-69.81"/>
<polygon fill="midnightblue" stroke="midnightblue" points="1842.64,-291.59 1833.52,-296.99 1844.02,-298.45 1842.64,-291.59"/>
</g>
<!-- Node15 -->
<g id="node15" class="node">
<title>Node15</title>
<g id="a_node15"><a xlink:href="call__types_8h.html" target="_top" xlink:title=" ">
<polygon fill="white" stroke="black" points="2182.5,-431 2182.5,-450 2319.5,-450 2319.5,-431 2182.5,-431"/>
<text text-anchor="middle" x="2251" y="-438" font-family="Helvetica,sans-Serif" font-size="10.00">src/node/rpc/call_types.h</text>
</a>
</g>
</g>
<!-- Node14&#45;&gt;Node15 -->
<g id="edge22" class="edge">
<title>Node14&#45;&gt;Node15</title>
<path fill="none" stroke="midnightblue" d="M1962.77,-493.4C2034.63,-480.46 2142.42,-461.05 2203.78,-450"/>
<polygon fill="midnightblue" stroke="midnightblue" points="1962.1,-489.96 1952.88,-495.18 1963.34,-496.85 1962.1,-489.96"/>
</g>
<!-- Node15&#45;&gt;Node10 -->
<g id="edge27" class="edge">
<title>Node15&#45;&gt;Node10</title>
<path fill="none" stroke="midnightblue" d="M2309.29,-428.91C2403.12,-409.46 2570.99,-363.29 2507,-291 2484.02,-265.04 2263.2,-249.61 2154.22,-243.52"/>
<polygon fill="midnightblue" stroke="midnightblue" points="2308.44,-425.51 2299.34,-430.93 2309.84,-432.37 2308.44,-425.51"/>
</g>
<!-- Node16 -->
<g id="node16" class="node">
<title>Node16</title>
<g id="a_node16"><a xlink:href="common__endpoint__registry_8cpp.html" target="_top" xlink:title=" ">
<polygon fill="white" stroke="black" points="2370,-291.5 2370,-321.5 2498,-321.5 2498,-291.5 2370,-291.5"/>
<text text-anchor="start" x="2378" y="-309.5" font-family="Helvetica,sans-Serif" font-size="10.00">src/endpoints/common</text>
<text text-anchor="middle" x="2434" y="-298.5" font-family="Helvetica,sans-Serif" font-size="10.00">_endpoint_registry.cpp</text>
</a>
</g>
</g>
<!-- Node15&#45;&gt;Node16 -->
<g id="edge23" class="edge">
<title>Node15&#45;&gt;Node16</title>
<path fill="none" stroke="midnightblue" d="M2271.16,-424.96C2306.58,-399.41 2379.54,-346.79 2414.49,-321.57"/>
<polygon fill="midnightblue" stroke="midnightblue" points="2269.07,-422.15 2263.01,-430.84 2273.16,-427.83 2269.07,-422.15"/>
</g>
<!-- Node17 -->
<g id="node17" class="node">
<title>Node17</title>
<g id="a_node17"><a xlink:href="wrap_8cpp.html" target="_top" xlink:title=" ">
<polygon fill="white" stroke="black" points="292.5,-168.5 292.5,-187.5 381.5,-187.5 381.5,-168.5 292.5,-168.5"/>
<text text-anchor="middle" x="337" y="-175.5" font-family="Helvetica,sans-Serif" font-size="10.00">src/js/wrap.cpp</text>
</a>
</g>
</g>
<!-- Node15&#45;&gt;Node17 -->
<g id="edge24" class="edge">
<title>Node15&#45;&gt;Node17</title>
<path fill="none" stroke="midnightblue" d="M2172.23,-439.29C1955.82,-438.18 1355.49,-431.25 1163,-389 1085.69,-372.03 1067.46,-359.94 998,-322 931.66,-285.77 930,-249.92 859,-224 771.74,-192.14 491.43,-182.47 381.67,-179.87"/>
<polygon fill="midnightblue" stroke="midnightblue" points="2172.23,-442.79 2182.24,-439.34 2172.26,-435.79 2172.23,-442.79"/>
</g>
<!-- Node18 -->
<g id="node18" class="node">
<title>Node18</title>
<g id="a_node18"><a xlink:href="resharing_8h.html" target="_top" xlink:title=" ">
<polygon fill="white" stroke="black" points="2236,-297 2236,-316 2352,-316 2352,-297 2236,-297"/>
<text text-anchor="middle" x="2294" y="-304" font-family="Helvetica,sans-Serif" font-size="10.00">src/node/resharing.h</text>
</a>
</g>
</g>
<!-- Node15&#45;&gt;Node18 -->
<g id="edge25" class="edge">
<title>Node15&#45;&gt;Node18</title>
<path fill="none" stroke="midnightblue" d="M2264.19,-422.78C2270.91,-413.37 2278.58,-401.12 2283,-389 2292.19,-363.78 2293.82,-331.65 2294.03,-316.36"/>
<polygon fill="midnightblue" stroke="midnightblue" points="2261.36,-420.71 2258.17,-430.82 2266.96,-424.91 2261.36,-420.71"/>
</g>
<!-- Node19 -->
<g id="node19" class="node">
<title>Node19</title>
<g id="a_node19"><a xlink:href="serialization_8h.html" target="_top" xlink:title=" ">
<polygon fill="white" stroke="black" points="2126,-364 2126,-383 2274,-383 2274,-364 2126,-364"/>
<text text-anchor="middle" x="2200" y="-371" font-family="Helvetica,sans-Serif" font-size="10.00">src/node/rpc/serialization.h</text>
</a>
</g>
</g>
<!-- Node15&#45;&gt;Node19 -->
<g id="edge28" class="edge">
<title>Node15&#45;&gt;Node19</title>
<path fill="none" stroke="midnightblue" d="M2237.87,-422.77C2227.93,-410.1 2214.67,-393.2 2206.77,-383.13"/>
<polygon fill="midnightblue" stroke="midnightblue" points="2235.2,-425.03 2244.12,-430.73 2240.7,-420.71 2235.2,-425.03"/>
</g>
<!-- Node18&#45;&gt;Node3 -->
<g id="edge26" class="edge">
<title>Node18&#45;&gt;Node3</title>
<path fill="none" stroke="midnightblue" d="M2284.36,-288.04C2272.52,-268.53 2250.46,-237.87 2222,-224 2160.51,-194.04 1698.9,-183.04 1529.28,-179.98"/>
<polygon fill="midnightblue" stroke="midnightblue" points="2281.42,-289.95 2289.47,-296.84 2287.48,-286.43 2281.42,-289.95"/>
</g>
<!-- Node19&#45;&gt;Node3 -->
<g id="edge30" class="edge">
<title>Node19&#45;&gt;Node3</title>
<path fill="none" stroke="midnightblue" d="M2201.67,-353.37C2203.32,-321.04 2201.33,-256 2163,-224 2114.95,-183.89 1690.55,-179.22 1529.03,-178.9"/>
<polygon fill="midnightblue" stroke="midnightblue" points="2198.16,-353.46 2200.96,-363.68 2205.14,-353.94 2198.16,-353.46"/>
</g>
<!-- Node19&#45;&gt;Node10 -->
<g id="edge32" class="edge">
<title>Node19&#45;&gt;Node10</title>
<path fill="none" stroke="midnightblue" d="M2190.01,-355.15C2179.85,-338.12 2163.21,-311.75 2146,-291 2135.07,-277.83 2121.08,-264.4 2110.36,-254.7"/>
<polygon fill="midnightblue" stroke="midnightblue" points="2187.11,-357.14 2195.19,-363.99 2193.15,-353.59 2187.11,-357.14"/>
</g>
<!-- Node19&#45;&gt;Node11 -->
<g id="edge33" class="edge">
<title>Node19&#45;&gt;Node11</title>
<path fill="none" stroke="midnightblue" d="M2162.08,-360.93C2119.91,-348.06 2052.77,-327.57 2015.06,-316.06"/>
<polygon fill="midnightblue" stroke="midnightblue" points="2161.13,-364.3 2171.72,-363.87 2163.17,-357.6 2161.13,-364.3"/>
</g>
<!-- Node19&#45;&gt;Node16 -->
<g id="edge29" class="edge">
<title>Node19&#45;&gt;Node16</title>
<path fill="none" stroke="midnightblue" d="M2240.94,-361.13C2280.61,-350.11 2340.87,-333.37 2383.5,-321.53"/>
<polygon fill="midnightblue" stroke="midnightblue" points="2239.77,-357.82 2231.07,-363.87 2241.65,-364.56 2239.77,-357.82"/>
</g>
<!-- Node19&#45;&gt;Node18 -->
<g id="edge31" class="edge">
<title>Node19&#45;&gt;Node18</title>
<path fill="none" stroke="midnightblue" d="M2221.09,-357.92C2239.67,-345.07 2266.12,-326.78 2281.52,-316.13"/>
<polygon fill="midnightblue" stroke="midnightblue" points="2218.91,-355.17 2212.68,-363.73 2222.89,-360.93 2218.91,-355.17"/>
</g>
<!-- Node20&#45;&gt;Node9 -->
<g id="edge35" class="edge">
<title>Node20&#45;&gt;Node9</title>
<path fill="none" stroke="midnightblue" d="M1175.94,-424.67C1089.68,-402.34 955.81,-355.71 1011,-291 1041.37,-255.39 1168.66,-244.78 1252.13,-241.68"/>
<polygon fill="midnightblue" stroke="midnightblue" points="1175.14,-428.07 1185.69,-427.14 1176.86,-421.29 1175.14,-428.07"/>
</g>
<!-- Node21 -->
<g id="node21" class="node">
<title>Node21</title>
<g id="a_node21"><a xlink:href="network__state_8h.html" target="_top" xlink:title=" ">
<polygon fill="white" stroke="black" points="1172,-364 1172,-383 1312,-383 1312,-364 1172,-364"/>
<text text-anchor="middle" x="1242" y="-371" font-family="Helvetica,sans-Serif" font-size="10.00">src/node/network_state.h</text>
</a>
</g>
</g>
<!-- Node20&#45;&gt;Node21 -->
<g id="edge36" class="edge">
<title>Node20&#45;&gt;Node21</title>
<path fill="none" stroke="midnightblue" d="M1242,-415.25C1242,-404.02 1242,-391.38 1242,-383.19"/>
<polygon fill="midnightblue" stroke="midnightblue" points="1238.5,-415.4 1242,-425.4 1245.5,-415.4 1238.5,-415.4"/>
</g>
<!-- Node32 -->
<g id="node32" class="node">
<title>Node32</title>
<g id="a_node32"><a xlink:href="genesis__gen_8h.html" target="_top" xlink:title=" ">
<polygon fill="white" stroke="black" points="1500,-358.5 1500,-388.5 1610,-388.5 1610,-358.5 1500,-358.5"/>
<text text-anchor="start" x="1508" y="-376.5" font-family="Helvetica,sans-Serif" font-size="10.00">src/service/genesis</text>
<text text-anchor="middle" x="1555" y="-365.5" font-family="Helvetica,sans-Serif" font-size="10.00">_gen.h</text>
</a>
</g>
</g>
<!-- Node20&#45;&gt;Node32 -->
<g id="edge64" class="edge">
<title>Node20&#45;&gt;Node32</title>
<path fill="none" stroke="midnightblue" d="M1308.31,-425.73C1365.28,-413.9 1446.47,-397.04 1499.92,-385.94"/>
<polygon fill="midnightblue" stroke="midnightblue" points="1307.4,-422.34 1298.32,-427.8 1308.82,-429.2 1307.4,-422.34"/>
</g>
<!-- Node21&#45;&gt;Node3 -->
<g id="edge54" class="edge">
<title>Node21&#45;&gt;Node3</title>
<path fill="none" stroke="midnightblue" d="M1161.51,-370.34C1079.03,-365.05 968.43,-347.61 1011,-291 1058.04,-228.46 1291.02,-196.73 1404.57,-184.77"/>
<polygon fill="midnightblue" stroke="midnightblue" points="1161.48,-373.84 1171.67,-370.94 1161.9,-366.85 1161.48,-373.84"/>
</g>
<!-- Node21&#45;&gt;Node4 -->
<g id="edge37" class="edge">
<title>Node21&#45;&gt;Node4</title>
<path fill="none" stroke="midnightblue" d="M1161.35,-372.42C886,-371.09 0,-357.71 0,-240.5 0,-240.5 0,-240.5 0,-177 0,-102.68 1172.62,-74.03 1456.61,-68.18"/>
<polygon fill="midnightblue" stroke="midnightblue" points="1161.65,-375.92 1171.67,-372.46 1161.68,-368.92 1161.65,-375.92"/>
</g>
<!-- Node21&#45;&gt;Node8 -->
<g id="edge53" class="edge">
<title>Node21&#45;&gt;Node8</title>
<path fill="none" stroke="midnightblue" d="M1273.22,-360.2C1301.18,-349.19 1342.16,-333.04 1371.39,-321.53"/>
<polygon fill="midnightblue" stroke="midnightblue" points="1271.93,-356.95 1263.91,-363.87 1274.5,-363.46 1271.93,-356.95"/>
</g>
<!-- Node21&#45;&gt;Node11 -->
<g id="edge55" class="edge">
<title>Node21&#45;&gt;Node11</title>
<path fill="none" stroke="midnightblue" d="M1322.2,-366.81C1440.28,-358.24 1667.85,-340.99 1861,-322 1879.08,-320.22 1898.59,-318.09 1916.74,-316"/>
<polygon fill="midnightblue" stroke="midnightblue" points="1321.88,-363.33 1312.15,-367.54 1322.38,-370.31 1321.88,-363.33"/>
</g>
<!-- Node21&#45;&gt;Node13 -->
<g id="edge56" class="edge">
<title>Node21&#45;&gt;Node13</title>
<path fill="none" stroke="midnightblue" d="M1322.13,-364.75C1411.53,-355.8 1560.39,-339.97 1688,-322 1700.44,-320.25 1713.86,-318.11 1726.31,-316.01"/>
<polygon fill="midnightblue" stroke="midnightblue" points="1321.66,-361.28 1312.06,-365.76 1322.36,-368.24 1321.66,-361.28"/>
</g>
<!-- Node22 -->
<g id="node22" class="node">
<title>Node22</title>
<g id="a_node22"><a xlink:href="wrap_8h.html" target="_top" xlink:title=" ">
<polygon fill="white" stroke="black" points="483,-297 483,-316 561,-316 561,-297 483,-297"/>
<text text-anchor="middle" x="522" y="-304" font-family="Helvetica,sans-Serif" font-size="10.00">src/js/wrap.h</text>
</a>
</g>
</g>
<!-- Node21&#45;&gt;Node22 -->
<g id="edge38" class="edge">
<title>Node21&#45;&gt;Node22</title>
<path fill="none" stroke="midnightblue" d="M1161.64,-365.25C1007.48,-351.33 675.38,-321.35 561.37,-311.05"/>
<polygon fill="midnightblue" stroke="midnightblue" points="1161.71,-368.77 1171.98,-366.18 1162.34,-361.79 1161.71,-368.77"/>
</g>
<!-- Node29 -->
<g id="node29" class="node">
<title>Node29</title>
<g id="a_node29"><a xlink:href="secret__broadcast_8h.html" target="_top" xlink:title=" ">
<polygon fill="white" stroke="black" points="1165.5,-297 1165.5,-316 1318.5,-316 1318.5,-297 1165.5,-297"/>
<text text-anchor="middle" x="1242" y="-304" font-family="Helvetica,sans-Serif" font-size="10.00">src/node/secret_broadcast.h</text>
</a>
</g>
</g>
<!-- Node21&#45;&gt;Node29 -->
<g id="edge57" class="edge">
<title>Node21&#45;&gt;Node29</title>
<path fill="none" stroke="midnightblue" d="M1242,-353.54C1242,-341.17 1242,-325.62 1242,-316.13"/>
<polygon fill="midnightblue" stroke="midnightblue" points="1238.5,-353.73 1242,-363.73 1245.5,-353.73 1238.5,-353.73"/>
</g>
<!-- Node30 -->
<g id="node30" class="node">
<title>Node30</title>
<g id="a_node30"><a xlink:href="share__manager_8h.html" target="_top" xlink:title=" ">
<polygon fill="white" stroke="black" points="1533.5,-297 1533.5,-316 1678.5,-316 1678.5,-297 1533.5,-297"/>
<text text-anchor="middle" x="1606" y="-304" font-family="Helvetica,sans-Serif" font-size="10.00">src/node/share_manager.h</text>
</a>
</g>
</g>
<!-- Node21&#45;&gt;Node30 -->
<g id="edge59" class="edge">
<title>Node21&#45;&gt;Node30</title>
<path fill="none" stroke="midnightblue" d="M1300.15,-362.12C1371.69,-349.34 1491.8,-327.89 1558.22,-316.03"/>
<polygon fill="midnightblue" stroke="midnightblue" points="1299.19,-358.73 1289.96,-363.94 1300.42,-365.62 1299.19,-358.73"/>
</g>
<!-- Node31 -->
<g id="node31" class="node">
<title>Node31</title>
<g id="a_node31"><a xlink:href="snapshotter_8h.html" target="_top" xlink:title=" ">
<polygon fill="white" stroke="black" points="1020.5,-297 1020.5,-316 1147.5,-316 1147.5,-297 1020.5,-297"/>
<text text-anchor="middle" x="1084" y="-304" font-family="Helvetica,sans-Serif" font-size="10.00">src/node/snapshotter.h</text>
</a>
</g>
</g>
<!-- Node21&#45;&gt;Node31 -->
<g id="edge62" class="edge">
<title>Node21&#45;&gt;Node31</title>
<path fill="none" stroke="midnightblue" d="M1211.49,-359.95C1180.21,-347.08 1132.38,-327.4 1105.07,-316.17"/>
<polygon fill="midnightblue" stroke="midnightblue" points="1210.44,-363.3 1221.02,-363.87 1213.1,-356.83 1210.44,-363.3"/>
</g>
<!-- Node22&#45;&gt;Node3 -->
<g id="edge51" class="edge">
<title>Node22&#45;&gt;Node3</title>
<path fill="none" stroke="midnightblue" d="M571.37,-301.48C637.65,-295.32 758.66,-281.38 859,-255 896.28,-245.2 902.43,-232.61 940,-224 1104.91,-186.19 1305.43,-179.5 1404.88,-178.71"/>
<polygon fill="midnightblue" stroke="midnightblue" points="570.86,-298.01 561.22,-302.4 571.49,-304.98 570.86,-298.01"/>
</g>
<!-- Node22&#45;&gt;Node4 -->
<g id="edge40" class="edge">
<title>Node22&#45;&gt;Node4</title>
<path fill="none" stroke="midnightblue" d="M472.77,-303.5C363,-298.54 105.81,-283.93 80,-255 70.83,-244.72 71.65,-234.96 80,-224 164.82,-112.61 1193.03,-76.15 1456.7,-68.6"/>
<polygon fill="midnightblue" stroke="midnightblue" points="472.77,-307.01 482.92,-303.95 473.08,-300.01 472.77,-307.01"/>
</g>
<!-- Node22&#45;&gt;Node10 -->
<g id="edge52" class="edge">
<title>Node22&#45;&gt;Node10</title>
<path fill="none" stroke="midnightblue" d="M571.23,-304.08C787.81,-297.79 1657.23,-271.94 1930,-255 1964.38,-252.87 2002.73,-249.53 2033.69,-246.59"/>
<polygon fill="midnightblue" stroke="midnightblue" points="571.01,-300.59 561.12,-304.37 571.21,-307.58 571.01,-300.59"/>
</g>
<!-- Node22&#45;&gt;Node17 -->
<g id="edge50" class="edge">
<title>Node22&#45;&gt;Node17</title>
<path fill="none" stroke="midnightblue" d="M472.56,-303.28C365.49,-297.97 119.74,-282.84 95,-255 38.03,-190.89 207.79,-180.34 292.29,-178.96"/>
<polygon fill="midnightblue" stroke="midnightblue" points="472.63,-306.79 482.79,-303.78 472.97,-299.8 472.63,-306.79"/>
</g>
<!-- Node23 -->
<g id="node23" class="node">
<title>Node23</title>
<g id="a_node23"><a xlink:href="js__generic__base_8cpp.html" target="_top" xlink:title=" ">
<polygon fill="white" stroke="black" points="604,-224.5 604,-254.5 722,-254.5 722,-224.5 604,-224.5"/>
<text text-anchor="start" x="612" y="-242.5" font-family="Helvetica,sans-Serif" font-size="10.00">src/apps/js_generic</text>
<text text-anchor="middle" x="663" y="-231.5" font-family="Helvetica,sans-Serif" font-size="10.00">/js_generic_base.cpp</text>
</a>
</g>
</g>
<!-- Node22&#45;&gt;Node23 -->
<g id="edge39" class="edge">
<title>Node22&#45;&gt;Node23</title>
<path fill="none" stroke="midnightblue" d="M549.94,-292.62C573.79,-281.63 608.03,-265.84 632.57,-254.53"/>
<polygon fill="midnightblue" stroke="midnightblue" points="548.34,-289.5 540.72,-296.87 551.27,-295.86 548.34,-289.5"/>
</g>
<!-- Node24 -->
<g id="node24" class="node">
<title>Node24</title>
<g id="a_node24"><a xlink:href="consensus_8cpp.html" target="_top" xlink:title=" ">
<polygon fill="white" stroke="black" points="104,-230 104,-249 220,-249 220,-230 104,-230"/>
<text text-anchor="middle" x="162" y="-237" font-family="Helvetica,sans-Serif" font-size="10.00">src/js/consensus.cpp</text>
</a>
</g>
</g>
<!-- Node22&#45;&gt;Node24 -->
<g id="edge41" class="edge">
<title>Node22&#45;&gt;Node24</title>
<path fill="none" stroke="midnightblue" d="M472.52,-297.63C414.17,-288.2 314.32,-271.58 229,-255 219.65,-253.18 209.61,-251.09 200.21,-249.06"/>
<polygon fill="midnightblue" stroke="midnightblue" points="472.14,-301.11 482.57,-299.25 473.25,-294.2 472.14,-301.11"/>
</g>
<!-- Node25 -->
<g id="node25" class="node">
<title>Node25</title>
<g id="a_node25"><a xlink:href="conv_8cpp.html" target="_top" xlink:title=" ">
<polygon fill="white" stroke="black" points="238,-230 238,-249 326,-249 326,-230 238,-230"/>
<text text-anchor="middle" x="282" y="-237" font-family="Helvetica,sans-Serif" font-size="10.00">src/js/conv.cpp</text>
</a>
</g>
</g>
<!-- Node22&#45;&gt;Node25 -->
<g id="edge43" class="edge">
<title>Node22&#45;&gt;Node25</title>
<path fill="none" stroke="midnightblue" d="M480.56,-294.35C442.66,-284.14 385.05,-268.6 335,-255 327.91,-253.07 320.29,-250.99 313.1,-249.03"/>
<polygon fill="midnightblue" stroke="midnightblue" points="479.66,-297.73 490.23,-296.95 481.48,-290.97 479.66,-297.73"/>
</g>
<!-- Node26 -->
<g id="node26" class="node">
<title>Node26</title>
<g id="a_node26"><a xlink:href="crypto_8cpp.html" target="_top" xlink:title=" ">
<polygon fill="white" stroke="black" points="344,-230 344,-249 440,-249 440,-230 344,-230"/>
<text text-anchor="middle" x="392" y="-237" font-family="Helvetica,sans-Serif" font-size="10.00">src/js/crypto.cpp</text>
</a>
</g>
</g>
<!-- Node22&#45;&gt;Node26 -->
<g id="edge45" class="edge">
<title>Node22&#45;&gt;Node26</title>
<path fill="none" stroke="midnightblue" d="M495.55,-292.27C469.8,-279.4 431.42,-260.21 409.33,-249.17"/>
<polygon fill="midnightblue" stroke="midnightblue" points="494.23,-295.53 504.74,-296.87 497.36,-289.27 494.23,-295.53"/>
</g>
<!-- Node27 -->
<g id="node27" class="node">
<title>Node27</title>
<g id="a_node27"><a xlink:href="historical_8cpp.html" target="_top" xlink:title=" ">
<polygon fill="white" stroke="black" points="740,-230 740,-249 850,-249 850,-230 740,-230"/>
<text text-anchor="middle" x="795" y="-237" font-family="Helvetica,sans-Serif" font-size="10.00">src/js/historical.cpp</text>
</a>
</g>
</g>
<!-- Node22&#45;&gt;Node27 -->
<g id="edge47" class="edge">
<title>Node22&#45;&gt;Node27</title>
<path fill="none" stroke="midnightblue" d="M567.93,-294.56C621.75,-281.75 709.8,-260.78 758.95,-249.08"/>
<polygon fill="midnightblue" stroke="midnightblue" points="566.89,-291.21 557.97,-296.94 568.51,-298.02 566.89,-291.21"/>
</g>
<!-- Node28 -->
<g id="node28" class="node">
<title>Node28</title>
<g id="a_node28"><a xlink:href="openenclave_8cpp.html" target="_top" xlink:title=" ">
<polygon fill="white" stroke="black" points="458,-230 458,-249 586,-249 586,-230 458,-230"/>
<text text-anchor="middle" x="522" y="-237" font-family="Helvetica,sans-Serif" font-size="10.00">src/js/openenclave.cpp</text>
</a>
</g>
</g>
<!-- Node22&#45;&gt;Node28 -->
<g id="edge49" class="edge">
<title>Node22&#45;&gt;Node28</title>
<path fill="none" stroke="midnightblue" d="M522,-286.54C522,-274.17 522,-258.62 522,-249.13"/>
<polygon fill="midnightblue" stroke="midnightblue" points="518.5,-286.73 522,-296.73 525.5,-286.73 518.5,-286.73"/>
</g>
<!-- Node24&#45;&gt;Node17 -->
<g id="edge42" class="edge">
<title>Node24&#45;&gt;Node17</title>
<path fill="none" stroke="midnightblue" d="M196.61,-226.73C230.63,-215.17 281.72,-197.8 311.97,-187.51"/>
<polygon fill="midnightblue" stroke="midnightblue" points="195.41,-223.44 187.07,-229.98 197.67,-230.07 195.41,-223.44"/>
</g>
<!-- Node25&#45;&gt;Node17 -->
<g id="edge44" class="edge">
<title>Node25&#45;&gt;Node17</title>
<path fill="none" stroke="midnightblue" d="M296.79,-222.5C307.2,-211.24 320.73,-196.6 329.13,-187.51"/>
<polygon fill="midnightblue" stroke="midnightblue" points="294.1,-220.26 289.88,-229.98 299.24,-225.01 294.1,-220.26"/>
</g>
<!-- Node26&#45;&gt;Node17 -->
<g id="edge46" class="edge">
<title>Node26&#45;&gt;Node17</title>
<path fill="none" stroke="midnightblue" d="M377.21,-222.5C366.8,-211.24 353.27,-196.6 344.87,-187.51"/>
<polygon fill="midnightblue" stroke="midnightblue" points="374.76,-225.01 384.12,-229.98 379.9,-220.26 374.76,-225.01"/>
</g>
<!-- Node27&#45;&gt;Node17 -->
<g id="edge48" class="edge">
<title>Node27&#45;&gt;Node17</title>
<path fill="none" stroke="midnightblue" d="M750.52,-227.77C743.99,-226.38 737.34,-225.08 731,-224 605.09,-202.61 454.78,-188.59 381.54,-182.49"/>
<polygon fill="midnightblue" stroke="midnightblue" points="750.08,-231.25 760.59,-229.98 751.58,-224.42 750.08,-231.25"/>
</g>
<!-- Node29&#45;&gt;Node3 -->
<g id="edge58" class="edge">
<title>Node29&#45;&gt;Node3</title>
<path fill="none" stroke="midnightblue" d="M1295.35,-294.89C1351.15,-283.36 1432.15,-265.22 1443,-255 1462.24,-236.88 1466.13,-203.49 1466.86,-187.71"/>
<polygon fill="midnightblue" stroke="midnightblue" points="1294.34,-291.53 1285.24,-296.97 1295.74,-298.39 1294.34,-291.53"/>
</g>
<!-- Node30&#45;&gt;Node3 -->
<g id="edge60" class="edge">
<title>Node30&#45;&gt;Node3</title>
<path fill="none" stroke="midnightblue" d="M1589.36,-289.54C1571.98,-272.97 1543.85,-246.37 1519,-224 1504.63,-211.06 1487.62,-196.48 1477.07,-187.51"/>
<polygon fill="midnightblue" stroke="midnightblue" points="1587.32,-292.43 1596.97,-296.81 1592.16,-287.37 1587.32,-292.43"/>
</g>
<!-- Node30&#45;&gt;Node10 -->
<g id="edge61" class="edge">
<title>Node30&#45;&gt;Node10</title>
<path fill="none" stroke="midnightblue" d="M1661.98,-295.21C1670.68,-293.72 1679.57,-292.27 1688,-291 1810.39,-272.58 1954.27,-255.84 2033.68,-247.02"/>
<polygon fill="midnightblue" stroke="midnightblue" points="1661.16,-291.8 1651.9,-296.96 1662.35,-298.69 1661.16,-291.8"/>
</g>
<!-- Node31&#45;&gt;Node3 -->
<g id="edge63" class="edge">
<title>Node31&#45;&gt;Node3</title>
<path fill="none" stroke="midnightblue" d="M1134.14,-295.02C1141.46,-293.6 1148.91,-292.21 1156,-291 1268.38,-271.74 1311.86,-313.04 1410,-255 1437.26,-238.88 1455.69,-204.19 1463.2,-187.85"/>
<polygon fill="midnightblue" stroke="midnightblue" points="1133.42,-291.59 1124.29,-296.96 1134.78,-298.46 1133.42,-291.59"/>
</g>
<!-- Node32&#45;&gt;Node3 -->
<g id="edge65" class="edge">
<title>Node32&#45;&gt;Node3</title>
<path fill="none" stroke="midnightblue" d="M1540.41,-349.61C1535.25,-341.1 1529.59,-331.26 1525,-322 1500.47,-272.56 1477.86,-210.09 1469.97,-187.58"/>
<polygon fill="midnightblue" stroke="midnightblue" points="1537.51,-351.57 1545.74,-358.24 1543.46,-347.89 1537.51,-351.57"/>
</g>
<!-- Node32&#45;&gt;Node10 -->
<g id="edge66" class="edge">
<title>Node32&#45;&gt;Node10</title>
<path fill="none" stroke="midnightblue" d="M1620.06,-367.17C1757.7,-355.77 2066.52,-329.42 2075,-322 2094.13,-305.25 2095.98,-273.31 2095.24,-254.78"/>
<polygon fill="midnightblue" stroke="midnightblue" points="1619.73,-363.69 1610.06,-368 1620.31,-370.66 1619.73,-363.69"/>
</g>
<!-- Node32&#45;&gt;Node11 -->
<g id="edge67" class="edge">
<title>Node32&#45;&gt;Node11</title>
<path fill="none" stroke="midnightblue" d="M1620.14,-362.7C1704.58,-349.99 1850.46,-328.04 1930.46,-316.01"/>
<polygon fill="midnightblue" stroke="midnightblue" points="1619.52,-359.25 1610.15,-364.2 1620.56,-366.17 1619.52,-359.25"/>
</g>
<!-- Node32&#45;&gt;Node29 -->
<g id="edge68" class="edge">
<title>Node32&#45;&gt;Node29</title>
<path fill="none" stroke="midnightblue" d="M1489.66,-358.93C1427.48,-346.02 1335.83,-326.99 1283.21,-316.06"/>
<polygon fill="midnightblue" stroke="midnightblue" points="1489.26,-362.42 1499.76,-361.03 1490.68,-355.57 1489.26,-362.42"/>
</g>
<!-- Node32&#45;&gt;Node30 -->
<g id="edge69" class="edge">
<title>Node32&#45;&gt;Node30</title>
<path fill="none" stroke="midnightblue" d="M1572.41,-350.32C1581.6,-338.6 1592.36,-324.88 1599.18,-316.19"/>
<polygon fill="midnightblue" stroke="midnightblue" points="1569.49,-348.37 1566.07,-358.4 1574.99,-352.69 1569.49,-348.37"/>
</g>
</g>
</svg>
