<?xml version="1.0" encoding="UTF-8" standalone="no"?>
<!DOCTYPE svg PUBLIC "-//W3C//DTD SVG 1.1//EN"
 "http://www.w3.org/Graphics/SVG/1.1/DTD/svg11.dtd">
<!-- Generated by graphviz version 2.43.0 (0)
 -->
<!-- Title: include/ccf/crypto/sha256.h Pages: 1 -->
<svg width="178pt" height="151pt"
 viewBox="0.00 0.00 177.50 151.00" xmlns="http://www.w3.org/2000/svg" xmlns:xlink="http://www.w3.org/1999/xlink">
<g id="graph0" class="graph" transform="scale(1 1) rotate(0) translate(4 147)">
<title>include/ccf/crypto/sha256.h</title>
<polygon fill="white" stroke="transparent" points="-4,4 -4,-147 173.5,-147 173.5,4 -4,4"/>
<!-- Node1 -->
<g id="node1" class="node">
<title>Node1</title>
<g id="a_node1"><a xlink:title=" ">
<polygon fill="#bfbfbf" stroke="black" points="61.5,-112.5 61.5,-142.5 164.5,-142.5 164.5,-112.5 61.5,-112.5"/>
<text text-anchor="start" x="69.5" y="-130.5" font-family="Helvetica,sans-Serif" font-size="10.00">include/ccf/crypto</text>
<text text-anchor="middle" x="113" y="-119.5" font-family="Helvetica,sans-Serif" font-size="10.00">/sha256.h</text>
</a>
</g>
</g>
<!-- Node2 -->
<g id="node2" class="node">
<title>Node2</title>
<g id="a_node2"><a xlink:href="hash__bytes_8h.html" target="_top" xlink:title=" ">
<polygon fill="white" stroke="black" points="0,-56.5 0,-75.5 132,-75.5 132,-56.5 0,-56.5"/>
<text text-anchor="middle" x="66" y="-63.5" font-family="Helvetica,sans-Serif" font-size="10.00">ccf/crypto/hash_bytes.h</text>
</a>
</g>
</g>
<!-- Node1&#45;&gt;Node2 -->
<g id="edge1" class="edge">
<title>Node1&#45;&gt;Node2</title>
<path fill="none" stroke="midnightblue" d="M101.86,-112.4C95.03,-103.75 86.26,-92.64 79.09,-83.58"/>
<polygon fill="midnightblue" stroke="midnightblue" points="81.78,-81.34 72.84,-75.66 76.29,-85.67 81.78,-81.34"/>
</g>
<!-- Node4 -->
<g id="node4" class="node">
<title>Node4</title>
<g id="a_node4"><a xlink:title=" ">
<polygon fill="white" stroke="#bfbfbf" points="122.5,-0.5 122.5,-19.5 169.5,-19.5 169.5,-0.5 122.5,-0.5"/>
<text text-anchor="middle" x="146" y="-7.5" font-family="Helvetica,sans-Serif" font-size="10.00">vector</text>
</a>
</g>
</g>
<!-- Node1&#45;&gt;Node4 -->
<g id="edge4" class="edge">
<title>Node1&#45;&gt;Node4</title>
<path fill="none" stroke="midnightblue" d="M123.11,-112.22C129.42,-102.49 137.08,-89.06 141,-76 145.53,-60.91 146.61,-43.01 146.65,-29.82"/>
<polygon fill="midnightblue" stroke="midnightblue" points="150.15,-29.57 146.49,-19.63 143.15,-29.68 150.15,-29.57"/>
</g>
<!-- Node3 -->
<g id="node3" class="node">
<title>Node3</title>
<g id="a_node3"><a xlink:title=" ">
<polygon fill="white" stroke="#bfbfbf" points="41,-0.5 41,-19.5 91,-19.5 91,-0.5 41,-0.5"/>
<text text-anchor="middle" x="66" y="-7.5" font-family="Helvetica,sans-Serif" font-size="10.00">cstdint</text>
</a>
</g>
</g>
<!-- Node2&#45;&gt;Node3 -->
<g id="edge2" class="edge">
<title>Node2&#45;&gt;Node3</title>
<path fill="none" stroke="midnightblue" d="M66,-56.08C66,-49.01 66,-38.86 66,-29.99"/>
<polygon fill="midnightblue" stroke="midnightblue" points="69.5,-29.75 66,-19.75 62.5,-29.75 69.5,-29.75"/>
</g>
<!-- Node2&#45;&gt;Node4 -->
<g id="edge3" class="edge">
<title>Node2&#45;&gt;Node4</title>
<path fill="none" stroke="midnightblue" d="M78.85,-56.32C91.22,-47.98 110.13,-35.21 124.74,-25.35"/>
<polygon fill="midnightblue" stroke="midnightblue" points="126.85,-28.15 133.18,-19.65 122.93,-22.35 126.85,-28.15"/>
</g>
</g>
</svg>
