<?xml version="1.0" encoding="UTF-8" standalone="no"?>
<!DOCTYPE svg PUBLIC "-//W3C//DTD SVG 1.1//EN"
 "http://www.w3.org/Graphics/SVG/1.1/DTD/svg11.dtd">
<!-- Generated by graphviz version 2.43.0 (0)
 -->
<!-- Title: include/ccf/crypto/sha256.h Pages: 1 -->
<svg width="432pt" height="386pt"
 viewBox="0.00 0.00 432.00 386.00" xmlns="http://www.w3.org/2000/svg" xmlns:xlink="http://www.w3.org/1999/xlink">
<g id="graph0" class="graph" transform="scale(1 1) rotate(0) translate(4 382)">
<title>include/ccf/crypto/sha256.h</title>
<polygon fill="white" stroke="transparent" points="-4,4 -4,-382 428,-382 428,4 -4,4"/>
<!-- Node1 -->
<g id="node1" class="node">
<title>Node1</title>
<g id="a_node1"><a xlink:title=" ">
<polygon fill="#bfbfbf" stroke="black" points="126,-347.5 126,-377.5 229,-377.5 229,-347.5 126,-347.5"/>
<text text-anchor="start" x="134" y="-365.5" font-family="Helvetica,sans-Serif" font-size="10.00">include/ccf/crypto</text>
<text text-anchor="middle" x="177.5" y="-354.5" font-family="Helvetica,sans-Serif" font-size="10.00">/sha256.h</text>
</a>
</g>
</g>
<!-- Node2 -->
<g id="node2" class="node">
<title>Node2</title>
<g id="a_node2"><a xlink:href="hash_8cpp.html" target="_top" xlink:title=" ">
<polygon fill="white" stroke="black" points="0,-291.5 0,-310.5 111,-310.5 111,-291.5 0,-291.5"/>
<text text-anchor="middle" x="55.5" y="-298.5" font-family="Helvetica,sans-Serif" font-size="10.00">src/crypto/hash.cpp</text>
</a>
</g>
</g>
<!-- Node1&#45;&gt;Node2 -->
<g id="edge1" class="edge">
<title>Node1&#45;&gt;Node2</title>
<path fill="none" stroke="midnightblue" d="M139.44,-342.94C117.34,-332.16 90.53,-319.08 73.25,-310.66"/>
<polygon fill="midnightblue" stroke="midnightblue" points="138.07,-346.16 148.59,-347.4 141.13,-339.87 138.07,-346.16"/>
</g>
<!-- Node3 -->
<g id="node3" class="node">
<title>Node3</title>
<g id="a_node3"><a xlink:href="enclave__lfs__access_8h.html" target="_top" xlink:title=" ">
<polygon fill="white" stroke="black" points="116,-168.5 116,-198.5 233,-198.5 233,-168.5 116,-168.5"/>
<text text-anchor="start" x="124" y="-186.5" font-family="Helvetica,sans-Serif" font-size="10.00">src/indexing/enclave</text>
<text text-anchor="middle" x="174.5" y="-175.5" font-family="Helvetica,sans-Serif" font-size="10.00">_lfs_access.h</text>
</a>
</g>
</g>
<!-- Node1&#45;&gt;Node3 -->
<g id="edge2" class="edge">
<title>Node1&#45;&gt;Node3</title>
<path fill="none" stroke="midnightblue" d="M166.61,-337.88C163.32,-329.57 160.14,-320.04 158.5,-311 152.46,-277.77 153.34,-268.38 158.5,-235 160.44,-222.46 164.94,-208.76 168.67,-198.8"/>
<polygon fill="midnightblue" stroke="midnightblue" points="163.47,-339.46 170.59,-347.31 169.92,-336.74 163.47,-339.46"/>
</g>
<!-- Node6 -->
<g id="node6" class="node">
<title>Node6</title>
<g id="a_node6"><a xlink:href="crypto_8cpp.html" target="_top" xlink:title=" ">
<polygon fill="white" stroke="black" points="167.5,-291.5 167.5,-310.5 263.5,-310.5 263.5,-291.5 167.5,-291.5"/>
<text text-anchor="middle" x="215.5" y="-298.5" font-family="Helvetica,sans-Serif" font-size="10.00">src/js/crypto.cpp</text>
</a>
</g>
</g>
<!-- Node1&#45;&gt;Node6 -->
<g id="edge5" class="edge">
<title>Node1&#45;&gt;Node6</title>
<path fill="none" stroke="midnightblue" d="M192,-338.8C198.28,-328.96 205.26,-318.03 209.97,-310.66"/>
<polygon fill="midnightblue" stroke="midnightblue" points="188.94,-337.09 186.51,-347.4 194.84,-340.86 188.94,-337.09"/>
</g>
<!-- Node8 -->
<g id="node8" class="node">
<title>Node8</title>
<g id="a_node8"><a xlink:href="acme__client_8h.html" target="_top" xlink:title=" ">
<polygon fill="white" stroke="black" points="283,-291.5 283,-310.5 412,-310.5 412,-291.5 283,-291.5"/>
<text text-anchor="middle" x="347.5" y="-298.5" font-family="Helvetica,sans-Serif" font-size="10.00">src/node/acme_client.h</text>
</a>
</g>
</g>
<!-- Node1&#45;&gt;Node8 -->
<g id="edge7" class="edge">
<title>Node1&#45;&gt;Node8</title>
<path fill="none" stroke="midnightblue" d="M227.25,-344.09C258.64,-333.1 297.83,-319.39 322.76,-310.66"/>
<polygon fill="midnightblue" stroke="midnightblue" points="226.07,-340.79 217.79,-347.4 228.38,-347.4 226.07,-340.79"/>
</g>
<!-- Node4 -->
<g id="node4" class="node">
<title>Node4</title>
<g id="a_node4"><a xlink:href="src_2enclave_2enclave_8h.html" target="_top" xlink:title=" ">
<polygon fill="white" stroke="black" points="170.5,-56.5 170.5,-75.5 292.5,-75.5 292.5,-56.5 170.5,-56.5"/>
<text text-anchor="middle" x="231.5" y="-63.5" font-family="Helvetica,sans-Serif" font-size="10.00">src/enclave/enclave.h</text>
</a>
</g>
</g>
<!-- Node3&#45;&gt;Node4 -->
<g id="edge3" class="edge">
<title>Node3&#45;&gt;Node4</title>
<path fill="none" stroke="midnightblue" d="M185.98,-159.24C198.7,-133.47 218.56,-93.22 227.22,-75.67"/>
<polygon fill="midnightblue" stroke="midnightblue" points="182.78,-157.82 181.49,-168.34 189.05,-160.92 182.78,-157.82"/>
</g>
<!-- Node5 -->
<g id="node5" class="node">
<title>Node5</title>
<g id="a_node5"><a xlink:href="enclave_2main_8cpp.html" target="_top" xlink:title=" ">
<polygon fill="white" stroke="black" points="171.5,-0.5 171.5,-19.5 291.5,-19.5 291.5,-0.5 171.5,-0.5"/>
<text text-anchor="middle" x="231.5" y="-7.5" font-family="Helvetica,sans-Serif" font-size="10.00">src/enclave/main.cpp</text>
</a>
</g>
</g>
<!-- Node4&#45;&gt;Node5 -->
<g id="edge4" class="edge">
<title>Node4&#45;&gt;Node5</title>
<path fill="none" stroke="midnightblue" d="M231.5,-45.8C231.5,-36.91 231.5,-26.78 231.5,-19.75"/>
<polygon fill="midnightblue" stroke="midnightblue" points="228,-46.08 231.5,-56.08 235,-46.08 228,-46.08"/>
</g>
<!-- Node7 -->
<g id="node7" class="node">
<title>Node7</title>
<g id="a_node7"><a xlink:href="wrap_8cpp.html" target="_top" xlink:title=" ">
<polygon fill="white" stroke="black" points="168,-235.5 168,-254.5 257,-254.5 257,-235.5 168,-235.5"/>
<text text-anchor="middle" x="212.5" y="-242.5" font-family="Helvetica,sans-Serif" font-size="10.00">src/js/wrap.cpp</text>
</a>
</g>
</g>
<!-- Node6&#45;&gt;Node7 -->
<g id="edge6" class="edge">
<title>Node6&#45;&gt;Node7</title>
<path fill="none" stroke="midnightblue" d="M214.43,-280.8C213.94,-271.91 213.38,-261.78 212.99,-254.75"/>
<polygon fill="midnightblue" stroke="midnightblue" points="210.96,-281.29 215,-291.08 217.94,-280.9 210.96,-281.29"/>
</g>
<!-- Node9 -->
<g id="node9" class="node">
<title>Node9</title>
<g id="a_node9"><a xlink:href="ccf__acme__client_8h.html" target="_top" xlink:title=" ">
<polygon fill="white" stroke="black" points="275,-235.5 275,-254.5 424,-254.5 424,-235.5 275,-235.5"/>
<text text-anchor="middle" x="349.5" y="-242.5" font-family="Helvetica,sans-Serif" font-size="10.00">src/node/ccf_acme_client.h</text>
</a>
</g>
</g>
<!-- Node8&#45;&gt;Node9 -->
<g id="edge8" class="edge">
<title>Node8&#45;&gt;Node9</title>
<path fill="none" stroke="midnightblue" d="M348.21,-280.8C348.54,-271.91 348.92,-261.78 349.18,-254.75"/>
<polygon fill="midnightblue" stroke="midnightblue" points="344.7,-280.96 347.83,-291.08 351.7,-281.22 344.7,-280.96"/>
</g>
<!-- Node10 -->
<g id="node10" class="node">
<title>Node10</title>
<g id="a_node10"><a xlink:href="node__state_8h.html" target="_top" xlink:title=" ">
<polygon fill="white" stroke="black" points="269.5,-174 269.5,-193 393.5,-193 393.5,-174 269.5,-174"/>
<text text-anchor="middle" x="331.5" y="-181" font-family="Helvetica,sans-Serif" font-size="10.00">src/node/node_state.h</text>
</a>
</g>
</g>
<!-- Node9&#45;&gt;Node10 -->
<g id="edge9" class="edge">
<title>Node9&#45;&gt;Node10</title>
<path fill="none" stroke="midnightblue" d="M343.95,-225.66C340.66,-214.77 336.64,-201.49 334.07,-193.01"/>
<polygon fill="midnightblue" stroke="midnightblue" points="340.68,-226.92 346.92,-235.48 347.38,-224.89 340.68,-226.92"/>
</g>
<!-- Node10&#45;&gt;Node4 -->
<g id="edge10" class="edge">
<title>Node10&#45;&gt;Node4</title>
<path fill="none" stroke="midnightblue" d="M299.57,-169.41C282.75,-161.01 263.06,-148.56 250.5,-132 237.57,-114.95 233.42,-89.29 232.1,-75.88"/>
<polygon fill="midnightblue" stroke="midnightblue" points="298.53,-172.79 309.06,-173.88 301.51,-166.45 298.53,-172.79"/>
</g>
<!-- Node11 -->
<g id="node11" class="node">
<title>Node11</title>
<g id="a_node11"><a xlink:href="gov__effects_8h.html" target="_top" xlink:title=" ">
<polygon fill="white" stroke="black" points="259.5,-112.5 259.5,-131.5 403.5,-131.5 403.5,-112.5 259.5,-112.5"/>
<text text-anchor="middle" x="331.5" y="-119.5" font-family="Helvetica,sans-Serif" font-size="10.00">src/node/rpc/gov_effects.h</text>
</a>
</g>
</g>
<!-- Node10&#45;&gt;Node11 -->
<g id="edge11" class="edge">
<title>Node10&#45;&gt;Node11</title>
<path fill="none" stroke="midnightblue" d="M331.5,-163.82C331.5,-153 331.5,-139.9 331.5,-131.51"/>
<polygon fill="midnightblue" stroke="midnightblue" points="328,-163.98 331.5,-173.98 335,-163.98 328,-163.98"/>
</g>
<!-- Node11&#45;&gt;Node4 -->
<g id="edge12" class="edge">
<title>Node11&#45;&gt;Node4</title>
<path fill="none" stroke="midnightblue" d="M306.41,-107.45C287.95,-97.48 263.4,-84.23 247.53,-75.65"/>
<polygon fill="midnightblue" stroke="midnightblue" points="304.97,-110.65 315.43,-112.32 308.3,-104.49 304.97,-110.65"/>
</g>
</g>
</svg>
