<?xml version="1.0" encoding="UTF-8" standalone="no"?>
<!DOCTYPE svg PUBLIC "-//W3C//DTD SVG 1.1//EN"
 "http://www.w3.org/Graphics/SVG/1.1/DTD/svg11.dtd">
<!-- Generated by graphviz version 2.43.0 (0)
 -->
<!-- Title: include/ccf/crypto/sha256_hash.h Pages: 1 -->
<!--zoomable 520 -->
<svg id="main" version="1.1" xmlns="http://www.w3.org/2000/svg" xmlns:xlink="http://www.w3.org/1999/xlink" xml:space="preserve" onload="init(evt)">
<style type="text/css"><![CDATA[
.edge:hover path { stroke: red; }
.edge:hover polygon { stroke: red; fill: red; }
]]></style>
<script type="text/javascript"><![CDATA[
var edges = document.getElementsByTagName('g');
if (edges && edges.length) {
  for (var i=0;i<edges.length;i++) {
    if (edges[i].id.substr(0,4)=='edge') {
      edges[i].setAttribute('class','edge');
    }
  }
}
]]></script>
        <defs>
                <circle id="rim" cx="0" cy="0" r="7"/>
                <circle id="rim2" cx="0" cy="0" r="3.5"/>
                <g id="zoomPlus">
                        <use xlink:href="#rim" fill="#404040">
                                <set attributeName="fill" to="#808080" begin="zoomplus.mouseover" end="zoomplus.mouseout"/>
                        </use>
                        <path d="M-4,0h8M0,-4v8" fill="none" stroke="white" stroke-width="1.5" pointer-events="none"/>
                </g>
                <g id="zoomMin">
                        <use xlink:href="#rim" fill="#404040">
                                <set attributeName="fill" to="#808080" begin="zoomminus.mouseover" end="zoomminus.mouseout"/>
                        </use>
                        <path d="M-4,0h8" fill="none" stroke="white" stroke-width="1.5" pointer-events="none"/>
                </g>
                <g id="dirArrow">
                        <path fill="none" stroke="white" stroke-width="1.5" d="M0,-3.0v7 M-2.5,-0.5L0,-3.0L2.5,-0.5"/>
                </g>
               <g id="resetDef">
                       <use xlink:href="#rim2" fill="#404040">
                               <set attributeName="fill" to="#808080" begin="reset.mouseover" end="reset.mouseout"/>
                       </use>
               </g>
        </defs>

<script type="text/javascript">
var viewWidth = 1386;
var viewHeight = 520;
var sectionId = 'dynsection-0';
</script>
<script xlink:href="svgpan.js"/>
<svg id="graph" class="graph">
<g id="viewport">
<title>include/ccf/crypto/sha256_hash.h</title>
<polygon fill="white" stroke="transparent" points="-4,4 -4,-516 1382,-516 1382,4 -4,4"/>
<!-- Node1 -->
<g id="node1" class="node">
<title>Node1</title>
<g id="a_node1"><a xlink:title=" ">
<polygon fill="#bfbfbf" stroke="black" points="1182.5,-481.5 1182.5,-511.5 1285.5,-511.5 1285.5,-481.5 1182.5,-481.5"/>
<text text-anchor="start" x="1190.5" y="-499.5" font-family="Helvetica,sans-Serif" font-size="10.00">include/ccf/crypto</text>
<text text-anchor="middle" x="1234" y="-488.5" font-family="Helvetica,sans-Serif" font-size="10.00">/sha256_hash.h</text>
</a>
</g>
</g>
<!-- Node2 -->
<g id="node2" class="node">
<title>Node2</title>
<g id="a_node2"><a xlink:href="json_8h.html" target="_top" xlink:title=" ">
<polygon fill="white" stroke="black" points="1106.5,-369.5 1106.5,-388.5 1183.5,-388.5 1183.5,-369.5 1106.5,-369.5"/>
<text text-anchor="middle" x="1145" y="-376.5" font-family="Helvetica,sans-Serif" font-size="10.00">ccf/ds/json.h</text>
</a>
</g>
</g>
<!-- Node1&#45;&gt;Node2 -->
<g id="edge1" class="edge">
<title>Node1&#45;&gt;Node2</title>
<path fill="none" stroke="midnightblue" d="M1223.09,-481.34C1206.61,-459.96 1175.46,-419.53 1157.89,-396.73"/>
<polygon fill="midnightblue" stroke="midnightblue" points="1160.56,-394.45 1151.68,-388.67 1155.01,-398.73 1160.56,-394.45"/>
</g>
<!-- Node9 -->
<g id="node9" class="node">
<title>Node9</title>
<g id="a_node9"><a xlink:title=" ">
<polygon fill="white" stroke="#bfbfbf" points="1202,-174 1202,-193 1244,-193 1244,-174 1202,-174"/>
<text text-anchor="middle" x="1223" y="-181" font-family="Helvetica,sans-Serif" font-size="10.00">array</text>
</a>
</g>
</g>
<!-- Node1&#45;&gt;Node9 -->
<g id="edge71" class="edge">
<title>Node1&#45;&gt;Node9</title>
<path fill="none" stroke="midnightblue" d="M1234,-481.28C1234,-459.48 1234,-416.49 1234,-380 1234,-380 1234,-380 1234,-316.5 1234,-276.02 1228.8,-228.79 1225.55,-203.24"/>
<polygon fill="midnightblue" stroke="midnightblue" points="1228.99,-202.59 1224.22,-193.13 1222.05,-203.5 1228.99,-202.59"/>
</g>
<!-- Node13 -->
<g id="node13" class="node">
<title>Node13</title>
<g id="a_node13"><a xlink:title=" ">
<polygon fill="white" stroke="#bfbfbf" points="1198.5,-56.5 1198.5,-75.5 1277.5,-75.5 1277.5,-56.5 1198.5,-56.5"/>
<text text-anchor="middle" x="1238" y="-63.5" font-family="Helvetica,sans-Serif" font-size="10.00">fmt/format.h</text>
</a>
</g>
</g>
<!-- Node1&#45;&gt;Node13 -->
<g id="edge73" class="edge">
<title>Node1&#45;&gt;Node13</title>
<path fill="none" stroke="midnightblue" d="M1251.25,-481.43C1273.67,-461.44 1310,-422.49 1310,-380 1310,-380 1310,-380 1310,-182.5 1310,-141.64 1277.15,-103.29 1255.83,-82.69"/>
<polygon fill="midnightblue" stroke="midnightblue" points="1258.02,-79.95 1248.32,-75.7 1253.25,-85.07 1258.02,-79.95"/>
</g>
<!-- Node16 -->
<g id="node16" class="node">
<title>Node16</title>
<g id="a_node16"><a xlink:href="service_2map_8h.html" target="_top" xlink:title=" ">
<polygon fill="white" stroke="black" points="530.5,-425.5 530.5,-444.5 633.5,-444.5 633.5,-425.5 530.5,-425.5"/>
<text text-anchor="middle" x="582" y="-432.5" font-family="Helvetica,sans-Serif" font-size="10.00">ccf/service/map.h</text>
</a>
</g>
</g>
<!-- Node1&#45;&gt;Node16 -->
<g id="edge18" class="edge">
<title>Node1&#45;&gt;Node16</title>
<path fill="none" stroke="midnightblue" d="M1182.29,-490.78C1063.53,-479.94 771.64,-453.31 643.74,-441.63"/>
<polygon fill="midnightblue" stroke="midnightblue" points="643.99,-438.14 633.71,-440.72 643.35,-445.11 643.99,-438.14"/>
</g>
<!-- Node42 -->
<g id="node42" class="node">
<title>Node42</title>
<g id="a_node42"><a xlink:title=" ">
<polygon fill="white" stroke="#bfbfbf" points="1338,-425.5 1338,-444.5 1378,-444.5 1378,-425.5 1338,-425.5"/>
<text text-anchor="middle" x="1358" y="-432.5" font-family="Helvetica,sans-Serif" font-size="10.00">span</text>
</a>
</g>
</g>
<!-- Node1&#45;&gt;Node42 -->
<g id="edge72" class="edge">
<title>Node1&#45;&gt;Node42</title>
<path fill="none" stroke="midnightblue" d="M1263.39,-481.4C1283.82,-471.59 1310.86,-458.62 1330.8,-449.05"/>
<polygon fill="midnightblue" stroke="midnightblue" points="1332.46,-452.14 1339.96,-444.66 1329.43,-445.83 1332.46,-452.14"/>
</g>
<!-- Node3 -->
<g id="node3" class="node">
<title>Node3</title>
<g id="a_node3"><a xlink:href="include_2ccf_2crypto_2base64_8h.html" target="_top" xlink:title=" ">
<polygon fill="white" stroke="black" points="826,-241 826,-260 938,-260 938,-241 826,-241"/>
<text text-anchor="middle" x="882" y="-248" font-family="Helvetica,sans-Serif" font-size="10.00">ccf/crypto/base64.h</text>
</a>
</g>
</g>
<!-- Node2&#45;&gt;Node3 -->
<g id="edge2" class="edge">
<title>Node2&#45;&gt;Node3</title>
<path fill="none" stroke="midnightblue" d="M1130.74,-369.49C1116.37,-360.76 1093.71,-346.58 1075,-333 1057.36,-320.2 1056.13,-312.44 1037,-302 1003.6,-283.77 962.53,-270.76 931.06,-262.51"/>
<polygon fill="midnightblue" stroke="midnightblue" points="931.75,-259.08 921.2,-260 930.03,-265.86 931.75,-259.08"/>
</g>
<!-- Node6 -->
<g id="node6" class="node">
<title>Node6</title>
<g id="a_node6"><a xlink:href="include_2ccf_2ds_2json__schema_8h.html" target="_top" xlink:title=" ">
<polygon fill="white" stroke="black" points="1084.5,-308 1084.5,-327 1205.5,-327 1205.5,-308 1084.5,-308"/>
<text text-anchor="middle" x="1145" y="-315" font-family="Helvetica,sans-Serif" font-size="10.00">ccf/ds/json_schema.h</text>
</a>
</g>
</g>
<!-- Node2&#45;&gt;Node6 -->
<g id="edge5" class="edge">
<title>Node2&#45;&gt;Node6</title>
<path fill="none" stroke="midnightblue" d="M1145,-369.48C1145,-361.08 1145,-347.98 1145,-337.16"/>
<polygon fill="midnightblue" stroke="midnightblue" points="1148.5,-337.01 1145,-327.01 1141.5,-337.01 1148.5,-337.01"/>
</g>
<!-- Node2&#45;&gt;Node13 -->
<g id="edge16" class="edge">
<title>Node2&#45;&gt;Node13</title>
<path fill="none" stroke="midnightblue" d="M1164.84,-369.44C1200.56,-352.53 1272,-311.25 1272,-251.5 1272,-251.5 1272,-251.5 1272,-182.5 1272,-146.77 1256.84,-107.26 1246.77,-84.95"/>
<polygon fill="midnightblue" stroke="midnightblue" points="1249.86,-83.3 1242.44,-75.73 1243.52,-86.27 1249.86,-83.3"/>
</g>
<!-- Node15 -->
<g id="node15" class="node">
<title>Node15</title>
<g id="a_node15"><a xlink:title=" ">
<polygon fill="white" stroke="#bfbfbf" points="972,-308 972,-327 1028,-327 1028,-308 972,-308"/>
<text text-anchor="middle" x="1000" y="-315" font-family="Helvetica,sans-Serif" font-size="10.00">sstream</text>
</a>
</g>
</g>
<!-- Node2&#45;&gt;Node15 -->
<g id="edge17" class="edge">
<title>Node2&#45;&gt;Node15</title>
<path fill="none" stroke="midnightblue" d="M1124.23,-369.48C1099.57,-359.36 1058.25,-342.4 1030.1,-330.85"/>
<polygon fill="midnightblue" stroke="midnightblue" points="1031.32,-327.57 1020.74,-327.01 1028.66,-334.04 1031.32,-327.57"/>
</g>
<!-- Node4 -->
<g id="node4" class="node">
<title>Node4</title>
<g id="a_node4"><a xlink:title=" ">
<polygon fill="white" stroke="#bfbfbf" points="697,-174 697,-193 741,-193 741,-174 697,-174"/>
<text text-anchor="middle" x="719" y="-181" font-family="Helvetica,sans-Serif" font-size="10.00">string</text>
</a>
</g>
</g>
<!-- Node3&#45;&gt;Node4 -->
<g id="edge3" class="edge">
<title>Node3&#45;&gt;Node4</title>
<path fill="none" stroke="midnightblue" d="M860.42,-240.95C835.14,-230.93 792.01,-213.81 755,-199 753.37,-198.35 751.69,-197.67 750,-197"/>
<polygon fill="midnightblue" stroke="midnightblue" points="750.9,-193.59 740.31,-193.1 748.29,-200.08 750.9,-193.59"/>
</g>
<!-- Node5 -->
<g id="node5" class="node">
<title>Node5</title>
<g id="a_node5"><a xlink:title=" ">
<polygon fill="white" stroke="#bfbfbf" points="745.5,-0.5 745.5,-19.5 792.5,-19.5 792.5,-0.5 745.5,-0.5"/>
<text text-anchor="middle" x="769" y="-7.5" font-family="Helvetica,sans-Serif" font-size="10.00">vector</text>
</a>
</g>
</g>
<!-- Node3&#45;&gt;Node5 -->
<g id="edge4" class="edge">
<title>Node3&#45;&gt;Node5</title>
<path fill="none" stroke="midnightblue" d="M850.01,-240.91C828.79,-233.46 802.31,-220.41 788,-199 752.79,-146.34 759.89,-66.15 765.5,-29.93"/>
<polygon fill="midnightblue" stroke="midnightblue" points="769,-30.25 767.22,-19.81 762.1,-29.08 769,-30.25"/>
</g>
<!-- Node7 -->
<g id="node7" class="node">
<title>Node7</title>
<g id="a_node7"><a xlink:href="nonstd_8h.html" target="_top" xlink:title=" ">
<polygon fill="white" stroke="black" points="963,-241 963,-260 1053,-260 1053,-241 963,-241"/>
<text text-anchor="middle" x="1008" y="-248" font-family="Helvetica,sans-Serif" font-size="10.00">ccf/ds/nonstd.h</text>
</a>
</g>
</g>
<!-- Node6&#45;&gt;Node7 -->
<g id="edge6" class="edge">
<title>Node6&#45;&gt;Node7</title>
<path fill="none" stroke="midnightblue" d="M1126.81,-307.87C1103.47,-296.8 1062.77,-277.49 1035.61,-264.6"/>
<polygon fill="midnightblue" stroke="midnightblue" points="1036.8,-261.29 1026.27,-260.17 1033.8,-267.62 1036.8,-261.29"/>
</g>
<!-- Node6&#45;&gt;Node13 -->
<g id="edge14" class="edge">
<title>Node6&#45;&gt;Node13</title>
<path fill="none" stroke="midnightblue" d="M1147.49,-307.68C1154.12,-284.52 1173.03,-220.12 1193,-168 1204.4,-138.23 1219.95,-104.59 1229.46,-84.62"/>
<polygon fill="midnightblue" stroke="midnightblue" points="1232.66,-86.05 1233.83,-75.52 1226.35,-83.02 1232.66,-86.05"/>
</g>
<!-- Node14 -->
<g id="node14" class="node">
<title>Node14</title>
<g id="a_node14"><a xlink:title=" ">
<polygon fill="white" stroke="#bfbfbf" points="660,-241 660,-260 770,-260 770,-241 660,-241"/>
<text text-anchor="middle" x="715" y="-248" font-family="Helvetica,sans-Serif" font-size="10.00">nlohmann/json.hpp</text>
</a>
</g>
</g>
<!-- Node6&#45;&gt;Node14 -->
<g id="edge15" class="edge">
<title>Node6&#45;&gt;Node14</title>
<path fill="none" stroke="midnightblue" d="M1088.34,-307.94C1008.68,-295.89 863.95,-274.02 780.01,-261.33"/>
<polygon fill="midnightblue" stroke="midnightblue" points="780.49,-257.86 770.08,-259.83 779.45,-264.78 780.49,-257.86"/>
</g>
<!-- Node7&#45;&gt;Node4 -->
<g id="edge10" class="edge">
<title>Node7&#45;&gt;Node4</title>
<path fill="none" stroke="midnightblue" d="M972.54,-240.97C964.17,-238.99 955.28,-236.9 947,-235 877.13,-218.96 795,-200.98 750.89,-191.4"/>
<polygon fill="midnightblue" stroke="midnightblue" points="751.55,-187.96 741.04,-189.26 750.07,-194.8 751.55,-187.96"/>
</g>
<!-- Node7&#45;&gt;Node5 -->
<g id="edge13" class="edge">
<title>Node7&#45;&gt;Node5</title>
<path fill="none" stroke="midnightblue" d="M1051.61,-240.93C1074.99,-233.88 1101.83,-221.27 1116,-199 1123.4,-187.38 1123.47,-179.58 1116,-168 1044.76,-57.58 875.02,-23.98 802.64,-14.48"/>
<polygon fill="midnightblue" stroke="midnightblue" points="803.04,-11 792.69,-13.24 802.18,-17.95 803.04,-11"/>
</g>
<!-- Node8 -->
<g id="node8" class="node">
<title>Node8</title>
<g id="a_node8"><a xlink:title=" ">
<polygon fill="white" stroke="#bfbfbf" points="976,-174 976,-193 1040,-193 1040,-174 976,-174"/>
<text text-anchor="middle" x="1008" y="-181" font-family="Helvetica,sans-Serif" font-size="10.00">algorithm</text>
</a>
</g>
</g>
<!-- Node7&#45;&gt;Node8 -->
<g id="edge7" class="edge">
<title>Node7&#45;&gt;Node8</title>
<path fill="none" stroke="midnightblue" d="M1008,-240.73C1008,-231.18 1008,-215.62 1008,-203.28"/>
<polygon fill="midnightblue" stroke="midnightblue" points="1011.5,-203.13 1008,-193.13 1004.5,-203.13 1011.5,-203.13"/>
</g>
<!-- Node7&#45;&gt;Node9 -->
<g id="edge8" class="edge">
<title>Node7&#45;&gt;Node9</title>
<path fill="none" stroke="midnightblue" d="M1036.55,-240.87C1076.97,-228.65 1150.57,-206.4 1192.18,-193.82"/>
<polygon fill="midnightblue" stroke="midnightblue" points="1193.23,-197.16 1201.79,-190.91 1191.2,-190.46 1193.23,-197.16"/>
</g>
<!-- Node10 -->
<g id="node10" class="node">
<title>Node10</title>
<g id="a_node10"><a xlink:title=" ">
<polygon fill="white" stroke="#bfbfbf" points="1058.5,-174 1058.5,-193 1107.5,-193 1107.5,-174 1058.5,-174"/>
<text text-anchor="middle" x="1083" y="-181" font-family="Helvetica,sans-Serif" font-size="10.00">cctype</text>
</a>
</g>
</g>
<!-- Node7&#45;&gt;Node10 -->
<g id="edge9" class="edge">
<title>Node7&#45;&gt;Node10</title>
<path fill="none" stroke="midnightblue" d="M1018.11,-240.73C1030.15,-230.31 1050.45,-212.71 1065.15,-199.97"/>
<polygon fill="midnightblue" stroke="midnightblue" points="1067.78,-202.32 1073.05,-193.13 1063.2,-197.03 1067.78,-202.32"/>
</g>
<!-- Node11 -->
<g id="node11" class="node">
<title>Node11</title>
<g id="a_node11"><a xlink:title=" ">
<polygon fill="white" stroke="#bfbfbf" points="797.5,-174 797.5,-193 870.5,-193 870.5,-174 797.5,-174"/>
<text text-anchor="middle" x="834" y="-181" font-family="Helvetica,sans-Serif" font-size="10.00">string_view</text>
</a>
</g>
</g>
<!-- Node7&#45;&gt;Node11 -->
<g id="edge11" class="edge">
<title>Node7&#45;&gt;Node11</title>
<path fill="none" stroke="midnightblue" d="M984.89,-240.87C954.52,-229.52 900.99,-209.52 866.53,-196.65"/>
<polygon fill="midnightblue" stroke="midnightblue" points="867.52,-193.28 856.92,-193.06 865.07,-199.84 867.52,-193.28"/>
</g>
<!-- Node12 -->
<g id="node12" class="node">
<title>Node12</title>
<g id="a_node12"><a xlink:title=" ">
<polygon fill="white" stroke="#bfbfbf" points="888.5,-174 888.5,-193 957.5,-193 957.5,-174 888.5,-174"/>
<text text-anchor="middle" x="923" y="-181" font-family="Helvetica,sans-Serif" font-size="10.00">type_traits</text>
</a>
</g>
</g>
<!-- Node7&#45;&gt;Node12 -->
<g id="edge12" class="edge">
<title>Node7&#45;&gt;Node12</title>
<path fill="none" stroke="midnightblue" d="M996.54,-240.73C982.64,-230.11 959.02,-212.05 942.31,-199.26"/>
<polygon fill="midnightblue" stroke="midnightblue" points="944.35,-196.42 934.28,-193.13 940.1,-201.98 944.35,-196.42"/>
</g>
<!-- Node17 -->
<g id="node17" class="node">
<title>Node17</title>
<g id="a_node17"><a xlink:href="kv_2map_8h.html" target="_top" xlink:title=" ">
<polygon fill="white" stroke="black" points="392,-369.5 392,-388.5 472,-388.5 472,-369.5 392,-369.5"/>
<text text-anchor="middle" x="432" y="-376.5" font-family="Helvetica,sans-Serif" font-size="10.00">ccf/kv/map.h</text>
</a>
</g>
</g>
<!-- Node16&#45;&gt;Node17 -->
<g id="edge19" class="edge">
<title>Node16&#45;&gt;Node17</title>
<path fill="none" stroke="midnightblue" d="M558.23,-425.44C533.11,-416.4 493.29,-402.06 465.1,-391.92"/>
<polygon fill="midnightblue" stroke="midnightblue" points="466.25,-388.61 455.66,-388.52 463.88,-395.2 466.25,-388.61"/>
</g>
<!-- Node37 -->
<g id="node37" class="node">
<title>Node37</title>
<g id="a_node37"><a xlink:href="set_8h.html" target="_top" xlink:title=" ">
<polygon fill="white" stroke="black" points="593.5,-369.5 593.5,-388.5 666.5,-388.5 666.5,-369.5 593.5,-369.5"/>
<text text-anchor="middle" x="630" y="-376.5" font-family="Helvetica,sans-Serif" font-size="10.00">ccf/kv/set.h</text>
</a>
</g>
</g>
<!-- Node16&#45;&gt;Node37 -->
<g id="edge52" class="edge">
<title>Node16&#45;&gt;Node37</title>
<path fill="none" stroke="midnightblue" d="M589.93,-425.08C596.85,-417.3 607.07,-405.8 615.45,-396.37"/>
<polygon fill="midnightblue" stroke="midnightblue" points="618.19,-398.55 622.22,-388.75 612.96,-393.9 618.19,-398.55"/>
</g>
<!-- Node40 -->
<g id="node40" class="node">
<title>Node40</title>
<g id="a_node40"><a xlink:href="value_8h.html" target="_top" xlink:title=" ">
<polygon fill="white" stroke="black" points="490.5,-369.5 490.5,-388.5 575.5,-388.5 575.5,-369.5 490.5,-369.5"/>
<text text-anchor="middle" x="533" y="-376.5" font-family="Helvetica,sans-Serif" font-size="10.00">ccf/kv/value.h</text>
</a>
</g>
</g>
<!-- Node16&#45;&gt;Node40 -->
<g id="edge62" class="edge">
<title>Node16&#45;&gt;Node40</title>
<path fill="none" stroke="midnightblue" d="M573.91,-425.08C566.84,-417.3 556.41,-405.8 547.85,-396.37"/>
<polygon fill="midnightblue" stroke="midnightblue" points="550.25,-393.8 540.94,-388.75 545.07,-398.51 550.25,-393.8"/>
</g>
<!-- Node18 -->
<g id="node18" class="node">
<title>Node18</title>
<g id="a_node18"><a xlink:href="get__name_8h.html" target="_top" xlink:title=" ">
<polygon fill="white" stroke="black" points="846.5,-308 846.5,-327 953.5,-327 953.5,-308 846.5,-308"/>
<text text-anchor="middle" x="900" y="-315" font-family="Helvetica,sans-Serif" font-size="10.00">ccf/kv/get_name.h</text>
</a>
</g>
</g>
<!-- Node17&#45;&gt;Node18 -->
<g id="edge20" class="edge">
<title>Node17&#45;&gt;Node18</title>
<path fill="none" stroke="midnightblue" d="M472.07,-370.37C475.09,-369.88 478.09,-369.41 481,-369 638.45,-346.62 680.09,-358.89 837,-333 843.32,-331.96 849.96,-330.66 856.45,-329.27"/>
<polygon fill="midnightblue" stroke="midnightblue" points="857.48,-332.63 866.48,-327.04 855.96,-325.79 857.48,-332.63"/>
</g>
<!-- Node19 -->
<g id="node19" class="node">
<title>Node19</title>
<g id="a_node19"><a xlink:href="include_2ccf_2kv_2hooks_8h.html" target="_top" xlink:title=" ">
<polygon fill="white" stroke="black" points="18.5,-241 18.5,-260 105.5,-260 105.5,-241 18.5,-241"/>
<text text-anchor="middle" x="62" y="-248" font-family="Helvetica,sans-Serif" font-size="10.00">ccf/kv/hooks.h</text>
</a>
</g>
</g>
<!-- Node17&#45;&gt;Node19 -->
<g id="edge22" class="edge">
<title>Node17&#45;&gt;Node19</title>
<path fill="none" stroke="midnightblue" d="M391.8,-376.71C291.29,-373.07 35.28,-361.11 10,-333 -8.82,-312.06 19.34,-283.58 41.01,-266.42"/>
<polygon fill="midnightblue" stroke="midnightblue" points="43.31,-269.06 49.16,-260.23 39.08,-263.49 43.31,-269.06"/>
</g>
<!-- Node23 -->
<g id="node23" class="node">
<title>Node23</title>
<g id="a_node23"><a xlink:href="map__handle_8h.html" target="_top" xlink:title=" ">
<polygon fill="white" stroke="black" points="206,-308 206,-327 324,-327 324,-308 206,-308"/>
<text text-anchor="middle" x="265" y="-315" font-family="Helvetica,sans-Serif" font-size="10.00">ccf/kv/map_handle.h</text>
</a>
</g>
</g>
<!-- Node17&#45;&gt;Node23 -->
<g id="edge26" class="edge">
<title>Node17&#45;&gt;Node23</title>
<path fill="none" stroke="midnightblue" d="M408.07,-369.48C379.3,-359.22 330.84,-341.96 298.4,-330.4"/>
<polygon fill="midnightblue" stroke="midnightblue" points="299.48,-327.07 288.88,-327.01 297.13,-333.66 299.48,-327.07"/>
</g>
<!-- Node33 -->
<g id="node33" class="node">
<title>Node33</title>
<g id="a_node33"><a xlink:href="blit__serialiser_8h.html" target="_top" xlink:title=" ">
<polygon fill="white" stroke="black" points="729.5,-302.5 729.5,-332.5 828.5,-332.5 828.5,-302.5 729.5,-302.5"/>
<text text-anchor="start" x="737.5" y="-320.5" font-family="Helvetica,sans-Serif" font-size="10.00">ccf/kv/serialisers</text>
<text text-anchor="middle" x="779" y="-309.5" font-family="Helvetica,sans-Serif" font-size="10.00">/blit_serialiser.h</text>
</a>
</g>
</g>
<!-- Node17&#45;&gt;Node33 -->
<g id="edge41" class="edge">
<title>Node17&#45;&gt;Node33</title>
<path fill="none" stroke="midnightblue" d="M472.09,-370.53C475.11,-370 478.1,-369.48 481,-369 583.85,-351.81 612.93,-353.71 719.62,-332.96"/>
<polygon fill="midnightblue" stroke="midnightblue" points="720.36,-336.38 729.5,-331.01 719.01,-329.51 720.36,-336.38"/>
</g>
<!-- Node34 -->
<g id="node34" class="node">
<title>Node34</title>
<g id="a_node34"><a xlink:href="json__serialiser_8h.html" target="_top" xlink:title=" ">
<polygon fill="white" stroke="black" points="483.5,-302.5 483.5,-332.5 582.5,-332.5 582.5,-302.5 483.5,-302.5"/>
<text text-anchor="start" x="491.5" y="-320.5" font-family="Helvetica,sans-Serif" font-size="10.00">ccf/kv/serialisers</text>
<text text-anchor="middle" x="533" y="-309.5" font-family="Helvetica,sans-Serif" font-size="10.00">/json_serialiser.h</text>
</a>
</g>
</g>
<!-- Node17&#45;&gt;Node34 -->
<g id="edge44" class="edge">
<title>Node17&#45;&gt;Node34</title>
<path fill="none" stroke="midnightblue" d="M446.47,-369.48C460.41,-361.27 481.98,-348.56 500.1,-337.88"/>
<polygon fill="midnightblue" stroke="midnightblue" points="502.36,-340.61 509.2,-332.52 498.8,-334.58 502.36,-340.61"/>
</g>
<!-- Node35 -->
<g id="node35" class="node">
<title>Node35</title>
<g id="a_node35"><a xlink:href="untyped_8h.html" target="_top" xlink:title=" ">
<polygon fill="white" stroke="black" points="90,-308 90,-327 188,-327 188,-308 90,-308"/>
<text text-anchor="middle" x="139" y="-315" font-family="Helvetica,sans-Serif" font-size="10.00">ccf/kv/untyped.h</text>
</a>
</g>
</g>
<!-- Node17&#45;&gt;Node35 -->
<g id="edge47" class="edge">
<title>Node17&#45;&gt;Node35</title>
<path fill="none" stroke="midnightblue" d="M391.94,-371.03C345.06,-362.71 265.15,-348.03 197,-333 192,-331.9 186.77,-330.68 181.58,-329.43"/>
<polygon fill="midnightblue" stroke="midnightblue" points="182.29,-326 171.75,-327.03 180.63,-332.8 182.29,-326"/>
</g>
<!-- Node18&#45;&gt;Node4 -->
<g id="edge21" class="edge">
<title>Node18&#45;&gt;Node4</title>
<path fill="none" stroke="midnightblue" d="M884.27,-307.85C867.24,-298.28 839.51,-282.08 817,-266 808.83,-260.17 763.05,-221.69 737.05,-199.75"/>
<polygon fill="midnightblue" stroke="midnightblue" points="739.27,-197.05 729.37,-193.27 734.76,-202.4 739.27,-197.05"/>
</g>
<!-- Node20 -->
<g id="node20" class="node">
<title>Node20</title>
<g id="a_node20"><a xlink:href="kv_2version_8h.html" target="_top" xlink:title=" ">
<polygon fill="white" stroke="black" points="160,-174 160,-193 254,-193 254,-174 160,-174"/>
<text text-anchor="middle" x="207" y="-181" font-family="Helvetica,sans-Serif" font-size="10.00">ccf/kv/version.h</text>
</a>
</g>
</g>
<!-- Node19&#45;&gt;Node20 -->
<g id="edge23" class="edge">
<title>Node19&#45;&gt;Node20</title>
<path fill="none" stroke="midnightblue" d="M81.25,-240.87C106.17,-229.7 149.79,-210.15 178.53,-197.26"/>
<polygon fill="midnightblue" stroke="midnightblue" points="179.97,-200.45 187.67,-193.17 177.11,-194.06 179.97,-200.45"/>
</g>
<!-- Node21 -->
<g id="node21" class="node">
<title>Node21</title>
<g id="a_node21"><a xlink:title=" ">
<polygon fill="white" stroke="#bfbfbf" points="76.5,-174 76.5,-193 141.5,-193 141.5,-174 76.5,-174"/>
<text text-anchor="middle" x="109" y="-181" font-family="Helvetica,sans-Serif" font-size="10.00">functional</text>
</a>
</g>
</g>
<!-- Node19&#45;&gt;Node21 -->
<g id="edge24" class="edge">
<title>Node19&#45;&gt;Node21</title>
<path fill="none" stroke="midnightblue" d="M68.34,-240.73C75.6,-230.7 87.66,-214.01 96.76,-201.42"/>
<polygon fill="midnightblue" stroke="midnightblue" points="99.74,-203.28 102.76,-193.13 94.07,-199.18 99.74,-203.28"/>
</g>
<!-- Node22 -->
<g id="node22" class="node">
<title>Node22</title>
<g id="a_node22"><a xlink:title=" ">
<polygon fill="white" stroke="#bfbfbf" points="0,-174 0,-193 58,-193 58,-174 0,-174"/>
<text text-anchor="middle" x="29" y="-181" font-family="Helvetica,sans-Serif" font-size="10.00">memory</text>
</a>
</g>
</g>
<!-- Node19&#45;&gt;Node22 -->
<g id="edge25" class="edge">
<title>Node19&#45;&gt;Node22</title>
<path fill="none" stroke="midnightblue" d="M57.55,-240.73C52.55,-230.89 44.31,-214.66 37.97,-202.16"/>
<polygon fill="midnightblue" stroke="midnightblue" points="41.03,-200.46 33.38,-193.13 34.79,-203.63 41.03,-200.46"/>
</g>
<!-- Node24 -->
<g id="node24" class="node">
<title>Node24</title>
<g id="a_node24"><a xlink:href="untyped__map__handle_8h.html" target="_top" xlink:title=" ">
<polygon fill="white" stroke="black" points="346,-235.5 346,-265.5 462,-265.5 462,-235.5 346,-235.5"/>
<text text-anchor="start" x="354" y="-253.5" font-family="Helvetica,sans-Serif" font-size="10.00">ccf/kv/untyped_map</text>
<text text-anchor="middle" x="404" y="-242.5" font-family="Helvetica,sans-Serif" font-size="10.00">_handle.h</text>
</a>
</g>
</g>
<!-- Node23&#45;&gt;Node24 -->
<g id="edge27" class="edge">
<title>Node23&#45;&gt;Node24</title>
<path fill="none" stroke="midnightblue" d="M283.46,-307.87C304.13,-298.2 338.25,-282.25 364.91,-269.78"/>
<polygon fill="midnightblue" stroke="midnightblue" points="366.43,-272.93 374,-265.53 363.46,-266.59 366.43,-272.93"/>
</g>
<!-- Node24&#45;&gt;Node4 -->
<g id="edge40" class="edge">
<title>Node24&#45;&gt;Node4</title>
<path fill="none" stroke="midnightblue" d="M462.14,-237.5C528.33,-223.84 634.1,-202.02 686.87,-191.13"/>
<polygon fill="midnightblue" stroke="midnightblue" points="687.91,-194.49 696.99,-189.04 686.49,-187.63 687.91,-194.49"/>
</g>
<!-- Node24&#45;&gt;Node20 -->
<g id="edge37" class="edge">
<title>Node24&#45;&gt;Node20</title>
<path fill="none" stroke="midnightblue" d="M361.25,-235.4C325.77,-223.69 275.89,-207.23 242.56,-196.23"/>
<polygon fill="midnightblue" stroke="midnightblue" points="243.38,-192.82 232.78,-193.01 241.18,-199.46 243.38,-192.82"/>
</g>
<!-- Node24&#45;&gt;Node21 -->
<g id="edge38" class="edge">
<title>Node24&#45;&gt;Node21</title>
<path fill="none" stroke="midnightblue" d="M345.96,-240.22C294.34,-231.42 217.03,-216.9 151,-199 147.97,-198.18 144.84,-197.25 141.73,-196.27"/>
<polygon fill="midnightblue" stroke="midnightblue" points="142.53,-192.85 131.93,-193.05 140.33,-199.5 142.53,-192.85"/>
</g>
<!-- Node25 -->
<g id="node25" class="node">
<title>Node25</title>
<g id="a_node25"><a xlink:href="abstract__handle_8h.html" target="_top" xlink:title=" ">
<polygon fill="white" stroke="black" points="346,-174 346,-193 482,-193 482,-174 346,-174"/>
<text text-anchor="middle" x="414" y="-181" font-family="Helvetica,sans-Serif" font-size="10.00">ccf/kv/abstract_handle.h</text>
</a>
</g>
</g>
<!-- Node24&#45;&gt;Node25 -->
<g id="edge28" class="edge">
<title>Node24&#45;&gt;Node25</title>
<path fill="none" stroke="midnightblue" d="M406.17,-235.4C407.62,-225.96 409.55,-213.45 411.12,-203.19"/>
<polygon fill="midnightblue" stroke="midnightblue" points="414.6,-203.61 412.66,-193.19 407.68,-202.55 414.6,-203.61"/>
</g>
<!-- Node26 -->
<g id="node26" class="node">
<title>Node26</title>
<g id="a_node26"><a xlink:href="serialised__entry_8h.html" target="_top" xlink:title=" ">
<polygon fill="white" stroke="black" points="505.5,-168.5 505.5,-198.5 610.5,-198.5 610.5,-168.5 505.5,-168.5"/>
<text text-anchor="start" x="513.5" y="-186.5" font-family="Helvetica,sans-Serif" font-size="10.00">ccf/kv/serialisers</text>
<text text-anchor="middle" x="558" y="-175.5" font-family="Helvetica,sans-Serif" font-size="10.00">/serialised_entry.h</text>
</a>
</g>
</g>
<!-- Node24&#45;&gt;Node26 -->
<g id="edge29" class="edge">
<title>Node24&#45;&gt;Node26</title>
<path fill="none" stroke="midnightblue" d="M437.42,-235.4C460.22,-225.77 490.63,-212.94 515.2,-202.56"/>
<polygon fill="midnightblue" stroke="midnightblue" points="516.8,-205.69 524.65,-198.58 514.08,-199.24 516.8,-205.69"/>
</g>
<!-- Node32 -->
<g id="node32" class="node">
<title>Node32</title>
<g id="a_node32"><a xlink:title=" ">
<polygon fill="white" stroke="#bfbfbf" points="272,-174 272,-193 328,-193 328,-174 272,-174"/>
<text text-anchor="middle" x="300" y="-181" font-family="Helvetica,sans-Serif" font-size="10.00">optional</text>
</a>
</g>
</g>
<!-- Node24&#45;&gt;Node32 -->
<g id="edge39" class="edge">
<title>Node24&#45;&gt;Node32</title>
<path fill="none" stroke="midnightblue" d="M381.43,-235.4C363.99,-224.5 339.97,-209.48 322.53,-198.58"/>
<polygon fill="midnightblue" stroke="midnightblue" points="323.95,-195.34 313.61,-193.01 320.24,-201.28 323.95,-195.34"/>
</g>
<!-- Node27 -->
<g id="node27" class="node">
<title>Node27</title>
<g id="a_node27"><a xlink:href="byte__vector_8h.html" target="_top" xlink:title=" ">
<polygon fill="white" stroke="black" points="510,-112.5 510,-131.5 610,-131.5 610,-112.5 510,-112.5"/>
<text text-anchor="middle" x="560" y="-119.5" font-family="Helvetica,sans-Serif" font-size="10.00">ccf/byte_vector.h</text>
</a>
</g>
</g>
<!-- Node26&#45;&gt;Node27 -->
<g id="edge30" class="edge">
<title>Node26&#45;&gt;Node27</title>
<path fill="none" stroke="midnightblue" d="M558.47,-168.4C558.74,-160.47 559.08,-150.46 559.37,-141.86"/>
<polygon fill="midnightblue" stroke="midnightblue" points="562.87,-141.77 559.71,-131.66 555.87,-141.53 562.87,-141.77"/>
</g>
<!-- Node27&#45;&gt;Node13 -->
<g id="edge35" class="edge">
<title>Node27&#45;&gt;Node13</title>
<path fill="none" stroke="midnightblue" d="M610.13,-117.01C735.73,-107 1062.76,-80.96 1188.1,-70.97"/>
<polygon fill="midnightblue" stroke="midnightblue" points="1188.5,-74.45 1198.19,-70.17 1187.94,-67.48 1188.5,-74.45"/>
</g>
<!-- Node28 -->
<g id="node28" class="node">
<title>Node28</title>
<g id="a_node28"><a xlink:href="siphash_8h.html" target="_top" xlink:title=" ">
<polygon fill="white" stroke="black" points="645.5,-56.5 645.5,-75.5 740.5,-75.5 740.5,-56.5 645.5,-56.5"/>
<text text-anchor="middle" x="693" y="-63.5" font-family="Helvetica,sans-Serif" font-size="10.00">ccf/ds/siphash.h</text>
</a>
</g>
</g>
<!-- Node27&#45;&gt;Node28 -->
<g id="edge31" class="edge">
<title>Node27&#45;&gt;Node28</title>
<path fill="none" stroke="midnightblue" d="M581.07,-112.44C603.06,-103.52 637.73,-89.44 662.66,-79.32"/>
<polygon fill="midnightblue" stroke="midnightblue" points="664.08,-82.52 672.02,-75.52 661.44,-76.04 664.08,-82.52"/>
</g>
<!-- Node31 -->
<g id="node31" class="node">
<title>Node31</title>
<g id="a_node31"><a xlink:title=" ">
<polygon fill="white" stroke="#bfbfbf" points="478.5,-56.5 478.5,-75.5 627.5,-75.5 627.5,-56.5 478.5,-56.5"/>
<text text-anchor="middle" x="553" y="-63.5" font-family="Helvetica,sans-Serif" font-size="10.00">small_vector/SmallVector.h</text>
</a>
</g>
</g>
<!-- Node27&#45;&gt;Node31 -->
<g id="edge36" class="edge">
<title>Node27&#45;&gt;Node31</title>
<path fill="none" stroke="midnightblue" d="M558.84,-112.08C557.92,-104.93 556.58,-94.64 555.42,-85.69"/>
<polygon fill="midnightblue" stroke="midnightblue" points="558.89,-85.22 554.13,-75.75 551.95,-86.12 558.89,-85.22"/>
</g>
<!-- Node28&#45;&gt;Node5 -->
<g id="edge34" class="edge">
<title>Node28&#45;&gt;Node5</title>
<path fill="none" stroke="midnightblue" d="M705.21,-56.32C716.78,-48.11 734.38,-35.6 748.16,-25.81"/>
<polygon fill="midnightblue" stroke="midnightblue" points="750.44,-28.48 756.57,-19.83 746.39,-22.77 750.44,-28.48"/>
</g>
<!-- Node29 -->
<g id="node29" class="node">
<title>Node29</title>
<g id="a_node29"><a xlink:title=" ">
<polygon fill="white" stroke="#bfbfbf" points="601.5,-0.5 601.5,-19.5 654.5,-19.5 654.5,-0.5 601.5,-0.5"/>
<text text-anchor="middle" x="628" y="-7.5" font-family="Helvetica,sans-Serif" font-size="10.00">cstddef</text>
</a>
</g>
</g>
<!-- Node28&#45;&gt;Node29 -->
<g id="edge32" class="edge">
<title>Node28&#45;&gt;Node29</title>
<path fill="none" stroke="midnightblue" d="M682.56,-56.32C672.85,-48.26 658.18,-36.08 646.5,-26.37"/>
<polygon fill="midnightblue" stroke="midnightblue" points="648.56,-23.53 638.63,-19.83 644.09,-28.92 648.56,-23.53"/>
</g>
<!-- Node30 -->
<g id="node30" class="node">
<title>Node30</title>
<g id="a_node30"><a xlink:title=" ">
<polygon fill="white" stroke="#bfbfbf" points="673,-0.5 673,-19.5 723,-19.5 723,-0.5 673,-0.5"/>
<text text-anchor="middle" x="698" y="-7.5" font-family="Helvetica,sans-Serif" font-size="10.00">cstdint</text>
</a>
</g>
</g>
<!-- Node28&#45;&gt;Node30 -->
<g id="edge33" class="edge">
<title>Node28&#45;&gt;Node30</title>
<path fill="none" stroke="midnightblue" d="M693.83,-56.08C694.48,-49.01 695.42,-38.86 696.24,-29.99"/>
<polygon fill="midnightblue" stroke="midnightblue" points="699.75,-30.03 697.19,-19.75 692.78,-29.39 699.75,-30.03"/>
</g>
<!-- Node33&#45;&gt;Node7 -->
<g id="edge42" class="edge">
<title>Node33&#45;&gt;Node7</title>
<path fill="none" stroke="midnightblue" d="M828.41,-302.48C870.17,-290.62 929.23,-273.86 968.06,-262.84"/>
<polygon fill="midnightblue" stroke="midnightblue" points="969.29,-266.13 977.95,-260.03 967.38,-259.39 969.29,-266.13"/>
</g>
<!-- Node33&#45;&gt;Node26 -->
<g id="edge43" class="edge">
<title>Node33&#45;&gt;Node26</title>
<path fill="none" stroke="midnightblue" d="M732.48,-302.47C707.36,-293.85 676.39,-281.49 651,-266 636.16,-256.95 602.89,-226.75 580.44,-205.77"/>
<polygon fill="midnightblue" stroke="midnightblue" points="582.69,-203.07 573,-198.78 577.89,-208.18 582.69,-203.07"/>
</g>
<!-- Node34&#45;&gt;Node14 -->
<g id="edge46" class="edge">
<title>Node34&#45;&gt;Node14</title>
<path fill="none" stroke="midnightblue" d="M572.49,-302.4C605.13,-290.74 650.96,-274.37 681.75,-263.38"/>
<polygon fill="midnightblue" stroke="midnightblue" points="682.94,-266.67 691.18,-260.01 680.59,-260.07 682.94,-266.67"/>
</g>
<!-- Node34&#45;&gt;Node26 -->
<g id="edge45" class="edge">
<title>Node34&#45;&gt;Node26</title>
<path fill="none" stroke="midnightblue" d="M525.76,-302.32C518.32,-285.79 508.9,-257.83 517,-235 520.78,-224.35 527.86,-214.32 535.09,-206.04"/>
<polygon fill="midnightblue" stroke="midnightblue" points="537.7,-208.38 541.97,-198.68 532.59,-203.6 537.7,-208.38"/>
</g>
<!-- Node35&#45;&gt;Node19 -->
<g id="edge48" class="edge">
<title>Node35&#45;&gt;Node19</title>
<path fill="none" stroke="midnightblue" d="M128.62,-307.73C116.15,-297.21 95.03,-279.38 79.91,-266.62"/>
<polygon fill="midnightblue" stroke="midnightblue" points="82.12,-263.9 72.22,-260.13 77.6,-269.25 82.12,-263.9"/>
</g>
<!-- Node35&#45;&gt;Node26 -->
<g id="edge49" class="edge">
<title>Node35&#45;&gt;Node26</title>
<path fill="none" stroke="midnightblue" d="M156.92,-307.94C191.21,-291.83 268.8,-256.66 337,-235 352.1,-230.2 435.65,-211.46 495.56,-198.21"/>
<polygon fill="midnightblue" stroke="midnightblue" points="496.32,-201.63 505.33,-196.05 494.81,-194.79 496.32,-201.63"/>
</g>
<!-- Node35&#45;&gt;Node32 -->
<g id="edge51" class="edge">
<title>Node35&#45;&gt;Node32</title>
<path fill="none" stroke="midnightblue" d="M138.46,-307.65C137.96,-291.19 139.3,-255.7 158,-235 191.07,-198.4 216.69,-216 263,-199 264.89,-198.3 266.84,-197.58 268.8,-196.84"/>
<polygon fill="midnightblue" stroke="midnightblue" points="270.46,-199.95 278.54,-193.09 267.95,-193.41 270.46,-199.95"/>
</g>
<!-- Node36 -->
<g id="node36" class="node">
<title>Node36</title>
<g id="a_node36"><a xlink:title=" ">
<polygon fill="white" stroke="#bfbfbf" points="167,-241 167,-260 205,-260 205,-241 167,-241"/>
<text text-anchor="middle" x="186" y="-248" font-family="Helvetica,sans-Serif" font-size="10.00">map</text>
</a>
</g>
</g>
<!-- Node35&#45;&gt;Node36 -->
<g id="edge50" class="edge">
<title>Node35&#45;&gt;Node36</title>
<path fill="none" stroke="midnightblue" d="M145.34,-307.73C152.6,-297.7 164.66,-281.01 173.76,-268.42"/>
<polygon fill="midnightblue" stroke="midnightblue" points="176.74,-270.28 179.76,-260.13 171.07,-266.18 176.74,-270.28"/>
</g>
<!-- Node37&#45;&gt;Node18 -->
<g id="edge53" class="edge">
<title>Node37&#45;&gt;Node18</title>
<path fill="none" stroke="midnightblue" d="M666.67,-370.17C708.07,-361.29 777.42,-346.33 837,-333 842.34,-331.81 847.93,-330.54 853.48,-329.27"/>
<polygon fill="midnightblue" stroke="midnightblue" points="854.41,-332.65 863.37,-327.01 852.84,-325.83 854.41,-332.65"/>
</g>
<!-- Node37&#45;&gt;Node19 -->
<g id="edge54" class="edge">
<title>Node37&#45;&gt;Node19</title>
<path fill="none" stroke="midnightblue" d="M593.41,-370.42C590.23,-369.89 587.07,-369.41 584,-369 528.46,-361.61 123.62,-369.38 81,-333 63.07,-317.7 60.24,-289.05 60.56,-270.13"/>
<polygon fill="midnightblue" stroke="midnightblue" points="64.07,-270.2 61.05,-260.04 57.07,-269.86 64.07,-270.2"/>
</g>
<!-- Node37&#45;&gt;Node33 -->
<g id="edge55" class="edge">
<title>Node37&#45;&gt;Node33</title>
<path fill="none" stroke="midnightblue" d="M651.35,-369.48C672.94,-360.85 706.97,-347.26 734.46,-336.29"/>
<polygon fill="midnightblue" stroke="midnightblue" points="735.89,-339.48 743.88,-332.52 733.3,-332.98 735.89,-339.48"/>
</g>
<!-- Node37&#45;&gt;Node34 -->
<g id="edge56" class="edge">
<title>Node37&#45;&gt;Node34</title>
<path fill="none" stroke="midnightblue" d="M616.1,-369.48C602.72,-361.27 582,-348.56 564.6,-337.88"/>
<polygon fill="midnightblue" stroke="midnightblue" points="566.22,-334.77 555.86,-332.52 562.56,-340.74 566.22,-334.77"/>
</g>
<!-- Node37&#45;&gt;Node35 -->
<g id="edge61" class="edge">
<title>Node37&#45;&gt;Node35</title>
<path fill="none" stroke="midnightblue" d="M593.4,-370.49C590.23,-369.95 587.06,-369.44 584,-369 413.02,-344.38 367.29,-362.03 197,-333 191.23,-332.02 185.19,-330.76 179.28,-329.41"/>
<polygon fill="midnightblue" stroke="midnightblue" points="180.06,-325.99 169.52,-327.05 178.42,-332.8 180.06,-325.99"/>
</g>
<!-- Node38 -->
<g id="node38" class="node">
<title>Node38</title>
<g id="a_node38"><a xlink:href="set__handle_8h.html" target="_top" xlink:title=" ">
<polygon fill="white" stroke="black" points="600.5,-308 600.5,-327 711.5,-327 711.5,-308 600.5,-308"/>
<text text-anchor="middle" x="656" y="-315" font-family="Helvetica,sans-Serif" font-size="10.00">ccf/kv/set_handle.h</text>
</a>
</g>
</g>
<!-- Node37&#45;&gt;Node38 -->
<g id="edge57" class="edge">
<title>Node37&#45;&gt;Node38</title>
<path fill="none" stroke="midnightblue" d="M633.73,-369.48C637.47,-360.9 643.36,-347.43 648.14,-336.48"/>
<polygon fill="midnightblue" stroke="midnightblue" points="651.48,-337.57 652.28,-327.01 645.07,-334.77 651.48,-337.57"/>
</g>
<!-- Node38&#45;&gt;Node24 -->
<g id="edge60" class="edge">
<title>Node38&#45;&gt;Node24</title>
<path fill="none" stroke="midnightblue" d="M622.8,-307.94C583.66,-297.84 517.72,-280.83 468.44,-268.12"/>
<polygon fill="midnightblue" stroke="midnightblue" points="469.06,-264.67 458.51,-265.56 467.32,-271.45 469.06,-264.67"/>
</g>
<!-- Node39 -->
<g id="node39" class="node">
<title>Node39</title>
<g id="a_node39"><a xlink:href="unit_8h.html" target="_top" xlink:title=" ">
<polygon fill="white" stroke="black" points="526.5,-241 526.5,-260 603.5,-260 603.5,-241 526.5,-241"/>
<text text-anchor="middle" x="565" y="-248" font-family="Helvetica,sans-Serif" font-size="10.00">ccf/kv/unit.h</text>
</a>
</g>
</g>
<!-- Node38&#45;&gt;Node39 -->
<g id="edge58" class="edge">
<title>Node38&#45;&gt;Node39</title>
<path fill="none" stroke="midnightblue" d="M643.73,-307.73C628.85,-297.11 603.57,-279.05 585.67,-266.26"/>
<polygon fill="midnightblue" stroke="midnightblue" points="587.25,-263.09 577.08,-260.13 583.18,-268.79 587.25,-263.09"/>
</g>
<!-- Node39&#45;&gt;Node26 -->
<g id="edge59" class="edge">
<title>Node39&#45;&gt;Node26</title>
<path fill="none" stroke="midnightblue" d="M564.06,-240.73C563.17,-232.54 561.81,-219.92 560.61,-208.71"/>
<polygon fill="midnightblue" stroke="midnightblue" points="564.07,-208.16 559.52,-198.59 557.11,-208.91 564.07,-208.16"/>
</g>
<!-- Node40&#45;&gt;Node18 -->
<g id="edge63" class="edge">
<title>Node40&#45;&gt;Node18</title>
<path fill="none" stroke="midnightblue" d="M575.56,-370.38C578.41,-369.9 581.25,-369.44 584,-369 696.16,-351.13 725.34,-353.76 837,-333 842.94,-331.9 849.16,-330.62 855.29,-329.28"/>
<polygon fill="midnightblue" stroke="midnightblue" points="856.46,-332.61 865.45,-327.01 854.93,-325.78 856.46,-332.61"/>
</g>
<!-- Node40&#45;&gt;Node19 -->
<g id="edge64" class="edge">
<title>Node40&#45;&gt;Node19</title>
<path fill="none" stroke="midnightblue" d="M490.48,-370.33C487.28,-369.84 484.09,-369.4 481,-369 433.11,-362.88 80.69,-368.52 48,-333 32.18,-315.81 42.13,-287.54 51.48,-269.22"/>
<polygon fill="midnightblue" stroke="midnightblue" points="54.56,-270.88 56.31,-260.43 48.43,-267.51 54.56,-270.88"/>
</g>
<!-- Node40&#45;&gt;Node33 -->
<g id="edge65" class="edge">
<title>Node40&#45;&gt;Node33</title>
<path fill="none" stroke="midnightblue" d="M568.86,-369.42C604.53,-360.88 661.08,-347.31 719.63,-333.08"/>
<polygon fill="midnightblue" stroke="midnightblue" points="720.54,-336.46 729.43,-330.7 718.89,-329.66 720.54,-336.46"/>
</g>
<!-- Node40&#45;&gt;Node34 -->
<g id="edge66" class="edge">
<title>Node40&#45;&gt;Node34</title>
<path fill="none" stroke="midnightblue" d="M533,-369.48C533,-362.47 533,-352.19 533,-342.7"/>
<polygon fill="midnightblue" stroke="midnightblue" points="536.5,-342.52 533,-332.52 529.5,-342.52 536.5,-342.52"/>
</g>
<!-- Node40&#45;&gt;Node35 -->
<g id="edge67" class="edge">
<title>Node40&#45;&gt;Node35</title>
<path fill="none" stroke="midnightblue" d="M490.46,-370.48C487.26,-369.96 484.08,-369.46 481,-369 355.17,-350.15 322.05,-356.47 197,-333 191.52,-331.97 185.78,-330.73 180.14,-329.42"/>
<polygon fill="midnightblue" stroke="midnightblue" points="180.7,-325.96 170.15,-327.01 179.05,-332.76 180.7,-325.96"/>
</g>
<!-- Node41 -->
<g id="node41" class="node">
<title>Node41</title>
<g id="a_node41"><a xlink:href="value__handle_8h.html" target="_top" xlink:title=" ">
<polygon fill="white" stroke="black" points="342.5,-308 342.5,-327 465.5,-327 465.5,-308 342.5,-308"/>
<text text-anchor="middle" x="404" y="-315" font-family="Helvetica,sans-Serif" font-size="10.00">ccf/kv/value_handle.h</text>
</a>
</g>
</g>
<!-- Node40&#45;&gt;Node41 -->
<g id="edge68" class="edge">
<title>Node40&#45;&gt;Node41</title>
<path fill="none" stroke="midnightblue" d="M514.52,-369.48C492.87,-359.49 456.79,-342.85 431.77,-331.31"/>
<polygon fill="midnightblue" stroke="midnightblue" points="432.99,-328.02 422.45,-327.01 430.06,-334.38 432.99,-328.02"/>
</g>
<!-- Node41&#45;&gt;Node24 -->
<g id="edge70" class="edge">
<title>Node41&#45;&gt;Node24</title>
<path fill="none" stroke="midnightblue" d="M404,-307.73C404,-299.54 404,-286.92 404,-275.71"/>
<polygon fill="midnightblue" stroke="midnightblue" points="407.5,-275.59 404,-265.59 400.5,-275.59 407.5,-275.59"/>
</g>
<!-- Node41&#45;&gt;Node39 -->
<g id="edge69" class="edge">
<title>Node41&#45;&gt;Node39</title>
<path fill="none" stroke="midnightblue" d="M425.38,-307.87C453.36,-296.57 502.59,-276.7 534.49,-263.82"/>
<polygon fill="midnightblue" stroke="midnightblue" points="535.83,-267.05 543.79,-260.06 533.21,-260.56 535.83,-267.05"/>
</g>
</g>
</svg>
        <g id="navigator" transform="translate(0 0)" fill="#404254">
                <rect fill="#f2f5e9" fill-opacity="0.5" stroke="#606060" stroke-width=".5" x="0" y="0" width="60" height="60"/>
                <use id="zoomplus" xlink:href="#zoomPlus" x="17" y="9" onmousedown="handleZoom(evt,'in')"/>
                <use id="zoomminus" xlink:href="#zoomMin" x="42" y="9" onmousedown="handleZoom(evt,'out')"/>
                <use id="reset" xlink:href="#resetDef" x="30" y="36" onmousedown="handleReset()"/>
                <g id="arrowUp" xlink:href="#dirArrow" transform="translate(30 24)" onmousedown="handlePan(0,-1)">
                  <use xlink:href="#rim" fill="#404040">
                        <set attributeName="fill" to="#808080" begin="arrowUp.mouseover" end="arrowUp.mouseout"/>
                  </use>
                  <path fill="none" stroke="white" stroke-width="1.5" d="M0,-3.0v7 M-2.5,-0.5L0,-3.0L2.5,-0.5"/>
                </g>
                <g id="arrowRight" xlink:href="#dirArrow" transform="rotate(90) translate(36 -43)" onmousedown="handlePan(1,0)">
                  <use xlink:href="#rim" fill="#404040">
                        <set attributeName="fill" to="#808080" begin="arrowRight.mouseover" end="arrowRight.mouseout"/>
                  </use>
                  <path fill="none" stroke="white" stroke-width="1.5" d="M0,-3.0v7 M-2.5,-0.5L0,-3.0L2.5,-0.5"/>
                </g>
                <g id="arrowDown" xlink:href="#dirArrow" transform="rotate(180) translate(-30 -48)" onmousedown="handlePan(0,1)">
                  <use xlink:href="#rim" fill="#404040">
                        <set attributeName="fill" to="#808080" begin="arrowDown.mouseover" end="arrowDown.mouseout"/>
                  </use>
                  <path fill="none" stroke="white" stroke-width="1.5" d="M0,-3.0v7 M-2.5,-0.5L0,-3.0L2.5,-0.5"/>
                </g>
                <g id="arrowLeft" xlink:href="#dirArrow" transform="rotate(270) translate(-36 17)" onmousedown="handlePan(-1,0)">
                  <use xlink:href="#rim" fill="#404040">
                        <set attributeName="fill" to="#808080" begin="arrowLeft.mouseover" end="arrowLeft.mouseout"/>
                  </use>
                  <path fill="none" stroke="white" stroke-width="1.5" d="M0,-3.0v7 M-2.5,-0.5L0,-3.0L2.5,-0.5"/>
                </g>
        </g>
        <svg viewBox="0 0 15 15" width="100%" height="30px" preserveAspectRatio="xMaxYMin meet">
         <g id="arrow_out" transform="scale(0.3 0.3)">
          <a xlink:href="sha256__hash_8h__incl_org.svg" target="_base">
           <rect id="button" ry="5" rx="5" y="6" x="6" height="38" width="38"
                fill="#f2f5e9" fill-opacity="0.5" stroke="#606060" stroke-width="1.0"/>
           <path id="arrow"
             d="M 11.500037,31.436501 C 11.940474,20.09759 22.043105,11.32322 32.158766,21.979434 L 37.068811,17.246167 C 37.068811,17.246167 37.088388,32 37.088388,32 L 22.160133,31.978069 C 22.160133,31.978069 26.997745,27.140456 26.997745,27.140456 C 18.528582,18.264221 13.291696,25.230495 11.500037,31.436501 z"
             style="fill:#404040;"/>
          </a>
         </g>
        </svg>
</svg>
