<?xml version="1.0" encoding="UTF-8" standalone="no"?>
<!DOCTYPE svg PUBLIC "-//W3C//DTD SVG 1.1//EN"
 "http://www.w3.org/Graphics/SVG/1.1/DTD/svg11.dtd">
<!-- Generated by graphviz version 2.43.0 (0)
 -->
<!-- Title: src/host/snapshots.h Pages: 1 -->
<!--zoomable 319 -->
<svg id="main" version="1.1" xmlns="http://www.w3.org/2000/svg" xmlns:xlink="http://www.w3.org/1999/xlink" xml:space="preserve" onload="init(evt)">
<style type="text/css"><![CDATA[
.edge:hover path { stroke: red; }
.edge:hover polygon { stroke: red; fill: red; }
]]></style>
<script type="text/javascript"><![CDATA[
var edges = document.getElementsByTagName('g');
if (edges && edges.length) {
  for (var i=0;i<edges.length;i++) {
    if (edges[i].id.substr(0,4)=='edge') {
      edges[i].setAttribute('class','edge');
    }
  }
}
]]></script>
        <defs>
                <circle id="rim" cx="0" cy="0" r="7"/>
                <circle id="rim2" cx="0" cy="0" r="3.5"/>
                <g id="zoomPlus">
                        <use xlink:href="#rim" fill="#404040">
                                <set attributeName="fill" to="#808080" begin="zoomplus.mouseover" end="zoomplus.mouseout"/>
                        </use>
                        <path d="M-4,0h8M0,-4v8" fill="none" stroke="white" stroke-width="1.5" pointer-events="none"/>
                </g>
                <g id="zoomMin">
                        <use xlink:href="#rim" fill="#404040">
                                <set attributeName="fill" to="#808080" begin="zoomminus.mouseover" end="zoomminus.mouseout"/>
                        </use>
                        <path d="M-4,0h8" fill="none" stroke="white" stroke-width="1.5" pointer-events="none"/>
                </g>
                <g id="dirArrow">
                        <path fill="none" stroke="white" stroke-width="1.5" d="M0,-3.0v7 M-2.5,-0.5L0,-3.0L2.5,-0.5"/>
                </g>
               <g id="resetDef">
                       <use xlink:href="#rim2" fill="#404040">
                               <set attributeName="fill" to="#808080" begin="reset.mouseover" end="reset.mouseout"/>
                       </use>
               </g>
        </defs>

<script type="text/javascript">
var viewWidth = 1728;
var viewHeight = 319;
var sectionId = 'dynsection-0';
</script>
<script xlink:href="svgpan.js"/>
<svg id="graph" class="graph">
<g id="viewport">
<title>src/host/snapshots.h</title>
<polygon fill="white" stroke="transparent" points="-4,4 -4,-315 1724.19,-315 1724.19,4 -4,4"/>
<!-- Node1 -->
<g id="node1" class="node">
<title>Node1</title>
<g id="a_node1"><a xlink:title=" ">
<polygon fill="#bfbfbf" stroke="black" points="1232.95,-291.5 1232.95,-310.5 1348.95,-310.5 1348.95,-291.5 1232.95,-291.5"/>
<text text-anchor="middle" x="1290.95" y="-298.5" font-family="Helvetica,sans-Serif" font-size="10.00">src/host/snapshots.h</text>
</a>
</g>
</g>
<!-- Node2 -->
<g id="node2" class="node">
<title>Node2</title>
<g id="a_node2"><a xlink:href="nonstd_8h.html" target="_top" xlink:title=" ">
<polygon fill="white" stroke="black" points="464.95,-56.5 464.95,-75.5 554.95,-75.5 554.95,-56.5 464.95,-56.5"/>
<text text-anchor="middle" x="509.95" y="-63.5" font-family="Helvetica,sans-Serif" font-size="10.00">ccf/ds/nonstd.h</text>
</a>
</g>
</g>
<!-- Node1&#45;&gt;Node2 -->
<g id="edge1" class="edge">
<title>Node1&#45;&gt;Node2</title>
<path fill="none" stroke="midnightblue" d="M1232.76,-300.22C1096.48,-300.03 760.25,-295.36 655.95,-255 573.61,-223.14 538.48,-211.44 499.95,-132 492.87,-117.41 496.73,-99 501.56,-85.5"/>
<polygon fill="midnightblue" stroke="midnightblue" points="504.94,-86.48 505.46,-75.9 498.46,-83.85 504.94,-86.48"/>
</g>
<!-- Node10 -->
<g id="node10" class="node">
<title>Node10</title>
<g id="a_node10"><a xlink:href="ledger__enclave__types_8h.html" target="_top" xlink:title=" ">
<polygon fill="white" stroke="black" points="665.45,-224.5 665.45,-254.5 810.45,-254.5 810.45,-224.5 665.45,-224.5"/>
<text text-anchor="start" x="673.45" y="-242.5" font-family="Helvetica,sans-Serif" font-size="10.00">consensus/ledger_enclave</text>
<text text-anchor="middle" x="737.95" y="-231.5" font-family="Helvetica,sans-Serif" font-size="10.00">_types.h</text>
</a>
</g>
</g>
<!-- Node1&#45;&gt;Node10 -->
<g id="edge9" class="edge">
<title>Node1&#45;&gt;Node10</title>
<path fill="none" stroke="midnightblue" d="M1232.81,-293.74C1134.16,-283.13 933.68,-261.56 820.51,-249.38"/>
<polygon fill="midnightblue" stroke="midnightblue" points="820.82,-245.9 810.51,-248.31 820.07,-252.86 820.82,-245.9"/>
</g>
<!-- Node25 -->
<g id="node25" class="node">
<title>Node25</title>
<g id="a_node25"><a xlink:title=" ">
<polygon fill="white" stroke="#bfbfbf" points="840.95,-112.5 840.95,-131.5 896.95,-131.5 896.95,-112.5 840.95,-112.5"/>
<text text-anchor="middle" x="868.95" y="-119.5" font-family="Helvetica,sans-Serif" font-size="10.00">optional</text>
</a>
</g>
</g>
<!-- Node1&#45;&gt;Node25 -->
<g id="edge65" class="edge">
<title>Node1&#45;&gt;Node25</title>
<path fill="none" stroke="midnightblue" d="M1248.96,-291.47C1182.39,-276.83 1049.87,-243.05 948.95,-188 924.56,-174.69 900.33,-153.62 885.04,-139.1"/>
<polygon fill="midnightblue" stroke="midnightblue" points="887.13,-136.25 877.52,-131.79 882.25,-141.27 887.13,-136.25"/>
</g>
<!-- Node27 -->
<g id="node27" class="node">
<title>Node27</title>
<g id="a_node27"><a xlink:href="time__bound__logger_8h.html" target="_top" xlink:title=" ">
<polygon fill="white" stroke="black" points="1187.45,-230 1187.45,-249 1306.45,-249 1306.45,-230 1187.45,-230"/>
<text text-anchor="middle" x="1246.95" y="-237" font-family="Helvetica,sans-Serif" font-size="10.00">time_bound_logger.h</text>
</a>
</g>
</g>
<!-- Node1&#45;&gt;Node27 -->
<g id="edge40" class="edge">
<title>Node1&#45;&gt;Node27</title>
<path fill="none" stroke="midnightblue" d="M1284.65,-291.48C1278.05,-282.55 1267.51,-268.31 1259.26,-257.14"/>
<polygon fill="midnightblue" stroke="midnightblue" points="1262,-254.97 1253.24,-249.01 1256.37,-259.13 1262,-254.97"/>
</g>
<!-- Node37 -->
<g id="node37" class="node">
<title>Node37</title>
<g id="a_node37"><a xlink:title=" ">
<polygon fill="white" stroke="#bfbfbf" points="1646.95,-112.5 1646.95,-131.5 1706.95,-131.5 1706.95,-112.5 1646.95,-112.5"/>
<text text-anchor="middle" x="1676.95" y="-119.5" font-family="Helvetica,sans-Serif" font-size="10.00">iostream</text>
</a>
</g>
</g>
<!-- Node1&#45;&gt;Node37 -->
<g id="edge64" class="edge">
<title>Node1&#45;&gt;Node37</title>
<path fill="none" stroke="midnightblue" d="M1295.93,-291.32C1305.4,-275.58 1327.53,-242.26 1354.95,-224 1402.05,-192.64 1561.4,-151.1 1636.79,-132.6"/>
<polygon fill="midnightblue" stroke="midnightblue" points="1637.96,-135.92 1646.85,-130.15 1636.3,-129.12 1637.96,-135.92"/>
</g>
<!-- Node41 -->
<g id="node41" class="node">
<title>Node41</title>
<g id="a_node41"><a xlink:title=" ">
<polygon fill="white" stroke="#bfbfbf" points="1363.45,-230 1363.45,-249 1424.45,-249 1424.45,-230 1363.45,-230"/>
<text text-anchor="middle" x="1393.95" y="-237" font-family="Helvetica,sans-Serif" font-size="10.00">charconv</text>
</a>
</g>
</g>
<!-- Node1&#45;&gt;Node41 -->
<g id="edge61" class="edge">
<title>Node1&#45;&gt;Node41</title>
<path fill="none" stroke="midnightblue" d="M1305.71,-291.48C1322.61,-281.71 1350.53,-265.58 1370.44,-254.08"/>
<polygon fill="midnightblue" stroke="midnightblue" points="1372.31,-257.04 1379.22,-249.01 1368.81,-250.98 1372.31,-257.04"/>
</g>
<!-- Node42 -->
<g id="node42" class="node">
<title>Node42</title>
<g id="a_node42"><a xlink:title=" ">
<polygon fill="white" stroke="#bfbfbf" points="1442.95,-230 1442.95,-249 1510.95,-249 1510.95,-230 1442.95,-230"/>
<text text-anchor="middle" x="1476.95" y="-237" font-family="Helvetica,sans-Serif" font-size="10.00">filesystem</text>
</a>
</g>
</g>
<!-- Node1&#45;&gt;Node42 -->
<g id="edge62" class="edge">
<title>Node1&#45;&gt;Node42</title>
<path fill="none" stroke="midnightblue" d="M1318.68,-291.46C1347.53,-282.53 1393.99,-268.02 1433.95,-255 1436.69,-254.11 1439.52,-253.17 1442.37,-252.23"/>
<polygon fill="midnightblue" stroke="midnightblue" points="1443.59,-255.51 1451.97,-249.02 1441.37,-248.87 1443.59,-255.51"/>
</g>
<!-- Node43 -->
<g id="node43" class="node">
<title>Node43</title>
<g id="a_node43"><a xlink:title=" ">
<polygon fill="white" stroke="#bfbfbf" points="1529.45,-230 1529.45,-249 1584.45,-249 1584.45,-230 1529.45,-230"/>
<text text-anchor="middle" x="1556.95" y="-237" font-family="Helvetica,sans-Serif" font-size="10.00">fstream</text>
</a>
</g>
</g>
<!-- Node1&#45;&gt;Node43 -->
<g id="edge63" class="edge">
<title>Node1&#45;&gt;Node43</title>
<path fill="none" stroke="midnightblue" d="M1349.05,-291.54C1395.75,-284.04 1462.77,-271.68 1519.95,-255 1522.38,-254.29 1524.88,-253.49 1527.37,-252.63"/>
<polygon fill="midnightblue" stroke="midnightblue" points="1528.65,-255.89 1536.82,-249.14 1526.23,-249.32 1528.65,-255.89"/>
</g>
<!-- Node3 -->
<g id="node3" class="node">
<title>Node3</title>
<g id="a_node3"><a xlink:title=" ">
<polygon fill="white" stroke="#bfbfbf" points="497.95,-0.5 497.95,-19.5 561.95,-19.5 561.95,-0.5 497.95,-0.5"/>
<text text-anchor="middle" x="529.95" y="-7.5" font-family="Helvetica,sans-Serif" font-size="10.00">algorithm</text>
</a>
</g>
</g>
<!-- Node2&#45;&gt;Node3 -->
<g id="edge2" class="edge">
<title>Node2&#45;&gt;Node3</title>
<path fill="none" stroke="midnightblue" d="M513.25,-56.08C515.93,-48.85 519.8,-38.41 523.14,-29.4"/>
<polygon fill="midnightblue" stroke="midnightblue" points="526.52,-30.34 526.71,-19.75 519.95,-27.91 526.52,-30.34"/>
</g>
<!-- Node4 -->
<g id="node4" class="node">
<title>Node4</title>
<g id="a_node4"><a xlink:title=" ">
<polygon fill="white" stroke="#bfbfbf" points="212.95,-0.5 212.95,-19.5 254.95,-19.5 254.95,-0.5 212.95,-0.5"/>
<text text-anchor="middle" x="233.95" y="-7.5" font-family="Helvetica,sans-Serif" font-size="10.00">array</text>
</a>
</g>
</g>
<!-- Node2&#45;&gt;Node4 -->
<g id="edge3" class="edge">
<title>Node2&#45;&gt;Node4</title>
<path fill="none" stroke="midnightblue" d="M464.75,-58.27C417.29,-50.86 340.36,-37.89 265.28,-20.11"/>
<polygon fill="midnightblue" stroke="midnightblue" points="265.72,-16.61 255.18,-17.68 264.08,-23.42 265.72,-16.61"/>
</g>
<!-- Node5 -->
<g id="node5" class="node">
<title>Node5</title>
<g id="a_node5"><a xlink:title=" ">
<polygon fill="white" stroke="#bfbfbf" points="580.45,-0.5 580.45,-19.5 629.45,-19.5 629.45,-0.5 580.45,-0.5"/>
<text text-anchor="middle" x="604.95" y="-7.5" font-family="Helvetica,sans-Serif" font-size="10.00">cctype</text>
</a>
</g>
</g>
<!-- Node2&#45;&gt;Node5 -->
<g id="edge4" class="edge">
<title>Node2&#45;&gt;Node5</title>
<path fill="none" stroke="midnightblue" d="M525.21,-56.32C540.17,-47.82 563.2,-34.73 580.68,-24.8"/>
<polygon fill="midnightblue" stroke="midnightblue" points="582.76,-27.64 589.72,-19.65 579.3,-21.55 582.76,-27.64"/>
</g>
<!-- Node6 -->
<g id="node6" class="node">
<title>Node6</title>
<g id="a_node6"><a xlink:title=" ">
<polygon fill="white" stroke="#bfbfbf" points="902.95,-0.5 902.95,-19.5 946.95,-19.5 946.95,-0.5 902.95,-0.5"/>
<text text-anchor="middle" x="924.95" y="-7.5" font-family="Helvetica,sans-Serif" font-size="10.00">string</text>
</a>
</g>
</g>
<!-- Node2&#45;&gt;Node6 -->
<g id="edge5" class="edge">
<title>Node2&#45;&gt;Node6</title>
<path fill="none" stroke="midnightblue" d="M555.04,-60.66C638.29,-52.51 814.08,-34.56 892.72,-19.89"/>
<polygon fill="midnightblue" stroke="midnightblue" points="893.57,-23.29 902.71,-17.94 892.22,-16.42 893.57,-23.29"/>
</g>
<!-- Node7 -->
<g id="node7" class="node">
<title>Node7</title>
<g id="a_node7"><a xlink:title=" ">
<polygon fill="white" stroke="#bfbfbf" points="341.45,-0.5 341.45,-19.5 414.45,-19.5 414.45,-0.5 341.45,-0.5"/>
<text text-anchor="middle" x="377.95" y="-7.5" font-family="Helvetica,sans-Serif" font-size="10.00">string_view</text>
</a>
</g>
</g>
<!-- Node2&#45;&gt;Node7 -->
<g id="edge6" class="edge">
<title>Node2&#45;&gt;Node7</title>
<path fill="none" stroke="midnightblue" d="M489.03,-56.44C467.21,-47.52 432.8,-33.44 408.06,-23.32"/>
<polygon fill="midnightblue" stroke="midnightblue" points="409.35,-20.06 398.77,-19.52 406.7,-26.54 409.35,-20.06"/>
</g>
<!-- Node8 -->
<g id="node8" class="node">
<title>Node8</title>
<g id="a_node8"><a xlink:title=" ">
<polygon fill="white" stroke="#bfbfbf" points="664.45,-0.5 664.45,-19.5 733.45,-19.5 733.45,-0.5 664.45,-0.5"/>
<text text-anchor="middle" x="698.95" y="-7.5" font-family="Helvetica,sans-Serif" font-size="10.00">type_traits</text>
</a>
</g>
</g>
<!-- Node2&#45;&gt;Node8 -->
<g id="edge7" class="edge">
<title>Node2&#45;&gt;Node8</title>
<path fill="none" stroke="midnightblue" d="M539.9,-56.44C572.11,-47.24 623.48,-32.56 659.09,-22.39"/>
<polygon fill="midnightblue" stroke="midnightblue" points="660.49,-25.63 669.14,-19.52 658.57,-18.9 660.49,-25.63"/>
</g>
<!-- Node9 -->
<g id="node9" class="node">
<title>Node9</title>
<g id="a_node9"><a xlink:title=" ">
<polygon fill="white" stroke="#bfbfbf" points="432.45,-0.5 432.45,-19.5 479.45,-19.5 479.45,-0.5 432.45,-0.5"/>
<text text-anchor="middle" x="455.95" y="-7.5" font-family="Helvetica,sans-Serif" font-size="10.00">vector</text>
</a>
</g>
</g>
<!-- Node2&#45;&gt;Node9 -->
<g id="edge8" class="edge">
<title>Node2&#45;&gt;Node9</title>
<path fill="none" stroke="midnightblue" d="M501.03,-56.08C493.17,-48.22 481.52,-36.57 472.03,-27.08"/>
<polygon fill="midnightblue" stroke="midnightblue" points="474.25,-24.35 464.7,-19.75 469.3,-29.3 474.25,-24.35"/>
</g>
<!-- Node11 -->
<g id="node11" class="node">
<title>Node11</title>
<g id="a_node11"><a xlink:href="ring__buffer__types_8h.html" target="_top" xlink:title=" ">
<polygon fill="white" stroke="black" points="614.45,-168.5 614.45,-187.5 739.45,-187.5 739.45,-168.5 614.45,-168.5"/>
<text text-anchor="middle" x="676.95" y="-175.5" font-family="Helvetica,sans-Serif" font-size="10.00">ds/ring_buffer_types.h</text>
</a>
</g>
</g>
<!-- Node10&#45;&gt;Node11 -->
<g id="edge10" class="edge">
<title>Node10&#45;&gt;Node11</title>
<path fill="none" stroke="midnightblue" d="M723.49,-224.4C714.36,-215.49 702.53,-203.95 693.09,-194.74"/>
<polygon fill="midnightblue" stroke="midnightblue" points="695.43,-192.13 685.83,-187.66 690.54,-197.15 695.43,-192.13"/>
</g>
<!-- Node11&#45;&gt;Node2 -->
<g id="edge21" class="edge">
<title>Node11&#45;&gt;Node2</title>
<path fill="none" stroke="midnightblue" d="M672.15,-168.2C664.22,-154.42 647.15,-127.71 625.95,-112 605.09,-96.54 578.24,-85.68 555.63,-78.5"/>
<polygon fill="midnightblue" stroke="midnightblue" points="556.49,-75.1 545.9,-75.56 554.46,-81.8 556.49,-75.1"/>
</g>
<!-- Node11&#45;&gt;Node6 -->
<g id="edge38" class="edge">
<title>Node11&#45;&gt;Node6</title>
<path fill="none" stroke="midnightblue" d="M699.1,-168.42C736.37,-153.33 812.91,-119.48 867.95,-76 885.53,-62.11 901.99,-42.31 912.66,-28.22"/>
<polygon fill="midnightblue" stroke="midnightblue" points="915.67,-30.04 918.79,-19.91 910.04,-25.88 915.67,-30.04"/>
</g>
<!-- Node11&#45;&gt;Node9 -->
<g id="edge39" class="edge">
<title>Node11&#45;&gt;Node9</title>
<path fill="none" stroke="midnightblue" d="M614.38,-171.17C578.56,-165.47 534.1,-154.22 499.95,-132 473.42,-114.74 466.3,-105.91 455.95,-76 450.81,-61.15 451.26,-43.23 452.74,-29.97"/>
<polygon fill="midnightblue" stroke="midnightblue" points="456.26,-30.1 454.19,-19.71 449.33,-29.12 456.26,-30.1"/>
</g>
<!-- Node12 -->
<g id="node12" class="node">
<title>Node12</title>
<g id="a_node12"><a xlink:href="include_2ccf_2ds_2hash_8h.html" target="_top" xlink:title=" ">
<polygon fill="white" stroke="black" points="282.95,-112.5 282.95,-131.5 362.95,-131.5 362.95,-112.5 282.95,-112.5"/>
<text text-anchor="middle" x="322.95" y="-119.5" font-family="Helvetica,sans-Serif" font-size="10.00">ccf/ds/hash.h</text>
</a>
</g>
</g>
<!-- Node11&#45;&gt;Node12 -->
<g id="edge11" class="edge">
<title>Node11&#45;&gt;Node12</title>
<path fill="none" stroke="midnightblue" d="M620.86,-168.44C552.66,-158.04 438.6,-140.64 373.18,-130.66"/>
<polygon fill="midnightblue" stroke="midnightblue" points="373.52,-127.17 363.11,-129.13 372.46,-134.09 373.52,-127.17"/>
</g>
<!-- Node17 -->
<g id="node17" class="node">
<title>Node17</title>
<g id="a_node17"><a xlink:href="serializer_8h.html" target="_top" xlink:title=" ">
<polygon fill="white" stroke="black" points="672.95,-112.5 672.95,-131.5 742.95,-131.5 742.95,-112.5 672.95,-112.5"/>
<text text-anchor="middle" x="707.95" y="-119.5" font-family="Helvetica,sans-Serif" font-size="10.00">serializer.h</text>
</a>
</g>
</g>
<!-- Node11&#45;&gt;Node17 -->
<g id="edge22" class="edge">
<title>Node11&#45;&gt;Node17</title>
<path fill="none" stroke="midnightblue" d="M682.07,-168.08C686.36,-160.61 692.61,-149.72 697.89,-140.52"/>
<polygon fill="midnightblue" stroke="midnightblue" points="700.98,-142.17 702.93,-131.75 694.91,-138.68 700.98,-142.17"/>
</g>
<!-- Node23 -->
<g id="node23" class="node">
<title>Node23</title>
<g id="a_node23"><a xlink:title=" ">
<polygon fill="white" stroke="#bfbfbf" points="508.95,-112.5 508.95,-131.5 558.95,-131.5 558.95,-112.5 508.95,-112.5"/>
<text text-anchor="middle" x="533.95" y="-119.5" font-family="Helvetica,sans-Serif" font-size="10.00">atomic</text>
</a>
</g>
</g>
<!-- Node11&#45;&gt;Node23 -->
<g id="edge34" class="edge">
<title>Node11&#45;&gt;Node23</title>
<path fill="none" stroke="midnightblue" d="M654.29,-168.44C630.55,-159.48 593.04,-145.31 566.21,-135.18"/>
<polygon fill="midnightblue" stroke="midnightblue" points="567.09,-131.77 556.5,-131.52 564.62,-138.32 567.09,-131.77"/>
</g>
<!-- Node24 -->
<g id="node24" class="node">
<title>Node24</title>
<g id="a_node24"><a xlink:title=" ">
<polygon fill="white" stroke="#bfbfbf" points="1425.45,-56.5 1425.45,-75.5 1504.45,-75.5 1504.45,-56.5 1425.45,-56.5"/>
<text text-anchor="middle" x="1464.95" y="-63.5" font-family="Helvetica,sans-Serif" font-size="10.00">fmt/format.h</text>
</a>
</g>
</g>
<!-- Node11&#45;&gt;Node24 -->
<g id="edge35" class="edge">
<title>Node11&#45;&gt;Node24</title>
<path fill="none" stroke="midnightblue" d="M739.73,-177.62C824.91,-176.85 981.03,-169.73 1107.95,-132 1126.62,-126.45 1128.38,-117.89 1146.95,-112 1195.81,-96.5 1338.5,-80.05 1415.06,-72.01"/>
<polygon fill="midnightblue" stroke="midnightblue" points="1415.82,-75.45 1425.4,-70.94 1415.09,-68.49 1415.82,-75.45"/>
</g>
<!-- Node11&#45;&gt;Node25 -->
<g id="edge36" class="edge">
<title>Node11&#45;&gt;Node25</title>
<path fill="none" stroke="midnightblue" d="M707.37,-168.44C740.91,-159.01 794.9,-143.83 831.14,-133.63"/>
<polygon fill="midnightblue" stroke="midnightblue" points="832.18,-136.98 840.86,-130.9 830.28,-130.24 832.18,-136.98"/>
</g>
<!-- Node26 -->
<g id="node26" class="node">
<title>Node26</title>
<g id="a_node26"><a xlink:title=" ">
<polygon fill="white" stroke="#bfbfbf" points="576.95,-112.5 576.95,-131.5 616.95,-131.5 616.95,-112.5 576.95,-112.5"/>
<text text-anchor="middle" x="596.95" y="-119.5" font-family="Helvetica,sans-Serif" font-size="10.00">span</text>
</a>
</g>
</g>
<!-- Node11&#45;&gt;Node26 -->
<g id="edge37" class="edge">
<title>Node11&#45;&gt;Node26</title>
<path fill="none" stroke="midnightblue" d="M664.1,-168.32C651.73,-159.98 632.82,-147.21 618.21,-137.35"/>
<polygon fill="midnightblue" stroke="midnightblue" points="620.02,-134.35 609.77,-131.65 616.1,-140.15 620.02,-134.35"/>
</g>
<!-- Node12&#45;&gt;Node4 -->
<g id="edge16" class="edge">
<title>Node12&#45;&gt;Node4</title>
<path fill="none" stroke="midnightblue" d="M282.84,-121.16C208.99,-120.5 56.03,-114.41 22.95,-76 -15.98,-30.79 -30,-77 202.95,-20 203.05,-19.98 203.15,-19.95 203.25,-19.93"/>
<polygon fill="midnightblue" stroke="midnightblue" points="203.9,-23.38 212.67,-17.44 202.11,-16.61 203.9,-23.38"/>
</g>
<!-- Node12&#45;&gt;Node7 -->
<g id="edge19" class="edge">
<title>Node12&#45;&gt;Node7</title>
<path fill="none" stroke="midnightblue" d="M327.27,-112.37C336.26,-94.38 357.17,-52.55 369.14,-28.63"/>
<polygon fill="midnightblue" stroke="midnightblue" points="372.31,-30.1 373.65,-19.59 366.05,-26.97 372.31,-30.1"/>
</g>
<!-- Node12&#45;&gt;Node9 -->
<g id="edge20" class="edge">
<title>Node12&#45;&gt;Node9</title>
<path fill="none" stroke="midnightblue" d="M333.39,-112.37C355.92,-93.73 409.36,-49.53 437.65,-26.13"/>
<polygon fill="midnightblue" stroke="midnightblue" points="440.09,-28.66 445.56,-19.59 435.63,-23.27 440.09,-28.66"/>
</g>
<!-- Node13 -->
<g id="node13" class="node">
<title>Node13</title>
<g id="a_node13"><a xlink:href="siphash_8h.html" target="_top" xlink:title=" ">
<polygon fill="white" stroke="black" points="199.45,-56.5 199.45,-75.5 294.45,-75.5 294.45,-56.5 199.45,-56.5"/>
<text text-anchor="middle" x="246.95" y="-63.5" font-family="Helvetica,sans-Serif" font-size="10.00">ccf/ds/siphash.h</text>
</a>
</g>
</g>
<!-- Node12&#45;&gt;Node13 -->
<g id="edge12" class="edge">
<title>Node12&#45;&gt;Node13</title>
<path fill="none" stroke="midnightblue" d="M310.74,-112.32C299.17,-104.11 281.57,-91.6 267.79,-81.81"/>
<polygon fill="midnightblue" stroke="midnightblue" points="269.56,-78.77 259.38,-75.83 265.51,-84.48 269.56,-78.77"/>
</g>
<!-- Node15 -->
<g id="node15" class="node">
<title>Node15</title>
<g id="a_node15"><a xlink:title=" ">
<polygon fill="white" stroke="#bfbfbf" points="272.95,-0.5 272.95,-19.5 322.95,-19.5 322.95,-0.5 272.95,-0.5"/>
<text text-anchor="middle" x="297.95" y="-7.5" font-family="Helvetica,sans-Serif" font-size="10.00">cstdint</text>
</a>
</g>
</g>
<!-- Node12&#45;&gt;Node15 -->
<g id="edge17" class="edge">
<title>Node12&#45;&gt;Node15</title>
<path fill="none" stroke="midnightblue" d="M320.99,-112.37C316.95,-94.62 307.65,-53.67 302.18,-29.6"/>
<polygon fill="midnightblue" stroke="midnightblue" points="305.53,-28.57 299.9,-19.59 298.71,-30.12 305.53,-28.57"/>
</g>
<!-- Node16 -->
<g id="node16" class="node">
<title>Node16</title>
<g id="a_node16"><a xlink:title=" ">
<polygon fill="white" stroke="#bfbfbf" points="32.45,-56.5 32.45,-75.5 181.45,-75.5 181.45,-56.5 32.45,-56.5"/>
<text text-anchor="middle" x="106.95" y="-63.5" font-family="Helvetica,sans-Serif" font-size="10.00">small_vector/SmallVector.h</text>
</a>
</g>
</g>
<!-- Node12&#45;&gt;Node16 -->
<g id="edge18" class="edge">
<title>Node12&#45;&gt;Node16</title>
<path fill="none" stroke="midnightblue" d="M288.72,-112.44C251.44,-103.12 191.68,-88.18 150.94,-78"/>
<polygon fill="midnightblue" stroke="midnightblue" points="151.57,-74.55 141.02,-75.52 149.87,-81.34 151.57,-74.55"/>
</g>
<!-- Node13&#45;&gt;Node9 -->
<g id="edge15" class="edge">
<title>Node13&#45;&gt;Node9</title>
<path fill="none" stroke="midnightblue" d="M281.06,-56.45C314.54,-48.02 367.3,-34.64 422.25,-20.15"/>
<polygon fill="midnightblue" stroke="midnightblue" points="423.39,-23.47 432.17,-17.53 421.61,-16.7 423.39,-23.47"/>
</g>
<!-- Node14 -->
<g id="node14" class="node">
<title>Node14</title>
<g id="a_node14"><a xlink:title=" ">
<polygon fill="white" stroke="#bfbfbf" points="141.45,-0.5 141.45,-19.5 194.45,-19.5 194.45,-0.5 141.45,-0.5"/>
<text text-anchor="middle" x="167.95" y="-7.5" font-family="Helvetica,sans-Serif" font-size="10.00">cstddef</text>
</a>
</g>
</g>
<!-- Node13&#45;&gt;Node14 -->
<g id="edge13" class="edge">
<title>Node13&#45;&gt;Node14</title>
<path fill="none" stroke="midnightblue" d="M234.26,-56.32C222.05,-47.98 203.37,-35.21 188.95,-25.35"/>
<polygon fill="midnightblue" stroke="midnightblue" points="190.84,-22.41 180.61,-19.65 186.89,-28.19 190.84,-22.41"/>
</g>
<!-- Node13&#45;&gt;Node15 -->
<g id="edge14" class="edge">
<title>Node13&#45;&gt;Node15</title>
<path fill="none" stroke="midnightblue" d="M255.37,-56.08C262.8,-48.22 273.8,-36.57 282.76,-27.08"/>
<polygon fill="midnightblue" stroke="midnightblue" points="285.36,-29.42 289.69,-19.75 280.27,-24.62 285.36,-29.42"/>
</g>
<!-- Node17&#45;&gt;Node2 -->
<g id="edge23" class="edge">
<title>Node17&#45;&gt;Node2</title>
<path fill="none" stroke="midnightblue" d="M676.58,-112.44C642.69,-103.2 588.55,-88.44 551.23,-78.26"/>
<polygon fill="midnightblue" stroke="midnightblue" points="551.75,-74.77 541.18,-75.52 549.9,-81.52 551.75,-74.77"/>
</g>
<!-- Node17&#45;&gt;Node8 -->
<g id="edge32" class="edge">
<title>Node17&#45;&gt;Node8</title>
<path fill="none" stroke="midnightblue" d="M716.49,-112.33C727.53,-100.01 744.51,-76.66 736.95,-56 732.89,-44.91 724.76,-34.67 717.06,-26.76"/>
<polygon fill="midnightblue" stroke="midnightblue" points="719.31,-24.07 709.66,-19.7 714.48,-29.14 719.31,-24.07"/>
</g>
<!-- Node17&#45;&gt;Node9 -->
<g id="edge33" class="edge">
<title>Node17&#45;&gt;Node9</title>
<path fill="none" stroke="midnightblue" d="M686.2,-112.38C664.6,-103.68 630.67,-89.63 601.95,-76 584.71,-67.82 581.22,-64.12 563.95,-56 538.61,-44.08 509.23,-31.95 487.52,-23.29"/>
<polygon fill="midnightblue" stroke="midnightblue" points="488.71,-19.99 478.13,-19.57 486.14,-26.5 488.71,-19.99"/>
</g>
<!-- Node18 -->
<g id="node18" class="node">
<title>Node18</title>
<g id="a_node18"><a xlink:href="serialized_8h.html" target="_top" xlink:title=" ">
<polygon fill="white" stroke="black" points="785.45,-56.5 785.45,-75.5 858.45,-75.5 858.45,-56.5 785.45,-56.5"/>
<text text-anchor="middle" x="821.95" y="-63.5" font-family="Helvetica,sans-Serif" font-size="10.00">serialized.h</text>
</a>
</g>
</g>
<!-- Node17&#45;&gt;Node18 -->
<g id="edge24" class="edge">
<title>Node17&#45;&gt;Node18</title>
<path fill="none" stroke="midnightblue" d="M726.01,-112.44C744.52,-103.68 773.53,-89.94 794.81,-79.86"/>
<polygon fill="midnightblue" stroke="midnightblue" points="796.43,-82.96 803.97,-75.52 793.44,-76.63 796.43,-82.96"/>
</g>
<!-- Node21 -->
<g id="node21" class="node">
<title>Node21</title>
<g id="a_node21"><a xlink:title=" ">
<polygon fill="white" stroke="#bfbfbf" points="610.95,-56.5 610.95,-75.5 668.95,-75.5 668.95,-56.5 610.95,-56.5"/>
<text text-anchor="middle" x="639.95" y="-63.5" font-family="Helvetica,sans-Serif" font-size="10.00">memory</text>
</a>
</g>
</g>
<!-- Node17&#45;&gt;Node21 -->
<g id="edge30" class="edge">
<title>Node17&#45;&gt;Node21</title>
<path fill="none" stroke="midnightblue" d="M697.02,-112.32C686.78,-104.18 671.23,-91.84 658.95,-82.09"/>
<polygon fill="midnightblue" stroke="midnightblue" points="661.08,-79.31 651.07,-75.83 656.73,-84.79 661.08,-79.31"/>
</g>
<!-- Node22 -->
<g id="node22" class="node">
<title>Node22</title>
<g id="a_node22"><a xlink:title=" ">
<polygon fill="white" stroke="#bfbfbf" points="687.45,-56.5 687.45,-75.5 728.45,-75.5 728.45,-56.5 687.45,-56.5"/>
<text text-anchor="middle" x="707.95" y="-63.5" font-family="Helvetica,sans-Serif" font-size="10.00">tuple</text>
</a>
</g>
</g>
<!-- Node17&#45;&gt;Node22 -->
<g id="edge31" class="edge">
<title>Node17&#45;&gt;Node22</title>
<path fill="none" stroke="midnightblue" d="M707.95,-112.08C707.95,-105.01 707.95,-94.86 707.95,-85.99"/>
<polygon fill="midnightblue" stroke="midnightblue" points="711.45,-85.75 707.95,-75.75 704.45,-85.75 711.45,-85.75"/>
</g>
<!-- Node18&#45;&gt;Node6 -->
<g id="edge28" class="edge">
<title>Node18&#45;&gt;Node6</title>
<path fill="none" stroke="midnightblue" d="M838.5,-56.32C854.94,-47.7 880.38,-34.36 899.42,-24.39"/>
<polygon fill="midnightblue" stroke="midnightblue" points="901.21,-27.4 908.44,-19.65 897.96,-21.2 901.21,-27.4"/>
</g>
<!-- Node18&#45;&gt;Node9 -->
<g id="edge29" class="edge">
<title>Node18&#45;&gt;Node9</title>
<path fill="none" stroke="midnightblue" d="M785.45,-60.69C714.73,-52.23 560.49,-33.29 489.5,-19.81"/>
<polygon fill="midnightblue" stroke="midnightblue" points="490.14,-16.37 479.65,-17.87 488.78,-23.24 490.14,-16.37"/>
</g>
<!-- Node18&#45;&gt;Node15 -->
<g id="edge25" class="edge">
<title>Node18&#45;&gt;Node15</title>
<path fill="none" stroke="midnightblue" d="M785.15,-60.97C770.2,-59.36 752.75,-57.54 736.95,-56 560.34,-38.8 511.69,-50.78 333.09,-19.91"/>
<polygon fill="midnightblue" stroke="midnightblue" points="333.55,-16.44 323.1,-18.17 332.34,-23.34 333.55,-16.44"/>
</g>
<!-- Node19 -->
<g id="node19" class="node">
<title>Node19</title>
<g id="a_node19"><a xlink:title=" ">
<polygon fill="white" stroke="#bfbfbf" points="834.95,-0.5 834.95,-19.5 884.95,-19.5 884.95,-0.5 834.95,-0.5"/>
<text text-anchor="middle" x="859.95" y="-7.5" font-family="Helvetica,sans-Serif" font-size="10.00">cstring</text>
</a>
</g>
</g>
<!-- Node18&#45;&gt;Node19 -->
<g id="edge26" class="edge">
<title>Node18&#45;&gt;Node19</title>
<path fill="none" stroke="midnightblue" d="M828.22,-56.08C833.59,-48.46 841.47,-37.26 848.03,-27.94"/>
<polygon fill="midnightblue" stroke="midnightblue" points="850.9,-29.94 853.79,-19.75 845.17,-25.91 850.9,-29.94"/>
</g>
<!-- Node20 -->
<g id="node20" class="node">
<title>Node20</title>
<g id="a_node20"><a xlink:title=" ">
<polygon fill="white" stroke="#bfbfbf" points="751.45,-0.5 751.45,-19.5 816.45,-19.5 816.45,-0.5 751.45,-0.5"/>
<text text-anchor="middle" x="783.95" y="-7.5" font-family="Helvetica,sans-Serif" font-size="10.00">stdexcept</text>
</a>
</g>
</g>
<!-- Node18&#45;&gt;Node20 -->
<g id="edge27" class="edge">
<title>Node18&#45;&gt;Node20</title>
<path fill="none" stroke="midnightblue" d="M815.68,-56.08C810.31,-48.46 802.43,-37.26 795.87,-27.94"/>
<polygon fill="midnightblue" stroke="midnightblue" points="798.73,-25.91 790.11,-19.75 793,-29.94 798.73,-25.91"/>
</g>
<!-- Node27&#45;&gt;Node6 -->
<g id="edge60" class="edge">
<title>Node27&#45;&gt;Node6</title>
<path fill="none" stroke="midnightblue" d="M1197.57,-229.99C1139.43,-217.67 1043.08,-189.68 981.95,-132 951.65,-103.42 935.83,-55.48 929.07,-29.35"/>
<polygon fill="midnightblue" stroke="midnightblue" points="932.47,-28.5 926.71,-19.6 925.66,-30.15 932.47,-28.5"/>
</g>
<!-- Node27&#45;&gt;Node24 -->
<g id="edge59" class="edge">
<title>Node27&#45;&gt;Node24</title>
<path fill="none" stroke="midnightblue" d="M1301.6,-229.98C1419.66,-211.04 1689.97,-164.54 1715.95,-132 1721.5,-125.05 1721.65,-118.82 1715.95,-112 1690.8,-81.95 1580.41,-71.94 1514.69,-68.62"/>
<polygon fill="midnightblue" stroke="midnightblue" points="1514.7,-65.12 1504.55,-68.15 1514.37,-72.11 1514.7,-65.12"/>
</g>
<!-- Node28 -->
<g id="node28" class="node">
<title>Node28</title>
<g id="a_node28"><a xlink:href="logger_8h.html" target="_top" xlink:title=" ">
<polygon fill="white" stroke="black" points="1151.45,-168.5 1151.45,-187.5 1238.45,-187.5 1238.45,-168.5 1151.45,-168.5"/>
<text text-anchor="middle" x="1194.95" y="-175.5" font-family="Helvetica,sans-Serif" font-size="10.00">ccf/ds/logger.h</text>
</a>
</g>
</g>
<!-- Node27&#45;&gt;Node28 -->
<g id="edge41" class="edge">
<title>Node27&#45;&gt;Node28</title>
<path fill="none" stroke="midnightblue" d="M1239.5,-229.98C1231.62,-220.96 1219.01,-206.52 1209.21,-195.31"/>
<polygon fill="midnightblue" stroke="midnightblue" points="1211.6,-192.74 1202.39,-187.51 1206.33,-197.34 1211.6,-192.74"/>
</g>
<!-- Node40 -->
<g id="node40" class="node">
<title>Node40</title>
<g id="a_node40"><a xlink:title=" ">
<polygon fill="white" stroke="#bfbfbf" points="1256.95,-168.5 1256.95,-187.5 1306.95,-187.5 1306.95,-168.5 1256.95,-168.5"/>
<text text-anchor="middle" x="1281.95" y="-175.5" font-family="Helvetica,sans-Serif" font-size="10.00">chrono</text>
</a>
</g>
</g>
<!-- Node27&#45;&gt;Node40 -->
<g id="edge58" class="edge">
<title>Node27&#45;&gt;Node40</title>
<path fill="none" stroke="midnightblue" d="M1251.96,-229.98C1257.11,-221.23 1265.26,-207.37 1271.77,-196.31"/>
<polygon fill="midnightblue" stroke="midnightblue" points="1274.89,-197.9 1276.94,-187.51 1268.86,-194.35 1274.89,-197.9"/>
</g>
<!-- Node28&#45;&gt;Node8 -->
<g id="edge57" class="edge">
<title>Node28&#45;&gt;Node8</title>
<path fill="none" stroke="midnightblue" d="M1151.07,-172.65C1106.96,-167.16 1037.69,-155.44 981.95,-132 925.82,-108.39 923.45,-81.06 867.95,-56 845.85,-46.02 785.56,-30.98 743.32,-21.08"/>
<polygon fill="midnightblue" stroke="midnightblue" points="744.08,-17.66 733.54,-18.8 742.49,-24.48 744.08,-17.66"/>
</g>
<!-- Node28&#45;&gt;Node24 -->
<g id="edge52" class="edge">
<title>Node28&#45;&gt;Node24</title>
<path fill="none" stroke="midnightblue" d="M1238.55,-169.48C1309.91,-157.13 1444.02,-133.74 1445.95,-132 1458.91,-120.35 1463.23,-100.4 1464.58,-85.67"/>
<polygon fill="midnightblue" stroke="midnightblue" points="1468.07,-85.82 1465.11,-75.64 1461.08,-85.44 1468.07,-85.82"/>
</g>
<!-- Node28&#45;&gt;Node25 -->
<g id="edge55" class="edge">
<title>Node28&#45;&gt;Node25</title>
<path fill="none" stroke="midnightblue" d="M1151.04,-170.79C1095.12,-162.72 995.61,-147.77 910.95,-132 909.71,-131.77 908.46,-131.53 907.19,-131.28"/>
<polygon fill="midnightblue" stroke="midnightblue" points="907.87,-127.85 897.37,-129.31 906.49,-134.71 907.87,-127.85"/>
</g>
<!-- Node29 -->
<g id="node29" class="node">
<title>Node29</title>
<g id="a_node29"><a xlink:href="enum__formatter_8h.html" target="_top" xlink:title=" ">
<polygon fill="white" stroke="black" points="1492.95,-112.5 1492.95,-131.5 1628.95,-131.5 1628.95,-112.5 1492.95,-112.5"/>
<text text-anchor="middle" x="1560.95" y="-119.5" font-family="Helvetica,sans-Serif" font-size="10.00">ccf/ds/enum_formatter.h</text>
</a>
</g>
</g>
<!-- Node28&#45;&gt;Node29 -->
<g id="edge42" class="edge">
<title>Node28&#45;&gt;Node29</title>
<path fill="none" stroke="midnightblue" d="M1238.61,-169.5C1241.77,-168.98 1244.91,-168.48 1247.95,-168 1330.19,-155.11 1424.82,-141.7 1488.31,-132.91"/>
<polygon fill="midnightblue" stroke="midnightblue" points="1488.8,-136.38 1498.23,-131.54 1487.84,-129.44 1488.8,-136.38"/>
</g>
<!-- Node30 -->
<g id="node30" class="node">
<title>Node30</title>
<g id="a_node30"><a xlink:href="thread__ids_8h.html" target="_top" xlink:title=" ">
<polygon fill="white" stroke="black" points="990.95,-112.5 990.95,-131.5 1098.95,-131.5 1098.95,-112.5 990.95,-112.5"/>
<text text-anchor="middle" x="1044.95" y="-119.5" font-family="Helvetica,sans-Serif" font-size="10.00">ccf/ds/thread_ids.h</text>
</a>
</g>
</g>
<!-- Node28&#45;&gt;Node30 -->
<g id="edge44" class="edge">
<title>Node28&#45;&gt;Node30</title>
<path fill="none" stroke="midnightblue" d="M1171.18,-168.44C1146.06,-159.4 1106.24,-145.06 1078.05,-134.92"/>
<polygon fill="midnightblue" stroke="midnightblue" points="1079.2,-131.61 1068.61,-131.52 1076.83,-138.2 1079.2,-131.61"/>
</g>
<!-- Node36 -->
<g id="node36" class="node">
<title>Node36</title>
<g id="a_node36"><a xlink:title=" ">
<polygon fill="white" stroke="#bfbfbf" points="1155.45,-112.5 1155.45,-131.5 1234.45,-131.5 1234.45,-112.5 1155.45,-112.5"/>
<text text-anchor="middle" x="1194.95" y="-119.5" font-family="Helvetica,sans-Serif" font-size="10.00">fmt/chrono.h</text>
</a>
</g>
</g>
<!-- Node28&#45;&gt;Node36 -->
<g id="edge51" class="edge">
<title>Node28&#45;&gt;Node36</title>
<path fill="none" stroke="midnightblue" d="M1194.95,-168.08C1194.95,-161.01 1194.95,-150.86 1194.95,-141.99"/>
<polygon fill="midnightblue" stroke="midnightblue" points="1198.45,-141.75 1194.95,-131.75 1191.45,-141.75 1198.45,-141.75"/>
</g>
<!-- Node28&#45;&gt;Node37 -->
<g id="edge53" class="edge">
<title>Node28&#45;&gt;Node37</title>
<path fill="none" stroke="midnightblue" d="M1238.58,-169.32C1241.75,-168.85 1244.9,-168.4 1247.95,-168 1417.35,-145.83 1464.35,-159.12 1636.87,-131.97"/>
<polygon fill="midnightblue" stroke="midnightblue" points="1637.47,-135.41 1646.8,-130.38 1636.37,-128.5 1637.47,-135.41"/>
</g>
<!-- Node38 -->
<g id="node38" class="node">
<title>Node38</title>
<g id="a_node38"><a xlink:title=" ">
<polygon fill="white" stroke="#bfbfbf" points="1252.95,-112.5 1252.95,-131.5 1362.95,-131.5 1362.95,-112.5 1252.95,-112.5"/>
<text text-anchor="middle" x="1307.95" y="-119.5" font-family="Helvetica,sans-Serif" font-size="10.00">nlohmann/json.hpp</text>
</a>
</g>
</g>
<!-- Node28&#45;&gt;Node38 -->
<g id="edge54" class="edge">
<title>Node28&#45;&gt;Node38</title>
<path fill="none" stroke="midnightblue" d="M1212.86,-168.44C1231.2,-159.68 1259.96,-145.94 1281.04,-135.86"/>
<polygon fill="midnightblue" stroke="midnightblue" points="1282.62,-138.99 1290.13,-131.52 1279.6,-132.67 1282.62,-138.99"/>
</g>
<!-- Node39 -->
<g id="node39" class="node">
<title>Node39</title>
<g id="a_node39"><a xlink:title=" ">
<polygon fill="white" stroke="#bfbfbf" points="1380.95,-112.5 1380.95,-131.5 1436.95,-131.5 1436.95,-112.5 1380.95,-112.5"/>
<text text-anchor="middle" x="1408.95" y="-119.5" font-family="Helvetica,sans-Serif" font-size="10.00">sstream</text>
</a>
</g>
</g>
<!-- Node28&#45;&gt;Node39 -->
<g id="edge56" class="edge">
<title>Node28&#45;&gt;Node39</title>
<path fill="none" stroke="midnightblue" d="M1228.86,-168.44C1267.54,-158.68 1330.63,-142.76 1370.94,-132.59"/>
<polygon fill="midnightblue" stroke="midnightblue" points="1371.83,-135.98 1380.67,-130.14 1370.11,-129.19 1371.83,-135.98"/>
</g>
<!-- Node29&#45;&gt;Node24 -->
<g id="edge43" class="edge">
<title>Node29&#45;&gt;Node24</title>
<path fill="none" stroke="midnightblue" d="M1545.53,-112.32C1530.41,-103.82 1507.13,-90.73 1489.48,-80.8"/>
<polygon fill="midnightblue" stroke="midnightblue" points="1490.77,-77.51 1480.34,-75.65 1487.34,-83.61 1490.77,-77.51"/>
</g>
<!-- Node30&#45;&gt;Node24 -->
<g id="edge45" class="edge">
<title>Node30&#45;&gt;Node24</title>
<path fill="none" stroke="midnightblue" d="M1099.14,-113.81C1103.81,-113.19 1108.46,-112.58 1112.95,-112 1220.75,-97.98 1347.16,-81.91 1415.32,-73.27"/>
<polygon fill="midnightblue" stroke="midnightblue" points="1415.87,-76.73 1425.35,-72 1414.99,-69.79 1415.87,-76.73"/>
</g>
<!-- Node31 -->
<g id="node31" class="node">
<title>Node31</title>
<g id="a_node31"><a xlink:title=" ">
<polygon fill="white" stroke="#bfbfbf" points="1112.95,-56.5 1112.95,-75.5 1198.95,-75.5 1198.95,-56.5 1112.95,-56.5"/>
<text text-anchor="middle" x="1155.95" y="-63.5" font-family="Helvetica,sans-Serif" font-size="10.00">fmt/ostream.h</text>
</a>
</g>
</g>
<!-- Node30&#45;&gt;Node31 -->
<g id="edge46" class="edge">
<title>Node30&#45;&gt;Node31</title>
<path fill="none" stroke="midnightblue" d="M1062.78,-112.32C1080.67,-103.62 1108.43,-90.12 1129,-80.11"/>
<polygon fill="midnightblue" stroke="midnightblue" points="1130.7,-83.18 1138.16,-75.65 1127.64,-76.88 1130.7,-83.18"/>
</g>
<!-- Node32 -->
<g id="node32" class="node">
<title>Node32</title>
<g id="a_node32"><a xlink:title=" ">
<polygon fill="white" stroke="#bfbfbf" points="1217.45,-56.5 1217.45,-75.5 1278.45,-75.5 1278.45,-56.5 1217.45,-56.5"/>
<text text-anchor="middle" x="1247.95" y="-63.5" font-family="Helvetica,sans-Serif" font-size="10.00">fmt/std.h</text>
</a>
</g>
</g>
<!-- Node30&#45;&gt;Node32 -->
<g id="edge47" class="edge">
<title>Node30&#45;&gt;Node32</title>
<path fill="none" stroke="midnightblue" d="M1077.12,-112.44C1112.42,-103.05 1169.16,-87.96 1207.46,-77.77"/>
<polygon fill="midnightblue" stroke="midnightblue" points="1208.5,-81.12 1217.26,-75.16 1206.7,-74.35 1208.5,-81.12"/>
</g>
<!-- Node33 -->
<g id="node33" class="node">
<title>Node33</title>
<g id="a_node33"><a xlink:title=" ">
<polygon fill="white" stroke="#bfbfbf" points="1296.95,-56.5 1296.95,-75.5 1340.95,-75.5 1340.95,-56.5 1296.95,-56.5"/>
<text text-anchor="middle" x="1318.95" y="-63.5" font-family="Helvetica,sans-Serif" font-size="10.00">limits</text>
</a>
</g>
</g>
<!-- Node30&#45;&gt;Node33 -->
<g id="edge48" class="edge">
<title>Node30&#45;&gt;Node33</title>
<path fill="none" stroke="midnightblue" d="M1099.32,-112.52C1146.56,-104.8 1216.98,-92.42 1286.82,-76.09"/>
<polygon fill="midnightblue" stroke="midnightblue" points="1287.74,-79.47 1296.67,-73.76 1286.13,-72.65 1287.74,-79.47"/>
</g>
<!-- Node34 -->
<g id="node34" class="node">
<title>Node34</title>
<g id="a_node34"><a xlink:title=" ">
<polygon fill="white" stroke="#bfbfbf" points="990.95,-56.5 990.95,-75.5 1028.95,-75.5 1028.95,-56.5 990.95,-56.5"/>
<text text-anchor="middle" x="1009.95" y="-63.5" font-family="Helvetica,sans-Serif" font-size="10.00">map</text>
</a>
</g>
</g>
<!-- Node30&#45;&gt;Node34 -->
<g id="edge49" class="edge">
<title>Node30&#45;&gt;Node34</title>
<path fill="none" stroke="midnightblue" d="M1039.17,-112.08C1034.28,-104.53 1027.12,-93.49 1021.12,-84.23"/>
<polygon fill="midnightblue" stroke="midnightblue" points="1024,-82.24 1015.62,-75.75 1018.12,-86.05 1024,-82.24"/>
</g>
<!-- Node35 -->
<g id="node35" class="node">
<title>Node35</title>
<g id="a_node35"><a xlink:title=" ">
<polygon fill="white" stroke="#bfbfbf" points="1046.95,-56.5 1046.95,-75.5 1094.95,-75.5 1094.95,-56.5 1046.95,-56.5"/>
<text text-anchor="middle" x="1070.95" y="-63.5" font-family="Helvetica,sans-Serif" font-size="10.00">thread</text>
</a>
</g>
</g>
<!-- Node30&#45;&gt;Node35 -->
<g id="edge50" class="edge">
<title>Node30&#45;&gt;Node35</title>
<path fill="none" stroke="midnightblue" d="M1049.24,-112.08C1052.8,-104.69 1057.97,-93.95 1062.37,-84.81"/>
<polygon fill="midnightblue" stroke="midnightblue" points="1065.55,-86.28 1066.74,-75.75 1059.24,-83.24 1065.55,-86.28"/>
</g>
</g>
</svg>
        <g id="navigator" transform="translate(0 0)" fill="#404254">
                <rect fill="#f2f5e9" fill-opacity="0.5" stroke="#606060" stroke-width=".5" x="0" y="0" width="60" height="60"/>
                <use id="zoomplus" xlink:href="#zoomPlus" x="17" y="9" onmousedown="handleZoom(evt,'in')"/>
                <use id="zoomminus" xlink:href="#zoomMin" x="42" y="9" onmousedown="handleZoom(evt,'out')"/>
                <use id="reset" xlink:href="#resetDef" x="30" y="36" onmousedown="handleReset()"/>
                <g id="arrowUp" xlink:href="#dirArrow" transform="translate(30 24)" onmousedown="handlePan(0,-1)">
                  <use xlink:href="#rim" fill="#404040">
                        <set attributeName="fill" to="#808080" begin="arrowUp.mouseover" end="arrowUp.mouseout"/>
                  </use>
                  <path fill="none" stroke="white" stroke-width="1.5" d="M0,-3.0v7 M-2.5,-0.5L0,-3.0L2.5,-0.5"/>
                </g>
                <g id="arrowRight" xlink:href="#dirArrow" transform="rotate(90) translate(36 -43)" onmousedown="handlePan(1,0)">
                  <use xlink:href="#rim" fill="#404040">
                        <set attributeName="fill" to="#808080" begin="arrowRight.mouseover" end="arrowRight.mouseout"/>
                  </use>
                  <path fill="none" stroke="white" stroke-width="1.5" d="M0,-3.0v7 M-2.5,-0.5L0,-3.0L2.5,-0.5"/>
                </g>
                <g id="arrowDown" xlink:href="#dirArrow" transform="rotate(180) translate(-30 -48)" onmousedown="handlePan(0,1)">
                  <use xlink:href="#rim" fill="#404040">
                        <set attributeName="fill" to="#808080" begin="arrowDown.mouseover" end="arrowDown.mouseout"/>
                  </use>
                  <path fill="none" stroke="white" stroke-width="1.5" d="M0,-3.0v7 M-2.5,-0.5L0,-3.0L2.5,-0.5"/>
                </g>
                <g id="arrowLeft" xlink:href="#dirArrow" transform="rotate(270) translate(-36 17)" onmousedown="handlePan(-1,0)">
                  <use xlink:href="#rim" fill="#404040">
                        <set attributeName="fill" to="#808080" begin="arrowLeft.mouseover" end="arrowLeft.mouseout"/>
                  </use>
                  <path fill="none" stroke="white" stroke-width="1.5" d="M0,-3.0v7 M-2.5,-0.5L0,-3.0L2.5,-0.5"/>
                </g>
        </g>
        <svg viewBox="0 0 15 15" width="100%" height="30px" preserveAspectRatio="xMaxYMin meet">
         <g id="arrow_out" transform="scale(0.3 0.3)">
          <a xlink:href="snapshots_8h__incl_org.svg" target="_base">
           <rect id="button" ry="5" rx="5" y="6" x="6" height="38" width="38"
                fill="#f2f5e9" fill-opacity="0.5" stroke="#606060" stroke-width="1.0"/>
           <path id="arrow"
             d="M 11.500037,31.436501 C 11.940474,20.09759 22.043105,11.32322 32.158766,21.979434 L 37.068811,17.246167 C 37.068811,17.246167 37.088388,32 37.088388,32 L 22.160133,31.978069 C 22.160133,31.978069 26.997745,27.140456 26.997745,27.140456 C 18.528582,18.264221 13.291696,25.230495 11.500037,31.436501 z"
             style="fill:#404040;"/>
          </a>
         </g>
        </svg>
</svg>
