<?xml version="1.0" encoding="UTF-8" standalone="no"?>
<!DOCTYPE svg PUBLIC "-//W3C//DTD SVG 1.1//EN"
 "http://www.w3.org/Graphics/SVG/1.1/DTD/svg11.dtd">
<!-- Generated by graphviz version 2.43.0 (0)
 -->
<!-- Title: src/host/enclave.h Pages: 1 -->
<svg width="1529pt" height="476pt"
 viewBox="0.00 0.00 1529.00 476.00" xmlns="http://www.w3.org/2000/svg" xmlns:xlink="http://www.w3.org/1999/xlink">
<g id="graph0" class="graph" transform="scale(1 1) rotate(0) translate(4 472)">
<title>src/host/enclave.h</title>
<polygon fill="white" stroke="transparent" points="-4,4 -4,-472 1525,-472 1525,4 -4,4"/>
<!-- Node1 -->
<g id="node1" class="node">
<title>Node1</title>
<g id="a_node1"><a xlink:title=" ">
<polygon fill="#bfbfbf" stroke="black" points="1173,-448.5 1173,-467.5 1278,-467.5 1278,-448.5 1173,-448.5"/>
<text text-anchor="middle" x="1225.5" y="-455.5" font-family="Helvetica,sans-Serif" font-size="10.00">src/host/enclave.h</text>
</a>
</g>
</g>
<!-- Node2 -->
<g id="node2" class="node">
<title>Node2</title>
<g id="a_node2"><a xlink:href="logger_8h.html" target="_top" xlink:title=" ">
<polygon fill="white" stroke="black" points="485,-224.5 485,-243.5 572,-243.5 572,-224.5 485,-224.5"/>
<text text-anchor="middle" x="528.5" y="-231.5" font-family="Helvetica,sans-Serif" font-size="10.00">ccf/ds/logger.h</text>
</a>
</g>
</g>
<!-- Node1&#45;&gt;Node2 -->
<g id="edge1" class="edge">
<title>Node1&#45;&gt;Node2</title>
<path fill="none" stroke="midnightblue" d="M1197.28,-448.49C1167.66,-439.53 1119.75,-424.95 1078.5,-412 884.03,-350.94 651.75,-275.3 564.22,-246.69"/>
<polygon fill="midnightblue" stroke="midnightblue" points="565.1,-243.3 554.51,-243.52 562.93,-249.95 565.1,-243.3"/>
</g>
<!-- Node17 -->
<g id="node17" class="node">
<title>Node17</title>
<g id="a_node17"><a xlink:href="version_8h.html" target="_top" xlink:title=" ">
<polygon fill="white" stroke="black" points="1426,-336.5 1426,-355.5 1505,-355.5 1505,-336.5 1426,-336.5"/>
<text text-anchor="middle" x="1465.5" y="-343.5" font-family="Helvetica,sans-Serif" font-size="10.00">ccf/version.h</text>
</a>
</g>
</g>
<!-- Node1&#45;&gt;Node17 -->
<g id="edge18" class="edge">
<title>Node1&#45;&gt;Node17</title>
<path fill="none" stroke="midnightblue" d="M1225.37,-448.4C1225.67,-434.41 1228.41,-406.8 1244.5,-392 1250.83,-386.18 1352.59,-367.15 1415.8,-355.78"/>
<polygon fill="midnightblue" stroke="midnightblue" points="1416.74,-359.17 1425.97,-353.96 1415.51,-352.28 1416.74,-359.17"/>
</g>
<!-- Node19 -->
<g id="node19" class="node">
<title>Node19</title>
<g id="a_node19"><a xlink:href="interface_8h.html" target="_top" xlink:title=" ">
<polygon fill="white" stroke="black" points="1087.5,-392.5 1087.5,-411.5 1197.5,-411.5 1197.5,-392.5 1087.5,-392.5"/>
<text text-anchor="middle" x="1142.5" y="-399.5" font-family="Helvetica,sans-Serif" font-size="10.00">enclave/interface.h</text>
</a>
</g>
</g>
<!-- Node1&#45;&gt;Node19 -->
<g id="edge20" class="edge">
<title>Node1&#45;&gt;Node19</title>
<path fill="none" stroke="midnightblue" d="M1212.16,-448.32C1199.34,-439.98 1179.72,-427.21 1164.56,-417.35"/>
<polygon fill="midnightblue" stroke="midnightblue" points="1166.09,-414.17 1155.8,-411.65 1162.28,-420.04 1166.09,-414.17"/>
</g>
<!-- Node49 -->
<g id="node49" class="node">
<title>Node49</title>
<g id="a_node49"><a xlink:title=" ">
<polygon fill="white" stroke="#bfbfbf" points="1253.5,-392.5 1253.5,-411.5 1303.5,-411.5 1303.5,-392.5 1253.5,-392.5"/>
<text text-anchor="middle" x="1278.5" y="-399.5" font-family="Helvetica,sans-Serif" font-size="10.00">dlfcn.h</text>
</a>
</g>
</g>
<!-- Node1&#45;&gt;Node49 -->
<g id="edge79" class="edge">
<title>Node1&#45;&gt;Node49</title>
<path fill="none" stroke="midnightblue" d="M1234.25,-448.08C1241.97,-440.22 1253.4,-428.57 1262.72,-419.08"/>
<polygon fill="midnightblue" stroke="midnightblue" points="1265.4,-421.34 1269.91,-411.75 1260.41,-416.44 1265.4,-421.34"/>
</g>
<!-- Node50 -->
<g id="node50" class="node">
<title>Node50</title>
<g id="a_node50"><a xlink:title=" ">
<polygon fill="white" stroke="#bfbfbf" points="1321.5,-392.5 1321.5,-411.5 1389.5,-411.5 1389.5,-392.5 1321.5,-392.5"/>
<text text-anchor="middle" x="1355.5" y="-399.5" font-family="Helvetica,sans-Serif" font-size="10.00">filesystem</text>
</a>
</g>
</g>
<!-- Node1&#45;&gt;Node50 -->
<g id="edge80" class="edge">
<title>Node1&#45;&gt;Node50</title>
<path fill="none" stroke="midnightblue" d="M1246.1,-448.44C1267.49,-439.56 1301.18,-425.56 1325.52,-415.45"/>
<polygon fill="midnightblue" stroke="midnightblue" points="1327.11,-418.58 1335,-411.52 1324.42,-412.12 1327.11,-418.58"/>
</g>
<!-- Node3 -->
<g id="node3" class="node">
<title>Node3</title>
<g id="a_node3"><a xlink:href="enum__formatter_8h.html" target="_top" xlink:title=" ">
<polygon fill="white" stroke="black" points="628.5,-168.5 628.5,-187.5 764.5,-187.5 764.5,-168.5 628.5,-168.5"/>
<text text-anchor="middle" x="696.5" y="-175.5" font-family="Helvetica,sans-Serif" font-size="10.00">ccf/ds/enum_formatter.h</text>
</a>
</g>
</g>
<!-- Node2&#45;&gt;Node3 -->
<g id="edge2" class="edge">
<title>Node2&#45;&gt;Node3</title>
<path fill="none" stroke="midnightblue" d="M555.12,-224.44C583.51,-215.32 628.64,-200.81 660.25,-190.65"/>
<polygon fill="midnightblue" stroke="midnightblue" points="661.56,-193.91 670,-187.52 659.41,-187.24 661.56,-193.91"/>
</g>
<!-- Node4 -->
<g id="node4" class="node">
<title>Node4</title>
<g id="a_node4"><a xlink:title=" ">
<polygon fill="white" stroke="#bfbfbf" points="538,-112.5 538,-131.5 617,-131.5 617,-112.5 538,-112.5"/>
<text text-anchor="middle" x="577.5" y="-119.5" font-family="Helvetica,sans-Serif" font-size="10.00">fmt/format.h</text>
</a>
</g>
</g>
<!-- Node2&#45;&gt;Node4 -->
<g id="edge12" class="edge">
<title>Node2&#45;&gt;Node4</title>
<path fill="none" stroke="midnightblue" d="M532.34,-224.37C540.32,-206.46 558.83,-164.92 569.5,-140.95"/>
<polygon fill="midnightblue" stroke="midnightblue" points="572.8,-142.15 573.67,-131.59 566.41,-139.3 572.8,-142.15"/>
</g>
<!-- Node5 -->
<g id="node5" class="node">
<title>Node5</title>
<g id="a_node5"><a xlink:href="thread__ids_8h.html" target="_top" xlink:title=" ">
<polygon fill="white" stroke="black" points="49.5,-168.5 49.5,-187.5 157.5,-187.5 157.5,-168.5 49.5,-168.5"/>
<text text-anchor="middle" x="103.5" y="-175.5" font-family="Helvetica,sans-Serif" font-size="10.00">ccf/ds/thread_ids.h</text>
</a>
</g>
</g>
<!-- Node2&#45;&gt;Node5 -->
<g id="edge4" class="edge">
<title>Node2&#45;&gt;Node5</title>
<path fill="none" stroke="midnightblue" d="M484.72,-227.82C418.49,-219.92 288.57,-204.21 167.94,-188.17"/>
<polygon fill="midnightblue" stroke="midnightblue" points="168.16,-184.67 157.79,-186.82 167.24,-191.61 168.16,-184.67"/>
</g>
<!-- Node11 -->
<g id="node11" class="node">
<title>Node11</title>
<g id="a_node11"><a xlink:title=" ">
<polygon fill="white" stroke="#bfbfbf" points="176,-168.5 176,-187.5 255,-187.5 255,-168.5 176,-168.5"/>
<text text-anchor="middle" x="215.5" y="-175.5" font-family="Helvetica,sans-Serif" font-size="10.00">fmt/chrono.h</text>
</a>
</g>
</g>
<!-- Node2&#45;&gt;Node11 -->
<g id="edge11" class="edge">
<title>Node2&#45;&gt;Node11</title>
<path fill="none" stroke="midnightblue" d="M484.85,-225.82C434.29,-217.46 348.24,-203.06 264.92,-188.23"/>
<polygon fill="midnightblue" stroke="midnightblue" points="265.5,-184.78 255.04,-186.47 264.27,-191.67 265.5,-184.78"/>
</g>
<!-- Node12 -->
<g id="node12" class="node">
<title>Node12</title>
<g id="a_node12"><a xlink:title=" ">
<polygon fill="white" stroke="#bfbfbf" points="272.5,-168.5 272.5,-187.5 332.5,-187.5 332.5,-168.5 272.5,-168.5"/>
<text text-anchor="middle" x="302.5" y="-175.5" font-family="Helvetica,sans-Serif" font-size="10.00">iostream</text>
</a>
</g>
</g>
<!-- Node2&#45;&gt;Node12 -->
<g id="edge13" class="edge">
<title>Node2&#45;&gt;Node12</title>
<path fill="none" stroke="midnightblue" d="M492.69,-224.44C451.78,-214.67 385.03,-198.72 342.46,-188.55"/>
<polygon fill="midnightblue" stroke="midnightblue" points="343.26,-185.14 332.72,-186.22 341.63,-191.95 343.26,-185.14"/>
</g>
<!-- Node13 -->
<g id="node13" class="node">
<title>Node13</title>
<g id="a_node13"><a xlink:title=" ">
<polygon fill="white" stroke="#bfbfbf" points="350.5,-168.5 350.5,-187.5 460.5,-187.5 460.5,-168.5 350.5,-168.5"/>
<text text-anchor="middle" x="405.5" y="-175.5" font-family="Helvetica,sans-Serif" font-size="10.00">nlohmann/json.hpp</text>
</a>
</g>
</g>
<!-- Node2&#45;&gt;Node13 -->
<g id="edge14" class="edge">
<title>Node2&#45;&gt;Node13</title>
<path fill="none" stroke="midnightblue" d="M509.01,-224.44C488.86,-215.6 457.18,-201.69 434.17,-191.59"/>
<polygon fill="midnightblue" stroke="midnightblue" points="435.46,-188.33 424.9,-187.52 432.65,-194.74 435.46,-188.33"/>
</g>
<!-- Node14 -->
<g id="node14" class="node">
<title>Node14</title>
<g id="a_node14"><a xlink:title=" ">
<polygon fill="white" stroke="#bfbfbf" points="673.5,-112.5 673.5,-131.5 729.5,-131.5 729.5,-112.5 673.5,-112.5"/>
<text text-anchor="middle" x="701.5" y="-119.5" font-family="Helvetica,sans-Serif" font-size="10.00">optional</text>
</a>
</g>
</g>
<!-- Node2&#45;&gt;Node14 -->
<g id="edge15" class="edge">
<title>Node2&#45;&gt;Node14</title>
<path fill="none" stroke="midnightblue" d="M572.26,-233.5C650.57,-233.36 809.77,-228.02 844.5,-188 850.33,-181.29 849.76,-175.17 844.5,-168 838.1,-159.27 779.6,-142.88 739.44,-132.47"/>
<polygon fill="midnightblue" stroke="midnightblue" points="740.22,-129.06 729.66,-129.96 738.48,-135.84 740.22,-129.06"/>
</g>
<!-- Node15 -->
<g id="node15" class="node">
<title>Node15</title>
<g id="a_node15"><a xlink:title=" ">
<polygon fill="white" stroke="#bfbfbf" points="478.5,-168.5 478.5,-187.5 534.5,-187.5 534.5,-168.5 478.5,-168.5"/>
<text text-anchor="middle" x="506.5" y="-175.5" font-family="Helvetica,sans-Serif" font-size="10.00">sstream</text>
</a>
</g>
</g>
<!-- Node2&#45;&gt;Node15 -->
<g id="edge16" class="edge">
<title>Node2&#45;&gt;Node15</title>
<path fill="none" stroke="midnightblue" d="M524.87,-224.08C521.89,-216.77 517.57,-206.18 513.88,-197.1"/>
<polygon fill="midnightblue" stroke="midnightblue" points="517.08,-195.69 510.07,-187.75 510.6,-198.33 517.08,-195.69"/>
</g>
<!-- Node16 -->
<g id="node16" class="node">
<title>Node16</title>
<g id="a_node16"><a xlink:title=" ">
<polygon fill="white" stroke="#bfbfbf" points="579,-0.5 579,-19.5 648,-19.5 648,-0.5 579,-0.5"/>
<text text-anchor="middle" x="613.5" y="-7.5" font-family="Helvetica,sans-Serif" font-size="10.00">type_traits</text>
</a>
</g>
</g>
<!-- Node2&#45;&gt;Node16 -->
<g id="edge17" class="edge">
<title>Node2&#45;&gt;Node16</title>
<path fill="none" stroke="midnightblue" d="M572.03,-231.46C635.42,-228.2 748.35,-218.2 773.5,-188 779.19,-181.17 778.71,-175.2 773.5,-168 743.61,-126.65 711.56,-151.7 664.5,-132 646.53,-124.48 643.86,-118.52 625.5,-112 552.72,-86.15 504.13,-136 455.5,-76 449.9,-69.09 450.14,-63.09 455.5,-56 469.19,-37.86 527.06,-24.87 568.81,-17.64"/>
<polygon fill="midnightblue" stroke="midnightblue" points="569.48,-21.08 578.77,-15.97 568.33,-14.17 569.48,-21.08"/>
</g>
<!-- Node3&#45;&gt;Node4 -->
<g id="edge3" class="edge">
<title>Node3&#45;&gt;Node4</title>
<path fill="none" stroke="midnightblue" d="M677.64,-168.44C658.23,-159.64 627.77,-145.81 605.54,-135.72"/>
<polygon fill="midnightblue" stroke="midnightblue" points="606.82,-132.46 596.27,-131.52 603.93,-138.84 606.82,-132.46"/>
</g>
<!-- Node5&#45;&gt;Node4 -->
<g id="edge5" class="edge">
<title>Node5&#45;&gt;Node4</title>
<path fill="none" stroke="midnightblue" d="M157.78,-169.13C160.73,-168.74 163.65,-168.36 166.5,-168 296.41,-151.61 449.87,-135.73 527.35,-127.95"/>
<polygon fill="midnightblue" stroke="midnightblue" points="528.17,-131.39 537.77,-126.91 527.47,-124.42 528.17,-131.39"/>
</g>
<!-- Node6 -->
<g id="node6" class="node">
<title>Node6</title>
<g id="a_node6"><a xlink:title=" ">
<polygon fill="white" stroke="#bfbfbf" points="145.5,-112.5 145.5,-131.5 231.5,-131.5 231.5,-112.5 145.5,-112.5"/>
<text text-anchor="middle" x="188.5" y="-119.5" font-family="Helvetica,sans-Serif" font-size="10.00">fmt/ostream.h</text>
</a>
</g>
</g>
<!-- Node5&#45;&gt;Node6 -->
<g id="edge6" class="edge">
<title>Node5&#45;&gt;Node6</title>
<path fill="none" stroke="midnightblue" d="M117.16,-168.32C130.42,-159.9 150.77,-146.97 166.35,-137.07"/>
<polygon fill="midnightblue" stroke="midnightblue" points="168.31,-139.97 174.88,-131.65 164.56,-134.06 168.31,-139.97"/>
</g>
<!-- Node7 -->
<g id="node7" class="node">
<title>Node7</title>
<g id="a_node7"><a xlink:title=" ">
<polygon fill="white" stroke="#bfbfbf" points="0,-112.5 0,-131.5 61,-131.5 61,-112.5 0,-112.5"/>
<text text-anchor="middle" x="30.5" y="-119.5" font-family="Helvetica,sans-Serif" font-size="10.00">fmt/std.h</text>
</a>
</g>
</g>
<!-- Node5&#45;&gt;Node7 -->
<g id="edge7" class="edge">
<title>Node5&#45;&gt;Node7</title>
<path fill="none" stroke="midnightblue" d="M91.77,-168.32C80.66,-160.11 63.76,-147.6 50.52,-137.81"/>
<polygon fill="midnightblue" stroke="midnightblue" points="52.56,-134.97 42.44,-131.83 48.4,-140.59 52.56,-134.97"/>
</g>
<!-- Node8 -->
<g id="node8" class="node">
<title>Node8</title>
<g id="a_node8"><a xlink:title=" ">
<polygon fill="white" stroke="#bfbfbf" points="979.5,-112.5 979.5,-131.5 1023.5,-131.5 1023.5,-112.5 979.5,-112.5"/>
<text text-anchor="middle" x="1001.5" y="-119.5" font-family="Helvetica,sans-Serif" font-size="10.00">limits</text>
</a>
</g>
</g>
<!-- Node5&#45;&gt;Node8 -->
<g id="edge8" class="edge">
<title>Node5&#45;&gt;Node8</title>
<path fill="none" stroke="midnightblue" d="M157.76,-168.92C160.71,-168.58 163.64,-168.27 166.5,-168 505.8,-135.86 593.01,-162.07 932.5,-132 944.57,-130.93 957.77,-129.32 969.37,-127.75"/>
<polygon fill="midnightblue" stroke="midnightblue" points="970.07,-131.19 979.49,-126.34 969.1,-124.26 970.07,-131.19"/>
</g>
<!-- Node9 -->
<g id="node9" class="node">
<title>Node9</title>
<g id="a_node9"><a xlink:title=" ">
<polygon fill="white" stroke="#bfbfbf" points="365.5,-112.5 365.5,-131.5 403.5,-131.5 403.5,-112.5 365.5,-112.5"/>
<text text-anchor="middle" x="384.5" y="-119.5" font-family="Helvetica,sans-Serif" font-size="10.00">map</text>
</a>
</g>
</g>
<!-- Node5&#45;&gt;Node9 -->
<g id="edge9" class="edge">
<title>Node5&#45;&gt;Node9</title>
<path fill="none" stroke="midnightblue" d="M148.03,-168.44C206.13,-157.28 306.18,-138.05 355.41,-128.59"/>
<polygon fill="midnightblue" stroke="midnightblue" points="356.23,-132 365.39,-126.67 354.91,-125.12 356.23,-132"/>
</g>
<!-- Node10 -->
<g id="node10" class="node">
<title>Node10</title>
<g id="a_node10"><a xlink:title=" ">
<polygon fill="white" stroke="#bfbfbf" points="79.5,-112.5 79.5,-131.5 127.5,-131.5 127.5,-112.5 79.5,-112.5"/>
<text text-anchor="middle" x="103.5" y="-119.5" font-family="Helvetica,sans-Serif" font-size="10.00">thread</text>
</a>
</g>
</g>
<!-- Node5&#45;&gt;Node10 -->
<g id="edge10" class="edge">
<title>Node5&#45;&gt;Node10</title>
<path fill="none" stroke="midnightblue" d="M103.5,-168.08C103.5,-161.01 103.5,-150.86 103.5,-141.99"/>
<polygon fill="midnightblue" stroke="midnightblue" points="107,-141.75 103.5,-131.75 100,-141.75 107,-141.75"/>
</g>
<!-- Node18 -->
<g id="node18" class="node">
<title>Node18</title>
<g id="a_node18"><a xlink:title=" ">
<polygon fill="white" stroke="#bfbfbf" points="1268.5,-0.5 1268.5,-19.5 1312.5,-19.5 1312.5,-0.5 1268.5,-0.5"/>
<text text-anchor="middle" x="1290.5" y="-7.5" font-family="Helvetica,sans-Serif" font-size="10.00">string</text>
</a>
</g>
</g>
<!-- Node17&#45;&gt;Node18 -->
<g id="edge19" class="edge">
<title>Node17&#45;&gt;Node18</title>
<path fill="none" stroke="midnightblue" d="M1466.02,-336.45C1467.11,-317.95 1469.5,-272.84 1469.5,-235 1469.5,-235 1469.5,-235 1469.5,-121 1469.5,-52.92 1374.35,-25.64 1322.8,-15.86"/>
<polygon fill="midnightblue" stroke="midnightblue" points="1323.27,-12.39 1312.81,-14.08 1322.04,-19.28 1323.27,-12.39"/>
</g>
<!-- Node20 -->
<g id="node20" class="node">
<title>Node20</title>
<g id="a_node20"><a xlink:href="oversized_8h.html" target="_top" xlink:title=" ">
<polygon fill="white" stroke="black" points="1056,-336.5 1056,-355.5 1143,-355.5 1143,-336.5 1056,-336.5"/>
<text text-anchor="middle" x="1099.5" y="-343.5" font-family="Helvetica,sans-Serif" font-size="10.00">ds/oversized.h</text>
</a>
</g>
</g>
<!-- Node19&#45;&gt;Node20 -->
<g id="edge21" class="edge">
<title>Node19&#45;&gt;Node20</title>
<path fill="none" stroke="midnightblue" d="M1135.4,-392.08C1129.26,-384.38 1120.23,-373.03 1112.76,-363.65"/>
<polygon fill="midnightblue" stroke="midnightblue" points="1115.44,-361.39 1106.47,-355.75 1109.96,-365.75 1115.44,-361.39"/>
</g>
<!-- Node26 -->
<g id="node26" class="node">
<title>Node26</title>
<g id="a_node26"><a xlink:href="ring__buffer__types_8h.html" target="_top" xlink:title=" ">
<polygon fill="white" stroke="black" points="896.5,-168.5 896.5,-187.5 1006.5,-187.5 1006.5,-168.5 896.5,-168.5"/>
<text text-anchor="middle" x="951.5" y="-175.5" font-family="Helvetica,sans-Serif" font-size="10.00">ring_buffer_types.h</text>
</a>
</g>
</g>
<!-- Node19&#45;&gt;Node26 -->
<g id="edge76" class="edge">
<title>Node19&#45;&gt;Node26</title>
<path fill="none" stroke="midnightblue" d="M1106.54,-392.45C1062.09,-379.94 987.44,-352.25 947.5,-300 926.64,-272.71 927,-257.73 933.5,-224 935.29,-214.7 938.98,-204.89 942.56,-196.8"/>
<polygon fill="midnightblue" stroke="midnightblue" points="945.77,-198.2 946.88,-187.66 939.44,-195.21 945.77,-198.2"/>
</g>
<!-- Node31 -->
<g id="node31" class="node">
<title>Node31</title>
<g id="a_node31"><a xlink:title=" ">
<polygon fill="white" stroke="#bfbfbf" points="997,-0.5 997,-19.5 1044,-19.5 1044,-0.5 997,-0.5"/>
<text text-anchor="middle" x="1020.5" y="-7.5" font-family="Helvetica,sans-Serif" font-size="10.00">vector</text>
</a>
</g>
</g>
<!-- Node19&#45;&gt;Node31 -->
<g id="edge78" class="edge">
<title>Node19&#45;&gt;Node31</title>
<path fill="none" stroke="midnightblue" d="M1181.44,-392.44C1251.94,-375.81 1393.5,-336.73 1393.5,-291 1393.5,-291 1393.5,-291 1393.5,-177 1393.5,-29.22 1146.09,-12.05 1054.27,-10.76"/>
<polygon fill="midnightblue" stroke="midnightblue" points="1054.14,-7.26 1044.12,-10.68 1054.09,-14.26 1054.14,-7.26"/>
</g>
<!-- Node48 -->
<g id="node48" class="node">
<title>Node48</title>
<g id="a_node48"><a xlink:title=" ">
<polygon fill="white" stroke="#bfbfbf" points="1161.5,-336.5 1161.5,-355.5 1211.5,-355.5 1211.5,-336.5 1161.5,-336.5"/>
<text text-anchor="middle" x="1186.5" y="-343.5" font-family="Helvetica,sans-Serif" font-size="10.00">chrono</text>
</a>
</g>
</g>
<!-- Node19&#45;&gt;Node48 -->
<g id="edge77" class="edge">
<title>Node19&#45;&gt;Node48</title>
<path fill="none" stroke="midnightblue" d="M1149.77,-392.08C1156.04,-384.38 1165.29,-373.03 1172.93,-363.65"/>
<polygon fill="midnightblue" stroke="midnightblue" points="1175.77,-365.71 1179.37,-355.75 1170.34,-361.29 1175.77,-365.71"/>
</g>
<!-- Node20&#45;&gt;Node4 -->
<g id="edge74" class="edge">
<title>Node20&#45;&gt;Node4</title>
<path fill="none" stroke="midnightblue" d="M1056,-336.52C1024.72,-329.39 982.12,-317.52 947.5,-300 860.89,-256.18 861.43,-209.11 773.5,-168 726.41,-145.99 667.8,-134.36 627,-128.48"/>
<polygon fill="midnightblue" stroke="midnightblue" points="627.41,-125 617.03,-127.11 626.45,-131.94 627.41,-125"/>
</g>
<!-- Node21 -->
<g id="node21" class="node">
<title>Node21</title>
<g id="a_node21"><a xlink:href="messaging_8h.html" target="_top" xlink:title=" ">
<polygon fill="white" stroke="black" points="956,-280.5 956,-299.5 1035,-299.5 1035,-280.5 956,-280.5"/>
<text text-anchor="middle" x="995.5" y="-287.5" font-family="Helvetica,sans-Serif" font-size="10.00">messaging.h</text>
</a>
</g>
</g>
<!-- Node20&#45;&gt;Node21 -->
<g id="edge22" class="edge">
<title>Node20&#45;&gt;Node21</title>
<path fill="none" stroke="midnightblue" d="M1082.79,-336.32C1066.19,-327.7 1040.5,-314.36 1021.28,-304.39"/>
<polygon fill="midnightblue" stroke="midnightblue" points="1022.66,-301.16 1012.17,-299.65 1019.43,-307.37 1022.66,-301.16"/>
</g>
<!-- Node22 -->
<g id="node22" class="node">
<title>Node22</title>
<g id="a_node22"><a xlink:href="ring__buffer_8h.html" target="_top" xlink:title=" ">
<polygon fill="white" stroke="black" points="1132,-224.5 1132,-243.5 1209,-243.5 1209,-224.5 1132,-224.5"/>
<text text-anchor="middle" x="1170.5" y="-231.5" font-family="Helvetica,sans-Serif" font-size="10.00">ring_buffer.h</text>
</a>
</g>
</g>
<!-- Node20&#45;&gt;Node22 -->
<g id="edge72" class="edge">
<title>Node20&#45;&gt;Node22</title>
<path fill="none" stroke="midnightblue" d="M1115.24,-336.39C1128.04,-328.57 1145.56,-315.85 1155.5,-300 1164.25,-286.05 1167.91,-267.55 1169.43,-253.85"/>
<polygon fill="midnightblue" stroke="midnightblue" points="1172.94,-253.93 1170.27,-243.68 1165.96,-253.36 1172.94,-253.93"/>
</g>
<!-- Node39 -->
<g id="node39" class="node">
<title>Node39</title>
<g id="a_node39"><a xlink:href="serialized_8h.html" target="_top" xlink:title=" ">
<polygon fill="white" stroke="black" points="1216,-56.5 1216,-75.5 1289,-75.5 1289,-56.5 1216,-56.5"/>
<text text-anchor="middle" x="1252.5" y="-63.5" font-family="Helvetica,sans-Serif" font-size="10.00">serialized.h</text>
</a>
</g>
</g>
<!-- Node20&#45;&gt;Node39 -->
<g id="edge73" class="edge">
<title>Node20&#45;&gt;Node39</title>
<path fill="none" stroke="midnightblue" d="M1139.78,-336.46C1211.87,-319.99 1355.5,-281.38 1355.5,-235 1355.5,-235 1355.5,-235 1355.5,-177 1355.5,-132.43 1309.88,-98.46 1279.36,-80.73"/>
<polygon fill="midnightblue" stroke="midnightblue" points="1280.88,-77.57 1270.44,-75.75 1277.47,-83.68 1280.88,-77.57"/>
</g>
<!-- Node47 -->
<g id="node47" class="node">
<title>Node47</title>
<g id="a_node47"><a xlink:title=" ">
<polygon fill="white" stroke="#bfbfbf" points="1053,-280.5 1053,-299.5 1146,-299.5 1146,-280.5 1053,-280.5"/>
<text text-anchor="middle" x="1099.5" y="-287.5" font-family="Helvetica,sans-Serif" font-size="10.00">unordered_map</text>
</a>
</g>
</g>
<!-- Node20&#45;&gt;Node47 -->
<g id="edge75" class="edge">
<title>Node20&#45;&gt;Node47</title>
<path fill="none" stroke="midnightblue" d="M1099.5,-336.08C1099.5,-329.01 1099.5,-318.86 1099.5,-309.99"/>
<polygon fill="midnightblue" stroke="midnightblue" points="1103,-309.75 1099.5,-299.75 1096,-309.75 1103,-309.75"/>
</g>
<!-- Node21&#45;&gt;Node2 -->
<g id="edge23" class="edge">
<title>Node21&#45;&gt;Node2</title>
<path fill="none" stroke="midnightblue" d="M955.95,-285.24C882.86,-278.15 721.76,-261.93 586.5,-244 585.05,-243.81 583.58,-243.61 582.09,-243.4"/>
<polygon fill="midnightblue" stroke="midnightblue" points="582.57,-239.94 572.17,-241.99 581.58,-246.87 582.57,-239.94"/>
</g>
<!-- Node21&#45;&gt;Node9 -->
<g id="edge70" class="edge">
<title>Node21&#45;&gt;Node9</title>
<path fill="none" stroke="midnightblue" d="M963.29,-280.43C898.26,-263.12 746.66,-222.67 619.5,-188 545.21,-167.75 457.83,-143.46 413.48,-131.09"/>
<polygon fill="midnightblue" stroke="midnightblue" points="414.25,-127.67 403.68,-128.36 412.37,-134.41 414.25,-127.67"/>
</g>
<!-- Node21&#45;&gt;Node22 -->
<g id="edge24" class="edge">
<title>Node21&#45;&gt;Node22</title>
<path fill="none" stroke="midnightblue" d="M1023.23,-280.44C1052.93,-271.28 1100.22,-256.69 1133.17,-246.52"/>
<polygon fill="midnightblue" stroke="midnightblue" points="1134.38,-249.81 1142.9,-243.52 1132.31,-243.12 1134.38,-249.81"/>
</g>
<!-- Node40 -->
<g id="node40" class="node">
<title>Node40</title>
<g id="a_node40"><a xlink:title=" ">
<polygon fill="white" stroke="#bfbfbf" points="1456,-0.5 1456,-19.5 1521,-19.5 1521,-0.5 1456,-0.5"/>
<text text-anchor="middle" x="1488.5" y="-7.5" font-family="Helvetica,sans-Serif" font-size="10.00">stdexcept</text>
</a>
</g>
</g>
<!-- Node21&#45;&gt;Node40 -->
<g id="edge71" class="edge">
<title>Node21&#45;&gt;Node40</title>
<path fill="none" stroke="midnightblue" d="M1035.41,-281.59C1094.84,-270.46 1201.48,-250.07 1218.5,-244 1268.69,-226.1 1281.63,-219.64 1324.5,-188 1390.13,-139.57 1450.79,-62.43 1476.08,-28.26"/>
<polygon fill="midnightblue" stroke="midnightblue" points="1479.17,-29.96 1482.25,-19.82 1473.52,-25.83 1479.17,-29.96"/>
</g>
<!-- Node43 -->
<g id="node43" class="node">
<title>Node43</title>
<g id="a_node43"><a xlink:title=" ">
<polygon fill="white" stroke="#bfbfbf" points="1167.5,-112.5 1167.5,-131.5 1217.5,-131.5 1217.5,-112.5 1167.5,-112.5"/>
<text text-anchor="middle" x="1192.5" y="-119.5" font-family="Helvetica,sans-Serif" font-size="10.00">atomic</text>
</a>
</g>
</g>
<!-- Node21&#45;&gt;Node43 -->
<g id="edge68" class="edge">
<title>Node21&#45;&gt;Node43</title>
<path fill="none" stroke="midnightblue" d="M1010.34,-280.43C1023.85,-272.19 1043.85,-258.81 1058.5,-244 1087.45,-214.72 1080.94,-195.6 1111.5,-168 1126.23,-154.7 1145.58,-143.76 1161.67,-136.01"/>
<polygon fill="midnightblue" stroke="midnightblue" points="1163.6,-138.97 1171.2,-131.59 1160.66,-132.62 1163.6,-138.97"/>
</g>
<!-- Node46 -->
<g id="node46" class="node">
<title>Node46</title>
<g id="a_node46"><a xlink:title=" ">
<polygon fill="white" stroke="#bfbfbf" points="942,-224.5 942,-243.5 1049,-243.5 1049,-224.5 942,-224.5"/>
<text text-anchor="middle" x="995.5" y="-231.5" font-family="Helvetica,sans-Serif" font-size="10.00">condition_variable</text>
</a>
</g>
</g>
<!-- Node21&#45;&gt;Node46 -->
<g id="edge69" class="edge">
<title>Node21&#45;&gt;Node46</title>
<path fill="none" stroke="midnightblue" d="M995.5,-280.08C995.5,-273.01 995.5,-262.86 995.5,-253.99"/>
<polygon fill="midnightblue" stroke="midnightblue" points="999,-253.75 995.5,-243.75 992,-253.75 999,-253.75"/>
</g>
<!-- Node23 -->
<g id="node23" class="node">
<title>Node23</title>
<g id="a_node23"><a xlink:href="mem_8h.html" target="_top" xlink:title=" ">
<polygon fill="white" stroke="black" points="1203.5,-168.5 1203.5,-187.5 1289.5,-187.5 1289.5,-168.5 1203.5,-168.5"/>
<text text-anchor="middle" x="1246.5" y="-175.5" font-family="Helvetica,sans-Serif" font-size="10.00">ccf/pal/mem.h</text>
</a>
</g>
</g>
<!-- Node22&#45;&gt;Node23 -->
<g id="edge25" class="edge">
<title>Node22&#45;&gt;Node23</title>
<path fill="none" stroke="midnightblue" d="M1182.71,-224.32C1194.28,-216.11 1211.88,-203.6 1225.66,-193.81"/>
<polygon fill="midnightblue" stroke="midnightblue" points="1227.94,-196.48 1234.07,-187.83 1223.89,-190.77 1227.94,-196.48"/>
</g>
<!-- Node25 -->
<g id="node25" class="node">
<title>Node25</title>
<g id="a_node25"><a xlink:title=" ">
<polygon fill="white" stroke="#bfbfbf" points="1368.5,-0.5 1368.5,-19.5 1418.5,-19.5 1418.5,-0.5 1368.5,-0.5"/>
<text text-anchor="middle" x="1393.5" y="-7.5" font-family="Helvetica,sans-Serif" font-size="10.00">cstring</text>
</a>
</g>
</g>
<!-- Node22&#45;&gt;Node25 -->
<g id="edge66" class="edge">
<title>Node22&#45;&gt;Node25</title>
<path fill="none" stroke="midnightblue" d="M1209.23,-225.32C1236.08,-218.64 1271.68,-206.98 1298.5,-188 1350.62,-151.11 1365,-135.38 1388.5,-76 1394.3,-61.35 1395.27,-43.41 1394.95,-30.09"/>
<polygon fill="midnightblue" stroke="midnightblue" points="1398.43,-29.59 1394.42,-19.78 1391.44,-29.94 1398.43,-29.59"/>
</g>
<!-- Node22&#45;&gt;Node26 -->
<g id="edge29" class="edge">
<title>Node22&#45;&gt;Node26</title>
<path fill="none" stroke="midnightblue" d="M1135.8,-224.44C1097.92,-215.1 1037.15,-200.12 995.84,-189.93"/>
<polygon fill="midnightblue" stroke="midnightblue" points="996.59,-186.51 986.04,-187.52 994.91,-193.31 996.59,-186.51"/>
</g>
<!-- Node45 -->
<g id="node45" class="node">
<title>Node45</title>
<g id="a_node45"><a xlink:title=" ">
<polygon fill="white" stroke="#bfbfbf" points="1120,-168.5 1120,-187.5 1185,-187.5 1185,-168.5 1120,-168.5"/>
<text text-anchor="middle" x="1152.5" y="-175.5" font-family="Helvetica,sans-Serif" font-size="10.00">functional</text>
</a>
</g>
</g>
<!-- Node22&#45;&gt;Node45 -->
<g id="edge67" class="edge">
<title>Node22&#45;&gt;Node45</title>
<path fill="none" stroke="midnightblue" d="M1167.53,-224.08C1165.12,-216.85 1161.64,-206.41 1158.63,-197.4"/>
<polygon fill="midnightblue" stroke="midnightblue" points="1161.9,-196.13 1155.42,-187.75 1155.26,-198.34 1161.9,-196.13"/>
</g>
<!-- Node23&#45;&gt;Node8 -->
<g id="edge28" class="edge">
<title>Node23&#45;&gt;Node8</title>
<path fill="none" stroke="midnightblue" d="M1203.24,-168.9C1161.98,-160.95 1097.89,-148.02 1033.68,-132.16"/>
<polygon fill="midnightblue" stroke="midnightblue" points="1034.35,-128.72 1023.8,-129.69 1032.65,-135.51 1034.35,-128.72"/>
</g>
<!-- Node24 -->
<g id="node24" class="node">
<title>Node24</title>
<g id="a_node24"><a xlink:title=" ">
<polygon fill="white" stroke="#bfbfbf" points="1236,-112.5 1236,-131.5 1289,-131.5 1289,-112.5 1236,-112.5"/>
<text text-anchor="middle" x="1262.5" y="-119.5" font-family="Helvetica,sans-Serif" font-size="10.00">stdlib.h</text>
</a>
</g>
</g>
<!-- Node23&#45;&gt;Node24 -->
<g id="edge26" class="edge">
<title>Node23&#45;&gt;Node24</title>
<path fill="none" stroke="midnightblue" d="M1249.14,-168.08C1251.29,-160.85 1254.38,-150.41 1257.05,-141.4"/>
<polygon fill="midnightblue" stroke="midnightblue" points="1260.42,-142.33 1259.91,-131.75 1253.71,-140.34 1260.42,-142.33"/>
</g>
<!-- Node23&#45;&gt;Node25 -->
<g id="edge27" class="edge">
<title>Node23&#45;&gt;Node25</title>
<path fill="none" stroke="midnightblue" d="M1261.55,-168.37C1287.16,-152.95 1339.38,-118.32 1369.5,-76 1379.52,-61.92 1385.85,-43.19 1389.48,-29.45"/>
<polygon fill="midnightblue" stroke="midnightblue" points="1392.89,-30.22 1391.83,-19.68 1386.08,-28.59 1392.89,-30.22"/>
</g>
<!-- Node26&#45;&gt;Node4 -->
<g id="edge61" class="edge">
<title>Node26&#45;&gt;Node4</title>
<path fill="none" stroke="midnightblue" d="M896.32,-169.03C823.74,-158.55 697.28,-140.29 627.42,-130.21"/>
<polygon fill="midnightblue" stroke="midnightblue" points="627.53,-126.69 617.13,-128.72 626.53,-133.62 627.53,-126.69"/>
</g>
<!-- Node26&#45;&gt;Node14 -->
<g id="edge62" class="edge">
<title>Node26&#45;&gt;Node14</title>
<path fill="none" stroke="midnightblue" d="M909.39,-168.5C868.46,-160.14 804.3,-146.82 739.71,-132.23"/>
<polygon fill="midnightblue" stroke="midnightblue" points="740.29,-128.77 729.76,-129.97 738.74,-135.59 740.29,-128.77"/>
</g>
<!-- Node26&#45;&gt;Node18 -->
<g id="edge64" class="edge">
<title>Node26&#45;&gt;Node18</title>
<path fill="none" stroke="midnightblue" d="M994.01,-168.46C1028.7,-160.83 1078.64,-148.35 1120.5,-132 1138.28,-125.06 1140.69,-118.87 1158.5,-112 1218.44,-88.88 1259.13,-126.77 1298.5,-76 1308.82,-62.7 1304.52,-43.04 1299.07,-28.83"/>
<polygon fill="midnightblue" stroke="midnightblue" points="1302.27,-27.4 1295.08,-19.61 1295.84,-30.18 1302.27,-27.4"/>
</g>
<!-- Node27 -->
<g id="node27" class="node">
<title>Node27</title>
<g id="a_node27"><a xlink:href="include_2ccf_2ds_2hash_8h.html" target="_top" xlink:title=" ">
<polygon fill="white" stroke="black" points="747.5,-112.5 747.5,-131.5 827.5,-131.5 827.5,-112.5 747.5,-112.5"/>
<text text-anchor="middle" x="787.5" y="-119.5" font-family="Helvetica,sans-Serif" font-size="10.00">ccf/ds/hash.h</text>
</a>
</g>
</g>
<!-- Node26&#45;&gt;Node27 -->
<g id="edge30" class="edge">
<title>Node26&#45;&gt;Node27</title>
<path fill="none" stroke="midnightblue" d="M925.51,-168.44C897.8,-159.32 853.75,-144.81 822.88,-134.65"/>
<polygon fill="midnightblue" stroke="midnightblue" points="823.96,-131.32 813.36,-131.52 821.77,-137.97 823.96,-131.32"/>
</g>
<!-- Node26&#45;&gt;Node31 -->
<g id="edge65" class="edge">
<title>Node26&#45;&gt;Node31</title>
<path fill="none" stroke="midnightblue" d="M953.5,-168.43C956.54,-155.84 962.81,-131.71 970.5,-112 982.3,-81.75 999.82,-48.27 1010.68,-28.47"/>
<polygon fill="midnightblue" stroke="midnightblue" points="1013.76,-30.12 1015.55,-19.68 1007.64,-26.73 1013.76,-30.12"/>
</g>
<!-- Node35 -->
<g id="node35" class="node">
<title>Node35</title>
<g id="a_node35"><a xlink:href="nonstd_8h.html" target="_top" xlink:title=" ">
<polygon fill="white" stroke="black" points="858.5,-56.5 858.5,-75.5 948.5,-75.5 948.5,-56.5 858.5,-56.5"/>
<text text-anchor="middle" x="903.5" y="-63.5" font-family="Helvetica,sans-Serif" font-size="10.00">ccf/ds/nonstd.h</text>
</a>
</g>
</g>
<!-- Node26&#45;&gt;Node35 -->
<g id="edge40" class="edge">
<title>Node26&#45;&gt;Node35</title>
<path fill="none" stroke="midnightblue" d="M923.13,-168.49C905.75,-161.65 884.9,-150.13 874.5,-132 865.33,-116.02 876.67,-96.61 887.75,-83.19"/>
<polygon fill="midnightblue" stroke="midnightblue" points="890.39,-85.48 894.42,-75.68 885.16,-80.83 890.39,-85.48"/>
</g>
<!-- Node38 -->
<g id="node38" class="node">
<title>Node38</title>
<g id="a_node38"><a xlink:href="serializer_8h.html" target="_top" xlink:title=" ">
<polygon fill="white" stroke="black" points="1041.5,-112.5 1041.5,-131.5 1111.5,-131.5 1111.5,-112.5 1041.5,-112.5"/>
<text text-anchor="middle" x="1076.5" y="-119.5" font-family="Helvetica,sans-Serif" font-size="10.00">serializer.h</text>
</a>
</g>
</g>
<!-- Node26&#45;&gt;Node38 -->
<g id="edge48" class="edge">
<title>Node26&#45;&gt;Node38</title>
<path fill="none" stroke="midnightblue" d="M971.31,-168.44C991.79,-159.6 1023.98,-145.69 1047.36,-135.59"/>
<polygon fill="midnightblue" stroke="midnightblue" points="1048.99,-138.7 1056.79,-131.52 1046.22,-132.27 1048.99,-138.7"/>
</g>
<!-- Node26&#45;&gt;Node43 -->
<g id="edge60" class="edge">
<title>Node26&#45;&gt;Node43</title>
<path fill="none" stroke="midnightblue" d="M990.24,-168.46C1030.92,-159.47 1096.74,-144.87 1153.5,-132 1154.76,-131.71 1156.04,-131.42 1157.33,-131.13"/>
<polygon fill="midnightblue" stroke="midnightblue" points="1158.37,-134.48 1167.33,-128.84 1156.8,-127.66 1158.37,-134.48"/>
</g>
<!-- Node44 -->
<g id="node44" class="node">
<title>Node44</title>
<g id="a_node44"><a xlink:title=" ">
<polygon fill="white" stroke="#bfbfbf" points="883.5,-112.5 883.5,-131.5 923.5,-131.5 923.5,-112.5 883.5,-112.5"/>
<text text-anchor="middle" x="903.5" y="-119.5" font-family="Helvetica,sans-Serif" font-size="10.00">span</text>
</a>
</g>
</g>
<!-- Node26&#45;&gt;Node44 -->
<g id="edge63" class="edge">
<title>Node26&#45;&gt;Node44</title>
<path fill="none" stroke="midnightblue" d="M943.57,-168.08C936.65,-160.3 926.43,-148.8 918.05,-139.37"/>
<polygon fill="midnightblue" stroke="midnightblue" points="920.54,-136.9 911.28,-131.75 915.31,-141.55 920.54,-136.9"/>
</g>
<!-- Node28 -->
<g id="node28" class="node">
<title>Node28</title>
<g id="a_node28"><a xlink:href="siphash_8h.html" target="_top" xlink:title=" ">
<polygon fill="white" stroke="black" points="465,-56.5 465,-75.5 560,-75.5 560,-56.5 465,-56.5"/>
<text text-anchor="middle" x="512.5" y="-63.5" font-family="Helvetica,sans-Serif" font-size="10.00">ccf/ds/siphash.h</text>
</a>
</g>
</g>
<!-- Node27&#45;&gt;Node28 -->
<g id="edge31" class="edge">
<title>Node27&#45;&gt;Node28</title>
<path fill="none" stroke="midnightblue" d="M747.22,-113.09C699.29,-103.68 619.08,-87.93 565.98,-77.5"/>
<polygon fill="midnightblue" stroke="midnightblue" points="566.56,-74.05 556.07,-75.56 565.21,-80.92 566.56,-74.05"/>
</g>
<!-- Node30 -->
<g id="node30" class="node">
<title>Node30</title>
<g id="a_node30"><a xlink:title=" ">
<polygon fill="white" stroke="#bfbfbf" points="666.5,-0.5 666.5,-19.5 716.5,-19.5 716.5,-0.5 666.5,-0.5"/>
<text text-anchor="middle" x="691.5" y="-7.5" font-family="Helvetica,sans-Serif" font-size="10.00">cstdint</text>
</a>
</g>
</g>
<!-- Node27&#45;&gt;Node30 -->
<g id="edge36" class="edge">
<title>Node27&#45;&gt;Node30</title>
<path fill="none" stroke="midnightblue" d="M748.13,-112.5C696.23,-101.1 610.93,-81.66 606.5,-76 588.23,-52.63 625.84,-33.12 656.72,-21.75"/>
<polygon fill="midnightblue" stroke="midnightblue" points="658.14,-24.96 666.43,-18.35 655.83,-18.35 658.14,-24.96"/>
</g>
<!-- Node27&#45;&gt;Node31 -->
<g id="edge39" class="edge">
<title>Node27&#45;&gt;Node31</title>
<path fill="none" stroke="midnightblue" d="M827.64,-116.58C863.65,-111.22 916.93,-99.76 957.5,-76 978.39,-63.76 996.95,-42.72 1008.42,-27.9"/>
<polygon fill="midnightblue" stroke="midnightblue" points="1011.43,-29.72 1014.6,-19.61 1005.82,-25.53 1011.43,-29.72"/>
</g>
<!-- Node32 -->
<g id="node32" class="node">
<title>Node32</title>
<g id="a_node32"><a xlink:title=" ">
<polygon fill="white" stroke="#bfbfbf" points="420.5,-0.5 420.5,-19.5 462.5,-19.5 462.5,-0.5 420.5,-0.5"/>
<text text-anchor="middle" x="441.5" y="-7.5" font-family="Helvetica,sans-Serif" font-size="10.00">array</text>
</a>
</g>
</g>
<!-- Node27&#45;&gt;Node32 -->
<g id="edge35" class="edge">
<title>Node27&#45;&gt;Node32</title>
<path fill="none" stroke="midnightblue" d="M747.42,-113.45C744.4,-112.94 741.41,-112.45 738.5,-112 675.86,-102.27 502.2,-118.87 455.5,-76 442.89,-64.43 440.19,-44.47 440.15,-29.71"/>
<polygon fill="midnightblue" stroke="midnightblue" points="443.65,-29.79 440.52,-19.67 436.66,-29.53 443.65,-29.79"/>
</g>
<!-- Node33 -->
<g id="node33" class="node">
<title>Node33</title>
<g id="a_node33"><a xlink:title=" ">
<polygon fill="white" stroke="#bfbfbf" points="616,-56.5 616,-75.5 765,-75.5 765,-56.5 616,-56.5"/>
<text text-anchor="middle" x="690.5" y="-63.5" font-family="Helvetica,sans-Serif" font-size="10.00">small_vector/SmallVector.h</text>
</a>
</g>
</g>
<!-- Node27&#45;&gt;Node33 -->
<g id="edge37" class="edge">
<title>Node27&#45;&gt;Node33</title>
<path fill="none" stroke="midnightblue" d="M771.92,-112.32C756.5,-103.74 732.69,-90.49 714.79,-80.52"/>
<polygon fill="midnightblue" stroke="midnightblue" points="716.49,-77.46 706.05,-75.65 713.08,-83.58 716.49,-77.46"/>
</g>
<!-- Node34 -->
<g id="node34" class="node">
<title>Node34</title>
<g id="a_node34"><a xlink:title=" ">
<polygon fill="white" stroke="#bfbfbf" points="756,-0.5 756,-19.5 829,-19.5 829,-0.5 756,-0.5"/>
<text text-anchor="middle" x="792.5" y="-7.5" font-family="Helvetica,sans-Serif" font-size="10.00">string_view</text>
</a>
</g>
</g>
<!-- Node27&#45;&gt;Node34 -->
<g id="edge38" class="edge">
<title>Node27&#45;&gt;Node34</title>
<path fill="none" stroke="midnightblue" d="M787.89,-112.37C788.7,-94.62 790.56,-53.67 791.65,-29.6"/>
<polygon fill="midnightblue" stroke="midnightblue" points="795.15,-29.74 792.11,-19.59 788.16,-29.42 795.15,-29.74"/>
</g>
<!-- Node29 -->
<g id="node29" class="node">
<title>Node29</title>
<g id="a_node29"><a xlink:title=" ">
<polygon fill="white" stroke="#bfbfbf" points="486,-0.5 486,-19.5 539,-19.5 539,-0.5 486,-0.5"/>
<text text-anchor="middle" x="512.5" y="-7.5" font-family="Helvetica,sans-Serif" font-size="10.00">cstddef</text>
</a>
</g>
</g>
<!-- Node28&#45;&gt;Node29 -->
<g id="edge32" class="edge">
<title>Node28&#45;&gt;Node29</title>
<path fill="none" stroke="midnightblue" d="M512.5,-56.08C512.5,-49.01 512.5,-38.86 512.5,-29.99"/>
<polygon fill="midnightblue" stroke="midnightblue" points="516,-29.75 512.5,-19.75 509,-29.75 516,-29.75"/>
</g>
<!-- Node28&#45;&gt;Node30 -->
<g id="edge33" class="edge">
<title>Node28&#45;&gt;Node30</title>
<path fill="none" stroke="midnightblue" d="M540.86,-56.44C572.22,-46.98 622.76,-31.74 656.54,-21.55"/>
<polygon fill="midnightblue" stroke="midnightblue" points="657.88,-24.8 666.45,-18.56 655.86,-18.1 657.88,-24.8"/>
</g>
<!-- Node28&#45;&gt;Node31 -->
<g id="edge34" class="edge">
<title>Node28&#45;&gt;Node31</title>
<path fill="none" stroke="midnightblue" d="M560.32,-60.41C575.12,-58.99 591.49,-57.43 606.5,-56 772.6,-40.2 818.43,-50.1 986.87,-19.79"/>
<polygon fill="midnightblue" stroke="midnightblue" points="987.61,-23.22 996.82,-17.98 986.35,-16.33 987.61,-23.22"/>
</g>
<!-- Node35&#45;&gt;Node16 -->
<g id="edge46" class="edge">
<title>Node35&#45;&gt;Node16</title>
<path fill="none" stroke="midnightblue" d="M858.11,-56.99C810.83,-48.58 734.33,-34.79 658.31,-20.12"/>
<polygon fill="midnightblue" stroke="midnightblue" points="658.56,-16.61 648.07,-18.14 657.23,-23.48 658.56,-16.61"/>
</g>
<!-- Node35&#45;&gt;Node18 -->
<g id="edge44" class="edge">
<title>Node35&#45;&gt;Node18</title>
<path fill="none" stroke="midnightblue" d="M948.65,-58.7C1027.57,-47.69 1188.78,-25.19 1257.88,-15.55"/>
<polygon fill="midnightblue" stroke="midnightblue" points="1258.73,-18.97 1268.15,-14.12 1257.76,-12.03 1258.73,-18.97"/>
</g>
<!-- Node35&#45;&gt;Node31 -->
<g id="edge47" class="edge">
<title>Node35&#45;&gt;Node31</title>
<path fill="none" stroke="midnightblue" d="M922.04,-56.44C941.12,-47.64 971.07,-33.81 992.94,-23.72"/>
<polygon fill="midnightblue" stroke="midnightblue" points="994.43,-26.88 1002.05,-19.52 991.5,-20.53 994.43,-26.88"/>
</g>
<!-- Node35&#45;&gt;Node32 -->
<g id="edge42" class="edge">
<title>Node35&#45;&gt;Node32</title>
<path fill="none" stroke="midnightblue" d="M858.15,-61.07C763.75,-52.75 548.94,-33.06 476.5,-20 475.25,-19.77 473.98,-19.53 472.7,-19.27"/>
<polygon fill="midnightblue" stroke="midnightblue" points="473.39,-15.83 462.86,-17.02 471.83,-22.66 473.39,-15.83"/>
</g>
<!-- Node35&#45;&gt;Node34 -->
<g id="edge45" class="edge">
<title>Node35&#45;&gt;Node34</title>
<path fill="none" stroke="midnightblue" d="M885.67,-56.32C867.78,-47.62 840.02,-34.12 819.45,-24.11"/>
<polygon fill="midnightblue" stroke="midnightblue" points="820.81,-20.88 810.29,-19.65 817.75,-27.18 820.81,-20.88"/>
</g>
<!-- Node36 -->
<g id="node36" class="node">
<title>Node36</title>
<g id="a_node36"><a xlink:title=" ">
<polygon fill="white" stroke="#bfbfbf" points="847.5,-0.5 847.5,-19.5 911.5,-19.5 911.5,-0.5 847.5,-0.5"/>
<text text-anchor="middle" x="879.5" y="-7.5" font-family="Helvetica,sans-Serif" font-size="10.00">algorithm</text>
</a>
</g>
</g>
<!-- Node35&#45;&gt;Node36 -->
<g id="edge41" class="edge">
<title>Node35&#45;&gt;Node36</title>
<path fill="none" stroke="midnightblue" d="M899.54,-56.08C896.29,-48.77 891.58,-38.18 887.55,-29.1"/>
<polygon fill="midnightblue" stroke="midnightblue" points="890.65,-27.47 883.39,-19.75 884.25,-30.31 890.65,-27.47"/>
</g>
<!-- Node37 -->
<g id="node37" class="node">
<title>Node37</title>
<g id="a_node37"><a xlink:title=" ">
<polygon fill="white" stroke="#bfbfbf" points="930,-0.5 930,-19.5 979,-19.5 979,-0.5 930,-0.5"/>
<text text-anchor="middle" x="954.5" y="-7.5" font-family="Helvetica,sans-Serif" font-size="10.00">cctype</text>
</a>
</g>
</g>
<!-- Node35&#45;&gt;Node37 -->
<g id="edge43" class="edge">
<title>Node35&#45;&gt;Node37</title>
<path fill="none" stroke="midnightblue" d="M911.92,-56.08C919.35,-48.22 930.35,-36.57 939.31,-27.08"/>
<polygon fill="midnightblue" stroke="midnightblue" points="941.91,-29.42 946.24,-19.75 936.82,-24.62 941.91,-29.42"/>
</g>
<!-- Node38&#45;&gt;Node16 -->
<g id="edge58" class="edge">
<title>Node38&#45;&gt;Node16</title>
<path fill="none" stroke="midnightblue" d="M1041.44,-113.8C1038.42,-113.19 1035.4,-112.58 1032.5,-112 951.23,-95.69 930.18,-95.02 849.5,-76 812.14,-67.19 709.98,-38.45 653.09,-22.29"/>
<polygon fill="midnightblue" stroke="midnightblue" points="653.93,-18.89 643.35,-19.52 652.01,-25.62 653.93,-18.89"/>
</g>
<!-- Node38&#45;&gt;Node31 -->
<g id="edge59" class="edge">
<title>Node38&#45;&gt;Node31</title>
<path fill="none" stroke="midnightblue" d="M1072.11,-112.37C1062.95,-94.38 1041.65,-52.55 1029.47,-28.63"/>
<polygon fill="midnightblue" stroke="midnightblue" points="1032.53,-26.92 1024.87,-19.59 1026.29,-30.09 1032.53,-26.92"/>
</g>
<!-- Node38&#45;&gt;Node35 -->
<g id="edge49" class="edge">
<title>Node38&#45;&gt;Node35</title>
<path fill="none" stroke="midnightblue" d="M1049.09,-112.44C1019.73,-103.28 972.98,-88.69 940.4,-78.52"/>
<polygon fill="midnightblue" stroke="midnightblue" points="941.37,-75.16 930.78,-75.52 939.29,-81.84 941.37,-75.16"/>
</g>
<!-- Node38&#45;&gt;Node39 -->
<g id="edge50" class="edge">
<title>Node38&#45;&gt;Node39</title>
<path fill="none" stroke="midnightblue" d="M1104.39,-112.44C1134.25,-103.28 1181.81,-88.69 1214.96,-78.52"/>
<polygon fill="midnightblue" stroke="midnightblue" points="1216.21,-81.8 1224.74,-75.52 1214.16,-75.1 1216.21,-81.8"/>
</g>
<!-- Node41 -->
<g id="node41" class="node">
<title>Node41</title>
<g id="a_node41"><a xlink:title=" ">
<polygon fill="white" stroke="#bfbfbf" points="1080.5,-56.5 1080.5,-75.5 1138.5,-75.5 1138.5,-56.5 1080.5,-56.5"/>
<text text-anchor="middle" x="1109.5" y="-63.5" font-family="Helvetica,sans-Serif" font-size="10.00">memory</text>
</a>
</g>
</g>
<!-- Node38&#45;&gt;Node41 -->
<g id="edge56" class="edge">
<title>Node38&#45;&gt;Node41</title>
<path fill="none" stroke="midnightblue" d="M1081.95,-112.08C1086.51,-104.61 1093.17,-93.72 1098.79,-84.52"/>
<polygon fill="midnightblue" stroke="midnightblue" points="1101.92,-86.11 1104.15,-75.75 1095.95,-82.46 1101.92,-86.11"/>
</g>
<!-- Node42 -->
<g id="node42" class="node">
<title>Node42</title>
<g id="a_node42"><a xlink:title=" ">
<polygon fill="white" stroke="#bfbfbf" points="1157,-56.5 1157,-75.5 1198,-75.5 1198,-56.5 1157,-56.5"/>
<text text-anchor="middle" x="1177.5" y="-63.5" font-family="Helvetica,sans-Serif" font-size="10.00">tuple</text>
</a>
</g>
</g>
<!-- Node38&#45;&gt;Node42 -->
<g id="edge57" class="edge">
<title>Node38&#45;&gt;Node42</title>
<path fill="none" stroke="midnightblue" d="M1092.73,-112.32C1108.85,-103.7 1133.8,-90.36 1152.46,-80.39"/>
<polygon fill="midnightblue" stroke="midnightblue" points="1154.14,-83.46 1161.31,-75.65 1150.84,-77.28 1154.14,-83.46"/>
</g>
<!-- Node39&#45;&gt;Node18 -->
<g id="edge54" class="edge">
<title>Node39&#45;&gt;Node18</title>
<path fill="none" stroke="midnightblue" d="M1258.77,-56.08C1264.14,-48.46 1272.02,-37.26 1278.58,-27.94"/>
<polygon fill="midnightblue" stroke="midnightblue" points="1281.45,-29.94 1284.34,-19.75 1275.72,-25.91 1281.45,-29.94"/>
</g>
<!-- Node39&#45;&gt;Node25 -->
<g id="edge52" class="edge">
<title>Node39&#45;&gt;Node25</title>
<path fill="none" stroke="midnightblue" d="M1274.84,-56.44C1298.25,-47.48 1335.24,-33.31 1361.69,-23.18"/>
<polygon fill="midnightblue" stroke="midnightblue" points="1363.18,-26.36 1371.26,-19.52 1360.67,-19.82 1363.18,-26.36"/>
</g>
<!-- Node39&#45;&gt;Node30 -->
<g id="edge51" class="edge">
<title>Node39&#45;&gt;Node30</title>
<path fill="none" stroke="midnightblue" d="M1215.72,-57.27C1212.95,-56.8 1210.18,-56.37 1207.5,-56 1003.93,-27.8 950.53,-44.62 746.5,-20 740.07,-19.22 733.24,-18.24 726.66,-17.21"/>
<polygon fill="midnightblue" stroke="midnightblue" points="727.06,-13.72 716.63,-15.57 725.93,-20.63 727.06,-13.72"/>
</g>
<!-- Node39&#45;&gt;Node31 -->
<g id="edge55" class="edge">
<title>Node39&#45;&gt;Node31</title>
<path fill="none" stroke="midnightblue" d="M1215.99,-56.5C1171.55,-46.16 1097.11,-28.83 1054.05,-18.81"/>
<polygon fill="midnightblue" stroke="midnightblue" points="1054.61,-15.35 1044.07,-16.49 1053.02,-22.16 1054.61,-15.35"/>
</g>
<!-- Node39&#45;&gt;Node40 -->
<g id="edge53" class="edge">
<title>Node39&#45;&gt;Node40</title>
<path fill="none" stroke="midnightblue" d="M1289.12,-56.62C1331.52,-46.92 1401.25,-30.96 1446,-20.72"/>
<polygon fill="midnightblue" stroke="midnightblue" points="1447.01,-24.08 1455.98,-18.44 1445.45,-17.26 1447.01,-24.08"/>
</g>
</g>
</svg>
