<?xml version="1.0" encoding="UTF-8" standalone="no"?>
<!DOCTYPE svg PUBLIC "-//W3C//DTD SVG 1.1//EN"
 "http://www.w3.org/Graphics/SVG/1.1/DTD/svg11.dtd">
<!-- Generated by graphviz version 2.43.0 (0)
 -->
<!-- Title: src/enclave/reconfiguration_type.h Pages: 1 -->
<svg width="583pt" height="274pt"
 viewBox="0.00 0.00 582.50 274.00" xmlns="http://www.w3.org/2000/svg" xmlns:xlink="http://www.w3.org/1999/xlink">
<g id="graph0" class="graph" transform="scale(1 1) rotate(0) translate(4 270)">
<title>src/enclave/reconfiguration_type.h</title>
<polygon fill="white" stroke="transparent" points="-4,4 -4,-270 578.5,-270 578.5,4 -4,4"/>
<!-- Node1 -->
<g id="node1" class="node">
<title>Node1</title>
<g id="a_node1"><a xlink:title=" ">
<polygon fill="#bfbfbf" stroke="black" points="362,-235.5 362,-265.5 511,-265.5 511,-235.5 362,-235.5"/>
<text text-anchor="start" x="370" y="-253.5" font-family="Helvetica,sans-Serif" font-size="10.00">src/enclave/reconfiguration</text>
<text text-anchor="middle" x="436.5" y="-242.5" font-family="Helvetica,sans-Serif" font-size="10.00">_type.h</text>
</a>
</g>
</g>
<!-- Node2 -->
<g id="node2" class="node">
<title>Node2</title>
<g id="a_node2"><a xlink:href="json_8h.html" target="_top" xlink:title=" ">
<polygon fill="white" stroke="black" points="333,-174 333,-193 410,-193 410,-174 333,-174"/>
<text text-anchor="middle" x="371.5" y="-181" font-family="Helvetica,sans-Serif" font-size="10.00">ccf/ds/json.h</text>
</a>
</g>
</g>
<!-- Node1&#45;&gt;Node2 -->
<g id="edge1" class="edge">
<title>Node1&#45;&gt;Node2</title>
<path fill="none" stroke="midnightblue" d="M422.4,-235.4C412.06,-225.06 398.02,-211.02 387.31,-200.31"/>
<polygon fill="midnightblue" stroke="midnightblue" points="389.74,-197.79 380.19,-193.19 384.79,-202.74 389.74,-197.79"/>
</g>
<!-- Node16 -->
<g id="node16" class="node">
<title>Node16</title>
<g id="a_node16"><a xlink:href="include_2ccf_2service_2reconfiguration__type_8h.html" target="_top" xlink:title=" ">
<polygon fill="white" stroke="black" points="428.5,-168.5 428.5,-198.5 574.5,-198.5 574.5,-168.5 428.5,-168.5"/>
<text text-anchor="start" x="436.5" y="-186.5" font-family="Helvetica,sans-Serif" font-size="10.00">ccf/service/reconfiguration</text>
<text text-anchor="middle" x="501.5" y="-175.5" font-family="Helvetica,sans-Serif" font-size="10.00">_type.h</text>
</a>
</g>
</g>
<!-- Node1&#45;&gt;Node16 -->
<g id="edge18" class="edge">
<title>Node1&#45;&gt;Node16</title>
<path fill="none" stroke="midnightblue" d="M450.6,-235.4C459.29,-226.71 470.6,-215.4 480.34,-205.66"/>
<polygon fill="midnightblue" stroke="midnightblue" points="482.83,-208.12 487.42,-198.58 477.88,-203.17 482.83,-208.12"/>
</g>
<!-- Node3 -->
<g id="node3" class="node">
<title>Node3</title>
<g id="a_node3"><a xlink:href="include_2ccf_2crypto_2base64_8h.html" target="_top" xlink:title=" ">
<polygon fill="white" stroke="black" points="31.5,-56.5 31.5,-75.5 143.5,-75.5 143.5,-56.5 31.5,-56.5"/>
<text text-anchor="middle" x="87.5" y="-63.5" font-family="Helvetica,sans-Serif" font-size="10.00">ccf/crypto/base64.h</text>
</a>
</g>
</g>
<!-- Node2&#45;&gt;Node3 -->
<g id="edge2" class="edge">
<title>Node2&#45;&gt;Node3</title>
<path fill="none" stroke="midnightblue" d="M350.15,-173.82C300.28,-153.53 175.95,-102.97 118.06,-79.43"/>
<polygon fill="midnightblue" stroke="midnightblue" points="119.29,-76.15 108.71,-75.62 116.65,-82.63 119.29,-76.15"/>
</g>
<!-- Node6 -->
<g id="node6" class="node">
<title>Node6</title>
<g id="a_node6"><a xlink:href="include_2ccf_2ds_2json__schema_8h.html" target="_top" xlink:title=" ">
<polygon fill="white" stroke="black" points="267,-112.5 267,-131.5 388,-131.5 388,-112.5 267,-112.5"/>
<text text-anchor="middle" x="327.5" y="-119.5" font-family="Helvetica,sans-Serif" font-size="10.00">ccf/ds/json_schema.h</text>
</a>
</g>
</g>
<!-- Node2&#45;&gt;Node6 -->
<g id="edge5" class="edge">
<title>Node2&#45;&gt;Node6</title>
<path fill="none" stroke="midnightblue" d="M365.2,-173.98C358.6,-165.05 348.06,-150.81 339.81,-139.64"/>
<polygon fill="midnightblue" stroke="midnightblue" points="342.55,-137.47 333.79,-131.51 336.92,-141.63 342.55,-137.47"/>
</g>
<!-- Node13 -->
<g id="node13" class="node">
<title>Node13</title>
<g id="a_node13"><a xlink:title=" ">
<polygon fill="white" stroke="#bfbfbf" points="401,-56.5 401,-75.5 480,-75.5 480,-56.5 401,-56.5"/>
<text text-anchor="middle" x="440.5" y="-63.5" font-family="Helvetica,sans-Serif" font-size="10.00">fmt/format.h</text>
</a>
</g>
</g>
<!-- Node2&#45;&gt;Node13 -->
<g id="edge16" class="edge">
<title>Node2&#45;&gt;Node13</title>
<path fill="none" stroke="midnightblue" d="M376.69,-173.82C387.97,-154.92 414.96,-109.75 429.97,-84.62"/>
<polygon fill="midnightblue" stroke="midnightblue" points="433.13,-86.16 435.25,-75.78 427.12,-82.57 433.13,-86.16"/>
</g>
<!-- Node15 -->
<g id="node15" class="node">
<title>Node15</title>
<g id="a_node15"><a xlink:title=" ">
<polygon fill="white" stroke="#bfbfbf" points="444.5,-112.5 444.5,-131.5 500.5,-131.5 500.5,-112.5 444.5,-112.5"/>
<text text-anchor="middle" x="472.5" y="-119.5" font-family="Helvetica,sans-Serif" font-size="10.00">sstream</text>
</a>
</g>
</g>
<!-- Node2&#45;&gt;Node15 -->
<g id="edge17" class="edge">
<title>Node2&#45;&gt;Node15</title>
<path fill="none" stroke="midnightblue" d="M385.97,-173.98C402.47,-164.25 429.68,-148.23 449.18,-136.74"/>
<polygon fill="midnightblue" stroke="midnightblue" points="451.22,-139.6 458.06,-131.51 447.66,-133.57 451.22,-139.6"/>
</g>
<!-- Node4 -->
<g id="node4" class="node">
<title>Node4</title>
<g id="a_node4"><a xlink:title=" ">
<polygon fill="white" stroke="#bfbfbf" points="65.5,-0.5 65.5,-19.5 109.5,-19.5 109.5,-0.5 65.5,-0.5"/>
<text text-anchor="middle" x="87.5" y="-7.5" font-family="Helvetica,sans-Serif" font-size="10.00">string</text>
</a>
</g>
</g>
<!-- Node3&#45;&gt;Node4 -->
<g id="edge3" class="edge">
<title>Node3&#45;&gt;Node4</title>
<path fill="none" stroke="midnightblue" d="M87.5,-56.08C87.5,-49.01 87.5,-38.86 87.5,-29.99"/>
<polygon fill="midnightblue" stroke="midnightblue" points="91,-29.75 87.5,-19.75 84,-29.75 91,-29.75"/>
</g>
<!-- Node5 -->
<g id="node5" class="node">
<title>Node5</title>
<g id="a_node5"><a xlink:title=" ">
<polygon fill="white" stroke="#bfbfbf" points="0,-0.5 0,-19.5 47,-19.5 47,-0.5 0,-0.5"/>
<text text-anchor="middle" x="23.5" y="-7.5" font-family="Helvetica,sans-Serif" font-size="10.00">vector</text>
</a>
</g>
</g>
<!-- Node3&#45;&gt;Node5 -->
<g id="edge4" class="edge">
<title>Node3&#45;&gt;Node5</title>
<path fill="none" stroke="midnightblue" d="M77.22,-56.32C67.66,-48.26 53.22,-36.08 41.72,-26.37"/>
<polygon fill="midnightblue" stroke="midnightblue" points="43.87,-23.61 33.97,-19.83 39.36,-28.96 43.87,-23.61"/>
</g>
<!-- Node7 -->
<g id="node7" class="node">
<title>Node7</title>
<g id="a_node7"><a xlink:href="nonstd_8h.html" target="_top" xlink:title=" ">
<polygon fill="white" stroke="black" points="164.5,-56.5 164.5,-75.5 254.5,-75.5 254.5,-56.5 164.5,-56.5"/>
<text text-anchor="middle" x="209.5" y="-63.5" font-family="Helvetica,sans-Serif" font-size="10.00">ccf/ds/nonstd.h</text>
</a>
</g>
</g>
<!-- Node6&#45;&gt;Node7 -->
<g id="edge6" class="edge">
<title>Node6&#45;&gt;Node7</title>
<path fill="none" stroke="midnightblue" d="M308.8,-112.44C289.56,-103.64 259.35,-89.81 237.3,-79.72"/>
<polygon fill="midnightblue" stroke="midnightblue" points="238.66,-76.5 228.11,-75.52 235.75,-82.86 238.66,-76.5"/>
</g>
<!-- Node6&#45;&gt;Node13 -->
<g id="edge14" class="edge">
<title>Node6&#45;&gt;Node13</title>
<path fill="none" stroke="midnightblue" d="M345.41,-112.44C363.75,-103.68 392.51,-89.94 413.59,-79.86"/>
<polygon fill="midnightblue" stroke="midnightblue" points="415.17,-82.99 422.68,-75.52 412.15,-76.67 415.17,-82.99"/>
</g>
<!-- Node14 -->
<g id="node14" class="node">
<title>Node14</title>
<g id="a_node14"><a xlink:title=" ">
<polygon fill="white" stroke="#bfbfbf" points="272.5,-56.5 272.5,-75.5 382.5,-75.5 382.5,-56.5 272.5,-56.5"/>
<text text-anchor="middle" x="327.5" y="-63.5" font-family="Helvetica,sans-Serif" font-size="10.00">nlohmann/json.hpp</text>
</a>
</g>
</g>
<!-- Node6&#45;&gt;Node14 -->
<g id="edge15" class="edge">
<title>Node6&#45;&gt;Node14</title>
<path fill="none" stroke="midnightblue" d="M327.5,-112.08C327.5,-105.01 327.5,-94.86 327.5,-85.99"/>
<polygon fill="midnightblue" stroke="midnightblue" points="331,-85.75 327.5,-75.75 324,-85.75 331,-85.75"/>
</g>
<!-- Node7&#45;&gt;Node4 -->
<g id="edge10" class="edge">
<title>Node7&#45;&gt;Node4</title>
<path fill="none" stroke="midnightblue" d="M190.17,-56.44C170.18,-47.6 138.76,-33.69 115.94,-23.59"/>
<polygon fill="midnightblue" stroke="midnightblue" points="117.3,-20.36 106.74,-19.52 114.47,-26.76 117.3,-20.36"/>
</g>
<!-- Node7&#45;&gt;Node5 -->
<g id="edge13" class="edge">
<title>Node7&#45;&gt;Node5</title>
<path fill="none" stroke="midnightblue" d="M180.03,-56.44C146.56,-46.73 92.06,-30.9 57,-20.73"/>
<polygon fill="midnightblue" stroke="midnightblue" points="57.81,-17.32 47.23,-17.89 55.86,-24.04 57.81,-17.32"/>
</g>
<!-- Node8 -->
<g id="node8" class="node">
<title>Node8</title>
<g id="a_node8"><a xlink:title=" ">
<polygon fill="white" stroke="#bfbfbf" points="433.5,-0.5 433.5,-19.5 497.5,-19.5 497.5,-0.5 433.5,-0.5"/>
<text text-anchor="middle" x="465.5" y="-7.5" font-family="Helvetica,sans-Serif" font-size="10.00">algorithm</text>
</a>
</g>
</g>
<!-- Node7&#45;&gt;Node8 -->
<g id="edge7" class="edge">
<title>Node7&#45;&gt;Node8</title>
<path fill="none" stroke="midnightblue" d="M250.74,-56.49C291.93,-47.97 357.32,-34.36 423.14,-20.28"/>
<polygon fill="midnightblue" stroke="midnightblue" points="424.23,-23.62 433.28,-18.1 422.77,-16.78 424.23,-23.62"/>
</g>
<!-- Node9 -->
<g id="node9" class="node">
<title>Node9</title>
<g id="a_node9"><a xlink:title=" ">
<polygon fill="white" stroke="#bfbfbf" points="127.5,-0.5 127.5,-19.5 169.5,-19.5 169.5,-0.5 127.5,-0.5"/>
<text text-anchor="middle" x="148.5" y="-7.5" font-family="Helvetica,sans-Serif" font-size="10.00">array</text>
</a>
</g>
</g>
<!-- Node7&#45;&gt;Node9 -->
<g id="edge8" class="edge">
<title>Node7&#45;&gt;Node9</title>
<path fill="none" stroke="midnightblue" d="M199.7,-56.32C190.68,-48.34 177.09,-36.31 166.18,-26.65"/>
<polygon fill="midnightblue" stroke="midnightblue" points="168.29,-23.84 158.48,-19.83 163.65,-29.08 168.29,-23.84"/>
</g>
<!-- Node10 -->
<g id="node10" class="node">
<title>Node10</title>
<g id="a_node10"><a xlink:title=" ">
<polygon fill="white" stroke="#bfbfbf" points="188,-0.5 188,-19.5 237,-19.5 237,-0.5 188,-0.5"/>
<text text-anchor="middle" x="212.5" y="-7.5" font-family="Helvetica,sans-Serif" font-size="10.00">cctype</text>
</a>
</g>
</g>
<!-- Node7&#45;&gt;Node10 -->
<g id="edge9" class="edge">
<title>Node7&#45;&gt;Node10</title>
<path fill="none" stroke="midnightblue" d="M210,-56.08C210.39,-49.01 210.95,-38.86 211.45,-29.99"/>
<polygon fill="midnightblue" stroke="midnightblue" points="214.95,-29.93 212.01,-19.75 207.96,-29.54 214.95,-29.93"/>
</g>
<!-- Node11 -->
<g id="node11" class="node">
<title>Node11</title>
<g id="a_node11"><a xlink:title=" ">
<polygon fill="white" stroke="#bfbfbf" points="255,-0.5 255,-19.5 328,-19.5 328,-0.5 255,-0.5"/>
<text text-anchor="middle" x="291.5" y="-7.5" font-family="Helvetica,sans-Serif" font-size="10.00">string_view</text>
</a>
</g>
</g>
<!-- Node7&#45;&gt;Node11 -->
<g id="edge11" class="edge">
<title>Node7&#45;&gt;Node11</title>
<path fill="none" stroke="midnightblue" d="M222.67,-56.32C235.35,-47.98 254.73,-35.21 269.71,-25.35"/>
<polygon fill="midnightblue" stroke="midnightblue" points="271.93,-28.08 278.36,-19.65 268.08,-22.23 271.93,-28.08"/>
</g>
<!-- Node12 -->
<g id="node12" class="node">
<title>Node12</title>
<g id="a_node12"><a xlink:title=" ">
<polygon fill="white" stroke="#bfbfbf" points="346,-0.5 346,-19.5 415,-19.5 415,-0.5 346,-0.5"/>
<text text-anchor="middle" x="380.5" y="-7.5" font-family="Helvetica,sans-Serif" font-size="10.00">type_traits</text>
</a>
</g>
</g>
<!-- Node7&#45;&gt;Node12 -->
<g id="edge12" class="edge">
<title>Node7&#45;&gt;Node12</title>
<path fill="none" stroke="midnightblue" d="M236.6,-56.44C265.49,-47.32 311.42,-32.81 343.61,-22.65"/>
<polygon fill="midnightblue" stroke="midnightblue" points="345.05,-25.87 353.53,-19.52 342.94,-19.19 345.05,-25.87"/>
</g>
</g>
</svg>
