<?xml version="1.0" encoding="UTF-8" standalone="no"?>
<!DOCTYPE svg PUBLIC "-//W3C//DTD SVG 1.1//EN"
 "http://www.w3.org/Graphics/SVG/1.1/DTD/svg11.dtd">
<!-- Generated by graphviz version 2.43.0 (0)
 -->
<!-- Title: src/crypto/openssl/entropy.h Pages: 1 -->
<svg width="1814pt" height="375pt"
 viewBox="0.00 0.00 1813.50 375.00" xmlns="http://www.w3.org/2000/svg" xmlns:xlink="http://www.w3.org/1999/xlink">
<g id="graph0" class="graph" transform="scale(1 1) rotate(0) translate(4 371)">
<title>src/crypto/openssl/entropy.h</title>
<polygon fill="white" stroke="transparent" points="-4,4 -4,-371 1809.5,-371 1809.5,4 -4,4"/>
<!-- Node1 -->
<g id="node1" class="node">
<title>Node1</title>
<g id="a_node1"><a xlink:title=" ">
<polygon fill="#bfbfbf" stroke="black" points="1265,-336.5 1265,-366.5 1370,-366.5 1370,-336.5 1265,-336.5"/>
<text text-anchor="start" x="1273" y="-354.5" font-family="Helvetica,sans-Serif" font-size="10.00">src/crypto/openssl</text>
<text text-anchor="middle" x="1317.5" y="-343.5" font-family="Helvetica,sans-Serif" font-size="10.00">/entropy.h</text>
</a>
</g>
</g>
<!-- Node2 -->
<g id="node2" class="node">
<title>Node2</title>
<g id="a_node2"><a xlink:href="include_2ccf_2crypto_2entropy_8h.html" target="_top" xlink:title=" ">
<polygon fill="white" stroke="black" points="194,-224.5 194,-243.5 307,-243.5 307,-224.5 194,-224.5"/>
<text text-anchor="middle" x="250.5" y="-231.5" font-family="Helvetica,sans-Serif" font-size="10.00">ccf/crypto/entropy.h</text>
</a>
</g>
</g>
<!-- Node1&#45;&gt;Node2 -->
<g id="edge1" class="edge">
<title>Node1&#45;&gt;Node2</title>
<path fill="none" stroke="midnightblue" d="M1264.93,-349.91C1071.88,-347.46 408.71,-336.46 321.5,-300 297.27,-289.87 276.03,-267.68 263.24,-252.06"/>
<polygon fill="midnightblue" stroke="midnightblue" points="265.66,-249.46 256.73,-243.76 260.15,-253.79 265.66,-249.46"/>
</g>
<!-- Node8 -->
<g id="node8" class="node">
<title>Node8</title>
<g id="a_node8"><a xlink:title=" ">
<polygon fill="white" stroke="#bfbfbf" points="677.5,-168.5 677.5,-187.5 735.5,-187.5 735.5,-168.5 677.5,-168.5"/>
<text text-anchor="middle" x="706.5" y="-175.5" font-family="Helvetica,sans-Serif" font-size="10.00">memory</text>
</a>
</g>
</g>
<!-- Node1&#45;&gt;Node8 -->
<g id="edge57" class="edge">
<title>Node1&#45;&gt;Node8</title>
<path fill="none" stroke="midnightblue" d="M1264.87,-348.5C1076.45,-340.81 443.56,-310.18 384.5,-244 378.58,-237.37 378.63,-230.68 384.5,-224 425.78,-177.05 601.86,-198.41 663.5,-188 664.77,-187.79 666.06,-187.56 667.36,-187.33"/>
<polygon fill="midnightblue" stroke="midnightblue" points="668.25,-190.72 677.41,-185.41 666.94,-183.84 668.25,-190.72"/>
</g>
<!-- Node11 -->
<g id="node11" class="node">
<title>Node11</title>
<g id="a_node11"><a xlink:title=" ">
<polygon fill="white" stroke="#bfbfbf" points="1042,-0.5 1042,-19.5 1089,-19.5 1089,-0.5 1042,-0.5"/>
<text text-anchor="middle" x="1065.5" y="-7.5" font-family="Helvetica,sans-Serif" font-size="10.00">vector</text>
</a>
</g>
</g>
<!-- Node1&#45;&gt;Node11 -->
<g id="edge59" class="edge">
<title>Node1&#45;&gt;Node11</title>
<path fill="none" stroke="midnightblue" d="M1370.32,-340.55C1453.47,-323.37 1605.5,-285.1 1605.5,-235 1605.5,-235 1605.5,-235 1605.5,-121 1605.5,-17.2 1217.58,-10.34 1099.32,-10.65"/>
<polygon fill="midnightblue" stroke="midnightblue" points="1099.03,-7.15 1089.05,-10.7 1099.07,-14.15 1099.03,-7.15"/>
</g>
<!-- Node12 -->
<g id="node12" class="node">
<title>Node12</title>
<g id="a_node12"><a xlink:href="openssl__wrappers_8h.html" target="_top" xlink:title=" ">
<polygon fill="white" stroke="black" points="986,-280.5 986,-299.5 1099,-299.5 1099,-280.5 986,-280.5"/>
<text text-anchor="middle" x="1042.5" y="-287.5" font-family="Helvetica,sans-Serif" font-size="10.00">openssl_wrappers.h</text>
</a>
</g>
</g>
<!-- Node1&#45;&gt;Node12 -->
<g id="edge11" class="edge">
<title>Node1&#45;&gt;Node12</title>
<path fill="none" stroke="midnightblue" d="M1264.8,-339.1C1215.01,-328.32 1140.87,-312.28 1092.11,-301.73"/>
<polygon fill="midnightblue" stroke="midnightblue" points="1092.62,-298.26 1082.11,-299.57 1091.14,-305.11 1092.62,-298.26"/>
</g>
<!-- Node43 -->
<g id="node43" class="node">
<title>Node43</title>
<g id="a_node43"><a xlink:title=" ">
<polygon fill="white" stroke="#bfbfbf" points="1634,-280.5 1634,-299.5 1699,-299.5 1699,-280.5 1634,-280.5"/>
<text text-anchor="middle" x="1666.5" y="-287.5" font-family="Helvetica,sans-Serif" font-size="10.00">functional</text>
</a>
</g>
</g>
<!-- Node1&#45;&gt;Node43 -->
<g id="edge56" class="edge">
<title>Node1&#45;&gt;Node43</title>
<path fill="none" stroke="midnightblue" d="M1370.21,-342.07C1430.53,-332.34 1532.25,-315.65 1619.5,-300 1620.96,-299.74 1622.44,-299.47 1623.93,-299.2"/>
<polygon fill="midnightblue" stroke="midnightblue" points="1624.71,-302.61 1633.9,-297.34 1623.43,-295.73 1624.71,-302.61"/>
</g>
<!-- Node44 -->
<g id="node44" class="node">
<title>Node44</title>
<g id="a_node44"><a xlink:title=" ">
<polygon fill="white" stroke="#bfbfbf" points="1717.5,-280.5 1717.5,-299.5 1805.5,-299.5 1805.5,-280.5 1717.5,-280.5"/>
<text text-anchor="middle" x="1761.5" y="-287.5" font-family="Helvetica,sans-Serif" font-size="10.00">openssl/rand.h</text>
</a>
</g>
</g>
<!-- Node1&#45;&gt;Node44 -->
<g id="edge58" class="edge">
<title>Node1&#45;&gt;Node44</title>
<path fill="none" stroke="midnightblue" d="M1370.08,-344.38C1443.33,-335.71 1580.48,-318.93 1707.38,-300.12"/>
<polygon fill="midnightblue" stroke="midnightblue" points="1707.9,-303.58 1717.27,-298.65 1706.87,-296.66 1707.9,-303.58"/>
</g>
<!-- Node3 -->
<g id="node3" class="node">
<title>Node3</title>
<g id="a_node3"><a xlink:href="hardware__info_8h.html" target="_top" xlink:title=" ">
<polygon fill="white" stroke="black" points="0,-168.5 0,-187.5 131,-187.5 131,-168.5 0,-168.5"/>
<text text-anchor="middle" x="65.5" y="-175.5" font-family="Helvetica,sans-Serif" font-size="10.00">ccf/pal/hardware_info.h</text>
</a>
</g>
</g>
<!-- Node2&#45;&gt;Node3 -->
<g id="edge2" class="edge">
<title>Node2&#45;&gt;Node3</title>
<path fill="none" stroke="midnightblue" d="M221.19,-224.44C189.66,-215.24 139.37,-200.56 104.51,-190.39"/>
<polygon fill="midnightblue" stroke="midnightblue" points="105.26,-186.96 94.68,-187.52 103.3,-193.68 105.26,-186.96"/>
</g>
<!-- Node5 -->
<g id="node5" class="node">
<title>Node5</title>
<g id="a_node5"><a xlink:title=" ">
<polygon fill="white" stroke="#bfbfbf" points="364.5,-168.5 364.5,-187.5 416.5,-187.5 416.5,-168.5 364.5,-168.5"/>
<text text-anchor="middle" x="390.5" y="-175.5" font-family="Helvetica,sans-Serif" font-size="10.00">cassert</text>
</a>
</g>
</g>
<!-- Node2&#45;&gt;Node5 -->
<g id="edge4" class="edge">
<title>Node2&#45;&gt;Node5</title>
<path fill="none" stroke="midnightblue" d="M272.68,-224.44C295.93,-215.48 332.65,-201.31 358.92,-191.18"/>
<polygon fill="midnightblue" stroke="midnightblue" points="360.35,-194.38 368.42,-187.52 357.83,-187.85 360.35,-194.38"/>
</g>
<!-- Node6 -->
<g id="node6" class="node">
<title>Node6</title>
<g id="a_node6"><a xlink:title=" ">
<polygon fill="white" stroke="#bfbfbf" points="149.5,-168.5 149.5,-187.5 199.5,-187.5 199.5,-168.5 149.5,-168.5"/>
<text text-anchor="middle" x="174.5" y="-175.5" font-family="Helvetica,sans-Serif" font-size="10.00">cstdint</text>
</a>
</g>
</g>
<!-- Node2&#45;&gt;Node6 -->
<g id="edge5" class="edge">
<title>Node2&#45;&gt;Node6</title>
<path fill="none" stroke="midnightblue" d="M238.29,-224.32C226.72,-216.11 209.12,-203.6 195.34,-193.81"/>
<polygon fill="midnightblue" stroke="midnightblue" points="197.11,-190.77 186.93,-187.83 193.06,-196.48 197.11,-190.77"/>
</g>
<!-- Node7 -->
<g id="node7" class="node">
<title>Node7</title>
<g id="a_node7"><a xlink:title=" ">
<polygon fill="white" stroke="#bfbfbf" points="804.5,-168.5 804.5,-187.5 854.5,-187.5 854.5,-168.5 804.5,-168.5"/>
<text text-anchor="middle" x="829.5" y="-175.5" font-family="Helvetica,sans-Serif" font-size="10.00">cstring</text>
</a>
</g>
</g>
<!-- Node2&#45;&gt;Node7 -->
<g id="edge6" class="edge">
<title>Node2&#45;&gt;Node7</title>
<path fill="none" stroke="midnightblue" d="M307.2,-228.11C399.08,-220.12 586.16,-203.59 744.5,-188 760.82,-186.39 778.89,-184.5 794.15,-182.86"/>
<polygon fill="midnightblue" stroke="midnightblue" points="794.65,-186.33 804.22,-181.77 793.9,-179.37 794.65,-186.33"/>
</g>
<!-- Node2&#45;&gt;Node8 -->
<g id="edge7" class="edge">
<title>Node2&#45;&gt;Node8</title>
<path fill="none" stroke="midnightblue" d="M307.07,-225.72C311.95,-225.12 316.81,-224.54 321.5,-224 473.32,-206.39 512.51,-211.69 663.5,-188 664.77,-187.8 666.06,-187.59 667.36,-187.37"/>
<polygon fill="midnightblue" stroke="midnightblue" points="668.23,-190.76 677.43,-185.5 666.96,-183.88 668.23,-190.76"/>
</g>
<!-- Node9 -->
<g id="node9" class="node">
<title>Node9</title>
<g id="a_node9"><a xlink:title=" ">
<polygon fill="white" stroke="#bfbfbf" points="218,-168.5 218,-187.5 283,-187.5 283,-168.5 218,-168.5"/>
<text text-anchor="middle" x="250.5" y="-175.5" font-family="Helvetica,sans-Serif" font-size="10.00">stdexcept</text>
</a>
</g>
</g>
<!-- Node2&#45;&gt;Node9 -->
<g id="edge8" class="edge">
<title>Node2&#45;&gt;Node9</title>
<path fill="none" stroke="midnightblue" d="M250.5,-224.08C250.5,-217.01 250.5,-206.86 250.5,-197.99"/>
<polygon fill="midnightblue" stroke="midnightblue" points="254,-197.75 250.5,-187.75 247,-197.75 254,-197.75"/>
</g>
<!-- Node10 -->
<g id="node10" class="node">
<title>Node10</title>
<g id="a_node10"><a xlink:title=" ">
<polygon fill="white" stroke="#bfbfbf" points="301,-168.5 301,-187.5 346,-187.5 346,-168.5 301,-168.5"/>
<text text-anchor="middle" x="323.5" y="-175.5" font-family="Helvetica,sans-Serif" font-size="10.00">utility</text>
</a>
</g>
</g>
<!-- Node2&#45;&gt;Node10 -->
<g id="edge9" class="edge">
<title>Node2&#45;&gt;Node10</title>
<path fill="none" stroke="midnightblue" d="M262.23,-224.32C273.34,-216.11 290.24,-203.6 303.48,-193.81"/>
<polygon fill="midnightblue" stroke="midnightblue" points="305.6,-196.59 311.56,-187.83 301.44,-190.97 305.6,-196.59"/>
</g>
<!-- Node2&#45;&gt;Node11 -->
<g id="edge10" class="edge">
<title>Node2&#45;&gt;Node11</title>
<path fill="none" stroke="midnightblue" d="M289.86,-224.48C325.62,-216.37 379.63,-203.16 425.5,-188 550.8,-146.58 580.85,-131.69 700.5,-76 717.8,-67.95 720.3,-61.74 738.5,-56 859.85,-17.76 897.02,-41.05 1022.5,-20 1025.56,-19.49 1028.73,-18.91 1031.91,-18.3"/>
<polygon fill="midnightblue" stroke="midnightblue" points="1032.79,-21.69 1041.91,-16.29 1031.41,-14.83 1032.79,-21.69"/>
</g>
<!-- Node4 -->
<g id="node4" class="node">
<title>Node4</title>
<g id="a_node4"><a xlink:title=" ">
<polygon fill="white" stroke="#bfbfbf" points="49.5,-112.5 49.5,-131.5 81.5,-131.5 81.5,-112.5 49.5,-112.5"/>
<text text-anchor="middle" x="65.5" y="-119.5" font-family="Helvetica,sans-Serif" font-size="10.00">set</text>
</a>
</g>
</g>
<!-- Node3&#45;&gt;Node4 -->
<g id="edge3" class="edge">
<title>Node3&#45;&gt;Node4</title>
<path fill="none" stroke="midnightblue" d="M65.5,-168.08C65.5,-161.01 65.5,-150.86 65.5,-141.99"/>
<polygon fill="midnightblue" stroke="midnightblue" points="69,-141.75 65.5,-131.75 62,-141.75 69,-141.75"/>
</g>
<!-- Node12&#45;&gt;Node8 -->
<g id="edge46" class="edge">
<title>Node12&#45;&gt;Node8</title>
<path fill="none" stroke="midnightblue" d="M985.93,-289.39C835.19,-289.82 432.56,-286.93 392.5,-244 386.44,-237.5 386.64,-230.69 392.5,-224 432.53,-178.3 603.62,-198.23 663.5,-188 664.77,-187.78 666.06,-187.56 667.36,-187.32"/>
<polygon fill="midnightblue" stroke="midnightblue" points="668.25,-190.71 677.41,-185.39 666.93,-183.84 668.25,-190.71"/>
</g>
<!-- Node13 -->
<g id="node13" class="node">
<title>Node13</title>
<g id="a_node13"><a xlink:href="pem_8h.html" target="_top" xlink:title=" ">
<polygon fill="white" stroke="black" points="1070.5,-224.5 1070.5,-243.5 1168.5,-243.5 1168.5,-224.5 1070.5,-224.5"/>
<text text-anchor="middle" x="1119.5" y="-231.5" font-family="Helvetica,sans-Serif" font-size="10.00">ccf/crypto/pem.h</text>
</a>
</g>
</g>
<!-- Node12&#45;&gt;Node13 -->
<g id="edge12" class="edge">
<title>Node12&#45;&gt;Node13</title>
<path fill="none" stroke="midnightblue" d="M1054.87,-280.32C1066.66,-272.06 1084.63,-259.45 1098.64,-249.63"/>
<polygon fill="midnightblue" stroke="midnightblue" points="1100.98,-252.26 1107.16,-243.65 1096.96,-246.53 1100.98,-252.26"/>
</g>
<!-- Node24 -->
<g id="node24" class="node">
<title>Node24</title>
<g id="a_node24"><a xlink:title=" ">
<polygon fill="white" stroke="#bfbfbf" points="876,-56.5 876,-75.5 955,-75.5 955,-56.5 876,-56.5"/>
<text text-anchor="middle" x="915.5" y="-63.5" font-family="Helvetica,sans-Serif" font-size="10.00">fmt/format.h</text>
</a>
</g>
</g>
<!-- Node12&#45;&gt;Node24 -->
<g id="edge45" class="edge">
<title>Node12&#45;&gt;Node24</title>
<path fill="none" stroke="midnightblue" d="M1042.7,-280.32C1042.51,-266.21 1039.92,-238.44 1023.5,-224 946.48,-156.24 862.14,-265.99 795.5,-188 789.73,-181.24 791.75,-176.06 795.5,-168 814.58,-127.01 859.38,-96.71 888.52,-80.47"/>
<polygon fill="midnightblue" stroke="midnightblue" points="890.24,-83.52 897.38,-75.69 886.92,-77.36 890.24,-83.52"/>
</g>
<!-- Node29 -->
<g id="node29" class="node">
<title>Node29</title>
<g id="a_node29"><a xlink:title=" ">
<polygon fill="white" stroke="#bfbfbf" points="1214.5,-112.5 1214.5,-131.5 1264.5,-131.5 1264.5,-112.5 1214.5,-112.5"/>
<text text-anchor="middle" x="1239.5" y="-119.5" font-family="Helvetica,sans-Serif" font-size="10.00">chrono</text>
</a>
</g>
</g>
<!-- Node12&#45;&gt;Node29 -->
<g id="edge36" class="edge">
<title>Node12&#45;&gt;Node29</title>
<path fill="none" stroke="midnightblue" d="M1098.61,-280.42C1124.97,-274.04 1155.38,-262.99 1177.5,-244 1209.62,-216.42 1227.17,-168.08 1234.79,-141.62"/>
<polygon fill="midnightblue" stroke="midnightblue" points="1238.23,-142.31 1237.47,-131.74 1231.48,-140.48 1238.23,-142.31"/>
</g>
<!-- Node30 -->
<g id="node30" class="node">
<title>Node30</title>
<g id="a_node30"><a xlink:href="x509__time__fmt_8h.html" target="_top" xlink:title=" ">
<polygon fill="white" stroke="black" points="1279.5,-168.5 1279.5,-187.5 1393.5,-187.5 1393.5,-168.5 1279.5,-168.5"/>
<text text-anchor="middle" x="1336.5" y="-175.5" font-family="Helvetica,sans-Serif" font-size="10.00">ds/x509_time_fmt.h</text>
</a>
</g>
</g>
<!-- Node12&#45;&gt;Node30 -->
<g id="edge37" class="edge">
<title>Node12&#45;&gt;Node30</title>
<path fill="none" stroke="midnightblue" d="M1099.11,-287.37C1171.79,-284.05 1292.26,-274.06 1323.5,-244 1335.67,-232.29 1338.16,-212.64 1338.07,-198.01"/>
<polygon fill="midnightblue" stroke="midnightblue" points="1341.54,-197.42 1337.58,-187.59 1334.55,-197.75 1341.54,-197.42"/>
</g>
<!-- Node34 -->
<g id="node34" class="node">
<title>Node34</title>
<g id="a_node34"><a xlink:title=" ">
<polygon fill="white" stroke="#bfbfbf" points="1225,-224.5 1225,-243.5 1314,-243.5 1314,-224.5 1225,-224.5"/>
<text text-anchor="middle" x="1269.5" y="-231.5" font-family="Helvetica,sans-Serif" font-size="10.00">openssl/asn1.h</text>
</a>
</g>
</g>
<!-- Node12&#45;&gt;Node34 -->
<g id="edge47" class="edge">
<title>Node12&#45;&gt;Node34</title>
<path fill="none" stroke="midnightblue" d="M1078.47,-280.44C1117.82,-271.08 1180.99,-256.06 1223.81,-245.87"/>
<polygon fill="midnightblue" stroke="midnightblue" points="1224.78,-249.24 1233.7,-243.52 1223.16,-242.43 1224.78,-249.24"/>
</g>
<!-- Node35 -->
<g id="node35" class="node">
<title>Node35</title>
<g id="a_node35"><a xlink:title=" ">
<polygon fill="white" stroke="#bfbfbf" points="1371,-224.5 1371,-243.5 1448,-243.5 1448,-224.5 1371,-224.5"/>
<text text-anchor="middle" x="1409.5" y="-231.5" font-family="Helvetica,sans-Serif" font-size="10.00">openssl/ec.h</text>
</a>
</g>
</g>
<!-- Node12&#45;&gt;Node35 -->
<g id="edge48" class="edge">
<title>Node12&#45;&gt;Node35</title>
<path fill="none" stroke="midnightblue" d="M1099.01,-281.35C1161.92,-272.73 1266.59,-258.07 1356.5,-244 1357.8,-243.8 1359.11,-243.59 1360.44,-243.38"/>
<polygon fill="midnightblue" stroke="midnightblue" points="1361.42,-246.76 1370.73,-241.7 1360.3,-239.85 1361.42,-246.76"/>
</g>
<!-- Node36 -->
<g id="node36" class="node">
<title>Node36</title>
<g id="a_node36"><a xlink:title=" ">
<polygon fill="white" stroke="#bfbfbf" points="1466,-224.5 1466,-243.5 1565,-243.5 1565,-224.5 1466,-224.5"/>
<text text-anchor="middle" x="1515.5" y="-231.5" font-family="Helvetica,sans-Serif" font-size="10.00">openssl/engine.h</text>
</a>
</g>
</g>
<!-- Node12&#45;&gt;Node36 -->
<g id="edge49" class="edge">
<title>Node12&#45;&gt;Node36</title>
<path fill="none" stroke="midnightblue" d="M1099.32,-283.67C1177.4,-276.17 1322.48,-261.56 1455.86,-244.17"/>
<polygon fill="midnightblue" stroke="midnightblue" points="1456.39,-247.63 1465.85,-242.86 1455.48,-240.69 1456.39,-247.63"/>
</g>
<!-- Node37 -->
<g id="node37" class="node">
<title>Node37</title>
<g id="a_node37"><a xlink:title=" ">
<polygon fill="white" stroke="#bfbfbf" points="402,-224.5 402,-243.5 481,-243.5 481,-224.5 402,-224.5"/>
<text text-anchor="middle" x="441.5" y="-231.5" font-family="Helvetica,sans-Serif" font-size="10.00">openssl/err.h</text>
</a>
</g>
</g>
<!-- Node12&#45;&gt;Node37 -->
<g id="edge50" class="edge">
<title>Node12&#45;&gt;Node37</title>
<path fill="none" stroke="midnightblue" d="M985.77,-286.34C887.13,-281.28 677.48,-268.65 490.99,-244.07"/>
<polygon fill="midnightblue" stroke="midnightblue" points="491.37,-240.59 481,-242.74 490.45,-247.53 491.37,-240.59"/>
</g>
<!-- Node38 -->
<g id="node38" class="node">
<title>Node38</title>
<g id="a_node38"><a xlink:title=" ">
<polygon fill="white" stroke="#bfbfbf" points="498.5,-224.5 498.5,-243.5 582.5,-243.5 582.5,-224.5 498.5,-224.5"/>
<text text-anchor="middle" x="540.5" y="-231.5" font-family="Helvetica,sans-Serif" font-size="10.00">openssl/evp.h</text>
</a>
</g>
</g>
<!-- Node12&#45;&gt;Node38 -->
<g id="edge51" class="edge">
<title>Node12&#45;&gt;Node38</title>
<path fill="none" stroke="midnightblue" d="M985.74,-284.71C902.01,-278.09 740.26,-264.13 592.9,-244.1"/>
<polygon fill="midnightblue" stroke="midnightblue" points="593.15,-240.6 582.76,-242.71 592.19,-247.54 593.15,-240.6"/>
</g>
<!-- Node39 -->
<g id="node39" class="node">
<title>Node39</title>
<g id="a_node39"><a xlink:title=" ">
<polygon fill="white" stroke="#bfbfbf" points="600.5,-224.5 600.5,-243.5 688.5,-243.5 688.5,-224.5 600.5,-224.5"/>
<text text-anchor="middle" x="644.5" y="-231.5" font-family="Helvetica,sans-Serif" font-size="10.00">openssl/pem.h</text>
</a>
</g>
</g>
<!-- Node12&#45;&gt;Node39 -->
<g id="edge52" class="edge">
<title>Node12&#45;&gt;Node39</title>
<path fill="none" stroke="midnightblue" d="M985.93,-282.3C919.59,-274.29 806.03,-260.11 698.75,-244.14"/>
<polygon fill="midnightblue" stroke="midnightblue" points="699.13,-240.66 688.73,-242.64 698.1,-247.58 699.13,-240.66"/>
</g>
<!-- Node40 -->
<g id="node40" class="node">
<title>Node40</title>
<g id="a_node40"><a xlink:title=" ">
<polygon fill="white" stroke="#bfbfbf" points="706.5,-224.5 706.5,-243.5 786.5,-243.5 786.5,-224.5 706.5,-224.5"/>
<text text-anchor="middle" x="746.5" y="-231.5" font-family="Helvetica,sans-Serif" font-size="10.00">openssl/ssl.h</text>
</a>
</g>
</g>
<!-- Node12&#45;&gt;Node40 -->
<g id="edge53" class="edge">
<title>Node12&#45;&gt;Node40</title>
<path fill="none" stroke="midnightblue" d="M995.6,-280.48C948.05,-271.83 872.06,-258 796.75,-244.23"/>
<polygon fill="midnightblue" stroke="midnightblue" points="797.08,-240.73 786.61,-242.37 795.82,-247.61 797.08,-240.73"/>
</g>
<!-- Node41 -->
<g id="node41" class="node">
<title>Node41</title>
<g id="a_node41"><a xlink:title=" ">
<polygon fill="white" stroke="#bfbfbf" points="804.5,-224.5 804.5,-243.5 894.5,-243.5 894.5,-224.5 804.5,-224.5"/>
<text text-anchor="middle" x="849.5" y="-231.5" font-family="Helvetica,sans-Serif" font-size="10.00">openssl/x509.h</text>
</a>
</g>
</g>
<!-- Node12&#45;&gt;Node41 -->
<g id="edge54" class="edge">
<title>Node12&#45;&gt;Node41</title>
<path fill="none" stroke="midnightblue" d="M1011.92,-280.44C978.89,-271.2 926.11,-256.44 889.73,-246.26"/>
<polygon fill="midnightblue" stroke="midnightblue" points="890.51,-242.84 879.94,-243.52 888.63,-249.58 890.51,-242.84"/>
</g>
<!-- Node42 -->
<g id="node42" class="node">
<title>Node42</title>
<g id="a_node42"><a xlink:title=" ">
<polygon fill="white" stroke="#bfbfbf" points="912.5,-224.5 912.5,-243.5 1014.5,-243.5 1014.5,-224.5 912.5,-224.5"/>
<text text-anchor="middle" x="963.5" y="-231.5" font-family="Helvetica,sans-Serif" font-size="10.00">openssl/x509v3.h</text>
</a>
</g>
</g>
<!-- Node12&#45;&gt;Node42 -->
<g id="edge55" class="edge">
<title>Node12&#45;&gt;Node42</title>
<path fill="none" stroke="midnightblue" d="M1029.81,-280.32C1017.6,-271.98 998.92,-259.21 984.5,-249.35"/>
<polygon fill="midnightblue" stroke="midnightblue" points="986.39,-246.41 976.16,-243.65 982.44,-252.19 986.39,-246.41"/>
</g>
<!-- Node13&#45;&gt;Node7 -->
<g id="edge30" class="edge">
<title>Node13&#45;&gt;Node7</title>
<path fill="none" stroke="midnightblue" d="M1070.31,-224.92C1019.6,-216.42 938.33,-202.31 868.5,-188 867.24,-187.74 865.95,-187.47 864.65,-187.2"/>
<polygon fill="midnightblue" stroke="midnightblue" points="865.15,-183.72 854.64,-184.99 863.65,-190.56 865.15,-183.72"/>
</g>
<!-- Node13&#45;&gt;Node8 -->
<g id="edge32" class="edge">
<title>Node13&#45;&gt;Node8</title>
<path fill="none" stroke="midnightblue" d="M1070.09,-226.54C987.07,-215.68 821.25,-194 745.67,-184.12"/>
<polygon fill="midnightblue" stroke="midnightblue" points="745.99,-180.63 735.62,-182.81 745.08,-187.57 745.99,-180.63"/>
</g>
<!-- Node13&#45;&gt;Node11 -->
<g id="edge35" class="edge">
<title>Node13&#45;&gt;Node11</title>
<path fill="none" stroke="midnightblue" d="M1124.38,-224.37C1129.06,-215.55 1135.81,-201.3 1138.5,-188 1140.26,-179.29 1140.19,-176.73 1138.5,-168 1127.98,-113.62 1094.78,-56.18 1077,-28.26"/>
<polygon fill="midnightblue" stroke="midnightblue" points="1079.81,-26.15 1071.42,-19.67 1073.94,-29.96 1079.81,-26.15"/>
</g>
<!-- Node14 -->
<g id="node14" class="node">
<title>Node14</title>
<g id="a_node14"><a xlink:href="json_8h.html" target="_top" xlink:title=" ">
<polygon fill="white" stroke="black" points="1053,-168.5 1053,-187.5 1130,-187.5 1130,-168.5 1053,-168.5"/>
<text text-anchor="middle" x="1091.5" y="-175.5" font-family="Helvetica,sans-Serif" font-size="10.00">ccf/ds/json.h</text>
</a>
</g>
</g>
<!-- Node13&#45;&gt;Node14 -->
<g id="edge13" class="edge">
<title>Node13&#45;&gt;Node14</title>
<path fill="none" stroke="midnightblue" d="M1114.88,-224.08C1111.04,-216.69 1105.48,-205.95 1100.74,-196.81"/>
<polygon fill="midnightblue" stroke="midnightblue" points="1103.75,-195.02 1096.04,-187.75 1097.53,-198.24 1103.75,-195.02"/>
</g>
<!-- Node22 -->
<g id="node22" class="node">
<title>Node22</title>
<g id="a_node22"><a xlink:title=" ">
<polygon fill="white" stroke="#bfbfbf" points="502,-0.5 502,-19.5 575,-19.5 575,-0.5 502,-0.5"/>
<text text-anchor="middle" x="538.5" y="-7.5" font-family="Helvetica,sans-Serif" font-size="10.00">string_view</text>
</a>
</g>
</g>
<!-- Node13&#45;&gt;Node22 -->
<g id="edge34" class="edge">
<title>Node13&#45;&gt;Node22</title>
<path fill="none" stroke="midnightblue" d="M1070.37,-226.88C1025.47,-220.36 957.71,-208.14 901.5,-188 883.53,-181.56 881.53,-174.25 863.5,-168 780.23,-139.15 749.37,-167.03 668.5,-132 615.88,-109.21 571.11,-55.67 550.55,-28.09"/>
<polygon fill="midnightblue" stroke="midnightblue" points="553.24,-25.84 544.53,-19.81 547.58,-29.96 553.24,-25.84"/>
</g>
<!-- Node27 -->
<g id="node27" class="node">
<title>Node27</title>
<g id="a_node27"><a xlink:title=" ">
<polygon fill="white" stroke="#bfbfbf" points="911,-168.5 911,-187.5 976,-187.5 976,-168.5 911,-168.5"/>
<text text-anchor="middle" x="943.5" y="-175.5" font-family="Helvetica,sans-Serif" font-size="10.00">exception</text>
</a>
</g>
</g>
<!-- Node13&#45;&gt;Node27 -->
<g id="edge31" class="edge">
<title>Node13&#45;&gt;Node27</title>
<path fill="none" stroke="midnightblue" d="M1091.61,-224.44C1061.75,-215.28 1014.19,-200.69 981.04,-190.52"/>
<polygon fill="midnightblue" stroke="midnightblue" points="981.84,-187.1 971.26,-187.52 979.79,-193.8 981.84,-187.1"/>
</g>
<!-- Node28 -->
<g id="node28" class="node">
<title>Node28</title>
<g id="a_node28"><a xlink:title=" ">
<polygon fill="white" stroke="#bfbfbf" points="994.5,-168.5 994.5,-187.5 1034.5,-187.5 1034.5,-168.5 994.5,-168.5"/>
<text text-anchor="middle" x="1014.5" y="-175.5" font-family="Helvetica,sans-Serif" font-size="10.00">span</text>
</a>
</g>
</g>
<!-- Node13&#45;&gt;Node28 -->
<g id="edge33" class="edge">
<title>Node13&#45;&gt;Node28</title>
<path fill="none" stroke="midnightblue" d="M1102.63,-224.32C1085.79,-215.66 1059.69,-202.24 1040.26,-192.25"/>
<polygon fill="midnightblue" stroke="midnightblue" points="1041.82,-189.12 1031.33,-187.65 1038.62,-195.34 1041.82,-189.12"/>
</g>
<!-- Node15 -->
<g id="node15" class="node">
<title>Node15</title>
<g id="a_node15"><a xlink:href="include_2ccf_2crypto_2base64_8h.html" target="_top" xlink:title=" ">
<polygon fill="white" stroke="black" points="972.5,-56.5 972.5,-75.5 1084.5,-75.5 1084.5,-56.5 972.5,-56.5"/>
<text text-anchor="middle" x="1028.5" y="-63.5" font-family="Helvetica,sans-Serif" font-size="10.00">ccf/crypto/base64.h</text>
</a>
</g>
</g>
<!-- Node14&#45;&gt;Node15 -->
<g id="edge14" class="edge">
<title>Node14&#45;&gt;Node15</title>
<path fill="none" stroke="midnightblue" d="M1086.56,-168.37C1076.21,-150.3 1052.08,-108.18 1038.41,-84.31"/>
<polygon fill="midnightblue" stroke="midnightblue" points="1041.43,-82.53 1033.42,-75.59 1035.35,-86.01 1041.43,-82.53"/>
</g>
<!-- Node17 -->
<g id="node17" class="node">
<title>Node17</title>
<g id="a_node17"><a xlink:href="include_2ccf_2ds_2json__schema_8h.html" target="_top" xlink:title=" ">
<polygon fill="white" stroke="black" points="678,-112.5 678,-131.5 799,-131.5 799,-112.5 678,-112.5"/>
<text text-anchor="middle" x="738.5" y="-119.5" font-family="Helvetica,sans-Serif" font-size="10.00">ccf/ds/json_schema.h</text>
</a>
</g>
</g>
<!-- Node14&#45;&gt;Node17 -->
<g id="edge17" class="edge">
<title>Node14&#45;&gt;Node17</title>
<path fill="none" stroke="midnightblue" d="M1052.75,-169.6C1049.62,-169.04 1046.51,-168.5 1043.5,-168 963.37,-154.58 871.02,-141.25 809.13,-132.63"/>
<polygon fill="midnightblue" stroke="midnightblue" points="809.47,-129.14 799.08,-131.23 808.51,-136.07 809.47,-129.14"/>
</g>
<!-- Node14&#45;&gt;Node24 -->
<g id="edge28" class="edge">
<title>Node14&#45;&gt;Node24</title>
<path fill="none" stroke="midnightblue" d="M1077.69,-168.37C1047.36,-149.41 974.7,-104 937.81,-80.94"/>
<polygon fill="midnightblue" stroke="midnightblue" points="939.58,-77.92 929.25,-75.59 935.87,-83.86 939.58,-77.92"/>
</g>
<!-- Node26 -->
<g id="node26" class="node">
<title>Node26</title>
<g id="a_node26"><a xlink:title=" ">
<polygon fill="white" stroke="#bfbfbf" points="1140.5,-112.5 1140.5,-131.5 1196.5,-131.5 1196.5,-112.5 1140.5,-112.5"/>
<text text-anchor="middle" x="1168.5" y="-119.5" font-family="Helvetica,sans-Serif" font-size="10.00">sstream</text>
</a>
</g>
</g>
<!-- Node14&#45;&gt;Node26 -->
<g id="edge29" class="edge">
<title>Node14&#45;&gt;Node26</title>
<path fill="none" stroke="midnightblue" d="M1103.87,-168.32C1115.66,-160.06 1133.63,-147.45 1147.64,-137.63"/>
<polygon fill="midnightblue" stroke="midnightblue" points="1149.98,-140.26 1156.16,-131.65 1145.96,-134.53 1149.98,-140.26"/>
</g>
<!-- Node15&#45;&gt;Node11 -->
<g id="edge16" class="edge">
<title>Node15&#45;&gt;Node11</title>
<path fill="none" stroke="midnightblue" d="M1034.61,-56.08C1039.78,-48.53 1047.35,-37.49 1053.69,-28.23"/>
<polygon fill="midnightblue" stroke="midnightblue" points="1056.74,-29.98 1059.5,-19.75 1050.96,-26.02 1056.74,-29.98"/>
</g>
<!-- Node16 -->
<g id="node16" class="node">
<title>Node16</title>
<g id="a_node16"><a xlink:title=" ">
<polygon fill="white" stroke="#bfbfbf" points="969.5,-0.5 969.5,-19.5 1013.5,-19.5 1013.5,-0.5 969.5,-0.5"/>
<text text-anchor="middle" x="991.5" y="-7.5" font-family="Helvetica,sans-Serif" font-size="10.00">string</text>
</a>
</g>
</g>
<!-- Node15&#45;&gt;Node16 -->
<g id="edge15" class="edge">
<title>Node15&#45;&gt;Node16</title>
<path fill="none" stroke="midnightblue" d="M1022.39,-56.08C1017.22,-48.53 1009.65,-37.49 1003.31,-28.23"/>
<polygon fill="midnightblue" stroke="midnightblue" points="1006.04,-26.02 997.5,-19.75 1000.26,-29.98 1006.04,-26.02"/>
</g>
<!-- Node18 -->
<g id="node18" class="node">
<title>Node18</title>
<g id="a_node18"><a xlink:href="nonstd_8h.html" target="_top" xlink:title=" ">
<polygon fill="white" stroke="black" points="601.5,-56.5 601.5,-75.5 691.5,-75.5 691.5,-56.5 601.5,-56.5"/>
<text text-anchor="middle" x="646.5" y="-63.5" font-family="Helvetica,sans-Serif" font-size="10.00">ccf/ds/nonstd.h</text>
</a>
</g>
</g>
<!-- Node17&#45;&gt;Node18 -->
<g id="edge18" class="edge">
<title>Node17&#45;&gt;Node18</title>
<path fill="none" stroke="midnightblue" d="M723.72,-112.32C709.23,-103.82 686.93,-90.73 670.01,-80.8"/>
<polygon fill="midnightblue" stroke="midnightblue" points="671.64,-77.7 661.24,-75.65 668.1,-83.74 671.64,-77.7"/>
</g>
<!-- Node17&#45;&gt;Node24 -->
<g id="edge26" class="edge">
<title>Node17&#45;&gt;Node24</title>
<path fill="none" stroke="midnightblue" d="M766.55,-112.44C796.58,-103.28 844.41,-88.69 877.74,-78.52"/>
<polygon fill="midnightblue" stroke="midnightblue" points="879.04,-81.78 887.59,-75.52 877,-75.09 879.04,-81.78"/>
</g>
<!-- Node25 -->
<g id="node25" class="node">
<title>Node25</title>
<g id="a_node25"><a xlink:title=" ">
<polygon fill="white" stroke="#bfbfbf" points="747.5,-56.5 747.5,-75.5 857.5,-75.5 857.5,-56.5 747.5,-56.5"/>
<text text-anchor="middle" x="802.5" y="-63.5" font-family="Helvetica,sans-Serif" font-size="10.00">nlohmann/json.hpp</text>
</a>
</g>
</g>
<!-- Node17&#45;&gt;Node25 -->
<g id="edge27" class="edge">
<title>Node17&#45;&gt;Node25</title>
<path fill="none" stroke="midnightblue" d="M748.78,-112.32C758.34,-104.26 772.78,-92.08 784.28,-82.37"/>
<polygon fill="midnightblue" stroke="midnightblue" points="786.64,-84.96 792.03,-75.83 782.13,-79.61 786.64,-84.96"/>
</g>
<!-- Node18&#45;&gt;Node11 -->
<g id="edge25" class="edge">
<title>Node18&#45;&gt;Node11</title>
<path fill="none" stroke="midnightblue" d="M691.57,-57.94C696.27,-57.26 700.98,-56.6 705.5,-56 846.06,-37.31 882.51,-42.55 1022.5,-20 1025.56,-19.51 1028.74,-18.94 1031.92,-18.34"/>
<polygon fill="midnightblue" stroke="midnightblue" points="1032.79,-21.74 1041.92,-16.35 1031.43,-14.87 1032.79,-21.74"/>
</g>
<!-- Node18&#45;&gt;Node16 -->
<g id="edge22" class="edge">
<title>Node18&#45;&gt;Node16</title>
<path fill="none" stroke="midnightblue" d="M691.6,-57.94C762.39,-46.86 897.86,-25.66 959.52,-16.01"/>
<polygon fill="midnightblue" stroke="midnightblue" points="960.11,-19.46 969.45,-14.45 959.03,-12.54 960.11,-19.46"/>
</g>
<!-- Node19 -->
<g id="node19" class="node">
<title>Node19</title>
<g id="a_node19"><a xlink:title=" ">
<polygon fill="white" stroke="#bfbfbf" points="808.5,-0.5 808.5,-19.5 872.5,-19.5 872.5,-0.5 808.5,-0.5"/>
<text text-anchor="middle" x="840.5" y="-7.5" font-family="Helvetica,sans-Serif" font-size="10.00">algorithm</text>
</a>
</g>
</g>
<!-- Node18&#45;&gt;Node19 -->
<g id="edge19" class="edge">
<title>Node18&#45;&gt;Node19</title>
<path fill="none" stroke="midnightblue" d="M677.24,-56.44C710.44,-47.2 763.49,-32.44 800.06,-22.26"/>
<polygon fill="midnightblue" stroke="midnightblue" points="801.21,-25.57 809.9,-19.52 799.33,-18.83 801.21,-25.57"/>
</g>
<!-- Node20 -->
<g id="node20" class="node">
<title>Node20</title>
<g id="a_node20"><a xlink:title=" ">
<polygon fill="white" stroke="#bfbfbf" points="593.5,-0.5 593.5,-19.5 635.5,-19.5 635.5,-0.5 593.5,-0.5"/>
<text text-anchor="middle" x="614.5" y="-7.5" font-family="Helvetica,sans-Serif" font-size="10.00">array</text>
</a>
</g>
</g>
<!-- Node18&#45;&gt;Node20 -->
<g id="edge20" class="edge">
<title>Node18&#45;&gt;Node20</title>
<path fill="none" stroke="midnightblue" d="M641.22,-56.08C636.79,-48.61 630.34,-37.72 624.88,-28.52"/>
<polygon fill="midnightblue" stroke="midnightblue" points="627.79,-26.57 619.69,-19.75 621.77,-30.14 627.79,-26.57"/>
</g>
<!-- Node21 -->
<g id="node21" class="node">
<title>Node21</title>
<g id="a_node21"><a xlink:title=" ">
<polygon fill="white" stroke="#bfbfbf" points="654,-0.5 654,-19.5 703,-19.5 703,-0.5 654,-0.5"/>
<text text-anchor="middle" x="678.5" y="-7.5" font-family="Helvetica,sans-Serif" font-size="10.00">cctype</text>
</a>
</g>
</g>
<!-- Node18&#45;&gt;Node21 -->
<g id="edge21" class="edge">
<title>Node18&#45;&gt;Node21</title>
<path fill="none" stroke="midnightblue" d="M651.78,-56.08C656.21,-48.61 662.66,-37.72 668.12,-28.52"/>
<polygon fill="midnightblue" stroke="midnightblue" points="671.23,-30.14 673.31,-19.75 665.21,-26.57 671.23,-30.14"/>
</g>
<!-- Node18&#45;&gt;Node22 -->
<g id="edge23" class="edge">
<title>Node18&#45;&gt;Node22</title>
<path fill="none" stroke="midnightblue" d="M629.15,-56.32C611.83,-47.66 584.98,-34.24 565,-24.25"/>
<polygon fill="midnightblue" stroke="midnightblue" points="566.32,-21 555.81,-19.65 563.19,-27.26 566.32,-21"/>
</g>
<!-- Node23 -->
<g id="node23" class="node">
<title>Node23</title>
<g id="a_node23"><a xlink:title=" ">
<polygon fill="white" stroke="#bfbfbf" points="721,-0.5 721,-19.5 790,-19.5 790,-0.5 721,-0.5"/>
<text text-anchor="middle" x="755.5" y="-7.5" font-family="Helvetica,sans-Serif" font-size="10.00">type_traits</text>
</a>
</g>
</g>
<!-- Node18&#45;&gt;Node23 -->
<g id="edge24" class="edge">
<title>Node18&#45;&gt;Node23</title>
<path fill="none" stroke="midnightblue" d="M664.01,-56.32C681.57,-47.62 708.83,-34.12 729.03,-24.11"/>
<polygon fill="midnightblue" stroke="midnightblue" points="730.62,-27.23 738.03,-19.65 727.52,-20.96 730.62,-27.23"/>
</g>
<!-- Node30&#45;&gt;Node11 -->
<g id="edge44" class="edge">
<title>Node30&#45;&gt;Node11</title>
<path fill="none" stroke="midnightblue" d="M1333.59,-168.25C1328.63,-154.55 1317.3,-127.94 1299.5,-112 1239.96,-58.67 1147.92,-30.31 1098.91,-18.24"/>
<polygon fill="midnightblue" stroke="midnightblue" points="1099.67,-14.82 1089.13,-15.91 1098.04,-21.63 1099.67,-14.82"/>
</g>
<!-- Node30&#45;&gt;Node24 -->
<g id="edge40" class="edge">
<title>Node30&#45;&gt;Node24</title>
<path fill="none" stroke="midnightblue" d="M1331.13,-168.44C1321.55,-154 1300,-125.07 1273.5,-112 1152.03,-52.07 1102.95,-94.69 965.1,-76.08"/>
<polygon fill="midnightblue" stroke="midnightblue" points="965.41,-72.59 955.02,-74.64 964.42,-79.52 965.41,-72.59"/>
</g>
<!-- Node30&#45;&gt;Node26 -->
<g id="edge42" class="edge">
<title>Node30&#45;&gt;Node26</title>
<path fill="none" stroke="midnightblue" d="M1309.88,-168.44C1281.49,-159.32 1236.36,-144.81 1204.75,-134.65"/>
<polygon fill="midnightblue" stroke="midnightblue" points="1205.59,-131.24 1195,-131.52 1203.44,-137.91 1205.59,-131.24"/>
</g>
<!-- Node30&#45;&gt;Node29 -->
<g id="edge38" class="edge">
<title>Node30&#45;&gt;Node29</title>
<path fill="none" stroke="midnightblue" d="M1320.92,-168.32C1305.5,-159.74 1281.69,-146.49 1263.79,-136.52"/>
<polygon fill="midnightblue" stroke="midnightblue" points="1265.49,-133.46 1255.05,-131.65 1262.08,-139.58 1265.49,-133.46"/>
</g>
<!-- Node31 -->
<g id="node31" class="node">
<title>Node31</title>
<g id="a_node31"><a xlink:title=" ">
<polygon fill="white" stroke="#bfbfbf" points="1425,-112.5 1425,-131.5 1504,-131.5 1504,-112.5 1425,-112.5"/>
<text text-anchor="middle" x="1464.5" y="-119.5" font-family="Helvetica,sans-Serif" font-size="10.00">fmt/chrono.h</text>
</a>
</g>
</g>
<!-- Node30&#45;&gt;Node31 -->
<g id="edge39" class="edge">
<title>Node30&#45;&gt;Node31</title>
<path fill="none" stroke="midnightblue" d="M1356.78,-168.44C1377.85,-159.56 1411.02,-145.56 1434.99,-135.45"/>
<polygon fill="midnightblue" stroke="midnightblue" points="1436.46,-138.63 1444.31,-131.52 1433.74,-132.18 1436.46,-138.63"/>
</g>
<!-- Node32 -->
<g id="node32" class="node">
<title>Node32</title>
<g id="a_node32"><a xlink:title=" ">
<polygon fill="white" stroke="#bfbfbf" points="1521.5,-112.5 1521.5,-131.5 1577.5,-131.5 1577.5,-112.5 1521.5,-112.5"/>
<text text-anchor="middle" x="1549.5" y="-119.5" font-family="Helvetica,sans-Serif" font-size="10.00">iomanip</text>
</a>
</g>
</g>
<!-- Node30&#45;&gt;Node32 -->
<g id="edge41" class="edge">
<title>Node30&#45;&gt;Node32</title>
<path fill="none" stroke="midnightblue" d="M1370.25,-168.44C1408.67,-158.7 1471.28,-142.83 1511.41,-132.66"/>
<polygon fill="midnightblue" stroke="midnightblue" points="1512.52,-135.99 1521.35,-130.14 1510.8,-129.2 1512.52,-135.99"/>
</g>
<!-- Node33 -->
<g id="node33" class="node">
<title>Node33</title>
<g id="a_node33"><a xlink:title=" ">
<polygon fill="white" stroke="#bfbfbf" points="1358.5,-112.5 1358.5,-131.5 1406.5,-131.5 1406.5,-112.5 1358.5,-112.5"/>
<text text-anchor="middle" x="1382.5" y="-119.5" font-family="Helvetica,sans-Serif" font-size="10.00">time.h</text>
</a>
</g>
</g>
<!-- Node30&#45;&gt;Node33 -->
<g id="edge43" class="edge">
<title>Node30&#45;&gt;Node33</title>
<path fill="none" stroke="midnightblue" d="M1344.1,-168.08C1350.73,-160.3 1360.52,-148.8 1368.56,-139.37"/>
<polygon fill="midnightblue" stroke="midnightblue" points="1371.23,-141.63 1375.05,-131.75 1365.9,-137.09 1371.23,-141.63"/>
</g>
</g>
</svg>
