<?xml version="1.0" encoding="UTF-8" standalone="no"?>
<!DOCTYPE svg PUBLIC "-//W3C//DTD SVG 1.1//EN"
 "http://www.w3.org/Graphics/SVG/1.1/DTD/svg11.dtd">
<!-- Generated by graphviz version 2.43.0 (0)
 -->
<!-- Title: src/crypto/openssl/rsa_key_pair.h Pages: 1 -->
<svg width="611pt" height="106pt"
 viewBox="0.00 0.00 611.00 106.00" xmlns="http://www.w3.org/2000/svg" xmlns:xlink="http://www.w3.org/1999/xlink">
<g id="graph0" class="graph" transform="scale(1 1) rotate(0) translate(4 102)">
<title>src/crypto/openssl/rsa_key_pair.h</title>
<polygon fill="white" stroke="transparent" points="-4,4 -4,-102 607,-102 607,4 -4,4"/>
<!-- Node1 -->
<g id="node1" class="node">
<title>Node1</title>
<g id="a_node1"><a xlink:title=" ">
<polygon fill="#bfbfbf" stroke="black" points="249,-67.5 249,-97.5 354,-97.5 354,-67.5 249,-67.5"/>
<text text-anchor="start" x="257" y="-85.5" font-family="Helvetica,sans-Serif" font-size="10.00">src/crypto/openssl</text>
<text text-anchor="middle" x="301.5" y="-74.5" font-family="Helvetica,sans-Serif" font-size="10.00">/rsa_key_pair.h</text>
</a>
</g>
</g>
<!-- Node2 -->
<g id="node2" class="node">
<title>Node2</title>
<g id="a_node2"><a xlink:href="cose__verifier_8cpp.html" target="_top" xlink:title=" ">
<polygon fill="white" stroke="black" points="0,-0.5 0,-30.5 105,-30.5 105,-0.5 0,-0.5"/>
<text text-anchor="start" x="8" y="-18.5" font-family="Helvetica,sans-Serif" font-size="10.00">src/crypto/openssl</text>
<text text-anchor="middle" x="52.5" y="-7.5" font-family="Helvetica,sans-Serif" font-size="10.00">/cose_verifier.cpp</text>
</a>
</g>
</g>
<!-- Node1&#45;&gt;Node2 -->
<g id="edge1" class="edge">
<title>Node1&#45;&gt;Node2</title>
<path fill="none" stroke="midnightblue" d="M239.07,-65.2C197.86,-54.45 144.46,-40.51 105.36,-30.3"/>
<polygon fill="midnightblue" stroke="midnightblue" points="238.44,-68.66 249,-67.79 240.21,-61.88 238.44,-68.66"/>
</g>
<!-- Node3 -->
<g id="node3" class="node">
<title>Node3</title>
<g id="a_node3"><a xlink:href="openssl_2rsa__key__pair_8cpp.html" target="_top" xlink:title=" ">
<polygon fill="white" stroke="black" points="123,-0.5 123,-30.5 228,-30.5 228,-0.5 123,-0.5"/>
<text text-anchor="start" x="131" y="-18.5" font-family="Helvetica,sans-Serif" font-size="10.00">src/crypto/openssl</text>
<text text-anchor="middle" x="175.5" y="-7.5" font-family="Helvetica,sans-Serif" font-size="10.00">/rsa_key_pair.cpp</text>
</a>
</g>
</g>
<!-- Node1&#45;&gt;Node3 -->
<g id="edge2" class="edge">
<title>Node1&#45;&gt;Node3</title>
<path fill="none" stroke="midnightblue" d="M265.08,-62.71C245.21,-52.46 221.02,-39.98 202.79,-30.58"/>
<polygon fill="midnightblue" stroke="midnightblue" points="263.67,-65.92 274.16,-67.4 266.88,-59.7 263.67,-65.92"/>
</g>
<!-- Node4 -->
<g id="node4" class="node">
<title>Node4</title>
<g id="a_node4"><a xlink:href="rsa__public__key_8cpp.html" target="_top" xlink:title=" ">
<polygon fill="white" stroke="black" points="246.5,-0.5 246.5,-30.5 356.5,-30.5 356.5,-0.5 246.5,-0.5"/>
<text text-anchor="start" x="254.5" y="-18.5" font-family="Helvetica,sans-Serif" font-size="10.00">src/crypto/openssl</text>
<text text-anchor="middle" x="301.5" y="-7.5" font-family="Helvetica,sans-Serif" font-size="10.00">/rsa_public_key.cpp</text>
</a>
</g>
</g>
<!-- Node1&#45;&gt;Node4 -->
<g id="edge3" class="edge">
<title>Node1&#45;&gt;Node4</title>
<path fill="none" stroke="midnightblue" d="M301.5,-57.11C301.5,-48.15 301.5,-38.32 301.5,-30.58"/>
<polygon fill="midnightblue" stroke="midnightblue" points="298,-57.4 301.5,-67.4 305,-57.4 298,-57.4"/>
</g>
<!-- Node5 -->
<g id="node5" class="node">
<title>Node5</title>
<g id="a_node5"><a xlink:href="openssl_2verifier_8cpp.html" target="_top" xlink:title=" ">
<polygon fill="white" stroke="black" points="375,-0.5 375,-30.5 480,-30.5 480,-0.5 375,-0.5"/>
<text text-anchor="start" x="383" y="-18.5" font-family="Helvetica,sans-Serif" font-size="10.00">src/crypto/openssl</text>
<text text-anchor="middle" x="427.5" y="-7.5" font-family="Helvetica,sans-Serif" font-size="10.00">/verifier.cpp</text>
</a>
</g>
</g>
<!-- Node1&#45;&gt;Node5 -->
<g id="edge4" class="edge">
<title>Node1&#45;&gt;Node5</title>
<path fill="none" stroke="midnightblue" d="M337.92,-62.71C357.79,-52.46 381.98,-39.98 400.21,-30.58"/>
<polygon fill="midnightblue" stroke="midnightblue" points="336.12,-59.7 328.84,-67.4 339.33,-65.92 336.12,-59.7"/>
</g>
<!-- Node6 -->
<g id="node6" class="node">
<title>Node6</title>
<g id="a_node6"><a xlink:href="rsa__key__pair_8cpp.html" target="_top" xlink:title=" ">
<polygon fill="white" stroke="black" points="498,-0.5 498,-30.5 603,-30.5 603,-0.5 498,-0.5"/>
<text text-anchor="start" x="506" y="-18.5" font-family="Helvetica,sans-Serif" font-size="10.00">src/crypto/rsa_key</text>
<text text-anchor="middle" x="550.5" y="-7.5" font-family="Helvetica,sans-Serif" font-size="10.00">_pair.cpp</text>
</a>
</g>
</g>
<!-- Node1&#45;&gt;Node6 -->
<g id="edge5" class="edge">
<title>Node1&#45;&gt;Node6</title>
<path fill="none" stroke="midnightblue" d="M363.93,-65.2C405.14,-54.45 458.54,-40.51 497.64,-30.3"/>
<polygon fill="midnightblue" stroke="midnightblue" points="362.79,-61.88 354,-67.79 364.56,-68.66 362.79,-61.88"/>
</g>
</g>
</svg>
