<?xml version="1.0" encoding="UTF-8" standalone="no"?>
<!DOCTYPE svg PUBLIC "-//W3C//DTD SVG 1.1//EN"
 "http://www.w3.org/Graphics/SVG/1.1/DTD/svg11.dtd">
<!-- Generated by graphviz version 2.43.0 (0)
 -->
<!-- Title: src/crypto/openssl/symmetric_key.h Pages: 1 -->
<svg width="2030pt" height="386pt"
 viewBox="0.00 0.00 2029.50 386.00" xmlns="http://www.w3.org/2000/svg" xmlns:xlink="http://www.w3.org/1999/xlink">
<g id="graph0" class="graph" transform="scale(1 1) rotate(0) translate(4 382)">
<title>src/crypto/openssl/symmetric_key.h</title>
<polygon fill="white" stroke="transparent" points="-4,4 -4,-382 2025.5,-382 2025.5,4 -4,4"/>
<!-- Node1 -->
<g id="node1" class="node">
<title>Node1</title>
<g id="a_node1"><a xlink:title=" ">
<polygon fill="#bfbfbf" stroke="black" points="1250,-347.5 1250,-377.5 1355,-377.5 1355,-347.5 1250,-347.5"/>
<text text-anchor="start" x="1258" y="-365.5" font-family="Helvetica,sans-Serif" font-size="10.00">src/crypto/openssl</text>
<text text-anchor="middle" x="1302.5" y="-354.5" font-family="Helvetica,sans-Serif" font-size="10.00">/symmetric_key.h</text>
</a>
</g>
</g>
<!-- Node2 -->
<g id="node2" class="node">
<title>Node2</title>
<g id="a_node2"><a xlink:href="include_2ccf_2crypto_2symmetric__key_8h.html" target="_top" xlink:title=" ">
<polygon fill="white" stroke="black" points="515.5,-280.5 515.5,-310.5 635.5,-310.5 635.5,-280.5 515.5,-280.5"/>
<text text-anchor="start" x="523.5" y="-298.5" font-family="Helvetica,sans-Serif" font-size="10.00">ccf/crypto/symmetric</text>
<text text-anchor="middle" x="575.5" y="-287.5" font-family="Helvetica,sans-Serif" font-size="10.00">_key.h</text>
</a>
</g>
</g>
<!-- Node1&#45;&gt;Node2 -->
<g id="edge1" class="edge">
<title>Node1&#45;&gt;Node2</title>
<path fill="none" stroke="midnightblue" d="M1249.92,-356.8C1121.32,-345.3 790.83,-315.75 645.66,-302.77"/>
<polygon fill="midnightblue" stroke="midnightblue" points="645.81,-299.27 635.53,-301.87 645.18,-306.24 645.81,-299.27"/>
</g>
<!-- Node14 -->
<g id="node14" class="node">
<title>Node14</title>
<g id="a_node14"><a xlink:href="openssl__wrappers_8h.html" target="_top" xlink:title=" ">
<polygon fill="white" stroke="black" points="1246,-286 1246,-305 1359,-305 1359,-286 1246,-286"/>
<text text-anchor="middle" x="1302.5" y="-293" font-family="Helvetica,sans-Serif" font-size="10.00">openssl_wrappers.h</text>
</a>
</g>
</g>
<!-- Node1&#45;&gt;Node14 -->
<g id="edge14" class="edge">
<title>Node1&#45;&gt;Node14</title>
<path fill="none" stroke="midnightblue" d="M1302.5,-347.4C1302.5,-338.06 1302.5,-325.71 1302.5,-315.52"/>
<polygon fill="midnightblue" stroke="midnightblue" points="1306,-315.19 1302.5,-305.19 1299,-315.19 1306,-315.19"/>
</g>
<!-- Node44 -->
<g id="node44" class="node">
<title>Node44</title>
<g id="a_node44"><a xlink:title=" ">
<polygon fill="white" stroke="#bfbfbf" points="1377,-286 1377,-305 1474,-305 1474,-286 1377,-286"/>
<text text-anchor="middle" x="1425.5" y="-293" font-family="Helvetica,sans-Serif" font-size="10.00">openssl/crypto.h</text>
</a>
</g>
</g>
<!-- Node1&#45;&gt;Node44 -->
<g id="edge59" class="edge">
<title>Node1&#45;&gt;Node44</title>
<path fill="none" stroke="midnightblue" d="M1329.19,-347.4C1350.39,-336.19 1379.82,-320.64 1400.55,-309.69"/>
<polygon fill="midnightblue" stroke="midnightblue" points="1402.2,-312.77 1409.4,-305.01 1398.93,-306.58 1402.2,-312.77"/>
</g>
<!-- Node3 -->
<g id="node3" class="node">
<title>Node3</title>
<g id="a_node3"><a xlink:href="include_2ccf_2crypto_2entropy_8h.html" target="_top" xlink:title=" ">
<polygon fill="white" stroke="black" points="337,-224.5 337,-243.5 450,-243.5 450,-224.5 337,-224.5"/>
<text text-anchor="middle" x="393.5" y="-231.5" font-family="Helvetica,sans-Serif" font-size="10.00">ccf/crypto/entropy.h</text>
</a>
</g>
</g>
<!-- Node2&#45;&gt;Node3 -->
<g id="edge2" class="edge">
<title>Node2&#45;&gt;Node3</title>
<path fill="none" stroke="midnightblue" d="M532.37,-280.4C500.92,-270.12 458.81,-256.35 429.23,-246.68"/>
<polygon fill="midnightblue" stroke="midnightblue" points="430.31,-243.35 419.72,-243.57 428.13,-250.01 430.31,-243.35"/>
</g>
<!-- Node12 -->
<g id="node12" class="node">
<title>Node12</title>
<g id="a_node12"><a xlink:title=" ">
<polygon fill="white" stroke="#bfbfbf" points="516,-0.5 516,-19.5 563,-19.5 563,-0.5 516,-0.5"/>
<text text-anchor="middle" x="539.5" y="-7.5" font-family="Helvetica,sans-Serif" font-size="10.00">vector</text>
</a>
</g>
</g>
<!-- Node2&#45;&gt;Node12 -->
<g id="edge13" class="edge">
<title>Node2&#45;&gt;Node12</title>
<path fill="none" stroke="midnightblue" d="M552.99,-280.33C525.46,-261.06 482.5,-223.8 482.5,-179 482.5,-179 482.5,-179 482.5,-121 482.5,-84.3 507.82,-47.66 524.71,-27.3"/>
<polygon fill="midnightblue" stroke="midnightblue" points="527.45,-29.48 531.33,-19.62 522.15,-24.9 527.45,-29.48"/>
</g>
<!-- Node13 -->
<g id="node13" class="node">
<title>Node13</title>
<g id="a_node13"><a xlink:title=" ">
<polygon fill="white" stroke="#bfbfbf" points="654.5,-168.5 654.5,-187.5 694.5,-187.5 694.5,-168.5 654.5,-168.5"/>
<text text-anchor="middle" x="674.5" y="-175.5" font-family="Helvetica,sans-Serif" font-size="10.00">span</text>
</a>
</g>
</g>
<!-- Node2&#45;&gt;Node13 -->
<g id="edge12" class="edge">
<title>Node2&#45;&gt;Node13</title>
<path fill="none" stroke="midnightblue" d="M587.64,-280.34C606.04,-258.86 640.92,-218.17 660.42,-195.43"/>
<polygon fill="midnightblue" stroke="midnightblue" points="663.22,-197.54 667.07,-187.67 657.9,-192.98 663.22,-197.54"/>
</g>
<!-- Node4 -->
<g id="node4" class="node">
<title>Node4</title>
<g id="a_node4"><a xlink:href="hardware__info_8h.html" target="_top" xlink:title=" ">
<polygon fill="white" stroke="black" points="0,-168.5 0,-187.5 131,-187.5 131,-168.5 0,-168.5"/>
<text text-anchor="middle" x="65.5" y="-175.5" font-family="Helvetica,sans-Serif" font-size="10.00">ccf/pal/hardware_info.h</text>
</a>
</g>
</g>
<!-- Node3&#45;&gt;Node4 -->
<g id="edge3" class="edge">
<title>Node3&#45;&gt;Node4</title>
<path fill="none" stroke="midnightblue" d="M341.53,-224.44C283.35,-214.87 189.14,-199.36 127.25,-189.17"/>
<polygon fill="midnightblue" stroke="midnightblue" points="127.67,-185.69 117.23,-187.52 126.53,-192.59 127.67,-185.69"/>
</g>
<!-- Node6 -->
<g id="node6" class="node">
<title>Node6</title>
<g id="a_node6"><a xlink:title=" ">
<polygon fill="white" stroke="#bfbfbf" points="149.5,-168.5 149.5,-187.5 201.5,-187.5 201.5,-168.5 149.5,-168.5"/>
<text text-anchor="middle" x="175.5" y="-175.5" font-family="Helvetica,sans-Serif" font-size="10.00">cassert</text>
</a>
</g>
</g>
<!-- Node3&#45;&gt;Node6 -->
<g id="edge5" class="edge">
<title>Node3&#45;&gt;Node6</title>
<path fill="none" stroke="midnightblue" d="M358.39,-224.48C323.55,-216 268.35,-202.51 211.71,-188.29"/>
<polygon fill="midnightblue" stroke="midnightblue" points="212.42,-184.86 201.87,-185.81 210.71,-191.64 212.42,-184.86"/>
</g>
<!-- Node7 -->
<g id="node7" class="node">
<title>Node7</title>
<g id="a_node7"><a xlink:title=" ">
<polygon fill="white" stroke="#bfbfbf" points="219.5,-168.5 219.5,-187.5 269.5,-187.5 269.5,-168.5 219.5,-168.5"/>
<text text-anchor="middle" x="244.5" y="-175.5" font-family="Helvetica,sans-Serif" font-size="10.00">cstdint</text>
</a>
</g>
</g>
<!-- Node3&#45;&gt;Node7 -->
<g id="edge6" class="edge">
<title>Node3&#45;&gt;Node7</title>
<path fill="none" stroke="midnightblue" d="M369.89,-224.44C345.04,-215.44 305.73,-201.19 277.75,-191.05"/>
<polygon fill="midnightblue" stroke="midnightblue" points="278.59,-187.63 268,-187.52 276.21,-194.21 278.59,-187.63"/>
</g>
<!-- Node8 -->
<g id="node8" class="node">
<title>Node8</title>
<g id="a_node8"><a xlink:title=" ">
<polygon fill="white" stroke="#bfbfbf" points="510.5,-168.5 510.5,-187.5 560.5,-187.5 560.5,-168.5 510.5,-168.5"/>
<text text-anchor="middle" x="535.5" y="-175.5" font-family="Helvetica,sans-Serif" font-size="10.00">cstring</text>
</a>
</g>
</g>
<!-- Node3&#45;&gt;Node8 -->
<g id="edge7" class="edge">
<title>Node3&#45;&gt;Node8</title>
<path fill="none" stroke="midnightblue" d="M416,-224.44C439.58,-215.48 476.82,-201.31 503.46,-191.18"/>
<polygon fill="midnightblue" stroke="midnightblue" points="505,-194.34 513.1,-187.52 502.51,-187.8 505,-194.34"/>
</g>
<!-- Node9 -->
<g id="node9" class="node">
<title>Node9</title>
<g id="a_node9"><a xlink:title=" ">
<polygon fill="white" stroke="#bfbfbf" points="578.5,-168.5 578.5,-187.5 636.5,-187.5 636.5,-168.5 578.5,-168.5"/>
<text text-anchor="middle" x="607.5" y="-175.5" font-family="Helvetica,sans-Serif" font-size="10.00">memory</text>
</a>
</g>
</g>
<!-- Node3&#45;&gt;Node9 -->
<g id="edge8" class="edge">
<title>Node3&#45;&gt;Node9</title>
<path fill="none" stroke="midnightblue" d="M427.41,-224.44C465.76,-214.77 528.11,-199.03 568.46,-188.85"/>
<polygon fill="midnightblue" stroke="midnightblue" points="569.38,-192.23 578.22,-186.39 567.67,-185.44 569.38,-192.23"/>
</g>
<!-- Node10 -->
<g id="node10" class="node">
<title>Node10</title>
<g id="a_node10"><a xlink:title=" ">
<polygon fill="white" stroke="#bfbfbf" points="288,-168.5 288,-187.5 353,-187.5 353,-168.5 288,-168.5"/>
<text text-anchor="middle" x="320.5" y="-175.5" font-family="Helvetica,sans-Serif" font-size="10.00">stdexcept</text>
</a>
</g>
</g>
<!-- Node3&#45;&gt;Node10 -->
<g id="edge9" class="edge">
<title>Node3&#45;&gt;Node10</title>
<path fill="none" stroke="midnightblue" d="M381.77,-224.32C370.66,-216.11 353.76,-203.6 340.52,-193.81"/>
<polygon fill="midnightblue" stroke="midnightblue" points="342.56,-190.97 332.44,-187.83 338.4,-196.59 342.56,-190.97"/>
</g>
<!-- Node11 -->
<g id="node11" class="node">
<title>Node11</title>
<g id="a_node11"><a xlink:title=" ">
<polygon fill="white" stroke="#bfbfbf" points="371,-168.5 371,-187.5 416,-187.5 416,-168.5 371,-168.5"/>
<text text-anchor="middle" x="393.5" y="-175.5" font-family="Helvetica,sans-Serif" font-size="10.00">utility</text>
</a>
</g>
</g>
<!-- Node3&#45;&gt;Node11 -->
<g id="edge10" class="edge">
<title>Node3&#45;&gt;Node11</title>
<path fill="none" stroke="midnightblue" d="M393.5,-224.08C393.5,-217.01 393.5,-206.86 393.5,-197.99"/>
<polygon fill="midnightblue" stroke="midnightblue" points="397,-197.75 393.5,-187.75 390,-197.75 397,-197.75"/>
</g>
<!-- Node3&#45;&gt;Node12 -->
<g id="edge11" class="edge">
<title>Node3&#45;&gt;Node12</title>
<path fill="none" stroke="midnightblue" d="M400.45,-224.49C407.31,-215.77 417.73,-201.58 424.5,-188 452.09,-132.66 430.4,-104.71 468.5,-56 479.2,-42.33 495.28,-31.65 509.44,-24.13"/>
<polygon fill="midnightblue" stroke="midnightblue" points="511.01,-27.25 518.38,-19.64 507.88,-20.99 511.01,-27.25"/>
</g>
<!-- Node5 -->
<g id="node5" class="node">
<title>Node5</title>
<g id="a_node5"><a xlink:title=" ">
<polygon fill="white" stroke="#bfbfbf" points="49.5,-112.5 49.5,-131.5 81.5,-131.5 81.5,-112.5 49.5,-112.5"/>
<text text-anchor="middle" x="65.5" y="-119.5" font-family="Helvetica,sans-Serif" font-size="10.00">set</text>
</a>
</g>
</g>
<!-- Node4&#45;&gt;Node5 -->
<g id="edge4" class="edge">
<title>Node4&#45;&gt;Node5</title>
<path fill="none" stroke="midnightblue" d="M65.5,-168.08C65.5,-161.01 65.5,-150.86 65.5,-141.99"/>
<polygon fill="midnightblue" stroke="midnightblue" points="69,-141.75 65.5,-131.75 62,-141.75 69,-141.75"/>
</g>
<!-- Node14&#45;&gt;Node9 -->
<g id="edge49" class="edge">
<title>Node14&#45;&gt;Node9</title>
<path fill="none" stroke="midnightblue" d="M1245.77,-293.12C1117.33,-289.43 807.87,-277.27 709.5,-244 677.07,-233.03 644.58,-209.67 625.26,-194.15"/>
<polygon fill="midnightblue" stroke="midnightblue" points="627.3,-191.3 617.35,-187.64 622.85,-196.7 627.3,-191.3"/>
</g>
<!-- Node15 -->
<g id="node15" class="node">
<title>Node15</title>
<g id="a_node15"><a xlink:href="pem_8h.html" target="_top" xlink:title=" ">
<polygon fill="white" stroke="black" points="718.5,-224.5 718.5,-243.5 816.5,-243.5 816.5,-224.5 718.5,-224.5"/>
<text text-anchor="middle" x="767.5" y="-231.5" font-family="Helvetica,sans-Serif" font-size="10.00">ccf/crypto/pem.h</text>
</a>
</g>
</g>
<!-- Node14&#45;&gt;Node15 -->
<g id="edge15" class="edge">
<title>Node14&#45;&gt;Node15</title>
<path fill="none" stroke="midnightblue" d="M1245.75,-288.19C1143.73,-276.84 930.33,-253.11 826.61,-241.57"/>
<polygon fill="midnightblue" stroke="midnightblue" points="826.95,-238.09 816.63,-240.46 826.18,-245.05 826.95,-238.09"/>
</g>
<!-- Node26 -->
<g id="node26" class="node">
<title>Node26</title>
<g id="a_node26"><a xlink:title=" ">
<polygon fill="white" stroke="#bfbfbf" points="953,-56.5 953,-75.5 1032,-75.5 1032,-56.5 953,-56.5"/>
<text text-anchor="middle" x="992.5" y="-63.5" font-family="Helvetica,sans-Serif" font-size="10.00">fmt/format.h</text>
</a>
</g>
</g>
<!-- Node14&#45;&gt;Node26 -->
<g id="edge48" class="edge">
<title>Node14&#45;&gt;Node26</title>
<path fill="none" stroke="midnightblue" d="M1245.73,-291.09C1175.72,-285.69 1062.29,-272.7 1032.5,-244 988.48,-201.6 988.21,-121.81 990.66,-85.65"/>
<polygon fill="midnightblue" stroke="midnightblue" points="994.16,-85.81 991.5,-75.55 987.18,-85.23 994.16,-85.81"/>
</g>
<!-- Node30 -->
<g id="node30" class="node">
<title>Node30</title>
<g id="a_node30"><a xlink:title=" ">
<polygon fill="white" stroke="#bfbfbf" points="1389.5,-112.5 1389.5,-131.5 1439.5,-131.5 1439.5,-112.5 1389.5,-112.5"/>
<text text-anchor="middle" x="1414.5" y="-119.5" font-family="Helvetica,sans-Serif" font-size="10.00">chrono</text>
</a>
</g>
</g>
<!-- Node14&#45;&gt;Node30 -->
<g id="edge39" class="edge">
<title>Node14&#45;&gt;Node30</title>
<path fill="none" stroke="midnightblue" d="M1335.78,-285.95C1379.35,-274.43 1451.09,-254.19 1458.5,-244 1482.38,-211.17 1450.24,-164.04 1429.54,-139.41"/>
<polygon fill="midnightblue" stroke="midnightblue" points="1432.02,-136.92 1422.81,-131.69 1426.75,-141.53 1432.02,-136.92"/>
</g>
<!-- Node31 -->
<g id="node31" class="node">
<title>Node31</title>
<g id="a_node31"><a xlink:href="x509__time__fmt_8h.html" target="_top" xlink:title=" ">
<polygon fill="white" stroke="black" points="1088.5,-168.5 1088.5,-187.5 1202.5,-187.5 1202.5,-168.5 1088.5,-168.5"/>
<text text-anchor="middle" x="1145.5" y="-175.5" font-family="Helvetica,sans-Serif" font-size="10.00">ds/x509_time_fmt.h</text>
</a>
</g>
</g>
<!-- Node14&#45;&gt;Node31 -->
<g id="edge40" class="edge">
<title>Node14&#45;&gt;Node31</title>
<path fill="none" stroke="midnightblue" d="M1245.91,-291.67C1177.33,-286.93 1067.77,-274.65 1042.5,-244 1022.15,-219.32 1061.82,-201.11 1097.68,-190.34"/>
<polygon fill="midnightblue" stroke="midnightblue" points="1098.98,-193.61 1107.64,-187.5 1097.06,-186.88 1098.98,-193.61"/>
</g>
<!-- Node35 -->
<g id="node35" class="node">
<title>Node35</title>
<g id="a_node35"><a xlink:title=" ">
<polygon fill="white" stroke="#bfbfbf" points="1051,-224.5 1051,-243.5 1140,-243.5 1140,-224.5 1051,-224.5"/>
<text text-anchor="middle" x="1095.5" y="-231.5" font-family="Helvetica,sans-Serif" font-size="10.00">openssl/asn1.h</text>
</a>
</g>
</g>
<!-- Node14&#45;&gt;Node35 -->
<g id="edge50" class="edge">
<title>Node14&#45;&gt;Node35</title>
<path fill="none" stroke="midnightblue" d="M1272.84,-285.98C1236.57,-275.55 1175.04,-257.86 1134.84,-246.31"/>
<polygon fill="midnightblue" stroke="midnightblue" points="1135.68,-242.91 1125.1,-243.51 1133.75,-249.64 1135.68,-242.91"/>
</g>
<!-- Node36 -->
<g id="node36" class="node">
<title>Node36</title>
<g id="a_node36"><a xlink:title=" ">
<polygon fill="white" stroke="#bfbfbf" points="1158,-224.5 1158,-243.5 1235,-243.5 1235,-224.5 1158,-224.5"/>
<text text-anchor="middle" x="1196.5" y="-231.5" font-family="Helvetica,sans-Serif" font-size="10.00">openssl/ec.h</text>
</a>
</g>
</g>
<!-- Node14&#45;&gt;Node36 -->
<g id="edge51" class="edge">
<title>Node14&#45;&gt;Node36</title>
<path fill="none" stroke="midnightblue" d="M1287.31,-285.98C1269.84,-276.17 1240.92,-259.93 1220.42,-248.42"/>
<polygon fill="midnightblue" stroke="midnightblue" points="1222.09,-245.35 1211.66,-243.51 1218.67,-251.46 1222.09,-245.35"/>
</g>
<!-- Node37 -->
<g id="node37" class="node">
<title>Node37</title>
<g id="a_node37"><a xlink:title=" ">
<polygon fill="white" stroke="#bfbfbf" points="1253,-224.5 1253,-243.5 1352,-243.5 1352,-224.5 1253,-224.5"/>
<text text-anchor="middle" x="1302.5" y="-231.5" font-family="Helvetica,sans-Serif" font-size="10.00">openssl/engine.h</text>
</a>
</g>
</g>
<!-- Node14&#45;&gt;Node37 -->
<g id="edge52" class="edge">
<title>Node14&#45;&gt;Node37</title>
<path fill="none" stroke="midnightblue" d="M1302.5,-285.98C1302.5,-277.58 1302.5,-264.48 1302.5,-253.66"/>
<polygon fill="midnightblue" stroke="midnightblue" points="1306,-253.51 1302.5,-243.51 1299,-253.51 1306,-253.51"/>
</g>
<!-- Node38 -->
<g id="node38" class="node">
<title>Node38</title>
<g id="a_node38"><a xlink:title=" ">
<polygon fill="white" stroke="#bfbfbf" points="1370,-224.5 1370,-243.5 1449,-243.5 1449,-224.5 1370,-224.5"/>
<text text-anchor="middle" x="1409.5" y="-231.5" font-family="Helvetica,sans-Serif" font-size="10.00">openssl/err.h</text>
</a>
</g>
</g>
<!-- Node14&#45;&gt;Node38 -->
<g id="edge53" class="edge">
<title>Node14&#45;&gt;Node38</title>
<path fill="none" stroke="midnightblue" d="M1317.83,-285.98C1335.47,-276.17 1364.66,-259.93 1385.36,-248.42"/>
<polygon fill="midnightblue" stroke="midnightblue" points="1387.16,-251.43 1394.2,-243.51 1383.76,-245.31 1387.16,-251.43"/>
</g>
<!-- Node39 -->
<g id="node39" class="node">
<title>Node39</title>
<g id="a_node39"><a xlink:title=" ">
<polygon fill="white" stroke="#bfbfbf" points="1505.5,-224.5 1505.5,-243.5 1589.5,-243.5 1589.5,-224.5 1505.5,-224.5"/>
<text text-anchor="middle" x="1547.5" y="-231.5" font-family="Helvetica,sans-Serif" font-size="10.00">openssl/evp.h</text>
</a>
</g>
</g>
<!-- Node14&#45;&gt;Node39 -->
<g id="edge54" class="edge">
<title>Node14&#45;&gt;Node39</title>
<path fill="none" stroke="midnightblue" d="M1337.6,-285.98C1380.99,-275.44 1454.91,-257.49 1502.45,-245.94"/>
<polygon fill="midnightblue" stroke="midnightblue" points="1503.57,-249.27 1512.46,-243.51 1501.92,-242.47 1503.57,-249.27"/>
</g>
<!-- Node40 -->
<g id="node40" class="node">
<title>Node40</title>
<g id="a_node40"><a xlink:title=" ">
<polygon fill="white" stroke="#bfbfbf" points="1607.5,-224.5 1607.5,-243.5 1695.5,-243.5 1695.5,-224.5 1607.5,-224.5"/>
<text text-anchor="middle" x="1651.5" y="-231.5" font-family="Helvetica,sans-Serif" font-size="10.00">openssl/pem.h</text>
</a>
</g>
</g>
<!-- Node14&#45;&gt;Node40 -->
<g id="edge55" class="edge">
<title>Node14&#45;&gt;Node40</title>
<path fill="none" stroke="midnightblue" d="M1339.42,-285.97C1348.88,-283.9 1359.05,-281.78 1368.5,-280 1467.01,-261.49 1494.67,-260.69 1597.11,-244.2"/>
<polygon fill="midnightblue" stroke="midnightblue" points="1597.95,-247.61 1607.26,-242.56 1596.83,-240.7 1597.95,-247.61"/>
</g>
<!-- Node41 -->
<g id="node41" class="node">
<title>Node41</title>
<g id="a_node41"><a xlink:title=" ">
<polygon fill="white" stroke="#bfbfbf" points="1713.5,-224.5 1713.5,-243.5 1793.5,-243.5 1793.5,-224.5 1713.5,-224.5"/>
<text text-anchor="middle" x="1753.5" y="-231.5" font-family="Helvetica,sans-Serif" font-size="10.00">openssl/ssl.h</text>
</a>
</g>
</g>
<!-- Node14&#45;&gt;Node41 -->
<g id="edge56" class="edge">
<title>Node14&#45;&gt;Node41</title>
<path fill="none" stroke="midnightblue" d="M1337.99,-285.96C1347.83,-283.79 1358.54,-281.62 1368.5,-280 1513.55,-256.37 1554.14,-265.18 1703.44,-244.05"/>
<polygon fill="midnightblue" stroke="midnightblue" points="1704.03,-247.5 1713.43,-242.61 1703.03,-240.57 1704.03,-247.5"/>
</g>
<!-- Node42 -->
<g id="node42" class="node">
<title>Node42</title>
<g id="a_node42"><a xlink:title=" ">
<polygon fill="white" stroke="#bfbfbf" points="1811.5,-224.5 1811.5,-243.5 1901.5,-243.5 1901.5,-224.5 1811.5,-224.5"/>
<text text-anchor="middle" x="1856.5" y="-231.5" font-family="Helvetica,sans-Serif" font-size="10.00">openssl/x509.h</text>
</a>
</g>
</g>
<!-- Node14&#45;&gt;Node42 -->
<g id="edge57" class="edge">
<title>Node14&#45;&gt;Node42</title>
<path fill="none" stroke="midnightblue" d="M1337.28,-285.95C1347.3,-283.73 1358.29,-281.54 1368.5,-280 1556.62,-251.66 1608.67,-267.37 1801.28,-244.04"/>
<polygon fill="midnightblue" stroke="midnightblue" points="1801.96,-247.49 1811.46,-242.79 1801.11,-240.54 1801.96,-247.49"/>
</g>
<!-- Node43 -->
<g id="node43" class="node">
<title>Node43</title>
<g id="a_node43"><a xlink:title=" ">
<polygon fill="white" stroke="#bfbfbf" points="1919.5,-224.5 1919.5,-243.5 2021.5,-243.5 2021.5,-224.5 1919.5,-224.5"/>
<text text-anchor="middle" x="1970.5" y="-231.5" font-family="Helvetica,sans-Serif" font-size="10.00">openssl/x509v3.h</text>
</a>
</g>
</g>
<!-- Node14&#45;&gt;Node43 -->
<g id="edge58" class="edge">
<title>Node14&#45;&gt;Node43</title>
<path fill="none" stroke="midnightblue" d="M1336.58,-285.99C1346.79,-283.72 1358.05,-281.49 1368.5,-280 1604.25,-246.47 1668.72,-269.28 1909.36,-244.03"/>
<polygon fill="midnightblue" stroke="midnightblue" points="1909.9,-247.49 1919.47,-242.95 1909.16,-240.53 1909.9,-247.49"/>
</g>
<!-- Node15&#45;&gt;Node8 -->
<g id="edge33" class="edge">
<title>Node15&#45;&gt;Node8</title>
<path fill="none" stroke="midnightblue" d="M727.96,-224.44C690.03,-216.14 630.92,-202.95 570.78,-188.25"/>
<polygon fill="midnightblue" stroke="midnightblue" points="571.27,-184.77 560.73,-185.78 569.6,-191.57 571.27,-184.77"/>
</g>
<!-- Node15&#45;&gt;Node9 -->
<g id="edge35" class="edge">
<title>Node15&#45;&gt;Node9</title>
<path fill="none" stroke="midnightblue" d="M742.15,-224.44C715.23,-215.36 672.5,-200.94 642.41,-190.78"/>
<polygon fill="midnightblue" stroke="midnightblue" points="643.33,-187.4 632.73,-187.52 641.09,-194.03 643.33,-187.4"/>
</g>
<!-- Node15&#45;&gt;Node12 -->
<g id="edge38" class="edge">
<title>Node15&#45;&gt;Node12</title>
<path fill="none" stroke="midnightblue" d="M760.39,-224.09C749.33,-210.65 726.82,-184.94 703.5,-168 641.45,-122.91 600.59,-139.45 557.5,-76 548.15,-62.23 543.63,-43.7 541.46,-29.95"/>
<polygon fill="midnightblue" stroke="midnightblue" points="544.9,-29.2 540.14,-19.73 537.95,-30.1 544.9,-29.2"/>
</g>
<!-- Node15&#45;&gt;Node13 -->
<g id="edge36" class="edge">
<title>Node15&#45;&gt;Node13</title>
<path fill="none" stroke="midnightblue" d="M752.56,-224.32C737.91,-215.82 715.37,-202.73 698.26,-192.8"/>
<polygon fill="midnightblue" stroke="midnightblue" points="699.81,-189.65 689.4,-187.65 696.3,-195.7 699.81,-189.65"/>
</g>
<!-- Node16 -->
<g id="node16" class="node">
<title>Node16</title>
<g id="a_node16"><a xlink:href="json_8h.html" target="_top" xlink:title=" ">
<polygon fill="white" stroke="black" points="834,-168.5 834,-187.5 911,-187.5 911,-168.5 834,-168.5"/>
<text text-anchor="middle" x="872.5" y="-175.5" font-family="Helvetica,sans-Serif" font-size="10.00">ccf/ds/json.h</text>
</a>
</g>
</g>
<!-- Node15&#45;&gt;Node16 -->
<g id="edge16" class="edge">
<title>Node15&#45;&gt;Node16</title>
<path fill="none" stroke="midnightblue" d="M784.37,-224.32C801.21,-215.66 827.31,-202.24 846.74,-192.25"/>
<polygon fill="midnightblue" stroke="midnightblue" points="848.38,-195.34 855.67,-187.65 845.18,-189.12 848.38,-195.34"/>
</g>
<!-- Node24 -->
<g id="node24" class="node">
<title>Node24</title>
<g id="a_node24"><a xlink:title=" ">
<polygon fill="white" stroke="#bfbfbf" points="1018,-0.5 1018,-19.5 1091,-19.5 1091,-0.5 1018,-0.5"/>
<text text-anchor="middle" x="1054.5" y="-7.5" font-family="Helvetica,sans-Serif" font-size="10.00">string_view</text>
</a>
</g>
</g>
<!-- Node15&#45;&gt;Node24 -->
<g id="edge37" class="edge">
<title>Node15&#45;&gt;Node24</title>
<path fill="none" stroke="midnightblue" d="M816.64,-224.56C847.83,-217.79 888.24,-206.32 920.5,-188 984.22,-151.82 1005.68,-139.93 1041.5,-76 1049.5,-61.72 1052.62,-43.26 1053.82,-29.65"/>
<polygon fill="midnightblue" stroke="midnightblue" points="1057.32,-29.77 1054.44,-19.57 1050.33,-29.34 1057.32,-29.77"/>
</g>
<!-- Node29 -->
<g id="node29" class="node">
<title>Node29</title>
<g id="a_node29"><a xlink:title=" ">
<polygon fill="white" stroke="#bfbfbf" points="751,-168.5 751,-187.5 816,-187.5 816,-168.5 751,-168.5"/>
<text text-anchor="middle" x="783.5" y="-175.5" font-family="Helvetica,sans-Serif" font-size="10.00">exception</text>
</a>
</g>
</g>
<!-- Node15&#45;&gt;Node29 -->
<g id="edge34" class="edge">
<title>Node15&#45;&gt;Node29</title>
<path fill="none" stroke="midnightblue" d="M770.14,-224.08C772.29,-216.85 775.38,-206.41 778.05,-197.4"/>
<polygon fill="midnightblue" stroke="midnightblue" points="781.42,-198.33 780.91,-187.75 774.71,-196.34 781.42,-198.33"/>
</g>
<!-- Node17 -->
<g id="node17" class="node">
<title>Node17</title>
<g id="a_node17"><a xlink:href="include_2ccf_2crypto_2base64_8h.html" target="_top" xlink:title=" ">
<polygon fill="white" stroke="black" points="586.5,-56.5 586.5,-75.5 698.5,-75.5 698.5,-56.5 586.5,-56.5"/>
<text text-anchor="middle" x="642.5" y="-63.5" font-family="Helvetica,sans-Serif" font-size="10.00">ccf/crypto/base64.h</text>
</a>
</g>
</g>
<!-- Node16&#45;&gt;Node17 -->
<g id="edge17" class="edge">
<title>Node16&#45;&gt;Node17</title>
<path fill="none" stroke="midnightblue" d="M834.71,-168.44C794.61,-158.98 734.24,-143.56 713.5,-132 690.8,-119.35 669.49,-98.09 656.25,-83.34"/>
<polygon fill="midnightblue" stroke="midnightblue" points="658.64,-80.76 649.43,-75.53 653.37,-85.36 658.64,-80.76"/>
</g>
<!-- Node19 -->
<g id="node19" class="node">
<title>Node19</title>
<g id="a_node19"><a xlink:href="include_2ccf_2ds_2json__schema_8h.html" target="_top" xlink:title=" ">
<polygon fill="white" stroke="black" points="723,-112.5 723,-131.5 844,-131.5 844,-112.5 723,-112.5"/>
<text text-anchor="middle" x="783.5" y="-119.5" font-family="Helvetica,sans-Serif" font-size="10.00">ccf/ds/json_schema.h</text>
</a>
</g>
</g>
<!-- Node16&#45;&gt;Node19 -->
<g id="edge20" class="edge">
<title>Node16&#45;&gt;Node19</title>
<path fill="none" stroke="midnightblue" d="M858.2,-168.32C844.32,-159.9 823.01,-146.97 806.7,-137.07"/>
<polygon fill="midnightblue" stroke="midnightblue" points="808.13,-133.85 797.76,-131.65 804.5,-139.83 808.13,-133.85"/>
</g>
<!-- Node16&#45;&gt;Node26 -->
<g id="edge31" class="edge">
<title>Node16&#45;&gt;Node26</title>
<path fill="none" stroke="midnightblue" d="M872.79,-168.33C873.68,-154.74 877.27,-128.29 891.5,-112 905.27,-96.24 925.62,-85.74 944.46,-78.89"/>
<polygon fill="midnightblue" stroke="midnightblue" points="945.77,-82.14 954.12,-75.62 943.53,-75.5 945.77,-82.14"/>
</g>
<!-- Node28 -->
<g id="node28" class="node">
<title>Node28</title>
<g id="a_node28"><a xlink:title=" ">
<polygon fill="white" stroke="#bfbfbf" points="900.5,-112.5 900.5,-131.5 956.5,-131.5 956.5,-112.5 900.5,-112.5"/>
<text text-anchor="middle" x="928.5" y="-119.5" font-family="Helvetica,sans-Serif" font-size="10.00">sstream</text>
</a>
</g>
</g>
<!-- Node16&#45;&gt;Node28 -->
<g id="edge32" class="edge">
<title>Node16&#45;&gt;Node28</title>
<path fill="none" stroke="midnightblue" d="M881.5,-168.32C889.69,-160.42 902.01,-148.55 911.97,-138.94"/>
<polygon fill="midnightblue" stroke="midnightblue" points="914.57,-141.29 919.34,-131.83 909.71,-136.26 914.57,-141.29"/>
</g>
<!-- Node17&#45;&gt;Node12 -->
<g id="edge19" class="edge">
<title>Node17&#45;&gt;Node12</title>
<path fill="none" stroke="midnightblue" d="M625.95,-56.32C609.51,-47.7 584.07,-34.36 565.03,-24.39"/>
<polygon fill="midnightblue" stroke="midnightblue" points="566.49,-21.2 556.01,-19.65 563.24,-27.4 566.49,-21.2"/>
</g>
<!-- Node18 -->
<g id="node18" class="node">
<title>Node18</title>
<g id="a_node18"><a xlink:title=" ">
<polygon fill="white" stroke="#bfbfbf" points="636.5,-0.5 636.5,-19.5 680.5,-19.5 680.5,-0.5 636.5,-0.5"/>
<text text-anchor="middle" x="658.5" y="-7.5" font-family="Helvetica,sans-Serif" font-size="10.00">string</text>
</a>
</g>
</g>
<!-- Node17&#45;&gt;Node18 -->
<g id="edge18" class="edge">
<title>Node17&#45;&gt;Node18</title>
<path fill="none" stroke="midnightblue" d="M645.14,-56.08C647.29,-48.85 650.38,-38.41 653.05,-29.4"/>
<polygon fill="midnightblue" stroke="midnightblue" points="656.42,-30.33 655.91,-19.75 649.71,-28.34 656.42,-30.33"/>
</g>
<!-- Node20 -->
<g id="node20" class="node">
<title>Node20</title>
<g id="a_node20"><a xlink:href="nonstd_8h.html" target="_top" xlink:title=" ">
<polygon fill="white" stroke="black" points="844.5,-56.5 844.5,-75.5 934.5,-75.5 934.5,-56.5 844.5,-56.5"/>
<text text-anchor="middle" x="889.5" y="-63.5" font-family="Helvetica,sans-Serif" font-size="10.00">ccf/ds/nonstd.h</text>
</a>
</g>
</g>
<!-- Node19&#45;&gt;Node20 -->
<g id="edge21" class="edge">
<title>Node19&#45;&gt;Node20</title>
<path fill="none" stroke="midnightblue" d="M800.53,-112.32C817.53,-103.66 843.88,-90.24 863.49,-80.25"/>
<polygon fill="midnightblue" stroke="midnightblue" points="865.19,-83.31 872.51,-75.65 862.01,-77.08 865.19,-83.31"/>
</g>
<!-- Node19&#45;&gt;Node26 -->
<g id="edge29" class="edge">
<title>Node19&#45;&gt;Node26</title>
<path fill="none" stroke="midnightblue" d="M816.62,-112.44C852.62,-103.14 910.27,-88.25 949.69,-78.06"/>
<polygon fill="midnightblue" stroke="midnightblue" points="950.73,-81.41 959.54,-75.52 948.98,-74.63 950.73,-81.41"/>
</g>
<!-- Node27 -->
<g id="node27" class="node">
<title>Node27</title>
<g id="a_node27"><a xlink:title=" ">
<polygon fill="white" stroke="#bfbfbf" points="716.5,-56.5 716.5,-75.5 826.5,-75.5 826.5,-56.5 716.5,-56.5"/>
<text text-anchor="middle" x="771.5" y="-63.5" font-family="Helvetica,sans-Serif" font-size="10.00">nlohmann/json.hpp</text>
</a>
</g>
</g>
<!-- Node19&#45;&gt;Node27 -->
<g id="edge30" class="edge">
<title>Node19&#45;&gt;Node27</title>
<path fill="none" stroke="midnightblue" d="M781.52,-112.08C779.93,-104.93 777.64,-94.64 775.65,-85.69"/>
<polygon fill="midnightblue" stroke="midnightblue" points="779.03,-84.75 773.44,-75.75 772.2,-86.27 779.03,-84.75"/>
</g>
<!-- Node20&#45;&gt;Node12 -->
<g id="edge28" class="edge">
<title>Node20&#45;&gt;Node12</title>
<path fill="none" stroke="midnightblue" d="M844.43,-57.44C841.41,-56.95 838.41,-56.46 835.5,-56 740.7,-40.89 628.62,-24.16 573.54,-16.01"/>
<polygon fill="midnightblue" stroke="midnightblue" points="573.71,-12.5 563.31,-14.5 572.69,-19.43 573.71,-12.5"/>
</g>
<!-- Node20&#45;&gt;Node18 -->
<g id="edge25" class="edge">
<title>Node20&#45;&gt;Node18</title>
<path fill="none" stroke="midnightblue" d="M852.9,-56.44C808.12,-45.98 733.04,-28.42 690.48,-18.47"/>
<polygon fill="midnightblue" stroke="midnightblue" points="691.18,-15.05 680.65,-16.18 689.59,-21.86 691.18,-15.05"/>
</g>
<!-- Node21 -->
<g id="node21" class="node">
<title>Node21</title>
<g id="a_node21"><a xlink:title=" ">
<polygon fill="white" stroke="#bfbfbf" points="863.5,-0.5 863.5,-19.5 927.5,-19.5 927.5,-0.5 863.5,-0.5"/>
<text text-anchor="middle" x="895.5" y="-7.5" font-family="Helvetica,sans-Serif" font-size="10.00">algorithm</text>
</a>
</g>
</g>
<!-- Node20&#45;&gt;Node21 -->
<g id="edge22" class="edge">
<title>Node20&#45;&gt;Node21</title>
<path fill="none" stroke="midnightblue" d="M890.49,-56.08C891.29,-48.93 892.43,-38.64 893.42,-29.69"/>
<polygon fill="midnightblue" stroke="midnightblue" points="896.9,-30.08 894.53,-19.75 889.94,-29.3 896.9,-30.08"/>
</g>
<!-- Node22 -->
<g id="node22" class="node">
<title>Node22</title>
<g id="a_node22"><a xlink:title=" ">
<polygon fill="white" stroke="#bfbfbf" points="945.5,-0.5 945.5,-19.5 987.5,-19.5 987.5,-0.5 945.5,-0.5"/>
<text text-anchor="middle" x="966.5" y="-7.5" font-family="Helvetica,sans-Serif" font-size="10.00">array</text>
</a>
</g>
</g>
<!-- Node20&#45;&gt;Node22 -->
<g id="edge23" class="edge">
<title>Node20&#45;&gt;Node22</title>
<path fill="none" stroke="midnightblue" d="M901.87,-56.32C913.66,-48.06 931.63,-35.45 945.64,-25.63"/>
<polygon fill="midnightblue" stroke="midnightblue" points="947.98,-28.26 954.16,-19.65 943.96,-22.53 947.98,-28.26"/>
</g>
<!-- Node23 -->
<g id="node23" class="node">
<title>Node23</title>
<g id="a_node23"><a xlink:title=" ">
<polygon fill="white" stroke="#bfbfbf" points="709,-0.5 709,-19.5 758,-19.5 758,-0.5 709,-0.5"/>
<text text-anchor="middle" x="733.5" y="-7.5" font-family="Helvetica,sans-Serif" font-size="10.00">cctype</text>
</a>
</g>
</g>
<!-- Node20&#45;&gt;Node23 -->
<g id="edge24" class="edge">
<title>Node20&#45;&gt;Node23</title>
<path fill="none" stroke="midnightblue" d="M864.78,-56.44C838.65,-47.4 797.24,-33.06 767.92,-22.92"/>
<polygon fill="midnightblue" stroke="midnightblue" points="768.7,-19.48 758.1,-19.52 766.41,-26.1 768.7,-19.48"/>
</g>
<!-- Node20&#45;&gt;Node24 -->
<g id="edge26" class="edge">
<title>Node20&#45;&gt;Node24</title>
<path fill="none" stroke="midnightblue" d="M915.64,-56.44C943.52,-47.32 987.85,-32.81 1018.9,-22.65"/>
<polygon fill="midnightblue" stroke="midnightblue" points="1020.06,-25.95 1028.48,-19.52 1017.88,-19.3 1020.06,-25.95"/>
</g>
<!-- Node25 -->
<g id="node25" class="node">
<title>Node25</title>
<g id="a_node25"><a xlink:title=" ">
<polygon fill="white" stroke="#bfbfbf" points="776,-0.5 776,-19.5 845,-19.5 845,-0.5 776,-0.5"/>
<text text-anchor="middle" x="810.5" y="-7.5" font-family="Helvetica,sans-Serif" font-size="10.00">type_traits</text>
</a>
</g>
</g>
<!-- Node20&#45;&gt;Node25 -->
<g id="edge27" class="edge">
<title>Node20&#45;&gt;Node25</title>
<path fill="none" stroke="midnightblue" d="M876.81,-56.32C864.6,-47.98 845.92,-35.21 831.5,-25.35"/>
<polygon fill="midnightblue" stroke="midnightblue" points="833.39,-22.41 823.16,-19.65 829.44,-28.19 833.39,-22.41"/>
</g>
<!-- Node31&#45;&gt;Node12 -->
<g id="edge47" class="edge">
<title>Node31&#45;&gt;Node12</title>
<path fill="none" stroke="midnightblue" d="M1088.33,-176.23C1004.77,-173.94 844.92,-165.17 713.5,-132 650.12,-116.01 626.81,-118.91 577.5,-76 562.9,-63.29 552.48,-43.54 546.28,-29.15"/>
<polygon fill="midnightblue" stroke="midnightblue" points="549.5,-27.76 542.52,-19.79 543,-30.37 549.5,-27.76"/>
</g>
<!-- Node31&#45;&gt;Node26 -->
<g id="edge43" class="edge">
<title>Node31&#45;&gt;Node26</title>
<path fill="none" stroke="midnightblue" d="M1132.24,-168.2C1118.83,-159.25 1097.56,-144.89 1079.5,-132 1055.98,-115.21 1029.43,-95.22 1011.92,-81.89"/>
<polygon fill="midnightblue" stroke="midnightblue" points="1013.72,-78.86 1003.65,-75.57 1009.47,-84.42 1013.72,-78.86"/>
</g>
<!-- Node31&#45;&gt;Node28 -->
<g id="edge45" class="edge">
<title>Node31&#45;&gt;Node28</title>
<path fill="none" stroke="midnightblue" d="M1111.12,-168.44C1071.67,-158.63 1007.2,-142.59 966.36,-132.42"/>
<polygon fill="midnightblue" stroke="midnightblue" points="967.06,-128.99 956.51,-129.97 965.37,-135.78 967.06,-128.99"/>
</g>
<!-- Node31&#45;&gt;Node30 -->
<g id="edge41" class="edge">
<title>Node31&#45;&gt;Node30</title>
<path fill="none" stroke="midnightblue" d="M1188.12,-168.44C1241.1,-157.81 1330.49,-139.86 1379.6,-130.01"/>
<polygon fill="midnightblue" stroke="midnightblue" points="1380.32,-133.43 1389.44,-128.03 1378.94,-126.57 1380.32,-133.43"/>
</g>
<!-- Node32 -->
<g id="node32" class="node">
<title>Node32</title>
<g id="a_node32"><a xlink:title=" ">
<polygon fill="white" stroke="#bfbfbf" points="1155,-112.5 1155,-131.5 1234,-131.5 1234,-112.5 1155,-112.5"/>
<text text-anchor="middle" x="1194.5" y="-119.5" font-family="Helvetica,sans-Serif" font-size="10.00">fmt/chrono.h</text>
</a>
</g>
</g>
<!-- Node31&#45;&gt;Node32 -->
<g id="edge42" class="edge">
<title>Node31&#45;&gt;Node32</title>
<path fill="none" stroke="midnightblue" d="M1153.59,-168.08C1160.66,-160.3 1171.09,-148.8 1179.65,-139.37"/>
<polygon fill="midnightblue" stroke="midnightblue" points="1182.43,-141.51 1186.56,-131.75 1177.25,-136.8 1182.43,-141.51"/>
</g>
<!-- Node33 -->
<g id="node33" class="node">
<title>Node33</title>
<g id="a_node33"><a xlink:title=" ">
<polygon fill="white" stroke="#bfbfbf" points="1251.5,-112.5 1251.5,-131.5 1307.5,-131.5 1307.5,-112.5 1251.5,-112.5"/>
<text text-anchor="middle" x="1279.5" y="-119.5" font-family="Helvetica,sans-Serif" font-size="10.00">iomanip</text>
</a>
</g>
</g>
<!-- Node31&#45;&gt;Node33 -->
<g id="edge44" class="edge">
<title>Node31&#45;&gt;Node33</title>
<path fill="none" stroke="midnightblue" d="M1166.73,-168.44C1188.88,-159.52 1223.82,-145.44 1248.94,-135.32"/>
<polygon fill="midnightblue" stroke="midnightblue" points="1250.4,-138.5 1258.37,-131.52 1247.78,-132.01 1250.4,-138.5"/>
</g>
<!-- Node34 -->
<g id="node34" class="node">
<title>Node34</title>
<g id="a_node34"><a xlink:title=" ">
<polygon fill="white" stroke="#bfbfbf" points="1088.5,-112.5 1088.5,-131.5 1136.5,-131.5 1136.5,-112.5 1088.5,-112.5"/>
<text text-anchor="middle" x="1112.5" y="-119.5" font-family="Helvetica,sans-Serif" font-size="10.00">time.h</text>
</a>
</g>
</g>
<!-- Node31&#45;&gt;Node34 -->
<g id="edge46" class="edge">
<title>Node31&#45;&gt;Node34</title>
<path fill="none" stroke="midnightblue" d="M1140.05,-168.08C1135.49,-160.61 1128.83,-149.72 1123.21,-140.52"/>
<polygon fill="midnightblue" stroke="midnightblue" points="1126.05,-138.46 1117.85,-131.75 1120.08,-142.11 1126.05,-138.46"/>
</g>
</g>
</svg>
