<?xml version="1.0" encoding="UTF-8" standalone="no"?>
<!DOCTYPE svg PUBLIC "-//W3C//DTD SVG 1.1//EN"
 "http://www.w3.org/Graphics/SVG/1.1/DTD/svg11.dtd">
<!-- Generated by graphviz version 2.43.0 (0)
 -->
<!-- Title: src/crypto/openssl/public_key.h Pages: 1 -->
<svg width="1909pt" height="431pt"
 viewBox="0.00 0.00 1909.00 431.00" xmlns="http://www.w3.org/2000/svg" xmlns:xlink="http://www.w3.org/1999/xlink">
<g id="graph0" class="graph" transform="scale(1 1) rotate(0) translate(4 427)">
<title>src/crypto/openssl/public_key.h</title>
<polygon fill="white" stroke="transparent" points="-4,4 -4,-427 1905,-427 1905,4 -4,4"/>
<!-- Node1 -->
<g id="node1" class="node">
<title>Node1</title>
<g id="a_node1"><a xlink:title=" ">
<polygon fill="#bfbfbf" stroke="black" points="1056.5,-392.5 1056.5,-422.5 1161.5,-422.5 1161.5,-392.5 1056.5,-392.5"/>
<text text-anchor="start" x="1064.5" y="-410.5" font-family="Helvetica,sans-Serif" font-size="10.00">src/crypto/openssl</text>
<text text-anchor="middle" x="1109" y="-399.5" font-family="Helvetica,sans-Serif" font-size="10.00">/public_key.h</text>
</a>
</g>
</g>
<!-- Node2 -->
<g id="node2" class="node">
<title>Node2</title>
<g id="a_node2"><a xlink:href="include_2ccf_2crypto_2public__key_8h.html" target="_top" xlink:title=" ">
<polygon fill="white" stroke="black" points="457.5,-336.5 457.5,-355.5 584.5,-355.5 584.5,-336.5 457.5,-336.5"/>
<text text-anchor="middle" x="521" y="-343.5" font-family="Helvetica,sans-Serif" font-size="10.00">ccf/crypto/public_key.h</text>
</a>
</g>
</g>
<!-- Node1&#45;&gt;Node2 -->
<g id="edge1" class="edge">
<title>Node1&#45;&gt;Node2</title>
<path fill="none" stroke="midnightblue" d="M1056.3,-401.17C951.26,-390.54 715.57,-366.69 595.04,-354.49"/>
<polygon fill="midnightblue" stroke="midnightblue" points="595.1,-350.98 584.8,-353.46 594.4,-357.95 595.1,-350.98"/>
</g>
<!-- Node7 -->
<g id="node7" class="node">
<title>Node7</title>
<g id="a_node7"><a xlink:title=" ">
<polygon fill="white" stroke="#bfbfbf" points="193,-0.5 193,-19.5 237,-19.5 237,-0.5 193,-0.5"/>
<text text-anchor="middle" x="215" y="-7.5" font-family="Helvetica,sans-Serif" font-size="10.00">string</text>
</a>
</g>
</g>
<!-- Node1&#45;&gt;Node7 -->
<g id="edge72" class="edge">
<title>Node1&#45;&gt;Node7</title>
<path fill="none" stroke="midnightblue" d="M1056.26,-406.62C835.86,-406.41 0,-398.56 0,-291 0,-291 0,-291 0,-121 0,-39.92 122.69,-18.56 182.71,-12.97"/>
<polygon fill="midnightblue" stroke="midnightblue" points="183.13,-16.45 192.8,-12.12 182.54,-9.47 183.13,-16.45"/>
</g>
<!-- Node20 -->
<g id="node20" class="node">
<title>Node20</title>
<g id="a_node20"><a xlink:title=" ">
<polygon fill="white" stroke="#bfbfbf" points="424.5,-224.5 424.5,-243.5 489.5,-243.5 489.5,-224.5 424.5,-224.5"/>
<text text-anchor="middle" x="457" y="-231.5" font-family="Helvetica,sans-Serif" font-size="10.00">stdexcept</text>
</a>
</g>
</g>
<!-- Node1&#45;&gt;Node20 -->
<g id="edge71" class="edge">
<title>Node1&#45;&gt;Node20</title>
<path fill="none" stroke="midnightblue" d="M1067.46,-392.41C992.65,-367.38 829.98,-314.55 690,-280 685.37,-278.86 565.63,-255.84 499.65,-243.18"/>
<polygon fill="midnightblue" stroke="midnightblue" points="500.03,-239.69 489.55,-241.24 498.71,-246.56 500.03,-239.69"/>
</g>
<!-- Node30 -->
<g id="node30" class="node">
<title>Node30</title>
<g id="a_node30"><a xlink:href="openssl__wrappers_8h.html" target="_top" xlink:title=" ">
<polygon fill="white" stroke="black" points="1199.5,-280.5 1199.5,-299.5 1312.5,-299.5 1312.5,-280.5 1199.5,-280.5"/>
<text text-anchor="middle" x="1256" y="-287.5" font-family="Helvetica,sans-Serif" font-size="10.00">openssl_wrappers.h</text>
</a>
</g>
</g>
<!-- Node1&#45;&gt;Node30 -->
<g id="edge47" class="edge">
<title>Node1&#45;&gt;Node30</title>
<path fill="none" stroke="midnightblue" d="M1127.03,-392.34C1154.96,-370.39 1208.44,-328.37 1236.97,-305.95"/>
<polygon fill="midnightblue" stroke="midnightblue" points="1239.27,-308.6 1244.97,-299.67 1234.94,-303.1 1239.27,-308.6"/>
</g>
<!-- Node39 -->
<g id="node39" class="node">
<title>Node39</title>
<g id="a_node39"><a xlink:title=" ">
<polygon fill="white" stroke="#bfbfbf" points="1720.5,-224.5 1720.5,-243.5 1799.5,-243.5 1799.5,-224.5 1720.5,-224.5"/>
<text text-anchor="middle" x="1760" y="-231.5" font-family="Helvetica,sans-Serif" font-size="10.00">openssl/err.h</text>
</a>
</g>
</g>
<!-- Node1&#45;&gt;Node39 -->
<g id="edge69" class="edge">
<title>Node1&#45;&gt;Node39</title>
<path fill="none" stroke="midnightblue" d="M1161.72,-392.61C1287.48,-359.48 1603.08,-276.34 1717.62,-246.16"/>
<polygon fill="midnightblue" stroke="midnightblue" points="1718.66,-249.51 1727.43,-243.58 1716.87,-242.74 1718.66,-249.51"/>
</g>
<!-- Node40 -->
<g id="node40" class="node">
<title>Node40</title>
<g id="a_node40"><a xlink:title=" ">
<polygon fill="white" stroke="#bfbfbf" points="1817,-224.5 1817,-243.5 1901,-243.5 1901,-224.5 1817,-224.5"/>
<text text-anchor="middle" x="1859" y="-231.5" font-family="Helvetica,sans-Serif" font-size="10.00">openssl/evp.h</text>
</a>
</g>
</g>
<!-- Node1&#45;&gt;Node40 -->
<g id="edge70" class="edge">
<title>Node1&#45;&gt;Node40</title>
<path fill="none" stroke="midnightblue" d="M1161.71,-396.01C1211,-386.09 1286.61,-370.6 1352,-356 1523.61,-317.7 1726.79,-267.83 1814.76,-246.02"/>
<polygon fill="midnightblue" stroke="midnightblue" points="1815.79,-249.37 1824.65,-243.57 1814.11,-242.58 1815.79,-249.37"/>
</g>
<!-- Node3 -->
<g id="node3" class="node">
<title>Node3</title>
<g id="a_node3"><a xlink:href="curve_8h.html" target="_top" xlink:title=" ">
<polygon fill="white" stroke="black" points="315,-280.5 315,-299.5 419,-299.5 419,-280.5 315,-280.5"/>
<text text-anchor="middle" x="367" y="-287.5" font-family="Helvetica,sans-Serif" font-size="10.00">ccf/crypto/curve.h</text>
</a>
</g>
</g>
<!-- Node2&#45;&gt;Node3 -->
<g id="edge2" class="edge">
<title>Node2&#45;&gt;Node3</title>
<path fill="none" stroke="midnightblue" d="M496.6,-336.44C470.8,-327.4 429.92,-313.06 400.98,-302.92"/>
<polygon fill="midnightblue" stroke="midnightblue" points="401.88,-299.52 391.29,-299.52 399.57,-306.13 401.88,-299.52"/>
</g>
<!-- Node2&#45;&gt;Node7 -->
<g id="edge45" class="edge">
<title>Node2&#45;&gt;Node7</title>
<path fill="none" stroke="midnightblue" d="M457.36,-343.71C326.2,-339.33 38,-320.03 38,-235 38,-235 38,-235 38,-121 38,-53.47 132.08,-25.94 183.06,-15.98"/>
<polygon fill="midnightblue" stroke="midnightblue" points="183.74,-19.41 192.94,-14.16 182.47,-12.53 183.74,-19.41"/>
</g>
<!-- Node8 -->
<g id="node8" class="node">
<title>Node8</title>
<g id="a_node8"><a xlink:title=" ">
<polygon fill="white" stroke="#bfbfbf" points="816.5,-0.5 816.5,-19.5 863.5,-19.5 863.5,-0.5 816.5,-0.5"/>
<text text-anchor="middle" x="840" y="-7.5" font-family="Helvetica,sans-Serif" font-size="10.00">vector</text>
</a>
</g>
</g>
<!-- Node2&#45;&gt;Node8 -->
<g id="edge46" class="edge">
<title>Node2&#45;&gt;Node8</title>
<path fill="none" stroke="midnightblue" d="M570.91,-336.45C610.99,-328.9 668.41,-316.51 717,-300 793.83,-273.9 806.05,-249.73 883,-224 953.77,-200.33 1000.23,-246.15 1047,-188 1106.44,-114.1 945.68,-47.35 873.28,-21.91"/>
<polygon fill="midnightblue" stroke="midnightblue" points="874.27,-18.55 863.68,-18.6 871.99,-25.17 874.27,-18.55"/>
</g>
<!-- Node21 -->
<g id="node21" class="node">
<title>Node21</title>
<g id="a_node21"><a xlink:href="hash__bytes_8h.html" target="_top" xlink:title=" ">
<polygon fill="white" stroke="black" points="549,-280.5 549,-299.5 681,-299.5 681,-280.5 549,-280.5"/>
<text text-anchor="middle" x="615" y="-287.5" font-family="Helvetica,sans-Serif" font-size="10.00">ccf/crypto/hash_bytes.h</text>
</a>
</g>
</g>
<!-- Node2&#45;&gt;Node21 -->
<g id="edge27" class="edge">
<title>Node2&#45;&gt;Node21</title>
<path fill="none" stroke="midnightblue" d="M536.1,-336.32C550.9,-327.82 573.69,-314.73 590.98,-304.8"/>
<polygon fill="midnightblue" stroke="midnightblue" points="593.01,-307.67 599.93,-299.65 589.52,-301.6 593.01,-307.67"/>
</g>
<!-- Node22 -->
<g id="node22" class="node">
<title>Node22</title>
<g id="a_node22"><a xlink:title=" ">
<polygon fill="white" stroke="#bfbfbf" points="356,-224.5 356,-243.5 406,-243.5 406,-224.5 356,-224.5"/>
<text text-anchor="middle" x="381" y="-231.5" font-family="Helvetica,sans-Serif" font-size="10.00">cstdint</text>
</a>
</g>
</g>
<!-- Node2&#45;&gt;Node22 -->
<g id="edge43" class="edge">
<title>Node2&#45;&gt;Node22</title>
<path fill="none" stroke="midnightblue" d="M457.25,-344.36C381.1,-342.08 260.4,-333.17 232,-300 226.22,-293.25 226.7,-287.14 232,-280 245.61,-261.68 306.12,-247.94 345.72,-240.72"/>
<polygon fill="midnightblue" stroke="midnightblue" points="346.55,-244.13 355.79,-238.94 345.33,-237.23 346.55,-244.13"/>
</g>
<!-- Node23 -->
<g id="node23" class="node">
<title>Node23</title>
<g id="a_node23"><a xlink:href="pem_8h.html" target="_top" xlink:title=" ">
<polygon fill="white" stroke="black" points="700,-224.5 700,-243.5 798,-243.5 798,-224.5 700,-224.5"/>
<text text-anchor="middle" x="749" y="-231.5" font-family="Helvetica,sans-Serif" font-size="10.00">ccf/crypto/pem.h</text>
</a>
</g>
</g>
<!-- Node2&#45;&gt;Node23 -->
<g id="edge30" class="edge">
<title>Node2&#45;&gt;Node23</title>
<path fill="none" stroke="midnightblue" d="M584.62,-336.91C617.84,-330.57 658.1,-319.42 690,-300 710.05,-287.79 727.33,-266.74 737.92,-251.91"/>
<polygon fill="midnightblue" stroke="midnightblue" points="740.84,-253.84 743.61,-243.61 735.07,-249.88 740.84,-253.84"/>
</g>
<!-- Node28 -->
<g id="node28" class="node">
<title>Node28</title>
<g id="a_node28"><a xlink:href="san_8h.html" target="_top" xlink:title=" ">
<polygon fill="white" stroke="black" points="546,-224.5 546,-243.5 640,-243.5 640,-224.5 546,-224.5"/>
<text text-anchor="middle" x="593" y="-231.5" font-family="Helvetica,sans-Serif" font-size="10.00">ccf/crypto/san.h</text>
</a>
</g>
</g>
<!-- Node2&#45;&gt;Node28 -->
<g id="edge38" class="edge">
<title>Node2&#45;&gt;Node28</title>
<path fill="none" stroke="midnightblue" d="M521.93,-336.35C523.66,-323.23 528.35,-297.95 540,-280 547.8,-267.98 559.77,-257.42 570.36,-249.57"/>
<polygon fill="midnightblue" stroke="midnightblue" points="572.64,-252.24 578.81,-243.63 568.62,-246.51 572.64,-252.24"/>
</g>
<!-- Node29 -->
<g id="node29" class="node">
<title>Node29</title>
<g id="a_node29"><a xlink:title=" ">
<polygon fill="white" stroke="#bfbfbf" points="241,-280.5 241,-299.5 297,-299.5 297,-280.5 241,-280.5"/>
<text text-anchor="middle" x="269" y="-287.5" font-family="Helvetica,sans-Serif" font-size="10.00">optional</text>
</a>
</g>
</g>
<!-- Node2&#45;&gt;Node29 -->
<g id="edge44" class="edge">
<title>Node2&#45;&gt;Node29</title>
<path fill="none" stroke="midnightblue" d="M478.08,-336.44C436.74,-328.1 372.2,-314.84 307.26,-300.23"/>
<polygon fill="midnightblue" stroke="midnightblue" points="307.79,-296.76 297.26,-297.97 306.24,-303.59 307.79,-296.76"/>
</g>
<!-- Node4 -->
<g id="node4" class="node">
<title>Node4</title>
<g id="a_node4"><a xlink:href="md__type_8h.html" target="_top" xlink:title=" ">
<polygon fill="white" stroke="black" points="180.5,-224.5 180.5,-243.5 299.5,-243.5 299.5,-224.5 180.5,-224.5"/>
<text text-anchor="middle" x="240" y="-231.5" font-family="Helvetica,sans-Serif" font-size="10.00">ccf/crypto/md_type.h</text>
</a>
</g>
</g>
<!-- Node3&#45;&gt;Node4 -->
<g id="edge3" class="edge">
<title>Node3&#45;&gt;Node4</title>
<path fill="none" stroke="midnightblue" d="M346.88,-280.44C325.98,-271.56 293.07,-257.56 269.28,-247.45"/>
<polygon fill="midnightblue" stroke="midnightblue" points="270.6,-244.21 260.03,-243.52 267.86,-250.65 270.6,-244.21"/>
</g>
<!-- Node5 -->
<g id="node5" class="node">
<title>Node5</title>
<g id="a_node5"><a xlink:href="json_8h.html" target="_top" xlink:title=" ">
<polygon fill="white" stroke="black" points="492.5,-168.5 492.5,-187.5 569.5,-187.5 569.5,-168.5 492.5,-168.5"/>
<text text-anchor="middle" x="531" y="-175.5" font-family="Helvetica,sans-Serif" font-size="10.00">ccf/ds/json.h</text>
</a>
</g>
</g>
<!-- Node3&#45;&gt;Node5 -->
<g id="edge23" class="edge">
<title>Node3&#45;&gt;Node5</title>
<path fill="none" stroke="midnightblue" d="M359.63,-280.08C349.44,-266.63 333.73,-240.9 347,-224 363.54,-202.93 433.54,-190.45 482.27,-184.16"/>
<polygon fill="midnightblue" stroke="midnightblue" points="482.82,-187.62 492.31,-182.92 481.96,-180.68 482.82,-187.62"/>
</g>
<!-- Node3&#45;&gt;Node7 -->
<g id="edge26" class="edge">
<title>Node3&#45;&gt;Node7</title>
<path fill="none" stroke="midnightblue" d="M316.21,-280.49C254.39,-269.89 156.28,-252.17 141,-244 104.97,-224.74 76,-219.86 76,-179 76,-179 76,-179 76,-121 76,-66.56 142.38,-34.83 183.4,-20.42"/>
<polygon fill="midnightblue" stroke="midnightblue" points="184.61,-23.71 192.98,-17.21 182.38,-17.07 184.61,-23.71"/>
</g>
<!-- Node16 -->
<g id="node16" class="node">
<title>Node16</title>
<g id="a_node16"><a xlink:title=" ">
<polygon fill="white" stroke="#bfbfbf" points="258.5,-56.5 258.5,-75.5 337.5,-75.5 337.5,-56.5 258.5,-56.5"/>
<text text-anchor="middle" x="298" y="-63.5" font-family="Helvetica,sans-Serif" font-size="10.00">fmt/format.h</text>
</a>
</g>
</g>
<!-- Node3&#45;&gt;Node16 -->
<g id="edge24" class="edge">
<title>Node3&#45;&gt;Node16</title>
<path fill="none" stroke="midnightblue" d="M318.06,-280.42C261.72,-270.19 175.33,-253.33 163,-244 140.49,-226.96 139.87,-215.39 133,-188 118.1,-128.64 197.98,-94.38 251.82,-78.31"/>
<polygon fill="midnightblue" stroke="midnightblue" points="252.89,-81.65 261.54,-75.52 250.96,-74.92 252.89,-81.65"/>
</g>
<!-- Node19 -->
<g id="node19" class="node">
<title>Node19</title>
<g id="a_node19"><a xlink:href="enum__formatter_8h.html" target="_top" xlink:title=" ">
<polygon fill="white" stroke="black" points="142,-168.5 142,-187.5 278,-187.5 278,-168.5 142,-168.5"/>
<text text-anchor="middle" x="210" y="-175.5" font-family="Helvetica,sans-Serif" font-size="10.00">ccf/ds/enum_formatter.h</text>
</a>
</g>
</g>
<!-- Node3&#45;&gt;Node19 -->
<g id="edge21" class="edge">
<title>Node3&#45;&gt;Node19</title>
<path fill="none" stroke="midnightblue" d="M314.71,-280.43C259.76,-270.89 180.03,-255.33 171,-244 158.36,-228.13 175.08,-207.81 190.39,-194.15"/>
<polygon fill="midnightblue" stroke="midnightblue" points="192.69,-196.78 198.1,-187.67 188.19,-191.42 192.69,-196.78"/>
</g>
<!-- Node3&#45;&gt;Node20 -->
<g id="edge25" class="edge">
<title>Node3&#45;&gt;Node20</title>
<path fill="none" stroke="midnightblue" d="M381.46,-280.32C395.5,-271.9 417.05,-258.97 433.54,-249.07"/>
<polygon fill="midnightblue" stroke="midnightblue" points="435.8,-251.8 442.58,-243.65 432.2,-245.8 435.8,-251.8"/>
</g>
<!-- Node4&#45;&gt;Node5 -->
<g id="edge4" class="edge">
<title>Node4&#45;&gt;Node5</title>
<path fill="none" stroke="midnightblue" d="M286.11,-224.44C339.56,-214.53 427.28,-198.25 481.95,-188.1"/>
<polygon fill="midnightblue" stroke="midnightblue" points="482.9,-191.49 492.09,-186.22 481.62,-184.6 482.9,-191.49"/>
</g>
<!-- Node6 -->
<g id="node6" class="node">
<title>Node6</title>
<g id="a_node6"><a xlink:href="include_2ccf_2crypto_2base64_8h.html" target="_top" xlink:title=" ">
<polygon fill="white" stroke="black" points="638,-56.5 638,-75.5 750,-75.5 750,-56.5 638,-56.5"/>
<text text-anchor="middle" x="694" y="-63.5" font-family="Helvetica,sans-Serif" font-size="10.00">ccf/crypto/base64.h</text>
</a>
</g>
</g>
<!-- Node5&#45;&gt;Node6 -->
<g id="edge5" class="edge">
<title>Node5&#45;&gt;Node6</title>
<path fill="none" stroke="midnightblue" d="M543.79,-168.37C571.76,-149.49 638.6,-104.38 672.9,-81.24"/>
<polygon fill="midnightblue" stroke="midnightblue" points="674.94,-84.09 681.27,-75.59 671.02,-78.28 674.94,-84.09"/>
</g>
<!-- Node9 -->
<g id="node9" class="node">
<title>Node9</title>
<g id="a_node9"><a xlink:href="include_2ccf_2ds_2json__schema_8h.html" target="_top" xlink:title=" ">
<polygon fill="white" stroke="black" points="440.5,-112.5 440.5,-131.5 561.5,-131.5 561.5,-112.5 440.5,-112.5"/>
<text text-anchor="middle" x="501" y="-119.5" font-family="Helvetica,sans-Serif" font-size="10.00">ccf/ds/json_schema.h</text>
</a>
</g>
</g>
<!-- Node5&#45;&gt;Node9 -->
<g id="edge8" class="edge">
<title>Node5&#45;&gt;Node9</title>
<path fill="none" stroke="midnightblue" d="M526.05,-168.08C521.9,-160.61 515.85,-149.72 510.73,-140.52"/>
<polygon fill="midnightblue" stroke="midnightblue" points="513.78,-138.79 505.86,-131.75 507.66,-142.19 513.78,-138.79"/>
</g>
<!-- Node5&#45;&gt;Node16 -->
<g id="edge19" class="edge">
<title>Node5&#45;&gt;Node16</title>
<path fill="none" stroke="midnightblue" d="M492.33,-172.96C456.07,-167.8 401.37,-156.42 360,-132 339.31,-119.79 321.07,-98.74 309.83,-83.91"/>
<polygon fill="midnightblue" stroke="midnightblue" points="312.49,-81.63 303.77,-75.62 306.84,-85.75 312.49,-81.63"/>
</g>
<!-- Node18 -->
<g id="node18" class="node">
<title>Node18</title>
<g id="a_node18"><a xlink:title=" ">
<polygon fill="white" stroke="#bfbfbf" points="694,-112.5 694,-131.5 750,-131.5 750,-112.5 694,-112.5"/>
<text text-anchor="middle" x="722" y="-119.5" font-family="Helvetica,sans-Serif" font-size="10.00">sstream</text>
</a>
</g>
</g>
<!-- Node5&#45;&gt;Node18 -->
<g id="edge20" class="edge">
<title>Node5&#45;&gt;Node18</title>
<path fill="none" stroke="midnightblue" d="M561.26,-168.44C594.53,-159.04 648.03,-143.91 684.07,-133.72"/>
<polygon fill="midnightblue" stroke="midnightblue" points="685.07,-137.08 693.75,-130.99 683.17,-130.34 685.07,-137.08"/>
</g>
<!-- Node6&#45;&gt;Node7 -->
<g id="edge6" class="edge">
<title>Node6&#45;&gt;Node7</title>
<path fill="none" stroke="midnightblue" d="M637.99,-57.14C634.95,-56.75 631.94,-56.36 629,-56 486.99,-38.45 317.12,-21.14 247.34,-14.19"/>
<polygon fill="midnightblue" stroke="midnightblue" points="247.32,-10.67 237.02,-13.16 246.62,-17.64 247.32,-10.67"/>
</g>
<!-- Node6&#45;&gt;Node8 -->
<g id="edge7" class="edge">
<title>Node6&#45;&gt;Node8</title>
<path fill="none" stroke="midnightblue" d="M717.13,-56.44C741.48,-47.44 780.01,-33.19 807.42,-23.05"/>
<polygon fill="midnightblue" stroke="midnightblue" points="808.81,-26.27 816.97,-19.52 806.38,-19.7 808.81,-26.27"/>
</g>
<!-- Node10 -->
<g id="node10" class="node">
<title>Node10</title>
<g id="a_node10"><a xlink:href="nonstd_8h.html" target="_top" xlink:title=" ">
<polygon fill="white" stroke="black" points="530,-56.5 530,-75.5 620,-75.5 620,-56.5 530,-56.5"/>
<text text-anchor="middle" x="575" y="-63.5" font-family="Helvetica,sans-Serif" font-size="10.00">ccf/ds/nonstd.h</text>
</a>
</g>
</g>
<!-- Node9&#45;&gt;Node10 -->
<g id="edge9" class="edge">
<title>Node9&#45;&gt;Node10</title>
<path fill="none" stroke="midnightblue" d="M512.89,-112.32C524.15,-104.11 541.29,-91.6 554.71,-81.81"/>
<polygon fill="midnightblue" stroke="midnightblue" points="556.88,-84.56 562.89,-75.83 552.75,-78.9 556.88,-84.56"/>
</g>
<!-- Node9&#45;&gt;Node16 -->
<g id="edge17" class="edge">
<title>Node9&#45;&gt;Node16</title>
<path fill="none" stroke="midnightblue" d="M468.83,-112.44C433.94,-103.16 378.11,-88.31 339.83,-78.13"/>
<polygon fill="midnightblue" stroke="midnightblue" points="340.58,-74.7 330.02,-75.52 338.78,-81.47 340.58,-74.7"/>
</g>
<!-- Node17 -->
<g id="node17" class="node">
<title>Node17</title>
<g id="a_node17"><a xlink:title=" ">
<polygon fill="white" stroke="#bfbfbf" points="402,-56.5 402,-75.5 512,-75.5 512,-56.5 402,-56.5"/>
<text text-anchor="middle" x="457" y="-63.5" font-family="Helvetica,sans-Serif" font-size="10.00">nlohmann/json.hpp</text>
</a>
</g>
</g>
<!-- Node9&#45;&gt;Node17 -->
<g id="edge18" class="edge">
<title>Node9&#45;&gt;Node17</title>
<path fill="none" stroke="midnightblue" d="M493.73,-112.08C487.46,-104.38 478.21,-93.03 470.57,-83.65"/>
<polygon fill="midnightblue" stroke="midnightblue" points="473.16,-81.29 464.13,-75.75 467.73,-85.71 473.16,-81.29"/>
</g>
<!-- Node10&#45;&gt;Node7 -->
<g id="edge13" class="edge">
<title>Node10&#45;&gt;Node7</title>
<path fill="none" stroke="midnightblue" d="M529.93,-57.42C526.91,-56.93 523.91,-56.46 521,-56 421.33,-40.37 303.13,-23.44 247.29,-15.54"/>
<polygon fill="midnightblue" stroke="midnightblue" points="247.68,-12.06 237.29,-14.13 246.7,-18.99 247.68,-12.06"/>
</g>
<!-- Node10&#45;&gt;Node8 -->
<g id="edge16" class="edge">
<title>Node10&#45;&gt;Node8</title>
<path fill="none" stroke="midnightblue" d="M618.83,-56.44C664.02,-47.55 736.5,-33.14 799,-20 801.35,-19.51 803.77,-18.99 806.2,-18.47"/>
<polygon fill="midnightblue" stroke="midnightblue" points="807.14,-21.85 816.17,-16.31 805.65,-15.01 807.14,-21.85"/>
</g>
<!-- Node11 -->
<g id="node11" class="node">
<title>Node11</title>
<g id="a_node11"><a xlink:title=" ">
<polygon fill="white" stroke="#bfbfbf" points="547,-0.5 547,-19.5 611,-19.5 611,-0.5 547,-0.5"/>
<text text-anchor="middle" x="579" y="-7.5" font-family="Helvetica,sans-Serif" font-size="10.00">algorithm</text>
</a>
</g>
</g>
<!-- Node10&#45;&gt;Node11 -->
<g id="edge10" class="edge">
<title>Node10&#45;&gt;Node11</title>
<path fill="none" stroke="midnightblue" d="M575.66,-56.08C576.18,-49.01 576.94,-38.86 577.59,-29.99"/>
<polygon fill="midnightblue" stroke="midnightblue" points="581.1,-29.98 578.35,-19.75 574.12,-29.47 581.1,-29.98"/>
</g>
<!-- Node12 -->
<g id="node12" class="node">
<title>Node12</title>
<g id="a_node12"><a xlink:title=" ">
<polygon fill="white" stroke="#bfbfbf" points="629,-0.5 629,-19.5 671,-19.5 671,-0.5 629,-0.5"/>
<text text-anchor="middle" x="650" y="-7.5" font-family="Helvetica,sans-Serif" font-size="10.00">array</text>
</a>
</g>
</g>
<!-- Node10&#45;&gt;Node12 -->
<g id="edge11" class="edge">
<title>Node10&#45;&gt;Node12</title>
<path fill="none" stroke="midnightblue" d="M587.05,-56.32C598.46,-48.11 615.83,-35.6 629.43,-25.81"/>
<polygon fill="midnightblue" stroke="midnightblue" points="631.66,-28.52 637.73,-19.83 627.57,-22.84 631.66,-28.52"/>
</g>
<!-- Node13 -->
<g id="node13" class="node">
<title>Node13</title>
<g id="a_node13"><a xlink:title=" ">
<polygon fill="white" stroke="#bfbfbf" points="392.5,-0.5 392.5,-19.5 441.5,-19.5 441.5,-0.5 392.5,-0.5"/>
<text text-anchor="middle" x="417" y="-7.5" font-family="Helvetica,sans-Serif" font-size="10.00">cctype</text>
</a>
</g>
</g>
<!-- Node10&#45;&gt;Node13 -->
<g id="edge12" class="edge">
<title>Node10&#45;&gt;Node13</title>
<path fill="none" stroke="midnightblue" d="M549.96,-56.44C523.31,-47.33 480.94,-32.85 451.21,-22.69"/>
<polygon fill="midnightblue" stroke="midnightblue" points="452.25,-19.35 441.66,-19.43 449.99,-25.97 452.25,-19.35"/>
</g>
<!-- Node14 -->
<g id="node14" class="node">
<title>Node14</title>
<g id="a_node14"><a xlink:title=" ">
<polygon fill="white" stroke="#bfbfbf" points="717.5,-0.5 717.5,-19.5 790.5,-19.5 790.5,-0.5 717.5,-0.5"/>
<text text-anchor="middle" x="754" y="-7.5" font-family="Helvetica,sans-Serif" font-size="10.00">string_view</text>
</a>
</g>
</g>
<!-- Node10&#45;&gt;Node14 -->
<g id="edge14" class="edge">
<title>Node10&#45;&gt;Node14</title>
<path fill="none" stroke="midnightblue" d="M603.36,-56.44C633.74,-47.28 682.11,-32.69 715.82,-22.52"/>
<polygon fill="midnightblue" stroke="midnightblue" points="717.21,-25.76 725.77,-19.52 715.18,-19.05 717.21,-25.76"/>
</g>
<!-- Node15 -->
<g id="node15" class="node">
<title>Node15</title>
<g id="a_node15"><a xlink:title=" ">
<polygon fill="white" stroke="#bfbfbf" points="459.5,-0.5 459.5,-19.5 528.5,-19.5 528.5,-0.5 459.5,-0.5"/>
<text text-anchor="middle" x="494" y="-7.5" font-family="Helvetica,sans-Serif" font-size="10.00">type_traits</text>
</a>
</g>
</g>
<!-- Node10&#45;&gt;Node15 -->
<g id="edge15" class="edge">
<title>Node10&#45;&gt;Node15</title>
<path fill="none" stroke="midnightblue" d="M561.99,-56.32C549.47,-47.98 530.32,-35.21 515.53,-25.35"/>
<polygon fill="midnightblue" stroke="midnightblue" points="517.24,-22.29 506.98,-19.65 513.36,-28.11 517.24,-22.29"/>
</g>
<!-- Node19&#45;&gt;Node16 -->
<g id="edge22" class="edge">
<title>Node19&#45;&gt;Node16</title>
<path fill="none" stroke="midnightblue" d="M213.58,-168.42C219.25,-155.39 231.21,-130.23 246,-112 255.17,-100.7 267.39,-89.96 277.68,-81.81"/>
<polygon fill="midnightblue" stroke="midnightblue" points="279.96,-84.48 285.77,-75.61 275.7,-78.92 279.96,-84.48"/>
</g>
<!-- Node21&#45;&gt;Node8 -->
<g id="edge29" class="edge">
<title>Node21&#45;&gt;Node8</title>
<path fill="none" stroke="midnightblue" d="M623.13,-280.37C630.83,-271.77 642.18,-257.89 649,-244 675.81,-189.42 646.19,-158.82 685,-112 708.34,-83.84 728.1,-95.57 759,-76 782.39,-61.19 806.87,-40.76 822.71,-26.78"/>
<polygon fill="midnightblue" stroke="midnightblue" points="825.44,-29.03 830.56,-19.75 820.77,-23.81 825.44,-29.03"/>
</g>
<!-- Node21&#45;&gt;Node22 -->
<g id="edge28" class="edge">
<title>Node21&#45;&gt;Node22</title>
<path fill="none" stroke="midnightblue" d="M575.05,-280.47C536.66,-272.18 476.78,-258.97 415.99,-244.18"/>
<polygon fill="midnightblue" stroke="midnightblue" points="416.77,-240.76 406.22,-241.79 415.11,-247.56 416.77,-240.76"/>
</g>
<!-- Node23&#45;&gt;Node5 -->
<g id="edge31" class="edge">
<title>Node23&#45;&gt;Node5</title>
<path fill="none" stroke="midnightblue" d="M714.46,-224.44C676.75,-215.1 616.26,-200.12 575.14,-189.93"/>
<polygon fill="midnightblue" stroke="midnightblue" points="575.93,-186.52 565.38,-187.52 574.25,-193.32 575.93,-186.52"/>
</g>
<!-- Node23&#45;&gt;Node8 -->
<g id="edge37" class="edge">
<title>Node23&#45;&gt;Node8</title>
<path fill="none" stroke="midnightblue" d="M796.46,-224.45C847.81,-214.72 923.55,-198.78 932,-188 974.11,-134.28 896.85,-58.36 859.06,-26.27"/>
<polygon fill="midnightblue" stroke="midnightblue" points="861.16,-23.46 851.23,-19.77 856.69,-28.85 861.16,-23.46"/>
</g>
<!-- Node23&#45;&gt;Node14 -->
<g id="edge36" class="edge">
<title>Node23&#45;&gt;Node14</title>
<path fill="none" stroke="midnightblue" d="M740.92,-224.14C730.52,-211.6 714.72,-187.99 723,-168 731.66,-147.09 750.34,-152.91 759,-132 773.09,-97.97 765.56,-53.86 759.4,-29.39"/>
<polygon fill="midnightblue" stroke="midnightblue" points="762.75,-28.37 756.74,-19.64 755.99,-30.21 762.75,-28.37"/>
</g>
<!-- Node24 -->
<g id="node24" class="node">
<title>Node24</title>
<g id="a_node24"><a xlink:title=" ">
<polygon fill="white" stroke="#bfbfbf" points="790,-168.5 790,-187.5 840,-187.5 840,-168.5 790,-168.5"/>
<text text-anchor="middle" x="815" y="-175.5" font-family="Helvetica,sans-Serif" font-size="10.00">cstring</text>
</a>
</g>
</g>
<!-- Node23&#45;&gt;Node24 -->
<g id="edge32" class="edge">
<title>Node23&#45;&gt;Node24</title>
<path fill="none" stroke="midnightblue" d="M759.6,-224.32C769.46,-216.26 784.35,-204.08 796.22,-194.37"/>
<polygon fill="midnightblue" stroke="midnightblue" points="798.68,-196.88 804.2,-187.83 794.25,-191.46 798.68,-196.88"/>
</g>
<!-- Node25 -->
<g id="node25" class="node">
<title>Node25</title>
<g id="a_node25"><a xlink:title=" ">
<polygon fill="white" stroke="#bfbfbf" points="858.5,-168.5 858.5,-187.5 923.5,-187.5 923.5,-168.5 858.5,-168.5"/>
<text text-anchor="middle" x="891" y="-175.5" font-family="Helvetica,sans-Serif" font-size="10.00">exception</text>
</a>
</g>
</g>
<!-- Node23&#45;&gt;Node25 -->
<g id="edge33" class="edge">
<title>Node23&#45;&gt;Node25</title>
<path fill="none" stroke="midnightblue" d="M771.5,-224.44C795.08,-215.48 832.32,-201.31 858.96,-191.18"/>
<polygon fill="midnightblue" stroke="midnightblue" points="860.5,-194.34 868.6,-187.52 858.01,-187.8 860.5,-194.34"/>
</g>
<!-- Node26 -->
<g id="node26" class="node">
<title>Node26</title>
<g id="a_node26"><a xlink:title=" ">
<polygon fill="white" stroke="#bfbfbf" points="980,-168.5 980,-187.5 1038,-187.5 1038,-168.5 980,-168.5"/>
<text text-anchor="middle" x="1009" y="-175.5" font-family="Helvetica,sans-Serif" font-size="10.00">memory</text>
</a>
</g>
</g>
<!-- Node23&#45;&gt;Node26 -->
<g id="edge34" class="edge">
<title>Node23&#45;&gt;Node26</title>
<path fill="none" stroke="midnightblue" d="M790.2,-224.48C833.85,-215.45 904.79,-200.75 966,-188 967.26,-187.74 968.54,-187.47 969.83,-187.2"/>
<polygon fill="midnightblue" stroke="midnightblue" points="970.78,-190.58 979.86,-185.11 969.35,-183.73 970.78,-190.58"/>
</g>
<!-- Node27 -->
<g id="node27" class="node">
<title>Node27</title>
<g id="a_node27"><a xlink:title=" ">
<polygon fill="white" stroke="#bfbfbf" points="732,-168.5 732,-187.5 772,-187.5 772,-168.5 732,-168.5"/>
<text text-anchor="middle" x="752" y="-175.5" font-family="Helvetica,sans-Serif" font-size="10.00">span</text>
</a>
</g>
</g>
<!-- Node23&#45;&gt;Node27 -->
<g id="edge35" class="edge">
<title>Node23&#45;&gt;Node27</title>
<path fill="none" stroke="midnightblue" d="M749.5,-224.08C749.89,-217.01 750.45,-206.86 750.95,-197.99"/>
<polygon fill="midnightblue" stroke="midnightblue" points="754.45,-197.93 751.51,-187.75 747.46,-197.54 754.45,-197.93"/>
</g>
<!-- Node28&#45;&gt;Node5 -->
<g id="edge39" class="edge">
<title>Node28&#45;&gt;Node5</title>
<path fill="none" stroke="midnightblue" d="M583.04,-224.32C573.87,-216.34 560.06,-204.31 548.97,-194.65"/>
<polygon fill="midnightblue" stroke="midnightblue" points="550.98,-191.76 541.14,-187.83 546.38,-197.04 550.98,-191.76"/>
</g>
<!-- Node28&#45;&gt;Node7 -->
<g id="edge42" class="edge">
<title>Node28&#45;&gt;Node7</title>
<path fill="none" stroke="midnightblue" d="M563.98,-224.48C540.91,-216.94 508.41,-204.56 483,-188 412.16,-141.84 418.13,-100.11 346,-56 314.89,-36.98 274.68,-24.7 247.06,-17.85"/>
<polygon fill="midnightblue" stroke="midnightblue" points="247.67,-14.4 237.13,-15.49 246.05,-21.21 247.67,-14.4"/>
</g>
<!-- Node28&#45;&gt;Node10 -->
<g id="edge40" class="edge">
<title>Node28&#45;&gt;Node10</title>
<path fill="none" stroke="midnightblue" d="M592.03,-224.08C589.2,-197.95 580.88,-121.21 577.01,-85.58"/>
<polygon fill="midnightblue" stroke="midnightblue" points="580.49,-85.13 575.93,-75.57 573.53,-85.89 580.49,-85.13"/>
</g>
<!-- Node28&#45;&gt;Node16 -->
<g id="edge41" class="edge">
<title>Node28&#45;&gt;Node16</title>
<path fill="none" stroke="midnightblue" d="M545.88,-224.74C496.81,-215.68 423.59,-200.73 398,-188 363.25,-170.72 355.17,-162.37 331,-132 319.57,-117.64 310.5,-98.69 304.78,-84.96"/>
<polygon fill="midnightblue" stroke="midnightblue" points="308.03,-83.64 301.08,-75.64 301.52,-86.22 308.03,-83.64"/>
</g>
<!-- Node30&#45;&gt;Node16 -->
<g id="edge58" class="edge">
<title>Node30&#45;&gt;Node16</title>
<path fill="none" stroke="midnightblue" d="M1199.45,-288.44C1052.51,-286.5 661.44,-278.2 537,-244 518.22,-238.84 516.19,-230.96 498,-224 439.2,-201.5 414,-221.98 361,-188 333.88,-170.62 329.64,-160.69 315,-132 307.55,-117.39 303.15,-99.22 300.7,-85.8"/>
<polygon fill="midnightblue" stroke="midnightblue" points="304.14,-85.15 299.08,-75.84 297.23,-86.27 304.14,-85.15"/>
</g>
<!-- Node30&#45;&gt;Node23 -->
<g id="edge48" class="edge">
<title>Node30&#45;&gt;Node23</title>
<path fill="none" stroke="midnightblue" d="M1199.32,-282.96C1102.61,-272.66 906.67,-251.79 808.24,-241.31"/>
<polygon fill="midnightblue" stroke="midnightblue" points="808.48,-237.82 798.17,-240.24 807.74,-244.78 808.48,-237.82"/>
</g>
<!-- Node30&#45;&gt;Node26 -->
<g id="edge59" class="edge">
<title>Node30&#45;&gt;Node26</title>
<path fill="none" stroke="midnightblue" d="M1199.29,-286.23C1100.09,-280.81 903.61,-267.24 883,-244 877.1,-237.35 877.88,-231.27 883,-224 893.31,-209.37 936.84,-196.05 969.88,-187.77"/>
<polygon fill="midnightblue" stroke="midnightblue" points="970.86,-191.13 979.75,-185.36 969.2,-184.33 970.86,-191.13"/>
</g>
<!-- Node31 -->
<g id="node31" class="node">
<title>Node31</title>
<g id="a_node31"><a xlink:title=" ">
<polygon fill="white" stroke="#bfbfbf" points="1517,-112.5 1517,-131.5 1567,-131.5 1567,-112.5 1517,-112.5"/>
<text text-anchor="middle" x="1542" y="-119.5" font-family="Helvetica,sans-Serif" font-size="10.00">chrono</text>
</a>
</g>
</g>
<!-- Node30&#45;&gt;Node31 -->
<g id="edge49" class="edge">
<title>Node30&#45;&gt;Node31</title>
<path fill="none" stroke="midnightblue" d="M1312.77,-286.64C1416.68,-281.74 1628.88,-268.78 1651,-244 1686.09,-204.68 1612.29,-158.47 1569.57,-136.25"/>
<polygon fill="midnightblue" stroke="midnightblue" points="1570.97,-133.04 1560.47,-131.63 1567.8,-139.28 1570.97,-133.04"/>
</g>
<!-- Node32 -->
<g id="node32" class="node">
<title>Node32</title>
<g id="a_node32"><a xlink:href="x509__time__fmt_8h.html" target="_top" xlink:title=" ">
<polygon fill="white" stroke="black" points="1161,-168.5 1161,-187.5 1275,-187.5 1275,-168.5 1161,-168.5"/>
<text text-anchor="middle" x="1218" y="-175.5" font-family="Helvetica,sans-Serif" font-size="10.00">ds/x509_time_fmt.h</text>
</a>
</g>
</g>
<!-- Node30&#45;&gt;Node32 -->
<g id="edge50" class="edge">
<title>Node30&#45;&gt;Node32</title>
<path fill="none" stroke="midnightblue" d="M1312.83,-286.34C1413.36,-281.06 1613.99,-267.65 1635,-244 1640.9,-237.35 1640.94,-230.61 1635,-224 1612.12,-198.52 1397.67,-186.19 1285.57,-181.44"/>
<polygon fill="midnightblue" stroke="midnightblue" points="1285.51,-177.93 1275.38,-181.02 1285.22,-184.93 1285.51,-177.93"/>
</g>
<!-- Node36 -->
<g id="node36" class="node">
<title>Node36</title>
<g id="a_node36"><a xlink:title=" ">
<polygon fill="white" stroke="#bfbfbf" points="892.5,-224.5 892.5,-243.5 981.5,-243.5 981.5,-224.5 892.5,-224.5"/>
<text text-anchor="middle" x="937" y="-231.5" font-family="Helvetica,sans-Serif" font-size="10.00">openssl/asn1.h</text>
</a>
</g>
</g>
<!-- Node30&#45;&gt;Node36 -->
<g id="edge60" class="edge">
<title>Node30&#45;&gt;Node36</title>
<path fill="none" stroke="midnightblue" d="M1205.5,-280.47C1154.19,-271.79 1072.12,-257.92 991.82,-244.31"/>
<polygon fill="midnightblue" stroke="midnightblue" points="991.98,-240.78 981.53,-242.56 990.81,-247.69 991.98,-240.78"/>
</g>
<!-- Node37 -->
<g id="node37" class="node">
<title>Node37</title>
<g id="a_node37"><a xlink:title=" ">
<polygon fill="white" stroke="#bfbfbf" points="999.5,-224.5 999.5,-243.5 1076.5,-243.5 1076.5,-224.5 999.5,-224.5"/>
<text text-anchor="middle" x="1038" y="-231.5" font-family="Helvetica,sans-Serif" font-size="10.00">openssl/ec.h</text>
</a>
</g>
</g>
<!-- Node30&#45;&gt;Node37 -->
<g id="edge61" class="edge">
<title>Node30&#45;&gt;Node37</title>
<path fill="none" stroke="midnightblue" d="M1221.46,-280.44C1183.75,-271.1 1123.26,-256.12 1082.14,-245.93"/>
<polygon fill="midnightblue" stroke="midnightblue" points="1082.93,-242.52 1072.38,-243.52 1081.25,-249.32 1082.93,-242.52"/>
</g>
<!-- Node38 -->
<g id="node38" class="node">
<title>Node38</title>
<g id="a_node38"><a xlink:title=" ">
<polygon fill="white" stroke="#bfbfbf" points="1094.5,-224.5 1094.5,-243.5 1193.5,-243.5 1193.5,-224.5 1094.5,-224.5"/>
<text text-anchor="middle" x="1144" y="-231.5" font-family="Helvetica,sans-Serif" font-size="10.00">openssl/engine.h</text>
</a>
</g>
</g>
<!-- Node30&#45;&gt;Node38 -->
<g id="edge62" class="edge">
<title>Node30&#45;&gt;Node38</title>
<path fill="none" stroke="midnightblue" d="M1238.01,-280.32C1219.96,-271.62 1191.95,-258.12 1171.2,-248.11"/>
<polygon fill="midnightblue" stroke="midnightblue" points="1172.48,-244.84 1161.95,-243.65 1169.44,-251.15 1172.48,-244.84"/>
</g>
<!-- Node30&#45;&gt;Node39 -->
<g id="edge63" class="edge">
<title>Node30&#45;&gt;Node39</title>
<path fill="none" stroke="midnightblue" d="M1312.61,-284.54C1398.05,-277.53 1564.94,-262.79 1706,-244 1707.3,-243.83 1708.61,-243.65 1709.94,-243.46"/>
<polygon fill="midnightblue" stroke="midnightblue" points="1710.86,-246.86 1720.23,-241.93 1709.83,-239.94 1710.86,-246.86"/>
</g>
<!-- Node30&#45;&gt;Node40 -->
<g id="edge64" class="edge">
<title>Node30&#45;&gt;Node40</title>
<path fill="none" stroke="midnightblue" d="M1312.71,-286.2C1411.32,-280.94 1620.94,-268 1806.81,-244.19"/>
<polygon fill="midnightblue" stroke="midnightblue" points="1807.29,-247.65 1816.76,-242.9 1806.4,-240.71 1807.29,-247.65"/>
</g>
<!-- Node41 -->
<g id="node41" class="node">
<title>Node41</title>
<g id="a_node41"><a xlink:title=" ">
<polygon fill="white" stroke="#bfbfbf" points="1212,-224.5 1212,-243.5 1300,-243.5 1300,-224.5 1212,-224.5"/>
<text text-anchor="middle" x="1256" y="-231.5" font-family="Helvetica,sans-Serif" font-size="10.00">openssl/pem.h</text>
</a>
</g>
</g>
<!-- Node30&#45;&gt;Node41 -->
<g id="edge65" class="edge">
<title>Node30&#45;&gt;Node41</title>
<path fill="none" stroke="midnightblue" d="M1256,-280.08C1256,-273.01 1256,-262.86 1256,-253.99"/>
<polygon fill="midnightblue" stroke="midnightblue" points="1259.5,-253.75 1256,-243.75 1252.5,-253.75 1259.5,-253.75"/>
</g>
<!-- Node42 -->
<g id="node42" class="node">
<title>Node42</title>
<g id="a_node42"><a xlink:title=" ">
<polygon fill="white" stroke="#bfbfbf" points="1318,-224.5 1318,-243.5 1398,-243.5 1398,-224.5 1318,-224.5"/>
<text text-anchor="middle" x="1358" y="-231.5" font-family="Helvetica,sans-Serif" font-size="10.00">openssl/ssl.h</text>
</a>
</g>
</g>
<!-- Node30&#45;&gt;Node42 -->
<g id="edge66" class="edge">
<title>Node30&#45;&gt;Node42</title>
<path fill="none" stroke="midnightblue" d="M1272.39,-280.32C1288.67,-271.7 1313.87,-258.36 1332.72,-248.39"/>
<polygon fill="midnightblue" stroke="midnightblue" points="1334.45,-251.43 1341.65,-243.65 1331.18,-245.24 1334.45,-251.43"/>
</g>
<!-- Node43 -->
<g id="node43" class="node">
<title>Node43</title>
<g id="a_node43"><a xlink:title=" ">
<polygon fill="white" stroke="#bfbfbf" points="1416,-224.5 1416,-243.5 1506,-243.5 1506,-224.5 1416,-224.5"/>
<text text-anchor="middle" x="1461" y="-231.5" font-family="Helvetica,sans-Serif" font-size="10.00">openssl/x509.h</text>
</a>
</g>
</g>
<!-- Node30&#45;&gt;Node43 -->
<g id="edge67" class="edge">
<title>Node30&#45;&gt;Node43</title>
<path fill="none" stroke="midnightblue" d="M1288.48,-280.44C1323.72,-271.16 1380.1,-256.31 1418.76,-246.13"/>
<polygon fill="midnightblue" stroke="midnightblue" points="1419.89,-249.45 1428.67,-243.52 1418.11,-242.68 1419.89,-249.45"/>
</g>
<!-- Node44 -->
<g id="node44" class="node">
<title>Node44</title>
<g id="a_node44"><a xlink:title=" ">
<polygon fill="white" stroke="#bfbfbf" points="1524,-224.5 1524,-243.5 1626,-243.5 1626,-224.5 1524,-224.5"/>
<text text-anchor="middle" x="1575" y="-231.5" font-family="Helvetica,sans-Serif" font-size="10.00">openssl/x509v3.h</text>
</a>
</g>
</g>
<!-- Node30&#45;&gt;Node44 -->
<g id="edge68" class="edge">
<title>Node30&#45;&gt;Node44</title>
<path fill="none" stroke="midnightblue" d="M1306.55,-280.44C1363.01,-270.89 1454.37,-255.42 1514.57,-245.23"/>
<polygon fill="midnightblue" stroke="midnightblue" points="1515.41,-248.64 1524.69,-243.52 1514.25,-241.73 1515.41,-248.64"/>
</g>
<!-- Node32&#45;&gt;Node8 -->
<g id="edge57" class="edge">
<title>Node32&#45;&gt;Node8</title>
<path fill="none" stroke="midnightblue" d="M1222.35,-168.12C1228.22,-154.7 1236.68,-129.04 1225,-112 1184.76,-53.33 960.17,-23.7 873.83,-14.35"/>
<polygon fill="midnightblue" stroke="midnightblue" points="874.08,-10.86 863.77,-13.28 873.34,-17.82 874.08,-10.86"/>
</g>
<!-- Node32&#45;&gt;Node16 -->
<g id="edge53" class="edge">
<title>Node32&#45;&gt;Node16</title>
<path fill="none" stroke="midnightblue" d="M1160.86,-173.88C981.32,-164.07 439.83,-134.31 431,-132 389.33,-121.1 345.22,-96.61 319.72,-81"/>
<polygon fill="midnightblue" stroke="midnightblue" points="321.24,-77.83 310.91,-75.5 317.54,-83.76 321.24,-77.83"/>
</g>
<!-- Node32&#45;&gt;Node18 -->
<g id="edge55" class="edge">
<title>Node32&#45;&gt;Node18</title>
<path fill="none" stroke="midnightblue" d="M1160.62,-170.75C1058.29,-159.61 846.95,-136.6 760.32,-127.17"/>
<polygon fill="midnightblue" stroke="midnightblue" points="760.47,-123.67 750.15,-126.06 759.71,-130.63 760.47,-123.67"/>
</g>
<!-- Node32&#45;&gt;Node31 -->
<g id="edge51" class="edge">
<title>Node32&#45;&gt;Node31</title>
<path fill="none" stroke="midnightblue" d="M1269.34,-168.44C1335.69,-157.38 1449.49,-138.42 1506.81,-128.86"/>
<polygon fill="midnightblue" stroke="midnightblue" points="1507.55,-132.29 1516.83,-127.19 1506.39,-125.39 1507.55,-132.29"/>
</g>
<!-- Node33 -->
<g id="node33" class="node">
<title>Node33</title>
<g id="a_node33"><a xlink:title=" ">
<polygon fill="white" stroke="#bfbfbf" points="1272.5,-112.5 1272.5,-131.5 1351.5,-131.5 1351.5,-112.5 1272.5,-112.5"/>
<text text-anchor="middle" x="1312" y="-119.5" font-family="Helvetica,sans-Serif" font-size="10.00">fmt/chrono.h</text>
</a>
</g>
</g>
<!-- Node32&#45;&gt;Node33 -->
<g id="edge52" class="edge">
<title>Node32&#45;&gt;Node33</title>
<path fill="none" stroke="midnightblue" d="M1233.1,-168.32C1247.9,-159.82 1270.69,-146.73 1287.98,-136.8"/>
<polygon fill="midnightblue" stroke="midnightblue" points="1290.01,-139.67 1296.93,-131.65 1286.52,-133.6 1290.01,-139.67"/>
</g>
<!-- Node34 -->
<g id="node34" class="node">
<title>Node34</title>
<g id="a_node34"><a xlink:title=" ">
<polygon fill="white" stroke="#bfbfbf" points="1094,-112.5 1094,-131.5 1150,-131.5 1150,-112.5 1094,-112.5"/>
<text text-anchor="middle" x="1122" y="-119.5" font-family="Helvetica,sans-Serif" font-size="10.00">iomanip</text>
</a>
</g>
</g>
<!-- Node32&#45;&gt;Node34 -->
<g id="edge54" class="edge">
<title>Node32&#45;&gt;Node34</title>
<path fill="none" stroke="midnightblue" d="M1202.58,-168.32C1187.46,-159.82 1164.18,-146.73 1146.53,-136.8"/>
<polygon fill="midnightblue" stroke="midnightblue" points="1147.82,-133.51 1137.39,-131.65 1144.39,-139.61 1147.82,-133.51"/>
</g>
<!-- Node35 -->
<g id="node35" class="node">
<title>Node35</title>
<g id="a_node35"><a xlink:title=" ">
<polygon fill="white" stroke="#bfbfbf" points="1168,-112.5 1168,-131.5 1216,-131.5 1216,-112.5 1168,-112.5"/>
<text text-anchor="middle" x="1192" y="-119.5" font-family="Helvetica,sans-Serif" font-size="10.00">time.h</text>
</a>
</g>
</g>
<!-- Node32&#45;&gt;Node35 -->
<g id="edge56" class="edge">
<title>Node32&#45;&gt;Node35</title>
<path fill="none" stroke="midnightblue" d="M1213.71,-168.08C1210.15,-160.69 1204.98,-149.95 1200.58,-140.81"/>
<polygon fill="midnightblue" stroke="midnightblue" points="1203.71,-139.24 1196.21,-131.75 1197.4,-142.28 1203.71,-139.24"/>
</g>
</g>
</svg>
