<?xml version="1.0" encoding="UTF-8" standalone="no"?>
<!DOCTYPE svg PUBLIC "-//W3C//DTD SVG 1.1//EN"
 "http://www.w3.org/Graphics/SVG/1.1/DTD/svg11.dtd">
<!-- Generated by graphviz version 2.43.0 (0)
 -->
<!-- Title: src/ds/state_machine.h Pages: 1 -->
<svg width="853pt" height="196pt"
 viewBox="0.00 0.00 852.50 196.00" xmlns="http://www.w3.org/2000/svg" xmlns:xlink="http://www.w3.org/1999/xlink">
<g id="graph0" class="graph" transform="scale(1 1) rotate(0) translate(4 192)">
<title>src/ds/state_machine.h</title>
<polygon fill="white" stroke="transparent" points="-4,4 -4,-192 848.5,-192 848.5,4 -4,4"/>
<!-- Node1 -->
<g id="node1" class="node">
<title>Node1</title>
<g id="a_node1"><a xlink:title=" ">
<polygon fill="#bfbfbf" stroke="black" points="473.5,-168.5 473.5,-187.5 602.5,-187.5 602.5,-168.5 473.5,-168.5"/>
<text text-anchor="middle" x="538" y="-175.5" font-family="Helvetica,sans-Serif" font-size="10.00">src/ds/state_machine.h</text>
</a>
</g>
</g>
<!-- Node2 -->
<g id="node2" class="node">
<title>Node2</title>
<g id="a_node2"><a xlink:href="logger_8h.html" target="_top" xlink:title=" ">
<polygon fill="white" stroke="black" points="407.5,-112.5 407.5,-131.5 494.5,-131.5 494.5,-112.5 407.5,-112.5"/>
<text text-anchor="middle" x="451" y="-119.5" font-family="Helvetica,sans-Serif" font-size="10.00">ccf/ds/logger.h</text>
</a>
</g>
</g>
<!-- Node1&#45;&gt;Node2 -->
<g id="edge1" class="edge">
<title>Node1&#45;&gt;Node2</title>
<path fill="none" stroke="midnightblue" d="M524.02,-168.32C510.45,-159.9 489.62,-146.97 473.68,-137.07"/>
<polygon fill="midnightblue" stroke="midnightblue" points="475.29,-133.95 464.94,-131.65 471.59,-139.9 475.29,-133.95"/>
</g>
<!-- Node17 -->
<g id="node17" class="node">
<title>Node17</title>
<g id="a_node17"><a xlink:title=" ">
<polygon fill="white" stroke="#bfbfbf" points="513,-112.5 513,-131.5 563,-131.5 563,-112.5 513,-112.5"/>
<text text-anchor="middle" x="538" y="-119.5" font-family="Helvetica,sans-Serif" font-size="10.00">atomic</text>
</a>
</g>
</g>
<!-- Node1&#45;&gt;Node17 -->
<g id="edge18" class="edge">
<title>Node1&#45;&gt;Node17</title>
<path fill="none" stroke="midnightblue" d="M538,-168.08C538,-161.01 538,-150.86 538,-141.99"/>
<polygon fill="midnightblue" stroke="midnightblue" points="541.5,-141.75 538,-131.75 534.5,-141.75 541.5,-141.75"/>
</g>
<!-- Node18 -->
<g id="node18" class="node">
<title>Node18</title>
<g id="a_node18"><a xlink:title=" ">
<polygon fill="white" stroke="#bfbfbf" points="581,-112.5 581,-131.5 625,-131.5 625,-112.5 581,-112.5"/>
<text text-anchor="middle" x="603" y="-119.5" font-family="Helvetica,sans-Serif" font-size="10.00">string</text>
</a>
</g>
</g>
<!-- Node1&#45;&gt;Node18 -->
<g id="edge19" class="edge">
<title>Node1&#45;&gt;Node18</title>
<path fill="none" stroke="midnightblue" d="M548.44,-168.32C558.15,-160.26 572.82,-148.08 584.5,-138.37"/>
<polygon fill="midnightblue" stroke="midnightblue" points="586.91,-140.92 592.37,-131.83 582.44,-135.53 586.91,-140.92"/>
</g>
<!-- Node3 -->
<g id="node3" class="node">
<title>Node3</title>
<g id="a_node3"><a xlink:href="enum__formatter_8h.html" target="_top" xlink:title=" ">
<polygon fill="white" stroke="black" points="0,-56.5 0,-75.5 136,-75.5 136,-56.5 0,-56.5"/>
<text text-anchor="middle" x="68" y="-63.5" font-family="Helvetica,sans-Serif" font-size="10.00">ccf/ds/enum_formatter.h</text>
</a>
</g>
</g>
<!-- Node2&#45;&gt;Node3 -->
<g id="edge2" class="edge">
<title>Node2&#45;&gt;Node3</title>
<path fill="none" stroke="midnightblue" d="M407.44,-114.86C341.95,-105.63 217.45,-88.07 138.81,-76.98"/>
<polygon fill="midnightblue" stroke="midnightblue" points="138.89,-73.46 128.5,-75.53 137.91,-80.39 138.89,-73.46"/>
</g>
<!-- Node4 -->
<g id="node4" class="node">
<title>Node4</title>
<g id="a_node4"><a xlink:title=" ">
<polygon fill="white" stroke="#bfbfbf" points="21.5,-0.5 21.5,-19.5 100.5,-19.5 100.5,-0.5 21.5,-0.5"/>
<text text-anchor="middle" x="61" y="-7.5" font-family="Helvetica,sans-Serif" font-size="10.00">fmt/format.h</text>
</a>
</g>
</g>
<!-- Node2&#45;&gt;Node4 -->
<g id="edge12" class="edge">
<title>Node2&#45;&gt;Node4</title>
<path fill="none" stroke="midnightblue" d="M407.38,-117.53C354.58,-112.43 263.48,-100.68 189,-76 178.46,-72.51 120.54,-42.37 86.34,-24.38"/>
<polygon fill="midnightblue" stroke="midnightblue" points="87.85,-21.22 77.37,-19.66 84.59,-27.42 87.85,-21.22"/>
</g>
<!-- Node5 -->
<g id="node5" class="node">
<title>Node5</title>
<g id="a_node5"><a xlink:href="thread__ids_8h.html" target="_top" xlink:title=" ">
<polygon fill="white" stroke="black" points="198,-56.5 198,-75.5 306,-75.5 306,-56.5 198,-56.5"/>
<text text-anchor="middle" x="252" y="-63.5" font-family="Helvetica,sans-Serif" font-size="10.00">ccf/ds/thread_ids.h</text>
</a>
</g>
</g>
<!-- Node2&#45;&gt;Node5 -->
<g id="edge4" class="edge">
<title>Node2&#45;&gt;Node5</title>
<path fill="none" stroke="midnightblue" d="M419.47,-112.44C385.41,-103.2 330.99,-88.44 293.48,-78.26"/>
<polygon fill="midnightblue" stroke="midnightblue" points="293.95,-74.76 283.38,-75.52 292.12,-81.51 293.95,-74.76"/>
</g>
<!-- Node11 -->
<g id="node11" class="node">
<title>Node11</title>
<g id="a_node11"><a xlink:title=" ">
<polygon fill="white" stroke="#bfbfbf" points="324.5,-56.5 324.5,-75.5 403.5,-75.5 403.5,-56.5 324.5,-56.5"/>
<text text-anchor="middle" x="364" y="-63.5" font-family="Helvetica,sans-Serif" font-size="10.00">fmt/chrono.h</text>
</a>
</g>
</g>
<!-- Node2&#45;&gt;Node11 -->
<g id="edge11" class="edge">
<title>Node2&#45;&gt;Node11</title>
<path fill="none" stroke="midnightblue" d="M437.02,-112.32C423.45,-103.9 402.62,-90.97 386.68,-81.07"/>
<polygon fill="midnightblue" stroke="midnightblue" points="388.29,-77.95 377.94,-75.65 384.59,-83.9 388.29,-77.95"/>
</g>
<!-- Node12 -->
<g id="node12" class="node">
<title>Node12</title>
<g id="a_node12"><a xlink:title=" ">
<polygon fill="white" stroke="#bfbfbf" points="421,-56.5 421,-75.5 481,-75.5 481,-56.5 421,-56.5"/>
<text text-anchor="middle" x="451" y="-63.5" font-family="Helvetica,sans-Serif" font-size="10.00">iostream</text>
</a>
</g>
</g>
<!-- Node2&#45;&gt;Node12 -->
<g id="edge13" class="edge">
<title>Node2&#45;&gt;Node12</title>
<path fill="none" stroke="midnightblue" d="M451,-112.08C451,-105.01 451,-94.86 451,-85.99"/>
<polygon fill="midnightblue" stroke="midnightblue" points="454.5,-85.75 451,-75.75 447.5,-85.75 454.5,-85.75"/>
</g>
<!-- Node13 -->
<g id="node13" class="node">
<title>Node13</title>
<g id="a_node13"><a xlink:title=" ">
<polygon fill="white" stroke="#bfbfbf" points="499,-56.5 499,-75.5 609,-75.5 609,-56.5 499,-56.5"/>
<text text-anchor="middle" x="554" y="-63.5" font-family="Helvetica,sans-Serif" font-size="10.00">nlohmann/json.hpp</text>
</a>
</g>
</g>
<!-- Node2&#45;&gt;Node13 -->
<g id="edge14" class="edge">
<title>Node2&#45;&gt;Node13</title>
<path fill="none" stroke="midnightblue" d="M467.55,-112.32C483.99,-103.7 509.43,-90.36 528.47,-80.39"/>
<polygon fill="midnightblue" stroke="midnightblue" points="530.26,-83.4 537.49,-75.65 527.01,-77.2 530.26,-83.4"/>
</g>
<!-- Node14 -->
<g id="node14" class="node">
<title>Node14</title>
<g id="a_node14"><a xlink:title=" ">
<polygon fill="white" stroke="#bfbfbf" points="627,-56.5 627,-75.5 683,-75.5 683,-56.5 627,-56.5"/>
<text text-anchor="middle" x="655" y="-63.5" font-family="Helvetica,sans-Serif" font-size="10.00">optional</text>
</a>
</g>
</g>
<!-- Node2&#45;&gt;Node14 -->
<g id="edge15" class="edge">
<title>Node2&#45;&gt;Node14</title>
<path fill="none" stroke="midnightblue" d="M483.32,-112.44C519.63,-102.83 578.49,-87.25 616.97,-77.07"/>
<polygon fill="midnightblue" stroke="midnightblue" points="618,-80.42 626.77,-74.47 616.21,-73.65 618,-80.42"/>
</g>
<!-- Node15 -->
<g id="node15" class="node">
<title>Node15</title>
<g id="a_node15"><a xlink:title=" ">
<polygon fill="white" stroke="#bfbfbf" points="701,-56.5 701,-75.5 757,-75.5 757,-56.5 701,-56.5"/>
<text text-anchor="middle" x="729" y="-63.5" font-family="Helvetica,sans-Serif" font-size="10.00">sstream</text>
</a>
</g>
</g>
<!-- Node2&#45;&gt;Node15 -->
<g id="edge16" class="edge">
<title>Node2&#45;&gt;Node15</title>
<path fill="none" stroke="midnightblue" d="M494.68,-113.58C540.99,-105.54 616.5,-91.98 690.76,-76.18"/>
<polygon fill="midnightblue" stroke="midnightblue" points="691.71,-79.55 700.75,-74.04 690.24,-72.71 691.71,-79.55"/>
</g>
<!-- Node16 -->
<g id="node16" class="node">
<title>Node16</title>
<g id="a_node16"><a xlink:title=" ">
<polygon fill="white" stroke="#bfbfbf" points="775.5,-56.5 775.5,-75.5 844.5,-75.5 844.5,-56.5 775.5,-56.5"/>
<text text-anchor="middle" x="810" y="-63.5" font-family="Helvetica,sans-Serif" font-size="10.00">type_traits</text>
</a>
</g>
</g>
<!-- Node2&#45;&gt;Node16 -->
<g id="edge17" class="edge">
<title>Node2&#45;&gt;Node16</title>
<path fill="none" stroke="midnightblue" d="M494.66,-113.47C497.82,-112.96 500.96,-112.47 504,-112 617,-94.65 648.44,-95.71 765.38,-76"/>
<polygon fill="midnightblue" stroke="midnightblue" points="766.18,-79.42 775.45,-74.29 765.01,-72.51 766.18,-79.42"/>
</g>
<!-- Node3&#45;&gt;Node4 -->
<g id="edge3" class="edge">
<title>Node3&#45;&gt;Node4</title>
<path fill="none" stroke="midnightblue" d="M66.84,-56.08C65.92,-48.93 64.58,-38.64 63.42,-29.69"/>
<polygon fill="midnightblue" stroke="midnightblue" points="66.89,-29.22 62.13,-19.75 59.95,-30.12 66.89,-29.22"/>
</g>
<!-- Node5&#45;&gt;Node4 -->
<g id="edge5" class="edge">
<title>Node5&#45;&gt;Node4</title>
<path fill="none" stroke="midnightblue" d="M221.74,-56.44C189.04,-47.2 136.82,-32.44 100.82,-22.26"/>
<polygon fill="midnightblue" stroke="midnightblue" points="101.7,-18.87 91.12,-19.52 99.79,-25.61 101.7,-18.87"/>
</g>
<!-- Node6 -->
<g id="node6" class="node">
<title>Node6</title>
<g id="a_node6"><a xlink:title=" ">
<polygon fill="white" stroke="#bfbfbf" points="119,-0.5 119,-19.5 205,-19.5 205,-0.5 119,-0.5"/>
<text text-anchor="middle" x="162" y="-7.5" font-family="Helvetica,sans-Serif" font-size="10.00">fmt/ostream.h</text>
</a>
</g>
</g>
<!-- Node5&#45;&gt;Node6 -->
<g id="edge6" class="edge">
<title>Node5&#45;&gt;Node6</title>
<path fill="none" stroke="midnightblue" d="M237.54,-56.32C223.5,-47.9 201.95,-34.97 185.46,-25.07"/>
<polygon fill="midnightblue" stroke="midnightblue" points="186.8,-21.8 176.42,-19.65 183.2,-27.8 186.8,-21.8"/>
</g>
<!-- Node7 -->
<g id="node7" class="node">
<title>Node7</title>
<g id="a_node7"><a xlink:title=" ">
<polygon fill="white" stroke="#bfbfbf" points="223.5,-0.5 223.5,-19.5 284.5,-19.5 284.5,-0.5 223.5,-0.5"/>
<text text-anchor="middle" x="254" y="-7.5" font-family="Helvetica,sans-Serif" font-size="10.00">fmt/std.h</text>
</a>
</g>
</g>
<!-- Node5&#45;&gt;Node7 -->
<g id="edge7" class="edge">
<title>Node5&#45;&gt;Node7</title>
<path fill="none" stroke="midnightblue" d="M252.33,-56.08C252.59,-49.01 252.97,-38.86 253.3,-29.99"/>
<polygon fill="midnightblue" stroke="midnightblue" points="256.8,-29.87 253.68,-19.75 249.81,-29.61 256.8,-29.87"/>
</g>
<!-- Node8 -->
<g id="node8" class="node">
<title>Node8</title>
<g id="a_node8"><a xlink:title=" ">
<polygon fill="white" stroke="#bfbfbf" points="303,-0.5 303,-19.5 347,-19.5 347,-0.5 303,-0.5"/>
<text text-anchor="middle" x="325" y="-7.5" font-family="Helvetica,sans-Serif" font-size="10.00">limits</text>
</a>
</g>
</g>
<!-- Node5&#45;&gt;Node8 -->
<g id="edge8" class="edge">
<title>Node5&#45;&gt;Node8</title>
<path fill="none" stroke="midnightblue" d="M263.73,-56.32C274.84,-48.11 291.74,-35.6 304.98,-25.81"/>
<polygon fill="midnightblue" stroke="midnightblue" points="307.1,-28.59 313.06,-19.83 302.94,-22.97 307.1,-28.59"/>
</g>
<!-- Node9 -->
<g id="node9" class="node">
<title>Node9</title>
<g id="a_node9"><a xlink:title=" ">
<polygon fill="white" stroke="#bfbfbf" points="365,-0.5 365,-19.5 403,-19.5 403,-0.5 365,-0.5"/>
<text text-anchor="middle" x="384" y="-7.5" font-family="Helvetica,sans-Serif" font-size="10.00">map</text>
</a>
</g>
</g>
<!-- Node5&#45;&gt;Node9 -->
<g id="edge9" class="edge">
<title>Node5&#45;&gt;Node9</title>
<path fill="none" stroke="midnightblue" d="M272.92,-56.44C295.25,-47.31 330.78,-32.77 355.62,-22.61"/>
<polygon fill="midnightblue" stroke="midnightblue" points="356.97,-25.84 364.9,-18.82 354.32,-19.36 356.97,-25.84"/>
</g>
<!-- Node10 -->
<g id="node10" class="node">
<title>Node10</title>
<g id="a_node10"><a xlink:title=" ">
<polygon fill="white" stroke="#bfbfbf" points="421,-0.5 421,-19.5 469,-19.5 469,-0.5 421,-0.5"/>
<text text-anchor="middle" x="445" y="-7.5" font-family="Helvetica,sans-Serif" font-size="10.00">thread</text>
</a>
</g>
</g>
<!-- Node5&#45;&gt;Node10 -->
<g id="edge10" class="edge">
<title>Node5&#45;&gt;Node10</title>
<path fill="none" stroke="midnightblue" d="M282.58,-56.44C317.65,-46.63 374.98,-30.59 411.31,-20.43"/>
<polygon fill="midnightblue" stroke="midnightblue" points="412.28,-23.79 420.96,-17.73 410.39,-17.05 412.28,-23.79"/>
</g>
</g>
</svg>
