<?xml version="1.0" encoding="UTF-8" standalone="no"?>
<!DOCTYPE svg PUBLIC "-//W3C//DTD SVG 1.1//EN"
 "http://www.w3.org/Graphics/SVG/1.1/DTD/svg11.dtd">
<!-- Generated by graphviz version 2.43.0 (0)
 -->
<!-- Title: ccf::NodeConfigurationState Pages: 1 -->
<svg width="2481pt" height="566pt"
 viewBox="0.00 0.00 2481.00 565.73" xmlns="http://www.w3.org/2000/svg" xmlns:xlink="http://www.w3.org/1999/xlink">
<g id="graph0" class="graph" transform="scale(1 1) rotate(0) translate(4 561.73)">
<title>ccf::NodeConfigurationState</title>
<polygon fill="white" stroke="transparent" points="-4,4 -4,-561.73 2477,-561.73 2477,4 -4,4"/>
<!-- Node1 -->
<g id="node1" class="node">
<title>Node1</title>
<g id="a_node1"><a xlink:title=" ">
<polygon fill="#bfbfbf" stroke="black" points="2321,-281.23 2321,-300.23 2473,-300.23 2473,-281.23 2321,-281.23"/>
<text text-anchor="middle" x="2397" y="-288.23" font-family="Helvetica,sans-Serif" font-size="10.00">ccf::NodeConfigurationState</text>
</a>
</g>
</g>
<!-- Node2 -->
<g id="node2" class="node">
<title>Node2</title>
<g id="a_node2"><a xlink:href="structStartupConfig.html" target="_top" xlink:title=" ">
<polygon fill="white" stroke="black" points="2054.5,-355.23 2054.5,-374.23 2137.5,-374.23 2137.5,-355.23 2054.5,-355.23"/>
<text text-anchor="middle" x="2096" y="-362.23" font-family="Helvetica,sans-Serif" font-size="10.00">StartupConfig</text>
</a>
</g>
</g>
<!-- Node2&#45;&gt;Node1 -->
<g id="edge1" class="edge">
<title>Node2&#45;&gt;Node1</title>
<path fill="none" stroke="#9a32cd" stroke-dasharray="5,2" d="M2145.3,-352.77C2204.29,-338.17 2302.9,-313.77 2357.2,-300.33"/>
<polygon fill="#9a32cd" stroke="#9a32cd" points="2144.34,-349.4 2135.48,-355.2 2146.02,-356.2 2144.34,-349.4"/>
<text text-anchor="middle" x="2247.5" y="-343.73" font-family="Helvetica,sans-Serif" font-size="10.00"> node_config</text>
</g>
<!-- Node3 -->
<g id="node3" class="node">
<title>Node3</title>
<g id="a_node3"><a xlink:href="structCCFConfig.html" target="_top" xlink:title=" ">
<polygon fill="white" stroke="black" points="1829.5,-205.23 1829.5,-224.23 1896.5,-224.23 1896.5,-205.23 1829.5,-205.23"/>
<text text-anchor="middle" x="1863" y="-212.23" font-family="Helvetica,sans-Serif" font-size="10.00">CCFConfig</text>
</a>
</g>
</g>
<!-- Node3&#45;&gt;Node2 -->
<g id="edge2" class="edge">
<title>Node3&#45;&gt;Node2</title>
<path fill="none" stroke="midnightblue" d="M1887.48,-229.98C1935,-260.83 2041.35,-329.89 2080.32,-355.19"/>
<polygon fill="midnightblue" stroke="midnightblue" points="1889.09,-226.85 1878.8,-224.34 1885.28,-232.72 1889.09,-226.85"/>
</g>
<!-- Node4 -->
<g id="node4" class="node">
<title>Node4</title>
<g id="a_node4"><a xlink:href="structconsensus_1_1Configuration.html" target="_top" xlink:title=" ">
<polygon fill="white" stroke="black" points="1517.5,-186.23 1517.5,-205.23 1656.5,-205.23 1656.5,-186.23 1517.5,-186.23"/>
<text text-anchor="middle" x="1587" y="-193.23" font-family="Helvetica,sans-Serif" font-size="10.00">consensus::Configuration</text>
</a>
</g>
</g>
<!-- Node4&#45;&gt;Node3 -->
<g id="edge3" class="edge">
<title>Node4&#45;&gt;Node3</title>
<path fill="none" stroke="#9a32cd" stroke-dasharray="5,2" d="M1666.71,-194.8C1700.17,-195.09 1739.56,-196.31 1775,-199.73 1793,-201.46 1812.89,-204.78 1829.11,-207.86"/>
<polygon fill="#9a32cd" stroke="#9a32cd" points="1666.55,-191.3 1656.53,-194.75 1666.51,-198.3 1666.55,-191.3"/>
<text text-anchor="middle" x="1729.5" y="-202.73" font-family="Helvetica,sans-Serif" font-size="10.00"> consensus</text>
</g>
<!-- Node5 -->
<g id="node5" class="node">
<title>Node5</title>
<g id="a_node5"><a xlink:href="structds_1_1TimeString.html" target="_top" xlink:title=" ">
<polygon fill="white" stroke="black" points="1217,-264.23 1217,-283.23 1304,-283.23 1304,-264.23 1217,-264.23"/>
<text text-anchor="middle" x="1260.5" y="-271.23" font-family="Helvetica,sans-Serif" font-size="10.00">ds::TimeString</text>
</a>
</g>
</g>
<!-- Node5&#45;&gt;Node4 -->
<g id="edge4" class="edge">
<title>Node5&#45;&gt;Node4</title>
<path fill="none" stroke="#9a32cd" stroke-dasharray="5,2" d="M1281.33,-257.51C1298.98,-244.07 1326.1,-225.74 1353,-216.73 1406.24,-198.88 1469.93,-194.18 1517.25,-193.64"/>
<polygon fill="#9a32cd" stroke="#9a32cd" points="1278.73,-255.1 1273.01,-264.03 1283.04,-260.62 1278.73,-255.1"/>
<text text-anchor="middle" x="1421.5" y="-230.73" font-family="Helvetica,sans-Serif" font-size="10.00"> election_timeout</text>
<text text-anchor="middle" x="1421.5" y="-219.73" font-family="Helvetica,sans-Serif" font-size="10.00">message_timeout</text>
</g>
<!-- Node15 -->
<g id="node15" class="node">
<title>Node15</title>
<g id="a_node15"><a xlink:href="structCCFConfig_1_1LedgerSignatures.html" target="_top" xlink:title=" ">
<polygon fill="white" stroke="black" points="1508,-262.23 1508,-281.23 1666,-281.23 1666,-262.23 1508,-262.23"/>
<text text-anchor="middle" x="1587" y="-269.23" font-family="Helvetica,sans-Serif" font-size="10.00">CCFConfig::LedgerSignatures</text>
</a>
</g>
</g>
<!-- Node5&#45;&gt;Node15 -->
<g id="edge20" class="edge">
<title>Node5&#45;&gt;Node15</title>
<path fill="none" stroke="#9a32cd" stroke-dasharray="5,2" d="M1314.36,-273.4C1366.89,-273.08 1448.03,-272.58 1507.96,-272.21"/>
<polygon fill="#9a32cd" stroke="#9a32cd" points="1314.23,-269.9 1304.26,-273.46 1314.28,-276.9 1314.23,-269.9"/>
<text text-anchor="middle" x="1421.5" y="-276.73" font-family="Helvetica,sans-Serif" font-size="10.00"> delay</text>
</g>
<!-- Node16 -->
<g id="node16" class="node">
<title>Node16</title>
<g id="a_node16"><a xlink:href="structCCFConfig_1_1JWT.html" target="_top" xlink:title=" ">
<polygon fill="white" stroke="black" points="1541,-224.23 1541,-243.23 1633,-243.23 1633,-224.23 1541,-224.23"/>
<text text-anchor="middle" x="1587" y="-231.23" font-family="Helvetica,sans-Serif" font-size="10.00">CCFConfig::JWT</text>
</a>
</g>
</g>
<!-- Node5&#45;&gt;Node16 -->
<g id="edge22" class="edge">
<title>Node5&#45;&gt;Node16</title>
<path fill="none" stroke="#9a32cd" stroke-dasharray="5,2" d="M1314.19,-263.86C1326.87,-261.67 1340.4,-259.47 1353,-257.73 1418.05,-248.7 1493.76,-241.51 1540.78,-237.43"/>
<polygon fill="#9a32cd" stroke="#9a32cd" points="1313.47,-260.43 1304.23,-265.61 1314.68,-267.33 1313.47,-260.43"/>
<text text-anchor="middle" x="1421.5" y="-260.73" font-family="Helvetica,sans-Serif" font-size="10.00"> key_refresh_interval</text>
</g>
<!-- Node25 -->
<g id="node25" class="node">
<title>Node25</title>
<g id="a_node25"><a xlink:href="structStartupConfig_1_1Join.html" target="_top" xlink:title=" ">
<polygon fill="white" stroke="black" points="1809.5,-309.23 1809.5,-328.23 1916.5,-328.23 1916.5,-309.23 1809.5,-309.23"/>
<text text-anchor="middle" x="1863" y="-316.23" font-family="Helvetica,sans-Serif" font-size="10.00">StartupConfig::Join</text>
</a>
</g>
</g>
<!-- Node5&#45;&gt;Node25 -->
<g id="edge34" class="edge">
<title>Node5&#45;&gt;Node25</title>
<path fill="none" stroke="#9a32cd" stroke-dasharray="5,2" d="M1314.16,-283.32C1326.84,-285.36 1340.38,-287.32 1353,-288.73 1519.06,-307.18 1716.95,-314.73 1809.46,-317.42"/>
<polygon fill="#9a32cd" stroke="#9a32cd" points="1314.64,-279.85 1304.2,-281.67 1313.49,-286.75 1314.64,-279.85"/>
<text text-anchor="middle" x="1587" y="-314.73" font-family="Helvetica,sans-Serif" font-size="10.00"> retry_timeout</text>
</g>
<!-- Node6 -->
<g id="node6" class="node">
<title>Node6</title>
<g id="a_node6"><a xlink:href="structds_1_1UnitString.html" target="_top" xlink:title=" ">
<polygon fill="white" stroke="black" points="803,-264.23 803,-283.23 886,-283.23 886,-264.23 803,-264.23"/>
<text text-anchor="middle" x="844.5" y="-271.23" font-family="Helvetica,sans-Serif" font-size="10.00">ds::UnitString</text>
</a>
</g>
</g>
<!-- Node6&#45;&gt;Node5 -->
<g id="edge5" class="edge">
<title>Node6&#45;&gt;Node5</title>
<path fill="none" stroke="midnightblue" d="M896.46,-273.73C978.91,-273.73 1140.02,-273.73 1216.82,-273.73"/>
<polygon fill="midnightblue" stroke="midnightblue" points="896.33,-270.23 886.33,-273.73 896.33,-277.23 896.33,-270.23"/>
</g>
<!-- Node7 -->
<g id="node7" class="node">
<title>Node7</title>
<g id="a_node7"><a xlink:title=" ">
<polygon fill="white" stroke="black" points="376,-208.23 376,-227.23 441,-227.23 441,-208.23 376,-208.23"/>
<text text-anchor="middle" x="408.5" y="-215.23" font-family="Helvetica,sans-Serif" font-size="10.00">std::string</text>
</a>
</g>
</g>
<!-- Node7&#45;&gt;Node2 -->
<g id="edge26" class="edge">
<title>Node7&#45;&gt;Node2</title>
<path fill="none" stroke="#9a32cd" stroke-dasharray="5,2" d="M421.1,-235.82C456.82,-289.1 571.09,-441.73 708,-441.73 708,-441.73 708,-441.73 1864,-441.73 1948.34,-441.73 2041.51,-394.96 2078.53,-374.32"/>
<polygon fill="#9a32cd" stroke="#9a32cd" points="423.94,-233.78 415.52,-227.35 418.1,-237.63 423.94,-233.78"/>
<text text-anchor="middle" x="1260.5" y="-444.73" font-family="Helvetica,sans-Serif" font-size="10.00"> startup_host_time</text>
</g>
<!-- Node7&#45;&gt;Node6 -->
<g id="edge6" class="edge">
<title>Node7&#45;&gt;Node6</title>
<path fill="none" stroke="#9a32cd" stroke-dasharray="5,2" d="M442.48,-230.91C462.54,-238.34 488.86,-247.03 513,-251.73 616.02,-271.75 740.12,-274.4 802.89,-274.28"/>
<polygon fill="#9a32cd" stroke="#9a32cd" points="443.48,-227.55 432.89,-227.29 441.01,-234.1 443.48,-227.55"/>
<text text-anchor="middle" x="567" y="-269.73" font-family="Helvetica,sans-Serif" font-size="10.00"> str</text>
</g>
<!-- Node11 -->
<g id="node11" class="node">
<title>Node11</title>
<g id="a_node11"><a xlink:href="structccf_1_1NodeInfoNetwork__v2_1_1NetInterface.html" target="_top" xlink:title="Network interface description.">
<polygon fill="white" stroke="black" points="648,-205.73 648,-235.73 770,-235.73 770,-205.73 648,-205.73"/>
<text text-anchor="start" x="656" y="-223.73" font-family="Helvetica,sans-Serif" font-size="10.00">ccf::NodeInfoNetwork</text>
<text text-anchor="middle" x="709" y="-212.73" font-family="Helvetica,sans-Serif" font-size="10.00">_v2::NetInterface</text>
</a>
</g>
</g>
<!-- Node7&#45;&gt;Node11 -->
<g id="edge11" class="edge">
<title>Node7&#45;&gt;Node11</title>
<path fill="none" stroke="#9a32cd" stroke-dasharray="5,2" d="M451.04,-217.7C493.69,-217.72 561.98,-217.91 621,-218.73 629.61,-218.85 638.7,-219.01 647.63,-219.2"/>
<polygon fill="#9a32cd" stroke="#9a32cd" points="451.04,-214.2 441.03,-217.7 451.03,-221.2 451.04,-214.2"/>
<text text-anchor="middle" x="567" y="-243.73" font-family="Helvetica,sans-Serif" font-size="10.00"> bind_address</text>
<text text-anchor="middle" x="567" y="-232.73" font-family="Helvetica,sans-Serif" font-size="10.00">protocol</text>
<text text-anchor="middle" x="567" y="-221.73" font-family="Helvetica,sans-Serif" font-size="10.00">published_address</text>
</g>
<!-- Node12 -->
<g id="node12" class="node">
<title>Node12</title>
<g id="a_node12"><a xlink:title=" ">
<polygon fill="white" stroke="black" points="920.5,-164.73 920.5,-194.73 1066.5,-194.73 1066.5,-164.73 920.5,-164.73"/>
<text text-anchor="start" x="928.5" y="-182.73" font-family="Helvetica,sans-Serif" font-size="10.00">std::map&lt; RpcInterfaceID,</text>
<text text-anchor="middle" x="993.5" y="-171.73" font-family="Helvetica,sans-Serif" font-size="10.00"> NetInterface &gt;</text>
</a>
</g>
</g>
<!-- Node7&#45;&gt;Node12 -->
<g id="edge13" class="edge">
<title>Node7&#45;&gt;Node12</title>
<path fill="none" stroke="#9a32cd" stroke-dasharray="5,2" d="M451.15,-210.09C497,-202.07 572.96,-189.92 639,-184.73 736.14,-177.09 848.74,-177 920.27,-178.04"/>
<polygon fill="#9a32cd" stroke="#9a32cd" points="450.52,-206.65 441.28,-211.83 451.74,-213.54 450.52,-206.65"/>
<text text-anchor="middle" x="709" y="-187.73" font-family="Helvetica,sans-Serif" font-size="10.00"> keys</text>
</g>
<!-- Node13 -->
<g id="node13" class="node">
<title>Node13</title>
<g id="a_node13"><a xlink:href="structCCFConfig_1_1NodeCertificateInfo.html" target="_top" xlink:title=" ">
<polygon fill="white" stroke="black" points="910,-73.23 910,-92.23 1077,-92.23 1077,-73.23 910,-73.23"/>
<text text-anchor="middle" x="993.5" y="-80.23" font-family="Helvetica,sans-Serif" font-size="10.00">CCFConfig::NodeCertificateInfo</text>
</a>
</g>
</g>
<!-- Node7&#45;&gt;Node13 -->
<g id="edge16" class="edge">
<title>Node7&#45;&gt;Node13</title>
<path fill="none" stroke="#9a32cd" stroke-dasharray="5,2" d="M444.74,-204.63C464.61,-197.55 489.98,-188.99 513,-182.73 663.97,-141.62 845.63,-107.94 935.87,-92.25"/>
<polygon fill="#9a32cd" stroke="#9a32cd" points="443.4,-201.39 435.18,-208.08 445.77,-207.98 443.4,-201.39"/>
<text text-anchor="middle" x="709" y="-153.73" font-family="Helvetica,sans-Serif" font-size="10.00"> subject_name</text>
</g>
<!-- Node14 -->
<g id="node14" class="node">
<title>Node14</title>
<g id="a_node14"><a xlink:title=" ">
<polygon fill="white" stroke="black" points="639,-73.23 639,-92.23 779,-92.23 779,-73.23 639,-73.23"/>
<text text-anchor="middle" x="709" y="-80.23" font-family="Helvetica,sans-Serif" font-size="10.00">std::vector&lt; std::string &gt;</text>
</a>
</g>
</g>
<!-- Node7&#45;&gt;Node14 -->
<g id="edge18" class="edge">
<title>Node7&#45;&gt;Node14</title>
<path fill="none" stroke="#9a32cd" stroke-dasharray="5,2" d="M420.13,-199.28C436.4,-172.99 470.13,-125.53 513,-103.73 551.55,-84.12 599.84,-78.8 638.72,-78.42"/>
<polygon fill="#9a32cd" stroke="#9a32cd" points="417.09,-197.54 414.95,-207.92 423.1,-201.14 417.09,-197.54"/>
<text text-anchor="middle" x="567" y="-106.73" font-family="Helvetica,sans-Serif" font-size="10.00"> elements</text>
</g>
<!-- Node20 -->
<g id="node20" class="node">
<title>Node20</title>
<g id="a_node20"><a xlink:href="structStartupConfig_1_1Start.html" target="_top" xlink:title=" ">
<polygon fill="white" stroke="black" points="653,-492.23 653,-511.23 765,-511.23 765,-492.23 653,-492.23"/>
<text text-anchor="middle" x="709" y="-499.23" font-family="Helvetica,sans-Serif" font-size="10.00">StartupConfig::Start</text>
</a>
</g>
</g>
<!-- Node7&#45;&gt;Node20 -->
<g id="edge31" class="edge">
<title>Node7&#45;&gt;Node20</title>
<path fill="none" stroke="#9a32cd" stroke-dasharray="5,2" d="M412.3,-237.62C419.78,-283.05 444.54,-394.94 513,-452.73 534.01,-470.46 602.97,-484.92 652.94,-493.42"/>
<polygon fill="#9a32cd" stroke="#9a32cd" points="415.74,-236.93 410.76,-227.58 408.82,-237.99 415.74,-236.93"/>
<text text-anchor="middle" x="567" y="-489.73" font-family="Helvetica,sans-Serif" font-size="10.00"> constitution</text>
</g>
<!-- Node8 -->
<g id="node8" class="node">
<title>Node8</title>
<g id="a_node8"><a xlink:title=" ">
<polygon fill="white" stroke="black" points="133,-202.73 133,-232.73 237,-232.73 237,-202.73 133,-202.73"/>
<text text-anchor="start" x="141" y="-220.73" font-family="Helvetica,sans-Serif" font-size="10.00">std::basic_string&lt;</text>
<text text-anchor="middle" x="185" y="-209.73" font-family="Helvetica,sans-Serif" font-size="10.00"> Char &gt;</text>
</a>
</g>
</g>
<!-- Node8&#45;&gt;Node7 -->
<g id="edge7" class="edge">
<title>Node8&#45;&gt;Node7</title>
<path fill="none" stroke="midnightblue" d="M247.15,-217.73C288.86,-217.73 342.4,-217.73 375.83,-217.73"/>
<polygon fill="midnightblue" stroke="midnightblue" points="247.09,-214.23 237.09,-217.73 247.09,-221.23 247.09,-214.23"/>
</g>
<!-- Node9 -->
<g id="node9" class="node">
<title>Node9</title>
<g id="a_node9"><a xlink:href="structccf_1_1NodeInfoNetwork.html" target="_top" xlink:title=" ">
<polygon fill="white" stroke="black" points="1526,-148.23 1526,-167.23 1648,-167.23 1648,-148.23 1526,-148.23"/>
<text text-anchor="middle" x="1587" y="-155.23" font-family="Helvetica,sans-Serif" font-size="10.00">ccf::NodeInfoNetwork</text>
</a>
</g>
</g>
<!-- Node9&#45;&gt;Node3 -->
<g id="edge8" class="edge">
<title>Node9&#45;&gt;Node3</title>
<path fill="none" stroke="#9a32cd" stroke-dasharray="5,2" d="M1658.81,-157.05C1694.88,-159 1738.66,-165 1775,-180.73 1784.56,-184.86 1783.77,-190.9 1793,-195.73 1804.23,-201.6 1817.47,-205.81 1829.33,-208.75"/>
<polygon fill="#9a32cd" stroke="#9a32cd" points="1658.52,-153.53 1648.38,-156.58 1658.21,-160.52 1658.52,-153.53"/>
<text text-anchor="middle" x="1729.5" y="-183.73" font-family="Helvetica,sans-Serif" font-size="10.00"> network</text>
</g>
<!-- Node10 -->
<g id="node10" class="node">
<title>Node10</title>
<g id="a_node10"><a xlink:href="structccf_1_1NodeInfoNetwork__v2.html" target="_top" xlink:title="Node network information.">
<polygon fill="white" stroke="black" points="1191,-170.23 1191,-189.23 1330,-189.23 1330,-170.23 1191,-170.23"/>
<text text-anchor="middle" x="1260.5" y="-177.23" font-family="Helvetica,sans-Serif" font-size="10.00">ccf::NodeInfoNetwork_v2</text>
</a>
</g>
</g>
<!-- Node10&#45;&gt;Node9 -->
<g id="edge9" class="edge">
<title>Node10&#45;&gt;Node9</title>
<path fill="none" stroke="midnightblue" d="M1340.39,-174.38C1397.48,-170.51 1473.48,-165.35 1525.74,-161.81"/>
<polygon fill="midnightblue" stroke="midnightblue" points="1340.06,-170.89 1330.32,-175.06 1340.53,-177.88 1340.06,-170.89"/>
</g>
<!-- Node11&#45;&gt;Node10 -->
<g id="edge10" class="edge">
<title>Node11&#45;&gt;Node10</title>
<path fill="none" stroke="#9a32cd" stroke-dasharray="5,2" d="M780.51,-222.23C814.27,-222.56 855.24,-222.41 892,-220.73 1015.08,-215.08 1045.84,-210.76 1168,-194.73 1179.97,-193.15 1192.78,-191.22 1204.91,-189.26"/>
<polygon fill="#9a32cd" stroke="#9a32cd" points="780.32,-218.73 770.28,-222.11 780.24,-225.73 780.32,-218.73"/>
<text text-anchor="middle" x="993.5" y="-223.73" font-family="Helvetica,sans-Serif" font-size="10.00"> node_to_node_interface</text>
</g>
<!-- Node11&#45;&gt;Node12 -->
<g id="edge14" class="edge">
<title>Node11&#45;&gt;Node12</title>
<path fill="none" stroke="#9a32cd" stroke-dasharray="5,2" d="M780.28,-210.53C822.96,-204.33 877.31,-196.44 920.32,-190.2"/>
<polygon fill="#9a32cd" stroke="#9a32cd" points="779.65,-207.08 770.26,-211.98 780.66,-214.01 779.65,-207.08"/>
<text text-anchor="middle" x="844.5" y="-210.73" font-family="Helvetica,sans-Serif" font-size="10.00"> elements</text>
</g>
<!-- Node12&#45;&gt;Node10 -->
<g id="edge12" class="edge">
<title>Node12&#45;&gt;Node10</title>
<path fill="none" stroke="#9a32cd" stroke-dasharray="5,2" d="M1076.7,-179.73C1113.25,-179.73 1155.8,-179.73 1190.65,-179.73"/>
<polygon fill="#9a32cd" stroke="#9a32cd" points="1076.56,-176.23 1066.56,-179.73 1076.56,-183.23 1076.56,-176.23"/>
<text text-anchor="middle" x="1131.5" y="-182.73" font-family="Helvetica,sans-Serif" font-size="10.00"> rpc_interfaces</text>
</g>
<!-- Node13&#45;&gt;Node3 -->
<g id="edge15" class="edge">
<title>Node13&#45;&gt;Node3</title>
<path fill="none" stroke="#9a32cd" stroke-dasharray="5,2" d="M1030.99,-69.85C1153.75,-29.08 1556.3,83.42 1775,-109.73 1804.27,-135.58 1766.26,-167.27 1793,-195.73 1802.36,-205.69 1816.41,-210.6 1829.4,-212.96"/>
<polygon fill="#9a32cd" stroke="#9a32cd" points="1029.67,-66.6 1021.31,-73.11 1031.9,-73.23 1029.67,-66.6"/>
<text text-anchor="middle" x="1421.5" y="-6.73" font-family="Helvetica,sans-Serif" font-size="10.00"> node_certificate</text>
</g>
<!-- Node14&#45;&gt;Node13 -->
<g id="edge17" class="edge">
<title>Node14&#45;&gt;Node13</title>
<path fill="none" stroke="#9a32cd" stroke-dasharray="5,2" d="M789.49,-82.73C827.04,-82.73 871.83,-82.73 909.78,-82.73"/>
<polygon fill="#9a32cd" stroke="#9a32cd" points="789.11,-79.23 779.11,-82.73 789.11,-86.23 789.11,-79.23"/>
<text text-anchor="middle" x="844.5" y="-85.73" font-family="Helvetica,sans-Serif" font-size="10.00"> subject_alt_names</text>
</g>
<!-- Node15&#45;&gt;Node3 -->
<g id="edge19" class="edge">
<title>Node15&#45;&gt;Node3</title>
<path fill="none" stroke="#9a32cd" stroke-dasharray="5,2" d="M1676.35,-260.94C1707.71,-256.35 1743.12,-250.28 1775,-242.73 1795.84,-237.79 1818.9,-230.27 1836.03,-224.27"/>
<polygon fill="#9a32cd" stroke="#9a32cd" points="1675.72,-257.5 1666.32,-262.38 1676.72,-264.42 1675.72,-257.5"/>
<text text-anchor="middle" x="1729.5" y="-262.73" font-family="Helvetica,sans-Serif" font-size="10.00"> ledger_signatures</text>
</g>
<!-- Node16&#45;&gt;Node3 -->
<g id="edge21" class="edge">
<title>Node16&#45;&gt;Node3</title>
<path fill="none" stroke="#9a32cd" stroke-dasharray="5,2" d="M1643.31,-229.89C1699.05,-226.03 1783.21,-220.19 1829.17,-217"/>
<polygon fill="#9a32cd" stroke="#9a32cd" points="1642.98,-226.41 1633.25,-230.59 1643.46,-233.39 1642.98,-226.41"/>
<text text-anchor="middle" x="1729.5" y="-230.73" font-family="Helvetica,sans-Serif" font-size="10.00"> jwt</text>
</g>
<!-- Node17 -->
<g id="node17" class="node">
<title>Node17</title>
<g id="a_node17"><a xlink:href="structCCFConfig_1_1Attestation.html" target="_top" xlink:title=" ">
<polygon fill="white" stroke="black" points="1523.5,-110.23 1523.5,-129.23 1650.5,-129.23 1650.5,-110.23 1523.5,-110.23"/>
<text text-anchor="middle" x="1587" y="-117.23" font-family="Helvetica,sans-Serif" font-size="10.00">CCFConfig::Attestation</text>
</a>
</g>
</g>
<!-- Node17&#45;&gt;Node3 -->
<g id="edge23" class="edge">
<title>Node17&#45;&gt;Node3</title>
<path fill="none" stroke="#9a32cd" stroke-dasharray="5,2" d="M1661.29,-112.39C1699.05,-112.52 1743.63,-119.24 1775,-144.73 1793.66,-159.88 1775.41,-179.34 1793,-195.73 1802.82,-204.87 1816.63,-209.68 1829.32,-212.19"/>
<polygon fill="#9a32cd" stroke="#9a32cd" points="1660.79,-108.89 1650.84,-112.52 1660.88,-115.89 1660.79,-108.89"/>
<text text-anchor="middle" x="1729.5" y="-147.73" font-family="Helvetica,sans-Serif" font-size="10.00"> attestation</text>
</g>
<!-- Node18 -->
<g id="node18" class="node">
<title>Node18</title>
<g id="a_node18"><a xlink:title=" ">
<polygon fill="white" stroke="black" points="1186,-110.73 1186,-140.73 1335,-140.73 1335,-110.73 1186,-110.73"/>
<text text-anchor="start" x="1194" y="-128.73" font-family="Helvetica,sans-Serif" font-size="10.00">std::vector&lt; Endorsements</text>
<text text-anchor="middle" x="1260.5" y="-117.73" font-family="Helvetica,sans-Serif" font-size="10.00">Server &gt;</text>
</a>
</g>
</g>
<!-- Node18&#45;&gt;Node17 -->
<g id="edge24" class="edge">
<title>Node18&#45;&gt;Node17</title>
<path fill="none" stroke="#9a32cd" stroke-dasharray="5,2" d="M1345.32,-124.18C1400.9,-123.15 1472.66,-121.82 1523.31,-120.89"/>
<polygon fill="#9a32cd" stroke="#9a32cd" points="1345.07,-120.68 1335.13,-124.36 1345.2,-127.68 1345.07,-120.68"/>
<text text-anchor="middle" x="1421.5" y="-127.73" font-family="Helvetica,sans-Serif" font-size="10.00"> snp_endorsements_servers</text>
</g>
<!-- Node19 -->
<g id="node19" class="node">
<title>Node19</title>
<g id="a_node19"><a xlink:title=" ">
<polygon fill="white" stroke="black" points="1524.5,-357.23 1524.5,-376.23 1649.5,-376.23 1649.5,-357.23 1524.5,-357.23"/>
<text text-anchor="middle" x="1587" y="-364.23" font-family="Helvetica,sans-Serif" font-size="10.00">std::vector&lt; uint8_t &gt;</text>
</a>
</g>
</g>
<!-- Node19&#45;&gt;Node2 -->
<g id="edge25" class="edge">
<title>Node19&#45;&gt;Node2</title>
<path fill="none" stroke="#9a32cd" stroke-dasharray="5,2" d="M1659.81,-366.44C1767.75,-366.02 1968.31,-365.23 2054.22,-364.89"/>
<polygon fill="#9a32cd" stroke="#9a32cd" points="1659.65,-362.94 1649.66,-366.48 1659.68,-369.94 1659.65,-362.94"/>
<text text-anchor="middle" x="1863" y="-368.73" font-family="Helvetica,sans-Serif" font-size="10.00"> startup_snapshot</text>
</g>
<!-- Node19&#45;&gt;Node25 -->
<g id="edge35" class="edge">
<title>Node19&#45;&gt;Node25</title>
<path fill="none" stroke="#9a32cd" stroke-dasharray="5,2" d="M1641.28,-355.14C1655.16,-352.25 1670.12,-349.26 1684,-346.73 1726.01,-339.05 1773.82,-331.6 1809.31,-326.32"/>
<polygon fill="#9a32cd" stroke="#9a32cd" points="1640.47,-351.73 1631.4,-357.21 1641.9,-358.58 1640.47,-351.73"/>
<text text-anchor="middle" x="1729.5" y="-349.73" font-family="Helvetica,sans-Serif" font-size="10.00"> service_cert</text>
</g>
<!-- Node20&#45;&gt;Node2 -->
<g id="edge27" class="edge">
<title>Node20&#45;&gt;Node2</title>
<path fill="none" stroke="#9a32cd" stroke-dasharray="5,2" d="M775.2,-499.19C832.45,-497.19 917.99,-494.73 992.5,-494.73 992.5,-494.73 992.5,-494.73 1864,-494.73 1926.88,-494.73 1945.48,-487.06 2000,-455.73 2038.42,-433.65 2073.16,-392.77 2087.74,-374.27"/>
<polygon fill="#9a32cd" stroke="#9a32cd" points="775.07,-495.7 765.2,-499.55 775.32,-502.69 775.07,-495.7"/>
<text text-anchor="middle" x="1421.5" y="-497.73" font-family="Helvetica,sans-Serif" font-size="10.00"> start</text>
</g>
<!-- Node21 -->
<g id="node21" class="node">
<title>Node21</title>
<g id="a_node21"><a xlink:title=" ">
<polygon fill="white" stroke="black" points="322,-537.23 322,-556.23 495,-556.23 495,-537.23 322,-537.23"/>
<text text-anchor="middle" x="408.5" y="-544.23" font-family="Helvetica,sans-Serif" font-size="10.00">std::vector&lt; ccf::NewMember &gt;</text>
</a>
</g>
</g>
<!-- Node21&#45;&gt;Node20 -->
<g id="edge28" class="edge">
<title>Node21&#45;&gt;Node20</title>
<path fill="none" stroke="#9a32cd" stroke-dasharray="5,2" d="M505.28,-536.86C541.63,-532.61 583.33,-527.14 621,-520.73 636.39,-518.1 653.18,-514.59 667.87,-511.3"/>
<polygon fill="#9a32cd" stroke="#9a32cd" points="504.71,-533.4 495.18,-538.02 505.51,-540.35 504.71,-533.4"/>
<text text-anchor="middle" x="567" y="-537.73" font-family="Helvetica,sans-Serif" font-size="10.00"> members</text>
</g>
<!-- Node22 -->
<g id="node22" class="node">
<title>Node22</title>
<g id="a_node22"><a xlink:href="structccf_1_1NewMember.html" target="_top" xlink:title=" ">
<polygon fill="white" stroke="black" points="136,-537.23 136,-556.23 234,-556.23 234,-537.23 136,-537.23"/>
<text text-anchor="middle" x="185" y="-544.23" font-family="Helvetica,sans-Serif" font-size="10.00">ccf::NewMember</text>
</a>
</g>
</g>
<!-- Node22&#45;&gt;Node21 -->
<g id="edge29" class="edge">
<title>Node22&#45;&gt;Node21</title>
<path fill="none" stroke="#9a32cd" stroke-dasharray="5,2" d="M244.26,-546.73C267.9,-546.73 295.69,-546.73 321.57,-546.73"/>
<polygon fill="#9a32cd" stroke="#9a32cd" points="244.06,-543.23 234.06,-546.73 244.06,-550.23 244.06,-543.23"/>
<text text-anchor="middle" x="279.5" y="-549.73" font-family="Helvetica,sans-Serif" font-size="10.00"> elements</text>
</g>
<!-- Node23 -->
<g id="node23" class="node">
<title>Node23</title>
<g id="a_node23"><a xlink:href="classcrypto_1_1Pem.html" target="_top" xlink:title=" ">
<polygon fill="white" stroke="black" points="0,-537.23 0,-556.23 75,-556.23 75,-537.23 0,-537.23"/>
<text text-anchor="middle" x="37.5" y="-544.23" font-family="Helvetica,sans-Serif" font-size="10.00">crypto::Pem</text>
</a>
</g>
</g>
<!-- Node23&#45;&gt;Node22 -->
<g id="edge30" class="edge">
<title>Node23&#45;&gt;Node22</title>
<path fill="none" stroke="#9a32cd" stroke-dasharray="5,2" d="M85.47,-546.73C101.55,-546.73 119.56,-546.73 135.74,-546.73"/>
<polygon fill="#9a32cd" stroke="#9a32cd" points="85.22,-543.23 75.22,-546.73 85.22,-550.23 85.22,-543.23"/>
<text text-anchor="middle" x="104" y="-549.73" font-family="Helvetica,sans-Serif" font-size="10.00"> cert</text>
</g>
<!-- Node24 -->
<g id="node24" class="node">
<title>Node24</title>
<g id="a_node24"><a xlink:href="structccf_1_1ServiceConfiguration.html" target="_top" xlink:title=" ">
<polygon fill="white" stroke="black" points="340,-499.23 340,-518.23 477,-518.23 477,-499.23 340,-499.23"/>
<text text-anchor="middle" x="408.5" y="-506.23" font-family="Helvetica,sans-Serif" font-size="10.00">ccf::ServiceConfiguration</text>
</a>
</g>
</g>
<!-- Node24&#45;&gt;Node20 -->
<g id="edge32" class="edge">
<title>Node24&#45;&gt;Node20</title>
<path fill="none" stroke="#9a32cd" stroke-dasharray="5,2" d="M487.39,-506.9C539.22,-505.68 606.06,-504.12 652.52,-503.03"/>
<polygon fill="#9a32cd" stroke="#9a32cd" points="487.15,-503.4 477.23,-507.14 487.31,-510.4 487.15,-503.4"/>
<text text-anchor="middle" x="567" y="-508.73" font-family="Helvetica,sans-Serif" font-size="10.00"> service_configuration</text>
</g>
<!-- Node25&#45;&gt;Node2 -->
<g id="edge33" class="edge">
<title>Node25&#45;&gt;Node2</title>
<path fill="none" stroke="#9a32cd" stroke-dasharray="5,2" d="M1926.59,-327C1949.75,-330.42 1976.16,-334.76 2000,-339.73 2020.87,-344.07 2044.01,-350.13 2062.23,-355.2"/>
<polygon fill="#9a32cd" stroke="#9a32cd" points="1926.94,-323.51 1916.54,-325.54 1925.93,-330.44 1926.94,-323.51"/>
<text text-anchor="middle" x="1975.5" y="-342.73" font-family="Helvetica,sans-Serif" font-size="10.00"> join</text>
</g>
<!-- Node26 -->
<g id="node26" class="node">
<title>Node26</title>
<g id="a_node26"><a xlink:href="structStartupConfig_1_1Recover.html" target="_top" xlink:title=" ">
<polygon fill="white" stroke="black" points="1799,-394.23 1799,-413.23 1927,-413.23 1927,-394.23 1799,-394.23"/>
<text text-anchor="middle" x="1863" y="-401.23" font-family="Helvetica,sans-Serif" font-size="10.00">StartupConfig::Recover</text>
</a>
</g>
</g>
<!-- Node26&#45;&gt;Node2 -->
<g id="edge36" class="edge">
<title>Node26&#45;&gt;Node2</title>
<path fill="none" stroke="#9a32cd" stroke-dasharray="5,2" d="M1930.45,-392.51C1970.43,-385.76 2020.05,-377.38 2054.29,-371.6"/>
<polygon fill="#9a32cd" stroke="#9a32cd" points="1929.79,-389.07 1920.51,-394.19 1930.95,-395.97 1929.79,-389.07"/>
<text text-anchor="middle" x="1975.5" y="-391.73" font-family="Helvetica,sans-Serif" font-size="10.00"> recover</text>
</g>
<!-- Node27 -->
<g id="node27" class="node">
<title>Node27</title>
<g id="a_node27"><a xlink:title=" ">
<polygon fill="white" stroke="black" points="2018,-246.23 2018,-287.23 2174,-287.23 2174,-246.23 2018,-246.23"/>
<text text-anchor="start" x="2026" y="-275.23" font-family="Helvetica,sans-Serif" font-size="10.00">std::map&lt; NodeInfoNetwork</text>
<text text-anchor="start" x="2026" y="-264.23" font-family="Helvetica,sans-Serif" font-size="10.00">::RpcInterfaceID, std::</text>
<text text-anchor="middle" x="2096" y="-253.23" font-family="Helvetica,sans-Serif" font-size="10.00">vector&lt; std::regex &gt; &gt;</text>
</a>
</g>
</g>
<!-- Node27&#45;&gt;Node1 -->
<g id="edge37" class="edge">
<title>Node27&#45;&gt;Node1</title>
<path fill="none" stroke="#9a32cd" stroke-dasharray="5,2" d="M2184.54,-270.47C2221.18,-272.39 2264.2,-275.1 2303,-278.73 2310.62,-279.44 2318.57,-280.29 2326.49,-281.22"/>
<polygon fill="#9a32cd" stroke="#9a32cd" points="2184.54,-266.96 2174.38,-269.95 2184.18,-273.95 2184.54,-266.96"/>
<text text-anchor="middle" x="2247.5" y="-281.73" font-family="Helvetica,sans-Serif" font-size="10.00"> rpc_interface_regexes</text>
</g>
<!-- Node28 -->
<g id="node28" class="node">
<title>Node28</title>
<g id="a_node28"><a xlink:title=" ">
<polygon fill="white" stroke="black" points="1793,-167.23 1793,-186.23 1933,-186.23 1933,-167.23 1793,-167.23"/>
<text text-anchor="middle" x="1863" y="-174.23" font-family="Helvetica,sans-Serif" font-size="10.00">std::vector&lt; std::regex &gt;</text>
</a>
</g>
</g>
<!-- Node28&#45;&gt;Node27 -->
<g id="edge38" class="edge">
<title>Node28&#45;&gt;Node27</title>
<path fill="none" stroke="#9a32cd" stroke-dasharray="5,2" d="M1912.62,-189.16C1919.51,-191.2 1926.47,-193.41 1933,-195.73 1974.53,-210.46 2020.4,-230.98 2052.7,-246.18"/>
<polygon fill="#9a32cd" stroke="#9a32cd" points="1913.2,-185.69 1902.63,-186.31 1911.28,-192.42 1913.2,-185.69"/>
<text text-anchor="middle" x="1975.5" y="-224.73" font-family="Helvetica,sans-Serif" font-size="10.00"> elements</text>
</g>
</g>
</svg>
