<?xml version="1.0" encoding="UTF-8" standalone="no"?>
<!DOCTYPE svg PUBLIC "-//W3C//DTD SVG 1.1//EN"
 "http://www.w3.org/Graphics/SVG/1.1/DTD/svg11.dtd">
<!-- Generated by graphviz version 2.43.0 (0)
 -->
<!-- Title: ccf::EndpointContextImpl Pages: 1 -->
<!--zoomable 412 -->
<svg id="main" version="1.1" xmlns="http://www.w3.org/2000/svg" xmlns:xlink="http://www.w3.org/1999/xlink" xml:space="preserve" onload="init(evt)">
<style type="text/css"><![CDATA[
.edge:hover path { stroke: red; }
.edge:hover polygon { stroke: red; fill: red; }
]]></style>
<script type="text/javascript"><![CDATA[
var edges = document.getElementsByTagName('g');
if (edges && edges.length) {
  for (var i=0;i<edges.length;i++) {
    if (edges[i].id.substr(0,4)=='edge') {
      edges[i].setAttribute('class','edge');
    }
  }
}
]]></script>
        <defs>
                <circle id="rim" cx="0" cy="0" r="7"/>
                <circle id="rim2" cx="0" cy="0" r="3.5"/>
                <g id="zoomPlus">
                        <use xlink:href="#rim" fill="#404040">
                                <set attributeName="fill" to="#808080" begin="zoomplus.mouseover" end="zoomplus.mouseout"/>
                        </use>
                        <path d="M-4,0h8M0,-4v8" fill="none" stroke="white" stroke-width="1.5" pointer-events="none"/>
                </g>
                <g id="zoomMin">
                        <use xlink:href="#rim" fill="#404040">
                                <set attributeName="fill" to="#808080" begin="zoomminus.mouseover" end="zoomminus.mouseout"/>
                        </use>
                        <path d="M-4,0h8" fill="none" stroke="white" stroke-width="1.5" pointer-events="none"/>
                </g>
                <g id="dirArrow">
                        <path fill="none" stroke="white" stroke-width="1.5" d="M0,-3.0v7 M-2.5,-0.5L0,-3.0L2.5,-0.5"/>
                </g>
               <g id="resetDef">
                       <use xlink:href="#rim2" fill="#404040">
                               <set attributeName="fill" to="#808080" begin="reset.mouseover" end="reset.mouseout"/>
                       </use>
               </g>
        </defs>

<script type="text/javascript">
var viewWidth = 2762;
var viewHeight = 412;
var sectionId = 'dynsection-0';
</script>
<script xlink:href="svgpan.js"/>
<svg id="graph" class="graph">
<g id="viewport">
<title>ccf::EndpointContextImpl</title>
<polygon fill="white" stroke="transparent" points="-4,4 -4,-407.5 2758,-407.5 2758,4 -4,4"/>
<!-- Node1 -->
<g id="node1" class="node">
<title>Node1</title>
<g id="a_node1"><a xlink:title=" ">
<polygon fill="#bfbfbf" stroke="black" points="2615,-147.5 2615,-166.5 2754,-166.5 2754,-147.5 2615,-147.5"/>
<text text-anchor="middle" x="2684.5" y="-154.5" font-family="Helvetica,sans-Serif" font-size="10.00">ccf::EndpointContextImpl</text>
</a>
</g>
</g>
<!-- Node2 -->
<g id="node2" class="node">
<title>Node2</title>
<g id="a_node2"><a xlink:href="structccf_1_1endpoints_1_1EndpointContext.html" target="_top" xlink:title=" ">
<polygon fill="white" stroke="black" points="2229,-164 2229,-194 2362,-194 2362,-164 2229,-164"/>
<text text-anchor="start" x="2237" y="-182" font-family="Helvetica,sans-Serif" font-size="10.00">ccf::endpoints::Endpoint</text>
<text text-anchor="middle" x="2295.5" y="-171" font-family="Helvetica,sans-Serif" font-size="10.00">Context</text>
</a>
</g>
</g>
<!-- Node2&#45;&gt;Node1 -->
<g id="edge1" class="edge">
<title>Node2&#45;&gt;Node1</title>
<path fill="none" stroke="midnightblue" d="M2372.43,-174.73C2433.18,-171.31 2520.56,-166.37 2597,-162 2602.71,-161.67 2608.63,-161.33 2614.57,-160.99"/>
<polygon fill="midnightblue" stroke="midnightblue" points="2371.94,-171.25 2362.16,-175.31 2372.34,-178.24 2371.94,-171.25"/>
</g>
<!-- Node3 -->
<g id="node3" class="node">
<title>Node3</title>
<g id="a_node3"><a xlink:href="structccf_1_1endpoints_1_1CommandEndpointContext.html" target="_top" xlink:title=" ">
<polygon fill="white" stroke="black" points="1997,-185 1997,-215 2180,-215 2180,-185 1997,-185"/>
<text text-anchor="start" x="2005" y="-203" font-family="Helvetica,sans-Serif" font-size="10.00">ccf::endpoints::CommandEndpoint</text>
<text text-anchor="middle" x="2088.5" y="-192" font-family="Helvetica,sans-Serif" font-size="10.00">Context</text>
</a>
</g>
</g>
<!-- Node3&#45;&gt;Node2 -->
<g id="edge2" class="edge">
<title>Node3&#45;&gt;Node2</title>
<path fill="none" stroke="midnightblue" d="M2190.05,-189.7C2203.21,-188.35 2216.4,-187 2228.78,-185.73"/>
<polygon fill="midnightblue" stroke="midnightblue" points="2189.6,-186.23 2180.01,-190.73 2190.32,-193.19 2189.6,-186.23"/>
</g>
<!-- Node4 -->
<g id="node4" class="node">
<title>Node4</title>
<g id="a_node4"><a xlink:title=" ">
<polygon fill="white" stroke="black" points="1807,-184 1807,-214 1922,-214 1922,-184 1807,-184"/>
<text text-anchor="start" x="1815" y="-202" font-family="Helvetica,sans-Serif" font-size="10.00">std::shared_ptr&lt; ccf</text>
<text text-anchor="middle" x="1864.5" y="-191" font-family="Helvetica,sans-Serif" font-size="10.00">::RpcContext &gt;</text>
</a>
</g>
</g>
<!-- Node4&#45;&gt;Node3 -->
<g id="edge3" class="edge">
<title>Node4&#45;&gt;Node3</title>
<path fill="none" stroke="#9a32cd" stroke-dasharray="5,2" d="M1932.19,-199.3C1952.54,-199.39 1975.28,-199.49 1996.93,-199.59"/>
<polygon fill="#9a32cd" stroke="#9a32cd" points="1932.11,-195.8 1922.09,-199.25 1932.08,-202.8 1932.11,-195.8"/>
<text text-anchor="middle" x="1959.5" y="-202" font-family="Helvetica,sans-Serif" font-size="10.00"> rpc_ctx</text>
</g>
<!-- Node5 -->
<g id="node5" class="node">
<title>Node5</title>
<g id="a_node5"><a xlink:href="classccf_1_1RpcContext.html" target="_top" xlink:title="Describes the currently executing RPC.">
<polygon fill="white" stroke="black" points="1657,-189.5 1657,-208.5 1749,-208.5 1749,-189.5 1657,-189.5"/>
<text text-anchor="middle" x="1703" y="-196.5" font-family="Helvetica,sans-Serif" font-size="10.00">ccf::RpcContext</text>
</a>
</g>
</g>
<!-- Node5&#45;&gt;Node4 -->
<g id="edge4" class="edge">
<title>Node5&#45;&gt;Node4</title>
<path fill="none" stroke="#9a32cd" stroke-dasharray="5,2" d="M1759.6,-199C1774.85,-199 1791.41,-199 1806.73,-199"/>
<polygon fill="#9a32cd" stroke="#9a32cd" points="1759.28,-195.5 1749.28,-199 1759.28,-202.5 1759.28,-195.5"/>
<text text-anchor="middle" x="1780.5" y="-202" font-family="Helvetica,sans-Serif" font-size="10.00"> ptr</text>
</g>
<!-- Node6 -->
<g id="node6" class="node">
<title>Node6</title>
<g id="a_node6"><a xlink:title=" ">
<polygon fill="white" stroke="black" points="1807,-233 1807,-263 1922,-263 1922,-233 1807,-233"/>
<text text-anchor="start" x="1815" y="-251" font-family="Helvetica,sans-Serif" font-size="10.00">std::unique_ptr&lt; ccf</text>
<text text-anchor="middle" x="1864.5" y="-240" font-family="Helvetica,sans-Serif" font-size="10.00">::AuthnIdentity &gt;</text>
</a>
</g>
</g>
<!-- Node6&#45;&gt;Node3 -->
<g id="edge5" class="edge">
<title>Node6&#45;&gt;Node3</title>
<path fill="none" stroke="#9a32cd" stroke-dasharray="5,2" d="M1931.89,-233.65C1959.03,-227.78 1990.45,-220.98 2017.91,-215.05"/>
<polygon fill="#9a32cd" stroke="#9a32cd" points="1931.13,-230.23 1922.09,-235.76 1932.61,-237.07 1931.13,-230.23"/>
<text text-anchor="middle" x="1959.5" y="-234" font-family="Helvetica,sans-Serif" font-size="10.00"> caller</text>
</g>
<!-- Node7 -->
<g id="node7" class="node">
<title>Node7</title>
<g id="a_node7"><a xlink:href="structccf_1_1AuthnIdentity.html" target="_top" xlink:title=" ">
<polygon fill="white" stroke="black" points="1652,-238.5 1652,-257.5 1754,-257.5 1754,-238.5 1652,-238.5"/>
<text text-anchor="middle" x="1703" y="-245.5" font-family="Helvetica,sans-Serif" font-size="10.00">ccf::AuthnIdentity</text>
</a>
</g>
</g>
<!-- Node7&#45;&gt;Node6 -->
<g id="edge6" class="edge">
<title>Node7&#45;&gt;Node6</title>
<path fill="none" stroke="#9a32cd" stroke-dasharray="5,2" d="M1764.09,-248C1778.15,-248 1793.08,-248 1806.98,-248"/>
<polygon fill="#9a32cd" stroke="#9a32cd" points="1764.03,-244.5 1754.03,-248 1764.03,-251.5 1764.03,-244.5"/>
<text text-anchor="middle" x="1780.5" y="-251" font-family="Helvetica,sans-Serif" font-size="10.00"> ptr</text>
</g>
<!-- Node8 -->
<g id="node8" class="node">
<title>Node8</title>
<g id="a_node8"><a xlink:href="classkv_1_1Tx.html" target="_top" xlink:title=" ">
<polygon fill="white" stroke="black" points="2065.5,-144.5 2065.5,-163.5 2111.5,-163.5 2111.5,-144.5 2065.5,-144.5"/>
<text text-anchor="middle" x="2088.5" y="-151.5" font-family="Helvetica,sans-Serif" font-size="10.00">kv::Tx</text>
</a>
</g>
</g>
<!-- Node8&#45;&gt;Node2 -->
<g id="edge7" class="edge">
<title>Node8&#45;&gt;Node2</title>
<path fill="none" stroke="#9a32cd" stroke-dasharray="5,2" d="M2122.08,-157.97C2150.73,-161.47 2193.31,-166.66 2228.98,-171.01"/>
<polygon fill="#9a32cd" stroke="#9a32cd" points="2122.18,-154.46 2111.83,-156.72 2121.33,-161.41 2122.18,-154.46"/>
<text text-anchor="middle" x="2204.5" y="-171" font-family="Helvetica,sans-Serif" font-size="10.00"> tx</text>
</g>
<!-- Node34 -->
<g id="node34" class="node">
<title>Node34</title>
<g id="a_node34"><a xlink:href="classkv_1_1CommittableTx.html" target="_top" xlink:title=" ">
<polygon fill="white" stroke="black" points="2240.5,-125.5 2240.5,-144.5 2350.5,-144.5 2350.5,-125.5 2240.5,-125.5"/>
<text text-anchor="middle" x="2295.5" y="-132.5" font-family="Helvetica,sans-Serif" font-size="10.00">kv::CommittableTx</text>
</a>
</g>
</g>
<!-- Node8&#45;&gt;Node34 -->
<g id="edge38" class="edge">
<title>Node8&#45;&gt;Node34</title>
<path fill="none" stroke="midnightblue" d="M2121.9,-151C2153.67,-148.05 2202.68,-143.51 2240.37,-140.02"/>
<polygon fill="midnightblue" stroke="midnightblue" points="2121.46,-147.52 2111.83,-151.93 2122.11,-154.49 2121.46,-147.52"/>
</g>
<!-- Node9 -->
<g id="node9" class="node">
<title>Node9</title>
<g id="a_node9"><a xlink:href="classkv_1_1ReadOnlyTx.html" target="_top" xlink:title=" ">
<polygon fill="white" stroke="black" points="1818,-144.5 1818,-163.5 1911,-163.5 1911,-144.5 1818,-144.5"/>
<text text-anchor="middle" x="1864.5" y="-151.5" font-family="Helvetica,sans-Serif" font-size="10.00">kv::ReadOnlyTx</text>
</a>
</g>
</g>
<!-- Node9&#45;&gt;Node8 -->
<g id="edge8" class="edge">
<title>Node9&#45;&gt;Node8</title>
<path fill="none" stroke="midnightblue" d="M1921.5,-154C1968.18,-154 2032.23,-154 2065.47,-154"/>
<polygon fill="midnightblue" stroke="midnightblue" points="1921.23,-150.5 1911.23,-154 1921.23,-157.5 1921.23,-150.5"/>
</g>
<!-- Node10 -->
<g id="node10" class="node">
<title>Node10</title>
<g id="a_node10"><a xlink:href="classkv_1_1BaseTx.html" target="_top" xlink:title=" ">
<polygon fill="white" stroke="black" points="1668,-144.5 1668,-163.5 1738,-163.5 1738,-144.5 1668,-144.5"/>
<text text-anchor="middle" x="1703" y="-151.5" font-family="Helvetica,sans-Serif" font-size="10.00">kv::BaseTx</text>
</a>
</g>
</g>
<!-- Node10&#45;&gt;Node9 -->
<g id="edge9" class="edge">
<title>Node10&#45;&gt;Node9</title>
<path fill="none" stroke="midnightblue" d="M1748.45,-154C1770.08,-154 1796.05,-154 1817.84,-154"/>
<polygon fill="midnightblue" stroke="midnightblue" points="1748.22,-150.5 1738.22,-154 1748.22,-157.5 1748.22,-150.5"/>
</g>
<!-- Node11 -->
<g id="node11" class="node">
<title>Node11</title>
<g id="a_node11"><a xlink:title=" ">
<polygon fill="white" stroke="black" points="1453,-102 1453,-132 1585,-132 1585,-102 1453,-102"/>
<text text-anchor="start" x="1461" y="-120" font-family="Helvetica,sans-Serif" font-size="10.00">std::unique_ptr&lt; kv</text>
<text text-anchor="middle" x="1519" y="-109" font-family="Helvetica,sans-Serif" font-size="10.00">::BaseTx::PrivateImpl &gt;</text>
</a>
</g>
</g>
<!-- Node11&#45;&gt;Node10 -->
<g id="edge10" class="edge">
<title>Node11&#45;&gt;Node10</title>
<path fill="none" stroke="#9a32cd" stroke-dasharray="5,2" d="M1595.14,-132.28C1620.41,-137.41 1647.35,-142.89 1667.86,-147.06"/>
<polygon fill="#9a32cd" stroke="#9a32cd" points="1595.69,-128.82 1585.19,-130.25 1594.29,-135.68 1595.69,-128.82"/>
<text text-anchor="middle" x="1618.5" y="-142" font-family="Helvetica,sans-Serif" font-size="10.00"> pimpl</text>
</g>
<!-- Node12 -->
<g id="node12" class="node">
<title>Node12</title>
<g id="a_node12"><a xlink:href="structkv_1_1BaseTx_1_1PrivateImpl.html" target="_top" xlink:title=" ">
<polygon fill="white" stroke="black" points="1268,-68.5 1268,-87.5 1400,-87.5 1400,-68.5 1268,-68.5"/>
<text text-anchor="middle" x="1334" y="-75.5" font-family="Helvetica,sans-Serif" font-size="10.00">kv::BaseTx::PrivateImpl</text>
</a>
</g>
</g>
<!-- Node12&#45;&gt;Node11 -->
<g id="edge11" class="edge">
<title>Node12&#45;&gt;Node11</title>
<path fill="none" stroke="#9a32cd" stroke-dasharray="5,2" d="M1389.6,-89.64C1409.51,-93.88 1432.22,-98.72 1452.95,-103.14"/>
<polygon fill="#9a32cd" stroke="#9a32cd" points="1390.28,-86.2 1379.77,-87.54 1388.82,-93.05 1390.28,-86.2"/>
<text text-anchor="middle" x="1426.5" y="-101" font-family="Helvetica,sans-Serif" font-size="10.00"> ptr</text>
</g>
<!-- Node13 -->
<g id="node13" class="node">
<title>Node13</title>
<g id="a_node13"><a xlink:href="classkv_1_1AbstractStore.html" target="_top" xlink:title=" ">
<polygon fill="white" stroke="black" points="1048,-65.5 1048,-84.5 1148,-84.5 1148,-65.5 1048,-65.5"/>
<text text-anchor="middle" x="1098" y="-72.5" font-family="Helvetica,sans-Serif" font-size="10.00">kv::AbstractStore</text>
</a>
</g>
</g>
<!-- Node13&#45;&gt;Node12 -->
<g id="edge12" class="edge">
<title>Node13&#45;&gt;Node12</title>
<path fill="none" stroke="#9a32cd" stroke-dasharray="5,2" d="M1158.12,-75.76C1191.48,-76.19 1233.24,-76.72 1267.58,-77.16"/>
<polygon fill="#9a32cd" stroke="#9a32cd" points="1158.1,-72.26 1148.05,-75.63 1158.01,-79.26 1158.1,-72.26"/>
<text text-anchor="middle" x="1213.5" y="-79" font-family="Helvetica,sans-Serif" font-size="10.00"> store</text>
</g>
<!-- Node14 -->
<g id="node14" class="node">
<title>Node14</title>
<g id="a_node14"><a xlink:title=" ">
<polygon fill="white" stroke="black" points="380.5,-9 380.5,-39 502.5,-39 502.5,-9 380.5,-9"/>
<text text-anchor="start" x="388.5" y="-27" font-family="Helvetica,sans-Serif" font-size="10.00">std::map&lt; std::string,</text>
<text text-anchor="middle" x="441.5" y="-16" font-family="Helvetica,sans-Serif" font-size="10.00"> PossibleHandles &gt;</text>
</a>
</g>
</g>
<!-- Node14&#45;&gt;Node12 -->
<g id="edge13" class="edge">
<title>Node14&#45;&gt;Node12</title>
<path fill="none" stroke="#9a32cd" stroke-dasharray="5,2" d="M512.65,-24C561.3,-24 627.59,-24 686,-24 686,-24 686,-24 1099,-24 1177.17,-24 1266.36,-52.97 1308.5,-68.47"/>
<polygon fill="#9a32cd" stroke="#9a32cd" points="512.54,-20.5 502.54,-24 512.54,-27.5 512.54,-20.5"/>
<text text-anchor="middle" x="881" y="-27" font-family="Helvetica,sans-Serif" font-size="10.00"> all_handles</text>
</g>
<!-- Node15 -->
<g id="node15" class="node">
<title>Node15</title>
<g id="a_node15"><a xlink:title=" ">
<polygon fill="white" stroke="black" points="197,-77.5 197,-96.5 262,-96.5 262,-77.5 197,-77.5"/>
<text text-anchor="middle" x="229.5" y="-84.5" font-family="Helvetica,sans-Serif" font-size="10.00">std::string</text>
</a>
</g>
</g>
<!-- Node15&#45;&gt;Node14 -->
<g id="edge14" class="edge">
<title>Node15&#45;&gt;Node14</title>
<path fill="none" stroke="#9a32cd" stroke-dasharray="5,2" d="M248.29,-70.41C258.99,-61.4 273.35,-50.92 288,-45 317.12,-33.24 351.63,-27.85 380.46,-25.46"/>
<polygon fill="#9a32cd" stroke="#9a32cd" points="245.76,-67.97 240.55,-77.2 250.38,-73.23 245.76,-67.97"/>
<text text-anchor="middle" x="312.5" y="-48" font-family="Helvetica,sans-Serif" font-size="10.00"> keys</text>
</g>
<!-- Node19 -->
<g id="node19" class="node">
<title>Node19</title>
<g id="a_node19"><a xlink:title=" ">
<polygon fill="white" stroke="black" points="1037,-103.5 1037,-144.5 1159,-144.5 1159,-103.5 1037,-103.5"/>
<text text-anchor="start" x="1045" y="-132.5" font-family="Helvetica,sans-Serif" font-size="10.00">std::map&lt; std::string,</text>
<text text-anchor="start" x="1045" y="-121.5" font-family="Helvetica,sans-Serif" font-size="10.00"> std::shared_ptr&lt; kv</text>
<text text-anchor="middle" x="1098" y="-110.5" font-family="Helvetica,sans-Serif" font-size="10.00">::AbstractMap &gt; &gt;</text>
</a>
</g>
</g>
<!-- Node15&#45;&gt;Node19 -->
<g id="edge19" class="edge">
<title>Node15&#45;&gt;Node19</title>
<path fill="none" stroke="#9a32cd" stroke-dasharray="5,2" d="M272.03,-81.65C314.34,-76.66 381.87,-70 440.5,-70 440.5,-70 440.5,-70 882,-70 939.15,-70 1002.34,-88.17 1045.34,-103.43"/>
<polygon fill="#9a32cd" stroke="#9a32cd" points="271.61,-78.17 262.1,-82.84 272.45,-85.12 271.61,-78.17"/>
<text text-anchor="middle" x="687" y="-73" font-family="Helvetica,sans-Serif" font-size="10.00"> keys</text>
</g>
<!-- Node23 -->
<g id="node23" class="node">
<title>Node23</title>
<g id="a_node23"><a xlink:href="structkv_1_1GetName.html" target="_top" xlink:title=" ">
<polygon fill="white" stroke="black" points="401.5,-98.5 401.5,-117.5 481.5,-117.5 481.5,-98.5 401.5,-98.5"/>
<text text-anchor="middle" x="441.5" y="-105.5" font-family="Helvetica,sans-Serif" font-size="10.00">kv::GetName</text>
</a>
</g>
</g>
<!-- Node15&#45;&gt;Node23 -->
<g id="edge24" class="edge">
<title>Node15&#45;&gt;Node23</title>
<path fill="none" stroke="#9a32cd" stroke-dasharray="5,2" d="M272.49,-91.2C309.97,-94.95 364.47,-100.4 401.13,-104.06"/>
<polygon fill="#9a32cd" stroke="#9a32cd" points="272.69,-87.7 262.39,-90.19 272,-94.67 272.69,-87.7"/>
<text text-anchor="middle" x="312.5" y="-100" font-family="Helvetica,sans-Serif" font-size="10.00"> name</text>
</g>
<!-- Node24 -->
<g id="node24" class="node">
<title>Node24</title>
<g id="a_node24"><a xlink:title=" ">
<polygon fill="white" stroke="black" points="1273,-171 1273,-201 1395,-201 1395,-171 1273,-171"/>
<text text-anchor="start" x="1281" y="-189" font-family="Helvetica,sans-Serif" font-size="10.00">std::map&lt; std::string,</text>
<text text-anchor="middle" x="1334" y="-178" font-family="Helvetica,sans-Serif" font-size="10.00"> MapChanges &gt;</text>
</a>
</g>
</g>
<!-- Node15&#45;&gt;Node24 -->
<g id="edge26" class="edge">
<title>Node15&#45;&gt;Node24</title>
<path fill="none" stroke="#9a32cd" stroke-dasharray="5,2" d="M234.75,-106.44C245.83,-152.29 280.11,-267.62 355,-325 385.9,-348.67 401.57,-344 440.5,-344 440.5,-344 440.5,-344 1099,-344 1200.47,-344 1290.84,-240.7 1321.72,-201.15"/>
<polygon fill="#9a32cd" stroke="#9a32cd" points="238.13,-105.54 232.47,-96.59 231.31,-107.12 238.13,-105.54"/>
<text text-anchor="middle" x="784" y="-347" font-family="Helvetica,sans-Serif" font-size="10.00"> keys</text>
</g>
<!-- Node16 -->
<g id="node16" class="node">
<title>Node16</title>
<g id="a_node16"><a xlink:title=" ">
<polygon fill="white" stroke="black" points="0,-72 0,-102 104,-102 104,-72 0,-72"/>
<text text-anchor="start" x="8" y="-90" font-family="Helvetica,sans-Serif" font-size="10.00">std::basic_string&lt;</text>
<text text-anchor="middle" x="52" y="-79" font-family="Helvetica,sans-Serif" font-size="10.00"> Char &gt;</text>
</a>
</g>
</g>
<!-- Node16&#45;&gt;Node15 -->
<g id="edge15" class="edge">
<title>Node16&#45;&gt;Node15</title>
<path fill="none" stroke="midnightblue" d="M114.28,-87C142.11,-87 173.85,-87 196.8,-87"/>
<polygon fill="midnightblue" stroke="midnightblue" points="114.23,-83.5 104.23,-87 114.23,-90.5 114.23,-83.5"/>
</g>
<!-- Node17 -->
<g id="node17" class="node">
<title>Node17</title>
<g id="a_node17"><a xlink:title=" ">
<polygon fill="white" stroke="black" points="189,-0.5 189,-19.5 270,-19.5 270,-0.5 189,-0.5"/>
<text text-anchor="middle" x="229.5" y="-7.5" font-family="Helvetica,sans-Serif" font-size="10.00">std::list&lt; T &gt;</text>
</a>
</g>
</g>
<!-- Node17&#45;&gt;Node14 -->
<g id="edge16" class="edge">
<title>Node17&#45;&gt;Node14</title>
<path fill="none" stroke="#9a32cd" stroke-dasharray="5,2" d="M280.45,-9.28C298.31,-9.34 318.57,-9.76 337,-11 351.09,-11.95 366.21,-13.53 380.41,-15.26"/>
<polygon fill="#9a32cd" stroke="#9a32cd" points="280.24,-5.78 270.24,-9.28 280.24,-12.78 280.24,-5.78"/>
<text text-anchor="middle" x="312.5" y="-14" font-family="Helvetica,sans-Serif" font-size="10.00"> elements</text>
</g>
<!-- Node18 -->
<g id="node18" class="node">
<title>Node18</title>
<g id="a_node18"><a xlink:title=" ">
<polygon fill="white" stroke="black" points="37.5,-0.5 37.5,-19.5 66.5,-19.5 66.5,-0.5 37.5,-0.5"/>
<text text-anchor="middle" x="52" y="-7.5" font-family="Helvetica,sans-Serif" font-size="10.00">T</text>
</a>
</g>
</g>
<!-- Node18&#45;&gt;Node17 -->
<g id="edge17" class="edge">
<title>Node18&#45;&gt;Node17</title>
<path fill="none" stroke="#9a32cd" stroke-dasharray="5,2" d="M77.13,-10C105.96,-10 154.61,-10 188.96,-10"/>
<polygon fill="#9a32cd" stroke="#9a32cd" points="76.77,-6.5 66.77,-10 76.77,-13.5 76.77,-6.5"/>
<text text-anchor="middle" x="146.5" y="-13" font-family="Helvetica,sans-Serif" font-size="10.00"> elements</text>
</g>
<!-- Node19&#45;&gt;Node12 -->
<g id="edge18" class="edge">
<title>Node19&#45;&gt;Node12</title>
<path fill="none" stroke="#9a32cd" stroke-dasharray="5,2" d="M1169.51,-110.14C1206.6,-102.85 1251.13,-94.09 1284.35,-87.56"/>
<polygon fill="#9a32cd" stroke="#9a32cd" points="1168.4,-106.79 1159.26,-112.15 1169.75,-113.66 1168.4,-106.79"/>
<text text-anchor="middle" x="1213.5" y="-110" font-family="Helvetica,sans-Serif" font-size="10.00"> created_maps</text>
</g>
<!-- Node20 -->
<g id="node20" class="node">
<title>Node20</title>
<g id="a_node20"><a xlink:title=" ">
<polygon fill="white" stroke="black" points="824.5,-132 824.5,-162 937.5,-162 937.5,-132 824.5,-132"/>
<text text-anchor="start" x="832.5" y="-150" font-family="Helvetica,sans-Serif" font-size="10.00">std::shared_ptr&lt; kv</text>
<text text-anchor="middle" x="881" y="-139" font-family="Helvetica,sans-Serif" font-size="10.00">::AbstractMap &gt;</text>
</a>
</g>
</g>
<!-- Node20&#45;&gt;Node19 -->
<g id="edge20" class="edge">
<title>Node20&#45;&gt;Node19</title>
<path fill="none" stroke="#9a32cd" stroke-dasharray="5,2" d="M947.85,-139.96C976.16,-136.93 1009.02,-133.41 1036.68,-130.45"/>
<polygon fill="#9a32cd" stroke="#9a32cd" points="947.22,-136.5 937.65,-141.05 947.96,-143.46 947.22,-136.5"/>
<text text-anchor="middle" x="992" y="-140" font-family="Helvetica,sans-Serif" font-size="10.00"> elements</text>
</g>
<!-- Node25 -->
<g id="node25" class="node">
<title>Node25</title>
<g id="a_node25"><a xlink:href="structkv_1_1MapChanges.html" target="_top" xlink:title=" ">
<polygon fill="white" stroke="black" points="1049.5,-176.5 1049.5,-195.5 1146.5,-195.5 1146.5,-176.5 1049.5,-176.5"/>
<text text-anchor="middle" x="1098" y="-183.5" font-family="Helvetica,sans-Serif" font-size="10.00">kv::MapChanges</text>
</a>
</g>
</g>
<!-- Node20&#45;&gt;Node25 -->
<g id="edge28" class="edge">
<title>Node20&#45;&gt;Node25</title>
<path fill="none" stroke="#9a32cd" stroke-dasharray="5,2" d="M947.61,-158.9C980.39,-164.85 1019.34,-171.91 1049.24,-177.34"/>
<polygon fill="#9a32cd" stroke="#9a32cd" points="948.11,-155.44 937.65,-157.09 946.86,-162.32 948.11,-155.44"/>
<text text-anchor="middle" x="992" y="-174" font-family="Helvetica,sans-Serif" font-size="10.00"> map</text>
</g>
<!-- Node21 -->
<g id="node21" class="node">
<title>Node21</title>
<g id="a_node21"><a xlink:href="classkv_1_1AbstractMap.html" target="_top" xlink:title=" ">
<polygon fill="white" stroke="black" points="639.5,-137.5 639.5,-156.5 734.5,-156.5 734.5,-137.5 639.5,-137.5"/>
<text text-anchor="middle" x="687" y="-144.5" font-family="Helvetica,sans-Serif" font-size="10.00">kv::AbstractMap</text>
</a>
</g>
</g>
<!-- Node21&#45;&gt;Node20 -->
<g id="edge21" class="edge">
<title>Node21&#45;&gt;Node20</title>
<path fill="none" stroke="#9a32cd" stroke-dasharray="5,2" d="M745.06,-147C770.11,-147 799.41,-147 824.31,-147"/>
<polygon fill="#9a32cd" stroke="#9a32cd" points="744.97,-143.5 734.97,-147 744.97,-150.5 744.97,-143.5"/>
<text text-anchor="middle" x="784" y="-150" font-family="Helvetica,sans-Serif" font-size="10.00"> ptr</text>
</g>
<!-- Node22 -->
<g id="node22" class="node">
<title>Node22</title>
<g id="a_node22"><a xlink:title=" ">
<polygon fill="white" stroke="black" points="365.5,-137 365.5,-167 517.5,-167 517.5,-137 365.5,-137"/>
<text text-anchor="start" x="373.5" y="-155" font-family="Helvetica,sans-Serif" font-size="10.00">std::enable_shared</text>
<text text-anchor="middle" x="441.5" y="-144" font-family="Helvetica,sans-Serif" font-size="10.00">_from_this&lt; AbstractMap &gt;</text>
</a>
</g>
</g>
<!-- Node22&#45;&gt;Node21 -->
<g id="edge22" class="edge">
<title>Node22&#45;&gt;Node21</title>
<path fill="none" stroke="midnightblue" d="M527.94,-150.25C565.3,-149.48 607.68,-148.61 639.15,-147.96"/>
<polygon fill="midnightblue" stroke="midnightblue" points="527.47,-146.75 517.54,-150.46 527.61,-153.75 527.47,-146.75"/>
</g>
<!-- Node23&#45;&gt;Node21 -->
<g id="edge23" class="edge">
<title>Node23&#45;&gt;Node21</title>
<path fill="none" stroke="midnightblue" d="M491.61,-115.87C534.77,-122.78 597.12,-132.76 639.48,-139.55"/>
<polygon fill="midnightblue" stroke="midnightblue" points="492.05,-112.39 481.62,-114.27 490.94,-119.3 492.05,-112.39"/>
</g>
<!-- Node24&#45;&gt;Node10 -->
<g id="edge25" class="edge">
<title>Node24&#45;&gt;Node10</title>
<path fill="none" stroke="#9a32cd" stroke-dasharray="5,2" d="M1405.5,-179.85C1484.13,-173 1608.1,-162.19 1667.73,-156.99"/>
<polygon fill="#9a32cd" stroke="#9a32cd" points="1404.85,-176.4 1395.19,-180.75 1405.46,-183.37 1404.85,-176.4"/>
<text text-anchor="middle" x="1519" y="-178" font-family="Helvetica,sans-Serif" font-size="10.00"> all_changes</text>
</g>
<!-- Node25&#45;&gt;Node24 -->
<g id="edge27" class="edge">
<title>Node25&#45;&gt;Node24</title>
<path fill="none" stroke="#9a32cd" stroke-dasharray="5,2" d="M1156.79,-186C1192.11,-186 1237.2,-186 1272.93,-186"/>
<polygon fill="#9a32cd" stroke="#9a32cd" points="1156.64,-182.5 1146.64,-186 1156.64,-189.5 1156.64,-182.5"/>
<text text-anchor="middle" x="1213.5" y="-189" font-family="Helvetica,sans-Serif" font-size="10.00"> elements</text>
</g>
<!-- Node26 -->
<g id="node26" class="node">
<title>Node26</title>
<g id="a_node26"><a xlink:title=" ">
<polygon fill="white" stroke="black" points="815,-205 815,-235 947,-235 947,-205 815,-205"/>
<text text-anchor="start" x="823" y="-223" font-family="Helvetica,sans-Serif" font-size="10.00">std::unique_ptr&lt; kv</text>
<text text-anchor="middle" x="881" y="-212" font-family="Helvetica,sans-Serif" font-size="10.00">::untyped::ChangeSet &gt;</text>
</a>
</g>
</g>
<!-- Node26&#45;&gt;Node25 -->
<g id="edge29" class="edge">
<title>Node26&#45;&gt;Node25</title>
<path fill="none" stroke="#9a32cd" stroke-dasharray="5,2" d="M957.29,-208.09C987.83,-203.26 1022.2,-197.83 1049.2,-193.56"/>
<polygon fill="#9a32cd" stroke="#9a32cd" points="956.42,-204.69 947.09,-209.71 957.51,-211.6 956.42,-204.69"/>
<text text-anchor="middle" x="992" y="-209" font-family="Helvetica,sans-Serif" font-size="10.00"> changeset</text>
</g>
<!-- Node27 -->
<g id="node27" class="node">
<title>Node27</title>
<g id="a_node27"><a xlink:href="structkv_1_1untyped_1_1ChangeSet.html" target="_top" xlink:title=" ">
<polygon fill="white" stroke="black" points="621,-224.5 621,-243.5 753,-243.5 753,-224.5 621,-224.5"/>
<text text-anchor="middle" x="687" y="-231.5" font-family="Helvetica,sans-Serif" font-size="10.00">kv::untyped::ChangeSet</text>
</a>
</g>
</g>
<!-- Node27&#45;&gt;Node26 -->
<g id="edge30" class="edge">
<title>Node27&#45;&gt;Node26</title>
<path fill="none" stroke="#9a32cd" stroke-dasharray="5,2" d="M763.42,-228.5C780.38,-227.26 798.24,-225.96 814.74,-224.76"/>
<polygon fill="#9a32cd" stroke="#9a32cd" points="762.72,-225.04 753,-229.26 763.23,-232.02 762.72,-225.04"/>
<text text-anchor="middle" x="784" y="-230" font-family="Helvetica,sans-Serif" font-size="10.00"> ptr</text>
</g>
<!-- Node28 -->
<g id="node28" class="node">
<title>Node28</title>
<g id="a_node28"><a xlink:href="classkv_1_1AbstractChangeSet.html" target="_top" xlink:title=" ">
<polygon fill="white" stroke="black" points="378,-224.5 378,-243.5 505,-243.5 505,-224.5 378,-224.5"/>
<text text-anchor="middle" x="441.5" y="-231.5" font-family="Helvetica,sans-Serif" font-size="10.00">kv::AbstractChangeSet</text>
</a>
</g>
</g>
<!-- Node28&#45;&gt;Node27 -->
<g id="edge31" class="edge">
<title>Node28&#45;&gt;Node27</title>
<path fill="none" stroke="midnightblue" d="M515.41,-234C548.96,-234 588.43,-234 620.96,-234"/>
<polygon fill="midnightblue" stroke="midnightblue" points="515.21,-230.5 505.21,-234 515.21,-237.5 515.21,-230.5"/>
</g>
<!-- Node29 -->
<g id="node29" class="node">
<title>Node29</title>
<g id="a_node29"><a xlink:href="classchamp_1_1Map.html" target="_top" xlink:title=" ">
<polygon fill="white" stroke="black" points="375.5,-186.5 375.5,-205.5 507.5,-205.5 507.5,-186.5 375.5,-186.5"/>
<text text-anchor="middle" x="441.5" y="-193.5" font-family="Helvetica,sans-Serif" font-size="10.00">champ::Map&lt; K, V, H &gt;</text>
</a>
</g>
</g>
<!-- Node29&#45;&gt;Node27 -->
<g id="edge32" class="edge">
<title>Node29&#45;&gt;Node27</title>
<path fill="none" stroke="#9a32cd" stroke-dasharray="5,2" d="M517.93,-198.08C544.94,-199.76 575.5,-202.74 603,-208 622.73,-211.78 644.36,-218.65 660.59,-224.38"/>
<polygon fill="#9a32cd" stroke="#9a32cd" points="517.95,-194.57 507.76,-197.49 517.55,-201.56 517.95,-194.57"/>
<text text-anchor="middle" x="574.5" y="-222" font-family="Helvetica,sans-Serif" font-size="10.00"> committed</text>
<text text-anchor="middle" x="574.5" y="-211" font-family="Helvetica,sans-Serif" font-size="10.00">state</text>
</g>
<!-- Node30 -->
<g id="node30" class="node">
<title>Node30</title>
<g id="a_node30"><a xlink:title=" ">
<polygon fill="white" stroke="black" points="355,-373 355,-403 528,-403 528,-373 355,-373"/>
<text text-anchor="start" x="363" y="-391" font-family="Helvetica,sans-Serif" font-size="10.00">std::map&lt; K, std::tuple</text>
<text text-anchor="middle" x="441.5" y="-380" font-family="Helvetica,sans-Serif" font-size="10.00">&lt; Version, LastReadVersion &gt; &gt;</text>
</a>
</g>
</g>
<!-- Node30&#45;&gt;Node27 -->
<g id="edge33" class="edge">
<title>Node30&#45;&gt;Node27</title>
<path fill="none" stroke="#9a32cd" stroke-dasharray="5,2" d="M475.01,-367.44C528.32,-333.73 632.24,-268 670.97,-243.5"/>
<polygon fill="#9a32cd" stroke="#9a32cd" points="472.87,-364.65 466.29,-372.95 476.61,-370.57 472.87,-364.65"/>
<text text-anchor="middle" x="574.5" y="-323" font-family="Helvetica,sans-Serif" font-size="10.00"> reads</text>
</g>
<!-- Node31 -->
<g id="node31" class="node">
<title>Node31</title>
<g id="a_node31"><a xlink:title=" ">
<polygon fill="white" stroke="black" points="215,-378.5 215,-397.5 244,-397.5 244,-378.5 215,-378.5"/>
<text text-anchor="middle" x="229.5" y="-385.5" font-family="Helvetica,sans-Serif" font-size="10.00">K</text>
</a>
</g>
</g>
<!-- Node31&#45;&gt;Node30 -->
<g id="edge34" class="edge">
<title>Node31&#45;&gt;Node30</title>
<path fill="none" stroke="#9a32cd" stroke-dasharray="5,2" d="M254.41,-388C278.92,-388 318.47,-388 354.82,-388"/>
<polygon fill="#9a32cd" stroke="#9a32cd" points="254.28,-384.5 244.28,-388 254.28,-391.5 254.28,-384.5"/>
<text text-anchor="middle" x="312.5" y="-391" font-family="Helvetica,sans-Serif" font-size="10.00"> keys</text>
</g>
<!-- Node32 -->
<g id="node32" class="node">
<title>Node32</title>
<g id="a_node32"><a xlink:title=" ">
<polygon fill="white" stroke="black" points="371,-263 371,-315 512,-315 512,-263 371,-263"/>
<text text-anchor="start" x="379" y="-303" font-family="Helvetica,sans-Serif" font-size="10.00">std::map&lt; kv::serialisers</text>
<text text-anchor="start" x="379" y="-292" font-family="Helvetica,sans-Serif" font-size="10.00">::SerialisedEntry, std</text>
<text text-anchor="start" x="379" y="-281" font-family="Helvetica,sans-Serif" font-size="10.00">::optional&lt; kv::serialisers</text>
<text text-anchor="middle" x="441.5" y="-270" font-family="Helvetica,sans-Serif" font-size="10.00">::SerialisedEntry &gt; &gt;</text>
</a>
</g>
</g>
<!-- Node32&#45;&gt;Node27 -->
<g id="edge35" class="edge">
<title>Node32&#45;&gt;Node27</title>
<path fill="none" stroke="#9a32cd" stroke-dasharray="5,2" d="M522.14,-271.01C562.67,-261.86 610.29,-251.1 643.72,-243.55"/>
<polygon fill="#9a32cd" stroke="#9a32cd" points="521.26,-267.62 512.28,-273.24 522.8,-274.45 521.26,-267.62"/>
<text text-anchor="middle" x="574.5" y="-267" font-family="Helvetica,sans-Serif" font-size="10.00"> writes</text>
</g>
<!-- Node33 -->
<g id="node33" class="node">
<title>Node33</title>
<g id="a_node33"><a xlink:title=" ">
<polygon fill="white" stroke="black" points="2415,-120 2415,-150 2528,-150 2528,-120 2415,-120"/>
<text text-anchor="start" x="2423" y="-138" font-family="Helvetica,sans-Serif" font-size="10.00">std::unique_ptr&lt; kv</text>
<text text-anchor="middle" x="2471.5" y="-127" font-family="Helvetica,sans-Serif" font-size="10.00">::CommittableTx &gt;</text>
</a>
</g>
</g>
<!-- Node33&#45;&gt;Node1 -->
<g id="edge36" class="edge">
<title>Node33&#45;&gt;Node1</title>
<path fill="none" stroke="#9a32cd" stroke-dasharray="5,2" d="M2538.39,-141.87C2562.63,-144.4 2590.14,-147.27 2614.64,-149.82"/>
<polygon fill="#9a32cd" stroke="#9a32cd" points="2538.52,-138.37 2528.21,-140.81 2537.8,-145.33 2538.52,-138.37"/>
<text text-anchor="middle" x="2571.5" y="-150" font-family="Helvetica,sans-Serif" font-size="10.00"> owned_tx</text>
</g>
<!-- Node34&#45;&gt;Node33 -->
<g id="edge37" class="edge">
<title>Node34&#45;&gt;Node33</title>
<path fill="none" stroke="#9a32cd" stroke-dasharray="5,2" d="M2360.87,-135C2378.62,-135 2397.72,-135 2414.93,-135"/>
<polygon fill="#9a32cd" stroke="#9a32cd" points="2360.6,-131.5 2350.6,-135 2360.6,-138.5 2360.6,-131.5"/>
<text text-anchor="middle" x="2388.5" y="-138" font-family="Helvetica,sans-Serif" font-size="10.00"> ptr</text>
</g>
<!-- Node35 -->
<g id="node35" class="node">
<title>Node35</title>
<g id="a_node35"><a xlink:href="structkv_1_1AbstractChangeContainer.html" target="_top" xlink:title=" ">
<polygon fill="white" stroke="black" points="2009.5,-106.5 2009.5,-125.5 2167.5,-125.5 2167.5,-106.5 2009.5,-106.5"/>
<text text-anchor="middle" x="2088.5" y="-113.5" font-family="Helvetica,sans-Serif" font-size="10.00">kv::AbstractChangeContainer</text>
</a>
</g>
</g>
<!-- Node35&#45;&gt;Node34 -->
<g id="edge39" class="edge">
<title>Node35&#45;&gt;Node34</title>
<path fill="none" stroke="midnightblue" d="M2177.66,-124.17C2199.02,-126.15 2221.24,-128.21 2240.49,-129.99"/>
<polygon fill="midnightblue" stroke="midnightblue" points="2177.87,-120.68 2167.59,-123.24 2177.22,-127.65 2177.87,-120.68"/>
</g>
</g>
</svg>
        <g id="navigator" transform="translate(0 0)" fill="#404254">
                <rect fill="#f2f5e9" fill-opacity="0.5" stroke="#606060" stroke-width=".5" x="0" y="0" width="60" height="60"/>
                <use id="zoomplus" xlink:href="#zoomPlus" x="17" y="9" onmousedown="handleZoom(evt,'in')"/>
                <use id="zoomminus" xlink:href="#zoomMin" x="42" y="9" onmousedown="handleZoom(evt,'out')"/>
                <use id="reset" xlink:href="#resetDef" x="30" y="36" onmousedown="handleReset()"/>
                <g id="arrowUp" xlink:href="#dirArrow" transform="translate(30 24)" onmousedown="handlePan(0,-1)">
                  <use xlink:href="#rim" fill="#404040">
                        <set attributeName="fill" to="#808080" begin="arrowUp.mouseover" end="arrowUp.mouseout"/>
                  </use>
                  <path fill="none" stroke="white" stroke-width="1.5" d="M0,-3.0v7 M-2.5,-0.5L0,-3.0L2.5,-0.5"/>
                </g>
                <g id="arrowRight" xlink:href="#dirArrow" transform="rotate(90) translate(36 -43)" onmousedown="handlePan(1,0)">
                  <use xlink:href="#rim" fill="#404040">
                        <set attributeName="fill" to="#808080" begin="arrowRight.mouseover" end="arrowRight.mouseout"/>
                  </use>
                  <path fill="none" stroke="white" stroke-width="1.5" d="M0,-3.0v7 M-2.5,-0.5L0,-3.0L2.5,-0.5"/>
                </g>
                <g id="arrowDown" xlink:href="#dirArrow" transform="rotate(180) translate(-30 -48)" onmousedown="handlePan(0,1)">
                  <use xlink:href="#rim" fill="#404040">
                        <set attributeName="fill" to="#808080" begin="arrowDown.mouseover" end="arrowDown.mouseout"/>
                  </use>
                  <path fill="none" stroke="white" stroke-width="1.5" d="M0,-3.0v7 M-2.5,-0.5L0,-3.0L2.5,-0.5"/>
                </g>
                <g id="arrowLeft" xlink:href="#dirArrow" transform="rotate(270) translate(-36 17)" onmousedown="handlePan(-1,0)">
                  <use xlink:href="#rim" fill="#404040">
                        <set attributeName="fill" to="#808080" begin="arrowLeft.mouseover" end="arrowLeft.mouseout"/>
                  </use>
                  <path fill="none" stroke="white" stroke-width="1.5" d="M0,-3.0v7 M-2.5,-0.5L0,-3.0L2.5,-0.5"/>
                </g>
        </g>
        <svg viewBox="0 0 15 15" width="100%" height="30px" preserveAspectRatio="xMaxYMin meet">
         <g id="arrow_out" transform="scale(0.3 0.3)">
          <a xlink:href="structccf_1_1EndpointContextImpl__coll__graph_org.svg" target="_base">
           <rect id="button" ry="5" rx="5" y="6" x="6" height="38" width="38"
                fill="#f2f5e9" fill-opacity="0.5" stroke="#606060" stroke-width="1.0"/>
           <path id="arrow"
             d="M 11.500037,31.436501 C 11.940474,20.09759 22.043105,11.32322 32.158766,21.979434 L 37.068811,17.246167 C 37.068811,17.246167 37.088388,32 37.088388,32 L 22.160133,31.978069 C 22.160133,31.978069 26.997745,27.140456 26.997745,27.140456 C 18.528582,18.264221 13.291696,25.230495 11.500037,31.436501 z"
             style="fill:#404040;"/>
          </a>
         </g>
        </svg>
</svg>
