<?xml version="1.0" encoding="UTF-8" standalone="no"?>
<!DOCTYPE svg PUBLIC "-//W3C//DTD SVG 1.1//EN"
 "http://www.w3.org/Graphics/SVG/1.1/DTD/svg11.dtd">
<!-- Generated by graphviz version 2.43.0 (0)
 -->
<!-- Title: StartupConfig Pages: 1 -->
<svg width="2088pt" height="502pt"
 viewBox="0.00 0.00 2088.00 501.50" xmlns="http://www.w3.org/2000/svg" xmlns:xlink="http://www.w3.org/1999/xlink">
<g id="graph0" class="graph" transform="scale(1 1) rotate(0) translate(4 497.5)">
<title>StartupConfig</title>
<polygon fill="white" stroke="transparent" points="-4,4 -4,-497.5 2084,-497.5 2084,4 -4,4"/>
<!-- Node1 -->
<g id="node1" class="node">
<title>Node1</title>
<g id="a_node1"><a xlink:title=" ">
<polygon fill="#bfbfbf" stroke="black" points="1997,-316 1997,-335 2080,-335 2080,-316 1997,-316"/>
<text text-anchor="middle" x="2038.5" y="-323" font-family="Helvetica,sans-Serif" font-size="10.00">StartupConfig</text>
</a>
</g>
</g>
<!-- Node2 -->
<g id="node2" class="node">
<title>Node2</title>
<g id="a_node2"><a xlink:href="structCCFConfig.html" target="_top" xlink:title=" ">
<polygon fill="white" stroke="black" points="1823.5,-178 1823.5,-197 1890.5,-197 1890.5,-178 1823.5,-178"/>
<text text-anchor="middle" x="1857" y="-185" font-family="Helvetica,sans-Serif" font-size="10.00">CCFConfig</text>
</a>
</g>
</g>
<!-- Node2&#45;&gt;Node1 -->
<g id="edge1" class="edge">
<title>Node2&#45;&gt;Node1</title>
<path fill="none" stroke="midnightblue" d="M1878.85,-203.53C1916.52,-232.49 1994.81,-292.68 2025.13,-315.99"/>
<polygon fill="midnightblue" stroke="midnightblue" points="1880.68,-200.52 1870.62,-197.2 1876.42,-206.07 1880.68,-200.52"/>
</g>
<!-- Node3 -->
<g id="node3" class="node">
<title>Node3</title>
<g id="a_node3"><a xlink:href="structconsensus_1_1Configuration.html" target="_top" xlink:title=" ">
<polygon fill="white" stroke="black" points="1517.5,-159 1517.5,-178 1656.5,-178 1656.5,-159 1517.5,-159"/>
<text text-anchor="middle" x="1587" y="-166" font-family="Helvetica,sans-Serif" font-size="10.00">consensus::Configuration</text>
</a>
</g>
</g>
<!-- Node3&#45;&gt;Node2 -->
<g id="edge2" class="edge">
<title>Node3&#45;&gt;Node2</title>
<path fill="none" stroke="#9a32cd" stroke-dasharray="5,2" d="M1666.73,-167.36C1700.19,-167.61 1739.58,-168.87 1775,-172.5 1791.08,-174.15 1808.74,-177.27 1823.46,-180.23"/>
<polygon fill="#9a32cd" stroke="#9a32cd" points="1666.57,-163.86 1656.55,-167.32 1666.54,-170.86 1666.57,-163.86"/>
<text text-anchor="middle" x="1729.5" y="-175.5" font-family="Helvetica,sans-Serif" font-size="10.00"> consensus</text>
</g>
<!-- Node4 -->
<g id="node4" class="node">
<title>Node4</title>
<g id="a_node4"><a xlink:href="structds_1_1TimeString.html" target="_top" xlink:title=" ">
<polygon fill="white" stroke="black" points="1217,-203 1217,-222 1304,-222 1304,-203 1217,-203"/>
<text text-anchor="middle" x="1260.5" y="-210" font-family="Helvetica,sans-Serif" font-size="10.00">ds::TimeString</text>
</a>
</g>
</g>
<!-- Node4&#45;&gt;Node3 -->
<g id="edge3" class="edge">
<title>Node4&#45;&gt;Node3</title>
<path fill="none" stroke="#9a32cd" stroke-dasharray="5,2" d="M1294.69,-199.34C1311.82,-193.13 1333.23,-186.27 1353,-182.5 1407.64,-172.08 1470.66,-168.81 1517.37,-168.02"/>
<polygon fill="#9a32cd" stroke="#9a32cd" points="1293.29,-196.12 1285.14,-202.89 1295.73,-202.68 1293.29,-196.12"/>
<text text-anchor="middle" x="1421.5" y="-196.5" font-family="Helvetica,sans-Serif" font-size="10.00"> election_timeout</text>
<text text-anchor="middle" x="1421.5" y="-185.5" font-family="Helvetica,sans-Serif" font-size="10.00">message_timeout</text>
</g>
<!-- Node14 -->
<g id="node14" class="node">
<title>Node14</title>
<g id="a_node14"><a xlink:href="structCCFConfig_1_1LedgerSignatures.html" target="_top" xlink:title=" ">
<polygon fill="white" stroke="black" points="1508,-235 1508,-254 1666,-254 1666,-235 1508,-235"/>
<text text-anchor="middle" x="1587" y="-242" font-family="Helvetica,sans-Serif" font-size="10.00">CCFConfig::LedgerSignatures</text>
</a>
</g>
</g>
<!-- Node4&#45;&gt;Node14 -->
<g id="edge19" class="edge">
<title>Node4&#45;&gt;Node14</title>
<path fill="none" stroke="#9a32cd" stroke-dasharray="5,2" d="M1314.24,-219.83C1326.92,-221.47 1340.43,-223.14 1353,-224.5 1404.56,-230.09 1462.69,-235.08 1507.98,-238.68"/>
<polygon fill="#9a32cd" stroke="#9a32cd" points="1314.65,-216.35 1304.28,-218.51 1313.73,-223.29 1314.65,-216.35"/>
<text text-anchor="middle" x="1421.5" y="-240.5" font-family="Helvetica,sans-Serif" font-size="10.00"> delay</text>
</g>
<!-- Node15 -->
<g id="node15" class="node">
<title>Node15</title>
<g id="a_node15"><a xlink:href="structCCFConfig_1_1JWT.html" target="_top" xlink:title=" ">
<polygon fill="white" stroke="black" points="1541,-197 1541,-216 1633,-216 1633,-197 1541,-197"/>
<text text-anchor="middle" x="1587" y="-204" font-family="Helvetica,sans-Serif" font-size="10.00">CCFConfig::JWT</text>
</a>
</g>
</g>
<!-- Node4&#45;&gt;Node15 -->
<g id="edge21" class="edge">
<title>Node4&#45;&gt;Node15</title>
<path fill="none" stroke="#9a32cd" stroke-dasharray="5,2" d="M1314.37,-211.52C1377.34,-210.36 1481.42,-208.43 1540.8,-207.34"/>
<polygon fill="#9a32cd" stroke="#9a32cd" points="1314.19,-208.03 1304.26,-211.71 1314.32,-215.02 1314.19,-208.03"/>
<text text-anchor="middle" x="1421.5" y="-214.5" font-family="Helvetica,sans-Serif" font-size="10.00"> key_refresh_interval</text>
</g>
<!-- Node24 -->
<g id="node24" class="node">
<title>Node24</title>
<g id="a_node24"><a xlink:href="structStartupConfig_1_1Join.html" target="_top" xlink:title=" ">
<polygon fill="white" stroke="black" points="1803.5,-283 1803.5,-302 1910.5,-302 1910.5,-283 1803.5,-283"/>
<text text-anchor="middle" x="1857" y="-290" font-family="Helvetica,sans-Serif" font-size="10.00">StartupConfig::Join</text>
</a>
</g>
</g>
<!-- Node4&#45;&gt;Node24 -->
<g id="edge33" class="edge">
<title>Node4&#45;&gt;Node24</title>
<path fill="none" stroke="#9a32cd" stroke-dasharray="5,2" d="M1287.95,-226.88C1305.79,-235.86 1330.16,-246.77 1353,-252.5 1513.38,-292.73 1710.7,-295.38 1803.31,-294"/>
<polygon fill="#9a32cd" stroke="#9a32cd" points="1289.26,-223.61 1278.76,-222.13 1286.04,-229.83 1289.26,-223.61"/>
<text text-anchor="middle" x="1587" y="-294.5" font-family="Helvetica,sans-Serif" font-size="10.00"> retry_timeout</text>
</g>
<!-- Node5 -->
<g id="node5" class="node">
<title>Node5</title>
<g id="a_node5"><a xlink:href="structds_1_1UnitString.html" target="_top" xlink:title=" ">
<polygon fill="white" stroke="black" points="803,-191 803,-210 886,-210 886,-191 803,-191"/>
<text text-anchor="middle" x="844.5" y="-198" font-family="Helvetica,sans-Serif" font-size="10.00">ds::UnitString</text>
</a>
</g>
</g>
<!-- Node5&#45;&gt;Node4 -->
<g id="edge4" class="edge">
<title>Node5&#45;&gt;Node4</title>
<path fill="none" stroke="midnightblue" d="M896.46,-201.98C978.91,-204.37 1140.02,-209.04 1216.82,-211.26"/>
<polygon fill="midnightblue" stroke="midnightblue" points="896.43,-198.47 886.33,-201.68 896.22,-205.47 896.43,-198.47"/>
</g>
<!-- Node6 -->
<g id="node6" class="node">
<title>Node6</title>
<g id="a_node6"><a xlink:title=" ">
<polygon fill="white" stroke="black" points="376,-149 376,-168 441,-168 441,-149 376,-149"/>
<text text-anchor="middle" x="408.5" y="-156" font-family="Helvetica,sans-Serif" font-size="10.00">std::string</text>
</a>
</g>
</g>
<!-- Node6&#45;&gt;Node1 -->
<g id="edge25" class="edge">
<title>Node6&#45;&gt;Node1</title>
<path fill="none" stroke="#9a32cd" stroke-dasharray="5,2" d="M421.44,-176.54C457.71,-228.95 572.48,-377.5 708,-377.5 708,-377.5 708,-377.5 1858,-377.5 1918.35,-377.5 1985.76,-350.05 2018.11,-335.04"/>
<polygon fill="#9a32cd" stroke="#9a32cd" points="424.28,-174.5 415.77,-168.19 418.49,-178.43 424.28,-174.5"/>
<text text-anchor="middle" x="1260.5" y="-380.5" font-family="Helvetica,sans-Serif" font-size="10.00"> startup_host_time</text>
</g>
<!-- Node6&#45;&gt;Node5 -->
<g id="edge5" class="edge">
<title>Node6&#45;&gt;Node5</title>
<path fill="none" stroke="#9a32cd" stroke-dasharray="5,2" d="M451.21,-164.62C470.06,-167.27 492.62,-170.26 513,-172.5 617.32,-183.97 740.61,-193.3 802.99,-197.72"/>
<polygon fill="#9a32cd" stroke="#9a32cd" points="451.55,-161.14 441.16,-163.2 450.57,-168.07 451.55,-161.14"/>
<text text-anchor="middle" x="567" y="-186.5" font-family="Helvetica,sans-Serif" font-size="10.00"> str</text>
</g>
<!-- Node10 -->
<g id="node10" class="node">
<title>Node10</title>
<g id="a_node10"><a xlink:href="structccf_1_1NodeInfoNetwork__v2_1_1NetInterface.html" target="_top" xlink:title="Network interface description.">
<polygon fill="white" stroke="black" points="648,-52.5 648,-82.5 770,-82.5 770,-52.5 648,-52.5"/>
<text text-anchor="start" x="656" y="-70.5" font-family="Helvetica,sans-Serif" font-size="10.00">ccf::NodeInfoNetwork</text>
<text text-anchor="middle" x="709" y="-59.5" font-family="Helvetica,sans-Serif" font-size="10.00">_v2::NetInterface</text>
</a>
</g>
</g>
<!-- Node6&#45;&gt;Node10 -->
<g id="edge10" class="edge">
<title>Node6&#45;&gt;Node10</title>
<path fill="none" stroke="#9a32cd" stroke-dasharray="5,2" d="M426.29,-141.75C445.44,-123.82 478.58,-96.24 513,-83.5 556.17,-67.52 608.27,-63.98 647.75,-64.18"/>
<polygon fill="#9a32cd" stroke="#9a32cd" points="423.76,-139.32 418.97,-148.77 428.61,-144.37 423.76,-139.32"/>
<text text-anchor="middle" x="567" y="-108.5" font-family="Helvetica,sans-Serif" font-size="10.00"> bind_address</text>
<text text-anchor="middle" x="567" y="-97.5" font-family="Helvetica,sans-Serif" font-size="10.00">protocol</text>
<text text-anchor="middle" x="567" y="-86.5" font-family="Helvetica,sans-Serif" font-size="10.00">published_address</text>
</g>
<!-- Node11 -->
<g id="node11" class="node">
<title>Node11</title>
<g id="a_node11"><a xlink:title=" ">
<polygon fill="white" stroke="black" points="920.5,-0.5 920.5,-30.5 1066.5,-30.5 1066.5,-0.5 920.5,-0.5"/>
<text text-anchor="start" x="928.5" y="-18.5" font-family="Helvetica,sans-Serif" font-size="10.00">std::map&lt; RpcInterfaceID,</text>
<text text-anchor="middle" x="993.5" y="-7.5" font-family="Helvetica,sans-Serif" font-size="10.00"> NetInterface &gt;</text>
</a>
</g>
</g>
<!-- Node6&#45;&gt;Node11 -->
<g id="edge12" class="edge">
<title>Node6&#45;&gt;Node11</title>
<path fill="none" stroke="#9a32cd" stroke-dasharray="5,2" d="M423.24,-140.9C441.39,-118.89 475.47,-81.68 513,-61.5 643,8.4 821.67,3.78 920.1,-5.83"/>
<polygon fill="#9a32cd" stroke="#9a32cd" points="420.44,-138.8 416.89,-148.78 425.89,-143.19 420.44,-138.8"/>
<text text-anchor="middle" x="709" y="-19.5" font-family="Helvetica,sans-Serif" font-size="10.00"> keys</text>
</g>
<!-- Node12 -->
<g id="node12" class="node">
<title>Node12</title>
<g id="a_node12"><a xlink:href="structCCFConfig_1_1NodeCertificateInfo.html" target="_top" xlink:title=" ">
<polygon fill="white" stroke="black" points="910,-103 910,-122 1077,-122 1077,-103 910,-103"/>
<text text-anchor="middle" x="993.5" y="-110" font-family="Helvetica,sans-Serif" font-size="10.00">CCFConfig::NodeCertificateInfo</text>
</a>
</g>
</g>
<!-- Node6&#45;&gt;Node12 -->
<g id="edge15" class="edge">
<title>Node6&#45;&gt;Node12</title>
<path fill="none" stroke="#9a32cd" stroke-dasharray="5,2" d="M451.33,-157C535.13,-153.72 729.51,-144.82 892,-127.5 905.77,-126.03 920.55,-124.05 934.41,-122.02"/>
<polygon fill="#9a32cd" stroke="#9a32cd" points="451.05,-153.5 441.19,-157.39 451.32,-160.5 451.05,-153.5"/>
<text text-anchor="middle" x="709" y="-150.5" font-family="Helvetica,sans-Serif" font-size="10.00"> subject_name</text>
</g>
<!-- Node13 -->
<g id="node13" class="node">
<title>Node13</title>
<g id="a_node13"><a xlink:title=" ">
<polygon fill="white" stroke="black" points="639,-103 639,-122 779,-122 779,-103 639,-103"/>
<text text-anchor="middle" x="709" y="-110" font-family="Helvetica,sans-Serif" font-size="10.00">std::vector&lt; std::string &gt;</text>
</a>
</g>
</g>
<!-- Node6&#45;&gt;Node13 -->
<g id="edge17" class="edge">
<title>Node6&#45;&gt;Node13</title>
<path fill="none" stroke="#9a32cd" stroke-dasharray="5,2" d="M451.17,-147.13C469.95,-142.34 492.47,-137.07 513,-133.5 554.43,-126.3 601.27,-121.16 638.66,-117.76"/>
<polygon fill="#9a32cd" stroke="#9a32cd" points="450.25,-143.75 441.44,-149.65 452,-150.53 450.25,-143.75"/>
<text text-anchor="middle" x="567" y="-136.5" font-family="Helvetica,sans-Serif" font-size="10.00"> elements</text>
</g>
<!-- Node19 -->
<g id="node19" class="node">
<title>Node19</title>
<g id="a_node19"><a xlink:href="structStartupConfig_1_1Start.html" target="_top" xlink:title=" ">
<polygon fill="white" stroke="black" points="653,-428 653,-447 765,-447 765,-428 653,-428"/>
<text text-anchor="middle" x="709" y="-435" font-family="Helvetica,sans-Serif" font-size="10.00">StartupConfig::Start</text>
</a>
</g>
</g>
<!-- Node6&#45;&gt;Node19 -->
<g id="edge30" class="edge">
<title>Node6&#45;&gt;Node19</title>
<path fill="none" stroke="#9a32cd" stroke-dasharray="5,2" d="M412.49,-178.27C420.31,-222.93 445.67,-332.13 513,-388.5 534.08,-406.15 603.03,-420.63 652.97,-429.16"/>
<polygon fill="#9a32cd" stroke="#9a32cd" points="415.9,-177.45 410.83,-168.15 408.99,-178.58 415.9,-177.45"/>
<text text-anchor="middle" x="567" y="-425.5" font-family="Helvetica,sans-Serif" font-size="10.00"> constitution</text>
</g>
<!-- Node7 -->
<g id="node7" class="node">
<title>Node7</title>
<g id="a_node7"><a xlink:title=" ">
<polygon fill="white" stroke="black" points="133,-143.5 133,-173.5 237,-173.5 237,-143.5 133,-143.5"/>
<text text-anchor="start" x="141" y="-161.5" font-family="Helvetica,sans-Serif" font-size="10.00">std::basic_string&lt;</text>
<text text-anchor="middle" x="185" y="-150.5" font-family="Helvetica,sans-Serif" font-size="10.00"> Char &gt;</text>
</a>
</g>
</g>
<!-- Node7&#45;&gt;Node6 -->
<g id="edge6" class="edge">
<title>Node7&#45;&gt;Node6</title>
<path fill="none" stroke="midnightblue" d="M247.15,-158.5C288.86,-158.5 342.4,-158.5 375.83,-158.5"/>
<polygon fill="midnightblue" stroke="midnightblue" points="247.09,-155 237.09,-158.5 247.09,-162 247.09,-155"/>
</g>
<!-- Node8 -->
<g id="node8" class="node">
<title>Node8</title>
<g id="a_node8"><a xlink:href="structccf_1_1NodeInfoNetwork.html" target="_top" xlink:title=" ">
<polygon fill="white" stroke="black" points="1526,-45 1526,-64 1648,-64 1648,-45 1526,-45"/>
<text text-anchor="middle" x="1587" y="-52" font-family="Helvetica,sans-Serif" font-size="10.00">ccf::NodeInfoNetwork</text>
</a>
</g>
</g>
<!-- Node8&#45;&gt;Node2 -->
<g id="edge7" class="edge">
<title>Node8&#45;&gt;Node2</title>
<path fill="none" stroke="#9a32cd" stroke-dasharray="5,2" d="M1635.42,-43.13C1677.4,-36.11 1737.65,-33.95 1775,-67.5 1808.92,-97.97 1762.69,-134.44 1793,-168.5 1800.75,-177.21 1812.32,-181.99 1823.44,-184.6"/>
<polygon fill="#9a32cd" stroke="#9a32cd" points="1634.64,-39.72 1625.43,-44.95 1635.9,-46.6 1634.64,-39.72"/>
<text text-anchor="middle" x="1729.5" y="-70.5" font-family="Helvetica,sans-Serif" font-size="10.00"> network</text>
</g>
<!-- Node9 -->
<g id="node9" class="node">
<title>Node9</title>
<g id="a_node9"><a xlink:href="structccf_1_1NodeInfoNetwork__v2.html" target="_top" xlink:title="Node network information.">
<polygon fill="white" stroke="black" points="1191,-45 1191,-64 1330,-64 1330,-45 1191,-45"/>
<text text-anchor="middle" x="1260.5" y="-52" font-family="Helvetica,sans-Serif" font-size="10.00">ccf::NodeInfoNetwork_v2</text>
</a>
</g>
</g>
<!-- Node9&#45;&gt;Node8 -->
<g id="edge8" class="edge">
<title>Node9&#45;&gt;Node8</title>
<path fill="none" stroke="midnightblue" d="M1340.39,-54.5C1397.48,-54.5 1473.48,-54.5 1525.74,-54.5"/>
<polygon fill="midnightblue" stroke="midnightblue" points="1340.32,-51 1330.32,-54.5 1340.32,-58 1340.32,-51"/>
</g>
<!-- Node10&#45;&gt;Node9 -->
<g id="edge9" class="edge">
<title>Node10&#45;&gt;Node9</title>
<path fill="none" stroke="#9a32cd" stroke-dasharray="5,2" d="M780.39,-65.83C886.4,-63.33 1085.77,-58.61 1190.79,-56.13"/>
<polygon fill="#9a32cd" stroke="#9a32cd" points="780.03,-62.34 770.11,-66.08 780.19,-69.34 780.03,-62.34"/>
<text text-anchor="middle" x="993.5" y="-66.5" font-family="Helvetica,sans-Serif" font-size="10.00"> node_to_node_interface</text>
</g>
<!-- Node10&#45;&gt;Node11 -->
<g id="edge13" class="edge">
<title>Node10&#45;&gt;Node11</title>
<path fill="none" stroke="#9a32cd" stroke-dasharray="5,2" d="M767.93,-49.61C777.58,-46.99 787.53,-44.5 797,-42.5 837.39,-33.95 883.07,-27.47 920.12,-23"/>
<polygon fill="#9a32cd" stroke="#9a32cd" points="766.7,-46.32 758.01,-52.38 768.58,-53.06 766.7,-46.32"/>
<text text-anchor="middle" x="844.5" y="-45.5" font-family="Helvetica,sans-Serif" font-size="10.00"> elements</text>
</g>
<!-- Node11&#45;&gt;Node9 -->
<g id="edge11" class="edge">
<title>Node11&#45;&gt;Node9</title>
<path fill="none" stroke="#9a32cd" stroke-dasharray="5,2" d="M1076.58,-27.58C1114.59,-33.17 1159.1,-39.72 1194.7,-44.96"/>
<polygon fill="#9a32cd" stroke="#9a32cd" points="1076.97,-24.1 1066.56,-26.11 1075.95,-31.02 1076.97,-24.1"/>
<text text-anchor="middle" x="1131.5" y="-44.5" font-family="Helvetica,sans-Serif" font-size="10.00"> rpc_interfaces</text>
</g>
<!-- Node12&#45;&gt;Node2 -->
<g id="edge14" class="edge">
<title>Node12&#45;&gt;Node2</title>
<path fill="none" stroke="#9a32cd" stroke-dasharray="5,2" d="M1087.47,-111.92C1118.77,-111.75 1153.9,-111.58 1186,-111.5 1399.33,-110.94 1453.3,-95.01 1666,-111.5 1714.88,-115.29 1736.01,-98.78 1775,-128.5 1790.5,-140.32 1778.35,-155.64 1793,-168.5 1801.41,-175.89 1812.62,-180.4 1823.24,-183.16"/>
<polygon fill="#9a32cd" stroke="#9a32cd" points="1087.43,-108.42 1077.45,-111.97 1087.47,-115.42 1087.43,-108.42"/>
<text text-anchor="middle" x="1421.5" y="-111.5" font-family="Helvetica,sans-Serif" font-size="10.00"> node_certificate</text>
</g>
<!-- Node13&#45;&gt;Node12 -->
<g id="edge16" class="edge">
<title>Node13&#45;&gt;Node12</title>
<path fill="none" stroke="#9a32cd" stroke-dasharray="5,2" d="M789.49,-112.5C827.04,-112.5 871.83,-112.5 909.78,-112.5"/>
<polygon fill="#9a32cd" stroke="#9a32cd" points="789.11,-109 779.11,-112.5 789.11,-116 789.11,-109"/>
<text text-anchor="middle" x="844.5" y="-115.5" font-family="Helvetica,sans-Serif" font-size="10.00"> subject_alt_names</text>
</g>
<!-- Node14&#45;&gt;Node2 -->
<g id="edge18" class="edge">
<title>Node14&#45;&gt;Node2</title>
<path fill="none" stroke="#9a32cd" stroke-dasharray="5,2" d="M1675.54,-233.47C1707.11,-228.7 1742.87,-222.38 1775,-214.5 1794,-209.84 1814.95,-202.81 1830.77,-197.09"/>
<polygon fill="#9a32cd" stroke="#9a32cd" points="1674.82,-230.03 1665.44,-234.96 1675.85,-236.96 1674.82,-230.03"/>
<text text-anchor="middle" x="1729.5" y="-234.5" font-family="Helvetica,sans-Serif" font-size="10.00"> ledger_signatures</text>
</g>
<!-- Node15&#45;&gt;Node2 -->
<g id="edge20" class="edge">
<title>Node15&#45;&gt;Node2</title>
<path fill="none" stroke="#9a32cd" stroke-dasharray="5,2" d="M1643.31,-202.58C1697.6,-198.73 1778.59,-192.99 1823.34,-189.82"/>
<polygon fill="#9a32cd" stroke="#9a32cd" points="1642.89,-199.1 1633.16,-203.3 1643.38,-206.08 1642.89,-199.1"/>
<text text-anchor="middle" x="1729.5" y="-202.5" font-family="Helvetica,sans-Serif" font-size="10.00"> jwt</text>
</g>
<!-- Node16 -->
<g id="node16" class="node">
<title>Node16</title>
<g id="a_node16"><a xlink:href="structCCFConfig_1_1Attestation.html" target="_top" xlink:title=" ">
<polygon fill="white" stroke="black" points="1523.5,-121 1523.5,-140 1650.5,-140 1650.5,-121 1523.5,-121"/>
<text text-anchor="middle" x="1587" y="-128" font-family="Helvetica,sans-Serif" font-size="10.00">CCFConfig::Attestation</text>
</a>
</g>
</g>
<!-- Node16&#45;&gt;Node2 -->
<g id="edge22" class="edge">
<title>Node16&#45;&gt;Node2</title>
<path fill="none" stroke="#9a32cd" stroke-dasharray="5,2" d="M1660.86,-129.94C1696.52,-132 1739.35,-138.06 1775,-153.5 1784.56,-157.64 1783.83,-163.56 1793,-168.5 1802.36,-173.54 1813.23,-177.42 1823.28,-180.33"/>
<polygon fill="#9a32cd" stroke="#9a32cd" points="1660.68,-126.42 1650.52,-129.44 1660.34,-133.42 1660.68,-126.42"/>
<text text-anchor="middle" x="1729.5" y="-156.5" font-family="Helvetica,sans-Serif" font-size="10.00"> attestation</text>
</g>
<!-- Node17 -->
<g id="node17" class="node">
<title>Node17</title>
<g id="a_node17"><a xlink:title=" ">
<polygon fill="white" stroke="black" points="1186,-121.5 1186,-151.5 1335,-151.5 1335,-121.5 1186,-121.5"/>
<text text-anchor="start" x="1194" y="-139.5" font-family="Helvetica,sans-Serif" font-size="10.00">std::vector&lt; Endorsements</text>
<text text-anchor="middle" x="1260.5" y="-128.5" font-family="Helvetica,sans-Serif" font-size="10.00">Server &gt;</text>
</a>
</g>
</g>
<!-- Node17&#45;&gt;Node16 -->
<g id="edge23" class="edge">
<title>Node17&#45;&gt;Node16</title>
<path fill="none" stroke="#9a32cd" stroke-dasharray="5,2" d="M1345.67,-134.65C1348.14,-134.6 1350.59,-134.55 1353,-134.5 1410.64,-133.38 1476.31,-132.26 1523.2,-131.5"/>
<polygon fill="#9a32cd" stroke="#9a32cd" points="1345.34,-131.15 1335.41,-134.85 1345.48,-138.15 1345.34,-131.15"/>
<text text-anchor="middle" x="1421.5" y="-137.5" font-family="Helvetica,sans-Serif" font-size="10.00"> snp_endorsements_servers</text>
</g>
<!-- Node18 -->
<g id="node18" class="node">
<title>Node18</title>
<g id="a_node18"><a xlink:title=" ">
<polygon fill="white" stroke="black" points="1524.5,-330 1524.5,-349 1649.5,-349 1649.5,-330 1524.5,-330"/>
<text text-anchor="middle" x="1587" y="-337" font-family="Helvetica,sans-Serif" font-size="10.00">std::vector&lt; uint8_t &gt;</text>
</a>
</g>
</g>
<!-- Node18&#45;&gt;Node1 -->
<g id="edge24" class="edge">
<title>Node18&#45;&gt;Node1</title>
<path fill="none" stroke="#9a32cd" stroke-dasharray="5,2" d="M1659.71,-337.27C1755.16,-334.29 1920.76,-329.14 1996.98,-326.76"/>
<polygon fill="#9a32cd" stroke="#9a32cd" points="1659.44,-333.77 1649.56,-337.58 1659.66,-340.77 1659.44,-333.77"/>
<text text-anchor="middle" x="1857" y="-335.5" font-family="Helvetica,sans-Serif" font-size="10.00"> startup_snapshot</text>
</g>
<!-- Node18&#45;&gt;Node24 -->
<g id="edge34" class="edge">
<title>Node18&#45;&gt;Node24</title>
<path fill="none" stroke="#9a32cd" stroke-dasharray="5,2" d="M1641.28,-327.91C1655.16,-325.02 1670.12,-322.03 1684,-319.5 1723.85,-312.23 1769.1,-305.17 1803.19,-300.1"/>
<polygon fill="#9a32cd" stroke="#9a32cd" points="1640.47,-324.5 1631.4,-329.98 1641.9,-331.35 1640.47,-324.5"/>
<text text-anchor="middle" x="1729.5" y="-322.5" font-family="Helvetica,sans-Serif" font-size="10.00"> service_cert</text>
</g>
<!-- Node19&#45;&gt;Node1 -->
<g id="edge26" class="edge">
<title>Node19&#45;&gt;Node1</title>
<path fill="none" stroke="#9a32cd" stroke-dasharray="5,2" d="M775.2,-434.97C832.45,-432.96 917.99,-430.5 992.5,-430.5 992.5,-430.5 992.5,-430.5 1858,-430.5 1914.5,-430.5 1931.7,-422.4 1979,-391.5 2002.33,-376.26 2022.06,-349.33 2031.51,-335.04"/>
<polygon fill="#9a32cd" stroke="#9a32cd" points="775.07,-431.47 765.2,-435.32 775.32,-438.47 775.07,-431.47"/>
<text text-anchor="middle" x="1421.5" y="-433.5" font-family="Helvetica,sans-Serif" font-size="10.00"> start</text>
</g>
<!-- Node20 -->
<g id="node20" class="node">
<title>Node20</title>
<g id="a_node20"><a xlink:title=" ">
<polygon fill="white" stroke="black" points="322,-473 322,-492 495,-492 495,-473 322,-473"/>
<text text-anchor="middle" x="408.5" y="-480" font-family="Helvetica,sans-Serif" font-size="10.00">std::vector&lt; ccf::NewMember &gt;</text>
</a>
</g>
</g>
<!-- Node20&#45;&gt;Node19 -->
<g id="edge27" class="edge">
<title>Node20&#45;&gt;Node19</title>
<path fill="none" stroke="#9a32cd" stroke-dasharray="5,2" d="M505.28,-472.63C541.63,-468.39 583.33,-462.91 621,-456.5 636.39,-453.88 653.18,-450.37 667.87,-447.08"/>
<polygon fill="#9a32cd" stroke="#9a32cd" points="504.71,-469.17 495.18,-473.79 505.51,-476.13 504.71,-469.17"/>
<text text-anchor="middle" x="567" y="-473.5" font-family="Helvetica,sans-Serif" font-size="10.00"> members</text>
</g>
<!-- Node21 -->
<g id="node21" class="node">
<title>Node21</title>
<g id="a_node21"><a xlink:href="structccf_1_1NewMember.html" target="_top" xlink:title=" ">
<polygon fill="white" stroke="black" points="136,-473 136,-492 234,-492 234,-473 136,-473"/>
<text text-anchor="middle" x="185" y="-480" font-family="Helvetica,sans-Serif" font-size="10.00">ccf::NewMember</text>
</a>
</g>
</g>
<!-- Node21&#45;&gt;Node20 -->
<g id="edge28" class="edge">
<title>Node21&#45;&gt;Node20</title>
<path fill="none" stroke="#9a32cd" stroke-dasharray="5,2" d="M244.26,-482.5C267.9,-482.5 295.69,-482.5 321.57,-482.5"/>
<polygon fill="#9a32cd" stroke="#9a32cd" points="244.06,-479 234.06,-482.5 244.06,-486 244.06,-479"/>
<text text-anchor="middle" x="279.5" y="-485.5" font-family="Helvetica,sans-Serif" font-size="10.00"> elements</text>
</g>
<!-- Node22 -->
<g id="node22" class="node">
<title>Node22</title>
<g id="a_node22"><a xlink:href="classcrypto_1_1Pem.html" target="_top" xlink:title=" ">
<polygon fill="white" stroke="black" points="0,-473 0,-492 75,-492 75,-473 0,-473"/>
<text text-anchor="middle" x="37.5" y="-480" font-family="Helvetica,sans-Serif" font-size="10.00">crypto::Pem</text>
</a>
</g>
</g>
<!-- Node22&#45;&gt;Node21 -->
<g id="edge29" class="edge">
<title>Node22&#45;&gt;Node21</title>
<path fill="none" stroke="#9a32cd" stroke-dasharray="5,2" d="M85.47,-482.5C101.55,-482.5 119.56,-482.5 135.74,-482.5"/>
<polygon fill="#9a32cd" stroke="#9a32cd" points="85.22,-479 75.22,-482.5 85.22,-486 85.22,-479"/>
<text text-anchor="middle" x="104" y="-485.5" font-family="Helvetica,sans-Serif" font-size="10.00"> cert</text>
</g>
<!-- Node23 -->
<g id="node23" class="node">
<title>Node23</title>
<g id="a_node23"><a xlink:href="structccf_1_1ServiceConfiguration.html" target="_top" xlink:title=" ">
<polygon fill="white" stroke="black" points="340,-435 340,-454 477,-454 477,-435 340,-435"/>
<text text-anchor="middle" x="408.5" y="-442" font-family="Helvetica,sans-Serif" font-size="10.00">ccf::ServiceConfiguration</text>
</a>
</g>
</g>
<!-- Node23&#45;&gt;Node19 -->
<g id="edge31" class="edge">
<title>Node23&#45;&gt;Node19</title>
<path fill="none" stroke="#9a32cd" stroke-dasharray="5,2" d="M487.39,-442.67C539.22,-441.46 606.06,-439.89 652.52,-438.8"/>
<polygon fill="#9a32cd" stroke="#9a32cd" points="487.15,-439.18 477.23,-442.91 487.31,-446.18 487.15,-439.18"/>
<text text-anchor="middle" x="567" y="-444.5" font-family="Helvetica,sans-Serif" font-size="10.00"> service_configuration</text>
</g>
<!-- Node24&#45;&gt;Node1 -->
<g id="edge32" class="edge">
<title>Node24&#45;&gt;Node1</title>
<path fill="none" stroke="#9a32cd" stroke-dasharray="5,2" d="M1920.7,-303.01C1939.47,-306.25 1960.09,-309.92 1979,-313.5 1984.81,-314.6 1990.93,-315.8 1996.94,-317.01"/>
<polygon fill="#9a32cd" stroke="#9a32cd" points="1921.22,-299.55 1910.77,-301.3 1920.04,-306.44 1921.22,-299.55"/>
<text text-anchor="middle" x="1959" y="-316.5" font-family="Helvetica,sans-Serif" font-size="10.00"> join</text>
</g>
<!-- Node25 -->
<g id="node25" class="node">
<title>Node25</title>
<g id="a_node25"><a xlink:href="structStartupConfig_1_1Recover.html" target="_top" xlink:title=" ">
<polygon fill="white" stroke="black" points="1793,-140 1793,-159 1921,-159 1921,-140 1793,-140"/>
<text text-anchor="middle" x="1857" y="-147" font-family="Helvetica,sans-Serif" font-size="10.00">StartupConfig::Recover</text>
</a>
</g>
</g>
<!-- Node25&#45;&gt;Node1 -->
<g id="edge35" class="edge">
<title>Node25&#45;&gt;Node1</title>
<path fill="none" stroke="#9a32cd" stroke-dasharray="5,2" d="M1911.15,-163C1914.59,-164.64 1917.91,-166.46 1921,-168.5 1980.53,-207.7 2020.79,-288.24 2033.33,-315.91"/>
<polygon fill="#9a32cd" stroke="#9a32cd" points="1912.42,-159.74 1901.84,-159.11 1909.72,-166.2 1912.42,-159.74"/>
<text text-anchor="middle" x="1959" y="-226.5" font-family="Helvetica,sans-Serif" font-size="10.00"> recover</text>
</g>
</g>
</svg>
