<?xml version="1.0" encoding="UTF-8" standalone="no"?>
<!DOCTYPE svg PUBLIC "-//W3C//DTD SVG 1.1//EN"
 "http://www.w3.org/Graphics/SVG/1.1/DTD/svg11.dtd">
<!-- Generated by graphviz version 2.43.0 (0)
 -->
<!-- Title: ccf::MemberCOSESign1AuthnIdentity Pages: 1 -->
<svg width="485pt" height="185pt"
 viewBox="0.00 0.00 485.00 185.00" xmlns="http://www.w3.org/2000/svg" xmlns:xlink="http://www.w3.org/1999/xlink">
<g id="graph0" class="graph" transform="scale(1 1) rotate(0) translate(4 181)">
<title>ccf::MemberCOSESign1AuthnIdentity</title>
<polygon fill="white" stroke="transparent" points="-4,4 -4,-181 481,-181 481,4 -4,4"/>
<!-- Node1 -->
<g id="node1" class="node">
<title>Node1</title>
<g id="a_node1"><a xlink:title=" ">
<polygon fill="#bfbfbf" stroke="black" points="319,-76 319,-106 477,-106 477,-76 319,-76"/>
<text text-anchor="start" x="327" y="-94" font-family="Helvetica,sans-Serif" font-size="10.00">ccf::MemberCOSESign1Authn</text>
<text text-anchor="middle" x="398" y="-83" font-family="Helvetica,sans-Serif" font-size="10.00">Identity</text>
</a>
</g>
</g>
<!-- Node2 -->
<g id="node2" class="node">
<title>Node2</title>
<g id="a_node2"><a xlink:href="structccf_1_1AuthnIdentity.html" target="_top" xlink:title=" ">
<polygon fill="white" stroke="black" points="46,-157.5 46,-176.5 148,-176.5 148,-157.5 46,-157.5"/>
<text text-anchor="middle" x="97" y="-164.5" font-family="Helvetica,sans-Serif" font-size="10.00">ccf::AuthnIdentity</text>
</a>
</g>
</g>
<!-- Node2&#45;&gt;Node1 -->
<g id="edge1" class="edge">
<title>Node2&#45;&gt;Node1</title>
<path fill="none" stroke="midnightblue" d="M158.4,-159.82C199.2,-154.12 253.98,-144.78 301,-131 323.18,-124.5 347.18,-114.5 365.63,-106.12"/>
<polygon fill="midnightblue" stroke="midnightblue" points="157.78,-156.38 148.34,-161.2 158.72,-163.31 157.78,-156.38"/>
</g>
<!-- Node3 -->
<g id="node3" class="node">
<title>Node3</title>
<g id="a_node3"><a xlink:href="structccf_1_1EntityId.html" target="_top" xlink:title=" ">
<polygon fill="white" stroke="black" points="0,-119.5 0,-138.5 194,-138.5 194,-119.5 0,-119.5"/>
<text text-anchor="middle" x="97" y="-126.5" font-family="Helvetica,sans-Serif" font-size="10.00">ccf::EntityId&lt; MemberIdFormatter &gt;</text>
</a>
</g>
</g>
<!-- Node3&#45;&gt;Node1 -->
<g id="edge2" class="edge">
<title>Node3&#45;&gt;Node1</title>
<path fill="none" stroke="#9a32cd" stroke-dasharray="5,2" d="M199.27,-118.38C231.79,-114.74 267.95,-110.45 301,-106 306.85,-105.21 312.9,-104.36 318.97,-103.47"/>
<polygon fill="#9a32cd" stroke="#9a32cd" points="198.85,-114.9 189.3,-119.48 199.63,-121.86 198.85,-114.9"/>
<text text-anchor="middle" x="256.5" y="-119" font-family="Helvetica,sans-Serif" font-size="10.00"> member_id</text>
</g>
<!-- Node4 -->
<g id="node4" class="node">
<title>Node4</title>
<g id="a_node4"><a xlink:href="classcrypto_1_1Pem.html" target="_top" xlink:title=" ">
<polygon fill="white" stroke="black" points="59.5,-81.5 59.5,-100.5 134.5,-100.5 134.5,-81.5 59.5,-81.5"/>
<text text-anchor="middle" x="97" y="-88.5" font-family="Helvetica,sans-Serif" font-size="10.00">crypto::Pem</text>
</a>
</g>
</g>
<!-- Node4&#45;&gt;Node1 -->
<g id="edge3" class="edge">
<title>Node4&#45;&gt;Node1</title>
<path fill="none" stroke="#9a32cd" stroke-dasharray="5,2" d="M144.76,-91C191.3,-91 263.57,-91 318.84,-91"/>
<polygon fill="#9a32cd" stroke="#9a32cd" points="144.66,-87.5 134.66,-91 144.66,-94.5 144.66,-87.5"/>
<text text-anchor="middle" x="256.5" y="-94" font-family="Helvetica,sans-Serif" font-size="10.00"> member_cert</text>
</g>
<!-- Node5 -->
<g id="node5" class="node">
<title>Node5</title>
<g id="a_node5"><a xlink:href="structccf_1_1ProtectedHeader.html" target="_top" xlink:title=" ">
<polygon fill="white" stroke="black" points="38,-43.5 38,-62.5 156,-62.5 156,-43.5 38,-43.5"/>
<text text-anchor="middle" x="97" y="-50.5" font-family="Helvetica,sans-Serif" font-size="10.00">ccf::ProtectedHeader</text>
</a>
</g>
</g>
<!-- Node5&#45;&gt;Node1 -->
<g id="edge4" class="edge">
<title>Node5&#45;&gt;Node1</title>
<path fill="none" stroke="#9a32cd" stroke-dasharray="5,2" d="M166.3,-60.01C205.73,-64.24 256.21,-69.97 301,-76 306.85,-76.79 312.9,-77.64 318.97,-78.53"/>
<polygon fill="#9a32cd" stroke="#9a32cd" points="166.59,-56.52 156.27,-58.94 165.84,-63.48 166.59,-56.52"/>
<text text-anchor="middle" x="256.5" y="-79" font-family="Helvetica,sans-Serif" font-size="10.00"> protected_header</text>
</g>
<!-- Node6 -->
<g id="node6" class="node">
<title>Node6</title>
<g id="a_node6"><a xlink:title=" ">
<polygon fill="white" stroke="black" points="24,-0.5 24,-19.5 170,-19.5 170,-0.5 24,-0.5"/>
<text text-anchor="middle" x="97" y="-7.5" font-family="Helvetica,sans-Serif" font-size="10.00">std::span&lt; const uint8_t &gt;</text>
</a>
</g>
</g>
<!-- Node6&#45;&gt;Node1 -->
<g id="edge5" class="edge">
<title>Node6&#45;&gt;Node1</title>
<path fill="none" stroke="#9a32cd" stroke-dasharray="5,2" d="M180.71,-15.14C218.15,-19.15 262.53,-26.29 301,-39 327.82,-47.86 355.94,-64.02 374.76,-75.99"/>
<polygon fill="#9a32cd" stroke="#9a32cd" points="180.65,-11.61 170.35,-14.09 179.94,-18.58 180.65,-11.61"/>
<text text-anchor="middle" x="256.5" y="-53" font-family="Helvetica,sans-Serif" font-size="10.00"> content</text>
<text text-anchor="middle" x="256.5" y="-42" font-family="Helvetica,sans-Serif" font-size="10.00">envelope</text>
</g>
</g>
</svg>
