<?xml version="1.0" encoding="UTF-8" standalone="no"?>
<!DOCTYPE svg PUBLIC "-//W3C//DTD SVG 1.1//EN"
 "http://www.w3.org/Graphics/SVG/1.1/DTD/svg11.dtd">
<!-- Generated by graphviz version 2.43.0 (0)
 -->
<!-- Title: ccf::ODataErrorResponse Pages: 1 -->
<svg width="242pt" height="408pt"
 viewBox="0.00 0.00 242.00 408.00" xmlns="http://www.w3.org/2000/svg" xmlns:xlink="http://www.w3.org/1999/xlink">
<g id="graph0" class="graph" transform="scale(1 1) rotate(0) translate(4 404)">
<title>ccf::ODataErrorResponse</title>
<polygon fill="white" stroke="transparent" points="-4,4 -4,-404 238,-404 238,4 -4,4"/>
<!-- Node1 -->
<g id="node1" class="node">
<title>Node1</title>
<g id="a_node1"><a xlink:title=" ">
<polygon fill="#bfbfbf" stroke="black" points="0,-0.5 0,-19.5 137,-19.5 137,-0.5 0,-0.5"/>
<text text-anchor="middle" x="68.5" y="-7.5" font-family="Helvetica,sans-Serif" font-size="10.00">ccf::ODataErrorResponse</text>
</a>
</g>
</g>
<!-- Node2 -->
<g id="node2" class="node">
<title>Node2</title>
<g id="a_node2"><a xlink:href="structccf_1_1ODataError.html" target="_top" xlink:title=" ">
<polygon fill="white" stroke="black" points="23.5,-67.5 23.5,-86.5 113.5,-86.5 113.5,-67.5 23.5,-67.5"/>
<text text-anchor="middle" x="68.5" y="-74.5" font-family="Helvetica,sans-Serif" font-size="10.00">ccf::ODataError</text>
</a>
</g>
</g>
<!-- Node2&#45;&gt;Node1 -->
<g id="edge1" class="edge">
<title>Node2&#45;&gt;Node1</title>
<path fill="none" stroke="#9a32cd" stroke-dasharray="5,2" d="M68.5,-57.04C68.5,-44.67 68.5,-29.12 68.5,-19.63"/>
<polygon fill="#9a32cd" stroke="#9a32cd" points="65,-57.23 68.5,-67.23 72,-57.23 65,-57.23"/>
<text text-anchor="middle" x="82" y="-41" font-family="Helvetica,sans-Serif" font-size="10.00"> error</text>
</g>
<!-- Node3 -->
<g id="node3" class="node">
<title>Node3</title>
<g id="a_node3"><a xlink:title=" ">
<polygon fill="white" stroke="black" points="36,-312.5 36,-331.5 101,-331.5 101,-312.5 36,-312.5"/>
<text text-anchor="middle" x="68.5" y="-319.5" font-family="Helvetica,sans-Serif" font-size="10.00">std::string</text>
</a>
</g>
</g>
<!-- Node3&#45;&gt;Node2 -->
<g id="edge2" class="edge">
<title>Node3&#45;&gt;Node2</title>
<path fill="none" stroke="#9a32cd" stroke-dasharray="5,2" d="M68.5,-302.17C68.5,-252.85 68.5,-121.34 68.5,-86.54"/>
<polygon fill="#9a32cd" stroke="#9a32cd" points="65,-302.35 68.5,-312.35 72,-302.35 65,-302.35"/>
<text text-anchor="middle" x="91" y="-197" font-family="Helvetica,sans-Serif" font-size="10.00"> code</text>
<text text-anchor="middle" x="91" y="-186" font-family="Helvetica,sans-Serif" font-size="10.00">message</text>
</g>
<!-- Node6 -->
<g id="node6" class="node">
<title>Node6</title>
<g id="a_node6"><a xlink:href="structccf_1_1ODataErrorDetails.html" target="_top" xlink:title=" ">
<polygon fill="white" stroke="black" points="88,-223.5 88,-242.5 213,-242.5 213,-223.5 88,-223.5"/>
<text text-anchor="middle" x="150.5" y="-230.5" font-family="Helvetica,sans-Serif" font-size="10.00">ccf::ODataErrorDetails</text>
</a>
</g>
</g>
<!-- Node3&#45;&gt;Node6 -->
<g id="edge6" class="edge">
<title>Node3&#45;&gt;Node6</title>
<path fill="none" stroke="#9a32cd" stroke-dasharray="5,2" d="M83.82,-304.74C101.16,-286.35 128.76,-257.06 142.37,-242.62"/>
<polygon fill="#9a32cd" stroke="#9a32cd" points="80.97,-302.66 76.66,-312.34 86.07,-307.46 80.97,-302.66"/>
<text text-anchor="middle" x="153.5" y="-286" font-family="Helvetica,sans-Serif" font-size="10.00"> auth_policy</text>
<text text-anchor="middle" x="153.5" y="-275" font-family="Helvetica,sans-Serif" font-size="10.00">code</text>
<text text-anchor="middle" x="153.5" y="-264" font-family="Helvetica,sans-Serif" font-size="10.00">message</text>
</g>
<!-- Node4 -->
<g id="node4" class="node">
<title>Node4</title>
<g id="a_node4"><a xlink:title=" ">
<polygon fill="white" stroke="black" points="16.5,-369.5 16.5,-399.5 120.5,-399.5 120.5,-369.5 16.5,-369.5"/>
<text text-anchor="start" x="24.5" y="-387.5" font-family="Helvetica,sans-Serif" font-size="10.00">std::basic_string&lt;</text>
<text text-anchor="middle" x="68.5" y="-376.5" font-family="Helvetica,sans-Serif" font-size="10.00"> Char &gt;</text>
</a>
</g>
</g>
<!-- Node4&#45;&gt;Node3 -->
<g id="edge3" class="edge">
<title>Node4&#45;&gt;Node3</title>
<path fill="none" stroke="midnightblue" d="M68.5,-359.35C68.5,-349.51 68.5,-338.78 68.5,-331.54"/>
<polygon fill="midnightblue" stroke="midnightblue" points="65,-359.47 68.5,-369.47 72,-359.47 65,-359.47"/>
</g>
<!-- Node5 -->
<g id="node5" class="node">
<title>Node5</title>
<g id="a_node5"><a xlink:title=" ">
<polygon fill="white" stroke="black" points="81,-134.5 81,-164.5 234,-164.5 234,-134.5 81,-134.5"/>
<text text-anchor="start" x="89" y="-152.5" font-family="Helvetica,sans-Serif" font-size="10.00">std::vector&lt; ccf::ODataError</text>
<text text-anchor="middle" x="157.5" y="-141.5" font-family="Helvetica,sans-Serif" font-size="10.00">Details &gt;</text>
</a>
</g>
</g>
<!-- Node5&#45;&gt;Node2 -->
<g id="edge4" class="edge">
<title>Node5&#45;&gt;Node2</title>
<path fill="none" stroke="#9a32cd" stroke-dasharray="5,2" d="M131.47,-127.88C114.29,-114.27 92.65,-97.13 79.73,-86.89"/>
<polygon fill="#9a32cd" stroke="#9a32cd" points="129.48,-130.77 139.49,-134.23 133.82,-125.28 129.48,-130.77"/>
<text text-anchor="middle" x="134" y="-108" font-family="Helvetica,sans-Serif" font-size="10.00"> details</text>
</g>
<!-- Node6&#45;&gt;Node5 -->
<g id="edge5" class="edge">
<title>Node6&#45;&gt;Node5</title>
<path fill="none" stroke="#9a32cd" stroke-dasharray="5,2" d="M152.11,-213.23C153.39,-198.41 155.13,-178.05 156.29,-164.6"/>
<polygon fill="#9a32cd" stroke="#9a32cd" points="148.62,-213.02 151.25,-223.28 155.59,-213.61 148.62,-213.02"/>
<text text-anchor="middle" x="179" y="-191.5" font-family="Helvetica,sans-Serif" font-size="10.00"> elements</text>
</g>
</g>
</svg>
