<?xml version="1.0" encoding="UTF-8" standalone="no"?>
<!DOCTYPE svg PUBLIC "-//W3C//DTD SVG 1.1//EN"
 "http://www.w3.org/Graphics/SVG/1.1/DTD/svg11.dtd">
<!-- Generated by graphviz version 2.43.0 (0)
 -->
<!-- Title: include/ccf/ds/thread_ids.h Pages: 1 -->
<svg width="456pt" height="95pt"
 viewBox="0.00 0.00 455.50 95.00" xmlns="http://www.w3.org/2000/svg" xmlns:xlink="http://www.w3.org/1999/xlink">
<g id="graph0" class="graph" transform="scale(1 1) rotate(0) translate(4 91)">
<title>include/ccf/ds/thread_ids.h</title>
<polygon fill="white" stroke="transparent" points="-4,4 -4,-91 451.5,-91 451.5,4 -4,4"/>
<!-- Node1 -->
<g id="node1" class="node">
<title>Node1</title>
<g id="a_node1"><a xlink:title=" ">
<polygon fill="#bfbfbf" stroke="black" points="208.5,-56.5 208.5,-86.5 326.5,-86.5 326.5,-56.5 208.5,-56.5"/>
<text text-anchor="start" x="216.5" y="-74.5" font-family="Helvetica,sans-Serif" font-size="10.00">include/ccf/ds/thread</text>
<text text-anchor="middle" x="267.5" y="-63.5" font-family="Helvetica,sans-Serif" font-size="10.00">_ids.h</text>
</a>
</g>
</g>
<!-- Node2 -->
<g id="node2" class="node">
<title>Node2</title>
<g id="a_node2"><a xlink:title=" ">
<polygon fill="white" stroke="#bfbfbf" points="0,-0.5 0,-19.5 79,-19.5 79,-0.5 0,-0.5"/>
<text text-anchor="middle" x="39.5" y="-7.5" font-family="Helvetica,sans-Serif" font-size="10.00">fmt/format.h</text>
</a>
</g>
</g>
<!-- Node1&#45;&gt;Node2 -->
<g id="edge1" class="edge">
<title>Node1&#45;&gt;Node2</title>
<path fill="none" stroke="midnightblue" d="M213.76,-56.47C173.56,-45.99 119.35,-31.84 82.12,-22.12"/>
<polygon fill="midnightblue" stroke="midnightblue" points="82.66,-18.64 72.1,-19.51 80.89,-25.42 82.66,-18.64"/>
</g>
<!-- Node3 -->
<g id="node3" class="node">
<title>Node3</title>
<g id="a_node3"><a xlink:title=" ">
<polygon fill="white" stroke="#bfbfbf" points="97.5,-0.5 97.5,-19.5 183.5,-19.5 183.5,-0.5 97.5,-0.5"/>
<text text-anchor="middle" x="140.5" y="-7.5" font-family="Helvetica,sans-Serif" font-size="10.00">fmt/ostream.h</text>
</a>
</g>
</g>
<!-- Node1&#45;&gt;Node3 -->
<g id="edge2" class="edge">
<title>Node1&#45;&gt;Node3</title>
<path fill="none" stroke="midnightblue" d="M237.4,-56.4C216.38,-46.55 188.53,-33.5 168.08,-23.92"/>
<polygon fill="midnightblue" stroke="midnightblue" points="169.52,-20.73 158.98,-19.66 166.55,-27.07 169.52,-20.73"/>
</g>
<!-- Node4 -->
<g id="node4" class="node">
<title>Node4</title>
<g id="a_node4"><a xlink:title=" ">
<polygon fill="white" stroke="#bfbfbf" points="202,-0.5 202,-19.5 263,-19.5 263,-0.5 202,-0.5"/>
<text text-anchor="middle" x="232.5" y="-7.5" font-family="Helvetica,sans-Serif" font-size="10.00">fmt/std.h</text>
</a>
</g>
</g>
<!-- Node1&#45;&gt;Node4 -->
<g id="edge3" class="edge">
<title>Node1&#45;&gt;Node4</title>
<path fill="none" stroke="midnightblue" d="M259.21,-56.4C254.28,-48.02 247.99,-37.33 242.75,-28.42"/>
<polygon fill="midnightblue" stroke="midnightblue" points="245.68,-26.5 237.59,-19.66 239.65,-30.05 245.68,-26.5"/>
</g>
<!-- Node5 -->
<g id="node5" class="node">
<title>Node5</title>
<g id="a_node5"><a xlink:title=" ">
<polygon fill="white" stroke="#bfbfbf" points="281.5,-0.5 281.5,-19.5 325.5,-19.5 325.5,-0.5 281.5,-0.5"/>
<text text-anchor="middle" x="303.5" y="-7.5" font-family="Helvetica,sans-Serif" font-size="10.00">limits</text>
</a>
</g>
</g>
<!-- Node1&#45;&gt;Node5 -->
<g id="edge4" class="edge">
<title>Node1&#45;&gt;Node5</title>
<path fill="none" stroke="midnightblue" d="M276.03,-56.4C281.1,-48.02 287.57,-37.33 292.96,-28.42"/>
<polygon fill="midnightblue" stroke="midnightblue" points="296.08,-30.03 298.26,-19.66 290.09,-26.4 296.08,-30.03"/>
</g>
<!-- Node6 -->
<g id="node6" class="node">
<title>Node6</title>
<g id="a_node6"><a xlink:title=" ">
<polygon fill="white" stroke="#bfbfbf" points="343.5,-0.5 343.5,-19.5 381.5,-19.5 381.5,-0.5 343.5,-0.5"/>
<text text-anchor="middle" x="362.5" y="-7.5" font-family="Helvetica,sans-Serif" font-size="10.00">map</text>
</a>
</g>
</g>
<!-- Node1&#45;&gt;Node6 -->
<g id="edge5" class="edge">
<title>Node1&#45;&gt;Node6</title>
<path fill="none" stroke="midnightblue" d="M290.01,-56.4C305.1,-46.95 324.89,-34.56 339.97,-25.11"/>
<polygon fill="midnightblue" stroke="midnightblue" points="342.06,-27.93 348.68,-19.66 338.34,-22 342.06,-27.93"/>
</g>
<!-- Node7 -->
<g id="node7" class="node">
<title>Node7</title>
<g id="a_node7"><a xlink:title=" ">
<polygon fill="white" stroke="#bfbfbf" points="399.5,-0.5 399.5,-19.5 447.5,-19.5 447.5,-0.5 399.5,-0.5"/>
<text text-anchor="middle" x="423.5" y="-7.5" font-family="Helvetica,sans-Serif" font-size="10.00">thread</text>
</a>
</g>
</g>
<!-- Node1&#45;&gt;Node7 -->
<g id="edge6" class="edge">
<title>Node1&#45;&gt;Node7</title>
<path fill="none" stroke="midnightblue" d="M304.47,-56.4C330.88,-46.33 366.06,-32.91 391.31,-23.28"/>
<polygon fill="midnightblue" stroke="midnightblue" points="392.7,-26.49 400.8,-19.66 390.21,-19.95 392.7,-26.49"/>
</g>
</g>
</svg>
