<?xml version="1.0" encoding="UTF-8" standalone="no"?>
<!DOCTYPE svg PUBLIC "-//W3C//DTD SVG 1.1//EN"
 "http://www.w3.org/Graphics/SVG/1.1/DTD/svg11.dtd">
<!-- Generated by graphviz version 2.43.0 (0)
 -->
<!-- Title: src/kv/untyped_map.h Pages: 1 -->
<!--zoomable 587 -->
<svg id="main" version="1.1" xmlns="http://www.w3.org/2000/svg" xmlns:xlink="http://www.w3.org/1999/xlink" xml:space="preserve" onload="init(evt)">
<style type="text/css"><![CDATA[
.edge:hover path { stroke: red; }
.edge:hover polygon { stroke: red; fill: red; }
]]></style>
<script type="text/javascript"><![CDATA[
var edges = document.getElementsByTagName('g');
if (edges && edges.length) {
  for (var i=0;i<edges.length;i++) {
    if (edges[i].id.substr(0,4)=='edge') {
      edges[i].setAttribute('class','edge');
    }
  }
}
]]></script>
        <defs>
                <circle id="rim" cx="0" cy="0" r="7"/>
                <circle id="rim2" cx="0" cy="0" r="3.5"/>
                <g id="zoomPlus">
                        <use xlink:href="#rim" fill="#404040">
                                <set attributeName="fill" to="#808080" begin="zoomplus.mouseover" end="zoomplus.mouseout"/>
                        </use>
                        <path d="M-4,0h8M0,-4v8" fill="none" stroke="white" stroke-width="1.5" pointer-events="none"/>
                </g>
                <g id="zoomMin">
                        <use xlink:href="#rim" fill="#404040">
                                <set attributeName="fill" to="#808080" begin="zoomminus.mouseover" end="zoomminus.mouseout"/>
                        </use>
                        <path d="M-4,0h8" fill="none" stroke="white" stroke-width="1.5" pointer-events="none"/>
                </g>
                <g id="dirArrow">
                        <path fill="none" stroke="white" stroke-width="1.5" d="M0,-3.0v7 M-2.5,-0.5L0,-3.0L2.5,-0.5"/>
                </g>
               <g id="resetDef">
                       <use xlink:href="#rim2" fill="#404040">
                               <set attributeName="fill" to="#808080" begin="reset.mouseover" end="reset.mouseout"/>
                       </use>
               </g>
        </defs>

<script type="text/javascript">
var viewWidth = 2209;
var viewHeight = 587;
var sectionId = 'dynsection-1';
</script>
<script xlink:href="svgpan.js"/>
<svg id="graph" class="graph">
<g id="viewport">
<title>src/kv/untyped_map.h</title>
<polygon fill="white" stroke="transparent" points="-4,4 -4,-583 2204.54,-583 2204.54,4 -4,4"/>
<!-- Node1 -->
<g id="node1" class="node">
<title>Node1</title>
<g id="a_node1"><a xlink:title=" ">
<polygon fill="#bfbfbf" stroke="black" points="627,-559.5 627,-578.5 752,-578.5 752,-559.5 627,-559.5"/>
<text text-anchor="middle" x="689.5" y="-566.5" font-family="Helvetica,sans-Serif" font-size="10.00">src/kv/untyped_map.h</text>
</a>
</g>
</g>
<!-- Node2 -->
<g id="node2" class="node">
<title>Node2</title>
<g id="a_node2"><a xlink:href="js__generic__base_8cpp.html" target="_top" xlink:title=" ">
<polygon fill="white" stroke="black" points="257.5,-235.5 257.5,-265.5 375.5,-265.5 375.5,-235.5 257.5,-235.5"/>
<text text-anchor="start" x="265.5" y="-253.5" font-family="Helvetica,sans-Serif" font-size="10.00">src/apps/js_generic</text>
<text text-anchor="middle" x="316.5" y="-242.5" font-family="Helvetica,sans-Serif" font-size="10.00">/js_generic_base.cpp</text>
</a>
</g>
</g>
<!-- Node1&#45;&gt;Node2 -->
<g id="edge1" class="edge">
<title>Node1&#45;&gt;Node2</title>
<path fill="none" stroke="midnightblue" d="M616.41,-560.39C507.8,-547.01 316.5,-514.64 316.5,-452.5 316.5,-452.5 316.5,-452.5 316.5,-383.5 316.5,-340.65 316.5,-289.97 316.5,-265.76"/>
<polygon fill="midnightblue" stroke="midnightblue" points="616.3,-563.9 626.65,-561.62 617.14,-556.95 616.3,-563.9"/>
</g>
<!-- Node3 -->
<g id="node3" class="node">
<title>Node3</title>
<g id="a_node3"><a xlink:href="wrap_8cpp.html" target="_top" xlink:title=" ">
<polygon fill="white" stroke="black" points="505,-179.5 505,-198.5 594,-198.5 594,-179.5 505,-179.5"/>
<text text-anchor="middle" x="549.5" y="-186.5" font-family="Helvetica,sans-Serif" font-size="10.00">src/js/wrap.cpp</text>
</a>
</g>
</g>
<!-- Node1&#45;&gt;Node3 -->
<g id="edge2" class="edge">
<title>Node1&#45;&gt;Node3</title>
<path fill="none" stroke="midnightblue" d="M616.84,-566.14C478.63,-560.62 191.5,-538.76 191.5,-452.5 191.5,-452.5 191.5,-452.5 191.5,-316.5 191.5,-272.3 210.92,-258.27 248.5,-235 290.5,-208.99 431.75,-196.97 504.84,-192.38"/>
<polygon fill="midnightblue" stroke="midnightblue" points="616.81,-569.64 626.93,-566.52 617.07,-562.65 616.81,-569.64"/>
</g>
<!-- Node4 -->
<g id="node4" class="node">
<title>Node4</title>
<g id="a_node4"><a xlink:href="store_8h.html" target="_top" xlink:title=" ">
<polygon fill="white" stroke="black" points="1021,-503.5 1021,-522.5 1104,-522.5 1104,-503.5 1021,-503.5"/>
<text text-anchor="middle" x="1062.5" y="-510.5" font-family="Helvetica,sans-Serif" font-size="10.00">src/kv/store.h</text>
</a>
</g>
</g>
<!-- Node1&#45;&gt;Node4 -->
<g id="edge3" class="edge">
<title>Node1&#45;&gt;Node4</title>
<path fill="none" stroke="midnightblue" d="M758.69,-557.98C835.67,-546.84 957.54,-529.2 1021,-520.01"/>
<polygon fill="midnightblue" stroke="midnightblue" points="758,-554.55 748.6,-559.44 759,-561.47 758,-554.55"/>
</g>
<!-- Node36 -->
<g id="node36" class="node">
<title>Node36</title>
<g id="a_node36"><a xlink:href="tx_8cpp.html" target="_top" xlink:title=" ">
<polygon fill="white" stroke="black" points="1122,-503.5 1122,-522.5 1201,-522.5 1201,-503.5 1122,-503.5"/>
<text text-anchor="middle" x="1161.5" y="-510.5" font-family="Helvetica,sans-Serif" font-size="10.00">src/kv/tx.cpp</text>
</a>
</g>
</g>
<!-- Node1&#45;&gt;Node36 -->
<g id="edge75" class="edge">
<title>Node1&#45;&gt;Node36</title>
<path fill="none" stroke="midnightblue" d="M762.22,-562.06C846.85,-554.73 990.69,-541 1113.5,-523 1116.27,-522.59 1119.12,-522.14 1121.99,-521.67"/>
<polygon fill="midnightblue" stroke="midnightblue" points="761.86,-558.57 752.2,-562.92 762.46,-565.55 761.86,-558.57"/>
</g>
<!-- Node5 -->
<g id="node5" class="node">
<title>Node5</title>
<g id="a_node5"><a xlink:href="indexer_8h.html" target="_top" xlink:title=" ">
<polygon fill="white" stroke="black" points="1618,-442 1618,-461 1741,-461 1741,-442 1618,-442"/>
<text text-anchor="middle" x="1679.5" y="-449" font-family="Helvetica,sans-Serif" font-size="10.00">src/indexing/indexer.h</text>
</a>
</g>
</g>
<!-- Node4&#45;&gt;Node5 -->
<g id="edge4" class="edge">
<title>Node4&#45;&gt;Node5</title>
<path fill="none" stroke="midnightblue" d="M1114.25,-503.04C1226.52,-488.88 1495.45,-467.02 1617.56,-457.35"/>
<polygon fill="midnightblue" stroke="midnightblue" points="1113.67,-499.58 1104.2,-504.34 1114.57,-506.53 1113.67,-499.58"/>
</g>
<!-- Node10 -->
<g id="node10" class="node">
<title>Node10</title>
<g id="a_node10"><a xlink:href="visit__each__entry__in__map_8cpp.html" target="_top" xlink:title=" ">
<polygon fill="white" stroke="black" points="1318,-436.5 1318,-466.5 1479,-466.5 1479,-436.5 1318,-436.5"/>
<text text-anchor="start" x="1326" y="-454.5" font-family="Helvetica,sans-Serif" font-size="10.00">src/indexing/strategies</text>
<text text-anchor="middle" x="1398.5" y="-443.5" font-family="Helvetica,sans-Serif" font-size="10.00">/visit_each_entry_in_map.cpp</text>
</a>
</g>
</g>
<!-- Node4&#45;&gt;Node10 -->
<g id="edge10" class="edge">
<title>Node4&#45;&gt;Node10</title>
<path fill="none" stroke="midnightblue" d="M1114.2,-502.85C1168.9,-493.16 1255.92,-477.75 1319.28,-466.53"/>
<polygon fill="midnightblue" stroke="midnightblue" points="1113.27,-499.45 1104.04,-504.64 1114.49,-506.35 1113.27,-499.45"/>
</g>
<!-- Node11 -->
<g id="node11" class="node">
<title>Node11</title>
<g id="a_node11"><a xlink:href="historical__queries_8h.html" target="_top" xlink:title=" ">
<polygon fill="white" stroke="black" points="344.5,-302.5 344.5,-332.5 450.5,-332.5 450.5,-302.5 344.5,-302.5"/>
<text text-anchor="start" x="352.5" y="-320.5" font-family="Helvetica,sans-Serif" font-size="10.00">src/node/historical</text>
<text text-anchor="middle" x="397.5" y="-309.5" font-family="Helvetica,sans-Serif" font-size="10.00">_queries.h</text>
</a>
</g>
</g>
<!-- Node4&#45;&gt;Node11 -->
<g id="edge11" class="edge">
<title>Node4&#45;&gt;Node11</title>
<path fill="none" stroke="midnightblue" d="M1010.79,-505.3C956.53,-497.81 868.95,-484.41 794.5,-467 694.15,-443.53 668.79,-436.74 572.5,-400 518.8,-379.51 458.51,-349.9 424.56,-332.58"/>
<polygon fill="midnightblue" stroke="midnightblue" points="1010.47,-508.79 1020.86,-506.68 1011.42,-501.85 1010.47,-508.79"/>
</g>
<!-- Node13 -->
<g id="node13" class="node">
<title>Node13</title>
<g id="a_node13"><a xlink:href="history_8h.html" target="_top" xlink:title=" ">
<polygon fill="white" stroke="black" points="803.5,-442 803.5,-461 905.5,-461 905.5,-442 803.5,-442"/>
<text text-anchor="middle" x="854.5" y="-449" font-family="Helvetica,sans-Serif" font-size="10.00">src/node/history.h</text>
</a>
</g>
</g>
<!-- Node4&#45;&gt;Node13 -->
<g id="edge15" class="edge">
<title>Node4&#45;&gt;Node13</title>
<path fill="none" stroke="midnightblue" d="M1022.91,-500.68C982.5,-489.11 920.67,-471.43 884.25,-461.01"/>
<polygon fill="midnightblue" stroke="midnightblue" points="1022.12,-504.09 1032.7,-503.48 1024.05,-497.36 1022.12,-504.09"/>
</g>
<!-- Node15 -->
<g id="node15" class="node">
<title>Node15</title>
<g id="a_node15"><a xlink:href="snapshotter_8h.html" target="_top" xlink:title=" ">
<polygon fill="white" stroke="black" points="1174,-241 1174,-260 1301,-260 1301,-241 1174,-241"/>
<text text-anchor="middle" x="1237.5" y="-248" font-family="Helvetica,sans-Serif" font-size="10.00">src/node/snapshotter.h</text>
</a>
</g>
</g>
<!-- Node4&#45;&gt;Node15 -->
<g id="edge39" class="edge">
<title>Node4&#45;&gt;Node15</title>
<path fill="none" stroke="midnightblue" d="M1061.81,-492.91C1061.4,-452.66 1066.04,-358.16 1114.5,-302 1133.73,-279.72 1164.31,-267.1 1190.17,-260.06"/>
<polygon fill="midnightblue" stroke="midnightblue" points="1058.32,-493.24 1062.05,-503.16 1065.32,-493.08 1058.32,-493.24"/>
</g>
<!-- Node18 -->
<g id="node18" class="node">
<title>Node18</title>
<g id="a_node18"><a xlink:href="frontend_8h.html" target="_top" xlink:title=" ">
<polygon fill="white" stroke="black" points="1870,-375 1870,-394 1999,-394 1999,-375 1870,-375"/>
<text text-anchor="middle" x="1934.5" y="-382" font-family="Helvetica,sans-Serif" font-size="10.00">src/node/rpc/frontend.h</text>
</a>
</g>
</g>
<!-- Node4&#45;&gt;Node18 -->
<g id="edge25" class="edge">
<title>Node4&#45;&gt;Node18</title>
<path fill="none" stroke="midnightblue" d="M1114.33,-503.08C1397.07,-471.77 1478.07,-532.72 1750.5,-467 1817.07,-450.94 1889.56,-411.7 1919.89,-394.19"/>
<polygon fill="midnightblue" stroke="midnightblue" points="1113.73,-499.62 1104.19,-504.23 1114.52,-506.58 1113.73,-499.62"/>
</g>
<!-- Node25 -->
<g id="node25" class="node">
<title>Node25</title>
<g id="a_node25"><a xlink:href="network__tables_8h.html" target="_top" xlink:title=" ">
<polygon fill="white" stroke="black" points="1187.5,-436.5 1187.5,-466.5 1299.5,-466.5 1299.5,-436.5 1187.5,-436.5"/>
<text text-anchor="start" x="1195.5" y="-454.5" font-family="Helvetica,sans-Serif" font-size="10.00">src/service/network</text>
<text text-anchor="middle" x="1243.5" y="-443.5" font-family="Helvetica,sans-Serif" font-size="10.00">_tables.h</text>
</a>
</g>
</g>
<!-- Node4&#45;&gt;Node25 -->
<g id="edge40" class="edge">
<title>Node4&#45;&gt;Node25</title>
<path fill="none" stroke="midnightblue" d="M1098.3,-500.23C1127.78,-490.54 1169.64,-476.78 1200.84,-466.52"/>
<polygon fill="midnightblue" stroke="midnightblue" points="1096.84,-497.03 1088.43,-503.48 1099.03,-503.68 1096.84,-497.03"/>
</g>
<!-- Node6 -->
<g id="node6" class="node">
<title>Node6</title>
<g id="a_node6"><a xlink:href="node__state_8h.html" target="_top" xlink:title=" ">
<polygon fill="white" stroke="black" points="1343.5,-179.5 1343.5,-198.5 1467.5,-198.5 1467.5,-179.5 1343.5,-179.5"/>
<text text-anchor="middle" x="1405.5" y="-186.5" font-family="Helvetica,sans-Serif" font-size="10.00">src/node/node_state.h</text>
</a>
</g>
</g>
<!-- Node5&#45;&gt;Node6 -->
<g id="edge5" class="edge">
<title>Node5&#45;&gt;Node6</title>
<path fill="none" stroke="midnightblue" d="M1693.58,-434.1C1725.5,-394.89 1796.69,-294.57 1744.5,-235 1726.58,-214.54 1560.61,-200.31 1467.73,-193.88"/>
<polygon fill="midnightblue" stroke="midnightblue" points="1690.79,-431.98 1687.08,-441.9 1696.17,-436.46 1690.79,-431.98"/>
</g>
<!-- Node7 -->
<g id="node7" class="node">
<title>Node7</title>
<g id="a_node7"><a xlink:href="src_2enclave_2enclave_8h.html" target="_top" xlink:title=" ">
<polygon fill="white" stroke="black" points="1300.5,-56.5 1300.5,-75.5 1422.5,-75.5 1422.5,-56.5 1300.5,-56.5"/>
<text text-anchor="middle" x="1361.5" y="-63.5" font-family="Helvetica,sans-Serif" font-size="10.00">src/enclave/enclave.h</text>
</a>
</g>
</g>
<!-- Node6&#45;&gt;Node7 -->
<g id="edge6" class="edge">
<title>Node6&#45;&gt;Node7</title>
<path fill="none" stroke="midnightblue" d="M1368.79,-175.27C1354.16,-168.18 1338.85,-157.74 1330.5,-143 1317.44,-119.94 1339.72,-90.27 1352.88,-75.77"/>
<polygon fill="midnightblue" stroke="midnightblue" points="1367.66,-178.6 1378.22,-179.45 1370.5,-172.2 1367.66,-178.6"/>
</g>
<!-- Node9 -->
<g id="node9" class="node">
<title>Node9</title>
<g id="a_node9"><a xlink:href="gov__effects_8h.html" target="_top" xlink:title=" ">
<polygon fill="white" stroke="black" points="1339.5,-118 1339.5,-137 1483.5,-137 1483.5,-118 1339.5,-118"/>
<text text-anchor="middle" x="1411.5" y="-125" font-family="Helvetica,sans-Serif" font-size="10.00">src/node/rpc/gov_effects.h</text>
</a>
</g>
</g>
<!-- Node6&#45;&gt;Node9 -->
<g id="edge8" class="edge">
<title>Node6&#45;&gt;Node9</title>
<path fill="none" stroke="midnightblue" d="M1407.38,-169.32C1408.48,-158.5 1409.8,-145.4 1410.64,-137.01"/>
<polygon fill="midnightblue" stroke="midnightblue" points="1403.88,-169.17 1406.36,-179.48 1410.85,-169.88 1403.88,-169.17"/>
</g>
<!-- Node8 -->
<g id="node8" class="node">
<title>Node8</title>
<g id="a_node8"><a xlink:href="enclave_2main_8cpp.html" target="_top" xlink:title=" ">
<polygon fill="white" stroke="black" points="1301.5,-0.5 1301.5,-19.5 1421.5,-19.5 1421.5,-0.5 1301.5,-0.5"/>
<text text-anchor="middle" x="1361.5" y="-7.5" font-family="Helvetica,sans-Serif" font-size="10.00">src/enclave/main.cpp</text>
</a>
</g>
</g>
<!-- Node7&#45;&gt;Node8 -->
<g id="edge7" class="edge">
<title>Node7&#45;&gt;Node8</title>
<path fill="none" stroke="midnightblue" d="M1361.5,-45.8C1361.5,-36.91 1361.5,-26.78 1361.5,-19.75"/>
<polygon fill="midnightblue" stroke="midnightblue" points="1358,-46.08 1361.5,-56.08 1365,-46.08 1358,-46.08"/>
</g>
<!-- Node9&#45;&gt;Node7 -->
<g id="edge9" class="edge">
<title>Node9&#45;&gt;Node7</title>
<path fill="none" stroke="midnightblue" d="M1397.78,-110.17C1388.35,-98.95 1376.22,-84.52 1368.65,-75.51"/>
<polygon fill="midnightblue" stroke="midnightblue" points="1395.22,-112.57 1404.34,-117.98 1400.58,-108.07 1395.22,-112.57"/>
</g>
<!-- Node11&#45;&gt;Node7 -->
<g id="edge12" class="edge">
<title>Node11&#45;&gt;Node7</title>
<path fill="none" stroke="midnightblue" d="M334.29,-307.22C287.72,-298.94 230.06,-285.15 215.5,-266 174.07,-211.52 168.06,-161.34 215.5,-112 253.34,-72.64 1067.88,-67.69 1300.17,-67.08"/>
<polygon fill="midnightblue" stroke="midnightblue" points="333.89,-310.7 344.34,-308.95 335.08,-303.8 333.89,-310.7"/>
</g>
<!-- Node12 -->
<g id="node12" class="node">
<title>Node12</title>
<g id="a_node12"><a xlink:href="historical__transaction__fetcher_8h.html" target="_top" xlink:title=" ">
<polygon fill="white" stroke="black" points="0,-112.5 0,-142.5 125,-142.5 125,-112.5 0,-112.5"/>
<text text-anchor="start" x="8" y="-130.5" font-family="Helvetica,sans-Serif" font-size="10.00">src/indexing/historical</text>
<text text-anchor="middle" x="62.5" y="-119.5" font-family="Helvetica,sans-Serif" font-size="10.00">_transaction_fetcher.h</text>
</a>
</g>
</g>
<!-- Node11&#45;&gt;Node12 -->
<g id="edge13" class="edge">
<title>Node11&#45;&gt;Node12</title>
<path fill="none" stroke="midnightblue" d="M334.06,-310.22C267.99,-302.63 169.94,-288.04 139.5,-266 96.29,-234.71 74.23,-171.31 66.17,-142.87"/>
<polygon fill="midnightblue" stroke="midnightblue" points="334.05,-313.74 344.38,-311.38 334.83,-306.79 334.05,-313.74"/>
</g>
<!-- Node12&#45;&gt;Node7 -->
<g id="edge14" class="edge">
<title>Node12&#45;&gt;Node7</title>
<path fill="none" stroke="midnightblue" d="M135.59,-112.46C136.9,-112.3 138.21,-112.14 139.5,-112 368.15,-86.41 1085.62,-71.89 1300.26,-68.04"/>
<polygon fill="midnightblue" stroke="midnightblue" points="134.85,-109.03 125.42,-113.86 135.8,-115.97 134.85,-109.03"/>
</g>
<!-- Node13&#45;&gt;Node6 -->
<g id="edge17" class="edge">
<title>Node13&#45;&gt;Node6</title>
<path fill="none" stroke="midnightblue" d="M850.55,-431.97C845.04,-400.53 839.24,-336.81 873.5,-302 952.25,-222 1019.65,-308.62 1123.5,-266 1144.96,-257.19 1144.23,-244.26 1165.5,-235 1222.73,-210.08 1293.53,-198.94 1343.35,-193.97"/>
<polygon fill="midnightblue" stroke="midnightblue" points="847.15,-432.82 852.49,-441.97 854.02,-431.49 847.15,-432.82"/>
</g>
<!-- Node13&#45;&gt;Node11 -->
<g id="edge16" class="edge">
<title>Node13&#45;&gt;Node11</title>
<path fill="none" stroke="midnightblue" d="M814.02,-439.21C777.72,-429.05 723.01,-413.67 675.5,-400 594.54,-376.71 500.51,-349.01 445.17,-332.64"/>
<polygon fill="midnightblue" stroke="midnightblue" points="813.18,-442.6 823.75,-441.93 815.06,-435.86 813.18,-442.6"/>
</g>
<!-- Node14 -->
<g id="node14" class="node">
<title>Node14</title>
<g id="a_node14"><a xlink:href="snapshot__serdes_8h.html" target="_top" xlink:title=" ">
<polygon fill="white" stroke="black" points="882.5,-308 882.5,-327 1034.5,-327 1034.5,-308 882.5,-308"/>
<text text-anchor="middle" x="958.5" y="-315" font-family="Helvetica,sans-Serif" font-size="10.00">src/node/snapshot_serdes.h</text>
</a>
</g>
</g>
<!-- Node13&#45;&gt;Node14 -->
<g id="edge18" class="edge">
<title>Node13&#45;&gt;Node14</title>
<path fill="none" stroke="midnightblue" d="M867.77,-433.66C890.2,-405.18 934.86,-348.5 951.79,-327.02"/>
<polygon fill="midnightblue" stroke="midnightblue" points="864.76,-431.82 861.32,-441.84 870.26,-436.15 864.76,-431.82"/>
</g>
<!-- Node16 -->
<g id="node16" class="node">
<title>Node16</title>
<g id="a_node16"><a xlink:href="tx__receipt__impl_8h.html" target="_top" xlink:title=" ">
<polygon fill="white" stroke="black" points="684.5,-369.5 684.5,-399.5 794.5,-399.5 794.5,-369.5 684.5,-369.5"/>
<text text-anchor="start" x="692.5" y="-387.5" font-family="Helvetica,sans-Serif" font-size="10.00">src/node/tx_receipt</text>
<text text-anchor="middle" x="739.5" y="-376.5" font-family="Helvetica,sans-Serif" font-size="10.00">_impl.h</text>
</a>
</g>
</g>
<!-- Node13&#45;&gt;Node16 -->
<g id="edge21" class="edge">
<title>Node13&#45;&gt;Node16</title>
<path fill="none" stroke="midnightblue" d="M830.18,-436.75C810.85,-425.83 783.91,-410.6 764.43,-399.59"/>
<polygon fill="midnightblue" stroke="midnightblue" points="828.56,-439.86 838.99,-441.73 832.01,-433.77 828.56,-439.86"/>
</g>
<!-- Node14&#45;&gt;Node15 -->
<g id="edge19" class="edge">
<title>Node14&#45;&gt;Node15</title>
<path fill="none" stroke="midnightblue" d="M1005.1,-305.64C1060.07,-292.84 1150.33,-271.81 1200.66,-260.08"/>
<polygon fill="midnightblue" stroke="midnightblue" points="1004.21,-302.26 995.26,-307.94 1005.79,-309.08 1004.21,-302.26"/>
</g>
<!-- Node15&#45;&gt;Node6 -->
<g id="edge20" class="edge">
<title>Node15&#45;&gt;Node6</title>
<path fill="none" stroke="midnightblue" d="M1271.15,-237.58C1303.8,-226.02 1352.55,-208.75 1381.47,-198.51"/>
<polygon fill="midnightblue" stroke="midnightblue" points="1269.83,-234.34 1261.57,-240.98 1272.17,-240.94 1269.83,-234.34"/>
</g>
<!-- Node16&#45;&gt;Node11 -->
<g id="edge22" class="edge">
<title>Node16&#45;&gt;Node11</title>
<path fill="none" stroke="midnightblue" d="M674.42,-372.74C617.55,-363.1 532.85,-348.18 459.5,-333 456.58,-332.4 453.58,-331.76 450.56,-331.1"/>
<polygon fill="midnightblue" stroke="midnightblue" points="673.91,-376.2 684.35,-374.41 675.07,-369.3 673.91,-376.2"/>
</g>
<!-- Node16&#45;&gt;Node14 -->
<g id="edge24" class="edge">
<title>Node16&#45;&gt;Node14</title>
<path fill="none" stroke="midnightblue" d="M796.47,-366.59C839.24,-353.9 896.02,-337.04 929.76,-327.03"/>
<polygon fill="midnightblue" stroke="midnightblue" points="795.34,-363.28 786.75,-369.48 797.33,-369.99 795.34,-363.28"/>
</g>
<!-- Node17 -->
<g id="node17" class="node">
<title>Node17</title>
<g id="a_node17"><a xlink:href="historical__queries__adapter_8cpp.html" target="_top" xlink:title=" ">
<polygon fill="white" stroke="black" points="468.5,-302.5 468.5,-332.5 588.5,-332.5 588.5,-302.5 468.5,-302.5"/>
<text text-anchor="start" x="476.5" y="-320.5" font-family="Helvetica,sans-Serif" font-size="10.00">src/node/historical</text>
<text text-anchor="middle" x="528.5" y="-309.5" font-family="Helvetica,sans-Serif" font-size="10.00">_queries_adapter.cpp</text>
</a>
</g>
</g>
<!-- Node16&#45;&gt;Node17 -->
<g id="edge23" class="edge">
<title>Node16&#45;&gt;Node17</title>
<path fill="none" stroke="midnightblue" d="M684.13,-366.44C649.93,-355.91 606.57,-342.55 574.31,-332.61"/>
<polygon fill="midnightblue" stroke="midnightblue" points="683.39,-369.88 693.98,-369.48 685.45,-363.19 683.39,-369.88"/>
</g>
<!-- Node18&#45;&gt;Node6 -->
<g id="edge30" class="edge">
<title>Node18&#45;&gt;Node6</title>
<path fill="none" stroke="midnightblue" d="M2009.24,-384.06C2100.85,-381.97 2238.37,-368.22 2190.5,-302 2134.83,-225.01 2080.65,-253.69 1987.5,-235 1800.94,-197.58 1574.99,-190.84 1467.76,-189.91"/>
<polygon fill="midnightblue" stroke="midnightblue" points="2009.08,-380.56 1999.15,-384.25 2009.21,-387.56 2009.08,-380.56"/>
</g>
<!-- Node19 -->
<g id="node19" class="node">
<title>Node19</title>
<g id="a_node19"><a xlink:href="acme__challenge__frontend_8h.html" target="_top" xlink:title=" ">
<polygon fill="white" stroke="black" points="1867.5,-302.5 1867.5,-332.5 2007.5,-332.5 2007.5,-302.5 1867.5,-302.5"/>
<text text-anchor="start" x="1875.5" y="-320.5" font-family="Helvetica,sans-Serif" font-size="10.00">src/node/acme_challenge</text>
<text text-anchor="middle" x="1937.5" y="-309.5" font-family="Helvetica,sans-Serif" font-size="10.00">_frontend.h</text>
</a>
</g>
</g>
<!-- Node18&#45;&gt;Node19 -->
<g id="edge26" class="edge">
<title>Node18&#45;&gt;Node19</title>
<path fill="none" stroke="midnightblue" d="M1935.37,-364.74C1935.84,-354.49 1936.42,-342 1936.85,-332.59"/>
<polygon fill="midnightblue" stroke="midnightblue" points="1931.87,-364.58 1934.9,-374.73 1938.86,-364.91 1931.87,-364.58"/>
</g>
<!-- Node21 -->
<g id="node21" class="node">
<title>Node21</title>
<g id="a_node21"><a xlink:href="member__frontend_8h.html" target="_top" xlink:title=" ">
<polygon fill="white" stroke="black" points="1471.5,-235.5 1471.5,-265.5 1591.5,-265.5 1591.5,-235.5 1471.5,-235.5"/>
<text text-anchor="start" x="1479.5" y="-253.5" font-family="Helvetica,sans-Serif" font-size="10.00">src/node/rpc/member</text>
<text text-anchor="middle" x="1531.5" y="-242.5" font-family="Helvetica,sans-Serif" font-size="10.00">_frontend.h</text>
</a>
</g>
</g>
<!-- Node18&#45;&gt;Node21 -->
<g id="edge31" class="edge">
<title>Node18&#45;&gt;Node21</title>
<path fill="none" stroke="midnightblue" d="M1907.98,-370.39C1871.76,-352.89 1804.47,-321.81 1744.5,-302 1716.53,-292.76 1644.35,-276.2 1591.74,-264.57"/>
<polygon fill="midnightblue" stroke="midnightblue" points="1906.82,-373.71 1917.34,-374.94 1909.88,-367.42 1906.82,-373.71"/>
</g>
<!-- Node22 -->
<g id="node22" class="node">
<title>Node22</title>
<g id="a_node22"><a xlink:href="node__frontend_8h.html" target="_top" xlink:title=" ">
<polygon fill="white" stroke="black" points="1577.5,-308 1577.5,-327 1735.5,-327 1735.5,-308 1577.5,-308"/>
<text text-anchor="middle" x="1656.5" y="-315" font-family="Helvetica,sans-Serif" font-size="10.00">src/node/rpc/node_frontend.h</text>
</a>
</g>
</g>
<!-- Node18&#45;&gt;Node22 -->
<g id="edge33" class="edge">
<title>Node18&#45;&gt;Node22</title>
<path fill="none" stroke="midnightblue" d="M1888.07,-372.64C1833.3,-359.84 1743.36,-338.81 1693.21,-327.08"/>
<polygon fill="midnightblue" stroke="midnightblue" points="1887.34,-376.07 1897.87,-374.94 1888.93,-369.25 1887.34,-376.07"/>
</g>
<!-- Node24 -->
<g id="node24" class="node">
<title>Node24</title>
<g id="a_node24"><a xlink:href="user__frontend_8h.html" target="_top" xlink:title=" ">
<polygon fill="white" stroke="black" points="2026,-308 2026,-327 2181,-327 2181,-308 2026,-308"/>
<text text-anchor="middle" x="2103.5" y="-315" font-family="Helvetica,sans-Serif" font-size="10.00">src/node/rpc/user_frontend.h</text>
</a>
</g>
</g>
<!-- Node18&#45;&gt;Node24 -->
<g id="edge37" class="edge">
<title>Node18&#45;&gt;Node24</title>
<path fill="none" stroke="midnightblue" d="M1966.3,-371.27C1999.84,-358.37 2051.82,-338.38 2081.23,-327.06"/>
<polygon fill="midnightblue" stroke="midnightblue" points="1965.02,-368.01 1956.94,-374.87 1967.53,-374.55 1965.02,-368.01"/>
</g>
<!-- Node19&#45;&gt;Node7 -->
<g id="edge27" class="edge">
<title>Node19&#45;&gt;Node7</title>
<path fill="none" stroke="midnightblue" d="M1964.69,-295.55C1983.1,-278.78 2001.69,-254.85 1987.5,-235 1921.11,-142.15 1566.8,-90.96 1422.61,-73.71"/>
<polygon fill="midnightblue" stroke="midnightblue" points="1962.19,-293.09 1956.91,-302.27 1966.77,-298.38 1962.19,-293.09"/>
</g>
<!-- Node20 -->
<g id="node20" class="node">
<title>Node20</title>
<g id="a_node20"><a xlink:href="ccf__acme__client_8h.html" target="_top" xlink:title=" ">
<polygon fill="white" stroke="black" points="1829,-241 1829,-260 1978,-260 1978,-241 1829,-241"/>
<text text-anchor="middle" x="1903.5" y="-248" font-family="Helvetica,sans-Serif" font-size="10.00">src/node/ccf_acme_client.h</text>
</a>
</g>
</g>
<!-- Node19&#45;&gt;Node20 -->
<g id="edge28" class="edge">
<title>Node19&#45;&gt;Node20</title>
<path fill="none" stroke="midnightblue" d="M1925.36,-293.29C1919.35,-281.8 1912.46,-268.63 1908.05,-260.19"/>
<polygon fill="midnightblue" stroke="midnightblue" points="1922.39,-295.16 1930.12,-302.4 1928.59,-291.91 1922.39,-295.16"/>
</g>
<!-- Node20&#45;&gt;Node6 -->
<g id="edge29" class="edge">
<title>Node20&#45;&gt;Node6</title>
<path fill="none" stroke="midnightblue" d="M1844.68,-239.36C1834.95,-237.81 1824.95,-236.3 1815.5,-235 1692.59,-218.14 1548.26,-203.49 1467.8,-195.78"/>
<polygon fill="midnightblue" stroke="midnightblue" points="1844.27,-242.84 1854.7,-240.98 1845.38,-235.92 1844.27,-242.84"/>
</g>
<!-- Node21&#45;&gt;Node7 -->
<g id="edge32" class="edge">
<title>Node21&#45;&gt;Node7</title>
<path fill="none" stroke="midnightblue" d="M1531.16,-225.23C1529.43,-194.87 1521.98,-143.13 1492.5,-112 1474.23,-92.71 1447.32,-81.68 1422.64,-75.39"/>
<polygon fill="midnightblue" stroke="midnightblue" points="1527.67,-225.51 1531.57,-235.36 1534.66,-225.23 1527.67,-225.51"/>
</g>
<!-- Node22&#45;&gt;Node7 -->
<g id="edge34" class="edge">
<title>Node22&#45;&gt;Node7</title>
<path fill="none" stroke="midnightblue" d="M1696.01,-304.22C1714.17,-296.37 1733.98,-284.17 1744.5,-266 1751.4,-254.08 1751.57,-246.82 1744.5,-235 1676.86,-121.9 1512.62,-84.72 1422.75,-72.67"/>
<polygon fill="midnightblue" stroke="midnightblue" points="1694.7,-300.97 1686.72,-307.94 1697.3,-307.47 1694.7,-300.97"/>
</g>
<!-- Node23 -->
<g id="node23" class="node">
<title>Node23</title>
<g id="a_node23"><a xlink:href="jwt__key__auto__refresh_8h.html" target="_top" xlink:title=" ">
<polygon fill="white" stroke="black" points="1610,-235.5 1610,-265.5 1735,-265.5 1735,-235.5 1610,-235.5"/>
<text text-anchor="start" x="1618" y="-253.5" font-family="Helvetica,sans-Serif" font-size="10.00">src/node/jwt_key_auto</text>
<text text-anchor="middle" x="1672.5" y="-242.5" font-family="Helvetica,sans-Serif" font-size="10.00">_refresh.h</text>
</a>
</g>
</g>
<!-- Node22&#45;&gt;Node23 -->
<g id="edge35" class="edge">
<title>Node22&#45;&gt;Node23</title>
<path fill="none" stroke="midnightblue" d="M1661.12,-297.74C1663.64,-287.49 1666.72,-275 1669.03,-265.59"/>
<polygon fill="midnightblue" stroke="midnightblue" points="1657.65,-297.19 1658.66,-307.73 1664.45,-298.86 1657.65,-297.19"/>
</g>
<!-- Node23&#45;&gt;Node6 -->
<g id="edge36" class="edge">
<title>Node23&#45;&gt;Node6</title>
<path fill="none" stroke="midnightblue" d="M1600.03,-233.35C1549.62,-222.12 1484.41,-207.59 1443.77,-198.53"/>
<polygon fill="midnightblue" stroke="midnightblue" points="1599.38,-236.79 1609.9,-235.55 1600.9,-229.96 1599.38,-236.79"/>
</g>
<!-- Node24&#45;&gt;Node7 -->
<g id="edge38" class="edge">
<title>Node24&#45;&gt;Node7</title>
<path fill="none" stroke="midnightblue" d="M2088.59,-300.42C2061.69,-272.24 2002.14,-213.64 1941.5,-179 1771.86,-82.1 1533.52,-67.4 1422.66,-66.21"/>
<polygon fill="midnightblue" stroke="midnightblue" points="2086.17,-302.95 2095.58,-307.82 2091.26,-298.15 2086.17,-302.95"/>
</g>
<!-- Node25&#45;&gt;Node20 -->
<g id="edge41" class="edge">
<title>Node25&#45;&gt;Node20</title>
<path fill="none" stroke="midnightblue" d="M1309.2,-436.06C1309.3,-436.04 1309.4,-436.02 1309.5,-436 1404.62,-417.6 1430.18,-422.16 1524.5,-400 1624,-376.62 1649.76,-371.35 1744.5,-333 1799.71,-310.65 1861.54,-275.98 1889.01,-260.04"/>
<polygon fill="midnightblue" stroke="midnightblue" points="1308.75,-432.58 1299.63,-437.97 1310.12,-439.44 1308.75,-432.58"/>
</g>
<!-- Node26 -->
<g id="node26" class="node">
<title>Node26</title>
<g id="a_node26"><a xlink:href="network__state_8h.html" target="_top" xlink:title=" ">
<polygon fill="white" stroke="black" points="1173.5,-375 1173.5,-394 1313.5,-394 1313.5,-375 1173.5,-375"/>
<text text-anchor="middle" x="1243.5" y="-382" font-family="Helvetica,sans-Serif" font-size="10.00">src/node/network_state.h</text>
</a>
</g>
</g>
<!-- Node25&#45;&gt;Node26 -->
<g id="edge42" class="edge">
<title>Node25&#45;&gt;Node26</title>
<path fill="none" stroke="midnightblue" d="M1243.5,-426.25C1243.5,-415.02 1243.5,-402.38 1243.5,-394.19"/>
<polygon fill="midnightblue" stroke="midnightblue" points="1240,-426.4 1243.5,-436.4 1247,-426.4 1240,-426.4"/>
</g>
<!-- Node35 -->
<g id="node35" class="node">
<title>Node35</title>
<g id="a_node35"><a xlink:href="genesis__gen_8h.html" target="_top" xlink:title=" ">
<polygon fill="white" stroke="black" points="1405.5,-369.5 1405.5,-399.5 1515.5,-399.5 1515.5,-369.5 1405.5,-369.5"/>
<text text-anchor="start" x="1413.5" y="-387.5" font-family="Helvetica,sans-Serif" font-size="10.00">src/service/genesis</text>
<text text-anchor="middle" x="1460.5" y="-376.5" font-family="Helvetica,sans-Serif" font-size="10.00">_gen.h</text>
</a>
</g>
</g>
<!-- Node25&#45;&gt;Node35 -->
<g id="edge69" class="edge">
<title>Node25&#45;&gt;Node35</title>
<path fill="none" stroke="midnightblue" d="M1299.99,-433.58C1335.23,-423.02 1380.07,-409.59 1413.39,-399.61"/>
<polygon fill="midnightblue" stroke="midnightblue" points="1298.89,-430.25 1290.32,-436.48 1300.9,-436.96 1298.89,-430.25"/>
</g>
<!-- Node26&#45;&gt;Node6 -->
<g id="edge60" class="edge">
<title>Node26&#45;&gt;Node6</title>
<path fill="none" stroke="midnightblue" d="M1205.56,-371.01C1187.94,-363.08 1168.67,-350.87 1158.5,-333 1151.69,-321.03 1149.95,-312.81 1158.5,-302 1201.56,-247.55 1249.35,-298.88 1310.5,-266 1328.22,-256.47 1327.99,-247.82 1343.5,-235 1359.9,-221.44 1380.02,-207.25 1392.8,-198.52"/>
<polygon fill="midnightblue" stroke="midnightblue" points="1204.54,-374.37 1215.12,-374.98 1207.23,-367.91 1204.54,-374.37"/>
</g>
<!-- Node26&#45;&gt;Node7 -->
<g id="edge43" class="edge">
<title>Node26&#45;&gt;Node7</title>
<path fill="none" stroke="midnightblue" d="M1163.46,-378.34C1063.75,-371.25 888.33,-356.62 739.5,-333 675.7,-322.87 661.28,-312.22 597.5,-302 520.51,-289.67 300.73,-323.89 248.5,-266 239.27,-255.77 239.9,-245.77 248.5,-235 315.04,-151.69 1077.08,-88.32 1300.37,-71.45"/>
<polygon fill="midnightblue" stroke="midnightblue" points="1163.25,-381.83 1173.47,-379.04 1163.74,-374.85 1163.25,-381.83"/>
</g>
<!-- Node26&#45;&gt;Node15 -->
<g id="edge68" class="edge">
<title>Node26&#45;&gt;Node15</title>
<path fill="none" stroke="midnightblue" d="M1181.69,-372.02C1159.85,-364.67 1137.5,-352.64 1124.5,-333 1116.9,-321.51 1117,-313.56 1124.5,-302 1139.05,-279.55 1166.18,-267 1190.2,-260.02"/>
<polygon fill="midnightblue" stroke="midnightblue" points="1180.74,-375.39 1191.32,-374.99 1182.8,-368.7 1180.74,-375.39"/>
</g>
<!-- Node26&#45;&gt;Node19 -->
<g id="edge59" class="edge">
<title>Node26&#45;&gt;Node19</title>
<path fill="none" stroke="midnightblue" d="M1323.82,-375.87C1347.25,-373.65 1372.9,-371.22 1396.5,-369 1565.55,-353.1 1764.34,-334.59 1867.47,-325.01"/>
<polygon fill="midnightblue" stroke="midnightblue" points="1323.2,-372.41 1313.57,-376.84 1323.86,-379.38 1323.2,-372.41"/>
</g>
<!-- Node26&#45;&gt;Node22 -->
<g id="edge61" class="edge">
<title>Node26&#45;&gt;Node22</title>
<path fill="none" stroke="midnightblue" d="M1307.99,-373.35C1388.97,-360.6 1526.47,-338.96 1602.29,-327.03"/>
<polygon fill="midnightblue" stroke="midnightblue" points="1307.25,-369.92 1297.92,-374.94 1308.34,-376.84 1307.25,-369.92"/>
</g>
<!-- Node26&#45;&gt;Node24 -->
<g id="edge62" class="edge">
<title>Node26&#45;&gt;Node24</title>
<path fill="none" stroke="midnightblue" d="M1323.77,-375.34C1347.2,-373.1 1372.86,-370.81 1396.5,-369 1671.72,-347.98 1742.2,-363.73 2016.5,-333 2030.04,-331.48 2044.69,-329.27 2058.02,-327.02"/>
<polygon fill="midnightblue" stroke="midnightblue" points="1323.15,-371.88 1313.53,-376.32 1323.82,-378.85 1323.15,-371.88"/>
</g>
<!-- Node27 -->
<g id="node27" class="node">
<title>Node27</title>
<g id="a_node27"><a xlink:href="wrap_8h.html" target="_top" xlink:title=" ">
<polygon fill="white" stroke="black" points="748.5,-308 748.5,-327 826.5,-327 826.5,-308 748.5,-308"/>
<text text-anchor="middle" x="787.5" y="-315" font-family="Helvetica,sans-Serif" font-size="10.00">src/js/wrap.h</text>
</a>
</g>
</g>
<!-- Node26&#45;&gt;Node27 -->
<g id="edge44" class="edge">
<title>Node26&#45;&gt;Node27</title>
<path fill="none" stroke="midnightblue" d="M1165.94,-373.63C1091,-363.93 974.35,-348.38 873.5,-333 858.23,-330.67 841.48,-327.9 826.85,-325.4"/>
<polygon fill="midnightblue" stroke="midnightblue" points="1165.86,-377.15 1176.23,-374.96 1166.76,-370.21 1165.86,-377.15"/>
</g>
<!-- Node33 -->
<g id="node33" class="node">
<title>Node33</title>
<g id="a_node33"><a xlink:href="secret__broadcast_8h.html" target="_top" xlink:title=" ">
<polygon fill="white" stroke="black" points="1167,-308 1167,-327 1320,-327 1320,-308 1167,-308"/>
<text text-anchor="middle" x="1243.5" y="-315" font-family="Helvetica,sans-Serif" font-size="10.00">src/node/secret_broadcast.h</text>
</a>
</g>
</g>
<!-- Node26&#45;&gt;Node33 -->
<g id="edge63" class="edge">
<title>Node26&#45;&gt;Node33</title>
<path fill="none" stroke="midnightblue" d="M1243.5,-364.54C1243.5,-352.17 1243.5,-336.62 1243.5,-327.13"/>
<polygon fill="midnightblue" stroke="midnightblue" points="1240,-364.73 1243.5,-374.73 1247,-364.73 1240,-364.73"/>
</g>
<!-- Node34 -->
<g id="node34" class="node">
<title>Node34</title>
<g id="a_node34"><a xlink:href="share__manager_8h.html" target="_top" xlink:title=" ">
<polygon fill="white" stroke="black" points="1338,-308 1338,-327 1483,-327 1483,-308 1338,-308"/>
<text text-anchor="middle" x="1410.5" y="-315" font-family="Helvetica,sans-Serif" font-size="10.00">src/node/share_manager.h</text>
</a>
</g>
</g>
<!-- Node26&#45;&gt;Node34 -->
<g id="edge65" class="edge">
<title>Node26&#45;&gt;Node34</title>
<path fill="none" stroke="midnightblue" d="M1275.35,-371.1C1308.51,-358.2 1359.56,-338.33 1388.5,-327.06"/>
<polygon fill="midnightblue" stroke="midnightblue" points="1273.73,-367.98 1265.68,-374.87 1276.26,-374.5 1273.73,-367.98"/>
</g>
<!-- Node27&#45;&gt;Node2 -->
<g id="edge45" class="edge">
<title>Node27&#45;&gt;Node2</title>
<path fill="none" stroke="midnightblue" d="M738.25,-311.37C662.9,-303.27 514.58,-286.33 389.5,-266 385.04,-265.27 380.43,-264.48 375.8,-263.64"/>
<polygon fill="midnightblue" stroke="midnightblue" points="738.07,-314.87 748.39,-312.45 738.82,-307.91 738.07,-314.87"/>
</g>
<!-- Node27&#45;&gt;Node3 -->
<g id="edge56" class="edge">
<title>Node27&#45;&gt;Node3</title>
<path fill="none" stroke="midnightblue" d="M738.24,-311.4C640.99,-301.11 432.79,-277.81 422.5,-266 393.55,-232.77 460.39,-209.96 507.66,-198.51"/>
<polygon fill="midnightblue" stroke="midnightblue" points="738.1,-314.91 748.42,-312.48 738.84,-307.95 738.1,-314.91"/>
</g>
<!-- Node27&#45;&gt;Node6 -->
<g id="edge57" class="edge">
<title>Node27&#45;&gt;Node6</title>
<path fill="none" stroke="midnightblue" d="M826.02,-305.37C830.87,-304.14 835.79,-302.98 840.5,-302 949.53,-279.26 985.25,-307.77 1088.5,-266 1110.34,-257.17 1109.74,-244.04 1131.5,-235 1200.5,-206.34 1286.39,-195.89 1343.43,-192.1"/>
<polygon fill="midnightblue" stroke="midnightblue" points="825,-302.02 816.23,-307.95 826.79,-308.79 825,-302.02"/>
</g>
<!-- Node27&#45;&gt;Node7 -->
<g id="edge46" class="edge">
<title>Node27&#45;&gt;Node7</title>
<path fill="none" stroke="midnightblue" d="M822.08,-304.48C846.04,-295.46 878.24,-281.95 904.5,-266 923.13,-254.68 923.73,-246.07 942.5,-235 1078.87,-154.58 1260.91,-96.47 1331.64,-75.54"/>
<polygon fill="midnightblue" stroke="midnightblue" points="820.85,-301.2 812.68,-307.94 823.27,-307.77 820.85,-301.2"/>
</g>
<!-- Node27&#45;&gt;Node21 -->
<g id="edge58" class="edge">
<title>Node27&#45;&gt;Node21</title>
<path fill="none" stroke="midnightblue" d="M836.65,-307.43C848.67,-305.42 861.52,-303.47 873.5,-302 988.36,-287.94 1331.64,-264.63 1471.35,-255.42"/>
<polygon fill="midnightblue" stroke="midnightblue" points="836.05,-303.98 826.78,-309.11 837.22,-310.88 836.05,-303.98"/>
</g>
<!-- Node28 -->
<g id="node28" class="node">
<title>Node28</title>
<g id="a_node28"><a xlink:href="consensus_8cpp.html" target="_top" xlink:title=" ">
<polygon fill="white" stroke="black" points="431.5,-241 431.5,-260 547.5,-260 547.5,-241 431.5,-241"/>
<text text-anchor="middle" x="489.5" y="-248" font-family="Helvetica,sans-Serif" font-size="10.00">src/js/consensus.cpp</text>
</a>
</g>
</g>
<!-- Node27&#45;&gt;Node28 -->
<g id="edge47" class="edge">
<title>Node27&#45;&gt;Node28</title>
<path fill="none" stroke="midnightblue" d="M738.46,-305.8C679.82,-293.01 582.83,-271.86 528.85,-260.08"/>
<polygon fill="midnightblue" stroke="midnightblue" points="737.72,-309.22 748.24,-307.94 739.21,-302.38 737.72,-309.22"/>
</g>
<!-- Node29 -->
<g id="node29" class="node">
<title>Node29</title>
<g id="a_node29"><a xlink:href="conv_8cpp.html" target="_top" xlink:title=" ">
<polygon fill="white" stroke="black" points="565.5,-241 565.5,-260 653.5,-260 653.5,-241 565.5,-241"/>
<text text-anchor="middle" x="609.5" y="-248" font-family="Helvetica,sans-Serif" font-size="10.00">src/js/conv.cpp</text>
</a>
</g>
</g>
<!-- Node27&#45;&gt;Node29 -->
<g id="edge49" class="edge">
<title>Node27&#45;&gt;Node29</title>
<path fill="none" stroke="midnightblue" d="M754.46,-304.44C719.15,-291.54 664.06,-271.42 632.95,-260.06"/>
<polygon fill="midnightblue" stroke="midnightblue" points="753.27,-307.73 763.86,-307.87 755.67,-301.15 753.27,-307.73"/>
</g>
<!-- Node30 -->
<g id="node30" class="node">
<title>Node30</title>
<g id="a_node30"><a xlink:href="crypto_8cpp.html" target="_top" xlink:title=" ">
<polygon fill="white" stroke="black" points="671.5,-241 671.5,-260 767.5,-260 767.5,-241 671.5,-241"/>
<text text-anchor="middle" x="719.5" y="-248" font-family="Helvetica,sans-Serif" font-size="10.00">src/js/crypto.cpp</text>
</a>
</g>
</g>
<!-- Node27&#45;&gt;Node30 -->
<g id="edge51" class="edge">
<title>Node27&#45;&gt;Node30</title>
<path fill="none" stroke="midnightblue" d="M770.76,-300.5C757.42,-287.75 739.27,-270.39 728.53,-260.13"/>
<polygon fill="midnightblue" stroke="midnightblue" points="768.68,-303.35 778.33,-307.73 773.52,-298.29 768.68,-303.35"/>
</g>
<!-- Node31 -->
<g id="node31" class="node">
<title>Node31</title>
<g id="a_node31"><a xlink:href="historical_8cpp.html" target="_top" xlink:title=" ">
<polygon fill="white" stroke="black" points="785.5,-241 785.5,-260 895.5,-260 895.5,-241 785.5,-241"/>
<text text-anchor="middle" x="840.5" y="-248" font-family="Helvetica,sans-Serif" font-size="10.00">src/js/historical.cpp</text>
</a>
</g>
</g>
<!-- Node27&#45;&gt;Node31 -->
<g id="edge53" class="edge">
<title>Node27&#45;&gt;Node31</title>
<path fill="none" stroke="midnightblue" d="M801.14,-299.77C811.47,-287.1 825.25,-270.2 833.47,-260.13"/>
<polygon fill="midnightblue" stroke="midnightblue" points="798.25,-297.77 794.65,-307.73 803.68,-302.2 798.25,-297.77"/>
</g>
<!-- Node32 -->
<g id="node32" class="node">
<title>Node32</title>
<g id="a_node32"><a xlink:href="openenclave_8cpp.html" target="_top" xlink:title=" ">
<polygon fill="white" stroke="black" points="951.5,-241 951.5,-260 1079.5,-260 1079.5,-241 951.5,-241"/>
<text text-anchor="middle" x="1015.5" y="-248" font-family="Helvetica,sans-Serif" font-size="10.00">src/js/openenclave.cpp</text>
</a>
</g>
</g>
<!-- Node27&#45;&gt;Node32 -->
<g id="edge55" class="edge">
<title>Node27&#45;&gt;Node32</title>
<path fill="none" stroke="midnightblue" d="M827.52,-305.09C872.62,-292.23 944.93,-271.62 985.46,-260.06"/>
<polygon fill="midnightblue" stroke="midnightblue" points="826.43,-301.76 817.78,-307.87 828.35,-308.49 826.43,-301.76"/>
</g>
<!-- Node28&#45;&gt;Node3 -->
<g id="edge48" class="edge">
<title>Node28&#45;&gt;Node3</title>
<path fill="none" stroke="midnightblue" d="M505.31,-233.82C516.71,-222.52 531.66,-207.69 540.92,-198.51"/>
<polygon fill="midnightblue" stroke="midnightblue" points="502.73,-231.45 498.1,-240.98 507.66,-236.42 502.73,-231.45"/>
</g>
<!-- Node29&#45;&gt;Node3 -->
<g id="edge50" class="edge">
<title>Node29&#45;&gt;Node3</title>
<path fill="none" stroke="midnightblue" d="M593.69,-233.82C582.29,-222.52 567.34,-207.69 558.08,-198.51"/>
<polygon fill="midnightblue" stroke="midnightblue" points="591.34,-236.42 600.9,-240.98 596.27,-231.45 591.34,-236.42"/>
</g>
<!-- Node30&#45;&gt;Node3 -->
<g id="edge52" class="edge">
<title>Node30&#45;&gt;Node3</title>
<path fill="none" stroke="midnightblue" d="M685.45,-237.58C652.41,-226.02 603.08,-208.75 573.81,-198.51"/>
<polygon fill="midnightblue" stroke="midnightblue" points="684.55,-240.98 695.14,-240.98 686.86,-234.37 684.55,-240.98"/>
</g>
<!-- Node31&#45;&gt;Node3 -->
<g id="edge54" class="edge">
<title>Node31&#45;&gt;Node3</title>
<path fill="none" stroke="midnightblue" d="M793.48,-238.69C787.76,-237.43 782,-236.17 776.5,-235 713.42,-221.61 640.21,-207.32 594.37,-198.52"/>
<polygon fill="midnightblue" stroke="midnightblue" points="793.13,-242.2 803.65,-240.97 794.66,-235.37 793.13,-242.2"/>
</g>
<!-- Node33&#45;&gt;Node6 -->
<g id="edge64" class="edge">
<title>Node33&#45;&gt;Node6</title>
<path fill="none" stroke="midnightblue" d="M1276.24,-304.11C1296.82,-295.36 1323.22,-282.3 1343.5,-266 1368.72,-245.73 1390.65,-213.68 1400.29,-198.51"/>
<polygon fill="midnightblue" stroke="midnightblue" points="1274.85,-300.89 1266.94,-307.94 1277.52,-307.37 1274.85,-300.89"/>
</g>
<!-- Node34&#45;&gt;Node6 -->
<g id="edge66" class="edge">
<title>Node34&#45;&gt;Node6</title>
<path fill="none" stroke="midnightblue" d="M1409.76,-297.81C1408.67,-270.08 1406.65,-219.13 1405.85,-198.76"/>
<polygon fill="midnightblue" stroke="midnightblue" points="1406.26,-297.95 1410.16,-307.81 1413.26,-297.67 1406.26,-297.95"/>
</g>
<!-- Node34&#45;&gt;Node21 -->
<g id="edge67" class="edge">
<title>Node34&#45;&gt;Node21</title>
<path fill="none" stroke="midnightblue" d="M1435.81,-302.9C1456.17,-291.97 1484.68,-276.65 1505.27,-265.59"/>
<polygon fill="midnightblue" stroke="midnightblue" points="1433.97,-299.92 1426.82,-307.73 1437.28,-306.08 1433.97,-299.92"/>
</g>
<!-- Node35&#45;&gt;Node6 -->
<g id="edge70" class="edge">
<title>Node35&#45;&gt;Node6</title>
<path fill="none" stroke="midnightblue" d="M1478.71,-360.8C1484.27,-352.54 1489.65,-342.81 1492.5,-333 1496.34,-319.77 1497.19,-314.95 1492.5,-302 1485.41,-282.42 1475.42,-282.34 1462.5,-266 1443.47,-241.94 1422,-212.72 1411.69,-198.54"/>
<polygon fill="midnightblue" stroke="midnightblue" points="1475.73,-358.96 1472.74,-369.12 1481.41,-363.05 1475.73,-358.96"/>
</g>
<!-- Node35&#45;&gt;Node21 -->
<g id="edge71" class="edge">
<title>Node35&#45;&gt;Node21</title>
<path fill="none" stroke="midnightblue" d="M1496.65,-363.65C1507.81,-355.64 1518.88,-345.35 1525.5,-333 1536.89,-311.74 1535.8,-282.78 1533.78,-265.72"/>
<polygon fill="midnightblue" stroke="midnightblue" points="1494.54,-360.85 1488.18,-369.32 1498.44,-366.66 1494.54,-360.85"/>
</g>
<!-- Node35&#45;&gt;Node22 -->
<g id="edge72" class="edge">
<title>Node35&#45;&gt;Node22</title>
<path fill="none" stroke="midnightblue" d="M1512.94,-366.11C1551.08,-353.46 1601.04,-336.89 1630.85,-327.01"/>
<polygon fill="midnightblue" stroke="midnightblue" points="1511.42,-362.93 1503.03,-369.4 1513.62,-369.57 1511.42,-362.93"/>
</g>
<!-- Node35&#45;&gt;Node33 -->
<g id="edge73" class="edge">
<title>Node35&#45;&gt;Node33</title>
<path fill="none" stroke="midnightblue" d="M1404.05,-366.59C1361.67,-353.9 1305.4,-337.04 1271.97,-327.03"/>
<polygon fill="midnightblue" stroke="midnightblue" points="1403.1,-369.96 1413.68,-369.48 1405.11,-363.25 1403.1,-369.96"/>
</g>
<!-- Node35&#45;&gt;Node34 -->
<g id="edge74" class="edge">
<title>Node35&#45;&gt;Node34</title>
<path fill="none" stroke="midnightblue" d="M1443.44,-361.32C1434.42,-349.6 1423.87,-335.88 1417.19,-327.19"/>
<polygon fill="midnightblue" stroke="midnightblue" points="1440.78,-363.6 1449.65,-369.4 1446.33,-359.34 1440.78,-363.6"/>
</g>
</g>
</svg>
        <g id="navigator" transform="translate(0 0)" fill="#404254">
                <rect fill="#f2f5e9" fill-opacity="0.5" stroke="#606060" stroke-width=".5" x="0" y="0" width="60" height="60"/>
                <use id="zoomplus" xlink:href="#zoomPlus" x="17" y="9" onmousedown="handleZoom(evt,'in')"/>
                <use id="zoomminus" xlink:href="#zoomMin" x="42" y="9" onmousedown="handleZoom(evt,'out')"/>
                <use id="reset" xlink:href="#resetDef" x="30" y="36" onmousedown="handleReset()"/>
                <g id="arrowUp" xlink:href="#dirArrow" transform="translate(30 24)" onmousedown="handlePan(0,-1)">
                  <use xlink:href="#rim" fill="#404040">
                        <set attributeName="fill" to="#808080" begin="arrowUp.mouseover" end="arrowUp.mouseout"/>
                  </use>
                  <path fill="none" stroke="white" stroke-width="1.5" d="M0,-3.0v7 M-2.5,-0.5L0,-3.0L2.5,-0.5"/>
                </g>
                <g id="arrowRight" xlink:href="#dirArrow" transform="rotate(90) translate(36 -43)" onmousedown="handlePan(1,0)">
                  <use xlink:href="#rim" fill="#404040">
                        <set attributeName="fill" to="#808080" begin="arrowRight.mouseover" end="arrowRight.mouseout"/>
                  </use>
                  <path fill="none" stroke="white" stroke-width="1.5" d="M0,-3.0v7 M-2.5,-0.5L0,-3.0L2.5,-0.5"/>
                </g>
                <g id="arrowDown" xlink:href="#dirArrow" transform="rotate(180) translate(-30 -48)" onmousedown="handlePan(0,1)">
                  <use xlink:href="#rim" fill="#404040">
                        <set attributeName="fill" to="#808080" begin="arrowDown.mouseover" end="arrowDown.mouseout"/>
                  </use>
                  <path fill="none" stroke="white" stroke-width="1.5" d="M0,-3.0v7 M-2.5,-0.5L0,-3.0L2.5,-0.5"/>
                </g>
                <g id="arrowLeft" xlink:href="#dirArrow" transform="rotate(270) translate(-36 17)" onmousedown="handlePan(-1,0)">
                  <use xlink:href="#rim" fill="#404040">
                        <set attributeName="fill" to="#808080" begin="arrowLeft.mouseover" end="arrowLeft.mouseout"/>
                  </use>
                  <path fill="none" stroke="white" stroke-width="1.5" d="M0,-3.0v7 M-2.5,-0.5L0,-3.0L2.5,-0.5"/>
                </g>
        </g>
        <svg viewBox="0 0 15 15" width="100%" height="30px" preserveAspectRatio="xMaxYMin meet">
         <g id="arrow_out" transform="scale(0.3 0.3)">
          <a xlink:href="untyped__map_8h__dep__incl_org.svg" target="_base">
           <rect id="button" ry="5" rx="5" y="6" x="6" height="38" width="38"
                fill="#f2f5e9" fill-opacity="0.5" stroke="#606060" stroke-width="1.0"/>
           <path id="arrow"
             d="M 11.500037,31.436501 C 11.940474,20.09759 22.043105,11.32322 32.158766,21.979434 L 37.068811,17.246167 C 37.068811,17.246167 37.088388,32 37.088388,32 L 22.160133,31.978069 C 22.160133,31.978069 26.997745,27.140456 26.997745,27.140456 C 18.528582,18.264221 13.291696,25.230495 11.500037,31.436501 z"
             style="fill:#404040;"/>
          </a>
         </g>
        </svg>
</svg>
