<?xml version="1.0" encoding="UTF-8" standalone="no"?>
<!DOCTYPE svg PUBLIC "-//W3C//DTD SVG 1.1//EN"
 "http://www.w3.org/Graphics/SVG/1.1/DTD/svg11.dtd">
<!-- Generated by graphviz version 2.43.0 (0)
 -->
<!-- Title: include/ccf/version.h Pages: 1 -->
<svg width="953pt" height="386pt"
 viewBox="0.00 0.00 952.50 386.00" xmlns="http://www.w3.org/2000/svg" xmlns:xlink="http://www.w3.org/1999/xlink">
<g id="graph0" class="graph" transform="scale(1 1) rotate(0) translate(4 382)">
<title>include/ccf/version.h</title>
<polygon fill="white" stroke="transparent" points="-4,4 -4,-382 948.5,-382 948.5,4 -4,4"/>
<!-- Node1 -->
<g id="node1" class="node">
<title>Node1</title>
<g id="a_node1"><a xlink:title=" ">
<polygon fill="#bfbfbf" stroke="black" points="390,-358.5 390,-377.5 507,-377.5 507,-358.5 390,-358.5"/>
<text text-anchor="middle" x="448.5" y="-365.5" font-family="Helvetica,sans-Serif" font-size="10.00">include/ccf/version.h</text>
</a>
</g>
</g>
<!-- Node2 -->
<g id="node2" class="node">
<title>Node2</title>
<g id="a_node2"><a xlink:href="logging_8cpp.html" target="_top" xlink:title=" ">
<polygon fill="white" stroke="black" points="0,-291.5 0,-321.5 123,-321.5 123,-291.5 0,-291.5"/>
<text text-anchor="start" x="8" y="-309.5" font-family="Helvetica,sans-Serif" font-size="10.00">samples/apps/logging</text>
<text text-anchor="middle" x="61.5" y="-298.5" font-family="Helvetica,sans-Serif" font-size="10.00">/logging.cpp</text>
</a>
</g>
</g>
<!-- Node1&#45;&gt;Node2 -->
<g id="edge1" class="edge">
<title>Node1&#45;&gt;Node2</title>
<path fill="none" stroke="midnightblue" d="M379.81,-358.43C315.67,-350.14 217.37,-336.7 132.5,-322 129.4,-321.46 126.23,-320.89 123.03,-320.3"/>
<polygon fill="midnightblue" stroke="midnightblue" points="379.44,-361.91 389.8,-359.71 380.33,-354.96 379.44,-361.91"/>
</g>
<!-- Node3 -->
<g id="node3" class="node">
<title>Node3</title>
<g id="a_node3"><a xlink:href="js__generic__base_8cpp.html" target="_top" xlink:title=" ">
<polygon fill="white" stroke="black" points="141.5,-291.5 141.5,-321.5 259.5,-321.5 259.5,-291.5 141.5,-291.5"/>
<text text-anchor="start" x="149.5" y="-309.5" font-family="Helvetica,sans-Serif" font-size="10.00">src/apps/js_generic</text>
<text text-anchor="middle" x="200.5" y="-298.5" font-family="Helvetica,sans-Serif" font-size="10.00">/js_generic_base.cpp</text>
</a>
</g>
</g>
<!-- Node1&#45;&gt;Node3 -->
<g id="edge2" class="edge">
<title>Node1&#45;&gt;Node3</title>
<path fill="none" stroke="midnightblue" d="M403.1,-356.11C362.58,-346.39 303.01,-332.1 258.95,-321.52"/>
<polygon fill="midnightblue" stroke="midnightblue" points="402.43,-359.55 412.97,-358.48 404.06,-352.74 402.43,-359.55"/>
</g>
<!-- Node4 -->
<g id="node4" class="node">
<title>Node4</title>
<g id="a_node4"><a xlink:href="enclave_2main_8cpp.html" target="_top" xlink:title=" ">
<polygon fill="white" stroke="black" points="458.5,-0.5 458.5,-19.5 578.5,-19.5 578.5,-0.5 458.5,-0.5"/>
<text text-anchor="middle" x="518.5" y="-7.5" font-family="Helvetica,sans-Serif" font-size="10.00">src/enclave/main.cpp</text>
</a>
</g>
</g>
<!-- Node1&#45;&gt;Node4 -->
<g id="edge3" class="edge">
<title>Node1&#45;&gt;Node4</title>
<path fill="none" stroke="midnightblue" d="M408.47,-355.04C360.78,-338.03 287.5,-301.9 287.5,-240.5 287.5,-240.5 287.5,-240.5 287.5,-121 287.5,-45.27 389.97,-21.62 458.41,-14.27"/>
<polygon fill="midnightblue" stroke="midnightblue" points="407.62,-358.45 418.22,-358.38 409.89,-351.83 407.62,-358.45"/>
</g>
<!-- Node5 -->
<g id="node5" class="node">
<title>Node5</title>
<g id="a_node5"><a xlink:href="src_2host_2enclave_8h.html" target="_top" xlink:title=" ">
<polygon fill="white" stroke="black" points="356,-297 356,-316 461,-316 461,-297 356,-297"/>
<text text-anchor="middle" x="408.5" y="-304" font-family="Helvetica,sans-Serif" font-size="10.00">src/host/enclave.h</text>
</a>
</g>
</g>
<!-- Node1&#45;&gt;Node5 -->
<g id="edge4" class="edge">
<title>Node1&#45;&gt;Node5</title>
<path fill="none" stroke="midnightblue" d="M437.07,-350.01C429.6,-338.89 420.16,-324.84 414.22,-316.01"/>
<polygon fill="midnightblue" stroke="midnightblue" points="434.29,-352.13 442.77,-358.48 440.09,-348.22 434.29,-352.13"/>
</g>
<!-- Node6 -->
<g id="node6" class="node">
<title>Node6</title>
<g id="a_node6"><a xlink:href="host_2main_8cpp.html" target="_top" xlink:title=" ">
<polygon fill="white" stroke="black" points="417,-168.5 417,-187.5 520,-187.5 520,-168.5 417,-168.5"/>
<text text-anchor="middle" x="468.5" y="-175.5" font-family="Helvetica,sans-Serif" font-size="10.00">src/host/main.cpp</text>
</a>
</g>
</g>
<!-- Node1&#45;&gt;Node6 -->
<g id="edge10" class="edge">
<title>Node1&#45;&gt;Node6</title>
<path fill="none" stroke="midnightblue" d="M458.84,-349.65C469.55,-332.88 487.61,-307.63 508.5,-291 537.74,-267.72 564.51,-286.58 584.5,-255 591.87,-243.36 592.28,-235.37 584.5,-224 569.98,-202.79 543.89,-191.57 520.13,-185.65"/>
<polygon fill="midnightblue" stroke="midnightblue" points="455.71,-348.07 453.43,-358.42 461.66,-351.75 455.71,-348.07"/>
</g>
<!-- Node9 -->
<g id="node9" class="node">
<title>Node9</title>
<g id="a_node9"><a xlink:href="openenclave_8cpp.html" target="_top" xlink:title=" ">
<polygon fill="white" stroke="black" points="517.5,-297 517.5,-316 645.5,-316 645.5,-297 517.5,-297"/>
<text text-anchor="middle" x="581.5" y="-304" font-family="Helvetica,sans-Serif" font-size="10.00">src/js/openenclave.cpp</text>
</a>
</g>
</g>
<!-- Node1&#45;&gt;Node9 -->
<g id="edge11" class="edge">
<title>Node1&#45;&gt;Node9</title>
<path fill="none" stroke="midnightblue" d="M476.83,-354.33C502.65,-342.78 540.08,-326.03 562.48,-316.01"/>
<polygon fill="midnightblue" stroke="midnightblue" points="475.25,-351.2 467.56,-358.48 478.11,-357.59 475.25,-351.2"/>
</g>
<!-- Node10 -->
<g id="node10" class="node">
<title>Node10</title>
<g id="a_node10"><a xlink:href="wrap_8cpp.html" target="_top" xlink:title=" ">
<polygon fill="white" stroke="black" points="664,-297 664,-316 753,-316 753,-297 664,-297"/>
<text text-anchor="middle" x="708.5" y="-304" font-family="Helvetica,sans-Serif" font-size="10.00">src/js/wrap.cpp</text>
</a>
</g>
</g>
<!-- Node1&#45;&gt;Node10 -->
<g id="edge12" class="edge">
<title>Node1&#45;&gt;Node10</title>
<path fill="none" stroke="midnightblue" d="M500.39,-356.37C542.14,-347.65 602.25,-334.71 654.5,-322 662.05,-320.16 670.15,-318.06 677.72,-316.03"/>
<polygon fill="midnightblue" stroke="midnightblue" points="499.53,-352.98 490.45,-358.44 500.96,-359.83 499.53,-352.98"/>
</g>
<!-- Node11 -->
<g id="node11" class="node">
<title>Node11</title>
<g id="a_node11"><a xlink:href="node__frontend_8h.html" target="_top" xlink:title=" ">
<polygon fill="white" stroke="black" points="770.5,-297 770.5,-316 928.5,-316 928.5,-297 770.5,-297"/>
<text text-anchor="middle" x="849.5" y="-304" font-family="Helvetica,sans-Serif" font-size="10.00">src/node/rpc/node_frontend.h</text>
</a>
</g>
</g>
<!-- Node1&#45;&gt;Node11 -->
<g id="edge13" class="edge">
<title>Node1&#45;&gt;Node11</title>
<path fill="none" stroke="midnightblue" d="M516.93,-357.65C580.58,-348.85 678.04,-335.09 762.5,-322 774.45,-320.15 787.32,-318.06 799.39,-316.05"/>
<polygon fill="midnightblue" stroke="midnightblue" points="516.44,-354.19 507.01,-359.02 517.39,-361.12 516.44,-354.19"/>
</g>
<!-- Node5&#45;&gt;Node6 -->
<g id="edge5" class="edge">
<title>Node5&#45;&gt;Node6</title>
<path fill="none" stroke="midnightblue" d="M381.33,-291.8C367.58,-283.27 352.2,-270.88 344.5,-255 338.49,-242.6 336.59,-235.28 344.5,-224 360.87,-200.65 390.64,-189.37 416.91,-183.94"/>
<polygon fill="midnightblue" stroke="midnightblue" points="379.63,-294.86 390.04,-296.85 383.15,-288.81 379.63,-294.86"/>
</g>
<!-- Node7 -->
<g id="node7" class="node">
<title>Node7</title>
<g id="a_node7"><a xlink:href="sig__term_8h.html" target="_top" xlink:title=" ">
<polygon fill="white" stroke="black" points="353.5,-230 353.5,-249 463.5,-249 463.5,-230 353.5,-230"/>
<text text-anchor="middle" x="408.5" y="-237" font-family="Helvetica,sans-Serif" font-size="10.00">src/host/sig_term.h</text>
</a>
</g>
</g>
<!-- Node5&#45;&gt;Node7 -->
<g id="edge6" class="edge">
<title>Node5&#45;&gt;Node7</title>
<path fill="none" stroke="midnightblue" d="M408.5,-286.54C408.5,-274.17 408.5,-258.62 408.5,-249.13"/>
<polygon fill="midnightblue" stroke="midnightblue" points="405,-286.73 408.5,-296.73 412,-286.73 405,-286.73"/>
</g>
<!-- Node8 -->
<g id="node8" class="node">
<title>Node8</title>
<g id="a_node8"><a xlink:href="ticker_8h.html" target="_top" xlink:title=" ">
<polygon fill="white" stroke="black" points="482,-230 482,-249 575,-249 575,-230 482,-230"/>
<text text-anchor="middle" x="528.5" y="-237" font-family="Helvetica,sans-Serif" font-size="10.00">src/host/ticker.h</text>
</a>
</g>
</g>
<!-- Node5&#45;&gt;Node8 -->
<g id="edge8" class="edge">
<title>Node5&#45;&gt;Node8</title>
<path fill="none" stroke="midnightblue" d="M433.5,-291.96C457.29,-279.07 492.37,-260.07 512.57,-249.13"/>
<polygon fill="midnightblue" stroke="midnightblue" points="431.81,-288.89 424.68,-296.73 435.14,-295.05 431.81,-288.89"/>
</g>
<!-- Node7&#45;&gt;Node6 -->
<g id="edge7" class="edge">
<title>Node7&#45;&gt;Node6</title>
<path fill="none" stroke="midnightblue" d="M424.31,-222.82C435.71,-211.52 450.66,-196.69 459.92,-187.51"/>
<polygon fill="midnightblue" stroke="midnightblue" points="421.73,-220.45 417.1,-229.98 426.66,-225.42 421.73,-220.45"/>
</g>
<!-- Node8&#45;&gt;Node6 -->
<g id="edge9" class="edge">
<title>Node8&#45;&gt;Node6</title>
<path fill="none" stroke="midnightblue" d="M512.69,-222.82C501.29,-211.52 486.34,-196.69 477.08,-187.51"/>
<polygon fill="midnightblue" stroke="midnightblue" points="510.34,-225.42 519.9,-229.98 515.27,-220.45 510.34,-225.42"/>
</g>
<!-- Node12 -->
<g id="node12" class="node">
<title>Node12</title>
<g id="a_node12"><a xlink:href="src_2enclave_2enclave_8h.html" target="_top" xlink:title=" ">
<polygon fill="white" stroke="black" points="692.5,-56.5 692.5,-75.5 814.5,-75.5 814.5,-56.5 692.5,-56.5"/>
<text text-anchor="middle" x="753.5" y="-63.5" font-family="Helvetica,sans-Serif" font-size="10.00">src/enclave/enclave.h</text>
</a>
</g>
</g>
<!-- Node11&#45;&gt;Node12 -->
<g id="edge14" class="edge">
<title>Node11&#45;&gt;Node12</title>
<path fill="none" stroke="midnightblue" d="M820.44,-292.09C805.43,-283.62 788.26,-271.2 778.5,-255 742.13,-194.65 749.1,-103.82 752.36,-75.65"/>
<polygon fill="midnightblue" stroke="midnightblue" points="818.94,-295.26 829.42,-296.86 822.22,-289.08 818.94,-295.26"/>
</g>
<!-- Node13 -->
<g id="node13" class="node">
<title>Node13</title>
<g id="a_node13"><a xlink:href="jwt__key__auto__refresh_8h.html" target="_top" xlink:title=" ">
<polygon fill="white" stroke="black" points="787,-224.5 787,-254.5 912,-254.5 912,-224.5 787,-224.5"/>
<text text-anchor="start" x="795" y="-242.5" font-family="Helvetica,sans-Serif" font-size="10.00">src/node/jwt_key_auto</text>
<text text-anchor="middle" x="849.5" y="-231.5" font-family="Helvetica,sans-Serif" font-size="10.00">_refresh.h</text>
</a>
</g>
</g>
<!-- Node11&#45;&gt;Node13 -->
<g id="edge16" class="edge">
<title>Node11&#45;&gt;Node13</title>
<path fill="none" stroke="midnightblue" d="M849.5,-286.41C849.5,-276.22 849.5,-263.9 849.5,-254.59"/>
<polygon fill="midnightblue" stroke="midnightblue" points="846,-286.73 849.5,-296.73 853,-286.73 846,-286.73"/>
</g>
<!-- Node12&#45;&gt;Node4 -->
<g id="edge15" class="edge">
<title>Node12&#45;&gt;Node4</title>
<path fill="none" stroke="midnightblue" d="M706.29,-54.15C661.89,-43.95 596.31,-28.88 555.56,-19.52"/>
<polygon fill="midnightblue" stroke="midnightblue" points="705.73,-57.62 716.26,-56.44 707.3,-50.79 705.73,-57.62"/>
</g>
<!-- Node14 -->
<g id="node14" class="node">
<title>Node14</title>
<g id="a_node14"><a xlink:href="node__state_8h.html" target="_top" xlink:title=" ">
<polygon fill="white" stroke="black" points="787.5,-168.5 787.5,-187.5 911.5,-187.5 911.5,-168.5 787.5,-168.5"/>
<text text-anchor="middle" x="849.5" y="-175.5" font-family="Helvetica,sans-Serif" font-size="10.00">src/node/node_state.h</text>
</a>
</g>
</g>
<!-- Node13&#45;&gt;Node14 -->
<g id="edge17" class="edge">
<title>Node13&#45;&gt;Node14</title>
<path fill="none" stroke="midnightblue" d="M849.5,-214.29C849.5,-204.86 849.5,-194.65 849.5,-187.66"/>
<polygon fill="midnightblue" stroke="midnightblue" points="846,-214.4 849.5,-224.4 853,-214.4 846,-214.4"/>
</g>
<!-- Node14&#45;&gt;Node12 -->
<g id="edge18" class="edge">
<title>Node14&#45;&gt;Node12</title>
<path fill="none" stroke="midnightblue" d="M827.09,-162.67C815.57,-154.58 801.81,-143.76 791.5,-132 775.81,-114.11 763.22,-88.81 757.26,-75.67"/>
<polygon fill="midnightblue" stroke="midnightblue" points="825.14,-165.57 835.38,-168.29 829.07,-159.78 825.14,-165.57"/>
</g>
<!-- Node15 -->
<g id="node15" class="node">
<title>Node15</title>
<g id="a_node15"><a xlink:href="gov__effects_8h.html" target="_top" xlink:title=" ">
<polygon fill="white" stroke="black" points="800.5,-112.5 800.5,-131.5 944.5,-131.5 944.5,-112.5 800.5,-112.5"/>
<text text-anchor="middle" x="872.5" y="-119.5" font-family="Helvetica,sans-Serif" font-size="10.00">src/node/rpc/gov_effects.h</text>
</a>
</g>
</g>
<!-- Node14&#45;&gt;Node15 -->
<g id="edge19" class="edge">
<title>Node14&#45;&gt;Node15</title>
<path fill="none" stroke="midnightblue" d="M857.3,-158.69C861.18,-149.59 865.68,-139.01 868.77,-131.75"/>
<polygon fill="midnightblue" stroke="midnightblue" points="854,-157.51 853.3,-168.08 860.44,-160.25 854,-157.51"/>
</g>
<!-- Node15&#45;&gt;Node12 -->
<g id="edge20" class="edge">
<title>Node15&#45;&gt;Node12</title>
<path fill="none" stroke="midnightblue" d="M844.36,-108.23C822.1,-98.13 791.64,-84.31 772.27,-75.52"/>
<polygon fill="midnightblue" stroke="midnightblue" points="843.09,-111.5 853.64,-112.44 845.98,-105.12 843.09,-111.5"/>
</g>
</g>
</svg>
